<?xml version="1.0" encoding="UTF-8" standalone="no"?>
<!-- Created with Inkscape (http://www.inkscape.org/) -->
<svg id="svg3252" xmlns="http://www.w3.org/2000/svg" height="22" width="22" version="1.0">
 <g id="layer1" transform="translate(-1,-1)">
  <path id="path3250" style="opacity:.6;fill-rule:evenodd;fill:#eae3d0" d="m12 2c-5.5014 0-10 4.4986-10 10 0 5.501 4.4986 10 10 10 5.501 0 10-4.499 10-10 0-5.5014-4.499-10-10-10zm3.531 4.0312c2.064 1.2192 3.469 3.3902 3.469 5.9688 0 0.153-0.053 0.288-0.062 0.438-0.059-0.139-0.053-0.362-0.126-0.469-0.23-0.343-0.624-0.563-0.624-0.563-0.777-0.953-1.908-1.375-2.813-1.375-0.704 0-0.942 0.13-1.281 0.219l-1.782-1.7812c1.435-0.7865 2.529-1.6377 3.219-2.4376zm-9.1248 1.9376c0.0366 0.0484 0.0609 0.0764 0.0938 0.125 0.2344 0.3456 0.375 0.625 0.375 0.625l0.0312-0.0313c0.074 0.2147 0.1397 0.475 0.25 0.625 0.1818 0.2471 0.3903 0.4452 0.625 0.6563 0.4695 0.4222 1.0291 0.8412 1.5938 1.2192 0.836 0.559 1.283 0.818 1.656 1.031-0.35 1.53-0.164 2.825 0.438 3.562 0.476 0.584 0.965 0.826 1.312 0.969 0.01 0.001 0.012-0.028 0 0.094-0.015 0.162-0.104 0.48-0.281 0.812-0.263 0.494-0.635 0.884-0.938 1.25-3.6635-0.239-6.562-3.18-6.562-6.906 0-1.535 0.574-2.879 1.4062-4.0312z"/>
  <path id="path3157" style="fill-rule:evenodd;fill:#3a3935" d="m12 3c-4.968 0-9 4.032-9 9s4.032 9 9 9 9-4.032 9-9-4.032-9-9-9zm3.375 1.75c2.733 1.2729 4.625 4.0384 4.625 7.25 0 2.971-1.625 5.558-4.031 6.938 3.686-5.684 1.781-6.657 1.781-6.657-1-2-4-1-4-1l-3-2.9998c2.25-0.75 3.922-2.6406 4.625-3.5312zm-9.125 1.6875c0.8121 0.4604 1.5 1.8438 1.5 1.8437 0 1 4.344 3.4068 4.344 3.4068-1.409 3.545 1.344 4.281 1.344 4.281 1.131 0.995-0.835 3.357-1.438 4.031-4.416 0-8-3.584-8-8 0-2.1607 0.8563-4.1225 2.25-5.5625z"/>
 </g>
</svg>
