<?xml version="1.0" encoding="UTF-8" standalone="no"?>
<!-- Created with Inkscape (http://www.inkscape.org/) -->

<svg
   xmlns:dc="http://purl.org/dc/elements/1.1/"
   xmlns:cc="http://creativecommons.org/ns#"
   xmlns:rdf="http://www.w3.org/1999/02/22-rdf-syntax-ns#"
   xmlns:svg="http://www.w3.org/2000/svg"
   xmlns="http://www.w3.org/2000/svg"
   xmlns:sodipodi="http://sodipodi.sourceforge.net/DTD/sodipodi-0.dtd"
   xmlns:inkscape="http://www.inkscape.org/namespaces/inkscape"
   version="1.1"
   width="16"
   height="16"
   id="svg2"
   inkscape:version="0.48.4 r9939"
   sodipodi:docname="stock_addressbook.svg">
  <sodipodi:namedview
     pagecolor="#ffffff"
     bordercolor="#666666"
     borderopacity="1"
     objecttolerance="10"
     gridtolerance="10"
     guidetolerance="10"
     inkscape:pageopacity="0"
     inkscape:pageshadow="2"
     inkscape:window-width="1301"
     inkscape:window-height="744"
     id="namedview6"
     showgrid="false"
     inkscape:zoom="14.75"
     inkscape:cx="-3.8644068"
     inkscape:cy="8"
     inkscape:window-x="65"
     inkscape:window-y="24"
     inkscape:window-maximized="1"
     inkscape:current-layer="svg2" />
  <defs
     id="defs4" />
  <metadata
     id="metadata7">
    <rdf:RDF>
      <cc:Work
         rdf:about="">
        <dc:format>image/svg+xml</dc:format>
        <dc:type
           rdf:resource="http://purl.org/dc/dcmitype/StillImage" />
        <dc:title />
      </cc:Work>
    </rdf:RDF>
  </metadata>
  <path
     d="M 2,0 2,1 0,1 0,2 2,2 2,3 0,3 0,4 2,4 2,5 0,5 0,6 2,6 2,7 0,7 0,8 2,8 2,9 0,9 l 0,1 2,0 0,1 -2,0 0,1 2,0 0,1 -2,0 0,1 2,0 0,1 -2,0 0,1 13,0 L 13,0 2,0 z m 12,0 0,3 2,0 0,-3 -2,0 z m -9,4 5,0 c 0.554,0 1,0.446 1,1 l 0,4 c 0,0.554 -0.446,1 -1,1 L 7,10 C 6.446,10 6,9.554 6,9 L 6,7 C 6,6.446 6.446,6 7,6 l 1,0 c 0.554,0 1,0.446 1,1 l 0,2 1,0 0,-4 -5,0 0,6 3,0 0,1 -3,0 C 4.446,12 4,11.554 4,11 L 4,5 C 4,4.446 4.446,4 5,4 z m 9,0 0,3 2,0 0,-3 -2,0 z M 7,7 7,9 8,9 8,7 7,7 z m 7,1 0,3 2,0 0,-3 -2,0 z m 0,4 0,3 2,0 0,-3 -2,0 z"
     id="rect3077"
     style="fill:#0097a7;fill-opacity:1;fill-rule:nonzero;stroke:none;color:#000000;marker:none;visibility:visible;display:inline;overflow:visible;enable-background:accumulate" />
</svg>
