<?xml version="1.0" encoding="UTF-8" standalone="no"?>
<!-- Created with Inkscape (http://www.inkscape.org/) -->

<svg
   xmlns:dc="http://purl.org/dc/elements/1.1/"
   xmlns:cc="http://creativecommons.org/ns#"
   xmlns:rdf="http://www.w3.org/1999/02/22-rdf-syntax-ns#"
   xmlns:svg="http://www.w3.org/2000/svg"
   xmlns="http://www.w3.org/2000/svg"
   xmlns:sodipodi="http://sodipodi.sourceforge.net/DTD/sodipodi-0.dtd"
   xmlns:inkscape="http://www.inkscape.org/namespaces/inkscape"
   width="16.000031"
   height="16.000029"
   id="svg27665"
   version="1.1"
   inkscape:version="0.48.4 r9939"
   sodipodi:docname="aptana.svg">
  <defs
     id="defs27667" />
  <sodipodi:namedview
     id="base"
     pagecolor="#ffffff"
     bordercolor="#666666"
     borderopacity="1.0"
     inkscape:pageopacity="0.0"
     inkscape:pageshadow="2"
     inkscape:zoom="31.678384"
     inkscape:cx="9.2603001"
     inkscape:cy="7.3971859"
     inkscape:document-units="px"
     inkscape:current-layer="layer1"
     showgrid="true"
     inkscape:window-width="1301"
     inkscape:window-height="744"
     inkscape:window-x="65"
     inkscape:window-y="24"
     inkscape:window-maximized="1"
     inkscape:snap-bbox="true"
     inkscape:bbox-paths="true"
     inkscape:bbox-nodes="true"
     inkscape:snap-bbox-edge-midpoints="true"
     inkscape:snap-bbox-midpoints="true"
     inkscape:object-paths="true"
     inkscape:snap-intersection-paths="true"
     inkscape:object-nodes="true"
     inkscape:snap-smooth-nodes="true"
     inkscape:snap-midpoints="true"
     inkscape:snap-object-midpoints="true"
     inkscape:snap-center="true"
     inkscape:snap-global="true"
     showguides="false"
     inkscape:guide-bbox="true"
     fit-margin-top="0"
     fit-margin-left="0"
     fit-margin-right="0"
     fit-margin-bottom="0"
     inkscape:showpageshadow="false">
    <sodipodi:guide
       orientation="0,1"
       position="-1494.2276,523.03618"
       id="guide4179" />
    <sodipodi:guide
       orientation="1,0"
       position="-1492.0847,520.17904"
       id="guide4181" />
    <inkscape:grid
       type="xygrid"
       id="grid4279"
       empspacing="5"
       visible="true"
       enabled="true"
       snapvisiblegridlinesonly="true"
       originx="6.6056504e-05px"
       originy="592.00001px" />
  </sodipodi:namedview>
  <metadata
     id="metadata27670">
    <rdf:RDF>
      <cc:Work
         rdf:about="">
        <dc:format>image/svg+xml</dc:format>
        <dc:type
           rdf:resource="http://purl.org/dc/dcmitype/StillImage" />
        <dc:title />
      </cc:Work>
    </rdf:RDF>
  </metadata>
  <g
     inkscape:label="Camada 1"
     inkscape:groupmode="layer"
     id="layer1"
     transform="translate(3393.2465,-1650.2411)">
    <rect
       style="opacity:0.00100002;fill:#ffffff;fill-opacity:1;fill-rule:nonzero;stroke:none"
       id="rect4544"
       width="16"
       height="16"
       x="-3393.2466"
       y="1650.2411" />
    <path
       style="fill:#ff7043;fill-opacity:1;fill-rule:nonzero;stroke:none"
       d="M 1 1 L 1 15 L 15 15 L 15 1 L 1 1 z M 7 2 L 9 2 L 9 4.15625 C 9.355356 4.2478906 9.6901125 4.3828467 10 4.5625 L 11.53125 3.0625 L 12.9375 4.46875 L 11.4375 6 C 11.617153 6.3098875 11.752109 6.644644 11.84375 7 L 14 7 L 14 9 L 11.84375 9 C 11.752109 9.355356 11.617153 9.6901125 11.4375 10 L 12.9375 11.53125 L 11.53125 12.9375 L 10 11.4375 C 9.6901125 11.617153 9.355356 11.752109 9 11.84375 L 9 14 L 7 14 L 7 11.84375 C 6.644644 11.752109 6.3098875 11.617153 6 11.4375 L 4.46875 12.9375 L 3.0625 11.53125 L 4.5625 10 C 4.3828467 9.6901125 4.2478906 9.355356 4.15625 9 L 2 9 L 2 7 L 4.15625 7 C 4.2478906 6.644644 4.3828467 6.3098875 4.5625 6 L 3.0625 4.46875 L 4.46875 3.0625 L 6 4.5625 C 6.3098875 4.3828467 6.644644 4.2478906 7 4.15625 L 7 2 z M 8 6 C 6.8954305 6 6 6.8954305 6 8 C 6 9.1045695 6.8954305 10 8 10 C 9.1045695 10 10 9.1045695 10 8 C 10 6.8954305 9.1045695 6 8 6 z "
       transform="translate(-3393.2465,1650.2411)"
       id="rect3048" />
  </g>
</svg>
