<?xml version="1.0" encoding="UTF-8" standalone="no"?>
<!-- Created with Inkscape (http://www.inkscape.org/) -->

<svg
   xmlns:dc="http://purl.org/dc/elements/1.1/"
   xmlns:cc="http://creativecommons.org/ns#"
   xmlns:rdf="http://www.w3.org/1999/02/22-rdf-syntax-ns#"
   xmlns:svg="http://www.w3.org/2000/svg"
   xmlns="http://www.w3.org/2000/svg"
   xmlns:sodipodi="http://sodipodi.sourceforge.net/DTD/sodipodi-0.dtd"
   xmlns:inkscape="http://www.inkscape.org/namespaces/inkscape"
   width="15.999998"
   height="15.999998"
   id="svg13094"
   version="1.1"
   inkscape:version="0.48.4 r9939"
   sodipodi:docname="bug.svg">
  <sodipodi:namedview
     id="base"
     pagecolor="#ffffff"
     bordercolor="#666666"
     borderopacity="1.0"
     inkscape:pageopacity="0.0"
     inkscape:pageshadow="2"
     inkscape:zoom="45.254837"
     inkscape:cx="4.8218574"
     inkscape:cy="8.4198711"
     inkscape:document-units="px"
     inkscape:current-layer="layer1"
     showgrid="true"
     inkscape:snap-bbox="true"
     inkscape:bbox-paths="true"
     inkscape:bbox-nodes="true"
     inkscape:snap-bbox-edge-midpoints="true"
     inkscape:snap-bbox-midpoints="true"
     inkscape:object-paths="true"
     inkscape:snap-intersection-paths="true"
     inkscape:object-nodes="true"
     inkscape:snap-smooth-nodes="true"
     inkscape:snap-midpoints="true"
     inkscape:snap-object-midpoints="true"
     inkscape:snap-center="true"
     showguides="true"
     inkscape:guide-bbox="true"
     inkscape:window-width="1301"
     inkscape:window-height="744"
     inkscape:window-x="65"
     inkscape:window-y="24"
     inkscape:window-maximized="1"
     inkscape:snap-global="true"
     fit-margin-top="0"
     fit-margin-left="0"
     fit-margin-right="0"
     fit-margin-bottom="0"
     showborder="true"
     inkscape:showpageshadow="false">
    <inkscape:grid
       type="xygrid"
       id="grid3183"
       empspacing="5"
       visible="true"
       enabled="true"
       snapvisiblegridlinesonly="true"
       originx="9.5192791e-05px"
       originy="10.999988px" />
  </sodipodi:namedview>
  <defs
     id="defs13096" />
  <metadata
     id="metadata13099">
    <rdf:RDF>
      <cc:Work
         rdf:about="">
        <dc:format>image/svg+xml</dc:format>
        <dc:type
           rdf:resource="http://purl.org/dc/dcmitype/StillImage" />
        <dc:title />
      </cc:Work>
    </rdf:RDF>
  </metadata>
  <g
     transform="translate(9398.6161,-4997.8786)"
     id="layer1"
     inkscape:groupmode="layer"
     inkscape:label="Camada 1">
    <g
       transform="matrix(0.02512477,0,0,0.02512477,-9310.3262,5038.971)"
       id="16"
       style="fill:#e53935;fill-opacity:1">
      <rect
         y="-43.478539"
         x="-3514.0554"
         height="636.82166"
         width="636.82166"
         id="rect3044"
         style="opacity:0.00100002000000000;fill:#e53935;fill-opacity:1;fill-rule:nonzero;stroke:none" />
      <g
         transform="matrix(0.02512477,0,0,0.02512477,-9310.3255,4998.9715)"
         id="use3046"
         style="fill:#e53935;fill-opacity:1">
        <path
           inkscape:connector-curvature="0"
           style="font-size:medium;font-style:normal;font-variant:normal;font-weight:normal;font-stretch:normal;text-indent:0;text-align:start;text-decoration:none;line-height:normal;letter-spacing:normal;word-spacing:normal;text-transform:none;direction:ltr;block-progression:tb;writing-mode:lr-tb;text-anchor:start;baseline-shift:baseline;color:#000000;fill:#e53935;fill-opacity:1;stroke:none;stroke-width:2;marker:none;visibility:visible;display:inline;overflow:visible;enable-background:accumulate;font-family:Sans;-inkscape-font-specification:Sans"
           d="m -3394.65,36.123713 159.2054,159.205437 0,-79.60272 39.8014,0 c 88.3982,0 159.2054,70.80727 159.2054,159.20544 0,37.07142 -12.6016,71.30055 -33.5824,98.2596 l 55.9707,55.97066 c 35.4778,-41.69861 57.2144,-95.47839 57.2144,-154.23026 0,-131.41867 -107.3895,-238.808157 -238.8081,-238.808157 l -199.0068,0 z m 17.4131,84.577887 c -35.4778,41.69861 -57.2145,95.4784 -57.2145,154.23027 0,131.41867 107.3896,238.80815 238.8082,238.80815 l 199.0068,0 -159.2055,-159.20544 0,79.60272 -39.8013,0 c -88.3982,0 -159.2055,-70.80725 -159.2055,-159.20543 0,-37.07142 12.6016,-71.30056 33.5824,-98.25961 l -55.9706,-55.97066 z"
           id="path3085" />
        <path
           style="font-size:medium;font-style:normal;font-variant:normal;font-weight:normal;font-stretch:normal;text-indent:0;text-align:start;text-decoration:none;line-height:normal;letter-spacing:normal;word-spacing:normal;text-transform:none;direction:ltr;block-progression:tb;writing-mode:lr-tb;text-anchor:start;baseline-shift:baseline;color:#000000;fill:#e53935;fill-opacity:1;stroke:none;stroke-width:2;marker:none;visibility:visible;display:inline;overflow:visible;enable-background:accumulate;font-family:Sans;-inkscape-font-specification:Sans"
           d="m -3235.4406,115.72643 0,79.60272 19.9007,19.90068 0,-79.60272 39.8013,0 c 38.9948,0 74.4105,14.32475 101.991,37.31377 -29.1253,-34.94249 -72.4882,-57.21445 -121.8916,-57.21445 l -39.8014,0 z m 217.6637,1.24379 c 37.5356,42.21707 60.9458,97.32547 60.9458,157.96165 0,58.75186 -21.7366,112.53165 -57.2144,154.23026 l 19.9006,19.90068 c 35.4778,-41.69861 57.2145,-95.4784 57.2145,-154.23026 0,-70.7825 -31.5653,-134.04589 -80.8465,-177.86233 z m -303.4854,59.70204 c -20.9808,26.95905 -33.5824,61.18818 -33.5824,98.25961 0,49.40343 22.272,92.7663 57.2145,121.89166 -22.9891,-27.58055 -37.3138,-62.99624 -37.3138,-101.99098 0,-37.07143 12.6016,-71.30056 33.5824,-98.25961 l -19.9007,-19.90068 z m -32.3386,276.12193 c 43.8165,49.28129 107.0799,80.84651 177.8623,80.84651 l 199.0068,0 -19.9007,-19.90068 -199.0067,0 c -60.6362,0 -115.7446,-23.41024 -157.9617,-60.94583 z"
           id="path3087"
           inkscape:connector-curvature="0" />
        <path
           style="font-size:medium;font-style:normal;font-variant:normal;font-weight:normal;font-stretch:normal;text-indent:0;text-align:start;text-decoration:none;line-height:normal;letter-spacing:normal;word-spacing:normal;text-transform:none;direction:ltr;block-progression:tb;writing-mode:lr-tb;text-anchor:start;baseline-shift:baseline;color:#000000;fill:#e53935;fill-opacity:1;stroke:none;stroke-width:2;marker:none;visibility:visible;display:inline;overflow:visible;enable-background:accumulate;font-family:Sans;-inkscape-font-specification:Sans"
           d="m -3394.6501,36.123713 19.9007,19.90068 199.0068,0 c 60.6361,0 115.7446,23.41024 157.9616,60.945827 -43.8165,-49.281267 -107.0799,-80.846507 -177.8623,-80.846507 l -199.0068,0 z m 17.4131,84.577887 c -35.4778,41.69861 -57.2145,95.4784 -57.2145,154.23027 0,70.78248 31.5653,134.04588 80.8465,177.86232 -37.5356,-42.21706 -60.9458,-97.32545 -60.9458,-157.96164 0,-58.75187 21.7367,-112.53166 57.2145,-154.23027 l -19.9007,-19.90068 z m 303.4854,52.23928 c 22.989,27.58057 37.3137,62.99623 37.3137,101.99099 0,37.07142 -12.6016,71.30055 -33.5824,98.2596 l 19.9007,19.90068 c 20.9808,-26.95905 33.5824,-61.18818 33.5824,-98.2596 0,-49.40342 -22.272,-92.7663 -57.2144,-121.89167 z m -82.0903,181.59371 0,79.60271 -39.8014,0 c -38.9948,0 -74.4104,-14.32474 -101.991,-37.31377 29.1254,34.94249 72.4882,57.21445 121.8917,57.21445 l 39.8013,0 0,-79.60272 -19.9006,-19.90067 z"
           id="path3089"
           inkscape:connector-curvature="0" />
      </g>
    </g>
    <rect
       style="color:#000000;fill:#e53935;fill-opacity:1;fill-rule:nonzero;stroke:none;stroke-width:1;marker:none;visibility:visible;display:inline;overflow:visible;enable-background:accumulate"
       id="rect3002"
       width="6"
       height="11"
       x="5.0000954"
       y="3.00001"
       transform="translate(-9398.6161,4997.8786)"
       rx="3"
       ry="3" />
    <rect
       style="color:#000000;fill:#e53935;fill-opacity:1;fill-rule:nonzero;stroke:none;stroke-width:1;marker:none;visibility:visible;display:inline;overflow:visible;enable-background:accumulate"
       id="rect3026"
       width="5.21631"
       height="1"
       x="353.00772"
       y="-10634.22"
       inkscape:transform-center-x="-1.9999262"
       transform="matrix(-0.50000001,-0.8660254,0.8660254,-0.50000001,0,0)"
       inkscape:transform-center-y="3.4647435" />
    <rect
       inkscape:transform-center-y="3.4646625"
       transform="matrix(0.50000001,-0.8660254,-0.8660254,-0.50000001,0,0)"
       inkscape:transform-center-x="1.9997636"
       y="5630.8047"
       x="-9037.6094"
       height="1"
       width="5.21631"
       id="rect3018"
       style="color:#000000;fill:#e53935;fill-opacity:1;fill-rule:nonzero;stroke:none;stroke-width:1;marker:none;visibility:visible;display:inline;overflow:visible;enable-background:accumulate" />
    <rect
       style="color:#000000;fill:#e53935;fill-opacity:1;fill-rule:nonzero;stroke:none;stroke-width:1;marker:none;visibility:visible;display:inline;overflow:visible;enable-background:accumulate"
       id="rect3028"
       width="4.000206"
       height="1"
       x="10629.22"
       y="359.95599"
       inkscape:transform-center-x="-3.4649969"
       transform="matrix(-0.8660254,0.5,-0.5,-0.8660254,0,0)"
       inkscape:transform-center-y="-2.000557" />
    <rect
       style="color:#000000;fill:#e53935;fill-opacity:1;fill-rule:nonzero;stroke:none;stroke-width:1;marker:none;visibility:visible;display:inline;overflow:visible;enable-background:accumulate"
       id="rect3030"
       width="4.000206"
       height="1"
       x="9022.793"
       y="5630.0737"
       inkscape:transform-center-x="-2.0007142"
       transform="matrix(-0.5,0.8660254,-0.8660254,-0.5,0,0)"
       inkscape:transform-center-y="-3.4652171" />
    <rect
       inkscape:transform-center-y="-3.4652308"
       transform="matrix(0.5,0.8660254,-0.8660254,0.5,0,0)"
       inkscape:transform-center-x="2.0005858"
       y="10633.952"
       x="-367.82416"
       height="1"
       width="4.000206"
       id="rect3020"
       style="color:#000000;fill:#e53935;fill-opacity:1;fill-rule:nonzero;stroke:none;stroke-width:1;marker:none;visibility:visible;display:inline;overflow:visible;enable-background:accumulate" />
    <rect
       style="color:#000000;fill:#e53935;fill-opacity:1;fill-rule:nonzero;stroke:none;stroke-width:1;marker:none;visibility:visible;display:inline;overflow:visible;enable-background:accumulate"
       id="rect3004"
       width="4.000206"
       height="1"
       x="-5635.8047"
       y="9029.6602"
       inkscape:transform-center-x="3.4653564"
       transform="matrix(0.8660254,0.5,-0.5,0.8660254,0,0)"
       inkscape:transform-center-y="-2.0002752" />
    <path
       style="color:#000000;fill:#c62828;fill-opacity:0.5714286;fill-rule:nonzero;stroke:none;stroke-width:1;marker:none;visibility:visible;display:inline;overflow:visible;enable-background:accumulate"
       d="m 5,6 -1.9999048,2.0000101 -2,3.9999999 L 8,14 l 7.000095,-1.99999 -2,-3.9999999 L 11,6 8,6 z"
       transform="translate(-9398.6161,4997.8786)"
       id="path3036"
       inkscape:connector-curvature="0"
       sodipodi:nodetypes="ccccccccc" />
  </g>
</svg>
