<?xml version="1.0" encoding="UTF-8" standalone="no"?>
<!-- Created with Inkscape (http://www.inkscape.org/) -->

<svg
   xmlns:dc="http://purl.org/dc/elements/1.1/"
   xmlns:cc="http://creativecommons.org/ns#"
   xmlns:rdf="http://www.w3.org/1999/02/22-rdf-syntax-ns#"
   xmlns:svg="http://www.w3.org/2000/svg"
   xmlns="http://www.w3.org/2000/svg"
   xmlns:sodipodi="http://sodipodi.sourceforge.net/DTD/sodipodi-0.dtd"
   xmlns:inkscape="http://www.inkscape.org/namespaces/inkscape"
   width="16"
   height="16"
   id="svg27665"
   version="1.1"
   inkscape:version="0.48.4 r9939"
   sodipodi:docname="filezilla.svg">
  <defs
     id="defs27667" />
  <sodipodi:namedview
     id="base"
     pagecolor="#ffffff"
     bordercolor="#666666"
     borderopacity="1.0"
     inkscape:pageopacity="0.0"
     inkscape:pageshadow="2"
     inkscape:zoom="45.254834"
     inkscape:cx="6.6010508"
     inkscape:cy="7.4358907"
     inkscape:document-units="px"
     inkscape:current-layer="layer1"
     showgrid="true"
     inkscape:window-width="1301"
     inkscape:window-height="744"
     inkscape:window-x="65"
     inkscape:window-y="24"
     inkscape:window-maximized="1"
     inkscape:snap-bbox="true"
     inkscape:bbox-paths="true"
     inkscape:bbox-nodes="true"
     inkscape:snap-bbox-edge-midpoints="true"
     inkscape:snap-bbox-midpoints="true"
     inkscape:object-paths="true"
     inkscape:snap-intersection-paths="true"
     inkscape:object-nodes="true"
     inkscape:snap-smooth-nodes="true"
     inkscape:snap-midpoints="true"
     inkscape:snap-object-midpoints="true"
     inkscape:snap-center="true"
     inkscape:snap-global="true"
     showguides="false"
     inkscape:guide-bbox="true"
     fit-margin-top="0"
     fit-margin-left="0"
     fit-margin-right="0"
     fit-margin-bottom="0"
     inkscape:showpageshadow="false">
    <sodipodi:guide
       orientation="0,1"
       position="599.99999,299.99993"
       id="guide3572" />
    <sodipodi:guide
       orientation="1,0"
       position="294.41949,12.121716"
       id="guide3574" />
    <sodipodi:guide
       orientation="0,1"
       position="456.04389,599.99992"
       id="guide3576" />
    <sodipodi:guide
       orientation="0,1"
       position="-2.8882813e-06,-8.4406273e-05"
       id="guide3578" />
    <sodipodi:guide
       orientation="1,0"
       position="-2.8882813e-06,157.58366"
       id="guide3580" />
    <sodipodi:guide
       orientation="1,0"
       position="599.99999,121.21821"
       id="guide3582" />
    <sodipodi:guide
       orientation="0,1"
       position="599.99999,-714.34359"
       id="guide5928" />
    <sodipodi:guide
       orientation="0,1"
       position="599.99999,-414.34359"
       id="guide5930" />
    <sodipodi:guide
       orientation="0,1"
       position="599.99999,-1014.3435"
       id="guide5932" />
    <sodipodi:guide
       orientation="0,1"
       position="451.57029,524.99606"
       id="guide5294" />
    <sodipodi:guide
       orientation="0,1"
       position="451.57029,75.013516"
       id="guide5296" />
    <sodipodi:guide
       orientation="0,1"
       position="496.01499,-931.36409"
       id="guide5413" />
    <sodipodi:guide
       orientation="0,1"
       position="457.34859,-489.34389"
       id="guide5415" />
    <inkscape:grid
       type="xygrid"
       id="grid3070"
       empspacing="5"
       visible="true"
       enabled="true"
       snapvisiblegridlinesonly="true"
       originx="4.3243213e-05px"
       originy="-2.6947047e-05px" />
  </sodipodi:namedview>
  <metadata
     id="metadata27670">
    <rdf:RDF>
      <cc:Work
         rdf:about="">
        <dc:format>image/svg+xml</dc:format>
        <dc:type
           rdf:resource="http://purl.org/dc/dcmitype/StillImage" />
        <dc:title />
      </cc:Work>
    </rdf:RDF>
  </metadata>
  <g
     inkscape:label="Camada 1"
     inkscape:groupmode="layer"
     id="layer1"
     transform="translate(3364.4171,-2100.7186)">
    <path
       style="color:#000000;fill:#e53935;fill-opacity:1;fill-rule:nonzero;stroke:none;stroke-width:1;marker:none;visibility:visible;display:inline;overflow:visible;enable-background:accumulate"
       d="M 2 0 L 2 1 L 0 1 L 0 2 L 1 2 L 1 3 L 0 3 L 0 4 L 1 4 L 1 5 L 0 5 L 0 6 L 1 6 L 1 7 L 0 7 L 0 8 L 1 8 L 1 9 L 0 9 L 0 10 L 1 10 L 1 11 L 0 11 L 0 12 L 1 12 L 1 13 L 0 13 L 0 14 L 1 14 L 1 16 L 2 16 L 2 15 L 3 15 L 3 16 L 4 16 L 4 15 L 5 15 L 5 16 L 6 16 L 6 15 L 7 15 L 7 16 L 8 16 L 8 15 L 9 15 L 9 16 L 10 16 L 10 15 L 11 15 L 11 16 L 12 16 L 12 15 L 13 15 L 13 16 L 14 16 L 14 15 L 16 15 L 16 14 L 15 14 L 15 13 L 16 13 L 16 12 L 15 12 L 15 11 L 16 11 L 16 10 L 15 10 L 15 9 L 16 9 L 16 8 L 15 8 L 15 7 L 16 7 L 16 6 L 15 6 L 15 5 L 16 5 L 16 4 L 15 4 L 15 3 L 16 3 L 16 2 L 15 2 L 15 0 L 14 0 L 14 1 L 13 1 L 13 0 L 12 0 L 12 1 L 11 1 L 11 0 L 10 0 L 10 1 L 9 1 L 9 0 L 8 0 L 8 1 L 7 1 L 7 0 L 6 0 L 6 1 L 5 1 L 5 0 L 4 0 L 4 1 L 3 1 L 3 0 L 2 0 z M 5 4 L 6 4 L 7 4 L 11 4 L 11 6 L 6.75 6 L 6.625 7 L 12 7 L 12 9 L 10 10 L 12 10 L 12 12 L 8 12 L 8 10 L 10 9 L 6.375 9 L 6 12 L 4 12 L 5 4 z "
       transform="translate(-3364.4171,2100.7186)"
       id="path2999" />
  </g>
</svg>
