<?xml version="1.0" encoding="UTF-8" standalone="no"?>
<!-- Created with Inkscape (http://www.inkscape.org/) -->

<svg
   xmlns:dc="http://purl.org/dc/elements/1.1/"
   xmlns:cc="http://creativecommons.org/ns#"
   xmlns:rdf="http://www.w3.org/1999/02/22-rdf-syntax-ns#"
   xmlns:svg="http://www.w3.org/2000/svg"
   xmlns="http://www.w3.org/2000/svg"
   xmlns:sodipodi="http://sodipodi.sourceforge.net/DTD/sodipodi-0.dtd"
   xmlns:inkscape="http://www.inkscape.org/namespaces/inkscape"
   width="16.000042"
   height="16.000013"
   id="svg27665"
   version="1.1"
   inkscape:version="0.48.4 r9939"
   sodipodi:docname="chromium-browser.svg">
  <defs
     id="defs27667" />
  <sodipodi:namedview
     id="base"
     pagecolor="#ffffff"
     bordercolor="#666666"
     borderopacity="1.0"
     inkscape:pageopacity="0.0"
     inkscape:pageshadow="2"
     inkscape:zoom="16"
     inkscape:cx="10.71601"
     inkscape:cy="1.8392888"
     inkscape:document-units="px"
     inkscape:current-layer="layer1"
     showgrid="true"
     inkscape:window-width="1301"
     inkscape:window-height="744"
     inkscape:window-x="65"
     inkscape:window-y="24"
     inkscape:window-maximized="1"
     inkscape:snap-bbox="true"
     inkscape:bbox-paths="true"
     inkscape:bbox-nodes="true"
     inkscape:snap-bbox-edge-midpoints="true"
     inkscape:snap-bbox-midpoints="true"
     inkscape:object-paths="true"
     inkscape:snap-intersection-paths="true"
     inkscape:object-nodes="true"
     inkscape:snap-smooth-nodes="true"
     inkscape:snap-midpoints="true"
     inkscape:snap-object-midpoints="true"
     inkscape:snap-center="true"
     inkscape:snap-global="true"
     showguides="false"
     inkscape:guide-bbox="true"
     fit-margin-top="0"
     fit-margin-left="0"
     fit-margin-right="0"
     fit-margin-bottom="0"
     inkscape:showpageshadow="false">
    <sodipodi:guide
       orientation="0,1"
       position="-1440.7659,2520.4813"
       id="guide4179" />
    <sodipodi:guide
       orientation="1,0"
       position="-1438.623,2517.6242"
       id="guide4181" />
    <inkscape:grid
       type="xygrid"
       id="grid3296"
       empspacing="5"
       visible="true"
       enabled="true"
       snapvisiblegridlinesonly="true"
       originx="-91.999833px"
       originy="1268px" />
    <sodipodi:guide
       orientation="1,0"
       position="364.00016,-118"
       id="guide3432" />
    <sodipodi:guide
       orientation="0,1"
       position="364.00015,-118"
       id="guide3434" />
    <sodipodi:guide
       orientation="1,0"
       position="129.03299,-111.9666"
       id="guide4416" />
    <sodipodi:guide
       orientation="1,0"
       position="599.00019,-118"
       id="guide4418" />
    <sodipodi:guide
       orientation="0,1"
       position="364.00016,117"
       id="guide4420" />
  </sodipodi:namedview>
  <metadata
     id="metadata27670">
    <rdf:RDF>
      <cc:Work
         rdf:about="">
        <dc:format>image/svg+xml</dc:format>
        <dc:type
           rdf:resource="http://purl.org/dc/dcmitype/StillImage" />
        <dc:title />
      </cc:Work>
    </rdf:RDF>
  </metadata>
  <g
     inkscape:label="Camada 1"
     inkscape:groupmode="layer"
     id="layer1"
     transform="translate(3446.7083,-3647.6863)">
    <path
       inkscape:connector-curvature="0"
       id="path3927"
       d="m -3438.7083,3648.6863 c -1.8905,0 -3.585,0.7807 -4.8437,2 l 2.1562,3.7187 c 0.4811,-1.0112 1.4942,-1.7187 2.6875,-1.7187 l 6.3125,0 c -1.1242,-2.363 -3.5215,-4 -6.3125,-4 z m -5.75,3.0312 c -0.7852,1.1313 -1.25,2.4874 -1.25,3.9688 0,3.3049 2.295,6.0468 5.375,6.7812 l 2.2188,-3.8437 c -0.1953,0.04 -0.3867,0.062 -0.5938,0.062 -1.1095,0 -2.0747,-0.6046 -2.5937,-1.5 l -3.1563,-5.4688 z m 5.75,1.9688 c -1.1046,0 -2,0.8954 -2,2 0,0.2761 0.055,0.542 0.1563,0.7812 l 0.125,0.2188 c 0.346,0.5969 0.9791,1 1.7187,1 0.6742,0 1.2627,-0.3327 1.625,-0.8438 l 0.031,-0.031 c 0.026,-0.038 0.039,-0.085 0.062,-0.125 0.1707,-0.2945 0.2812,-0.635 0.2812,-1 0,-1.1046 -0.8954,-2 -2,-2 z m 2.2188,0 c 0.4794,0.5317 0.7812,1.2276 0.7812,2 0,0.5474 -0.1502,1.0582 -0.4062,1.5 -0.035,0.06 -0.055,0.1305 -0.094,0.1875 l -0.031,0.062 -3.0313,5.2187 c 0.1854,0.015 0.3733,0.031 0.5625,0.031 3.866,0 7,-3.134 7,-7 0,-0.6912 -0.095,-1.3693 -0.2812,-2 l -4.5,0 z"
       style="fill:#1565c0;fill-opacity:1;fill-rule:nonzero;stroke:none" />
  </g>
</svg>
