<?xml version="1.0" encoding="UTF-8" standalone="no"?>
<!-- Created with Inkscape (http://www.inkscape.org/) -->

<svg
   xmlns:dc="http://purl.org/dc/elements/1.1/"
   xmlns:cc="http://creativecommons.org/ns#"
   xmlns:rdf="http://www.w3.org/1999/02/22-rdf-syntax-ns#"
   xmlns:svg="http://www.w3.org/2000/svg"
   xmlns="http://www.w3.org/2000/svg"
   xmlns:sodipodi="http://sodipodi.sourceforge.net/DTD/sodipodi-0.dtd"
   xmlns:inkscape="http://www.inkscape.org/namespaces/inkscape"
   width="16.000031"
   height="16.000029"
   id="svg27665"
   version="1.1"
   inkscape:version="0.48.4 r9939"
   sodipodi:docname="korg-journal.svg">
  <defs
     id="defs27667" />
  <sodipodi:namedview
     id="base"
     pagecolor="#ffffff"
     bordercolor="#666666"
     borderopacity="1.0"
     inkscape:pageopacity="0.0"
     inkscape:pageshadow="2"
     inkscape:zoom="44.8"
     inkscape:cx="5.1110763"
     inkscape:cy="8.5697391"
     inkscape:document-units="px"
     inkscape:current-layer="layer1"
     showgrid="true"
     inkscape:window-width="1301"
     inkscape:window-height="744"
     inkscape:window-x="65"
     inkscape:window-y="24"
     inkscape:window-maximized="1"
     inkscape:snap-bbox="true"
     inkscape:bbox-paths="true"
     inkscape:bbox-nodes="true"
     inkscape:snap-bbox-edge-midpoints="true"
     inkscape:snap-bbox-midpoints="true"
     inkscape:object-paths="true"
     inkscape:snap-intersection-paths="true"
     inkscape:object-nodes="true"
     inkscape:snap-smooth-nodes="true"
     inkscape:snap-midpoints="true"
     inkscape:snap-object-midpoints="true"
     inkscape:snap-center="true"
     inkscape:snap-global="true"
     showguides="false"
     inkscape:guide-bbox="true"
     fit-margin-top="0"
     fit-margin-left="0"
     fit-margin-right="0"
     fit-margin-bottom="0"
     inkscape:showpageshadow="false">
    <sodipodi:guide
       orientation="0,1"
       position="-1494.2276,523.03618"
       id="guide4179" />
    <sodipodi:guide
       orientation="1,0"
       position="-1492.0847,520.17904"
       id="guide4181" />
    <inkscape:grid
       type="xygrid"
       id="grid4279"
       empspacing="5"
       visible="true"
       enabled="true"
       snapvisiblegridlinesonly="true"
       originx="6.6056504e-05px"
       originy="592.00001px" />
  </sodipodi:namedview>
  <metadata
     id="metadata27670">
    <rdf:RDF>
      <cc:Work
         rdf:about="">
        <dc:format>image/svg+xml</dc:format>
        <dc:type
           rdf:resource="http://purl.org/dc/dcmitype/StillImage" />
        <dc:title />
      </cc:Work>
    </rdf:RDF>
  </metadata>
  <g
     inkscape:label="Camada 1"
     inkscape:groupmode="layer"
     id="layer1"
     transform="translate(3393.2465,-1650.2411)">
    <path
       style="fill:#7cb342;fill-opacity:1;fill-rule:nonzero;stroke:none"
       d="M 1 1 L 1 3 L 3 3 L 3 1 L 1 1 z M 4 1 L 4 3 L 4 4 L 4 15 L 15 15 L 15 1 L 4 1 z M 1 4 L 1 6 L 3 6 L 3 4 L 1 4 z M 6 4 L 13 4 L 13 5 L 6 5 L 6 4 z M 6 6 L 13 6 L 13 7 L 6 7 L 6 6 z M 1 7 L 1 9 L 3 9 L 3 7 L 1 7 z M 6 8 L 13 8 L 13 9 L 6 9 L 6 8 z M 1 10 L 1 12 L 3 12 L 3 10 L 1 10 z M 6 10 L 13 10 L 13 11 L 6 11 L 6 10 z M 1 13 L 1 15 L 3 15 L 3 13 L 1 13 z "
       transform="translate(-3393.2465,1650.2411)"
       id="rect3041" />
  </g>
</svg>
