<?xml version="1.0" encoding="UTF-8" standalone="no"?>
<!-- Created with Inkscape (http://www.inkscape.org/) -->

<svg
   xmlns:dc="http://purl.org/dc/elements/1.1/"
   xmlns:cc="http://creativecommons.org/ns#"
   xmlns:rdf="http://www.w3.org/1999/02/22-rdf-syntax-ns#"
   xmlns:svg="http://www.w3.org/2000/svg"
   xmlns="http://www.w3.org/2000/svg"
   xmlns:sodipodi="http://sodipodi.sourceforge.net/DTD/sodipodi-0.dtd"
   xmlns:inkscape="http://www.inkscape.org/namespaces/inkscape"
   width="16"
   height="16"
   id="svg27665"
   version="1.1"
   inkscape:version="0.48.4 r9939"
   sodipodi:docname="nepomuk.svg">
  <defs
     id="defs27667" />
  <sodipodi:namedview
     id="base"
     pagecolor="#ffffff"
     bordercolor="#666666"
     borderopacity="1.0"
     inkscape:pageopacity="0.0"
     inkscape:pageshadow="2"
     inkscape:zoom="31.678384"
     inkscape:cx="3.6201968"
     inkscape:cy="7.0750126"
     inkscape:document-units="px"
     inkscape:current-layer="22"
     showgrid="true"
     inkscape:window-width="1301"
     inkscape:window-height="744"
     inkscape:window-x="65"
     inkscape:window-y="24"
     inkscape:window-maximized="1"
     inkscape:snap-bbox="true"
     inkscape:bbox-paths="true"
     inkscape:bbox-nodes="true"
     inkscape:snap-bbox-edge-midpoints="true"
     inkscape:snap-bbox-midpoints="true"
     inkscape:object-paths="true"
     inkscape:snap-intersection-paths="true"
     inkscape:object-nodes="true"
     inkscape:snap-smooth-nodes="true"
     inkscape:snap-midpoints="true"
     inkscape:snap-object-midpoints="true"
     inkscape:snap-center="true"
     inkscape:snap-global="true"
     showguides="true"
     inkscape:guide-bbox="true"
     fit-margin-top="0"
     fit-margin-left="0"
     fit-margin-right="0"
     fit-margin-bottom="0"
     inkscape:showpageshadow="false"
     inkscape:snap-page="true">
    <inkscape:grid
       type="xygrid"
       id="grid3126"
       empspacing="5"
       visible="true"
       enabled="true"
       snapvisiblegridlinesonly="true"
       originx="1.9507231e-05px"
       originy="25.00001px" />
  </sodipodi:namedview>
  <metadata
     id="metadata27670">
    <rdf:RDF>
      <cc:Work
         rdf:about="">
        <dc:format>image/svg+xml</dc:format>
        <dc:type
           rdf:resource="http://purl.org/dc/dcmitype/StillImage" />
        <dc:title />
      </cc:Work>
    </rdf:RDF>
  </metadata>
  <g
     inkscape:label="Camada 1"
     inkscape:groupmode="layer"
     id="layer1"
     transform="translate(3364.4172,-1859.5163)">
    <g
       transform="matrix(0.03606018,0,0,0.03606018,-3237.7135,1855.2242)"
       id="22"
       inkscape:label="#g10690">
      <path
         style="color:#000000;fill:#1e88e5;fill-opacity:1;fill-rule:nonzero;stroke:none;stroke-width:2.50000000000000000;marker:none;visibility:visible;display:inline;overflow:visible;enable-background:accumulate"
         d="M 3,0 C 1.3431458,0 0,1.3431458 0,3 0,4.6568542 1.3431458,6 3,6 3.265787,6 3.5046082,5.9398781 3.75,5.875 L 7.3125,9.4375 C 7.1604701,9.796939 7.0721025,10.189704 7.03125,10.59375 l -1.4375,0.5625 C 5.1499393,10.460029 4.3868424,10 3.5,10 2.1192882,10 1,11.119288 1,12.5 1,13.880712 2.1192882,15 3.5,15 4.6515494,15 5.6160773,14.215713 5.90625,13.15625 L 7.3125,12.59375 C 7.9256218,14.016036 9.35282,15 11,15 c 2.209139,0 4,-1.790861 4,-4 0,-1.64718 -0.983964,-3.0743782 -2.40625,-3.6875 l 0.5625,-1.40625 C 14.215713,5.6160795 15,4.651548 15,3.5 15,2.1192882 13.880712,1 12.5,1 11.119288,1 10,2.1192882 10,3.5 c 0,0.8868421 0.460029,1.649939 1.15625,2.09375 l -0.5625,1.4375 C 10.189704,7.0721025 9.796939,7.1604701 9.4375,7.3125 L 5.875,3.75 C 5.9398781,3.5046082 6,3.265787 6,3 6,1.3431458 4.6568542,0 3,0 z M 3,2 C 3.5522841,2 4,2.4477159 4,3 4,3.5522841 3.5522841,4 3,4 2.4477159,4 2,3.5522841 2,3 2,2.4477159 2.4477159,2 3,2 z m 8,7 c 1.104566,0 2,0.895434 2,2 0,1.104566 -0.895434,2 -2,2 C 9.895434,13 9,12.104566 9,11 9,9.895434 9.895434,9 11,9 z"
         transform="matrix(27.73142,0,0,27.73142,-3513.6735,119.02603)"
         id="path3764"
         inkscape:connector-curvature="0"
         sodipodi:nodetypes="sssccccsssccssccsssccccssssssssssss" />
    </g>
  </g>
</svg>
