<?xml version="1.0" encoding="UTF-8" standalone="no"?>
<!-- Created with Inkscape (http://www.inkscape.org/) -->

<svg
   xmlns:dc="http://purl.org/dc/elements/1.1/"
   xmlns:cc="http://creativecommons.org/ns#"
   xmlns:rdf="http://www.w3.org/1999/02/22-rdf-syntax-ns#"
   xmlns:svg="http://www.w3.org/2000/svg"
   xmlns="http://www.w3.org/2000/svg"
   xmlns:sodipodi="http://sodipodi.sourceforge.net/DTD/sodipodi-0.dtd"
   xmlns:inkscape="http://www.inkscape.org/namespaces/inkscape"
   width="16.000042"
   height="16.000002"
   id="svg27665"
   version="1.1"
   inkscape:version="0.48.4 r9939"
   sodipodi:docname="steam_tray_mono.svg">
  <defs
     id="defs27667" />
  <sodipodi:namedview
     id="base"
     pagecolor="#ffffff"
     bordercolor="#666666"
     borderopacity="1.0"
     inkscape:pageopacity="0.0"
     inkscape:pageshadow="2"
     inkscape:zoom="22.627416"
     inkscape:cx="12.676861"
     inkscape:cy="7.2444696"
     inkscape:document-units="px"
     inkscape:current-layer="layer1"
     showgrid="true"
     inkscape:window-width="1301"
     inkscape:window-height="744"
     inkscape:window-x="65"
     inkscape:window-y="24"
     inkscape:window-maximized="1"
     inkscape:snap-bbox="true"
     inkscape:bbox-paths="true"
     inkscape:bbox-nodes="true"
     inkscape:snap-bbox-edge-midpoints="true"
     inkscape:snap-bbox-midpoints="true"
     inkscape:object-paths="true"
     inkscape:snap-intersection-paths="true"
     inkscape:object-nodes="true"
     inkscape:snap-smooth-nodes="true"
     inkscape:snap-midpoints="true"
     inkscape:snap-object-midpoints="true"
     inkscape:snap-center="true"
     inkscape:snap-global="true"
     showguides="false"
     inkscape:guide-bbox="true"
     fit-margin-top="0"
     fit-margin-left="0"
     fit-margin-right="0"
     fit-margin-bottom="0"
     inkscape:showpageshadow="false">
    <sodipodi:guide
       orientation="1,0"
       position="-3201.6232,-603.37577"
       id="guide4181" />
    <inkscape:grid
       type="xygrid"
       id="grid3296"
       empspacing="5"
       visible="true"
       enabled="true"
       snapvisiblegridlinesonly="true"
       originx="-1855px"
       originy="-1853px" />
    <sodipodi:guide
       orientation="1,0"
       position="-1343,-1343"
       id="guide3432" />
    <sodipodi:guide
       orientation="1,0"
       position="-1855,-1343"
       id="guide4416" />
    <sodipodi:guide
       orientation="0,1"
       position="-1855,-1343"
       id="guide3391" />
    <sodipodi:guide
       orientation="0,1"
       position="-1565,-1358"
       id="guide3393" />
    <sodipodi:guide
       orientation="0,1"
       position="-1530,-1840"
       id="guide3395" />
    <sodipodi:guide
       orientation="1,0"
       position="-1358,-1600"
       id="guide3397" />
    <sodipodi:guide
       orientation="1,0"
       position="-1840,-1600"
       id="guide3399" />
    <sodipodi:guide
       orientation="1,0"
       position="-1830,-1600"
       id="guide3401" />
    <sodipodi:guide
       orientation="1,0"
       position="-1368,-1584"
       id="guide3403" />
    <sodipodi:guide
       orientation="0,1"
       position="-1570,-1368"
       id="guide3405" />
    <sodipodi:guide
       orientation="0,1"
       position="-1600,-1830"
       id="guide3407" />
    <sodipodi:guide
       orientation="1,0"
       position="-395,-385.99995"
       id="guide3628" />
    <sodipodi:guide
       orientation="1,0"
       position="-347,-382.99995"
       id="guide3630" />
    <sodipodi:guide
       orientation="0,1"
       position="-379,-346.99995"
       id="guide3632" />
    <sodipodi:guide
       orientation="0,1"
       position="-377,-394.99997"
       id="guide3634" />
    <sodipodi:guide
       orientation="0,1"
       position="-396,-349.99995"
       id="guide3636" />
    <sodipodi:guide
       orientation="1,0"
       position="-350,-344.99995"
       id="guide3638" />
    <sodipodi:guide
       orientation="0,1"
       position="-400,-391.99997"
       id="guide3640" />
    <sodipodi:guide
       orientation="1,0"
       position="-392,-344.99995"
       id="guide3642" />
  </sodipodi:namedview>
  <metadata
     id="metadata27670">
    <rdf:RDF>
      <cc:Work
         rdf:about="">
        <dc:format>image/svg+xml</dc:format>
        <dc:type
           rdf:resource="http://purl.org/dc/dcmitype/StillImage" />
        <dc:title />
      </cc:Work>
    </rdf:RDF>
  </metadata>
  <g
     inkscape:label="Camada 1"
     inkscape:groupmode="layer"
     id="layer1"
     transform="translate(1683.7081,-526.68635)">
    <path
       id="path8004"
       d="m -1672.2081,527.68636 c -1.933,0 -3.5,1.567 -3.5,3.5 l -3.25,4.53125 c -0.084,-0.009 -0.1637,-0.0312 -0.25,-0.0312 -0.5934,0 -1.1344,0.21848 -1.5625,0.5625 l -2.9375,-1.75 0,2.125 2.0313,1.28125 c -0.01,0.0917 -0.031,0.18581 -0.031,0.28125 0,1.38071 1.1193,2.5 2.5,2.5 1.3807,0 2.5,-1.11929 2.5,-2.5 0,-0.0863 -0.023,-0.16596 -0.031,-0.25 l 4.5625,-3.25 c 1.9186,-0.0168 3.4687,-1.57743 3.4687,-3.5 0,-1.933 -1.567,-3.5 -3.5,-3.5 z m 0,1 c 1.3807,0 2.5,1.11929 2.5,2.5 0,1.38071 -1.1193,2.5 -2.5,2.5 -1.3807,0 -2.5,-1.11929 -2.5,-2.5 0,-1.38071 1.1193,-2.5 2.5,-2.5 z m 0,1 c -0.8284,0 -1.5,0.67157 -1.5,1.5 0,0.82843 0.6716,1.5 1.5,1.5 0.8284,0 1.5,-0.67157 1.5,-1.5 0,-0.82843 -0.6716,-1.5 -1.5,-1.5 z m -7,7 c 0.8284,0 1.5,0.67157 1.5,1.5 0,0.82843 -0.6716,1.5 -1.5,1.5 -0.8284,0 -1.5,-0.67157 -1.5,-1.5 0,-0.0933 0.015,-0.19266 0.031,-0.28125 l 1.2188,0.71875 c 0.2399,0.1385 0.549,0.0524 0.6875,-0.1875 0.1385,-0.23989 0.052,-0.549 -0.1875,-0.6875 l -1.2188,-0.71875 c 0.2606,-0.21853 0.6021,-0.34375 0.9688,-0.34375 z"
       style="fill:#d32f2f;fill-opacity:1;fill-rule:nonzero;stroke:none"
       inkscape:connector-curvature="0" />
  </g>
</svg>
