<?xml version="1.0" encoding="UTF-8" standalone="no"?>
<!-- Created with Inkscape (http://www.inkscape.org/) -->

<svg
   xmlns:dc="http://purl.org/dc/elements/1.1/"
   xmlns:cc="http://creativecommons.org/ns#"
   xmlns:rdf="http://www.w3.org/1999/02/22-rdf-syntax-ns#"
   xmlns:svg="http://www.w3.org/2000/svg"
   xmlns="http://www.w3.org/2000/svg"
   xmlns:sodipodi="http://sodipodi.sourceforge.net/DTD/sodipodi-0.dtd"
   xmlns:inkscape="http://www.inkscape.org/namespaces/inkscape"
   width="16"
   height="16"
   id="svg27665"
   version="1.1"
   inkscape:version="0.48.4 r9939"
   sodipodi:docname="totem2.svg">
  <defs
     id="defs27667" />
  <sodipodi:namedview
     id="base"
     pagecolor="#ffffff"
     bordercolor="#666666"
     borderopacity="1.0"
     inkscape:pageopacity="0.0"
     inkscape:pageshadow="2"
     inkscape:zoom="40.960002"
     inkscape:cx="5.7694713"
     inkscape:cy="8.4522964"
     inkscape:document-units="px"
     inkscape:current-layer="layer1"
     showgrid="true"
     inkscape:window-width="1301"
     inkscape:window-height="744"
     inkscape:window-x="65"
     inkscape:window-y="24"
     inkscape:window-maximized="1"
     inkscape:snap-bbox="true"
     inkscape:bbox-paths="true"
     inkscape:bbox-nodes="true"
     inkscape:snap-bbox-edge-midpoints="true"
     inkscape:snap-bbox-midpoints="true"
     inkscape:object-paths="true"
     inkscape:snap-intersection-paths="true"
     inkscape:object-nodes="true"
     inkscape:snap-smooth-nodes="true"
     inkscape:snap-midpoints="true"
     inkscape:snap-object-midpoints="true"
     inkscape:snap-center="true"
     inkscape:snap-global="true"
     showguides="false"
     inkscape:guide-bbox="true"
     fit-margin-top="0"
     fit-margin-left="0"
     fit-margin-right="0"
     fit-margin-bottom="0"
     inkscape:showpageshadow="false"
     showborder="true">
    <sodipodi:guide
       orientation="0,1"
       position="6886.8119,-228.77186"
       id="guide5860" />
    <sodipodi:guide
       orientation="1,0"
       position="6636.8119,-346.45468"
       id="guide5862" />
    <sodipodi:guide
       orientation="1,0"
       position="6886.812,-228.77187"
       id="guide5866" />
    <inkscape:grid
       type="xygrid"
       id="grid5330"
       empspacing="5"
       visible="true"
       enabled="true"
       snapvisiblegridlinesonly="true"
       originx="5.8521693e-05px"
       originy="60.000019px" />
    <sodipodi:guide
       orientation="1,0"
       position="-895.31197,497.03466"
       id="guide4740" />
  </sodipodi:namedview>
  <metadata
     id="metadata27670">
    <rdf:RDF>
      <cc:Work
         rdf:about="">
        <dc:format>image/svg+xml</dc:format>
        <dc:type
           rdf:resource="http://purl.org/dc/dcmitype/StillImage" />
        <dc:title />
      </cc:Work>
    </rdf:RDF>
  </metadata>
  <g
     inkscape:label="Camada 1"
     inkscape:groupmode="layer"
     id="layer1"
     transform="translate(8132.4741,-1082.0074)">
    <path
       style="fill:#7e57c2;fill-opacity:1;fill-rule:nonzero"
       d="M 0 0 L 0 1 L 0 15 L 0 16 L 16 16 L 16 15 L 16 1 L 16 0 L 0 0 z M 1 1 L 3 1 L 3 3 L 1 3 L 1 1 z M 13 1 L 15 1 L 15 3 L 13 3 L 13 1 z M 5 4 L 12 8 L 5 12 L 5 4 z M 1 5 L 3 5 L 3 7 L 1 7 L 1 5 z M 13 5 L 15 5 L 15 7 L 13 7 L 13 5 z M 1 9 L 3 9 L 3 11 L 1 11 L 1 9 z M 13 9 L 15 9 L 15 11 L 13 11 L 13 9 z M 1 13 L 3 13 L 3 15 L 1 15 L 1 13 z M 13 13 L 15 13 L 15 15 L 13 15 L 13 13 z "
       transform="translate(-8132.4741,1082.0074)"
       id="rect2988" />
  </g>
</svg>
