<?xml version="1.0" encoding="UTF-8" standalone="no"?>
<!-- Created with Inkscape (http://www.inkscape.org/) -->

<svg
   xmlns:dc="http://purl.org/dc/elements/1.1/"
   xmlns:cc="http://creativecommons.org/ns#"
   xmlns:rdf="http://www.w3.org/1999/02/22-rdf-syntax-ns#"
   xmlns:svg="http://www.w3.org/2000/svg"
   xmlns="http://www.w3.org/2000/svg"
   xmlns:sodipodi="http://sodipodi.sourceforge.net/DTD/sodipodi-0.dtd"
   xmlns:inkscape="http://www.inkscape.org/namespaces/inkscape"
   width="16.000031"
   height="16.000029"
   id="svg27665"
   version="1.1"
   inkscape:version="0.48.4 r9939"
   sodipodi:docname="config-users.svg">
  <defs
     id="defs27667" />
  <sodipodi:namedview
     id="base"
     pagecolor="#ffffff"
     bordercolor="#666666"
     borderopacity="1.0"
     inkscape:pageopacity="0.0"
     inkscape:pageshadow="2"
     inkscape:zoom="31.678384"
     inkscape:cx="-6.6673227"
     inkscape:cy="9.0733657"
     inkscape:document-units="px"
     inkscape:current-layer="layer1"
     showgrid="true"
     inkscape:window-width="1301"
     inkscape:window-height="744"
     inkscape:window-x="65"
     inkscape:window-y="24"
     inkscape:window-maximized="1"
     inkscape:snap-bbox="true"
     inkscape:bbox-paths="true"
     inkscape:bbox-nodes="true"
     inkscape:snap-bbox-edge-midpoints="true"
     inkscape:snap-bbox-midpoints="true"
     inkscape:object-paths="true"
     inkscape:snap-intersection-paths="true"
     inkscape:object-nodes="true"
     inkscape:snap-smooth-nodes="true"
     inkscape:snap-midpoints="true"
     inkscape:snap-object-midpoints="true"
     inkscape:snap-center="true"
     inkscape:snap-global="true"
     showguides="false"
     inkscape:guide-bbox="true"
     fit-margin-top="0"
     fit-margin-left="0"
     fit-margin-right="0"
     fit-margin-bottom="0"
     inkscape:showpageshadow="false">
    <sodipodi:guide
       orientation="0,1"
       position="-1494.2276,523.03618"
       id="guide4179" />
    <sodipodi:guide
       orientation="1,0"
       position="-1492.0847,520.17904"
       id="guide4181" />
    <inkscape:grid
       type="xygrid"
       id="grid4279"
       empspacing="5"
       visible="true"
       enabled="true"
       snapvisiblegridlinesonly="true"
       originx="6.6056504e-05px"
       originy="592.00001px" />
  </sodipodi:namedview>
  <metadata
     id="metadata27670">
    <rdf:RDF>
      <cc:Work
         rdf:about="">
        <dc:format>image/svg+xml</dc:format>
        <dc:type
           rdf:resource="http://purl.org/dc/dcmitype/StillImage" />
        <dc:title />
      </cc:Work>
    </rdf:RDF>
  </metadata>
  <g
     inkscape:label="Camada 1"
     inkscape:groupmode="layer"
     id="layer1"
     transform="translate(3393.2465,-1650.2411)">
    <path
       style="color:#000000;fill:#bdbdbd;fill-opacity:1;fill-rule:nonzero;stroke:none;stroke-width:1;marker:none;visibility:visible;display:inline;overflow:visible;enable-background:accumulate"
       d="M 5 0 C 2.2181 0 1.6251 2.0409 1.6875 3.25 L 1.78125 4.28125 C 1.00305 4.29125 1.3798 6.3841 1.9375 6.3125 C 2.183 7.2013 2.6379 7.7634 3.125 8.1875 C 3.2289 8.8764 3.19125 9.36015 3.15625 9.96875 C 2.2403171 10.576578 1.0289439 10.938082 0 11.21875 L 0 13.53125 C 0.80085282 13.774417 1.8200797 13.967917 3 14.0625 C 2.9991948 14.04153 3 14.0212 3 14 C 3 13.4183 3.37785 13.10705 3.59375 12.96875 C 3.80955 12.83035 4.01515 12.7585 4.21875 12.6875 C 4.62575 12.5459 5.07595 12.42135 5.59375 12.28125 C 6.47605 12.04265 7.40975 11.7093 8.15625 11.3125 C 8.1638391 11.097502 8.1426388 10.861415 8.125 10.625 C 7.6676643 10.442287 7.2284435 10.224059 6.84375 9.96875 C 6.820292 9.548852 6.8233613 9.1594277 6.84375 8.75 C 6.7722125 8.6676 6.734 8.5854 6.6875 8.5 C 6.5012 8.1585 6.422 7.8014 6.375 7.4375 C 6.3282 7.0736 6.32785 6.70445 6.46875 6.28125 C 6.51465 6.14325 6.61545 5.98885 6.71875 5.84375 L 6.6875 5.34375 L 6.6875 5.3125 L 6.6875 5.28125 C 6.6464 4.48495 6.79955 3.4691 7.46875 2.5625 C 7.6440671 2.3249534 7.8445568 2.1020845 8.09375 1.90625 C 7.7393718 0.92936088 6.8788525 0 5 0 z "
       transform="translate(-3393.2465,1650.2411)"
       id="rect2991" />
    <path
       style="color:#000000;fill:#bdbdbd;fill-opacity:1;fill-rule:nonzero;stroke:none;stroke-width:1;marker:none;visibility:visible;display:inline;overflow:visible;enable-background:accumulate"
       d="m -3382.2465,1652.2411 c -2.7819,0 -3.3749,2.0409 -3.3125,3.25 l 0.094,1.0313 c -0.7782,0.01 -0.4014,2.1028 0.1563,2.0312 0.2455,0.8888 0.7004,1.4509 1.1875,1.875 0.1039,0.6889 0.066,1.1727 0.031,1.7813 -1.9014,1.2618 -5.1562,1.5055 -5.1562,2.0312 0,1.2048 2.8042,2.125 7,2.125 4.1958,0 7,-0.9202 7,-2.125 0,-0.5257 -3.2549,-0.7693 -5.1563,-2.0312 -0.034,-0.6086 -0.073,-1.0925 0.031,-1.7813 0.487,-0.4241 0.9419,-0.9862 1.1875,-1.875 0.5577,0.072 0.9345,-2.0212 0.1562,-2.0312 l 0.094,-1.0313 c 0.062,-1.2091 -0.5306,-3.25 -3.3125,-3.25 z"
       id="path2988"
       inkscape:connector-curvature="0" />
  </g>
</svg>
