<?xml version="1.0" encoding="UTF-8" standalone="no"?>
<!-- Created with Inkscape (http://www.inkscape.org/) -->
<svg id="svg3213" xmlns:rdf="http://www.w3.org/1999/02/22-rdf-syntax-ns#" xmlns="http://www.w3.org/2000/svg" height="24" width="24" version="1.0" xmlns:cc="http://creativecommons.org/ns#" xmlns:dc="http://purl.org/dc/elements/1.1/">
 <metadata id="metadata12">
  <rdf:RDF>
   <cc:Work rdf:about="">
    <dc:format>image/svg+xml</dc:format>
    <dc:type rdf:resource="http://purl.org/dc/dcmitype/StillImage"/>
    <dc:title/>
   </cc:Work>
  </rdf:RDF>
 </metadata>
 <g id="g3790" style="opacity:.3;stroke:#fff" transform="translate(-1 1)">
  <path id="path3367-2" d="m11.789 19.294 3.505-3.74-6.5883-6.6311m-1e-7 6.0661 6.5885-6.6311-3.5516-3.6521" style="stroke-linejoin:round;stroke:#fff;stroke-linecap:round;stroke-width:1.4115;fill:none"/>
  <path id="path3590-1" d="m11.507 4.8749 0.08824 14.156" style="stroke:#fff;stroke-linecap:round;stroke-width:1px;fill:none"/>
 </g>
 <path id="path3367" d="m10.789 19.294 3.505-3.74-6.5883-6.6314m-1e-7 6.0661 6.5885-6.6311-3.5516-3.6521" style="stroke-linejoin:round;stroke:#3c3c3c;stroke-linecap:round;stroke-width:1.4115;fill:none"/>
 <path id="path3590" d="m10.507 4.8746 0.08824 14.156" style="stroke:#3c3c3c;stroke-linecap:round;stroke-width:1px;fill:none"/>
 <path id="path2441" d="m18 15c-1.108 0-2 0.91076-2 2.0312v0.96875c-0.554 0-1 0.446-1 1v3c0 0.554 0.446 1 1 1h4c0.554 0 1-0.446 1-1v-3c0-0.554-0.446-1-1-1v-0.96875c0-1.1205-0.892-2.0312-2-2.0312zm0 1c0.554 0 1 0.44236 1 1v1h-2v-1c0-0.55764 0.446-1 1-1z" style="opacity:.3;fill:#fff"/>
 <path id="rect2822" d="m18 14c-1.108 0-2 0.91076-2 2.0312v0.96875c-0.554 0-1 0.446-1 1v3c0 0.554 0.446 1 1 1h4c0.554 0 1-0.446 1-1v-3c0-0.554-0.446-1-1-1v-0.96875c0-1.1205-0.892-2.0312-2-2.0312zm0 1c0.554 0 1 0.44236 1 1v1h-2v-1c0-0.55764 0.446-1 1-1z" style="fill:#3c3c3c"/>
</svg>
