<?xml version="1.0" encoding="UTF-8" standalone="no"?>
<!--
    Size and positions of controls may not be accurate
 -->

<svg
   xmlns:dc="http://purl.org/dc/elements/1.1/"
   xmlns:cc="http://creativecommons.org/ns#"
   xmlns:rdf="http://www.w3.org/1999/02/22-rdf-syntax-ns#"
   xmlns:svg="http://www.w3.org/2000/svg"
   xmlns="http://www.w3.org/2000/svg"
   xmlns:sodipodi="http://sodipodi.sourceforge.net/DTD/sodipodi-0.dtd"
   xmlns:inkscape="http://www.inkscape.org/namespaces/inkscape"
   version="1.1"
   style="color:#000000;stroke:#7f7f7f;fill:none;stroke-width:.25;font-size:8"
   id="bamboo"
   width="737"
   height="684"
   inkscape:version="0.91 r13725"
   sodipodi:docname="bamboo.svg">
  <metadata
     id="metadata4892">
    <rdf:RDF>
      <cc:Work
         rdf:about="">
        <dc:format>image/svg+xml</dc:format>
        <dc:type
           rdf:resource="http://purl.org/dc/dcmitype/StillImage" />
      </cc:Work>
    </rdf:RDF>
  </metadata>
  <defs
     id="defs4890" />
  <sodipodi:namedview
     pagecolor="#ffffff"
     bordercolor="#666666"
     borderopacity="1"
     objecttolerance="10"
     gridtolerance="10"
     guidetolerance="10"
     inkscape:pageopacity="0"
     inkscape:pageshadow="2"
     inkscape:window-width="1920"
     inkscape:window-height="1137"
     id="namedview4888"
     showgrid="false"
     inkscape:zoom="1.9517801"
     inkscape:cx="349.09722"
     inkscape:cy="598.65637"
     inkscape:window-x="0"
     inkscape:window-y="24"
     inkscape:window-maximized="1"
     inkscape:current-layer="bamboo" />
  <title
     id="title">Wacom Bamboo (MTE-450)</title>
  <circle
     id="Ring"
     class="Ring TouchRing"
     cy="82.625"
     cx="368.5"
     r="67.499069" />
  <path
     style="fill:#ffffff"
     d="m 418.50505,60.576753 8.32,16.6 -5.55,0 a 41.6,41.6 0 0 1 -8.32,27.699997 36,36 0 0 0 2.77,-27.699997 l -5.55,0 z"
     id="RingCCW"
     class="RingCCW Button" />
  <path
     d="m 597.83898,82.624999 -170.99999,0"
     class="RingCCW Ring Leader"
     id="LeaderRingCCW" />
  <text
     style="text-anchor:start"
     x="603.30078"
     y="82.511719"
     class="RingCCW Ring Label"
     id="LabelRingCCW">CCW</text>
  <path
     style="fill:#ffffff"
     d="m 318.50505,60.569216 8.32,16.6 -5.55,0 a 41.6,41.6 0 0 0 5.55,27.700004 36,36 0 0 1 -11.1,-27.700004 l -5.55,0 z"
     id="RingCW"
     class="RingCW Button" />
  <text
     style="text-anchor:end"
     x="133.50781"
     y="82.511719"
     class="RingCW Ring Label"
     id="LabelRingCW">CW</text>
  <path
     d="m 137.71187,82.625002 170.99999,0"
     class="RingCW Ring Leader"
     id="LeaderRingCW" />
  <text
     style="text-anchor:end"
     x="133.3125"
     y="40.106445"
     class="A Label"
     id="LabelA" />
  <text
     style="text-anchor:end"
     x="133.3125"
     y="40.106445"
     class="A Label"
     id="text5497">d</text>
  <text
     style="text-anchor:end"
     x="133.3125"
     y="40.106445"
     class="A Label"
     id="text5495">d</text>
  <text
     style="text-anchor:end"
     x="133.3125"
     y="40.106445"
     class="A Label"
     id="text5493">d</text>
  <path
     inkscape:connector-curvature="0"
     d="m 194,0.125 c -0.277,0 -0.5,0.223 -0.5,0.5 l 0,79.462891 102.63867,0 a 72.489754,72.489761 0 0 1 69.83399,-69.863282 l 0,-10.099609 L 194,0.125 Z"
     class="A Button"
     id="ButtonA" />
  <path
     inkscape:connector-curvature="0"
     d="m 137.71187,40.106445 51,0"
     class="A Leader"
     id="LeaderA" />
  <text
     style="text-anchor:start"
     x="602.96484"
     y="40.106445"
     class="B Label"
     id="LabelB">B</text>
  <path
     inkscape:connector-curvature="0"
     d="m 371.02734,0.125 0,10.136719 a 72.489754,72.489761 0 0 1 69.91407,69.826172 l 102.55859,0 0,-79.462891 c 0,-0.277 -0.223,-0.5 -0.5,-0.5 l -171.97266,0 z"
     class="B Button"
     id="ButtonB" />
  <path
     inkscape:connector-curvature="0"
     d="m 597.83898,40.106445 -51,0"
     class="B Leader"
     id="LeaderB" />
  <text
     style="text-anchor:end"
     x="133.69141"
     y="125.03027"
     class="C Label"
     id="LabelC">C</text>
  <path
     inkscape:connector-curvature="0"
     d="m 193.5,85.162109 0,79.462891 c 0,0.277 0.223,0.5 0.5,0.5 l 171.97266,0 0,-10.13672 A 72.489754,72.489761 0 0 1 296.05859,85.162109 l -102.55859,0 z"
     class="C Button"
     id="ButtonC" />
  <path
     inkscape:connector-curvature="0"
     d="m 137.71187,125.14355 51,0"
     class="C Leader"
     id="LeaderC" />
  <text
     style="text-anchor:start"
     x="602.96484"
     y="125.14355"
     class="D Label"
     id="LabelD">D</text>
  <path
     d="m 440.86133,85.162109 a 72.489754,72.489761 0 0 1 -69.83399,69.863281 l 0,10.09961 171.97266,0 c 0.277,0 0.5,-0.223 0.5,-0.5 l 0,-79.462891 -102.63867,0 z"
     class="D Button"
     id="ButtonD" />
  <path
     d="m 597.83898,125.14355 -51,0"
     class="D Leader"
     id="LeaderD" />
</svg>
