<?xml version="1.0" encoding="UTF-8" standalone="no"?>
<!-- Created with Inkscape (http://www.inkscape.org/) -->
<svg id="svg3229" xmlns:rdf="http://www.w3.org/1999/02/22-rdf-syntax-ns#" xmlns="http://www.w3.org/2000/svg" height="16" width="20" version="1.0" xmlns:cc="http://creativecommons.org/ns#" xmlns:dc="http://purl.org/dc/elements/1.1/">
 <metadata id="metadata9">
  <rdf:RDF>
   <cc:Work rdf:about="">
    <dc:format>image/svg+xml</dc:format>
    <dc:type rdf:resource="http://purl.org/dc/dcmitype/StillImage"/>
    <dc:title/>
   </cc:Work>
  </rdf:RDF>
 </metadata>
 <path id="path3683-5" style="opacity:.3;stroke-width:1.7;stroke:#000;stroke-linecap:round;fill:none" d="m0.85 7.1444s2.8978-3.2944 9.132-3.2944c6.2036 0 9.168 3.3 9.168 3.3"/>
 <path id="path3683" style="stroke-width:1.7;stroke:#dfdbd2;stroke-linecap:round;fill:none" d="m0.85 6.1444s2.8978-3.2944 9.132-3.2944c6.204 0 9.168 3.3 9.168 3.3"/>
 <path id="path3681-0" style="opacity:.3;stroke-width:1.7;stroke:#000;stroke-linecap:round;fill:none" d="m3.35 9.7526s2.1469-2.2158 6.65-2.1369c4.54 0.0795 6.65 2.1725 6.65 2.1725"/>
 <path id="path3681" style="stroke-width:1.7;stroke:#dfdbd2;stroke-linecap:round;fill:none" d="m3.35 8.7526s2.1469-2.2158 6.65-2.1369c4.54 0.0795 6.65 2.1725 6.65 2.1725"/>
 <path id="path3209-5" style="opacity:.3;stroke-width:1.7;stroke:#000;stroke-linecap:round;fill:none" d="m6.35 12.191s0.9669-1.072 3.5987-1.0922c2.599-0.01997 3.7013 1.0922 3.7013 1.0922"/>
 <path id="path3209" style="stroke-width:1.7;stroke:#dfdbd2;stroke-linecap:round;fill:none" d="m6.35 11.191s0.9669-1.072 3.5987-1.0922c2.599-0.01997 3.7013 1.0922 3.7013 1.0922"/>
 <path id="path3196-5-7" style="opacity:.3;fill-rule:evenodd" d="m9.1451 14c-0.4719 0-0.8549 0.29867-0.8549 0.66667 0 0.13676 0.0529 0.26394 0.14359 0.36978 0 0 1.0076 0.80144 1.0076 0.80144 0.1499 0.101 0.3451 0.162 0.5586 0.162 0.2533 0 0.48099-0.08605 0.63758-0.22269l0.90091-0.7104c0.10754-0.11149 0.1713-0.25009 0.1713-0.40024 0-0.368-0.38299-0.66667-0.8549-0.66667h-1.7098z"/>
 <path id="path3196-5" style="fill-rule:evenodd;fill:#dfdbd2" d="m9.1451 13c-0.4719 0-0.8549 0.29867-0.8549 0.66667 0 0.13676 0.0529 0.26394 0.14359 0.36978 0 0 1.0076 0.80144 1.0076 0.80144 0.1499 0.101 0.3451 0.162 0.5586 0.162 0.2533 0 0.48099-0.08605 0.63758-0.22269l0.90091-0.7104c0.10754-0.11149 0.1713-0.25009 0.1713-0.40024 0-0.368-0.38299-0.66667-0.8549-0.66667h-1.7098z"/>
</svg>
