<?xml version="1.0" encoding="UTF-8" standalone="no"?>
<!-- Created with Inkscape (http://www.inkscape.org/) -->

<svg
   xmlns:dc="http://purl.org/dc/elements/1.1/"
   xmlns:cc="http://creativecommons.org/ns#"
   xmlns:rdf="http://www.w3.org/1999/02/22-rdf-syntax-ns#"
   xmlns:svg="http://www.w3.org/2000/svg"
   xmlns="http://www.w3.org/2000/svg"
   xmlns:sodipodi="http://sodipodi.sourceforge.net/DTD/sodipodi-0.dtd"
   xmlns:inkscape="http://www.inkscape.org/namespaces/inkscape"
   width="16"
   height="16"
   id="svg4008"
   version="1.1"
   inkscape:version="0.48.0 r9654"
   sodipodi:docname="playlist-automatic16.svg">
  <defs
     id="defs4010" />
  <sodipodi:namedview
     id="base"
     pagecolor="#ffffff"
     bordercolor="#666666"
     borderopacity="1.0"
     inkscape:pageopacity="0.0"
     inkscape:pageshadow="2"
     inkscape:zoom="16.96875"
     inkscape:cx="3.5211786"
     inkscape:cy="8"
     inkscape:current-layer="layer1"
     showgrid="true"
     inkscape:grid-bbox="true"
     inkscape:document-units="px"
     inkscape:window-width="1280"
     inkscape:window-height="753"
     inkscape:window-x="0"
     inkscape:window-y="24"
     inkscape:window-maximized="1">
    <inkscape:grid
       type="xygrid"
       id="grid3012"
       empspacing="5"
       visible="true"
       enabled="true"
       snapvisiblegridlinesonly="true" />
  </sodipodi:namedview>
  <metadata
     id="metadata4013">
    <rdf:RDF>
      <cc:Work
         rdf:about="">
        <dc:format>image/svg+xml</dc:format>
        <dc:type
           rdf:resource="http://purl.org/dc/dcmitype/StillImage" />
        <dc:title></dc:title>
      </cc:Work>
    </rdf:RDF>
  </metadata>
  <g
     id="layer1"
     inkscape:label="Layer 1"
     inkscape:groupmode="layer"
     transform="translate(0,-16)">
    <path
       inkscape:connector-curvature="0"
       d="m 7.416667,18.000001 c -0.323166,0 -0.583332,0.260167 -0.583332,0.583333 l 0,1.3125 c -0.586487,0.133547 -1.128677,0.36261 -1.622397,0.674478 L 4.28125,19.640626 c -0.228514,-0.228513 -0.591798,-0.228513 -0.820312,0 l -0.820313,0.820312 c -0.228514,0.228513 -0.228514,0.591799 0,0.820312 l 0.929688,0.929689 c -0.311869,0.49372 -0.540932,1.035907 -0.674479,1.622396 l -1.3125,0 C 1.260167,23.833334 1,24.093502 1,24.416667 l 0,1.166668 c 0,0.323164 0.260167,0.58333 0.583334,0.58333 l 1.3125,0 c 0.133547,0.586487 0.36261,1.128676 0.674479,1.622397 L 2.640625,28.71875 c -0.228514,0.228512 -0.228514,0.591796 0,0.820312 l 0.820313,0.820313 c 0.228512,0.228512 0.591798,0.228515 0.820312,0 l 0.929688,-0.929689 c 0.49372,0.311871 1.03591,0.540933 1.622397,0.674481 l 0,1.312501 C 6.833335,31.739831 7.093501,32 7.416667,32 l 1.166667,0 c 0.323167,0 0.583333,-0.260169 0.583333,-0.583332 l 0,-1.312501 c 0.586488,-0.133548 1.128676,-0.36261 1.622396,-0.674481 l 0.929687,0.929689 c 0.228515,0.228512 0.5918,0.228512 0.820314,0 l 0.820311,-0.820313 c 0.228513,-0.228514 0.228515,-0.5918 0,-0.820312 l -0.929687,-0.929688 c 0.311868,-0.493721 0.540931,-1.035909 0.674479,-1.622397 l 1.312499,0 C 14.739835,26.166665 15,25.906499 15,25.583334 l 0,-1.166668 c 0,-0.323165 -0.260165,-0.583332 -0.583334,-0.583332 l -1.312499,0 c -0.133548,-0.586489 -0.362611,-1.128676 -0.674479,-1.622396 l 0.929687,-0.929688 c 0.228513,-0.228513 0.228513,-0.591799 0,-0.820313 l -0.820311,-0.820311 c -0.228514,-0.228513 -0.591799,-0.228513 -0.820314,0 l -0.929687,0.929687 C 10.295343,20.258444 9.753155,20.029381 9.166667,19.895834 l 0,-1.3125 c 0,-0.323166 -0.260166,-0.583333 -0.583333,-0.583333 l -1.166667,0 z m 0.583334,4.666666 c 1.287999,-2e-6 2.333334,1.045335 2.333334,2.333334 0,1.287999 -1.045335,2.333331 -2.333334,2.333331 -1.288,0 -2.333333,-1.045332 -2.333333,-2.333331 1e-6,-1.287999 1.045333,-2.333334 2.333333,-2.333334 z"
       id="rect3557-4"
       style="color:#000000;fill:#000000;fill-opacity:1;fill-rule:nonzero;stroke:none;stroke-width:1;marker:none;visibility:visible;display:inline;overflow:visible;enable-background:accumulate;opacity:0.3" />
    <path
       inkscape:connector-curvature="0"
       d="m 7.416667,17.000001 c -0.323166,0 -0.583332,0.260167 -0.583332,0.583333 l 0,1.3125 c -0.586487,0.133547 -1.128677,0.36261 -1.622397,0.674478 L 4.28125,18.640626 c -0.228514,-0.228513 -0.591798,-0.228513 -0.820312,0 l -0.820313,0.820312 c -0.228514,0.228513 -0.228514,0.591799 0,0.820312 l 0.929688,0.929689 c -0.311869,0.49372 -0.540932,1.035907 -0.674479,1.622396 l -1.3125,0 C 1.260167,22.833334 1,23.093502 1,23.416667 l 0,1.166668 c 0,0.323164 0.260167,0.58333 0.583334,0.58333 l 1.3125,0 c 0.133547,0.586487 0.36261,1.128676 0.674479,1.622397 L 2.640625,27.71875 c -0.228514,0.228512 -0.228514,0.591796 0,0.820312 l 0.820313,0.820313 c 0.228512,0.228512 0.591798,0.228515 0.820312,0 l 0.929688,-0.929689 c 0.49372,0.311871 1.03591,0.540933 1.622397,0.674481 l 0,1.312501 C 6.833335,30.739831 7.093501,31 7.416667,31 l 1.166667,0 c 0.323167,0 0.583333,-0.260169 0.583333,-0.583332 l 0,-1.312501 c 0.586488,-0.133548 1.128676,-0.36261 1.622396,-0.674481 l 0.929687,0.929689 c 0.228515,0.228512 0.5918,0.228512 0.820314,0 l 0.820311,-0.820313 c 0.228513,-0.228514 0.228515,-0.5918 0,-0.820312 l -0.929687,-0.929688 c 0.311868,-0.493721 0.540931,-1.035909 0.674479,-1.622397 l 1.312499,0 C 14.739835,25.166665 15,24.906499 15,24.583334 l 0,-1.166668 c 0,-0.323165 -0.260165,-0.583332 -0.583334,-0.583332 l -1.312499,0 c -0.133548,-0.586489 -0.362611,-1.128676 -0.674479,-1.622396 l 0.929687,-0.929688 c 0.228513,-0.228513 0.228513,-0.591799 0,-0.820313 l -0.820311,-0.820311 c -0.228514,-0.228513 -0.591799,-0.228513 -0.820314,0 l -0.929687,0.929687 C 10.295343,19.258444 9.753155,19.029381 9.166667,18.895834 l 0,-1.3125 c 0,-0.323166 -0.260166,-0.583333 -0.583333,-0.583333 l -1.166667,0 z m 0.583334,4.666666 c 1.287999,-2e-6 2.333334,1.045335 2.333334,2.333334 0,1.287999 -1.045335,2.333331 -2.333334,2.333331 -1.288,0 -2.333333,-1.045332 -2.333333,-2.333331 1e-6,-1.287999 1.045333,-2.333334 2.333333,-2.333334 z"
       id="rect3557"
       style="fill:#dfdbd2;fill-opacity:1;fill-rule:nonzero;stroke:none;stroke-width:1;marker:none;visibility:visible;display:inline;overflow:visible;enable-background:accumulate;color:#000000" />
  </g>
</svg>
