<?xml version="1.0" encoding="UTF-8" standalone="no"?>
<!-- Created with Inkscape (http://www.inkscape.org/) -->
<svg id="svg3830" xmlns:rdf="http://www.w3.org/1999/02/22-rdf-syntax-ns#" xmlns="http://www.w3.org/2000/svg" height="22" width="24" version="1.1" xmlns:cc="http://creativecommons.org/ns#" xmlns:dc="http://purl.org/dc/elements/1.1/">
 <metadata id="metadata3835">
  <rdf:RDF>
   <cc:Work rdf:about="">
    <dc:format>image/svg+xml</dc:format>
    <dc:type rdf:resource="http://purl.org/dc/dcmitype/StillImage"/>
    <dc:title/>
   </cc:Work>
  </rdf:RDF>
 </metadata>
 <g id="g3773">
  <path id="path2396-0" style="opacity:.3" d="m8.0024 7c-0.3052 0-0.5665 0.128-0.75 0.344l-2.25 2.656h-2c-0.552 0-1 0.448-1 1-0.00627 0.99607 0.00222 2.0145 0 3 0 0.552 0.448 1 1 1h2l2.1562 2.4688c0.1714 0.305 0.4694 0.531 0.8438 0.531 0.552 0 1-0.448 1-1v-9c0-0.552-0.448-1-1-1zm9.688 2-2.188 2.25-2.25-2.219-1.25 1.281 2.25 2.188-2.219 2.25 1.281 1.25 2.188-2.25 2.25 2.219 1.25-1.281-2.25-2.188 2.219-2.25l-1.281-1.25z"/>
  <path id="rect3180" style="fill-rule:evenodd;fill:#df382c" d="m8.0024 6c-0.3052 0-0.5665 0.128-0.75 0.344l-2.25 2.656h-2c-0.552 0-1 0.448-1 1-0.00627 0.99607 0.00222 2.0145 0 3 0 0.552 0.448 1 1 1h2l2.1562 2.4688c0.1714 0.305 0.4694 0.531 0.8438 0.531 0.552 0 1-0.448 1-1v-9c0-0.552-0.448-1-1-1zm9.688 2-2.188 2.25-2.25-2.219-1.25 1.281 2.25 2.188-2.219 2.25 1.281 1.25 2.188-2.25 2.25 2.219 1.25-1.281-2.25-2.188 2.219-2.25l-1.281-1.25z"/>
 </g>
</svg>
