<?xml version="1.0" encoding="UTF-8" standalone="no"?>
<!-- Created with Inkscape (http://www.inkscape.org/) -->
<svg id="svg2816" xmlns:rdf="http://www.w3.org/1999/02/22-rdf-syntax-ns#" xmlns="http://www.w3.org/2000/svg" height="22" width="20" version="1.0" xmlns:cc="http://creativecommons.org/ns#" xmlns:dc="http://purl.org/dc/elements/1.1/">
 <metadata id="metadata8">
  <rdf:RDF>
   <cc:Work rdf:about="">
    <dc:format>image/svg+xml</dc:format>
    <dc:type rdf:resource="http://purl.org/dc/dcmitype/StillImage"/>
    <dc:title/>
   </cc:Work>
  </rdf:RDF>
 </metadata>
 <path id="path2396-7" style="opacity:.3;fill-rule:evenodd" d="m9.5 5c-4.14 0-7.5 3.36-7.5 7.5s3.36 7.5 7.5 7.5c1.9648 0 3.7561-0.76222 5.0938-2h5.406l-3.344-3.344c0.208-0.687 0.344-1.401 0.344-2.156 0-4.14-3.36-7.5-7.5-7.5zm-2.1875 4 2.1875 2.25 2.25-2.2188 1.25 1.2808-2.25 2.188 2.219 2.25-1.281 1.25-2.188-2.25-2.25 2.219-1.25-1.281 2.25-2.188-2.2188-2.25 1.2813-1.25z"/>
 <path id="path2396" style="fill-rule:evenodd;fill:#dfdbd2" d="m9.5 4c-4.14 0-7.5 3.36-7.5 7.5s3.36 7.5 7.5 7.5c1.9648 0 3.7561-0.76222 5.0938-2h5.406l-3.344-3.344c0.208-0.687 0.344-1.401 0.344-2.156 0-4.14-3.36-7.5-7.5-7.5zm-2.1875 4 2.1875 2.25 2.25-2.2188 1.25 1.2813-2.25 2.1875 2.219 2.25-1.281 1.25-2.188-2.25-2.25 2.219-1.25-1.281 2.25-2.188-2.2188-2.25 1.2813-1.25z"/>
</svg>
