<?xml version="1.0" encoding="UTF-8" standalone="no"?>
<!-- Created with Inkscape (http://www.inkscape.org/) -->

<svg
   xmlns:dc="http://purl.org/dc/elements/1.1/"
   xmlns:cc="http://creativecommons.org/ns#"
   xmlns:rdf="http://www.w3.org/1999/02/22-rdf-syntax-ns#"
   xmlns:svg="http://www.w3.org/2000/svg"
   xmlns="http://www.w3.org/2000/svg"
   xmlns:sodipodi="http://sodipodi.sourceforge.net/DTD/sodipodi-0.dtd"
   xmlns:inkscape="http://www.inkscape.org/namespaces/inkscape"
   id="svg13094"
   height="16"
   width="16"
   version="1.1"
   inkscape:version="0.48.4 r9939"
   sodipodi:docname="folder-videos-symbolic.svg">
  <defs
     id="defs3016" />
  <sodipodi:namedview
     pagecolor="#ffffff"
     bordercolor="#666666"
     borderopacity="1"
     objecttolerance="10"
     gridtolerance="10"
     guidetolerance="10"
     inkscape:pageopacity="0"
     inkscape:pageshadow="2"
     inkscape:window-width="1301"
     inkscape:window-height="744"
     id="namedview3014"
     showgrid="true"
     inkscape:zoom="41.7193"
     inkscape:cx="-0.92842765"
     inkscape:cy="9.0134591"
     inkscape:window-x="65"
     inkscape:window-y="24"
     inkscape:window-maximized="1"
     inkscape:current-layer="svg13094"
     inkscape:snap-bbox="true"
     inkscape:bbox-paths="true"
     inkscape:bbox-nodes="true"
     inkscape:snap-bbox-edge-midpoints="true"
     inkscape:snap-bbox-midpoints="true"
     inkscape:object-paths="true"
     inkscape:snap-intersection-paths="true"
     inkscape:object-nodes="true"
     inkscape:snap-smooth-nodes="true"
     inkscape:snap-midpoints="true"
     inkscape:snap-object-midpoints="true"
     inkscape:snap-center="true">
    <inkscape:grid
       type="xygrid"
       id="grid2982" />
  </sodipodi:namedview>
  <metadata
     id="metadata13099">
    <rdf:RDF>
      <cc:Work
         rdf:about="">
        <dc:format>image/svg+xml</dc:format>
        <dc:type
           rdf:resource="http://purl.org/dc/dcmitype/StillImage" />
        <dc:title />
      </cc:Work>
    </rdf:RDF>
  </metadata>
  <path
     style="fill:#bdbdbd;fill-opacity:1;fill-rule:nonzero"
     d="M 0 1 L 0 5 L 0 11 L 0 15 L 16 15 L 16 11 L 16 5 L 16 1 L 0 1 z M 1 2 L 3 2 L 3 5 L 1 5 L 1 2 z M 5 2 L 7 2 L 7 5 L 5 5 L 5 2 z M 9 2 L 11 2 L 11 5 L 9 5 L 9 2 z M 13 2 L 15 2 L 15 5 L 13 5 L 13 2 z M 1 11 L 3 11 L 3 14 L 1 14 L 1 11 z M 5 11 L 7 11 L 7 14 L 5 14 L 5 11 z M 9 11 L 11 11 L 11 14 L 9 14 L 9 11 z M 13 11 L 15 11 L 15 14 L 13 14 L 13 11 z "
     id="rect2988" />
</svg>
