<?xml version="1.0" encoding="UTF-8" standalone="no"?>
<!-- Created with Inkscape (http://www.inkscape.org/) -->

<svg
   xmlns:dc="http://purl.org/dc/elements/1.1/"
   xmlns:cc="http://creativecommons.org/ns#"
   xmlns:rdf="http://www.w3.org/1999/02/22-rdf-syntax-ns#"
   xmlns:svg="http://www.w3.org/2000/svg"
   xmlns="http://www.w3.org/2000/svg"
   xmlns:sodipodi="http://sodipodi.sourceforge.net/DTD/sodipodi-0.dtd"
   xmlns:inkscape="http://www.inkscape.org/namespaces/inkscape"
   width="24"
   height="24"
   id="svg13094"
   version="1.1"
   inkscape:version="0.48.4 r9939"
   sodipodi:docname="xfce-system-lock.svg">
  <sodipodi:namedview
     id="base"
     pagecolor="#ffffff"
     bordercolor="#666666"
     borderopacity="1.0"
     inkscape:pageopacity="0.0"
     inkscape:pageshadow="2"
     inkscape:zoom="32.000003"
     inkscape:cx="2.0052734"
     inkscape:cy="12.461066"
     inkscape:document-units="px"
     inkscape:current-layer="layer1"
     showgrid="true"
     inkscape:snap-bbox="true"
     inkscape:bbox-paths="true"
     inkscape:bbox-nodes="true"
     inkscape:snap-bbox-edge-midpoints="true"
     inkscape:snap-bbox-midpoints="true"
     inkscape:object-paths="true"
     inkscape:snap-intersection-paths="true"
     inkscape:object-nodes="true"
     inkscape:snap-smooth-nodes="true"
     inkscape:snap-midpoints="true"
     inkscape:snap-object-midpoints="true"
     inkscape:snap-center="true"
     showguides="true"
     inkscape:guide-bbox="true"
     inkscape:window-width="1301"
     inkscape:window-height="744"
     inkscape:window-x="65"
     inkscape:window-y="24"
     inkscape:window-maximized="1"
     inkscape:snap-global="true"
     fit-margin-top="0"
     fit-margin-left="0"
     fit-margin-right="0"
     fit-margin-bottom="0"
     showborder="true"
     inkscape:showpageshadow="false">
    <inkscape:grid
       type="xygrid"
       id="grid3183"
       empspacing="5"
       visible="true"
       enabled="true"
       snapvisiblegridlinesonly="true"
       originx="9.5192791e-05px"
       originy="10.999988px" />
  </sodipodi:namedview>
  <defs
     id="defs13096" />
  <metadata
     id="metadata13099">
    <rdf:RDF>
      <cc:Work
         rdf:about="">
        <dc:format>image/svg+xml</dc:format>
        <dc:type
           rdf:resource="http://purl.org/dc/dcmitype/StillImage" />
        <dc:title />
      </cc:Work>
    </rdf:RDF>
  </metadata>
  <g
     transform="translate(9398.6161,-4989.8786)"
     id="layer1"
     inkscape:groupmode="layer"
     inkscape:label="Camada 1">
    <path
       style="fill:#212121;fill-opacity:1;fill-rule:nonzero;stroke:none"
       d="m -9386.6161,4993.8786 c -4.4183,0 -8,3.5817 -8,8 0,4.4183 3.5817,8 8,8 4.4183,0 8,-3.5817 8,-8 0,-4.4183 -3.5817,-8 -8,-8 z m 0,2 c 3.3137,0 6,2.6863 6,6 0,3.3137 -2.6863,6 -6,6 -3.3137,0 -6,-2.6863 -6,-6 0,-3.3137 2.6863,-6 6,-6 z"
       id="path3007"
       inkscape:connector-curvature="0" />
    <path
       style="fill:#212121;fill-opacity:1;fill-rule:nonzero;stroke:none"
       d="m -9386.6161,4997.8786 c -1.1046,0 -2,0.8954 -2,2 0,0.7396 0.4031,1.3728 1,1.7187 l 0,3.2813 c 0,0.554 0.446,1 1,1 0.554,0 1,-0.446 1,-1 l 0,-3.2813 c 0.5969,-0.3459 1,-0.9791 1,-1.7187 0,-1.1046 -0.8954,-2 -2,-2 z"
       id="path3004"
       inkscape:connector-curvature="0" />
  </g>
</svg>
