<?xml version="1.0" encoding="UTF-8" standalone="no"?>
<!-- Created with Inkscape (http://www.inkscape.org/) -->

<svg
   xmlns:dc="http://purl.org/dc/elements/1.1/"
   xmlns:cc="http://creativecommons.org/ns#"
   xmlns:rdf="http://www.w3.org/1999/02/22-rdf-syntax-ns#"
   xmlns:svg="http://www.w3.org/2000/svg"
   xmlns="http://www.w3.org/2000/svg"
   xmlns:sodipodi="http://sodipodi.sourceforge.net/DTD/sodipodi-0.dtd"
   xmlns:inkscape="http://www.inkscape.org/namespaces/inkscape"
   width="16.000031"
   height="16.000029"
   id="svg27665"
   version="1.1"
   inkscape:version="0.48.4 r9939"
   sodipodi:docname="gwibber-stream-public.svg">
  <defs
     id="defs27667" />
  <sodipodi:namedview
     id="base"
     pagecolor="#ffffff"
     bordercolor="#666666"
     borderopacity="1.0"
     inkscape:pageopacity="0.0"
     inkscape:pageshadow="2"
     inkscape:zoom="31.678384"
     inkscape:cx="5.3126553"
     inkscape:cy="7.3579478"
     inkscape:document-units="px"
     inkscape:current-layer="layer1"
     showgrid="true"
     inkscape:window-width="1301"
     inkscape:window-height="744"
     inkscape:window-x="65"
     inkscape:window-y="24"
     inkscape:window-maximized="1"
     inkscape:snap-bbox="true"
     inkscape:bbox-paths="true"
     inkscape:bbox-nodes="true"
     inkscape:snap-bbox-edge-midpoints="true"
     inkscape:snap-bbox-midpoints="true"
     inkscape:object-paths="true"
     inkscape:snap-intersection-paths="true"
     inkscape:object-nodes="true"
     inkscape:snap-smooth-nodes="true"
     inkscape:snap-midpoints="true"
     inkscape:snap-object-midpoints="true"
     inkscape:snap-center="true"
     inkscape:snap-global="true"
     showguides="false"
     inkscape:guide-bbox="true"
     fit-margin-top="0"
     fit-margin-left="0"
     fit-margin-right="0"
     fit-margin-bottom="0"
     inkscape:showpageshadow="false">
    <sodipodi:guide
       orientation="0,1"
       position="-1494.2276,523.03618"
       id="guide4179" />
    <sodipodi:guide
       orientation="1,0"
       position="-1492.0847,520.17904"
       id="guide4181" />
    <inkscape:grid
       type="xygrid"
       id="grid4279"
       empspacing="5"
       visible="true"
       enabled="true"
       snapvisiblegridlinesonly="true"
       originx="6.6056504e-05px"
       originy="592.00001px" />
  </sodipodi:namedview>
  <metadata
     id="metadata27670">
    <rdf:RDF>
      <cc:Work
         rdf:about="">
        <dc:format>image/svg+xml</dc:format>
        <dc:type
           rdf:resource="http://purl.org/dc/dcmitype/StillImage" />
        <dc:title />
      </cc:Work>
    </rdf:RDF>
  </metadata>
  <g
     inkscape:label="Camada 1"
     inkscape:groupmode="layer"
     id="layer1"
     transform="translate(3393.2465,-1650.2411)">
    <path
       style="fill:#212121;fill-opacity:1;stroke:none"
       d="M 10 1 C 7.790861 1 6 2.790861 6 5 C 6 7.209139 7.790861 9 10 9 C 12.209139 9 14 7.209139 14 5 C 14 2.790861 12.209139 1 10 1 z M 6 10 L 4 12 L 4 15 L 16 15 L 16 12 L 14 10 L 6 10 z "
       transform="translate(-3393.2465,1650.2411)"
       id="path2986" />
    <path
       style="fill:#212121;fill-opacity:1;stroke:none"
       d="M 6 1 C 3.7908 1 2 2.7909 2 5 C 2 7.2092 3.7908 9 6 9 C 6.3459451 9 6.6798381 8.926313 7 8.84375 C 5.8190004 7.9345485 5 6.597197 5 5 C 5 3.4294037 5.7641082 2.0434606 6.90625 1.125 C 6.6156217 1.0578237 6.3110413 1 6 1 z M 8.875 2.1875 C 7.7642494 2.6253681 7 3.7252386 7 5 C 7 6.2747614 7.7642494 7.3746319 8.875 7.8125 C 9.5804326 7.0912901 10 6.0885776 10 5 C 10 3.9114716 9.5804326 2.9087218 8.875 2.1875 z M 2 10 L 0 12 L 0 15 L 3 15 L 3 12 L 3 11.59375 L 3.28125 11.28125 L 4.5625 10 L 2 10 z M 6.4375 11 L 5 12.4375 L 5 14 L 12 14 L 12 12 L 11 11 L 6.4375 11 z "
       transform="translate(-3393.2465,1650.2411)"
       id="path2988" />
  </g>
</svg>
