<?xml version="1.0" encoding="UTF-8" standalone="no"?>
<!-- Created with Inkscape (http://www.inkscape.org/) -->
<svg id="svg7384" xmlns:rdf="http://www.w3.org/1999/02/22-rdf-syntax-ns#" xmlns="http://www.w3.org/2000/svg" height="16" width="16" version="1.1" xmlns:cc="http://creativecommons.org/ns#" xmlns:dc="http://purl.org/dc/elements/1.1/">
 <metadata id="metadata90">
  <rdf:RDF>
   <cc:Work rdf:about="">
    <dc:format>image/svg+xml</dc:format>
    <dc:type rdf:resource="http://purl.org/dc/dcmitype/StillImage"/>
    <dc:title>Gnome Symbolic Icon Theme</dc:title>
   </cc:Work>
  </rdf:RDF>
 </metadata>
 <title id="title9167">Gnome Symbolic Icon Theme</title>
 <g id="layer12" transform="translate(-261 -807)">
  <path id="path26815" style="fill:#bebebe" d="m273 808v1.9967h-2v1.9967h2v1.9967h2v-1.9967h2v-1.9967h-2v-1.9967h-2z"/>
  <path id="path26788" style="block-progression:tb;text-indent:0;color:#000000;text-transform:none;fill:#bebebe" d="m267.41 813a0.50005 0.50005 0 0 0 -0.41 0.5v2.5h-1.5a0.50005 0.50005 0 1 0 0 1h2a0.50005 0.50005 0 0 0 0.5 -0.5v-3a0.50005 0.50005 0 0 0 -0.59375 -0.5z"/>
  <path id="path26792" style="block-progression:tb;text-indent:0;color:#000000;text-transform:none;fill:#bebebe" d="m267.5 810c-3.578 0-6.5 2.922-6.5 6.5s2.922 6.5 6.5 6.5 6.5-2.922 6.5-6.5c0-0.51565-0.0727-1.0181-0.1875-1.5h-2.0938c0.1673 0.47279 0.28125 0.96704 0.28125 1.5 0 2.4971-2.0029 4.5-4.5 4.5s-4.5-2.0029-4.5-4.5 2.0029-4.5 4.5-4.5c0.9323 0 1.7895 0.26937 2.5 0.75v-2.25c-0.7679-0.32274-1.6142-0.5-2.5-0.5z"/>
 </g>
</svg>
