<?xml version="1.0" encoding="UTF-8" standalone="no"?>
<!-- Created with Inkscape (http://www.inkscape.org/) -->
<svg id="svg7384" xmlns:rdf="http://www.w3.org/1999/02/22-rdf-syntax-ns#" xmlns="http://www.w3.org/2000/svg" height="16" width="16" version="1.1" xmlns:cc="http://creativecommons.org/ns#" xmlns:dc="http://purl.org/dc/elements/1.1/">
 <metadata id="metadata90">
  <rdf:RDF>
   <cc:Work rdf:about="">
    <dc:format>image/svg+xml</dc:format>
    <dc:type rdf:resource="http://purl.org/dc/dcmitype/StillImage"/>
    <dc:title>Gnome Symbolic Icon Theme</dc:title>
   </cc:Work>
  </rdf:RDF>
 </metadata>
 <title id="title9167">Gnome Symbolic Icon Theme</title>
 <g id="layer12" transform="translate(-241,-827)">
  <path id="path26548" style="block-progression:tb;text-indent:0;color:#bebebe;text-transform:none;fill:#bebebe" d="m241 832v1c0 0.25689 0.12983 0.52846 0.3125 0.71875l1.28 1.28-1.28 1.28c-0.18 0.19-0.31 0.46-0.31 0.72v1h1c0.30945 0 0.55232-0.0903 0.75-0.28125l2.66-2.72-2.66-2.72c-0.2-0.19-0.44-0.28-0.75-0.28h-1z"/>
  <path id="path26550" style="block-progression:tb;text-indent:0;color:#bebebe;text-transform:none;fill:#bebebe" d="m257 832v1c0 0.25689-0.12983 0.52846-0.3125 0.71875l-1.28 1.28 1.2812 1.2812c0.18267 0.19029 0.3125 0.46186 0.3125 0.71875v1h-1c-0.30945 0-0.55232-0.0903-0.75-0.28125l-2.66-2.72 2.66-2.72c0.2-0.19 0.44-0.28 0.75-0.28h1z"/>
  <path id="path11643-3-2-67" style="block-progression:tb;text-indent:0;color:#000000;text-transform:none;fill:#bebebe" d="m248 830v2h1.9062c-0.0552 0 0.0937 0.17104 0.0937 0.0937v0.9375h-1c-1.7159 0-3.0379 1.1099-3.0625 2.4688-0.0123 0.67944 0.3195 1.3532 0.875 1.8125 0.5555 0.45927 1.3096 0.71875 2.1875 0.71875h2 1v-1-4.9375c0-1.17-0.9-2.09-2.09-2.09h-1.91zm1 5.0312h1v1h-1c-0.51941 0-0.78011-0.14571-0.90625-0.25s-0.15755-0.17804-0.15625-0.25c0.003-0.14393 0.0927-0.5 1.0625-0.5z"/>
 </g>
</svg>
