<?xml version="1.0" encoding="UTF-8" standalone="no"?>
<!-- Created with Inkscape (http://www.inkscape.org/) -->
<svg id="svg3200" xmlns:rdf="http://www.w3.org/1999/02/22-rdf-syntax-ns#" xmlns="http://www.w3.org/2000/svg" height="24" width="24" version="1.0" xmlns:cc="http://creativecommons.org/ns#" xmlns:dc="http://purl.org/dc/elements/1.1/">
 <metadata id="metadata8">
  <rdf:RDF>
   <cc:Work rdf:about="">
    <dc:format>image/svg+xml</dc:format>
    <dc:type rdf:resource="http://purl.org/dc/dcmitype/StillImage"/>
    <dc:title/>
   </cc:Work>
  </rdf:RDF>
 </metadata>
 <path id="path4348-1-9" style="opacity:.3;fill-rule:evenodd;fill:#fff" d="m21 17-5 5-5-5h3v-7h4v7h3zm-8-7-5-5-5 5h3v7h4v-7h3z"/>
 <path id="path4348-1" style="fill-rule:evenodd;fill:#3c3c3c" d="m21 16-5 5-5-5h3v-7h4v7h3zm-8-7-5-5-5 5h3v7h4v-7h3z"/>
<!-- imported from 'ubuntu-mono-light/status/24/nm-vpn-lock.svg' -->
 <g id="svg3215">
  <metadata id="metadata12">
   <rdf:RDF>
    <cc:Work rdf:about="">
     <dc:format>image/svg+xml</dc:format>
     <dc:type rdf:resource="http://purl.org/dc/dcmitype/StillImage"/>
     <dc:title/>
    </cc:Work>
   </rdf:RDF>
  </metadata>
  <path id="path2441" style="opacity:.3;fill:#fff" d="m21 16c-1.108 0-2 0.91076-2 2.0312v0.969c-0.554 0-1 0.446-1 1v3c0 0.554 0.446 1 1 1h4c0.554 0 1-0.446 1-1v-3c0-0.554-0.446-1-1-1v-0.96875c0-1.12-0.892-2.031-2-2.031zm0 1c0.554 0 1 0.44236 1 1v1h-2v-1c0-0.55764 0.446-1 1-1z"/>
  <path id="rect2822" style="fill:#3c3c3c" d="m21 15c-1.108 0-2 0.91076-2 2.0312v0.969c-0.554 0-1 0.446-1 1v3c0 0.554 0.446 1 1 1h4c0.554 0 1-0.446 1-1v-3c0-0.554-0.446-1-1-1v-0.96875c0-1.12-0.892-2.031-2-2.031zm0 1c0.554 0 1 0.44236 1 1v1h-2v-1c0-0.55764 0.446-1 1-1z"/>
 </g>
</svg>
