<?xml version="1.0" encoding="UTF-8" standalone="no"?>
<!-- Created with Inkscape (http://www.inkscape.org/) -->
<svg id="svg2816" xmlns:rdf="http://www.w3.org/1999/02/22-rdf-syntax-ns#" xmlns="http://www.w3.org/2000/svg" height="22" width="22" version="1.0" xmlns:cc="http://creativecommons.org/ns#" xmlns:dc="http://purl.org/dc/elements/1.1/">
 <metadata id="metadata8">
  <rdf:RDF>
   <cc:Work rdf:about="">
    <dc:format>image/svg+xml</dc:format>
    <dc:type rdf:resource="http://purl.org/dc/dcmitype/StillImage"/>
    <dc:title/>
   </cc:Work>
  </rdf:RDF>
 </metadata>
 <path id="path2396-6" style="opacity:.3;fill-rule:evenodd;fill:#fff" d="m10.5 5c-1.8594 0-3.5638 0.6905-4.8749 1.8125-0.6206-0.3003-1.9758-0.8525-3.625-0.8125 0 0 1.2426 2.4851 1.6875 3.375-0.1172 0.2541-0.2238 0.5128-0.3125 0.781-0.8898 0.223-3.375 0.844-3.375 0.844s1.4673 2 3 2c0 0 0.02455-0.0042 0.03125 0 0.2543 3.9103 3.4945 7 7.4688 7 1.9648 0 3.7561-0.76222 5.0938-2h5.4062l-3.3438-3.3438c0.20794-0.68762 0.34375-1.4011 0.34375-2.1562 0-4.14-3.36-7.5-7.5-7.5zm-3.4999 3c0.55249-0.0001329 1 0.44778 1 1 0 0.55236-0.44765 1-1 1-0.55223 0-1-0.44778-1-1s0.44791-1 1-1zm3.125 3c0.99508-0.0042 1.9905 0.36582 2.75 1.125 1.0123 1.0124 1.3443 2.4594 1 3.75-1.2904 0.34438-2.7375 0.01253-3.75-1-1.0122-1.013-1.3442-2.46-0.9999-3.75 0.3227-0.086 0.6684-0.124 0.9999-0.125z"/>
 <path id="path2396" style="fill-rule:evenodd;fill:#3c3c3c" d="m10.5 4c-1.8594 0-3.5638 0.6905-4.8749 1.8125-0.6206-0.3003-1.9758-0.8525-3.625-0.8125 0 0 1.2426 2.4851 1.6875 3.375-0.1172 0.2541-0.2238 0.5128-0.3125 0.7812-0.8898 0.2225-3.375 0.8438-3.375 0.8438 0.00004467 0 1.4673 2 3 2 0 0 0.0246-0.004 0.0313 0 0.2543 3.91 3.4945 7 7.4686 7 1.965 0 3.756-0.762 5.094-2h5.406l-3.344-3.344c0.208-0.687 0.344-1.401 0.344-2.156 0-4.14-3.36-7.5-7.5-7.5zm-3.4999 3c0.5525-0.0001 1 0.4478 1 1 0 0.5524-0.4476 1-1 1-0.5522 0-1-0.4478-1-1s0.448-1 1-1zm3.1249 3c0.995-0.0042 1.991 0.366 2.75 1.125 1.012 1.012 1.344 2.459 1 3.75-1.29 0.344-2.737 0.013-3.75-1-1.0122-1.013-1.3442-2.46-0.9999-3.75 0.3227-0.086 0.6684-0.124 0.9999-0.125z"/>
</svg>
