<?xml version="1.0" encoding="UTF-8" standalone="no"?>
<!-- Created with Inkscape (http://www.inkscape.org/) -->

<svg
   xmlns:dc="http://purl.org/dc/elements/1.1/"
   xmlns:cc="http://creativecommons.org/ns#"
   xmlns:rdf="http://www.w3.org/1999/02/22-rdf-syntax-ns#"
   xmlns:svg="http://www.w3.org/2000/svg"
   xmlns="http://www.w3.org/2000/svg"
   xmlns:sodipodi="http://sodipodi.sourceforge.net/DTD/sodipodi-0.dtd"
   xmlns:inkscape="http://www.inkscape.org/namespaces/inkscape"
   id="svg13094"
   height="16"
   width="16"
   version="1.1"
   inkscape:version="0.48.4 r9939"
   sodipodi:docname="folder-image-people.svg">
  <defs
     id="defs2989" />
  <sodipodi:namedview
     pagecolor="#ffffff"
     bordercolor="#666666"
     borderopacity="1"
     objecttolerance="10"
     gridtolerance="10"
     guidetolerance="10"
     inkscape:pageopacity="0"
     inkscape:pageshadow="2"
     inkscape:window-width="1301"
     inkscape:window-height="744"
     id="namedview2987"
     showgrid="true"
     inkscape:zoom="41.7193"
     inkscape:cx="2.1319066"
     inkscape:cy="7.8117935"
     inkscape:window-x="65"
     inkscape:window-y="24"
     inkscape:window-maximized="1"
     inkscape:current-layer="svg13094"
     inkscape:snap-bbox="true"
     inkscape:bbox-paths="true"
     inkscape:bbox-nodes="true"
     inkscape:snap-bbox-edge-midpoints="true"
     inkscape:snap-bbox-midpoints="true"
     inkscape:object-paths="true"
     inkscape:snap-intersection-paths="true"
     inkscape:object-nodes="true"
     inkscape:snap-smooth-nodes="true"
     inkscape:snap-midpoints="true"
     inkscape:snap-object-midpoints="true"
     inkscape:snap-center="true">
    <inkscape:grid
       type="xygrid"
       id="grid3750" />
  </sodipodi:namedview>
  <metadata
     id="metadata13099">
    <rdf:RDF>
      <cc:Work
         rdf:about="">
        <dc:format>image/svg+xml</dc:format>
        <dc:type
           rdf:resource="http://purl.org/dc/dcmitype/StillImage" />
        <dc:title />
      </cc:Work>
    </rdf:RDF>
  </metadata>
  <path
     style="fill:#212121;fill-opacity:1;fill-rule:nonzero"
     d="M 3 1 L 3 3 L 14 3 L 14 12 L 16 12 L 16 1 L 3 1 z M 0 4 L 0 15 L 13 15 L 13 4 L 0 4 z M 2 6 L 11 6 L 11 13 L 2 13 L 2 6 z M 6.5 7 C 5.6715729 7 5 7.6715729 5 8.5 C 5 9.3284271 5.6715729 10 6.5 10 C 7.3284271 10 8 9.3284271 8 8.5 C 8 7.6715729 7.3284271 7 6.5 7 z M 6.5 10 C 5.2507862 9.9965892 4.0842446 10.783903 3.65625 12.03125 L 9.34375 12 C 9.0401509 11.132124 8.3384248 10.454656 7.46875 10.15625 C 7.1489312 10.046513 6.8202973 10.000875 6.5 10 z "
     id="path2989" />
</svg>
