<?xml version="1.0" encoding="UTF-8" standalone="no"?>
<!-- Created with Inkscape (http://www.inkscape.org/) -->

<svg
   xmlns:dc="http://purl.org/dc/elements/1.1/"
   xmlns:cc="http://creativecommons.org/ns#"
   xmlns:rdf="http://www.w3.org/1999/02/22-rdf-syntax-ns#"
   xmlns:svg="http://www.w3.org/2000/svg"
   xmlns="http://www.w3.org/2000/svg"
   xmlns:sodipodi="http://sodipodi.sourceforge.net/DTD/sodipodi-0.dtd"
   xmlns:inkscape="http://www.inkscape.org/namespaces/inkscape"
   width="16"
   height="16"
   id="svg27665"
   version="1.1"
   inkscape:version="0.48.4 r9939"
   sodipodi:docname="server-database.svg">
  <defs
     id="defs27667" />
  <sodipodi:namedview
     id="base"
     pagecolor="#ffffff"
     bordercolor="#666666"
     borderopacity="1.0"
     inkscape:pageopacity="0.0"
     inkscape:pageshadow="2"
     inkscape:zoom="45.254834"
     inkscape:cx="6.3147928"
     inkscape:cy="6.9369989"
     inkscape:document-units="px"
     inkscape:current-layer="layer1"
     showgrid="true"
     inkscape:window-width="1301"
     inkscape:window-height="744"
     inkscape:window-x="65"
     inkscape:window-y="24"
     inkscape:window-maximized="1"
     inkscape:snap-bbox="true"
     inkscape:bbox-paths="true"
     inkscape:bbox-nodes="true"
     inkscape:snap-bbox-edge-midpoints="true"
     inkscape:snap-bbox-midpoints="true"
     inkscape:object-paths="true"
     inkscape:snap-intersection-paths="true"
     inkscape:object-nodes="true"
     inkscape:snap-smooth-nodes="true"
     inkscape:snap-midpoints="true"
     inkscape:snap-object-midpoints="true"
     inkscape:snap-center="true"
     inkscape:snap-global="false"
     showguides="false"
     inkscape:guide-bbox="true"
     fit-margin-top="0"
     fit-margin-left="0"
     fit-margin-right="0"
     fit-margin-bottom="0"
     inkscape:showpageshadow="false">
    <sodipodi:guide
       orientation="0,1"
       position="599.99999,299.99993"
       id="guide3572" />
    <sodipodi:guide
       orientation="1,0"
       position="294.41949,12.121716"
       id="guide3574" />
    <sodipodi:guide
       orientation="0,1"
       position="456.04389,599.99992"
       id="guide3576" />
    <sodipodi:guide
       orientation="0,1"
       position="-2.8882813e-06,-8.4406273e-05"
       id="guide3578" />
    <sodipodi:guide
       orientation="1,0"
       position="-2.8882813e-06,157.58366"
       id="guide3580" />
    <sodipodi:guide
       orientation="1,0"
       position="599.99999,121.21821"
       id="guide3582" />
    <sodipodi:guide
       orientation="0,1"
       position="599.99999,-714.34359"
       id="guide5928" />
    <sodipodi:guide
       orientation="0,1"
       position="599.99999,-414.34359"
       id="guide5930" />
    <sodipodi:guide
       orientation="0,1"
       position="599.99999,-1014.3435"
       id="guide5932" />
    <sodipodi:guide
       orientation="0,1"
       position="451.57029,524.99606"
       id="guide5294" />
    <sodipodi:guide
       orientation="0,1"
       position="451.57029,75.013516"
       id="guide5296" />
    <sodipodi:guide
       orientation="0,1"
       position="496.01499,-931.36409"
       id="guide5413" />
    <sodipodi:guide
       orientation="0,1"
       position="457.34859,-489.34389"
       id="guide5415" />
    <inkscape:grid
       type="xygrid"
       id="grid3070"
       empspacing="5"
       visible="true"
       enabled="true"
       snapvisiblegridlinesonly="true"
       originx="4.3243213e-05px"
       originy="-2.6947047e-05px" />
  </sodipodi:namedview>
  <metadata
     id="metadata27670">
    <rdf:RDF>
      <cc:Work
         rdf:about="">
        <dc:format>image/svg+xml</dc:format>
        <dc:type
           rdf:resource="http://purl.org/dc/dcmitype/StillImage" />
        <dc:title />
      </cc:Work>
    </rdf:RDF>
  </metadata>
  <g
     inkscape:label="Camada 1"
     inkscape:groupmode="layer"
     id="layer1"
     transform="translate(3364.4171,-2100.7186)">
    <path
       style="color:#000000;fill:#212121;fill-opacity:1;fill-rule:nonzero;stroke:none;stroke-width:4;marker:none;visibility:visible;display:inline;overflow:visible;enable-background:accumulate"
       d="M 1 1 L 1 7 L 5 7 L 5 5.71875 C 3.2166627 5.3720901 2 4.7377894 2 4 C 2 2.8954 4.6863 2 8 2 C 11.3137 2 14 2.8954 14 4 C 14 4.7377894 12.783337 5.3720901 11 5.71875 L 11 7 L 15 7 L 15 1 L 1 1 z M 7.1875 2.6875 C 5.372251 2.811318 4.03125 3.358275 4.03125 4 C 4.03125 4.7334 5.7999 5.3125 8 5.3125 C 10.2001 5.3125 11.96875 4.7334 11.96875 4 C 11.96875 3.2666 10.2001 2.6875 8 2.6875 C 7.7249875 2.6875 7.4468213 2.6698117 7.1875 2.6875 z M 6 5.875 L 6 7 L 7 7 L 9 7 L 10 7 L 10 5.875 C 9.3737837 5.9488743 8.7021407 6 8 6 C 7.2978593 6 6.6262163 5.9488743 6 5.875 z M 1 8 L 1 9 L 5 9 L 5 8 L 1 8 z M 6 8 L 6 9 L 7 9 L 9 9 L 10 9 L 10 8 L 9 8 L 7 8 L 6 8 z M 11 8 L 11 9 L 15 9 L 15 8 L 11 8 z M 1 10 L 1 11 L 5 11 L 5 10 L 1 10 z M 6 10 L 6 11 L 7 11 L 9 11 L 10 11 L 10 10 L 9 10 L 7 10 L 6 10 z M 11 10 L 11 11 L 15 11 L 15 10 L 11 10 z M 1 12 L 1 13 L 5 13 L 5 12 L 1 12 z M 6 12 L 6 13 L 7 13 L 9 13 L 10 13 L 10 12 L 9 12 L 7 12 L 6 12 z M 11 12 L 11 13 L 15 13 L 15 12 L 11 12 z M 1 14 L 1 15 L 5 15 L 5 14 L 1 14 z M 6 14 L 6 15 L 10 15 L 10 14 L 9 14 L 7 14 L 6 14 z M 11 14 L 11 15 L 15 15 L 15 14 L 11 14 z "
       transform="translate(-3364.4171,2100.7186)"
       id="rect3014" />
  </g>
</svg>
