<?xml version="1.0" encoding="UTF-8" standalone="no"?>
<!-- Created with Inkscape (http://www.inkscape.org/) -->

<svg
   xmlns:dc="http://purl.org/dc/elements/1.1/"
   xmlns:cc="http://creativecommons.org/ns#"
   xmlns:rdf="http://www.w3.org/1999/02/22-rdf-syntax-ns#"
   xmlns:svg="http://www.w3.org/2000/svg"
   xmlns="http://www.w3.org/2000/svg"
   xmlns:xlink="http://www.w3.org/1999/xlink"
   xmlns:sodipodi="http://sodipodi.sourceforge.net/DTD/sodipodi-0.dtd"
   xmlns:inkscape="http://www.inkscape.org/namespaces/inkscape"
   width="48"
   height="48"
   id="svg2"
   version="1.1"
   inkscape:version="0.48.4 r9939"
   sodipodi:docname="start-here-elementary.svg">
  <defs
     id="defs4">
    <linearGradient
       id="linearGradient3823">
      <stop
         style="stop-color:#1e88e5;stop-opacity:1;"
         offset="0"
         id="stop3825" />
      <stop
         style="stop-color:#1e9ce5;stop-opacity:1;"
         offset="1"
         id="stop3827" />
    </linearGradient>
    <linearGradient
       inkscape:collect="always"
       id="linearGradient3895">
      <stop
         style="stop-color:#f44336;stop-opacity:1;"
         offset="0"
         id="stop3897" />
      <stop
         style="stop-color:#f44336;stop-opacity:0;"
         offset="1"
         id="stop3899" />
    </linearGradient>
    <radialGradient
       inkscape:collect="always"
       xlink:href="#linearGradient3895"
       id="radialGradient3901"
       cx="4"
       cy="1051.2712"
       fx="4"
       fy="1051.2712"
       r="24"
       gradientTransform="matrix(1,0,0,0.91666667,0,85.69685)"
       gradientUnits="userSpaceOnUse" />
    <linearGradient
       inkscape:collect="always"
       xlink:href="#linearGradient3823"
       id="linearGradient3829"
       x1="24"
       y1="1050.3622"
       x2="24"
       y2="1006.3622"
       gradientUnits="userSpaceOnUse" />
    <linearGradient
       gradientUnits="userSpaceOnUse"
       y2="90"
       x2="90"
       y1="12"
       x1="12"
       id="linearGradient4151"
       xlink:href="#linearGradient4145"
       inkscape:collect="always" />
    <linearGradient
       id="linearGradient4145"
       inkscape:collect="always">
      <stop
         id="stop4147"
         offset="0"
         style="stop-color:#000000;stop-opacity:1;" />
      <stop
         id="stop4149"
         offset="1"
         style="stop-color:#000000;stop-opacity:0;" />
    </linearGradient>
    <linearGradient
       inkscape:collect="always"
       xlink:href="#linearGradient4145"
       id="linearGradient3037"
       gradientUnits="userSpaceOnUse"
       x1="12"
       y1="12"
       x2="90"
       y2="90"
       gradientTransform="translate(-131.9988,998.31978)" />
  </defs>
  <sodipodi:namedview
     id="base"
     pagecolor="#ffffff"
     bordercolor="#666666"
     borderopacity="1.0"
     inkscape:pageopacity="0.0"
     inkscape:pageshadow="2"
     inkscape:zoom="8.1906533"
     inkscape:cx="3.4923426"
     inkscape:cy="19.476809"
     inkscape:document-units="px"
     inkscape:current-layer="layer1"
     showgrid="true"
     inkscape:snap-bbox="true"
     inkscape:window-width="1301"
     inkscape:window-height="744"
     inkscape:window-x="65"
     inkscape:window-y="24"
     inkscape:window-maximized="1"
     inkscape:snap-nodes="true"
     showguides="true"
     inkscape:guide-bbox="true">
    <inkscape:grid
       type="xygrid"
       id="grid2985"
       empspacing="6"
       visible="true"
       enabled="true"
       snapvisiblegridlinesonly="true" />
  </sodipodi:namedview>
  <metadata
     id="metadata7">
    <rdf:RDF>
      <cc:Work
         rdf:about="">
        <dc:format>image/svg+xml</dc:format>
        <dc:type
           rdf:resource="http://purl.org/dc/dcmitype/StillImage" />
        <dc:title />
      </cc:Work>
    </rdf:RDF>
  </metadata>
  <g
     inkscape:label="Layer 1"
     inkscape:groupmode="layer"
     id="layer1"
     transform="translate(0,-1004.3622)">
    <path
       id="path3788"
       d="m 24,1051.1116 c -21.2715315,0 -23.66257505,-0.089 -23.9375,-15.4063 0.328125,14.4033 2.9375,14.4063 23.9375,14.4063 21,0 23.609375,0 23.9375,-14.4063 -0.274925,15.3174 -2.665968,15.4063 -23.9375,15.4063 z"
       style="opacity:0.20000000000000001;fill:#ffffff;fill-opacity:1;stroke:none"
       inkscape:connector-curvature="0" />
    <path
       style="fill:url(#linearGradient3829);fill-opacity:1;stroke:none"
       d="m 24,1006.3622 c -6,0 -10.5,10e-5 -13.875,0.3438 -1.6875,0.1719 -3.078125,0.4257 -4.25,0.8125 -1.171875,0.3868 -2.125,0.9062 -2.875,1.5937 -0.75,0.6875 -1.328125,1.5508 -1.75,2.625 -0.421875,1.0742 -0.6875,2.3595 -0.875,3.9063 C 0,1018.7373 0,1022.8622 0,1028.3622 c 0,5.5 0,9.6251 0.375,12.7188 0.1875,1.5469 0.453125,2.832 0.875,3.9062 0.421875,1.0742 1,1.9375 1.75,2.625 0.75,0.6875 1.703125,1.2071 2.875,1.5938 1.171875,0.3868 2.5625,0.6407 4.25,0.8125 3.375,0.3438 7.875,0.3437 13.875,0.3437 6,0 10.5,0 13.875,-0.3437 1.6875,-0.1719 3.078125,-0.4258 4.25,-0.8125 1.171875,-0.3868 2.125,-0.9063 2.875,-1.5938 0.75,-0.6875 1.328125,-1.5508 1.75,-2.625 0.421875,-1.0742 0.6875,-2.3594 0.875,-3.9062 0.375,-3.0938 0.375,-7.2188 0.375,-12.7188 0,-5.5 0,-9.625 -0.375,-12.7187 -0.1875,-1.5469 -0.453125,-2.8321 -0.875,-3.9063 -0.421875,-1.0742 -1,-1.9375 -1.75,-2.625 -0.75,-0.6875 -1.703125,-1.207 -2.875,-1.5937 -1.171875,-0.3868 -2.5625,-0.6407 -4.25,-0.8125 C 34.5,1006.3622 30,1006.3622 24,1006.3622 z"
       id="path3772"
       inkscape:connector-curvature="0" />
    <g
       id="g3025"
       transform="translate(-50.998,1000.3622)" />
    <g
       id="g3817"
       transform="translate(-49.998,1002.3622)" />
    <g
       id="g3050"
       transform="translate(-64.998,1003.3622)" />
    <path
       style="fill:#000000;fill-opacity:1;stroke:none;opacity:0.20000000000000001"
       d="M 24 2 C 2.7284685 2 0.33742495 2.0888436 0.0625 17.40625 C 0.390625 3.0029297 3 3 24 3 C 45 3 47.609375 3.0029297 47.9375 17.40625 C 47.662575 2.0888436 45.271532 2 24 2 z "
       transform="translate(0,1004.3622)"
       id="path3770" />
    <path
       inkscape:connector-curvature="0"
       id="path3883"
       d="m 24,1006.3622 c -6,0 -10.5,10e-5 -13.875,0.3438 -1.6875,0.1719 -3.078125,0.4257 -4.25,0.8125 -1.171875,0.3868 -2.125,0.9062 -2.875,1.5937 -0.75,0.6875 -1.328125,1.5508 -1.75,2.625 -0.421875,1.0742 -0.6875,2.3595 -0.875,3.9063 C 0,1018.7373 0,1022.8622 0,1028.3622 c 0,5.5 0,9.6251 0.375,12.7188 0.1875,1.5469 0.453125,2.832 0.875,3.9062 0.421875,1.0742 1,1.9375 1.75,2.625 0.75,0.6875 1.703125,1.2071 2.875,1.5938 1.171875,0.3868 2.5625,0.6407 4.25,0.8125 3.375,0.3438 7.875,0.3437 13.875,0.3437 6,0 10.5,0 13.875,-0.3437 1.6875,-0.1719 3.078125,-0.4258 4.25,-0.8125 1.171875,-0.3868 2.125,-0.9063 2.875,-1.5938 0.75,-0.6875 1.328125,-1.5508 1.75,-2.625 0.421875,-1.0742 0.6875,-2.3594 0.875,-3.9062 0.375,-3.0938 0.375,-7.2188 0.375,-12.7188 0,-5.5 0,-9.625 -0.375,-12.7187 -0.1875,-1.5469 -0.453125,-2.8321 -0.875,-3.9063 -0.421875,-1.0742 -1,-1.9375 -1.75,-2.625 -0.75,-0.6875 -1.703125,-1.207 -2.875,-1.5937 -1.171875,-0.3868 -2.5625,-0.6407 -4.25,-0.8125 C 34.5,1006.3622 30,1006.3622 24,1006.3622 z"
       style="fill:url(#radialGradient3901);fill-opacity:1;stroke:none;opacity:0" />
    <g
       style="fill:#000000;fill-opacity:1;opacity:0.1"
       transform="matrix(0.29166667,0,0,0.2916666,6.3333333,741.08996)"
       id="g3043">
      <path
         d="m 64,940.36218 c -26.509667,0 -48,21.49034 -48,48 0,26.50972 21.490333,48.00002 48,48.00002 26.509664,0 48,-21.4903 48,-48.00002 0,-26.50966 -21.490336,-48 -48,-48 z m 0,4 c 20.15479,0 37.14462,13.55176 42.355,32.04 -4.4877,9.25637 -10.873381,17.59038 -18.650002,24.32502 -3.735795,3.2352 -7.814534,6.1193 -12.32,8.15 -4.505465,2.0307 -9.461145,3.1829 -14.394998,2.9 -3.706902,-0.2126 -7.368725,-1.2452 -10.615,-3.045 8.603218,-4.6618 16.365742,-10.87737 22.720002,-18.32002 4.170803,-4.88521 7.819942,-10.43709 9.224998,-16.705 0.702528,-3.13395 0.821581,-6.4161 0.164998,-9.56 -0.656582,-3.1439 -2.110188,-6.1399 -4.309996,-8.48 -2.149082,-2.28613 -4.97033,-3.90553 -7.995002,-4.74 -3.024672,-0.83446 -6.24345,-0.89907 -9.33,-0.335 -6.173101,1.12814 -11.684554,4.71584 -16.105,9.17 -7.79168,7.8511 -12.608581,18.92915 -11.725,29.955 0.441789,5.51292 2.289248,10.93012 5.455,15.46502 0.706642,1.0122 1.483501,1.9764 2.315,2.89 -4.611828,1.614 -9.386995,2.7629 -14.23,3.41 -4.15805,-6.7188 -6.56,-14.638 -6.56,-23.12002 0,-24.30053 19.69947,-44 44,-44 z m 0.28,8.89 c 3.093024,0.004 6.207066,0.94057 8.675002,2.805 2.223488,1.67977 3.871027,4.06951 4.804998,6.695 0.933971,2.62549 1.173658,5.47662 0.855002,8.245 -0.637319,5.53677 -3.430458,10.61442 -6.804999,15.05 -5.975053,7.85375 -13.917093,14.13972 -22.750003,18.54002 -0.904118,0.4504 -1.822565,0.8785 -2.745,1.29 -1.921973,-1.6819 -3.569314,-3.6768 -4.825,-5.90002 -2.623798,-4.64556 -3.489056,-10.16402 -2.98,-15.475 0.509056,-5.31097 2.331648,-10.42962 4.78,-15.17 2.838755,-5.49625 6.70822,-10.70239 12.125,-13.69 2.70839,-1.4938 5.771973,-2.39419 8.865,-2.39 z m 43.325,29.22 c 0.25778,1.9268 0.395,3.89265 0.395,5.89 0,24.30052 -19.699469,44.00002 -44,44.00002 -13.647425,0 -25.844438,-6.2128 -33.915,-15.965 4.98138,-1.1314 9.850072,-2.7565 14.52,-4.825 2.042194,1.5553 4.297558,2.8309 6.695,3.75 6.904163,2.6469 14.742694,2.2639 21.730003,-0.155 6.987303,-2.4189 13.183469,-6.7606 18.584999,-11.81 6.434617,-6.01522 11.859848,-13.10515 15.989998,-20.88502 z"
         inkscape:connector-curvature="0"
         id="path3045"
         style="fill:#000000;fill-opacity:1;stroke:none" />
    </g>
    <g
       id="g5317"
       transform="matrix(0.29166667,0,0,0.2916666,5.3333329,740.08998)"
       style="fill:#ffffff;fill-opacity:1">
      <path
         style="fill:#ffffff;fill-opacity:1;stroke:none"
         id="path5319"
         inkscape:connector-curvature="0"
         d="m 64,940.36218 c -26.509667,0 -48,21.49034 -48,48 0,26.50972 21.490333,48.00002 48,48.00002 26.509664,0 48,-21.4903 48,-48.00002 0,-26.50966 -21.490336,-48 -48,-48 z m 0,4 c 20.15479,0 37.14462,13.55176 42.355,32.04 -4.4877,9.25637 -10.873381,17.59038 -18.650002,24.32502 -3.735795,3.2352 -7.814534,6.1193 -12.32,8.15 -4.505465,2.0307 -9.461145,3.1829 -14.394998,2.9 -3.706902,-0.2126 -7.368725,-1.2452 -10.615,-3.045 8.603218,-4.6618 16.365742,-10.87737 22.720002,-18.32002 4.170803,-4.88521 7.819942,-10.43709 9.224998,-16.705 0.702528,-3.13395 0.821581,-6.4161 0.164998,-9.56 -0.656582,-3.1439 -2.110188,-6.1399 -4.309996,-8.48 -2.149082,-2.28613 -4.97033,-3.90553 -7.995002,-4.74 -3.024672,-0.83446 -6.24345,-0.89907 -9.33,-0.335 -6.173101,1.12814 -11.684554,4.71584 -16.105,9.17 -7.79168,7.8511 -12.608581,18.92915 -11.725,29.955 0.441789,5.51292 2.289248,10.93012 5.455,15.46502 0.706642,1.0122 1.483501,1.9764 2.315,2.89 -4.611828,1.614 -9.386995,2.7629 -14.23,3.41 -4.15805,-6.7188 -6.56,-14.638 -6.56,-23.12002 0,-24.30053 19.69947,-44 44,-44 z m 0.28,8.89 c 3.093024,0.004 6.207066,0.94057 8.675002,2.805 2.223488,1.67977 3.871027,4.06951 4.804998,6.695 0.933971,2.62549 1.173658,5.47662 0.855002,8.245 -0.637319,5.53677 -3.430458,10.61442 -6.804999,15.05 -5.975053,7.85375 -13.917093,14.13972 -22.750003,18.54002 -0.904118,0.4504 -1.822565,0.8785 -2.745,1.29 -1.921973,-1.6819 -3.569314,-3.6768 -4.825,-5.90002 -2.623798,-4.64556 -3.489056,-10.16402 -2.98,-15.475 0.509056,-5.31097 2.331648,-10.42962 4.78,-15.17 2.838755,-5.49625 6.70822,-10.70239 12.125,-13.69 2.70839,-1.4938 5.771973,-2.39419 8.865,-2.39 z m 43.325,29.22 c 0.25778,1.9268 0.395,3.89265 0.395,5.89 0,24.30052 -19.699469,44.00002 -44,44.00002 -13.647425,0 -25.844438,-6.2128 -33.915,-15.965 4.98138,-1.1314 9.850072,-2.7565 14.52,-4.825 2.042194,1.5553 4.297558,2.8309 6.695,3.75 6.904163,2.6469 14.742694,2.2639 21.730003,-0.155 6.987303,-2.4189 13.183469,-6.7606 18.584999,-11.81 6.434617,-6.01522 11.859848,-13.10515 15.989998,-20.88502 z" />
    </g>
  </g>
</svg>
