<?xml version="1.0" encoding="utf-8"?>
<!-- Generator: Adobe Illustrator 18.0.0, SVG Export Plug-In . SVG Version: 6.00 Build 0)  -->
<!DOCTYPE svg PUBLIC "-//W3C//DTD SVG 1.1//EN" "http://www.w3.org/Graphics/SVG/1.1/DTD/svg11.dtd">
<svg version="1.1"
	 id="svg2" xmlns:dc="http://purl.org/dc/elements/1.1/" xmlns:cc="http://creativecommons.org/ns#" xmlns:rdf="http://www.w3.org/1999/02/22-rdf-syntax-ns#" xmlns:svg="http://www.w3.org/2000/svg" xmlns:sodipodi="http://sodipodi.sourceforge.net/DTD/sodipodi-0.dtd" xmlns:inkscape="http://www.inkscape.org/namespaces/inkscape" sodipodi:docname="distributor-logo-ubuntu.svg" inkscape:version="0.48.4 r9939"
	 xmlns="http://www.w3.org/2000/svg" xmlns:xlink="http://www.w3.org/1999/xlink" x="0px" y="0px" viewBox="0 0 48 48"
	 enable-background="new 0 0 48 48" xml:space="preserve">
<sodipodi:namedview  id="base" inkscape:cy="24.979506" inkscape:cx="-3.4769652" inkscape:zoom="8.1906533" borderopacity="1.0" bordercolor="#666666" showgrid="true" pagecolor="#ffffff" inkscape:snap-nodes="false" inkscape:object-nodes="true" inkscape:window-y="24" inkscape:window-x="65" inkscape:window-height="744" inkscape:window-width="1301" inkscape:snap-bbox="true" inkscape:current-layer="layer1" inkscape:document-units="px" inkscape:pageshadow="2" inkscape:pageopacity="0.0" inkscape:window-maximized="1">
	<inkscape:grid  type="xygrid" visible="true" id="grid3003" enabled="true" empspacing="6" snapvisiblegridlinesonly="true">
		</inkscape:grid>
</sodipodi:namedview>
<g id="layer1" transform="translate(0,-1004.3622)" inkscape:label="Layer 1" inkscape:groupmode="layer">
	<path id="path3788" inkscape:connector-curvature="0" opacity="0.2" fill="#FFFFFF" enable-background="new    " d="M24,1051.1
		c-21.3,0-23.7-0.1-23.9-15.4c0.3,14.4,2.9,14.4,23.9,14.4s23.6,0,23.9-14.4C47.7,1051,45.3,1051.1,24,1051.1z"/>
	
		<linearGradient id="path3757_1_" gradientUnits="userSpaceOnUse" x1="24" y1="2" x2="24" y2="46" gradientTransform="matrix(1 0 0 -1 0 1052.3622)">
		<stop  offset="0" style="stop-color:#CC4312"/>
		<stop  offset="1" style="stop-color:#CC5812"/>
	</linearGradient>
	<path id="path3757" sodipodi:nodetypes="zzzzz" inkscape:connector-curvature="0" fill="url(#path3757_1_)" d="M24,1006.4
		c-24,0-24,0-24,22s0,22,24,22s24,0,24-22S48,1006.4,24,1006.4z"/>
	<path id="path3770" opacity="0.2" enable-background="new    " d="M24,1006.4c-21.3,0-23.7,0.1-23.9,15.4
		c0.3-14.4,2.9-14.4,23.9-14.4s23.6,0,23.9,14.4C47.7,1006.5,45.3,1006.4,24,1006.4z"/>
	<g id="g3813" transform="translate(-47.998,993.3622)">
	</g>
	<g id="g3032" transform="translate(-48.998,1007.3622)">
	</g>
</g>
<g opacity="0.2">
	<g>
		<path fill-rule="evenodd" clip-rule="evenodd" d="M25,13c-6.6,0-11.9,5.3-11.9,11.9S18.4,36.9,25,36.9S36.9,31.5,36.9,25
			S31.6,13,25,13z M29.4,15.9c1,0,1.7,0.8,1.7,1.7s-0.8,1.7-1.7,1.7s-1.7-0.8-1.7-1.7S28.5,15.9,29.4,15.9z M25.1,17.4
			c0.7,0,1.4,0.1,2,0.3c0.1,1.2,1.1,2.2,2.3,2.2c0.4,0,0.7-0.1,1-0.2c1.3,1.3,2.1,2.9,2.2,4.8l-2.7,0c-0.3-2.5-2.4-4.4-4.9-4.4
			c-0.7,0-1.4,0.2-2,0.4l-1.4-2.3C22.7,17.7,23.9,17.4,25.1,17.4z M27.1,26.2l0.4,0.8l-0.7,0.7l0,0.6l-1,0l0.8-1.1l-0.3-0.3
			l-0.8,0.6l0,0.4l-1,0l0.6-0.6l0.6-0.7L25.3,26l-0.5,0.3L24,26.5l-0.6-0.1L23,27l-0.1,0.9h-1l0.7-0.8l-0.2-0.5l-0.2-1l-0.5-1.2
			l0.9-1.7l0.8-0.5l0.9-0.9l-0.3,0.6l0.1,0l1-1l-0.4,1.2L25,23l-0.6,0.8l0.9,0.7l1.3,0.5l0.9-0.5l0.5-0.8l0.9-0.3l-0.2,1.2l-0.6,0.2
			l-0.4-0.1l-0.8,0.4L27.1,26.2z M16.4,26.7c-1,0-1.7-0.8-1.7-1.7s0.8-1.7,1.7-1.7c1,0,1.7,0.8,1.7,1.7S17.4,26.7,16.4,26.7z
			 M17.7,26.9c0.6-0.4,1-1.1,1-1.9c0-0.8-0.4-1.5-1-1.9c0.5-1.8,1.6-3.4,3.1-4.4l1.4,2.3c-1.3,0.9-2.1,2.4-2.1,4c0,1.6,0.8,3.1,2,4
			l-1.3,2.3C19.3,30.3,18.2,28.7,17.7,26.9z M29.4,34.1c-1,0-1.7-0.8-1.7-1.7c0-1,0.8-1.7,1.7-1.7s1.7,0.8,1.7,1.7
			C31.2,33.3,30.4,34.1,29.4,34.1z M30.5,30.3c-0.3-0.2-0.7-0.3-1.1-0.3c-1.3,0-2.3,1-2.3,2.3c-0.7,0.2-1.4,0.3-2.1,0.3
			c-1.2,0-2.4-0.3-3.4-0.8l1.3-2.3c0.6,0.3,1.3,0.5,2.1,0.5c2.6,0,4.7-2,4.9-4.5l2.7,0C32.6,27.3,31.8,29.1,30.5,30.3z"/>
	</g>
</g>
<g>
	<g>
		<path fill-rule="evenodd" clip-rule="evenodd" fill="#FFFFFF" d="M24,12c-6.6,0-11.9,5.3-11.9,11.9S17.4,35.9,24,35.9
			S35.9,30.5,35.9,24S30.6,12,24,12z M28.4,14.9c1,0,1.7,0.8,1.7,1.7s-0.8,1.7-1.7,1.7s-1.7-0.8-1.7-1.7S27.5,14.9,28.4,14.9z
			 M24.1,16.4c0.7,0,1.4,0.1,2,0.3c0.1,1.2,1.1,2.2,2.3,2.2c0.4,0,0.7-0.1,1-0.2c1.3,1.3,2.1,2.9,2.2,4.8l-2.7,0
			c-0.3-2.5-2.4-4.4-4.9-4.4c-0.7,0-1.4,0.2-2,0.4l-1.4-2.3C21.7,16.7,22.9,16.4,24.1,16.4z M26.1,25.2l0.4,0.8l-0.7,0.7l0,0.6l-1,0
			l0.8-1.1l-0.3-0.3l-0.8,0.6l0,0.4l-1,0l0.6-0.6l0.6-0.7L24.3,25l-0.5,0.3L23,25.5l-0.6-0.1L22,26l-0.1,0.9h-1l0.7-0.8l-0.2-0.5
			l-0.2-1l-0.5-1.2l0.9-1.7l0.8-0.5l0.9-0.9l-0.3,0.6l0.1,0l1-1l-0.4,1.2L24,22l-0.6,0.8l0.9,0.7l1.3,0.5l0.9-0.5l0.5-0.8l0.9-0.3
			l-0.2,1.2l-0.6,0.2l-0.4-0.1l-0.8,0.4L26.1,25.2z M15.4,25.7c-1,0-1.7-0.8-1.7-1.7s0.8-1.7,1.7-1.7c1,0,1.7,0.8,1.7,1.7
			S16.4,25.7,15.4,25.7z M16.7,25.9c0.6-0.4,1-1.1,1-1.9c0-0.8-0.4-1.5-1-1.9c0.5-1.8,1.6-3.4,3.1-4.4l1.4,2.3
			c-1.3,0.9-2.1,2.4-2.1,4c0,1.6,0.8,3.1,2,4l-1.3,2.3C18.3,29.3,17.2,27.7,16.7,25.9z M28.4,33.1c-1,0-1.7-0.8-1.7-1.7
			c0-1,0.8-1.7,1.7-1.7s1.7,0.8,1.7,1.7C30.2,32.3,29.4,33.1,28.4,33.1z M29.5,29.3c-0.3-0.2-0.7-0.3-1.1-0.3c-1.3,0-2.3,1-2.3,2.3
			c-0.7,0.2-1.4,0.3-2.1,0.3c-1.2,0-2.4-0.3-3.4-0.8l1.3-2.3c0.6,0.3,1.3,0.5,2.1,0.5c2.6,0,4.7-2,4.9-4.5l2.7,0
			C31.6,26.3,30.8,28.1,29.5,29.3z"/>
	</g>
</g>
</svg>
