<?xml version="1.0" encoding="UTF-8" standalone="no"?>
<!-- Created with Inkscape (http://www.inkscape.org/) -->

<svg
   xmlns:dc="http://purl.org/dc/elements/1.1/"
   xmlns:cc="http://creativecommons.org/ns#"
   xmlns:rdf="http://www.w3.org/1999/02/22-rdf-syntax-ns#"
   xmlns:svg="http://www.w3.org/2000/svg"
   xmlns="http://www.w3.org/2000/svg"
   xmlns:xlink="http://www.w3.org/1999/xlink"
   xmlns:sodipodi="http://sodipodi.sourceforge.net/DTD/sodipodi-0.dtd"
   xmlns:inkscape="http://www.inkscape.org/namespaces/inkscape"
   width="48"
   height="48"
   id="svg2"
   version="1.1"
   inkscape:version="0.48.4 r9939"
   sodipodi:docname="distributor-logo-chakra.svg">
  <defs
     id="defs4">
    <linearGradient
       id="linearGradient3762">
      <stop
         style="stop-color:#ececec;stop-opacity:1;"
         offset="0"
         id="stop3764" />
      <stop
         style="stop-color:#ffffff;stop-opacity:1;"
         offset="1"
         id="stop3767" />
    </linearGradient>
    <linearGradient
       inkscape:collect="always"
       xlink:href="#linearGradient3762"
       id="linearGradient3769"
       x1="33"
       y1="14"
       x2="33"
       y2="31"
       gradientUnits="userSpaceOnUse"
       spreadMethod="repeat" />
    <linearGradient
       gradientTransform="matrix(0,-1,1,0,-1.5e-6,47.999998)"
       gradientUnits="userSpaceOnUse"
       x2="47"
       x1="1"
       id="linearGradient3764">
      <stop
         id="stop2997"
         stop-opacity="1"
         stop-color="#154ea3" />
      <stop
         id="stop2999"
         stop-opacity="1"
         stop-color="#1756b6"
         offset="1" />
    </linearGradient>
    <linearGradient
       inkscape:collect="always"
       xlink:href="#linearGradient3764"
       id="linearGradient3111"
       gradientUnits="userSpaceOnUse"
       gradientTransform="matrix(0,-1,1,0,-1.5e-6,47.999998)"
       x1="1"
       x2="47" />
    <linearGradient
       inkscape:collect="always"
       xlink:href="#linearGradient3764"
       id="linearGradient3114"
       gradientUnits="userSpaceOnUse"
       gradientTransform="matrix(0,-1,1,0,-44.998001,1054.3622)"
       x1="1"
       x2="47" />
  </defs>
  <sodipodi:namedview
     id="base"
     pagecolor="#ffffff"
     bordercolor="#666666"
     borderopacity="1.0"
     inkscape:pageopacity="0.0"
     inkscape:pageshadow="2"
     inkscape:zoom="4.0953267"
     inkscape:cx="4.8490887"
     inkscape:cy="15.144688"
     inkscape:document-units="px"
     inkscape:current-layer="layer1"
     showgrid="true"
     inkscape:snap-bbox="true"
     inkscape:window-width="1301"
     inkscape:window-height="744"
     inkscape:window-x="65"
     inkscape:window-y="24"
     inkscape:window-maximized="1">
    <inkscape:grid
       type="xygrid"
       id="grid2985"
       empspacing="6"
       visible="true"
       enabled="true"
       snapvisiblegridlinesonly="true" />
  </sodipodi:namedview>
  <metadata
     id="metadata7">
    <rdf:RDF>
      <cc:Work
         rdf:about="">
        <dc:format>image/svg+xml</dc:format>
        <dc:type
           rdf:resource="http://purl.org/dc/dcmitype/StillImage" />
        <dc:title />
      </cc:Work>
    </rdf:RDF>
  </metadata>
  <g
     inkscape:label="Layer 1"
     inkscape:groupmode="layer"
     id="layer1"
     transform="translate(0,-1004.3622)">
    <path
       id="path3788"
       d="m 24,1051.1116 c -21.2715315,0 -23.66257505,-0.089 -23.9375,-15.4063 0.328125,14.4033 2.9375,14.4063 23.9375,14.4063 21,0 23.609375,0 23.9375,-14.4063 -0.274925,15.3174 -2.665968,15.4063 -23.9375,15.4063 z"
       style="opacity:0.20000000000000001;fill:#ffffff;fill-opacity:1;stroke:none"
       inkscape:connector-curvature="0" />
    <path
       style="fill:#448aff;fill-opacity:1;stroke:none"
       d="m 24,1006.3622 c -24,0 -24,0 -24,22 0,22 0,22 24,22 24,0 24,0 24,-22 0,-22 0,-22 -24,-22 z"
       id="path3757"
       inkscape:connector-curvature="0"
       sodipodi:nodetypes="zzzzz" />
    <path
       style="fill:#000000;fill-opacity:1;stroke:none;opacity:0.20000000000000001"
       d="M 24 2 C 2.7284685 2 0.33742495 2.0888436 0.0625 17.40625 C 0.390625 3.0029297 3 3 24 3 C 45 3 47.609375 3.0029297 47.9375 17.40625 C 47.662575 2.0888436 45.271532 2 24 2 z "
       transform="translate(0,1004.3622)"
       id="path3770" />
    <path
       id="path3035"
       d="m 26.083655,1017.3578 c -2.777,0.086 7.434,13.609 -0.438,12.742 6.555,1.742 8.06,-6.379 6.719,-10.352 -1.328,-3.938 -2.02,-1.48 -5.969,-2.355 -0.117,-0.023 -0.219,-0.039 -0.313,-0.035 m -7.809,1.887 c -4.309,-0.01 -2.086,1.383 -4.176,4.723 -1.996,3.188 15.746,-2.523 12.355,4.609 3.75,-5.445 -3.832,-9.324 -8.184,-9.332 m 3.039,6.102 c -3.449,-0.01 -6.918,3.75 -7.891,6.605 -1.336,3.934 0.727,2.332 3.391,5.27 2.539,2.809 2.363,-15.16 8.387,-9.855 -1.191,-1.438 -2.539,-2.02 -3.887,-2.02 m 14.934,0.637 c -2.141,-0.16 -10.91,10.703 -12.355,3.852 0.297,6.523 8.809,5.387 12.332,2.934 3.488,-2.426 0.84,-2.297 0.488,-6.176 -0.035,-0.395 -0.199,-0.59 -0.465,-0.602 m -12.641,2.152 c -6.371,2.289 -2.609,9.711 0.906,12.168 3.48,2.441 2.535,0.066 6.266,-1.461 3.578,-1.453 -14.277,-6.848 -7.176,-10.703 m 0.004,-0"
       inkscape:connector-curvature="0"
       style="opacity:0.2;fill:#000000;fill-opacity:1;fill-rule:evenodd;stroke:none" />
    <path
       id="path3043"
       d="m 25.083655,1016.3578 c -2.777,0.086 7.434,13.609 -0.438,12.742 6.555,1.742 8.06,-6.379 6.719,-10.352 -1.328,-3.938 -2.02,-1.48 -5.969,-2.355 -0.117,-0.023 -0.219,-0.039 -0.313,-0.035 m -7.809,1.887 c -4.309,-0.01 -2.086,1.383 -4.176,4.723 -1.996,3.188 15.746,-2.523 12.355,4.609 3.75,-5.445 -3.832,-9.324 -8.184,-9.332 m 3.039,6.102 c -3.449,-0.01 -6.918,3.75 -7.891,6.605 -1.336,3.934 0.727,2.332 3.391,5.27 2.539,2.809 2.363,-15.16 8.387,-9.855 -1.191,-1.438 -2.539,-2.02 -3.887,-2.02 m 14.934,0.637 c -2.141,-0.16 -10.91,10.703 -12.355,3.852 0.297,6.523 8.809,5.387 12.332,2.934 3.488,-2.426 0.84,-2.297 0.488,-6.176 -0.035,-0.395 -0.199,-0.59 -0.465,-0.602 m -12.641,2.152 c -6.371,2.289 -2.609,9.711 0.906,12.168 3.48,2.441 2.535,0.066 6.266,-1.461 3.578,-1.453 -14.277,-6.848 -7.176,-10.703 m 0.004,0"
       inkscape:connector-curvature="0"
       style="fill:#f9f9f9;fill-opacity:1;fill-rule:evenodd;stroke:none" />
  </g>
</svg>
