<?xml version="1.0" encoding="UTF-8" standalone="no"?>
<!-- Created with Inkscape (http://www.inkscape.org/) -->

<svg
   xmlns:dc="http://purl.org/dc/elements/1.1/"
   xmlns:cc="http://creativecommons.org/ns#"
   xmlns:rdf="http://www.w3.org/1999/02/22-rdf-syntax-ns#"
   xmlns:svg="http://www.w3.org/2000/svg"
   xmlns="http://www.w3.org/2000/svg"
   xmlns:xlink="http://www.w3.org/1999/xlink"
   xmlns:sodipodi="http://sodipodi.sourceforge.net/DTD/sodipodi-0.dtd"
   xmlns:inkscape="http://www.inkscape.org/namespaces/inkscape"
   width="48"
   height="48"
   id="svg2"
   version="1.1"
   inkscape:version="0.48.4 r9939"
   sodipodi:docname="start-here-descent.svg">
  <defs
     id="defs4">
    <linearGradient
       id="linearGradient3823">
      <stop
         style="stop-color:#1e88e5;stop-opacity:1;"
         offset="0"
         id="stop3825" />
      <stop
         style="stop-color:#1e9ce5;stop-opacity:1;"
         offset="1"
         id="stop3827" />
    </linearGradient>
    <linearGradient
       inkscape:collect="always"
       id="linearGradient3895">
      <stop
         style="stop-color:#f44336;stop-opacity:1;"
         offset="0"
         id="stop3897" />
      <stop
         style="stop-color:#f44336;stop-opacity:0;"
         offset="1"
         id="stop3899" />
    </linearGradient>
    <radialGradient
       inkscape:collect="always"
       xlink:href="#linearGradient3895"
       id="radialGradient3901"
       cx="4"
       cy="1051.2712"
       fx="4"
       fy="1051.2712"
       r="24"
       gradientTransform="matrix(1,0,0,0.91666667,0,85.69685)"
       gradientUnits="userSpaceOnUse" />
    <linearGradient
       inkscape:collect="always"
       xlink:href="#linearGradient3823"
       id="linearGradient3829"
       x1="24"
       y1="1050.3622"
       x2="24"
       y2="1006.3622"
       gradientUnits="userSpaceOnUse" />
  </defs>
  <sodipodi:namedview
     id="base"
     pagecolor="#ffffff"
     bordercolor="#666666"
     borderopacity="1.0"
     inkscape:pageopacity="0.0"
     inkscape:pageshadow="2"
     inkscape:zoom="8.1906533"
     inkscape:cx="-17.873474"
     inkscape:cy="19.476809"
     inkscape:document-units="px"
     inkscape:current-layer="layer1"
     showgrid="true"
     inkscape:snap-bbox="true"
     inkscape:window-width="1301"
     inkscape:window-height="744"
     inkscape:window-x="65"
     inkscape:window-y="24"
     inkscape:window-maximized="1"
     inkscape:snap-nodes="true"
     showguides="true"
     inkscape:guide-bbox="true">
    <inkscape:grid
       type="xygrid"
       id="grid2985"
       empspacing="6"
       visible="true"
       enabled="true"
       snapvisiblegridlinesonly="true" />
  </sodipodi:namedview>
  <metadata
     id="metadata7">
    <rdf:RDF>
      <cc:Work
         rdf:about="">
        <dc:format>image/svg+xml</dc:format>
        <dc:type
           rdf:resource="http://purl.org/dc/dcmitype/StillImage" />
        <dc:title />
      </cc:Work>
    </rdf:RDF>
  </metadata>
  <g
     inkscape:label="Layer 1"
     inkscape:groupmode="layer"
     id="layer1"
     transform="translate(0,-1004.3622)">
    <path
       id="path3788"
       d="m 24,1051.1116 c -21.2715315,0 -23.66257505,-0.089 -23.9375,-15.4063 0.328125,14.4033 2.9375,14.4063 23.9375,14.4063 21,0 23.609375,0 23.9375,-14.4063 -0.274925,15.3174 -2.665968,15.4063 -23.9375,15.4063 z"
       style="opacity:0.20000000000000001;fill:#ffffff;fill-opacity:1;stroke:none"
       inkscape:connector-curvature="0" />
    <path
       style="fill:url(#linearGradient3829);fill-opacity:1;stroke:none"
       d="m 24,1006.3622 c -6,0 -10.5,10e-5 -13.875,0.3438 -1.6875,0.1719 -3.078125,0.4257 -4.25,0.8125 -1.171875,0.3868 -2.125,0.9062 -2.875,1.5937 -0.75,0.6875 -1.328125,1.5508 -1.75,2.625 -0.421875,1.0742 -0.6875,2.3595 -0.875,3.9063 C 0,1018.7373 0,1022.8622 0,1028.3622 c 0,5.5 0,9.6251 0.375,12.7188 0.1875,1.5469 0.453125,2.832 0.875,3.9062 0.421875,1.0742 1,1.9375 1.75,2.625 0.75,0.6875 1.703125,1.2071 2.875,1.5938 1.171875,0.3868 2.5625,0.6407 4.25,0.8125 3.375,0.3438 7.875,0.3437 13.875,0.3437 6,0 10.5,0 13.875,-0.3437 1.6875,-0.1719 3.078125,-0.4258 4.25,-0.8125 1.171875,-0.3868 2.125,-0.9063 2.875,-1.5938 0.75,-0.6875 1.328125,-1.5508 1.75,-2.625 0.421875,-1.0742 0.6875,-2.3594 0.875,-3.9062 0.375,-3.0938 0.375,-7.2188 0.375,-12.7188 0,-5.5 0,-9.625 -0.375,-12.7187 -0.1875,-1.5469 -0.453125,-2.8321 -0.875,-3.9063 -0.421875,-1.0742 -1,-1.9375 -1.75,-2.625 -0.75,-0.6875 -1.703125,-1.207 -2.875,-1.5937 -1.171875,-0.3868 -2.5625,-0.6407 -4.25,-0.8125 C 34.5,1006.3622 30,1006.3622 24,1006.3622 z"
       id="path3772"
       inkscape:connector-curvature="0" />
    <g
       id="g3025"
       transform="translate(-50.998,1000.3622)" />
    <g
       id="g3817"
       transform="translate(-49.998,1002.3622)" />
    <g
       id="g3050"
       transform="translate(-64.998,1003.3622)" />
    <path
       style="fill:#000000;fill-opacity:1;stroke:none;opacity:0.20000000000000001"
       d="M 24 2 C 2.7284685 2 0.33742495 2.0888436 0.0625 17.40625 C 0.390625 3.0029297 3 3 24 3 C 45 3 47.609375 3.0029297 47.9375 17.40625 C 47.662575 2.0888436 45.271532 2 24 2 z "
       transform="translate(0,1004.3622)"
       id="path3770" />
    <path
       inkscape:connector-curvature="0"
       id="path3883"
       d="m 24,1006.3622 c -6,0 -10.5,10e-5 -13.875,0.3438 -1.6875,0.1719 -3.078125,0.4257 -4.25,0.8125 -1.171875,0.3868 -2.125,0.9062 -2.875,1.5937 -0.75,0.6875 -1.328125,1.5508 -1.75,2.625 -0.421875,1.0742 -0.6875,2.3595 -0.875,3.9063 C 0,1018.7373 0,1022.8622 0,1028.3622 c 0,5.5 0,9.6251 0.375,12.7188 0.1875,1.5469 0.453125,2.832 0.875,3.9062 0.421875,1.0742 1,1.9375 1.75,2.625 0.75,0.6875 1.703125,1.2071 2.875,1.5938 1.171875,0.3868 2.5625,0.6407 4.25,0.8125 3.375,0.3438 7.875,0.3437 13.875,0.3437 6,0 10.5,0 13.875,-0.3437 1.6875,-0.1719 3.078125,-0.4258 4.25,-0.8125 1.171875,-0.3868 2.125,-0.9063 2.875,-1.5938 0.75,-0.6875 1.328125,-1.5508 1.75,-2.625 0.421875,-1.0742 0.6875,-2.3594 0.875,-3.9062 0.375,-3.0938 0.375,-7.2188 0.375,-12.7188 0,-5.5 0,-9.625 -0.375,-12.7187 -0.1875,-1.5469 -0.453125,-2.8321 -0.875,-3.9063 -0.421875,-1.0742 -1,-1.9375 -1.75,-2.625 -0.75,-0.6875 -1.703125,-1.207 -2.875,-1.5937 -1.171875,-0.3868 -2.5625,-0.6407 -4.25,-0.8125 C 34.5,1006.3622 30,1006.3622 24,1006.3622 z"
       style="fill:url(#radialGradient3901);fill-opacity:1;stroke:none;opacity:0" />
    <g
       id="g3804"
       style="fill:#000000;fill-opacity:1;stroke:none;opacity:0.1"
       transform="matrix(0.43435508,0,0,0.43435508,5.4938013,1008.6751)">
      <path
         style="fill:#000000;fill-opacity:1;stroke:none"
         d="m 40.9375,20 1.71875,10 1.65625,5.59375 0,7.75 c -0.521196,0.233942 -1.033568,0.547106 -1.46875,0.90625 l -8.5,-22.34375 -1.21875,13.3125 9.09375,9.625 c -0.341508,0.371721 -0.629221,0.804732 -0.875,1.25 L 32.5,35.78125 19.125,35.59375 41.0625,46.6875 c -0.06336,0.151714 -0.135858,0.311334 -0.1875,0.46875 l -11.5625,-3.96875 -4.03125,-0.28125 -8,11.125 10,-1.71875 5.59375,-1.625 7.875,0 c 0.106176,0.421892 0.251577,0.835201 0.4375,1.21875 l -21.75,8.75 13.3125,0.9375 8.96875,-8.78125 c 0.284891,0.400615 0.600622,0.769646 0.96875,1.09375 L 33.34375,62.25 33.40625,75.59375 43.5625,54.53125 c 0.304815,0.188904 0.632439,0.364192 0.96875,0.5 l -3.3125,9.6875 -0.28125,4.03125 11.15625,7.96875 -1.75,-10 -1.625,-5.5625 0,-5.9375 c 0.525552,-0.157114 1.010132,-0.376261 1.46875,-0.65625 l 10.25,20.9375 -0.03125,-13.34375 -9.34375,-8.25 c 0.364491,-0.31854 0.685002,-0.669113 0.96875,-1.0625 L 61,61.53125 74.3125,60.5 52.59375,51.90625 c 0.250009,-0.514342 0.458912,-1.075713 0.5625,-1.65625 l 11.125,3.125 4.0625,0.28125 L 76.3125,42.5 l -10,1.75 -5.5625,1.625 -8.4375,0 c -0.0073,-0.01204 -0.02389,-0.01926 -0.03125,-0.03125 l 21.625,-10.53125 -13.375,0 -8.6875,9.84375 C 51.530798,44.766531 51.176451,44.431313 50.78125,44.125 l 9.15625,-9.40625 -1.03125,-13.3125 -8.84375,22.25 C 49.537113,43.351052 48.982056,43.144693 48.375,43 L 51.8125,32.03125 52.09375,28 40.9375,20 z"
         id="path3806"
         inkscape:connector-curvature="0" />
      <g
         transform="matrix(1.8904544,0,0,1.8904544,-45.385235,-49.867548)"
         id="g3808"
         style="fill:#000000;fill-opacity:1;stroke:none" />
      <g
         transform="matrix(0.17056846,-1.8827438,1.8827438,0.17056846,-61.248582,133.04128)"
         id="g3810"
         style="fill:#000000;fill-opacity:1;stroke:none" />
      <g
         id="g3812"
         transform="matrix(-1.8857134,-0.13380133,0.13380133,-1.8857134,132.40008,154.05802)"
         style="fill:#000000;fill-opacity:1;stroke:none" />
      <g
         transform="matrix(0.00225904,1.8904531,-1.8904531,0.00225904,145.45769,-43.880305)"
         id="g3814"
         style="fill:#000000;fill-opacity:1;stroke:none" />
    </g>
    <g
       transform="matrix(0.43435508,0,0,0.43435508,3.853278,1007.6751)"
       style="fill:#ffffff;fill-opacity:1;stroke:none"
       id="g4404">
      <path
         inkscape:connector-curvature="0"
         id="path4248"
         d="m 40.9375,20 1.71875,10 1.65625,5.59375 0,7.75 c -0.521196,0.233942 -1.033568,0.547106 -1.46875,0.90625 l -8.5,-22.34375 -1.21875,13.3125 9.09375,9.625 c -0.341508,0.371721 -0.629221,0.804732 -0.875,1.25 L 32.5,35.78125 19.125,35.59375 41.0625,46.6875 c -0.06336,0.151714 -0.135858,0.311334 -0.1875,0.46875 l -11.5625,-3.96875 -4.03125,-0.28125 -8,11.125 10,-1.71875 5.59375,-1.625 7.875,0 c 0.106176,0.421892 0.251577,0.835201 0.4375,1.21875 l -21.75,8.75 13.3125,0.9375 8.96875,-8.78125 c 0.284891,0.400615 0.600622,0.769646 0.96875,1.09375 L 33.34375,62.25 33.40625,75.59375 43.5625,54.53125 c 0.304815,0.188904 0.632439,0.364192 0.96875,0.5 l -3.3125,9.6875 -0.28125,4.03125 11.15625,7.96875 -1.75,-10 -1.625,-5.5625 0,-5.9375 c 0.525552,-0.157114 1.010132,-0.376261 1.46875,-0.65625 l 10.25,20.9375 -0.03125,-13.34375 -9.34375,-8.25 c 0.364491,-0.31854 0.685002,-0.669113 0.96875,-1.0625 L 61,61.53125 74.3125,60.5 52.59375,51.90625 c 0.250009,-0.514342 0.458912,-1.075713 0.5625,-1.65625 l 11.125,3.125 4.0625,0.28125 L 76.3125,42.5 l -10,1.75 -5.5625,1.625 -8.4375,0 c -0.0073,-0.01204 -0.02389,-0.01926 -0.03125,-0.03125 l 21.625,-10.53125 -13.375,0 -8.6875,9.84375 C 51.530798,44.766531 51.176451,44.431313 50.78125,44.125 l 9.15625,-9.40625 -1.03125,-13.3125 -8.84375,22.25 C 49.537113,43.351052 48.982056,43.144693 48.375,43 L 51.8125,32.03125 52.09375,28 40.9375,20 z"
         style="fill:#ffffff;fill-opacity:1;stroke:none" />
      <g
         style="fill:#ffffff;fill-opacity:1;stroke:none"
         id="g4260"
         transform="matrix(1.8904544,0,0,1.8904544,-45.385235,-49.867548)" />
      <g
         style="fill:#ffffff;fill-opacity:1;stroke:none"
         id="g4264"
         transform="matrix(0.17056846,-1.8827438,1.8827438,0.17056846,-61.248582,133.04128)" />
      <g
         style="fill:#ffffff;fill-opacity:1;stroke:none"
         transform="matrix(-1.8857134,-0.13380133,0.13380133,-1.8857134,132.40008,154.05802)"
         id="g4270" />
      <g
         style="fill:#ffffff;fill-opacity:1;stroke:none"
         id="g4276"
         transform="matrix(0.00225904,1.8904531,-1.8904531,0.00225904,145.45769,-43.880305)" />
    </g>
  </g>
</svg>
