<?xml version="1.0" encoding="UTF-8" standalone="no"?>
<!-- Created with Inkscape (http://www.inkscape.org/) -->

<svg
   xmlns:dc="http://purl.org/dc/elements/1.1/"
   xmlns:cc="http://creativecommons.org/ns#"
   xmlns:rdf="http://www.w3.org/1999/02/22-rdf-syntax-ns#"
   xmlns:svg="http://www.w3.org/2000/svg"
   xmlns="http://www.w3.org/2000/svg"
   xmlns:xlink="http://www.w3.org/1999/xlink"
   xmlns:sodipodi="http://sodipodi.sourceforge.net/DTD/sodipodi-0.dtd"
   xmlns:inkscape="http://www.inkscape.org/namespaces/inkscape"
   width="48"
   height="48"
   id="svg2"
   version="1.1"
   inkscape:version="0.48.4 r9939"
   sodipodi:docname="start-here-ubuntugnome.svg">
  <defs
     id="defs4">
    <linearGradient
       id="linearGradient3784">
      <stop
         style="stop-color:#599bcf;stop-opacity:1;"
         offset="0"
         id="stop3786" />
      <stop
         style="stop-color:#5975cf;stop-opacity:1;"
         offset="1"
         id="stop3788" />
    </linearGradient>
    <linearGradient
       inkscape:collect="always"
       xlink:href="#linearGradient3784"
       id="linearGradient3790"
       x1="24"
       y1="1006.3622"
       x2="24"
       y2="1050.3622"
       gradientUnits="userSpaceOnUse" />
  </defs>
  <sodipodi:namedview
     id="base"
     pagecolor="#ffffff"
     bordercolor="#666666"
     borderopacity="1.0"
     inkscape:pageopacity="0.0"
     inkscape:pageshadow="2"
     inkscape:zoom="8.1906533"
     inkscape:cx="3.0114416"
     inkscape:cy="28.315999"
     inkscape:document-units="px"
     inkscape:current-layer="layer1"
     showgrid="true"
     inkscape:snap-bbox="true"
     inkscape:window-width="1301"
     inkscape:window-height="744"
     inkscape:window-x="65"
     inkscape:window-y="24"
     inkscape:window-maximized="1"
     inkscape:snap-nodes="false">
    <inkscape:grid
       type="xygrid"
       id="grid2985"
       empspacing="6"
       visible="true"
       enabled="true"
       snapvisiblegridlinesonly="true" />
  </sodipodi:namedview>
  <metadata
     id="metadata7">
    <rdf:RDF>
      <cc:Work
         rdf:about="">
        <dc:format>image/svg+xml</dc:format>
        <dc:type
           rdf:resource="http://purl.org/dc/dcmitype/StillImage" />
        <dc:title />
      </cc:Work>
    </rdf:RDF>
  </metadata>
  <g
     inkscape:label="Layer 1"
     inkscape:groupmode="layer"
     id="layer1"
     transform="translate(0,-1004.3622)">
    <path
       id="path3788"
       d="m 24,1051.1116 c -21.2715315,0 -23.66257505,-0.089 -23.9375,-15.4063 0.328125,14.4033 2.9375,14.4063 23.9375,14.4063 21,0 23.609375,0 23.9375,-14.4063 -0.274925,15.3174 -2.665968,15.4063 -23.9375,15.4063 z"
       style="opacity:0.20000000000000001;fill:#ffffff;fill-opacity:1;stroke:none"
       inkscape:connector-curvature="0" />
    <path
       style="opacity:1;fill:url(#linearGradient3790);fill-opacity:1;stroke:none"
       d="m 24,1006.3622 c -6,0 -10.5,10e-5 -13.875,0.3438 -1.6875,0.1719 -3.078125,0.4257 -4.25,0.8125 -1.171875,0.3868 -2.125,0.9062 -2.875,1.5937 -0.75,0.6875 -1.328125,1.5508 -1.75,2.625 -0.421875,1.0742 -0.6875,2.3595 -0.875,3.9063 C 0,1018.7373 0,1022.8622 0,1028.3622 c 0,5.5 0,9.6251 0.375,12.7188 0.1875,1.5469 0.453125,2.832 0.875,3.9062 0.421875,1.0742 1,1.9375 1.75,2.625 0.75,0.6875 1.703125,1.2071 2.875,1.5938 1.171875,0.3868 2.5625,0.6407 4.25,0.8125 3.375,0.3438 7.875,0.3437 13.875,0.3437 6,0 10.5,0 13.875,-0.3437 1.6875,-0.1719 3.078125,-0.4258 4.25,-0.8125 1.171875,-0.3868 2.125,-0.9063 2.875,-1.5938 0.75,-0.6875 1.328125,-1.5508 1.75,-2.625 0.421875,-1.0742 0.6875,-2.3594 0.875,-3.9062 0.375,-3.0938 0.375,-7.2188 0.375,-12.7188 0,-5.5 0,-9.625 -0.375,-12.7187 -0.1875,-1.5469 -0.453125,-2.8321 -0.875,-3.9063 -0.421875,-1.0742 -1,-1.9375 -1.75,-2.625 -0.75,-0.6875 -1.703125,-1.207 -2.875,-1.5937 -1.171875,-0.3868 -2.5625,-0.6407 -4.25,-0.8125 C 34.5,1006.3622 30,1006.3622 24,1006.3622 z"
       id="path3772"
       inkscape:connector-curvature="0" />
    <path
       style="fill:#000000;fill-opacity:1;stroke:none;opacity:0.20000000000000001"
       d="M 24 2 C 2.7284685 2 0.33742495 2.0888436 0.0625 17.40625 C 0.390625 3.0029297 3 3 24 3 C 45 3 47.609375 3.0029297 47.9375 17.40625 C 47.662575 2.0888436 45.271532 2 24 2 z "
       transform="translate(0,1004.3622)"
       id="path3770" />
    <g
       id="g3025"
       transform="translate(-50.998,1000.3622)" />
    <g
       id="g3817"
       transform="translate(-49.998,1002.3622)" />
    <g
       id="g3050"
       transform="translate(-64.998,1003.3622)" />
    <path
       inkscape:connector-curvature="0"
       id="path3799"
       d="m 33.285438,1016.4473 c -1.034667,0.045 -2.220054,0.5268 -3.176379,1.3098 -1.17176,0.962 -2.123583,3.4005 -1.868525,4.7638 0.131629,0.7009 0.660917,1.5559 1.16779,1.8231 0.943958,0.4936 2.664393,-0.3318 4.250831,-2.0104 1.713737,-1.8189 2.500741,-3.8186 1.915184,-4.9508 -0.359885,-0.6973 -1.254226,-1.0014 -2.288901,-0.9355 z m -8.454847,1.0742 c -1.439467,0 -2.201058,1.0158 -2.195525,2.9464 0.0017,1.3203 0.468201,2.5086 1.07437,2.8012 0.450746,0.2181 0.462013,0.1957 1.027701,0 0.937051,-0.3309 1.817378,-2.5126 1.634909,-3.9726 -0.149201,-1.1932 -0.663356,-1.7755 -1.541455,-1.775 z m -5.698958,1.9622 c -0.269333,0.026 -0.539436,0.2133 -0.794039,0.4657 -0.513282,0.5183 -0.520111,0.7962 -0.513842,1.7745 0.0043,1.157 0.28978,1.7918 1.074381,2.6201 0.586849,0.614 1.010039,0.6539 1.541487,0.063 0.575695,-0.6085 0.754415,-1.5656 0.560513,-2.6148 -0.295734,-1.6004 -1.06042,-2.452 -1.8685,-2.3351 z m -4.017204,3.5018 c -0.279448,0.029 -0.531298,0.2071 -0.794075,0.471 -0.689616,0.686 -0.207295,2.5872 0.887453,3.5442 1.306787,1.1499 2.361969,0.065 1.915263,-1.914 -0.317857,-1.4305 -1.170271,-2.2373 -2.008641,-2.1012 z m 12.005047,2.5242 c -0.925373,-0.013 -1.962389,0.04 -3.036323,0.2775 -2.766475,0.5641 -4.980105,1.609 -6.399561,3.0369 -0.817503,0.826 -1.285189,1.5853 -1.681652,2.7529 -0.959506,2.8404 0.81753,6.8679 4.204092,9.6258 1.261759,1.0245 2.031672,1.4831 3.316582,1.9135 0.666258,0.2206 1.194609,0.2732 2.429036,0.234 1.415114,-0.031 1.702917,-0.076 2.615859,-0.5598 1.337926,-0.6633 2.854396,-2.1834 3.503433,-3.5021 0.395936,-0.805 0.45939,-1.1509 0.420396,-1.824 -0.06679,-1.1514 -0.512199,-1.4587 -1.961876,-1.4497 -2.069613,0.013 -2.938393,0.5033 -3.363288,1.9628 -0.320918,1.1042 -0.675707,1.4968 -1.401338,1.4968 -1.150106,0 -2.335677,-0.9134 -2.335677,-1.8714 0,-0.6592 1.069257,-1.6493 3.737015,-3.4528 3.758043,-2.5451 5.050105,-4.088 4.85807,-5.79 -0.198431,-1.7659 -2.128723,-2.8011 -4.904768,-2.8504 z"
       style="fill:#000000;fill-opacity:1;stroke:none;opacity:0.1" />
    <path
       style="fill:#ffffff;fill-opacity:1;stroke:none"
       d="m 32.32759,1015.371 c -1.034667,0.045 -2.220054,0.5268 -3.176379,1.3098 -1.17176,0.962 -2.123583,3.4005 -1.868525,4.7638 0.131629,0.7009 0.660917,1.5559 1.16779,1.8231 0.943958,0.4936 2.664393,-0.3318 4.250831,-2.0104 1.713737,-1.8189 2.500741,-3.8186 1.915184,-4.9508 -0.359885,-0.6973 -1.254226,-1.0014 -2.288901,-0.9355 z m -8.454847,1.0742 c -1.439467,0 -2.201058,1.0158 -2.195525,2.9464 0.0017,1.3203 0.468201,2.5086 1.07437,2.8012 0.450746,0.2181 0.462013,0.1957 1.027701,0 0.937051,-0.3309 1.817378,-2.5126 1.634909,-3.9726 -0.149201,-1.1932 -0.663356,-1.7755 -1.541455,-1.775 z m -5.698958,1.9622 c -0.269333,0.026 -0.539436,0.2133 -0.794039,0.4657 -0.513282,0.5183 -0.520111,0.7962 -0.513842,1.7745 0.0043,1.157 0.28978,1.7918 1.074381,2.6201 0.586849,0.614 1.010039,0.6539 1.541487,0.063 0.575695,-0.6085 0.754415,-1.5656 0.560513,-2.6148 -0.295734,-1.6004 -1.06042,-2.452 -1.8685,-2.3351 z m -4.017204,3.5018 c -0.279448,0.029 -0.531298,0.2071 -0.794075,0.471 -0.689616,0.686 -0.207295,2.5872 0.887453,3.5442 1.306787,1.1499 2.361969,0.065 1.915263,-1.914 -0.317857,-1.4305 -1.170271,-2.2373 -2.008641,-2.1012 z m 12.005047,2.5242 c -0.925373,-0.013 -1.962389,0.04 -3.036323,0.2775 -2.766475,0.5641 -4.980105,1.609 -6.399561,3.0369 -0.817503,0.826 -1.285189,1.5853 -1.681652,2.7529 -0.959506,2.8404 0.81753,6.8679 4.204092,9.6258 1.261759,1.0245 2.031672,1.4831 3.316582,1.9135 0.666258,0.2206 1.194609,0.2732 2.429036,0.234 1.415114,-0.031 1.702917,-0.076 2.615859,-0.5598 1.337926,-0.6633 2.854396,-2.1834 3.503433,-3.5021 0.395936,-0.805 0.45939,-1.1509 0.420396,-1.824 -0.06679,-1.1514 -0.512199,-1.4587 -1.961876,-1.4497 -2.069613,0.013 -2.938393,0.5033 -3.363288,1.9628 -0.320918,1.1042 -0.675707,1.4968 -1.401338,1.4968 -1.150106,0 -2.335677,-0.9134 -2.335677,-1.8714 0,-0.6592 1.069257,-1.6493 3.737015,-3.4528 3.758043,-2.5451 5.050105,-4.088 4.85807,-5.79 -0.198431,-1.7659 -2.128723,-2.8011 -4.904768,-2.8504 z"
       id="path4909-2"
       inkscape:connector-curvature="0" />
  </g>
</svg>
