<?xml version="1.0" encoding="UTF-8" standalone="no"?>
<!-- Created with Inkscape (http://www.inkscape.org/) -->

<svg
   xmlns:dc="http://purl.org/dc/elements/1.1/"
   xmlns:cc="http://creativecommons.org/ns#"
   xmlns:rdf="http://www.w3.org/1999/02/22-rdf-syntax-ns#"
   xmlns:svg="http://www.w3.org/2000/svg"
   xmlns="http://www.w3.org/2000/svg"
   xmlns:xlink="http://www.w3.org/1999/xlink"
   xmlns:sodipodi="http://sodipodi.sourceforge.net/DTD/sodipodi-0.dtd"
   xmlns:inkscape="http://www.inkscape.org/namespaces/inkscape"
   width="48"
   height="48"
   id="svg2"
   version="1.1"
   inkscape:version="0.48.4 r9939"
   sodipodi:docname="distributor-logo-kubuntu.svg">
  <defs
     id="defs4">
    <linearGradient
       id="linearGradient3778">
      <stop
         style="stop-color:#0299d1;stop-opacity:1;"
         offset="0"
         id="stop3780" />
      <stop
         style="stop-color:#025ed1;stop-opacity:1;"
         offset="1"
         id="stop3782" />
    </linearGradient>
    <linearGradient
       inkscape:collect="always"
       xlink:href="#linearGradient3778"
       id="linearGradient3784"
       x1="24"
       y1="1006.3622"
       x2="24"
       y2="1050.3622"
       gradientUnits="userSpaceOnUse" />
    <clipPath
       id="clipPath-684661523">
      <g
         id="g3034"
         transform="translate(0,-1004.3622)">
        <path
           id="path3036"
           fill="#1890d0"
           transform="matrix(15.333333,0,0,11.5,414.99999,878.8622)"
           d="m -24 13 c 0 1.105 -0.672 2 -1.5 2 -0.828 0 -1.5 -0.895 -1.5 -2 0 -1.105 0.672 -2 1.5 -2 0.828 0 1.5 0.895 1.5 2 z" />
      </g>
    </clipPath>
    <clipPath
       id="clipPath-672417281">
      <g
         id="g3029"
         transform="translate(0,-1004.3622)">
        <path
           id="path3031"
           fill="#1890d0"
           transform="matrix(15.333333,0,0,11.5,414.99999,878.8622)"
           d="m -24 13 c 0 1.105 -0.672 2 -1.5 2 -0.828 0 -1.5 -0.895 -1.5 -2 0 -1.105 0.672 -2 1.5 -2 0.828 0 1.5 0.895 1.5 2 z" />
      </g>
    </clipPath>
    <linearGradient
       gradientTransform="matrix(0,-1,1,0,-1.5e-6,47.999998)"
       gradientUnits="userSpaceOnUse"
       x2="47"
       x1="1"
       id="linearGradient3764">
      <stop
         id="stop3024"
         stop-opacity="1"
         stop-color="#006dac" />
      <stop
         id="stop3026"
         stop-opacity="1"
         stop-color="#0079c1"
         offset="1" />
    </linearGradient>
  </defs>
  <sodipodi:namedview
     id="base"
     pagecolor="#ffffff"
     bordercolor="#666666"
     borderopacity="1.0"
     inkscape:pageopacity="0.0"
     inkscape:pageshadow="2"
     inkscape:zoom="8.1906533"
     inkscape:cx="24.499349"
     inkscape:cy="28.315999"
     inkscape:document-units="px"
     inkscape:current-layer="layer1"
     showgrid="true"
     inkscape:snap-bbox="true"
     inkscape:window-width="1301"
     inkscape:window-height="744"
     inkscape:window-x="65"
     inkscape:window-y="24"
     inkscape:window-maximized="1"
     inkscape:snap-nodes="false">
    <inkscape:grid
       type="xygrid"
       id="grid2985"
       empspacing="6"
       visible="true"
       enabled="true"
       snapvisiblegridlinesonly="true" />
  </sodipodi:namedview>
  <metadata
     id="metadata7">
    <rdf:RDF>
      <cc:Work
         rdf:about="">
        <dc:format>image/svg+xml</dc:format>
        <dc:type
           rdf:resource="http://purl.org/dc/dcmitype/StillImage" />
        <dc:title />
      </cc:Work>
    </rdf:RDF>
  </metadata>
  <g
     inkscape:label="Layer 1"
     inkscape:groupmode="layer"
     id="layer1"
     transform="translate(0,-1004.3622)">
    <path
       id="path3788"
       d="m 24,1051.1116 c -21.2715315,0 -23.66257505,-0.089 -23.9375,-15.4063 0.328125,14.4033 2.9375,14.4063 23.9375,14.4063 21,0 23.609375,0 23.9375,-14.4063 -0.274925,15.3174 -2.665968,15.4063 -23.9375,15.4063 z"
       style="opacity:0.20000000000000001;fill:#ffffff;fill-opacity:1;stroke:none"
       inkscape:connector-curvature="0" />
    <path
       style="opacity:1;fill:url(#linearGradient3784);fill-opacity:1;stroke:none"
       d="m 24,1006.3622 c -6,0 -10.5,10e-5 -13.875,0.3438 -1.6875,0.1719 -3.078125,0.4257 -4.25,0.8125 -1.171875,0.3868 -2.125,0.9062 -2.875,1.5937 -0.75,0.6875 -1.328125,1.5508 -1.75,2.625 -0.421875,1.0742 -0.6875,2.3595 -0.875,3.9063 C 0,1018.7373 0,1022.8622 0,1028.3622 c 0,5.5 0,9.6251 0.375,12.7188 0.1875,1.5469 0.453125,2.832 0.875,3.9062 0.421875,1.0742 1,1.9375 1.75,2.625 0.75,0.6875 1.703125,1.2071 2.875,1.5938 1.171875,0.3868 2.5625,0.6407 4.25,0.8125 3.375,0.3438 7.875,0.3437 13.875,0.3437 6,0 10.5,0 13.875,-0.3437 1.6875,-0.1719 3.078125,-0.4258 4.25,-0.8125 1.171875,-0.3868 2.125,-0.9063 2.875,-1.5938 0.75,-0.6875 1.328125,-1.5508 1.75,-2.625 0.421875,-1.0742 0.6875,-2.3594 0.875,-3.9062 0.375,-3.0938 0.375,-7.2188 0.375,-12.7188 0,-5.5 0,-9.625 -0.375,-12.7187 -0.1875,-1.5469 -0.453125,-2.8321 -0.875,-3.9063 -0.421875,-1.0742 -1,-1.9375 -1.75,-2.625 -0.75,-0.6875 -1.703125,-1.207 -2.875,-1.5937 -1.171875,-0.3868 -2.5625,-0.6407 -4.25,-0.8125 C 34.5,1006.3622 30,1006.3622 24,1006.3622 z"
       id="path3772"
       inkscape:connector-curvature="0" />
    <path
       style="fill:#000000;fill-opacity:1;stroke:none;opacity:0.20000000000000001"
       d="M 24 2 C 2.7284685 2 0.33742495 2.0888436 0.0625 17.40625 C 0.390625 3.0029297 3 3 24 3 C 45 3 47.609375 3.0029297 47.9375 17.40625 C 47.662575 2.0888436 45.271532 2 24 2 z "
       transform="translate(0,1004.3622)"
       id="path3770" />
    <g
       id="g3025"
       transform="translate(-50.998,1000.3622)" />
    <g
       id="g3817"
       transform="translate(-49.998,1002.3622)" />
    <g
       id="g3050"
       transform="translate(-64.998,1003.3622)" />
    <g
       id="g3052"
       transform="translate(0.003,1004.3642)">
      <g
         clip-path="url(#clipPath-672417281)"
         id="g3054">
        <g
           transform="translate(1,1)"
           id="g3056">
          <g
             style="opacity:0.1"
             id="g3058">
            <!-- color: #0079c1 -->
            <g
               id="g3060">
              <path
                 style="fill:#000000;fill-opacity:1;fill-rule:evenodd;stroke:none"
                 inkscape:connector-curvature="0"
                 d="m 23.254,12 c -0.012,0 -0.023,0.004 -0.035,0.008 l -2.168,0.523 c -0.094,0.023 -0.156,0.105 -0.156,0.199 l 0.957,4.391 0.039,0.02 c 0.73,-0.242 1.504,-0.375 2.316,-0.375 3.66,0 6.691,2.68 7.219,6.172 l 4.461,-0.973 c 0.09,-0.043 0.133,-0.137 0.109,-0.23 L 35.469,19.579 C 35.446,19.485 35.364,19.423 35.27,19.423 l -3.543,-0.004 c -0.301,-0.563 -0.672,-1.094 -1.109,-1.578 l 1.164,-3.25 c 0.031,-0.09 -0.004,-0.191 -0.086,-0.238 l -1.91,-1.152 c -0.082,-0.051 -0.18,-0.035 -0.25,0.027 l -2.398,2.383 C 26.427,15.384 25.697,15.259 24.97,15.236 l -1.492,-3.121 c -0.031,-0.063 -0.094,-0.102 -0.16,-0.117 -0.012,0 -0.027,0 -0.035,0 m -0.02,0.012"
                 id="path3062" />
              <path
                 style="fill:#000000;fill-opacity:1;fill-rule:evenodd;stroke:none"
                 inkscape:connector-curvature="0"
                 d="m 16.215,15.18 c -0.047,0.004 -0.09,0.023 -0.125,0.059 l -1.578,1.57 c -0.066,0.066 -0.078,0.172 -0.027,0.25 l 1.852,3.03 c -0.332,0.551 -0.594,1.141 -0.781,1.766 l -3.395,0.703 c -0.094,0.016 -0.164,0.102 -0.164,0.195 l 0,2.223 c 0,0.098 0.066,0.18 0.152,0.199 l 3.297,0.797 c 0.176,0.723 0.449,1.406 0.809,2.039 l -1.906,2.895 c -0.055,0.082 -0.043,0.188 0.027,0.254 l 1.578,1.57 c 0.066,0.066 0.168,0.078 0.25,0.027 l 3.051,-3.355 0,-0.051 c -1.441,-1.324 -2.344,-3.215 -2.344,-5.324 0,-2.336 1.109,-4.406 2.832,-5.738 L 16.348,15.215 C 16.309,15.192 16.262,15.18 16.215,15.184 m 0,0"
                 id="path3064" />
              <path
                 style="fill:#000000;fill-opacity:1;fill-rule:evenodd;stroke:none"
                 inkscape:connector-curvature="0"
                 d="m 31.33,25.59 c -0.719,3.258 -3.633,5.699 -7.113,5.699 -0.926,0 -1.805,-0.172 -2.605,-0.48 l -0.023,0.016 -1.164,4.391 c -0.008,0.094 0.055,0.18 0.152,0.203 l 2.152,0.578 c 0.094,0.023 0.188,-0.016 0.227,-0.094 l 1.711,-3.109 c 0.648,0.008 1.289,-0.059 1.934,-0.207 l 2.305,2.574 c 0.066,0.07 0.176,0.09 0.258,0.039 l 1.934,-1.109 c 0.082,-0.047 0.121,-0.145 0.094,-0.234 l -0.949,-3.238 c 0.543,-0.508 1,-1.086 1.371,-1.711 l 3.469,0.199 c 0.098,0.008 0.188,-0.059 0.211,-0.145 l 0.578,-2.148 c 0.023,-0.09 -0.016,-0.188 -0.098,-0.234 l -4.43,-0.977 M 31.34,25.599"
                 id="path3066" />
            </g>
          </g>
        </g>
      </g>
    </g>
    <g
       id="g3068"
       transform="translate(0.003,1004.3642)">
      <g
         clip-path="url(#clipPath-684661523)"
         id="g3070">
        <!-- color: #0079c1 -->
        <g
           id="g3072">
          <path
             style="fill:#f9f9f9;fill-opacity:1;fill-rule:evenodd;stroke:none"
             inkscape:connector-curvature="0"
             d="m 23.254,12 c -0.012,0 -0.023,0.004 -0.035,0.008 l -2.168,0.523 c -0.094,0.023 -0.156,0.105 -0.156,0.199 l 0.957,4.391 0.039,0.02 c 0.73,-0.242 1.504,-0.375 2.316,-0.375 3.66,0 6.691,2.68 7.219,6.172 l 4.461,-0.973 c 0.09,-0.043 0.133,-0.137 0.109,-0.23 L 35.469,19.579 C 35.446,19.485 35.364,19.423 35.27,19.423 l -3.543,-0.004 c -0.301,-0.563 -0.672,-1.094 -1.109,-1.578 l 1.164,-3.25 c 0.031,-0.09 -0.004,-0.191 -0.086,-0.238 l -1.91,-1.152 c -0.082,-0.051 -0.18,-0.035 -0.25,0.027 l -2.398,2.383 C 26.427,15.384 25.697,15.259 24.97,15.236 l -1.492,-3.121 c -0.031,-0.063 -0.094,-0.102 -0.16,-0.117 -0.012,0 -0.027,0 -0.035,0 m -0.02,0.012"
             id="path3074" />
          <path
             style="fill:#f9f9f9;fill-opacity:1;fill-rule:evenodd;stroke:none"
             inkscape:connector-curvature="0"
             d="m 16.215,15.18 c -0.047,0.004 -0.09,0.023 -0.125,0.059 l -1.578,1.57 c -0.066,0.066 -0.078,0.172 -0.027,0.25 l 1.852,3.03 c -0.332,0.551 -0.594,1.141 -0.781,1.766 l -3.395,0.703 c -0.094,0.016 -0.164,0.102 -0.164,0.195 l 0,2.223 c 0,0.098 0.066,0.18 0.152,0.199 l 3.297,0.797 c 0.176,0.723 0.449,1.406 0.809,2.039 l -1.906,2.895 c -0.055,0.082 -0.043,0.188 0.027,0.254 l 1.578,1.57 c 0.066,0.066 0.168,0.078 0.25,0.027 l 3.051,-3.355 0,-0.051 c -1.441,-1.324 -2.344,-3.215 -2.344,-5.324 0,-2.336 1.109,-4.406 2.832,-5.738 L 16.348,15.215 C 16.309,15.192 16.262,15.18 16.215,15.184 m 0,0"
             id="path3076" />
          <path
             style="fill:#f9f9f9;fill-opacity:1;fill-rule:evenodd;stroke:none"
             inkscape:connector-curvature="0"
             d="m 31.33,25.59 c -0.719,3.258 -3.633,5.699 -7.113,5.699 -0.926,0 -1.805,-0.172 -2.605,-0.48 l -0.023,0.016 -1.164,4.391 c -0.008,0.094 0.055,0.18 0.152,0.203 l 2.152,0.578 c 0.094,0.023 0.188,-0.016 0.227,-0.094 l 1.711,-3.109 c 0.648,0.008 1.289,-0.059 1.934,-0.207 l 2.305,2.574 c 0.066,0.07 0.176,0.09 0.258,0.039 l 1.934,-1.109 c 0.082,-0.047 0.121,-0.145 0.094,-0.234 l -0.949,-3.238 c 0.543,-0.508 1,-1.086 1.371,-1.711 l 3.469,0.199 c 0.098,0.008 0.188,-0.059 0.211,-0.145 l 0.578,-2.148 c 0.023,-0.09 -0.016,-0.188 -0.098,-0.234 l -4.43,-0.977 M 31.34,25.599"
             id="path3078" />
        </g>
      </g>
    </g>
  </g>
</svg>
