<?xml version="1.0" encoding="UTF-8" standalone="no"?>
<!-- Created with Inkscape (http://www.inkscape.org/) -->

<svg
   xmlns:dc="http://purl.org/dc/elements/1.1/"
   xmlns:cc="http://creativecommons.org/ns#"
   xmlns:rdf="http://www.w3.org/1999/02/22-rdf-syntax-ns#"
   xmlns:svg="http://www.w3.org/2000/svg"
   xmlns="http://www.w3.org/2000/svg"
   xmlns:xlink="http://www.w3.org/1999/xlink"
   xmlns:sodipodi="http://sodipodi.sourceforge.net/DTD/sodipodi-0.dtd"
   xmlns:inkscape="http://www.inkscape.org/namespaces/inkscape"
   width="48"
   height="48"
   id="svg2"
   version="1.1"
   inkscape:version="0.48.4 r9939"
   sodipodi:docname="folder-css.svg">
  <defs
     id="defs4">
    <linearGradient
       id="linearGradient3768">
      <stop
         style="stop-color:#ffb74d;stop-opacity:1;"
         offset="0"
         id="stop3770" />
      <stop
         style="stop-color:#ffbf61;stop-opacity:1;"
         offset="1"
         id="stop3772" />
    </linearGradient>
    <linearGradient
       id="linearGradient3819">
      <stop
         style="stop-color:#000000;stop-opacity:1;"
         offset="0"
         id="stop3821" />
      <stop
         style="stop-color:#ffffff;stop-opacity:1;"
         offset="1"
         id="stop3823" />
    </linearGradient>
    <linearGradient
       inkscape:collect="always"
       xlink:href="#linearGradient3819"
       id="linearGradient3825"
       x1="24"
       y1="1028.3622"
       x2="46"
       y2="1006.3622"
       gradientUnits="userSpaceOnUse"
       spreadMethod="repeat" />
    <linearGradient
       inkscape:collect="always"
       xlink:href="#linearGradient3819"
       id="linearGradient3829"
       gradientUnits="userSpaceOnUse"
       spreadMethod="repeat"
       x1="45"
       y1="1049.3622"
       x2="12"
       y2="1016.3622" />
    <linearGradient
       inkscape:collect="always"
       xlink:href="#linearGradient3768"
       id="linearGradient3774"
       x1="24"
       y1="1050.3622"
       x2="24"
       y2="1006.3622"
       gradientUnits="userSpaceOnUse" />
  </defs>
  <sodipodi:namedview
     id="base"
     pagecolor="#ffffff"
     bordercolor="#666666"
     borderopacity="1.0"
     inkscape:pageopacity="0.0"
     inkscape:pageshadow="2"
     inkscape:zoom="8.1906535"
     inkscape:cx="-16.057303"
     inkscape:cy="27.819742"
     inkscape:document-units="px"
     inkscape:current-layer="layer1"
     showgrid="true"
     inkscape:snap-bbox="true"
     inkscape:window-width="1301"
     inkscape:window-height="744"
     inkscape:window-x="65"
     inkscape:window-y="24"
     inkscape:window-maximized="1"
     inkscape:object-nodes="false"
     inkscape:snap-nodes="true"
     showguides="true"
     inkscape:guide-bbox="true">
    <inkscape:grid
       type="xygrid"
       id="grid3005"
       empspacing="6"
       visible="true"
       enabled="true"
       snapvisiblegridlinesonly="true" />
  </sodipodi:namedview>
  <metadata
     id="metadata7">
    <rdf:RDF>
      <cc:Work
         rdf:about="">
        <dc:format>image/svg+xml</dc:format>
        <dc:type
           rdf:resource="http://purl.org/dc/dcmitype/StillImage" />
        <dc:title />
      </cc:Work>
    </rdf:RDF>
  </metadata>
  <g
     inkscape:label="Layer 1"
     inkscape:groupmode="layer"
     id="layer1"
     transform="translate(0,-1004.3622)">
    <path
       style="fill:#a05f00;fill-opacity:1;stroke:none"
       d="m 24,1008.3622 c -24,0 -24,0 -24,20 l 48,0 c 0,-20 0,-20 -24,-20 z"
       id="path3797"
       inkscape:connector-curvature="0" />
    <path
       id="path3788"
       d="m 24,1051.1116 c -21.2715315,0 -23.66257505,-0.089 -23.9375,-15.4063 0.328125,14.4033 2.9375,14.4063 23.9375,14.4063 21,0 23.609375,0 23.9375,-14.4063 -0.274925,15.3174 -2.665968,15.4063 -23.9375,15.4063 z"
       style="opacity:0.20000000000000001;fill:#ffffff;fill-opacity:1;stroke:none"
       inkscape:connector-curvature="0" />
    <rect
       style="fill:#ffffff;fill-opacity:1;stroke:none"
       id="rect3804"
       width="26"
       height="6.9999828"
       x="18"
       y="1010.3622" />
    <path
       style="fill:#ffffff;fill-opacity:1;stroke:none;opacity:0.3"
       d="M 24 4 C 2.5308478 4 0.30123961 4.120865 0.0625 18.4375 C 0.390625 5.0390625 3 5.03125 24 5.03125 C 45 5.03125 47.609375 5.0390625 47.9375 18.4375 C 47.69876 4.120865 45.469152 4 24 4 z "
       transform="translate(0,1004.3622)"
       id="path3000" />
    <path
       style="fill:url(#linearGradient3774);fill-opacity:1;stroke:none"
       d="M 18.069225,1006.3784 C 0,1006.5415 0,1008.3483 0,1028.3622 c 0,22 0,22 24,22 24,0 24,0 24,-22 0,-16 0,-16 -24,-16 -4,0 -2,-6 -5.930775,-5.9838 z"
       id="path3757"
       inkscape:connector-curvature="0"
       sodipodi:nodetypes="cccccc" />
    <path
       sodipodi:nodetypes="cccccc"
       inkscape:connector-curvature="0"
       id="path3817"
       d="M 18.069225,1006.3784 C 0,1006.5415 0,1008.3483 0,1028.3622 c 0,22 0,22 24,22 24,0 24,0 24,-22 0,-16 0,-16 -24,-16 -4,0 -2,-6 -5.930775,-5.9838 z"
       style="opacity:0.02999998;fill:url(#linearGradient3825);fill-opacity:1;stroke:none" />
    <path
       style="opacity:0.02999998;fill:url(#linearGradient3829);fill-opacity:1;stroke:none"
       d="M 18.069225,1006.3784 C 0,1006.5415 0,1008.3483 0,1028.3622 c 0,22 0,22 24,22 24,0 24,0 24,-22 0,-16 0,-16 -24,-16 -4,0 -2,-6 -5.930775,-5.9838 z"
       id="path3827"
       inkscape:connector-curvature="0"
       sodipodi:nodetypes="cccccc" />
    <path
       style="fill:#ffffff;fill-opacity:1;stroke:none;opacity:0.4"
       d="M 18.0625 2.03125 C 1.9247472 2.1769158 0.21564151 3.7140172 0.03125 18.28125 C 0.27829019 4.5254379 2.2519281 3.1427125 18.0625 3 C 21.993275 2.9838 20 8.96875 24 8.96875 C 45 8.96875 47.609375 8.96875 47.9375 19.6875 C 47.712965 8.1039598 45.550219 8 24 8 C 20 8 21.993275 2.01505 18.0625 2.03125 z "
       transform="translate(0,1004.3622)"
       id="path3808" />
    <path
       style="fill:#000000;fill-opacity:1;stroke:none;opacity:0.1"
       d="M 29.5 15 C 28.671573 15 28 15.671573 28 16.5 C 28 17.18 28.442198 17.753531 29.0625 17.9375 C 29.022344 17.802106 29 17.648422 29 17.5 C 29 16.6716 29.671573 16 30.5 16 C 30.648427 16 30.802104 16.022343 30.9375 16.0625 C 30.753531 15.442198 30.18 15 29.5 15 z M 31.84375 15.25 C 31.952689 15.480091 31.999975 15.725975 32 15.96875 L 32 17.5 L 32 26.71875 L 18.5625 40.15625 C 17.855394 40.86335 16.457107 40.86335 15.75 40.15625 L 16.75 41.15625 C 17.457107 41.86335 18.855394 41.86335 19.5625 41.15625 L 33 27.71875 L 33 16.96875 C 32.999929 16.286838 32.495106 15.603478 31.84375 15.25 z "
       transform="translate(0,1004.3622)"
       id="path3818" />
    <path
       style="opacity:1;fill:#ff5722;fill-opacity:1;stroke:none"
       d="M 19.28125 14 L 5.84375 27.4375 C 5.1366432 28.1446 5.1366432 29.5429 5.84375 30.25 L 15.75 40.15625 C 16.457107 40.86335 17.855394 40.86335 18.5625 40.15625 L 32 26.71875 L 32 15.96875 C 31.999899 14.99765 31.011894 14 29.96875 14 L 19.28125 14 z M 29.5 15 C 30.328427 15 31 15.671573 31 16.5 C 31 17.328427 30.328427 18 29.5 18 C 28.671573 18 28 17.328427 28 16.5 C 28 15.671573 28.671573 15 29.5 15 z "
       transform="translate(0,1004.3622)"
       id="rect3806" />
    <path
       style="fill:none;stroke:#343434;stroke-width:2;stroke-linecap:round;stroke-linejoin:miter;stroke-miterlimit:4;stroke-opacity:1;stroke-dasharray:none"
       d="m 30,16 c 3,-3 -2,-6 0,-9"
       id="path3812"
       inkscape:connector-curvature="0"
       transform="translate(0,1004.3622)"
       sodipodi:nodetypes="cc" />
    <path
       inkscape:connector-curvature="0"
       id="path3778"
       d="m 15.003603,1033.5822 c -0.650512,0.6506 -0.986043,1.3601 -1.000944,2.1249 -0.01489,0.7597 0.300233,1.4592 0.948263,2.1072 0.561133,0.5611 1.196533,0.8328 1.914086,0.8253 0.717551,-0.01 1.380805,-0.292 1.966767,-0.878 0.501539,-0.5015 0.818969,-0.9676 0.930702,-1.3872 l -0.948263,-0.9483 c -0.09683,0.4643 -0.304076,0.8309 -0.597054,1.1238 -0.330225,0.3303 -0.691306,0.5118 -1.071186,0.5093 -0.382363,-0.01 -0.733513,-0.1715 -1.071185,-0.5093 -0.347603,-0.3476 -0.526812,-0.7315 -0.526813,-1.1238 10e-7,-0.3973 0.171581,-0.7687 0.509253,-1.1063 0.302911,-0.303 0.676767,-0.4823 1.106306,-0.5444 l -1.000944,-1.0009 c -0.320291,0.082 -0.709585,0.3583 -1.158988,0.8077 z m 3.160876,-3.1608 c -0.216008,0.216 -0.390432,0.4365 -0.544373,0.6848 -0.153936,0.2433 -0.27654,0.4994 -0.333648,0.7551 -0.05711,0.2508 -0.04202,0.5069 0.01756,0.7551 0.06207,0.2458 0.190364,0.4714 0.403889,0.6849 0.156425,0.1564 0.320195,0.2591 0.474131,0.3336 0.156424,0.072 0.310264,0.113 0.474132,0.1229 0.166355,0.01 0.363124,-0.01 0.544373,-0.052 0.181251,-0.053 0.353371,-0.1163 0.561933,-0.2108 0.131593,-0.057 0.272297,-0.1211 0.40389,-0.1931 0.131592,-0.072 0.247107,-0.146 0.368769,-0.1932 0.124143,-0.049 0.246926,-0.065 0.351208,-0.07 0.10428,-0.01 0.188919,0.014 0.263406,0.088 0.116694,0.1168 0.134795,0.2778 0.07024,0.4566 -0.06207,0.1763 -0.195328,0.3709 -0.403889,0.5795 -0.17132,0.1713 -0.381404,0.32 -0.632175,0.4566 -0.248288,0.1341 -0.53254,0.2391 -0.8429,0.316 l 0.965823,0.9658 c 0.486643,-0.2284 0.950104,-0.5637 1.369713,-0.9833 0.228423,-0.2284 0.415621,-0.4617 0.579493,-0.72 0.168834,-0.2582 0.271575,-0.5295 0.333648,-0.7902 0.06207,-0.2656 0.07963,-0.5345 0.01756,-0.7902 -0.06207,-0.2608 -0.21307,-0.4941 -0.43901,-0.72 -0.16139,-0.1614 -0.325341,-0.2842 -0.491692,-0.3512 -0.163872,-0.069 -0.330486,-0.093 -0.509252,-0.088 -0.176286,0 -0.353192,0.025 -0.544374,0.088 -0.191181,0.062 -0.403569,0.1616 -0.614614,0.2634 -0.116695,0.057 -0.234513,0.1135 -0.351208,0.1756 -0.116694,0.057 -0.226883,0.086 -0.333648,0.1229 -0.109246,0.035 -0.204176,0.057 -0.298528,0.053 -0.09435,-0.01 -0.176322,-0.036 -0.245845,-0.1054 -0.05214,-0.052 -0.07787,-0.1236 -0.0878,-0.1932 -0.01241,-0.072 -0.0098,-0.1513 0.01756,-0.2282 0.02483,-0.079 0.0683,-0.1489 0.122923,-0.2283 0.05463,-0.084 0.116196,-0.1513 0.193164,-0.2283 0.163872,-0.1639 0.348407,-0.3325 0.561933,-0.4566 0.213528,-0.1291 0.431423,-0.2189 0.667297,-0.2809 l -0.895582,-0.8956 c -0.218492,0.1192 -0.433544,0.2373 -0.632175,0.3863 -0.201112,0.1465 -0.393095,0.3228 -0.561934,0.4917 z m 3.35404,-3.3541 c -0.216008,0.216 -0.390432,0.4366 -0.544373,0.6849 -0.153937,0.2433 -0.27654,0.4994 -0.333649,0.7551 -0.05711,0.2507 -0.04202,0.5068 0.01756,0.755 0.06207,0.2459 0.190364,0.4714 0.40389,0.6849 0.156423,0.1565 0.320194,0.2592 0.474131,0.3337 0.156423,0.072 0.310263,0.113 0.474131,0.1229 0.166355,0.01 0.345564,0.012 0.526813,-0.035 0.18125,-0.053 0.370932,-0.134 0.579494,-0.2283 0.131592,-0.057 0.272297,-0.1212 0.403889,-0.1932 0.131593,-0.072 0.247107,-0.146 0.368769,-0.1931 0.124143,-0.049 0.246927,-0.065 0.351208,-0.07 0.10428,-0.01 0.188918,0.014 0.263407,0.088 0.116693,0.1167 0.134795,0.2778 0.07024,0.4566 -0.06207,0.1763 -0.195329,0.371 -0.40389,0.5795 -0.171319,0.1713 -0.381404,0.32 -0.632175,0.4565 -0.248288,0.1341 -0.53254,0.2392 -0.8429,0.3162 l 0.965823,0.9658 c 0.486644,-0.2284 0.950105,-0.5638 1.369712,-0.9834 0.228424,-0.2285 0.415622,-0.4618 0.579494,-0.72 0.168835,-0.2582 0.271574,-0.5295 0.333649,-0.7902 0.06207,-0.2657 0.07963,-0.5345 0.01756,-0.7903 -0.06207,-0.2606 -0.213071,-0.494 -0.43901,-0.7199 -0.16139,-0.1614 -0.325341,-0.2842 -0.491692,-0.3512 -0.163872,-0.07 -0.330486,-0.093 -0.509252,-0.088 -0.176286,0 -0.370752,0.043 -0.561934,0.1054 -0.191181,0.062 -0.386009,0.1441 -0.597054,0.2459 -0.116695,0.057 -0.234512,0.1135 -0.351208,0.1756 -0.116695,0.057 -0.226884,0.086 -0.333648,0.1229 -0.109246,0.035 -0.204176,0.058 -0.298527,0.052 -0.09435,-0.01 -0.176324,-0.036 -0.245846,-0.1053 -0.05214,-0.053 -0.09543,-0.1061 -0.105363,-0.1756 -0.01241,-0.072 -0.0098,-0.1513 0.01756,-0.2283 0.02483,-0.08 0.08586,-0.1664 0.140483,-0.2459 0.05463,-0.084 0.116197,-0.1513 0.193165,-0.2282 0.163872,-0.1639 0.330846,-0.3149 0.544373,-0.439 0.213528,-0.1292 0.448982,-0.2365 0.684856,-0.2986 l -0.895581,-0.8955 c -0.218492,0.1191 -0.433543,0.2373 -0.632175,0.3863 -0.201111,0.1464 -0.393096,0.3229 -0.561933,0.4917 z m -7.182212,12.7313 c -0.198629,0.1986 -0.313784,0.4015 -0.333648,0.6498 -0.01738,0.2458 0.04952,0.4709 0.228286,0.6497 0.173801,0.1738 0.401447,0.2733 0.649736,0.2634 0.248287,-0.01 0.47363,-0.1224 0.667295,-0.3161 0.208561,-0.2085 0.31875,-0.4415 0.333648,-0.6848 0.01489,-0.2483 -0.08216,-0.4685 -0.263406,-0.6498 -0.176286,-0.1762 -0.371293,-0.2432 -0.614615,-0.2282 -0.243322,0.01 -0.466182,0.1149 -0.667296,0.316 z"
       style="font-size:13.57351494000000081px;font-style:normal;font-weight:normal;text-align:center;line-height:100%;letter-spacing:0px;word-spacing:0px;text-anchor:middle;fill:#000000;fill-opacity:1;stroke:none;font-family:Sans;opacity:0.1" />
    <path
       style="font-size:13.57351494px;font-style:normal;font-weight:normal;text-align:center;line-height:100%;letter-spacing:0px;word-spacing:0px;text-anchor:middle;fill:#ffffff;fill-opacity:1;stroke:none;font-family:Sans"
       d="m 14.003603,1032.5822 c -0.650512,0.6506 -0.986043,1.3601 -1.000944,2.1249 -0.01489,0.7597 0.300233,1.4592 0.948263,2.1072 0.561133,0.5611 1.196533,0.8328 1.914086,0.8253 0.717551,-0.01 1.380805,-0.292 1.966767,-0.878 0.501539,-0.5015 0.818969,-0.9676 0.930702,-1.3872 l -0.948263,-0.9483 c -0.09683,0.4643 -0.304076,0.8309 -0.597054,1.1238 -0.330225,0.3303 -0.691306,0.5118 -1.071186,0.5093 -0.382363,-0.01 -0.733513,-0.1715 -1.071185,-0.5093 -0.347603,-0.3476 -0.526812,-0.7315 -0.526813,-1.1238 10e-7,-0.3973 0.171581,-0.7687 0.509253,-1.1063 0.302911,-0.303 0.676767,-0.4823 1.106306,-0.5444 l -1.000944,-1.0009 c -0.320291,0.082 -0.709585,0.3583 -1.158988,0.8077 z m 3.160876,-3.1608 c -0.216008,0.216 -0.390432,0.4365 -0.544373,0.6848 -0.153936,0.2433 -0.27654,0.4994 -0.333648,0.7551 -0.05711,0.2508 -0.04202,0.5069 0.01756,0.7551 0.06207,0.2458 0.190364,0.4714 0.403889,0.6849 0.156425,0.1564 0.320195,0.2591 0.474131,0.3336 0.156424,0.072 0.310264,0.113 0.474132,0.1229 0.166355,0.01 0.363124,-0.01 0.544373,-0.052 0.181251,-0.053 0.353371,-0.1163 0.561933,-0.2108 0.131593,-0.057 0.272297,-0.1211 0.40389,-0.1931 0.131592,-0.072 0.247107,-0.146 0.368769,-0.1932 0.124143,-0.049 0.246926,-0.065 0.351208,-0.07 0.10428,-0.01 0.188919,0.014 0.263406,0.088 0.116694,0.1168 0.134795,0.2778 0.07024,0.4566 -0.06207,0.1763 -0.195328,0.3709 -0.403889,0.5795 -0.17132,0.1713 -0.381404,0.32 -0.632175,0.4566 -0.248288,0.1341 -0.53254,0.2391 -0.8429,0.316 l 0.965823,0.9658 c 0.486643,-0.2284 0.950104,-0.5637 1.369713,-0.9833 0.228423,-0.2284 0.415621,-0.4617 0.579493,-0.72 0.168834,-0.2582 0.271575,-0.5295 0.333648,-0.7902 0.06207,-0.2656 0.07963,-0.5345 0.01756,-0.7902 -0.06207,-0.2608 -0.21307,-0.4941 -0.43901,-0.72 -0.16139,-0.1614 -0.325341,-0.2842 -0.491692,-0.3512 -0.163872,-0.069 -0.330486,-0.093 -0.509252,-0.088 -0.176286,0 -0.353192,0.025 -0.544374,0.088 -0.191181,0.062 -0.403569,0.1616 -0.614614,0.2634 -0.116695,0.057 -0.234513,0.1135 -0.351208,0.1756 -0.116694,0.057 -0.226883,0.086 -0.333648,0.1229 -0.109246,0.035 -0.204176,0.057 -0.298528,0.053 -0.09435,-0.01 -0.176322,-0.036 -0.245845,-0.1054 -0.05214,-0.052 -0.07787,-0.1236 -0.0878,-0.1932 -0.01241,-0.072 -0.0098,-0.1513 0.01756,-0.2282 0.02483,-0.079 0.0683,-0.1489 0.122923,-0.2283 0.05463,-0.084 0.116196,-0.1513 0.193164,-0.2283 0.163872,-0.1639 0.348407,-0.3325 0.561933,-0.4566 0.213528,-0.1291 0.431423,-0.2189 0.667297,-0.2809 l -0.895582,-0.8956 c -0.218492,0.1192 -0.433544,0.2373 -0.632175,0.3863 -0.201112,0.1465 -0.393095,0.3228 -0.561934,0.4917 z m 3.35404,-3.3541 c -0.216008,0.216 -0.390432,0.4366 -0.544373,0.6849 -0.153937,0.2433 -0.27654,0.4994 -0.333649,0.7551 -0.05711,0.2507 -0.04202,0.5068 0.01756,0.755 0.06207,0.2459 0.190364,0.4714 0.40389,0.6849 0.156423,0.1565 0.320194,0.2592 0.474131,0.3337 0.156423,0.072 0.310263,0.113 0.474131,0.1229 0.166355,0.01 0.345564,0.012 0.526813,-0.035 0.18125,-0.053 0.370932,-0.134 0.579494,-0.2283 0.131592,-0.057 0.272297,-0.1212 0.403889,-0.1932 0.131593,-0.072 0.247107,-0.146 0.368769,-0.1931 0.124143,-0.049 0.246927,-0.065 0.351208,-0.07 0.10428,-0.01 0.188918,0.014 0.263407,0.088 0.116693,0.1167 0.134795,0.2778 0.07024,0.4566 -0.06207,0.1763 -0.195329,0.371 -0.40389,0.5795 -0.171319,0.1713 -0.381404,0.32 -0.632175,0.4565 -0.248288,0.1341 -0.53254,0.2392 -0.8429,0.3162 l 0.965823,0.9658 c 0.486644,-0.2284 0.950105,-0.5638 1.369712,-0.9834 0.228424,-0.2285 0.415622,-0.4618 0.579494,-0.72 0.168835,-0.2582 0.271574,-0.5295 0.333649,-0.7902 0.06207,-0.2657 0.07963,-0.5345 0.01756,-0.7903 -0.06207,-0.2606 -0.213071,-0.494 -0.43901,-0.7199 -0.16139,-0.1614 -0.325341,-0.2842 -0.491692,-0.3512 -0.163872,-0.07 -0.330486,-0.093 -0.509252,-0.088 -0.176286,0 -0.370752,0.043 -0.561934,0.1054 -0.191181,0.062 -0.386009,0.1441 -0.597054,0.2459 -0.116695,0.057 -0.234512,0.1135 -0.351208,0.1756 -0.116695,0.057 -0.226884,0.086 -0.333648,0.1229 -0.109246,0.035 -0.204176,0.058 -0.298527,0.052 -0.09435,-0.01 -0.176324,-0.036 -0.245846,-0.1053 -0.05214,-0.053 -0.09543,-0.1061 -0.105363,-0.1756 -0.01241,-0.072 -0.0098,-0.1513 0.01756,-0.2283 0.02483,-0.08 0.08586,-0.1664 0.140483,-0.2459 0.05463,-0.084 0.116197,-0.1513 0.193165,-0.2282 0.163872,-0.1639 0.330846,-0.3149 0.544373,-0.439 0.213528,-0.1292 0.448982,-0.2365 0.684856,-0.2986 l -0.895581,-0.8955 c -0.218492,0.1191 -0.433543,0.2373 -0.632175,0.3863 -0.201111,0.1464 -0.393096,0.3229 -0.561933,0.4917 z m -7.182212,12.7313 c -0.198629,0.1986 -0.313784,0.4015 -0.333648,0.6498 -0.01738,0.2458 0.04952,0.4709 0.228286,0.6497 0.173801,0.1738 0.401447,0.2733 0.649736,0.2634 0.248287,-0.01 0.47363,-0.1224 0.667295,-0.3161 0.208561,-0.2085 0.31875,-0.4415 0.333648,-0.6848 0.01489,-0.2483 -0.08216,-0.4685 -0.263406,-0.6498 -0.176286,-0.1762 -0.371293,-0.2432 -0.614615,-0.2282 -0.243322,0.01 -0.466182,0.1149 -0.667296,0.316 z"
       id="text3005"
       inkscape:connector-curvature="0" />
  </g>
</svg>
