<?xml version="1.0" encoding="UTF-8" standalone="no"?>
<!-- Created with Inkscape (http://www.inkscape.org/) -->

<svg
   xmlns:dc="http://purl.org/dc/elements/1.1/"
   xmlns:cc="http://creativecommons.org/ns#"
   xmlns:rdf="http://www.w3.org/1999/02/22-rdf-syntax-ns#"
   xmlns:svg="http://www.w3.org/2000/svg"
   xmlns="http://www.w3.org/2000/svg"
   xmlns:xlink="http://www.w3.org/1999/xlink"
   xmlns:sodipodi="http://sodipodi.sourceforge.net/DTD/sodipodi-0.dtd"
   xmlns:inkscape="http://www.inkscape.org/namespaces/inkscape"
   width="48"
   height="48"
   id="svg2"
   version="1.1"
   inkscape:version="0.48.4 r9939"
   sodipodi:docname="folder-byte.svg">
  <defs
     id="defs4">
    <linearGradient
       id="linearGradient3768">
      <stop
         style="stop-color:#ffb74d;stop-opacity:1;"
         offset="0"
         id="stop3770" />
      <stop
         style="stop-color:#ffbf61;stop-opacity:1;"
         offset="1"
         id="stop3772" />
    </linearGradient>
    <linearGradient
       id="linearGradient3819">
      <stop
         style="stop-color:#000000;stop-opacity:1;"
         offset="0"
         id="stop3821" />
      <stop
         style="stop-color:#ffffff;stop-opacity:1;"
         offset="1"
         id="stop3823" />
    </linearGradient>
    <linearGradient
       inkscape:collect="always"
       xlink:href="#linearGradient3819"
       id="linearGradient3825"
       x1="24"
       y1="1028.3622"
       x2="46"
       y2="1006.3622"
       gradientUnits="userSpaceOnUse"
       spreadMethod="repeat" />
    <linearGradient
       inkscape:collect="always"
       xlink:href="#linearGradient3819"
       id="linearGradient3829"
       gradientUnits="userSpaceOnUse"
       spreadMethod="repeat"
       x1="45"
       y1="1049.3622"
       x2="12"
       y2="1016.3622" />
    <linearGradient
       inkscape:collect="always"
       xlink:href="#linearGradient3768"
       id="linearGradient3774"
       x1="24"
       y1="1050.3622"
       x2="24"
       y2="1006.3622"
       gradientUnits="userSpaceOnUse" />
  </defs>
  <sodipodi:namedview
     id="base"
     pagecolor="#ffffff"
     bordercolor="#666666"
     borderopacity="1.0"
     inkscape:pageopacity="0.0"
     inkscape:pageshadow="2"
     inkscape:zoom="16.381307"
     inkscape:cx="10.897364"
     inkscape:cy="25.263171"
     inkscape:document-units="px"
     inkscape:current-layer="layer1"
     showgrid="true"
     inkscape:snap-bbox="true"
     inkscape:window-width="1301"
     inkscape:window-height="744"
     inkscape:window-x="65"
     inkscape:window-y="24"
     inkscape:window-maximized="1"
     inkscape:object-nodes="false"
     inkscape:snap-nodes="false"
     showguides="true"
     inkscape:guide-bbox="true">
    <inkscape:grid
       type="xygrid"
       id="grid3005"
       empspacing="6"
       visible="true"
       enabled="true"
       snapvisiblegridlinesonly="true" />
  </sodipodi:namedview>
  <metadata
     id="metadata7">
    <rdf:RDF>
      <cc:Work
         rdf:about="">
        <dc:format>image/svg+xml</dc:format>
        <dc:type
           rdf:resource="http://purl.org/dc/dcmitype/StillImage" />
        <dc:title />
      </cc:Work>
    </rdf:RDF>
  </metadata>
  <g
     inkscape:label="Layer 1"
     inkscape:groupmode="layer"
     id="layer1"
     transform="translate(0,-1004.3622)">
    <path
       style="fill:#a05f00;fill-opacity:1;stroke:none"
       d="m 24,1008.3622 c -24,0 -24,0 -24,20 l 48,0 c 0,-20 0,-20 -24,-20 z"
       id="path3797"
       inkscape:connector-curvature="0" />
    <path
       id="path3788"
       d="m 24,1051.1116 c -21.2715315,0 -23.66257505,-0.089 -23.9375,-15.4063 0.328125,14.4033 2.9375,14.4063 23.9375,14.4063 21,0 23.609375,0 23.9375,-14.4063 -0.274925,15.3174 -2.665968,15.4063 -23.9375,15.4063 z"
       style="opacity:0.20000000000000001;fill:#ffffff;fill-opacity:1;stroke:none"
       inkscape:connector-curvature="0" />
    <rect
       style="fill:#ffffff;fill-opacity:1;stroke:none"
       id="rect3804"
       width="26"
       height="6.9999828"
       x="18"
       y="1010.3622" />
    <path
       style="fill:#ffffff;fill-opacity:1;stroke:none;opacity:0.3"
       d="M 24 4 C 2.5308478 4 0.30123961 4.120865 0.0625 18.4375 C 0.390625 5.0390625 3 5.03125 24 5.03125 C 45 5.03125 47.609375 5.0390625 47.9375 18.4375 C 47.69876 4.120865 45.469152 4 24 4 z "
       transform="translate(0,1004.3622)"
       id="path3000" />
    <path
       style="fill:url(#linearGradient3774);fill-opacity:1;stroke:none"
       d="M 18.069225,1006.3784 C 0,1006.5415 0,1008.3483 0,1028.3622 c 0,22 0,22 24,22 24,0 24,0 24,-22 0,-16 0,-16 -24,-16 -4,0 -2,-6 -5.930775,-5.9838 z"
       id="path3757"
       inkscape:connector-curvature="0"
       sodipodi:nodetypes="cccccc" />
    <path
       sodipodi:nodetypes="cccccc"
       inkscape:connector-curvature="0"
       id="path3817"
       d="M 18.069225,1006.3784 C 0,1006.5415 0,1008.3483 0,1028.3622 c 0,22 0,22 24,22 24,0 24,0 24,-22 0,-16 0,-16 -24,-16 -4,0 -2,-6 -5.930775,-5.9838 z"
       style="opacity:0.02999998;fill:url(#linearGradient3825);fill-opacity:1;stroke:none" />
    <path
       style="opacity:0.02999998;fill:url(#linearGradient3829);fill-opacity:1;stroke:none"
       d="M 18.069225,1006.3784 C 0,1006.5415 0,1008.3483 0,1028.3622 c 0,22 0,22 24,22 24,0 24,0 24,-22 0,-16 0,-16 -24,-16 -4,0 -2,-6 -5.930775,-5.9838 z"
       id="path3827"
       inkscape:connector-curvature="0"
       sodipodi:nodetypes="cccccc" />
    <path
       style="fill:#ffffff;fill-opacity:1;stroke:none;opacity:0.4"
       d="M 18.0625 2.03125 C 1.9247472 2.1769158 0.21564151 3.7140172 0.03125 18.28125 C 0.27829019 4.5254379 2.2519281 3.1427125 18.0625 3 C 21.993275 2.9838 20 8.96875 24 8.96875 C 45 8.96875 47.609375 8.96875 47.9375 19.6875 C 47.712965 8.1039598 45.550219 8 24 8 C 20 8 21.993275 2.01505 18.0625 2.03125 z "
       transform="translate(0,1004.3622)"
       id="path3808" />
    <path
       style="fill:#000000;fill-opacity:1;stroke:none;opacity:0.1"
       d="M 29.5 15 C 28.671573 15 28 15.671573 28 16.5 C 28 17.18 28.442198 17.753531 29.0625 17.9375 C 29.022344 17.802106 29 17.648422 29 17.5 C 29 16.6716 29.671573 16 30.5 16 C 30.648427 16 30.802104 16.022343 30.9375 16.0625 C 30.753531 15.442198 30.18 15 29.5 15 z M 31.84375 15.25 C 31.952689 15.480091 31.999975 15.725975 32 15.96875 L 32 17.5 L 32 26.71875 L 18.5625 40.15625 C 17.855394 40.86335 16.457107 40.86335 15.75 40.15625 L 16.75 41.15625 C 17.457107 41.86335 18.855394 41.86335 19.5625 41.15625 L 33 27.71875 L 33 16.96875 C 32.999929 16.286838 32.495106 15.603478 31.84375 15.25 z "
       transform="translate(0,1004.3622)"
       id="path3818" />
    <path
       style="opacity:1;fill:#d81b60;fill-opacity:1;stroke:none"
       d="M 19.28125 14 L 5.84375 27.4375 C 5.1366432 28.1446 5.1366432 29.5429 5.84375 30.25 L 15.75 40.15625 C 16.457107 40.86335 17.855394 40.86335 18.5625 40.15625 L 32 26.71875 L 32 15.96875 C 31.999899 14.99765 31.011894 14 29.96875 14 L 19.28125 14 z M 29.5 15 C 30.328427 15 31 15.671573 31 16.5 C 31 17.328427 30.328427 18 29.5 18 C 28.671573 18 28 17.328427 28 16.5 C 28 15.671573 28.671573 15 29.5 15 z "
       transform="translate(0,1004.3622)"
       id="rect3806" />
    <path
       style="fill:none;stroke:#343434;stroke-width:2;stroke-linecap:round;stroke-linejoin:miter;stroke-miterlimit:4;stroke-opacity:1;stroke-dasharray:none"
       d="m 30,16 c 3,-3 -2,-6 0,-9"
       id="path3812"
       inkscape:connector-curvature="0"
       transform="translate(0,1004.3622)"
       sodipodi:nodetypes="cc" />
    <path
       style="font-size:27.86375427px;font-style:normal;font-variant:normal;font-weight:bold;font-stretch:normal;text-align:center;line-height:621.00000381%;letter-spacing:0px;word-spacing:0px;writing-mode:lr-tb;text-anchor:middle;opacity:0.1;fill:#000000;fill-opacity:1;stroke:none;font-family:Ubuntu Mono;-inkscape-font-specification:Ubuntu Mono Bold"
       d="m 13.618027,1034.9166 c -0.504585,0.5046 -0.702681,1.0892 -0.585138,1.7554 0.117611,0.6663 0.574487,1.3986 1.368073,2.1922 0.803415,0.8034 1.539126,1.2703 2.200443,1.3928 0.661315,0.1224 1.249259,-0.079 1.763642,-0.5934 0.514379,-0.5144 0.707577,-1.0941 0.585139,-1.7554 -0.122444,-0.6613 -0.58938,-1.397 -1.392792,-2.2005 -0.798538,-0.7985 -1.527461,-1.2586 -2.183966,-1.3763 -0.66132,-0.1224 -1.241022,0.071 -1.755401,0.5852 z m 7.343032,-7.3431 c -0.504585,0.5046 -0.694441,1.081 -0.576898,1.7472 0.117613,0.6663 0.574488,1.3986 1.368074,2.1922 0.803415,0.8034 1.539127,1.2704 2.200443,1.3928 0.661315,0.1224 1.241018,-0.071 1.755401,-0.5851 0.514379,-0.5144 0.715819,-1.1024 0.59338,-1.7637 -0.122443,-0.6613 -0.58938,-1.397 -1.392791,-2.2004 -0.798539,-0.7986 -1.527462,-1.2587 -2.183967,-1.3763 -0.661319,-0.1225 -1.249263,0.079 -1.763642,0.5933 z m -3.56023,3.7581 c 0.0098,0.1861 0.0047,0.3861 -0.02474,0.6016 -0.02942,0.2155 -0.06972,0.4306 -0.123592,0.6511 -0.05387,0.2205 -0.11276,0.437 -0.181338,0.6428 -0.06858,0.2058 -0.140794,0.3988 -0.214243,0.5604 l 1.038373,0.445 c 0.07863,-0.1663 0.169111,-0.3682 0.272003,-0.618 0.09794,-0.2548 0.175081,-0.5066 0.214247,-0.7418 l 2.538372,2.5384 -0.955995,0.956 0.749886,0.7499 2.760849,-2.7609 -0.749887,-0.7498 -0.906548,0.9065 -3.799285,-3.7993 -0.6181,0.6181 z m 7.351274,-7.3513 c 0.0098,0.1862 0.0047,0.3861 -0.02474,0.6016 -0.02942,0.2156 -0.07796,0.4389 -0.131833,0.6594 -0.05387,0.2204 -0.11276,0.437 -0.181338,0.6428 -0.06858,0.2057 -0.132553,0.3905 -0.206001,0.5522 l 1.038372,0.445 c 0.07863,-0.1663 0.169111,-0.3683 0.272003,-0.6181 0.09794,-0.2548 0.166841,-0.4983 0.206005,-0.7335 l 2.538372,2.5384 -0.955995,0.956 0.749887,0.7499 2.76909,-2.7691 -0.749887,-0.7499 -0.906547,0.9065 -3.799285,-3.7993 -0.6181,0.6181 z m -10.450025,11.8016 c 0.02179,-0.036 0.06003,-0.06 0.09065,-0.091 0.249841,-0.2499 0.570783,-0.2953 0.972442,-0.1484 0.401746,0.1372 0.857026,0.4614 1.376327,0.9807 0.524176,0.5242 0.855126,0.9862 0.997219,1.3928 0.142035,0.3968 0.09326,0.7144 -0.156583,0.9643 -0.244945,0.2449 -0.570805,0.3019 -0.972481,0.1648 -0.406628,-0.1421 -0.868625,-0.473 -1.392802,-0.9972 -0.5193,-0.5193 -0.843536,-0.9746 -0.980743,-1.3763 -0.124257,-0.3558 -0.106055,-0.6581 0.06597,-0.8901 z m 7.351274,-7.3512 c 0.02179,-0.036 0.0518,-0.052 0.08241,-0.082 0.24984,-0.2498 0.579024,-0.3035 0.980683,-0.1566 0.401746,0.1372 0.857026,0.4615 1.376328,0.9808 0.524175,0.5241 0.855125,0.9861 0.997218,1.3928 0.142035,0.3967 0.08502,0.7226 -0.164823,0.9725 -0.244946,0.2449 -0.562565,0.2937 -0.96424,0.1565 -0.406628,-0.1421 -0.868626,-0.473 -1.392803,-0.9972 -0.5193,-0.5193 -0.843536,-0.9746 -0.980743,-1.3763 -0.124257,-0.3557 -0.106055,-0.6581 0.06597,-0.89 z m -6.230467,8.2742 c -0.127372,0.1274 -0.181243,0.2817 -0.156578,0.4533 0.02452,0.1715 0.106761,0.3211 0.238991,0.4533 0.132299,0.1323 0.281846,0.2145 0.453266,0.239 0.166537,0.02 0.317706,-0.037 0.445078,-0.1648 0.117572,-0.1176 0.159345,-0.2541 0.140058,-0.4204 -0.01956,-0.1763 -0.09021,-0.3374 -0.222509,-0.4697 -0.132231,-0.1322 -0.293365,-0.2029 -0.469749,-0.2225 -0.17149,-0.024 -0.310986,0.014 -0.428557,0.1318 z m 7.343033,-7.343 c -0.127373,0.1274 -0.173003,0.2734 -0.148338,0.4451 0.02452,0.1714 0.09852,0.3292 0.23075,0.4615 0.132298,0.1323 0.290091,0.2063 0.461507,0.2307 0.166537,0.02 0.309465,-0.029 0.436838,-0.1565 0.11757,-0.1176 0.167585,-0.2624 0.148298,-0.4286 -0.01956,-0.1763 -0.09845,-0.3292 -0.230751,-0.4615 -0.132231,-0.1323 -0.285119,-0.2112 -0.461507,-0.2308 -0.17149,-0.024 -0.319227,0.023 -0.436797,0.1401 z"
       id="path3780"
       inkscape:connector-curvature="0" />
    <path
       inkscape:connector-curvature="0"
       id="text3003"
       d="m 11.618027,1033.987 c -0.504585,0.5046 -0.702681,1.0892 -0.585138,1.7554 0.117611,0.6663 0.574487,1.3986 1.368073,2.1922 0.803415,0.8034 1.539126,1.2703 2.200443,1.3928 0.661315,0.1224 1.249259,-0.079 1.763642,-0.5934 0.514379,-0.5144 0.707577,-1.0941 0.585139,-1.7554 -0.122444,-0.6613 -0.58938,-1.397 -1.392792,-2.2005 -0.798538,-0.7985 -1.527461,-1.2586 -2.183966,-1.3763 -0.66132,-0.1224 -1.241022,0.071 -1.755401,0.5852 z m 7.343032,-7.3431 c -0.504585,0.5046 -0.694441,1.081 -0.576898,1.7472 0.117613,0.6663 0.574488,1.3986 1.368074,2.1922 0.803415,0.8034 1.539127,1.2704 2.200443,1.3928 0.661315,0.1224 1.241018,-0.071 1.755401,-0.5851 0.514379,-0.5144 0.715819,-1.1024 0.59338,-1.7637 -0.122443,-0.6613 -0.58938,-1.397 -1.392791,-2.2004 -0.798539,-0.7986 -1.527462,-1.2587 -2.183967,-1.3763 -0.661319,-0.1225 -1.249263,0.079 -1.763642,0.5933 z m -3.56023,3.7581 c 0.0098,0.1861 0.0047,0.3861 -0.02474,0.6016 -0.02942,0.2155 -0.06972,0.4306 -0.123592,0.6511 -0.05387,0.2205 -0.11276,0.437 -0.181338,0.6428 -0.06858,0.2058 -0.140794,0.3988 -0.214243,0.5604 l 1.038373,0.445 c 0.07863,-0.1663 0.169111,-0.3682 0.272003,-0.618 0.09794,-0.2548 0.175081,-0.5066 0.214247,-0.7418 l 2.538372,2.5384 -0.955995,0.956 0.749886,0.7499 2.760849,-2.7609 -0.749887,-0.7498 -0.906548,0.9065 -3.799285,-3.7993 -0.6181,0.6181 z m 7.351274,-7.3513 c 0.0098,0.1862 0.0047,0.3861 -0.02474,0.6016 -0.02942,0.2156 -0.07796,0.4389 -0.131833,0.6594 -0.05387,0.2204 -0.11276,0.437 -0.181338,0.6428 -0.06858,0.2057 -0.132553,0.3905 -0.206001,0.5522 l 1.038372,0.445 c 0.07863,-0.1663 0.169111,-0.3683 0.272003,-0.6181 0.09794,-0.2548 0.166841,-0.4983 0.206005,-0.7335 l 2.538372,2.5384 -0.955995,0.956 0.749887,0.7499 2.76909,-2.7691 -0.749887,-0.7499 -0.906547,0.9065 -3.799285,-3.7993 -0.6181,0.6181 z m -10.450025,11.8016 c 0.02179,-0.036 0.06003,-0.06 0.09065,-0.091 0.249841,-0.2499 0.570783,-0.2953 0.972442,-0.1484 0.401746,0.1372 0.857026,0.4614 1.376327,0.9807 0.524176,0.5242 0.855126,0.9862 0.997219,1.3928 0.142035,0.3968 0.09326,0.7144 -0.156583,0.9643 -0.244945,0.2449 -0.570805,0.3019 -0.972481,0.1648 -0.406628,-0.1421 -0.868625,-0.473 -1.392802,-0.9972 -0.5193,-0.5193 -0.843536,-0.9746 -0.980743,-1.3763 -0.124257,-0.3558 -0.106055,-0.6581 0.06597,-0.8901 z m 7.351274,-7.3512 c 0.02179,-0.036 0.0518,-0.052 0.08241,-0.082 0.24984,-0.2498 0.579024,-0.3035 0.980683,-0.1566 0.401746,0.1372 0.857026,0.4615 1.376328,0.9808 0.524175,0.5241 0.855125,0.9861 0.997218,1.3928 0.142035,0.3967 0.08502,0.7226 -0.164823,0.9725 -0.244946,0.2449 -0.562565,0.2937 -0.96424,0.1565 -0.406628,-0.1421 -0.868626,-0.473 -1.392803,-0.9972 -0.5193,-0.5193 -0.843536,-0.9746 -0.980743,-1.3763 -0.124257,-0.3557 -0.106055,-0.6581 0.06597,-0.89 z m -6.230467,8.2742 c -0.127372,0.1274 -0.181243,0.2817 -0.156578,0.4533 0.02452,0.1715 0.106761,0.3211 0.238991,0.4533 0.132299,0.1323 0.281846,0.2145 0.453266,0.239 0.166537,0.02 0.317706,-0.037 0.445078,-0.1648 0.117572,-0.1176 0.159345,-0.2541 0.140058,-0.4204 -0.01956,-0.1763 -0.09021,-0.3374 -0.222509,-0.4697 -0.132231,-0.1322 -0.293365,-0.2029 -0.469749,-0.2225 -0.17149,-0.024 -0.310986,0.014 -0.428557,0.1318 z m 7.343033,-7.343 c -0.127373,0.1274 -0.173003,0.2734 -0.148338,0.4451 0.02452,0.1714 0.09852,0.3292 0.23075,0.4615 0.132298,0.1323 0.290091,0.2063 0.461507,0.2307 0.166537,0.02 0.309465,-0.029 0.436838,-0.1565 0.11757,-0.1176 0.167585,-0.2624 0.148298,-0.4286 -0.01956,-0.1763 -0.09845,-0.3292 -0.230751,-0.4615 -0.132231,-0.1323 -0.285119,-0.2112 -0.461507,-0.2308 -0.17149,-0.024 -0.319227,0.023 -0.436797,0.1401 z"
       style="font-size:27.86375427px;font-style:normal;font-variant:normal;font-weight:bold;font-stretch:normal;text-align:center;line-height:621.00000381%;letter-spacing:0px;word-spacing:0px;writing-mode:lr-tb;text-anchor:middle;fill:#ffffff;fill-opacity:1;stroke:none;font-family:Ubuntu Mono;-inkscape-font-specification:Ubuntu Mono Bold" />
  </g>
</svg>
