<?xml version="1.0" encoding="UTF-8" standalone="no"?>
<!-- Created with Inkscape (http://www.inkscape.org/) -->

<svg
   xmlns:dc="http://purl.org/dc/elements/1.1/"
   xmlns:cc="http://creativecommons.org/ns#"
   xmlns:rdf="http://www.w3.org/1999/02/22-rdf-syntax-ns#"
   xmlns:svg="http://www.w3.org/2000/svg"
   xmlns="http://www.w3.org/2000/svg"
   xmlns:xlink="http://www.w3.org/1999/xlink"
   xmlns:sodipodi="http://sodipodi.sourceforge.net/DTD/sodipodi-0.dtd"
   xmlns:inkscape="http://www.inkscape.org/namespaces/inkscape"
   width="48"
   height="48"
   id="svg2"
   version="1.1"
   inkscape:version="0.48.4 r9939"
   sodipodi:docname="folder-burnable.svg">
  <defs
     id="defs4">
    <linearGradient
       id="linearGradient3768">
      <stop
         style="stop-color:#ffb74d;stop-opacity:1;"
         offset="0"
         id="stop3770" />
      <stop
         style="stop-color:#ffbf61;stop-opacity:1;"
         offset="1"
         id="stop3772" />
    </linearGradient>
    <linearGradient
       id="linearGradient3819">
      <stop
         style="stop-color:#000000;stop-opacity:1;"
         offset="0"
         id="stop3821" />
      <stop
         style="stop-color:#ffffff;stop-opacity:1;"
         offset="1"
         id="stop3823" />
    </linearGradient>
    <linearGradient
       inkscape:collect="always"
       xlink:href="#linearGradient3819"
       id="linearGradient3825"
       x1="24"
       y1="1028.3622"
       x2="46"
       y2="1006.3622"
       gradientUnits="userSpaceOnUse"
       spreadMethod="repeat" />
    <linearGradient
       inkscape:collect="always"
       xlink:href="#linearGradient3819"
       id="linearGradient3829"
       gradientUnits="userSpaceOnUse"
       spreadMethod="repeat"
       x1="45"
       y1="1049.3622"
       x2="12"
       y2="1016.3622" />
    <linearGradient
       inkscape:collect="always"
       xlink:href="#linearGradient3768"
       id="linearGradient3774"
       x1="24"
       y1="1050.3622"
       x2="24"
       y2="1006.3622"
       gradientUnits="userSpaceOnUse" />
  </defs>
  <sodipodi:namedview
     id="base"
     pagecolor="#ffffff"
     bordercolor="#666666"
     borderopacity="1.0"
     inkscape:pageopacity="0.0"
     inkscape:pageshadow="2"
     inkscape:zoom="8.1906533"
     inkscape:cx="21.473733"
     inkscape:cy="16.43592"
     inkscape:document-units="px"
     inkscape:current-layer="layer1"
     showgrid="true"
     inkscape:snap-bbox="true"
     inkscape:window-width="1301"
     inkscape:window-height="744"
     inkscape:window-x="65"
     inkscape:window-y="24"
     inkscape:window-maximized="1"
     inkscape:object-nodes="false"
     inkscape:snap-nodes="true"
     showguides="true"
     inkscape:guide-bbox="true">
    <inkscape:grid
       type="xygrid"
       id="grid3005"
       empspacing="6"
       visible="true"
       enabled="true"
       snapvisiblegridlinesonly="true" />
  </sodipodi:namedview>
  <metadata
     id="metadata7">
    <rdf:RDF>
      <cc:Work
         rdf:about="">
        <dc:format>image/svg+xml</dc:format>
        <dc:type
           rdf:resource="http://purl.org/dc/dcmitype/StillImage" />
        <dc:title />
      </cc:Work>
    </rdf:RDF>
  </metadata>
  <g
     inkscape:label="Layer 1"
     inkscape:groupmode="layer"
     id="layer1"
     transform="translate(0,-1004.3622)">
    <path
       style="fill:#a05f00;fill-opacity:1;stroke:none"
       d="m 24,1008.3622 c -24,0 -24,0 -24,20 l 48,0 c 0,-20 0,-20 -24,-20 z"
       id="path3797"
       inkscape:connector-curvature="0" />
    <path
       id="path3788"
       d="m 24,1051.1116 c -21.2715315,0 -23.66257505,-0.089 -23.9375,-15.4063 0.328125,14.4033 2.9375,14.4063 23.9375,14.4063 21,0 23.609375,0 23.9375,-14.4063 -0.274925,15.3174 -2.665968,15.4063 -23.9375,15.4063 z"
       style="opacity:0.20000000000000001;fill:#ffffff;fill-opacity:1;stroke:none"
       inkscape:connector-curvature="0" />
    <rect
       style="fill:#ffffff;fill-opacity:1;stroke:none"
       id="rect3804"
       width="26"
       height="6.9999828"
       x="18"
       y="1010.3622" />
    <path
       style="fill:#ffffff;fill-opacity:1;stroke:none;opacity:0.3"
       d="M 24 4 C 2.5308478 4 0.30123961 4.120865 0.0625 18.4375 C 0.390625 5.0390625 3 5.03125 24 5.03125 C 45 5.03125 47.609375 5.0390625 47.9375 18.4375 C 47.69876 4.120865 45.469152 4 24 4 z "
       transform="translate(0,1004.3622)"
       id="path3000" />
    <path
       style="fill:url(#linearGradient3774);fill-opacity:1;stroke:none"
       d="M 18.069225,1006.3784 C 0,1006.5415 0,1008.3483 0,1028.3622 c 0,22 0,22 24,22 24,0 24,0 24,-22 0,-16 0,-16 -24,-16 -4,0 -2,-6 -5.930775,-5.9838 z"
       id="path3757"
       inkscape:connector-curvature="0"
       sodipodi:nodetypes="cccccc" />
    <path
       sodipodi:nodetypes="cccccc"
       inkscape:connector-curvature="0"
       id="path3817"
       d="M 18.069225,1006.3784 C 0,1006.5415 0,1008.3483 0,1028.3622 c 0,22 0,22 24,22 24,0 24,0 24,-22 0,-16 0,-16 -24,-16 -4,0 -2,-6 -5.930775,-5.9838 z"
       style="opacity:0.02999998;fill:url(#linearGradient3825);fill-opacity:1;stroke:none" />
    <path
       style="opacity:0.02999998;fill:url(#linearGradient3829);fill-opacity:1;stroke:none"
       d="M 18.069225,1006.3784 C 0,1006.5415 0,1008.3483 0,1028.3622 c 0,22 0,22 24,22 24,0 24,0 24,-22 0,-16 0,-16 -24,-16 -4,0 -2,-6 -5.930775,-5.9838 z"
       id="path3827"
       inkscape:connector-curvature="0"
       sodipodi:nodetypes="cccccc" />
    <path
       style="fill:#ffffff;fill-opacity:1;stroke:none;opacity:0.4"
       d="M 18.0625 2.03125 C 1.9247472 2.1769158 0.21564151 3.7140172 0.03125 18.28125 C 0.27829019 4.5254379 2.2519281 3.1427125 18.0625 3 C 21.993275 2.9838 20 8.96875 24 8.96875 C 45 8.96875 47.609375 8.96875 47.9375 19.6875 C 47.712965 8.1039598 45.550219 8 24 8 C 20 8 21.993275 2.01505 18.0625 2.03125 z "
       transform="translate(0,1004.3622)"
       id="path3808" />
    <g
       id="g3822"
       transform="translate(1,5)"
       style="opacity:0.1;fill:#000000;fill-opacity:1">
      <path
         style="fill:#000000;fill-opacity:1;stroke:none"
         d="m 15,18 c -4.970563,0 -9,4.029437 -9,9 0,4.970563 4.029437,9 9,9 4.970563,0 9,-4.029437 9,-9 0,-4.970563 -4.029437,-9 -9,-9 z m 0,2 c 3.865993,0 7,3.134007 7,7 0,3.865993 -3.134007,7 -7,7 -3.865993,0 -7,-3.134007 -7,-7 0,-3.865993 3.134007,-7 7,-7 z"
         transform="translate(0,1004.3622)"
         id="path3824"
         inkscape:connector-curvature="0" />
      <path
         sodipodi:type="arc"
         style="fill:#000000;fill-opacity:1;stroke:none"
         id="path3826"
         sodipodi:cx="15"
         sodipodi:cy="27"
         sodipodi:rx="7"
         sodipodi:ry="7"
         d="M 22,27 A 7,7 0 1 1 8,27 7,7 0 1 1 22,27 z"
         transform="matrix(0.28571429,0,0,0.28571429,10.714286,1023.6479)" />
      <rect
         style="fill:#000000;fill-opacity:1;stroke:none"
         id="rect3828"
         width="4"
         height="1"
         x="13"
         y="31"
         transform="translate(0,1004.3622)"
         ry="1.3906189e-05" />
      <rect
         style="fill:#000000;fill-opacity:1;stroke:none"
         id="rect3830"
         width="1"
         height="1"
         x="13"
         y="21"
         transform="translate(0,1004.3622)"
         ry="1.3906189e-05" />
      <rect
         style="fill:#000000;fill-opacity:1;stroke:none"
         id="rect3832"
         width="1"
         height="1"
         x="14"
         y="22"
         transform="translate(0,1004.3622)"
         ry="1.3906189e-05" />
      <rect
         style="fill:#000000;fill-opacity:1;stroke:none"
         id="rect3834"
         width="1"
         height="1"
         x="12"
         y="23"
         transform="translate(0,1004.3622)"
         ry="1.3906189e-05" />
      <rect
         style="fill:#000000;fill-opacity:1;stroke:none"
         id="rect3836"
         width="1"
         height="1"
         x="16"
         y="23"
         transform="translate(0,1004.3622)"
         ry="1.3906189e-05" />
      <rect
         style="fill:#000000;fill-opacity:1;stroke:none"
         id="rect3838"
         width="1"
         height="1"
         x="9"
         y="26"
         transform="translate(0,1004.3622)"
         ry="1.3906189e-05" />
      <rect
         style="fill:#000000;fill-opacity:1;stroke:none"
         id="rect3840"
         width="1"
         height="1"
         x="11"
         y="26"
         transform="translate(0,1004.3622)"
         ry="1.3906189e-05" />
    </g>
    <g
       id="g3811"
       transform="translate(0,4)">
      <path
         id="path3020"
         transform="translate(0,1004.3622)"
         d="m 15,18 c -4.970563,0 -9,4.029437 -9,9 0,4.970563 4.029437,9 9,9 4.970563,0 9,-4.029437 9,-9 0,-4.970563 -4.029437,-9 -9,-9 z m 0,2 c 3.865993,0 7,3.134007 7,7 0,3.865993 -3.134007,7 -7,7 -3.865993,0 -7,-3.134007 -7,-7 0,-3.865993 3.134007,-7 7,-7 z"
         style="fill:#ffffff;fill-opacity:1;stroke:none"
         inkscape:connector-curvature="0" />
      <path
         transform="matrix(0.28571429,0,0,0.28571429,10.714286,1023.6479)"
         d="M 22,27 A 7,7 0 1 1 8,27 7,7 0 1 1 22,27 z"
         sodipodi:ry="7"
         sodipodi:rx="7"
         sodipodi:cy="27"
         sodipodi:cx="15"
         id="path3025"
         style="fill:#ffffff;fill-opacity:1;stroke:none"
         sodipodi:type="arc" />
      <rect
         ry="1.3906189e-05"
         transform="translate(0,1004.3622)"
         y="31"
         x="13"
         height="1"
         width="4"
         id="rect3795"
         style="fill:#ffffff;fill-opacity:1;stroke:none" />
      <rect
         ry="1.3906189e-05"
         transform="translate(0,1004.3622)"
         y="21"
         x="13"
         height="1"
         width="1"
         id="rect3797"
         style="fill:#ffffff;fill-opacity:1;stroke:none" />
      <rect
         ry="1.3906189e-05"
         transform="translate(0,1004.3622)"
         y="22"
         x="14"
         height="1"
         width="1"
         id="rect3799"
         style="fill:#ffffff;fill-opacity:1;stroke:none" />
      <rect
         ry="1.3906189e-05"
         transform="translate(0,1004.3622)"
         y="23"
         x="12"
         height="1"
         width="1"
         id="rect3801"
         style="fill:#ffffff;fill-opacity:1;stroke:none" />
      <rect
         ry="1.3906189e-05"
         transform="translate(0,1004.3622)"
         y="23"
         x="16"
         height="1"
         width="1"
         id="rect3803"
         style="fill:#ffffff;fill-opacity:1;stroke:none" />
      <rect
         ry="1.3906189e-05"
         transform="translate(0,1004.3622)"
         y="26"
         x="9"
         height="1"
         width="1"
         id="rect3807"
         style="fill:#ffffff;fill-opacity:1;stroke:none" />
      <rect
         ry="1.3906189e-05"
         transform="translate(0,1004.3622)"
         y="26"
         x="11"
         height="1"
         width="1"
         id="rect3809"
         style="fill:#ffffff;fill-opacity:1;stroke:none" />
    </g>
  </g>
</svg>
