<?xml version="1.0" encoding="UTF-8" standalone="no"?>
<!-- Created with Inkscape (http://www.inkscape.org/) -->

<svg
   xmlns:dc="http://purl.org/dc/elements/1.1/"
   xmlns:cc="http://creativecommons.org/ns#"
   xmlns:rdf="http://www.w3.org/1999/02/22-rdf-syntax-ns#"
   xmlns:svg="http://www.w3.org/2000/svg"
   xmlns="http://www.w3.org/2000/svg"
   xmlns:xlink="http://www.w3.org/1999/xlink"
   xmlns:sodipodi="http://sodipodi.sourceforge.net/DTD/sodipodi-0.dtd"
   xmlns:inkscape="http://www.inkscape.org/namespaces/inkscape"
   width="48"
   height="48"
   id="svg2"
   version="1.1"
   inkscape:version="0.48.4 r9939"
   sodipodi:docname="folder-ajax.svg">
  <defs
     id="defs4">
    <linearGradient
       id="linearGradient3768">
      <stop
         style="stop-color:#ffb74d;stop-opacity:1;"
         offset="0"
         id="stop3770" />
      <stop
         style="stop-color:#ffbf61;stop-opacity:1;"
         offset="1"
         id="stop3772" />
    </linearGradient>
    <linearGradient
       id="linearGradient3819">
      <stop
         style="stop-color:#000000;stop-opacity:1;"
         offset="0"
         id="stop3821" />
      <stop
         style="stop-color:#ffffff;stop-opacity:1;"
         offset="1"
         id="stop3823" />
    </linearGradient>
    <linearGradient
       inkscape:collect="always"
       xlink:href="#linearGradient3819"
       id="linearGradient3825"
       x1="24"
       y1="1028.3622"
       x2="46"
       y2="1006.3622"
       gradientUnits="userSpaceOnUse"
       spreadMethod="repeat" />
    <linearGradient
       inkscape:collect="always"
       xlink:href="#linearGradient3819"
       id="linearGradient3829"
       gradientUnits="userSpaceOnUse"
       spreadMethod="repeat"
       x1="45"
       y1="1049.3622"
       x2="12"
       y2="1016.3622" />
    <linearGradient
       inkscape:collect="always"
       xlink:href="#linearGradient3768"
       id="linearGradient3774"
       x1="24"
       y1="1050.3622"
       x2="24"
       y2="1006.3622"
       gradientUnits="userSpaceOnUse" />
  </defs>
  <sodipodi:namedview
     id="base"
     pagecolor="#ffffff"
     bordercolor="#666666"
     borderopacity="1.0"
     inkscape:pageopacity="0.0"
     inkscape:pageshadow="2"
     inkscape:zoom="11.583333"
     inkscape:cx="12.707578"
     inkscape:cy="19.407835"
     inkscape:document-units="px"
     inkscape:current-layer="layer1"
     showgrid="true"
     inkscape:snap-bbox="true"
     inkscape:window-width="1301"
     inkscape:window-height="744"
     inkscape:window-x="65"
     inkscape:window-y="24"
     inkscape:window-maximized="1"
     inkscape:object-nodes="false"
     inkscape:snap-nodes="true"
     showguides="true"
     inkscape:guide-bbox="true">
    <inkscape:grid
       type="xygrid"
       id="grid3005"
       empspacing="6"
       visible="true"
       enabled="true"
       snapvisiblegridlinesonly="true" />
  </sodipodi:namedview>
  <metadata
     id="metadata7">
    <rdf:RDF>
      <cc:Work
         rdf:about="">
        <dc:format>image/svg+xml</dc:format>
        <dc:type
           rdf:resource="http://purl.org/dc/dcmitype/StillImage" />
        <dc:title />
      </cc:Work>
    </rdf:RDF>
  </metadata>
  <g
     inkscape:label="Layer 1"
     inkscape:groupmode="layer"
     id="layer1"
     transform="translate(0,-1004.3622)">
    <path
       style="fill:#a05f00;fill-opacity:1;stroke:none"
       d="m 24,1008.3622 c -24,0 -24,0 -24,20 l 48,0 c 0,-20 0,-20 -24,-20 z"
       id="path3797"
       inkscape:connector-curvature="0" />
    <path
       id="path3788"
       d="m 24,1051.1116 c -21.2715315,0 -23.66257505,-0.089 -23.9375,-15.4063 0.328125,14.4033 2.9375,14.4063 23.9375,14.4063 21,0 23.609375,0 23.9375,-14.4063 -0.274925,15.3174 -2.665968,15.4063 -23.9375,15.4063 z"
       style="opacity:0.20000000000000001;fill:#ffffff;fill-opacity:1;stroke:none"
       inkscape:connector-curvature="0" />
    <rect
       style="fill:#ffffff;fill-opacity:1;stroke:none"
       id="rect3804"
       width="26"
       height="6.9999828"
       x="18"
       y="1010.3622" />
    <path
       style="fill:#ffffff;fill-opacity:1;stroke:none;opacity:0.3"
       d="M 24 4 C 2.5308478 4 0.30123961 4.120865 0.0625 18.4375 C 0.390625 5.0390625 3 5.03125 24 5.03125 C 45 5.03125 47.609375 5.0390625 47.9375 18.4375 C 47.69876 4.120865 45.469152 4 24 4 z "
       transform="translate(0,1004.3622)"
       id="path3000" />
    <path
       style="fill:url(#linearGradient3774);fill-opacity:1;stroke:none"
       d="M 18.069225,1006.3784 C 0,1006.5415 0,1008.3483 0,1028.3622 c 0,22 0,22 24,22 24,0 24,0 24,-22 0,-16 0,-16 -24,-16 -4,0 -2,-6 -5.930775,-5.9838 z"
       id="path3757"
       inkscape:connector-curvature="0"
       sodipodi:nodetypes="cccccc" />
    <path
       sodipodi:nodetypes="cccccc"
       inkscape:connector-curvature="0"
       id="path3817"
       d="M 18.069225,1006.3784 C 0,1006.5415 0,1008.3483 0,1028.3622 c 0,22 0,22 24,22 24,0 24,0 24,-22 0,-16 0,-16 -24,-16 -4,0 -2,-6 -5.930775,-5.9838 z"
       style="opacity:0.02999998;fill:url(#linearGradient3825);fill-opacity:1;stroke:none" />
    <path
       style="opacity:0.02999998;fill:url(#linearGradient3829);fill-opacity:1;stroke:none"
       d="M 18.069225,1006.3784 C 0,1006.5415 0,1008.3483 0,1028.3622 c 0,22 0,22 24,22 24,0 24,0 24,-22 0,-16 0,-16 -24,-16 -4,0 -2,-6 -5.930775,-5.9838 z"
       id="path3827"
       inkscape:connector-curvature="0"
       sodipodi:nodetypes="cccccc" />
    <path
       style="fill:#ffffff;fill-opacity:1;stroke:none;opacity:0.4"
       d="M 18.0625 2.03125 C 1.9247472 2.1769158 0.21564151 3.7140172 0.03125 18.28125 C 0.27829019 4.5254379 2.2519281 3.1427125 18.0625 3 C 21.993275 2.9838 20 8.96875 24 8.96875 C 45 8.96875 47.609375 8.96875 47.9375 19.6875 C 47.712965 8.1039598 45.550219 8 24 8 C 20 8 21.993275 2.01505 18.0625 2.03125 z "
       transform="translate(0,1004.3622)"
       id="path3808" />
    <path
       style="fill:#000000;fill-opacity:1;stroke:none;opacity:0.1"
       d="M 29.5 15 C 28.671573 15 28 15.671573 28 16.5 C 28 17.18 28.442198 17.753531 29.0625 17.9375 C 29.022344 17.802106 29 17.648422 29 17.5 C 29 16.6716 29.671573 16 30.5 16 C 30.648427 16 30.802104 16.022343 30.9375 16.0625 C 30.753531 15.442198 30.18 15 29.5 15 z M 31.84375 15.25 C 31.952689 15.480091 31.999975 15.725975 32 15.96875 L 32 17.5 L 32 26.71875 L 18.5625 40.15625 C 17.855394 40.86335 16.457107 40.86335 15.75 40.15625 L 16.75 41.15625 C 17.457107 41.86335 18.855394 41.86335 19.5625 41.15625 L 33 27.71875 L 33 16.96875 C 32.999929 16.286838 32.495106 15.603478 31.84375 15.25 z "
       transform="translate(0,1004.3622)"
       id="path3818" />
    <path
       style="opacity:1;fill:#ffe57f;fill-opacity:1;stroke:none"
       d="M 19.28125 14 L 5.84375 27.4375 C 5.1366432 28.1446 5.1366432 29.5429 5.84375 30.25 L 15.75 40.15625 C 16.457107 40.86335 17.855394 40.86335 18.5625 40.15625 L 32 26.71875 L 32 15.96875 C 31.999899 14.99765 31.011894 14 29.96875 14 L 19.28125 14 z M 29.5 15 C 30.328427 15 31 15.671573 31 16.5 C 31 17.328427 30.328427 18 29.5 18 C 28.671573 18 28 17.328427 28 16.5 C 28 15.671573 28.671573 15 29.5 15 z "
       transform="translate(0,1004.3622)"
       id="rect3806" />
    <path
       style="fill:none;stroke:#343434;stroke-width:2;stroke-linecap:round;stroke-linejoin:miter;stroke-miterlimit:4;stroke-opacity:1;stroke-dasharray:none"
       d="m 30,16 c 3,-3 -2,-6 0,-9"
       id="path3812"
       inkscape:connector-curvature="0"
       transform="translate(0,1004.3622)"
       sodipodi:nodetypes="cc" />
    <path
       inkscape:connector-curvature="0"
       id="path3778"
       d="m 12.39541,1035.9822 2.507879,5.3798 0.950567,-0.9506 -0.606745,-1.173 1.395513,-1.3955 1.17304,0.6067 0.970792,-0.9707 -5.339355,-2.5484 -1.051691,1.0517 z m 3.701144,-3.7012 2.34608,2.3462 c 0.60247,0.6024 0.68908,1.0907 0.283147,1.4966 -0.18919,0.1892 -0.399245,0.3071 -0.667419,0.3438 l 0.829218,0.8292 c 0.247968,-0.1047 0.45986,-0.2576 0.66742,-0.4651 0.464709,-0.4648 0.683929,-0.9714 0.647194,-1.4967 -0.0349,-0.5272 -0.320445,-1.0485 -0.849443,-1.5775 l -2.366304,-2.3664 -0.889893,0.8899 z m 2.770802,-2.7708 2.507878,5.3798 0.970792,-0.9707 -0.62697,-1.1529 1.415738,-1.4157 1.17304,0.6068 0.970792,-0.9708 -5.35958,-2.5281 -1.05169,1.0516 z m 2.629227,-2.6292 3.114624,0.809 0.728093,3.236 1.051692,-1.0517 -0.586521,-1.9618 c -0.07531,-0.1708 -0.154491,-0.2906 -0.202247,-0.364 l 0.02023,-0.02 c 0.156128,0.1011 0.27035,0.16 0.343822,0.1821 l 1.961809,0.6269 1.071915,-1.0719 -3.235972,-0.7686 -0.748319,-3.1348 -0.991016,0.9911 0.54607,1.7999 c 0.09184,0.2131 0.16737,0.366 0.222473,0.4652 l -0.02023,0.02 c -0.163474,-0.094 -0.327409,-0.1729 -0.465171,-0.2224 l -1.739335,-0.6068 -1.071916,1.0719 z m -7.928133,9.3035 0.02023,-0.02 c 0.150618,0.1248 0.294309,0.2354 0.424721,0.3033 l 1.75956,0.9101 -1.011241,1.0112 -0.910118,-1.8 c -0.07715,-0.1506 -0.176611,-0.2796 -0.283147,-0.4044 z m 6.471946,-6.472 0.04045,-0.04 c 0.150618,0.125 0.294309,0.2355 0.424721,0.3034 l 1.75956,0.9101 -1.011241,1.0113 -0.930343,-1.7798 c -0.07715,-0.1506 -0.176611,-0.2796 -0.283147,-0.4045 z"
       style="font-size:8.71863461px;font-style:normal;font-weight:normal;text-align:center;line-height:100%;letter-spacing:0px;word-spacing:0px;text-anchor:middle;opacity:0.1;fill:#000000;fill-opacity:1;stroke:none;font-family:Sans" />
    <path
       style="font-size:8.71863461000000051px;font-style:normal;font-weight:normal;text-align:center;line-height:100%;letter-spacing:0px;word-spacing:0px;text-anchor:middle;fill:#546e7a;fill-opacity:1;stroke:none;font-family:Sans"
       d="m 11.39541,1034.9822 2.507879,5.3798 0.950567,-0.9506 -0.606745,-1.173 1.395513,-1.3955 1.17304,0.6067 0.970792,-0.9707 -5.339355,-2.5484 -1.051691,1.0517 z m 3.701144,-3.7012 2.34608,2.3462 c 0.60247,0.6024 0.68908,1.0907 0.283147,1.4966 -0.18919,0.1892 -0.399245,0.3071 -0.667419,0.3438 l 0.829218,0.8292 c 0.247968,-0.1047 0.45986,-0.2576 0.66742,-0.4651 0.464709,-0.4648 0.683929,-0.9714 0.647194,-1.4967 -0.0349,-0.5272 -0.320445,-1.0485 -0.849443,-1.5775 l -2.366304,-2.3664 -0.889893,0.8899 z m 2.770802,-2.7708 2.507878,5.3798 0.970792,-0.9707 -0.62697,-1.1529 1.415738,-1.4157 1.17304,0.6068 0.970792,-0.9708 -5.35958,-2.5281 -1.05169,1.0516 z m 2.629227,-2.6292 3.114624,0.809 0.728093,3.236 1.051692,-1.0517 -0.586521,-1.9618 c -0.07531,-0.1708 -0.154491,-0.2906 -0.202247,-0.364 l 0.02023,-0.02 c 0.156128,0.1011 0.27035,0.16 0.343822,0.1821 l 1.961809,0.6269 1.071915,-1.0719 -3.235972,-0.7686 -0.748319,-3.1348 -0.991016,0.9911 0.54607,1.7999 c 0.09184,0.2131 0.16737,0.366 0.222473,0.4652 l -0.02023,0.02 c -0.163474,-0.094 -0.327409,-0.1729 -0.465171,-0.2224 l -1.739335,-0.6068 -1.071916,1.0719 z m -7.928133,9.3035 0.02023,-0.02 c 0.150618,0.1248 0.294309,0.2354 0.424721,0.3033 l 1.75956,0.9101 -1.011241,1.0112 -0.910118,-1.8 c -0.07715,-0.1506 -0.176611,-0.2796 -0.283147,-0.4044 z m 6.471946,-6.472 0.04045,-0.04 c 0.150618,0.125 0.294309,0.2355 0.424721,0.3034 l 1.75956,0.9101 -1.011241,1.0113 -0.930343,-1.7798 c -0.07715,-0.1506 -0.176611,-0.2796 -0.283147,-0.4045 z"
       id="text3005"
       inkscape:connector-curvature="0" />
  </g>
</svg>
