<?xml version="1.0" encoding="UTF-8" standalone="no"?>
<!-- Created with Inkscape (http://www.inkscape.org/) -->

<svg
   xmlns:dc="http://purl.org/dc/elements/1.1/"
   xmlns:cc="http://creativecommons.org/ns#"
   xmlns:rdf="http://www.w3.org/1999/02/22-rdf-syntax-ns#"
   xmlns:svg="http://www.w3.org/2000/svg"
   xmlns="http://www.w3.org/2000/svg"
   xmlns:xlink="http://www.w3.org/1999/xlink"
   xmlns:sodipodi="http://sodipodi.sourceforge.net/DTD/sodipodi-0.dtd"
   xmlns:inkscape="http://www.inkscape.org/namespaces/inkscape"
   width="48"
   height="48"
   id="svg2"
   version="1.1"
   inkscape:version="0.48.4 r9939"
   sodipodi:docname="folder-txt.svg">
  <defs
     id="defs4">
    <linearGradient
       id="linearGradient3768">
      <stop
         style="stop-color:#ffb74d;stop-opacity:1;"
         offset="0"
         id="stop3770" />
      <stop
         style="stop-color:#ffbf61;stop-opacity:1;"
         offset="1"
         id="stop3772" />
    </linearGradient>
    <linearGradient
       id="linearGradient3819">
      <stop
         style="stop-color:#000000;stop-opacity:1;"
         offset="0"
         id="stop3821" />
      <stop
         style="stop-color:#ffffff;stop-opacity:1;"
         offset="1"
         id="stop3823" />
    </linearGradient>
    <linearGradient
       inkscape:collect="always"
       xlink:href="#linearGradient3819"
       id="linearGradient3825"
       x1="24"
       y1="1028.3622"
       x2="46"
       y2="1006.3622"
       gradientUnits="userSpaceOnUse"
       spreadMethod="repeat" />
    <linearGradient
       inkscape:collect="always"
       xlink:href="#linearGradient3819"
       id="linearGradient3829"
       gradientUnits="userSpaceOnUse"
       spreadMethod="repeat"
       x1="45"
       y1="1049.3622"
       x2="12"
       y2="1016.3622" />
    <linearGradient
       inkscape:collect="always"
       xlink:href="#linearGradient3768"
       id="linearGradient3774"
       x1="24"
       y1="1050.3622"
       x2="24"
       y2="1006.3622"
       gradientUnits="userSpaceOnUse" />
  </defs>
  <sodipodi:namedview
     id="base"
     pagecolor="#ffffff"
     bordercolor="#666666"
     borderopacity="1.0"
     inkscape:pageopacity="0.0"
     inkscape:pageshadow="2"
     inkscape:zoom="8.1906535"
     inkscape:cx="20.173319"
     inkscape:cy="23.474348"
     inkscape:document-units="px"
     inkscape:current-layer="layer1"
     showgrid="true"
     inkscape:snap-bbox="true"
     inkscape:window-width="1301"
     inkscape:window-height="744"
     inkscape:window-x="65"
     inkscape:window-y="24"
     inkscape:window-maximized="1"
     inkscape:object-nodes="false"
     inkscape:snap-nodes="true"
     showguides="true"
     inkscape:guide-bbox="true">
    <inkscape:grid
       type="xygrid"
       id="grid3005"
       empspacing="6"
       visible="true"
       enabled="true"
       snapvisiblegridlinesonly="true" />
  </sodipodi:namedview>
  <metadata
     id="metadata7">
    <rdf:RDF>
      <cc:Work
         rdf:about="">
        <dc:format>image/svg+xml</dc:format>
        <dc:type
           rdf:resource="http://purl.org/dc/dcmitype/StillImage" />
        <dc:title />
      </cc:Work>
    </rdf:RDF>
  </metadata>
  <g
     inkscape:label="Layer 1"
     inkscape:groupmode="layer"
     id="layer1"
     transform="translate(0,-1004.3622)">
    <path
       style="fill:#a05f00;fill-opacity:1;stroke:none"
       d="m 24,1008.3622 c -24,0 -24,0 -24,20 l 48,0 c 0,-20 0,-20 -24,-20 z"
       id="path3797"
       inkscape:connector-curvature="0" />
    <path
       id="path3788"
       d="m 24,1051.1116 c -21.2715315,0 -23.66257505,-0.089 -23.9375,-15.4063 0.328125,14.4033 2.9375,14.4063 23.9375,14.4063 21,0 23.609375,0 23.9375,-14.4063 -0.274925,15.3174 -2.665968,15.4063 -23.9375,15.4063 z"
       style="opacity:0.20000000000000001;fill:#ffffff;fill-opacity:1;stroke:none"
       inkscape:connector-curvature="0" />
    <rect
       style="fill:#ffffff;fill-opacity:1;stroke:none"
       id="rect3804"
       width="26"
       height="6.9999828"
       x="18"
       y="1010.3622" />
    <path
       style="fill:#ffffff;fill-opacity:1;stroke:none;opacity:0.3"
       d="M 24 4 C 2.5308478 4 0.30123961 4.120865 0.0625 18.4375 C 0.390625 5.0390625 3 5.03125 24 5.03125 C 45 5.03125 47.609375 5.0390625 47.9375 18.4375 C 47.69876 4.120865 45.469152 4 24 4 z "
       transform="translate(0,1004.3622)"
       id="path3000" />
    <path
       style="fill:url(#linearGradient3774);fill-opacity:1;stroke:none"
       d="M 18.069225,1006.3784 C 0,1006.5415 0,1008.3483 0,1028.3622 c 0,22 0,22 24,22 24,0 24,0 24,-22 0,-16 0,-16 -24,-16 -4,0 -2,-6 -5.930775,-5.9838 z"
       id="path3757"
       inkscape:connector-curvature="0"
       sodipodi:nodetypes="cccccc" />
    <path
       sodipodi:nodetypes="cccccc"
       inkscape:connector-curvature="0"
       id="path3817"
       d="M 18.069225,1006.3784 C 0,1006.5415 0,1008.3483 0,1028.3622 c 0,22 0,22 24,22 24,0 24,0 24,-22 0,-16 0,-16 -24,-16 -4,0 -2,-6 -5.930775,-5.9838 z"
       style="opacity:0.02999998;fill:url(#linearGradient3825);fill-opacity:1;stroke:none" />
    <path
       style="opacity:0.02999998;fill:url(#linearGradient3829);fill-opacity:1;stroke:none"
       d="M 18.069225,1006.3784 C 0,1006.5415 0,1008.3483 0,1028.3622 c 0,22 0,22 24,22 24,0 24,0 24,-22 0,-16 0,-16 -24,-16 -4,0 -2,-6 -5.930775,-5.9838 z"
       id="path3827"
       inkscape:connector-curvature="0"
       sodipodi:nodetypes="cccccc" />
    <path
       style="fill:#ffffff;fill-opacity:1;stroke:none;opacity:0.4"
       d="M 18.0625 2.03125 C 1.9247472 2.1769158 0.21564151 3.7140172 0.03125 18.28125 C 0.27829019 4.5254379 2.2519281 3.1427125 18.0625 3 C 21.993275 2.9838 20 8.96875 24 8.96875 C 45 8.96875 47.609375 8.96875 47.9375 19.6875 C 47.712965 8.1039598 45.550219 8 24 8 C 20 8 21.993275 2.01505 18.0625 2.03125 z "
       transform="translate(0,1004.3622)"
       id="path3808" />
    <path
       style="fill:#000000;fill-opacity:1;stroke:none;opacity:0.1"
       d="M 29.5 15 C 28.671573 15 28 15.671573 28 16.5 C 28 17.18 28.442198 17.753531 29.0625 17.9375 C 29.022344 17.802106 29 17.648422 29 17.5 C 29 16.6716 29.671573 16 30.5 16 C 30.648427 16 30.802104 16.022343 30.9375 16.0625 C 30.753531 15.442198 30.18 15 29.5 15 z M 31.84375 15.25 C 31.952689 15.480091 31.999975 15.725975 32 15.96875 L 32 17.5 L 32 26.71875 L 18.5625 40.15625 C 17.855394 40.86335 16.457107 40.86335 15.75 40.15625 L 16.75 41.15625 C 17.457107 41.86335 18.855394 41.86335 19.5625 41.15625 L 33 27.71875 L 33 16.96875 C 32.999929 16.286838 32.495106 15.603478 31.84375 15.25 z "
       transform="translate(0,1004.3622)"
       id="path3818" />
    <path
       style="opacity:1;fill:#ff4081;fill-opacity:1;stroke:none"
       d="M 19.28125 14 L 5.84375 27.4375 C 5.1366432 28.1446 5.1366432 29.5429 5.84375 30.25 L 15.75 40.15625 C 16.457107 40.86335 17.855394 40.86335 18.5625 40.15625 L 32 26.71875 L 32 15.96875 C 31.999899 14.99765 31.011894 14 29.96875 14 L 19.28125 14 z M 29.5 15 C 30.328427 15 31 15.671573 31 16.5 C 31 17.328427 30.328427 18 29.5 18 C 28.671573 18 28 17.328427 28 16.5 C 28 15.671573 28.671573 15 29.5 15 z "
       transform="translate(0,1004.3622)"
       id="rect3806" />
    <path
       style="fill:none;stroke:#343434;stroke-width:2;stroke-linecap:round;stroke-linejoin:miter;stroke-miterlimit:4;stroke-opacity:1;stroke-dasharray:none"
       d="m 30,16 c 3,-3 -2,-6 0,-9"
       id="path3812"
       inkscape:connector-curvature="0"
       transform="translate(0,1004.3622)"
       sodipodi:nodetypes="cc" />
    <path
       inkscape:connector-curvature="0"
       id="path3778"
       d="m 14.763845,1030.6765 -0.861787,1.5689 0.83969,0.8397 -0.618719,0.6187 0.883884,0.8839 0.618718,-0.6187 1.767767,1.7677 c 0.879714,0.8797 1.760699,0.891 2.607456,0.044 0.357461,-0.3574 0.579249,-0.6568 0.662913,-0.9281 l -0.905981,-0.9057 c -0.06085,0.2079 -0.160504,0.3814 -0.287262,0.5082 -0.321972,0.322 -0.655029,0.2731 -1.06066,-0.1326 l -1.568893,-1.5689 0.861786,-0.8618 -0.883883,-0.8838 -0.861787,0.8617 -1.193242,-1.1932 z m 7.314135,-7.3141 -0.839689,1.5468 0.839689,0.8396 -0.618718,0.6188 0.883883,0.8838 0.618719,-0.6187 1.767767,1.7678 c 0.879713,0.8797 1.760699,0.8909 2.607456,0.044 0.357461,-0.3575 0.579248,-0.6568 0.662913,-0.9281 l -0.905981,-0.906 c -0.06085,0.2079 -0.160504,0.3815 -0.287262,0.5083 -0.321972,0.3219 -0.677126,0.2951 -1.082757,-0.1105 l -1.568893,-1.5689 0.883883,-0.8839 -0.883883,-0.8839 -0.883884,0.8839 -1.193243,-1.1932 z m -4.971844,7.3583 3.18198,0.7071 0.618719,3.2704 1.392116,-1.3921 -0.508233,-1.6131 c -0.05578,-0.1876 -0.130424,-0.3638 -0.198874,-0.5083 l 0.0221,-0.022 c 0.215491,0.089 0.378936,0.1609 0.508233,0.1989 l 1.635184,0.4861 1.392116,-1.3921 -3.292466,-0.7292 -0.596621,-3.1599 -1.303728,1.3038 0.508233,1.6572 c 0.06085,0.1978 0.14238,0.3707 0.220971,0.5304 l -0.0221,0.022 c -0.129295,-0.069 -0.312302,-0.15 -0.53033,-0.221 l -1.635185,-0.5303 -1.392116,1.3921 z m -1.480505,6.9164 c -0.202815,0.2028 -0.311174,0.4315 -0.331456,0.685 -0.01775,0.251 0.08263,0.4804 0.265165,0.6629 0.177463,0.1775 0.387295,0.2532 0.640815,0.2431 0.253519,-0.01 0.465166,-0.1116 0.662913,-0.3094 0.212955,-0.2129 0.33834,-0.4586 0.353553,-0.7071 0.01521,-0.2535 -0.058,-0.4557 -0.243068,-0.6408 -0.179999,-0.18 -0.414463,-0.2804 -0.662912,-0.2652 -0.24845,0.01 -0.479659,0.1261 -0.68501,0.3315 z"
       style="font-size:11.01408194999999957px;font-style:normal;font-variant:normal;font-weight:normal;font-stretch:normal;text-align:center;line-height:100%;letter-spacing:0px;word-spacing:0px;text-anchor:middle;fill:#000000;fill-opacity:1;stroke:none;font-family:Segoe UI;-inkscape-font-specification:Segoe UI;opacity:0.1" />
    <path
       style="font-size:11.01408195px;font-style:normal;font-variant:normal;font-weight:normal;font-stretch:normal;text-align:center;line-height:100%;letter-spacing:0px;word-spacing:0px;text-anchor:middle;fill:#ffffff;fill-opacity:1;stroke:none;font-family:Segoe UI;-inkscape-font-specification:Segoe UI"
       d="M 13.861787,1029.8097 13,1031.3786 l 0.83969,0.8397 -0.618719,0.6187 0.883884,0.8839 0.618718,-0.6187 1.767767,1.7677 c 0.879714,0.8797 1.760699,0.891 2.607456,0.044 0.357461,-0.3574 0.579249,-0.6568 0.662913,-0.9281 l -0.905981,-0.9057 c -0.06085,0.2079 -0.160504,0.3814 -0.287262,0.5082 -0.321972,0.322 -0.655029,0.2731 -1.06066,-0.1326 l -1.568893,-1.5689 0.861786,-0.8618 -0.883883,-0.8838 -0.861787,0.8617 -1.193242,-1.1932 z m 7.314135,-7.3141 -0.839689,1.5468 0.839689,0.8396 -0.618718,0.6188 0.883883,0.8838 0.618719,-0.6187 1.767767,1.7678 c 0.879713,0.8797 1.760699,0.8909 2.607456,0.044 0.357461,-0.3575 0.579248,-0.6568 0.662913,-0.9281 l -0.905981,-0.906 c -0.06085,0.2079 -0.160504,0.3815 -0.287262,0.5083 -0.321972,0.3219 -0.677126,0.2951 -1.082757,-0.1105 l -1.568893,-1.5689 0.883883,-0.8839 -0.883883,-0.8839 -0.883884,0.8839 -1.193243,-1.1932 z m -4.971844,7.3583 3.18198,0.7071 0.618719,3.2704 1.392116,-1.3921 -0.508233,-1.6131 c -0.05578,-0.1876 -0.130424,-0.3638 -0.198874,-0.5083 l 0.0221,-0.022 c 0.215491,0.089 0.378936,0.1609 0.508233,0.1989 l 1.635184,0.4861 1.392116,-1.3921 -3.292466,-0.7292 -0.596621,-3.1599 -1.303728,1.3038 0.508233,1.6572 c 0.06085,0.1978 0.14238,0.3707 0.220971,0.5304 l -0.0221,0.022 c -0.129295,-0.069 -0.312302,-0.15 -0.53033,-0.221 l -1.635185,-0.5303 -1.392116,1.3921 z m -1.480505,6.9164 c -0.202815,0.2028 -0.311174,0.4315 -0.331456,0.685 -0.01775,0.251 0.08263,0.4804 0.265165,0.6629 0.177463,0.1775 0.387295,0.2532 0.640815,0.2431 0.253519,-0.01 0.465166,-0.1116 0.662913,-0.3094 0.212955,-0.2129 0.33834,-0.4586 0.353553,-0.7071 0.01521,-0.2535 -0.058,-0.4557 -0.243068,-0.6408 -0.179999,-0.18 -0.414463,-0.2804 -0.662912,-0.2652 -0.24845,0.01 -0.479659,0.1261 -0.68501,0.3315 z"
       id="text3005"
       inkscape:connector-curvature="0" />
  </g>
</svg>
