<?xml version="1.0" encoding="UTF-8" standalone="no"?>
<!-- Created with Inkscape (http://www.inkscape.org/) -->

<svg
   xmlns:dc="http://purl.org/dc/elements/1.1/"
   xmlns:cc="http://creativecommons.org/ns#"
   xmlns:rdf="http://www.w3.org/1999/02/22-rdf-syntax-ns#"
   xmlns:svg="http://www.w3.org/2000/svg"
   xmlns="http://www.w3.org/2000/svg"
   xmlns:xlink="http://www.w3.org/1999/xlink"
   xmlns:sodipodi="http://sodipodi.sourceforge.net/DTD/sodipodi-0.dtd"
   xmlns:inkscape="http://www.inkscape.org/namespaces/inkscape"
   width="48"
   height="48"
   id="svg2"
   version="1.1"
   inkscape:version="0.48.4 r9939"
   sodipodi:docname="folder-apple.svg">
  <defs
     id="defs4">
    <linearGradient
       id="linearGradient3768">
      <stop
         style="stop-color:#ffb74d;stop-opacity:1;"
         offset="0"
         id="stop3770" />
      <stop
         style="stop-color:#ffbf61;stop-opacity:1;"
         offset="1"
         id="stop3772" />
    </linearGradient>
    <linearGradient
       id="linearGradient3819">
      <stop
         style="stop-color:#000000;stop-opacity:1;"
         offset="0"
         id="stop3821" />
      <stop
         style="stop-color:#ffffff;stop-opacity:1;"
         offset="1"
         id="stop3823" />
    </linearGradient>
    <linearGradient
       inkscape:collect="always"
       xlink:href="#linearGradient3819"
       id="linearGradient3825"
       x1="24"
       y1="1028.3622"
       x2="46"
       y2="1006.3622"
       gradientUnits="userSpaceOnUse"
       spreadMethod="repeat" />
    <linearGradient
       inkscape:collect="always"
       xlink:href="#linearGradient3819"
       id="linearGradient3829"
       gradientUnits="userSpaceOnUse"
       spreadMethod="repeat"
       x1="45"
       y1="1049.3622"
       x2="12"
       y2="1016.3622" />
    <linearGradient
       inkscape:collect="always"
       xlink:href="#linearGradient3768"
       id="linearGradient3774"
       x1="24"
       y1="1050.3622"
       x2="24"
       y2="1006.3622"
       gradientUnits="userSpaceOnUse" />
  </defs>
  <sodipodi:namedview
     id="base"
     pagecolor="#ffffff"
     bordercolor="#666666"
     borderopacity="1.0"
     inkscape:pageopacity="0.0"
     inkscape:pageshadow="2"
     inkscape:zoom="10.108768"
     inkscape:cx="27.971224"
     inkscape:cy="23.309353"
     inkscape:document-units="px"
     inkscape:current-layer="layer1"
     showgrid="true"
     inkscape:snap-bbox="true"
     inkscape:window-width="1301"
     inkscape:window-height="744"
     inkscape:window-x="65"
     inkscape:window-y="24"
     inkscape:window-maximized="1"
     inkscape:object-nodes="true"
     inkscape:snap-nodes="false"
     showguides="true"
     inkscape:guide-bbox="true"
     inkscape:snap-global="true">
    <inkscape:grid
       type="xygrid"
       id="grid3005"
       empspacing="6"
       visible="true"
       enabled="true"
       snapvisiblegridlinesonly="true" />
  </sodipodi:namedview>
  <metadata
     id="metadata7">
    <rdf:RDF>
      <cc:Work
         rdf:about="">
        <dc:format>image/svg+xml</dc:format>
        <dc:type
           rdf:resource="http://purl.org/dc/dcmitype/StillImage" />
        <dc:title />
      </cc:Work>
    </rdf:RDF>
  </metadata>
  <g
     inkscape:label="Layer 1"
     inkscape:groupmode="layer"
     id="layer1"
     transform="translate(0,-1004.3622)">
    <path
       style="fill:#a05f00;fill-opacity:1;stroke:none"
       d="m 24,1008.3622 c -24,0 -24,0 -24,20 l 48,0 c 0,-20 0,-20 -24,-20 z"
       id="path3797"
       inkscape:connector-curvature="0" />
    <path
       id="path3788"
       d="m 24,1051.1116 c -21.2715315,0 -23.66257505,-0.089 -23.9375,-15.4063 0.328125,14.4033 2.9375,14.4063 23.9375,14.4063 21,0 23.609375,0 23.9375,-14.4063 -0.274925,15.3174 -2.665968,15.4063 -23.9375,15.4063 z"
       style="opacity:0.20000000000000001;fill:#ffffff;fill-opacity:1;stroke:none"
       inkscape:connector-curvature="0" />
    <rect
       style="fill:#ffffff;fill-opacity:1;stroke:none"
       id="rect3804"
       width="26"
       height="6.9999828"
       x="18"
       y="1010.3622" />
    <path
       style="fill:#ffffff;fill-opacity:1;stroke:none;opacity:0.3"
       d="M 24 4 C 2.5308478 4 0.30123961 4.120865 0.0625 18.4375 C 0.390625 5.0390625 3 5.03125 24 5.03125 C 45 5.03125 47.609375 5.0390625 47.9375 18.4375 C 47.69876 4.120865 45.469152 4 24 4 z "
       transform="translate(0,1004.3622)"
       id="path3000" />
    <path
       style="fill:url(#linearGradient3774);fill-opacity:1;stroke:none"
       d="M 18.069225,1006.3784 C 0,1006.5415 0,1008.3483 0,1028.3622 c 0,22 0,22 24,22 24,0 24,0 24,-22 0,-16 0,-16 -24,-16 -4,0 -2,-6 -5.930775,-5.9838 z"
       id="path3757"
       inkscape:connector-curvature="0"
       sodipodi:nodetypes="cccccc" />
    <path
       sodipodi:nodetypes="cccccc"
       inkscape:connector-curvature="0"
       id="path3817"
       d="M 18.069225,1006.3784 C 0,1006.5415 0,1008.3483 0,1028.3622 c 0,22 0,22 24,22 24,0 24,0 24,-22 0,-16 0,-16 -24,-16 -4,0 -2,-6 -5.930775,-5.9838 z"
       style="opacity:0.02999998;fill:url(#linearGradient3825);fill-opacity:1;stroke:none" />
    <path
       style="opacity:0.02999998;fill:url(#linearGradient3829);fill-opacity:1;stroke:none"
       d="M 18.069225,1006.3784 C 0,1006.5415 0,1008.3483 0,1028.3622 c 0,22 0,22 24,22 24,0 24,0 24,-22 0,-16 0,-16 -24,-16 -4,0 -2,-6 -5.930775,-5.9838 z"
       id="path3827"
       inkscape:connector-curvature="0"
       sodipodi:nodetypes="cccccc" />
    <path
       style="fill:#ffffff;fill-opacity:1;stroke:none;opacity:0.4"
       d="M 18.0625 2.03125 C 1.9247472 2.1769158 0.21564151 3.7140172 0.03125 18.28125 C 0.27829019 4.5254379 2.2519281 3.1427125 18.0625 3 C 21.993275 2.9838 20 8.96875 24 8.96875 C 45 8.96875 47.609375 8.96875 47.9375 19.6875 C 47.712965 8.1039598 45.550219 8 24 8 C 20 8 21.993275 2.01505 18.0625 2.03125 z "
       transform="translate(0,1004.3622)"
       id="path3808" />
    <g
       transform="matrix(0.77539152,0,0,0.77539152,4.8244393,232.60251)"
       id="g3864"
       style="fill:#000000;fill-opacity:1;opacity:0.1">
      <path
         style="fill:#000000;fill-opacity:1;stroke:none"
         d="m 8.5515428,1030.0037 c -1.1903082,0 -2.4687863,0.3695 -3.677988,1.5787 -3.8620492,4.3237 -1.8295647,10.9587 2.1200063,14.593 0.8239412,0.6042 2.13819,0.8602 2.7918503,0.4038 0.8854886,-0.5986 1.9742056,-0.8614 3.1494866,-0.8614 1.161028,0 2.237579,0.2625 3.117181,0.8434 0.994986,0.384 1.653109,0.5295 2.403959,-0.019 1.470215,-1.235 2.710789,-2.8849 3.531076,-4.6984 0.604746,-1.0437 -2.570335,-1.8283 -2.603142,-4.8872 -0.0215,-2.005 0.555621,-3.7452 2.183281,-4.6688 -0.173573,-0.244 -0.364241,-0.4739 -0.571012,-0.7054 -1.209201,-1.2092 -2.48768,-1.5787 -3.677987,-1.5787 -1.983847,0 -2.771088,1.0413 -4.383356,1.0413 -1.612269,0 -2.399509,-1.0413 -4.3833552,-1.0413 z"
         id="path3866"
         inkscape:connector-curvature="0"
         sodipodi:nodetypes="scccscccsccsss" />
      <path
         style="fill:#000000;fill-opacity:1;stroke:none"
         d="m 19.032346,1023.6889 c -0.746554,0.012 -1.489593,0.1381 -2.191984,0.423 -0.733238,0.2973 -1.424254,0.732 -2.018935,1.3267 -0.59468,0.5947 -1.029388,1.2857 -1.326728,2.019 -0.284832,0.7024 -0.411032,1.4453 -0.423015,2.1919 1.525898,-0.025 3.046576,-0.5853 4.21092,-1.7497 1.164344,-1.1643 1.725251,-2.6851 1.749742,-4.2109 z"
         id="path3868"
         inkscape:connector-curvature="0" />
    </g>
    <g
       id="g3860"
       transform="matrix(0.77539152,0,0,0.77539152,3.8244394,231.60251)">
      <path
         sodipodi:nodetypes="scccscccsccsss"
         inkscape:connector-curvature="0"
         id="path3064"
         d="m 8.5515428,1030.0037 c -1.1903082,0 -2.4687863,0.3695 -3.677988,1.5787 -3.8620492,4.3237 -1.8295647,10.9587 2.1200063,14.593 0.8239412,0.6042 2.13819,0.8602 2.7918503,0.4038 0.8854886,-0.5986 1.9742056,-0.8614 3.1494866,-0.8614 1.161028,0 2.237579,0.2625 3.117181,0.8434 0.994986,0.384 1.653109,0.5295 2.403959,-0.019 1.470215,-1.235 2.710789,-2.8849 3.531076,-4.6984 0.604746,-1.0437 -2.570335,-1.8283 -2.603142,-4.8872 -0.0215,-2.005 0.555621,-3.7452 2.183281,-4.6688 -0.173573,-0.244 -0.364241,-0.4739 -0.571012,-0.7054 -1.209201,-1.2092 -2.48768,-1.5787 -3.677987,-1.5787 -1.983847,0 -2.771088,1.0413 -4.383356,1.0413 -1.612269,0 -2.399509,-1.0413 -4.3833552,-1.0413 z"
         style="fill:#f9f9f9;fill-opacity:1;stroke:none" />
      <path
         inkscape:connector-curvature="0"
         id="path3852"
         d="m 19.032346,1023.6889 c -0.746554,0.012 -1.489593,0.1381 -2.191984,0.423 -0.733238,0.2973 -1.424254,0.732 -2.018935,1.3267 -0.59468,0.5947 -1.029388,1.2857 -1.326728,2.019 -0.284832,0.7024 -0.411032,1.4453 -0.423015,2.1919 1.525898,-0.025 3.046576,-0.5853 4.21092,-1.7497 1.164344,-1.1643 1.725251,-2.6851 1.749742,-4.2109 z"
         style="fill:#f9f9f9;fill-opacity:1;stroke:none" />
    </g>
  </g>
</svg>
