<?xml version="1.0" encoding="UTF-8" standalone="no"?>
<!-- Created with Inkscape (http://www.inkscape.org/) -->

<svg
   xmlns:dc="http://purl.org/dc/elements/1.1/"
   xmlns:cc="http://creativecommons.org/ns#"
   xmlns:rdf="http://www.w3.org/1999/02/22-rdf-syntax-ns#"
   xmlns:svg="http://www.w3.org/2000/svg"
   xmlns="http://www.w3.org/2000/svg"
   xmlns:xlink="http://www.w3.org/1999/xlink"
   xmlns:sodipodi="http://sodipodi.sourceforge.net/DTD/sodipodi-0.dtd"
   xmlns:inkscape="http://www.inkscape.org/namespaces/inkscape"
   width="48"
   height="48"
   id="svg2"
   version="1.1"
   inkscape:version="0.48.4 r9939"
   sodipodi:docname="folder-joomla.svg">
  <defs
     id="defs4">
    <linearGradient
       id="linearGradient3768">
      <stop
         style="stop-color:#ffb74d;stop-opacity:1;"
         offset="0"
         id="stop3770" />
      <stop
         style="stop-color:#ffbf61;stop-opacity:1;"
         offset="1"
         id="stop3772" />
    </linearGradient>
    <linearGradient
       id="linearGradient3819">
      <stop
         style="stop-color:#000000;stop-opacity:1;"
         offset="0"
         id="stop3821" />
      <stop
         style="stop-color:#ffffff;stop-opacity:1;"
         offset="1"
         id="stop3823" />
    </linearGradient>
    <linearGradient
       inkscape:collect="always"
       xlink:href="#linearGradient3819"
       id="linearGradient3825"
       x1="24"
       y1="1028.3622"
       x2="46"
       y2="1006.3622"
       gradientUnits="userSpaceOnUse"
       spreadMethod="repeat" />
    <linearGradient
       inkscape:collect="always"
       xlink:href="#linearGradient3819"
       id="linearGradient3829"
       gradientUnits="userSpaceOnUse"
       spreadMethod="repeat"
       x1="45"
       y1="1049.3622"
       x2="12"
       y2="1016.3622" />
    <linearGradient
       inkscape:collect="always"
       xlink:href="#linearGradient3768"
       id="linearGradient3774"
       x1="24"
       y1="1050.3622"
       x2="24"
       y2="1006.3622"
       gradientUnits="userSpaceOnUse" />
  </defs>
  <sodipodi:namedview
     id="base"
     pagecolor="#ffffff"
     bordercolor="#666666"
     borderopacity="1.0"
     inkscape:pageopacity="0.0"
     inkscape:pageshadow="2"
     inkscape:zoom="11.583333"
     inkscape:cx="5.443357"
     inkscape:cy="21.17963"
     inkscape:document-units="px"
     inkscape:current-layer="layer1"
     showgrid="true"
     inkscape:snap-bbox="true"
     inkscape:window-width="1301"
     inkscape:window-height="744"
     inkscape:window-x="65"
     inkscape:window-y="24"
     inkscape:window-maximized="1"
     inkscape:object-nodes="false"
     inkscape:snap-nodes="true"
     showguides="true"
     inkscape:guide-bbox="true">
    <inkscape:grid
       type="xygrid"
       id="grid3005"
       empspacing="6"
       visible="true"
       enabled="true"
       snapvisiblegridlinesonly="true" />
  </sodipodi:namedview>
  <metadata
     id="metadata7">
    <rdf:RDF>
      <cc:Work
         rdf:about="">
        <dc:format>image/svg+xml</dc:format>
        <dc:type
           rdf:resource="http://purl.org/dc/dcmitype/StillImage" />
        <dc:title />
      </cc:Work>
    </rdf:RDF>
  </metadata>
  <g
     inkscape:label="Layer 1"
     inkscape:groupmode="layer"
     id="layer1"
     transform="translate(0,-1004.3622)">
    <path
       style="fill:#a05f00;fill-opacity:1;stroke:none"
       d="m 24,1008.3622 c -24,0 -24,0 -24,20 l 48,0 c 0,-20 0,-20 -24,-20 z"
       id="path3797"
       inkscape:connector-curvature="0" />
    <path
       id="path3788"
       d="m 24,1051.1116 c -21.2715315,0 -23.66257505,-0.089 -23.9375,-15.4063 0.328125,14.4033 2.9375,14.4063 23.9375,14.4063 21,0 23.609375,0 23.9375,-14.4063 -0.274925,15.3174 -2.665968,15.4063 -23.9375,15.4063 z"
       style="opacity:0.20000000000000001;fill:#ffffff;fill-opacity:1;stroke:none"
       inkscape:connector-curvature="0" />
    <rect
       style="fill:#ffffff;fill-opacity:1;stroke:none"
       id="rect3804"
       width="26"
       height="6.9999828"
       x="18"
       y="1010.3622" />
    <path
       style="fill:#ffffff;fill-opacity:1;stroke:none;opacity:0.3"
       d="M 24 4 C 2.5308478 4 0.30123961 4.120865 0.0625 18.4375 C 0.390625 5.0390625 3 5.03125 24 5.03125 C 45 5.03125 47.609375 5.0390625 47.9375 18.4375 C 47.69876 4.120865 45.469152 4 24 4 z "
       transform="translate(0,1004.3622)"
       id="path3000" />
    <path
       style="fill:url(#linearGradient3774);fill-opacity:1;stroke:none"
       d="M 18.069225,1006.3784 C 0,1006.5415 0,1008.3483 0,1028.3622 c 0,22 0,22 24,22 24,0 24,0 24,-22 0,-16 0,-16 -24,-16 -4,0 -2,-6 -5.930775,-5.9838 z"
       id="path3757"
       inkscape:connector-curvature="0"
       sodipodi:nodetypes="cccccc" />
    <path
       sodipodi:nodetypes="cccccc"
       inkscape:connector-curvature="0"
       id="path3817"
       d="M 18.069225,1006.3784 C 0,1006.5415 0,1008.3483 0,1028.3622 c 0,22 0,22 24,22 24,0 24,0 24,-22 0,-16 0,-16 -24,-16 -4,0 -2,-6 -5.930775,-5.9838 z"
       style="opacity:0.02999998;fill:url(#linearGradient3825);fill-opacity:1;stroke:none" />
    <path
       style="opacity:0.02999998;fill:url(#linearGradient3829);fill-opacity:1;stroke:none"
       d="M 18.069225,1006.3784 C 0,1006.5415 0,1008.3483 0,1028.3622 c 0,22 0,22 24,22 24,0 24,0 24,-22 0,-16 0,-16 -24,-16 -4,0 -2,-6 -5.930775,-5.9838 z"
       id="path3827"
       inkscape:connector-curvature="0"
       sodipodi:nodetypes="cccccc" />
    <path
       style="fill:#ffffff;fill-opacity:1;stroke:none;opacity:0.4"
       d="M 18.0625 2.03125 C 1.9247472 2.1769158 0.21564151 3.7140172 0.03125 18.28125 C 0.27829019 4.5254379 2.2519281 3.1427125 18.0625 3 C 21.993275 2.9838 20 8.96875 24 8.96875 C 45 8.96875 47.609375 8.96875 47.9375 19.6875 C 47.712965 8.1039598 45.550219 8 24 8 C 20 8 21.993275 2.01505 18.0625 2.03125 z "
       transform="translate(0,1004.3622)"
       id="path3808" />
    <path
       style="fill:#000000;fill-opacity:1;stroke:none;opacity:0.1"
       d="M 29.5 15 C 28.671573 15 28 15.671573 28 16.5 C 28 17.18 28.442198 17.753531 29.0625 17.9375 C 29.022344 17.802106 29 17.648422 29 17.5 C 29 16.6716 29.671573 16 30.5 16 C 30.648427 16 30.802104 16.022343 30.9375 16.0625 C 30.753531 15.442198 30.18 15 29.5 15 z M 31.84375 15.25 C 31.952689 15.480091 31.999975 15.725975 32 15.96875 L 32 17.5 L 32 26.71875 L 18.5625 40.15625 C 17.855394 40.86335 16.457107 40.86335 15.75 40.15625 L 16.75 41.15625 C 17.457107 41.86335 18.855394 41.86335 19.5625 41.15625 L 33 27.71875 L 33 16.96875 C 32.999929 16.286838 32.495106 15.603478 31.84375 15.25 z "
       transform="translate(0,1004.3622)"
       id="path3818" />
    <path
       style="opacity:1;fill:#ff8f00;fill-opacity:1;stroke:none"
       d="M 19.28125 14 L 5.84375 27.4375 C 5.1366432 28.1446 5.1366432 29.5429 5.84375 30.25 L 15.75 40.15625 C 16.457107 40.86335 17.855394 40.86335 18.5625 40.15625 L 32 26.71875 L 32 15.96875 C 31.999899 14.99765 31.011894 14 29.96875 14 L 19.28125 14 z M 29.5 15 C 30.328427 15 31 15.671573 31 16.5 C 31 17.328427 30.328427 18 29.5 18 C 28.671573 18 28 17.328427 28 16.5 C 28 15.671573 28.671573 15 29.5 15 z "
       transform="translate(0,1004.3622)"
       id="rect3806" />
    <path
       style="fill:none;stroke:#343434;stroke-width:2;stroke-linecap:round;stroke-linejoin:miter;stroke-miterlimit:4;stroke-opacity:1;stroke-dasharray:none"
       d="m 30,16 c 3,-3 -2,-6 0,-9"
       id="path3812"
       inkscape:connector-curvature="0"
       transform="translate(0,1004.3622)"
       sodipodi:nodetypes="cc" />
    <path
       style="fill:#000000;fill-opacity:1;fill-rule:evenodd;stroke:none;opacity:0.1"
       d="m 13.44268,1030.4317 c 0.285217,-0.271 0.668316,-0.4422 1.096413,-0.4422 0.356935,0 0.684152,0.1095 0.946173,0.3095 0.404649,-0.6399 1.110485,-1.0694 1.918874,-1.0699 l 1.167186,0 3.6e-5,-1.1672 c 2.5e-5,-0.8088 0.429945,-1.5142 1.069922,-1.9189 -0.200005,-0.262 -0.318337,-0.5804 -0.31835,-0.9373 1.01e-4,-0.8561 0.693708,-1.5562 1.53826,-1.5567 0.844897,0 1.512171,0.6914 1.512141,1.5476 -5.7e-5,0.3568 -0.109493,0.684 -0.309556,0.946 0.639974,0.4046 1.070051,1.1101 1.069956,1.9189 l -0.0088,1.1761 1.167257,0 c 0.809151,-10e-5 1.523149,0.4206 1.927615,1.0611 0.262148,-0.2 0.589301,-0.3095 0.946164,-0.3095 0.856194,0 1.547565,0.6672 1.547511,1.5121 8.7e-5,0.8451 -0.700167,1.5385 -1.556646,1.5383 -0.356934,0 -0.675309,-0.1184 -0.937259,-0.3183 -0.404572,0.6405 -1.118775,1.0608 -1.927784,1.061 l -1.167327,-10e-5 -3.6e-5,1.1672 c -1.49e-4,0.8091 -0.420545,1.5232 -1.061012,1.9278 0.199935,0.2619 0.309494,0.5892 0.309436,0.9461 -1.71e-4,0.856 -0.675961,1.5386 -1.520575,1.5389 -0.844907,10e-5 -1.529852,-0.6913 -1.529825,-1.5475 5.7e-5,-0.3568 0.118332,-0.6752 0.318323,-0.9373 -0.6405,-0.4044 -1.06112,-1.1185 -1.061042,-1.9276 l -3.5e-5,-1.1673 -1.167257,0 c -0.808743,10e-5 -1.523119,-0.4211 -1.927686,-1.0611 -0.262147,0.1999 -0.580391,0.3183 -0.937254,0.3184 -0.856194,0 -1.547561,-0.6849 -1.547503,-1.5298 2.7e-5,-0.4225 0.161503,-0.8032 0.442193,-1.0788 z m 6.578806,-3.2011 c -0.20994,0.21 -0.335933,0.5035 -0.335983,0.8313 l 3.6e-5,1.1672 2.334372,0 3.6e-5,-1.1672 c 2.8e-5,-0.6555 -0.511715,-1.1673 -1.167221,-1.1673 -0.327723,10e-5 -0.6213,0.1261 -0.83124,0.336 z m -3.439417,3.4578 c -0.209156,0.2092 -0.344843,0.4946 -0.344821,0.8224 -2.7e-5,0.6555 0.511636,1.1672 1.167151,1.1672 l 1.167256,0 0.0088,-2.3256 -1.167257,0 c -0.327722,0 -0.621165,0.1277 -0.831169,0.336 z m 3.103799,-0.3448 -1e-6,2.3345 2.325605,-0.01 -4e-6,-2.3167 -2.325529,-0.01 z m -2.1e-5,3.4309 3.5e-5,1.1673 c -1.8e-5,0.6555 0.511704,1.1672 1.167221,1.1672 0.655507,0 1.15829,-0.5029 1.158379,-1.1584 l -3.4e-5,-1.1672 z m 3.440117,-3.4217 3e-6,2.3168 1.167186,-10e-5 c 0.655507,0 1.167195,-0.5117 1.167222,-1.1672 9.7e-5,-0.6554 -0.511718,-1.1496 -1.167221,-1.1495 z"
       id="path3005"
       inkscape:connector-curvature="0"
       sodipodi:nodetypes="cccccccccscccccccccccccccccccccccccscccccscsccccccccccccccccccccscc" />
    <path
       sodipodi:nodetypes="cccccccccscccccccccccccccccccccccccscccccscsccccccccccccccccccccscc"
       inkscape:connector-curvature="0"
       id="path3001"
       d="m 12.44268,1029.4317 c 0.285217,-0.271 0.668316,-0.4422 1.096413,-0.4422 0.356935,0 0.684152,0.1095 0.946173,0.3095 0.404649,-0.6399 1.110485,-1.0694 1.918874,-1.0699 l 1.167186,0 3.6e-5,-1.1672 c 2.5e-5,-0.8088 0.429945,-1.5142 1.069922,-1.9189 -0.200005,-0.262 -0.318337,-0.5804 -0.31835,-0.9373 1.01e-4,-0.8561 0.693708,-1.5562 1.53826,-1.5567 0.844897,0 1.512171,0.6914 1.512141,1.5476 -5.7e-5,0.3568 -0.109493,0.684 -0.309556,0.946 0.639974,0.4046 1.070051,1.1101 1.069956,1.9189 l -0.0088,1.1761 1.167257,0 c 0.809151,-10e-5 1.523149,0.4206 1.927615,1.0611 0.262148,-0.2 0.589301,-0.3095 0.946164,-0.3095 0.856194,0 1.547565,0.6672 1.547511,1.5121 8.7e-5,0.8451 -0.700167,1.5385 -1.556646,1.5383 -0.356934,0 -0.675309,-0.1184 -0.937259,-0.3183 -0.404572,0.6405 -1.118775,1.0608 -1.927784,1.061 l -1.167327,-10e-5 -3.6e-5,1.1672 c -1.49e-4,0.8091 -0.420545,1.5232 -1.061012,1.9278 0.199935,0.2619 0.309494,0.5892 0.309436,0.9461 -1.71e-4,0.856 -0.675961,1.5386 -1.520575,1.5389 -0.844907,10e-5 -1.529852,-0.6913 -1.529825,-1.5475 5.7e-5,-0.3568 0.118332,-0.6752 0.318323,-0.9373 -0.6405,-0.4044 -1.06112,-1.1185 -1.061042,-1.9276 l -3.5e-5,-1.1673 -1.167257,0 c -0.808743,10e-5 -1.523119,-0.4211 -1.927686,-1.0611 -0.262147,0.1999 -0.580391,0.3183 -0.937254,0.3184 -0.856194,0 -1.547561,-0.6849 -1.547503,-1.5298 2.7e-5,-0.4225 0.161503,-0.8032 0.442193,-1.0788 z m 6.578806,-3.2011 c -0.20994,0.21 -0.335933,0.5035 -0.335983,0.8313 l 3.6e-5,1.1672 2.334372,0 3.6e-5,-1.1672 c 2.8e-5,-0.6555 -0.511715,-1.1673 -1.167221,-1.1673 -0.327723,10e-5 -0.6213,0.1261 -0.83124,0.336 z m -3.439417,3.4578 c -0.209156,0.2092 -0.344843,0.4946 -0.344821,0.8224 -2.7e-5,0.6555 0.511636,1.1672 1.167151,1.1672 l 1.167256,0 0.0088,-2.3256 -1.167257,0 c -0.327722,0 -0.621165,0.1277 -0.831169,0.336 z m 3.103799,-0.3448 -1e-6,2.3345 2.325605,-0.01 -4e-6,-2.3167 -2.325529,-0.01 z m -2.1e-5,3.4309 3.5e-5,1.1673 c -1.8e-5,0.6555 0.511704,1.1672 1.167221,1.1672 0.655507,0 1.15829,-0.5029 1.158379,-1.1584 l -3.4e-5,-1.1672 z m 3.440117,-3.4217 3e-6,2.3168 1.167186,-10e-5 c 0.655507,0 1.167195,-0.5117 1.167222,-1.1672 9.7e-5,-0.6554 -0.511718,-1.1496 -1.167221,-1.1495 z"
       style="fill:#ffffff;fill-opacity:1;fill-rule:evenodd;stroke:none" />
  </g>
</svg>
