<?xml version="1.0" encoding="UTF-8" standalone="no"?>
<!-- Created with Inkscape (http://www.inkscape.org/) -->

<svg
   xmlns:dc="http://purl.org/dc/elements/1.1/"
   xmlns:cc="http://creativecommons.org/ns#"
   xmlns:rdf="http://www.w3.org/1999/02/22-rdf-syntax-ns#"
   xmlns:svg="http://www.w3.org/2000/svg"
   xmlns="http://www.w3.org/2000/svg"
   xmlns:xlink="http://www.w3.org/1999/xlink"
   xmlns:sodipodi="http://sodipodi.sourceforge.net/DTD/sodipodi-0.dtd"
   xmlns:inkscape="http://www.inkscape.org/namespaces/inkscape"
   width="48"
   height="48"
   id="svg2"
   version="1.1"
   inkscape:version="0.48.4 r9939"
   sodipodi:docname="folder-asp.svg">
  <defs
     id="defs4">
    <linearGradient
       id="linearGradient3768">
      <stop
         style="stop-color:#ffb74d;stop-opacity:1;"
         offset="0"
         id="stop3770" />
      <stop
         style="stop-color:#ffbf61;stop-opacity:1;"
         offset="1"
         id="stop3772" />
    </linearGradient>
    <linearGradient
       id="linearGradient3819">
      <stop
         style="stop-color:#000000;stop-opacity:1;"
         offset="0"
         id="stop3821" />
      <stop
         style="stop-color:#ffffff;stop-opacity:1;"
         offset="1"
         id="stop3823" />
    </linearGradient>
    <linearGradient
       inkscape:collect="always"
       xlink:href="#linearGradient3819"
       id="linearGradient3825"
       x1="24"
       y1="1028.3622"
       x2="46"
       y2="1006.3622"
       gradientUnits="userSpaceOnUse"
       spreadMethod="repeat" />
    <linearGradient
       inkscape:collect="always"
       xlink:href="#linearGradient3819"
       id="linearGradient3829"
       gradientUnits="userSpaceOnUse"
       spreadMethod="repeat"
       x1="45"
       y1="1049.3622"
       x2="12"
       y2="1016.3622" />
    <linearGradient
       inkscape:collect="always"
       xlink:href="#linearGradient3768"
       id="linearGradient3774"
       x1="24"
       y1="1050.3622"
       x2="24"
       y2="1006.3622"
       gradientUnits="userSpaceOnUse" />
  </defs>
  <sodipodi:namedview
     id="base"
     pagecolor="#ffffff"
     bordercolor="#666666"
     borderopacity="1.0"
     inkscape:pageopacity="0.0"
     inkscape:pageshadow="2"
     inkscape:zoom="11.583333"
     inkscape:cx="18.27772"
     inkscape:cy="25.682189"
     inkscape:document-units="px"
     inkscape:current-layer="layer1"
     showgrid="true"
     inkscape:snap-bbox="true"
     inkscape:window-width="1301"
     inkscape:window-height="744"
     inkscape:window-x="65"
     inkscape:window-y="24"
     inkscape:window-maximized="1"
     inkscape:object-nodes="false"
     inkscape:snap-nodes="true"
     showguides="true"
     inkscape:guide-bbox="true">
    <inkscape:grid
       type="xygrid"
       id="grid3005"
       empspacing="6"
       visible="true"
       enabled="true"
       snapvisiblegridlinesonly="true" />
  </sodipodi:namedview>
  <metadata
     id="metadata7">
    <rdf:RDF>
      <cc:Work
         rdf:about="">
        <dc:format>image/svg+xml</dc:format>
        <dc:type
           rdf:resource="http://purl.org/dc/dcmitype/StillImage" />
        <dc:title />
      </cc:Work>
    </rdf:RDF>
  </metadata>
  <g
     inkscape:label="Layer 1"
     inkscape:groupmode="layer"
     id="layer1"
     transform="translate(0,-1004.3622)">
    <path
       style="fill:#a05f00;fill-opacity:1;stroke:none"
       d="m 24,1008.3622 c -24,0 -24,0 -24,20 l 48,0 c 0,-20 0,-20 -24,-20 z"
       id="path3797"
       inkscape:connector-curvature="0" />
    <path
       id="path3788"
       d="m 24,1051.1116 c -21.2715315,0 -23.66257505,-0.089 -23.9375,-15.4063 0.328125,14.4033 2.9375,14.4063 23.9375,14.4063 21,0 23.609375,0 23.9375,-14.4063 -0.274925,15.3174 -2.665968,15.4063 -23.9375,15.4063 z"
       style="opacity:0.20000000000000001;fill:#ffffff;fill-opacity:1;stroke:none"
       inkscape:connector-curvature="0" />
    <rect
       style="fill:#ffffff;fill-opacity:1;stroke:none"
       id="rect3804"
       width="26"
       height="6.9999828"
       x="18"
       y="1010.3622" />
    <path
       style="fill:#ffffff;fill-opacity:1;stroke:none;opacity:0.3"
       d="M 24 4 C 2.5308478 4 0.30123961 4.120865 0.0625 18.4375 C 0.390625 5.0390625 3 5.03125 24 5.03125 C 45 5.03125 47.609375 5.0390625 47.9375 18.4375 C 47.69876 4.120865 45.469152 4 24 4 z "
       transform="translate(0,1004.3622)"
       id="path3000" />
    <path
       style="fill:url(#linearGradient3774);fill-opacity:1;stroke:none"
       d="M 18.069225,1006.3784 C 0,1006.5415 0,1008.3483 0,1028.3622 c 0,22 0,22 24,22 24,0 24,0 24,-22 0,-16 0,-16 -24,-16 -4,0 -2,-6 -5.930775,-5.9838 z"
       id="path3757"
       inkscape:connector-curvature="0"
       sodipodi:nodetypes="cccccc" />
    <path
       sodipodi:nodetypes="cccccc"
       inkscape:connector-curvature="0"
       id="path3817"
       d="M 18.069225,1006.3784 C 0,1006.5415 0,1008.3483 0,1028.3622 c 0,22 0,22 24,22 24,0 24,0 24,-22 0,-16 0,-16 -24,-16 -4,0 -2,-6 -5.930775,-5.9838 z"
       style="opacity:0.02999998;fill:url(#linearGradient3825);fill-opacity:1;stroke:none" />
    <path
       style="opacity:0.02999998;fill:url(#linearGradient3829);fill-opacity:1;stroke:none"
       d="M 18.069225,1006.3784 C 0,1006.5415 0,1008.3483 0,1028.3622 c 0,22 0,22 24,22 24,0 24,0 24,-22 0,-16 0,-16 -24,-16 -4,0 -2,-6 -5.930775,-5.9838 z"
       id="path3827"
       inkscape:connector-curvature="0"
       sodipodi:nodetypes="cccccc" />
    <path
       style="fill:#ffffff;fill-opacity:1;stroke:none;opacity:0.4"
       d="M 18.0625 2.03125 C 1.9247472 2.1769158 0.21564151 3.7140172 0.03125 18.28125 C 0.27829019 4.5254379 2.2519281 3.1427125 18.0625 3 C 21.993275 2.9838 20 8.96875 24 8.96875 C 45 8.96875 47.609375 8.96875 47.9375 19.6875 C 47.712965 8.1039598 45.550219 8 24 8 C 20 8 21.993275 2.01505 18.0625 2.03125 z "
       transform="translate(0,1004.3622)"
       id="path3808" />
    <path
       style="fill:#000000;fill-opacity:1;stroke:none;opacity:0.1"
       d="M 29.5 15 C 28.671573 15 28 15.671573 28 16.5 C 28 17.18 28.442198 17.753531 29.0625 17.9375 C 29.022344 17.802106 29 17.648422 29 17.5 C 29 16.6716 29.671573 16 30.5 16 C 30.648427 16 30.802104 16.022343 30.9375 16.0625 C 30.753531 15.442198 30.18 15 29.5 15 z M 31.84375 15.25 C 31.952689 15.480091 31.999975 15.725975 32 15.96875 L 32 17.5 L 32 26.71875 L 18.5625 40.15625 C 17.855394 40.86335 16.457107 40.86335 15.75 40.15625 L 16.75 41.15625 C 17.457107 41.86335 18.855394 41.86335 19.5625 41.15625 L 33 27.71875 L 33 16.96875 C 32.999929 16.286838 32.495106 15.603478 31.84375 15.25 z "
       transform="translate(0,1004.3622)"
       id="path3818" />
    <path
       style="opacity:1;fill:#ff7043;fill-opacity:1;stroke:none"
       d="M 19.28125 14 L 5.84375 27.4375 C 5.1366432 28.1446 5.1366432 29.5429 5.84375 30.25 L 15.75 40.15625 C 16.457107 40.86335 17.855394 40.86335 18.5625 40.15625 L 32 26.71875 L 32 15.96875 C 31.999899 14.99765 31.011894 14 29.96875 14 L 19.28125 14 z M 29.5 15 C 30.328427 15 31 15.671573 31 16.5 C 31 17.328427 30.328427 18 29.5 18 C 28.671573 18 28 17.328427 28 16.5 C 28 15.671573 28.671573 15 29.5 15 z "
       transform="translate(0,1004.3622)"
       id="rect3806" />
    <path
       style="fill:none;stroke:#343434;stroke-width:2;stroke-linecap:round;stroke-linejoin:miter;stroke-miterlimit:4;stroke-opacity:1;stroke-dasharray:none"
       d="m 30,16 c 3,-3 -2,-6 0,-9"
       id="path3812"
       inkscape:connector-curvature="0"
       transform="translate(0,1004.3622)"
       sodipodi:nodetypes="cc" />
    <path
       inkscape:connector-curvature="0"
       id="path3778"
       d="m 18.246918,1028.2662 c -0.259614,0.2596 -0.485513,0.5319 -0.660871,0.8211 -0.177629,0.2869 -0.281235,0.5651 -0.340449,0.8612 -0.05693,0.2938 -0.04193,0.5942 0.04005,0.8811 0.07971,0.2847 0.245601,0.566 0.500659,0.8211 0.325664,0.3257 0.684701,0.4974 1.101452,0.5407 0.419033,0.041 0.899894,-0.057 1.441901,-0.2804 0.211794,-0.089 0.411774,-0.1697 0.600793,-0.2403 0.189019,-0.071 0.383576,-0.1106 0.540712,-0.1401 0.159414,-0.032 0.290746,-0.041 0.420555,-0.02 0.129808,0.021 0.244799,0.084 0.34045,0.1802 0.0706,0.071 0.112855,0.1648 0.140185,0.2604 0.02505,0.093 0.04508,0.1842 0.02003,0.3004 -0.02505,0.1116 -0.08051,0.2307 -0.160211,0.3604 -0.07743,0.1276 -0.181508,0.2617 -0.320424,0.4005 -0.236845,0.2369 -0.546863,0.4305 -0.861136,0.5809 -0.31655,0.148 -0.636943,0.2484 -1.00132,0.2803 l 1.081427,1.0815 c 0.268726,-0.087 0.57419,-0.2248 0.861136,-0.4206 0.289221,-0.1982 0.552354,-0.4322 0.821081,-0.701 0.261894,-0.2618 0.476405,-0.5363 0.660872,-0.8211 0.186739,-0.2869 0.316733,-0.5696 0.380502,-0.861 0.06148,-0.2939 0.04192,-0.5943 -0.04005,-0.8812 -0.08198,-0.2915 -0.247408,-0.5678 -0.520686,-0.8411 -0.198131,-0.1982 -0.393556,-0.3518 -0.600792,-0.4406 -0.209517,-0.091 -0.433139,-0.1357 -0.660872,-0.1402 -0.227735,-0.01 -0.452694,0.034 -0.700924,0.1001 -0.24823,0.062 -0.543246,0.1465 -0.821083,0.2604 -0.202683,0.084 -0.372188,0.1611 -0.540712,0.2203 -0.1708,0.057 -0.323966,0.077 -0.460608,0.1001 -0.138916,0.021 -0.273464,0.041 -0.380502,0.02 -0.10931,-0.023 -0.198382,-0.078 -0.280369,-0.1602 -0.07515,-0.075 -0.119687,-0.1624 -0.140185,-0.2603 -0.02277,-0.1002 -0.02733,-0.2065 0,-0.3204 0.02733,-0.1139 0.0805,-0.2352 0.160211,-0.3605 0.07743,-0.1275 0.175144,-0.2553 0.300396,-0.3805 0.0911,-0.091 0.206556,-0.1938 0.320423,-0.2803 0.116146,-0.089 0.248417,-0.1475 0.380501,-0.2204 0.12981,-0.075 0.261611,-0.1479 0.400528,-0.2003 0.141196,-0.054 0.261611,-0.095 0.400529,-0.1201 l -1.021347,-1.0213 c -0.23001,0.1025 -0.453162,0.232 -0.680898,0.4005 -0.227731,0.164 -0.465885,0.3858 -0.720951,0.6408 z M 13,1033.6734 l 3.12412,6.6888 1.181557,-1.1816 -0.761004,-1.4418 1.742298,-1.7424 1.461927,0.741 1.201585,-1.2016 -6.648766,-3.1642 L 13,1033.6734 z m 7.569981,-7.57 4.90647,4.9064 1.101452,-1.1014 -1.702244,-1.7023 0.540712,-0.5407 c 0.592109,-0.5921 0.911166,-1.1865 0.961268,-1.8424 0.0501,-0.6604 -0.168966,-1.2504 -0.660871,-1.7423 -1.040747,-1.0407 -2.170167,-0.9539 -3.40449,0.2804 l -1.742297,1.7423 z m 1.942562,-0.2604 0.440581,-0.4405 c 0.587556,-0.5876 1.138873,-0.6235 1.642165,-0.1202 0.51468,0.5147 0.487423,1.0746 -0.100133,1.6622 l -0.44058,0.4406 -1.542033,-1.5421 z m -8.030589,8.1107 0.02003,-0.02 c 0.186744,0.1549 0.379023,0.2562 0.540713,0.3405 l 2.162852,1.1214 -1.261663,1.2617 -1.121479,-2.203 c -0.09565,-0.1866 -0.208361,-0.3457 -0.34045,-0.5006 z"
       style="font-size:10.91684341000000025px;font-style:normal;font-weight:normal;text-align:center;line-height:100%;letter-spacing:0px;word-spacing:0px;text-anchor:middle;fill:#000000;fill-opacity:1;stroke:none;font-family:Sans;opacity:0.1" />
    <path
       style="font-size:10.91684341px;font-style:normal;font-weight:normal;text-align:center;line-height:100%;letter-spacing:0px;word-spacing:0px;text-anchor:middle;fill:#ffffff;fill-opacity:1;stroke:none;font-family:Sans"
       d="m 17.246918,1027.2662 c -0.259614,0.2596 -0.485513,0.5319 -0.660871,0.8211 -0.177629,0.2869 -0.281235,0.5651 -0.340449,0.8612 -0.05693,0.2938 -0.04193,0.5942 0.04005,0.8811 0.07971,0.2847 0.245601,0.566 0.500659,0.8211 0.325664,0.3257 0.684701,0.4974 1.101452,0.5407 0.419033,0.041 0.899894,-0.057 1.441901,-0.2804 0.211794,-0.089 0.411774,-0.1697 0.600793,-0.2403 0.189019,-0.071 0.383576,-0.1106 0.540712,-0.1401 0.159414,-0.032 0.290746,-0.041 0.420555,-0.02 0.129808,0.021 0.244799,0.084 0.34045,0.1802 0.0706,0.071 0.112855,0.1648 0.140185,0.2604 0.02505,0.093 0.04508,0.1842 0.02003,0.3004 -0.02505,0.1116 -0.08051,0.2307 -0.160211,0.3604 -0.07743,0.1276 -0.181508,0.2617 -0.320424,0.4005 -0.236845,0.2369 -0.546863,0.4305 -0.861136,0.5809 -0.31655,0.148 -0.636943,0.2484 -1.00132,0.2803 l 1.081427,1.0815 c 0.268726,-0.087 0.57419,-0.2248 0.861136,-0.4206 0.289221,-0.1982 0.552354,-0.4322 0.821081,-0.701 0.261894,-0.2618 0.476405,-0.5363 0.660872,-0.8211 0.186739,-0.2869 0.316733,-0.5696 0.380502,-0.861 0.06148,-0.2939 0.04192,-0.5943 -0.04005,-0.8812 -0.08198,-0.2915 -0.247408,-0.5678 -0.520686,-0.8411 -0.198131,-0.1982 -0.393556,-0.3518 -0.600792,-0.4406 -0.209517,-0.091 -0.433139,-0.1357 -0.660872,-0.1402 -0.227735,-0.01 -0.452694,0.034 -0.700924,0.1001 -0.24823,0.062 -0.543246,0.1465 -0.821083,0.2604 -0.202683,0.084 -0.372188,0.1611 -0.540712,0.2203 -0.1708,0.057 -0.323966,0.077 -0.460608,0.1001 -0.138916,0.021 -0.273464,0.041 -0.380502,0.02 -0.10931,-0.023 -0.198382,-0.078 -0.280369,-0.1602 -0.07515,-0.075 -0.119687,-0.1624 -0.140185,-0.2603 -0.02277,-0.1002 -0.02733,-0.2065 0,-0.3204 0.02733,-0.1139 0.0805,-0.2352 0.160211,-0.3605 0.07743,-0.1275 0.175144,-0.2553 0.300396,-0.3805 0.0911,-0.091 0.206556,-0.1938 0.320423,-0.2803 0.116146,-0.089 0.248417,-0.1475 0.380501,-0.2204 0.12981,-0.075 0.261611,-0.1479 0.400528,-0.2003 0.141196,-0.054 0.261611,-0.095 0.400529,-0.1201 l -1.021347,-1.0213 c -0.23001,0.1025 -0.453162,0.232 -0.680898,0.4005 -0.227731,0.164 -0.465885,0.3858 -0.720951,0.6408 z M 12,1032.6734 l 3.12412,6.6888 1.181557,-1.1816 -0.761004,-1.4418 1.742298,-1.7424 1.461927,0.741 1.201585,-1.2016 -6.648766,-3.1642 L 12,1032.6734 z m 7.569981,-7.57 4.90647,4.9064 1.101452,-1.1014 -1.702244,-1.7023 0.540712,-0.5407 c 0.592109,-0.5921 0.911166,-1.1865 0.961268,-1.8424 0.0501,-0.6604 -0.168966,-1.2504 -0.660871,-1.7423 -1.040747,-1.0407 -2.170167,-0.9539 -3.40449,0.2804 l -1.742297,1.7423 z m 1.942562,-0.2604 0.440581,-0.4405 c 0.587556,-0.5876 1.138873,-0.6235 1.642165,-0.1202 0.51468,0.5147 0.487423,1.0746 -0.100133,1.6622 l -0.44058,0.4406 -1.542033,-1.5421 z m -8.030589,8.1107 0.02003,-0.02 c 0.186744,0.1549 0.379023,0.2562 0.540713,0.3405 l 2.162852,1.1214 -1.261663,1.2617 -1.121479,-2.203 c -0.09565,-0.1866 -0.208361,-0.3457 -0.34045,-0.5006 z"
       id="text3005"
       inkscape:connector-curvature="0" />
  </g>
</svg>
