<?xml version="1.0" encoding="UTF-8" standalone="no"?>
<!-- Created with Inkscape (http://www.inkscape.org/) -->

<svg
   xmlns:dc="http://purl.org/dc/elements/1.1/"
   xmlns:cc="http://creativecommons.org/ns#"
   xmlns:rdf="http://www.w3.org/1999/02/22-rdf-syntax-ns#"
   xmlns:svg="http://www.w3.org/2000/svg"
   xmlns="http://www.w3.org/2000/svg"
   xmlns:xlink="http://www.w3.org/1999/xlink"
   xmlns:sodipodi="http://sodipodi.sourceforge.net/DTD/sodipodi-0.dtd"
   xmlns:inkscape="http://www.inkscape.org/namespaces/inkscape"
   width="48"
   height="48"
   id="svg2"
   version="1.1"
   inkscape:version="0.48.4 r9939"
   sodipodi:docname="folder-ubuntu.svg">
  <defs
     id="defs4">
    <linearGradient
       id="linearGradient3768">
      <stop
         style="stop-color:#ffb74d;stop-opacity:1;"
         offset="0"
         id="stop3770" />
      <stop
         style="stop-color:#ffbf61;stop-opacity:1;"
         offset="1"
         id="stop3772" />
    </linearGradient>
    <linearGradient
       id="linearGradient3819">
      <stop
         style="stop-color:#000000;stop-opacity:1;"
         offset="0"
         id="stop3821" />
      <stop
         style="stop-color:#ffffff;stop-opacity:1;"
         offset="1"
         id="stop3823" />
    </linearGradient>
    <linearGradient
       inkscape:collect="always"
       xlink:href="#linearGradient3819"
       id="linearGradient3825"
       x1="24"
       y1="1028.3622"
       x2="46"
       y2="1006.3622"
       gradientUnits="userSpaceOnUse"
       spreadMethod="repeat" />
    <linearGradient
       inkscape:collect="always"
       xlink:href="#linearGradient3819"
       id="linearGradient3829"
       gradientUnits="userSpaceOnUse"
       spreadMethod="repeat"
       x1="45"
       y1="1049.3622"
       x2="12"
       y2="1016.3622" />
    <linearGradient
       inkscape:collect="always"
       xlink:href="#linearGradient3768"
       id="linearGradient3774"
       x1="24"
       y1="1050.3622"
       x2="24"
       y2="1006.3622"
       gradientUnits="userSpaceOnUse" />
  </defs>
  <sodipodi:namedview
     id="base"
     pagecolor="#ffffff"
     bordercolor="#666666"
     borderopacity="1.0"
     inkscape:pageopacity="0.0"
     inkscape:pageshadow="2"
     inkscape:zoom="11.583333"
     inkscape:cx="3.1698059"
     inkscape:cy="25.682189"
     inkscape:document-units="px"
     inkscape:current-layer="layer1"
     showgrid="true"
     inkscape:snap-bbox="true"
     inkscape:window-width="1301"
     inkscape:window-height="744"
     inkscape:window-x="65"
     inkscape:window-y="24"
     inkscape:window-maximized="1"
     inkscape:object-nodes="false"
     inkscape:snap-nodes="true"
     showguides="true"
     inkscape:guide-bbox="true">
    <inkscape:grid
       type="xygrid"
       id="grid3005"
       empspacing="6"
       visible="true"
       enabled="true"
       snapvisiblegridlinesonly="true" />
  </sodipodi:namedview>
  <metadata
     id="metadata7">
    <rdf:RDF>
      <cc:Work
         rdf:about="">
        <dc:format>image/svg+xml</dc:format>
        <dc:type
           rdf:resource="http://purl.org/dc/dcmitype/StillImage" />
        <dc:title />
      </cc:Work>
    </rdf:RDF>
  </metadata>
  <g
     inkscape:label="Layer 1"
     inkscape:groupmode="layer"
     id="layer1"
     transform="translate(0,-1004.3622)">
    <path
       style="fill:#a05f00;fill-opacity:1;stroke:none"
       d="m 24,1008.3622 c -24,0 -24,0 -24,20 l 48,0 c 0,-20 0,-20 -24,-20 z"
       id="path3797"
       inkscape:connector-curvature="0" />
    <path
       id="path3788"
       d="m 24,1051.1116 c -21.2715315,0 -23.66257505,-0.089 -23.9375,-15.4063 0.328125,14.4033 2.9375,14.4063 23.9375,14.4063 21,0 23.609375,0 23.9375,-14.4063 -0.274925,15.3174 -2.665968,15.4063 -23.9375,15.4063 z"
       style="opacity:0.20000000000000001;fill:#ffffff;fill-opacity:1;stroke:none"
       inkscape:connector-curvature="0" />
    <rect
       style="fill:#ffffff;fill-opacity:1;stroke:none"
       id="rect3804"
       width="26"
       height="6.9999828"
       x="18"
       y="1010.3622" />
    <path
       style="fill:#ffffff;fill-opacity:1;stroke:none;opacity:0.3"
       d="M 24 4 C 2.5308478 4 0.30123961 4.120865 0.0625 18.4375 C 0.390625 5.0390625 3 5.03125 24 5.03125 C 45 5.03125 47.609375 5.0390625 47.9375 18.4375 C 47.69876 4.120865 45.469152 4 24 4 z "
       transform="translate(0,1004.3622)"
       id="path3000" />
    <path
       style="fill:url(#linearGradient3774);fill-opacity:1;stroke:none"
       d="M 18.069225,1006.3784 C 0,1006.5415 0,1008.3483 0,1028.3622 c 0,22 0,22 24,22 24,0 24,0 24,-22 0,-16 0,-16 -24,-16 -4,0 -2,-6 -5.930775,-5.9838 z"
       id="path3757"
       inkscape:connector-curvature="0"
       sodipodi:nodetypes="cccccc" />
    <path
       sodipodi:nodetypes="cccccc"
       inkscape:connector-curvature="0"
       id="path3817"
       d="M 18.069225,1006.3784 C 0,1006.5415 0,1008.3483 0,1028.3622 c 0,22 0,22 24,22 24,0 24,0 24,-22 0,-16 0,-16 -24,-16 -4,0 -2,-6 -5.930775,-5.9838 z"
       style="opacity:0.02999998;fill:url(#linearGradient3825);fill-opacity:1;stroke:none" />
    <path
       style="opacity:0.02999998;fill:url(#linearGradient3829);fill-opacity:1;stroke:none"
       d="M 18.069225,1006.3784 C 0,1006.5415 0,1008.3483 0,1028.3622 c 0,22 0,22 24,22 24,0 24,0 24,-22 0,-16 0,-16 -24,-16 -4,0 -2,-6 -5.930775,-5.9838 z"
       id="path3827"
       inkscape:connector-curvature="0"
       sodipodi:nodetypes="cccccc" />
    <path
       style="fill:#ffffff;fill-opacity:1;stroke:none;opacity:0.4"
       d="M 18.0625 2.03125 C 1.9247472 2.1769158 0.21564151 3.7140172 0.03125 18.28125 C 0.27829019 4.5254379 2.2519281 3.1427125 18.0625 3 C 21.993275 2.9838 20 8.96875 24 8.96875 C 45 8.96875 47.609375 8.96875 47.9375 19.6875 C 47.712965 8.1039598 45.550219 8 24 8 C 20 8 21.993275 2.01505 18.0625 2.03125 z "
       transform="translate(0,1004.3622)"
       id="path3808" />
    <path
       style="fill:#000000;fill-opacity:1;fill-rule:evenodd;stroke:none;opacity:0.1"
       d="m 16.5,1027.3622 c 5.247074,0 9.5,4.2529 9.5,9.5 0,5.2472 -4.252926,9.5 -9.5,9.5 -5.247074,0 -9.5,-4.2528 -9.5,-9.5 0,-5.2471 4.252926,-9.5 9.5,-9.5 z m 3.186458,2.2167 c -0.827867,0 -1.504166,0.693 -1.504166,1.5239 0,0.8309 0.676299,1.5041 1.504166,1.5041 0.827867,0 1.484375,-0.6732 1.484375,-1.5041 0,-0.8309 -0.656508,-1.5239 -1.484375,-1.5239 z m -3.166666,1.1875 c -0.923954,10e-5 -1.869103,0.2349 -2.711459,0.653 -0.02996,0.015 -0.05038,0.046 -0.05937,0.079 -0.0091,0.033 0.0021,0.071 0.01979,0.099 l 1.207292,1.9198 c 0.03079,0.048 0.105017,0.081 0.158333,0.059 0.449817,-0.191 0.913793,-0.2968 1.385417,-0.2968 1.734797,0 3.250919,1.2949 3.522916,3.0083 0.0091,0.057 0.04108,0.099 0.09896,0.099 l 2.295833,0 c 0.03331,0 0.07655,-0.015 0.09896,-0.039 0.02241,-0.025 0.0229,-0.066 0.01979,-0.099 -0.123177,-1.2713 -0.669022,-2.4888 -1.523958,-3.4438 -0.03858,-0.043 -0.109567,-0.051 -0.158334,-0.019 -0.34473,0.2235 -0.73247,0.3364 -1.128125,0.3364 -1.154255,0 -2.078005,-0.9456 -2.078125,-2.0979 1.2e-4,0 0,-0.013 0,-0.019 0,-0.058 -0.04228,-0.1286 -0.09896,-0.1386 -0.360906,-0.062 -0.712496,-0.099 -1.048958,-0.099 z m -3.661459,1.2666 c -0.01581,0.011 -0.04637,0.011 -0.05937,0.019 -0.990696,0.7665 -1.736171,1.8363 -2.097916,3.0281 -0.01413,0.047 0.0014,0.1082 0.03958,0.1386 0.497864,0.396 0.791667,0.9975 0.791667,1.6229 0,0.6254 -0.293682,1.2268 -0.791667,1.6229 -0.03798,0.031 -0.05372,0.092 -0.03958,0.1385 0.358869,1.1818 1.099651,2.2634 2.078125,3.0282 0.02624,0.016 0.06613,0.025 0.09896,0.02 0.03271,-0.011 0.06132,-0.032 0.07917,-0.059 l 1.207291,-1.9198 c 0.03128,-0.05 0.02395,-0.1197 -0.01979,-0.1583 -0.767946,-0.6787 -1.207292,-1.6559 -1.207292,-2.6719 0,-1.0235 0.451111,-1.993 1.227083,-2.6719 0.04373,-0.038 0.05082,-0.1089 0.01979,-0.1583 l -1.207292,-1.9198 c -0.01773,-0.027 -0.04645,-0.053 -0.07917,-0.059 -0.01634,-0.01 -0.02376,-0.01 -0.03958,0 z m -3.3843747,3.3052 c -0.8472569,0 -1.54375,0.6934 -1.54375,1.5437 0,0.8506 0.6964931,1.5241 1.54375,1.5241 0.8472547,0 1.5239587,-0.6735 1.5239587,-1.5241 0,-0.8503 -0.676704,-1.5437 -1.5239587,-1.5437 z m 12.9635417,1.9792 -2.295833,0.019 c -0.05763,2e-4 -0.109523,0.041 -0.11875,0.099 -0.275714,1.7005 -1.773122,2.9687 -3.503125,2.9687 -0.477136,0 -0.950361,-0.1013 -1.405209,-0.2969 -0.0532,-0.022 -0.127059,0.011 -0.158333,0.059 l -1.207292,1.9199 c -0.01785,0.027 -0.02866,0.067 -0.01979,0.099 0.0089,0.033 0.02954,0.064 0.05937,0.079 0.848945,0.4269 1.79663,0.6532 2.73125,0.6532 0.346648,0 0.703409,-0.034 1.06875,-0.099 0.05129,-0.011 0.09288,-0.046 0.09896,-0.099 0.121739,-1.0561 1.000058,-1.8604 2.058333,-1.8604 0.328076,0 0.6664,0.078 0.969792,0.2375 0.04614,0.024 0.101998,0.018 0.138542,-0.02 0.956786,-0.98 1.566444,-2.2633 1.702083,-3.6218 0.0034,-0.034 0.0027,-0.074 -0.01979,-0.099 -0.02252,-0.025 -0.06564,-0.04 -0.09896,-0.039 z m -2.691667,4.077 c -0.847256,0 -1.54375,0.678 -1.54375,1.524 0,0.8462 0.696494,1.524 1.54375,1.524 0.847258,0 1.523959,-0.6778 1.523959,-1.524 0,-0.846 -0.676702,-1.524 -1.523959,-1.524 z"
       id="path3780"
       inkscape:connector-curvature="0"
       sodipodi:nodetypes="ssssssssssccccccscssccccscscccccccscccccccsccccccssssscccscccscsccsccccccsssss" />
    <path
       sodipodi:nodetypes="ssssssssssccccccscssccccscscccccccscccccccsccccccssssscccscccscsccsccccccsssss"
       inkscape:connector-curvature="0"
       id="path3001-7"
       d="m 15.5,1026.3622 c 5.247074,0 9.5,4.2529 9.5,9.5 0,5.2472 -4.252926,9.5 -9.5,9.5 -5.247074,0 -9.5,-4.2528 -9.5,-9.5 0,-5.2471 4.252926,-9.5 9.5,-9.5 z m 3.186458,2.2167 c -0.827867,0 -1.504166,0.693 -1.504166,1.5239 0,0.8309 0.676299,1.5041 1.504166,1.5041 0.827867,0 1.484375,-0.6732 1.484375,-1.5041 0,-0.8309 -0.656508,-1.5239 -1.484375,-1.5239 z m -3.166666,1.1875 c -0.923954,10e-5 -1.869103,0.2349 -2.711459,0.653 -0.02996,0.015 -0.05038,0.046 -0.05937,0.079 -0.0091,0.033 0.0021,0.071 0.01979,0.099 l 1.207292,1.9198 c 0.03079,0.048 0.105017,0.081 0.158333,0.059 0.449817,-0.191 0.913793,-0.2968 1.385417,-0.2968 1.734797,0 3.250919,1.2949 3.522916,3.0083 0.0091,0.057 0.04108,0.099 0.09896,0.099 l 2.295833,0 c 0.03331,0 0.07655,-0.015 0.09896,-0.039 0.02241,-0.025 0.0229,-0.066 0.01979,-0.099 -0.123177,-1.2713 -0.669022,-2.4888 -1.523958,-3.4438 -0.03858,-0.043 -0.109567,-0.051 -0.158334,-0.019 -0.34473,0.2235 -0.73247,0.3364 -1.128125,0.3364 -1.154255,0 -2.078005,-0.9456 -2.078125,-2.0979 1.2e-4,0 0,-0.013 0,-0.019 0,-0.058 -0.04228,-0.1286 -0.09896,-0.1386 -0.360906,-0.062 -0.712496,-0.099 -1.048958,-0.099 z m -3.661459,1.2666 c -0.01581,0.011 -0.04637,0.011 -0.05937,0.019 -0.990696,0.7665 -1.736171,1.8363 -2.0979163,3.0281 -0.014134,0.047 0.00137,0.1082 0.039583,0.1386 0.497864,0.396 0.791667,0.9975 0.791667,1.6229 0,0.6254 -0.293682,1.2268 -0.791667,1.6229 -0.037979,0.031 -0.053719,0.092 -0.039583,0.1385 0.3588693,1.1818 1.0996513,2.2634 2.0781253,3.0282 0.02624,0.016 0.06613,0.025 0.09896,0.02 0.03271,-0.011 0.06132,-0.032 0.07917,-0.059 l 1.207291,-1.9198 c 0.03128,-0.05 0.02395,-0.1197 -0.01979,-0.1583 -0.767946,-0.6787 -1.207292,-1.6559 -1.207292,-2.6719 0,-1.0235 0.451111,-1.993 1.227083,-2.6719 0.04373,-0.038 0.05082,-0.1089 0.01979,-0.1583 l -1.207292,-1.9198 c -0.01773,-0.027 -0.04645,-0.053 -0.07917,-0.059 -0.01634,-0.01 -0.02376,-0.01 -0.03958,0 z m -3.3843747,3.3052 c -0.8472569,0 -1.54375,0.6934 -1.54375,1.5437 0,0.8506 0.6964931,1.5241 1.54375,1.5241 0.8472549,0 1.5239584,-0.6735 1.5239584,-1.5241 0,-0.8503 -0.6767035,-1.5437 -1.5239584,-1.5437 z m 12.9635417,1.9792 -2.295833,0.019 c -0.05763,2e-4 -0.109523,0.041 -0.11875,0.099 -0.275714,1.7005 -1.773122,2.9687 -3.503125,2.9687 -0.477136,0 -0.950361,-0.1013 -1.405209,-0.2969 -0.0532,-0.022 -0.127059,0.011 -0.158333,0.059 l -1.207292,1.9199 c -0.01785,0.027 -0.02866,0.067 -0.01979,0.099 0.0089,0.033 0.02954,0.064 0.05937,0.079 0.848945,0.4269 1.79663,0.6532 2.73125,0.6532 0.346648,0 0.703409,-0.034 1.06875,-0.099 0.05129,-0.011 0.09288,-0.046 0.09896,-0.099 0.121739,-1.0561 1.000058,-1.8604 2.058333,-1.8604 0.328076,0 0.6664,0.078 0.969792,0.2375 0.04614,0.024 0.101998,0.018 0.138542,-0.02 0.956786,-0.98 1.566444,-2.2633 1.702083,-3.6218 0.0034,-0.034 0.0027,-0.074 -0.01979,-0.099 -0.02252,-0.025 -0.06564,-0.04 -0.09896,-0.039 z m -2.691667,4.077 c -0.847256,0 -1.54375,0.678 -1.54375,1.524 0,0.8462 0.696494,1.524 1.54375,1.524 0.847258,0 1.523959,-0.6778 1.523959,-1.524 0,-0.846 -0.676702,-1.524 -1.523959,-1.524 z"
       style="fill:#ffffff;fill-opacity:1;fill-rule:evenodd;stroke:none" />
  </g>
</svg>
