<?xml version="1.0" encoding="UTF-8" standalone="no"?>
<!-- Created with Inkscape (http://www.inkscape.org/) -->

<svg
   xmlns:dc="http://purl.org/dc/elements/1.1/"
   xmlns:cc="http://creativecommons.org/ns#"
   xmlns:rdf="http://www.w3.org/1999/02/22-rdf-syntax-ns#"
   xmlns:svg="http://www.w3.org/2000/svg"
   xmlns="http://www.w3.org/2000/svg"
   xmlns:xlink="http://www.w3.org/1999/xlink"
   xmlns:sodipodi="http://sodipodi.sourceforge.net/DTD/sodipodi-0.dtd"
   xmlns:inkscape="http://www.inkscape.org/namespaces/inkscape"
   width="48"
   height="48"
   id="svg2"
   version="1.1"
   inkscape:version="0.48.4 r9939"
   sodipodi:docname="novell-button.svg">
  <defs
     id="defs4">
    <linearGradient
       id="linearGradient3768">
      <stop
         style="stop-color:#e64a19;stop-opacity:1;"
         offset="0"
         id="stop3770" />
      <stop
         style="stop-color:#e96035;stop-opacity:1;"
         offset="1"
         id="stop3772" />
    </linearGradient>
    <linearGradient
       inkscape:collect="always"
       xlink:href="#linearGradient3768"
       id="linearGradient3774"
       x1="24"
       y1="1050.3622"
       x2="24"
       y2="1006.3622"
       gradientUnits="userSpaceOnUse" />
  </defs>
  <sodipodi:namedview
     id="base"
     pagecolor="#ffffff"
     bordercolor="#666666"
     borderopacity="1.0"
     inkscape:pageopacity="0.0"
     inkscape:pageshadow="2"
     inkscape:zoom="11.583333"
     inkscape:cx="21.574093"
     inkscape:cy="22.128777"
     inkscape:document-units="px"
     inkscape:current-layer="layer1"
     showgrid="true"
     inkscape:snap-bbox="true"
     inkscape:window-width="1301"
     inkscape:window-height="744"
     inkscape:window-x="65"
     inkscape:window-y="24"
     inkscape:window-maximized="1"
     inkscape:object-nodes="true"
     inkscape:object-paths="true"
     inkscape:snap-nodes="true">
    <inkscape:grid
       type="xygrid"
       id="grid3003"
       empspacing="6"
       visible="true"
       enabled="true"
       snapvisiblegridlinesonly="true" />
  </sodipodi:namedview>
  <metadata
     id="metadata7">
    <rdf:RDF>
      <cc:Work
         rdf:about="">
        <dc:format>image/svg+xml</dc:format>
        <dc:type
           rdf:resource="http://purl.org/dc/dcmitype/StillImage" />
        <dc:title />
      </cc:Work>
    </rdf:RDF>
  </metadata>
  <g
     inkscape:label="Layer 1"
     inkscape:groupmode="layer"
     id="layer1"
     transform="translate(0,-1004.3622)">
    <path
       id="path3788"
       d="m 24,1051.1116 c -21.2715315,0 -23.66257505,-0.089 -23.9375,-15.4063 0.328125,14.4033 2.9375,14.4063 23.9375,14.4063 21,0 23.609375,0 23.9375,-14.4063 -0.274925,15.3174 -2.665968,15.4063 -23.9375,15.4063 z"
       style="opacity:0.20000000000000001;fill:#ffffff;fill-opacity:1;stroke:none"
       inkscape:connector-curvature="0" />
    <path
       style="fill:url(#linearGradient3774);fill-opacity:1;stroke:none"
       d="m 24,1006.3622 c -24,0 -24,0 -24,22 0,22 0,22 24,22 24,0 24,0 24,-22 0,-22 0,-22 -24,-22 z"
       id="path3757"
       inkscape:connector-curvature="0"
       sodipodi:nodetypes="zzzzz" />
    <path
       style="fill:#000000;fill-opacity:1;stroke:none;opacity:0.20000000000000001"
       d="M 24 2 C 2.7284685 2 0.33742495 2.0888436 0.0625 17.40625 C 0.390625 3.0029297 3 3 24 3 C 45 3 47.609375 3.0029297 47.9375 17.40625 C 47.662575 2.0888436 45.271532 2 24 2 z "
       transform="translate(0,1004.3622)"
       id="path3770" />
    <g
       id="g3813"
       transform="translate(-47.998,993.3622)" />
    <g
       id="g3037"
       transform="translate(-48,1006.3622)" />
    <g
       id="g3058"
       transform="translate(-61,1009.3622)" />
    <path
       style="fill:#ffffff;fill-opacity:1;stroke:none"
       d="m 20.360439,1017.9337 c -0.53744,0.1344 -0.665031,0.7403 -0.681928,1.3947 l -0.05271,2.3647 c -0.264098,0.1731 -0.526092,0.3448 -0.765423,0.5458 l -2.251126,-0.6287 c -0.630982,-0.1742 -1.268741,-0.2475 -1.553711,0.2276 l -1.015363,1.7358 c -0.284947,0.4751 0.08,1.0032 0.530763,1.4779 l 1.584309,1.6975 c -0.06019,0.2924 -0.07135,0.5941 -0.0984,0.8943 l -2.061383,1.16 c -0.569333,0.323 -1.043743,0.7208 -0.909324,1.2582 l 0.485355,1.9403 c 0.134485,0.5374 0.740282,0.665 1.39468,0.6819 l 2.36473,0.053 c 0.165243,0.2522 0.317136,0.5131 0.507917,0.7427 l -0.598431,2.2435 c -0.174184,0.631 -0.247485,1.2687 0.227605,1.5537 l 1.713062,1.0533 c 0.475113,0.2849 1.003218,-0.08 1.477874,-0.5308 l 1.689933,-1.6146 c 0.305784,0.065 0.617789,0.093 0.932264,0.1211 l 1.159926,2.0614 c 0.322954,0.5693 0.720817,1.0438 1.258286,0.9094 l 1.940214,-0.4854 c 0.537435,-0.1344 0.665106,-0.7402 0.681928,-1.3947 l 0.05271,-2.3647 c 0.264098,-0.1731 0.526092,-0.3448 0.765423,-0.5458 l 2.22081,0.6363 c 0.630892,0.1742 1.268719,0.2475 1.553711,-0.2276 l 1.015364,-1.7358 c 0.284941,-0.4751 -0.04957,-1.0108 -0.500448,-1.4855 l -1.607041,-1.6596 c 0.06464,-0.3058 0.09281,-0.6178 0.121131,-0.9322 l 2.031067,-1.1524 c 0.569269,-0.323 1.074043,-0.7284 0.93964,-1.2658 l -0.485355,-1.9403 c -0.134489,-0.5374 -0.770524,-0.6574 -1.424995,-0.6743 l -2.334415,-0.06 c -0.173058,-0.2641 -0.344813,-0.5261 -0.545817,-0.7654 l 0.636331,-2.2208 c 0.174138,-0.6309 0.217159,-1.2611 -0.257921,-1.5462 l -1.713062,-1.0532 c -0.475116,-0.2849 -1.003165,0.08 -1.477873,0.5307 l -1.659618,1.6071 c -0.305784,-0.065 -0.617789,-0.093 -0.932264,-0.1211 l -1.159926,-2.0614 c -0.32301,-0.5694 -0.720847,-1.0438 -1.258286,-0.9094 l -1.940214,0.4854 z m 2.66885,6.5481 c 2.143101,-0.5361 4.31503,0.7666 4.851139,2.9097 0.536109,2.1431 -0.766616,4.315 -2.909717,4.8511 -2.143101,0.5361 -4.31503,-0.7666 -4.851139,-2.9097 -0.536109,-2.1431 0.766616,-4.315 2.909717,-4.8511 z"
       id="path3778"
       inkscape:connector-curvature="0" />
    <path
       style="opacity:0.1;fill:#000000;fill-opacity:1;stroke:none"
       d="M 23.6875 14.1875 L 24.71875 16.0625 C 24.896586 16.078391 25.074422 16.102464 25.25 16.125 L 24.6875 15.125 C 24.417961 14.649859 24.098884 14.231795 23.6875 14.1875 z M 30.875 15.75 C 30.901863 16.02205 30.837069 16.30955 30.75 16.625 L 30.125 18.875 C 30.326004 19.1143 30.483192 19.3609 30.65625 19.625 L 31.34375 19.65625 L 31.90625 17.75 C 32.080388 17.1191 32.13133 16.50385 31.65625 16.21875 L 30.875 15.75 z M 23.84375 20 C 23.578213 20.0115 23.299138 20.057987 23.03125 20.125 C 20.888149 20.6611 19.588891 22.82565 20.125 24.96875 C 20.383405 26.001724 21.011673 26.844317 21.84375 27.375 C 21.582617 26.993645 21.368736 26.568399 21.25 26.09375 C 20.713891 23.95065 22.013149 21.7861 24.15625 21.25 C 25.266376 20.9723 26.387026 21.179681 27.28125 21.75 C 26.510715 20.624722 25.232026 19.939876 23.84375 20 z M 34.5625 20.84375 L 34.90625 22.3125 C 35.040653 22.8499 34.538019 23.2395 33.96875 23.5625 L 31.9375 24.71875 C 31.909179 25.03315 31.87714 25.35045 31.8125 25.65625 L 33.4375 27.3125 C 33.888378 27.7872 34.222441 28.30615 33.9375 28.78125 L 32.90625 30.53125 C 32.621258 31.00635 32.005892 30.9242 31.375 30.75 L 29.125 30.125 C 28.885669 30.326 28.639098 30.48315 28.375 30.65625 L 28.3125 33.03125 C 28.295678 33.68575 28.162435 34.3031 27.625 34.4375 L 25.6875 34.90625 C 25.620316 34.92305 25.562947 34.938724 25.5 34.9375 L 25.59375 35.125 C 25.916704 35.6943 26.306281 36.16565 26.84375 36.03125 L 28.78125 35.5625 C 29.318685 35.4281 29.451928 34.81075 29.46875 34.15625 L 29.5 31.78125 C 29.764098 31.60815 30.041919 31.451 30.28125 31.25 L 32.5 31.875 C 33.130892 32.0492 33.777508 32.13135 34.0625 31.65625 L 35.0625 29.90625 C 35.347441 29.43115 35.013378 28.9122 34.5625 28.4375 L 32.96875 26.78125 C 33.03339 26.47545 33.065429 26.15815 33.09375 25.84375 L 35.125 24.6875 C 35.694269 24.3645 36.196903 23.9749 36.0625 23.4375 L 35.5625 21.46875 C 35.45717 21.047866 35.051025 20.903571 34.5625 20.84375 z M 14.59375 28.28125 L 14.71875 28.75 C 14.853235 29.2874 15.439352 29.4206 16.09375 29.4375 L 17.75 29.46875 L 17.84375 29.125 C 17.652969 28.8954 17.508993 28.6272 17.34375 28.375 L 14.96875 28.3125 C 14.837726 28.309116 14.717485 28.29591 14.59375 28.28125 z M 22.34375 31.8125 L 20.65625 33.4375 C 20.181594 33.8883 19.662613 34.25365 19.1875 33.96875 L 18.25 33.40625 C 18.27473 33.666107 18.36552 33.894338 18.59375 34.03125 L 20.3125 35.09375 C 20.787613 35.37865 21.337844 35.0133 21.8125 34.5625 L 23.5 32.9375 C 23.627023 32.964501 23.746098 32.983109 23.875 33 L 23.28125 31.9375 C 22.966775 31.9094 22.649534 31.8775 22.34375 31.8125 z "
       transform="translate(0,1004.3622)"
       id="path3818" />
  </g>
</svg>
