<?xml version="1.0" encoding="utf-8"?>
<!-- Generator: Adobe Illustrator 18.0.0, SVG Export Plug-In . SVG Version: 6.00 Build 0)  -->
<!DOCTYPE svg PUBLIC "-//W3C//DTD SVG 1.1//EN" "http://www.w3.org/Graphics/SVG/1.1/DTD/svg11.dtd">
<svg version="1.1"
	 id="svg2" xmlns:dc="http://purl.org/dc/elements/1.1/" xmlns:cc="http://creativecommons.org/ns#" xmlns:rdf="http://www.w3.org/1999/02/22-rdf-syntax-ns#" xmlns:svg="http://www.w3.org/2000/svg" xmlns:sodipodi="http://sodipodi.sourceforge.net/DTD/sodipodi-0.dtd" xmlns:inkscape="http://www.inkscape.org/namespaces/inkscape" sodipodi:docname="user-desktop (copy).svg" inkscape:version="0.48.4 r9939"
	 xmlns="http://www.w3.org/2000/svg" xmlns:xlink="http://www.w3.org/1999/xlink" x="0px" y="0px" viewBox="0 0 48 48"
	 enable-background="new 0 0 48 48" xml:space="preserve">
<sodipodi:namedview  id="base" inkscape:cy="22.363063" inkscape:cx="22.41478" inkscape:zoom="11.583333" borderopacity="1.0" bordercolor="#666666" showgrid="true" pagecolor="#ffffff" showguides="true" inkscape:guide-bbox="true" inkscape:snap-nodes="true" inkscape:object-nodes="false" inkscape:window-y="24" inkscape:window-x="65" inkscape:window-height="744" inkscape:window-width="1301" inkscape:snap-bbox="true" inkscape:current-layer="layer1" inkscape:document-units="px" inkscape:pageshadow="2" inkscape:pageopacity="0.0" inkscape:window-maximized="1">
	<inkscape:grid  type="xygrid" visible="true" id="grid3005" enabled="true" empspacing="6" snapvisiblegridlinesonly="true">
		</inkscape:grid>
</sodipodi:namedview>
<linearGradient id="path3757_1_" gradientUnits="userSpaceOnUse" x1="147.7473" y1="2.26" x2="147.7473" y2="-203.3807" gradientTransform="matrix(0.2101 0 0 -0.2101 -7.0417 3.0435)">
	<stop  offset="0" style="stop-color:#4D9EE0"/>
	<stop  offset="1" style="stop-color:#3B81BB"/>
</linearGradient>
<path id="path3757" sodipodi:nodetypes="zzzzz" inkscape:connector-curvature="0" fill="url(#path3757_1_)" d="M24,2.2
	C0,2.2,0,2.2,0,24s0,21.8,24,21.8s24,0,24-21.8S48,2.2,24,2.2z"/>
<g>
	<g>
		<g>
			<g>
				<g>
					<g>
						<g>
							<g>
								<g>
									<g>
										<defs>
											<path id="SVGID_1_" d="M-2-4444.4c-5,0-5,0-5,4.6s0,4.6,5,4.6s5,0,5-4.6S3-4444.4-2-4444.4z"/>
										</defs>
										<clipPath id="SVGID_2_">
											<use xlink:href="#SVGID_1_"  overflow="visible"/>
										</clipPath>
										
											<g id="layer1" transform="translate(0,-1004.3622)" inkscape:label="Layer 1" inkscape:groupmode="layer" clip-path="url(#SVGID_2_)">
											<polygon id="rect3818" display="none" fill="#2980B9" points="-7.3,998.5 3.5,998.5 3.5,998.5 3.5,1007 3.5,1007 
												-7.3,1007 -7.3,1007 											"/>
											<path id="rect3875" inkscape:connector-curvature="0" opacity="0.2" enable-background="new    " d="M-5,999.3v1.2h-1.2
												v0.2h1.5v-1.5L-5,999.3L-5,999.3z M-3.1,999.3v1.2h-1.2v0.2h1.5v-1.5L-3.1,999.3L-3.1,999.3z M-5,1001.3v1.2h-1.2v0.2
												h1.5v-1.5L-5,1001.3L-5,1001.3z M-3.1,1001.3v1.2h-1.2v0.2h1.5v-1.5L-3.1,1001.3L-3.1,1001.3z M-5,1003.3v1.2h-1.2v0.2
												h1.5v-1.5L-5,1003.3L-5,1003.3z M-3.1,1003.3v1.2h-1.2v0.2h1.5v-1.5L-3.1,1003.3L-3.1,1003.3z"/>
											<polygon id="rect3852" fill="#FFB74D" points="-6.4,999.2 -4.9,999.2 -4.9,999.2 -4.9,1000.6 -4.9,1000.6 -6.4,1000.6 
												-6.4,1000.6 											"/>
											<polygon id="rect3854" fill="#00B0FF" points="-6.4,1001.1 -4.9,1001.1 -4.9,1001.1 -4.9,1002.6 -4.9,1002.6 
												-6.4,1002.6 -6.4,1002.6 											"/>
											<polygon id="rect3856" fill="#F06292" points="-6.4,1003.1 -4.9,1003.1 -4.9,1003.1 -4.9,1004.6 -4.9,1004.6 
												-6.4,1004.6 -6.4,1004.6 											"/>
											<polygon id="rect3858" fill="#BA68C8" points="-4.4,999.2 -2.9,999.2 -2.9,999.2 -2.9,1000.6 -2.9,1000.6 -4.4,1000.6 
												-4.4,1000.6 											"/>
											<polygon id="rect3860" fill="#00E676" points="-4.4,1001.1 -2.9,1001.1 -2.9,1001.1 -2.9,1002.6 -2.9,1002.6 
												-4.4,1002.6 -4.4,1002.6 											"/>
											<polygon id="rect3862" fill="#7C4DFF" points="-4.4,1003.1 -2.9,1003.1 -2.9,1003.1 -2.9,1004.6 -2.9,1004.6 
												-4.4,1004.6 -4.4,1004.6 											"/>
											<rect id="rect920" x="-7.3" y="997.8" fill="#37353A" width="10.8" height="1"/>
											<rect id="rect825" x="0.5" y="997.9" fill="#FFFFFF" width="0.6" height="0.6"/>
											<rect id="rect827" x="1.5" y="997.9" fill="#FFFFFF" width="0.6" height="0.6"/>
											<rect id="rect3309" x="-0.6" y="997.9" fill="#FFFFFF" width="0.6" height="0.6"/>
										</g>
									</g>
								</g>
							</g>
						</g>
					</g>
				</g>
			</g>
		</g>
	</g>
</g>
<g>
	<g>
		<g>
			<g>
				<g>
					<g>
						<g>
							<g>
								<g>
									<defs>
										<path id="SVGID_3_" d="M-2-4233.5c-5,0-5,0-5,4.6s0,4.6,5,4.6s5,0,5-4.6S3-4233.5-2-4233.5z"/>
									</defs>
									<clipPath id="SVGID_4_">
										<use xlink:href="#SVGID_3_"  overflow="visible"/>
									</clipPath>
									
										<g id="layer1_1_" transform="translate(0,-1004.3622)" inkscape:label="Layer 1" inkscape:groupmode="layer" clip-path="url(#SVGID_4_)">
										<polygon id="rect3818_1_" display="none" fill="#2980B9" points="-7.1,998.7 3,998.7 3,998.7 3,1006.6 3,1006.6 
											-7.1,1006.6 -7.1,1006.6 										"/>
										<path id="rect3875_1_" inkscape:connector-curvature="0" opacity="0.2" enable-background="new    " d="M-5,999.3v1.2
											h-1.1v0.2h1.4v-1.4H-5z M-3.2,999.3v1.2h-1.1v0.2H-3v-1.4H-3.2z M-5,1001.2v1.2h-1.1v0.2h1.4v-1.4H-5z M-3.2,1001.2v1.2
											h-1.1v0.2H-3v-1.4H-3.2z M-5,1003.1v1.2h-1.1v0.2h1.4v-1.4H-5z M-3.2,1003.1v1.2h-1.1v0.2H-3v-1.4H-3.2z"/>
										<polygon id="rect3852_1_" fill="#FFB74D" points="-6.3,999.1 -4.9,999.1 -4.9,999.1 -4.9,1000.6 -4.9,1000.6 -6.3,1000.6 
											-6.3,1000.6 										"/>
										<polygon id="rect3854_1_" fill="#00B0FF" points="-6.3,1001.1 -4.9,1001.1 -4.9,1001.1 -4.9,1002.5 -4.9,1002.5 
											-6.3,1002.5 -6.3,1002.5 										"/>
										<polygon id="rect3856_1_" fill="#F06292" points="-6.3,1003 -4.9,1003 -4.9,1003 -4.9,1004.4 -4.9,1004.4 -6.3,1004.4 
											-6.3,1004.4 										"/>
										<polygon id="rect3858_1_" fill="#BA68C8" points="-4.4,999.1 -3.1,999.1 -3.1,999.1 -3.1,1000.6 -3.1,1000.6 -4.4,1000.6 
											-4.4,1000.6 										"/>
										<polygon id="rect3860_1_" fill="#00E676" points="-4.4,1001.1 -3.1,1001.1 -3.1,1001.1 -3.1,1002.5 -3.1,1002.5 
											-4.4,1002.5 -4.4,1002.5 										"/>
										<polygon id="rect3862_1_" fill="#7C4DFF" points="-4.4,1003 -3.1,1003 -3.1,1003 -3.1,1004.4 -3.1,1004.4 -4.4,1004.4 
											-4.4,1004.4 										"/>
										<rect id="rect920_1_" x="-7.1" y="997.8" fill="#37353A" width="10.1" height="1"/>
										<rect id="rect825_1_" x="0.1" y="997.9" fill="#FFFFFF" width="0.6" height="0.6"/>
										<rect id="rect827_1_" x="1.1" y="997.9" fill="#FFFFFF" width="0.6" height="0.6"/>
										<rect id="rect3309_1_" x="-0.9" y="997.9" fill="#FFFFFF" width="0.5" height="0.6"/>
									</g>
								</g>
							</g>
						</g>
					</g>
				</g>
			</g>
		</g>
	</g>
</g>
<g opacity="0.2">
	<polygon id="rect3852_3_" points="3.9,11.3 9.4,11.3 9.4,11.3 9.4,16.6 9.4,16.6 3.9,16.6 3.9,16.6 	"/>
	<polygon id="rect3854_3_" points="3.9,18.6 9.4,18.6 9.4,18.6 9.4,24 9.4,24 3.9,24 3.9,24 	"/>
	<polygon id="rect3856_3_" points="3.9,25.7 9.4,25.7 9.4,25.7 9.4,31.2 9.4,31.2 3.9,31.2 3.9,31.2 	"/>
	<polygon id="rect3858_3_" points="11.3,11.3 16.9,11.3 16.9,11.3 16.9,16.6 16.9,16.6 11.3,16.6 11.3,16.6 	"/>
	<polygon id="rect3860_3_" points="11.3,18.6 16.9,18.6 16.9,18.6 16.9,24 16.9,24 11.3,24 11.3,24 	"/>
	<polygon id="rect3862_3_" points="11.3,25.7 16.9,25.7 16.9,25.7 16.9,31.2 16.9,31.2 11.3,31.2 11.3,31.2 	"/>
</g>
<polygon id="rect3852_2_" fill="#FFB74D" points="3.5,10.9 8.9,10.9 8.9,10.9 8.9,16.2 8.9,16.2 3.5,16.2 3.5,16.2 "/>
<polygon id="rect3854_2_" fill="#00B0FF" points="3.5,17.9 8.9,17.9 8.9,17.9 8.9,23.6 8.9,23.6 3.5,23.6 3.5,23.6 "/>
<polygon id="rect3856_2_" fill="#F06292" points="3.5,25.3 8.9,25.3 8.9,25.3 8.9,30.7 8.9,30.7 3.5,30.7 3.5,30.7 "/>
<polygon id="rect3858_2_" fill="#BA68C8" points="10.9,10.9 16.4,10.9 16.4,10.9 16.4,16.2 16.4,16.2 10.9,16.2 10.9,16.2 "/>
<polygon id="rect3860_2_" fill="#00E676" points="10.9,17.9 16.4,17.9 16.4,17.9 16.4,23.6 16.4,23.6 10.9,23.6 10.9,23.6 "/>
<polygon id="rect3862_2_" fill="#7C4DFF" points="10.9,25.3 16.4,25.3 16.4,25.3 16.4,30.7 16.4,30.7 10.9,30.7 10.9,30.7 "/>
<path id="path3770" opacity="0.2" enable-background="new    " d="M24,2.2C2.6,2.2,0.2,2.4,0,17.5C0.3,3.3,2.9,3.3,24,3.3
	s23.6,0,24,14.2C47.8,2.4,45.4,2.2,24,2.2z"/>
<g>
	<g>
		<g>
			<g>
				<g>
					<defs>
						<path id="SVGID_5_" d="M24,2.2C0,2.2,0,2.2,0,24s0,21.8,24,21.8s24,0,24-21.8S48,2.2,24,2.2z"/>
					</defs>
					<clipPath id="SVGID_6_">
						<use xlink:href="#SVGID_5_"  overflow="visible"/>
					</clipPath>
					<rect id="rect920_2_" x="-0.2" y="3" clip-path="url(#SVGID_6_)" fill="#37353A" width="48.2" height="5.4"/>
				</g>
			</g>
		</g>
	</g>
</g>
<rect id="rect825_2_" x="34.3" y="4.1" fill="#FFFFFF" width="2.6" height="3"/>
<rect id="rect827_2_" x="39.1" y="4.1" fill="#FFFFFF" width="2.6" height="3"/>
<rect id="rect3309_2_" x="29.5" y="4.1" fill="#FFFFFF" width="2.6" height="3"/>
</svg>
