<?xml version="1.0" ?><!-- Created with Inkscape (http://www.inkscape.org/) --><svg height="22" id="svg3194" version="1.0" width="22" xmlns="http://www.w3.org/2000/svg" xmlns:cc="http://creativecommons.org/ns#" xmlns:dc="http://purl.org/dc/elements/1.1/" xmlns:rdf="http://www.w3.org/1999/02/22-rdf-syntax-ns#" xmlns:svg="http://www.w3.org/2000/svg">
  <metadata id="metadata16">
    <rdf:RDF>
      <cc:Work rdf:about="">
        <dc:format>image/svg+xml</dc:format>
        <dc:type rdf:resource="http://purl.org/dc/dcmitype/StillImage"/>
        <dc:title/>
      </cc:Work>
    </rdf:RDF>
  </metadata>
  <defs id="defs3196"/>
  <path d="m 15.000309,9 c -0.554,0 -1,0.446 -1,1 l 0,9 c 0,0.554 0.446,1 1,1 0.554,0 1,-0.446 1,-1 l 0,-9 c 0,-0.554 -0.446,-1 -1,-1 z" id="path3831" style="opacity:0.3;fill:#000000;fill-opacity:1;fill-rule:nonzero;stroke:none;stroke-width:1;marker:none;visibility:visible;display:inline;overflow:visible;enable-background:accumulate"/>
  <path d="m 0.50030854,12 c -0.06925,0 -0.1276406,0.006 -0.1875,0.03125 -0.057115,0.02622 -0.1129571,0.08181 -0.15625,0.125 l -0.03125,0.03125 c -0.032203,0.03814 -0.074055,0.07828 -0.09375,0.125 -0.0960746,0.182877 -0.0638124,0.405327 0.09375,0.5625 l 2.87499996,2.875 0,3.75 c 0,0.277 0.223,0.5 0.5,0.5 0.277,0 0.5,-0.223 0.5,-0.5 l 0,-3.75 2.875,-2.875 c 0.1575625,-0.157173 0.1898247,-0.379623 0.09375,-0.5625 -0.019695,-0.04672 -0.061547,-0.08686 -0.09375,-0.125 l -0.03125,-0.03125 C 6.7530303,12.065447 6.621754,12.006356 6.5003085,12 l -0.03125,0 -2.96875,0 -2.96874996,0 -0.03125,0 z" id="path3829" style="opacity:0.3;fill:#000000;fill-opacity:1;fill-rule:nonzero;stroke:none;stroke-width:1;marker:none;visibility:visible;display:inline;overflow:visible;enable-background:accumulate"/>
  <path d="m 11.000309,13 c -0.554,0 -1,0.446 -1,1 l 0,5 c 0,0.554 0.446,1 1,1 0.554,0 1,-0.446 1,-1 l 0,-5 c 0,-0.554 -0.446,-1 -1,-1 z" id="path3823" style="opacity:0.3;fill:#000000;fill-opacity:1;fill-rule:nonzero;stroke:none;stroke-width:1;marker:none;visibility:visible;display:inline;overflow:visible;enable-background:accumulate"/>
  <path d="m 7.0003085,17 c -0.554,0 -1,0.446 -1,1 l 0,1 c 0,0.554 0.446,1 1,1 0.554,0 1,-0.446 1,-1 l 0,-1 c 0,-0.554 -0.446,-1 -1,-1 z" id="rect3165-9" style="opacity:0.3;fill:#000000;fill-opacity:1;fill-rule:nonzero;stroke:none;stroke-width:1;marker:none;visibility:visible;display:inline;overflow:visible;enable-background:accumulate"/>
  <g id="g3835" style="opacity:0.4" transform="translate(-0.99969146,0)">
    <path d="m 20,4 c -0.554,0 -1,0.446 -1,1 l 0,14 c 0,0.554 0.446,1 1,1 0.554,0 1,-0.446 1,-1 L 21,5 C 21,4.446 20.554,4 20,4 z" id="path3833" style="opacity:0.3;fill:#000000;fill-opacity:1;fill-rule:nonzero;stroke:none;stroke-width:1;marker:none;visibility:visible;display:inline;overflow:visible;enable-background:accumulate"/>
    <rect height="16" id="rect3165" rx="0.99999994" ry="1" style="fill:#dfdbd2;fill-opacity:1;fill-rule:nonzero;stroke:none;stroke-width:1;marker:none;visibility:visible;display:inline;overflow:visible;enable-background:accumulate" width="2" x="19" y="3"/>
  </g>
  <rect height="11" id="rect3177" rx="0.99999994" ry="1" style="fill:#dfdbd2;fill-opacity:1;fill-rule:nonzero;stroke:none;stroke-width:1;marker:none;visibility:visible;display:inline;overflow:visible;enable-background:accumulate" width="2" x="14.000309" y="8"/>
  <rect height="7" id="rect3179" rx="0.99999994" ry="1" style="fill:#dfdbd2;fill-opacity:1;fill-rule:nonzero;stroke:none;stroke-width:1;marker:none;visibility:visible;display:inline;overflow:visible;enable-background:accumulate" width="2" x="10.000309" y="12"/>
  <rect height="3" id="rect3181" rx="0.99999994" ry="1" style="fill:#dfdbd2;fill-opacity:1;fill-rule:nonzero;stroke:none;stroke-width:1;marker:none;visibility:visible;display:inline;overflow:visible;enable-background:accumulate" width="2" x="6.0003085" y="16"/>
  <path d="m 0.49985234,11 c -0.06925,0 -0.1276406,0.006 -0.1875,0.03125 -0.057115,0.02622 -0.1129571,0.08181 -0.15625,0.125 l -0.03125,0.03125 c -0.032203,0.03814 -0.074055,0.07828 -0.09375,0.125 -0.0960746,0.182877 -0.0638124,0.405327 0.09375,0.5625 l 2.87499996,2.875 0,3.75 c 0,0.277 0.223,0.5 0.5,0.5 0.277,0 0.5,-0.223 0.5,-0.5 l 0,-3.75 2.875,-2.875 c 0.1575625,-0.157173 0.1898247,-0.379623 0.09375,-0.5625 -0.019695,-0.04672 -0.061547,-0.08686 -0.09375,-0.125 l -0.03125,-0.03125 C 6.7525741,11.065447 6.6212978,11.006356 6.4998523,11 l -0.03125,0 -2.96875,0 -2.96874996,0 -0.03125,0 z m 1.21874996,1 1.28125,0 0,1.25 -1.28125,-1.25 z m 2.28125,0 1.28125,0 -1.28125,1.28125 0,-1.28125 z" id="rect3184" style="fill:#dfdbd2;fill-opacity:1;fill-rule:nonzero;stroke:none;stroke-width:1;marker:none;visibility:visible;display:inline;overflow:visible;enable-background:accumulate"/>

<!-- imported from 'ubuntu-mono-dark/status/22/nm-vpn-lock.svg' -->
<g id="svg3215">
  <metadata id="metadata12">
    <rdf:RDF>
      <cc:Work rdf:about="">
        <dc:format>image/svg+xml</dc:format>
        <dc:type rdf:resource="http://purl.org/dc/dcmitype/StillImage"/>
        <dc:title/>
      </cc:Work>
    </rdf:RDF>
  </metadata>
  <sodipodi:namedview bordercolor="#666666" borderopacity="1.0" gridtolerance="10.0" guidetolerance="10.0" id="base" inkscape:current-layer="svg3215" inkscape:cx="-2.6506024" inkscape:cy="13.012048" inkscape:pageopacity="0.0" inkscape:pageshadow="2" inkscape:window-height="753" inkscape:window-maximized="1" inkscape:window-width="1280" inkscape:window-x="0" inkscape:window-y="24" inkscape:zoom="10.375" objecttolerance="10.0" pagecolor="#ffffff" showgrid="false"/>
  <defs id="defs3217"/>
  <path d="M 19,14 C 17.892,14 17,14.910763 17,16.03125 L 17,17 C 16.446,17 16,17.446 16,18 L 16,21 C 16,21.554 16.446,22 17,22 L 21,22 C 21.554,22 22,21.554 22,21 L 22,18 C 22,17.446 21.554,17 21,17 L 21,16.03125 C 21,14.910764 20.108,14 19,14 z M 19,15 C 19.554,15 20,15.442363 20,16 L 20,17 L 18,17 L 18,16 C 18,15.442363 18.446,15 19,15 z" id="path2441" style="opacity:0.3;fill:#000000;fill-opacity:1;fill-rule:nonzero;stroke:none;stroke-width:1;stroke-linecap:butt;stroke-linejoin:miter;marker:none;marker-start:none;marker-mid:none;marker-end:none;stroke-miterlimit:4;stroke-dasharray:none;stroke-dashoffset:0;stroke-opacity:1;visibility:visible;display:inline;overflow:visible;enable-background:accumulate"/>
  <path d="M 19,13 C 17.892,13 17,13.910763 17,15.03125 L 17,16 C 16.446,16 16,16.446 16,17 L 16,20 C 16,20.554 16.446,21 17,21 L 21,21 C 21.554,21 22,20.554 22,20 L 22,17 C 22,16.446 21.554,16 21,16 L 21,15.03125 C 21,13.910764 20.108,13 19,13 z M 19,14 C 19.554,14 20,14.442363 20,15 L 20,16 L 18,16 L 18,15 C 18,14.442363 18.446,14 19,14 z" id="rect2822" style="opacity:1;fill:#dfdbd2;fill-opacity:1;fill-rule:nonzero;stroke:none;stroke-width:1;stroke-linecap:butt;stroke-linejoin:miter;marker:none;marker-start:none;marker-mid:none;marker-end:none;stroke-miterlimit:4;stroke-dasharray:none;stroke-dashoffset:0;stroke-opacity:1;visibility:visible;display:inline;overflow:visible;enable-background:accumulate"/>
</g>
</svg>