<?xml version="1.0" encoding="UTF-8" standalone="no"?>
<!-- Created with Inkscape (http://www.inkscape.org/) -->
<svg id="svg7384" xmlns:rdf="http://www.w3.org/1999/02/22-rdf-syntax-ns#" xmlns="http://www.w3.org/2000/svg" height="16" width="16" version="1.1" xmlns:cc="http://creativecommons.org/ns#" xmlns:dc="http://purl.org/dc/elements/1.1/">
 <metadata id="metadata90">
  <rdf:RDF>
   <cc:Work rdf:about="">
    <dc:format>image/svg+xml</dc:format>
    <dc:type rdf:resource="http://purl.org/dc/dcmitype/StillImage"/>
    <dc:title>Gnome Symbolic Icon Theme</dc:title>
   </cc:Work>
  </rdf:RDF>
 </metadata>
 <title id="title9167">Gnome Symbolic Icon Theme</title>
 <g id="layer9" transform="translate(-41 -297)">
  <path id="path35600" style="block-progression:tb;text-indent:0;color:#000000;text-transform:none;fill:#bebebe" d="m43.781 301a1.0001 1.0001 0 0 0 -0.40625 1.7812l5 4 0.625 0.5 0.625-0.5 5-4a1.0005 1.0005 0 1 0 -1.25 -1.5625l-4.375 3.5-4.375-3.5a1.0001 1.0001 0 0 0 -0.844 -0.22z"/>
  <path id="rect35604" style="block-progression:tb;text-indent:0;color:#000000;text-transform:none;fill:#bebebe" d="m42.906 300a1.0001 1.0001 0 0 0 -0.906 1v9a1.0001 1.0001 0 0 0 1 1h12a1.0001 1.0001 0 0 0 1 -1v-9a1.0001 1.0001 0 0 0 -1 -1h-12a1.0001 1.0001 0 0 0 -0.09375 0zm1.094 2h10v7h-10v-7z"/>
 </g>
</svg>
