<?xml version="1.0" encoding="UTF-8" standalone="no"?>
<!-- Created with Inkscape (http://www.inkscape.org/) -->
<svg id="svg7384" xmlns:rdf="http://www.w3.org/1999/02/22-rdf-syntax-ns#" xmlns="http://www.w3.org/2000/svg" height="16" width="16" version="1.1" xmlns:cc="http://creativecommons.org/ns#" xmlns:dc="http://purl.org/dc/elements/1.1/">
 <metadata id="metadata90">
  <rdf:RDF>
   <cc:Work rdf:about="">
    <dc:format>image/svg+xml</dc:format>
    <dc:type rdf:resource="http://purl.org/dc/dcmitype/StillImage"/>
    <dc:title>Gnome Symbolic Icon Theme</dc:title>
   </cc:Work>
  </rdf:RDF>
 </metadata>
 <title id="title9167">Gnome Symbolic Icon Theme</title>
 <g id="layer9" transform="translate(-201 -257)">
  <path id="path9289" style="opacity:.35;fill-rule:evenodd;block-progression:tb;text-indent:0;color:#000000;text-transform:none;fill:#bebebe" d="m213 257v1.5 6.9375 1.5h3v-1.5-6.9375-1.5h-3z"/>
  <path id="path9291" style="opacity:.35;fill-rule:evenodd;block-progression:tb;text-indent:0;color:#000000;text-transform:none;fill:#bebebe" d="m209 260v12h2l0.0143-5.0625h0.98575v-6.9375z"/>
  <path id="path9293" style="opacity:.35;fill-rule:evenodd;block-progression:tb;text-indent:0;color:#000000;text-transform:none;fill:#bebebe" d="m205 263v1.5 6 1.5h3v-1.5-6-1.5h-3z"/>
  <path id="path9295" style="opacity:.35;fill-rule:evenodd;block-progression:tb;text-indent:0;color:#000000;text-transform:none;fill:#bebebe" d="m201 266v1.5 3 1.5h3v-1.5-3-1.5h-3z"/>
  <path id="path3761-2-3-5-4-8-9-8-0-1-7-8-3" style="color:#bebebe;fill:#bebebe" d="m212 268h1.375l1.125 1.0938 1.0938-1.0938h1.4062v1.4688l-1.0938 1.0625 1.0938 1.0625v1.4062h-1.4375l-1.0625-1.0625-1.0625 1.0625h-1.4375v-1.4062l1.0625-1.0625-1.0625-1.0625v-1.4688z"/>
 </g>
</svg>
