<?xml version="1.0" encoding="UTF-8" standalone="no"?>
<!-- Created with Inkscape (http://www.inkscape.org/) -->
<svg id="svg7384" xmlns:rdf="http://www.w3.org/1999/02/22-rdf-syntax-ns#" xmlns="http://www.w3.org/2000/svg" height="16" width="16" version="1.1" xmlns:cc="http://creativecommons.org/ns#" xmlns:dc="http://purl.org/dc/elements/1.1/">
 <metadata id="metadata90">
  <rdf:RDF>
   <cc:Work rdf:about="">
    <dc:format>image/svg+xml</dc:format>
    <dc:type rdf:resource="http://purl.org/dc/dcmitype/StillImage"/>
    <dc:title>Gnome Symbolic Icon Theme</dc:title>
   </cc:Work>
  </rdf:RDF>
 </metadata>
 <title id="title9167">Gnome Symbolic Icon Theme</title>
 <g id="layer9" transform="translate(-281 -177)">
  <path id="rect6074-3" style="opacity:.35;color:#bebebe;fill:#bebebe" d="m284 178c-1.108 0-2 0.892-2 2v10c0 1.108 0.892 2 2 2h3.4375c-0.19602-0.29942-0.3125-0.64826-0.3125-1.0312 0-0.65623 0.39455-1.1216 0.90625-1.4688-0.21873-0.13975-0.41072-0.30386-0.5625-0.5h-1.4688v1h-1c-0.554 0-1-0.446-1-1v-6c0-0.554 0.446-1 1-1h1v-1c0-0.554 0.446-1 1-1h4c0.554 0 0.96747 0.44696 1 1v1h1c0.554 0 1 0.446 1 1v6c0 0.554-0.446 1-1 1h-1v-1h-1.5c-0.11489 0.19937-0.25785 0.36525-0.46875 0.5 0.5117 0.34712 0.90625 0.81252 0.90625 1.4688 0 0.38299-0.11648 0.73183-0.3125 1.0312h3.375c1.108 0 2-0.892 2-2v-10c0-1.108-0.892-2-2-2h-10z"/>
  <path id="path19592-2-4" style="color:#bebebe;fill:#bebebe" d="m288.85 181.97c1.6424-0.092 3.0955 1.1701 3.1875 2.8125-0.0001 1.4014-0.37771 1.9218-1.5938 2.8438-0.19093 0.14364-0.3256 0.2506-0.375 0.3125-0.0494 0.0621-0.0312 0.0332-0.0312 0.0312 0.007 0.52831-0.47163 1-1 1s-1.007-0.47169-1-1c0-0.50239 0.22424-0.94342 0.46875-1.25 0.24451-0.30663 0.4913-0.51638 0.71875-0.6875 0.20405-0.16056 0.46083-0.38454 0.6875-0.65625 0.0935-0.1121 0.129-0.30766 0.125-0.4375v-0.0312c-0.0316-0.56324-0.49926-0.9691-1.0625-0.9375s-0.9691 0.43676-0.9375 1h-2c-0.092-1.6424 1.1701-2.9079 2.8125-3zm0.1875 8c0.55228 0 1 0.44772 1 1s-0.44772 1-1 1-1-0.44772-1-1 0.44772-1 1-1z"/>
 </g>
</svg>
