<?xml version="1.0" encoding="UTF-8" standalone="no"?>
<!-- Created with Inkscape (http://www.inkscape.org/) -->
<svg id="svg7384" xmlns:rdf="http://www.w3.org/1999/02/22-rdf-syntax-ns#" xmlns="http://www.w3.org/2000/svg" height="16" width="16" version="1.1" xmlns:cc="http://creativecommons.org/ns#" xmlns:dc="http://purl.org/dc/elements/1.1/">
 <metadata id="metadata90">
  <rdf:RDF>
   <cc:Work rdf:about="">
    <dc:format>image/svg+xml</dc:format>
    <dc:type rdf:resource="http://purl.org/dc/dcmitype/StillImage"/>
    <dc:title>Gnome Symbolic Icon Theme</dc:title>
   </cc:Work>
  </rdf:RDF>
 </metadata>
 <title id="title9167">Gnome Symbolic Icon Theme</title>
 <g id="layer9" transform="translate(-81 -177)">
  <path id="path6305-3" style="fill:#bebebe" d="m29 209a1 1 0 1 1 -2 0 1 1 0 1 1 2 0z" transform="matrix(2 0 0 2 33 -228)"/>
  <path id="rect11714-2" style="opacity:.35;color:#000000;fill:#bebebe" d="m89 179c-2.8142 0-5.1717 1-7 2.5856v1.4144h1.4807c1.5193-1.2647 3.2194-2 5.5193-2s4 0.77953 5.5193 2h1.4807v-1.3813c-1.6404-1.4658-4.1858-2.6187-7-2.6187z"/>
  <path id="rect11703-9" style="opacity:.35;color:#000000;fill:#bebebe" d="m89 182c-2.1666 0-4.0198 0.73878-5 2v1h2c0.78878-0.60652 1.7589-1 3-1s2.2194 0.39348 3 1h2v-1c-0.99478-1.2229-2.8734-2-5-2z"/>
  <path id="path6297-0" style="block-progression:tb;text-indent:0;color:#000000;text-transform:none;fill:#bebebe" d="m89 185c-1.2573 0-2.2157 0.31165-3 1v1h3 0.375 2.625v-1c-0.8369-0.67206-1.7427-1-3-1z"/>
 </g>
</svg>
