<?xml version="1.0" encoding="UTF-8" standalone="no"?>
<!-- Created with Inkscape (http://www.inkscape.org/) -->
<svg id="svg7384" xmlns:rdf="http://www.w3.org/1999/02/22-rdf-syntax-ns#" xmlns="http://www.w3.org/2000/svg" height="16" width="16.001" version="1.1" xmlns:cc="http://creativecommons.org/ns#" xmlns:dc="http://purl.org/dc/elements/1.1/">
 <metadata id="metadata90">
  <rdf:RDF>
   <cc:Work rdf:about="">
    <dc:format>image/svg+xml</dc:format>
    <dc:type rdf:resource="http://purl.org/dc/dcmitype/StillImage"/>
    <dc:title>Gnome Symbolic Icon Theme</dc:title>
   </cc:Work>
  </rdf:RDF>
 </metadata>
 <title id="title9167">Gnome Symbolic Icon Theme</title>
 <g id="layer9" transform="translate(-341 -217)">
  <path id="path10937" style="color:#bebebe;text-indent:0pt;text-transform:none;fill:#bebebe" d="m345 219v-0.96875h7v0.96875zm-0.53125-1.9688c-0.49033 0-0.79607 0.22845-1.0312 0.46875-0.23518 0.2403-0.4375 0.55851-0.4375 1.0312v0.46875h-2v2h15v-2h-2v-0.34375-0.0313c-0.0239-0.4306-0.17024-0.75229-0.40625-1.0312-0.22373-0.26444-0.62669-0.52931-1.1562-0.53125v-0.0313h-0.0625-7.9062zm8.53 4.97h2c1.6736 2.9271 1.1377 5.8542 0 8.7812-0.43 1.12-0.98 2.22-2.19 2.22h-8.625c-1.2051 0-1.7766-1.0904-2.1875-2.2188-1.0423-2.8619-1.599-5.7542 0-8.7812h2c-1.7213 2.9478-0.98485 5.9702 0 9h9c1.0959-3.0332 1.6314-6.0494 0-9zm-4.9688-0.0165v8.0165h0.96875v-8.0165zm1.9688 0c1.7622 2.2232 0.83031 5.6312 0 8.0165h1c0.82494-2.3083 1.8394-5.6274 0-8.0165zm-3.9688 0c-1.8173 2.6087-0.85626 5.8129 0 8.0165h0.96875c-0.86519-2.2217-1.6627-5.4686 0-8.0165z"/>
 </g>
</svg>
