<?xml version="1.0" encoding="UTF-8" standalone="no"?>
<!-- Created with Inkscape (http://www.inkscape.org/) -->

<svg
   xmlns:dc="http://purl.org/dc/elements/1.1/"
   xmlns:cc="http://creativecommons.org/ns#"
   xmlns:rdf="http://www.w3.org/1999/02/22-rdf-syntax-ns#"
   xmlns:svg="http://www.w3.org/2000/svg"
   xmlns="http://www.w3.org/2000/svg"
   xmlns:sodipodi="http://sodipodi.sourceforge.net/DTD/sodipodi-0.dtd"
   xmlns:inkscape="http://www.inkscape.org/namespaces/inkscape"
   width="22"
   height="22"
   id="svg27665"
   version="1.1"
   inkscape:version="0.48.4 r9939"
   sodipodi:docname="cairo-clock.svg">
  <defs
     id="defs27667" />
  <sodipodi:namedview
     id="base"
     pagecolor="#ffffff"
     bordercolor="#666666"
     borderopacity="1.0"
     inkscape:pageopacity="0.0"
     inkscape:pageshadow="2"
     inkscape:zoom="22.627417"
     inkscape:cx="5.3695456"
     inkscape:cy="11.416165"
     inkscape:document-units="px"
     inkscape:current-layer="layer1"
     showgrid="true"
     inkscape:window-width="1301"
     inkscape:window-height="744"
     inkscape:window-x="65"
     inkscape:window-y="24"
     inkscape:window-maximized="1"
     inkscape:snap-bbox="true"
     inkscape:bbox-paths="true"
     inkscape:bbox-nodes="true"
     inkscape:snap-bbox-edge-midpoints="true"
     inkscape:snap-bbox-midpoints="true"
     inkscape:object-paths="true"
     inkscape:snap-intersection-paths="true"
     inkscape:object-nodes="true"
     inkscape:snap-smooth-nodes="true"
     inkscape:snap-midpoints="true"
     inkscape:snap-object-midpoints="true"
     inkscape:snap-center="true"
     inkscape:snap-global="true"
     showguides="false"
     inkscape:guide-bbox="true"
     fit-margin-top="0"
     fit-margin-left="0"
     fit-margin-right="0"
     fit-margin-bottom="0"
     inkscape:showpageshadow="false">
    <sodipodi:guide
       orientation="0,1"
       position="599.99999,299.99993"
       id="guide3572" />
    <sodipodi:guide
       orientation="1,0"
       position="294.41949,12.121716"
       id="guide3574" />
    <sodipodi:guide
       orientation="0,1"
       position="456.04389,599.99992"
       id="guide3576" />
    <sodipodi:guide
       orientation="0,1"
       position="-2.8882813e-06,-8.4406273e-05"
       id="guide3578" />
    <sodipodi:guide
       orientation="1,0"
       position="-2.8882813e-06,157.58366"
       id="guide3580" />
    <sodipodi:guide
       orientation="1,0"
       position="599.99999,121.21821"
       id="guide3582" />
    <sodipodi:guide
       orientation="0,1"
       position="599.99999,-714.34359"
       id="guide5928" />
    <sodipodi:guide
       orientation="0,1"
       position="599.99999,-414.34359"
       id="guide5930" />
    <sodipodi:guide
       orientation="0,1"
       position="599.99999,-1014.3435"
       id="guide5932" />
    <sodipodi:guide
       orientation="0,1"
       position="451.57029,524.99606"
       id="guide5294" />
    <sodipodi:guide
       orientation="0,1"
       position="451.57029,75.013516"
       id="guide5296" />
    <sodipodi:guide
       orientation="0,1"
       position="496.01499,-931.36409"
       id="guide5413" />
    <sodipodi:guide
       orientation="0,1"
       position="457.34859,-489.34389"
       id="guide5415" />
    <inkscape:grid
       type="xygrid"
       id="grid3070"
       empspacing="5"
       visible="true"
       enabled="true"
       snapvisiblegridlinesonly="true"
       originx="4.3243213e-05px"
       originy="-2.6947047e-05px" />
  </sodipodi:namedview>
  <metadata
     id="metadata27670">
    <rdf:RDF>
      <cc:Work
         rdf:about="">
        <dc:format>image/svg+xml</dc:format>
        <dc:type
           rdf:resource="http://purl.org/dc/dcmitype/StillImage" />
        <dc:title />
      </cc:Work>
    </rdf:RDF>
  </metadata>
  <g
     inkscape:label="Camada 1"
     inkscape:groupmode="layer"
     id="layer1"
     transform="translate(3364.4171,-2094.7186)">
    <path
       style="font-size:medium;font-style:normal;font-variant:normal;font-weight:normal;font-stretch:normal;text-indent:0;text-align:start;text-decoration:none;line-height:normal;letter-spacing:normal;word-spacing:normal;text-transform:none;direction:ltr;block-progression:tb;writing-mode:lr-tb;text-anchor:start;baseline-shift:baseline;color:#000000;fill:#ff8f00;fill-opacity:1;stroke:none;stroke-width:2.28571415000000000;marker:none;visibility:visible;display:inline;overflow:visible;enable-background:accumulate;font-family:Sans;-inkscape-font-specification:Sans"
       d="m -3353.4171,2095.7186 c -5.508,0 -10,4.492 -10,10 0,5.508 4.492,10 10,10 5.508,0 10,-4.492 10,-10 0,-5.508 -4.492,-10 -10,-10 z m 0,1.75 0.75,0.25 0,1 -0.75,0 -0.75,0 0,-1 0.75,-0.25 z m -3.3438,0.9375 0.5,0.875 -0.6562,0.375 -0.6563,0.375 -0.5,-0.875 0.5313,-0.5937 0.7812,-0.1563 z m 6.6875,0 0.7813,0.1563 0.5312,0.5937 -0.5,0.875 -0.6562,-0.375 -0.6563,-0.375 0.5,-0.875 z m -9.9062,2.6563 0.875,0.5 -0.375,0.6562 -0.375,0.6563 -0.875,-0.5 0.1562,-0.7813 0.5938,-0.5312 z m 13.125,0 0.5937,0.5312 0.1563,0.7813 -0.875,0.5 -0.375,-0.6563 -0.375,-0.6562 0.875,-0.5 z m -7.5625,0.6562 2,0 0,3 3,0 0,2 -5,0 0,-5 z m -7,3.25 1,0 0,0.75 0,0.75 -1,0 -0.25,-0.75 0.25,-0.75 z m 15,0 1,0 0.25,0.75 -0.25,0.75 -1,0 0,-0.75 0,-0.75 z m -13.4375,3.5938 0.375,0.6562 0.375,0.6563 -0.875,0.5 -0.5938,-0.5313 -0.1562,-0.7812 0.875,-0.5 z m 12.875,0 0.875,0.5 -0.1563,0.7812 -0.5937,0.5313 -0.875,-0.5 0.375,-0.6563 0.375,-0.6562 z m -10.5938,2.8437 0.6563,0.375 0.6562,0.375 -0.5,0.875 -0.7812,-0.1562 -0.5313,-0.5938 0.5,-0.875 z m 8.3125,0 0.5,0.875 -0.5312,0.5938 -0.7813,0.1562 -0.5,-0.875 0.6563,-0.375 0.6562,-0.375 z m -4.9062,1.3125 0.75,0 0.75,0 0,1 -0.75,0.25 -0.75,-0.25 0,-1 z"
       id="path2999"
       inkscape:connector-curvature="0" />
  </g>
</svg>
