<?xml version="1.0" encoding="UTF-8" standalone="no"?>
<!-- Created with Inkscape (http://www.inkscape.org/) -->

<svg
   xmlns:dc="http://purl.org/dc/elements/1.1/"
   xmlns:cc="http://creativecommons.org/ns#"
   xmlns:rdf="http://www.w3.org/1999/02/22-rdf-syntax-ns#"
   xmlns:svg="http://www.w3.org/2000/svg"
   xmlns="http://www.w3.org/2000/svg"
   xmlns:sodipodi="http://sodipodi.sourceforge.net/DTD/sodipodi-0.dtd"
   xmlns:inkscape="http://www.inkscape.org/namespaces/inkscape"
   version="1.1"
   width="22"
   height="22"
   id="svg13094"
   inkscape:version="0.48.4 r9939"
   sodipodi:docname="krdc.svg"
   inkscape:export-filename="folder.png"
   inkscape:export-xdpi="90"
   inkscape:export-ydpi="90">
  <sodipodi:namedview
     pagecolor="#ffffff"
     bordercolor="#666666"
     borderopacity="1"
     objecttolerance="10"
     gridtolerance="10"
     guidetolerance="10"
     inkscape:pageopacity="0"
     inkscape:pageshadow="2"
     inkscape:window-width="1301"
     inkscape:window-height="744"
     id="namedview6"
     showgrid="true"
     inkscape:snap-bbox="true"
     inkscape:bbox-paths="true"
     inkscape:bbox-nodes="true"
     inkscape:snap-bbox-edge-midpoints="true"
     inkscape:snap-bbox-midpoints="true"
     inkscape:object-paths="true"
     inkscape:snap-intersection-paths="true"
     inkscape:object-nodes="true"
     inkscape:snap-smooth-nodes="true"
     inkscape:snap-midpoints="true"
     inkscape:snap-object-midpoints="true"
     inkscape:snap-center="true"
     inkscape:zoom="20.85965"
     inkscape:cx="4.011814"
     inkscape:cy="9.0351522"
     inkscape:window-x="65"
     inkscape:window-y="24"
     inkscape:window-maximized="1"
     inkscape:current-layer="svg13094">
    <inkscape:grid
       type="xygrid"
       id="grid2983"
       empspacing="5"
       visible="true"
       enabled="true"
       snapvisiblegridlinesonly="true" />
  </sodipodi:namedview>
  <defs
     id="defs7" />
  <metadata
     id="metadata13099">
    <rdf:RDF>
      <cc:Work
         rdf:about="">
        <dc:format>image/svg+xml</dc:format>
        <dc:type
           rdf:resource="http://purl.org/dc/dcmitype/StillImage" />
        <dc:title />
      </cc:Work>
    </rdf:RDF>
  </metadata>
  <path
     style="fill:#ff6f00;fill-opacity:1;stroke:none"
     d="M 16 2 C 13.790861 2 12 3.790861 12 6 C 12 6.2761424 12.040466 6.5521096 12.09375 6.8125 L 9 8.375 C 8.2667372 7.5350231 7.2025859 7 6 7 C 3.790861 7 2 8.790861 2 11 C 2 13.209139 3.790861 15 6 15 C 7.2025859 15 8.2667372 14.464977 9 13.625 L 12.09375 15.1875 C 12.040466 15.44789 12 15.723858 12 16 C 12 18.209139 13.790861 20 16 20 C 18.209139 20 20 18.209139 20 16 C 20 13.790861 18.209139 12 16 12 C 14.797414 12 13.733263 12.535023 13 13.375 L 9.90625 11.8125 C 9.9595336 11.55211 10 11.276142 10 11 C 10 10.723858 9.9595336 10.44789 9.90625 10.1875 L 13 8.625 C 13.733263 9.4649769 14.797414 10 16 10 C 18.209139 10 20 8.209139 20 6 C 20 3.790861 18.209139 2 16 2 z "
     id="path2987" />
</svg>
