<?xml version="1.0" encoding="UTF-8" standalone="no"?>
<!-- Created with Inkscape (http://www.inkscape.org/) -->

<svg
   xmlns:dc="http://purl.org/dc/elements/1.1/"
   xmlns:cc="http://creativecommons.org/ns#"
   xmlns:rdf="http://www.w3.org/1999/02/22-rdf-syntax-ns#"
   xmlns:svg="http://www.w3.org/2000/svg"
   xmlns="http://www.w3.org/2000/svg"
   xmlns:xlink="http://www.w3.org/1999/xlink"
   xmlns:sodipodi="http://sodipodi.sourceforge.net/DTD/sodipodi-0.dtd"
   xmlns:inkscape="http://www.inkscape.org/namespaces/inkscape"
   width="48"
   height="48"
   id="svg2"
   version="1.1"
   inkscape:version="0.48.4 r9939"
   sodipodi:docname="accessibility-directory.svg">
  <defs
     id="defs4">
    <linearGradient
       id="linearGradient3875">
      <stop
         style="stop-color:#019cd5;stop-opacity:1;"
         offset="0"
         id="stop3877" />
      <stop
         style="stop-color:#01c9d5;stop-opacity:1;"
         offset="1"
         id="stop3879" />
    </linearGradient>
    <linearGradient
       id="linearGradient3819">
      <stop
         style="stop-color:#000000;stop-opacity:1;"
         offset="0"
         id="stop3821" />
      <stop
         style="stop-color:#ffffff;stop-opacity:1;"
         offset="1"
         id="stop3823" />
    </linearGradient>
    <linearGradient
       inkscape:collect="always"
       xlink:href="#linearGradient3875"
       id="linearGradient3881"
       x1="24"
       y1="1050.3622"
       x2="24"
       y2="1006.3622"
       gradientUnits="userSpaceOnUse" />
    <linearGradient
       inkscape:collect="always"
       xlink:href="#linearGradient3819"
       id="linearGradient3883"
       gradientUnits="userSpaceOnUse"
       gradientTransform="translate(40,0)"
       spreadMethod="repeat"
       x1="24"
       y1="1028.3622"
       x2="46"
       y2="1006.3622" />
    <linearGradient
       inkscape:collect="always"
       xlink:href="#linearGradient3819"
       id="linearGradient3885"
       gradientUnits="userSpaceOnUse"
       gradientTransform="translate(40,0)"
       spreadMethod="repeat"
       x1="45"
       y1="1049.3622"
       x2="12"
       y2="1016.3622" />
    <linearGradient
       gradientTransform="matrix(0,-1,1,0,-1.5e-6,47.999998)"
       gradientUnits="userSpaceOnUse"
       x2="47"
       x1="1"
       id="linearGradient3764-4">
      <stop
         id="stop3013"
         stop-opacity="1"
         stop-color="#3e6d94" />
      <stop
         id="stop3015"
         stop-opacity="1"
         stop-color="#4476a2"
         offset="1" />
    </linearGradient>
    <linearGradient
       inkscape:collect="always"
       xlink:href="#linearGradient3764-4"
       id="linearGradient3187"
       gradientUnits="userSpaceOnUse"
       gradientTransform="matrix(0,-1,1,0,-1.5e-6,47.999998)"
       x1="1"
       x2="47" />
    <linearGradient
       inkscape:collect="always"
       xlink:href="#linearGradient3764-4"
       id="linearGradient3190"
       gradientUnits="userSpaceOnUse"
       gradientTransform="matrix(0,-1,1,0,-71.998001,1046.3622)"
       x1="1"
       x2="47" />
  </defs>
  <sodipodi:namedview
     id="base"
     pagecolor="#ffffff"
     bordercolor="#666666"
     borderopacity="1.0"
     inkscape:pageopacity="0.0"
     inkscape:pageshadow="2"
     inkscape:zoom="15.432059"
     inkscape:cx="14.674018"
     inkscape:cy="20.17746"
     inkscape:document-units="px"
     inkscape:current-layer="layer1"
     showgrid="true"
     inkscape:snap-bbox="true"
     inkscape:window-width="1301"
     inkscape:window-height="744"
     inkscape:window-x="65"
     inkscape:window-y="24"
     inkscape:window-maximized="1"
     inkscape:object-nodes="false"
     inkscape:snap-nodes="true"
     showguides="true"
     inkscape:guide-bbox="true">
    <inkscape:grid
       type="xygrid"
       id="grid3005"
       empspacing="6"
       visible="true"
       enabled="true"
       snapvisiblegridlinesonly="true" />
  </sodipodi:namedview>
  <metadata
     id="metadata7">
    <rdf:RDF>
      <cc:Work
         rdf:about="">
        <dc:format>image/svg+xml</dc:format>
        <dc:type
           rdf:resource="http://purl.org/dc/dcmitype/StillImage" />
        <dc:title />
      </cc:Work>
    </rdf:RDF>
  </metadata>
  <g
     inkscape:label="Layer 1"
     inkscape:groupmode="layer"
     id="layer1"
     transform="translate(0,-1004.3622)">
    <path
       style="fill:#016889;fill-opacity:1;stroke:none"
       d="m 24,1008.3622 c -24,0 -24,0 -24,20 l 48,0 c 0,-20 0,-20 -24,-20 z"
       id="path3797"
       inkscape:connector-curvature="0" />
    <path
       id="path3788"
       d="m 24,1051.1116 c -21.2715315,0 -23.66257505,-0.089 -23.9375,-15.4063 0.328125,14.4033 2.9375,14.4063 23.9375,14.4063 21,0 23.609375,0 23.9375,-14.4063 -0.274925,15.3174 -2.665968,15.4063 -23.9375,15.4063 z"
       style="opacity:0.20000000000000001;fill:#ffffff;fill-opacity:1;stroke:none"
       inkscape:connector-curvature="0" />
    <rect
       style="fill:#ffffff;fill-opacity:1;stroke:none"
       id="rect3804"
       width="26"
       height="6.9999828"
       x="18"
       y="1010.3622" />
    <path
       style="fill:#ffffff;fill-opacity:1;stroke:none;opacity:0.3"
       d="M 24 4 C 2.5308478 4 0.30123961 4.120865 0.0625 18.4375 C 0.390625 5.0390625 3 5.03125 24 5.03125 C 45 5.03125 47.609375 5.0390625 47.9375 18.4375 C 47.69876 4.120865 45.469152 4 24 4 z "
       transform="translate(0,1004.3622)"
       id="path3000" />
    <path
       style="fill:url(#linearGradient3881);fill-opacity:1;stroke:none"
       d="M 18.069225,1006.3784 C 0,1006.5415 0,1008.3483 0,1028.3622 c 0,22 0,22 24,22 24,0 24,0 24,-22 0,-16 0,-16 -24,-16 -4,0 -2,-6 -5.930775,-5.9838 z"
       id="path3757"
       inkscape:connector-curvature="0"
       sodipodi:nodetypes="cccccc" />
    <g
       id="g3103"
       transform="translate(-40,0)">
      <path
         style="opacity:0.02999998;fill:url(#linearGradient3883);fill-opacity:1;stroke:none"
         d="M 58.069225,1006.3784 C 40,1006.5415 40,1008.3483 40,1028.3622 c 0,22 0,22 24,22 24,0 24,0 24,-22 0,-16 0,-16 -24,-16 -4,0 -2,-6 -5.930775,-5.9838 z"
         id="path3817"
         inkscape:connector-curvature="0"
         sodipodi:nodetypes="cccccc" />
      <path
         sodipodi:nodetypes="cccccc"
         inkscape:connector-curvature="0"
         id="path3827"
         d="M 58.069225,1006.3784 C 40,1006.5415 40,1008.3483 40,1028.3622 c 0,22 0,22 24,22 24,0 24,0 24,-22 0,-16 0,-16 -24,-16 -4,0 -2,-6 -5.930775,-5.9838 z"
         style="opacity:0.02999998;fill:url(#linearGradient3885);fill-opacity:1;stroke:none" />
    </g>
    <path
       style="fill:#ffffff;fill-opacity:1;stroke:none;opacity:0.4"
       d="M 18.0625 2.03125 C 1.9247472 2.1769158 0.21564151 3.7140172 0.03125 18.28125 C 0.27829019 4.5254379 2.2519281 3.1427125 18.0625 3 C 21.993275 2.9838 20 8.96875 24 8.96875 C 45 8.96875 47.609375 8.96875 47.9375 19.6875 C 47.712965 8.1039598 45.550219 8 24 8 C 20 8 21.993275 2.01505 18.0625 2.03125 z "
       transform="translate(0,1004.3622)"
       id="path3808" />
    <path
       style="opacity:0.1;fill:#000000;fill-opacity:1;fill-rule:nonzero;stroke:none"
       inkscape:connector-curvature="0"
       d="m 27.164114,1025.4187 c 0,1.1433 -0.926523,2.0631 -2.068312,2.0631 -1.141788,0 -2.062492,-0.9198 -2.062492,-2.0631 0,-1.1373 0.920704,-2.0571 2.062492,-2.0571 1.141789,0 2.068312,0.9198 2.068312,2.0571 m 5.159141,2.1981 c -0.096,0.015 -0.187632,0.053 -0.261812,0.105 l -7.061639,1.1013 -7.022367,-1.1133 c -0.181813,-0.135 -0.431989,-0.1695 -0.637074,-0.076 -0.205086,0.099 -0.334536,0.3346 -0.340355,0.5507 0,0.222 0.142541,0.4096 0.340355,0.5101 l 5.499496,1.7405 -0.03927,4.0031 -1.937405,5.9837 c -0.187632,0.2701 -0.130907,0.6212 0.14836,0.8027 0.283629,0.1816 0.676345,0.1291 0.869796,-0.147 l 3.130101,-6.4593 3.073378,6.4473 c 0.164358,0.2821 0.539622,0.3811 0.829069,0.2176 0.289447,-0.1576 0.392717,-0.5282 0.221085,-0.8088 l -1.903952,-6.0167 -0.07419,-3.763 5.579495,-2.0226 c 0.221085,-0.1575 0.324356,-0.4456 0.226902,-0.6977 -0.096,-0.2521 -0.369444,-0.3931 -0.641437,-0.3631 m 0,0"
       id="path3220" />
    <path
       id="path3083"
       d="m 26.164106,1024.4193 c 0,1.1433 -0.926523,2.0631 -2.068312,2.0631 -1.141788,0 -2.062492,-0.9198 -2.062492,-2.0631 0,-1.1373 0.920704,-2.0571 2.062492,-2.0571 1.141789,0 2.068312,0.9198 2.068312,2.0571 m 5.159141,2.1981 c -0.096,0.015 -0.187632,0.053 -0.261812,0.105 l -7.061639,1.1013 -7.022367,-1.1133 c -0.181813,-0.135 -0.431989,-0.1695 -0.637074,-0.076 -0.205086,0.099 -0.334536,0.3346 -0.340355,0.5507 0,0.222 0.142541,0.4096 0.340355,0.5101 l 5.499496,1.7405 -0.03927,4.0031 -1.937405,5.9837 c -0.187632,0.2701 -0.130907,0.6212 0.14836,0.8027 0.283629,0.1816 0.676345,0.1291 0.869796,-0.147 l 3.130101,-6.4593 3.073378,6.4473 c 0.164358,0.2821 0.539622,0.3811 0.829069,0.2176 0.289447,-0.1576 0.392717,-0.5282 0.221085,-0.8088 l -1.903952,-6.0167 -0.07419,-3.763 5.579495,-2.0226 c 0.221085,-0.1575 0.324356,-0.4456 0.226902,-0.6977 -0.096,-0.2521 -0.369444,-0.3931 -0.641437,-0.3631 m 0,0"
       inkscape:connector-curvature="0"
       style="fill:#e3f2fd;fill-opacity:1;fill-rule:nonzero;stroke:none" />
  </g>
</svg>
