<?xml version="1.0" encoding="UTF-8" standalone="no"?>
<!-- Created with Inkscape (http://www.inkscape.org/) -->

<svg
   xmlns:dc="http://purl.org/dc/elements/1.1/"
   xmlns:cc="http://creativecommons.org/ns#"
   xmlns:rdf="http://www.w3.org/1999/02/22-rdf-syntax-ns#"
   xmlns:svg="http://www.w3.org/2000/svg"
   xmlns="http://www.w3.org/2000/svg"
   xmlns:xlink="http://www.w3.org/1999/xlink"
   xmlns:sodipodi="http://sodipodi.sourceforge.net/DTD/sodipodi-0.dtd"
   xmlns:inkscape="http://www.inkscape.org/namespaces/inkscape"
   width="48"
   height="48"
   id="svg2"
   version="1.1"
   inkscape:version="0.48.4 r9939"
   sodipodi:docname="accessories-system-cleaner.svg">
  <defs
     id="defs4">
    <linearGradient
       id="linearGradient3770">
      <stop
         style="stop-color:#1e88e5;stop-opacity:1;"
         offset="0"
         id="stop3772" />
      <stop
         style="stop-color:#1ea6e5;stop-opacity:1;"
         offset="1"
         id="stop3774" />
    </linearGradient>
    <linearGradient
       inkscape:collect="always"
       xlink:href="#linearGradient3770"
       id="linearGradient3776"
       x1="24"
       y1="1050.3622"
       x2="24"
       y2="1006.3622"
       gradientUnits="userSpaceOnUse" />
  </defs>
  <sodipodi:namedview
     id="base"
     pagecolor="#ffffff"
     bordercolor="#666666"
     borderopacity="1.0"
     inkscape:pageopacity="0.0"
     inkscape:pageshadow="2"
     inkscape:zoom="16.381307"
     inkscape:cx="17.570572"
     inkscape:cy="23.068054"
     inkscape:document-units="px"
     inkscape:current-layer="layer1"
     showgrid="true"
     inkscape:snap-bbox="true"
     inkscape:window-width="1301"
     inkscape:window-height="744"
     inkscape:window-x="65"
     inkscape:window-y="24"
     inkscape:window-maximized="1"
     inkscape:snap-global="true">
    <inkscape:grid
       type="xygrid"
       id="grid2985"
       empspacing="6"
       visible="true"
       enabled="true"
       snapvisiblegridlinesonly="true" />
  </sodipodi:namedview>
  <metadata
     id="metadata7">
    <rdf:RDF>
      <cc:Work
         rdf:about="">
        <dc:format>image/svg+xml</dc:format>
        <dc:type
           rdf:resource="http://purl.org/dc/dcmitype/StillImage" />
        <dc:title />
      </cc:Work>
    </rdf:RDF>
  </metadata>
  <g
     inkscape:label="Layer 1"
     inkscape:groupmode="layer"
     id="layer1"
     transform="translate(0,-1004.3622)">
    <path
       id="path3788"
       d="m 24,1051.1116 c -21.2715315,0 -23.66257505,-0.089 -23.9375,-15.4063 0.328125,14.4033 2.9375,14.4063 23.9375,14.4063 21,0 23.609375,0 23.9375,-14.4063 -0.274925,15.3174 -2.665968,15.4063 -23.9375,15.4063 z"
       style="opacity:0.20000000000000001;fill:#ffffff;fill-opacity:1;stroke:none"
       inkscape:connector-curvature="0" />
    <path
       style="fill:url(#linearGradient3776);fill-opacity:1;stroke:none"
       d="m 24,1006.3622 c -24,0 -24,0 -24,22 0,22 0,22 24,22 24,0 24,0 24,-22 0,-22 0,-22 -24,-22 z"
       id="path3757"
       inkscape:connector-curvature="0"
       sodipodi:nodetypes="zzzzz" />
    <path
       style="fill:#000000;fill-opacity:1;stroke:none;opacity:0.20000000000000001"
       d="M 24 2 C 2.7284685 2 0.33742495 2.0888436 0.0625 17.40625 C 0.390625 3.0029297 3 3 24 3 C 45 3 47.609375 3.0029297 47.9375 17.40625 C 47.662575 2.0888436 45.271532 2 24 2 z "
       transform="translate(0,1004.3622)"
       id="path3770" />
    <path
       style="fill:#000000;fill-opacity:1;stroke:none;opacity:0.20000000000000001"
       d="M 24 2 C 7.2405624 2 2.2369698 2.0788791 0.71875 9.59375 C 2.3300781 2.5289866 7.5 2.53125 24 2.53125 C 40.5 2.53125 45.669922 2.5289866 47.28125 9.59375 C 45.76303 2.0788791 40.759438 2 24 2 z M 47.28125 9.59375 C 47.354492 9.9148756 47.409424 10.242768 47.46875 10.59375 C 47.41561 10.240351 47.346891 9.9186608 47.28125 9.59375 z M 0.71875 9.59375 C 0.65310868 9.9186608 0.58439008 10.240351 0.53125 10.59375 C 0.59057617 10.242768 0.64550781 9.9148756 0.71875 9.59375 z "
       transform="translate(0,1004.3622)"
       id="path3012" />
    <g
       id="g3032"
       transform="translate(48,1007.3622)" />
    <path
       id="path3841"
       d="m 25,1017.3622 c -6.627417,0 -12,5.3726 -12,12 0,6.6274 5.372583,12 12,12 6.627417,0 12,-5.3726 12,-12 0,-6.6274 -5.372583,-12 -12,-12 z m 0,3 c 4.970563,0 9,4.0294 9,9 0,4.9706 -4.029437,9 -9,9 -4.970563,0 -9,-4.0294 -9,-9 0,-4.9706 4.029437,-9 9,-9 z"
       style="opacity:0.2;fill:#000000;fill-opacity:1;stroke:none"
       inkscape:connector-curvature="0" />
    <path
       style="opacity:1;fill:#e1f5fe;fill-opacity:1;stroke:none"
       d="M 24 12 C 17.372583 12 12 17.372583 12 24 C 12 30.627417 17.372583 36 24 36 C 30.627417 36 36 30.627417 36 24 C 36 17.372583 30.627417 12 24 12 z M 24 15 C 28.970563 15 33 19.029437 33 24 C 33 28.970563 28.970563 33 24 33 C 19.029437 33 15 28.970563 15 24 C 15 19.029437 19.029437 15 24 15 z "
       transform="translate(0,1004.3622)"
       id="path2998" />
    <path
       transform="matrix(0.75,0,0,0.75,6,1010.3622)"
       d="m 36,24 a 12,12 0 1 1 -24,0 12,12 0 1 1 24,0 z"
       sodipodi:ry="12"
       sodipodi:rx="12"
       sodipodi:cy="24"
       sodipodi:cx="24"
       id="path3768"
       style="fill:#112833;fill-opacity:1;stroke:none"
       sodipodi:type="arc" />
    <path
       style="fill:#55acfe;fill-opacity:1;stroke:none"
       d="m 19.4375,1020.6122 c -0.374183,0.221 -0.725635,0.4789 -1.0625,0.75 0.337626,-0.2742 0.686834,-0.5267 1.0625,-0.75 z m 9.125,0 c 0.375666,0.2233 0.724874,0.4758 1.0625,0.75 -0.336865,-0.2711 -0.688317,-0.529 -1.0625,-0.75 z m -10.28125,0.8125 c -0.359082,0.2963 -0.690847,0.621 -1,0.9688 0.303861,-0.3436 0.647544,-0.6753 1,-0.9688 z m 11.4375,0 c 0.352456,0.2935 0.696139,0.6252 1,0.9688 -0.309153,-0.3478 -0.640918,-0.6725 -1,-0.9688 z m -12.9375,1.5938 c -0.134395,0.1811 -0.254251,0.3712 -0.375,0.5625 0.119829,-0.1914 0.241608,-0.3812 0.375,-0.5625 z m -0.375,0.5625 c -0.134762,0.2134 -0.258185,0.4312 -0.375,0.6562 0.11475,-0.2223 0.242863,-0.4452 0.375,-0.6562 z m -0.375,0.6562 c -0.231129,0.4452 -0.438719,0.8901 -0.59375,1.375 0.154321,-0.4839 0.36425,-0.9304 0.59375,-1.375 z m 15.1875,-1.2187 c 0.133392,0.1813 0.255171,0.3711 0.375,0.5625 -0.120749,-0.1913 -0.240605,-0.3814 -0.375,-0.5625 z m 0.375,0.5625 c 0.132137,0.211 0.26025,0.4339 0.375,0.6562 -0.116815,-0.225 -0.240238,-0.4428 -0.375,-0.6562 z m 0.375,0.6562 c 0.2295,0.4446 0.439429,0.8911 0.59375,1.375 -0.155031,-0.4849 -0.362621,-0.9298 -0.59375,-1.375 z m -16.71875,2.125 c -0.146702,0.6448 -0.25,1.3108 -0.25,2 l 2,0 0,-2 -1.75,0 z m 1.75,2 0,2 2,0 0,-2 -2,0 z m 2,0 2,0 0,-2 -2,0 0,2 z m 2,0 0,2 2,0 0,-2 -2,0 z m 2,0 2,0 0,-2 -2,0 0,2 z m 2,0 0,2 2,0 0,-2 -2,0 z m 2,0 2,0 0,-2 -2,0 0,2 z m 2,0 0,2 2,0 0,-2 -2,0 z m 2,0 2,0 c 0,-0.6892 -0.103298,-1.3552 -0.25,-2 l -1.75,0 0,2 z m 2,0 c 0,0.3446 -0.01834,0.698 -0.0625,1.0313 0.03977,-0.3434 0.0625,-0.6772 0.0625,-1.0313 z m -0.0625,1.0313 c -0.04416,0.3332 -0.114149,0.6463 -0.1875,0.9687 0.07134,-0.3135 0.149852,-0.6437 0.1875,-0.9687 z m -0.1875,0.9687 -1.75,0 0,2 1.03125,0 c 0.31534,-0.6315 0.558292,-1.2948 0.71875,-2 z m -0.71875,2 c -0.144618,0.2896 -0.297362,0.5724 -0.46875,0.8438 0.174116,-0.2711 0.323969,-0.5539 0.46875,-0.8438 z m -0.46875,0.8438 c -0.171388,0.2713 -0.361419,0.5313 -0.5625,0.7812 0.200855,-0.2496 0.388775,-0.5108 0.5625,-0.7812 z m -0.5625,0.7812 0,-1.625 -2,0 0,2 1.6875,0 c 0.108629,-0.121 0.210469,-0.2482 0.3125,-0.375 z m -0.3125,0.375 c -0.192296,0.2142 -0.384732,0.4259 -0.59375,0.625 0.211894,-0.195 0.40137,-0.4107 0.59375,-0.625 z m -1.6875,0 -2,0 0,2 1.09375,0 c 0.308426,-0.1583 0.619767,-0.3084 0.90625,-0.5 l 0,-1.5 z m -2,2 -2,0 0,0.9375 c 0.687766,-0.077 1.368083,-0.2454 2,-0.4687 l 0,-0.4688 z m 0,0.4688 c 0.357726,-0.1265 0.695909,-0.2688 1.03125,-0.4375 -0.334424,0.1681 -0.673462,0.3109 -1.03125,0.4375 z m -2,0.4687 c -0.333645,0.037 -0.656337,0.062 -1,0.062 0.343663,0 0.666355,-0.025 1,-0.062 z m -1,0.062 c -0.343663,0 -0.666355,-0.025 -1,-0.062 0.333645,0.037 0.656337,0.062 1,0.062 z m -1,-0.062 0,-0.9375 -2,0 0,0.4688 c 0.631917,0.2233 1.312234,0.3914 2,0.4687 z m -2,-0.4687 c -0.357788,-0.1266 -0.696826,-0.2694 -1.03125,-0.4375 0.335341,0.1687 0.673524,0.311 1.03125,0.4375 z m 0,-0.4688 0,-2 -2,0 0,1.5 c 0.286483,0.1916 0.597824,0.3417 0.90625,0.5 l 1.09375,0 z m -2,-2 0,-2 -2,0 0,1.625 c 0.102031,0.1268 0.203871,0.254 0.3125,0.375 l 1.6875,0 z m -1.6875,0 c 0.19238,0.2143 0.381856,0.43 0.59375,0.625 -0.209018,-0.1991 -0.401454,-0.4108 -0.59375,-0.625 z M 17,1033.9872 c -0.201082,-0.2499 -0.391112,-0.5099 -0.5625,-0.7812 0.173725,0.2704 0.361645,0.5316 0.5625,0.7812 z m -0.5625,-0.7812 c -0.171388,-0.2714 -0.324132,-0.5542 -0.46875,-0.8438 0.144781,0.2899 0.294633,0.5727 0.46875,0.8438 z m -0.46875,-0.8438 1.03125,0 0,-2 -1.75,0 c 0.160458,0.7052 0.40341,1.3685 0.71875,2 z m -0.71875,-2 c -0.07335,-0.3224 -0.143338,-0.6355 -0.1875,-0.9687 0.03765,0.325 0.116165,0.6552 0.1875,0.9687 z m -0.1875,-0.9687 C 15.018338,1029.0602 15,1028.7068 15,1028.3622 c 0,0.3541 0.02272,0.6879 0.0625,1.0313 z m 3.9375,2.9687 2,0 0,-2 -2,0 0,2 z m 2,0 0,2 2,0 0,-2 -2,0 z m 2,0 2,0 0,-2 -2,0 0,2 z m 2,0 0,2 2,0 0,-2 -2,0 z m 2,0 2,0 0,-2 -2,0 0,2 z m -2,2 -2,0 0,2 2,0 0,-2 z"
       id="path3834"
       inkscape:connector-curvature="0" />
  </g>
</svg>
