<?xml version="1.0" encoding="UTF-8" standalone="no"?>
<!-- Created with Inkscape (http://www.inkscape.org/) -->

<svg
   xmlns:dc="http://purl.org/dc/elements/1.1/"
   xmlns:cc="http://creativecommons.org/ns#"
   xmlns:rdf="http://www.w3.org/1999/02/22-rdf-syntax-ns#"
   xmlns:svg="http://www.w3.org/2000/svg"
   xmlns="http://www.w3.org/2000/svg"
   xmlns:sodipodi="http://sodipodi.sourceforge.net/DTD/sodipodi-0.dtd"
   xmlns:inkscape="http://www.inkscape.org/namespaces/inkscape"
   width="48"
   height="48"
   id="svg2"
   version="1.1"
   inkscape:version="0.48.4 r9939"
   sodipodi:docname="AdobeBridge.svg">
  <sodipodi:namedview
     id="base"
     pagecolor="#ffffff"
     bordercolor="#666666"
     borderopacity="1.0"
     inkscape:pageopacity="0.0"
     inkscape:pageshadow="2"
     inkscape:zoom="8.1906533"
     inkscape:cx="9.4379183"
     inkscape:cy="19.612429"
     inkscape:document-units="px"
     inkscape:current-layer="layer1"
     showgrid="true"
     inkscape:snap-bbox="true"
     inkscape:window-width="1301"
     inkscape:window-height="744"
     inkscape:window-x="65"
     inkscape:window-y="24"
     inkscape:window-maximized="1"
     inkscape:snap-global="true">
    <inkscape:grid
       snapvisiblegridlinesonly="true"
       enabled="true"
       visible="true"
       empspacing="6"
       id="grid2985"
       type="xygrid" />
  </sodipodi:namedview>
  <defs
     id="defs4">
    <clipPath
       id="clip4-5">
      <path
         id="path3058"
         d="m 29.91 22.383 l -0.086 0 l -0.086 -2.035 l -2.34 0 c 0.063 0.961 0.086 1.992 0.086 3.434 l 0 7.215 l 2.691 0 l 0 -5.512 c 0 -0.305 0.043 -0.59 0.086 -0.828 c 0.242 -1.203 1.113 -2.035 2.406 -2.035 c 0.328 0 0.566 0.043 0.785 0.086 l 0 -2.535 c -0.219 -0.043 -0.371 -0.066 -0.633 -0.066 c -1.137 0 -2.383 0.766 -2.91 2.273" />
    </clipPath>
    <clipPath
       id="clip3-1">
      <path
         id="path3055"
         d="m 27 20 l 7 0 l 0 11 l -7 0 m 0 -11" />
    </clipPath>
    <clipPath
       id="clip2-4">
      <path
         id="path3052"
         d="m 15 16.457 l 0 14.496 c 0.68 0.086 1.816 0.195 3.301 0.195 c 2.691 0 4.418 -0.457 5.469 -1.375 c 0.852 -0.699 1.422 -1.73 1.422 -3.039 c 0 -2.035 -1.422 -3.258 -2.977 -3.652 l 0 -0.043 c 1.598 -0.594 2.453 -1.84 2.453 -3.195 c 0 -1.246 -0.613 -2.207 -1.531 -2.754 c -1.01 -0.699 -2.23 -0.941 -4.223 -0.941 c -1.508 0 -3.059 0.133 -3.914 0.309 m 2.672 1.793 c 0.281 -0.066 0.742 -0.109 1.527 -0.109 c 1.707 0 2.758 0.633 2.758 2.01 c 0 1.246 -1.051 2.121 -2.91 2.121 l -1.375 0 m 0 6.777 l 0 -4.809 l 1.332 0 c 1.859 0 3.344 0.699 3.344 2.402 c 0 1.816 -1.531 2.473 -3.258 2.473 c -0.609 0 -1.07 0 -1.422 -0.066" />
    </clipPath>
    <clipPath
       id="clip1-0">
      <path
         id="path3049"
         d="m 15 16 l 11 0 l 0 16 l -11 0 m 0 -16" />
    </clipPath>
    <clipPath
       id="clipPath-394629530">
      <g
         id="g3044"
         transform="translate(0,-1004.3622)">
        <path
           id="path3046"
           fill="#1890d0"
           transform="matrix(15.333333,0,0,11.5,414.99999,878.8622)"
           d="m -24 13 c 0 1.105 -0.672 2 -1.5 2 -0.828 0 -1.5 -0.895 -1.5 -2 0 -1.105 0.672 -2 1.5 -2 0.828 0 1.5 0.895 1.5 2 z" />
      </g>
    </clipPath>
    <clipPath
       id="clipPath-388284746">
      <g
         id="g3039"
         transform="translate(0,-1004.3622)">
        <path
           id="path3041"
           fill="#1890d0"
           transform="matrix(15.333333,0,0,11.5,414.99999,878.8622)"
           d="m -24 13 c 0 1.105 -0.672 2 -1.5 2 -0.828 0 -1.5 -0.895 -1.5 -2 0 -1.105 0.672 -2 1.5 -2 0.828 0 1.5 0.895 1.5 2 z" />
      </g>
    </clipPath>
    <linearGradient
       gradientTransform="matrix(0,-1,1,0,-1.5e-6,47.999998)"
       gradientUnits="userSpaceOnUse"
       x2="47"
       x1="1"
       id="linearGradient3764">
      <stop
         id="stop3034"
         stop-opacity="1"
         stop-color="#685030" />
      <stop
         id="stop3036"
         stop-opacity="1"
         stop-color="#765a36"
         offset="1" />
    </linearGradient>
  </defs>
  <metadata
     id="metadata7">
    <rdf:RDF>
      <cc:Work
         rdf:about="">
        <dc:format>image/svg+xml</dc:format>
        <dc:type
           rdf:resource="http://purl.org/dc/dcmitype/StillImage" />
        <dc:title />
      </cc:Work>
    </rdf:RDF>
  </metadata>
  <g
     transform="translate(0,-1004.3622)"
     id="layer1"
     inkscape:groupmode="layer"
     inkscape:label="Layer 1">
    <path
       inkscape:connector-curvature="0"
       style="opacity:0.20000000000000001;fill:#ffffff;fill-opacity:1;stroke:none"
       d="m 24,1051.1116 c -21.2715315,0 -23.66257505,-0.089 -23.9375,-15.4063 0.328125,14.4033 2.9375,14.4063 23.9375,14.4063 21,0 23.609375,0 23.9375,-14.4063 -0.274925,15.3174 -2.665968,15.4063 -23.9375,15.4063 z"
       id="path3788" />
    <path
       sodipodi:nodetypes="zzzzz"
       inkscape:connector-curvature="0"
       id="path3757"
       d="m 24,1006.3622 c -24,0 -24,0 -24,22 0,22 0,22 24,22 24,0 24,0 24,-22 0,-22 0,-22 -24,-22 z"
       style="fill:#705634;fill-opacity:1;stroke:none" />
    <path
       id="path3770"
       transform="translate(0,1004.3622)"
       d="M 24 2 C 2.7284685 2 0.33742495 2.0888436 0.0625 17.40625 C 0.390625 3.0029297 3 3 24 3 C 45 3 47.609375 3.0029297 47.9375 17.40625 C 47.662575 2.0888436 45.271532 2 24 2 z "
       style="fill:#000000;fill-opacity:1;stroke:none;opacity:0.20000000000000001" />
    <path
       id="path3012"
       transform="translate(0,1004.3622)"
       d="M 24 2 C 7.2405624 2 2.2369698 2.0788791 0.71875 9.59375 C 2.3300781 2.5289866 7.5 2.53125 24 2.53125 C 40.5 2.53125 45.669922 2.5289866 47.28125 9.59375 C 45.76303 2.0788791 40.759438 2 24 2 z M 47.28125 9.59375 C 47.354492 9.9148756 47.409424 10.242768 47.46875 10.59375 C 47.41561 10.240351 47.346891 9.9186608 47.28125 9.59375 z M 0.71875 9.59375 C 0.65310868 9.9186608 0.58439008 10.240351 0.53125 10.59375 C 0.59057617 10.242768 0.64550781 9.9148756 0.71875 9.59375 z "
       style="fill:#000000;fill-opacity:1;stroke:none;opacity:0.20000000000000001" />
    <g
       transform="translate(48,1007.3622)"
       id="g3032" />
    <g
       id="g3041"
       transform="translate(-72.998,1016.3622)" />
    <g
       id="g3057"
       transform="translate(-58.998,1006.3622)" />
    <g
       id="g3088"
       transform="translate(-49.998,1006.3622)" />
    <g
       id="g3090"
       transform="translate(0,1004.2132)">
      <g
         clip-path="url(#clipPath-388284746)"
         id="g3092">
        <g
           transform="translate(1,1)"
           id="g3094">
          <g
             style="opacity:0.1"
             id="g3096">
            <!-- color: #765a36 -->
            <g
               id="g3098">
              <g
                 clip-path="url(#clip1-0)"
                 id="g3100">
                <g
                   clip-path="url(#clip2-4)"
                   id="g3102">
                  <path
                     style="fill:#000000;fill-opacity:1;fill-rule:nonzero;stroke:none"
                     inkscape:connector-curvature="0"
                     d="m 15,16.457 0,14.496 c 0.68,0.086 1.816,0.195 3.301,0.195 2.691,0 4.418,-0.457 5.469,-1.375 0.852,-0.699 1.422,-1.73 1.422,-3.039 0,-2.035 -1.422,-3.258 -2.977,-3.652 l 0,-0.043 c 1.598,-0.594 2.453,-1.84 2.453,-3.195 0,-1.246 -0.613,-2.207 -1.531,-2.754 -1.01,-0.699 -2.23,-0.941 -4.223,-0.941 -1.508,0 -3.059,0.133 -3.914,0.309 m 2.672,1.793 c 0.281,-0.066 0.742,-0.109 1.527,-0.109 1.707,0 2.758,0.633 2.758,2.01 0,1.246 -1.051,2.121 -2.91,2.121 l -1.375,0 m 0,6.777 0,-4.809 1.332,0 c 1.859,0 3.344,0.699 3.344,2.402 0,1.816 -1.531,2.473 -3.258,2.473 -0.609,0 -1.07,0 -1.422,-0.066"
                     id="path3104" />
                </g>
              </g>
              <g
                 clip-path="url(#clip3-1)"
                 id="g3106">
                <g
                   clip-path="url(#clip4-5)"
                   id="g3108">
                  <path
                     style="fill:#000000;fill-opacity:1;fill-rule:nonzero;stroke:none"
                     inkscape:connector-curvature="0"
                     d="m 29.91,22.383 -0.086,0 -0.086,-2.035 -2.34,0 c 0.063,0.961 0.086,1.992 0.086,3.434 l 0,7.215 2.691,0 0,-5.512 c 0,-0.305 0.043,-0.59 0.086,-0.828 0.242,-1.203 1.113,-2.035 2.406,-2.035 0.328,0 0.566,0.043 0.785,0.086 l 0,-2.535 c -0.219,-0.043 -0.371,-0.066 -0.633,-0.066 -1.137,0 -2.383,0.766 -2.91,2.273"
                     id="path3110" />
                </g>
              </g>
            </g>
          </g>
        </g>
      </g>
    </g>
    <g
       id="g3112"
       transform="translate(0,1004.2132)">
      <g
         clip-path="url(#clipPath-394629530)"
         id="g3114">
        <!-- color: #765a36 -->
        <g
           id="g3116">
          <g
             clip-path="url(#clip1-0)"
             id="g3118">
            <g
               clip-path="url(#clip2-4)"
               id="g3120">
              <path
                 style="fill:#ecbf03;fill-opacity:1;fill-rule:nonzero;stroke:none"
                 inkscape:connector-curvature="0"
                 d="m 15,16.457 0,14.496 c 0.68,0.086 1.816,0.195 3.301,0.195 2.691,0 4.418,-0.457 5.469,-1.375 0.852,-0.699 1.422,-1.73 1.422,-3.039 0,-2.035 -1.422,-3.258 -2.977,-3.652 l 0,-0.043 c 1.598,-0.594 2.453,-1.84 2.453,-3.195 0,-1.246 -0.613,-2.207 -1.531,-2.754 -1.01,-0.699 -2.23,-0.941 -4.223,-0.941 -1.508,0 -3.059,0.133 -3.914,0.309 m 2.672,1.793 c 0.281,-0.066 0.742,-0.109 1.527,-0.109 1.707,0 2.758,0.633 2.758,2.01 0,1.246 -1.051,2.121 -2.91,2.121 l -1.375,0 m 0,6.777 0,-4.809 1.332,0 c 1.859,0 3.344,0.699 3.344,2.402 0,1.816 -1.531,2.473 -3.258,2.473 -0.609,0 -1.07,0 -1.422,-0.066"
                 id="path3122" />
            </g>
          </g>
          <g
             clip-path="url(#clip3-1)"
             id="g3124">
            <g
               clip-path="url(#clip4-5)"
               id="g3126">
              <path
                 style="fill:#ecbf03;fill-opacity:1;fill-rule:nonzero;stroke:none"
                 inkscape:connector-curvature="0"
                 d="m 29.91,22.383 -0.086,0 -0.086,-2.035 -2.34,0 c 0.063,0.961 0.086,1.992 0.086,3.434 l 0,7.215 2.691,0 0,-5.512 c 0,-0.305 0.043,-0.59 0.086,-0.828 0.242,-1.203 1.113,-2.035 2.406,-2.035 0.328,0 0.566,0.043 0.785,0.086 l 0,-2.535 c -0.219,-0.043 -0.371,-0.066 -0.633,-0.066 -1.137,0 -2.383,0.766 -2.91,2.273"
                 id="path3128" />
            </g>
          </g>
        </g>
      </g>
    </g>
  </g>
</svg>
