<?xml version="1.0" encoding="UTF-8" standalone="no"?>
<!-- Created with Inkscape (http://www.inkscape.org/) -->

<svg
   xmlns:dc="http://purl.org/dc/elements/1.1/"
   xmlns:cc="http://creativecommons.org/ns#"
   xmlns:rdf="http://www.w3.org/1999/02/22-rdf-syntax-ns#"
   xmlns:svg="http://www.w3.org/2000/svg"
   xmlns="http://www.w3.org/2000/svg"
   xmlns:xlink="http://www.w3.org/1999/xlink"
   xmlns:sodipodi="http://sodipodi.sourceforge.net/DTD/sodipodi-0.dtd"
   xmlns:inkscape="http://www.inkscape.org/namespaces/inkscape"
   width="48"
   height="48"
   id="svg2"
   version="1.1"
   inkscape:version="0.48.4 r9939"
   sodipodi:docname="AdobePrelude.svg">
  <defs
     id="defs4">
    <linearGradient
       id="linearGradient3765">
      <stop
         style="stop-color:#0d47a1;stop-opacity:1;"
         offset="0"
         id="stop3767" />
      <stop
         style="stop-color:#115bcf;stop-opacity:1;"
         offset="1"
         id="stop3769" />
    </linearGradient>
    <linearGradient
       inkscape:collect="always"
       xlink:href="#linearGradient3765"
       id="linearGradient3771"
       x1="24"
       y1="1050.3622"
       x2="24"
       y2="1006.3622"
       gradientUnits="userSpaceOnUse" />
  </defs>
  <sodipodi:namedview
     id="base"
     pagecolor="#ffffff"
     bordercolor="#666666"
     borderopacity="1.0"
     inkscape:pageopacity="0.0"
     inkscape:pageshadow="2"
     inkscape:zoom="11.583333"
     inkscape:cx="25.783891"
     inkscape:cy="22.806204"
     inkscape:document-units="px"
     inkscape:current-layer="layer1"
     showgrid="true"
     inkscape:snap-bbox="true"
     inkscape:window-width="1301"
     inkscape:window-height="744"
     inkscape:window-x="65"
     inkscape:window-y="24"
     inkscape:window-maximized="1"
     inkscape:snap-global="true"
     inkscape:object-nodes="true">
    <inkscape:grid
       type="xygrid"
       id="grid2985"
       empspacing="6"
       visible="true"
       enabled="true"
       snapvisiblegridlinesonly="true" />
  </sodipodi:namedview>
  <metadata
     id="metadata7">
    <rdf:RDF>
      <cc:Work
         rdf:about="">
        <dc:format>image/svg+xml</dc:format>
        <dc:type
           rdf:resource="http://purl.org/dc/dcmitype/StillImage" />
        <dc:title />
      </cc:Work>
    </rdf:RDF>
  </metadata>
  <g
     inkscape:label="Layer 1"
     inkscape:groupmode="layer"
     id="layer1"
     transform="translate(0,-1004.3622)">
    <path
       id="path3788"
       d="m 24,1051.1116 c -21.2715315,0 -23.66257505,-0.089 -23.9375,-15.4063 0.328125,14.4033 2.9375,14.4063 23.9375,14.4063 21,0 23.609375,0 23.9375,-14.4063 -0.274925,15.3174 -2.665968,15.4063 -23.9375,15.4063 z"
       style="opacity:0.20000000000000001;fill:#ffffff;fill-opacity:1;stroke:none"
       inkscape:connector-curvature="0" />
    <path
       style="fill:url(#linearGradient3771);fill-opacity:1;stroke:none"
       d="m 24,1006.3622 c -24,0 -24,0 -24,22 0,22 0,22 24,22 24,0 24,0 24,-22 0,-22 0,-22 -24,-22 z"
       id="path3757"
       inkscape:connector-curvature="0"
       sodipodi:nodetypes="zzzzz" />
    <path
       style="fill:#000000;fill-opacity:1;stroke:none;opacity:0.20000000000000001"
       d="M 24 2 C 2.7284685 2 0.33742495 2.0888436 0.0625 17.40625 C 0.390625 3.0029297 3 3 24 3 C 45 3 47.609375 3.0029297 47.9375 17.40625 C 47.662575 2.0888436 45.271532 2 24 2 z "
       transform="translate(0,1004.3622)"
       id="path3770" />
    <path
       style="fill:#000000;fill-opacity:1;stroke:none;opacity:0.20000000000000001"
       d="M 24 2 C 7.2405624 2 2.2369698 2.0788791 0.71875 9.59375 C 2.3300781 2.5289866 7.5 2.53125 24 2.53125 C 40.5 2.53125 45.669922 2.5289866 47.28125 9.59375 C 45.76303 2.0788791 40.759438 2 24 2 z M 47.28125 9.59375 C 47.354492 9.9148756 47.409424 10.242768 47.46875 10.59375 C 47.41561 10.240351 47.346891 9.9186608 47.28125 9.59375 z M 0.71875 9.59375 C 0.65310868 9.9186608 0.58439008 10.240351 0.53125 10.59375 C 0.59057617 10.242768 0.64550781 9.9148756 0.71875 9.59375 z "
       transform="translate(0,1004.3622)"
       id="path3012" />
    <g
       id="g3032"
       transform="translate(48,1007.3622)" />
    <path
       inkscape:connector-curvature="0"
       id="path2995"
       d="m 17,1019.3622 0,16.9587 4.002427,0 0,-6.6225 1.753641,0 c 0.998206,0 1.835661,-0.1385 2.51699,-0.392 0.697155,-0.2535 1.263931,-0.5927 1.691748,-1.0522 0.443638,-0.4595 0.758881,-1.0167 0.949029,-1.6505 0.190123,-0.6337 0.288822,-1.3232 0.288835,-2.0837 -1.3e-5,-0.5229 -0.07957,-1.0897 -0.206311,-1.6918 -0.126769,-0.6179 -0.357672,-1.1847 -0.722087,-1.6917 -0.364439,-0.5071 -0.881865,-0.9258 -1.54733,-1.2585 -0.649641,-0.3486 -1.491883,-0.5158 -2.537622,-0.5158 l -6.18932,0 z m 13.162621,0 0,16.9587 3.837379,0 0,-16.9587 -3.837379,0 z m -9.160194,2.9503 1.010923,0 c 0.396109,0 0.741555,0.059 1.010922,0.1856 0.269352,0.1109 0.455691,0.2686 0.598301,0.4746 0.158438,0.206 0.287341,0.4368 0.350728,0.722 0.06337,0.2694 0.08252,0.5751 0.08252,0.9078 -8e-6,0.2852 -0.01915,0.5765 -0.08252,0.8459 -0.04754,0.2535 -0.151027,0.4701 -0.309466,0.6602 -0.14261,0.1901 -0.344794,0.3477 -0.598301,0.4745 -0.253522,0.1109 -0.57355,0.165 -0.96966,0.165 l -1.093447,0 0,-4.4356 z"
       style="font-size:36px;font-style:normal;font-weight:normal;text-align:center;line-height:100%;letter-spacing:0px;word-spacing:0px;text-anchor:middle;fill:#000000;fill-opacity:1;stroke:none;font-family:Sans;opacity:0.2" />
    <path
       style="font-size:36px;font-style:normal;font-weight:normal;text-align:center;line-height:100%;letter-spacing:0px;word-spacing:0px;text-anchor:middle;fill:#40c4ff;fill-opacity:1;stroke:none;font-family:Sans"
       d="m 16,1018.3622 0,16.9587 4.002427,0 0,-6.6225 1.753641,0 c 0.998206,0 1.835661,-0.1385 2.51699,-0.392 0.697155,-0.2535 1.263931,-0.5927 1.691748,-1.0522 0.443638,-0.4595 0.758881,-1.0167 0.949029,-1.6505 0.190123,-0.6337 0.288822,-1.3232 0.288835,-2.0837 -1.3e-5,-0.5229 -0.07957,-1.0897 -0.206311,-1.6918 -0.126769,-0.6179 -0.357672,-1.1847 -0.722087,-1.6917 -0.364439,-0.5071 -0.881865,-0.9258 -1.54733,-1.2585 -0.649641,-0.3486 -1.491883,-0.5158 -2.537622,-0.5158 l -6.18932,0 z m 13.162621,0 0,16.9587 3.837379,0 0,-16.9587 -3.837379,0 z m -9.160194,2.9503 1.010923,0 c 0.396109,0 0.741555,0.059 1.010922,0.1856 0.269352,0.1109 0.455691,0.2686 0.598301,0.4746 0.158438,0.206 0.287341,0.4368 0.350728,0.722 0.06337,0.2694 0.08252,0.5751 0.08252,0.9078 -8e-6,0.2852 -0.01915,0.5765 -0.08252,0.8459 -0.04754,0.2535 -0.151027,0.4701 -0.309466,0.6602 -0.14261,0.1901 -0.344794,0.3477 -0.598301,0.4745 -0.253522,0.1109 -0.57355,0.165 -0.96966,0.165 l -1.093447,0 0,-4.4356 z"
       id="text2990"
       inkscape:connector-curvature="0" />
  </g>
</svg>
