<?xml version="1.0" encoding="UTF-8" standalone="no"?>
<!-- Created with Inkscape (http://www.inkscape.org/) -->

<svg
   xmlns:dc="http://purl.org/dc/elements/1.1/"
   xmlns:cc="http://creativecommons.org/ns#"
   xmlns:rdf="http://www.w3.org/1999/02/22-rdf-syntax-ns#"
   xmlns:svg="http://www.w3.org/2000/svg"
   xmlns="http://www.w3.org/2000/svg"
   xmlns:xlink="http://www.w3.org/1999/xlink"
   xmlns:sodipodi="http://sodipodi.sourceforge.net/DTD/sodipodi-0.dtd"
   xmlns:inkscape="http://www.inkscape.org/namespaces/inkscape"
   width="48"
   height="48"
   id="svg2"
   version="1.1"
   inkscape:version="0.48.4 r9939"
   sodipodi:docname="adobe-air.svg">
  <defs
     id="defs4">
    <linearGradient
       id="linearGradient3770">
      <stop
         style="stop-color:#e53935;stop-opacity:1;"
         offset="0"
         id="stop3772" />
      <stop
         style="stop-color:#ea5c58;stop-opacity:1;"
         offset="1"
         id="stop3774" />
    </linearGradient>
    <linearGradient
       id="linearGradient3779">
      <stop
         style="stop-color:#000000;stop-opacity:1;"
         offset="0"
         id="stop3781" />
      <stop
         style="stop-color:#ffffff;stop-opacity:1;"
         offset="1"
         id="stop3783" />
    </linearGradient>
    <linearGradient
       inkscape:collect="always"
       xlink:href="#linearGradient3779"
       id="linearGradient3795"
       gradientUnits="userSpaceOnUse"
       gradientTransform="translate(-20,0)"
       spreadMethod="repeat"
       x1="24"
       y1="1028.3622"
       x2="45"
       y2="1007.3622" />
    <linearGradient
       inkscape:collect="always"
       xlink:href="#linearGradient3779"
       id="linearGradient3797"
       gradientUnits="userSpaceOnUse"
       gradientTransform="translate(-20,0)"
       spreadMethod="repeat"
       x1="44"
       y1="1048.3622"
       x2="15"
       y2="1019.3622" />
    <linearGradient
       inkscape:collect="always"
       xlink:href="#linearGradient3770"
       id="linearGradient3776"
       x1="24"
       y1="1050.3622"
       x2="24"
       y2="1006.3622"
       gradientUnits="userSpaceOnUse" />
    <linearGradient
       gradientTransform="matrix(0,-1,1,0,-1.5e-6,47.999998)"
       gradientUnits="userSpaceOnUse"
       x2="47"
       x1="1"
       id="linearGradient3764">
      <stop
         id="stop3008"
         stop-opacity="1"
         stop-color="#b93b3b" />
      <stop
         id="stop3010"
         stop-opacity="1"
         stop-color="#c34545"
         offset="1" />
    </linearGradient>
    <linearGradient
       inkscape:collect="always"
       xlink:href="#linearGradient3764"
       id="linearGradient3122"
       gradientUnits="userSpaceOnUse"
       gradientTransform="matrix(0,-1,1,0,-1.5e-6,47.999998)"
       x1="1"
       x2="47" />
    <linearGradient
       inkscape:collect="always"
       xlink:href="#linearGradient3764"
       id="linearGradient3125"
       gradientUnits="userSpaceOnUse"
       gradientTransform="matrix(0,-1,1,0,-49.998001,1054.3622)"
       x1="1"
       x2="47" />
  </defs>
  <sodipodi:namedview
     id="base"
     pagecolor="#ffffff"
     bordercolor="#666666"
     borderopacity="1.0"
     inkscape:pageopacity="0.0"
     inkscape:pageshadow="2"
     inkscape:zoom="5.7916665"
     inkscape:cx="52.920756"
     inkscape:cy="20.137718"
     inkscape:document-units="px"
     inkscape:current-layer="layer1"
     showgrid="true"
     inkscape:snap-bbox="true"
     inkscape:window-width="1301"
     inkscape:window-height="744"
     inkscape:window-x="65"
     inkscape:window-y="24"
     inkscape:window-maximized="1"
     inkscape:snap-global="true"
     inkscape:object-paths="false"
     inkscape:object-nodes="true"
     inkscape:snap-nodes="false"
     inkscape:snap-smooth-nodes="true">
    <inkscape:grid
       type="xygrid"
       id="grid2985"
       empspacing="6"
       visible="true"
       enabled="true"
       snapvisiblegridlinesonly="true" />
  </sodipodi:namedview>
  <metadata
     id="metadata7">
    <rdf:RDF>
      <cc:Work
         rdf:about="">
        <dc:format>image/svg+xml</dc:format>
        <dc:type
           rdf:resource="http://purl.org/dc/dcmitype/StillImage" />
        <dc:title />
      </cc:Work>
    </rdf:RDF>
  </metadata>
  <g
     inkscape:label="Layer 1"
     inkscape:groupmode="layer"
     id="layer1"
     transform="translate(0,-1004.3622)">
    <path
       id="path3788"
       d="m 24,1051.1116 c -21.2715315,0 -23.66257505,-0.089 -23.9375,-15.4063 0.328125,14.4033 2.9375,14.4063 23.9375,14.4063 21,0 23.609375,0 23.9375,-14.4063 -0.274925,15.3174 -2.665968,15.4063 -23.9375,15.4063 z"
       style="opacity:0.20000000000000001;fill:#ffffff;fill-opacity:1;stroke:none"
       inkscape:connector-curvature="0" />
    <path
       style="fill:url(#linearGradient3776);fill-opacity:1;stroke:none"
       d="m 24,1006.3622 c -24,0 -24,0 -24,22 0,22 0,22 24,22 24,0 24,0 24,-22 0,-22 0,-22 -24,-22 z"
       id="path3757"
       inkscape:connector-curvature="0"
       sodipodi:nodetypes="zzzzz" />
    <g
       id="g3791"
       transform="translate(20,0)">
      <path
         style="opacity:0.02999998;fill:url(#linearGradient3795);fill-opacity:1;stroke:none"
         d="m 4,1006.3622 c -24,0 -24,0 -24,22 0,22 0,22 24,22 24,0 24,0 24,-22 0,-22 0,-22 -24,-22 z"
         id="path3777"
         inkscape:connector-curvature="0"
         sodipodi:nodetypes="zzzzz" />
      <path
         sodipodi:nodetypes="zzzzz"
         inkscape:connector-curvature="0"
         id="path3787"
         d="m 4,1006.3622 c -24,0 -24,0 -24,22 0,22 0,22 24,22 24,0 24,0 24,-22 0,-22 0,-22 -24,-22 z"
         style="opacity:0.02999998;fill:url(#linearGradient3797);fill-opacity:1;stroke:none" />
    </g>
    <path
       style="fill:#000000;fill-opacity:1;stroke:none;opacity:0.20000000000000001"
       d="M 24 2 C 2.7284685 2 0.33742495 2.0888436 0.0625 17.40625 C 0.390625 3.0029297 3 3 24 3 C 45 3 47.609375 3.0029297 47.9375 17.40625 C 47.662575 2.0888436 45.271532 2 24 2 z "
       transform="translate(0,1004.3622)"
       id="path3770" />
    <path
       style="fill:#000000;fill-opacity:1;stroke:none;opacity:0.20000000000000001"
       d="M 24 2 C 7.2405624 2 2.2369698 2.0788791 0.71875 9.59375 C 2.3300781 2.5289866 7.5 2.53125 24 2.53125 C 40.5 2.53125 45.669922 2.5289866 47.28125 9.59375 C 45.76303 2.0788791 40.759438 2 24 2 z M 47.28125 9.59375 C 47.354492 9.9148756 47.409424 10.242768 47.46875 10.59375 C 47.41561 10.240351 47.346891 9.9186608 47.28125 9.59375 z M 0.71875 9.59375 C 0.65310868 9.9186608 0.58439008 10.240351 0.53125 10.59375 C 0.59057617 10.242768 0.64550781 9.9148756 0.71875 9.59375 z "
       transform="translate(0,1004.3622)"
       id="path3012" />
    <g
       id="g3032"
       transform="translate(48,1007.3622)" />
    <path
       id="path3046"
       d="m 27.164097,1016.378 c -2.156,0.164 -3.715,1.547 -4.602,4.141 -1.289,3.742 -3.465,5.969 -7.281,7.422 -2.258,0.855 -3.051,1.43 -3.754,2.781 -0.566,1.086 -0.684,2.68 -0.316,4.01 0.246,0.887 1.523,2.352 2.523,2.871 0.941,0.496 2.715,0.559 5.328,0.16 1.531,-0.234 1.902,-0.246 3.313,0.031 1.98,0.391 3.852,1.336 5.453,2.719 1.48,1.281 2.07,1.586 3.215,1.77 1.109,0.172 1.965,0.063 3.09,-0.41 1,-0.422 2.105,-1.551 2.555,-2.594 0.168,-0.383 0.313,-1.234 0.316,-1.926 0.004,-1.492 -0.453,-2.512 -1.641,-3.887 -1.16,-1.34 -1.984,-2.676 -2.461,-3.98 -0.563,-1.547 -0.684,-4.656 -0.25,-6.602 0.484,-2.18 0.078,-3.691 -1.355,-5.05 -1.012,-0.957 -1.828,-1.344 -3.188,-1.453 -0.332,-0.027 -0.637,-0.023 -0.945,0 m -2.082,9.855 c 1.105,-0.027 2.25,0.387 3.156,1.262 2.242,2.176 1.711,5.676 -1.074,7.078 -0.879,0.441 -2.313,0.539 -3.309,0.219 -0.941,-0.301 -2.07,-1.25 -2.586,-2.211 -0.223,-0.406 -0.313,-1.07 -0.316,-1.961 -0.004,-1.117 0.082,-1.438 0.535,-2.211 0.813,-1.387 2.172,-2.145 3.594,-2.176 m 0,0"
       inkscape:connector-curvature="0"
       style="opacity:0.1;fill:#000000;fill-opacity:1;fill-rule:nonzero;stroke:none" />
    <path
       id="path3054"
       d="m 26.164097,1015.378 c -2.156,0.164 -3.715,1.547 -4.602,4.141 -1.289,3.742 -3.465,5.969 -7.281,7.422 -2.258,0.855 -3.051,1.43 -3.754,2.781 -0.566,1.086 -0.684,2.68 -0.316,4.01 0.246,0.887 1.523,2.352 2.523,2.871 0.941,0.496 2.715,0.559 5.328,0.16 1.531,-0.234 1.902,-0.246 3.313,0.031 1.98,0.391 3.852,1.336 5.453,2.719 1.48,1.281 2.07,1.586 3.215,1.77 1.109,0.172 1.965,0.063 3.09,-0.41 1,-0.422 2.105,-1.551 2.555,-2.594 0.168,-0.383 0.313,-1.234 0.316,-1.926 0.004,-1.492 -0.453,-2.512 -1.641,-3.887 -1.16,-1.34 -1.984,-2.676 -2.461,-3.98 -0.563,-1.547 -0.684,-4.656 -0.25,-6.602 0.484,-2.18 0.078,-3.691 -1.355,-5.05 -1.012,-0.957 -1.828,-1.344 -3.188,-1.453 -0.332,-0.027 -0.637,-0.023 -0.945,0 m -2.082,9.855 c 1.105,-0.027 2.25,0.387 3.156,1.262 2.242,2.176 1.711,5.676 -1.074,7.078 -0.879,0.441 -2.313,0.539 -3.309,0.219 -0.941,-0.301 -2.07,-1.25 -2.586,-2.211 -0.223,-0.406 -0.313,-1.07 -0.316,-1.961 -0.004,-1.117 0.082,-1.438 0.535,-2.211 0.813,-1.387 2.172,-2.145 3.594,-2.176 m 0,0"
       inkscape:connector-curvature="0"
       style="fill:#f9f9f9;fill-opacity:1;fill-rule:nonzero;stroke:none" />
  </g>
</svg>
