<?xml version="1.0" encoding="UTF-8" standalone="no"?>
<!-- Created with Inkscape (http://www.inkscape.org/) -->

<svg
   xmlns:dc="http://purl.org/dc/elements/1.1/"
   xmlns:cc="http://creativecommons.org/ns#"
   xmlns:rdf="http://www.w3.org/1999/02/22-rdf-syntax-ns#"
   xmlns:svg="http://www.w3.org/2000/svg"
   xmlns="http://www.w3.org/2000/svg"
   xmlns:sodipodi="http://sodipodi.sourceforge.net/DTD/sodipodi-0.dtd"
   xmlns:inkscape="http://www.inkscape.org/namespaces/inkscape"
   width="48"
   height="48"
   id="svg2"
   version="1.1"
   inkscape:version="0.48.4 r9939"
   sodipodi:docname="AdobeAfterEffect.svg">
  <defs
     id="defs4" />
  <sodipodi:namedview
     id="base"
     pagecolor="#ffffff"
     bordercolor="#666666"
     borderopacity="1.0"
     inkscape:pageopacity="0.0"
     inkscape:pageshadow="2"
     inkscape:zoom="16.381307"
     inkscape:cx="10.23318"
     inkscape:cy="27.7814"
     inkscape:document-units="px"
     inkscape:current-layer="layer1"
     showgrid="true"
     inkscape:snap-bbox="true"
     inkscape:window-width="1301"
     inkscape:window-height="744"
     inkscape:window-x="65"
     inkscape:window-y="24"
     inkscape:window-maximized="1"
     inkscape:snap-global="true"
     inkscape:object-nodes="true">
    <inkscape:grid
       type="xygrid"
       id="grid2985"
       empspacing="6"
       visible="true"
       enabled="true"
       snapvisiblegridlinesonly="true" />
  </sodipodi:namedview>
  <metadata
     id="metadata7">
    <rdf:RDF>
      <cc:Work
         rdf:about="">
        <dc:format>image/svg+xml</dc:format>
        <dc:type
           rdf:resource="http://purl.org/dc/dcmitype/StillImage" />
        <dc:title />
      </cc:Work>
    </rdf:RDF>
  </metadata>
  <g
     inkscape:label="Layer 1"
     inkscape:groupmode="layer"
     id="layer1"
     transform="translate(0,-1004.3622)">
    <path
       id="path3788"
       d="m 24,1051.1116 c -21.2715315,0 -23.66257505,-0.089 -23.9375,-15.4063 0.328125,14.4033 2.9375,14.4063 23.9375,14.4063 21,0 23.609375,0 23.9375,-14.4063 -0.274925,15.3174 -2.665968,15.4063 -23.9375,15.4063 z"
       style="opacity:0.20000000000000001;fill:#ffffff;fill-opacity:1;stroke:none"
       inkscape:connector-curvature="0" />
    <path
       style="fill:#6a1b9a;fill-opacity:1;stroke:none"
       d="m 24,1006.3622 c -24,0 -24,0 -24,22 0,22 0,22 24,22 24,0 24,0 24,-22 0,-22 0,-22 -24,-22 z"
       id="path3757"
       inkscape:connector-curvature="0"
       sodipodi:nodetypes="zzzzz" />
    <path
       style="fill:#000000;fill-opacity:1;stroke:none;opacity:0.20000000000000001"
       d="M 24 2 C 2.7284685 2 0.33742495 2.0888436 0.0625 17.40625 C 0.390625 3.0029297 3 3 24 3 C 45 3 47.609375 3.0029297 47.9375 17.40625 C 47.662575 2.0888436 45.271532 2 24 2 z "
       transform="translate(0,1004.3622)"
       id="path3770" />
    <path
       style="fill:#000000;fill-opacity:1;stroke:none;opacity:0.20000000000000001"
       d="M 24 2 C 7.2405624 2 2.2369698 2.0788791 0.71875 9.59375 C 2.3300781 2.5289866 7.5 2.53125 24 2.53125 C 40.5 2.53125 45.669922 2.5289866 47.28125 9.59375 C 45.76303 2.0788791 40.759438 2 24 2 z M 47.28125 9.59375 C 47.354492 9.9148756 47.409424 10.242768 47.46875 10.59375 C 47.41561 10.240351 47.346891 9.9186608 47.28125 9.59375 z M 0.71875 9.59375 C 0.65310868 9.9186608 0.58439008 10.240351 0.53125 10.59375 C 0.59057617 10.242768 0.64550781 9.9148756 0.71875 9.59375 z "
       transform="translate(0,1004.3622)"
       id="path3012" />
    <g
       id="g3032"
       transform="translate(48,1007.3622)" />
    <path
       inkscape:connector-curvature="0"
       id="path3002"
       d="m 16.65537,1018.9722 -4.26738,16.6758 4.084491,0 0.589306,-3.1811 4.003208,0 0.609626,3.1811 4.064171,0 -4.165775,-16.6758 -4.917647,0 z m 2.336898,3.0393 0.06096,0 1.42246,7.416 -2.865241,0 1.381818,-7.416 z m 12.57861,0.6687 c -1.030029,0 -1.869035,0.1548 -2.540107,0.466 -0.655472,0.3113 -1.194869,0.7569 -1.585028,1.317 -0.39016,0.5447 -0.656771,1.203 -0.812833,1.9655 -0.140459,0.7469 -0.20321,1.5647 -0.203209,2.4517 -1e-6,0.9337 0.02358,1.8187 0.101605,2.6746 0.09364,0.8559 0.327245,1.6159 0.670588,2.2694 0.358945,0.6536 0.873306,1.1712 1.544385,1.5602 0.686679,0.389 1.6229,0.5876 2.824599,0.5876 1.591847,0 2.810285,-0.3675 3.637433,-1.1143 0.82713,-0.7626 1.248991,-1.9385 1.280214,-3.5258 l -3.515508,0 c -0.04683,0.7937 -0.158185,1.3691 -0.345455,1.7426 -0.187283,0.3735 -0.536965,0.5674 -1.036363,0.5674 -0.546231,0 -0.910055,-0.2471 -1.097327,-0.7295 -0.187282,-0.4823 -0.284496,-1.2079 -0.284491,-2.1883 l 0,-0.7699 6.401069,0 c -1.2e-5,-1.0738 -0.04862,-2.0713 -0.142246,-2.9584 -0.07804,-0.8869 -0.286616,-1.6313 -0.629947,-2.2693 -0.327744,-0.6536 -0.832676,-1.1571 -1.503743,-1.4994 -0.671083,-0.3579 -1.593162,-0.5471 -2.763636,-0.5471 z m 0.101605,2.3504 c 0.530611,0 0.859971,0.2221 1.016042,0.6889 0.171664,0.4668 0.264163,1.1393 0.264171,2.0262 l -2.743315,0 c -5e-6,-0.8558 0.0925,-1.5235 0.264171,-2.0059 0.171666,-0.4824 0.574668,-0.7092 1.198931,-0.7092 z"
       style="font-size:36px;font-style:normal;font-weight:normal;text-align:center;line-height:100%;letter-spacing:0px;word-spacing:0px;text-anchor:middle;fill:#000000;fill-opacity:1;stroke:none;font-family:Sans;opacity:0.2" />
    <path
       style="font-size:36px;font-style:normal;font-weight:normal;text-align:center;line-height:100%;letter-spacing:0px;word-spacing:0px;text-anchor:middle;fill:#ffa726;fill-opacity:1;stroke:none;font-family:Sans"
       d="m 16.04492,1018.3622 -4.26738,16.6758 4.084491,0 0.589306,-3.1811 4.003208,0 0.609626,3.1811 4.064171,0 -4.165775,-16.6758 -4.917647,0 z m 2.336898,3.0393 0.06096,0 1.42246,7.416 -2.865241,0 1.381818,-7.416 z m 12.57861,0.6687 c -1.030029,0 -1.869035,0.1548 -2.540107,0.466 -0.655472,0.3113 -1.194869,0.7569 -1.585028,1.317 -0.39016,0.5447 -0.656771,1.203 -0.812833,1.9655 -0.140459,0.7469 -0.20321,1.5647 -0.203209,2.4517 -1e-6,0.9337 0.02358,1.8187 0.101605,2.6746 0.09364,0.8559 0.327245,1.6159 0.670588,2.2694 0.358945,0.6536 0.873306,1.1712 1.544385,1.5602 0.686679,0.389 1.6229,0.5876 2.824599,0.5876 1.591847,0 2.810285,-0.3675 3.637433,-1.1143 0.82713,-0.7626 1.248991,-1.9385 1.280214,-3.5258 l -3.515508,0 c -0.04683,0.7937 -0.158185,1.3691 -0.345455,1.7426 -0.187283,0.3735 -0.536965,0.5674 -1.036363,0.5674 -0.546231,0 -0.910055,-0.2471 -1.097327,-0.7295 -0.187282,-0.4823 -0.284496,-1.2079 -0.284491,-2.1883 l 0,-0.7699 6.401069,0 c -1.2e-5,-1.0738 -0.04862,-2.0713 -0.142246,-2.9584 -0.07804,-0.8869 -0.286616,-1.6313 -0.629947,-2.2693 -0.327744,-0.6536 -0.832676,-1.1571 -1.503743,-1.4994 -0.671083,-0.3579 -1.593162,-0.5471 -2.763636,-0.5471 z m 0.101605,2.3504 c 0.530611,0 0.859971,0.2221 1.016042,0.6889 0.171664,0.4668 0.264163,1.1393 0.264171,2.0262 l -2.743315,0 c -5e-6,-0.8558 0.0925,-1.5235 0.264171,-2.0059 0.171666,-0.4824 0.574668,-0.7092 1.198931,-0.7092 z"
       id="text2997"
       inkscape:connector-curvature="0" />
  </g>
</svg>
