<?xml version="1.0" encoding="UTF-8" standalone="no"?>
<!-- Created with Inkscape (http://www.inkscape.org/) -->

<svg
   xmlns:dc="http://purl.org/dc/elements/1.1/"
   xmlns:cc="http://creativecommons.org/ns#"
   xmlns:rdf="http://www.w3.org/1999/02/22-rdf-syntax-ns#"
   xmlns:svg="http://www.w3.org/2000/svg"
   xmlns="http://www.w3.org/2000/svg"
   xmlns:xlink="http://www.w3.org/1999/xlink"
   xmlns:sodipodi="http://sodipodi.sourceforge.net/DTD/sodipodi-0.dtd"
   xmlns:inkscape="http://www.inkscape.org/namespaces/inkscape"
   width="48"
   height="48"
   id="svg2"
   version="1.1"
   inkscape:version="0.48.4 r9939"
   sodipodi:docname="AdobeFirework.svg">
  <defs
     id="defs4">
    <linearGradient
       id="linearGradient3910">
      <stop
         style="stop-color:#55552e;stop-opacity:1;"
         offset="0"
         id="stop3912" />
      <stop
         style="stop-color:#696939;stop-opacity:1;"
         offset="1"
         id="stop3914" />
    </linearGradient>
    <clipPath
       id="clip3">
      <path
         id="path3020"
         d="m 34.383 20.16 l -1.113 4.805 c -0.266 1.27 -0.492 2.449 -0.656 3.629 l -0.043 0 c -0.227 -1.18 -0.492 -2.359 -0.805 -3.629 l -1.254 -4.805 l -2.063 0 l -1.297 4.941 c -0.289 1.113 -0.621 2.313 -0.828 3.492 l -0.039 0 c -0.188 -1.18 -0.414 -2.359 -0.641 -3.516 l -1.051 -4.918 l -2.594 0 l 2.965 10.836 l 2.371 0 l 1.277 -4.406 c 0.289 -1.066 0.555 -2.137 0.762 -3.473 l 0.043 0 c 0.227 1.313 0.453 2.336 0.762 3.473 l 1.195 4.406 l 2.348 0 l 3.156 -10.836 m -2.496 0" />
    </clipPath>
    <clipPath
       id="clip2">
      <path
         id="path3017"
         d="m 22 20 l 15 0 l 0 11 l -15 0 m 0 -11" />
    </clipPath>
    <clipPath
       id="clip1">
      <path
         id="path3014"
         d="m 13 16 l 8.66 0 l 0 2.25 l -8.66 0 m 0 0 l 2.738 0 l 0 4.137 l -2.738 0 m 0 0 l 8.258 0 l 0 2.25 l -8.258 0 m 0 0 l 2.738 0 l 0 6.363 l -2.738 0 m 0 -6.363" />
    </clipPath>
    <clipPath
       id="clipPath-060331893">
      <g
         id="g3009"
         transform="translate(0,-1004.3622)">
        <path
           id="path3011"
           fill="#1890d0"
           transform="matrix(15.333333,0,0,11.5,414.99999,878.8622)"
           d="m -24 13 c 0 1.105 -0.672 2 -1.5 2 -0.828 0 -1.5 -0.895 -1.5 -2 0 -1.105 0.672 -2 1.5 -2 0.828 0 1.5 0.895 1.5 2 z" />
      </g>
    </clipPath>
    <clipPath
       id="clipPath-053461629">
      <g
         id="g3004"
         transform="translate(0,-1004.3622)">
        <path
           id="path3006"
           fill="#1890d0"
           transform="matrix(15.333333,0,0,11.5,414.99999,878.8622)"
           d="m -24 13 c 0 1.105 -0.672 2 -1.5 2 -0.828 0 -1.5 -0.895 -1.5 -2 0 -1.105 0.672 -2 1.5 -2 0.828 0 1.5 0.895 1.5 2 z" />
      </g>
    </clipPath>
    <linearGradient
       gradientTransform="matrix(0,-1,1,0,-1.5e-6,47.999998)"
       gradientUnits="userSpaceOnUse"
       x2="47"
       x1="1"
       id="linearGradient3764">
      <stop
         id="stop2999"
         stop-opacity="1"
         stop-color="#53532d" />
      <stop
         id="stop3001"
         stop-opacity="1"
         stop-color="#606034"
         offset="1" />
    </linearGradient>
    <linearGradient
       inkscape:collect="always"
       xlink:href="#linearGradient3910"
       id="linearGradient3916"
       x1="24"
       y1="1050.3622"
       x2="24"
       y2="1006.3622"
       gradientUnits="userSpaceOnUse" />
  </defs>
  <sodipodi:namedview
     id="base"
     pagecolor="#ffffff"
     bordercolor="#666666"
     borderopacity="1.0"
     inkscape:pageopacity="0.0"
     inkscape:pageshadow="2"
     inkscape:zoom="8.1906533"
     inkscape:cx="-4.9879119"
     inkscape:cy="22.817372"
     inkscape:document-units="px"
     inkscape:current-layer="layer1"
     showgrid="true"
     inkscape:snap-bbox="true"
     inkscape:window-width="1301"
     inkscape:window-height="744"
     inkscape:window-x="65"
     inkscape:window-y="24"
     inkscape:window-maximized="1"
     inkscape:snap-global="true"
     inkscape:object-nodes="true"
     inkscape:snap-nodes="false">
    <inkscape:grid
       type="xygrid"
       id="grid2985"
       empspacing="6"
       visible="true"
       enabled="true"
       snapvisiblegridlinesonly="true" />
  </sodipodi:namedview>
  <metadata
     id="metadata7">
    <rdf:RDF>
      <cc:Work
         rdf:about="">
        <dc:format>image/svg+xml</dc:format>
        <dc:type
           rdf:resource="http://purl.org/dc/dcmitype/StillImage" />
        <dc:title />
      </cc:Work>
    </rdf:RDF>
  </metadata>
  <g
     inkscape:label="Layer 1"
     inkscape:groupmode="layer"
     id="layer1"
     transform="translate(0,-1004.3622)">
    <path
       id="path3788"
       d="m 24,1051.1116 c -21.2715315,0 -23.66257505,-0.089 -23.9375,-15.4063 0.328125,14.4033 2.9375,14.4063 23.9375,14.4063 21,0 23.609375,0 23.9375,-14.4063 -0.274925,15.3174 -2.665968,15.4063 -23.9375,15.4063 z"
       style="opacity:0.20000000000000001;fill:#ffffff;fill-opacity:1;stroke:none"
       inkscape:connector-curvature="0" />
    <path
       style="fill:url(#linearGradient3916);fill-opacity:1;stroke:none"
       d="m 24,1006.3622 c -24,0 -24,0 -24,22 0,22 0,22 24,22 24,0 24,0 24,-22 0,-22 0,-22 -24,-22 z"
       id="path3757"
       inkscape:connector-curvature="0"
       sodipodi:nodetypes="zzzzz" />
    <path
       style="fill:#000000;fill-opacity:1;stroke:none;opacity:0.20000000000000001"
       d="M 24 2 C 2.7284685 2 0.33742495 2.0888436 0.0625 17.40625 C 0.390625 3.0029297 3 3 24 3 C 45 3 47.609375 3.0029297 47.9375 17.40625 C 47.662575 2.0888436 45.271532 2 24 2 z "
       transform="translate(0,1004.3622)"
       id="path3770" />
    <path
       style="fill:#000000;fill-opacity:1;stroke:none;opacity:0.20000000000000001"
       d="M 24 2 C 7.2405624 2 2.2369698 2.0788791 0.71875 9.59375 C 2.3300781 2.5289866 7.5 2.53125 24 2.53125 C 40.5 2.53125 45.669922 2.5289866 47.28125 9.59375 C 45.76303 2.0788791 40.759438 2 24 2 z M 47.28125 9.59375 C 47.354492 9.9148756 47.409424 10.242768 47.46875 10.59375 C 47.41561 10.240351 47.346891 9.9186608 47.28125 9.59375 z M 0.71875 9.59375 C 0.65310868 9.9186608 0.58439008 10.240351 0.53125 10.59375 C 0.59057617 10.242768 0.64550781 9.9148756 0.71875 9.59375 z "
       transform="translate(0,1004.3622)"
       id="path3012" />
    <g
       id="g3032"
       transform="translate(48,1007.3622)" />
    <g
       id="g3046"
       transform="translate(-48.258,1005.7252)" />
    <g
       id="g3048"
       transform="translate(1,1005.3622)">
      <g
         clip-path="url(#clipPath-053461629)"
         id="g3050">
        <g
           transform="translate(1,1)"
           id="g3052">
          <g
             style="opacity:0.1"
             id="g3054">
            <!-- color: #606034 -->
            <g
               id="g3056">
              <g
                 clip-path="url(#clip1)"
                 id="g3058">
                <path
                   style="fill:#000000;fill-opacity:1;fill-rule:nonzero;stroke:none"
                   inkscape:connector-curvature="0"
                   d="m 13,16 0,15 2.738,0 0,-6.363 5.52,0 0,-2.25 -5.52,0 0,-4.137 5.922,0 0,-2.25 M 13,16"
                   id="path3060" />
              </g>
              <g
                 clip-path="url(#clip2)"
                 id="g3062">
                <g
                   clip-path="url(#clip3)"
                   id="g3064">
                  <path
                     style="fill:#000000;fill-opacity:1;fill-rule:nonzero;stroke:none"
                     inkscape:connector-curvature="0"
                     d="m 34.383,20.16 -1.113,4.805 c -0.266,1.27 -0.492,2.449 -0.656,3.629 l -0.043,0 c -0.227,-1.18 -0.492,-2.359 -0.805,-3.629 l -1.254,-4.805 -2.063,0 -1.297,4.941 c -0.289,1.113 -0.621,2.313 -0.828,3.492 l -0.039,0 c -0.188,-1.18 -0.414,-2.359 -0.641,-3.516 l -1.051,-4.918 -2.594,0 2.965,10.836 2.371,0 1.277,-4.406 c 0.289,-1.066 0.555,-2.137 0.762,-3.473 l 0.043,0 c 0.227,1.313 0.453,2.336 0.762,3.473 l 1.195,4.406 2.348,0 3.156,-10.836 m -2.496,0"
                     id="path3066" />
                </g>
              </g>
            </g>
          </g>
        </g>
      </g>
    </g>
    <g
       id="g3068"
       transform="translate(1,1005.3622)">
      <g
         clip-path="url(#clipPath-060331893)"
         id="g3070">
        <!-- color: #606034 -->
        <g
           id="g3072">
          <g
             clip-path="url(#clip1)"
             id="g3074">
            <path
               style="fill:#e5d703;fill-opacity:1;fill-rule:nonzero;stroke:none"
               inkscape:connector-curvature="0"
               d="m 13,16 0,15 2.738,0 0,-6.363 5.52,0 0,-2.25 -5.52,0 0,-4.137 5.922,0 0,-2.25 M 13,16"
               id="path3076" />
          </g>
          <g
             clip-path="url(#clip2)"
             id="g3078">
            <g
               clip-path="url(#clip3)"
               id="g3080">
              <path
                 style="fill:#e5d703;fill-opacity:1;fill-rule:nonzero;stroke:none"
                 inkscape:connector-curvature="0"
                 d="m 34.383,20.16 -1.113,4.805 c -0.266,1.27 -0.492,2.449 -0.656,3.629 l -0.043,0 c -0.227,-1.18 -0.492,-2.359 -0.805,-3.629 l -1.254,-4.805 -2.063,0 -1.297,4.941 c -0.289,1.113 -0.621,2.313 -0.828,3.492 l -0.039,0 c -0.188,-1.18 -0.414,-2.359 -0.641,-3.516 l -1.051,-4.918 -2.594,0 2.965,10.836 2.371,0 1.277,-4.406 c 0.289,-1.066 0.555,-2.137 0.762,-3.473 l 0.043,0 c 0.227,1.313 0.453,2.336 0.762,3.473 l 1.195,4.406 2.348,0 3.156,-10.836 m -2.496,0"
                 id="path3082" />
            </g>
          </g>
        </g>
      </g>
    </g>
  </g>
</svg>
