<?xml version="1.0" encoding="UTF-8" standalone="no"?>
<!-- Created with Inkscape (http://www.inkscape.org/) -->

<svg
   xmlns:dc="http://purl.org/dc/elements/1.1/"
   xmlns:cc="http://creativecommons.org/ns#"
   xmlns:rdf="http://www.w3.org/1999/02/22-rdf-syntax-ns#"
   xmlns:svg="http://www.w3.org/2000/svg"
   xmlns="http://www.w3.org/2000/svg"
   xmlns:xlink="http://www.w3.org/1999/xlink"
   xmlns:sodipodi="http://sodipodi.sourceforge.net/DTD/sodipodi-0.dtd"
   xmlns:inkscape="http://www.inkscape.org/namespaces/inkscape"
   width="48"
   height="48"
   id="svg2"
   version="1.1"
   inkscape:version="0.48.4 r9939"
   sodipodi:docname="agtl.svg">
  <defs
     id="defs4">
    <linearGradient
       id="linearGradient3783">
      <stop
         style="stop-color:#00e5ff;stop-opacity:1;"
         offset="0"
         id="stop3785" />
      <stop
         style="stop-color:#79f1ff;stop-opacity:1;"
         offset="1"
         id="stop3787" />
    </linearGradient>
    <linearGradient
       id="linearGradient3779">
      <stop
         style="stop-color:#000000;stop-opacity:1;"
         offset="0"
         id="stop3781" />
      <stop
         style="stop-color:#ffffff;stop-opacity:1;"
         offset="1"
         id="stop3783" />
    </linearGradient>
    <linearGradient
       inkscape:collect="always"
       xlink:href="#linearGradient3779"
       id="linearGradient3795"
       gradientUnits="userSpaceOnUse"
       gradientTransform="translate(-20,0)"
       spreadMethod="repeat"
       x1="24"
       y1="1028.3622"
       x2="45"
       y2="1007.3622" />
    <linearGradient
       inkscape:collect="always"
       xlink:href="#linearGradient3779"
       id="linearGradient3797"
       gradientUnits="userSpaceOnUse"
       gradientTransform="translate(-20,0)"
       spreadMethod="repeat"
       x1="44"
       y1="1048.3622"
       x2="15"
       y2="1019.3622" />
    <linearGradient
       inkscape:collect="always"
       xlink:href="#linearGradient3783"
       id="linearGradient3791"
       x1="24"
       y1="1050.3622"
       x2="24"
       y2="1006.3622"
       gradientUnits="userSpaceOnUse" />
  </defs>
  <sodipodi:namedview
     id="base"
     pagecolor="#ffffff"
     bordercolor="#666666"
     borderopacity="1.0"
     inkscape:pageopacity="0.0"
     inkscape:pageshadow="2"
     inkscape:zoom="11.583333"
     inkscape:cx="2.2540569"
     inkscape:cy="27.425747"
     inkscape:document-units="px"
     inkscape:current-layer="layer1"
     showgrid="true"
     inkscape:snap-bbox="true"
     inkscape:window-width="1301"
     inkscape:window-height="744"
     inkscape:window-x="65"
     inkscape:window-y="24"
     inkscape:window-maximized="1"
     inkscape:snap-global="true"
     inkscape:object-paths="false"
     inkscape:object-nodes="true"
     inkscape:snap-nodes="false"
     inkscape:snap-smooth-nodes="true">
    <inkscape:grid
       type="xygrid"
       id="grid2985"
       empspacing="6"
       visible="true"
       enabled="true"
       snapvisiblegridlinesonly="true" />
  </sodipodi:namedview>
  <metadata
     id="metadata7">
    <rdf:RDF>
      <cc:Work
         rdf:about="">
        <dc:format>image/svg+xml</dc:format>
        <dc:type
           rdf:resource="http://purl.org/dc/dcmitype/StillImage" />
        <dc:title />
      </cc:Work>
    </rdf:RDF>
  </metadata>
  <g
     inkscape:label="Layer 1"
     inkscape:groupmode="layer"
     id="layer1"
     transform="translate(0,-1004.3622)">
    <path
       id="path3788"
       d="m 24,1051.1116 c -21.2715315,0 -23.66257505,-0.089 -23.9375,-15.4063 0.328125,14.4033 2.9375,14.4063 23.9375,14.4063 21,0 23.609375,0 23.9375,-14.4063 -0.274925,15.3174 -2.665968,15.4063 -23.9375,15.4063 z"
       style="opacity:0.20000000000000001;fill:#ffffff;fill-opacity:1;stroke:none"
       inkscape:connector-curvature="0" />
    <path
       style="fill:url(#linearGradient3791);fill-opacity:1;stroke:none"
       d="m 24,1006.3622 c -24,0 -24,0 -24,22 0,22 0,22 24,22 24,0 24,0 24,-22 0,-22 0,-22 -24,-22 z"
       id="path3757"
       inkscape:connector-curvature="0"
       sodipodi:nodetypes="zzzzz" />
    <g
       id="g3791"
       transform="translate(20,0)">
      <path
         style="opacity:0.02999998;fill:url(#linearGradient3795);fill-opacity:1;stroke:none"
         d="m 4,1006.3622 c -24,0 -24,0 -24,22 0,22 0,22 24,22 24,0 24,0 24,-22 0,-22 0,-22 -24,-22 z"
         id="path3777"
         inkscape:connector-curvature="0"
         sodipodi:nodetypes="zzzzz" />
      <path
         sodipodi:nodetypes="zzzzz"
         inkscape:connector-curvature="0"
         id="path3787"
         d="m 4,1006.3622 c -24,0 -24,0 -24,22 0,22 0,22 24,22 24,0 24,0 24,-22 0,-22 0,-22 -24,-22 z"
         style="opacity:0.02999998;fill:url(#linearGradient3797);fill-opacity:1;stroke:none" />
    </g>
    <path
       style="fill:#000000;fill-opacity:1;stroke:none;opacity:0.20000000000000001"
       d="M 24 2 C 2.7284685 2 0.33742495 2.0888436 0.0625 17.40625 C 0.390625 3.0029297 3 3 24 3 C 45 3 47.609375 3.0029297 47.9375 17.40625 C 47.662575 2.0888436 45.271532 2 24 2 z "
       transform="translate(0,1004.3622)"
       id="path3770" />
    <path
       style="fill:#000000;fill-opacity:1;stroke:none;opacity:0.20000000000000001"
       d="M 24 2 C 7.2405624 2 2.2369698 2.0788791 0.71875 9.59375 C 2.3300781 2.5289866 7.5 2.53125 24 2.53125 C 40.5 2.53125 45.669922 2.5289866 47.28125 9.59375 C 45.76303 2.0788791 40.759438 2 24 2 z M 47.28125 9.59375 C 47.354492 9.9148756 47.409424 10.242768 47.46875 10.59375 C 47.41561 10.240351 47.346891 9.9186608 47.28125 9.59375 z M 0.71875 9.59375 C 0.65310868 9.9186608 0.58439008 10.240351 0.53125 10.59375 C 0.59057617 10.242768 0.64550781 9.9148756 0.71875 9.59375 z "
       transform="translate(0,1004.3622)"
       id="path3012" />
    <g
       id="g3032"
       transform="translate(48,1007.3622)" />
    <path
       inkscape:connector-curvature="0"
       id="path3028"
       d="m 25.297783,1018.9703 c -1.950184,-0.7988 -4.046806,0.3066 -5.483623,1.6132 -0.927842,0.7508 -1.833996,1.995 -1.385271,3.2396 0.334927,0.9172 1.56673,1.0181 2.133631,0.2576 0.540606,-0.5419 1.043753,-1.1777 1.799148,-1.4198 1.611456,-0.8855 3.707247,-1.5542 5.432813,-0.5985 1.347389,0.8591 2.012323,3.0319 0.770108,4.2534 -1.370575,1.421 -3.45166,1.5361 -5.29987,1.6464 -1.743835,0.099 -3.6641,0.3834 -4.887825,1.7643 -0.902498,1.1181 -1.670955,2.4782 -1.566143,3.9684 0.09118,3.5362 3.929608,6.4794 7.359843,5.4643 0.967709,-0.3146 1.784412,-1.0178 2.825359,-1.1305 2.047193,-0.344 4.101558,0.3121 5.975074,1.0786 1.078434,0.091 1.118403,-1.3481 0.961001,-2.1065 -0.600756,-1.9019 -2.071699,-3.6164 -1.883402,-5.7163 0.711996,-2.912 0.96173,-6.0874 -0.166054,-8.9334 -0.813788,-2.2729 -3.301535,-3.6204 -5.651888,-3.4339 -0.311519,0 -0.62318,0.023 -0.932901,0.053 z m 4.125,10.0938 c 0.991273,2.0396 0.03701,4.4904 -1.54265,5.9417 -1.433311,1.3445 -3.586395,2.2783 -5.516197,1.4918 -1.427196,-0.613 -2.403743,-2.2917 -1.890149,-3.8232 0.548303,-1.7592 2.491121,-2.5003 4.153606,-2.7709 1.599298,-0.2706 3.242339,-0.3407 4.79539,-0.8394 z"
       style="font-size:36px;font-style:normal;font-variant:normal;font-weight:bold;font-stretch:normal;text-align:center;line-height:100%;letter-spacing:0px;word-spacing:0px;writing-mode:lr-tb;text-anchor:middle;fill:#000000;fill-opacity:1;stroke:none;font-family:Nice;-inkscape-font-specification:Nice Bold;opacity:0.1" />
    <path
       style="font-size:36px;font-style:normal;font-variant:normal;font-weight:bold;font-stretch:normal;text-align:center;line-height:100%;letter-spacing:0px;word-spacing:0px;writing-mode:lr-tb;text-anchor:middle;fill:#212121;fill-opacity:1;stroke:none;font-family:Nice;-inkscape-font-specification:Nice Bold"
       d="m 24.375,1018.3622 c -1.950184,-0.7988 -4.046806,0.3066 -5.483623,1.6132 -0.927842,0.7508 -1.833996,1.995 -1.385271,3.2396 0.334927,0.9172 1.56673,1.0181 2.133631,0.2576 0.540606,-0.5419 1.043753,-1.1777 1.799148,-1.4198 1.611456,-0.8855 3.707247,-1.5542 5.432813,-0.5985 1.347389,0.8591 2.012323,3.0319 0.770108,4.2534 -1.370575,1.421 -3.45166,1.5361 -5.29987,1.6464 -1.743835,0.099 -3.6641,0.3834 -4.887825,1.7643 -0.902498,1.1181 -1.670955,2.4782 -1.566143,3.9684 0.09118,3.5362 3.929608,6.4794 7.359843,5.4643 0.967709,-0.3146 1.784412,-1.0178 2.825359,-1.1305 2.047193,-0.344 4.101558,0.3121 5.975074,1.0786 1.078434,0.091 1.118403,-1.3481 0.961001,-2.1065 -0.600756,-1.9019 -2.071699,-3.6164 -1.883402,-5.7163 0.711996,-2.912 0.96173,-6.0874 -0.166054,-8.9334 -0.813788,-2.2729 -3.301535,-3.6204 -5.651888,-3.4339 -0.311519,0 -0.62318,0.023 -0.932901,0.053 z m 4.125,10.0938 c 0.991273,2.0396 0.03701,4.4904 -1.54265,5.9417 -1.433311,1.3445 -3.586395,2.2783 -5.516197,1.4918 -1.427196,-0.613 -2.403743,-2.2917 -1.890149,-3.8232 0.548303,-1.7592 2.491121,-2.5003 4.153606,-2.7709 1.599298,-0.2706 3.242339,-0.3407 4.79539,-0.8394 z"
       id="text3012"
       inkscape:connector-curvature="0" />
  </g>
</svg>
