<?xml version="1.0" encoding="UTF-8" standalone="no"?>
<!-- Created with Inkscape (http://www.inkscape.org/) -->

<svg
   xmlns:dc="http://purl.org/dc/elements/1.1/"
   xmlns:cc="http://creativecommons.org/ns#"
   xmlns:rdf="http://www.w3.org/1999/02/22-rdf-syntax-ns#"
   xmlns:svg="http://www.w3.org/2000/svg"
   xmlns="http://www.w3.org/2000/svg"
   xmlns:xlink="http://www.w3.org/1999/xlink"
   xmlns:sodipodi="http://sodipodi.sourceforge.net/DTD/sodipodi-0.dtd"
   xmlns:inkscape="http://www.inkscape.org/namespaces/inkscape"
   width="48"
   height="48"
   id="svg2"
   version="1.1"
   inkscape:version="0.48.4 r9939"
   sodipodi:docname="Amazon-www.amazon.cn.svg">
  <sodipodi:namedview
     id="base"
     pagecolor="#ffffff"
     bordercolor="#666666"
     borderopacity="1.0"
     inkscape:pageopacity="0.0"
     inkscape:pageshadow="2"
     inkscape:zoom="8.1906533"
     inkscape:cx="-12.242995"
     inkscape:cy="16.930175"
     inkscape:document-units="px"
     inkscape:current-layer="layer1"
     showgrid="true"
     inkscape:snap-bbox="true"
     inkscape:window-width="1301"
     inkscape:window-height="744"
     inkscape:window-x="65"
     inkscape:window-y="24"
     inkscape:window-maximized="1"
     inkscape:snap-global="true">
    <inkscape:grid
       snapvisiblegridlinesonly="true"
       enabled="true"
       visible="true"
       empspacing="6"
       id="grid2985"
       type="xygrid" />
  </sodipodi:namedview>
  <defs
     id="defs4">
    <linearGradient
       id="linearGradient3766">
      <stop
         style="stop-color:#e6e6e6;stop-opacity:1;"
         offset="0"
         id="stop3768" />
      <stop
         style="stop-color:#f7f7f7;stop-opacity:1;"
         offset="1"
         id="stop3770" />
    </linearGradient>
    <linearGradient
       inkscape:collect="always"
       xlink:href="#linearGradient3766"
       id="linearGradient3772"
       x1="24"
       y1="1050.3622"
       x2="24"
       y2="1006.3622"
       gradientUnits="userSpaceOnUse" />
    <clipPath
       id="clipPath-036441573">
      <g
         id="g3017"
         transform="translate(0,-1004.3622)">
        <path
           id="path3019"
           fill="#1890d0"
           transform="matrix(15.333333,0,0,11.5,414.99999,878.8622)"
           d="m -24 13 c 0 1.105 -0.672 2 -1.5 2 -0.828 0 -1.5 -0.895 -1.5 -2 0 -1.105 0.672 -2 1.5 -2 0.828 0 1.5 0.895 1.5 2 z" />
      </g>
    </clipPath>
    <clipPath
       id="clipPath-028714355">
      <g
         id="g3012"
         transform="translate(0,-1004.3622)">
        <path
           id="path3014"
           fill="#1890d0"
           transform="matrix(15.333333,0,0,11.5,414.99999,878.8622)"
           d="m -24 13 c 0 1.105 -0.672 2 -1.5 2 -0.828 0 -1.5 -0.895 -1.5 -2 0 -1.105 0.672 -2 1.5 -2 0.828 0 1.5 0.895 1.5 2 z" />
      </g>
    </clipPath>
    <linearGradient
       gradientTransform="matrix(0,-1,1,0,-1.5e-6,47.999998)"
       gradientUnits="userSpaceOnUse"
       x2="47"
       x1="1"
       id="linearGradient3764">
      <stop
         id="stop3007"
         stop-opacity="1"
         stop-color="#d3d3d3" />
      <stop
         id="stop3009"
         stop-opacity="1"
         stop-color="#ddd"
         offset="1" />
    </linearGradient>
  </defs>
  <metadata
     id="metadata7">
    <rdf:RDF>
      <cc:Work
         rdf:about="">
        <dc:format>image/svg+xml</dc:format>
        <dc:type
           rdf:resource="http://purl.org/dc/dcmitype/StillImage" />
        <dc:title />
      </cc:Work>
    </rdf:RDF>
  </metadata>
  <g
     transform="translate(0,-1004.3622)"
     id="layer1"
     inkscape:groupmode="layer"
     inkscape:label="Layer 1">
    <path
       inkscape:connector-curvature="0"
       style="opacity:0.20000000000000001;fill:#ffffff;fill-opacity:1;stroke:none"
       d="m 24,1051.1116 c -21.2715315,0 -23.66257505,-0.089 -23.9375,-15.4063 0.328125,14.4033 2.9375,14.4063 23.9375,14.4063 21,0 23.609375,0 23.9375,-14.4063 -0.274925,15.3174 -2.665968,15.4063 -23.9375,15.4063 z"
       id="path3788" />
    <path
       sodipodi:nodetypes="zzzzz"
       inkscape:connector-curvature="0"
       id="path3757"
       d="m 24,1006.3622 c -24,0 -24,0 -24,22 0,22 0,22 24,22 24,0 24,0 24,-22 0,-22 0,-22 -24,-22 z"
       style="fill:url(#linearGradient3772);fill-opacity:1;stroke:none" />
    <path
       id="path3770"
       transform="translate(0,1004.3622)"
       d="M 24 2 C 2.7284685 2 0.33742495 2.0888436 0.0625 17.40625 C 0.390625 3.0029297 3 3 24 3 C 45 3 47.609375 3.0029297 47.9375 17.40625 C 47.662575 2.0888436 45.271532 2 24 2 z "
       style="fill:#000000;fill-opacity:1;stroke:none;opacity:0.20000000000000001" />
    <path
       id="path3012"
       transform="translate(0,1004.3622)"
       d="M 24 2 C 7.2405624 2 2.2369698 2.0788791 0.71875 9.59375 C 2.3300781 2.5289866 7.5 2.53125 24 2.53125 C 40.5 2.53125 45.669922 2.5289866 47.28125 9.59375 C 45.76303 2.0788791 40.759438 2 24 2 z M 47.28125 9.59375 C 47.354492 9.9148756 47.409424 10.242768 47.46875 10.59375 C 47.41561 10.240351 47.346891 9.9186608 47.28125 9.59375 z M 0.71875 9.59375 C 0.65310868 9.9186608 0.58439008 10.240351 0.53125 10.59375 C 0.59057617 10.242768 0.64550781 9.9148756 0.71875 9.59375 z "
       style="fill:#000000;fill-opacity:1;stroke:none;opacity:0.20000000000000001" />
    <g
       transform="translate(48,1007.3622)"
       id="g3032" />
    <g
       id="g3033"
       transform="translate(-50.998,1005.3622)" />
    <g
       id="g3035"
       transform="translate(-0.03049933,1004.3882)">
      <g
         clip-path="url(#clipPath-028714355)"
         id="g3037">
        <g
           transform="translate(1,1)"
           id="g3039">
          <g
             style="opacity:0.1"
             id="g3041">
            <!-- color: #dddddd -->
            <g
               id="g3043">
              <path
                 style="fill:#000000;fill-opacity:1;fill-rule:evenodd;stroke:none"
                 inkscape:connector-curvature="0"
                 d="m 25.891,22.14 c 0,1.367 0.035,2.504 -0.625,3.715 -0.531,0.984 -1.375,1.59 -2.316,1.59 -1.285,0 -2.031,-1.023 -2.031,-2.535 0,-2.984 2.555,-3.527 4.973,-3.527 l 0,0.758 m 3.375,8.531 c -0.219,0.207 -0.539,0.223 -0.789,0.086 -1.109,-0.965 -1.309,-1.414 -1.922,-2.336 -1.836,1.961 -3.133,2.547 -5.516,2.547 -2.816,0 -5.01,-1.816 -5.01,-5.453 0,-2.84 1.473,-4.777 3.566,-5.723 1.813,-0.836 4.352,-0.984 6.293,-1.215 l 0,-0.453 c 0,-0.832 0.063,-1.816 -0.402,-2.535 -0.41,-0.645 -1.191,-0.91 -1.879,-0.91 -1.277,0 -2.414,0.684 -2.691,2.102 -0.059,0.316 -0.277,0.625 -0.582,0.641 L 17.089,17.06 c -0.273,-0.066 -0.574,-0.297 -0.5,-0.734 0.75,-4.109 4.305,-5.352 7.484,-5.352 1.629,0 3.758,0.453 5.04,1.742 1.629,1.59 1.473,3.711 1.473,6.02 l 0,5.453 c 0,1.641 0.648,2.359 1.262,3.246 0.215,0.313 0.262,0.695 -0.008,0.93 -0.684,0.602 -1.898,1.703 -2.566,2.324 l -0.012,-0.012"
                 id="path3045" />
              <path
                 style="fill:#000000;fill-opacity:1;fill-rule:evenodd;stroke:none"
                 inkscape:connector-curvature="0"
                 d="m 34.531,33.668 c -2.848,2.148 -6.973,3.297 -10.527,3.297 -4.98,0 -9.465,-1.887 -12.859,-5.03 -0.266,-0.246 -0.027,-0.582 0.293,-0.391 3.66,2.184 8.191,3.496 12.867,3.496 3.152,0 6.625,-0.668 9.813,-2.059 0.484,-0.207 0.887,0.324 0.414,0.684"
                 id="path3047" />
              <path
                 style="fill:#000000;fill-opacity:1;fill-rule:evenodd;stroke:none"
                 inkscape:connector-curvature="0"
                 d="m 35.715,32.28 c -0.363,-0.477 -2.406,-0.227 -3.32,-0.113 -0.281,0.035 -0.324,-0.215 -0.07,-0.395 1.625,-1.172 4.297,-0.836 4.605,-0.441 0.313,0.395 -0.078,3.137 -1.609,4.445 -0.234,0.203 -0.457,0.094 -0.352,-0.172 0.34,-0.879 1.113,-2.848 0.746,-3.324"
                 id="path3049" />
            </g>
          </g>
        </g>
      </g>
    </g>
    <g
       id="g3051"
       transform="translate(-0.03049933,1004.3882)">
      <g
         clip-path="url(#clipPath-036441573)"
         id="g3053">
        <!-- color: #dddddd -->
        <g
           id="g3055">
          <path
             style="fill:#201f1f;fill-opacity:1;fill-rule:evenodd;stroke:none"
             inkscape:connector-curvature="0"
             d="m 25.891,22.14 c 0,1.367 0.035,2.504 -0.625,3.715 -0.531,0.984 -1.375,1.59 -2.316,1.59 -1.285,0 -2.031,-1.023 -2.031,-2.535 0,-2.984 2.555,-3.527 4.973,-3.527 l 0,0.758 m 3.375,8.531 c -0.219,0.207 -0.539,0.223 -0.789,0.086 -1.109,-0.965 -1.309,-1.414 -1.922,-2.336 -1.836,1.961 -3.133,2.547 -5.516,2.547 -2.816,0 -5.01,-1.816 -5.01,-5.453 0,-2.84 1.473,-4.777 3.566,-5.723 1.813,-0.836 4.352,-0.984 6.293,-1.215 l 0,-0.453 c 0,-0.832 0.063,-1.816 -0.402,-2.535 -0.41,-0.645 -1.191,-0.91 -1.879,-0.91 -1.277,0 -2.414,0.684 -2.691,2.102 -0.059,0.316 -0.277,0.625 -0.582,0.641 L 17.089,17.06 c -0.273,-0.066 -0.574,-0.297 -0.5,-0.734 0.75,-4.109 4.305,-5.352 7.484,-5.352 1.629,0 3.758,0.453 5.04,1.742 1.629,1.59 1.473,3.711 1.473,6.02 l 0,5.453 c 0,1.641 0.648,2.359 1.262,3.246 0.215,0.313 0.262,0.695 -0.008,0.93 -0.684,0.602 -1.898,1.703 -2.566,2.324 l -0.012,-0.012"
             id="path3057" />
          <path
             style="fill:#ff9900;fill-opacity:1;fill-rule:evenodd;stroke:none"
             inkscape:connector-curvature="0"
             d="m 34.531,33.668 c -2.848,2.148 -6.973,3.297 -10.527,3.297 -4.98,0 -9.465,-1.887 -12.859,-5.03 -0.266,-0.246 -0.027,-0.582 0.293,-0.391 3.66,2.184 8.191,3.496 12.867,3.496 3.152,0 6.625,-0.668 9.813,-2.059 0.484,-0.207 0.887,0.324 0.414,0.684"
             id="path3059" />
          <path
             style="fill:#ff9900;fill-opacity:1;fill-rule:evenodd;stroke:none"
             inkscape:connector-curvature="0"
             d="m 35.715,32.28 c -0.363,-0.477 -2.406,-0.227 -3.32,-0.113 -0.281,0.035 -0.324,-0.215 -0.07,-0.395 1.625,-1.172 4.297,-0.836 4.605,-0.441 0.313,0.395 -0.078,3.137 -1.609,4.445 -0.234,0.203 -0.457,0.094 -0.352,-0.172 0.34,-0.879 1.113,-2.848 0.746,-3.324"
             id="path3061" />
        </g>
      </g>
    </g>
  </g>
</svg>
