<?xml version="1.0" encoding="UTF-8" standalone="no"?>
<!-- Created with Inkscape (http://www.inkscape.org/) -->

<svg
   xmlns:dc="http://purl.org/dc/elements/1.1/"
   xmlns:cc="http://creativecommons.org/ns#"
   xmlns:rdf="http://www.w3.org/1999/02/22-rdf-syntax-ns#"
   xmlns:svg="http://www.w3.org/2000/svg"
   xmlns="http://www.w3.org/2000/svg"
   xmlns:sodipodi="http://sodipodi.sourceforge.net/DTD/sodipodi-0.dtd"
   xmlns:inkscape="http://www.inkscape.org/namespaces/inkscape"
   width="48"
   height="48"
   id="svg2"
   version="1.1"
   inkscape:version="0.48.4 r9939"
   sodipodi:docname="chrome-aknpkdffaafgjchaibgeefbgmgeghloj-Default.svg">
  <defs
     id="defs4">
    <linearGradient
       gradientTransform="matrix(0,-1,1,0,-1.5e-6,47.999998)"
       gradientUnits="userSpaceOnUse"
       x2="47"
       x1="1"
       id="linearGradient3764-7">
      <stop
         id="stop3731"
         stop-opacity="1"
         stop-color="#2d8fdb" />
      <stop
         id="stop3733"
         stop-opacity="1"
         stop-color="#3e9ade"
         offset="1" />
    </linearGradient>
    <clipPath
       clipPathUnits="userSpaceOnUse"
       id="clipPath5159">
      <path
         sodipodi:nodetypes="zzzzz"
         inkscape:connector-curvature="0"
         id="path5161"
         d="m 24,1006.3622 c -24,0 -24,0 -24,22 0,22 0,22 24,22 24,0 24,0 24,-22 0,-22 0,-22 -24,-22 z"
         style="fill:#d6032f;fill-opacity:1;stroke:none" />
    </clipPath>
  </defs>
  <sodipodi:namedview
     id="base"
     pagecolor="#ffffff"
     bordercolor="#666666"
     borderopacity="1.0"
     inkscape:pageopacity="0.0"
     inkscape:pageshadow="2"
     inkscape:zoom="5.7916666"
     inkscape:cx="-1.5031741"
     inkscape:cy="10.997773"
     inkscape:document-units="px"
     inkscape:current-layer="layer1"
     showgrid="true"
     inkscape:snap-bbox="true"
     inkscape:window-width="1301"
     inkscape:window-height="744"
     inkscape:window-x="65"
     inkscape:window-y="24"
     inkscape:window-maximized="1"
     inkscape:object-nodes="true"
     showguides="true"
     inkscape:guide-bbox="true"
     inkscape:snap-nodes="false"
     inkscape:snap-global="true">
    <inkscape:grid
       type="xygrid"
       id="grid3003"
       empspacing="6"
       visible="true"
       enabled="true"
       snapvisiblegridlinesonly="true" />
  </sodipodi:namedview>
  <metadata
     id="metadata7">
    <rdf:RDF>
      <cc:Work
         rdf:about="">
        <dc:format>image/svg+xml</dc:format>
        <dc:type
           rdf:resource="http://purl.org/dc/dcmitype/StillImage" />
        <dc:title />
      </cc:Work>
    </rdf:RDF>
  </metadata>
  <g
     inkscape:label="Layer 1"
     inkscape:groupmode="layer"
     id="layer1"
     transform="translate(0,-1004.3622)">
    <path
       id="path3788"
       d="m 24,1051.1116 c -21.2715315,0 -23.66257505,-0.089 -23.9375,-15.4063 0.328125,14.4033 2.9375,14.4063 23.9375,14.4063 21,0 23.609375,0 23.9375,-14.4063 -0.274925,15.3174 -2.665968,15.4063 -23.9375,15.4063 z"
       style="opacity:0.20000000000000001;fill:#ffffff;fill-opacity:1;stroke:none"
       inkscape:connector-curvature="0" />
    <path
       style="fill:#d6032f;fill-opacity:1;stroke:none"
       d="m 24,1006.3622 c -24,0 -24,0 -24,22 0,22 0,22 24,22 24,0 24,0 24,-22 0,-22 0,-22 -24,-22 z"
       id="path3757"
       inkscape:connector-curvature="0"
       sodipodi:nodetypes="zzzzz" />
    <path
       style="fill:#000000;fill-opacity:1;stroke:none;opacity:0.20000000000000001"
       d="M 24 2 C 2.7284685 2 0.33742495 2.0888436 0.0625 17.40625 C 0.390625 3.0029297 3 3 24 3 C 45 3 47.609375 3.0029297 47.9375 17.40625 C 47.662575 2.0888436 45.271532 2 24 2 z "
       transform="translate(0,1004.3622)"
       id="path3770" />
    <g
       id="g3813"
       transform="translate(-47.998,993.3622)" />
    <g
       id="g3038"
       transform="translate(-50.335,1008.7072)" />
    <g
       id="g3041"
       transform="translate(-51.97,1003.7612)" />
    <g
       id="g3026"
       transform="translate(-56.532,1001.6102)" />
    <g
       id="g3811"
       transform="translate(-51.613,998.4722)" />
    <g
       id="g3073"
       transform="translate(-56,1004.3622)" />
    <g
       id="g3757"
       transform="translate(-57,1001.3622)" />
    <g
       id="g5125"
       clip-path="url(#clipPath5159)">
      <path
         style="fill:#b10019;fill-opacity:1;fill-rule:nonzero;stroke:none"
         inkscape:connector-curvature="0"
         d="m 11.955594,1031.3622 c 0,2.2144 -1.327663,4 -2.9727584,4 -1.6425749,0 -2.9828356,-1.7856 -2.9828356,-4 0,-2.2069 1.3377415,-4 2.9828356,-4 1.6425744,0 2.9727584,1.7931 2.9727584,4 m 0,0"
         id="path3182" />
      <path
         sodipodi:type="arc"
         style="fill:#000000;fill-opacity:1;stroke:none"
         id="path5093"
         sodipodi:cx="23.075083"
         sodipodi:cy="45.252968"
         sodipodi:rx="15.99384"
         sodipodi:ry="12.392174"
         d="m 39.068923,45.252968 a 15.99384,12.392174 0 1 1 -31.9876804,0 15.99384,12.392174 0 1 1 31.9876804,0 z"
         transform="matrix(1.1671169,0,0,1.2104415,-8.5980015,994.58613)" />
      <path
         transform="matrix(1.1045928,0,0,1.0490494,-7.155252,1001.8896)"
         d="m 39.068923,45.252968 a 15.99384,12.392174 0 1 1 -31.9876804,0 15.99384,12.392174 0 1 1 31.9876804,0 z"
         sodipodi:ry="12.392174"
         sodipodi:rx="15.99384"
         sodipodi:cy="45.252968"
         sodipodi:cx="23.075083"
         id="path4065"
         style="opacity:1;fill:#e5a367;fill-opacity:1;stroke:none;stroke-width:1.85793685999999991;stroke-linecap:round;stroke-linejoin:miter;stroke-miterlimit:4;stroke-opacity:1;stroke-dasharray:none;stroke-dashoffset:0"
         sodipodi:type="arc" />
      <path
         style="fill:#000000;fill-opacity:0.10199998;fill-rule:nonzero;stroke:none"
         inkscape:connector-curvature="0"
         d="m 30.203408,1029.0768 c -0.773129,0.3156 -1.472859,0.707 -2.30226,1.3187 -2.436824,-0.4771 -6.432138,0.029 -7.665229,0.2202 -2.485756,-3.5843 -0.430603,-6.7086 0.276467,-7.1392 3.192826,1.1474 6.679245,2.2166 9.691022,3.4497 0.220195,0.181 0.256894,0.4673 0.305826,0.7071 m -0.305826,1.4435"
         id="SVGCleanerId_2" />
      <path
         style="fill:#000000;fill-opacity:0.10199998;fill-rule:nonzero;stroke:none"
         inkscape:connector-curvature="0"
         d="m 26.824639,1027.6822 c 0,0.7462 -0.697283,1.3579 -1.578063,1.3579 -0.868546,0 -1.578063,-0.6117 -1.578063,-1.3579 0,-0.7462 0.70707,-1.3481 1.578063,-1.3481 0.878333,0 1.578063,0.6019 1.578063,1.3481 m 0,0"
         id="SVGCleanerId_3" />
      <path
         style="fill:#000000;fill-opacity:0.10199998;fill-rule:nonzero;stroke:none"
         inkscape:connector-curvature="0"
         d="m 31.123333,1027.1439 c -0.03915,0.6606 0.161476,1.3188 0.239768,1.9696 0.70707,0.1149 1.108314,0.4403 1.663695,0.707 2.236201,-1.5095 4.531121,-1.5095 6.708604,-1.5683 0.02936,-0.9468 0.124777,-2.4368 -1.042256,-3.7555 -2.522455,0.6973 -5.113415,1.5487 -7.569811,2.6472 m 0,0"
         id="SVGCleanerId_4" />
      <path
         style="fill:#000000;fill-opacity:0.10199998;fill-rule:nonzero;stroke:none"
         inkscape:connector-curvature="0"
         d="m 34.059265,1027.7189 c 0,0.6116 -0.44039,1.1181 -0.983537,1.1181 -0.545594,0 -0.983537,-0.5065 -0.983537,-1.1181 0,-0.6215 0.440389,-1.1279 0.983537,-1.1279 0.545594,0 0.983537,0.5064 0.983537,1.1279 m 0,0"
         id="SVGCleanerId_5" />
      <path
         style="fill:#000000;fill-opacity:0.10199998;fill-rule:nonzero;stroke:none"
         inkscape:connector-curvature="0"
         d="m 30.25234,1026.9482 0.239768,0.6606 -0.325399,1.4435 c -0.802489,0.3621 -1.614763,0.8318 -2.275348,1.3848 l 0.381671,0.5627 c 0.765789,-0.4208 1.59519,-0.9077 2.436824,-1.3775 l 2.111424,1.0032 0.249554,-0.8025 -1.585403,-0.7732 -0.362098,-2.0649 m -0.868547,-0.039"
         id="SVGCleanerId_6" />
      <path
         style="fill:#000000;fill-opacity:0.10199998;fill-rule:nonzero;stroke:none"
         inkscape:connector-curvature="0"
         d="m 41.264531,1029.1257 -0.660585,-0.7927 c 0.07585,-1.3946 -0.190835,-2.9237 -0.687497,-4.3672 l -1.367655,0.4208 c 0.802488,1.167 1.328509,2.3806 1.127887,3.8608 -1.614762,0.1247 -3.880323,-0.3059 -6.593613,1.5584 l -0.276467,0.7927 0.420817,0.2105 0.96641,-0.7267 c 1.834958,-1.3774 4.863861,-0.9835 7.07315,-0.9566 m 0,0"
         id="SVGCleanerId_7" />
      <path
         style="fill:#000000;fill-opacity:0.10199998;fill-rule:nonzero;stroke:none"
         inkscape:connector-curvature="0"
         d="m 19.18877,1032.0616 0.06606,-0.937 c -1.509558,-2.8772 -1.032469,-4.7024 0,-7.3007 l 0.802488,-0.6606 0.506449,0.2006 c -2.44661,3.0974 -1.414141,4.722 -0.325399,7.2542 2.686377,-0.5064 5.238191,-0.5823 7.675015,-0.23 l 0.391457,0.5823 -1.184159,0.6777 -0.335185,-0.8514 c -3.33473,-0.2104 -5.524446,0.5065 -7.596724,1.2625 m 0,0"
         id="SVGCleanerId_8" />
      <path
         style="fill:#000000;fill-opacity:0.10199998;fill-rule:nonzero;stroke:none"
         inkscape:connector-curvature="0"
         d="m 22.888044,1041.0994 c 1.262451,-0.5823 4.281567,-1.7493 4.281567,-1.7493 l 0.315613,0.526 -3.640555,1.8447 m -0.956625,-0.6214"
         id="SVGCleanerId_9" />
      <path
         style="fill:#000000;fill-opacity:0.10199998;fill-rule:nonzero;stroke:none"
         inkscape:connector-curvature="0"
         d="m 27.042388,1039.4259 c -1.644122,-0.6116 -3.535352,-0.9272 -5.304251,-1.3848 -0.11499,2.9727 0.516235,2.6571 1.137674,3.0779 m 4.166577,-1.6906"
         id="SVGCleanerId_11" />
      <path
         style="fill:#b10019;fill-opacity:1;fill-rule:nonzero;stroke:none"
         inkscape:connector-curvature="0"
         d="m 17.495716,1020.8292 c -0.937052,0.2765 -7.082936,7.7215 -3.249098,13.8014 1.891229,-0.095 2.436823,-0.345 4.291354,-0.2667 l 10.043333,-7.6652 9.615177,6.8431 c 1.289364,-0.9664 6.278001,-5.5244 -0.868546,-12.3945 -6.728178,0.9566 -13.170101,0.2667 -19.829774,-0.3156 m 0,0"
         id="path3159" />
      <path
         style="fill:#000000;fill-opacity:1;fill-rule:nonzero;stroke:none"
         inkscape:connector-curvature="0"
         d="m 27.854662,1024.5261 c -4.827161,-1.9891 -10.628073,-3.0192 -14.459464,-5.9551 0.802488,-1.7395 1.377441,-3.709 3.620982,-5.2088 3.59407,4.0711 8.237736,5.8865 11.535766,7.9906 l 10.588928,-6.7184 c 0.381671,-0.2398 2.245988,5.0376 2.245988,5.0376 l -0.861207,0.6875 c -0.535808,0.4306 -8.572921,2.9335 -11.812233,4.3011 m -0.861206,-0.1345"
         id="SVGCleanerId_19" />
      <path
         style="fill:#f9f9ff;fill-opacity:1;fill-rule:nonzero;stroke:none"
         inkscape:connector-curvature="0"
         d="m 27.756798,1026.6301 c -0.773129,0.3157 -1.472859,0.7071 -2.30226,1.3286 -2.427037,-0.4869 -6.432138,0.024 -7.665229,0.2104 -2.485756,-3.5745 -0.430603,-6.7086 0.276467,-7.1392 3.192826,1.1474 6.679245,2.2166 9.691022,3.4497 0.220195,0.181 0.256894,0.4673 0.305826,0.707 m -0.305826,1.4435"
         id="path3162" />
      <path
         style="fill:#000000;fill-opacity:1;fill-rule:nonzero;stroke:none"
         inkscape:connector-curvature="0"
         d="m 24.387816,1025.2356 c 0,0.7462 -0.70707,1.3578 -1.585403,1.3578 -0.868547,0 -1.578064,-0.6116 -1.578064,-1.3578 0,-0.7462 0.707071,-1.3481 1.578064,-1.3481 0.878333,0 1.585403,0.6019 1.585403,1.3481 m 0,0"
         id="SVGCleanerId_20" />
      <path
         style="fill:#f9f9f9;fill-opacity:1;fill-rule:nonzero;stroke:none"
         inkscape:connector-curvature="0"
         d="m 28.676723,1024.6973 c -0.03915,0.6606 0.161476,1.3187 0.249554,1.9695 0.697284,0.115 1.098528,0.4404 1.653909,0.7071 2.236201,-1.4998 4.538461,-1.4998 6.708604,-1.5683 0.02936,-0.937 0.124777,-2.4368 -1.042256,-3.7555 -2.522455,0.6973 -5.103628,1.5487 -7.569811,2.6472 m 0,0"
         id="path3165" />
      <path
         style="fill:#000000;fill-opacity:1;fill-rule:nonzero;stroke:none"
         inkscape:connector-curvature="0"
         d="m 31.612655,1025.2723 c 0,0.6214 -0.44039,1.1181 -0.983537,1.1181 -0.545594,0 -0.983537,-0.4967 -0.983537,-1.1181 0,-0.6215 0.440389,-1.1279 0.983537,-1.1279 0.545594,0 0.983537,0.5064 0.983537,1.1279 m 0,0"
         id="SVGCleanerId_21" />
      <path
         style="fill:#000000;fill-opacity:1;fill-rule:nonzero;stroke:none"
         inkscape:connector-curvature="0"
         d="m 27.80573,1024.5016 0.239768,0.6679 -0.315613,1.4435 c -0.812274,0.3548 -1.624549,0.8221 -2.285134,1.3579 l 0.381672,0.5823 c 0.765788,-0.4208 1.595189,-0.9077 2.436823,-1.3775 l 2.111424,1.0032 0.249555,-0.8025 -1.585404,-0.7658 -0.362098,-2.0748 m -0.868546,-0.039"
         id="SVGCleanerId_22" />
      <path
         style="fill:#000000;fill-opacity:1;fill-rule:nonzero;stroke:none"
         inkscape:connector-curvature="0"
         d="m 38.817921,1026.6791 -0.650798,-0.7927 c 0.06606,-1.3946 -0.200622,-2.9237 -0.697284,-4.3574 l -1.367655,0.411 c 0.802488,1.167 1.328509,2.3805 1.127887,3.8607 -1.614762,0.1346 -3.880323,-0.3058 -6.593613,1.5585 l -0.276467,0.7927 0.420817,0.2104 0.97375,-0.7266 c 1.834958,-1.3774 4.854074,-0.9835 7.063363,-0.9566 m 0,0"
         id="SVGCleanerId_23" />
      <path
         style="fill:#000000;fill-opacity:1;fill-rule:nonzero;stroke:none"
         inkscape:connector-curvature="0"
         d="m 16.74216,1029.615 0.06606,-0.937 c -1.509558,-2.8773 -1.032469,-4.7024 0,-7.3007 l 0.802489,-0.6606 0.506448,0.2006 c -2.44661,3.0974 -1.414141,4.722 -0.325399,7.2542 2.686377,-0.5064 5.238191,-0.5725 7.675015,-0.23 l 0.391458,0.5921 -1.18416,0.6679 -0.335185,-0.8514 c -3.33473,-0.2006 -5.524445,0.5065 -7.596724,1.2625 m 0,0"
         id="SVGCleanerId_24" />
      <path
         style="fill:#000000;fill-opacity:1;fill-rule:nonzero;stroke:none"
         inkscape:connector-curvature="0"
         d="m 24.654496,1037.0038 -5.4486,-1.3383 0.535808,-1.2331 c 1.595189,1.2991 3.114534,1.3285 4.844287,1.6343 4.320713,0.2667 8.868961,1.1744 11.555339,1.9695 l 3.107194,1.8448 -0.917478,0.4673 -3.019117,-1.8056 c -2.5616,-0.6019 -5.047356,-1.0716 -7.701928,-1.3775 -0.878333,-0.049 -1.834957,-0.049 -2.657018,0.3254 m -0.29604,-0.4673"
         id="SVGCleanerId_25" />
      <path
         style="fill:#000000;fill-opacity:1;fill-rule:nonzero;stroke:none"
         inkscape:connector-curvature="0"
         d="m 20.441434,1038.6528 c 1.262451,-0.5823 4.281568,-1.7493 4.281568,-1.7493 l 0.315612,0.526 -3.640555,1.8447 m -0.956625,-0.6214"
         id="SVGCleanerId_26" />
      <path
         style="fill:#000000;fill-opacity:1;fill-rule:nonzero;stroke:none"
         inkscape:connector-curvature="0"
         d="m 27.732332,1043.1154 c -2.427037,-1.4141 -4.682812,-2.9139 -7.100062,-4.3305 l -1.338296,-2.2949 5.761766,-7.6457 -0.67771,-0.4404 c -1.404355,0.8221 -3.765333,2.8577 -5.715281,5.4095 -1.03247,2.6179 -0.190836,4.7978 1.463073,5.8498 1.279576,0.8025 1.864316,1.3481 3.087621,2.18 1.223305,0.8318 3.114535,1.7493 4.386772,2.5028 m 0.134563,-1.233"
         id="SVGCleanerId_27" />
      <path
         style="fill:#f9f9f9;fill-opacity:1;fill-rule:nonzero;stroke:none"
         inkscape:connector-curvature="0"
         d="m 24.595778,1036.9793 c -1.644122,-0.6116 -3.535352,-0.9175 -5.30425,-1.3848 -0.105205,2.9727 0.516234,2.657 1.137673,3.0779 m 4.166577,-1.6906"
         id="path3174" />
      <path
         style="fill:#000000;fill-opacity:1;fill-rule:nonzero;stroke:none"
         inkscape:connector-curvature="0"
         d="m 27.634467,1042.9931 7.168567,-4.722 0.687498,0.2961 c -2.647232,1.9108 -5.179473,4.1861 -7.93191,5.725 m 0.07585,-1.2991"
         id="SVGCleanerId_28" />
      <path
         style="fill:#cf5903;fill-opacity:1;fill-rule:nonzero;stroke:none"
         inkscape:connector-curvature="0"
         d="m 21.280621,1039.1813 c 1.901016,-1.1573 4.061373,-2.2558 6.287788,-2.0258 2.397678,0.2495 4.969065,0.6214 7.19548,1.2722 -2.47597,1.6906 -4.548248,3.068 -7.082936,4.6828 -2.522455,-0.8221 -4.74887,-2.1212 -6.402778,-3.9195 m 0,0"
         id="path3177" />
      <path
         style="fill:#000000;fill-opacity:1;fill-rule:nonzero;stroke:none"
         inkscape:connector-curvature="0"
         d="m 30.665817,1028.4088 0.973751,-0.7731 c 2.847854,1.7102 4.758656,3.4301 6.422351,5.2651 1.032469,1.5291 2.370765,3.8999 2.495542,5.5342 l -1.357869,1.5854 -0.535807,-4.1298 -3.640556,-4.8076 m -4.357412,-2.6766"
         id="SVGCleanerId_29" />
      <path
         style="fill:#fbb91e;fill-opacity:1;fill-rule:nonzero;stroke:none"
         inkscape:connector-curvature="0"
         d="m 19.731917,1034.4838 c 1.979308,-4.4162 5.74464,-5.5905 8.523989,-7.3399 8.066473,3.6039 8.697698,5.7055 10.542442,8.7344 0.305826,1.3285 0.667925,2.657 0.401244,3.9856 -1.167033,-0.4771 -2.055152,-1.4802 -3.518225,-1.9598 -3.660128,-1.0031 -7.215052,-1.4337 -11.171221,-1.7958 -1.883889,-0.3621 -3.307816,-0.4966 -4.778229,-1.6147 m 0,0"
         id="path3180" />
      <path
         id="path5095"
         d="m 5,1034.3622 c 0,1.1072 -0.8917081,2 -1.9966159,2 -1.1032148,0 -2.0033841,-0.8928 -2.0033841,-2 0,-1.1035 0.8984773,-2 2.0033841,-2 1.1032146,0 1.9966159,0.8965 1.9966159,2 m 0,0"
         inkscape:connector-curvature="0"
         style="fill:#b10019;fill-opacity:1;fill-rule:nonzero;stroke:none" />
    </g>
  </g>
</svg>
