<?xml version="1.0" encoding="UTF-8" standalone="no"?>
<!-- Created with Inkscape (http://www.inkscape.org/) -->

<svg
   xmlns:dc="http://purl.org/dc/elements/1.1/"
   xmlns:cc="http://creativecommons.org/ns#"
   xmlns:rdf="http://www.w3.org/1999/02/22-rdf-syntax-ns#"
   xmlns:svg="http://www.w3.org/2000/svg"
   xmlns="http://www.w3.org/2000/svg"
   xmlns:xlink="http://www.w3.org/1999/xlink"
   xmlns:sodipodi="http://sodipodi.sourceforge.net/DTD/sodipodi-0.dtd"
   xmlns:inkscape="http://www.inkscape.org/namespaces/inkscape"
   width="48"
   height="48"
   id="svg2"
   version="1.1"
   inkscape:version="0.48.4 r9939"
   sodipodi:docname="anki.svg">
  <defs
     id="defs4">
    <linearGradient
       id="linearGradient3779">
      <stop
         style="stop-color:#000000;stop-opacity:1;"
         offset="0"
         id="stop3781" />
      <stop
         style="stop-color:#ffffff;stop-opacity:1;"
         offset="1"
         id="stop3783" />
    </linearGradient>
    <linearGradient
       inkscape:collect="always"
       xlink:href="#linearGradient3779"
       id="linearGradient3794"
       gradientUnits="userSpaceOnUse"
       gradientTransform="translate(-40,0)"
       spreadMethod="repeat"
       x1="24"
       y1="1028.3622"
       x2="45"
       y2="1007.3622" />
    <linearGradient
       inkscape:collect="always"
       xlink:href="#linearGradient3779"
       id="linearGradient3796"
       gradientUnits="userSpaceOnUse"
       gradientTransform="translate(-40,0)"
       spreadMethod="repeat"
       x1="44"
       y1="1048.3622"
       x2="15"
       y2="1019.3622" />
  </defs>
  <sodipodi:namedview
     id="base"
     pagecolor="#ffffff"
     bordercolor="#666666"
     borderopacity="1.0"
     inkscape:pageopacity="0.0"
     inkscape:pageshadow="2"
     inkscape:zoom="11.583333"
     inkscape:cx="12.921205"
     inkscape:cy="27.429802"
     inkscape:document-units="px"
     inkscape:current-layer="layer1"
     showgrid="true"
     inkscape:snap-bbox="true"
     inkscape:window-width="1301"
     inkscape:window-height="744"
     inkscape:window-x="65"
     inkscape:window-y="24"
     inkscape:window-maximized="1"
     inkscape:object-nodes="true">
    <inkscape:grid
       type="xygrid"
       id="grid3003"
       empspacing="6"
       visible="true"
       enabled="true"
       snapvisiblegridlinesonly="true" />
  </sodipodi:namedview>
  <metadata
     id="metadata7">
    <rdf:RDF>
      <cc:Work
         rdf:about="">
        <dc:format>image/svg+xml</dc:format>
        <dc:type
           rdf:resource="http://purl.org/dc/dcmitype/StillImage" />
        <dc:title />
      </cc:Work>
    </rdf:RDF>
  </metadata>
  <g
     inkscape:label="Layer 1"
     inkscape:groupmode="layer"
     id="layer1"
     transform="translate(0,-1004.3622)">
    <path
       id="path3788"
       d="m 24,1051.1116 c -21.2715315,0 -23.66257505,-0.089 -23.9375,-15.4063 0.328125,14.4033 2.9375,14.4063 23.9375,14.4063 21,0 23.609375,0 23.9375,-14.4063 -0.274925,15.3174 -2.665968,15.4063 -23.9375,15.4063 z"
       style="opacity:0.20000000000000001;fill:#ffffff;fill-opacity:1;stroke:none"
       inkscape:connector-curvature="0" />
    <path
       style="fill:#f9a825;fill-opacity:1;stroke:none"
       d="m 24,1006.3622 c -24,0 -24,0 -24,22 0,22 0,22 24,22 24,0 24,0 24,-22 0,-22 0,-22 -24,-22 z"
       id="path3757"
       inkscape:connector-curvature="0"
       sodipodi:nodetypes="zzzzz" />
    <g
       id="g3790"
       transform="translate(40,0)">
      <path
         style="opacity:0.05;fill:url(#linearGradient3794);fill-opacity:1;stroke:none"
         d="m -16,1006.3622 c -24,0 -24,0 -24,22 0,22 0,22 24,22 24,0 24,0 24,-22 0,-22 0,-22 -24,-22 z"
         id="path3777"
         inkscape:connector-curvature="0"
         sodipodi:nodetypes="zzzzz" />
      <path
         sodipodi:nodetypes="zzzzz"
         inkscape:connector-curvature="0"
         id="path3787"
         d="m -16,1006.3622 c -24,0 -24,0 -24,22 0,22 0,22 24,22 24,0 24,0 24,-22 0,-22 0,-22 -24,-22 z"
         style="opacity:0.05;fill:url(#linearGradient3796);fill-opacity:1;stroke:none" />
    </g>
    <path
       style="fill:#000000;fill-opacity:1;stroke:none;opacity:0.20000000000000001"
       d="M 24 2 C 2.7284685 2 0.33742495 2.0888436 0.0625 17.40625 C 0.390625 3.0029297 3 3 24 3 C 45 3 47.609375 3.0029297 47.9375 17.40625 C 47.662575 2.0888436 45.271532 2 24 2 z "
       transform="translate(0,1004.3622)"
       id="path3770" />
    <g
       id="g3813"
       transform="translate(-47.998,993.3622)" />
    <g
       id="g3798"
       style="opacity:0.2;fill:#000000;fill-opacity:1"
       transform="translate(1.001959,1.1450084)">
      <path
         transform="translate(0,1004.3622)"
         style="fill:#000000;fill-opacity:1;stroke:none"
         d="M 23.46875,9.15625 A 1.0503662,1.0503662 0 0 0 22.5,9.84375 l -1.59375,4 -4.71875,1.21875 A 1.0503662,1.0503662 0 0 0 15.75,16.90625 l 3.34375,2.8125 -0.3125,4.84375 a 1.0503662,1.0503662 0 0 0 1.625,0.9375 l 3.6875,-2.34375 4.53125,1.8125 A 1.0503662,1.0503662 0 0 0 30.03125,23.75 l -1.0625,-4.25 3.09375,-3.75 a 1.0503662,1.0503662 0 0 0 -0.75,-1.71875 l -4.375,-0.3125 -2.59375,-4.0625 a 1.0503662,1.0503662 0 0 0 -0.875,-0.5 z"
         id="path3800"
         inkscape:connector-curvature="0" />
      <path
         transform="matrix(0.50633308,0.14486633,-0.14486633,0.50633308,26.155098,1023.1471)"
         style="fill:#000000;fill-opacity:1;stroke:none"
         d="M 23.46875,9.15625 A 1.0503662,1.0503662 0 0 0 22.5,9.84375 l -1.59375,4 -4.71875,1.21875 A 1.0503662,1.0503662 0 0 0 15.75,16.90625 l 3.34375,2.8125 -0.3125,4.84375 a 1.0503662,1.0503662 0 0 0 1.625,0.9375 l 3.6875,-2.34375 4.53125,1.8125 A 1.0503662,1.0503662 0 0 0 30.03125,23.75 l -1.0625,-4.25 3.09375,-3.75 a 1.0503662,1.0503662 0 0 0 -0.75,-1.71875 l -4.375,-0.3125 -2.59375,-4.0625 a 1.0503662,1.0503662 0 0 0 -0.875,-0.5 z"
         id="path3802"
         inkscape:connector-curvature="0" />
      <path
         transform="matrix(0.15516281,0.50327323,-0.50327323,0.15516281,16.045127,1014.5853)"
         style="fill:#000000;fill-opacity:1;stroke:none"
         d="M 23.46875,9.15625 A 1.0503662,1.0503662 0 0 0 22.5,9.84375 l -1.59375,4 -4.71875,1.21875 A 1.0503662,1.0503662 0 0 0 15.75,16.90625 l 3.34375,2.8125 -0.3125,4.84375 a 1.0503662,1.0503662 0 0 0 1.625,0.9375 l 3.6875,-2.34375 4.53125,1.8125 A 1.0503662,1.0503662 0 0 0 30.03125,23.75 l -1.0625,-4.25 3.09375,-3.75 a 1.0503662,1.0503662 0 0 0 -0.75,-1.71875 l -4.375,-0.3125 -2.59375,-4.0625 a 1.0503662,1.0503662 0 0 0 -0.875,-0.5 z"
         id="path3804"
         inkscape:connector-curvature="0" />
    </g>
    <g
       id="g3793">
      <path
         id="path3776"
         d="M 23.46875,9.15625 A 1.0503662,1.0503662 0 0 0 22.5,9.84375 l -1.59375,4 -4.71875,1.21875 A 1.0503662,1.0503662 0 0 0 15.75,16.90625 l 3.34375,2.8125 -0.3125,4.84375 a 1.0503662,1.0503662 0 0 0 1.625,0.9375 l 3.6875,-2.34375 4.53125,1.8125 A 1.0503662,1.0503662 0 0 0 30.03125,23.75 l -1.0625,-4.25 3.09375,-3.75 a 1.0503662,1.0503662 0 0 0 -0.75,-1.71875 l -4.375,-0.3125 -2.59375,-4.0625 a 1.0503662,1.0503662 0 0 0 -0.875,-0.5 z"
         style="fill:#333333;stroke:none"
         transform="translate(0,1004.3622)" />
      <path
         id="path3778"
         d="M 23.46875,9.15625 A 1.0503662,1.0503662 0 0 0 22.5,9.84375 l -1.59375,4 -4.71875,1.21875 A 1.0503662,1.0503662 0 0 0 15.75,16.90625 l 3.34375,2.8125 -0.3125,4.84375 a 1.0503662,1.0503662 0 0 0 1.625,0.9375 l 3.6875,-2.34375 4.53125,1.8125 A 1.0503662,1.0503662 0 0 0 30.03125,23.75 l -1.0625,-4.25 3.09375,-3.75 a 1.0503662,1.0503662 0 0 0 -0.75,-1.71875 l -4.375,-0.3125 -2.59375,-4.0625 a 1.0503662,1.0503662 0 0 0 -0.875,-0.5 z"
         style="fill:#333333;stroke:none"
         transform="matrix(0.50633308,0.14486633,-0.14486633,0.50633308,26.155098,1023.1471)" />
      <path
         id="path3780"
         d="M 23.46875,9.15625 A 1.0503662,1.0503662 0 0 0 22.5,9.84375 l -1.59375,4 -4.71875,1.21875 A 1.0503662,1.0503662 0 0 0 15.75,16.90625 l 3.34375,2.8125 -0.3125,4.84375 a 1.0503662,1.0503662 0 0 0 1.625,0.9375 l 3.6875,-2.34375 4.53125,1.8125 A 1.0503662,1.0503662 0 0 0 30.03125,23.75 l -1.0625,-4.25 3.09375,-3.75 a 1.0503662,1.0503662 0 0 0 -0.75,-1.71875 l -4.375,-0.3125 -2.59375,-4.0625 a 1.0503662,1.0503662 0 0 0 -0.875,-0.5 z"
         style="fill:#333333;stroke:none"
         transform="matrix(0.15516281,0.50327323,-0.50327323,0.15516281,16.045127,1014.5853)" />
    </g>
  </g>
</svg>
