<?xml version="1.0" encoding="UTF-8" standalone="no"?>
<!-- Created with Inkscape (http://www.inkscape.org/) -->

<svg
   xmlns:dc="http://purl.org/dc/elements/1.1/"
   xmlns:cc="http://creativecommons.org/ns#"
   xmlns:rdf="http://www.w3.org/1999/02/22-rdf-syntax-ns#"
   xmlns:svg="http://www.w3.org/2000/svg"
   xmlns="http://www.w3.org/2000/svg"
   xmlns:xlink="http://www.w3.org/1999/xlink"
   xmlns:sodipodi="http://sodipodi.sourceforge.net/DTD/sodipodi-0.dtd"
   xmlns:inkscape="http://www.inkscape.org/namespaces/inkscape"
   width="48"
   height="48"
   id="svg2"
   version="1.1"
   inkscape:version="0.48.4 r9939"
   sodipodi:docname="autoplus.svg">
  <defs
     id="defs4">
    <linearGradient
       gradientTransform="matrix(0.189487,0,0,0.18661,38.746625,18.717954)"
       y2="2.033"
       x2="-176.39"
       y1="66.3"
       x1="-26.468"
       gradientUnits="userSpaceOnUse"
       id="linear0">
      <stop
         id="stop3034"
         stop-opacity="1"
         stop-color="#e31200" />
      <stop
         id="stop3036"
         stop-opacity="1"
         stop-color="#faa300"
         offset="1" />
    </linearGradient>
    <linearGradient
       inkscape:collect="always"
       xlink:href="#linear0"
       id="linearGradient3165"
       gradientUnits="userSpaceOnUse"
       gradientTransform="matrix(0.189487,0,0,0.18661,38.746625,18.717954)"
       x1="-26.468"
       y1="66.3"
       x2="-176.39"
       y2="2.033" />
    <linearGradient
       gradientTransform="matrix(0,-1,1,0,-1.5e-6,47.999998)"
       gradientUnits="userSpaceOnUse"
       x2="47"
       x1="1"
       id="linearGradient3764-9">
      <stop
         id="stop3026"
         stop-opacity="1"
         stop-color="#2290d0" />
      <stop
         id="stop3028"
         stop-opacity="1"
         stop-color="#2a99dc"
         offset="1" />
    </linearGradient>
    <linearGradient
       inkscape:collect="always"
       xlink:href="#linearGradient3764-9"
       id="linearGradient3140"
       gradientUnits="userSpaceOnUse"
       gradientTransform="matrix(0,-1,1,0,-1.5e-6,47.999998)"
       x1="1"
       x2="47" />
    <linearGradient
       inkscape:collect="always"
       xlink:href="#linearGradient3764-9"
       id="linearGradient3143"
       gradientUnits="userSpaceOnUse"
       gradientTransform="matrix(0,-1,1,0,-52.000002,1061.3622)"
       x1="1"
       x2="47" />
  </defs>
  <sodipodi:namedview
     id="base"
     pagecolor="#ffffff"
     bordercolor="#666666"
     borderopacity="1.0"
     inkscape:pageopacity="0.0"
     inkscape:pageshadow="2"
     inkscape:zoom="8.9910424"
     inkscape:cx="9.0072302"
     inkscape:cy="16.305526"
     inkscape:document-units="px"
     inkscape:current-layer="layer1"
     showgrid="true"
     inkscape:snap-bbox="true"
     inkscape:window-width="1301"
     inkscape:window-height="744"
     inkscape:window-x="65"
     inkscape:window-y="24"
     inkscape:window-maximized="1"
     inkscape:snap-nodes="false">
    <inkscape:grid
       type="xygrid"
       id="grid2985"
       empspacing="6"
       visible="true"
       enabled="true"
       snapvisiblegridlinesonly="true" />
  </sodipodi:namedview>
  <metadata
     id="metadata7">
    <rdf:RDF>
      <cc:Work
         rdf:about="">
        <dc:format>image/svg+xml</dc:format>
        <dc:type
           rdf:resource="http://purl.org/dc/dcmitype/StillImage" />
        <dc:title />
      </cc:Work>
    </rdf:RDF>
  </metadata>
  <g
     inkscape:label="Layer 1"
     inkscape:groupmode="layer"
     id="layer1"
     transform="translate(0,-1004.3622)">
    <path
       id="path3788"
       d="m 24,1051.1116 c -21.2715315,0 -23.66257505,-0.089 -23.9375,-15.4063 0.328125,14.4033 2.9375,14.4063 23.9375,14.4063 21,0 23.609375,0 23.9375,-14.4063 -0.274925,15.3174 -2.665968,15.4063 -23.9375,15.4063 z"
       style="opacity:0.20000000000000001;fill:#ffffff;fill-opacity:1;stroke:none"
       inkscape:connector-curvature="0" />
    <path
       style="fill:#2391d2;fill-opacity:1;stroke:none"
       d="m 24,1050.3622 c -24,0 -24,0 -24,-22 0,-22 0,-22 24,-22 24,0 24,0 24,22 0,22 0,22 -24,22 z"
       id="path3757"
       inkscape:connector-curvature="0"
       sodipodi:nodetypes="zzzzz" />
    <path
       style="fill:#000000;fill-opacity:1;stroke:none;opacity:0.20000000000000001"
       d="M 24 2 C 2.7284685 2 0.33742495 2.0888436 0.0625 17.40625 C 0.390625 3.0029297 3 3 24 3 C 45 3 47.609375 3.0029297 47.9375 17.40625 C 47.662575 2.0888436 45.271532 2 24 2 z "
       transform="translate(0,1004.3622)"
       id="path3770" />
    <g
       id="g3807"
       transform="translate(-52.998,1004.3622)" />
    <g
       id="g3056"
       transform="translate(-77.998,1004.3622)" />
    <g
       transform="translate(0.991,1006.3612)"
       id="g3058">
      <g
         style="opacity:0.1"
         id="g3060">
        <!-- color: #2a99dc -->
        <g
           id="g3062">
          <path
             style="fill:#000000;fill-opacity:1;fill-rule:nonzero;stroke:none"
             inkscape:connector-curvature="0"
             d="m 21.297,11 c -1.656,0.344 -3.203,0.988 -4.574,1.883 0.039,0.992 -0.301,2.01 -1.063,2.77 -0.758,0.758 -1.773,1.098 -2.77,1.059 -0.898,1.363 -1.543,2.91 -1.887,4.563 0.738,0.672 1.18,1.633 1.18,2.711 0,1.078 -0.441,2.066 -1.18,2.738 0.344,1.652 0.988,3.172 1.887,4.535 0.996,-0.039 2.01,0.336 2.77,1.09 0.758,0.758 1.102,1.742 1.063,2.738 1.367,0.895 2.918,1.57 4.574,1.914 0.672,-0.738 1.633,-1.211 2.711,-1.211 1.074,0 2.035,0.473 2.707,1.211 1.648,-0.344 3.207,-1.023 4.574,-1.914 -0.004,-0.055 0,-0.098 0,-0.148 0,-0.941 0.34,-1.871 1.063,-2.59 0.758,-0.758 1.773,-1.133 2.77,-1.09 0.898,-1.363 1.543,-2.883 1.887,-4.535 -0.738,-0.672 -1.18,-1.66 -1.18,-2.738 0,-1.078 0.441,-2.035 1.18,-2.711 -0.344,-1.652 -0.988,-3.199 -1.887,-4.563 -0.996,0.039 -2.01,-0.301 -2.77,-1.059 -0.719,-0.723 -1.063,-1.648 -1.063,-2.59 0,-0.055 -0.004,-0.125 0,-0.18 -1.363,-0.891 -2.922,-1.539 -4.574,-1.883 -0.672,0.734 -1.633,1.207 -2.707,1.207 -1.078,0 -2.039,-0.473 -2.711,-1.207 m 6.543,4.152 c 0.422,0 0.73,0.043 1.121,0.148 0.566,0.148 1.031,0.605 1.031,1.148 0,0.656 -0.469,1.117 -1.18,1.117 -0.34,0 -0.48,-0.059 -0.977,-0.059 -1.465,0 -2.648,1.188 -2.652,2.645 l 0,2.297 c 0,0.207 0.176,0.355 0.383,0.355 l 1.738,0 c 0.648,0 1.18,0.523 1.18,1.176 0,0.648 -0.531,1.176 -1.18,1.176 l -2.121,0 0,2.652 c 0,2.77 -2.242,5.04 -5.01,5.04 -0.422,0 -0.73,-0.047 -1.121,-0.148 -0.566,-0.152 -1.031,-0.641 -1.031,-1.18 0,-0.652 0.5,-1.117 1.211,-1.117 0.336,0 0.445,0.059 0.941,0.059 1.465,0 2.652,-1.16 2.652,-2.621 l 0,-2.324 c 0,-0.207 -0.176,-0.355 -0.383,-0.355 l -1.738,0 c -0.648,0 -1.18,-0.527 -1.18,-1.176 0,-0.652 0.555,-1.176 1.207,-1.176 l 2.094,0 0,-2.652 c 0,-2.77 2.242,-5 5.01,-5 m 0.004,0"
             id="path3064" />
        </g>
      </g>
    </g>
    <g
       id="g3070"
       transform="translate(-0.009,1005.3612)">
      <path
         style="fill:#f9f9f9;fill-opacity:1;fill-rule:nonzero;stroke:none"
         inkscape:connector-curvature="0"
         d="m 21.297,11 c -1.656,0.344 -3.203,0.988 -4.574,1.883 0.039,0.992 -0.301,2.01 -1.063,2.77 -0.758,0.758 -1.773,1.098 -2.77,1.059 -0.898,1.363 -1.543,2.91 -1.887,4.563 0.738,0.672 1.18,1.633 1.18,2.711 0,1.078 -0.441,2.066 -1.18,2.738 0.344,1.652 0.988,3.172 1.887,4.535 0.996,-0.039 2.01,0.336 2.77,1.09 0.758,0.758 1.102,1.742 1.063,2.738 1.367,0.895 2.918,1.57 4.574,1.914 0.672,-0.738 1.633,-1.211 2.711,-1.211 1.074,0 2.035,0.473 2.707,1.211 1.648,-0.344 3.207,-1.023 4.574,-1.914 -0.004,-0.055 0,-0.098 0,-0.148 0,-0.941 0.34,-1.871 1.063,-2.59 0.758,-0.758 1.773,-1.133 2.77,-1.09 0.898,-1.363 1.543,-2.883 1.887,-4.535 -0.738,-0.672 -1.18,-1.66 -1.18,-2.738 0,-1.078 0.441,-2.035 1.18,-2.711 -0.344,-1.652 -0.988,-3.199 -1.887,-4.563 -0.996,0.039 -2.01,-0.301 -2.77,-1.059 -0.719,-0.723 -1.063,-1.648 -1.063,-2.59 0,-0.055 -0.004,-0.125 0,-0.18 -1.363,-0.891 -2.922,-1.539 -4.574,-1.883 -0.672,0.734 -1.633,1.207 -2.707,1.207 -1.078,0 -2.039,-0.473 -2.711,-1.207 m 6.543,4.152 c 0.422,0 0.73,0.043 1.121,0.148 0.566,0.148 1.031,0.605 1.031,1.148 0,0.656 -0.469,1.117 -1.18,1.117 -0.34,0 -0.48,-0.059 -0.977,-0.059 -1.465,0 -2.648,1.188 -2.652,2.645 l 0,2.297 c 0,0.207 0.176,0.355 0.383,0.355 l 1.738,0 c 0.648,0 1.18,0.523 1.18,1.176 0,0.648 -0.531,1.176 -1.18,1.176 l -2.121,0 0,2.652 c 0,2.77 -2.242,5.04 -5.01,5.04 -0.422,0 -0.73,-0.047 -1.121,-0.148 -0.566,-0.152 -1.031,-0.641 -1.031,-1.18 0,-0.652 0.5,-1.117 1.211,-1.117 0.336,0 0.445,0.059 0.941,0.059 1.465,0 2.652,-1.16 2.652,-2.621 l 0,-2.324 c 0,-0.207 -0.176,-0.355 -0.383,-0.355 l -1.738,0 c -0.648,0 -1.18,-0.527 -1.18,-1.176 0,-0.652 0.555,-1.176 1.207,-1.176 l 2.094,0 0,-2.652 c 0,-2.77 2.242,-5 5.01,-5 m 0.004,0"
         id="path3072" />
    </g>
  </g>
</svg>
