<?xml version="1.0" encoding="UTF-8" standalone="no"?>
<!-- Created with Inkscape (http://www.inkscape.org/) -->

<svg
   xmlns:dc="http://purl.org/dc/elements/1.1/"
   xmlns:cc="http://creativecommons.org/ns#"
   xmlns:rdf="http://www.w3.org/1999/02/22-rdf-syntax-ns#"
   xmlns:svg="http://www.w3.org/2000/svg"
   xmlns="http://www.w3.org/2000/svg"
   xmlns:xlink="http://www.w3.org/1999/xlink"
   xmlns:sodipodi="http://sodipodi.sourceforge.net/DTD/sodipodi-0.dtd"
   xmlns:inkscape="http://www.inkscape.org/namespaces/inkscape"
   width="48"
   height="48"
   id="svg2"
   version="1.1"
   inkscape:version="0.48.4 r9939"
   sodipodi:docname="azureus.svg">
  <sodipodi:namedview
     id="base"
     pagecolor="#ffffff"
     bordercolor="#666666"
     borderopacity="1.0"
     inkscape:pageopacity="0.0"
     inkscape:pageshadow="2"
     inkscape:zoom="8.1906535"
     inkscape:cx="3.6272728"
     inkscape:cy="20.020283"
     inkscape:document-units="px"
     inkscape:current-layer="layer1"
     showgrid="true"
     inkscape:snap-bbox="true"
     inkscape:window-width="1301"
     inkscape:window-height="744"
     inkscape:window-x="65"
     inkscape:window-y="24"
     inkscape:window-maximized="1"
     inkscape:object-nodes="true"
     showguides="true"
     inkscape:guide-bbox="true"
     inkscape:snap-nodes="false"
     inkscape:snap-global="true">
    <inkscape:grid
       snapvisiblegridlinesonly="true"
       enabled="true"
       visible="true"
       empspacing="6"
       id="grid3003"
       type="xygrid" />
  </sodipodi:namedview>
  <defs
     id="defs4">
    <linearGradient
       gradientUnits="userSpaceOnUse"
       y2="90"
       x2="78"
       y1="30"
       x1="18"
       id="linearGradient4316"
       xlink:href="#linearGradient4310"
       inkscape:collect="always" />
    <linearGradient
       id="linearGradient4310"
       inkscape:collect="always">
      <stop
         id="stop4312"
         offset="0"
         style="stop-color:#000000;stop-opacity:1;" />
      <stop
         id="stop4314"
         offset="1"
         style="stop-color:#000000;stop-opacity:0;" />
    </linearGradient>
    <linearGradient
       inkscape:collect="always"
       xlink:href="#linearGradient4310"
       id="linearGradient3042"
       gradientUnits="userSpaceOnUse"
       x1="18"
       y1="30"
       x2="78"
       y2="90"
       gradientTransform="matrix(0.43751405,0,0,0.43751405,-54.001874,1010.3622)" />
  </defs>
  <metadata
     id="metadata7">
    <rdf:RDF>
      <cc:Work
         rdf:about="">
        <dc:format>image/svg+xml</dc:format>
        <dc:type
           rdf:resource="http://purl.org/dc/dcmitype/StillImage" />
        <dc:title />
      </cc:Work>
    </rdf:RDF>
  </metadata>
  <g
     transform="translate(0,-1004.3622)"
     id="layer1"
     inkscape:groupmode="layer"
     inkscape:label="Layer 1">
    <path
       inkscape:connector-curvature="0"
       style="opacity:0.20000000000000001;fill:#ffffff;fill-opacity:1;stroke:none"
       d="m 24,1051.1116 c -21.2715315,0 -23.66257505,-0.089 -23.9375,-15.4063 0.328125,14.4033 2.9375,14.4063 23.9375,14.4063 21,0 23.609375,0 23.9375,-14.4063 -0.274925,15.3174 -2.665968,15.4063 -23.9375,15.4063 z"
       id="path3788" />
    <path
       sodipodi:nodetypes="zzzzz"
       inkscape:connector-curvature="0"
       id="path3757"
       d="m 24,1006.3622 c -24,0 -24,0 -24,22 0,22 0,22 24,22 24,0 24,0 24,-22 0,-22 0,-22 -24,-22 z"
       style="fill:#00cfed;fill-opacity:1;stroke:none" />
    <path
       id="path3770"
       transform="translate(0,1004.3622)"
       d="M 24 2 C 2.7284685 2 0.33742495 2.0888436 0.0625 17.40625 C 0.390625 3.0029297 3 3 24 3 C 45 3 47.609375 3.0029297 47.9375 17.40625 C 47.662575 2.0888436 45.271532 2 24 2 z "
       style="fill:#000000;fill-opacity:1;stroke:none;opacity:0.20000000000000001" />
    <g
       transform="translate(-47.998,993.3622)"
       id="g3813" />
    <g
       transform="translate(-50.335,1008.7072)"
       id="g3038" />
    <g
       transform="translate(-51.97,1003.7612)"
       id="g3041" />
    <g
       transform="translate(-56.532,1001.6102)"
       id="g3026" />
    <g
       transform="translate(-51.613,998.4722)"
       id="g3811" />
    <g
       transform="translate(-56,1004.3622)"
       id="g3073" />
    <g
       transform="translate(-63.962,1002.1302)"
       id="g3043" />
    <g
       id="g3820"
       transform="translate(53.708,998.3202)" />
    <path
       style="fill:#000000;fill-opacity:1;stroke:none;opacity:0.2"
       d="m 27.40216,1019.3625 c -0.485151,0 -1.702278,0.8767 -1.702278,0.8767 0,0 -0.479147,2.5539 -1.692023,3.5639 -1.212876,1.01 -2.666219,4.1102 -2.666219,4.1102 l -0.246113,1.207 -1.579221,5.192 0.605026,1.0703 c 2.910903,-2.626 7.219299,-1.8103 7.219299,-1.8103 l 2.061193,-3.9737 0.543498,0.9336 0.492225,1.0816 -0.666555,-0.4667 -0.666554,0.2618 -0.184585,0.4782 0.235858,0.6718 0.666554,-0.3416 1.035724,0.3416 0.420442,0.5351 2.491889,0.205 0.48197,-1.4119 c 0,0 1.51363,0.069 1.938136,0.1366 0.424506,0.067 1.220835,-0.4053 0.553754,-0.8766 -0.667083,-0.4714 -0.789612,0.068 -0.789612,0.068 l -1.886862,0.068 0.123056,-0.4783 c 0,0 0.482855,-0.336 0.543499,-0.74 0.06064,-0.4041 -0.178751,-0.6738 -0.481971,-0.8084 -0.303219,-0.1348 -0.483739,-0.063 -0.605026,0.2732 -0.121288,0.3366 0.06153,0.6718 0.06153,0.6718 l -0.420442,0.9451 -0.974195,-0.3417 c 0,0 -0.243817,-0.6009 -0.789611,-1.2068 -0.545795,-0.6061 -0.543499,-1.9584 -0.543499,-1.9584 0,0 1.336647,-4.3762 1.579222,-4.6455 0.242575,-0.2694 0.235858,-1.0817 0.235858,-1.0817 0,0 -0.72225,-1.748 -1.025469,-2.152 -0.303219,-0.404 -0.605027,-0.3302 -0.605027,-0.3302 0,0 -3.278319,-0.068 -3.763469,-0.068 z m -5.660587,5.2832 c -0.139607,0.013 -0.293009,0.067 -0.461461,0.1707 -1.125161,0.6925 -1.281836,0.8722 -1.281836,1.3436 0,0.4713 0.307114,1.2791 0.974195,1.5485 l 1.456166,-2.8238 c 0,0 -0.268245,-0.2784 -0.687064,-0.239 z m -2.317559,3.0741 c -0.252225,-0.01 -0.559062,0.081 -0.933177,0.3302 -0.909656,0.606 -1.333109,2.7554 -1.333109,2.7554 0,0 -0.906723,0.5441 -1.035723,0.9451 -0.303219,0.9426 -0.0032,1.4767 0.48197,2.0153 0.485151,0.5387 0.795274,0.8764 1.886862,0.068 l 0.840885,-0.3301 1.281835,-4.1104 -0.369168,-1.2184 c 0,0 -0.265481,-0.4391 -0.820375,-0.4554 z m 6.06052,6.3306 c -2.935022,0.047 -5.301674,2.0039 -5.301674,2.0039 0,0 2.485172,2.2945 2.727747,2.6985 0.242576,0.404 2.310842,0.9461 2.553417,1.0134 0.242575,0.067 1.517694,-0.5465 1.517694,-0.5465 0,0 2.425412,0.8124 2.789274,1.0817 0.363863,0.2693 0.844065,-0.4045 0.358914,-0.8085 -0.48515,-0.404 -0.78961,0 -0.78961,0 l -0.543499,-0.4667 -0.06153,-0.3416 c 0,0 2.9141,-0.4669 3.035387,-0.4669 0.121288,0 0.728083,-1.0133 0.728083,-1.0133 -0.30322,-1.1447 -0.670977,-0.4669 -0.974195,-0.4669 -0.303219,0 -0.420442,0.6035 -0.420442,0.6035 l -0.246113,0.1366 -2.061192,0 c 0,0 0.542614,-0.6058 0.481971,-1.5485 -0.06064,-0.9426 -1.692024,-1.5484 -1.692024,-1.5484 -0.716355,-0.2399 -1.424898,-0.3411 -2.10221,-0.3303 z"
       id="path3816"
       inkscape:connector-curvature="0" />
    <path
       inkscape:connector-curvature="0"
       id="path3045"
       d="m 26.40216,1018.3615 c -0.485151,0 -1.702278,0.8767 -1.702278,0.8767 0,0 -0.479147,2.5539 -1.692023,3.5639 -1.212876,1.01 -2.666219,4.1102 -2.666219,4.1102 l -0.246113,1.207 -1.579221,5.192 0.605026,1.0703 c 2.910903,-2.626 7.219299,-1.8103 7.219299,-1.8103 l 2.061193,-3.9737 0.543498,0.9336 0.492225,1.0816 -0.666555,-0.4667 -0.666554,0.2618 -0.184585,0.4782 0.235858,0.6718 0.666554,-0.3416 1.035724,0.3416 0.420442,0.5351 2.491889,0.205 0.48197,-1.4119 c 0,0 1.51363,0.069 1.938136,0.1366 0.424506,0.067 1.220835,-0.4053 0.553754,-0.8766 -0.667083,-0.4714 -0.789612,0.068 -0.789612,0.068 l -1.886862,0.068 0.123056,-0.4783 c 0,0 0.482855,-0.336 0.543499,-0.74 0.06064,-0.4041 -0.178751,-0.6738 -0.481971,-0.8084 -0.303219,-0.1348 -0.483739,-0.063 -0.605026,0.2732 -0.121288,0.3366 0.06153,0.6718 0.06153,0.6718 l -0.420442,0.9451 -0.974195,-0.3417 c 0,0 -0.243817,-0.6009 -0.789611,-1.2068 -0.545795,-0.6061 -0.543499,-1.9584 -0.543499,-1.9584 0,0 1.336647,-4.3762 1.579222,-4.6455 0.242575,-0.2694 0.235858,-1.0817 0.235858,-1.0817 0,0 -0.72225,-1.748 -1.025469,-2.152 -0.303219,-0.404 -0.605027,-0.3302 -0.605027,-0.3302 0,0 -3.278319,-0.068 -3.763469,-0.068 z m -5.660587,5.2832 c -0.139607,0.013 -0.293009,0.067 -0.461461,0.1707 -1.125161,0.6925 -1.281836,0.8722 -1.281836,1.3436 0,0.4713 0.307114,1.2791 0.974195,1.5485 l 1.456166,-2.8238 c 0,0 -0.268245,-0.2784 -0.687064,-0.239 z m -2.317559,3.0741 c -0.252225,-0.01 -0.559062,0.081 -0.933177,0.3302 -0.909656,0.606 -1.333109,2.7554 -1.333109,2.7554 0,0 -0.906723,0.5441 -1.035723,0.9451 -0.303219,0.9426 -0.0032,1.4767 0.48197,2.0153 0.485151,0.5387 0.795274,0.8764 1.886862,0.068 l 0.840885,-0.3301 1.281835,-4.1104 -0.369168,-1.2184 c 0,0 -0.265481,-0.4391 -0.820375,-0.4554 z m 6.06052,6.3306 c -2.935022,0.047 -5.301674,2.0039 -5.301674,2.0039 0,0 2.485172,2.2945 2.727747,2.6985 0.242576,0.404 2.310842,0.9461 2.553417,1.0134 0.242575,0.067 1.517694,-0.5465 1.517694,-0.5465 0,0 2.425412,0.8124 2.789274,1.0817 0.363863,0.2693 0.844065,-0.4045 0.358914,-0.8085 -0.48515,-0.404 -0.78961,0 -0.78961,0 l -0.543499,-0.4667 -0.06153,-0.3416 c 0,0 2.9141,-0.4669 3.035387,-0.4669 0.121288,0 0.728083,-1.0133 0.728083,-1.0133 -0.30322,-1.1447 -0.670977,-0.4669 -0.974195,-0.4669 -0.303219,0 -0.420442,0.6035 -0.420442,0.6035 l -0.246113,0.1366 -2.061192,0 c 0,0 0.542614,-0.6058 0.481971,-1.5485 -0.06064,-0.9426 -1.692024,-1.5484 -1.692024,-1.5484 -0.716355,-0.2399 -1.424898,-0.3411 -2.10221,-0.3303 z"
       style="fill:#ffffff;fill-opacity:1;stroke:none" />
  </g>
</svg>
