<?xml version="1.0" encoding="UTF-8" standalone="no"?>
<!-- Created with Inkscape (http://www.inkscape.org/) -->

<svg
   xmlns:dc="http://purl.org/dc/elements/1.1/"
   xmlns:cc="http://creativecommons.org/ns#"
   xmlns:rdf="http://www.w3.org/1999/02/22-rdf-syntax-ns#"
   xmlns:svg="http://www.w3.org/2000/svg"
   xmlns="http://www.w3.org/2000/svg"
   xmlns:xlink="http://www.w3.org/1999/xlink"
   xmlns:sodipodi="http://sodipodi.sourceforge.net/DTD/sodipodi-0.dtd"
   xmlns:inkscape="http://www.inkscape.org/namespaces/inkscape"
   width="48"
   height="48"
   id="svg2"
   version="1.1"
   inkscape:version="0.48.4 r9939"
   sodipodi:docname="Battle.net.svg">
  <defs
     id="defs4">
    <linearGradient
       id="linearGradient3827">
      <stop
         style="stop-color:#424242;stop-opacity:1;"
         offset="0"
         id="stop3829" />
      <stop
         style="stop-color:#342a40;stop-opacity:1;"
         offset="1"
         id="stop3831" />
    </linearGradient>
    <linearGradient
       inkscape:collect="always"
       xlink:href="#linearGradient3827"
       id="linearGradient3833"
       x1="24"
       y1="1006.3622"
       x2="24"
       y2="1050.3622"
       gradientUnits="userSpaceOnUse" />
    <clipPath
       id="clipPath-152004889">
      <g
         id="g3010"
         transform="translate(0,-1004.3622)">
        <path
           id="path3012"
           fill="#1890d0"
           transform="matrix(15.333333,0,0,11.5,414.99999,878.8622)"
           d="m -24 13 c 0 1.105 -0.672 2 -1.5 2 -0.828 0 -1.5 -0.895 -1.5 -2 0 -1.105 0.672 -2 1.5 -2 0.828 0 1.5 0.895 1.5 2 z" />
      </g>
    </clipPath>
    <clipPath
       id="clipPath-143113018">
      <g
         id="g3005"
         transform="translate(0,-1004.3622)">
        <path
           id="path3007"
           fill="#1890d0"
           transform="matrix(15.333333,0,0,11.5,414.99999,878.8622)"
           d="m -24 13 c 0 1.105 -0.672 2 -1.5 2 -0.828 0 -1.5 -0.895 -1.5 -2 0 -1.105 0.672 -2 1.5 -2 0.828 0 1.5 0.895 1.5 2 z" />
      </g>
    </clipPath>
    <linearGradient
       gradientUnits="userSpaceOnUse"
       y2="1"
       x2="0"
       y1="47"
       id="linearGradient3764">
      <stop
         id="stop3000"
         stop-opacity="1"
         stop-color="#242c3a" />
      <stop
         id="stop3002"
         stop-opacity="1"
         stop-color="#2c3546"
         offset="1" />
    </linearGradient>
  </defs>
  <sodipodi:namedview
     id="base"
     pagecolor="#ffffff"
     bordercolor="#666666"
     borderopacity="1.0"
     inkscape:pageopacity="0.0"
     inkscape:pageshadow="2"
     inkscape:zoom="8.1906533"
     inkscape:cx="-11.94024"
     inkscape:cy="23.175183"
     inkscape:document-units="px"
     inkscape:current-layer="layer1"
     showgrid="true"
     inkscape:snap-bbox="true"
     inkscape:window-width="1301"
     inkscape:window-height="744"
     inkscape:window-x="65"
     inkscape:window-y="24"
     inkscape:window-maximized="1"
     inkscape:object-nodes="true"
     showguides="true"
     inkscape:guide-bbox="true"
     inkscape:snap-nodes="false"
     inkscape:snap-global="true">
    <inkscape:grid
       type="xygrid"
       id="grid3003"
       empspacing="6"
       visible="true"
       enabled="true"
       snapvisiblegridlinesonly="true" />
  </sodipodi:namedview>
  <metadata
     id="metadata7">
    <rdf:RDF>
      <cc:Work
         rdf:about="">
        <dc:format>image/svg+xml</dc:format>
        <dc:type
           rdf:resource="http://purl.org/dc/dcmitype/StillImage" />
        <dc:title />
      </cc:Work>
    </rdf:RDF>
  </metadata>
  <g
     inkscape:label="Layer 1"
     inkscape:groupmode="layer"
     id="layer1"
     transform="translate(0,-1004.3622)">
    <path
       id="path3788"
       d="m 24,1051.1116 c -21.2715315,0 -23.66257505,-0.089 -23.9375,-15.4063 0.328125,14.4033 2.9375,14.4063 23.9375,14.4063 21,0 23.609375,0 23.9375,-14.4063 -0.274925,15.3174 -2.665968,15.4063 -23.9375,15.4063 z"
       style="opacity:0.20000000000000001;fill:#ffffff;fill-opacity:1;stroke:none"
       inkscape:connector-curvature="0" />
    <path
       style="fill:url(#linearGradient3833);fill-opacity:1;stroke:none"
       d="m 24,1006.3622 c -24,0 -24,0 -24,22 0,22 0,22 24,22 24,0 24,0 24,-22 0,-22 0,-22 -24,-22 z"
       id="path3757"
       inkscape:connector-curvature="0"
       sodipodi:nodetypes="zzzzz" />
    <path
       style="fill:#000000;fill-opacity:1;stroke:none;opacity:0.20000000000000001"
       d="M 24 2 C 2.7284685 2 0.33742495 2.0888436 0.0625 17.40625 C 0.390625 3.0029297 3 3 24 3 C 45 3 47.609375 3.0029297 47.9375 17.40625 C 47.662575 2.0888436 45.271532 2 24 2 z "
       transform="translate(0,1004.3622)"
       id="path3770" />
    <g
       id="g3813"
       transform="translate(-47.998,993.3622)" />
    <g
       id="g3038"
       transform="translate(-50.335,1008.7072)" />
    <g
       id="g3041"
       transform="translate(-51.97,1003.7612)" />
    <g
       id="g3026"
       transform="translate(-56.532,1001.6102)" />
    <g
       id="g3028"
       transform="translate(1,1004.359)">
      <g
         clip-path="url(#clipPath-143113018)"
         id="g3030">
        <g
           transform="translate(1,1)"
           id="g3032">
          <g
             style="opacity:0.1"
             id="g3034">
            <!-- color: #2c3546 -->
            <g
               id="g3036">
              <path
                 style="fill:#000000;fill-opacity:1;fill-rule:nonzero;stroke:none"
                 inkscape:connector-curvature="0"
                 d="m 33.12,13.91 c -0.992,2.637 -2.809,5.449 -4.891,7.93 0,0 0.875,0.625 0.879,0.715 1.98,-2.68 3.512,-5.684 4.01,-8.645 m 0,0"
                 id="path3038" />
              <path
                 style="fill:#000000;fill-opacity:1;fill-rule:nonzero;stroke:none"
                 inkscape:connector-curvature="0"
                 d="m 27.348,36 c -1.805,-2.16 -3.355,-5.129 -4.488,-8.16 0,0 -0.977,0.449 -1.055,0.41 1.355,3.043 3.215,5.859 5.543,7.75 m 0,0"
                 id="path3040" />
              <path
                 style="fill:#000000;fill-opacity:1;fill-rule:nonzero;stroke:none"
                 inkscape:connector-curvature="0"
                 d="m 26.68,18.809 c 6.945,5.691 -3.828,13.758 -5.484,12.699 -0.625,-0.445 0.195,-1.742 0.426,-2.672 -0.875,1.01 -2.309,2.852 -1.508,3.867 2.516,2.875 15.395,-8.938 6.566,-13.895 m 0,0"
                 id="path3042" />
              <path
                 style="fill:#000000;fill-opacity:1;fill-rule:nonzero;stroke:none"
                 inkscape:connector-curvature="0"
                 d="m 26.21,28.15 c -8.441,3.059 -9.844,-10.336 -8.09,-11.215 0.703,-0.309 1.395,1.059 2.074,1.73 -0.414,-1.27 -1.266,-3.445 -2.547,-3.277 -3.75,0.691 -0.211,17.816 8.559,12.762 m 0,0"
                 id="path3044" />
              <path
                 style="fill:#000000;fill-opacity:1;fill-rule:nonzero;stroke:none"
                 inkscape:connector-curvature="0"
                 d="m 18.523,22.867 c 1.645,-8.836 13.891,-3.25 13.754,-1.289 -0.09,0.762 -1.617,0.668 -2.543,0.914 1.305,0.281 3.609,0.656 4.113,-0.539 1.309,-3.586 -15.23,-9.219 -15.324,0.914 m 0,0"
                 id="path3046" />
              <path
                 style="fill:#000000;fill-opacity:1;fill-rule:nonzero;stroke:none"
                 inkscape:connector-curvature="0"
                 d="m 22.406,26.785 c -1.848,-5.539 -2.223,-11.234 -0.141,-12 1.402,-0.43 2.82,2.906 4.363,3.57 -0.449,-1.621 -2.914,-6.574 -5.496,-6.344 -2.816,0.426 -2.578,8.254 0.281,15.266 0,0 1.07,-0.488 0.992,-0.488 m 0,0"
                 id="path3048" />
              <path
                 style="fill:#000000;fill-opacity:1;fill-rule:nonzero;stroke:none"
                 inkscape:connector-curvature="0"
                 d="m 27.535,22.75 c -3.91,4.332 -8.676,7.465 -10.371,6.03 -1.063,-1.01 1.141,-3.891 0.957,-5.559 -1.188,1.188 -4.281,5.77 -2.809,7.91 1.754,2.242 8.445,-1.813 13.13,-7.754 0,0 -0.949,-0.695 -0.91,-0.625 m 0,0"
                 id="path3050" />
              <path
                 style="fill:#000000;fill-opacity:1;fill-rule:nonzero;stroke:none"
                 inkscape:connector-curvature="0"
                 d="m 11,20.18 c 2.77,-0.504 6.113,-0.383 9.305,0.133 0,0 0.09,-1.074 0.164,-1.121 C 17.156,18.864 13.793,19.09 11,20.18 m 0,0"
                 id="path3052" />
              <path
                 style="fill:#000000;fill-opacity:1;fill-rule:nonzero;stroke:none"
                 inkscape:connector-curvature="0"
                 d="m 21.441,20.445 c 5.723,1.133 10.855,3.621 10.492,5.816 -0.324,1.43 -3.922,1.016 -5.258,2.031 1.625,0.41 7.145,0.715 8.223,-1.648 1.023,-2.656 -5.887,-6.324 -13.387,-7.305 0,0 -0.109,1.172 -0.07,1.105 m 0,0"
                 id="path3054" />
            </g>
          </g>
        </g>
      </g>
    </g>
    <g
       id="g3056"
       transform="translate(1,1004.359)">
      <g
         clip-path="url(#clipPath-152004889)"
         id="g3058">
        <!-- color: #2c3546 -->
        <g
           id="g3060">
          <path
             style="fill:#00a2de;fill-opacity:1;fill-rule:nonzero;stroke:none"
             inkscape:connector-curvature="0"
             d="m 33.12,13.91 c -0.992,2.637 -2.809,5.449 -4.891,7.93 0,0 0.875,0.625 0.879,0.715 1.98,-2.68 3.512,-5.684 4.01,-8.645 m 0,0"
             id="path3062" />
          <path
             style="fill:#00a2de;fill-opacity:1;fill-rule:nonzero;stroke:none"
             inkscape:connector-curvature="0"
             d="m 27.348,36 c -1.805,-2.16 -3.355,-5.129 -4.488,-8.16 0,0 -0.977,0.449 -1.055,0.41 1.355,3.043 3.215,5.859 5.543,7.75 m 0,0"
             id="path3064" />
          <path
             style="fill:#00a2de;fill-opacity:1;fill-rule:nonzero;stroke:none"
             inkscape:connector-curvature="0"
             d="m 26.68,18.809 c 6.945,5.691 -3.828,13.758 -5.484,12.699 -0.625,-0.445 0.195,-1.742 0.426,-2.672 -0.875,1.01 -2.309,2.852 -1.508,3.867 2.516,2.875 15.395,-8.938 6.566,-13.895 m 0,0"
             id="path3066" />
          <path
             style="fill:#00a2de;fill-opacity:1;fill-rule:nonzero;stroke:none"
             inkscape:connector-curvature="0"
             d="m 26.21,28.15 c -8.441,3.059 -9.844,-10.336 -8.09,-11.215 0.703,-0.309 1.395,1.059 2.074,1.73 -0.414,-1.27 -1.266,-3.445 -2.547,-3.277 -3.75,0.691 -0.211,17.816 8.559,12.762 m 0,0"
             id="path3068" />
          <path
             style="fill:#00a2de;fill-opacity:1;fill-rule:nonzero;stroke:none"
             inkscape:connector-curvature="0"
             d="m 18.523,22.867 c 1.645,-8.836 13.891,-3.25 13.754,-1.289 -0.09,0.762 -1.617,0.668 -2.543,0.914 1.305,0.281 3.609,0.656 4.113,-0.539 1.309,-3.586 -15.23,-9.219 -15.324,0.914 m 0,0"
             id="path3070" />
          <path
             style="fill:#00a2de;fill-opacity:1;fill-rule:nonzero;stroke:none"
             inkscape:connector-curvature="0"
             d="m 22.406,26.785 c -1.848,-5.539 -2.223,-11.234 -0.141,-12 1.402,-0.43 2.82,2.906 4.363,3.57 -0.449,-1.621 -2.914,-6.574 -5.496,-6.344 -2.816,0.426 -2.578,8.254 0.281,15.266 0,0 1.07,-0.488 0.992,-0.488 m 0,0"
             id="path3072" />
          <path
             style="fill:#00a2de;fill-opacity:1;fill-rule:nonzero;stroke:none"
             inkscape:connector-curvature="0"
             d="m 27.535,22.75 c -3.91,4.332 -8.676,7.465 -10.371,6.03 -1.063,-1.01 1.141,-3.891 0.957,-5.559 -1.188,1.188 -4.281,5.77 -2.809,7.91 1.754,2.242 8.445,-1.813 13.13,-7.754 0,0 -0.949,-0.695 -0.91,-0.625 m 0,0"
             id="path3074" />
          <path
             style="fill:#00a2de;fill-opacity:1;fill-rule:nonzero;stroke:none"
             inkscape:connector-curvature="0"
             d="m 11,20.18 c 2.77,-0.504 6.113,-0.383 9.305,0.133 0,0 0.09,-1.074 0.164,-1.121 C 17.156,18.864 13.793,19.09 11,20.18 m 0,0"
             id="path3076" />
          <path
             style="fill:#00a2de;fill-opacity:1;fill-rule:nonzero;stroke:none"
             inkscape:connector-curvature="0"
             d="m 21.441,20.445 c 5.723,1.133 10.855,3.621 10.492,5.816 -0.324,1.43 -3.922,1.016 -5.258,2.031 1.625,0.41 7.145,0.715 8.223,-1.648 1.023,-2.656 -5.887,-6.324 -13.387,-7.305 0,0 -0.109,1.172 -0.07,1.105 m 0,0"
             id="path3078" />
        </g>
      </g>
    </g>
  </g>
</svg>
