<?xml version="1.0" encoding="UTF-8" standalone="no"?>
<!-- Created with Inkscape (http://www.inkscape.org/) -->

<svg
   xmlns:dc="http://purl.org/dc/elements/1.1/"
   xmlns:cc="http://creativecommons.org/ns#"
   xmlns:rdf="http://www.w3.org/1999/02/22-rdf-syntax-ns#"
   xmlns:svg="http://www.w3.org/2000/svg"
   xmlns="http://www.w3.org/2000/svg"
   xmlns:xlink="http://www.w3.org/1999/xlink"
   xmlns:sodipodi="http://sodipodi.sourceforge.net/DTD/sodipodi-0.dtd"
   xmlns:inkscape="http://www.inkscape.org/namespaces/inkscape"
   width="48"
   height="48"
   id="svg2"
   version="1.1"
   inkscape:version="0.48.4 r9939"
   sodipodi:docname="bitcoin-qt.svg">
  <defs
     id="defs4">
    <linearGradient
       id="linearGradient3779">
      <stop
         style="stop-color:#000000;stop-opacity:1;"
         offset="0"
         id="stop3781" />
      <stop
         style="stop-color:#ffffff;stop-opacity:1;"
         offset="1"
         id="stop3783" />
    </linearGradient>
    <linearGradient
       inkscape:collect="always"
       xlink:href="#linearGradient3779"
       id="linearGradient3783"
       gradientUnits="userSpaceOnUse"
       gradientTransform="translate(-40,0)"
       spreadMethod="repeat"
       x1="24"
       y1="1028.3622"
       x2="45"
       y2="1007.3622" />
    <linearGradient
       inkscape:collect="always"
       xlink:href="#linearGradient3779"
       id="linearGradient3785"
       gradientUnits="userSpaceOnUse"
       gradientTransform="translate(-40,0)"
       spreadMethod="repeat"
       x1="44"
       y1="1048.3622"
       x2="15"
       y2="1019.3622" />
    <linearGradient
       gradientTransform="matrix(0,-1,1,0,-1.5e-6,47.999998)"
       gradientUnits="userSpaceOnUse"
       x2="47"
       x1="1"
       id="linearGradient3764">
      <stop
         id="stop3008"
         stop-opacity="1"
         stop-color="#ec9b28" />
      <stop
         id="stop3010"
         stop-opacity="1"
         stop-color="#eea53a"
         offset="1" />
    </linearGradient>
    <linearGradient
       inkscape:collect="always"
       xlink:href="#linearGradient3764"
       id="linearGradient3122"
       gradientUnits="userSpaceOnUse"
       gradientTransform="matrix(0,-1,1,0,-1.5e-6,47.999998)"
       x1="1"
       x2="47" />
    <linearGradient
       inkscape:collect="always"
       xlink:href="#linearGradient3764"
       id="linearGradient3125"
       gradientUnits="userSpaceOnUse"
       gradientTransform="matrix(0,-1,1,0,-48.000002,1055.3622)"
       x1="1"
       x2="47" />
  </defs>
  <sodipodi:namedview
     id="base"
     pagecolor="#ffffff"
     bordercolor="#666666"
     borderopacity="1.0"
     inkscape:pageopacity="0.0"
     inkscape:pageshadow="2"
     inkscape:zoom="11.583333"
     inkscape:cx="31.203179"
     inkscape:cy="22.522918"
     inkscape:document-units="px"
     inkscape:current-layer="layer1"
     showgrid="true"
     inkscape:snap-bbox="true"
     inkscape:window-width="1301"
     inkscape:window-height="744"
     inkscape:window-x="65"
     inkscape:window-y="24"
     inkscape:window-maximized="1"
     inkscape:object-nodes="true">
    <inkscape:grid
       type="xygrid"
       id="grid3003"
       empspacing="6"
       visible="true"
       enabled="true"
       snapvisiblegridlinesonly="true" />
  </sodipodi:namedview>
  <metadata
     id="metadata7">
    <rdf:RDF>
      <cc:Work
         rdf:about="">
        <dc:format>image/svg+xml</dc:format>
        <dc:type
           rdf:resource="http://purl.org/dc/dcmitype/StillImage" />
        <dc:title />
      </cc:Work>
    </rdf:RDF>
  </metadata>
  <g
     inkscape:label="Layer 1"
     inkscape:groupmode="layer"
     id="layer1"
     transform="translate(0,-1004.3622)">
    <path
       id="path3788"
       d="m 24,1051.1116 c -21.2715315,0 -23.66257505,-0.089 -23.9375,-15.4063 0.328125,14.4033 2.9375,14.4063 23.9375,14.4063 21,0 23.609375,0 23.9375,-14.4063 -0.274925,15.3174 -2.665968,15.4063 -23.9375,15.4063 z"
       style="opacity:0.20000000000000001;fill:#ffffff;fill-opacity:1;stroke:none"
       inkscape:connector-curvature="0" />
    <path
       style="fill:#ef6c00;fill-opacity:1;stroke:none"
       d="m 24,1006.3622 c -24,0 -24,0 -24,22 0,22 0,22 24,22 24,0 24,0 24,-22 0,-22 0,-22 -24,-22 z"
       id="path3757"
       inkscape:connector-curvature="0"
       sodipodi:nodetypes="zzzzz" />
    <g
       id="g3779"
       transform="translate(40,0)">
      <path
         style="opacity:0.05;fill:url(#linearGradient3783);fill-opacity:1;stroke:none"
         d="m -16,1006.3622 c -24,0 -24,0 -24,22 0,22 0,22 24,22 24,0 24,0 24,-22 0,-22 0,-22 -24,-22 z"
         id="path3777"
         inkscape:connector-curvature="0"
         sodipodi:nodetypes="zzzzz" />
      <path
         sodipodi:nodetypes="zzzzz"
         inkscape:connector-curvature="0"
         id="path3787"
         d="m -16,1006.3622 c -24,0 -24,0 -24,22 0,22 0,22 24,22 24,0 24,0 24,-22 0,-22 0,-22 -24,-22 z"
         style="opacity:0.05;fill:url(#linearGradient3785);fill-opacity:1;stroke:none" />
    </g>
    <path
       style="fill:#000000;fill-opacity:1;stroke:none;opacity:0.20000000000000001"
       d="M 24 2 C 2.7284685 2 0.33742495 2.0888436 0.0625 17.40625 C 0.390625 3.0029297 3 3 24 3 C 45 3 47.609375 3.0029297 47.9375 17.40625 C 47.662575 2.0888436 45.271532 2 24 2 z "
       transform="translate(0,1004.3622)"
       id="path3770" />
    <g
       id="g3813"
       transform="translate(-47.998,993.3622)" />
    <g
       transform="translate(2.002,1005.3632)"
       id="g3040">
      <g
         style="opacity:0.1"
         id="g3042">
        <!-- color: #eea53a -->
        <g
           id="g3044">
          <path
             style="fill:#000000;fill-opacity:1;fill-rule:nonzero;stroke:none"
             inkscape:connector-curvature="0"
             d="M 29.668,23.11 C 31,22.454 31.836,21.305 31.641,19.387 31.379,16.766 28.965,16.25 26,16 l 0,-4 -2,0 0,4 c -0.605,0 -1.387,0.012 -2,0.023 l 0,-4.02 -2,0 0,4 c -1.676,0 -3.504,-0.016 -5,-0.016 l 0,2.02 c 0,0 1.695,-0.031 1.668,0 0.93,0 1.246,0.52 1.332,0.969 l 0,9.961 c -0.039,0.281 -0.348,1.066 -1,1.066 0.031,0.023 -1,0 -1,0 l -1,2 2.988,-0.012 c 0.559,0 1.473,0.008 2.01,0.012 l 0,4 2,0 0,-4.02 c 0.641,0.012 1.406,0.016 2,0.016 l 0,4 2,0 0,-4 c 3.863,-0.215 6.637,-0.82 6.973,-4.316 0.27,-2.813 -1.105,-4.07 -3.293,-4.574 m -7.68,-4.945 c 1.305,0 5.355,-0.398 5.355,2.211 0,2.5 -4.059,2.207 -5.355,2.207 m 0,7.102 0,-4.871 c 1.566,0 6.434,-0.43 6.434,2.438 0,2.746 -4.867,2.434 -6.434,2.434 m 0,0"
             id="path3046" />
        </g>
      </g>
    </g>
    <g
       id="g3052"
       transform="translate(1.002,1004.3632)">
      <path
         style="fill:#f9f9f9;fill-opacity:1;fill-rule:nonzero;stroke:none"
         inkscape:connector-curvature="0"
         d="M 29.668,23.11 C 31,22.454 31.836,21.305 31.641,19.387 31.379,16.766 28.965,16.25 26,16 l 0,-4 -2,0 0,4 c -0.605,0 -1.387,0.012 -2,0.023 l 0,-4.02 -2,0 0,4 c -1.676,0 -3.504,-0.016 -5,-0.016 l 0,2.02 c 0,0 1.695,-0.031 1.668,0 0.93,0 1.246,0.52 1.332,0.969 l 0,9.961 c -0.039,0.281 -0.348,1.066 -1,1.066 0.031,0.023 -1,0 -1,0 l -1,2 2.988,-0.012 c 0.559,0 1.473,0.008 2.01,0.012 l 0,4 2,0 0,-4.02 c 0.641,0.012 1.406,0.016 2,0.016 l 0,4 2,0 0,-4 c 3.863,-0.215 6.637,-0.82 6.973,-4.316 0.27,-2.813 -1.105,-4.07 -3.293,-4.574 m -7.68,-4.945 c 1.305,0 5.355,-0.398 5.355,2.211 0,2.5 -4.059,2.207 -5.355,2.207 m 0,7.102 0,-4.871 c 1.566,0 6.434,-0.43 6.434,2.438 0,2.746 -4.867,2.434 -6.434,2.434 m 0,0"
         id="path3054" />
    </g>
  </g>
</svg>
