<?xml version="1.0" encoding="UTF-8" standalone="no"?>
<!-- Created with Inkscape (http://www.inkscape.org/) -->

<svg
   xmlns:dc="http://purl.org/dc/elements/1.1/"
   xmlns:cc="http://creativecommons.org/ns#"
   xmlns:rdf="http://www.w3.org/1999/02/22-rdf-syntax-ns#"
   xmlns:svg="http://www.w3.org/2000/svg"
   xmlns="http://www.w3.org/2000/svg"
   xmlns:xlink="http://www.w3.org/1999/xlink"
   xmlns:sodipodi="http://sodipodi.sourceforge.net/DTD/sodipodi-0.dtd"
   xmlns:inkscape="http://www.inkscape.org/namespaces/inkscape"
   width="48"
   height="48"
   id="svg2"
   version="1.1"
   inkscape:version="0.48.4 r9939"
   sodipodi:docname="computerjanitor.svg">
  <defs
     id="defs4">
    <linearGradient
       id="linearGradient3787">
      <stop
         style="stop-color:#e9e9e9;stop-opacity:1;"
         offset="0"
         id="stop3789" />
      <stop
         style="stop-color:#ffffff;stop-opacity:1;"
         offset="1"
         id="stop3791" />
    </linearGradient>
    <linearGradient
       id="linearGradient3763">
      <stop
         style="stop-color:#000000;stop-opacity:1;"
         offset="0"
         id="stop3765" />
      <stop
         style="stop-color:#ffffff;stop-opacity:1;"
         offset="1"
         id="stop3767" />
    </linearGradient>
    <linearGradient
       inkscape:collect="always"
       xlink:href="#linearGradient3763"
       id="linearGradient3989"
       gradientUnits="userSpaceOnUse"
       gradientTransform="translate(-40,0)"
       spreadMethod="repeat"
       x1="24"
       y1="1028.3622"
       x2="45"
       y2="1007.3622" />
    <linearGradient
       inkscape:collect="always"
       xlink:href="#linearGradient3763"
       id="linearGradient3991"
       gradientUnits="userSpaceOnUse"
       gradientTransform="translate(-40,0)"
       spreadMethod="repeat"
       x1="45"
       y1="1049.3622"
       x2="18"
       y2="1022.3622" />
    <linearGradient
       inkscape:collect="always"
       xlink:href="#linearGradient3787"
       id="linearGradient3793"
       x1="24"
       y1="1050.3622"
       x2="24"
       y2="1006.3622"
       gradientUnits="userSpaceOnUse" />
    <linearGradient
       gradientTransform="matrix(0,-1,1,0,-1.5e-6,47.999998)"
       gradientUnits="userSpaceOnUse"
       x2="47"
       x1="1"
       id="linearGradient3764">
      <stop
         id="stop3019"
         stop-opacity="1"
         stop-color="#e4e4e4" />
      <stop
         id="stop3021"
         stop-opacity="1"
         stop-color="#eee"
         offset="1" />
    </linearGradient>
    <linearGradient
       inkscape:collect="always"
       xlink:href="#linearGradient3764"
       id="linearGradient3153"
       gradientUnits="userSpaceOnUse"
       gradientTransform="matrix(0,-1,1,0,-1.5e-6,47.999998)"
       x1="1"
       x2="47" />
    <linearGradient
       inkscape:collect="always"
       xlink:href="#linearGradient3764"
       id="linearGradient3156"
       gradientUnits="userSpaceOnUse"
       gradientTransform="matrix(0,-1,1,0,-52.000002,1055.3622)"
       x1="1"
       x2="47" />
  </defs>
  <sodipodi:namedview
     id="base"
     pagecolor="#ffffff"
     bordercolor="#666666"
     borderopacity="1.0"
     inkscape:pageopacity="0.0"
     inkscape:pageshadow="2"
     inkscape:zoom="11.583333"
     inkscape:cx="18.629753"
     inkscape:cy="21.786248"
     inkscape:document-units="px"
     inkscape:current-layer="layer1"
     showgrid="true"
     inkscape:snap-bbox="true"
     inkscape:window-width="1301"
     inkscape:window-height="744"
     inkscape:window-x="65"
     inkscape:window-y="24"
     inkscape:window-maximized="1"
     inkscape:object-nodes="false"
     inkscape:snap-nodes="true"
     showguides="true"
     inkscape:guide-bbox="true">
    <inkscape:grid
       type="xygrid"
       id="grid3005"
       empspacing="6"
       visible="true"
       enabled="true"
       snapvisiblegridlinesonly="true" />
  </sodipodi:namedview>
  <metadata
     id="metadata7">
    <rdf:RDF>
      <cc:Work
         rdf:about="">
        <dc:format>image/svg+xml</dc:format>
        <dc:type
           rdf:resource="http://purl.org/dc/dcmitype/StillImage" />
        <dc:title />
      </cc:Work>
    </rdf:RDF>
  </metadata>
  <g
     inkscape:label="Layer 1"
     inkscape:groupmode="layer"
     id="layer1"
     transform="translate(0,-1004.3622)">
    <path
       id="path3788"
       d="m 24,1051.1116 c -21.2715315,0 -23.66257505,-0.089 -23.9375,-15.4063 0.328125,14.4033 2.9375,14.4063 23.9375,14.4063 21,0 23.609375,0 23.9375,-14.4063 -0.274925,15.3174 -2.665968,15.4063 -23.9375,15.4063 z"
       style="opacity:0.20000000000000001;fill:#ffffff;fill-opacity:1;stroke:none"
       inkscape:connector-curvature="0" />
    <path
       style="fill:url(#linearGradient3793);fill-opacity:1;stroke:none"
       d="m 24,1006.3622 c -24,0 -24,0 -24,22 0,22 0,22 24,22 24,0 24,0 24,-22 0,-22 0,-22 -24,-22 z"
       id="path3757"
       inkscape:connector-curvature="0"
       sodipodi:nodetypes="zzzzz" />
    <g
       id="g3969"
       transform="translate(40,0)">
      <path
         style="opacity:0.02000002;fill:url(#linearGradient3989);fill-opacity:1;stroke:none"
         d="m -16,1006.3622 c -24,0 -24,0 -24,22 0,22 0,22 24,22 24,0 24,0 24,-22 0,-22 0,-22 -24,-22 z"
         id="path3783"
         inkscape:connector-curvature="0"
         sodipodi:nodetypes="zzzzz" />
      <path
         sodipodi:nodetypes="zzzzz"
         inkscape:connector-curvature="0"
         id="path3795"
         d="m -16,1006.3622 c -24,0 -24,0 -24,22 0,22 0,22 24,22 24,0 24,0 24,-22 0,-22 0,-22 -24,-22 z"
         style="opacity:0.02000002;fill:url(#linearGradient3991);fill-opacity:1;stroke:none" />
    </g>
    <path
       style="fill:#000000;fill-opacity:1;stroke:none;opacity:0.20000000000000001"
       d="M 24 2 C 2.7284685 2 0.33742495 2.0888436 0.0625 17.40625 C 0.390625 3.0029297 3 3 24 3 C 45 3 47.609375 3.0029297 47.9375 17.40625 C 47.662575 2.0888436 45.271532 2 24 2 z "
       transform="translate(0,1004.3622)"
       id="path3770" />
    <g
       id="g3037"
       transform="translate(-46.998,1004.3622)" />
    <g
       id="g3808"
       transform="translate(-52.998,1013.3622)" />
    <g
       transform="translate(1.9334958,1.9865655)"
       id="g3248"
       style="opacity:0.2;fill:#000000;fill-opacity:1">
      <g
         id="g3250"
         inkscape:transform-center-x="6"
         inkscape:transform-center-y="4"
         style="fill:#000000;fill-opacity:1">
        <path
           transform="translate(0,1004.3622)"
           id="path3252"
           d="m 17,27 -4.5,0 3.125,5.09375 0.4375,0.71875 L 16.1875,33 23,33 l 0,-6 -6,0 z"
           style="fill:#000000;fill-opacity:1;fill-rule:nonzero;stroke:none"
           inkscape:connector-curvature="0" />
        <path
           transform="translate(0,1004.3622)"
           id="path3254"
           d="M 11.4375,21 12.71875,21.71875 11,24.53125 12.5,27 l 4.5,0 1.1875,-1.5625 1.875,0 L 17.34375,21 11.4375,21 z"
           style="fill:#000000;fill-opacity:1;fill-rule:nonzero;stroke:none"
           inkscape:connector-curvature="0" />
      </g>
      <g
         inkscape:transform-center-y="3.0067251"
         inkscape:transform-center-x="-6.5812893"
         id="g3256"
         transform="matrix(-0.5,-0.8660254,0.8660254,-0.5,-855.22176,1560.9619)"
         style="fill:#000000;fill-opacity:1">
        <path
           inkscape:connector-curvature="0"
           style="fill:#000000;fill-opacity:1;fill-rule:nonzero;stroke:none"
           d="m 17,27 -4.5,0 3.125,5.09375 0.4375,0.71875 L 16.1875,33 23,33 l 0,-6 -6,0 z"
           id="path3258"
           transform="translate(0,1004.3622)" />
        <path
           inkscape:connector-curvature="0"
           style="fill:#000000;fill-opacity:1;fill-rule:nonzero;stroke:none"
           d="M 11.4375,21 12.71875,21.71875 11,24.53125 12.5,27 l 4.5,0 1.1875,-1.5625 1.875,0 L 17.34375,21 11.4375,21 z"
           id="path3260"
           transform="translate(0,1004.3622)" />
      </g>
      <g
         transform="matrix(-0.5,0.8660254,-0.8660254,-0.5,924.22178,1521.1247)"
         id="g3262"
         inkscape:transform-center-x="0.5734568"
         inkscape:transform-center-y="-6.5789807"
         style="fill:#000000;fill-opacity:1">
        <path
           transform="translate(0,1004.3622)"
           id="path3264"
           d="m 17,27 -4.5,0 3.125,5.09375 0.4375,0.71875 L 16.1875,33 23,33 l 0,-6 -6,0 z"
           style="fill:#000000;fill-opacity:1;fill-rule:nonzero;stroke:none"
           inkscape:connector-curvature="0" />
        <path
           transform="translate(0,1004.3622)"
           id="path3266"
           d="M 11.4375,21 12.71875,21.71875 11,24.53125 12.5,27 l 4.5,0 1.1875,-1.5625 1.875,0 L 17.34375,21 11.4375,21 z"
           style="fill:#000000;fill-opacity:1;fill-rule:nonzero;stroke:none"
           inkscape:connector-curvature="0" />
      </g>
    </g>
    <g
       id="g3237"
       transform="translate(0.9334958,0.98656551)">
      <g
         inkscape:transform-center-y="4"
         inkscape:transform-center-x="6"
         id="g3191">
        <path
           inkscape:connector-curvature="0"
           style="fill:#ef5350;fill-opacity:1;fill-rule:nonzero;stroke:none"
           d="m 17,27 -4.5,0 3.125,5.09375 0.4375,0.71875 L 16.1875,33 23,33 l 0,-6 -6,0 z"
           id="path3189"
           transform="translate(0,1004.3622)" />
        <path
           inkscape:connector-curvature="0"
           style="fill:#b71c1c;fill-opacity:1;fill-rule:nonzero;stroke:none"
           d="M 11.4375,21 12.71875,21.71875 11,24.53125 12.5,27 l 4.5,0 1.1875,-1.5625 1.875,0 L 17.34375,21 11.4375,21 z"
           id="path3069"
           transform="translate(0,1004.3622)" />
      </g>
      <g
         transform="matrix(-0.5,-0.8660254,0.8660254,-0.5,-855.22176,1560.9619)"
         id="g3225"
         inkscape:transform-center-x="-6.5812893"
         inkscape:transform-center-y="3.0067251">
        <path
           transform="translate(0,1004.3622)"
           id="path3227"
           d="m 17,27 -4.5,0 3.125,5.09375 0.4375,0.71875 L 16.1875,33 23,33 l 0,-6 -6,0 z"
           style="fill:#ef5350;fill-opacity:1;fill-rule:nonzero;stroke:none"
           inkscape:connector-curvature="0" />
        <path
           transform="translate(0,1004.3622)"
           id="path3229"
           d="M 11.4375,21 12.71875,21.71875 11,24.53125 12.5,27 l 4.5,0 1.1875,-1.5625 1.875,0 L 17.34375,21 11.4375,21 z"
           style="fill:#b71c1c;fill-opacity:1;fill-rule:nonzero;stroke:none"
           inkscape:connector-curvature="0" />
      </g>
      <g
         inkscape:transform-center-y="-6.5789807"
         inkscape:transform-center-x="0.5734568"
         id="g3231"
         transform="matrix(-0.5,0.8660254,-0.8660254,-0.5,924.22178,1521.1247)">
        <path
           inkscape:connector-curvature="0"
           style="fill:#ef5350;fill-opacity:1;fill-rule:nonzero;stroke:none"
           d="m 17,27 -4.5,0 3.125,5.09375 0.4375,0.71875 L 16.1875,33 23,33 l 0,-6 -6,0 z"
           id="path3233"
           transform="translate(0,1004.3622)" />
        <path
           inkscape:connector-curvature="0"
           style="fill:#b71c1c;fill-opacity:1;fill-rule:nonzero;stroke:none"
           d="M 11.4375,21 12.71875,21.71875 11,24.53125 12.5,27 l 4.5,0 1.1875,-1.5625 1.875,0 L 17.34375,21 11.4375,21 z"
           id="path3235"
           transform="translate(0,1004.3622)" />
      </g>
    </g>
  </g>
</svg>
