<?xml version="1.0" encoding="UTF-8" standalone="no"?>
<!-- Created with Inkscape (http://www.inkscape.org/) -->

<svg
   xmlns:dc="http://purl.org/dc/elements/1.1/"
   xmlns:cc="http://creativecommons.org/ns#"
   xmlns:rdf="http://www.w3.org/1999/02/22-rdf-syntax-ns#"
   xmlns:svg="http://www.w3.org/2000/svg"
   xmlns="http://www.w3.org/2000/svg"
   xmlns:xlink="http://www.w3.org/1999/xlink"
   xmlns:sodipodi="http://sodipodi.sourceforge.net/DTD/sodipodi-0.dtd"
   xmlns:inkscape="http://www.inkscape.org/namespaces/inkscape"
   width="48"
   height="48"
   id="svg2"
   version="1.1"
   inkscape:version="0.48.4 r9939"
   sodipodi:docname="blender.svg">
  <defs
     id="defs4">
    <linearGradient
       id="linearGradient3925">
      <stop
         style="stop-color:#497eaa;stop-opacity:1;"
         offset="0"
         id="stop3927" />
      <stop
         style="stop-color:#4989aa;stop-opacity:1;"
         offset="1"
         id="stop3929" />
    </linearGradient>
    <clipPath
       id="clipPath-409983509">
      <g
         id="g3030"
         transform="translate(0,-1004.3622)">
        <path
           id="path3032"
           fill="#1890d0"
           transform="matrix(15.333333,0,0,11.5,414.99999,878.8622)"
           d="m -24 13 c 0 1.105 -0.672 2 -1.5 2 -0.828 0 -1.5 -0.895 -1.5 -2 0 -1.105 0.672 -2 1.5 -2 0.828 0 1.5 0.895 1.5 2 z" />
      </g>
    </clipPath>
    <linearGradient
       gradientTransform="scale(3.543307,3.543307)"
       y2="3.03"
       x2="7.771"
       y1="10.169"
       x1="7.823"
       gradientUnits="userSpaceOnUse"
       id="linear0">
      <stop
         id="stop3027"
         stop-opacity="1"
         stop-color="#f48537" />
      <stop
         id="stop3029"
         stop-opacity="1"
         stop-color="#fbb270"
         offset="1" />
    </linearGradient>
    <linearGradient
       gradientTransform="matrix(0,-1,1,0,-1.5e-6,47.999998)"
       gradientUnits="userSpaceOnUse"
       x2="47"
       x1="1"
       id="linearGradient3764">
      <stop
         id="stop3012"
         stop-opacity="1"
         stop-color="#487ca8" />
      <stop
         id="stop3014"
         stop-opacity="1"
         stop-color="#5086b4"
         offset="1" />
    </linearGradient>
    <linearGradient
       inkscape:collect="always"
       xlink:href="#linear0"
       id="linearGradient3150"
       gradientUnits="userSpaceOnUse"
       gradientTransform="scale(3.543307,3.543307)"
       x1="7.823"
       y1="10.169"
       x2="7.771"
       y2="3.03" />
    <linearGradient
       inkscape:collect="always"
       xlink:href="#linearGradient3925"
       id="linearGradient3931"
       x1="24"
       y1="1050.3622"
       x2="24"
       y2="1006.3622"
       gradientUnits="userSpaceOnUse" />
  </defs>
  <sodipodi:namedview
     id="base"
     pagecolor="#ffffff"
     bordercolor="#666666"
     borderopacity="1.0"
     inkscape:pageopacity="0.0"
     inkscape:pageshadow="2"
     inkscape:zoom="9.1441763"
     inkscape:cx="-18.275574"
     inkscape:cy="30.86619"
     inkscape:document-units="px"
     inkscape:current-layer="layer1"
     showgrid="true"
     inkscape:snap-bbox="true"
     inkscape:window-width="1301"
     inkscape:window-height="744"
     inkscape:window-x="65"
     inkscape:window-y="24"
     inkscape:window-maximized="1"
     inkscape:object-nodes="true"
     inkscape:snap-nodes="false">
    <inkscape:grid
       type="xygrid"
       id="grid3003"
       empspacing="6"
       visible="true"
       enabled="true"
       snapvisiblegridlinesonly="true" />
  </sodipodi:namedview>
  <metadata
     id="metadata7">
    <rdf:RDF>
      <cc:Work
         rdf:about="">
        <dc:format>image/svg+xml</dc:format>
        <dc:type
           rdf:resource="http://purl.org/dc/dcmitype/StillImage" />
        <dc:title />
      </cc:Work>
    </rdf:RDF>
  </metadata>
  <g
     inkscape:label="Layer 1"
     inkscape:groupmode="layer"
     id="layer1"
     transform="translate(0,-1004.3622)">
    <path
       id="path3788"
       d="m 24,1051.1116 c -21.2715315,0 -23.66257505,-0.089 -23.9375,-15.4063 0.328125,14.4033 2.9375,14.4063 23.9375,14.4063 21,0 23.609375,0 23.9375,-14.4063 -0.274925,15.3174 -2.665968,15.4063 -23.9375,15.4063 z"
       style="opacity:0.20000000000000001;fill:#ffffff;fill-opacity:1;stroke:none"
       inkscape:connector-curvature="0" />
    <path
       style="fill:url(#linearGradient3931);fill-opacity:1;stroke:none"
       d="m 24,1006.3622 c -24,0 -24,0 -24,22 0,22 0,22 24,22 24,0 24,0 24,-22 0,-22 0,-22 -24,-22 z"
       id="path3757"
       inkscape:connector-curvature="0"
       sodipodi:nodetypes="zzzzz" />
    <g
       id="g3813"
       transform="translate(-47.998,993.3622)" />
    <path
       style="fill:#000000;fill-opacity:1;stroke:none;opacity:0.20000000000000001"
       d="M 24 2 C 2.7284685 2 0.33742495 2.0888436 0.0625 17.40625 C 0.390625 3.0029297 3 3 24 3 C 45 3 47.609375 3.0029297 47.9375 17.40625 C 47.662575 2.0888436 45.271532 2 24 2 z "
       transform="translate(0,1004.3622)"
       id="path3770" />
    <g
       id="g3057"
       transform="translate(-49.355,995.0622)" />
    <g
       id="g3062"
       transform="translate(-55.998,1000.3622)" />
    <g
       id="g3064"
       transform="translate(6.5246093e-4,1004.3652)">
      <g
         clip-path="url(#clipPath-409983509)"
         id="g3066">
        <g
           transform="translate(1,1)"
           id="g3068">
          <g
             style="opacity:0.1"
             id="g3070">
            <!-- color: #5086b4 -->
            <g
               id="g3072">
              <path
                 style="fill:#000000;fill-opacity:1;fill-rule:nonzero;stroke:none"
                 inkscape:connector-curvature="0"
                 d="m 35.641,26.898 c 0.051,2.891 -1.461,5.586 -3.957,7.04 -2.496,1.461 -5.586,1.461 -8.08,0 -2.496,-1.457 -4.01,-4.152 -3.961,-7.04 -0.047,-2.891 1.465,-5.582 3.961,-7.04 2.496,-1.457 5.586,-1.457 8.08,0 2.496,1.461 4.01,4.152 3.957,7.04 m 0,0"
                 id="path3074" />
              <path
                 style="fill:#000000;fill-rule:evenodd;stroke:none"
                 inkscape:connector-curvature="0"
                 d="m 24.684,12 c -0.43,0 -0.867,0.16 -1.227,0.449 -0.363,0.285 -0.598,0.664 -0.633,1.109 -0.027,0.449 0.141,0.902 0.473,1.211 l 0,0.031 c 0.785,0.699 1.598,1.418 2.391,2.133 l -8.867,0 c -0.633,0 -1.164,0.148 -1.574,0.477 -0.406,0.332 -0.668,0.824 -0.754,1.371 -0.172,1.07 0.578,2.289 1.793,2.289 l 3.871,0 -8.09,6.75 c 0,0 -0.004,-0.02 -0.031,0 -0.492,0.426 -0.844,1.02 -0.973,1.621 -0.133,0.605 -0.066,1.242 0.281,1.75 0.715,1.031 2.148,1 3.148,0.098 l 4.246,-3.918 c 0.004,0.457 0.113,1.172 0.281,1.785 0.348,1.254 0.941,2.418 1.762,3.434 0.84,1.047 1.863,1.891 3.051,2.484 1.25,0.625 2.594,0.926 3.992,0.926 1.402,0 2.746,-0.324 3.996,-0.957 1.184,-0.598 2.242,-1.434 3.082,-2.484 0.813,-1.02 1.379,-2.184 1.727,-3.438 0.18,-0.633 0.301,-1.293 0.348,-1.941 0.043,-0.637 0.02,-1.273 -0.063,-1.91 -0.156,-1.238 -0.516,-2.406 -1.102,-3.469 -0.457,-0.828 -1.066,-1.551 -1.73,-2.195 l 0.031,-0.031 -0.348,-0.289 -7.859,-6.809 c 0,0 -0.031,-0.027 -0.035,-0.031 0,0 -0.027,0 -0.031,0 -0.34,-0.293 -0.738,-0.449 -1.16,-0.449 m 3.051,7.164 c 4.063,0 7.359,3.332 7.359,7.445 0,4.113 -3.297,7.449 -7.359,7.449 -4.066,0 -7.359,-3.336 -7.359,-7.449 0,-4.113 3.293,-7.445 7.359,-7.445 m 0,0"
                 id="path3076" />
              <path
                 style="fill:#000000;fill-opacity:1;fill-rule:nonzero;stroke:none"
                 inkscape:connector-curvature="0"
                 d="m 31.648,26.602 c 0,2.238 -1.789,4.051 -4,4.051 -2.207,0 -4,-1.813 -4,-4.051 0,-2.234 1.789,-4.047 4,-4.047 2.207,0 4,1.813 4,4.047 m 0,0"
                 id="path3078" />
            </g>
          </g>
        </g>
      </g>
    </g>
    <path
       id="path3086"
       d="m 35.641652,1031.2632 c 0.051,2.891 -1.461,5.586 -3.957,7.04 -2.496,1.461 -5.586,1.461 -8.08,0 -2.496,-1.457 -4.01,-4.152 -3.961,-7.04 -0.047,-2.891 1.465,-5.582 3.961,-7.04 2.496,-1.457 5.586,-1.457 8.08,0 2.496,1.461 4.01,4.152 3.957,7.04 m 0,0"
       inkscape:connector-curvature="0"
       style="fill:#f9f9f9;fill-opacity:1;fill-rule:nonzero;stroke:none" />
    <path
       id="path3088"
       d="m 24.684652,1016.3652 c -0.43,0 -0.867,0.16 -1.227,0.449 -0.363,0.285 -0.598,0.664 -0.633,1.109 -0.027,0.449 0.141,0.902 0.473,1.211 l 0,0.031 c 0.785,0.699 1.598,1.418 2.391,2.133 l -8.867,0 c -0.633,0 -1.164,0.148 -1.574,0.477 -0.406,0.332 -0.668,0.824 -0.754,1.371 -0.172,1.07 0.578,2.289 1.793,2.289 l 3.871,0 -8.09,6.75 c 0,0 -0.004,-0.02 -0.031,0 -0.492,0.426 -0.844,1.02 -0.973,1.621 -0.133,0.605 -0.066,1.242 0.281,1.75 0.715,1.031 2.148,1 3.148,0.098 l 4.246,-3.918 c 0.004,0.457 0.113,1.172 0.281,1.785 0.348,1.254 0.941,2.418 1.762,3.434 0.84,1.047 1.863,1.891 3.051,2.484 1.25,0.625 2.594,0.926 3.992,0.926 1.402,0 2.746,-0.324 3.996,-0.957 1.184,-0.598 2.242,-1.434 3.082,-2.484 0.813,-1.02 1.379,-2.184 1.727,-3.438 0.18,-0.633 0.301,-1.293 0.348,-1.941 0.043,-0.637 0.02,-1.273 -0.063,-1.91 -0.156,-1.238 -0.516,-2.406 -1.102,-3.469 -0.457,-0.828 -1.066,-1.551 -1.73,-2.195 l 0.031,-0.031 -0.348,-0.289 -7.859,-6.809 c 0,0 -0.031,-0.027 -0.035,-0.031 0,0 -0.027,0 -0.031,0 -0.34,-0.293 -0.738,-0.449 -1.16,-0.449 m 3.051,7.164 c 4.063,0 7.359,3.332 7.359,7.445 0,4.113 -3.297,7.449 -7.359,7.449 -4.066,0 -7.359,-3.336 -7.359,-7.449 0,-4.113 3.293,-7.445 7.359,-7.445 m 0,0"
       inkscape:connector-curvature="0"
       style="fill:#f69349;fill-rule:evenodd;stroke:none;fill-opacity:1" />
    <path
       id="path3090"
       d="m 31.648652,1030.9672 c 0,2.238 -1.789,4.051 -4,4.051 -2.207,0 -4,-1.813 -4,-4.051 0,-2.234 1.789,-4.047 4,-4.047 2.207,0 4,1.813 4,4.047 m 0,0"
       inkscape:connector-curvature="0"
       style="fill:#1565c0;fill-opacity:1;fill-rule:nonzero;stroke:none" />
    <g
       id="g3049"
       transform="translate(-54.166963,994.16525)" />
  </g>
</svg>
