<?xml version="1.0" encoding="UTF-8" standalone="no"?>
<!-- Created with Inkscape (http://www.inkscape.org/) -->

<svg
   xmlns:dc="http://purl.org/dc/elements/1.1/"
   xmlns:cc="http://creativecommons.org/ns#"
   xmlns:rdf="http://www.w3.org/1999/02/22-rdf-syntax-ns#"
   xmlns:svg="http://www.w3.org/2000/svg"
   xmlns="http://www.w3.org/2000/svg"
   xmlns:xlink="http://www.w3.org/1999/xlink"
   xmlns:sodipodi="http://sodipodi.sourceforge.net/DTD/sodipodi-0.dtd"
   xmlns:inkscape="http://www.inkscape.org/namespaces/inkscape"
   width="48"
   height="48"
   id="svg2"
   version="1.1"
   inkscape:version="0.48.4 r9939"
   sodipodi:docname="blogilo.svg">
  <defs
     id="defs4">
    <linearGradient
       id="linearGradient3780">
      <stop
         style="stop-color:#2196f3;stop-opacity:1;"
         offset="0"
         id="stop3782" />
      <stop
         style="stop-color:#52adf6;stop-opacity:1;"
         offset="1"
         id="stop3784" />
    </linearGradient>
    <linearGradient
       id="linearGradient3779">
      <stop
         style="stop-color:#000000;stop-opacity:1;"
         offset="0"
         id="stop3781" />
      <stop
         style="stop-color:#ffffff;stop-opacity:1;"
         offset="1"
         id="stop3783" />
    </linearGradient>
    <linearGradient
       inkscape:collect="always"
       xlink:href="#linearGradient3779"
       id="linearGradient3795"
       gradientUnits="userSpaceOnUse"
       gradientTransform="translate(-20,0)"
       spreadMethod="repeat"
       x1="24"
       y1="1028.3622"
       x2="45"
       y2="1007.3622" />
    <linearGradient
       inkscape:collect="always"
       xlink:href="#linearGradient3779"
       id="linearGradient3797"
       gradientUnits="userSpaceOnUse"
       gradientTransform="translate(-20,0)"
       spreadMethod="repeat"
       x1="44"
       y1="1048.3622"
       x2="15"
       y2="1019.3622" />
    <linearGradient
       inkscape:collect="always"
       xlink:href="#linearGradient3780"
       id="linearGradient3786"
       x1="24"
       y1="1050.3622"
       x2="24"
       y2="1006.3622"
       gradientUnits="userSpaceOnUse" />
  </defs>
  <sodipodi:namedview
     id="base"
     pagecolor="#ffffff"
     bordercolor="#666666"
     borderopacity="1.0"
     inkscape:pageopacity="0.0"
     inkscape:pageshadow="2"
     inkscape:zoom="11.583333"
     inkscape:cx="19.608396"
     inkscape:cy="26.164217"
     inkscape:document-units="px"
     inkscape:current-layer="layer1"
     showgrid="true"
     inkscape:snap-bbox="true"
     inkscape:window-width="1301"
     inkscape:window-height="744"
     inkscape:window-x="65"
     inkscape:window-y="24"
     inkscape:window-maximized="1"
     inkscape:object-nodes="true">
    <inkscape:grid
       type="xygrid"
       id="grid2985"
       empspacing="6"
       visible="true"
       enabled="true"
       snapvisiblegridlinesonly="true" />
  </sodipodi:namedview>
  <metadata
     id="metadata7">
    <rdf:RDF>
      <cc:Work
         rdf:about="">
        <dc:format>image/svg+xml</dc:format>
        <dc:type
           rdf:resource="http://purl.org/dc/dcmitype/StillImage" />
        <dc:title />
      </cc:Work>
    </rdf:RDF>
  </metadata>
  <g
     inkscape:label="Layer 1"
     inkscape:groupmode="layer"
     id="layer1"
     transform="translate(0,-1004.3622)">
    <path
       id="path3788"
       d="m 24,1051.1116 c -21.2715315,0 -23.66257505,-0.089 -23.9375,-15.4063 0.328125,14.4033 2.9375,14.4063 23.9375,14.4063 21,0 23.609375,0 23.9375,-14.4063 -0.274925,15.3174 -2.665968,15.4063 -23.9375,15.4063 z"
       style="opacity:0.20000000000000001;fill:#ffffff;fill-opacity:1;stroke:none"
       inkscape:connector-curvature="0" />
    <path
       style="fill:url(#linearGradient3786);fill-opacity:1;stroke:none"
       d="m 24,1006.3622 c -24,0 -24,0 -24,22 0,22 0,22 24,22 24,0 24,0 24,-22 0,-22 0,-22 -24,-22 z"
       id="path3757"
       inkscape:connector-curvature="0"
       sodipodi:nodetypes="zzzzz" />
    <g
       id="g3791"
       transform="translate(20,0)">
      <path
         style="opacity:0.02999998;fill:url(#linearGradient3795);fill-opacity:1;stroke:none"
         d="m 4,1006.3622 c -24,0 -24,0 -24,22 0,22 0,22 24,22 24,0 24,0 24,-22 0,-22 0,-22 -24,-22 z"
         id="path3777"
         inkscape:connector-curvature="0"
         sodipodi:nodetypes="zzzzz" />
      <path
         sodipodi:nodetypes="zzzzz"
         inkscape:connector-curvature="0"
         id="path3787"
         d="m 4,1006.3622 c -24,0 -24,0 -24,22 0,22 0,22 24,22 24,0 24,0 24,-22 0,-22 0,-22 -24,-22 z"
         style="opacity:0.02999998;fill:url(#linearGradient3797);fill-opacity:1;stroke:none" />
    </g>
    <path
       style="fill:#000000;fill-opacity:1;stroke:none;opacity:0.20000000000000001"
       d="M 24 2 C 2.7284685 2 0.33742495 2.0888436 0.0625 17.40625 C 0.390625 3.0029297 3 3 24 3 C 45 3 47.609375 3.0029297 47.9375 17.40625 C 47.662575 2.0888436 45.271532 2 24 2 z "
       transform="translate(0,1004.3622)"
       id="path3770" />
    <g
       id="g3794">
      <path
         id="path3791"
         transform="translate(0,1004.3622)"
         d="M 13 12 L 13 12.90625 C 14.247998 12.97825 15.099247 13.2025 15.53125 13.5625 C 15.963246 13.9225 16.156246 14.55675 16.15625 15.46875 L 16.15625 31.15625 C 18.105513 30.79165 20.033381 30.3924 21.9375 29.9375 L 21.9375 24 L 23 24 C 26.09908 24 27.917551 25.41455 28.40625 28.21875 C 30.236212 27.69805 32.065626 27.15555 33.875 26.59375 C 32.820421 24.97485 30.778384 23.8308 27.75 23.1875 C 29.837982 22.5875 31.323481 21.8785 32.1875 21.0625 C 33.051479 20.2225 33.468729 19.118 33.46875 17.75 C 33.468729 15.902 32.66323 14.484 31.03125 13.5 C 29.423233 12.492 27.124985 12 24.125 12 L 13 12 z M 23.375 13.09375 C 23.525001 13.07675 23.700997 13.09375 23.875 13.09375 C 25.122987 13.09375 26.056236 13.48925 26.65625 14.28125 C 27.256235 15.07325 27.531235 16.296 27.53125 18 C 27.531235 19.896 27.174235 21.203 26.40625 21.875 C 25.638237 22.523 24.145488 22.85825 21.9375 22.90625 L 21.9375 14.84375 C 21.93749 14.19575 22.08699 13.73275 22.375 13.46875 C 22.608992 13.27075 22.924996 13.14325 23.375 13.09375 z "
         style="font-size:36px;font-style:normal;font-weight:normal;text-align:center;line-height:100%;letter-spacing:0px;word-spacing:0px;text-anchor:middle;fill:#ffffff;fill-opacity:1;stroke:none;font-family:Sans" />
      <path
         id="text3009"
         d="m 34.28125,1031.6747 c -1.899358,0.7575 -3.830624,1.448 -5.78125,2.125 0.0067,0.1606 0.03125,0.301 0.03125,0.4688 -1.6e-5,3.528 -1.478265,5.2812 -4.40625,5.2812 -0.792011,0 -1.35151,-0.164 -1.6875,-0.5 -0.33601,-0.336 -0.50001,-0.8955 -0.5,-1.6875 l 0,-1.5 c -1.890992,0.5336 -3.827174,1.0343 -5.78125,1.4688 -0.01343,0.8573 -0.201016,1.4578 -0.59375,1.7812 -0.384003,0.312 -1.242502,0.5435 -2.5625,0.6875 l 0,0.9063 11.59375,0 c 3.047985,0 5.495732,-0.6198 7.34375,-1.8438 1.847978,-1.248 2.781228,-2.8975 2.78125,-4.9375 -6e-6,-0.816 -0.146052,-1.5762 -0.4375,-2.25 z"
         style="font-size:36px;font-style:normal;font-weight:normal;text-align:center;line-height:100%;letter-spacing:0px;word-spacing:0px;text-anchor:middle;fill:#90caf9;fill-opacity:1;stroke:none;font-family:Sans" />
    </g>
    <path
       style="font-size:36px;font-style:normal;font-weight:normal;text-align:center;line-height:100%;letter-spacing:0px;word-spacing:0px;text-anchor:middle;opacity:0.2;fill:#000000;fill-opacity:1;stroke:none;font-family:Sans"
       d="M 14 13.09375 L 14 14 C 14.868399 14.0501 15.52338 14.183025 16 14.375 C 15.898387 14.031614 15.759287 13.752533 15.53125 13.5625 C 15.285872 13.35802 14.886773 13.2076 14.375 13.09375 L 14 13.09375 z M 23.375 13.09375 C 22.924996 13.14315 22.608992 13.27075 22.375 13.46875 C 22.08699 13.73275 21.93749 14.19565 21.9375 14.84375 L 21.9375 22.90625 C 22.298016 22.898413 22.615162 22.867017 22.9375 22.84375 L 22.9375 15.9375 C 22.93749 15.2894 23.08699 14.8265 23.375 14.5625 C 23.608992 14.3645 23.924996 14.2369 24.375 14.1875 C 24.525001 14.1705 24.700997 14.1875 24.875 14.1875 C 25.678192 14.1875 26.337473 14.359598 26.875 14.6875 C 26.800568 14.551994 26.744624 14.397906 26.65625 14.28125 C 26.056236 13.48915 25.122987 13.09375 23.875 13.09375 L 23.375 13.09375 z M 32.71875 15.09375 C 33.215046 15.852065 33.468738 16.727966 33.46875 17.75 C 33.468729 19.118 33.051479 20.2225 32.1875 21.0625 C 31.323481 21.8785 29.837982 22.5875 27.75 23.1875 C 28.610092 23.370204 29.392805 23.580851 30.09375 23.84375 C 31.477292 23.344994 32.525368 22.781583 33.1875 22.15625 C 34.051479 21.31625 34.468729 20.21175 34.46875 18.84375 C 34.468732 17.288077 33.872903 16.037596 32.71875 15.09375 z M 21.9375 24 L 21.9375 29.9375 C 20.360602 30.314226 18.764387 30.656418 17.15625 30.96875 L 17.15625 32.25 C 19.105513 31.8854 21.033381 31.48615 22.9375 31.03125 L 22.9375 25.09375 L 24 25.09375 C 25.50021 25.09375 26.699302 25.433615 27.59375 26.09375 C 26.696681 24.713023 25.171719 24 23 24 L 22.9375 24 L 21.9375 24 z M 33.78125 26.46875 C 33.810561 26.510954 33.847074 26.55088 33.875 26.59375 C 32.272573 27.091294 30.651573 27.565718 29.03125 28.03125 C 29.164965 28.367524 29.296002 28.731246 29.375 29.125 C 31.026574 28.545502 32.668024 27.955885 34.28125 27.3125 C 34.350301 27.472139 34.416031 27.643568 34.46875 27.8125 C 34.603762 27.770861 34.740202 27.729354 34.875 27.6875 C 34.585634 27.24329 34.219285 26.840922 33.78125 26.46875 z M 35.28125 28.40625 C 35.064438 28.492719 34.842625 28.571448 34.625 28.65625 C 34.667685 28.950281 34.718748 29.250435 34.71875 29.5625 C 34.718728 31.6025 33.785478 33.252 31.9375 34.5 C 30.089482 35.724 27.641735 36.34375 24.59375 36.34375 L 15.1875 36.34375 C 14.840518 36.41474 14.459259 36.481149 14 36.53125 L 14 37.4375 L 25.59375 37.4375 C 28.641735 37.4375 31.089482 36.81775 32.9375 35.59375 C 34.785478 34.34575 35.718728 32.69625 35.71875 30.65625 C 35.718744 29.84025 35.572698 29.08005 35.28125 28.40625 z M 22.9375 32.59375 C 22.60784 32.686773 22.269762 32.784155 21.9375 32.875 L 21.9375 33 C 21.93749 33.792 22.10149 34.3515 22.4375 34.6875 C 22.592073 34.842077 22.81244 34.9487 23.0625 35.03125 C 22.990509 34.762298 22.937495 34.462706 22.9375 34.09375 L 22.9375 32.59375 z "
       transform="translate(0,1004.3622)"
       id="path3800" />
  </g>
</svg>
