<?xml version="1.0" encoding="UTF-8" standalone="no"?>
<!-- Created with Inkscape (http://www.inkscape.org/) -->

<svg
   xmlns:dc="http://purl.org/dc/elements/1.1/"
   xmlns:cc="http://creativecommons.org/ns#"
   xmlns:rdf="http://www.w3.org/1999/02/22-rdf-syntax-ns#"
   xmlns:svg="http://www.w3.org/2000/svg"
   xmlns="http://www.w3.org/2000/svg"
   xmlns:xlink="http://www.w3.org/1999/xlink"
   xmlns:sodipodi="http://sodipodi.sourceforge.net/DTD/sodipodi-0.dtd"
   xmlns:inkscape="http://www.inkscape.org/namespaces/inkscape"
   width="48"
   height="48"
   id="svg2"
   version="1.1"
   inkscape:version="0.48.4 r9939"
   sodipodi:docname="mate-panel-fish.svg">
  <defs
     id="defs4">
    <linearGradient
       id="linearGradient3827">
      <stop
         style="stop-color:#424242;stop-opacity:1;"
         offset="0"
         id="stop3829" />
      <stop
         style="stop-color:#342a40;stop-opacity:1;"
         offset="1"
         id="stop3831" />
    </linearGradient>
    <linearGradient
       inkscape:collect="always"
       xlink:href="#linearGradient3827"
       id="linearGradient3833"
       x1="24"
       y1="1006.3622"
       x2="24"
       y2="1050.3622"
       gradientUnits="userSpaceOnUse" />
    <linearGradient
       y2="68.898041"
       x2="29.396217"
       y1="63.281857"
       x1="29.048765"
       spreadMethod="pad"
       gradientTransform="scale(1.92567,0.519299)"
       gradientUnits="userSpaceOnUse"
       id="linearGradient3995"
       xlink:href="#linearGradient561"
       inkscape:collect="always" />
    <linearGradient
       id="linearGradient641">
      <stop
         offset="0"
         style="stop-color:#000000;stop-opacity:0.41568601"
         id="stop642" />
      <stop
         offset="1"
         style="stop-color:#000000;stop-opacity:0"
         id="stop643" />
    </linearGradient>
    <linearGradient
       y2="63.224438"
       x2="30.472109"
       y1="68.697281"
       x1="29.954319"
       spreadMethod="pad"
       gradientTransform="scale(1.84716,0.541373)"
       gradientUnits="userSpaceOnUse"
       id="linearGradient3993"
       xlink:href="#linearGradient641"
       inkscape:collect="always" />
    <linearGradient
       y2="54.864002"
       x2="37.259823"
       y1="47.90868"
       x1="36.829525"
       spreadMethod="pad"
       gradientTransform="scale(1.51748,0.658989)"
       gradientUnits="userSpaceOnUse"
       id="linearGradient3991"
       xlink:href="#linearGradient561"
       inkscape:collect="always" />
    <radialGradient
       r="6.0570164"
       fy="3.355541"
       fx="32.368511"
       cy="3.355541"
       cx="32.368511"
       spreadMethod="pad"
       gradientTransform="scale(1.0404,0.961171)"
       gradientUnits="userSpaceOnUse"
       id="radialGradient3989"
       xlink:href="#linearGradient561"
       inkscape:collect="always" />
    <linearGradient
       y2="24.093016"
       x2="28.115267"
       y1="16.387062"
       x1="27.607258"
       spreadMethod="pad"
       gradientTransform="scale(0.887627,1.1266)"
       gradientUnits="userSpaceOnUse"
       id="linearGradient3987"
       xlink:href="#linearGradient556"
       inkscape:collect="always" />
    <linearGradient
       y2="24.686901"
       x2="25.337631"
       y1="15.336463"
       x1="25.033354"
       spreadMethod="pad"
       gradientTransform="scale(0.959984,1.04168)"
       gradientUnits="userSpaceOnUse"
       id="linearGradient3985"
       xlink:href="#linearGradient635"
       inkscape:collect="always" />
    <radialGradient
       r="5.3430753"
       fy="25.590885"
       fx="56.924801"
       cy="25.590885"
       cx="56.924801"
       spreadMethod="pad"
       gradientTransform="scale(1.12198,0.891285)"
       gradientUnits="userSpaceOnUse"
       id="radialGradient3983"
       xlink:href="#linearGradient561"
       inkscape:collect="always" />
    <linearGradient
       id="linearGradient604">
      <stop
         offset="0"
         style="stop-color:#000000;stop-opacity:0.239216"
         id="stop605" />
      <stop
         offset="1"
         style="stop-color:#000000;stop-opacity:0"
         id="stop606" />
    </linearGradient>
    <linearGradient
       y2="21.709469"
       x2="23.98053"
       y1="41.885136"
       x1="40.970566"
       spreadMethod="pad"
       gradientTransform="scale(0.992835,1.00722)"
       gradientUnits="userSpaceOnUse"
       id="linearGradient3981"
       xlink:href="#linearGradient604"
       inkscape:collect="always" />
    <linearGradient
       id="linearGradient564">
      <stop
         offset="0"
         style="stop-color:#3278c6;stop-opacity:1"
         id="stop565" />
      <stop
         offset="1"
         style="stop-color:#264980;stop-opacity:1"
         id="stop566" />
    </linearGradient>
    <radialGradient
       r="27.532124"
       fy="16.134611"
       fx="15.485512"
       cy="16.134611"
       cx="15.485512"
       spreadMethod="pad"
       gradientTransform="scale(0.992835,1.00722)"
       gradientUnits="userSpaceOnUse"
       id="radialGradient3979"
       xlink:href="#linearGradient564"
       inkscape:collect="always" />
    <linearGradient
       id="linearGradient635">
      <stop
         offset="0"
         style="stop-color:#ffffff;stop-opacity:1"
         id="stop636" />
      <stop
         offset="1"
         style="stop-color:#ffffff;stop-opacity:0.17647099"
         id="stop637" />
    </linearGradient>
    <linearGradient
       y2="14.642175"
       x2="56.888985"
       y1="5.4559503"
       x1="42.007587"
       spreadMethod="pad"
       gradientTransform="scale(0.653126,1.5311)"
       gradientUnits="userSpaceOnUse"
       id="linearGradient3977"
       xlink:href="#linearGradient635"
       inkscape:collect="always" />
    <linearGradient
       y2="18.198601"
       x2="68.416641"
       y1="9.7092857"
       x1="66.896873"
       spreadMethod="pad"
       gradientTransform="scale(0.577912,1.73037)"
       gradientUnits="userSpaceOnUse"
       id="linearGradient3975"
       xlink:href="#linearGradient561"
       inkscape:collect="always" />
    <linearGradient
       id="linearGradient561">
      <stop
         offset="0"
         style="stop-color:#72a6db;stop-opacity:1"
         id="stop562" />
      <stop
         offset="1"
         style="stop-color:#4974aa;stop-opacity:1"
         id="stop563" />
    </linearGradient>
    <radialGradient
       r="6.1138387"
       fy="4.2911568"
       fx="31.637579"
       cy="4.2911568"
       cx="31.637579"
       spreadMethod="pad"
       gradientTransform="scale(1.06132,0.942226)"
       gradientUnits="userSpaceOnUse"
       id="radialGradient3973"
       xlink:href="#linearGradient561"
       inkscape:collect="always" />
    <linearGradient
       id="linearGradient556">
      <stop
         offset="0"
         style="stop-color:#ffffff;stop-opacity:1"
         id="stop557" />
      <stop
         offset="1"
         style="stop-color:#8f8f8f;stop-opacity:1"
         id="stop558" />
    </linearGradient>
    <radialGradient
       r="10.214344"
       fy="13.491528"
       fx="24.218475"
       cy="13.491528"
       cx="24.218475"
       spreadMethod="pad"
       gradientTransform="scale(0.887627,1.1266)"
       gradientUnits="userSpaceOnUse"
       id="radialGradient3971"
       xlink:href="#linearGradient556"
       inkscape:collect="always" />
  </defs>
  <sodipodi:namedview
     id="base"
     pagecolor="#ffffff"
     bordercolor="#666666"
     borderopacity="1.0"
     inkscape:pageopacity="0.0"
     inkscape:pageshadow="2"
     inkscape:zoom="11.583333"
     inkscape:cx="15.798743"
     inkscape:cy="20.658058"
     inkscape:document-units="px"
     inkscape:current-layer="layer1"
     showgrid="true"
     inkscape:snap-bbox="true"
     inkscape:window-width="1301"
     inkscape:window-height="744"
     inkscape:window-x="65"
     inkscape:window-y="24"
     inkscape:window-maximized="1"
     inkscape:object-nodes="true"
     showguides="true"
     inkscape:guide-bbox="true"
     inkscape:snap-nodes="true"
     inkscape:snap-global="true">
    <inkscape:grid
       type="xygrid"
       id="grid3003"
       empspacing="6"
       visible="true"
       enabled="true"
       snapvisiblegridlinesonly="true" />
  </sodipodi:namedview>
  <metadata
     id="metadata7">
    <rdf:RDF>
      <cc:Work
         rdf:about="">
        <dc:format>image/svg+xml</dc:format>
        <dc:type
           rdf:resource="http://purl.org/dc/dcmitype/StillImage" />
        <dc:title />
      </cc:Work>
    </rdf:RDF>
  </metadata>
  <g
     inkscape:label="Layer 1"
     inkscape:groupmode="layer"
     id="layer1"
     transform="translate(0,-1004.3622)">
    <path
       id="path3788"
       d="m 24,1051.1116 c -21.2715315,0 -23.66257505,-0.089 -23.9375,-15.4063 0.328125,14.4033 2.9375,14.4063 23.9375,14.4063 21,0 23.609375,0 23.9375,-14.4063 -0.274925,15.3174 -2.665968,15.4063 -23.9375,15.4063 z"
       style="opacity:0.20000000000000001;fill:#ffffff;fill-opacity:1;stroke:none"
       inkscape:connector-curvature="0" />
    <path
       style="fill:url(#linearGradient3833);fill-opacity:1;stroke:none"
       d="m 24,1006.3622 c -24,0 -24,0 -24,22 0,22 0,22 24,22 24,0 24,0 24,-22 0,-22 0,-22 -24,-22 z"
       id="path3757"
       inkscape:connector-curvature="0"
       sodipodi:nodetypes="zzzzz" />
    <path
       style="fill:#000000;fill-opacity:1;stroke:none;opacity:0.20000000000000001"
       d="M 24 2 C 2.7284685 2 0.33742495 2.0888436 0.0625 17.40625 C 0.390625 3.0029297 3 3 24 3 C 45 3 47.609375 3.0029297 47.9375 17.40625 C 47.662575 2.0888436 45.271532 2 24 2 z "
       transform="translate(0,1004.3622)"
       id="path3770" />
    <g
       id="g3813"
       transform="translate(-47.998,993.3622)" />
    <g
       id="g3038"
       transform="translate(-50.335,1008.7072)" />
    <g
       id="g3041"
       transform="translate(-51.97,1003.7612)" />
    <g
       id="g3026"
       transform="translate(-56.532,1001.6102)" />
    <g
       id="g3034"
       transform="translate(-55.082,999.6222)" />
    <g
       id="layer3"
       transform="matrix(0.61026594,0,0,0.61640779,-8.9143382,1002.128)">
      <path
         inkscape:connector-curvature="0"
         d="m 75.3125,18.34375 c -5.847506,1.288051 -10.768525,5.840386 -12.5,11.625 -0.0051,0.0091 0.005,0.02209 0,0.03125 -0.02008,0.06753 -0.07456,0.119634 -0.09375,0.1875 -0.249307,0.524995 -0.40681,1.060004 -0.53125,1.59375 C 62.11112,32.108871 62.068482,32.340838 62,32.625 59.474462,29.964036 56.578989,27.608215 53.40625,25.71875 53.33682,25.67741 53.288465,25.603357 53.21875,25.5625 l -0.03125,0.03125 c -1.4011,-1.213861 -3.525968,-2.041008 -5.5,-2.34375 -0.0026,-4e-4 0.0026,-0.03085 0,-0.03125 -0.06135,-0.02008 -0.126032,-0.01193 -0.1875,-0.03125 -4.911362,-1.543515 -10.158539,-0.656463 -14.65625,1.375 -3.259681,-1.00936 -6.654315,-0.319 -9.4375,1.375 -2.850328,1.734867 -5.101145,4.47717 -6.0625,7.65625 -0.02043,0.04157 -0.0122,0.08343 -0.03125,0.125 -0.0065,0.02244 -0.02486,0.04002 -0.03125,0.0625 -0.473141,1.072888 -0.530004,2.145323 -0.5,3.0625 0.03139,0.959406 0.108089,1.792209 0,2.4375 -0.0014,0.0083 0.0014,0.02304 0,0.03125 -0.58704,2.948817 0.02231,5.945667 1.25,8.5625 -0.202983,3.204352 0.266607,6.395289 1.125,9.4375 -1.046937,1.106142 -1.559,2.483379 -1.46875,3.78125 0.106735,1.534941 0.671125,2.979845 1.09375,4.09375 0.0075,0.02263 0.02358,0.03995 0.03125,0.0625 1.562675,4.596217 6.23685,7.505617 10.9375,7.6875 6.070195,4.469763 14.425193,5.788685 21.40625,2.53125 l 0,0.03125 c 0.013,-0.0057 0.01826,-0.02552 0.03125,-0.03125 6.273587,-2.765101 11.338274,-7.548668 15.3125,-12.9375 3.115682,2.411197 7.344021,4.178633 11.40625,2.5 A 1.1167645,1.1167645 0 0 0 78,64.96875 c 1.108245,-0.621824 1.561765,-1.888878 1.40625,-2.9375 -0.144913,-0.977134 -0.744275,-1.841915 -1.65625,-2.375 L 77.78125,59.625 C 75.284017,57.635731 73.508264,54.872939 73.34375,51.75 A 1.1167645,1.1167645 0 0 0 73.3125,51.625 c -0.647864,-3.547137 0.917633,-7.203467 2.375,-10.8125 a 1.1167645,1.1167645 0 0 0 0.09375,-0.28125 c 0.671364,-6.371544 -0.541209,-12.809274 2.65625,-17.875 A 1.1167645,1.1167645 0 0 0 78.5,22.5625 c 1.020743,-2.083736 -0.820221,-4.579317 -3.125,-4.21875 a 1.1167645,1.1167645 0 0 0 -0.0625,0 z"
         id="path3779"
         style="opacity:0.05;fill:#111d31;fill-opacity:1;fill-rule:evenodd;stroke:none" />
      <path
         d="m 75.5625,19.4375 c -5.50468,1.212536 -10.222168,5.592551 -11.769491,11.063576 -0.841258,1.518616 -0.754457,6.034713 -2.619078,2.916011 C 58.654927,30.763008 55.806109,28.377261 52.65625,26.53125 51.548233,25.495054 49.187659,24.531327 47.330348,24.276841 42.575578,22.720686 37.348439,23.625504 32.90625,25.71875 26.854232,23.54684 20.034296,28.19817 18.356,34.098092 c -0.872405,1.775006 -0.179477,3.659539 -0.483716,5.386788 -0.562179,2.783982 0.03504,5.714717 1.283966,8.23387 -0.244503,3.309718 0.238185,6.64217 1.1875,9.8125 -2.584964,1.80803 -1.350469,5.062142 -0.500825,7.304598 1.399172,4.212077 5.876473,6.997315 10.250825,7.039152 5.781932,4.421117 13.931762,5.740364 20.614806,2.608836 C 57.102345,71.676448 62.292398,66.647332 66.28125,61 c 2.964265,2.602915 7.294892,4.608541 11.1875,3 1.389523,-0.779646 0.948145,-2.850809 -0.364766,-3.497394 C 74.415958,58.361354 72.393719,55.310068 72.208719,51.798255 71.48211,47.819981 73.209897,43.988007 74.65625,40.40625 75.302594,34.272157 74.018712,27.577896 77.5,22.0625 c 0.625773,-1.277448 -0.515521,-2.847459 -1.9375,-2.625 z m -23.5,6.9375 c 0.33868,-0.06576 0.526605,0.301679 0,0 z"
         inkscape:connector-curvature="0"
         id="path3773"
         style="opacity:0.12000002;fill:#111d31;fill-opacity:1;fill-rule:evenodd;stroke:none" />
      <path
         inkscape:connector-curvature="0"
         d="M 75.71875,20.5 A 0.77785557,0.77785557 0 0 0 75.625,20.53125 c -5.231049,1.277284 -7.89382,4.301108 -9.8125,7.71875 a 0.77785557,0.77785557 0 0 0 -0.03125,0.0625 c -1.255027,2.864692 -2.152293,5.709969 -2.8125,8.53125 -3.010475,-3.536645 -6.645962,-7.024666 -10.8125,-9.375 -0.0076,-0.0043 -0.02368,0.0043 -0.03125,0 -0.0023,-0.0033 4.6e-5,-0.0312 0,-0.03125 -5.9e-5,-5.9e-5 -0.02826,0.0025 -0.03125,0 -0.02292,-0.01915 -0.107564,-0.09819 -0.15625,-0.125 -1.138459,-0.992896 -2.595098,-1.675082 -4.3125,-1.875 0.20364,0.06581 0.186119,0.04861 -0.0625,-0.03125 -1.712123,-0.549886 -3.498963,-0.852289 -5.25,-0.875 a 0.77785557,0.77785557 0 0 0 -0.03125,0 C 38.883458,24.625528 35.780189,25.431883 33,26.8125 32.174691,26.48225 31.296145,26.252415 30.21875,26.21875 a 0.77785557,0.77785557 0 0 0 -0.03125,0 c -6.667218,0 -11.28125,5.933865 -11.28125,11.1875 a 0.77785557,0.77785557 0 0 0 0.34375,0.625 c -0.295034,1.086282 -0.53125,2.229032 -0.53125,3.4375 0,2.260609 0.556048,4.331627 1.5,6.09375 -0.0379,0.630802 -0.0625,1.26684 -0.0625,1.90625 0,2.902958 0.519672,5.699324 1.34375,8.3125 -0.578489,0.456842 -1.082993,0.960492 -1.375,1.59375 -0.36791,0.797865 -0.402838,1.744916 -0.125,2.75 0.141273,0.449476 0.424277,0.740441 0.6875,1.03125 -0.06011,0.73325 0.106546,1.571055 0.6875,2.65625 a 0.77785557,0.77785557 0 0 0 0.03125,0.03125 c 1.630617,2.759873 4.39271,4.585928 7.875,4.90625 0.01044,9.61e-4 0.02079,-9.34e-4 0.03125,0 0.384087,0.03918 0.754232,0.07538 1.125,0.09375 3.499189,2.649862 7.676418,4.246157 12.0625,4.3125 9.180252,0.127302 18.422375,-7.807844 23.5625,-15.59375 1.190686,0.871561 2.469788,1.97039 4.09375,2.8125 1.822353,0.944986 4.046867,1.513098 6.5625,0.8125 a 0.77785557,0.77785557 0 0 0 0.3125,-1.3125 c -1.765068,-1.617919 -3.21092,-2.879698 -4.25,-4.65625 -1.025997,-1.754183 -1.713049,-4.113175 -1.8125,-8 0.0014,-0.01293 -0.0014,-0.01837 0,-0.03125 0.458794,-4.201071 1.385761,-5.92233 2.5625,-8.6875 a 0.77785557,0.77785557 0 0 0 0.0625,-0.21875 C 74.31267,33.571274 72.783608,28.131695 76.5,21.65625 A 0.77785557,0.77785557 0 0 0 75.71875,20.5 z"
         id="path3769"
         style="opacity:0.2;fill:#111d31;fill-opacity:1;fill-rule:evenodd;stroke:none" />
      <path
         d="m 75.796875,21.28125 c -5.023137,1.226517 -7.412142,4.014407 -9.28125,7.34375 -1.437022,3.280109 -2.484649,6.549768 -3.125,9.75 -3.145677,-3.901958 -7.263347,-7.828351 -11.8125,-10.34375 -0.01254,-0.0069 -0.0187,-0.02434 -0.03125,-0.03125 -1.086997,-0.997645 -2.46159,-1.649906 -4.1875,-1.8125 -0.02197,-0.0071 -0.04052,-0.02419 -0.0625,-0.03125 -1.644493,-0.528165 -3.302347,-0.822137 -4.96875,-0.84375 -3.399294,0.09432 -6.508406,0.900926 -9.25,2.3125 -0.794845,-0.36879 -1.738333,-0.589483 -2.875,-0.625 -6.1971,0 -10.53125,5.618637 -10.53125,10.40625 0.208474,-0.122418 0.413481,-0.247279 0.625,-0.34375 -0.49325,1.329809 -0.78125,2.839075 -0.78125,4.40625 0,2.231733 0.548118,4.285628 1.5,5.96875 -0.04532,0.672296 -0.0625,1.341932 -0.0625,2.03125 0,3.00168 0.505303,5.90876 1.40625,8.59375 -1.460106,0.993044 -2.079879,2.085171 -1.59375,3.84375 0.114041,0.362834 0.354992,0.692362 0.65625,1 0.0059,0.006 -0.0059,0.02529 0,0.03125 -0.132708,0.575381 -0.01315,1.307965 0.625,2.5 1.518596,2.570274 4.041633,4.239229 7.3125,4.53125 0.455212,0.04708 0.896631,0.0756 1.34375,0.09375 3.423852,2.65633 7.521034,4.247588 11.8125,4.3125 8.972916,0.124427 18.516921,-8.07947 23.4375,-15.90625 0.01423,0.04934 0.01684,0.07515 0.03125,0.125 2.686824,1.868964 5.885721,5.128816 10.5,3.84375 -3.504541,-3.212376 -6.137172,-5.19368 -6.3125,-13.3125 0.467349,-4.322114 1.488022,-6.192329 2.65625,-8.9375 0.700879,-6.54159 -0.886302,-12.189204 2.96875,-18.90625 z"
         inkscape:connector-curvature="0"
         id="path4188"
         style="opacity:0.4;fill:#111d31;fill-opacity:1;fill-rule:evenodd;stroke:none" />
      <g
         transform="matrix(1.4335847,0,0,1.4335847,-44.45518,-81.448241)"
         id="g2335">
        <path
           inkscape:connector-curvature="0"
           d="m 30.266524,20.25193 a 5.6613641,7.185555 0 1 1 -11.322728,0 5.6613641,7.185555 0 1 1 11.322728,0 z"
           transform="translate(25.6837,64.7822)"
           id="path617"
           style="fill:url(#radialGradient3971);fill-opacity:1;fill-rule:evenodd;stroke:none" />
        <path
           d="m 40.9676,10.542 c 0,3.3396 -6.81,-5.8722 -12.1002,-2.76574 0,-3.33961 3.0212,-7.268753 7.344,-7.268753 5.5328,0.172882 4.7562,6.694873 4.7562,10.034493 z"
           inkscape:connector-curvature="0"
           transform="translate(15.8584,74.4356)"
           id="path618"
           style="font-size:12px;fill:url(#radialGradient3973);fill-rule:evenodd;stroke-width:1pt" />
        <path
           d="m 34.7133,23.5539 c -0.0815,-3.9113 0.8148,-8.1894 2.689,-12.4674 1.3038,-2.32239 2.9743,-4.27803 6.4782,-5.13359 -2.6891,4.68549 -1.589,8.63759 -2.0779,13.20069 -0.8149,1.9149 -1.5075,3.2189 -1.8335,6.2338 0.1223,5.6633 1.9557,7.0487 4.4003,9.2895 -3.2187,0.8964 -5.4595,-1.3853 -7.3337,-2.689 -0.9779,-3.3817 -1.3446,-5.0522 -2.3224,-8.434 z"
           inkscape:connector-curvature="0"
           transform="translate(40,65)"
           id="path619"
           style="fill:url(#linearGradient3975);fill-opacity:1;fill-rule:evenodd;stroke:none" />
        <g
           transform="matrix(0.718586,0,0,0.718583,2.16727,69.9466)"
           id="g595">
          <path
             inkscape:connector-curvature="0"
             d="m 64.476341,21.172836 a 2.074306,2.1607211 0 1 1 -4.148612,0 2.074306,2.1607211 0 1 1 4.148612,0 z"
             transform="translate(0,-0.122253)"
             id="path596"
             style="fill:#000000;fill-opacity:1;fill-rule:evenodd;stroke:none" />
          <path
             inkscape:connector-curvature="0"
             d="m 63.957765,20.394981 a 0.777864,1.037178 0 1 1 -1.555728,0 0.777864,1.037178 0 1 1 1.555728,0 z"
             id="path597"
             style="fill:#808080;fill-opacity:1;fill-rule:evenodd;stroke:none" />
        </g>
        <path
           d="m 35.6911,19.8871 c 1.263,-5.9486 1.5483,-6.7634 2.3224,-8.6783 0.8555,-1.58905 1.3445,-2.9335 5.1336,-4.76692 -2.0372,1.7112 -3.0965,3.66682 -3.9113,6.23372 -0.4075,2.1186 -1.1816,4.2373 -0.7334,11.2451 -0.6519,-1.0593 -2.1594,-2.9743 -2.8113,-4.0336 z"
           inkscape:connector-curvature="0"
           transform="translate(40,65)"
           id="path630"
           style="fill:url(#linearGradient3977);fill-opacity:0.47183102;fill-rule:evenodd;stroke:none" />
        <path
           d="M 39.358,25.7541 C 39.1136,31.7102 29.4691,43.1108 20.6568,42.9886 12.5779,42.8664 5.62257,35.0105 5.62257,25.6319 5.62257,16.2535 11.7223,9.00879 20.5346,8.76427 29.9581,8.88649 39.4803,21.9982 39.358,25.7541 z"
           inkscape:connector-curvature="0"
           transform="translate(40,65)"
           id="path615"
           style="font-size:12px;fill:url(#radialGradient3979);fill-rule:evenodd;stroke-width:1pt" />
        <path
           d="M 39.358,25.7541 C 39.1136,31.7102 29.4691,43.1108 20.6568,42.9886 12.5779,42.8664 5.62257,35.0105 5.62257,25.6319 5.62257,16.2535 11.7223,9.00879 20.5346,8.76427 29.9581,8.88649 39.4803,21.9982 39.358,25.7541 z"
           inkscape:connector-curvature="0"
           transform="translate(40,65)"
           id="path599"
           style="font-size:12px;fill:url(#linearGradient3981);fill-rule:evenodd;stroke-width:1pt" />
        <path
           d="m 30.5574,20.4983 c 2.0779,3.1331 1.3797,5.7609 0.2514,7.5749 -1.1283,1.8142 -4.2791,2.7994 -5.9962,2.6924 -6.0078,-0.3667 -5.1336,-3.0235 -5.1336,-8.5562 0,-5.5326 3.6483,-10.8784 7.0893,-10.8784 2.5854,0.6112 3.7891,3.6347 3.7891,9.1673 z"
           inkscape:connector-curvature="0"
           transform="translate(40,65)"
           id="path632"
           style="font-size:12px;fill:#000000;fill-opacity:0.19718299;fill-rule:evenodd;stroke-width:1pt" />
        <path
           inkscape:connector-curvature="0"
           d="m 72.360035,25.081871 a 6.5392952,5.1947398 0 1 1 -13.07859,0 6.5392952,5.1947398 0 1 1 13.07859,0 z"
           transform="matrix(0.952492,0,0,1.14657,1.8795,60.0072)"
           id="path624"
           style="fill:url(#radialGradient3983);fill-opacity:1;fill-rule:evenodd;stroke:none" />
        <path
           inkscape:connector-curvature="0"
           d="m 30.06853,22.20948 a 5.744801,6.2337108 0 1 1 -11.489602,0 5.744801,6.2337108 0 1 1 11.489602,0 z"
           transform="matrix(1,0,0,0.932637,39.8778,66.1984)"
           id="path633"
           style="fill:url(#linearGradient3985);fill-opacity:1;fill-rule:evenodd;stroke:none" />
        <path
           inkscape:connector-curvature="0"
           d="m 30.266524,20.25193 a 5.6613641,7.185555 0 1 1 -11.322728,0 5.6613641,7.185555 0 1 1 11.322728,0 z"
           transform="matrix(1.03238,0,0,1.05954,38.5155,63.1486)"
           id="path552"
           style="fill:url(#linearGradient3987);fill-opacity:1;fill-rule:evenodd;stroke:none" />
        <path
           d="M 40.8895,10.542 C 39.9129,9.66286 36.9358,4.78699 29.1018,7.74536 c 0,-3.33961 1.32,-8.093413 5.6428,-8.093413 5.5328,0.172882 6.1449,7.550433 6.1449,10.890053 z"
           inkscape:connector-curvature="0"
           transform="translate(28.937,74.6801)"
           id="path600"
           style="font-size:12px;fill:url(#radialGradient3989);fill-rule:evenodd;stroke-width:1pt" />
        <g
           transform="matrix(0.718586,0,0,0.718583,21.4786,70.3865)"
           id="g611">
          <path
             inkscape:connector-curvature="0"
             d="m 64.476341,21.172836 a 2.074306,2.1607211 0 1 1 -4.148612,0 2.074306,2.1607211 0 1 1 4.148612,0 z"
             transform="translate(0,-0.122253)"
             id="path604"
             style="fill:#000000;fill-opacity:1;fill-rule:evenodd;stroke:none" />
          <path
             inkscape:connector-curvature="0"
             d="m 63.957765,20.394981 a 0.777864,1.037178 0 1 1 -1.555728,0 0.777864,1.037178 0 1 1 1.555728,0 z"
             id="path605"
             style="fill:#808080;fill-opacity:1;fill-rule:evenodd;stroke:none" />
        </g>
        <path
           d="m 47.7918,31.6212 c 0.2038,0.8556 6.2745,3.4224 15.8899,-0.2445 0.387,-0.0408 2.2985,-2.1103 2.2908,-1.7026 -0.0187,1.1104 -0.8848,2.5877 -2.0123,3.8196 -2.404,2.9334 -6.5529,4.7278 -11.2792,4.239 -2.2816,-0.2037 -4.0423,-1.3851 -5.1016,-3.178 -0.9051,-1.6907 -0.3172,-1.9963 0.2124,-2.9335 z"
           inkscape:connector-curvature="0"
           transform="translate(-1.19148,67.2001)"
           id="path623"
           style="fill:url(#linearGradient3991);fill-opacity:1;fill-rule:evenodd;stroke:none" />
        <path
           d="m 48.1585,31.6212 c 0.2038,0.8556 5.9078,3.7891 15.5232,0.1222 1.2892,-0.662 2.1738,-0.0872 0.8556,1.9556 -2.4039,2.4446 -9.6969,3.4225 -11.9785,3.0558 -2.2816,-0.2037 -5.0521,-1.0186 -5.5003,-2.4446 -0.3391,-1.2267 0.0815,-1.9963 1.1,-2.689 z"
           inkscape:connector-curvature="0"
           transform="translate(-1.65414,65.384)"
           id="path631"
           style="fill:url(#linearGradient3993);fill-opacity:1;fill-rule:evenodd;stroke:none" />
        <path
           d="m 48.1585,31.6212 c 0.2038,0.8556 5.5953,4.9609 15.8357,0.9816 0.6836,-0.2919 1.9301,-0.8606 2.1868,-0.8178 0.3767,0.0741 -0.4768,0.9707 -1.4874,1.9922 -2.4039,2.4445 -9.8532,3.3443 -12.1348,2.9776 -2.2816,-0.2037 -5.0521,-1.0186 -5.5003,-2.4446 -0.3391,-1.2267 0.0815,-1.9963 1.1,-2.689 z"
           inkscape:connector-curvature="0"
           transform="translate(-1.55816,65)"
           id="path621"
           style="fill:url(#linearGradient3995);fill-opacity:1;fill-rule:evenodd;stroke:none" />
      </g>
    </g>
  </g>
</svg>
