<?xml version="1.0" encoding="UTF-8" standalone="no"?>
<!-- Created with Inkscape (http://www.inkscape.org/) -->

<svg
   xmlns:dc="http://purl.org/dc/elements/1.1/"
   xmlns:cc="http://creativecommons.org/ns#"
   xmlns:rdf="http://www.w3.org/1999/02/22-rdf-syntax-ns#"
   xmlns:svg="http://www.w3.org/2000/svg"
   xmlns="http://www.w3.org/2000/svg"
   xmlns:xlink="http://www.w3.org/1999/xlink"
   xmlns:sodipodi="http://sodipodi.sourceforge.net/DTD/sodipodi-0.dtd"
   xmlns:inkscape="http://www.inkscape.org/namespaces/inkscape"
   width="48"
   height="48"
   id="svg2"
   version="1.1"
   inkscape:version="0.48.4 r9939"
   sodipodi:docname="bluegriffon.svg">
  <defs
     id="defs4">
    <linearGradient
       id="linearGradient3893">
      <stop
         style="stop-color:#7858a8;stop-opacity:1;"
         offset="0"
         id="stop3895" />
      <stop
         style="stop-color:#8264ae;stop-opacity:1;"
         offset="1"
         id="stop3897" />
    </linearGradient>
    <clipPath
       id="clipPath-120312721">
      <g
         id="g3031"
         transform="translate(0,-1004.3622)">
        <path
           id="path3033"
           fill="#1890d0"
           transform="matrix(15.333333,0,0,11.5,414.99999,878.8622)"
           d="m -24 13 c 0 1.105 -0.672 2 -1.5 2 -0.828 0 -1.5 -0.895 -1.5 -2 0 -1.105 0.672 -2 1.5 -2 0.828 0 1.5 0.895 1.5 2 z" />
      </g>
    </clipPath>
    <clipPath
       id="clipPath-104583878">
      <g
         id="g3026"
         transform="translate(0,-1004.3622)">
        <path
           id="path3028"
           fill="#1890d0"
           transform="matrix(15.333333,0,0,11.5,414.99999,878.8622)"
           d="m -24 13 c 0 1.105 -0.672 2 -1.5 2 -0.828 0 -1.5 -0.895 -1.5 -2 0 -1.105 0.672 -2 1.5 -2 0.828 0 1.5 0.895 1.5 2 z" />
      </g>
    </clipPath>
    <linearGradient
       gradientTransform="matrix(0,-1,1,0,-1.5e-6,47.999998)"
       gradientUnits="userSpaceOnUse"
       x2="47"
       x1="1"
       id="linearGradient3764-8">
      <stop
         id="stop3021"
         stop-opacity="1"
         stop-color="#7252a2" />
      <stop
         id="stop3023"
         stop-opacity="1"
         stop-color="#7c5bac"
         offset="1" />
    </linearGradient>
    <linearGradient
       inkscape:collect="always"
       xlink:href="#linearGradient3893"
       id="linearGradient3899"
       x1="24"
       y1="1050.3622"
       x2="24"
       y2="1006.3622"
       gradientUnits="userSpaceOnUse" />
  </defs>
  <sodipodi:namedview
     id="base"
     pagecolor="#ffffff"
     bordercolor="#666666"
     borderopacity="1.0"
     inkscape:pageopacity="0.0"
     inkscape:pageshadow="2"
     inkscape:zoom="2.8958332"
     inkscape:cx="53.496573"
     inkscape:cy="1.5440301"
     inkscape:document-units="px"
     inkscape:current-layer="layer1"
     showgrid="true"
     inkscape:snap-bbox="true"
     inkscape:window-width="1301"
     inkscape:window-height="744"
     inkscape:window-x="65"
     inkscape:window-y="24"
     inkscape:window-maximized="1"
     inkscape:snap-global="true"
     inkscape:snap-nodes="true"
     inkscape:snap-object-midpoints="true">
    <inkscape:grid
       type="xygrid"
       id="grid2985"
       empspacing="6"
       visible="true"
       enabled="true"
       snapvisiblegridlinesonly="true" />
  </sodipodi:namedview>
  <metadata
     id="metadata7">
    <rdf:RDF>
      <cc:Work
         rdf:about="">
        <dc:format>image/svg+xml</dc:format>
        <dc:type
           rdf:resource="http://purl.org/dc/dcmitype/StillImage" />
        <dc:title />
      </cc:Work>
    </rdf:RDF>
  </metadata>
  <g
     inkscape:label="Layer 1"
     inkscape:groupmode="layer"
     id="layer1"
     transform="translate(0,-1004.3622)">
    <path
       id="path3788"
       d="m 24,1051.1116 c -21.2715315,0 -23.66257505,-0.089 -23.9375,-15.4063 0.328125,14.4033 2.9375,14.4063 23.9375,14.4063 21,0 23.609375,0 23.9375,-14.4063 -0.274925,15.3174 -2.665968,15.4063 -23.9375,15.4063 z"
       style="opacity:0.20000000000000001;fill:#ffffff;fill-opacity:1;stroke:none"
       inkscape:connector-curvature="0" />
    <path
       style="fill:url(#linearGradient3899);fill-opacity:1;stroke:none"
       d="m 24,1006.3622 c -24,0 -24,0 -24,22 0,22 0,22 24,22 24,0 24,0 24,-22 0,-22 0,-22 -24,-22 z"
       id="path3757"
       inkscape:connector-curvature="0"
       sodipodi:nodetypes="zzzzz" />
    <path
       style="fill:#000000;fill-opacity:1;stroke:none;opacity:0.20000000000000001"
       d="M 24 2 C 2.7284685 2 0.33742495 2.0888436 0.0625 17.40625 C 0.390625 3.0029297 3 3 24 3 C 45 3 47.609375 3.0029297 47.9375 17.40625 C 47.662575 2.0888436 45.271532 2 24 2 z "
       transform="translate(0,1004.3622)"
       id="path3770" />
    <path
       style="fill:#000000;fill-opacity:1;stroke:none;opacity:0.20000000000000001"
       d="M 24 2 C 7.2405624 2 2.2369698 2.0788791 0.71875 9.59375 C 2.3300781 2.5289866 7.5 2.53125 24 2.53125 C 40.5 2.53125 45.669922 2.5289866 47.28125 9.59375 C 45.76303 2.0788791 40.759438 2 24 2 z M 47.28125 9.59375 C 47.354492 9.9148756 47.409424 10.242768 47.46875 10.59375 C 47.41561 10.240351 47.346891 9.9186608 47.28125 9.59375 z M 0.71875 9.59375 C 0.65310868 9.9186608 0.58439008 10.240351 0.53125 10.59375 C 0.59057617 10.242768 0.64550781 9.9148756 0.71875 9.59375 z "
       transform="translate(0,1004.3622)"
       id="path3012" />
    <g
       id="g3032"
       transform="translate(48,1007.3622)" />
    <g
       id="g3824"
       transform="translate(-52.998,1003.3622)" />
    <g
       id="g3037"
       transform="translate(25.002,1002.3625)" />
    <g
       id="g3808"
       transform="translate(19.002,1011.3625)" />
    <g
       id="g3795"
       style="stroke-width:2;stroke-miterlimit:4;stroke-dasharray:none"
       transform="translate(72,-1.9997)" />
    <g
       id="g3029"
       transform="translate(-62.999999,996.3622)" />
    <g
       id="g3047"
       transform="translate(-67.1395,994.2217)" />
    <g
       id="g3049"
       transform="translate(0.10893609,1004.4333)">
      <g
         clip-path="url(#clipPath-104583878)"
         id="g3051">
        <g
           transform="translate(1,1)"
           id="g3053">
          <g
             style="opacity:0.1"
             id="g3055">
            <!-- color: #7c5bac -->
            <g
               id="g3057">
              <path
                 style="fill:#000000;fill-opacity:1;fill-rule:nonzero;stroke:none"
                 inkscape:connector-curvature="0"
                 d="m 21.68,22.691 c -0.137,0.012 -0.422,0.059 -0.73,0.121 -1.391,0.285 -2.504,0.773 -3.152,1.398 -0.133,0.125 -0.309,0.332 -0.309,0.359 0,0.004 0.004,0.008 0.016,0.008 0.051,0 4.184,-1.152 4.234,-1.184 -0.004,0 -0.93,0.254 -2.059,0.566 -1.125,0.313 -2.07,0.563 -2.098,0.566 0,0 -0.004,0 -0.008,0 -0.012,-0.004 -0.02,-0.004 -0.027,0 0.004,0.004 0.004,0.008 0.016,0.008 l -0.031,0.016 0.016,-0.023 0.027,-0.043 c 0.004,0 0.016,-0.008 0.023,-0.016 l -0.051,0.059 0.059,-0.016 c 0.035,-0.008 0.973,-0.266 2.094,-0.574 l 2.039,-0.559 c 0,0 0,0.008 0,0.008 0,0 0.02,0 0.02,0 0.031,-0.031 0.031,-0.676 0,-0.703 -0.008,-0.004 -0.035,-0.004 -0.078,0 m 0,0"
                 id="path3059" />
              <path
                 style="fill:#000000;fill-opacity:1;fill-rule:nonzero;stroke:none"
                 inkscape:connector-curvature="0"
                 d="m 30.844,11.934 c -0.191,0.016 -0.363,0.109 -0.516,0.293 -0.168,0.207 -0.254,0.48 -0.23,0.73 0.035,0.363 0.145,0.66 0.582,1.531 0.242,0.48 0.32,0.672 0.402,1.055 0.117,0.543 0.164,1.016 0.164,1.648 0,0.578 -0.035,1 -0.129,1.551 -0.082,0.484 -0.219,1.063 -0.25,1.055 -0.043,-0.016 -0.098,-0.465 -0.137,-1.125 -0.047,-0.773 -0.086,-1.082 -0.152,-1.387 -0.18,-0.813 -0.582,-1.156 -1.242,-1.055 -0.188,0.027 -0.488,0.117 -0.516,0.152 -0.012,0.016 0.055,0.25 0.238,0.781 0.148,0.418 0.266,0.766 0.266,0.773 0,0.023 -0.105,0.059 -0.129,0.043 -0.012,-0.012 -0.113,-0.16 -0.23,-0.328 -0.242,-0.352 -0.363,-0.523 -0.531,-0.719 -0.445,-0.531 -0.93,-0.785 -1.43,-0.754 -0.184,0.008 -0.461,0.063 -0.508,0.102 -0.031,0.027 -0.023,0.078 0.602,2.355 l 0.641,2.324 -0.145,1.422 c -0.078,0.785 -0.156,1.441 -0.164,1.465 -0.012,0.039 -0.016,0.043 -0.273,0.043 -0.145,0 -0.438,-0.012 -0.652,-0.023 -0.465,-0.031 -1.051,-0.039 -1.25,-0.012 -0.203,0.031 -0.496,0.105 -0.77,0.199 -0.859,0.293 -1.609,0.813 -2.238,1.563 -0.578,0.691 -1.07,1.563 -1.551,2.77 -0.145,0.359 -0.461,1.23 -0.531,1.469 -0.184,0.582 -0.285,1.199 -0.301,1.867 -0.016,0.598 0.031,1.086 0.152,1.586 0.145,0.586 0.363,1.039 0.66,1.422 0.074,0.094 0.148,0.172 0.234,0.258 0.004,0.004 0.004,0.004 0.008,0.008 0.004,0.004 0.004,0.008 0.008,0.008 0,0.004 0,0.008 0,0.012 0.383,0.383 0.805,0.609 1.336,0.719 0.383,0.078 1.047,0.09 1.047,0.016 0,-0.012 -0.117,-0.355 -0.258,-0.762 -0.141,-0.406 -0.258,-0.742 -0.258,-0.754 0,-0.02 0.07,-0.059 0.105,-0.059 0.008,0 0.098,0.121 0.195,0.273 0.398,0.605 0.707,0.953 1.055,1.191 0.207,0.141 0.477,0.25 0.695,0.281 0.133,0.02 0.449,0.02 0.582,-0.012 0.16,-0.031 0.324,-0.086 0.344,-0.105 0.004,-0.004 -0.012,-0.023 -0.02,-0.035 0.004,0.012 -0.012,0.016 -0.023,0.02 -0.02,0.016 -0.043,0.027 -0.105,0.047 -0.035,0.012 -0.063,0.016 -0.102,0.023 0.004,-0.004 0.012,-0.008 0.016,-0.008 0.094,-0.023 0.176,-0.055 0.191,-0.066 0.012,-0.008 -0.082,-0.18 -0.277,-0.48 0.094,0.145 0.219,0.328 0.242,0.371 -0.004,0 0,0.016 0.008,0.023 0.012,0.023 0.02,0.035 0.027,0.035 0.004,0 -0.004,-0.012 -0.008,-0.02 0,0.004 0.031,0.047 0.031,0.051 -0.027,-0.07 -0.148,-0.273 -0.469,-0.781 -0.531,-0.828 -0.551,-0.863 -0.543,-0.875 0.004,-0.004 0.094,0.055 0.199,0.137 0.676,0.527 1.363,0.898 1.988,1.07 0.785,0.223 1.52,0.113 2.082,-0.309 0.18,-0.133 0.355,-0.316 0.352,-0.34 -0.004,-0.02 -0.656,-0.293 -1.449,-0.617 -0.793,-0.328 -1.445,-0.609 -1.449,-0.621 -0.008,-0.031 0.617,0.008 1.297,0.078 0.219,0.02 0.57,0.063 0.789,0.086 0.699,0.074 0.855,0.086 1.336,0.086 0.512,0 0.734,-0.023 1.125,-0.105 0.602,-0.129 1.25,-0.434 1.781,-0.832 0.215,-0.156 0.32,-0.262 0.309,-0.273 -0.008,-0.02 -0.855,-0.008 -2.504,0 -1.695,0.008 -2.465,0 -2.492,-0.02 -0.008,0 -0.016,0.012 -0.02,0 -0.012,-0.016 0.172,-0.512 0.199,-0.539 0.008,-0.008 0.07,0.02 0.137,0.059 1.141,0.68 3.598,0.504 5.383,-0.383 0.512,-0.266 0.848,-0.496 1.184,-0.832 0.398,-0.402 0.633,-0.848 0.668,-1.27 0.008,-0.125 0.004,-0.129 -0.027,-0.129 -0.035,0 -0.66,0.172 -0.992,0.273 -0.125,0.039 -0.441,0.141 -0.703,0.227 -1.73,0.547 -2.449,0.691 -3.387,0.711 -0.535,0.008 -1.02,-0.02 -1,-0.063 0.02,-0.059 0.75,-0.313 1.242,-0.438 0.426,-0.102 0.648,-0.145 1.629,-0.352 1.453,-0.293 1.98,-0.43 2.625,-0.684 1.355,-0.539 2.121,-1.422 2.363,-2.699 0.063,-0.336 0.102,-0.918 0.063,-0.918 -0.012,0 -0.707,0.391 -1.555,0.863 -0.848,0.477 -1.547,0.855 -1.559,0.852 -0.023,-0.016 -0.125,-0.238 -0.113,-0.25 0.004,-0.004 0.113,-0.063 0.25,-0.137 0.648,-0.352 1.145,-0.719 1.68,-1.25 1,-1 1.59,-2.152 1.73,-3.387 0.039,-0.332 0.027,-0.941 -0.023,-1.246 -0.063,-0.359 -0.207,-0.891 -0.25,-0.906 -0.012,-0.004 -0.617,0.871 -1.336,1.938 -1.52,2.246 -1.602,2.359 -1.613,2.352 -0.027,-0.02 0.336,-0.668 0.941,-1.684 0.266,-0.438 0.547,-0.91 0.629,-1.055 0.195,-0.348 0.469,-0.926 0.574,-1.199 0.367,-0.957 0.418,-1.77 0.16,-2.543 -0.074,-0.227 -0.254,-0.594 -0.395,-0.809 -0.137,-0.211 -0.344,-0.477 -0.367,-0.469 -0.008,0 -0.426,0.984 -0.926,2.184 l -0.91,2.18 -1.258,2.148 c -1.262,2.156 -1.316,2.262 -1.328,2.246 -0.012,-0.008 0.105,-0.332 0.223,-0.625 0.293,-0.73 0.598,-1.313 1.43,-2.742 0.531,-0.914 0.773,-1.34 0.988,-1.766 0.668,-1.328 0.988,-2.398 1.07,-3.566 0.016,-0.238 0.016,-0.352 0,-0.504 -0.086,-0.809 -0.367,-1.813 -0.668,-2.375 -0.176,-0.328 -0.402,-0.59 -0.602,-0.688 -0.09,-0.043 -0.121,-0.051 -0.266,-0.051 -0.148,0 -0.176,0.008 -0.293,0.059 -0.277,0.133 -0.359,0.34 -0.359,0.867 0,0.285 0.023,0.504 0.113,1.141 l 0.059,0.445 -0.008,0.504 c -0.008,0.504 -0.016,0.664 -0.07,1.133 -0.113,1.031 -0.391,2.215 -0.805,3.473 -0.156,0.473 -0.387,1.133 -0.41,1.172 -0.059,0.094 0.086,-0.586 0.387,-1.809 0.488,-2 0.605,-2.719 0.625,-3.727 0.012,-0.699 -0.035,-1.184 -0.164,-1.75 -0.078,-0.34 -0.109,-0.43 -0.223,-0.66 -0.32,-0.648 -0.879,-1.34 -1.336,-1.637 -0.238,-0.156 -0.453,-0.219 -0.645,-0.207 m 0.004,-0.004"
                 id="path3061" />
              <path
                 style="fill:#000000;fill-opacity:1;fill-rule:nonzero;stroke:none"
                 inkscape:connector-curvature="0"
                 d="m 24.664,17.398 c -0.164,0.004 -0.348,0.02 -0.449,0.039 -0.641,0.109 -1.152,0.344 -1.418,0.668 -0.211,0.25 -0.266,0.566 -0.16,0.871 0.016,0.043 0.02,0.078 0.012,0.086 -0.004,0.008 -0.637,0.078 -1.395,0.16 -0.621,0.063 -0.961,0.105 -1.141,0.133 -0.027,0.004 -0.148,0.02 -0.16,0.023 -0.004,0 -0.094,0.012 -0.098,0.012 0,0.004 0,0.016 0,0.023 l 0,0.027 c 0.008,0.055 0.043,0.168 0.109,0.41 0.125,0.43 0.152,0.52 0.137,0.52 -0.004,0 -0.078,-0.047 -0.148,-0.098 -0.285,-0.203 -0.547,-0.301 -0.824,-0.313 -0.309,-0.02 -0.496,0.063 -0.715,0.273 -0.008,0.004 -0.008,0.008 -0.012,0.02 -0.113,0.102 -0.16,0.148 -0.234,0.305 -0.102,0.215 -0.152,0.414 -0.168,0.668 -0.016,0.293 0.051,0.664 0.156,0.91 l 0.039,0.082 0.145,0 c 0.082,0 0.105,-0.004 0.133,-0.023 0.008,-0.004 0.016,0 0.023,-0.012 0.012,-0.023 0.02,-0.023 0.012,-0.023 l 0.039,-0.051 c 0.012,-0.012 0.023,-0.016 0.035,-0.035 0.152,-0.23 0.43,-0.406 0.754,-0.484 0.219,-0.055 0.625,-0.055 0.898,0 0.984,0.195 1.723,0.859 1.688,1.527 -0.012,0.18 -0.074,0.305 -0.23,0.461 -0.133,0.133 -0.313,0.254 -0.609,0.414 -0.102,0.059 -0.266,0.148 -0.375,0.207 -0.109,0.059 -0.273,0.152 -0.352,0.207 -0.156,0.102 -0.352,0.273 -0.352,0.316 0,0.035 0.105,0.043 0.52,0 0.18,-0.023 0.32,-0.051 0.477,-0.074 0.746,-0.105 1.246,-0.254 1.637,-0.512 0.371,-0.238 0.648,-0.613 0.754,-1.023 0.016,-0.063 0.039,-0.105 0.047,-0.105 0.012,0 0.078,0.027 0.148,0.07 0.438,0.273 0.801,0.367 1.105,0.309 0.27,-0.063 0.527,-0.223 1.012,-0.633 0.125,-0.109 0.242,-0.207 0.254,-0.207 0.012,0 0.105,0.227 0.219,0.484 0.109,0.266 0.215,0.48 0.23,0.496 0.023,0.031 0.055,0.031 0.461,-0.035 0.23,-0.039 0.43,-0.078 0.438,-0.086 0.023,-0.02 -0.066,-0.332 -0.145,-0.52 -0.133,-0.316 -0.363,-0.578 -0.633,-0.75 -0.16,-0.105 -0.41,-0.23 -0.801,-0.379 -0.426,-0.164 -0.637,-0.273 -0.84,-0.398 -0.199,-0.137 -0.398,-0.32 -0.375,-0.34 0.008,-0.012 0.082,-0.035 0.152,-0.066 0.605,-0.207 1.02,-0.602 1.289,-1.234 0.109,-0.266 0.203,-0.605 0.355,-1.266 0.063,-0.301 0.145,-0.641 0.184,-0.754 0.031,-0.109 0.051,-0.219 0.047,-0.227 0,0 -0.02,0.012 -0.023,0.012 -0.059,0.012 -0.398,0.176 -1.238,0.594 -0.691,0.348 -1.266,0.625 -1.277,0.621 -0.008,-0.004 0.211,-0.207 0.488,-0.449 0.277,-0.242 0.523,-0.453 0.547,-0.473 0.012,-0.016 0.016,-0.031 0.023,-0.051 0.008,-0.023 0.012,-0.055 0.012,-0.133 0,-0.148 -0.004,-0.152 -0.047,-0.172 -0.039,-0.02 -0.188,-0.023 -0.355,-0.023 m -3.105,2.66 c 0.043,-0.008 0.09,-0.004 0.133,0 0.402,0.016 0.668,0.363 0.668,0.363 -0.891,0.551 -1.395,-0.121 -1.395,-0.121 0,0 0.293,-0.199 0.598,-0.242 m 0,0"
                 id="path3063" />
              <path
                 style="fill:#000000;fill-opacity:0.878;fill-rule:nonzero;stroke:none"
                 inkscape:connector-curvature="0"
                 d="m 14.09,22.984 c -0.207,0.012 -0.469,0.074 -0.637,0.152 -0.473,0.227 -0.75,0.633 -0.883,1.277 -0.078,0.379 -0.09,0.586 -0.094,1.586 -0.004,0.523 -0.012,0.953 -0.016,0.961 -0.008,0.008 -0.031,-0.012 -0.063,-0.043 -0.105,-0.125 -0.242,-0.344 -0.438,-0.73 -0.07,-0.141 -0.137,-0.234 -0.191,-0.34 -0.031,-0.059 -0.078,-0.164 -0.094,-0.191 -0.105,-0.156 -0.297,-0.355 -0.434,-0.445 -0.105,-0.074 -0.277,-0.137 -0.395,-0.137 -0.324,0 -0.613,0.301 -0.703,0.73 -0.082,0.41 0.082,0.754 0.422,0.883 0.055,0.02 0.145,0.031 0.313,0.035 0.125,0 0.238,0.008 0.25,0.016 0.004,0.008 0.027,0.078 0.059,0.152 0.074,0.223 0.258,0.586 0.539,1.055 0.297,0.496 0.484,0.859 0.563,1.082 0.09,0.238 0.492,1.809 0.551,2.117 0.051,0.27 0.063,0.512 0.031,0.641 -0.012,0.059 -0.063,0.219 -0.117,0.352 -0.152,0.371 -0.164,0.508 -0.063,0.797 0.211,0.578 0.578,0.973 1.105,1.191 0.133,0.059 0.156,0.063 0.188,-0.016 0.074,-0.172 0.168,-0.539 0.199,-0.797 0.051,-0.422 0.012,-0.719 -0.207,-1.688 -0.102,-0.449 -0.18,-0.996 -0.145,-0.996 0.008,0 0.074,0.047 0.145,0.102 0.07,0.059 0.305,0.246 0.523,0.414 0.566,0.434 0.637,0.492 1.285,1.129 0.246,0.242 0.422,0.406 0.574,0.543 0.305,0.266 0.484,0.383 0.738,0.469 0.137,0.047 0.191,0.063 0.309,0.063 0.285,0 0.414,-0.121 0.43,-0.395 0.008,-0.195 -0.051,-0.418 -0.207,-0.738 -0.152,-0.313 -0.277,-0.473 -0.516,-0.703 -0.277,-0.266 -0.531,-0.453 -1.363,-0.984 -0.703,-0.453 -1.02,-0.688 -1.293,-0.961 -0.359,-0.363 -0.516,-0.664 -0.531,-1.055 -0.016,-0.32 0.066,-0.527 0.273,-0.738 0.215,-0.215 0.449,-0.332 1.141,-0.574 0.73,-0.254 1,-0.414 1.125,-0.66 0.039,-0.086 0.039,-0.113 0.039,-0.254 0,-0.141 0,-0.176 -0.031,-0.242 -0.16,-0.305 -0.641,-0.484 -1.414,-0.531 l -0.199,-0.008 -0.66,0.66 c -0.359,0.359 -0.664,0.648 -0.668,0.641 -0.004,-0.004 0.152,-0.852 0.355,-1.883 0.199,-1.035 0.367,-1.895 0.367,-1.914 0,-0.027 -0.02,-0.035 -0.168,-0.023 m 0,0"
                 id="path3065" />
            </g>
          </g>
        </g>
      </g>
    </g>
    <g
       id="g3067"
       transform="translate(0.10893609,1004.4333)">
      <g
         clip-path="url(#clipPath-120312721)"
         id="g3069">
        <!-- color: #7c5bac -->
        <g
           id="g3071">
          <path
             style="fill:#ffffff;fill-opacity:1;fill-rule:nonzero;stroke:none"
             inkscape:connector-curvature="0"
             d="m 21.68,22.691 c -0.137,0.012 -0.422,0.059 -0.73,0.121 -1.391,0.285 -2.504,0.773 -3.152,1.398 -0.133,0.125 -0.309,0.332 -0.309,0.359 0,0.004 0.004,0.008 0.016,0.008 0.051,0 4.184,-1.152 4.234,-1.184 -0.004,0 -0.93,0.254 -2.059,0.566 -1.125,0.313 -2.07,0.563 -2.098,0.566 0,0 -0.004,0 -0.008,0 -0.012,-0.004 -0.02,-0.004 -0.027,0 0.004,0.004 0.004,0.008 0.016,0.008 l -0.031,0.016 0.016,-0.023 0.027,-0.043 c 0.004,0 0.016,-0.008 0.023,-0.016 l -0.051,0.059 0.059,-0.016 c 0.035,-0.008 0.973,-0.266 2.094,-0.574 l 2.039,-0.559 c 0,0 0,0.008 0,0.008 0,0 0.02,0 0.02,0 0.031,-0.031 0.031,-0.676 0,-0.703 -0.008,-0.004 -0.035,-0.004 -0.078,0 m 0,0"
             id="path3073" />
          <path
             style="fill:#ffffff;fill-opacity:1;fill-rule:nonzero;stroke:none"
             inkscape:connector-curvature="0"
             d="m 30.844,11.934 c -0.191,0.016 -0.363,0.109 -0.516,0.293 -0.168,0.207 -0.254,0.48 -0.23,0.73 0.035,0.363 0.145,0.66 0.582,1.531 0.242,0.48 0.32,0.672 0.402,1.055 0.117,0.543 0.164,1.016 0.164,1.648 0,0.578 -0.035,1 -0.129,1.551 -0.082,0.484 -0.219,1.063 -0.25,1.055 -0.043,-0.016 -0.098,-0.465 -0.137,-1.125 -0.047,-0.773 -0.086,-1.082 -0.152,-1.387 -0.18,-0.813 -0.582,-1.156 -1.242,-1.055 -0.188,0.027 -0.488,0.117 -0.516,0.152 -0.012,0.016 0.055,0.25 0.238,0.781 0.148,0.418 0.266,0.766 0.266,0.773 0,0.023 -0.105,0.059 -0.129,0.043 -0.012,-0.012 -0.113,-0.16 -0.23,-0.328 -0.242,-0.352 -0.363,-0.523 -0.531,-0.719 -0.445,-0.531 -0.93,-0.785 -1.43,-0.754 -0.184,0.008 -0.461,0.063 -0.508,0.102 -0.031,0.027 -0.023,0.078 0.602,2.355 l 0.641,2.324 -0.145,1.422 c -0.078,0.785 -0.156,1.441 -0.164,1.465 -0.012,0.039 -0.016,0.043 -0.273,0.043 -0.145,0 -0.438,-0.012 -0.652,-0.023 -0.465,-0.031 -1.051,-0.039 -1.25,-0.012 -0.203,0.031 -0.496,0.105 -0.77,0.199 -0.859,0.293 -1.609,0.813 -2.238,1.563 -0.578,0.691 -1.07,1.563 -1.551,2.77 -0.145,0.359 -0.461,1.23 -0.531,1.469 -0.184,0.582 -0.285,1.199 -0.301,1.867 -0.016,0.598 0.031,1.086 0.152,1.586 0.145,0.586 0.363,1.039 0.66,1.422 0.074,0.094 0.148,0.172 0.234,0.258 0.004,0.004 0.004,0.004 0.008,0.008 0.004,0.004 0.004,0.008 0.008,0.008 0,0.004 0,0.008 0,0.012 0.383,0.383 0.805,0.609 1.336,0.719 0.383,0.078 1.047,0.09 1.047,0.016 0,-0.012 -0.117,-0.355 -0.258,-0.762 -0.141,-0.406 -0.258,-0.742 -0.258,-0.754 0,-0.02 0.07,-0.059 0.105,-0.059 0.008,0 0.098,0.121 0.195,0.273 0.398,0.605 0.707,0.953 1.055,1.191 0.207,0.141 0.477,0.25 0.695,0.281 0.133,0.02 0.449,0.02 0.582,-0.012 0.16,-0.031 0.324,-0.086 0.344,-0.105 0.004,-0.004 -0.012,-0.023 -0.02,-0.035 0.004,0.012 -0.012,0.016 -0.023,0.02 -0.02,0.016 -0.043,0.027 -0.105,0.047 -0.035,0.012 -0.063,0.016 -0.102,0.023 0.004,-0.004 0.012,-0.008 0.016,-0.008 0.094,-0.023 0.176,-0.055 0.191,-0.066 0.012,-0.008 -0.082,-0.18 -0.277,-0.48 0.094,0.145 0.219,0.328 0.242,0.371 -0.004,0 0,0.016 0.008,0.023 0.012,0.023 0.02,0.035 0.027,0.035 0.004,0 -0.004,-0.012 -0.008,-0.02 0,0.004 0.031,0.047 0.031,0.051 -0.027,-0.07 -0.148,-0.273 -0.469,-0.781 -0.531,-0.828 -0.551,-0.863 -0.543,-0.875 0.004,-0.004 0.094,0.055 0.199,0.137 0.676,0.527 1.363,0.898 1.988,1.07 0.785,0.223 1.52,0.113 2.082,-0.309 0.18,-0.133 0.355,-0.316 0.352,-0.34 -0.004,-0.02 -0.656,-0.293 -1.449,-0.617 -0.793,-0.328 -1.445,-0.609 -1.449,-0.621 -0.008,-0.031 0.617,0.008 1.297,0.078 0.219,0.02 0.57,0.063 0.789,0.086 0.699,0.074 0.855,0.086 1.336,0.086 0.512,0 0.734,-0.023 1.125,-0.105 0.602,-0.129 1.25,-0.434 1.781,-0.832 0.215,-0.156 0.32,-0.262 0.309,-0.273 -0.008,-0.02 -0.855,-0.008 -2.504,0 -1.695,0.008 -2.465,0 -2.492,-0.02 -0.008,0 -0.016,0.012 -0.02,0 -0.012,-0.016 0.172,-0.512 0.199,-0.539 0.008,-0.008 0.07,0.02 0.137,0.059 1.141,0.68 3.598,0.504 5.383,-0.383 0.512,-0.266 0.848,-0.496 1.184,-0.832 0.398,-0.402 0.633,-0.848 0.668,-1.27 0.008,-0.125 0.004,-0.129 -0.027,-0.129 -0.035,0 -0.66,0.172 -0.992,0.273 -0.125,0.039 -0.441,0.141 -0.703,0.227 -1.73,0.547 -2.449,0.691 -3.387,0.711 -0.535,0.008 -1.02,-0.02 -1,-0.063 0.02,-0.059 0.75,-0.313 1.242,-0.438 0.426,-0.102 0.648,-0.145 1.629,-0.352 1.453,-0.293 1.98,-0.43 2.625,-0.684 1.355,-0.539 2.121,-1.422 2.363,-2.699 0.063,-0.336 0.102,-0.918 0.063,-0.918 -0.012,0 -0.707,0.391 -1.555,0.863 -0.848,0.477 -1.547,0.855 -1.559,0.852 -0.023,-0.016 -0.125,-0.238 -0.113,-0.25 0.004,-0.004 0.113,-0.063 0.25,-0.137 0.648,-0.352 1.145,-0.719 1.68,-1.25 1,-1 1.59,-2.152 1.73,-3.387 0.039,-0.332 0.027,-0.941 -0.023,-1.246 -0.063,-0.359 -0.207,-0.891 -0.25,-0.906 -0.012,-0.004 -0.617,0.871 -1.336,1.938 -1.52,2.246 -1.602,2.359 -1.613,2.352 -0.027,-0.02 0.336,-0.668 0.941,-1.684 0.266,-0.438 0.547,-0.91 0.629,-1.055 0.195,-0.348 0.469,-0.926 0.574,-1.199 0.367,-0.957 0.418,-1.77 0.16,-2.543 -0.074,-0.227 -0.254,-0.594 -0.395,-0.809 -0.137,-0.211 -0.344,-0.477 -0.367,-0.469 -0.008,0 -0.426,0.984 -0.926,2.184 l -0.91,2.18 -1.258,2.148 c -1.262,2.156 -1.316,2.262 -1.328,2.246 -0.012,-0.008 0.105,-0.332 0.223,-0.625 0.293,-0.73 0.598,-1.313 1.43,-2.742 0.531,-0.914 0.773,-1.34 0.988,-1.766 0.668,-1.328 0.988,-2.398 1.07,-3.566 0.016,-0.238 0.016,-0.352 0,-0.504 -0.086,-0.809 -0.367,-1.813 -0.668,-2.375 -0.176,-0.328 -0.402,-0.59 -0.602,-0.688 -0.09,-0.043 -0.121,-0.051 -0.266,-0.051 -0.148,0 -0.176,0.008 -0.293,0.059 -0.277,0.133 -0.359,0.34 -0.359,0.867 0,0.285 0.023,0.504 0.113,1.141 l 0.059,0.445 -0.008,0.504 c -0.008,0.504 -0.016,0.664 -0.07,1.133 -0.113,1.031 -0.391,2.215 -0.805,3.473 -0.156,0.473 -0.387,1.133 -0.41,1.172 -0.059,0.094 0.086,-0.586 0.387,-1.809 0.488,-2 0.605,-2.719 0.625,-3.727 0.012,-0.699 -0.035,-1.184 -0.164,-1.75 -0.078,-0.34 -0.109,-0.43 -0.223,-0.66 -0.32,-0.648 -0.879,-1.34 -1.336,-1.637 -0.238,-0.156 -0.453,-0.219 -0.645,-0.207 m 0.004,-0.004"
             id="path3075" />
          <path
             style="fill:#ffffff;fill-opacity:1;fill-rule:nonzero;stroke:none"
             inkscape:connector-curvature="0"
             d="m 24.664,17.398 c -0.164,0.004 -0.348,0.02 -0.449,0.039 -0.641,0.109 -1.152,0.344 -1.418,0.668 -0.211,0.25 -0.266,0.566 -0.16,0.871 0.016,0.043 0.02,0.078 0.012,0.086 -0.004,0.008 -0.637,0.078 -1.395,0.16 -0.621,0.063 -0.961,0.105 -1.141,0.133 -0.027,0.004 -0.148,0.02 -0.16,0.023 -0.004,0 -0.094,0.012 -0.098,0.012 0,0.004 0,0.016 0,0.023 l 0,0.027 c 0.008,0.055 0.043,0.168 0.109,0.41 0.125,0.43 0.152,0.52 0.137,0.52 -0.004,0 -0.078,-0.047 -0.148,-0.098 -0.285,-0.203 -0.547,-0.301 -0.824,-0.313 -0.309,-0.02 -0.496,0.063 -0.715,0.273 -0.008,0.004 -0.008,0.008 -0.012,0.02 -0.113,0.102 -0.16,0.148 -0.234,0.305 -0.102,0.215 -0.152,0.414 -0.168,0.668 -0.016,0.293 0.051,0.664 0.156,0.91 l 0.039,0.082 0.145,0 c 0.082,0 0.105,-0.004 0.133,-0.023 0.008,-0.004 0.016,0 0.023,-0.012 0.012,-0.023 0.02,-0.023 0.012,-0.023 l 0.039,-0.051 c 0.012,-0.012 0.023,-0.016 0.035,-0.035 0.152,-0.23 0.43,-0.406 0.754,-0.484 0.219,-0.055 0.625,-0.055 0.898,0 0.984,0.195 1.723,0.859 1.688,1.527 -0.012,0.18 -0.074,0.305 -0.23,0.461 -0.133,0.133 -0.313,0.254 -0.609,0.414 -0.102,0.059 -0.266,0.148 -0.375,0.207 -0.109,0.059 -0.273,0.152 -0.352,0.207 -0.156,0.102 -0.352,0.273 -0.352,0.316 0,0.035 0.105,0.043 0.52,0 0.18,-0.023 0.32,-0.051 0.477,-0.074 0.746,-0.105 1.246,-0.254 1.637,-0.512 0.371,-0.238 0.648,-0.613 0.754,-1.023 0.016,-0.063 0.039,-0.105 0.047,-0.105 0.012,0 0.078,0.027 0.148,0.07 0.438,0.273 0.801,0.367 1.105,0.309 0.27,-0.063 0.527,-0.223 1.012,-0.633 0.125,-0.109 0.242,-0.207 0.254,-0.207 0.012,0 0.105,0.227 0.219,0.484 0.109,0.266 0.215,0.48 0.23,0.496 0.023,0.031 0.055,0.031 0.461,-0.035 0.23,-0.039 0.43,-0.078 0.438,-0.086 0.023,-0.02 -0.066,-0.332 -0.145,-0.52 -0.133,-0.316 -0.363,-0.578 -0.633,-0.75 -0.16,-0.105 -0.41,-0.23 -0.801,-0.379 -0.426,-0.164 -0.637,-0.273 -0.84,-0.398 -0.199,-0.137 -0.398,-0.32 -0.375,-0.34 0.008,-0.012 0.082,-0.035 0.152,-0.066 0.605,-0.207 1.02,-0.602 1.289,-1.234 0.109,-0.266 0.203,-0.605 0.355,-1.266 0.063,-0.301 0.145,-0.641 0.184,-0.754 0.031,-0.109 0.051,-0.219 0.047,-0.227 0,0 -0.02,0.012 -0.023,0.012 -0.059,0.012 -0.398,0.176 -1.238,0.594 -0.691,0.348 -1.266,0.625 -1.277,0.621 -0.008,-0.004 0.211,-0.207 0.488,-0.449 0.277,-0.242 0.523,-0.453 0.547,-0.473 0.012,-0.016 0.016,-0.031 0.023,-0.051 0.008,-0.023 0.012,-0.055 0.012,-0.133 0,-0.148 -0.004,-0.152 -0.047,-0.172 -0.039,-0.02 -0.188,-0.023 -0.355,-0.023 m -3.105,2.66 c 0.043,-0.008 0.09,-0.004 0.133,0 0.402,0.016 0.668,0.363 0.668,0.363 -0.891,0.551 -1.395,-0.121 -1.395,-0.121 0,0 0.293,-0.199 0.598,-0.242 m 0,0"
             id="path3077" />
          <path
             style="fill:#ffffff;fill-opacity:0.878;fill-rule:nonzero;stroke:none"
             inkscape:connector-curvature="0"
             d="m 14.09,22.984 c -0.207,0.012 -0.469,0.074 -0.637,0.152 -0.473,0.227 -0.75,0.633 -0.883,1.277 -0.078,0.379 -0.09,0.586 -0.094,1.586 -0.004,0.523 -0.012,0.953 -0.016,0.961 -0.008,0.008 -0.031,-0.012 -0.063,-0.043 -0.105,-0.125 -0.242,-0.344 -0.438,-0.73 -0.07,-0.141 -0.137,-0.234 -0.191,-0.34 -0.031,-0.059 -0.078,-0.164 -0.094,-0.191 -0.105,-0.156 -0.297,-0.355 -0.434,-0.445 -0.105,-0.074 -0.277,-0.137 -0.395,-0.137 -0.324,0 -0.613,0.301 -0.703,0.73 -0.082,0.41 0.082,0.754 0.422,0.883 0.055,0.02 0.145,0.031 0.313,0.035 0.125,0 0.238,0.008 0.25,0.016 0.004,0.008 0.027,0.078 0.059,0.152 0.074,0.223 0.258,0.586 0.539,1.055 0.297,0.496 0.484,0.859 0.563,1.082 0.09,0.238 0.492,1.809 0.551,2.117 0.051,0.27 0.063,0.512 0.031,0.641 -0.012,0.059 -0.063,0.219 -0.117,0.352 -0.152,0.371 -0.164,0.508 -0.063,0.797 0.211,0.578 0.578,0.973 1.105,1.191 0.133,0.059 0.156,0.063 0.188,-0.016 0.074,-0.172 0.168,-0.539 0.199,-0.797 0.051,-0.422 0.012,-0.719 -0.207,-1.688 -0.102,-0.449 -0.18,-0.996 -0.145,-0.996 0.008,0 0.074,0.047 0.145,0.102 0.07,0.059 0.305,0.246 0.523,0.414 0.566,0.434 0.637,0.492 1.285,1.129 0.246,0.242 0.422,0.406 0.574,0.543 0.305,0.266 0.484,0.383 0.738,0.469 0.137,0.047 0.191,0.063 0.309,0.063 0.285,0 0.414,-0.121 0.43,-0.395 0.008,-0.195 -0.051,-0.418 -0.207,-0.738 -0.152,-0.313 -0.277,-0.473 -0.516,-0.703 -0.277,-0.266 -0.531,-0.453 -1.363,-0.984 -0.703,-0.453 -1.02,-0.688 -1.293,-0.961 -0.359,-0.363 -0.516,-0.664 -0.531,-1.055 -0.016,-0.32 0.066,-0.527 0.273,-0.738 0.215,-0.215 0.449,-0.332 1.141,-0.574 0.73,-0.254 1,-0.414 1.125,-0.66 0.039,-0.086 0.039,-0.113 0.039,-0.254 0,-0.141 0,-0.176 -0.031,-0.242 -0.16,-0.305 -0.641,-0.484 -1.414,-0.531 l -0.199,-0.008 -0.66,0.66 c -0.359,0.359 -0.664,0.648 -0.668,0.641 -0.004,-0.004 0.152,-0.852 0.355,-1.883 0.199,-1.035 0.367,-1.895 0.367,-1.914 0,-0.027 -0.02,-0.035 -0.168,-0.023 m 0,0"
             id="path3079" />
        </g>
      </g>
    </g>
  </g>
</svg>
