<?xml version="1.0" encoding="UTF-8" standalone="no"?>
<!-- Created with Inkscape (http://www.inkscape.org/) -->

<svg
   xmlns:dc="http://purl.org/dc/elements/1.1/"
   xmlns:cc="http://creativecommons.org/ns#"
   xmlns:rdf="http://www.w3.org/1999/02/22-rdf-syntax-ns#"
   xmlns:svg="http://www.w3.org/2000/svg"
   xmlns="http://www.w3.org/2000/svg"
   xmlns:xlink="http://www.w3.org/1999/xlink"
   xmlns:sodipodi="http://sodipodi.sourceforge.net/DTD/sodipodi-0.dtd"
   xmlns:inkscape="http://www.inkscape.org/namespaces/inkscape"
   width="48"
   height="48"
   id="svg2"
   version="1.1"
   inkscape:version="0.48.4 r9939"
   sodipodi:docname="canopy.svg">
  <sodipodi:namedview
     id="base"
     pagecolor="#ffffff"
     bordercolor="#666666"
     borderopacity="1.0"
     inkscape:pageopacity="0.0"
     inkscape:pageshadow="2"
     inkscape:zoom="11.583333"
     inkscape:cx="26.978236"
     inkscape:cy="21.913957"
     inkscape:document-units="px"
     inkscape:current-layer="layer1"
     showgrid="true"
     inkscape:snap-bbox="true"
     inkscape:window-width="1301"
     inkscape:window-height="744"
     inkscape:window-x="65"
     inkscape:window-y="24"
     inkscape:window-maximized="1"
     inkscape:snap-global="true">
    <inkscape:grid
       snapvisiblegridlinesonly="true"
       enabled="true"
       visible="true"
       empspacing="6"
       id="grid2985"
       type="xygrid" />
  </sodipodi:namedview>
  <defs
     id="defs4">
    <linearGradient
       id="linearGradient3768">
      <stop
         style="stop-color:#e0e0e0;stop-opacity:1;"
         offset="0"
         id="stop3770" />
      <stop
         style="stop-color:#f9f9f9;stop-opacity:1;"
         offset="1"
         id="stop3772" />
    </linearGradient>
    <linearGradient
       inkscape:collect="always"
       xlink:href="#linearGradient3768"
       id="linearGradient3774"
       x1="24"
       y1="1050.3622"
       x2="24"
       y2="1006.3622"
       gradientUnits="userSpaceOnUse" />
  </defs>
  <metadata
     id="metadata7">
    <rdf:RDF>
      <cc:Work
         rdf:about="">
        <dc:format>image/svg+xml</dc:format>
        <dc:type
           rdf:resource="http://purl.org/dc/dcmitype/StillImage" />
        <dc:title />
      </cc:Work>
    </rdf:RDF>
  </metadata>
  <g
     transform="translate(0,-1004.3622)"
     id="layer1"
     inkscape:groupmode="layer"
     inkscape:label="Layer 1">
    <path
       inkscape:connector-curvature="0"
       style="opacity:0.20000000000000001;fill:#ffffff;fill-opacity:1;stroke:none"
       d="m 24,1051.1116 c -21.2715315,0 -23.66257505,-0.089 -23.9375,-15.4063 0.328125,14.4033 2.9375,14.4063 23.9375,14.4063 21,0 23.609375,0 23.9375,-14.4063 -0.274925,15.3174 -2.665968,15.4063 -23.9375,15.4063 z"
       id="path3788" />
    <path
       sodipodi:nodetypes="zzzzz"
       inkscape:connector-curvature="0"
       id="path3757"
       d="m 24,1006.3622 c -24,0 -24,0 -24,22 0,22 0,22 24,22 24,0 24,0 24,-22 0,-22 0,-22 -24,-22 z"
       style="fill:url(#linearGradient3774);fill-opacity:1;stroke:none" />
    <path
       id="path3770"
       transform="translate(0,1004.3622)"
       d="M 24 2 C 2.7284685 2 0.33742495 2.0888436 0.0625 17.40625 C 0.390625 3.0029297 3 3 24 3 C 45 3 47.609375 3.0029297 47.9375 17.40625 C 47.662575 2.0888436 45.271532 2 24 2 z "
       style="fill:#000000;fill-opacity:1;stroke:none;opacity:0.20000000000000001" />
    <path
       id="path3012"
       transform="translate(0,1004.3622)"
       d="M 24 2 C 7.2405624 2 2.2369698 2.0788791 0.71875 9.59375 C 2.3300781 2.5289866 7.5 2.53125 24 2.53125 C 40.5 2.53125 45.669922 2.5289866 47.28125 9.59375 C 45.76303 2.0788791 40.759438 2 24 2 z M 47.28125 9.59375 C 47.354492 9.9148756 47.409424 10.242768 47.46875 10.59375 C 47.41561 10.240351 47.346891 9.9186608 47.28125 9.59375 z M 0.71875 9.59375 C 0.65310868 9.9186608 0.58439008 10.240351 0.53125 10.59375 C 0.59057617 10.242768 0.64550781 9.9148756 0.71875 9.59375 z "
       style="fill:#000000;fill-opacity:1;stroke:none;opacity:0.20000000000000001" />
    <g
       transform="translate(48,1007.3622)"
       id="g3032" />
    <g
       id="g3041"
       transform="translate(-72.998,1016.3622)" />
    <g
       id="g3915"
       style="opacity:0.1;fill:#000000;fill-opacity:1"
       transform="translate(0.99999945,1.0000248)">
      <path
         id="path3917"
         stroke-miterlimit="4"
         d="m 23.857839,1016.3662 c -0.989146,0 -1.922723,0.08 -2.759978,0.2333 -2.441377,0.4297 -2.897051,1.3225 -2.897051,2.9749 l 0,2.1821 5.786692,0 0,0.726 -7.957628,0 c -1.681919,0 -3.156379,1.0002 -3.626871,2.9008 -0.518653,2.1895 -0.555701,3.5453 0,5.82 0.411218,1.6894 1.392956,2.9082 3.074874,2.9082 l 1.707854,0 0,-2.9082 c 0,-1.8782 1.648577,-3.5491 3.623165,-3.5491 l 6.064544,0 c 1.596711,0 3.119331,-1.315 3.119331,-2.9118 l 0,-5.1717 c 0,-1.5524 -1.559665,-2.7156 -3.119331,-2.9748 -0.996556,-0.163 -2.030159,-0.2372 -3.026715,-0.2336 m -3.11933,1.7599 c 0.596451,0 1.085467,0.4779 1.085467,1.0818 0,0.6 -0.489016,1.0891 -1.085467,1.0891 -0.600158,0 -1.08547,-0.4854 -1.08547,-1.0891 0,-0.6039 0.485312,-1.0818 1.08547,-1.0818 m 0,0"
         inkscape:connector-curvature="0"
         style="fill:#000000;fill-opacity:1;fill-rule:nonzero;stroke:none" />
      <path
         id="path3919"
         stroke-miterlimit="4"
         d="m 30.818911,1022.4825 0,2.5414 c 0,1.9708 -1.689328,3.3935 -3.623165,3.3935 l -6.342392,0 c -1.593008,0 -2.904461,1.5856 -2.904461,3.1452 l 0,5.4571 c 0,1.5523 1.363317,2.4636 2.904461,2.9081 1.830105,0.5262 3.826921,0.6298 6.016381,0 1.444821,-0.4296 2.893346,-1.267 2.893346,-2.9081 l 0,-2.1895 -5.779283,0 0,-0.7187 8.676335,0 c 1.678214,0 2.311713,-1.1595 2.900754,-2.9082 0.603861,-1.7967 0.566815,-3.5084 0,-5.82 -0.414923,-1.6448 -1.207723,-2.9008 -2.900754,-2.9008 z m -3.582414,13.8037 c 0.600156,0 1.085469,0.4852 1.085469,1.0891 0,0.6002 -0.485313,1.0817 -1.085469,1.0817 -0.596452,0 -1.074353,-0.4815 -1.074353,-1.0817 0,-0.6 0.477901,-1.0891 1.074353,-1.0891 m 0,0"
         inkscape:connector-curvature="0"
         style="fill:#000000;fill-opacity:1;fill-rule:nonzero;stroke:none" />
    </g>
    <path
       id="path3063"
       stroke-miterlimit="4"
       d="m 23.857839,1016.3662 c -0.989146,0 -1.922723,0.08 -2.759978,0.2333 -2.441377,0.4297 -2.897051,1.3225 -2.897051,2.9749 l 0,2.1821 5.786692,0 0,0.726 -7.957628,0 c -1.681919,0 -3.156379,1.0002 -3.626871,2.9008 -0.518653,2.1895 -0.555701,3.5453 0,5.82 0.411218,1.6894 1.392956,2.9082 3.074874,2.9082 l 1.707854,0 0,-2.9082 c 0,-1.8782 1.648577,-3.5491 3.623165,-3.5491 l 6.064544,0 c 1.596711,0 3.119331,-1.315 3.119331,-2.9118 l 0,-5.1717 c 0,-1.5524 -1.559665,-2.7156 -3.119331,-2.9748 -0.996556,-0.163 -2.030159,-0.2372 -3.026715,-0.2336 m -3.11933,1.7599 c 0.596451,0 1.085467,0.4779 1.085467,1.0818 0,0.6 -0.489016,1.0891 -1.085467,1.0891 -0.600158,0 -1.08547,-0.4854 -1.08547,-1.0891 0,-0.6039 0.485312,-1.0818 1.08547,-1.0818 m 0,0"
       inkscape:connector-curvature="0"
       style="fill:#546e7a;fill-opacity:1;fill-rule:nonzero;stroke:none" />
    <path
       id="path3065"
       stroke-miterlimit="4"
       d="m 30.818911,1022.4825 0,2.5414 c 0,1.9708 -1.689328,3.3935 -3.623165,3.3935 l -6.342392,0 c -1.593008,0 -2.904461,1.5856 -2.904461,3.1452 l 0,5.4571 c 0,1.5523 1.363317,2.4636 2.904461,2.9081 1.830105,0.5262 3.826921,0.6298 6.016381,0 1.444821,-0.4296 2.893346,-1.267 2.893346,-2.9081 l 0,-2.1895 -5.779283,0 0,-0.7187 8.676335,0 c 1.678214,0 2.311713,-1.1595 2.900754,-2.9082 0.603861,-1.7967 0.566815,-3.5084 0,-5.82 -0.414923,-1.6448 -1.207723,-2.9008 -2.900754,-2.9008 z m -3.582414,13.8037 c 0.600156,0 1.085469,0.4852 1.085469,1.0891 0,0.6002 -0.485313,1.0817 -1.085469,1.0817 -0.596452,0 -1.074353,-0.4815 -1.074353,-1.0817 0,-0.6 0.477901,-1.0891 1.074353,-1.0891 m 0,0"
       inkscape:connector-curvature="0"
       style="fill:#90a4ae;fill-opacity:1;fill-rule:nonzero;stroke:none" />
  </g>
</svg>
