<?xml version="1.0" encoding="UTF-8" standalone="no"?>
<!-- Created with Inkscape (http://www.inkscape.org/) -->

<svg
   xmlns:dc="http://purl.org/dc/elements/1.1/"
   xmlns:cc="http://creativecommons.org/ns#"
   xmlns:rdf="http://www.w3.org/1999/02/22-rdf-syntax-ns#"
   xmlns:svg="http://www.w3.org/2000/svg"
   xmlns="http://www.w3.org/2000/svg"
   xmlns:xlink="http://www.w3.org/1999/xlink"
   xmlns:sodipodi="http://sodipodi.sourceforge.net/DTD/sodipodi-0.dtd"
   xmlns:inkscape="http://www.inkscape.org/namespaces/inkscape"
   width="48"
   height="48"
   id="svg2"
   version="1.1"
   inkscape:version="0.48.4 r9939"
   sodipodi:docname="ccc_large.svg">
  <defs
     id="defs4">
    <linearGradient
       id="linearGradient3933">
      <stop
         style="stop-color:#bb2c43;stop-opacity:1;"
         offset="0"
         id="stop3935" />
      <stop
         style="stop-color:#b42a2a;stop-opacity:1;"
         offset="1"
         id="stop3937" />
    </linearGradient>
    <linearGradient
       id="linearGradient3779">
      <stop
         style="stop-color:#000000;stop-opacity:1;"
         offset="0"
         id="stop3781" />
      <stop
         style="stop-color:#ffffff;stop-opacity:1;"
         offset="1"
         id="stop3783" />
    </linearGradient>
    <linearGradient
       inkscape:collect="always"
       xlink:href="#linearGradient3779"
       id="linearGradient3794"
       gradientUnits="userSpaceOnUse"
       gradientTransform="translate(-40,0)"
       spreadMethod="repeat"
       x1="24"
       y1="1028.3622"
       x2="45"
       y2="1007.3622" />
    <linearGradient
       inkscape:collect="always"
       xlink:href="#linearGradient3779"
       id="linearGradient3796"
       gradientUnits="userSpaceOnUse"
       gradientTransform="translate(-40,0)"
       spreadMethod="repeat"
       x1="44"
       y1="1048.3622"
       x2="15"
       y2="1019.3622" />
    <clipPath
       id="clipPath-119101906">
      <g
         id="g3030"
         transform="translate(0,-1004.3622)">
        <path
           id="path3032"
           fill="#1890d0"
           transform="matrix(15.333333,0,0,11.5,414.99999,878.8622)"
           d="m -24 13 c 0 1.105 -0.672 2 -1.5 2 -0.828 0 -1.5 -0.895 -1.5 -2 0 -1.105 0.672 -2 1.5 -2 0.828 0 1.5 0.895 1.5 2 z" />
      </g>
    </clipPath>
    <clipPath
       id="clipPath-113001268">
      <g
         id="g3025"
         transform="translate(0,-1004.3622)">
        <path
           id="path3027"
           fill="#1890d0"
           transform="matrix(15.333333,0,0,11.5,414.99999,878.8622)"
           d="m -24 13 c 0 1.105 -0.672 2 -1.5 2 -0.828 0 -1.5 -0.895 -1.5 -2 0 -1.105 0.672 -2 1.5 -2 0.828 0 1.5 0.895 1.5 2 z" />
      </g>
    </clipPath>
    <linearGradient
       inkscape:collect="always"
       xlink:href="#linearGradient3933"
       id="linearGradient3939"
       x1="24"
       y1="1050.3622"
       x2="24"
       y2="1006.3622"
       gradientUnits="userSpaceOnUse" />
  </defs>
  <sodipodi:namedview
     id="base"
     pagecolor="#ffffff"
     bordercolor="#666666"
     borderopacity="1.0"
     inkscape:pageopacity="0.0"
     inkscape:pageshadow="2"
     inkscape:zoom="8.1906533"
     inkscape:cx="17.322833"
     inkscape:cy="22.37161"
     inkscape:document-units="px"
     inkscape:current-layer="layer1"
     showgrid="true"
     inkscape:snap-bbox="true"
     inkscape:window-width="1301"
     inkscape:window-height="744"
     inkscape:window-x="65"
     inkscape:window-y="24"
     inkscape:window-maximized="1"
     inkscape:object-nodes="true"
     showguides="true"
     inkscape:guide-bbox="true"
     inkscape:snap-nodes="false">
    <inkscape:grid
       type="xygrid"
       id="grid3003"
       empspacing="6"
       visible="true"
       enabled="true"
       snapvisiblegridlinesonly="true" />
  </sodipodi:namedview>
  <metadata
     id="metadata7">
    <rdf:RDF>
      <cc:Work
         rdf:about="">
        <dc:format>image/svg+xml</dc:format>
        <dc:type
           rdf:resource="http://purl.org/dc/dcmitype/StillImage" />
        <dc:title />
      </cc:Work>
    </rdf:RDF>
  </metadata>
  <g
     inkscape:label="Layer 1"
     inkscape:groupmode="layer"
     id="layer1"
     transform="translate(0,-1004.3622)">
    <path
       id="path3788"
       d="m 24,1051.1116 c -21.2715315,0 -23.66257505,-0.089 -23.9375,-15.4063 0.328125,14.4033 2.9375,14.4063 23.9375,14.4063 21,0 23.609375,0 23.9375,-14.4063 -0.274925,15.3174 -2.665968,15.4063 -23.9375,15.4063 z"
       style="opacity:0.20000000000000001;fill:#ffffff;fill-opacity:1;stroke:none"
       inkscape:connector-curvature="0" />
    <path
       style="fill:url(#linearGradient3939);fill-opacity:1;stroke:none"
       d="m 24,1006.3622 c -24,0 -24,0 -24,22 0,22 0,22 24,22 24,0 24,0 24,-22 0,-22 0,-22 -24,-22 z"
       id="path3757"
       inkscape:connector-curvature="0"
       sodipodi:nodetypes="zzzzz" />
    <path
       style="fill:#000000;fill-opacity:1;stroke:none;opacity:0.20000000000000001"
       d="M 24 2 C 2.7284685 2 0.33742495 2.0888436 0.0625 17.40625 C 0.390625 3.0029297 3 3 24 3 C 45 3 47.609375 3.0029297 47.9375 17.40625 C 47.662575 2.0888436 45.271532 2 24 2 z "
       transform="translate(0,1004.3622)"
       id="path3770" />
    <g
       id="g3813"
       transform="translate(-47.998,993.3622)" />
    <g
       id="g3046"
       transform="translate(50,1005.3622)" />
    <g
       id="g3048"
       transform="translate(-8.7922909e-4,1004.3622)">
      <g
         clip-path="url(#clipPath-113001268)"
         id="g3050">
        <g
           transform="translate(1,1)"
           id="g3052">
          <g
             style="opacity:0.1"
             id="g3054">
            <!-- color: #c42e46 -->
            <g
               id="g3056">
              <path
                 style="fill:#000000;fill-opacity:1;fill-rule:nonzero;stroke:none"
                 inkscape:connector-curvature="0"
                 d="m 20.305,27.586 c 0.012,1.676 -0.875,3.227 -2.316,4.066 -1.445,0.84 -3.227,0.84 -4.672,0 -1.445,-0.84 -2.328,-2.391 -2.316,-4.066 -0.012,-1.676 0.871,-3.227 2.316,-4.066 1.445,-0.844 3.227,-0.844 4.672,0 1.441,0.84 2.328,2.391 2.316,4.066 m 0,0"
                 id="path3058" />
              <path
                 style="fill:#000000;fill-opacity:1;fill-rule:nonzero;stroke:none"
                 inkscape:connector-curvature="0"
                 d="m 37,24.21 c 0.008,1.535 -0.801,2.961 -2.125,3.73 -1.324,0.77 -2.957,0.77 -4.281,0 -1.324,-0.77 -2.137,-2.195 -2.125,-3.73 -0.012,-1.535 0.801,-2.957 2.125,-3.727 1.324,-0.773 2.957,-0.773 4.281,0 1.324,0.77 2.133,2.191 2.125,3.727 m 0,0"
                 id="path3060" />
              <path
                 style="fill:#000000;fill-opacity:1;fill-rule:nonzero;stroke:none"
                 inkscape:connector-curvature="0"
                 d="m 17.06,16.336 c -1.43,0 -2.586,1.16 -2.586,2.594 0,1.43 1.16,2.594 2.586,2.594 0.191,0 0.43,-0.027 0.609,-0.066 0.445,-0.949 1.125,-1.629 1.996,-2.195 0.008,-0.066 -0.023,-0.262 -0.023,-0.328 0,-1.434 -1.16,-2.594 -2.582,-2.594 m 0,-0.004"
                 id="path3062" />
              <path
                 style="fill:#000000;stroke:#f9f9f9;stroke-width:0.141;stroke-linecap:butt;stroke-linejoin:miter;stroke-miterlimit:4;stroke-opacity:1"
                 inkscape:connector-curvature="0"
                 d="m 6.402,5.146 c -0.872,0 -1.58,0.709 -1.58,1.581 0,0.873 0.707,1.583 1.58,1.583 0.872,0 1.579,-0.711 1.579,-1.583 0,-0.873 -0.706,-1.581 -1.579,-1.581 m 0,0.072 c 0.83,0 1.504,0.675 1.504,1.509 0,0.836 -0.67,1.511 -1.504,1.511 -0.83,0 -1.505,-0.678 -1.505,-1.511 0,-0.836 0.675,-1.509 1.505,-1.509 m 0,0"
                 transform="scale(3.543307,3.543307)"
                 stroke-miterlimit="4"
                 id="path3064" />
              <path
                 style="fill:#000000;fill-opacity:1;fill-rule:nonzero;stroke:none"
                 inkscape:connector-curvature="0"
                 d="m 26.5,27.566 c -22.957,-0.547 -11.477,-0.273 0,0 m 0.227,0 c -0.934,1.023 -2.172,1.641 -3.641,1.746 -0.184,0.41 -0.285,0.973 -0.285,1.445 0,1.789 1.441,3.242 3.227,3.242 1.781,0 3.223,-1.453 3.223,-3.242 0,-1.52 -1.113,-2.844 -2.52,-3.191 m -0.004,0"
                 id="path3066" />
              <path
                 style="fill:#000000;fill-opacity:1;fill-rule:nonzero;stroke:none"
                 inkscape:connector-curvature="0"
                 d="m 18.66,22.19 c 1.254,0.492 2.406,1.441 3.289,2.602 l 7.125,-8.641 -0.914,4.273 C 38.34,5.053 23.246,13.838 18.644,22.19 m 0.016,0"
                 id="path3068" />
            </g>
          </g>
        </g>
      </g>
    </g>
    <g
       id="g3070"
       transform="translate(-8.7922909e-4,1004.3622)">
      <g
         clip-path="url(#clipPath-119101906)"
         id="g3072">
        <!-- color: #c42e46 -->
        <g
           id="g3074">
          <path
             style="fill:#f9f9f9;fill-opacity:1;fill-rule:nonzero;stroke:none"
             inkscape:connector-curvature="0"
             d="m 20.305,27.586 c 0.012,1.676 -0.875,3.227 -2.316,4.066 -1.445,0.84 -3.227,0.84 -4.672,0 -1.445,-0.84 -2.328,-2.391 -2.316,-4.066 -0.012,-1.676 0.871,-3.227 2.316,-4.066 1.445,-0.844 3.227,-0.844 4.672,0 1.441,0.84 2.328,2.391 2.316,4.066 m 0,0"
             id="path3076" />
          <path
             style="fill:#f9f9f9;fill-opacity:1;fill-rule:nonzero;stroke:none"
             inkscape:connector-curvature="0"
             d="m 37,24.21 c 0.008,1.535 -0.801,2.961 -2.125,3.73 -1.324,0.77 -2.957,0.77 -4.281,0 -1.324,-0.77 -2.137,-2.195 -2.125,-3.73 -0.012,-1.535 0.801,-2.957 2.125,-3.727 1.324,-0.773 2.957,-0.773 4.281,0 1.324,0.77 2.133,2.191 2.125,3.727 m 0,0"
             id="path3078" />
          <path
             style="fill:#f9f9f9;fill-opacity:1;fill-rule:nonzero;stroke:none"
             inkscape:connector-curvature="0"
             d="m 17.06,16.336 c -1.43,0 -2.586,1.16 -2.586,2.594 0,1.43 1.16,2.594 2.586,2.594 0.191,0 0.43,-0.027 0.609,-0.066 0.445,-0.949 1.125,-1.629 1.996,-2.195 0.008,-0.066 -0.023,-0.262 -0.023,-0.328 0,-1.434 -1.16,-2.594 -2.582,-2.594 m 0,-0.004"
             id="path3080" />
          <path
             style="fill:none;stroke:#f9f9f9;stroke-width:0.141;stroke-linecap:butt;stroke-linejoin:miter;stroke-miterlimit:4;stroke-opacity:1"
             inkscape:connector-curvature="0"
             d="m 6.402,5.146 c -0.872,0 -1.58,0.709 -1.58,1.581 0,0.873 0.707,1.583 1.58,1.583 0.872,0 1.579,-0.711 1.579,-1.583 0,-0.873 -0.706,-1.581 -1.579,-1.581 m 0,0.072 c 0.83,0 1.504,0.675 1.504,1.509 0,0.836 -0.67,1.511 -1.504,1.511 -0.83,0 -1.505,-0.678 -1.505,-1.511 0,-0.836 0.675,-1.509 1.505,-1.509 m 0,0"
             transform="scale(3.543307,3.543307)"
             stroke-miterlimit="4"
             id="path3082" />
          <path
             style="fill:#f9f9f9;fill-opacity:1;fill-rule:nonzero;stroke:none"
             inkscape:connector-curvature="0"
             d="m 26.5,27.566 c -22.957,-0.547 -11.477,-0.273 0,0 m 0.227,0 c -0.934,1.023 -2.172,1.641 -3.641,1.746 -0.184,0.41 -0.285,0.973 -0.285,1.445 0,1.789 1.441,3.242 3.227,3.242 1.781,0 3.223,-1.453 3.223,-3.242 0,-1.52 -1.113,-2.844 -2.52,-3.191 m -0.004,0"
             id="path3084" />
          <path
             style="fill:#f9f9f9;fill-opacity:1;fill-rule:nonzero;stroke:none"
             inkscape:connector-curvature="0"
             d="m 18.66,22.19 c 1.254,0.492 2.406,1.441 3.289,2.602 l 7.125,-8.641 -0.914,4.273 C 38.34,5.053 23.246,13.838 18.644,22.19 m 0.016,0"
             id="path3086" />
        </g>
      </g>
    </g>
  </g>
</svg>
