<?xml version="1.0" encoding="UTF-8" standalone="no"?>
<!-- Created with Inkscape (http://www.inkscape.org/) -->

<svg
   xmlns:dc="http://purl.org/dc/elements/1.1/"
   xmlns:cc="http://creativecommons.org/ns#"
   xmlns:rdf="http://www.w3.org/1999/02/22-rdf-syntax-ns#"
   xmlns:svg="http://www.w3.org/2000/svg"
   xmlns="http://www.w3.org/2000/svg"
   xmlns:sodipodi="http://sodipodi.sourceforge.net/DTD/sodipodi-0.dtd"
   xmlns:inkscape="http://www.inkscape.org/namespaces/inkscape"
   width="48"
   height="48"
   id="svg2"
   version="1.1"
   inkscape:version="0.48.4 r9939"
   sodipodi:docname="chrome-njkkjobcechefaoknodniidfjapgfoco-Default.svg">
  <defs
     id="defs4">
    <clipPath
       id="clipPath-944391842">
      <g
         id="g3033"
         transform="translate(0,-1004.3622)">
        <path
           id="path3035"
           fill="#1890d0"
           transform="matrix(15.333333,0,0,11.5,414.99999,878.8622)"
           d="m -24 13 c 0 1.105 -0.672 2 -1.5 2 -0.828 0 -1.5 -0.895 -1.5 -2 0 -1.105 0.672 -2 1.5 -2 0.828 0 1.5 0.895 1.5 2 z" />
      </g>
    </clipPath>
    <clipPath
       id="clipPath-934463505">
      <g
         id="g3028"
         transform="translate(0,-1004.3622)">
        <path
           id="path3030"
           fill="#1890d0"
           transform="matrix(15.333333,0,0,11.5,414.99999,878.8622)"
           d="m -24 13 c 0 1.105 -0.672 2 -1.5 2 -0.828 0 -1.5 -0.895 -1.5 -2 0 -1.105 0.672 -2 1.5 -2 0.828 0 1.5 0.895 1.5 2 z" />
      </g>
    </clipPath>
    <linearGradient
       gradientTransform="matrix(0,-1,1,0,-1.5e-6,47.999998)"
       gradientUnits="userSpaceOnUse"
       x2="47"
       x1="1"
       id="linearGradient3764-8">
      <stop
         id="stop3023"
         stop-opacity="1"
         stop-color="#506d94" />
      <stop
         id="stop3025"
         stop-opacity="1"
         stop-color="#5776a1"
         offset="1" />
    </linearGradient>
  </defs>
  <sodipodi:namedview
     id="base"
     pagecolor="#ffffff"
     bordercolor="#666666"
     borderopacity="1.0"
     inkscape:pageopacity="0.0"
     inkscape:pageshadow="2"
     inkscape:zoom="8.3821616"
     inkscape:cx="2.713342"
     inkscape:cy="13.301778"
     inkscape:document-units="px"
     inkscape:current-layer="layer1"
     showgrid="true"
     inkscape:snap-bbox="true"
     inkscape:window-width="1301"
     inkscape:window-height="744"
     inkscape:window-x="65"
     inkscape:window-y="24"
     inkscape:window-maximized="1"
     inkscape:object-nodes="false"
     inkscape:snap-nodes="false"
     showguides="true"
     inkscape:guide-bbox="true">
    <inkscape:grid
       type="xygrid"
       id="grid3005"
       empspacing="6"
       visible="true"
       enabled="true"
       snapvisiblegridlinesonly="true" />
  </sodipodi:namedview>
  <metadata
     id="metadata7">
    <rdf:RDF>
      <cc:Work
         rdf:about="">
        <dc:format>image/svg+xml</dc:format>
        <dc:type
           rdf:resource="http://purl.org/dc/dcmitype/StillImage" />
        <dc:title />
      </cc:Work>
    </rdf:RDF>
  </metadata>
  <g
     inkscape:label="Layer 1"
     inkscape:groupmode="layer"
     id="layer1"
     transform="translate(0,-1004.3622)">
    <path
       id="path3788"
       d="m 24,1051.1116 c -21.2715315,0 -23.66257505,-0.089 -23.9375,-15.4063 0.328125,14.4033 2.9375,14.4063 23.9375,14.4063 21,0 23.609375,0 23.9375,-14.4063 -0.274925,15.3174 -2.665968,15.4063 -23.9375,15.4063 z"
       style="opacity:0.20000000000000001;fill:#ffffff;fill-opacity:1;stroke:none"
       inkscape:connector-curvature="0" />
    <path
       style="fill:#516f96;fill-opacity:1;stroke:none"
       d="m 24,1006.3622 c -24,0 -24,0 -24,22 0,22 0,22 24,22 24,0 24,0 24,-22 0,-22 0,-22 -24,-22 z"
       id="path3757"
       inkscape:connector-curvature="0"
       sodipodi:nodetypes="zzzzz" />
    <g
       id="g3037"
       transform="translate(-46.998,1004.3622)" />
    <g
       id="g3808"
       transform="translate(-52.998,1013.3622)" />
    <path
       style="fill:#000000;fill-opacity:1;stroke:none;opacity:0.20000000000000001"
       d="M 24 2 C 2.7284685 2 0.33742495 2.0888436 0.0625 17.40625 C 0.390625 3.0029297 3 3 24 3 C 45 3 47.609375 3.0029297 47.9375 17.40625 C 47.662575 2.0888436 45.271532 2 24 2 z "
       transform="translate(0,1004.3622)"
       id="path3770" />
    <g
       id="g3041"
       transform="translate(-60.998,1010.3622)" />
    <g
       id="g3049"
       transform="translate(-61,1008.3622)" />
    <g
       id="g3051"
       transform="translate(0.01287863,1004.3632)">
      <g
         clip-path="url(#clipPath-934463505)"
         id="g3053">
        <g
           transform="translate(1,1)"
           id="g3055">
          <g
             style="opacity:0.1"
             id="g3057">
            <!-- color: #5776a1 -->
            <g
               id="g3059">
              <path
                 style="fill:#000000;fill-opacity:1;fill-rule:nonzero;stroke:none"
                 inkscape:connector-curvature="0"
                 d="m 21.375,11 c -0.516,0 -0.91,0.262 -1.156,0.625 -0.25,0.355 -0.348,0.801 -0.344,1.188 0.02,0.809 0.422,1.496 1,2.031 -0.957,0.426 -1.848,1.012 -2.531,1.75 -0.68,0.68 -1.332,1.445 -1.625,2.344 0.004,0.141 0.051,0.27 0.094,0.406 -0.434,0.027 -0.945,-0.039 -1.25,0.313 -0.547,0.559 -0.699,1.348 -0.969,2.031 -1.227,3.906 -0.582,8.371 2.031,11.688 1.418,1.785 3.523,3.172 5.938,3.531 1.305,0.188 2.07,0.242 3.281,-0.063 2.469,-0.496 4.578,-2.055 5.906,-4 2.457,-3.492 2.867,-8.07 1.344,-11.969 -0.203,-0.465 -0.383,-0.988 -0.781,-1.344 -0.266,-0.172 -0.617,-0.23 -0.938,-0.25 0.207,-0.391 0.09,-0.844 -0.219,-1.156 -0.941,-1.418 -2.289,-2.68 -3.938,-3.375 0.527,-0.523 0.918,-1.172 0.938,-1.938 0.004,-0.387 -0.125,-0.832 -0.375,-1.188 -0.246,-0.363 -0.641,-0.625 -1.156,-0.625 -0.172,0 -0.34,0.027 -0.5,0.125 -0.16,0.098 -0.316,0.285 -0.313,0.5 0.02,0.078 0.004,0.137 0,0.219 0,0.238 0.234,0.438 0.5,0.438 0.258,0 0.469,-0.199 0.469,-0.438 0,-0.238 -0.211,-0.434 -0.469,-0.438 0.09,-0.055 0.215,-0.09 0.313,-0.094 0.379,0 0.641,0.207 0.844,0.5 0.203,0.293 0.316,0.68 0.313,1 -0.012,0.715 -0.371,1.324 -0.906,1.813 -0.188,-0.07 -0.367,-0.137 -0.563,-0.188 -0.871,-0.227 -1.758,-0.289 -2.656,-0.281 -0.844,0.031 -1.656,0.227 -2.438,0.531 -0.574,-0.5 -0.984,-1.129 -1,-1.875 -0.004,-0.32 0.109,-0.707 0.313,-1 0.203,-0.293 0.469,-0.5 0.844,-0.5 0.098,0.004 0.223,0.039 0.313,0.094 -0.258,0.004 -0.438,0.195 -0.438,0.438 0,0.238 0.211,0.438 0.469,0.438 0.266,0 0.469,-0.199 0.469,-0.438 -0.004,-0.082 -0.02,-0.141 0,-0.219 0.008,-0.215 -0.121,-0.402 -0.281,-0.5 -0.148,-0.098 -0.352,-0.125 -0.52,-0.125 m -0.16,5.969 c 1.375,2.246 3.758,4.797 3.281,6.469 -2.031,2.777 -4.57,2.648 -6.406,0 -0.41,-1.441 1.727,-4.184 3.125,-6.469 m 7.094,7.125 c 0.977,1.602 2.652,3.402 2.313,4.594 -1.445,1.977 -3.254,1.887 -4.563,0 -0.289,-1.027 1.258,-2.969 2.25,-4.594 m -6.688,6.03 c 0.691,1.148 1.895,2.438 1.648,3.281 -1.035,1.41 -2.313,1.344 -3.25,0 -0.207,-0.727 0.883,-2.121 1.602,-3.281 m 0,0"
                 id="path3061" />
            </g>
          </g>
        </g>
      </g>
    </g>
    <g
       id="g3063"
       transform="translate(0.01287863,1004.3632)">
      <g
         clip-path="url(#clipPath-944391842)"
         id="g3065">
        <!-- color: #5776a1 -->
        <g
           id="g3067">
          <path
             style="fill:#f9f9f9;fill-opacity:1;fill-rule:nonzero;stroke:none"
             inkscape:connector-curvature="0"
             d="m 21.375,11 c -0.516,0 -0.91,0.262 -1.156,0.625 -0.25,0.355 -0.348,0.801 -0.344,1.188 0.02,0.809 0.422,1.496 1,2.031 -0.957,0.426 -1.848,1.012 -2.531,1.75 -0.68,0.68 -1.332,1.445 -1.625,2.344 0.004,0.141 0.051,0.27 0.094,0.406 -0.434,0.027 -0.945,-0.039 -1.25,0.313 -0.547,0.559 -0.699,1.348 -0.969,2.031 -1.227,3.906 -0.582,8.371 2.031,11.688 1.418,1.785 3.523,3.172 5.938,3.531 1.305,0.188 2.07,0.242 3.281,-0.063 2.469,-0.496 4.578,-2.055 5.906,-4 2.457,-3.492 2.867,-8.07 1.344,-11.969 -0.203,-0.465 -0.383,-0.988 -0.781,-1.344 -0.266,-0.172 -0.617,-0.23 -0.938,-0.25 0.207,-0.391 0.09,-0.844 -0.219,-1.156 -0.941,-1.418 -2.289,-2.68 -3.938,-3.375 0.527,-0.523 0.918,-1.172 0.938,-1.938 0.004,-0.387 -0.125,-0.832 -0.375,-1.188 -0.246,-0.363 -0.641,-0.625 -1.156,-0.625 -0.172,0 -0.34,0.027 -0.5,0.125 -0.16,0.098 -0.316,0.285 -0.313,0.5 0.02,0.078 0.004,0.137 0,0.219 0,0.238 0.234,0.438 0.5,0.438 0.258,0 0.469,-0.199 0.469,-0.438 0,-0.238 -0.211,-0.434 -0.469,-0.438 0.09,-0.055 0.215,-0.09 0.313,-0.094 0.379,0 0.641,0.207 0.844,0.5 0.203,0.293 0.316,0.68 0.313,1 -0.012,0.715 -0.371,1.324 -0.906,1.813 -0.188,-0.07 -0.367,-0.137 -0.563,-0.188 -0.871,-0.227 -1.758,-0.289 -2.656,-0.281 -0.844,0.031 -1.656,0.227 -2.438,0.531 -0.574,-0.5 -0.984,-1.129 -1,-1.875 -0.004,-0.32 0.109,-0.707 0.313,-1 0.203,-0.293 0.469,-0.5 0.844,-0.5 0.098,0.004 0.223,0.039 0.313,0.094 -0.258,0.004 -0.438,0.195 -0.438,0.438 0,0.238 0.211,0.438 0.469,0.438 0.266,0 0.469,-0.199 0.469,-0.438 -0.004,-0.082 -0.02,-0.141 0,-0.219 0.008,-0.215 -0.121,-0.402 -0.281,-0.5 -0.148,-0.098 -0.352,-0.125 -0.52,-0.125 m -0.16,5.969 c 1.375,2.246 3.758,4.797 3.281,6.469 -2.031,2.777 -4.57,2.648 -6.406,0 -0.41,-1.441 1.727,-4.184 3.125,-6.469 m 7.094,7.125 c 0.977,1.602 2.652,3.402 2.313,4.594 -1.445,1.977 -3.254,1.887 -4.563,0 -0.289,-1.027 1.258,-2.969 2.25,-4.594 m -6.688,6.03 c 0.691,1.148 1.895,2.438 1.648,3.281 -1.035,1.41 -2.313,1.344 -3.25,0 -0.207,-0.727 0.883,-2.121 1.602,-3.281 m 0,0"
             id="path3069" />
        </g>
      </g>
    </g>
  </g>
</svg>
