<?xml version="1.0" encoding="UTF-8" standalone="no"?>
<!-- Created with Inkscape (http://www.inkscape.org/) -->

<svg
   xmlns:dc="http://purl.org/dc/elements/1.1/"
   xmlns:cc="http://creativecommons.org/ns#"
   xmlns:rdf="http://www.w3.org/1999/02/22-rdf-syntax-ns#"
   xmlns:svg="http://www.w3.org/2000/svg"
   xmlns="http://www.w3.org/2000/svg"
   xmlns:xlink="http://www.w3.org/1999/xlink"
   xmlns:sodipodi="http://sodipodi.sourceforge.net/DTD/sodipodi-0.dtd"
   xmlns:inkscape="http://www.inkscape.org/namespaces/inkscape"
   width="48"
   height="48"
   id="svg2"
   version="1.1"
   inkscape:version="0.48.4 r9939"
   sodipodi:docname="chrome-clhhggbfdinjmjhajaheehoeibfljjno-Default.svg">
  <defs
     id="defs4">
    <linearGradient
       id="linearGradient3911">
      <stop
         style="stop-color:#42a5f5;stop-opacity:1;"
         offset="0"
         id="stop3913" />
      <stop
         style="stop-color:#69b8f7;stop-opacity:1;"
         offset="1"
         id="stop3915" />
    </linearGradient>
    <linearGradient
       id="linearGradient3779">
      <stop
         style="stop-color:#000000;stop-opacity:1;"
         offset="0"
         id="stop3781" />
      <stop
         style="stop-color:#ffffff;stop-opacity:1;"
         offset="1"
         id="stop3783" />
    </linearGradient>
    <linearGradient
       inkscape:collect="always"
       xlink:href="#linearGradient3779"
       id="linearGradient3794"
       gradientUnits="userSpaceOnUse"
       gradientTransform="translate(-40,0)"
       spreadMethod="repeat"
       x1="24"
       y1="1028.3622"
       x2="45"
       y2="1007.3622" />
    <linearGradient
       inkscape:collect="always"
       xlink:href="#linearGradient3779"
       id="linearGradient3796"
       gradientUnits="userSpaceOnUse"
       gradientTransform="translate(-40,0)"
       spreadMethod="repeat"
       x1="44"
       y1="1048.3622"
       x2="15"
       y2="1019.3622" />
    <linearGradient
       inkscape:collect="always"
       xlink:href="#linearGradient3911"
       id="linearGradient3917"
       x1="24"
       y1="1050.3622"
       x2="24"
       y2="1006.3622"
       gradientUnits="userSpaceOnUse" />
  </defs>
  <sodipodi:namedview
     id="base"
     pagecolor="#ffffff"
     bordercolor="#666666"
     borderopacity="1.0"
     inkscape:pageopacity="0.0"
     inkscape:pageshadow="2"
     inkscape:zoom="8.1906535"
     inkscape:cx="6.6459248"
     inkscape:cy="25.955586"
     inkscape:document-units="px"
     inkscape:current-layer="layer1"
     showgrid="true"
     inkscape:snap-bbox="true"
     inkscape:window-width="1301"
     inkscape:window-height="744"
     inkscape:window-x="65"
     inkscape:window-y="24"
     inkscape:window-maximized="1"
     inkscape:object-nodes="true">
    <inkscape:grid
       type="xygrid"
       id="grid3003"
       empspacing="6"
       visible="true"
       enabled="true"
       snapvisiblegridlinesonly="true" />
  </sodipodi:namedview>
  <metadata
     id="metadata7">
    <rdf:RDF>
      <cc:Work
         rdf:about="">
        <dc:format>image/svg+xml</dc:format>
        <dc:type
           rdf:resource="http://purl.org/dc/dcmitype/StillImage" />
        <dc:title />
      </cc:Work>
    </rdf:RDF>
  </metadata>
  <g
     inkscape:label="Layer 1"
     inkscape:groupmode="layer"
     id="layer1"
     transform="translate(0,-1004.3622)">
    <path
       id="path3788"
       d="m 24,1051.1116 c -21.2715315,0 -23.66257505,-0.089 -23.9375,-15.4063 0.328125,14.4033 2.9375,14.4063 23.9375,14.4063 21,0 23.609375,0 23.9375,-14.4063 -0.274925,15.3174 -2.665968,15.4063 -23.9375,15.4063 z"
       style="opacity:0.20000000000000001;fill:#ffffff;fill-opacity:1;stroke:none"
       inkscape:connector-curvature="0" />
    <path
       style="fill:url(#linearGradient3917);fill-opacity:1;stroke:none"
       d="m 24,1006.3622 c -24,0 -24,0 -24,22 0,22 0,22 24,22 24,0 24,0 24,-22 0,-22 0,-22 -24,-22 z"
       id="path3757"
       inkscape:connector-curvature="0"
       sodipodi:nodetypes="zzzzz" />
    <g
       id="g3790"
       transform="translate(40,0)">
      <path
         style="opacity:0.05;fill:url(#linearGradient3794);fill-opacity:1;stroke:none"
         d="m -16,1006.3622 c -24,0 -24,0 -24,22 0,22 0,22 24,22 24,0 24,0 24,-22 0,-22 0,-22 -24,-22 z"
         id="path3777"
         inkscape:connector-curvature="0"
         sodipodi:nodetypes="zzzzz" />
      <path
         sodipodi:nodetypes="zzzzz"
         inkscape:connector-curvature="0"
         id="path3787"
         d="m -16,1006.3622 c -24,0 -24,0 -24,22 0,22 0,22 24,22 24,0 24,0 24,-22 0,-22 0,-22 -24,-22 z"
         style="opacity:0.05;fill:url(#linearGradient3796);fill-opacity:1;stroke:none" />
    </g>
    <path
       style="fill:#000000;fill-opacity:1;stroke:none;opacity:0.20000000000000001"
       d="M 24 2 C 2.7284685 2 0.33742495 2.0888436 0.0625 17.40625 C 0.390625 3.0029297 3 3 24 3 C 45 3 47.609375 3.0029297 47.9375 17.40625 C 47.662575 2.0888436 45.271532 2 24 2 z "
       transform="translate(0,1004.3622)"
       id="path3770" />
    <g
       id="g3813"
       transform="translate(-47.998,993.3622)" />
    <path
       sodipodi:nodetypes="ccccccccccccccscccccccccsssc"
       style="opacity:0.2;fill:#000000;fill-opacity:1;fill-rule:nonzero;stroke:none"
       inkscape:connector-curvature="0"
       d="m 31.698833,1021.3674 c -0.637,0.039 -1.52,0.258 -3.156,0.656 -4.27,1.035 -5.594,1.055 -9.188,0.188 -2.625,-0.633 -2.758,-0.625 -3.563,0.063 -1.043,0.891 -1.047,2.398 -0.063,4.75 0.414,0.988 1.141,3.309 1.625,5.188 1.047,4.086 2.398,6.438 4.219,7.281 3.262,1.879 5.164,-0.109 6.188,-1 1.25,-1.238 2.01,-2.547 3.03,-5.281 1.422,-3.813 1.98,-5.03 3.438,-7.344 1.07,-1.711 0.684,-3.219 -1.031,-4.125 -0.504,-0.266 -0.867,-0.414 -1.5,-0.375 m -3.594,5.813 c 0.785,-0.039 1.484,0.648 1.75,1.969 0.359,1.816 -0.402,3.316 -1.656,3.316 -0.566,0 -1.363,-0.359 -1.813,-0.781 -1,-0.938 -1.035,-1.645 -0.125,-3.094 0.57,-0.906 1.227,-1.375 1.844,-1.406 m -7.969,0.719 c 1,0.059 1.961,1.801 1.531,2.941 -0.52,1.363 -1.238,1.457 -2.031,0.313 -0.824,-1.184 -0.664,-3.047 0.281,-3.219 0.063,-0.012 0.145,-0.035 0.219,-0.031 m 3.965,6.469 c 1.379,0 2.469,1.121 2.469,2.5 0,1.383 -1.09,2.5 -2.469,2.5 -1.383,0 -2.844,-2.055 -2.844,-3.438 0,-1.379 1.461,-1.563 2.844,-1.563"
       id="path3145" />
    <path
       id="path3056"
       d="m 31.126,1020.2362 c -0.637,0.039 -1.52,0.258 -3.156,0.656 -4.27,1.035 -5.594,1.055 -9.188,0.188 -2.625,-0.633 -2.758,-0.625 -3.563,0.063 -1.043,0.891 -1.047,2.398 -0.063,4.75 0.414,0.988 1.141,3.309 1.625,5.188 1.047,4.086 2.398,6.438 4.219,7.281 3.262,1.879 5.164,-0.109 6.188,-1 1.25,-1.238 2.01,-2.547 3.03,-5.281 1.422,-3.813 1.98,-5.03 3.438,-7.344 1.07,-1.711 0.684,-3.219 -1.031,-4.125 -0.504,-0.266 -0.867,-0.414 -1.5,-0.375 m -3.594,5.813 c 0.785,-0.039 1.484,0.648 1.75,1.969 0.359,1.816 -0.402,3.316 -1.656,3.316 -0.566,0 -1.363,-0.359 -1.813,-0.781 -1,-0.938 -1.035,-1.645 -0.125,-3.094 0.57,-0.906 1.227,-1.375 1.844,-1.406 m -7.969,0.719 c 1,0.059 1.961,1.801 1.531,2.941 -0.52,1.363 -1.238,1.457 -2.031,0.313 -0.824,-1.184 -0.664,-3.047 0.281,-3.219 0.063,-0.012 0.145,-0.035 0.219,-0.031 m 3.965,6.469 c 1.379,0 2.469,1.121 2.469,2.5 0,1.383 -1.09,2.5 -2.469,2.5 -1.383,0 -2.844,-2.055 -2.844,-3.438 0,-1.379 1.461,-1.563 2.844,-1.563"
       inkscape:connector-curvature="0"
       style="fill:#f9f9f9;fill-opacity:1;fill-rule:nonzero;stroke:none"
       sodipodi:nodetypes="ccccccccccccccscccccccccsssc" />
  </g>
</svg>
