<?xml version="1.0" encoding="UTF-8" standalone="no"?>
<!-- Created with Inkscape (http://www.inkscape.org/) -->

<svg
   xmlns:dc="http://purl.org/dc/elements/1.1/"
   xmlns:cc="http://creativecommons.org/ns#"
   xmlns:rdf="http://www.w3.org/1999/02/22-rdf-syntax-ns#"
   xmlns:svg="http://www.w3.org/2000/svg"
   xmlns="http://www.w3.org/2000/svg"
   xmlns:xlink="http://www.w3.org/1999/xlink"
   xmlns:sodipodi="http://sodipodi.sourceforge.net/DTD/sodipodi-0.dtd"
   xmlns:inkscape="http://www.inkscape.org/namespaces/inkscape"
   width="48"
   height="48"
   id="svg2"
   version="1.1"
   inkscape:version="0.48.4 r9939"
   sodipodi:docname="conky-manager.svg">
  <defs
     id="defs4">
    <linearGradient
       id="linearGradient3780">
      <stop
         style="stop-color:#fb8c00;stop-opacity:1;"
         offset="0"
         id="stop3782" />
      <stop
         style="stop-color:#ffa739;stop-opacity:1;"
         offset="1"
         id="stop3784" />
    </linearGradient>
    <linearGradient
       id="linearGradient3779">
      <stop
         style="stop-color:#000000;stop-opacity:1;"
         offset="0"
         id="stop3781" />
      <stop
         style="stop-color:#ffffff;stop-opacity:1;"
         offset="1"
         id="stop3783" />
    </linearGradient>
    <linearGradient
       inkscape:collect="always"
       xlink:href="#linearGradient3779"
       id="linearGradient3794"
       gradientUnits="userSpaceOnUse"
       gradientTransform="translate(-40,0)"
       spreadMethod="repeat"
       x1="24"
       y1="1028.3622"
       x2="45"
       y2="1007.3622" />
    <linearGradient
       inkscape:collect="always"
       xlink:href="#linearGradient3779"
       id="linearGradient3796"
       gradientUnits="userSpaceOnUse"
       gradientTransform="translate(-40,0)"
       spreadMethod="repeat"
       x1="44"
       y1="1048.3622"
       x2="15"
       y2="1019.3622" />
    <linearGradient
       inkscape:collect="always"
       xlink:href="#linearGradient3780"
       id="linearGradient3786"
       x1="24"
       y1="1050.3622"
       x2="24"
       y2="1006.3622"
       gradientUnits="userSpaceOnUse" />
  </defs>
  <sodipodi:namedview
     id="base"
     pagecolor="#ffffff"
     bordercolor="#666666"
     borderopacity="1.0"
     inkscape:pageopacity="0.0"
     inkscape:pageshadow="2"
     inkscape:zoom="11.583333"
     inkscape:cx="2.181974"
     inkscape:cy="13.571117"
     inkscape:document-units="px"
     inkscape:current-layer="layer1"
     showgrid="true"
     inkscape:snap-bbox="true"
     inkscape:window-width="1301"
     inkscape:window-height="744"
     inkscape:window-x="65"
     inkscape:window-y="24"
     inkscape:window-maximized="1"
     inkscape:object-nodes="true">
    <inkscape:grid
       type="xygrid"
       id="grid3003"
       empspacing="6"
       visible="true"
       enabled="true"
       snapvisiblegridlinesonly="true" />
  </sodipodi:namedview>
  <metadata
     id="metadata7">
    <rdf:RDF>
      <cc:Work
         rdf:about="">
        <dc:format>image/svg+xml</dc:format>
        <dc:type
           rdf:resource="http://purl.org/dc/dcmitype/StillImage" />
        <dc:title />
      </cc:Work>
    </rdf:RDF>
  </metadata>
  <g
     inkscape:label="Layer 1"
     inkscape:groupmode="layer"
     id="layer1"
     transform="translate(0,-1004.3622)">
    <path
       id="path3788"
       d="m 24,1051.1116 c -21.2715315,0 -23.66257505,-0.089 -23.9375,-15.4063 0.328125,14.4033 2.9375,14.4063 23.9375,14.4063 21,0 23.609375,0 23.9375,-14.4063 -0.274925,15.3174 -2.665968,15.4063 -23.9375,15.4063 z"
       style="opacity:0.20000000000000001;fill:#ffffff;fill-opacity:1;stroke:none"
       inkscape:connector-curvature="0" />
    <path
       style="fill:url(#linearGradient3786);fill-opacity:1;stroke:none"
       d="m 24,1006.3622 c -24,0 -24,0 -24,22 0,22 0,22 24,22 24,0 24,0 24,-22 0,-22 0,-22 -24,-22 z"
       id="path3757"
       inkscape:connector-curvature="0"
       sodipodi:nodetypes="zzzzz" />
    <g
       id="g3790"
       transform="translate(40,0)">
      <path
         style="opacity:0.05;fill:url(#linearGradient3794);fill-opacity:1;stroke:none"
         d="m -16,1006.3622 c -24,0 -24,0 -24,22 0,22 0,22 24,22 24,0 24,0 24,-22 0,-22 0,-22 -24,-22 z"
         id="path3777"
         inkscape:connector-curvature="0"
         sodipodi:nodetypes="zzzzz" />
      <path
         sodipodi:nodetypes="zzzzz"
         inkscape:connector-curvature="0"
         id="path3787"
         d="m -16,1006.3622 c -24,0 -24,0 -24,22 0,22 0,22 24,22 24,0 24,0 24,-22 0,-22 0,-22 -24,-22 z"
         style="opacity:0.05;fill:url(#linearGradient3796);fill-opacity:1;stroke:none" />
    </g>
    <path
       style="fill:#000000;fill-opacity:1;stroke:none;opacity:0.20000000000000001"
       d="M 24 2 C 2.7284685 2 0.33742495 2.0888436 0.0625 17.40625 C 0.390625 3.0029297 3 3 24 3 C 45 3 47.609375 3.0029297 47.9375 17.40625 C 47.662575 2.0888436 45.271532 2 24 2 z "
       transform="translate(0,1004.3622)"
       id="path3770" />
    <g
       id="g3813"
       transform="translate(-47.998,993.3622)" />
    <path
       sodipodi:type="arc"
       style="opacity:1;fill:none;fill-opacity:1;stroke:#ffe85c;stroke-opacity:1;stroke-width:0.80000000000000004;stroke-miterlimit:4;stroke-dasharray:0.80000000000000004, 0.80000000000000004;stroke-dashoffset:0"
       id="path3006"
       sodipodi:cx="24"
       sodipodi:cy="24"
       sodipodi:rx="12"
       sodipodi:ry="12"
       d="m 36,24 c 0,6.627417 -5.372583,12 -12,12 -6.627417,0 -12,-5.372583 -12,-12 0,-6.627417 5.372583,-12 12,-12 6.627417,0 12,5.372583 12,12 z"
       transform="matrix(1.25,0,0,1.25,-6,998.3622)" />
    <path
       transform="matrix(1.5833334,0,0,1.5833334,-14.000001,990.3622)"
       d="m 36,24 c 0,6.627417 -5.372583,12 -12,12 -6.627417,0 -12,-5.372583 -12,-12 0,-6.627417 5.372583,-12 12,-12 6.627417,0 12,5.372583 12,12 z"
       sodipodi:ry="12"
       sodipodi:rx="12"
       sodipodi:cy="24"
       sodipodi:cx="24"
       id="path3776"
       style="fill:none;stroke:#ffe85c;stroke-width:1.26315784000000009;stroke-miterlimit:4;stroke-opacity:1;stroke-dasharray:1.26315784000000009, 1.26315784000000009;stroke-dashoffset:0;fill-opacity:1"
       sodipodi:type="arc" />
    <path
       transform="matrix(1.0833333,0,0,1.0833333,-2,1002.3622)"
       d="m 36,24 c 0,6.627417 -5.372583,12 -12,12 -6.627417,0 -12,-5.372583 -12,-12 0,-6.627417 5.372583,-12 12,-12 6.627417,0 12,5.372583 12,12 z"
       sodipodi:ry="12"
       sodipodi:rx="12"
       sodipodi:cy="24"
       sodipodi:cx="24"
       id="path3789"
       style="fill:#1a1a1a;fill-opacity:1;stroke:none"
       sodipodi:type="arc" />
    <path
       style="fill:#000000;fill-opacity:1;stroke:none"
       d="M 24 11 C 16.820298 11 11 16.820298 11 24 C 11 24.104131 10.997565 24.208955 11 24.3125 C 11.165456 17.276714 16.924429 11.625 24 11.625 C 31.075571 11.625 36.834544 17.276714 37 24.3125 C 37.002435 24.208955 37 24.104131 37 24 C 37 16.820298 31.179702 11 24 11 z "
       transform="translate(0,1004.3622)"
       id="path3795" />
    <path
       style="fill:#ffffff;fill-opacity:1;stroke:none;opacity:0.4"
       d="M 11.0625 25.34375 C 11.596142 32.033387 17.173091 37.3125 24 37.3125 C 30.826909 37.3125 36.403858 32.033387 36.9375 25.34375 C 36.27177 31.899079 30.73097 37 24 37 C 17.26903 37 11.72823 31.899079 11.0625 25.34375 z "
       transform="translate(0,1004.3622)"
       id="path3804" />
    <g
       id="g3027"
       style="opacity:0.2;fill:#000000;fill-opacity:1"
       transform="translate(1.0359713,1.0359713)">
      <g
         style="font-size:19.15184784px;font-style:normal;font-variant:normal;font-weight:300;font-stretch:normal;text-align:center;line-height:100%;letter-spacing:0px;word-spacing:0px;text-anchor:middle;fill:#000000;fill-opacity:1;stroke:none;font-family:Terminal Dosis;-inkscape-font-specification:Terminal Dosis Light"
         id="g3029">
        <path
           d="m 16.191519,1024.1392 1.264022,-2.4514 c 0.114908,-0.2171 0.261739,-0.3256 0.440492,-0.3256 0.204284,0 0.306427,0.1085 0.30643,0.3256 l 0,13.3296 c -3e-6,0.2299 -0.114914,0.3448 -0.344733,0.3448 -0.229825,0 -0.344736,-0.1149 -0.344734,-0.3448 l 0,-11.8932 -0.823529,1.5321 c -0.07661,0.166 -0.19152,0.249 -0.344733,0.249 -0.08938,0 -0.172368,-0.032 -0.248974,-0.096 C 16.03192,1024.7453 16,1024.6689 16,1024.5795 c -10e-7,-0.038 0.06384,-0.1851 0.191519,-0.4405"
           style="fill:#000000;fill-opacity:1"
           id="path3031"
           inkscape:connector-curvature="0" />
        <path
           d="m 21.204814,1024.5797 c -10e-7,-0.9959 0.306428,-1.7811 0.919289,-2.3557 0.625624,-0.5745 1.455537,-0.8618 2.48974,-0.8618 1.021427,0 1.896027,0.3639 2.623803,1.0916 0.740531,0.7151 1.110799,1.5769 1.110808,2.5855 -9e-6,0.715 -0.236215,1.3981 -0.708619,2.0493 -0.459651,0.6512 -1.021438,1.2257 -1.685362,1.7237 -0.663936,0.4851 -1.33425,0.9512 -2.010945,1.398 -0.663933,0.4469 -1.232104,0.9257 -1.704514,1.4364 -0.459646,0.5107 -0.689468,1.0151 -0.689466,1.513 l 0,1.513 6.473324,0 c 0.08937,0 0.165975,0.038 0.229822,0.1149 0.06383,0.064 0.09575,0.1405 0.09576,0.2298 -9e-6,0.089 -0.03193,0.1724 -0.09576,0.249 -0.06385,0.064 -0.140455,0.096 -0.229822,0.096 l -6.818058,0 c -0.08938,0 -0.172367,-0.032 -0.248974,-0.096 -0.06384,-0.064 -0.09576,-0.1468 -0.09576,-0.249 l 0,-1.8577 c -1e-6,-0.4979 0.165982,-0.9895 0.497948,-1.4747 0.344732,-0.4851 0.766072,-0.9129 1.264022,-1.2831 l 1.647059,-1.2066 1.627907,-1.2257 c 0.497942,-0.3831 0.912898,-0.8299 1.24487,-1.3407 0.344726,-0.5107 0.517092,-1.0405 0.5171,-1.5896 -8e-6,-0.8299 -0.300053,-1.5321 -0.900137,-2.1067 -0.600097,-0.5873 -1.315099,-0.8809 -2.145007,-0.881 -0.842685,10e-5 -1.506615,0.2171 -1.991792,0.6512 -0.485182,0.4341 -0.727772,1.0598 -0.72777,1.8769 -2e-6,0.089 -0.03831,0.166 -0.114911,0.2298 -0.06384,0.064 -0.140449,0.096 -0.229822,0.096 -0.08938,0 -0.172368,-0.032 -0.248975,-0.096 -0.06384,-0.064 -0.09576,-0.1404 -0.09576,-0.2298"
           style="fill:#000000;fill-opacity:1"
           id="path3033"
           inkscape:connector-curvature="0" />
      </g>
      <g
         transform="scale(1.0746804,0.93050924)"
         style="font-size:8.16516113px;font-style:normal;font-variant:normal;font-weight:300;font-stretch:normal;text-align:center;line-height:100%;letter-spacing:0px;word-spacing:0px;text-anchor:middle;fill:#000000;fill-opacity:1;stroke:none;font-family:Terminal Dosis;-inkscape-font-specification:Terminal Dosis Light"
         id="g3035">
        <path
           d="m 27.679126,1112.6834 c -0.03811,0 -0.07349,-0.014 -0.106147,-0.041 -0.02722,-0.027 -0.04083,-0.06 -0.04083,-0.098 -2e-6,-0.022 0.0027,-0.038 0.0082,-0.049 l 2.245419,-6.1565 c 0.01633,-0.06 0.05987,-0.09 0.130643,-0.09 0.04354,0 0.07893,0.014 0.106147,0.041 0.03266,0.027 0.04899,0.06 0.04899,0.098 -4e-6,0.027 -0.0082,0.057 -0.0245,0.09 l -2.229089,6.1157 c -0.01633,0.06 -0.0626,0.09 -0.138808,0.09 m 1.812666,-2.8414 c 0.217733,-0.245 0.519844,-0.3675 0.906333,-0.3675 0.386479,0 0.688589,0.1225 0.906332,0.3675 0.223176,0.2395 0.334766,0.5634 0.334772,0.9716 l 0,0.3675 c -6e-6,0.3973 -0.111596,0.7239 -0.334772,0.9798 -0.223186,0.2504 -0.525297,0.3756 -0.906332,0.3756 -0.381046,0 -0.683156,-0.1252 -0.906333,-0.3756 -0.217742,-0.2504 -0.32661,-0.577 -0.326607,-0.9798 l 0,-0.3675 c -3e-6,-0.4028 0.108865,-0.7267 0.326607,-0.9716 m 1.861656,1.3391 0,-0.3675 c -5e-6,-0.3157 -0.08166,-0.5688 -0.244954,-0.7593 -0.157865,-0.196 -0.394655,-0.294 -0.710369,-0.294 -0.310281,0 -0.54707,0.098 -0.71037,0.294 -0.157863,0.1905 -0.236793,0.4436 -0.236789,0.7593 l 0,0.3593 c -4e-6,0.3212 0.07893,0.5824 0.236789,0.7838 0.1633,0.196 0.402811,0.294 0.718535,0.294 0.304827,0 0.538895,-0.098 0.702204,-0.294 0.163297,-0.1959 0.244949,-0.4545 0.244954,-0.7756 m -4.972583,-4.2623 c 0.217737,-0.2449 0.519848,-0.3674 0.906333,-0.3674 0.386482,0 0.688593,0.1225 0.906333,0.3674 0.223178,0.2396 0.334769,0.5634 0.334772,0.9717 l 0,0.3674 c -3e-6,0.3974 -0.111594,0.724 -0.334772,0.9798 -0.223183,0.2504 -0.525294,0.3756 -0.906333,0.3756 -0.381042,0 -0.683153,-0.1252 -0.906333,-0.3756 -0.217738,-0.2503 -0.326607,-0.577 -0.326606,-0.9798 l 0,-0.3674 c -10e-7,-0.4028 0.108868,-0.7267 0.326606,-0.9717 m 1.861657,1.3391 0,-0.3674 c -3e-6,-0.3157 -0.08165,-0.5688 -0.244955,-0.7594 -0.157862,-0.1959 -0.394651,-0.2939 -0.710369,-0.2939 -0.310277,0 -0.547067,0.098 -0.710369,0.2939 -0.15786,0.1906 -0.23679,0.4437 -0.23679,0.7594 l 0,0.3593 c 0,0.3211 0.07893,0.5824 0.23679,0.7838 0.163302,0.196 0.402813,0.294 0.718534,0.294 0.304831,0 0.538899,-0.098 0.702204,-0.294 0.163301,-0.1959 0.244952,-0.4545 0.244955,-0.7757"
           style="fill:#000000;fill-opacity:1"
           id="path3037"
           inkscape:connector-curvature="0" />
      </g>
    </g>
    <g
       id="g3020">
      <g
         id="text3791"
         style="font-size:19.15184784px;font-style:normal;font-variant:normal;font-weight:300;font-stretch:normal;text-align:center;line-height:100%;letter-spacing:0px;word-spacing:0px;text-anchor:middle;fill:#ffffff;fill-opacity:1;stroke:none;font-family:Terminal Dosis;-inkscape-font-specification:Terminal Dosis Light">
        <path
           id="path3016"
           style=""
           d="m 16.191519,1024.1392 1.264022,-2.4514 c 0.114908,-0.2171 0.261739,-0.3256 0.440492,-0.3256 0.204284,0 0.306427,0.1085 0.30643,0.3256 l 0,13.3296 c -3e-6,0.2299 -0.114914,0.3448 -0.344733,0.3448 -0.229825,0 -0.344736,-0.1149 -0.344734,-0.3448 l 0,-11.8932 -0.823529,1.5321 c -0.07661,0.166 -0.19152,0.249 -0.344733,0.249 -0.08938,0 -0.172368,-0.032 -0.248974,-0.096 -0.06384,-0.064 -0.09576,-0.1404 -0.09576,-0.2298 -10e-7,-0.038 0.06384,-0.1851 0.191519,-0.4405" />
        <path
           id="path3018"
           style=""
           d="m 21.204814,1024.5797 c -10e-7,-0.9959 0.306428,-1.7811 0.919289,-2.3557 0.625624,-0.5745 1.455537,-0.8618 2.48974,-0.8618 1.021427,0 1.896027,0.3639 2.623803,1.0916 0.740531,0.7151 1.110799,1.5769 1.110808,2.5855 -9e-6,0.715 -0.236215,1.3981 -0.708619,2.0493 -0.459651,0.6512 -1.021438,1.2257 -1.685362,1.7237 -0.663936,0.4851 -1.33425,0.9512 -2.010945,1.398 -0.663933,0.4469 -1.232104,0.9257 -1.704514,1.4364 -0.459646,0.5107 -0.689468,1.0151 -0.689466,1.513 l 0,1.513 6.473324,0 c 0.08937,0 0.165975,0.038 0.229822,0.1149 0.06383,0.064 0.09575,0.1405 0.09576,0.2298 -9e-6,0.089 -0.03193,0.1724 -0.09576,0.249 -0.06385,0.064 -0.140455,0.096 -0.229822,0.096 l -6.818058,0 c -0.08938,0 -0.172367,-0.032 -0.248974,-0.096 -0.06384,-0.064 -0.09576,-0.1468 -0.09576,-0.249 l 0,-1.8577 c -1e-6,-0.4979 0.165982,-0.9895 0.497948,-1.4747 0.344732,-0.4851 0.766072,-0.9129 1.264022,-1.2831 l 1.647059,-1.2066 1.627907,-1.2257 c 0.497942,-0.3831 0.912898,-0.8299 1.24487,-1.3407 0.344726,-0.5107 0.517092,-1.0405 0.5171,-1.5896 -8e-6,-0.8299 -0.300053,-1.5321 -0.900137,-2.1067 -0.600097,-0.5873 -1.315099,-0.8809 -2.145007,-0.881 -0.842685,10e-5 -1.506615,0.2171 -1.991792,0.6512 -0.485182,0.4341 -0.727772,1.0598 -0.72777,1.8769 -2e-6,0.089 -0.03831,0.166 -0.114911,0.2298 -0.06384,0.064 -0.140449,0.096 -0.229822,0.096 -0.08938,0 -0.172368,-0.032 -0.248975,-0.096 -0.06384,-0.064 -0.09576,-0.1404 -0.09576,-0.2298" />
      </g>
      <g
         id="text3008"
         style="font-size:8.16516113px;font-style:normal;font-variant:normal;font-weight:300;font-stretch:normal;text-align:center;line-height:100%;letter-spacing:0px;word-spacing:0px;text-anchor:middle;fill:#ffffff;fill-opacity:1;stroke:none;font-family:Terminal Dosis;-inkscape-font-specification:Terminal Dosis Light"
         transform="scale(1.0746804,0.93050924)">
        <path
           id="path3013"
           style=""
           d="m 27.679126,1112.6834 c -0.03811,0 -0.07349,-0.014 -0.106147,-0.041 -0.02722,-0.027 -0.04083,-0.06 -0.04083,-0.098 -2e-6,-0.022 0.0027,-0.038 0.0082,-0.049 l 2.245419,-6.1565 c 0.01633,-0.06 0.05987,-0.09 0.130643,-0.09 0.04354,0 0.07893,0.014 0.106147,0.041 0.03266,0.027 0.04899,0.06 0.04899,0.098 -4e-6,0.027 -0.0082,0.057 -0.0245,0.09 l -2.229089,6.1157 c -0.01633,0.06 -0.0626,0.09 -0.138808,0.09 m 1.812666,-2.8414 c 0.217733,-0.245 0.519844,-0.3675 0.906333,-0.3675 0.386479,0 0.688589,0.1225 0.906332,0.3675 0.223176,0.2395 0.334766,0.5634 0.334772,0.9716 l 0,0.3675 c -6e-6,0.3973 -0.111596,0.7239 -0.334772,0.9798 -0.223186,0.2504 -0.525297,0.3756 -0.906332,0.3756 -0.381046,0 -0.683156,-0.1252 -0.906333,-0.3756 -0.217742,-0.2504 -0.32661,-0.577 -0.326607,-0.9798 l 0,-0.3675 c -3e-6,-0.4028 0.108865,-0.7267 0.326607,-0.9716 m 1.861656,1.3391 0,-0.3675 c -5e-6,-0.3157 -0.08166,-0.5688 -0.244954,-0.7593 -0.157865,-0.196 -0.394655,-0.294 -0.710369,-0.294 -0.310281,0 -0.54707,0.098 -0.71037,0.294 -0.157863,0.1905 -0.236793,0.4436 -0.236789,0.7593 l 0,0.3593 c -4e-6,0.3212 0.07893,0.5824 0.236789,0.7838 0.1633,0.196 0.402811,0.294 0.718535,0.294 0.304827,0 0.538895,-0.098 0.702204,-0.294 0.163297,-0.1959 0.244949,-0.4545 0.244954,-0.7756 m -4.972583,-4.2623 c 0.217737,-0.2449 0.519848,-0.3674 0.906333,-0.3674 0.386482,0 0.688593,0.1225 0.906333,0.3674 0.223178,0.2396 0.334769,0.5634 0.334772,0.9717 l 0,0.3674 c -3e-6,0.3974 -0.111594,0.724 -0.334772,0.9798 -0.223183,0.2504 -0.525294,0.3756 -0.906333,0.3756 -0.381042,0 -0.683153,-0.1252 -0.906333,-0.3756 -0.217738,-0.2503 -0.326607,-0.577 -0.326606,-0.9798 l 0,-0.3674 c -10e-7,-0.4028 0.108868,-0.7267 0.326606,-0.9717 m 1.861657,1.3391 0,-0.3674 c -3e-6,-0.3157 -0.08165,-0.5688 -0.244955,-0.7594 -0.157862,-0.1959 -0.394651,-0.2939 -0.710369,-0.2939 -0.310277,0 -0.547067,0.098 -0.710369,0.2939 -0.15786,0.1906 -0.23679,0.4437 -0.23679,0.7594 l 0,0.3593 c 0,0.3211 0.07893,0.5824 0.23679,0.7838 0.163302,0.196 0.402813,0.294 0.718534,0.294 0.304831,0 0.538899,-0.098 0.702204,-0.294 0.163301,-0.1959 0.244952,-0.4545 0.244955,-0.7757" />
      </g>
    </g>
  </g>
</svg>
