<?xml version="1.0" encoding="UTF-8" standalone="no"?>
<!-- Created with Inkscape (http://www.inkscape.org/) -->

<svg
   xmlns:dc="http://purl.org/dc/elements/1.1/"
   xmlns:cc="http://creativecommons.org/ns#"
   xmlns:rdf="http://www.w3.org/1999/02/22-rdf-syntax-ns#"
   xmlns:svg="http://www.w3.org/2000/svg"
   xmlns="http://www.w3.org/2000/svg"
   xmlns:xlink="http://www.w3.org/1999/xlink"
   xmlns:sodipodi="http://sodipodi.sourceforge.net/DTD/sodipodi-0.dtd"
   xmlns:inkscape="http://www.inkscape.org/namespaces/inkscape"
   width="48"
   height="48"
   id="svg2"
   version="1.1"
   inkscape:version="0.48.4 r9939"
   sodipodi:docname="copy.svg">
  <defs
     id="defs4">
    <linearGradient
       id="linearGradient3767">
      <stop
         style="stop-color:#40acff;stop-opacity:1;"
         offset="0"
         id="stop3770" />
      <stop
         style="stop-color:#40c4ff;stop-opacity:1;"
         offset="1"
         id="stop3772" />
    </linearGradient>
    <linearGradient
       inkscape:collect="always"
       xlink:href="#linearGradient3767"
       id="linearGradient3774"
       x1="24"
       y1="1050.3622"
       x2="24"
       y2="1006.3622"
       gradientUnits="userSpaceOnUse" />
    <clipPath
       id="clipPath-260786515">
      <g
         id="g3791"
         transform="translate(0,-1004.3622)">
        <path
           id="path3793"
           fill="#1890d0"
           transform="matrix(15.333333,0,0,11.5,414.99999,878.8622)"
           d="m -24 13 c 0 1.105 -0.672 2 -1.5 2 -0.828 0 -1.5 -0.895 -1.5 -2 0 -1.105 0.672 -2 1.5 -2 0.828 0 1.5 0.895 1.5 2 z" />
      </g>
    </clipPath>
    <clipPath
       id="clipPath-246912133">
      <g
         id="g3786"
         transform="translate(0,-1004.3622)">
        <path
           id="path3788-7"
           fill="#1890d0"
           transform="matrix(15.333333,0,0,11.5,414.99999,878.8622)"
           d="m -24 13 c 0 1.105 -0.672 2 -1.5 2 -0.828 0 -1.5 -0.895 -1.5 -2 0 -1.105 0.672 -2 1.5 -2 0.828 0 1.5 0.895 1.5 2 z" />
      </g>
    </clipPath>
    <linearGradient
       gradientTransform="matrix(0,-1,1,0,-1.5e-6,47.999998)"
       gradientUnits="userSpaceOnUse"
       x2="47"
       x1="1"
       id="linearGradient3764-2">
      <stop
         id="stop3781"
         stop-opacity="1"
         stop-color="#00a1c4" />
      <stop
         id="stop3783"
         stop-opacity="1"
         stop-color="#00afd7"
         offset="1" />
    </linearGradient>
  </defs>
  <sodipodi:namedview
     id="base"
     pagecolor="#ffffff"
     bordercolor="#666666"
     borderopacity="1.0"
     inkscape:pageopacity="0.0"
     inkscape:pageshadow="2"
     inkscape:zoom="8.9910423"
     inkscape:cx="-21.475203"
     inkscape:cy="24.503954"
     inkscape:document-units="px"
     inkscape:current-layer="layer1"
     showgrid="true"
     inkscape:snap-bbox="true"
     inkscape:window-width="1301"
     inkscape:window-height="744"
     inkscape:window-x="65"
     inkscape:window-y="24"
     inkscape:window-maximized="1"
     inkscape:snap-nodes="false">
    <inkscape:grid
       type="xygrid"
       id="grid2985"
       empspacing="6"
       visible="true"
       enabled="true"
       snapvisiblegridlinesonly="true" />
  </sodipodi:namedview>
  <metadata
     id="metadata7">
    <rdf:RDF>
      <cc:Work
         rdf:about="">
        <dc:format>image/svg+xml</dc:format>
        <dc:type
           rdf:resource="http://purl.org/dc/dcmitype/StillImage" />
        <dc:title />
      </cc:Work>
    </rdf:RDF>
  </metadata>
  <g
     inkscape:label="Layer 1"
     inkscape:groupmode="layer"
     id="layer1"
     transform="translate(0,-1004.3622)">
    <path
       id="path3788"
       d="m 24,1051.1116 c -21.2715315,0 -23.66257505,-0.089 -23.9375,-15.4063 0.328125,14.4033 2.9375,14.4063 23.9375,14.4063 21,0 23.609375,0 23.9375,-14.4063 -0.274925,15.3174 -2.665968,15.4063 -23.9375,15.4063 z"
       style="opacity:0.20000000000000001;fill:#ffffff;fill-opacity:1;stroke:none"
       inkscape:connector-curvature="0" />
    <path
       style="fill:url(#linearGradient3774);fill-opacity:1;stroke:none"
       d="m 24,1050.3622 c -24,0 -24,0 -24,-22 0,-22 0,-22 24,-22 24,0 24,0 24,22 0,22 0,22 -24,22 z"
       id="path3757"
       inkscape:connector-curvature="0"
       sodipodi:nodetypes="zzzzz" />
    <path
       style="fill:#000000;fill-opacity:1;stroke:none;opacity:0.20000000000000001"
       d="M 24 2 C 2.7284685 2 0.33742495 2.0888436 0.0625 17.40625 C 0.390625 3.0029297 3 3 24 3 C 45 3 47.609375 3.0029297 47.9375 17.40625 C 47.662575 2.0888436 45.271532 2 24 2 z "
       transform="translate(0,1004.3622)"
       id="path3770" />
    <g
       id="g3807"
       transform="translate(-52.998,1004.3622)" />
    <g
       id="g3809"
       transform="translate(1,1003.9105)">
      <g
         clip-path="url(#clipPath-246912133)"
         id="g3811">
        <g
           transform="translate(1,1)"
           id="g3813">
          <g
             style="opacity:0.1"
             id="g3815">
            <!-- color: #00afd7 -->
            <g
               id="g3817">
              <path
                 style="fill:#000000;fill-opacity:1;fill-rule:nonzero;stroke:none"
                 inkscape:connector-curvature="0"
                 d="m 20.695,32.422 c -1.508,-4.707 -3.75,-11.691 -3.762,-11.699 -0.008,-0.012 -1.242,0.391 -2.742,0.895 L 11.461,22.532 11,22.313 12.875,20.731 c 1.031,-0.867 2.188,-1.84 2.566,-2.16 0.379,-0.32 0.695,-0.59 0.707,-0.602 0.012,-0.027 2.324,0.602 2.363,0.641 0.02,0.02 0.652,1.574 3.199,7.828 0.418,1.023 0.766,1.859 0.77,1.859 0.016,0 1.074,-0.688 3.738,-2.434 0.547,-0.363 1.676,-1.105 2.508,-1.656 l 1.508,-1 0.543,0.172 c 0.297,0.094 0.742,0.234 0.988,0.313 l 0.445,0.141 0.074,0.137 c 0.043,0.074 1.125,1.992 2.402,4.27 2.195,3.898 2.328,4.145 2.316,4.23 -0.043,0.262 -0.023,0.234 -0.23,0.234 0,0 -13.672,-1.07 -13.641,-1.07 l -0.398,0.242 c -0.223,0.133 -0.719,0.441 -1.102,0.676 -0.395,0.242 -0.723,0.438 -0.73,0.438 -0.012,0 -0.102,-0.258 -0.207,-0.578 m -0.008,0.02"
                 id="path3819" />
              <path
                 style="fill:#000000;fill-opacity:1;fill-rule:nonzero;stroke:none"
                 inkscape:connector-curvature="0"
                 d="m 22.563,26.961 c -0.102,-0.223 -0.465,-1.02 -0.813,-1.766 -0.344,-0.746 -0.625,-1.359 -0.617,-1.363 0.008,-0.004 0.797,-0.438 1.762,-0.961 1.992,-1.082 1.906,-1.047 2.527,-1.07 0.824,-0.031 1.824,0.18 3.047,0.633 0.445,0.16 1.301,0.527 1.301,0.551 0,0.02 -6.945,4.375 -6.988,4.383 -0.02,0.004 -0.113,-0.176 -0.219,-0.402 m 0,-0.004"
                 id="path3821" />
              <path
                 style="fill:#000000;fill-opacity:1;fill-rule:nonzero;stroke:none"
                 inkscape:connector-curvature="0"
                 d="M 30.652,22.84 C 30.23,22.692 29.5,22.434 29.031,22.266 c -0.473,-0.168 -0.863,-0.305 -0.867,-0.309 0,-0.004 0.715,-1.152 1.598,-2.559 0.879,-1.402 2.211,-3.535 2.961,-4.734 0.75,-1.195 1.371,-2.188 1.383,-2.203 0.02,-0.023 0.223,0 0.273,0.031 0.027,0.016 -0.117,0.566 -0.574,2.199 -1.102,3.914 -2.168,7.723 -2.266,8.07 -0.055,0.188 -0.102,0.344 -0.109,0.344 -0.008,0 -0.359,-0.125 -0.781,-0.273 m 0.004,0.004"
                 id="path3823" />
            </g>
          </g>
        </g>
      </g>
    </g>
    <g
       id="g3825"
       transform="translate(1,1003.9105)">
      <g
         clip-path="url(#clipPath-260786515)"
         id="g3827">
        <!-- color: #00afd7 -->
        <g
           id="g3829">
          <path
             style="fill:#ffffff;fill-opacity:1;fill-rule:nonzero;stroke:none"
             inkscape:connector-curvature="0"
             d="m 20.695,32.422 c -1.508,-4.707 -3.75,-11.691 -3.762,-11.699 -0.008,-0.012 -1.242,0.391 -2.742,0.895 L 11.461,22.532 11,22.313 12.875,20.731 c 1.031,-0.867 2.188,-1.84 2.566,-2.16 0.379,-0.32 0.695,-0.59 0.707,-0.602 0.012,-0.027 2.324,0.602 2.363,0.641 0.02,0.02 0.652,1.574 3.199,7.828 0.418,1.023 0.766,1.859 0.77,1.859 0.016,0 1.074,-0.688 3.738,-2.434 0.547,-0.363 1.676,-1.105 2.508,-1.656 l 1.508,-1 0.543,0.172 c 0.297,0.094 0.742,0.234 0.988,0.313 l 0.445,0.141 0.074,0.137 c 0.043,0.074 1.125,1.992 2.402,4.27 2.195,3.898 2.328,4.145 2.316,4.23 -0.043,0.262 -0.023,0.234 -0.23,0.234 0,0 -13.672,-1.07 -13.641,-1.07 l -0.398,0.242 c -0.223,0.133 -0.719,0.441 -1.102,0.676 -0.395,0.242 -0.723,0.438 -0.73,0.438 -0.012,0 -0.102,-0.258 -0.207,-0.578 m -0.008,0.02"
             id="path3831" />
          <path
             style="fill:#f46900;fill-opacity:1;fill-rule:nonzero;stroke:none"
             inkscape:connector-curvature="0"
             d="m 22.563,26.961 c -0.102,-0.223 -0.465,-1.02 -0.813,-1.766 -0.344,-0.746 -0.625,-1.359 -0.617,-1.363 0.008,-0.004 0.797,-0.438 1.762,-0.961 1.992,-1.082 1.906,-1.047 2.527,-1.07 0.824,-0.031 1.824,0.18 3.047,0.633 0.445,0.16 1.301,0.527 1.301,0.551 0,0.02 -6.945,4.375 -6.988,4.383 -0.02,0.004 -0.113,-0.176 -0.219,-0.402 m 0,-0.004"
             id="path3833" />
          <path
             style="fill:#ffffff;fill-opacity:1;fill-rule:nonzero;stroke:none"
             inkscape:connector-curvature="0"
             d="M 30.652,22.84 C 30.23,22.692 29.5,22.434 29.031,22.266 c -0.473,-0.168 -0.863,-0.305 -0.867,-0.309 0,-0.004 0.715,-1.152 1.598,-2.559 0.879,-1.402 2.211,-3.535 2.961,-4.734 0.75,-1.195 1.371,-2.188 1.383,-2.203 0.02,-0.023 0.223,0 0.273,0.031 0.027,0.016 -0.117,0.566 -0.574,2.199 -1.102,3.914 -2.168,7.723 -2.266,8.07 -0.055,0.188 -0.102,0.344 -0.109,0.344 -0.008,0 -0.359,-0.125 -0.781,-0.273 m 0.004,0.004"
             id="path3835" />
        </g>
      </g>
    </g>
  </g>
</svg>
