<?xml version="1.0" encoding="UTF-8" standalone="no"?>
<!-- Created with Inkscape (http://www.inkscape.org/) -->

<svg
   xmlns:dc="http://purl.org/dc/elements/1.1/"
   xmlns:cc="http://creativecommons.org/ns#"
   xmlns:rdf="http://www.w3.org/1999/02/22-rdf-syntax-ns#"
   xmlns:svg="http://www.w3.org/2000/svg"
   xmlns="http://www.w3.org/2000/svg"
   xmlns:sodipodi="http://sodipodi.sourceforge.net/DTD/sodipodi-0.dtd"
   xmlns:inkscape="http://www.inkscape.org/namespaces/inkscape"
   width="48"
   height="48"
   id="svg2"
   version="1.1"
   inkscape:version="0.48.4 r9939"
   sodipodi:docname="cs-desktop.svg">
  <defs
     id="defs4" />
  <sodipodi:namedview
     id="base"
     pagecolor="#ffffff"
     bordercolor="#666666"
     borderopacity="1.0"
     inkscape:pageopacity="0.0"
     inkscape:pageshadow="2"
     inkscape:zoom="11.583333"
     inkscape:cx="24.954309"
     inkscape:cy="23.043693"
     inkscape:document-units="px"
     inkscape:current-layer="layer1"
     showgrid="true"
     inkscape:snap-bbox="true"
     inkscape:window-width="1301"
     inkscape:window-height="744"
     inkscape:window-x="65"
     inkscape:window-y="24"
     inkscape:window-maximized="1"
     inkscape:object-nodes="true"
     inkscape:object-paths="true">
    <inkscape:grid
       type="xygrid"
       id="grid3003"
       empspacing="6"
       visible="true"
       enabled="true"
       snapvisiblegridlinesonly="true" />
  </sodipodi:namedview>
  <metadata
     id="metadata7">
    <rdf:RDF>
      <cc:Work
         rdf:about="">
        <dc:format>image/svg+xml</dc:format>
        <dc:type
           rdf:resource="http://purl.org/dc/dcmitype/StillImage" />
        <dc:title />
      </cc:Work>
    </rdf:RDF>
  </metadata>
  <g
     inkscape:label="Layer 1"
     inkscape:groupmode="layer"
     id="layer1"
     transform="translate(0,-1004.3622)">
    <rect
       style="fill:#b2ebf2;fill-opacity:1;stroke:none"
       id="rect3041"
       width="42"
       height="31.999964"
       x="3"
       y="1012.3622" />
    <path
       id="path3788"
       d="m 24,1051.1116 c -21.2715315,0 -23.66257505,-0.089 -23.9375,-15.4063 0.328125,14.4033 2.9375,14.4063 23.9375,14.4063 21,0 23.609375,0 23.9375,-14.4063 -0.274925,15.3174 -2.665968,15.4063 -23.9375,15.4063 z"
       style="opacity:0.20000000000000001;fill:#ffffff;fill-opacity:1;stroke:none"
       inkscape:connector-curvature="0" />
    <path
       style="fill:#1a1a1a;fill-opacity:1;stroke:none"
       d="M 24,2 C 0,2 0,2 0,24 0,46 0,46 24,46 48,46 48,46 48,24 48,2 48,2 24,2 z M 3,6 45,6 45,40 3,40 z"
       transform="translate(0,1004.3622)"
       id="path3757"
       inkscape:connector-curvature="0"
       sodipodi:nodetypes="sssssccccc" />
    <path
       style="fill:#000000;fill-opacity:1;stroke:none;opacity:0.20000000000000001"
       d="M 24 2 C 2.7284685 2 0.33742495 2.0888436 0.0625 17.40625 C 0.390625 3.0029297 3 3 24 3 C 45 3 47.609375 3.0029297 47.9375 17.40625 C 47.662575 2.0888436 45.271532 2 24 2 z "
       transform="translate(0,1004.3622)"
       id="path3770" />
    <g
       id="g3813"
       transform="translate(-47.998,993.3622)" />
    <path
       style="fill:#fafafa;fill-opacity:1;stroke:none"
       d="m 7,1041.3622 2,-3 30,0 2,3 z"
       id="rect3785"
       inkscape:connector-curvature="0"
       sodipodi:nodetypes="ccccc" />
    <rect
       style="fill:#e0e0e0;fill-opacity:1;stroke:none"
       id="rect3802"
       width="34"
       height="1"
       x="7"
       y="1041.3622" />
    <rect
       style="fill:#fff176;fill-opacity:1;stroke:none"
       id="rect3774"
       width="5"
       height="4.9999652"
       x="11"
       y="1034.3622" />
    <rect
       y="1034.3622"
       x="18"
       height="4.9999652"
       width="5"
       id="rect3014"
       style="fill:#8c9eff;fill-opacity:1;stroke:none" />
    <rect
       style="fill:#69f0ae;fill-opacity:1;stroke:none"
       id="rect3016"
       width="5"
       height="4.9999652"
       x="25"
       y="1034.3622" />
    <rect
       y="1034.3622"
       x="32"
       height="4.9999652"
       width="5"
       id="rect3018"
       style="fill:#ef9a9a;fill-opacity:1;stroke:none" />
    <rect
       y="1013.3622"
       x="5"
       height="4.9999652"
       width="5"
       id="rect3020"
       style="fill:#4d4d4d;fill-opacity:1;stroke:none" />
    <rect
       style="fill:#ba68c8;fill-opacity:1;stroke:none"
       id="rect3024"
       width="5"
       height="4.9999652"
       x="5"
       y="1020.3622" />
    <rect
       y="1027.3622"
       x="5"
       height="4.9999652"
       width="5"
       id="rect3028"
       style="fill:#ffff00;fill-opacity:1;stroke:none" />
    <rect
       style="fill:#424242;fill-opacity:1;stroke:none"
       id="rect3814"
       width="42"
       height="2.0000174"
       x="3"
       y="1010.3622" />
    <path
       style="fill:none;stroke:#515151;stroke-width:1px;stroke-linecap:round;stroke-linejoin:miter;stroke-opacity:1"
       d="m 22,42 -2,2"
       id="path3818"
       inkscape:connector-curvature="0"
       transform="translate(0,1004.3622)"
       sodipodi:nodetypes="cc" />
    <path
       style="fill:none;stroke:#515151;stroke-width:1px;stroke-linecap:round;stroke-linejoin:miter;stroke-opacity:1"
       d="m 25,42 -2,2"
       id="path3820"
       inkscape:connector-curvature="0"
       transform="translate(0,1004.3622)"
       sodipodi:nodetypes="cc" />
    <path
       style="fill:none;stroke:#515151;stroke-width:1px;stroke-linecap:round;stroke-linejoin:miter;stroke-opacity:1"
       d="m 28,42 -2,2"
       id="path3824"
       inkscape:connector-curvature="0"
       transform="translate(0,1004.3622)"
       sodipodi:nodetypes="cc" />
  </g>
</svg>
