<?xml version="1.0" encoding="UTF-8" standalone="no"?>
<!-- Created with Inkscape (http://www.inkscape.org/) -->

<svg
   xmlns:dc="http://purl.org/dc/elements/1.1/"
   xmlns:cc="http://creativecommons.org/ns#"
   xmlns:rdf="http://www.w3.org/1999/02/22-rdf-syntax-ns#"
   xmlns:svg="http://www.w3.org/2000/svg"
   xmlns="http://www.w3.org/2000/svg"
   xmlns:xlink="http://www.w3.org/1999/xlink"
   xmlns:sodipodi="http://sodipodi.sourceforge.net/DTD/sodipodi-0.dtd"
   xmlns:inkscape="http://www.inkscape.org/namespaces/inkscape"
   width="48"
   height="48"
   id="svg2"
   version="1.1"
   inkscape:version="0.48.4 r9939"
   sodipodi:docname="d-feet-icon.svg">
  <defs
     id="defs4">
    <linearGradient
       id="linearGradient3775">
      <stop
         style="stop-color:#448aff;stop-opacity:1;"
         offset="0"
         id="stop3777" />
      <stop
         style="stop-color:#639dff;stop-opacity:1;"
         offset="1"
         id="stop3779" />
    </linearGradient>
    <linearGradient
       inkscape:collect="always"
       xlink:href="#linearGradient3775"
       id="linearGradient3781"
       x1="24"
       y1="1050.3622"
       x2="24"
       y2="1006.3622"
       gradientUnits="userSpaceOnUse" />
    <linearGradient
       gradientTransform="matrix(0,-1,1,0,-1.5e-6,47.999998)"
       gradientUnits="userSpaceOnUse"
       x2="47"
       x1="1"
       id="linearGradient3764">
      <stop
         id="stop3001"
         stop-opacity="1"
         stop-color="#708290" />
      <stop
         id="stop3003"
         stop-opacity="1"
         stop-color="#7b8c99"
         offset="1" />
    </linearGradient>
    <linearGradient
       inkscape:collect="always"
       xlink:href="#linearGradient3764"
       id="linearGradient3148"
       gradientUnits="userSpaceOnUse"
       gradientTransform="matrix(0,-1,1,0,-52.998001,1050.3622)"
       x1="1"
       x2="47" />
  </defs>
  <sodipodi:namedview
     id="base"
     pagecolor="#ffffff"
     bordercolor="#666666"
     borderopacity="1.0"
     inkscape:pageopacity="0.0"
     inkscape:pageshadow="2"
     inkscape:zoom="4.0953267"
     inkscape:cx="19.873189"
     inkscape:cy="0.54884105"
     inkscape:document-units="px"
     inkscape:current-layer="layer1"
     showgrid="true"
     inkscape:snap-bbox="true"
     inkscape:window-width="1301"
     inkscape:window-height="744"
     inkscape:window-x="65"
     inkscape:window-y="24"
     inkscape:window-maximized="1">
    <inkscape:grid
       type="xygrid"
       id="grid2985"
       empspacing="6"
       visible="true"
       enabled="true"
       snapvisiblegridlinesonly="true" />
  </sodipodi:namedview>
  <metadata
     id="metadata7">
    <rdf:RDF>
      <cc:Work
         rdf:about="">
        <dc:format>image/svg+xml</dc:format>
        <dc:type
           rdf:resource="http://purl.org/dc/dcmitype/StillImage" />
        <dc:title />
      </cc:Work>
    </rdf:RDF>
  </metadata>
  <g
     inkscape:label="Layer 1"
     inkscape:groupmode="layer"
     id="layer1"
     transform="translate(0,-1004.3622)">
    <path
       id="path3788"
       d="m 24,1051.1116 c -21.2715315,0 -23.66257505,-0.089 -23.9375,-15.4063 0.328125,14.4033 2.9375,14.4063 23.9375,14.4063 21,0 23.609375,0 23.9375,-14.4063 -0.274925,15.3174 -2.665968,15.4063 -23.9375,15.4063 z"
       style="opacity:0.20000000000000001;fill:#ffffff;fill-opacity:1;stroke:none"
       inkscape:connector-curvature="0" />
    <path
       style="fill:url(#linearGradient3781);fill-opacity:1;stroke:none"
       d="m 24,1006.3622 c -24,0 -24,0 -24,22 0,22 0,22 24,22 24,0 24,0 24,-22 0,-22 0,-22 -24,-22 z"
       id="path3757"
       inkscape:connector-curvature="0"
       sodipodi:nodetypes="zzzzz" />
    <path
       style="fill:#000000;fill-opacity:1;stroke:none;opacity:0.20000000000000001"
       d="M 24 2 C 2.7284685 2 0.33742495 2.0888436 0.0625 17.40625 C 0.390625 3.0029297 3 3 24 3 C 45 3 47.609375 3.0029297 47.9375 17.40625 C 47.662575 2.0888436 45.271532 2 24 2 z "
       transform="translate(0,1004.3622)"
       id="path3770" />
    <path
       id="path3039"
       d="m 16.593228,1033.4422 c 0,0 -2.395,-6.074 -0.434,-10.621 1.957,-4.543 5.05,-4.938 7.254,-3.906 2.195,1.031 2.352,5.543 1.102,9.809 -1.254,4.27 -1.77,5.762 -1.77,5.762 m -6.152,-1.043"
       inkscape:connector-curvature="0"
       style="opacity:0.2;fill:#000000;fill-opacity:0.94100001000000000;fill-rule:nonzero;stroke:none" />
    <path
       id="path3041"
       d="m 16.538228,1034.5522 5.891,1 c 0,0 0.504,3.25 -0.855,4.27 -1.359,1.02 -4.68,0.391 -5.324,-1.629 -0.648,-2.02 0.285,-3.641 0.285,-3.641 m 0.004,0"
       inkscape:connector-curvature="0"
       style="opacity:0.2;fill:#000000;fill-opacity:0.94100001000000000;fill-rule:nonzero;stroke:none" />
    <path
       id="path3043"
       d="m 34.265228,1032.2942 c 0,0 4.27,-4.945 3.922,-9.879 -0.348,-4.938 -3.141,-6.332 -5.555,-6.086 -2.418,0.25 -4.055,4.453 -4.281,8.895 -0.227,4.445 -0.234,6.02 -0.234,6.02 m 6.148,1.051"
       inkscape:connector-curvature="0"
       style="opacity:0.2;fill:#000000;fill-opacity:1;fill-rule:nonzero;stroke:none" />
    <path
       id="path3045"
       d="m 33.958228,1033.3622 -5.898,-1 c 0,0 -1.547,2.902 -0.602,4.313 0.941,1.414 4.289,1.918 5.563,0.23 1.277,-1.695 0.938,-3.531 0.938,-3.531 m 0,-0"
       inkscape:connector-curvature="0"
       style="opacity:0.2;fill:#000000;fill-opacity:1;fill-rule:nonzero;stroke:none" />
    <path
       id="path3053"
       d="m 15.593228,1032.4422 c 0,0 -2.395,-6.074 -0.434,-10.621 1.957,-4.543 5.05,-4.938 7.254,-3.906 2.195,1.031 2.352,5.543 1.102,9.809 -1.254,4.27 -1.77,5.762 -1.77,5.762 m -6.152,-1.043"
       inkscape:connector-curvature="0"
       style="fill:#f9f9f9;fill-opacity:0.94100001;fill-rule:nonzero;stroke:none" />
    <path
       id="path3055"
       d="m 15.538228,1033.5522 5.891,1 c 0,0 0.504,3.25 -0.855,4.27 -1.359,1.02 -4.68,0.391 -5.324,-1.629 -0.648,-2.02 0.285,-3.641 0.285,-3.641 m 0.004,0"
       inkscape:connector-curvature="0"
       style="fill:#f9f9f9;fill-opacity:0.94100001;fill-rule:nonzero;stroke:none" />
    <path
       id="path3057"
       d="m 33.265228,1031.2942 c 0,0 4.27,-4.945 3.922,-9.879 -0.348,-4.938 -3.141,-6.332 -5.555,-6.086 -2.418,0.25 -4.055,4.453 -4.281,8.895 -0.227,4.445 -0.234,6.02 -0.234,6.02 m 6.148,1.051"
       inkscape:connector-curvature="0"
       style="fill:#f9f9f9;fill-opacity:1;fill-rule:nonzero;stroke:none" />
    <path
       id="path3059"
       d="m 32.958228,1032.3622 -5.898,-1 c 0,0 -1.547,2.902 -0.602,4.313 0.941,1.414 4.289,1.918 5.563,0.23 1.277,-1.695 0.938,-3.531 0.938,-3.531 m 0,0"
       inkscape:connector-curvature="0"
       style="fill:#f9f9f9;fill-opacity:1;fill-rule:nonzero;stroke:none" />
  </g>
</svg>
