<?xml version="1.0" encoding="UTF-8" standalone="no"?>
<!-- Created with Inkscape (http://www.inkscape.org/) -->

<svg
   xmlns:dc="http://purl.org/dc/elements/1.1/"
   xmlns:cc="http://creativecommons.org/ns#"
   xmlns:rdf="http://www.w3.org/1999/02/22-rdf-syntax-ns#"
   xmlns:svg="http://www.w3.org/2000/svg"
   xmlns="http://www.w3.org/2000/svg"
   xmlns:xlink="http://www.w3.org/1999/xlink"
   xmlns:sodipodi="http://sodipodi.sourceforge.net/DTD/sodipodi-0.dtd"
   xmlns:inkscape="http://www.inkscape.org/namespaces/inkscape"
   width="48"
   height="48"
   id="svg2"
   version="1.1"
   inkscape:version="0.48.4 r9939"
   sodipodi:docname="dart.svg">
  <defs
     id="defs4">
    <linearGradient
       id="linearGradient3776">
      <stop
         style="stop-color:#e0e0e0;stop-opacity:1;"
         offset="0"
         id="stop3778" />
      <stop
         style="stop-color:#fbfbfb;stop-opacity:1;"
         offset="1"
         id="stop3780" />
    </linearGradient>
    <linearGradient
       id="linearGradient3779">
      <stop
         style="stop-color:#000000;stop-opacity:1;"
         offset="0"
         id="stop3781" />
      <stop
         style="stop-color:#ffffff;stop-opacity:1;"
         offset="1"
         id="stop3783" />
    </linearGradient>
    <linearGradient
       inkscape:collect="always"
       xlink:href="#linearGradient3779"
       id="linearGradient3795"
       gradientUnits="userSpaceOnUse"
       gradientTransform="translate(-20,0)"
       spreadMethod="repeat"
       x1="24"
       y1="1028.3622"
       x2="45"
       y2="1007.3622" />
    <linearGradient
       inkscape:collect="always"
       xlink:href="#linearGradient3779"
       id="linearGradient3797"
       gradientUnits="userSpaceOnUse"
       gradientTransform="translate(-20,0)"
       spreadMethod="repeat"
       x1="44"
       y1="1048.3622"
       x2="15"
       y2="1019.3622" />
    <linearGradient
       inkscape:collect="always"
       xlink:href="#linearGradient3776"
       id="linearGradient3782"
       x1="24"
       y1="1050.3622"
       x2="24"
       y2="1006.3622"
       gradientUnits="userSpaceOnUse" />
    <linearGradient
       gradientTransform="matrix(0,-1,1,0,-1.5e-6,47.999998)"
       gradientUnits="userSpaceOnUse"
       x2="47"
       x1="1"
       id="linearGradient3764-8">
      <stop
         id="stop3014"
         stop-opacity="1"
         stop-color="#e4e4e4" />
      <stop
         id="stop3016"
         stop-opacity="1"
         stop-color="#eee"
         offset="1" />
    </linearGradient>
    <linearGradient
       inkscape:collect="always"
       xlink:href="#linearGradient3764-8"
       id="linearGradient3158"
       gradientUnits="userSpaceOnUse"
       gradientTransform="matrix(0,-1,1,0,-1.5e-6,47.999998)"
       x1="1"
       x2="47" />
    <linearGradient
       inkscape:collect="always"
       xlink:href="#linearGradient3764-8"
       id="linearGradient3161"
       gradientUnits="userSpaceOnUse"
       gradientTransform="matrix(0,-1,1,0,-61.000002,1051.3622)"
       x1="1"
       x2="47" />
  </defs>
  <sodipodi:namedview
     id="base"
     pagecolor="#ffffff"
     bordercolor="#666666"
     borderopacity="1.0"
     inkscape:pageopacity="0.0"
     inkscape:pageshadow="2"
     inkscape:zoom="10.108768"
     inkscape:cx="-28.572946"
     inkscape:cy="23.938293"
     inkscape:document-units="px"
     inkscape:current-layer="layer1"
     showgrid="true"
     inkscape:snap-bbox="true"
     inkscape:window-width="1301"
     inkscape:window-height="744"
     inkscape:window-x="65"
     inkscape:window-y="24"
     inkscape:window-maximized="1"
     inkscape:object-nodes="false">
    <inkscape:grid
       type="xygrid"
       id="grid3003"
       empspacing="6"
       visible="true"
       enabled="true"
       snapvisiblegridlinesonly="true" />
  </sodipodi:namedview>
  <metadata
     id="metadata7">
    <rdf:RDF>
      <cc:Work
         rdf:about="">
        <dc:format>image/svg+xml</dc:format>
        <dc:type
           rdf:resource="http://purl.org/dc/dcmitype/StillImage" />
        <dc:title />
      </cc:Work>
    </rdf:RDF>
  </metadata>
  <g
     inkscape:label="Layer 1"
     inkscape:groupmode="layer"
     id="layer1"
     transform="translate(0,-1004.3622)">
    <path
       id="path3788"
       d="m 24,1051.1116 c -21.2715315,0 -23.66257505,-0.089 -23.9375,-15.4063 0.328125,14.4033 2.9375,14.4063 23.9375,14.4063 21,0 23.609375,0 23.9375,-14.4063 -0.274925,15.3174 -2.665968,15.4063 -23.9375,15.4063 z"
       style="opacity:0.20000000000000001;fill:#ffffff;fill-opacity:1;stroke:none"
       inkscape:connector-curvature="0" />
    <path
       style="fill:url(#linearGradient3782);fill-opacity:1;stroke:none"
       d="m 24,1050.3622 c -24,0 -24,0 -24,-22 0,-22 0,-22 24,-22 24,0 24,0 24,22 0,22 0,22 -24,22 z"
       id="path3757"
       inkscape:connector-curvature="0"
       sodipodi:nodetypes="zzzzz" />
    <g
       id="g3791"
       transform="translate(20,0)">
      <path
         style="opacity:0.02999998;fill:url(#linearGradient3795);fill-opacity:1;stroke:none"
         d="m 4,1006.3622 c -24,0 -24,0 -24,22 0,22 0,22 24,22 24,0 24,0 24,-22 0,-22 0,-22 -24,-22 z"
         id="path3777"
         inkscape:connector-curvature="0"
         sodipodi:nodetypes="zzzzz" />
      <path
         sodipodi:nodetypes="zzzzz"
         inkscape:connector-curvature="0"
         id="path3787"
         d="m 4,1006.3622 c -24,0 -24,0 -24,22 0,22 0,22 24,22 24,0 24,0 24,-22 0,-22 0,-22 -24,-22 z"
         style="opacity:0.02999998;fill:url(#linearGradient3797);fill-opacity:1;stroke:none" />
    </g>
    <path
       style="fill:#000000;fill-opacity:1;stroke:none;opacity:0.20000000000000001"
       d="M 24 2 C 2.7284685 2 0.33742495 2.0888436 0.0625 17.40625 C 0.390625 3.0029297 3 3 24 3 C 45 3 47.609375 3.0029297 47.9375 17.40625 C 47.662575 2.0888436 45.271532 2 24 2 z "
       transform="translate(0,1004.3622)"
       id="path3770" />
    <g
       id="g3813"
       transform="translate(-47.998,993.3622)" />
    <g
       id="g3039"
       transform="translate(-56.998,1002.3622)" />
    <g
       transform="translate(0.999,1005.3662)"
       id="g3046">
      <g
         style="opacity:0.1"
         id="g3048">
        <!-- color: #eeeeee -->
        <g
           id="g3050">
          <path
             style="fill:#000000;fill-opacity:1;fill-rule:nonzero;stroke:none"
             inkscape:connector-curvature="0"
             d="m 32.414,29.605 -0.988,-1.469 -1.41,-4.738 c -1.09,-3.668 -1.508,-6.02 -0.484,-6.25 0,0 1.113,0.438 1.117,0.438 l 0.863,0.395 2.203,2.184 2.285,2.184 0,9.125 -1.609,0.477 c -0.844,0.25 -1.641,0.852 -1.656,0.789 l -0.078,-0.313 m -0.242,-2.816"
             id="path3052" />
          <path
             style="fill:#000000;fill-opacity:1;fill-rule:nonzero;stroke:none"
             inkscape:connector-curvature="0"
             d="m 20.227,33.797 -2.176,-2.199 -0.93,-2.059 c 1.566,-1.434 4.703,-0.609 5.52,-0.199 l 5.891,3.094 2.426,0.863 c -4.746,-1.684 1.539,-0.691 1.645,-0.773 l 0.188,-0.145 -0.055,0.359 -1.215,3.258 -4.559,0.004 -4.559,0 m -2.176,-2.203"
             id="path3054" />
          <path
             style="fill:#000000;fill-opacity:1;fill-rule:nonzero;stroke:none"
             inkscape:connector-curvature="0"
             d="m 24.836,24.852 -7.715,-7.707 1.637,6.727 -1.637,5.668 -1.566,-0.59 -1.609,-1.582 -1.609,-1.578 -0.336,-1.117 2.539,-3.809 2.582,-3.715 6.07,-0.676 6.164,0.512 0.176,0.164 c 0.063,0.059 1.082,2.891 2.27,6.238 l 2.16,6.09 -1.227,3.262 c -1.289,0.445 -4.09,-3.508 -7.898,-7.887 m 0,0"
             id="path3056" />
          <path
             style="fill:#000000;fill-opacity:1;fill-rule:nonzero;stroke:none"
             inkscape:connector-curvature="0"
             d="m 24.863,12 c -0.199,0 -6.01,3.793 -7.32,4.746 -0.023,0 -0.426,0.398 -0.426,0.398 l 12.215,0 c 0.109,0 0.199,0 0.199,0 L 29.254,16.246 29.016,15.508 27.578,14.047 26.14,12.574 25.589,12.285 C 25.284,12.129 24.96,11.996 24.862,11.996 m -7.746,5.148 0,12.395 c 0.105,0.031 3.03,1.117 6.27,2.262 3.242,1.145 5.949,2.078 6.02,2.086 0.168,0.02 3.328,-1.148 3.328,-1.148 -5.371,-5.477 -9.777,-9.762 -15.617,-15.594 m 0,0"
             id="path3058" />
        </g>
      </g>
    </g>
    <g
       id="g3064"
       transform="translate(-10e-4,1004.3662)">
      <path
         style="fill:#00a3de;fill-opacity:1;fill-rule:nonzero;stroke:none"
         inkscape:connector-curvature="0"
         d="m 32.414,29.605 -0.988,-1.469 -1.41,-4.738 c -1.09,-3.668 -1.508,-6.02 -0.484,-6.25 0,0 1.113,0.438 1.117,0.438 l 0.863,0.395 2.203,2.184 2.285,2.184 0,9.125 -1.609,0.477 c -0.844,0.25 -1.641,0.852 -1.656,0.789 l -0.078,-0.313 m -0.242,-2.816"
         id="path3066" />
      <path
         style="fill:#45c0b9;fill-opacity:1;fill-rule:nonzero;stroke:none"
         inkscape:connector-curvature="0"
         d="m 20.227,33.797 -2.176,-2.199 -0.93,-2.059 c 1.566,-1.434 4.703,-0.609 5.52,-0.199 l 5.891,3.094 2.426,0.863 c -4.746,-1.684 1.539,-0.691 1.645,-0.773 l 0.188,-0.145 -0.055,0.359 -1.215,3.258 -4.559,0.004 -4.559,0 m -2.176,-2.203"
         id="path3068" />
      <path
         style="fill:#0071ba;fill-opacity:1;fill-rule:nonzero;stroke:none"
         inkscape:connector-curvature="0"
         d="m 24.836,24.852 -7.715,-7.707 1.637,6.727 -1.637,5.668 -1.566,-0.59 -1.609,-1.582 -1.609,-1.578 -0.336,-1.117 2.539,-3.809 2.582,-3.715 6.07,-0.676 6.164,0.512 0.176,0.164 c 0.063,0.059 1.082,2.891 2.27,6.238 l 2.16,6.09 -1.227,3.262 c -1.289,0.445 -4.09,-3.508 -7.898,-7.887 m 0,0"
         id="path3070" />
      <path
         style="fill:#01b1a9;fill-opacity:1;fill-rule:nonzero;stroke:none"
         inkscape:connector-curvature="0"
         d="m 24.863,12 c -0.199,0 -6.01,3.793 -7.32,4.746 -0.023,0 -0.426,0.398 -0.426,0.398 l 12.215,0 c 0.109,0 0.199,0 0.199,0 L 29.254,16.246 29.016,15.508 27.578,14.047 26.14,12.574 25.589,12.285 C 25.284,12.129 24.96,11.996 24.862,11.996 m -7.746,5.148 0,12.395 c 0.105,0.031 3.03,1.117 6.27,2.262 3.242,1.145 5.949,2.078 6.02,2.086 0.168,0.02 3.328,-1.148 3.328,-1.148 -5.371,-5.477 -9.777,-9.762 -15.617,-15.594 m 0,0"
         id="path3072" />
    </g>
  </g>
</svg>
