<?xml version="1.0" encoding="UTF-8" standalone="no"?>
<!-- Created with Inkscape (http://www.inkscape.org/) -->

<svg
   xmlns:dc="http://purl.org/dc/elements/1.1/"
   xmlns:cc="http://creativecommons.org/ns#"
   xmlns:rdf="http://www.w3.org/1999/02/22-rdf-syntax-ns#"
   xmlns:svg="http://www.w3.org/2000/svg"
   xmlns="http://www.w3.org/2000/svg"
   xmlns:xlink="http://www.w3.org/1999/xlink"
   xmlns:sodipodi="http://sodipodi.sourceforge.net/DTD/sodipodi-0.dtd"
   xmlns:inkscape="http://www.inkscape.org/namespaces/inkscape"
   width="48"
   height="48"
   id="svg2"
   version="1.1"
   inkscape:version="0.48.4 r9939"
   sodipodi:docname="dasher.svg">
  <defs
     id="defs4">
    <linearGradient
       id="linearGradient3780">
      <stop
         style="stop-color:#00b0ff;stop-opacity:1;"
         offset="0"
         id="stop3782" />
      <stop
         style="stop-color:#43ff92;stop-opacity:1;"
         offset="1"
         id="stop3784" />
    </linearGradient>
    <linearGradient
       id="linearGradient3779">
      <stop
         style="stop-color:#000000;stop-opacity:1;"
         offset="0"
         id="stop3781" />
      <stop
         style="stop-color:#ffffff;stop-opacity:1;"
         offset="1"
         id="stop3783" />
    </linearGradient>
    <linearGradient
       inkscape:collect="always"
       xlink:href="#linearGradient3779"
       id="linearGradient3795"
       gradientUnits="userSpaceOnUse"
       gradientTransform="translate(-20,0)"
       spreadMethod="repeat"
       x1="24"
       y1="1028.3622"
       x2="45"
       y2="1007.3622" />
    <linearGradient
       inkscape:collect="always"
       xlink:href="#linearGradient3779"
       id="linearGradient3797"
       gradientUnits="userSpaceOnUse"
       gradientTransform="translate(-20,0)"
       spreadMethod="repeat"
       x1="44"
       y1="1048.3622"
       x2="15"
       y2="1019.3622" />
    <linearGradient
       inkscape:collect="always"
       xlink:href="#linearGradient3780"
       id="linearGradient3786"
       x1="24"
       y1="1050.3622"
       x2="24"
       y2="1006.3622"
       gradientUnits="userSpaceOnUse" />
    <linearGradient
       gradientUnits="userSpaceOnUse"
       y2="96"
       x2="96"
       y1="18"
       x1="18"
       id="linearGradient4581"
       xlink:href="#linearGradient4575"
       inkscape:collect="always" />
    <linearGradient
       id="linearGradient4575"
       inkscape:collect="always">
      <stop
         id="stop4577"
         offset="0"
         style="stop-color:#000000;stop-opacity:1;" />
      <stop
         id="stop4579"
         offset="1"
         style="stop-color:#000000;stop-opacity:0;" />
    </linearGradient>
    <linearGradient
       inkscape:collect="always"
       xlink:href="#linearGradient4575"
       id="linearGradient3799"
       gradientUnits="userSpaceOnUse"
       x1="18"
       y1="18"
       x2="96"
       y2="96"
       gradientTransform="matrix(0.49998749,0,0,0.49998749,-59.999399,1004.3622)" />
  </defs>
  <sodipodi:namedview
     id="base"
     pagecolor="#ffffff"
     bordercolor="#666666"
     borderopacity="1.0"
     inkscape:pageopacity="0.0"
     inkscape:pageshadow="2"
     inkscape:zoom="8.1906533"
     inkscape:cx="11.511118"
     inkscape:cy="15.88222"
     inkscape:document-units="px"
     inkscape:current-layer="layer1"
     showgrid="true"
     inkscape:snap-bbox="true"
     inkscape:window-width="1301"
     inkscape:window-height="744"
     inkscape:window-x="65"
     inkscape:window-y="24"
     inkscape:window-maximized="1"
     inkscape:snap-global="true">
    <inkscape:grid
       type="xygrid"
       id="grid2985"
       empspacing="6"
       visible="true"
       enabled="true"
       snapvisiblegridlinesonly="true" />
  </sodipodi:namedview>
  <metadata
     id="metadata7">
    <rdf:RDF>
      <cc:Work
         rdf:about="">
        <dc:format>image/svg+xml</dc:format>
        <dc:type
           rdf:resource="http://purl.org/dc/dcmitype/StillImage" />
        <dc:title />
      </cc:Work>
    </rdf:RDF>
  </metadata>
  <g
     inkscape:label="Layer 1"
     inkscape:groupmode="layer"
     id="layer1"
     transform="translate(0,-1004.3622)">
    <path
       id="path3788"
       d="m 24,1051.1116 c -21.2715315,0 -23.66257505,-0.089 -23.9375,-15.4063 0.328125,14.4033 2.9375,14.4063 23.9375,14.4063 21,0 23.609375,0 23.9375,-14.4063 -0.274925,15.3174 -2.665968,15.4063 -23.9375,15.4063 z"
       style="opacity:0.20000000000000001;fill:#ffffff;fill-opacity:1;stroke:none"
       inkscape:connector-curvature="0" />
    <path
       style="fill:url(#linearGradient3786);fill-opacity:1;stroke:none"
       d="m 24,1006.3622 c -24,0 -24,0 -24,22 0,22 0,22 24,22 24,0 24,0 24,-22 0,-22 0,-22 -24,-22 z"
       id="path3757"
       inkscape:connector-curvature="0"
       sodipodi:nodetypes="zzzzz" />
    <g
       id="g3791"
       transform="translate(20,0)">
      <path
         style="opacity:0.02999998;fill:url(#linearGradient3795);fill-opacity:1;stroke:none"
         d="m 4,1006.3622 c -24,0 -24,0 -24,22 0,22 0,22 24,22 24,0 24,0 24,-22 0,-22 0,-22 -24,-22 z"
         id="path3777"
         inkscape:connector-curvature="0"
         sodipodi:nodetypes="zzzzz" />
      <path
         sodipodi:nodetypes="zzzzz"
         inkscape:connector-curvature="0"
         id="path3787"
         d="m 4,1006.3622 c -24,0 -24,0 -24,22 0,22 0,22 24,22 24,0 24,0 24,-22 0,-22 0,-22 -24,-22 z"
         style="opacity:0.02999998;fill:url(#linearGradient3797);fill-opacity:1;stroke:none" />
    </g>
    <path
       style="fill:#000000;fill-opacity:1;stroke:none;opacity:0.20000000000000001"
       d="M 24 2 C 2.7284685 2 0.33742495 2.0888436 0.0625 17.40625 C 0.390625 3.0029297 3 3 24 3 C 45 3 47.609375 3.0029297 47.9375 17.40625 C 47.662575 2.0888436 45.271532 2 24 2 z "
       transform="translate(0,1004.3622)"
       id="path3770" />
    <path
       style="fill:#000000;fill-opacity:1;stroke:none;opacity:0.20000000000000001"
       d="M 24 2 C 7.2405624 2 2.2369698 2.0788791 0.71875 9.59375 C 2.3300781 2.5289866 7.5 2.53125 24 2.53125 C 40.5 2.53125 45.669922 2.5289866 47.28125 9.59375 C 45.76303 2.0788791 40.759438 2 24 2 z M 47.28125 9.59375 C 47.354492 9.9148756 47.409424 10.242768 47.46875 10.59375 C 47.41561 10.240351 47.346891 9.9186608 47.28125 9.59375 z M 0.71875 9.59375 C 0.65310868 9.9186608 0.58439008 10.240351 0.53125 10.59375 C 0.59057617 10.242768 0.64550781 9.9148756 0.71875 9.59375 z "
       transform="translate(0,1004.3622)"
       id="path3012" />
    <g
       id="g3032"
       transform="translate(48,1007.3622)" />
    <path
       style="fill:#000000;fill-opacity:1;stroke:none;opacity:0.2"
       d="m 11,1016.3622 0,11.9997 11.9997,0 0,-11.9997 -11.9997,0 z m 14.999625,0 0,11.9997 11.999699,0 0,-11.9997 -11.999699,0 z m -8.515412,0.9999 c 0.106379,-0.01 0.216265,-0.01 0.328116,0 0.914244,0.064 1.502971,0.509 1.765581,1.3281 l 2.156196,6.7342 c 0.06807,0.2169 0.103465,0.41 0.09375,0.5625 -0.03891,0.3213 -0.208215,0.5653 -0.499988,0.75 -0.29179,0.1848 -0.614767,0.2741 -0.98435,0.25 -0.573845,-0.04 -0.979402,-0.2703 -1.203095,-0.6718 -0.05836,-0.1044 -0.180475,-0.512 -0.37499,-1.2188 l -3.515538,-0.25 c -0.330687,0.6586 -0.537452,1.0443 -0.624984,1.1406 -0.30151,0.3695 -0.732732,0.5245 -1.296842,0.4844 -0.389043,-0.032 -0.721747,-0.1577 -0.984351,-0.3906 -0.262603,-0.241 -0.382645,-0.5301 -0.343741,-0.8594 0.0097,-0.1446 0.08051,-0.3077 0.187495,-0.4843 l 3.59366,-6.3124 c 0.194518,-0.3292 0.477962,-0.596 0.828104,-0.7968 0.269896,-0.1506 0.55584,-0.2461 0.874979,-0.2657 z m 14.702757,0.125 c 0.768354,0 1.435832,0.1851 1.99995,0.5625 0.564105,0.3775 0.887082,0.8963 0.98435,1.5469 0.01945,0.1205 0.03124,0.2389 0.03125,0.3593 -7e-6,0.6024 -0.244233,1.0908 -0.749981,1.4844 0.496022,0 0.947011,0.1854 1.374966,0.5468 0.437664,0.3614 0.703413,0.8061 0.78123,1.3281 0.01944,0.1607 0.03124,0.3162 0.03125,0.4688 -9e-6,0.7871 -0.30322,1.4319 -0.906227,1.9218 -0.603023,0.4899 -1.41031,0.7862 -2.421814,0.8906 l -2.984301,0.2969 c -0.437675,0.04 -0.819638,-0.042 -1.140596,-0.2344 -0.320962,-0.1848 -0.504131,-0.4511 -0.562486,-0.8125 l -0.999975,-6.7186 c -0.05836,-0.3694 0.04399,-0.6653 0.296867,-0.9062 0.252879,-0.249 0.593551,-0.3973 1.031225,-0.4375 l 2.78118,-0.2812 c 0.155613,-0.01 0.307219,-0.016 0.453114,-0.016 z m -0.749982,2.25 -0.765605,0.078 0.187495,1.2031 0.749981,-0.078 c 0.544655,-0.056 0.78681,-0.3007 0.718732,-0.7344 -0.04863,-0.3694 -0.345947,-0.5249 -0.890603,-0.4687 z m -13.984025,0.625 c -0.204252,0.506 -0.568518,1.2768 -1.093722,2.2968 l 1.765581,0.125 -0.671859,-2.4218 z m 15.21837,2.6874 c -0.09727,0 -0.211409,0.015 -0.328117,0.031 l -1.171846,0.1093 0.20312,1.3906 1.343716,-0.1406 c 0.671093,-0.064 0.968406,-0.3457 0.890603,-0.8437 -0.04863,-0.3614 -0.353917,-0.5469 -0.937476,-0.5469 z m -18.671408,8.3123 0,11.9997 11.9997,0 0,-11.9997 -11.9997,0 z m 14.999624,0 0,11.9997 11.9997,0 0,-11.9997 -11.9997,0 z m -8.359165,1.125 c 0.291776,0 0.594987,0.022 0.906227,0.062 0.719722,0.096 1.3872,0.2885 1.99995,0.5937 0.778076,0.3855 1.171836,0.8226 1.171846,1.3125 -10e-6,0.2972 -0.137747,0.5564 -0.390616,0.7812 -0.243161,0.2168 -0.546371,0.3281 -0.906227,0.3281 -0.252886,0 -0.625122,-0.126 -1.140596,-0.375 -0.369598,-0.1767 -0.769256,-0.2798 -1.187471,-0.3281 -0.126444,-0.016 -0.254455,-0.031 -0.390615,-0.031 -0.632199,0 -1.165767,0.1926 -1.59371,0.5781 -0.42795,0.3855 -0.69577,0.9043 -0.81248,1.5468 -0.03891,0.1848 -0.0625,0.3702 -0.0625,0.5469 -3e-6,0.5541 0.169298,1.0055 0.499987,1.3749 0.350136,0.3936 0.830617,0.6385 1.453089,0.7188 0.145886,0.016 0.285694,0.016 0.421864,0.016 0.262599,0 0.583505,-0.029 0.953102,-0.1094 0.37931,-0.08 0.641231,-0.125 0.796855,-0.125 0.408487,0 0.752988,0.1332 1.015599,0.4063 0.272322,0.265 0.364942,0.5536 0.296868,0.8749 -0.08754,0.4578 -0.45181,0.8063 -1.093723,1.0313 -0.515488,0.1767 -1.135778,0.2656 -1.874953,0.2656 -0.340417,0 -0.661324,-0.022 -0.953101,-0.062 -1.371379,-0.1767 -2.470079,-0.6955 -3.296793,-1.5469 -0.807263,-0.8272 -1.203095,-1.8125 -1.203095,-2.953 0,-0.2891 0.01977,-0.5702 0.07812,-0.8594 0.223699,-1.1966 0.824222,-2.1749 1.79683,-2.9218 0.982329,-0.755 2.153883,-1.1249 3.515537,-1.1249 z m 14.202769,0 c 1.37137,0 2.501634,0.3481 3.406165,1.0468 0.914242,0.6988 1.502968,1.6618 1.765581,2.8906 0.06807,0.3292 0.109362,0.6475 0.109372,0.9687 -1e-5,1.0843 -0.405566,2.0106 -1.203095,2.7656 -0.787819,0.7549 -1.862925,1.2366 -3.234294,1.4374 l -2.499937,0.3594 c -0.08754,0.016 -0.189884,0.016 -0.296868,0.016 -0.826717,0 -1.316925,-0.3258 -1.453089,-0.9843 l -1.421839,-6.6405 c -0.0097,-0.08 -0.01563,-0.1696 -0.01563,-0.25 1e-6,-0.2971 0.104418,-0.5488 0.328117,-0.7656 0.2237,-0.2168 0.521012,-0.35 0.890603,-0.4062 l 2.40619,-0.3594 c 0.418217,-0.056 0.819946,-0.078 1.218719,-0.078 z m -0.187495,2.2812 c -0.184799,0 -0.379766,0.015 -0.593735,0.047 l -0.953101,0.125 0.968725,4.578 1.093723,-0.1562 c 1.293561,-0.1847 1.95307,-0.8443 1.953076,-1.9687 -6e-6,-0.2007 -0.0295,-0.4081 -0.07812,-0.625 -0.291789,-1.3412 -1.087277,-1.9999 -2.390565,-1.9999 z"
       id="path3805"
       inkscape:connector-curvature="0" />
    <path
       inkscape:connector-curvature="0"
       id="rect3762"
       d="m 10,1015.3622 0,11.9997 11.9997,0 0,-11.9997 -11.9997,0 z m 14.999625,0 0,11.9997 11.999699,0 0,-11.9997 -11.999699,0 z m -8.515412,0.9999 c 0.106379,-0.01 0.216265,-0.01 0.328116,0 0.914244,0.064 1.502971,0.509 1.765581,1.3281 l 2.156196,6.7342 c 0.06807,0.2169 0.103465,0.41 0.09375,0.5625 -0.03891,0.3213 -0.208215,0.5653 -0.499988,0.75 -0.29179,0.1848 -0.614767,0.2741 -0.98435,0.25 -0.573845,-0.04 -0.979402,-0.2703 -1.203095,-0.6718 -0.05836,-0.1044 -0.180475,-0.512 -0.37499,-1.2188 l -3.515538,-0.25 c -0.330687,0.6586 -0.537452,1.0443 -0.624984,1.1406 -0.30151,0.3695 -0.732732,0.5245 -1.296842,0.4844 -0.389043,-0.032 -0.721747,-0.1577 -0.984351,-0.3906 -0.262603,-0.241 -0.382645,-0.5301 -0.343741,-0.8594 0.0097,-0.1446 0.08051,-0.3077 0.187495,-0.4843 l 3.59366,-6.3124 c 0.194518,-0.3292 0.477962,-0.596 0.828104,-0.7968 0.269896,-0.1506 0.55584,-0.2461 0.874979,-0.2657 z m 14.702757,0.125 c 0.768354,0 1.435832,0.1851 1.99995,0.5625 0.564105,0.3775 0.887082,0.8963 0.98435,1.5469 0.01945,0.1205 0.03124,0.2389 0.03125,0.3593 -7e-6,0.6024 -0.244233,1.0908 -0.749981,1.4844 0.496022,0 0.947011,0.1854 1.374966,0.5468 0.437664,0.3614 0.703413,0.8061 0.78123,1.3281 0.01944,0.1607 0.03124,0.3162 0.03125,0.4688 -9e-6,0.7871 -0.30322,1.4319 -0.906227,1.9218 -0.603023,0.4899 -1.41031,0.7862 -2.421814,0.8906 l -2.984301,0.2969 c -0.437675,0.04 -0.819638,-0.042 -1.140596,-0.2344 -0.320962,-0.1848 -0.504131,-0.4511 -0.562486,-0.8125 l -0.999975,-6.7186 c -0.05836,-0.3694 0.04399,-0.6653 0.296867,-0.9062 0.252879,-0.249 0.593551,-0.3973 1.031225,-0.4375 l 2.78118,-0.2812 c 0.155613,-0.01 0.307219,-0.016 0.453114,-0.016 z m -0.749982,2.25 -0.765605,0.078 0.187495,1.2031 0.749981,-0.078 c 0.544655,-0.056 0.78681,-0.3007 0.718732,-0.7344 -0.04863,-0.3694 -0.345947,-0.5249 -0.890603,-0.4687 z m -13.984025,0.625 c -0.204252,0.506 -0.568518,1.2768 -1.093722,2.2968 l 1.765581,0.125 -0.671859,-2.4218 z m 15.21837,2.6874 c -0.09727,0 -0.211409,0.015 -0.328117,0.031 l -1.171846,0.1093 0.20312,1.3906 1.343716,-0.1406 c 0.671093,-0.064 0.968406,-0.3457 0.890603,-0.8437 -0.04863,-0.3614 -0.353917,-0.5469 -0.937476,-0.5469 z m -18.671408,8.3123 0,11.9997 11.9997,0 0,-11.9997 -11.9997,0 z m 14.999624,0 0,11.9997 11.9997,0 0,-11.9997 -11.9997,0 z m -8.359165,1.125 c 0.291776,0 0.594987,0.022 0.906227,0.062 0.719722,0.096 1.3872,0.2885 1.99995,0.5937 0.778076,0.3855 1.171836,0.8226 1.171846,1.3125 -10e-6,0.2972 -0.137747,0.5564 -0.390616,0.7812 -0.243161,0.2168 -0.546371,0.3281 -0.906227,0.3281 -0.252886,0 -0.625122,-0.126 -1.140596,-0.375 -0.369598,-0.1767 -0.769256,-0.2798 -1.187471,-0.3281 -0.126444,-0.016 -0.254455,-0.031 -0.390615,-0.031 -0.632199,0 -1.165767,0.1926 -1.59371,0.5781 -0.42795,0.3855 -0.69577,0.9043 -0.81248,1.5468 -0.03891,0.1848 -0.0625,0.3702 -0.0625,0.5469 -3e-6,0.5541 0.169298,1.0055 0.499987,1.3749 0.350136,0.3936 0.830617,0.6385 1.453089,0.7188 0.145886,0.016 0.285694,0.016 0.421864,0.016 0.262599,0 0.583505,-0.029 0.953102,-0.1094 0.37931,-0.08 0.641231,-0.125 0.796855,-0.125 0.408487,0 0.752988,0.1332 1.015599,0.4063 0.272322,0.265 0.364942,0.5536 0.296868,0.8749 -0.08754,0.4578 -0.45181,0.8063 -1.093723,1.0313 -0.515488,0.1767 -1.135778,0.2656 -1.874953,0.2656 -0.340417,0 -0.661324,-0.022 -0.953101,-0.062 -1.371379,-0.1767 -2.470079,-0.6955 -3.296793,-1.5469 -0.807263,-0.8272 -1.203095,-1.8125 -1.203095,-2.953 0,-0.2891 0.01977,-0.5702 0.07812,-0.8594 0.223699,-1.1966 0.824222,-2.1749 1.79683,-2.9218 0.982329,-0.755 2.153883,-1.1249 3.515537,-1.1249 z m 14.202769,0 c 1.37137,0 2.501634,0.3481 3.406165,1.0468 0.914242,0.6988 1.502968,1.6618 1.765581,2.8906 0.06807,0.3292 0.109362,0.6475 0.109372,0.9687 -1e-5,1.0843 -0.405566,2.0106 -1.203095,2.7656 -0.787819,0.7549 -1.862925,1.2366 -3.234294,1.4374 l -2.499937,0.3594 c -0.08754,0.016 -0.189884,0.016 -0.296868,0.016 -0.826717,0 -1.316925,-0.3258 -1.453089,-0.9843 l -1.421839,-6.6405 c -0.0097,-0.08 -0.01563,-0.1696 -0.01563,-0.25 1e-6,-0.2971 0.104418,-0.5488 0.328117,-0.7656 0.2237,-0.2168 0.521012,-0.35 0.890603,-0.4062 l 2.40619,-0.3594 c 0.418217,-0.056 0.819946,-0.078 1.218719,-0.078 z m -0.187495,2.2812 c -0.184799,0 -0.379766,0.015 -0.593735,0.047 l -0.953101,0.125 0.968725,4.578 1.093723,-0.1562 c 1.293561,-0.1847 1.95307,-0.8443 1.953076,-1.9687 -6e-6,-0.2007 -0.0295,-0.4081 -0.07812,-0.625 -0.291789,-1.3412 -1.087277,-1.9999 -2.390565,-1.9999 z"
       style="fill:#ffffff;fill-opacity:1;stroke:none" />
  </g>
</svg>
