<?xml version="1.0" encoding="UTF-8" standalone="no"?>
<!-- Created with Inkscape (http://www.inkscape.org/) -->

<svg
   xmlns:dc="http://purl.org/dc/elements/1.1/"
   xmlns:cc="http://creativecommons.org/ns#"
   xmlns:rdf="http://www.w3.org/1999/02/22-rdf-syntax-ns#"
   xmlns:svg="http://www.w3.org/2000/svg"
   xmlns="http://www.w3.org/2000/svg"
   xmlns:xlink="http://www.w3.org/1999/xlink"
   xmlns:sodipodi="http://sodipodi.sourceforge.net/DTD/sodipodi-0.dtd"
   xmlns:inkscape="http://www.inkscape.org/namespaces/inkscape"
   width="48"
   height="48"
   id="svg2"
   version="1.1"
   inkscape:version="0.48.4 r9939"
   sodipodi:docname="defcon.svg">
  <defs
     id="defs4">
    <linearGradient
       id="linearGradient3779">
      <stop
         style="stop-color:#000000;stop-opacity:1;"
         offset="0"
         id="stop3781" />
      <stop
         style="stop-color:#ffffff;stop-opacity:1;"
         offset="1"
         id="stop3783" />
    </linearGradient>
    <linearGradient
       inkscape:collect="always"
       xlink:href="#linearGradient3779"
       id="linearGradient3795"
       gradientUnits="userSpaceOnUse"
       gradientTransform="translate(-20,0)"
       spreadMethod="repeat"
       x1="24"
       y1="1028.3622"
       x2="45"
       y2="1007.3622" />
    <linearGradient
       inkscape:collect="always"
       xlink:href="#linearGradient3779"
       id="linearGradient3797"
       gradientUnits="userSpaceOnUse"
       gradientTransform="translate(-20,0)"
       spreadMethod="repeat"
       x1="44"
       y1="1048.3622"
       x2="15"
       y2="1019.3622" />
  </defs>
  <sodipodi:namedview
     id="base"
     pagecolor="#ffffff"
     bordercolor="#666666"
     borderopacity="1.0"
     inkscape:pageopacity="0.0"
     inkscape:pageshadow="2"
     inkscape:zoom="8.1906533"
     inkscape:cx="-9.9447841"
     inkscape:cy="26.832807"
     inkscape:document-units="px"
     inkscape:current-layer="layer1"
     showgrid="true"
     inkscape:snap-bbox="true"
     inkscape:window-width="1301"
     inkscape:window-height="744"
     inkscape:window-x="65"
     inkscape:window-y="24"
     inkscape:window-maximized="1"
     inkscape:object-nodes="true">
    <inkscape:grid
       type="xygrid"
       id="grid3003"
       empspacing="6"
       visible="true"
       enabled="true"
       snapvisiblegridlinesonly="true" />
  </sodipodi:namedview>
  <metadata
     id="metadata7">
    <rdf:RDF>
      <cc:Work
         rdf:about="">
        <dc:format>image/svg+xml</dc:format>
        <dc:type
           rdf:resource="http://purl.org/dc/dcmitype/StillImage" />
        <dc:title />
      </cc:Work>
    </rdf:RDF>
  </metadata>
  <g
     inkscape:label="Layer 1"
     inkscape:groupmode="layer"
     id="layer1"
     transform="translate(0,-1004.3622)">
    <path
       id="path3788"
       d="m 24,1051.1116 c -21.2715315,0 -23.66257505,-0.089 -23.9375,-15.4063 0.328125,14.4033 2.9375,14.4063 23.9375,14.4063 21,0 23.609375,0 23.9375,-14.4063 -0.274925,15.3174 -2.665968,15.4063 -23.9375,15.4063 z"
       style="opacity:0.20000000000000001;fill:#ffffff;fill-opacity:1;stroke:none"
       inkscape:connector-curvature="0" />
    <path
       style="fill:#424242;fill-opacity:1;stroke:none"
       d="m 24,1006.3622 c -24,0 -24,0 -24,22 0,22 0,22 24,22 24,0 24,0 24,-22 0,-22 0,-22 -24,-22 z"
       id="path3757"
       inkscape:connector-curvature="0"
       sodipodi:nodetypes="zzzzz" />
    <g
       id="g3791"
       transform="translate(20,0)">
      <path
         style="opacity:0.02999998;fill:url(#linearGradient3795);fill-opacity:1;stroke:none"
         d="m 4,1006.3622 c -24,0 -24,0 -24,22 0,22 0,22 24,22 24,0 24,0 24,-22 0,-22 0,-22 -24,-22 z"
         id="path3777"
         inkscape:connector-curvature="0"
         sodipodi:nodetypes="zzzzz" />
      <path
         sodipodi:nodetypes="zzzzz"
         inkscape:connector-curvature="0"
         id="path3787"
         d="m 4,1006.3622 c -24,0 -24,0 -24,22 0,22 0,22 24,22 24,0 24,0 24,-22 0,-22 0,-22 -24,-22 z"
         style="opacity:0.02999998;fill:url(#linearGradient3797);fill-opacity:1;stroke:none" />
    </g>
    <path
       style="fill:#000000;fill-opacity:1;stroke:none;opacity:0.20000000000000001"
       d="M 24 2 C 2.7284685 2 0.33742495 2.0888436 0.0625 17.40625 C 0.390625 3.0029297 3 3 24 3 C 45 3 47.609375 3.0029297 47.9375 17.40625 C 47.662575 2.0888436 45.271532 2 24 2 z "
       transform="translate(0,1004.3622)"
       id="path3770" />
    <g
       id="g3813"
       transform="translate(-47.998,993.3622)" />
    <g
       style="opacity:0.2;fill:#000000;fill-opacity:1"
       id="g3814"
       transform="translate(0.97672304,0.97672304)">
      <path
         style="fill:#000000;fill-opacity:1;stroke:none"
         d="m 24,10 c -2.874628,0 -5.526958,0.889106 -7.75,2.375 l 5.53125,8.28125 C 22.41276,20.23912 23.186523,20 24,20 c 0.813477,0 1.58724,0.23912 2.21875,0.65625 L 31.75,12.375 C 29.526958,10.889106 26.874628,10 24,10 z"
         transform="translate(0,1004.3622)"
         id="path3816"
         inkscape:connector-curvature="0"
         inkscape:transform-center-y="-8.671875" />
      <path
         inkscape:transform-center-y="5.8125"
         inkscape:connector-curvature="0"
         id="path3818"
         d="m 11.875644,1035.3622 c 1.437314,2.4895 3.533468,4.3419 5.931811,5.5242 l 4.406148,-8.9308 c -0.677001,-0.3384 -1.270966,-0.8889 -1.677705,-1.5934 -0.406738,-0.7045 -0.586536,-1.4942 -0.541045,-2.2496 l -9.937398,-0.6496 c -0.1753013,2.6682 0.380875,5.4097 1.818189,7.8992 z"
         style="fill:#000000;fill-opacity:1;stroke:none"
         inkscape:transform-center-x="7.8800989" />
      <path
         inkscape:transform-center-x="-7.8801045"
         style="fill:#000000;fill-opacity:1;stroke:none"
         d="m 36.124356,1035.3622 c 1.437313,-2.4895 1.993462,-5.231 1.818192,-7.8992 l -9.937374,0.6496 c 0.04544,0.7555 -0.134327,1.5451 -0.541072,2.2496 -0.406746,0.7045 -1.000747,1.2551 -1.677688,1.5934 l 4.406128,8.9308 c 2.39838,-1.1823 4.494501,-3.0347 5.931814,-5.5242 z"
         id="path3820"
         inkscape:connector-curvature="0"
         inkscape:transform-center-y="5.8125" />
    </g>
    <g
       id="g3804"
       style="fill:#f44336">
      <path
         inkscape:transform-center-y="-8.671875"
         inkscape:connector-curvature="0"
         id="path3021"
         transform="translate(0,1004.3622)"
         d="m 24,10 c -2.874628,0 -5.526958,0.889106 -7.75,2.375 l 5.53125,8.28125 C 22.41276,20.23912 23.186523,20 24,20 c 0.813477,0 1.58724,0.23912 2.21875,0.65625 L 31.75,12.375 C 29.526958,10.889106 26.874628,10 24,10 z"
         style="fill:#f44336;fill-opacity:1;stroke:none" />
      <path
         inkscape:transform-center-x="7.8800989"
         style="fill:#f44336;fill-opacity:1;stroke:none"
         d="m 11.875644,1035.3622 c 1.437314,2.4895 3.533468,4.3419 5.931811,5.5242 l 4.406148,-8.9308 c -0.677001,-0.3384 -1.270966,-0.8889 -1.677705,-1.5934 -0.406738,-0.7045 -0.586536,-1.4942 -0.541045,-2.2496 l -9.937398,-0.6496 c -0.1753013,2.6682 0.380875,5.4097 1.818189,7.8992 z"
         id="path3800"
         inkscape:connector-curvature="0"
         inkscape:transform-center-y="5.8125" />
      <path
         inkscape:transform-center-y="5.8125"
         inkscape:connector-curvature="0"
         id="path3802"
         d="m 36.124356,1035.3622 c 1.437313,-2.4895 1.993462,-5.231 1.818192,-7.8992 l -9.937374,0.6496 c 0.04544,0.7555 -0.134327,1.5451 -0.541072,2.2496 -0.406746,0.7045 -1.000747,1.2551 -1.677688,1.5934 l 4.406128,8.9308 c 2.39838,-1.1823 4.494501,-3.0347 5.931814,-5.5242 z"
         style="fill:#f44336;fill-opacity:1;stroke:none"
         inkscape:transform-center-x="-7.8801045" />
    </g>
    <path
       transform="matrix(1.1333333,0,0,1.1333333,-2.2232768,1002.139)"
       d="M 39,24 C 39,32.284271 32.284271,39 24,39 15.715729,39 9,32.284271 9,24 9,15.715729 15.715729,9 24,9 c 8.284271,0 15,6.715729 15,15 z"
       sodipodi:ry="15"
       sodipodi:rx="15"
       sodipodi:cy="24"
       sodipodi:cx="24"
       id="path3822"
       style="opacity:0.2;fill:none;stroke:#000000;stroke-width:1.7647059;stroke-miterlimit:4;stroke-opacity:1;stroke-dasharray:none"
       sodipodi:type="arc" />
    <path
       sodipodi:type="arc"
       style="fill:none;stroke:#fff670;stroke-width:1.76470590000000005;stroke-miterlimit:4;stroke-opacity:1;stroke-dasharray:none"
       id="path3809"
       sodipodi:cx="24"
       sodipodi:cy="24"
       sodipodi:rx="15"
       sodipodi:ry="15"
       d="M 39,24 C 39,32.284271 32.284271,39 24,39 15.715729,39 9,32.284271 9,24 9,15.715729 15.715729,9 24,9 c 8.284271,0 15,6.715729 15,15 z"
       transform="matrix(1.1333333,0,0,1.1333333,-3.2,1001.1622)" />
    <path
       sodipodi:type="arc"
       style="fill:#bdbdbd;fill-opacity:1;stroke:none"
       id="path3811"
       sodipodi:cx="23"
       sodipodi:cy="24"
       sodipodi:rx="4"
       sodipodi:ry="4"
       d="m 27,24 c 0,2.209139 -1.790861,4 -4,4 -2.209139,0 -4,-1.790861 -4,-4 0,-2.209139 1.790861,-4 4,-4 2.209139,0 4,1.790861 4,4 z"
       transform="translate(1,1004.3622)" />
  </g>
</svg>
