<?xml version="1.0" encoding="UTF-8" standalone="no"?>
<!-- Created with Inkscape (http://www.inkscape.org/) -->

<svg
   xmlns:dc="http://purl.org/dc/elements/1.1/"
   xmlns:cc="http://creativecommons.org/ns#"
   xmlns:rdf="http://www.w3.org/1999/02/22-rdf-syntax-ns#"
   xmlns:svg="http://www.w3.org/2000/svg"
   xmlns="http://www.w3.org/2000/svg"
   xmlns:xlink="http://www.w3.org/1999/xlink"
   xmlns:sodipodi="http://sodipodi.sourceforge.net/DTD/sodipodi-0.dtd"
   xmlns:inkscape="http://www.inkscape.org/namespaces/inkscape"
   width="48"
   height="48"
   id="svg2"
   version="1.1"
   inkscape:version="0.48.4 r9939"
   sodipodi:docname="xfce4-panel-menu.svg">
  <defs
     id="defs4">
    <linearGradient
       id="linearGradient3890">
      <stop
         style="stop-color:#285da5;stop-opacity:1;"
         offset="0"
         id="stop3892" />
      <stop
         style="stop-color:#2874a5;stop-opacity:1;"
         offset="1"
         id="stop3894" />
    </linearGradient>
    <clipPath
       id="clipPath-033233189">
      <g
         id="g3814"
         transform="translate(0,-1004.3622)">
        <path
           id="path3816"
           fill="#1890d0"
           transform="matrix(15.333333,0,0,11.5,414.99999,878.8622)"
           d="m -24 13 c 0 1.105 -0.672 2 -1.5 2 -0.828 0 -1.5 -0.895 -1.5 -2 0 -1.105 0.672 -2 1.5 -2 0.828 0 1.5 0.895 1.5 2 z" />
      </g>
    </clipPath>
    <clipPath
       id="clipPath-027103285">
      <g
         id="g3809"
         transform="translate(0,-1004.3622)">
        <path
           id="path3811"
           fill="#1890d0"
           transform="matrix(15.333333,0,0,11.5,414.99999,878.8622)"
           d="m -24 13 c 0 1.105 -0.672 2 -1.5 2 -0.828 0 -1.5 -0.895 -1.5 -2 0 -1.105 0.672 -2 1.5 -2 0.828 0 1.5 0.895 1.5 2 z" />
      </g>
    </clipPath>
    <linearGradient
       gradientTransform="matrix(0,-1,1,0,-1.5e-6,47.999998)"
       gradientUnits="userSpaceOnUse"
       x2="47"
       x1="1"
       id="linearGradient3764-0">
      <stop
         id="stop3804"
         stop-opacity="1"
         stop-color="#285da4" />
      <stop
         id="stop3806"
         stop-opacity="1"
         stop-color="#2c65b5"
         offset="1" />
    </linearGradient>
    <linearGradient
       inkscape:collect="always"
       xlink:href="#linearGradient3890"
       id="linearGradient3896"
       x1="24"
       y1="1050.3622"
       x2="24"
       y2="1006.3622"
       gradientUnits="userSpaceOnUse" />
  </defs>
  <sodipodi:namedview
     id="base"
     pagecolor="#ffffff"
     bordercolor="#666666"
     borderopacity="1.0"
     inkscape:pageopacity="0.0"
     inkscape:pageshadow="2"
     inkscape:zoom="8.1906534"
     inkscape:cx="16.80953"
     inkscape:cy="20.157576"
     inkscape:document-units="px"
     inkscape:current-layer="layer1"
     showgrid="true"
     inkscape:snap-bbox="true"
     inkscape:window-width="1301"
     inkscape:window-height="744"
     inkscape:window-x="65"
     inkscape:window-y="24"
     inkscape:window-maximized="1"
     inkscape:object-nodes="true"
     inkscape:object-paths="true"
     inkscape:snap-nodes="false">
    <inkscape:grid
       type="xygrid"
       id="grid3003"
       empspacing="6"
       visible="true"
       enabled="true"
       snapvisiblegridlinesonly="true" />
  </sodipodi:namedview>
  <metadata
     id="metadata7">
    <rdf:RDF>
      <cc:Work
         rdf:about="">
        <dc:format>image/svg+xml</dc:format>
        <dc:type
           rdf:resource="http://purl.org/dc/dcmitype/StillImage" />
        <dc:title />
      </cc:Work>
    </rdf:RDF>
  </metadata>
  <g
     inkscape:label="Layer 1"
     inkscape:groupmode="layer"
     id="layer1"
     transform="translate(0,-1004.3622)">
    <path
       id="path3788"
       d="m 24,1051.1116 c -21.2715315,0 -23.66257505,-0.089 -23.9375,-15.4063 0.328125,14.4033 2.9375,14.4063 23.9375,14.4063 21,0 23.609375,0 23.9375,-14.4063 -0.274925,15.3174 -2.665968,15.4063 -23.9375,15.4063 z"
       style="opacity:0.20000000000000001;fill:#ffffff;fill-opacity:1;stroke:none"
       inkscape:connector-curvature="0" />
    <path
       style="fill:url(#linearGradient3896);fill-opacity:1;stroke:none"
       d="m 24,1006.3622 c -24,0 -24,0 -24,22 0,22 0,22 24,22 24,0 24,0 24,-22 0,-22 0,-22 -24,-22 z"
       id="path3757"
       inkscape:connector-curvature="0"
       sodipodi:nodetypes="zzzzz" />
    <path
       style="fill:#000000;fill-opacity:1;stroke:none;opacity:0.20000000000000001"
       d="M 24 2 C 2.7284685 2 0.33742495 2.0888436 0.0625 17.40625 C 0.390625 3.0029297 3 3 24 3 C 45 3 47.609375 3.0029297 47.9375 17.40625 C 47.662575 2.0888436 45.271532 2 24 2 z "
       transform="translate(0,1004.3622)"
       id="path3770" />
    <g
       id="g3813"
       transform="translate(-47.998,993.3622)" />
    <g
       id="g3037"
       transform="translate(-48,1006.3622)" />
    <g
       id="g3058"
       transform="translate(-61,1009.3622)" />
    <g
       id="g3030"
       transform="translate(-58,1009.3622)" />
    <g
       id="g3830"
       transform="translate(-51.998,1007.3622)" />
    <g
       id="g3832"
       transform="translate(-0.062,1003.8662)">
      <g
         clip-path="url(#clipPath-027103285)"
         id="g3834">
        <g
           transform="translate(1,1)"
           id="g3836">
          <g
             style="opacity:0.1"
             id="g3838">
            <!-- color: #2c65b5 -->
            <g
               id="g3840">
              <path
                 style="fill:#000000;fill-opacity:1;fill-rule:nonzero;stroke:none"
                 inkscape:connector-curvature="0"
                 d="m 6.281,14.5 c -0.074,0.145 -0.148,0.289 -0.219,0.434 1.125,0.625 4.367,2.254 5.906,3.219 1.945,1.191 4.574,3.621 4.781,4.03 -2.023,3.523 -1.105,6.641 -1.344,6.973 -0.172,0.277 -1.762,2.023 -1.25,2.281 0.508,0.254 1.316,-0.145 1.438,-0.223 0.254,-0.156 0.516,-0.383 0.406,0.066 -0.215,0.918 -1.191,3.125 0.156,2.656 0.164,-0.094 2.332,-2.484 2.594,-2.566 4.313,1.125 9.137,0.609 10.03,0.191 0.465,0.031 1.781,0.859 2.531,1.254 0.75,0.391 2.793,1.371 2.188,-0.41 -0.188,-0.563 -1.531,-2 -1.313,-2.094 0.48,-0.191 1.668,0.496 2.125,0.625 1.367,0.383 1.551,-0.148 0.688,-1.316 -0.852,-1.168 -0.98,-0.988 -1.25,-1.527 -0.211,-0.434 0,-0.914 0.156,-1.031 0.277,-0.211 4.359,-2.477 5.316,-3.344 1.418,-1.289 0,-2.898 -0.348,-3.125 -2.941,-2.117 -5.961,-1.664 -6,-2 -0.02,-0.383 -0.012,-1.488 -0.063,-1.871 -0.293,-2.594 -1.492,-1.941 -1.656,-1.941 -1.199,0.188 -0.758,2.023 -0.25,3.75 0.039,0.441 -0.418,0.246 -0.688,-0.219 -0.922,-2.473 -1.309,-2.43 -1.563,-2.504 -0.246,-0.055 -1.113,0.473 -1.098,1.473 0.004,0.285 0.344,1.645 0.344,2.063 -0.566,0.496 -0.594,1.621 -1.188,2.031 -1.73,0.359 -5.887,-0.855 -6.406,-0.91 -1.797,-0.336 -2.582,1.012 -2.871,0.688 -2.332,-2.672 -5.895,-4.656 -7.438,-5 C 9.397,16.024 7.378,15.133 6.651,14.684 6.534,14.614 6.401,14.563 6.272,14.496 m 32.07,2.344 c -0.563,0.605 -0.465,2.867 -0.348,2.848 0.574,-0.117 0.52,-3.03 0.348,-2.848 m 1.629,0.344 c -0.066,-0.184 -1.547,1.895 -1.285,2.66 0.117,0.332 1.484,-2.078 1.285,-2.66 m -7.691,3.535 c 0.02,-0.02 0.043,0.008 0.066,0.031 0.172,0.57 0.363,1.113 1.496,1.25 0.133,0.016 -0.629,0.461 -1.152,0.188 -0.477,-0.289 -0.52,-1.34 -0.41,-1.469 m 2.938,2.871 c 0.105,-0.016 0.18,-0.012 0.254,0 0.277,0.07 -2.01,1.262 -2.188,1.098 -0.109,-0.105 1.219,-0.965 1.938,-1.098 m 0.594,0.754 c 0.238,0.02 -1.324,1.637 -1.5,1.469 -0.129,-0.117 1.012,-1.508 1.5,-1.469 m 0,0"
                 id="path3842" />
            </g>
          </g>
        </g>
      </g>
    </g>
    <g
       id="g3844"
       transform="translate(-0.062,1003.8662)">
      <g
         clip-path="url(#clipPath-033233189)"
         id="g3846">
        <!-- color: #2c65b5 -->
        <g
           id="g3848">
          <path
             style="fill:#f9f9f9;fill-opacity:1;fill-rule:nonzero;stroke:none"
             inkscape:connector-curvature="0"
             d="m 6.281,14.5 c -0.074,0.145 -0.148,0.289 -0.219,0.434 1.125,0.625 4.367,2.254 5.906,3.219 1.945,1.191 4.574,3.621 4.781,4.03 -2.023,3.523 -1.105,6.641 -1.344,6.973 -0.172,0.277 -1.762,2.023 -1.25,2.281 0.508,0.254 1.316,-0.145 1.438,-0.223 0.254,-0.156 0.516,-0.383 0.406,0.066 -0.215,0.918 -1.191,3.125 0.156,2.656 0.164,-0.094 2.332,-2.484 2.594,-2.566 4.313,1.125 9.137,0.609 10.03,0.191 0.465,0.031 1.781,0.859 2.531,1.254 0.75,0.391 2.793,1.371 2.188,-0.41 -0.188,-0.563 -1.531,-2 -1.313,-2.094 0.48,-0.191 1.668,0.496 2.125,0.625 1.367,0.383 1.551,-0.148 0.688,-1.316 -0.852,-1.168 -0.98,-0.988 -1.25,-1.527 -0.211,-0.434 0,-0.914 0.156,-1.031 0.277,-0.211 4.359,-2.477 5.316,-3.344 1.418,-1.289 0,-2.898 -0.348,-3.125 -2.941,-2.117 -5.961,-1.664 -6,-2 -0.02,-0.383 -0.012,-1.488 -0.063,-1.871 -0.293,-2.594 -1.492,-1.941 -1.656,-1.941 -1.199,0.188 -0.758,2.023 -0.25,3.75 0.039,0.441 -0.418,0.246 -0.688,-0.219 -0.922,-2.473 -1.309,-2.43 -1.563,-2.504 -0.246,-0.055 -1.113,0.473 -1.098,1.473 0.004,0.285 0.344,1.645 0.344,2.063 -0.566,0.496 -0.594,1.621 -1.188,2.031 -1.73,0.359 -5.887,-0.855 -6.406,-0.91 -1.797,-0.336 -2.582,1.012 -2.871,0.688 -2.332,-2.672 -5.895,-4.656 -7.438,-5 C 9.397,16.024 7.378,15.133 6.651,14.684 6.534,14.614 6.401,14.563 6.272,14.496 m 32.07,2.344 c -0.563,0.605 -0.465,2.867 -0.348,2.848 0.574,-0.117 0.52,-3.03 0.348,-2.848 m 1.629,0.344 c -0.066,-0.184 -1.547,1.895 -1.285,2.66 0.117,0.332 1.484,-2.078 1.285,-2.66 m -7.691,3.535 c 0.02,-0.02 0.043,0.008 0.066,0.031 0.172,0.57 0.363,1.113 1.496,1.25 0.133,0.016 -0.629,0.461 -1.152,0.188 -0.477,-0.289 -0.52,-1.34 -0.41,-1.469 m 2.938,2.871 c 0.105,-0.016 0.18,-0.012 0.254,0 0.277,0.07 -2.01,1.262 -2.188,1.098 -0.109,-0.105 1.219,-0.965 1.938,-1.098 m 0.594,0.754 c 0.238,0.02 -1.324,1.637 -1.5,1.469 -0.129,-0.117 1.012,-1.508 1.5,-1.469 m 0,0"
             id="path3850" />
        </g>
      </g>
    </g>
  </g>
</svg>
