<?xml version="1.0" encoding="UTF-8" standalone="no"?>
<!-- Created with Inkscape (http://www.inkscape.org/) -->

<svg
   xmlns:dc="http://purl.org/dc/elements/1.1/"
   xmlns:cc="http://creativecommons.org/ns#"
   xmlns:rdf="http://www.w3.org/1999/02/22-rdf-syntax-ns#"
   xmlns:svg="http://www.w3.org/2000/svg"
   xmlns="http://www.w3.org/2000/svg"
   xmlns:xlink="http://www.w3.org/1999/xlink"
   xmlns:sodipodi="http://sodipodi.sourceforge.net/DTD/sodipodi-0.dtd"
   xmlns:inkscape="http://www.inkscape.org/namespaces/inkscape"
   width="48"
   height="48"
   id="svg2"
   version="1.1"
   inkscape:version="0.48.4 r9939"
   sodipodi:docname="diffuse.svg">
  <defs
     id="defs4">
    <linearGradient
       id="linearGradient3775">
      <stop
         style="stop-color:#448aff;stop-opacity:1;"
         offset="0"
         id="stop3777" />
      <stop
         style="stop-color:#639dff;stop-opacity:1;"
         offset="1"
         id="stop3779" />
    </linearGradient>
    <linearGradient
       inkscape:collect="always"
       xlink:href="#linearGradient3775"
       id="linearGradient3781"
       x1="24"
       y1="1050.3622"
       x2="24"
       y2="1006.3622"
       gradientUnits="userSpaceOnUse" />
  </defs>
  <sodipodi:namedview
     id="base"
     pagecolor="#ffffff"
     bordercolor="#666666"
     borderopacity="1.0"
     inkscape:pageopacity="0.0"
     inkscape:pageshadow="2"
     inkscape:zoom="11.583333"
     inkscape:cx="20.117545"
     inkscape:cy="24.367218"
     inkscape:document-units="px"
     inkscape:current-layer="layer1"
     showgrid="true"
     inkscape:snap-bbox="true"
     inkscape:window-width="1301"
     inkscape:window-height="744"
     inkscape:window-x="65"
     inkscape:window-y="24"
     inkscape:window-maximized="1">
    <inkscape:grid
       type="xygrid"
       id="grid2985"
       empspacing="6"
       visible="true"
       enabled="true"
       snapvisiblegridlinesonly="true" />
  </sodipodi:namedview>
  <metadata
     id="metadata7">
    <rdf:RDF>
      <cc:Work
         rdf:about="">
        <dc:format>image/svg+xml</dc:format>
        <dc:type
           rdf:resource="http://purl.org/dc/dcmitype/StillImage" />
        <dc:title />
      </cc:Work>
    </rdf:RDF>
  </metadata>
  <g
     inkscape:label="Layer 1"
     inkscape:groupmode="layer"
     id="layer1"
     transform="translate(0,-1004.3622)">
    <path
       id="path3788"
       d="m 24,1051.1116 c -21.2715315,0 -23.66257505,-0.089 -23.9375,-15.4063 0.328125,14.4033 2.9375,14.4063 23.9375,14.4063 21,0 23.609375,0 23.9375,-14.4063 -0.274925,15.3174 -2.665968,15.4063 -23.9375,15.4063 z"
       style="opacity:0.20000000000000001;fill:#ffffff;fill-opacity:1;stroke:none"
       inkscape:connector-curvature="0" />
    <path
       style="fill:url(#linearGradient3781);fill-opacity:1;stroke:none"
       d="m 24,1006.3622 c -24,0 -24,0 -24,22 0,22 0,22 24,22 24,0 24,0 24,-22 0,-22 0,-22 -24,-22 z"
       id="path3757"
       inkscape:connector-curvature="0"
       sodipodi:nodetypes="zzzzz" />
    <path
       style="fill:#000000;fill-opacity:1;stroke:none;opacity:0.20000000000000001"
       d="M 24 2 C 2.7284685 2 0.33742495 2.0888436 0.0625 17.40625 C 0.390625 3.0029297 3 3 24 3 C 45 3 47.609375 3.0029297 47.9375 17.40625 C 47.662575 2.0888436 45.271532 2 24 2 z "
       transform="translate(0,1004.3622)"
       id="path3770" />
    <g
       id="g3784"
       style="opacity:0.2;stroke:#000000;stroke-opacity:1"
       transform="translate(0.99999993,1.0000334)">
      <path
         sodipodi:type="arc"
         style="fill:none;stroke:#000000;stroke-width:2.76619029;stroke-miterlimit:4;stroke-opacity:1;stroke-dasharray:none"
         id="path3786"
         sodipodi:cx="24"
         sodipodi:cy="24"
         sodipodi:rx="18"
         sodipodi:ry="6"
         d="m 42,24 c 0,3.313708 -8.058875,6 -18,6 -9.941125,0 -18,-2.686292 -18,-6 0,-3.313708 8.058875,-6 18,-6 9.941125,0 18,2.686292 18,6 z"
         transform="matrix(0.88888889,0,0,0.58809623,2.6666667,1014.2479)" />
      <path
         transform="matrix(0.88888889,0,0,0.58809623,2.6666667,1014.2479)"
         d="m 42,24 c 0,3.313708 -8.058875,6 -18,6 -9.941125,0 -18,-2.686292 -18,-6 0,-3.313708 8.058875,-6 18,-6 9.941125,0 18,2.686292 18,6 z"
         sodipodi:ry="6"
         sodipodi:rx="18"
         sodipodi:cy="24"
         sodipodi:cx="24"
         id="path3789"
         style="fill:none;stroke:#000000;stroke-width:2.76619029;stroke-miterlimit:4;stroke-opacity:1;stroke-dasharray:none"
         sodipodi:type="arc" />
      <path
         sodipodi:type="arc"
         style="fill:none;stroke:#000000;stroke-width:2.76619029;stroke-miterlimit:4;stroke-opacity:1;stroke-dasharray:none"
         id="path3791"
         sodipodi:cx="24"
         sodipodi:cy="24"
         sodipodi:rx="18"
         sodipodi:ry="6"
         d="m 42,24 c 0,3.313708 -8.058875,6 -18,6 -9.941125,0 -18,-2.686292 -18,-6 0,-3.313708 8.058875,-6 18,-6 9.941125,0 18,2.686292 18,6 z"
         transform="matrix(0.62853936,-0.62853936,0.41584683,0.41584683,-1.0652686,1033.4668)" />
      <path
         transform="matrix(0,-0.88888889,0.58809623,0,9.8856905,1049.6955)"
         d="m 42,24 c 0,3.313708 -8.058875,6 -18,6 -9.941125,0 -18,-2.686292 -18,-6 0,-3.313708 8.058875,-6 18,-6 9.941125,0 18,2.686292 18,6 z"
         sodipodi:ry="6"
         sodipodi:rx="18"
         sodipodi:cy="24"
         sodipodi:cx="24"
         id="path3793"
         style="fill:none;stroke:#000000;stroke-width:2.76619029;stroke-miterlimit:4;stroke-opacity:1;stroke-dasharray:none"
         sodipodi:type="arc" />
      <path
         sodipodi:type="arc"
         style="fill:none;stroke:#000000;stroke-width:2.76619029;stroke-miterlimit:4;stroke-opacity:1;stroke-dasharray:none"
         id="path3795"
         sodipodi:cx="24"
         sodipodi:cy="24"
         sodipodi:rx="18"
         sodipodi:ry="6"
         d="m 42,24 c 0,3.313708 -8.058875,6 -18,6 -9.941125,0 -18,-2.686292 -18,-6 0,-3.313708 8.058875,-6 18,-6 9.941125,0 18,2.686292 18,6 z"
         transform="matrix(-0.62853936,-0.62853936,0.41584683,-0.41584683,29.104621,1053.4274)" />
    </g>
    <g
       id="g3777">
      <path
         transform="matrix(0.88888889,0,0,0.58809623,2.6666667,1014.2479)"
         d="M 42,24 A 18,6 0 1 1 6,24 18,6 0 1 1 42,24 z"
         sodipodi:ry="6"
         sodipodi:rx="18"
         sodipodi:cy="24"
         sodipodi:cx="24"
         id="path2998"
         style="fill:none;stroke:#f4f4f4;stroke-width:2.76619033;stroke-opacity:1;stroke-miterlimit:4;stroke-dasharray:none"
         sodipodi:type="arc" />
      <path
         sodipodi:type="arc"
         style="fill:none;stroke:#f4f4f4;stroke-width:2.76619033;stroke-opacity:1;stroke-miterlimit:4;stroke-dasharray:none"
         id="path3768"
         sodipodi:cx="24"
         sodipodi:cy="24"
         sodipodi:rx="18"
         sodipodi:ry="6"
         d="M 42,24 A 18,6 0 1 1 6,24 18,6 0 1 1 42,24 z"
         transform="matrix(0.88888889,0,0,0.58809623,2.6666667,1014.2479)" />
      <path
         transform="matrix(0.62853936,-0.62853936,0.41584683,0.41584683,-1.0652686,1033.4668)"
         d="M 42,24 A 18,6 0 1 1 6,24 18,6 0 1 1 42,24 z"
         sodipodi:ry="6"
         sodipodi:rx="18"
         sodipodi:cy="24"
         sodipodi:cx="24"
         id="path3771"
         style="fill:none;stroke:#f4f4f4;stroke-width:2.76619029;stroke-miterlimit:4;stroke-opacity:1;stroke-dasharray:none"
         sodipodi:type="arc" />
      <path
         sodipodi:type="arc"
         style="fill:none;stroke:#f4f4f4;stroke-width:2.76619029;stroke-miterlimit:4;stroke-opacity:1;stroke-dasharray:none"
         id="path3773"
         sodipodi:cx="24"
         sodipodi:cy="24"
         sodipodi:rx="18"
         sodipodi:ry="6"
         d="M 42,24 A 18,6 0 1 1 6,24 18,6 0 1 1 42,24 z"
         transform="matrix(0,-0.88888889,0.58809623,0,9.8856905,1049.6955)" />
      <path
         transform="matrix(-0.62853936,-0.62853936,0.41584683,-0.41584683,29.104621,1053.4274)"
         d="M 42,24 A 18,6 0 1 1 6,24 18,6 0 1 1 42,24 z"
         sodipodi:ry="6"
         sodipodi:rx="18"
         sodipodi:cy="24"
         sodipodi:cx="24"
         id="path3775"
         style="fill:none;stroke:#f4f4f4;stroke-width:2.76619029;stroke-miterlimit:4;stroke-opacity:1;stroke-dasharray:none"
         sodipodi:type="arc" />
    </g>
    <path
       sodipodi:type="arc"
       style="opacity:1;fill:#ffffff;stroke:none;stroke-width:2;stroke-linecap:round;stroke-linejoin:round;stroke-miterlimit:4;stroke-opacity:1;stroke-dasharray:none;stroke-dashoffset:0;fill-opacity:1"
       id="path3797"
       sodipodi:cx="24"
       sodipodi:cy="24"
       sodipodi:rx="2"
       sodipodi:ry="2"
       d="m 26,24 a 2,2 0 1 1 -4,0 2,2 0 1 1 4,0 z"
       transform="translate(0,1004.3622)" />
  </g>
</svg>
