<?xml version="1.0" encoding="UTF-8" standalone="no"?>
<!-- Created with Inkscape (http://www.inkscape.org/) -->

<svg
   xmlns:dc="http://purl.org/dc/elements/1.1/"
   xmlns:cc="http://creativecommons.org/ns#"
   xmlns:rdf="http://www.w3.org/1999/02/22-rdf-syntax-ns#"
   xmlns:svg="http://www.w3.org/2000/svg"
   xmlns="http://www.w3.org/2000/svg"
   xmlns:xlink="http://www.w3.org/1999/xlink"
   xmlns:sodipodi="http://sodipodi.sourceforge.net/DTD/sodipodi-0.dtd"
   xmlns:inkscape="http://www.inkscape.org/namespaces/inkscape"
   width="48"
   height="48"
   id="svg2"
   version="1.1"
   inkscape:version="0.48.4 r9939"
   sodipodi:docname="distributor-logo-gentoo.svg">
  <defs
     id="defs4">
    <linearGradient
       id="linearGradient3769">
      <stop
         style="stop-color:#5e35b1;stop-opacity:1;"
         offset="0"
         id="stop3771" />
      <stop
         style="stop-color:#7b5ac8;stop-opacity:1"
         offset="1"
         id="stop3773" />
    </linearGradient>
    <linearGradient
       id="linearGradient3763">
      <stop
         style="stop-color:#000000;stop-opacity:1;"
         offset="0"
         id="stop3765" />
      <stop
         style="stop-color:#ffffff;stop-opacity:1;"
         offset="1"
         id="stop3767" />
    </linearGradient>
    <linearGradient
       inkscape:collect="always"
       xlink:href="#linearGradient3763"
       id="linearGradient3989"
       gradientUnits="userSpaceOnUse"
       gradientTransform="translate(-40,0)"
       spreadMethod="repeat"
       x1="24"
       y1="1028.3622"
       x2="45"
       y2="1007.3622" />
    <linearGradient
       inkscape:collect="always"
       xlink:href="#linearGradient3763"
       id="linearGradient3991"
       gradientUnits="userSpaceOnUse"
       gradientTransform="translate(-40,0)"
       spreadMethod="repeat"
       x1="45"
       y1="1049.3622"
       x2="18"
       y2="1022.3622" />
    <linearGradient
       inkscape:collect="always"
       xlink:href="#linearGradient3769"
       id="linearGradient3775"
       x1="24"
       y1="1050.3622"
       x2="24"
       y2="1006.3622"
       gradientUnits="userSpaceOnUse" />
    <clipPath
       id="clipPath-777376520">
      <g
         id="g3792"
         transform="translate(0,-1004.3622)">
        <path
           id="path3794"
           fill="#1890d0"
           transform="matrix(15.333333,0,0,11.5,414.99999,878.8622)"
           d="m -24 13 c 0 1.105 -0.672 2 -1.5 2 -0.828 0 -1.5 -0.895 -1.5 -2 0 -1.105 0.672 -2 1.5 -2 0.828 0 1.5 0.895 1.5 2 z" />
      </g>
    </clipPath>
    <clipPath
       id="clipPath-767856463">
      <g
         id="g3787"
         transform="translate(0,-1004.3622)">
        <path
           id="path3789"
           fill="#1890d0"
           transform="matrix(15.333333,0,0,11.5,414.99999,878.8622)"
           d="m -24 13 c 0 1.105 -0.672 2 -1.5 2 -0.828 0 -1.5 -0.895 -1.5 -2 0 -1.105 0.672 -2 1.5 -2 0.828 0 1.5 0.895 1.5 2 z" />
      </g>
    </clipPath>
    <linearGradient
       gradientTransform="matrix(0,-1,1,0,-1.5e-6,47.999998)"
       gradientUnits="userSpaceOnUse"
       x2="47"
       x1="1"
       id="linearGradient3764">
      <stop
         id="stop3782"
         stop-opacity="1"
         stop-color="#9891f3" />
      <stop
         id="stop3784"
         stop-opacity="1"
         stop-color="#a8a2f5"
         offset="1" />
    </linearGradient>
  </defs>
  <sodipodi:namedview
     id="base"
     pagecolor="#ffffff"
     bordercolor="#666666"
     borderopacity="1.0"
     inkscape:pageopacity="0.0"
     inkscape:pageshadow="2"
     inkscape:zoom="8.1906533"
     inkscape:cx="22.537252"
     inkscape:cy="15.141959"
     inkscape:document-units="px"
     inkscape:current-layer="layer1"
     showgrid="true"
     inkscape:snap-bbox="true"
     inkscape:window-width="1301"
     inkscape:window-height="744"
     inkscape:window-x="65"
     inkscape:window-y="24"
     inkscape:window-maximized="1"
     inkscape:object-nodes="false"
     inkscape:snap-nodes="true">
    <inkscape:grid
       type="xygrid"
       id="grid3005"
       empspacing="6"
       visible="true"
       enabled="true"
       snapvisiblegridlinesonly="true" />
  </sodipodi:namedview>
  <metadata
     id="metadata7">
    <rdf:RDF>
      <cc:Work
         rdf:about="">
        <dc:format>image/svg+xml</dc:format>
        <dc:type
           rdf:resource="http://purl.org/dc/dcmitype/StillImage" />
        <dc:title />
      </cc:Work>
    </rdf:RDF>
  </metadata>
  <g
     inkscape:label="Layer 1"
     inkscape:groupmode="layer"
     id="layer1"
     transform="translate(0,-1004.3622)">
    <path
       id="path3788"
       d="m 24,1051.1116 c -21.2715315,0 -23.66257505,-0.089 -23.9375,-15.4063 0.328125,14.4033 2.9375,14.4063 23.9375,14.4063 21,0 23.609375,0 23.9375,-14.4063 -0.274925,15.3174 -2.665968,15.4063 -23.9375,15.4063 z"
       style="opacity:0.20000000000000001;fill:#ffffff;fill-opacity:1;stroke:none"
       inkscape:connector-curvature="0" />
    <path
       style="fill:url(#linearGradient3775);fill-opacity:1;stroke:none"
       d="m 24,1006.3622 c -24,0 -24,0 -24,22 0,22 0,22 24,22 24,0 24,0 24,-22 0,-22 0,-22 -24,-22 z"
       id="path3757"
       inkscape:connector-curvature="0"
       sodipodi:nodetypes="zzzzz" />
    <g
       id="g3969"
       transform="translate(40,0)">
      <path
         style="opacity:0.02000002;fill:url(#linearGradient3989);fill-opacity:1;stroke:none"
         d="m -16,1006.3622 c -24,0 -24,0 -24,22 0,22 0,22 24,22 24,0 24,0 24,-22 0,-22 0,-22 -24,-22 z"
         id="path3783"
         inkscape:connector-curvature="0"
         sodipodi:nodetypes="zzzzz" />
      <path
         sodipodi:nodetypes="zzzzz"
         inkscape:connector-curvature="0"
         id="path3795"
         d="m -16,1006.3622 c -24,0 -24,0 -24,22 0,22 0,22 24,22 24,0 24,0 24,-22 0,-22 0,-22 -24,-22 z"
         style="opacity:0.02000002;fill:url(#linearGradient3991);fill-opacity:1;stroke:none" />
    </g>
    <path
       style="fill:#000000;fill-opacity:1;stroke:none;opacity:0.20000000000000001"
       d="M 24 2 C 2.7284685 2 0.33742495 2.0888436 0.0625 17.40625 C 0.390625 3.0029297 3 3 24 3 C 45 3 47.609375 3.0029297 47.9375 17.40625 C 47.662575 2.0888436 45.271532 2 24 2 z "
       transform="translate(0,1004.3622)"
       id="path3770" />
    <g
       id="g3037"
       transform="translate(-46.998,1004.3622)" />
    <g
       id="g3808"
       transform="translate(-52.998,1013.3622)" />
    <g
       id="g3810"
       transform="translate(0.00302137,1003.3579)">
      <g
         clip-path="url(#clipPath-767856463)"
         id="g3812">
        <g
           transform="translate(1,1)"
           id="g3814">
          <g
             style="opacity:0.1"
             id="g3816">
            <!-- color: #a8a2f5 -->
            <g
               id="g3818">
              <path
                 style="fill:#000000;fill-opacity:1;fill-rule:evenodd;stroke:none"
                 inkscape:connector-curvature="0"
                 d="m 21.512,12.01 c -5.172,0.246 -9.223,4.918 -9.02,7.461 0.203,2.473 6.492,4.645 6.422,4.719 -1.285,1.082 -2.137,1.813 -3.211,2.793 -2.582,2.352 -4.367,4.094 -3.465,6.543 1.047,2.824 3.328,2.707 6.01,2.184 6.93,-1.363 18.316,-10.08 17.727,-13.297 -0.477,-2.602 -6.836,-7.746 -10.605,-9.59 -1.176,-0.574 -2.512,-0.875 -3.875,-0.813 m 1.086,4.465 c 0.648,-0.066 1.398,0.102 2.242,0.508 1.836,0.883 3.738,3.23 0,4.566 -1.016,0.355 -4.27,-0.875 -4.176,-2.586 0.086,-1.586 0.855,-2.395 1.934,-2.488 m 0,0"
                 id="path3820" />
            </g>
          </g>
        </g>
      </g>
    </g>
    <g
       id="g3822"
       transform="translate(0.00302137,1003.3579)">
      <g
         clip-path="url(#clipPath-777376520)"
         id="g3824">
        <!-- color: #a8a2f5 -->
        <g
           id="g3826">
          <path
             style="fill:#ffffff;fill-opacity:1;fill-rule:evenodd;stroke:none"
             inkscape:connector-curvature="0"
             d="m 21.512,12.01 c -5.172,0.246 -9.223,4.918 -9.02,7.461 0.203,2.473 6.492,4.645 6.422,4.719 -1.285,1.082 -2.137,1.813 -3.211,2.793 -2.582,2.352 -4.367,4.094 -3.465,6.543 1.047,2.824 3.328,2.707 6.01,2.184 6.93,-1.363 18.316,-10.08 17.727,-13.297 -0.477,-2.602 -6.836,-7.746 -10.605,-9.59 -1.176,-0.574 -2.512,-0.875 -3.875,-0.813 m 1.086,4.465 c 0.648,-0.066 1.398,0.102 2.242,0.508 1.836,0.883 3.738,3.23 0,4.566 -1.016,0.355 -4.27,-0.875 -4.176,-2.586 0.086,-1.586 0.855,-2.395 1.934,-2.488 m 0,0"
             id="path3828" />
        </g>
      </g>
    </g>
  </g>
</svg>
