<?xml version="1.0" encoding="UTF-8" standalone="no"?>
<!-- Created with Inkscape (http://www.inkscape.org/) -->

<svg
   xmlns:dc="http://purl.org/dc/elements/1.1/"
   xmlns:cc="http://creativecommons.org/ns#"
   xmlns:rdf="http://www.w3.org/1999/02/22-rdf-syntax-ns#"
   xmlns:svg="http://www.w3.org/2000/svg"
   xmlns="http://www.w3.org/2000/svg"
   xmlns:xlink="http://www.w3.org/1999/xlink"
   xmlns:sodipodi="http://sodipodi.sourceforge.net/DTD/sodipodi-0.dtd"
   xmlns:inkscape="http://www.inkscape.org/namespaces/inkscape"
   width="48"
   height="48"
   id="svg2"
   version="1.1"
   inkscape:version="0.48.4 r9939"
   sodipodi:docname="distributor-logo-fedora.svg">
  <defs
     id="defs4">
    <linearGradient
       id="linearGradient3888">
      <stop
         style="stop-color:#253b67;stop-opacity:1;"
         offset="0"
         id="stop3890" />
      <stop
         style="stop-color:#255267;stop-opacity:1;"
         offset="1"
         id="stop3892" />
    </linearGradient>
    <clipPath
       id="clipPath-191109045">
      <g
         id="g3009"
         transform="translate(0,-1004.3622)">
        <path
           id="path3011"
           fill="#1890d0"
           transform="matrix(15.333333,0,0,11.5,414.99999,878.8622)"
           d="m -24 13 c 0 1.105 -0.672 2 -1.5 2 -0.828 0 -1.5 -0.895 -1.5 -2 0 -1.105 0.672 -2 1.5 -2 0.828 0 1.5 0.895 1.5 2 z" />
      </g>
    </clipPath>
    <clipPath
       id="clipPath-185377402">
      <g
         id="g3004"
         transform="translate(0,-1004.3622)">
        <path
           id="path3006"
           fill="#1890d0"
           transform="matrix(15.333333,0,0,11.5,414.99999,878.8622)"
           d="m -24 13 c 0 1.105 -0.672 2 -1.5 2 -0.828 0 -1.5 -0.895 -1.5 -2 0 -1.105 0.672 -2 1.5 -2 0.828 0 1.5 0.895 1.5 2 z" />
      </g>
    </clipPath>
    <linearGradient
       gradientTransform="matrix(0,-1,1,0,-1.5e-6,47.999998)"
       gradientUnits="userSpaceOnUse"
       x2="47"
       x1="1"
       id="linearGradient3764">
      <stop
         id="stop2999"
         stop-opacity="1"
         stop-color="#243964" />
      <stop
         id="stop3001"
         stop-opacity="1"
         stop-color="#294172"
         offset="1" />
    </linearGradient>
    <linearGradient
       inkscape:collect="always"
       xlink:href="#linearGradient3888"
       id="linearGradient3894"
       x1="24"
       y1="1050.3622"
       x2="24"
       y2="1006.3622"
       gradientUnits="userSpaceOnUse" />
  </defs>
  <sodipodi:namedview
     id="base"
     pagecolor="#ffffff"
     bordercolor="#666666"
     borderopacity="1.0"
     inkscape:pageopacity="0.0"
     inkscape:pageshadow="2"
     inkscape:zoom="8.1906533"
     inkscape:cx="27.230548"
     inkscape:cy="24.998698"
     inkscape:document-units="px"
     inkscape:current-layer="layer1"
     showgrid="true"
     inkscape:snap-bbox="true"
     inkscape:window-width="1301"
     inkscape:window-height="744"
     inkscape:window-x="65"
     inkscape:window-y="24"
     inkscape:window-maximized="1"
     inkscape:snap-global="true"
     inkscape:object-nodes="true">
    <inkscape:grid
       type="xygrid"
       id="grid2985"
       empspacing="6"
       visible="true"
       enabled="true"
       snapvisiblegridlinesonly="true" />
  </sodipodi:namedview>
  <metadata
     id="metadata7">
    <rdf:RDF>
      <cc:Work
         rdf:about="">
        <dc:format>image/svg+xml</dc:format>
        <dc:type
           rdf:resource="http://purl.org/dc/dcmitype/StillImage" />
        <dc:title />
      </cc:Work>
    </rdf:RDF>
  </metadata>
  <g
     inkscape:label="Layer 1"
     inkscape:groupmode="layer"
     id="layer1"
     transform="translate(0,-1004.3622)">
    <path
       id="path3788"
       d="m 24,1051.1116 c -21.2715315,0 -23.66257505,-0.089 -23.9375,-15.4063 0.328125,14.4033 2.9375,14.4063 23.9375,14.4063 21,0 23.609375,0 23.9375,-14.4063 -0.274925,15.3174 -2.665968,15.4063 -23.9375,15.4063 z"
       style="opacity:0.20000000000000001;fill:#ffffff;fill-opacity:1;stroke:none"
       inkscape:connector-curvature="0" />
    <path
       style="fill:url(#linearGradient3894);fill-opacity:1;stroke:none"
       d="m 24,1006.3622 c -24,0 -24,0 -24,22 0,22 0,22 24,22 24,0 24,0 24,-22 0,-22 0,-22 -24,-22 z"
       id="path3757"
       inkscape:connector-curvature="0"
       sodipodi:nodetypes="zzzzz" />
    <path
       style="fill:#000000;fill-opacity:1;stroke:none;opacity:0.20000000000000001"
       d="M 24 2 C 2.7284685 2 0.33742495 2.0888436 0.0625 17.40625 C 0.390625 3.0029297 3 3 24 3 C 45 3 47.609375 3.0029297 47.9375 17.40625 C 47.662575 2.0888436 45.271532 2 24 2 z "
       transform="translate(0,1004.3622)"
       id="path3770" />
    <path
       style="fill:#000000;fill-opacity:1;stroke:none;opacity:0.20000000000000001"
       d="M 24 2 C 7.2405624 2 2.2369698 2.0788791 0.71875 9.59375 C 2.3300781 2.5289866 7.5 2.53125 24 2.53125 C 40.5 2.53125 45.669922 2.5289866 47.28125 9.59375 C 45.76303 2.0788791 40.759438 2 24 2 z M 47.28125 9.59375 C 47.354492 9.9148756 47.409424 10.242768 47.46875 10.59375 C 47.41561 10.240351 47.346891 9.9186608 47.28125 9.59375 z M 0.71875 9.59375 C 0.65310868 9.9186608 0.58439008 10.240351 0.53125 10.59375 C 0.59057617 10.242768 0.64550781 9.9148756 0.71875 9.59375 z "
       transform="translate(0,1004.3622)"
       id="path3012" />
    <g
       id="g3032"
       transform="translate(48,1007.3622)" />
    <g
       id="g3025"
       transform="translate(-51.2,1007.9482)" />
    <g
       id="g3027"
       transform="translate(-0.2,1004.3522)">
      <g
         clip-path="url(#clipPath-185377402)"
         id="g3029">
        <g
           transform="translate(1,1)"
           id="g3031">
          <g
             style="opacity:0.1"
             id="g3033">
            <!-- color: #294172 -->
            <g
               id="g3035">
              <path
                 style="fill:#000000;fill-opacity:1;fill-rule:nonzero;stroke:none"
                 inkscape:connector-curvature="0"
                 d="m 29.2,25.598 c 3.738,0 6.805,-3.066 6.805,-6.797 0,-3.734 -3.066,-6.797 -6.805,-6.797 -3.738,0 -6.801,3.063 -6.801,6.797 l 0,6.801 6.801,0 m 0,-3.188 -3.621,0 0,-3.617 c 0,-2.01 1.605,-3.617 3.621,-3.617 2.02,0 3.621,1.602 3.621,3.617 0,2.01 -1.605,3.617 -3.621,3.617 m 0,0"
                 id="path3037" />
              <path
                 style="fill:#000000;fill-opacity:1;fill-rule:nonzero;stroke:none"
                 inkscape:connector-curvature="0"
                 d="m 18.801,22.406 c -3.738,0 -6.805,3.066 -6.805,6.797 0,3.734 3.066,6.797 6.805,6.797 3.738,0 6.805,-3.063 6.805,-6.797 l 0,-6.797 m -6.805,3.184 3.621,0 0,3.617 c 0,2.01 -1.605,3.617 -3.621,3.617 -2.02,0 -3.621,-1.602 -3.621,-3.617 0,-2.01 1.605,-3.617 3.621,-3.617 m 0,0"
                 id="path3039" />
              <path
                 style="fill:#000000;fill-opacity:1;fill-rule:nonzero;stroke:none"
                 inkscape:connector-curvature="0"
                 d="m 29.2,12.01 c -3.758,0 -6.801,3.043 -6.801,6.797 l 0,3.613 -2.855,0 c -0.887,0 -1.605,0.691 -1.605,1.586 0,0.879 0.711,1.578 1.594,1.578 l 2.359,0 c 0.281,0 0.508,0.227 0.508,0.508 l 0,3.117 c -0.004,1.977 -1.613,3.574 -3.594,3.574 -0.672,0 -0.836,-0.086 -1.297,-0.086 -0.965,0 -1.605,0.648 -1.605,1.527 0,0.734 0.625,1.367 1.398,1.566 0.523,0.141 0.934,0.199 1.504,0.199 3.758,0 6.805,-3.043 6.805,-6.797 l 0,-3.609 2.855,0 c 0.887,0 1.605,-0.699 1.605,-1.582 0,-0.887 -0.711,-1.582 -1.594,-1.582 l -2.363,0 c -0.273,0 -0.504,-0.23 -0.504,-0.512 l 0,-3.113 c 0,-1.98 1.609,-3.582 3.59,-3.582 0.672,0 0.836,0.09 1.297,0.09 0.969,0 1.609,-0.648 1.609,-1.531 0,-0.734 -0.629,-1.363 -1.395,-1.563 -0.527,-0.141 -0.938,-0.199 -1.508,-0.199 m 0,0"
                 id="path3041" />
            </g>
          </g>
        </g>
      </g>
    </g>
    <g
       id="g3043"
       transform="translate(-0.2,1004.3522)">
      <g
         clip-path="url(#clipPath-191109045)"
         id="g3045">
        <!-- color: #294172 -->
        <g
           id="g3047">
          <path
             style="fill:#3c6eb2;fill-opacity:1;fill-rule:nonzero;stroke:none"
             inkscape:connector-curvature="0"
             d="m 29.2,25.598 c 3.738,0 6.805,-3.066 6.805,-6.797 0,-3.734 -3.066,-6.797 -6.805,-6.797 -3.738,0 -6.801,3.063 -6.801,6.797 l 0,6.801 6.801,0 m 0,-3.188 -3.621,0 0,-3.617 c 0,-2.01 1.605,-3.617 3.621,-3.617 2.02,0 3.621,1.602 3.621,3.617 0,2.01 -1.605,3.617 -3.621,3.617 m 0,0"
             id="path3049" />
          <path
             style="fill:#3c6eb2;fill-opacity:1;fill-rule:nonzero;stroke:none"
             inkscape:connector-curvature="0"
             d="m 18.801,22.406 c -3.738,0 -6.805,3.066 -6.805,6.797 0,3.734 3.066,6.797 6.805,6.797 3.738,0 6.805,-3.063 6.805,-6.797 l 0,-6.797 m -6.805,3.184 3.621,0 0,3.617 c 0,2.01 -1.605,3.617 -3.621,3.617 -2.02,0 -3.621,-1.602 -3.621,-3.617 0,-2.01 1.605,-3.617 3.621,-3.617 m 0,0"
             id="path3051" />
          <path
             style="fill:#f9f9f9;fill-opacity:1;fill-rule:nonzero;stroke:none"
             inkscape:connector-curvature="0"
             d="m 29.2,12.01 c -3.758,0 -6.801,3.043 -6.801,6.797 l 0,3.613 -2.855,0 c -0.887,0 -1.605,0.691 -1.605,1.586 0,0.879 0.711,1.578 1.594,1.578 l 2.359,0 c 0.281,0 0.508,0.227 0.508,0.508 l 0,3.117 c -0.004,1.977 -1.613,3.574 -3.594,3.574 -0.672,0 -0.836,-0.086 -1.297,-0.086 -0.965,0 -1.605,0.648 -1.605,1.527 0,0.734 0.625,1.367 1.398,1.566 0.523,0.141 0.934,0.199 1.504,0.199 3.758,0 6.805,-3.043 6.805,-6.797 l 0,-3.609 2.855,0 c 0.887,0 1.605,-0.699 1.605,-1.582 0,-0.887 -0.711,-1.582 -1.594,-1.582 l -2.363,0 c -0.273,0 -0.504,-0.23 -0.504,-0.512 l 0,-3.113 c 0,-1.98 1.609,-3.582 3.59,-3.582 0.672,0 0.836,0.09 1.297,0.09 0.969,0 1.609,-0.648 1.609,-1.531 0,-0.734 -0.629,-1.363 -1.395,-1.563 -0.527,-0.141 -0.938,-0.199 -1.508,-0.199 m 0,0"
             id="path3053" />
        </g>
      </g>
    </g>
  </g>
</svg>
