<?xml version="1.0" encoding="UTF-8" standalone="no"?>
<!-- Created with Inkscape (http://www.inkscape.org/) -->

<svg
   xmlns:dc="http://purl.org/dc/elements/1.1/"
   xmlns:cc="http://creativecommons.org/ns#"
   xmlns:rdf="http://www.w3.org/1999/02/22-rdf-syntax-ns#"
   xmlns:svg="http://www.w3.org/2000/svg"
   xmlns="http://www.w3.org/2000/svg"
   xmlns:xlink="http://www.w3.org/1999/xlink"
   xmlns:sodipodi="http://sodipodi.sourceforge.net/DTD/sodipodi-0.dtd"
   xmlns:inkscape="http://www.inkscape.org/namespaces/inkscape"
   width="48"
   height="48"
   id="svg2"
   version="1.1"
   inkscape:version="0.48.4 r9939"
   sodipodi:docname="distributor-logo-opensuse.svg">
  <sodipodi:namedview
     id="base"
     pagecolor="#ffffff"
     bordercolor="#666666"
     borderopacity="1.0"
     inkscape:pageopacity="0.0"
     inkscape:pageshadow="2"
     inkscape:zoom="8.1906535"
     inkscape:cx="33.185839"
     inkscape:cy="12.614414"
     inkscape:document-units="px"
     inkscape:current-layer="layer1"
     showgrid="true"
     inkscape:snap-bbox="true"
     inkscape:window-width="1301"
     inkscape:window-height="744"
     inkscape:window-x="65"
     inkscape:window-y="24"
     inkscape:window-maximized="1"
     inkscape:snap-global="true"
     inkscape:snap-nodes="false">
    <inkscape:grid
       snapvisiblegridlinesonly="true"
       enabled="true"
       visible="true"
       empspacing="6"
       id="grid2985"
       type="xygrid" />
  </sodipodi:namedview>
  <defs
     id="defs4">
    <linearGradient
       id="linearGradient3856">
      <stop
         style="stop-color:#69ac22;stop-opacity:1;"
         offset="0"
         id="stop3858" />
      <stop
         style="stop-color:#7dcd29;stop-opacity:1;"
         offset="1"
         id="stop3860" />
    </linearGradient>
    <linearGradient
       inkscape:collect="always"
       xlink:href="#linearGradient3856"
       id="linearGradient3862"
       x1="24"
       y1="1050.3622"
       x2="24"
       y2="1006.3622"
       gradientUnits="userSpaceOnUse" />
    <clipPath
       clipPathUnits="userSpaceOnUse"
       id="clipPath3893">
      <path
         style="fill:url(#linearGradient3897);fill-opacity:1;stroke:none"
         d="m 84,1006.3622 c -24,0 -24,0 -24,22 0,22 0,22 24,22 24,0 24,0 24,-22 0,-22 0,-22 -24,-22 z"
         id="path3895"
         inkscape:connector-curvature="0"
         sodipodi:nodetypes="zzzzz" />
    </clipPath>
    <linearGradient
       inkscape:collect="always"
       xlink:href="#linearGradient3856"
       id="linearGradient3897"
       gradientUnits="userSpaceOnUse"
       gradientTransform="translate(60,0)"
       x1="24"
       y1="1050.3622"
       x2="24"
       y2="1006.3622" />
  </defs>
  <metadata
     id="metadata7">
    <rdf:RDF>
      <cc:Work
         rdf:about="">
        <dc:format>image/svg+xml</dc:format>
        <dc:type
           rdf:resource="http://purl.org/dc/dcmitype/StillImage" />
        <dc:title />
      </cc:Work>
    </rdf:RDF>
  </metadata>
  <g
     transform="translate(0,-1004.3622)"
     id="layer1"
     inkscape:groupmode="layer"
     inkscape:label="Layer 1">
    <path
       inkscape:connector-curvature="0"
       style="opacity:0.20000000000000001;fill:#ffffff;fill-opacity:1;stroke:none"
       d="m 24,1051.1116 c -21.2715315,0 -23.66257505,-0.089 -23.9375,-15.4063 0.328125,14.4033 2.9375,14.4063 23.9375,14.4063 21,0 23.609375,0 23.9375,-14.4063 -0.274925,15.3174 -2.665968,15.4063 -23.9375,15.4063 z"
       id="path3788" />
    <path
       sodipodi:nodetypes="zzzzz"
       inkscape:connector-curvature="0"
       id="path3757"
       d="m 24,1006.3622 c -24,0 -24,0 -24,22 0,22 0,22 24,22 24,0 24,0 24,-22 0,-22 0,-22 -24,-22 z"
       style="fill:url(#linearGradient3862);fill-opacity:1;stroke:none" />
    <path
       id="path3770"
       transform="translate(0,1004.3622)"
       d="M 24 2 C 2.7284685 2 0.33742495 2.0888436 0.0625 17.40625 C 0.390625 3.0029297 3 3 24 3 C 45 3 47.609375 3.0029297 47.9375 17.40625 C 47.662575 2.0888436 45.271532 2 24 2 z "
       style="fill:#000000;fill-opacity:1;stroke:none;opacity:0.20000000000000001" />
    <path
       id="path3012"
       transform="translate(0,1004.3622)"
       d="M 24 2 C 7.2405624 2 2.2369698 2.0788791 0.71875 9.59375 C 2.3300781 2.5289866 7.5 2.53125 24 2.53125 C 40.5 2.53125 45.669922 2.5289866 47.28125 9.59375 C 45.76303 2.0788791 40.759438 2 24 2 z M 47.28125 9.59375 C 47.354492 9.9148756 47.409424 10.242768 47.46875 10.59375 C 47.41561 10.240351 47.346891 9.9186608 47.28125 9.59375 z M 0.71875 9.59375 C 0.65310868 9.9186608 0.58439008 10.240351 0.53125 10.59375 C 0.59057617 10.242768 0.64550781 9.9148756 0.71875 9.59375 z "
       style="fill:#000000;fill-opacity:1;stroke:none;opacity:0.20000000000000001" />
    <g
       transform="translate(48,1007.3622)"
       id="g3032" />
    <g
       id="g3033"
       transform="translate(-50.998,1005.3622)" />
    <g
       id="g3028"
       transform="translate(-56.999999,1004.3622)" />
    <path
       transform="translate(-58.979,1)"
       clip-path="url(#clipPath3893)"
       style="opacity:0.1;fill:#000000;fill-opacity:1;fill-rule:nonzero;stroke:none"
       inkscape:connector-curvature="0"
       d="m 71.563,1014.3632 -0.094,0.031 -0.031,0.063 c 0,0 -0.055,2.504 -0.063,2.781 -0.41,-0.137 -1.672,-0.563 -3.5,-1.063 -0.715,-0.184 -7.238,-0.754 -7.875,-0.813 0,5 0,23 0,27 0.223,-0.156 7.57,-3.828 7.813,-4 0.793,-0.57 3.348,-0.734 5.938,-0.438 1.242,0.141 2.664,0.309 4.125,0.344 4.086,0.023 8.477,-0.723 11.188,-1.906 1.754,-0.77 2.898,-1.301 3.594,-1.938 0.254,-0.207 0.367,-0.547 0.5,-0.906 l 0.105,-0.25 c 0.105,-0.293 0.301,-0.91 0.375,-1.25 0.023,-0.148 0.043,-0.293 -0.066,-0.375 l -0.375,0.063 c -1.188,0.711 -4.184,2.066 -6.969,2.125 -3.449,0.07 -10.398,-3.473 -11.125,-3.844 l -0.066,-0.094 c -0.172,-0.418 -1.215,-2.887 -1.438,-3.406 5.01,3.297 9.164,5.121 12.344,5.406 3.535,0.313 6.289,-1.613 7.469,-2.438 0.23,-0.16 0.398,-0.289 0.473,-0.316 l 0.094,-0.125 c -0.195,-1.242 -2.07,-7.242 -3.469,-8.688 -0.391,-0.398 -0.691,-0.789 -1.316,-1.156 -5.05,-2.945 -17.06,-4.73 -17.625,-4.816 m 13.156,5.102 c 0.086,0 0.195,0 0.281,0 2.832,0.102 5.03,2.477 4.938,5.313 -0.051,1.371 -0.625,2.629 -1.625,3.563 -1,0.941 -2.309,1.422 -3.688,1.375 -2.828,-0.105 -5.03,-2.484 -4.938,-5.313 0.047,-1.371 0.617,-2.629 1.625,-3.563 0.938,-0.879 2.129,-1.355 3.406,-1.375 m -0.125,1.5 c -0.824,0.051 -1.609,0.395 -2.219,0.969 -0.695,0.652 -1.098,1.512 -1.125,2.469 -0.066,1.977 1.465,3.648 3.438,3.719 0.961,0.031 1.895,-0.285 2.594,-0.938 0.699,-0.656 1.098,-1.547 1.125,-2.5 0.066,-1.977 -1.492,-3.648 -3.469,-3.719 -0.117,0 -0.227,-0.01 -0.344,0 m 0.938,1.777 c 0.879,0 1.594,0.48 1.594,1.066 0,0.586 -0.715,1.063 -1.594,1.063 -0.879,0 -1.594,-0.477 -1.594,-1.063 0,-0.586 0.715,-1.066 1.594,-1.066 m 0,0"
       id="path3899" />
    <path
       id="path3048"
       d="m 71.563,1014.3632 -0.094,0.031 -0.031,0.063 c 0,0 -0.055,2.504 -0.063,2.781 -0.41,-0.137 -1.672,-0.563 -3.5,-1.063 -0.715,-0.184 -7.238,-0.754 -7.875,-0.813 0,5 0,23 0,27 0.223,-0.156 7.57,-3.828 7.813,-4 0.793,-0.57 3.348,-0.734 5.938,-0.438 1.242,0.141 2.664,0.309 4.125,0.344 4.086,0.023 8.477,-0.723 11.188,-1.906 1.754,-0.77 2.898,-1.301 3.594,-1.938 0.254,-0.207 0.367,-0.547 0.5,-0.906 l 0.105,-0.25 c 0.105,-0.293 0.301,-0.91 0.375,-1.25 0.023,-0.148 0.043,-0.293 -0.066,-0.375 l -0.375,0.063 c -1.188,0.711 -4.184,2.066 -6.969,2.125 -3.449,0.07 -10.398,-3.473 -11.125,-3.844 l -0.066,-0.094 c -0.172,-0.418 -1.215,-2.887 -1.438,-3.406 5.01,3.297 9.164,5.121 12.344,5.406 3.535,0.313 6.289,-1.613 7.469,-2.438 0.23,-0.16 0.398,-0.289 0.473,-0.316 l 0.094,-0.125 c -0.195,-1.242 -2.07,-7.242 -3.469,-8.688 -0.391,-0.398 -0.691,-0.789 -1.316,-1.156 -5.05,-2.945 -17.06,-4.73 -17.625,-4.816 m 13.156,5.102 c 0.086,0 0.195,0 0.281,0 2.832,0.102 5.03,2.477 4.938,5.313 -0.051,1.371 -0.625,2.629 -1.625,3.563 -1,0.941 -2.309,1.422 -3.688,1.375 -2.828,-0.105 -5.03,-2.484 -4.938,-5.313 0.047,-1.371 0.617,-2.629 1.625,-3.563 0.938,-0.879 2.129,-1.355 3.406,-1.375 m -0.125,1.5 c -0.824,0.051 -1.609,0.395 -2.219,0.969 -0.695,0.652 -1.098,1.512 -1.125,2.469 -0.066,1.977 1.465,3.648 3.438,3.719 0.961,0.031 1.895,-0.285 2.594,-0.938 0.699,-0.656 1.098,-1.547 1.125,-2.5 0.066,-1.977 -1.492,-3.648 -3.469,-3.719 -0.117,0 -0.227,-0.01 -0.344,0 m 0.938,1.777 c 0.879,0 1.594,0.48 1.594,1.066 0,0.586 -0.715,1.063 -1.594,1.063 -0.879,0 -1.594,-0.477 -1.594,-1.063 0,-0.586 0.715,-1.066 1.594,-1.066 m 0,0"
       inkscape:connector-curvature="0"
       style="fill:#f9f9f9;fill-opacity:1;fill-rule:nonzero;stroke:none"
       clip-path="url(#clipPath3893)"
       transform="translate(-60,0)" />
  </g>
</svg>
