<?xml version="1.0" encoding="UTF-8" standalone="no"?>
<!-- Created with Inkscape (http://www.inkscape.org/) -->

<svg
   xmlns:dc="http://purl.org/dc/elements/1.1/"
   xmlns:cc="http://creativecommons.org/ns#"
   xmlns:rdf="http://www.w3.org/1999/02/22-rdf-syntax-ns#"
   xmlns:svg="http://www.w3.org/2000/svg"
   xmlns="http://www.w3.org/2000/svg"
   xmlns:xlink="http://www.w3.org/1999/xlink"
   xmlns:sodipodi="http://sodipodi.sourceforge.net/DTD/sodipodi-0.dtd"
   xmlns:inkscape="http://www.inkscape.org/namespaces/inkscape"
   width="48"
   height="48"
   id="svg2"
   version="1.1"
   inkscape:version="0.48.4 r9939"
   sodipodi:docname="dosbox.svg">
  <defs
     id="defs4">
    <linearGradient
       id="linearGradient3981">
      <stop
         style="stop-color:#3e3e3e;stop-opacity:1;"
         offset="0"
         id="stop3983" />
      <stop
         style="stop-color:#525252;stop-opacity:1;"
         offset="1"
         id="stop3985" />
    </linearGradient>
    <linearGradient
       id="linearGradient3763">
      <stop
         style="stop-color:#000000;stop-opacity:1;"
         offset="0"
         id="stop3765" />
      <stop
         style="stop-color:#ffffff;stop-opacity:1;"
         offset="1"
         id="stop3767" />
    </linearGradient>
    <linearGradient
       inkscape:collect="always"
       xlink:href="#linearGradient3981"
       id="linearGradient3987"
       x1="24"
       y1="1050.3622"
       x2="24"
       y2="1006.3622"
       gradientUnits="userSpaceOnUse" />
    <linearGradient
       inkscape:collect="always"
       xlink:href="#linearGradient3763"
       id="linearGradient3989"
       gradientUnits="userSpaceOnUse"
       gradientTransform="translate(-40,0)"
       spreadMethod="repeat"
       x1="24"
       y1="1028.3622"
       x2="45"
       y2="1007.3622" />
    <linearGradient
       inkscape:collect="always"
       xlink:href="#linearGradient3763"
       id="linearGradient3991"
       gradientUnits="userSpaceOnUse"
       gradientTransform="translate(-40,0)"
       spreadMethod="repeat"
       x1="45"
       y1="1049.3622"
       x2="18"
       y2="1022.3622" />
  </defs>
  <sodipodi:namedview
     id="base"
     pagecolor="#ffffff"
     bordercolor="#666666"
     borderopacity="1.0"
     inkscape:pageopacity="0.0"
     inkscape:pageshadow="2"
     inkscape:zoom="11.583333"
     inkscape:cx="19.994711"
     inkscape:cy="23.199266"
     inkscape:document-units="px"
     inkscape:current-layer="layer1"
     showgrid="true"
     inkscape:snap-bbox="true"
     inkscape:window-width="1301"
     inkscape:window-height="744"
     inkscape:window-x="65"
     inkscape:window-y="24"
     inkscape:window-maximized="1"
     inkscape:object-nodes="false"
     inkscape:snap-nodes="true">
    <inkscape:grid
       type="xygrid"
       id="grid3005"
       empspacing="6"
       visible="true"
       enabled="true"
       snapvisiblegridlinesonly="true" />
  </sodipodi:namedview>
  <metadata
     id="metadata7">
    <rdf:RDF>
      <cc:Work
         rdf:about="">
        <dc:format>image/svg+xml</dc:format>
        <dc:type
           rdf:resource="http://purl.org/dc/dcmitype/StillImage" />
        <dc:title />
      </cc:Work>
    </rdf:RDF>
  </metadata>
  <g
     inkscape:label="Layer 1"
     inkscape:groupmode="layer"
     id="layer1"
     transform="translate(0,-1004.3622)">
    <path
       id="path3788"
       d="m 24,1051.1116 c -21.2715315,0 -23.66257505,-0.089 -23.9375,-15.4063 0.328125,14.4033 2.9375,14.4063 23.9375,14.4063 21,0 23.609375,0 23.9375,-14.4063 -0.274925,15.3174 -2.665968,15.4063 -23.9375,15.4063 z"
       style="opacity:0.20000000000000001;fill:#ffffff;fill-opacity:1;stroke:none"
       inkscape:connector-curvature="0" />
    <path
       style="fill:url(#linearGradient3987);fill-opacity:1;stroke:none"
       d="m 24,1006.3622 c -24,0 -24,0 -24,22 0,22 0,22 24,22 24,0 24,0 24,-22 0,-22 0,-22 -24,-22 z"
       id="path3757"
       inkscape:connector-curvature="0"
       sodipodi:nodetypes="zzzzz" />
    <g
       id="g3969"
       transform="translate(40,0)">
      <path
         style="opacity:0.02000002;fill:url(#linearGradient3989);fill-opacity:1;stroke:none"
         d="m -16,1006.3622 c -24,0 -24,0 -24,22 0,22 0,22 24,22 24,0 24,0 24,-22 0,-22 0,-22 -24,-22 z"
         id="path3783"
         inkscape:connector-curvature="0"
         sodipodi:nodetypes="zzzzz" />
      <path
         sodipodi:nodetypes="zzzzz"
         inkscape:connector-curvature="0"
         id="path3795"
         d="m -16,1006.3622 c -24,0 -24,0 -24,22 0,22 0,22 24,22 24,0 24,0 24,-22 0,-22 0,-22 -24,-22 z"
         style="opacity:0.02000002;fill:url(#linearGradient3991);fill-opacity:1;stroke:none" />
    </g>
    <path
       style="fill:#000000;fill-opacity:1;stroke:none;opacity:0.20000000000000001"
       d="M 24 2 C 2.7284685 2 0.33742495 2.0888436 0.0625 17.40625 C 0.390625 3.0029297 3 3 24 3 C 45 3 47.609375 3.0029297 47.9375 17.40625 C 47.662575 2.0888436 45.271532 2 24 2 z "
       transform="translate(0,1004.3622)"
       id="path3770" />
    <g
       id="g3834"
       style="opacity:0.2;fill:#000000;fill-opacity:1"
       transform="translate(1,1.0000517)">
      <rect
         style="fill:#000000;fill-opacity:1;stroke:none"
         id="rect3836"
         width="24"
         height="11.999966"
         x="12"
         y="1028.3622" />
      <rect
         y="1016.3622"
         x="12"
         height="12.000017"
         width="24"
         id="rect3838"
         style="fill:#000000;fill-opacity:1;stroke:none" />
    </g>
    <g
       id="g3830">
      <rect
         y="1028.3622"
         x="12"
         height="11.999966"
         width="24"
         id="rect3008"
         style="fill:#536dfe;fill-opacity:1;stroke:none" />
      <rect
         style="fill:#7c96fe;fill-opacity:1;stroke:none"
         id="rect3006"
         width="24"
         height="12.000017"
         x="12"
         y="1016.3622" />
    </g>
    <g
       style="opacity:0.2;stroke:#000000;stroke-opacity:1"
       id="g3822"
       transform="translate(1,1)">
      <path
         style="fill:none;stroke:#000000;stroke-width:2;stroke-linecap:butt;stroke-linejoin:miter;stroke-miterlimit:4;stroke-opacity:1;stroke-dasharray:none"
         d="m 15,15 0,6 3,0 1,-1 0,-4 -1,-1 z"
         id="path3824"
         inkscape:connector-curvature="0"
         transform="translate(0,1004.3622)"
         sodipodi:nodetypes="ccccccc" />
      <path
         style="fill:none;stroke:#000000;stroke-width:2;stroke-linecap:butt;stroke-linejoin:miter;stroke-miterlimit:4;stroke-opacity:1;stroke-dasharray:none"
         d="m 22,16 0,4 1,1 2,0 1,-1 0,-4 -1,-1 -2,0 z"
         id="path3826"
         inkscape:connector-curvature="0"
         transform="translate(0,1004.3622)"
         sodipodi:nodetypes="ccccccccc" />
      <path
         style="fill:none;stroke:#000000;stroke-width:2;stroke-linecap:butt;stroke-linejoin:miter;stroke-miterlimit:4;stroke-opacity:1;stroke-dasharray:none"
         d="m 33,16 0,-1 -4,0 0,3 4,0 0,3 -4,0 0,-1"
         id="path3828"
         inkscape:connector-curvature="0"
         transform="translate(0,1004.3622)"
         sodipodi:nodetypes="cccccc" />
    </g>
    <g
       id="g3817"
       style="stroke:#232323;stroke-opacity:1">
      <path
         sodipodi:nodetypes="ccccccc"
         transform="translate(0,1004.3622)"
         inkscape:connector-curvature="0"
         id="path3776"
         d="m 15,15 0,6 3,0 1,-1 0,-4 -1,-1 z"
         style="fill:none;stroke:#232323;stroke-width:2;stroke-linecap:butt;stroke-linejoin:miter;stroke-opacity:1;stroke-miterlimit:4;stroke-dasharray:none" />
      <path
         sodipodi:nodetypes="ccccccccc"
         transform="translate(0,1004.3622)"
         inkscape:connector-curvature="0"
         id="path3778"
         d="m 22,16 0,4 1,1 2,0 1,-1 0,-4 -1,-1 -2,0 z"
         style="fill:none;stroke:#232323;stroke-width:2;stroke-linecap:butt;stroke-linejoin:miter;stroke-opacity:1;stroke-miterlimit:4;stroke-dasharray:none" />
      <path
         sodipodi:nodetypes="cccccc"
         transform="translate(0,1004.3622)"
         inkscape:connector-curvature="0"
         id="path3780"
         d="m 33,16 0,-1 -4,0 0,3 4,0 0,3 -4,0 0,-1"
         style="fill:none;stroke:#232323;stroke-width:2;stroke-linecap:butt;stroke-linejoin:miter;stroke-opacity:1;stroke-miterlimit:4;stroke-dasharray:none" />
    </g>
    <g
       id="g3807"
       style="opacity:0.2;stroke:#000000;stroke-opacity:1"
       transform="translate(1,1)">
      <path
         style="fill:none;stroke:#000000;stroke-width:2;stroke-linecap:butt;stroke-linejoin:miter;stroke-miterlimit:4;stroke-opacity:1;stroke-dasharray:none"
         d="m 15,1037.3622 0,-6 3,0 1,1 0,1 -1,1 -3,0 3,0 1,1 0,1 -1,1 z"
         id="path3809"
         inkscape:connector-curvature="0"
         sodipodi:nodetypes="cccccccccc" />
      <path
         sodipodi:nodetypes="ccccccccc"
         inkscape:connector-curvature="0"
         id="path3811"
         d="m 22,1032.3622 0,4 1,1 2,0 1,-1 0,-4 -1,-1 -2,0 z"
         style="fill:none;stroke:#000000;stroke-width:2;stroke-linecap:butt;stroke-linejoin:miter;stroke-miterlimit:4;stroke-opacity:1;stroke-dasharray:none" />
      <path
         style="fill:none;stroke:#000000;stroke-width:2;stroke-linecap:butt;stroke-linejoin:miter;stroke-miterlimit:4;stroke-opacity:1;stroke-dasharray:none"
         d="m 29,1030.3622 0,1 4,6 0,1"
         id="path3813"
         inkscape:connector-curvature="0" />
      <path
         style="fill:none;stroke:#000000;stroke-width:2;stroke-linecap:butt;stroke-linejoin:miter;stroke-miterlimit:4;stroke-opacity:1;stroke-dasharray:none"
         d="m 33,1030.3622 0,1 -4,6 0,1"
         id="path3815"
         inkscape:connector-curvature="0" />
    </g>
    <g
       id="g3801">
      <path
         sodipodi:nodetypes="cccccccccc"
         inkscape:connector-curvature="0"
         id="path3782"
         d="m 15,1037.3622 0,-6 3,0 1,1 0,1 -1,1 -3,0 3,0 1,1 0,1 -1,1 z"
         style="fill:none;stroke:#ededed;stroke-width:2;stroke-linecap:butt;stroke-linejoin:miter;stroke-miterlimit:4;stroke-opacity:1;stroke-dasharray:none" />
      <path
         style="fill:none;stroke:#ededed;stroke-width:2;stroke-linecap:butt;stroke-linejoin:miter;stroke-miterlimit:4;stroke-opacity:1;stroke-dasharray:none"
         d="m 22,1032.3622 0,4 1,1 2,0 1,-1 0,-4 -1,-1 -2,0 z"
         id="path3784"
         inkscape:connector-curvature="0"
         sodipodi:nodetypes="ccccccccc" />
      <path
         inkscape:connector-curvature="0"
         id="path3786"
         d="m 29,1030.3622 0,1 4,6 0,1"
         style="fill:none;stroke:#ededed;stroke-width:2;stroke-linecap:butt;stroke-linejoin:miter;stroke-miterlimit:4;stroke-opacity:1;stroke-dasharray:none" />
      <path
         inkscape:connector-curvature="0"
         id="path3789"
         d="m 33,1030.3622 0,1 -4,6 0,1"
         style="fill:none;stroke:#ededed;stroke-width:2;stroke-linecap:butt;stroke-linejoin:miter;stroke-miterlimit:4;stroke-opacity:1;stroke-dasharray:none" />
    </g>
  </g>
</svg>
