<?xml version="1.0" encoding="UTF-8" standalone="no"?>
<!-- Created with Inkscape (http://www.inkscape.org/) -->

<svg
   xmlns:dc="http://purl.org/dc/elements/1.1/"
   xmlns:cc="http://creativecommons.org/ns#"
   xmlns:rdf="http://www.w3.org/1999/02/22-rdf-syntax-ns#"
   xmlns:svg="http://www.w3.org/2000/svg"
   xmlns="http://www.w3.org/2000/svg"
   xmlns:xlink="http://www.w3.org/1999/xlink"
   xmlns:sodipodi="http://sodipodi.sourceforge.net/DTD/sodipodi-0.dtd"
   xmlns:inkscape="http://www.inkscape.org/namespaces/inkscape"
   width="48"
   height="48"
   id="svg2"
   version="1.1"
   inkscape:version="0.48.4 r9939"
   sodipodi:docname="EasyTAG_icon.svg">
  <defs
     id="defs4">
    <linearGradient
       id="linearGradient3779">
      <stop
         style="stop-color:#000000;stop-opacity:1;"
         offset="0"
         id="stop3781" />
      <stop
         style="stop-color:#ffffff;stop-opacity:1;"
         offset="1"
         id="stop3783" />
    </linearGradient>
    <linearGradient
       inkscape:collect="always"
       xlink:href="#linearGradient3779"
       id="linearGradient3794"
       gradientUnits="userSpaceOnUse"
       gradientTransform="translate(-40,0)"
       spreadMethod="repeat"
       x1="24"
       y1="1028.3622"
       x2="45"
       y2="1007.3622" />
    <linearGradient
       inkscape:collect="always"
       xlink:href="#linearGradient3779"
       id="linearGradient3796"
       gradientUnits="userSpaceOnUse"
       gradientTransform="translate(-40,0)"
       spreadMethod="repeat"
       x1="44"
       y1="1048.3622"
       x2="15"
       y2="1019.3622" />
  </defs>
  <sodipodi:namedview
     id="base"
     pagecolor="#ffffff"
     bordercolor="#666666"
     borderopacity="1.0"
     inkscape:pageopacity="0.0"
     inkscape:pageshadow="2"
     inkscape:zoom="8.1906535"
     inkscape:cx="14.57111"
     inkscape:cy="25.955586"
     inkscape:document-units="px"
     inkscape:current-layer="layer1"
     showgrid="true"
     inkscape:snap-bbox="true"
     inkscape:window-width="1301"
     inkscape:window-height="744"
     inkscape:window-x="65"
     inkscape:window-y="24"
     inkscape:window-maximized="1"
     inkscape:object-nodes="true">
    <inkscape:grid
       type="xygrid"
       id="grid3003"
       empspacing="6"
       visible="true"
       enabled="true"
       snapvisiblegridlinesonly="true" />
  </sodipodi:namedview>
  <metadata
     id="metadata7">
    <rdf:RDF>
      <cc:Work
         rdf:about="">
        <dc:format>image/svg+xml</dc:format>
        <dc:type
           rdf:resource="http://purl.org/dc/dcmitype/StillImage" />
        <dc:title />
      </cc:Work>
    </rdf:RDF>
  </metadata>
  <g
     inkscape:label="Layer 1"
     inkscape:groupmode="layer"
     id="layer1"
     transform="translate(0,-1004.3622)">
    <path
       id="path3788"
       d="m 24,1051.1116 c -21.2715315,0 -23.66257505,-0.089 -23.9375,-15.4063 0.328125,14.4033 2.9375,14.4063 23.9375,14.4063 21,0 23.609375,0 23.9375,-14.4063 -0.274925,15.3174 -2.665968,15.4063 -23.9375,15.4063 z"
       style="opacity:0.20000000000000001;fill:#ffffff;fill-opacity:1;stroke:none"
       inkscape:connector-curvature="0" />
    <path
       style="fill:#ffa726;fill-opacity:1;stroke:none"
       d="m 24,1006.3622 c -24,0 -24,0 -24,22 0,22 0,22 24,22 24,0 24,0 24,-22 0,-22 0,-22 -24,-22 z"
       id="path3757"
       inkscape:connector-curvature="0"
       sodipodi:nodetypes="zzzzz" />
    <g
       id="g3790"
       transform="translate(40,0)">
      <path
         style="opacity:0.05;fill:url(#linearGradient3794);fill-opacity:1;stroke:none"
         d="m -16,1006.3622 c -24,0 -24,0 -24,22 0,22 0,22 24,22 24,0 24,0 24,-22 0,-22 0,-22 -24,-22 z"
         id="path3777"
         inkscape:connector-curvature="0"
         sodipodi:nodetypes="zzzzz" />
      <path
         sodipodi:nodetypes="zzzzz"
         inkscape:connector-curvature="0"
         id="path3787"
         d="m -16,1006.3622 c -24,0 -24,0 -24,22 0,22 0,22 24,22 24,0 24,0 24,-22 0,-22 0,-22 -24,-22 z"
         style="opacity:0.05;fill:url(#linearGradient3796);fill-opacity:1;stroke:none" />
    </g>
    <path
       style="fill:#000000;fill-opacity:1;stroke:none;opacity:0.20000000000000001"
       d="M 24 2 C 2.7284685 2 0.33742495 2.0888436 0.0625 17.40625 C 0.390625 3.0029297 3 3 24 3 C 45 3 47.609375 3.0029297 47.9375 17.40625 C 47.662575 2.0888436 45.271532 2 24 2 z "
       transform="translate(0,1004.3622)"
       id="path3770" />
    <g
       id="g3813"
       transform="translate(-47.998,993.3622)" />
    <g
       transform="matrix(0.70710678,0.70710678,-0.70710678,0.70710678,734.31264,290.38051)"
       inkscape:transform-center-y="-4.2148103"
       id="g3821"
       style="opacity:0.2;fill:#000000;fill-opacity:1">
      <rect
         style="fill:#000000;fill-opacity:1;stroke:none"
         id="rect3823"
         width="18"
         height="24"
         x="15"
         y="12"
         transform="translate(0,1004.3622)"
         ry="2" />
      <path
         inkscape:connector-curvature="0"
         style="fill:#000000;fill-opacity:1;stroke:none"
         d="m 17,12 c -1.108,0 -2,0.892 -2,2 l 0,4 18,0 0,-4 c 0,-1.108 -0.892,-2 -2,-2 l -14,0 z"
         transform="translate(0,1004.3622)"
         id="path3825" />
      <path
         sodipodi:type="arc"
         style="fill:#000000;fill-opacity:1;stroke:none"
         id="path3827"
         sodipodi:cx="17.5"
         sodipodi:cy="14.5"
         sodipodi:rx="1.5"
         sodipodi:ry="1.5"
         d="M 19,14.5 C 19,15.328427 18.328427,16 17.5,16 16.671573,16 16,15.328427 16,14.5 16,13.671573 16.671573,13 17.5,13 c 0.828427,0 1.5,0.671573 1.5,1.5 z"
         transform="matrix(1.3333333,0,0,1.3333333,-5.3333333,1000.0289)" />
      <path
         transform="matrix(0.6666663,0,0,0.66668857,6.3333392,1009.6952)"
         d="M 19,14.5 C 19,15.328427 18.328427,16 17.5,16 16.671573,16 16,15.328427 16,14.5 16,13.671573 16.671573,13 17.5,13 c 0.828427,0 1.5,0.671573 1.5,1.5 z"
         sodipodi:ry="1.5"
         sodipodi:rx="1.5"
         sodipodi:cy="14.5"
         sodipodi:cx="17.5"
         id="path3829"
         style="fill:#000000;fill-opacity:1;stroke:none"
         sodipodi:type="arc" />
      <path
         inkscape:connector-curvature="0"
         style="font-size:medium;font-style:normal;font-variant:normal;font-weight:normal;font-stretch:normal;text-indent:0;text-align:start;text-decoration:none;line-height:normal;letter-spacing:normal;word-spacing:normal;text-transform:none;direction:ltr;block-progression:tb;writing-mode:lr-tb;text-anchor:start;baseline-shift:baseline;color:#000000;fill:#000000;fill-opacity:1;stroke:none;stroke-width:2;marker:none;visibility:visible;display:inline;overflow:visible;enable-background:accumulate;font-family:Sans;-inkscape-font-specification:Sans"
         d="M 13.375,4.53125 C 13.157123,4.5238301 12.928239,4.54155 12.71875,4.5625 11.880795,4.6465 11.016216,5.01245 10.5625,5.78125 10.108784,6.54995 10.155739,7.5302 10.53125,8.5 c 0.751021,1.9397 2.805719,4.2735 6.875,7.3125 A 1.0063276,1.0063276 0 0 0 19,15.1875 a 1.0063276,1.0063276 0 0 0 0,-0.375 1.0063276,1.0063276 0 0 0 -0.40625,-0.625 C 14.672381,11.2589 12.883796,9.01455 12.40625,7.78125 12.167477,7.16455 12.224999,6.9078 12.28125,6.8125 c 0.05625,-0.095 0.206252,-0.23945 0.625,-0.28125 0.837496,-0.084 2.489057,0.40385 3.9375,1.65625 1.034917,0.8948433 1.979913,2.162933 2.59375,3.8125 l 2.125,0 C 20.847779,9.7039334 19.579812,7.9183986 18.15625,6.6875 16.592776,5.335625 14.90014,4.5831895 13.375,4.53125 z"
         transform="translate(0,1004.3622)"
         id="path3831" />
    </g>
    <rect
       style="fill:#f9f9f9;fill-opacity:1;stroke:none"
       id="rect3025"
       width="18"
       height="24"
       x="738.15326"
       y="702.45477"
       transform="matrix(0.70710678,0.70710678,-0.70710678,0.70710678,0,0)"
       ry="2" />
    <path
       inkscape:connector-curvature="0"
       style="fill:#bf360c;fill-opacity:1;stroke:none"
       d="m 26.656853,1020.0779 c -0.783474,-0.7834 -2.044953,-0.7834 -2.828427,0 l -2.828427,2.8285 12.727922,12.7279 2.828427,-2.8285 c 0.783474,-0.7834 0.783474,-2.0449 0,-2.8284 l -9.899495,-9.8995 z"
       id="rect3795" />
    <path
       sodipodi:type="arc"
       style="fill:#ffffff;fill-opacity:1;stroke:none"
       id="path3800"
       sodipodi:cx="17.5"
       sodipodi:cy="14.5"
       sodipodi:rx="1.5"
       sodipodi:ry="1.5"
       d="m 19,14.5 a 1.5,1.5 0 1 1 -3,0 1.5,1.5 0 1 1 3,0 z"
       transform="matrix(0.94280902,0.94280902,-0.94280902,0.94280902,22.414188,992.73649)" />
    <path
       transform="matrix(0.47140426,0.47140426,-0.47142001,0.47142001,23.828665,1007.8212)"
       d="m 19,14.5 a 1.5,1.5 0 1 1 -3,0 1.5,1.5 0 1 1 3,0 z"
       sodipodi:ry="1.5"
       sodipodi:rx="1.5"
       sodipodi:cy="14.5"
       sodipodi:cx="17.5"
       id="path3802"
       style="fill:#333333;fill-opacity:1;stroke:none"
       sodipodi:type="arc" />
    <path
       inkscape:connector-curvature="0"
       style="font-size:medium;font-style:normal;font-variant:normal;font-weight:normal;font-stretch:normal;text-indent:0;text-align:start;text-decoration:none;line-height:normal;letter-spacing:normal;word-spacing:normal;text-transform:none;direction:ltr;block-progression:tb;writing-mode:lr-tb;text-anchor:start;baseline-shift:baseline;color:#000000;fill:#1a1a1a;fill-opacity:1;stroke:none;stroke-width:2;marker:none;visibility:visible;display:inline;overflow:visible;enable-background:accumulate;font-family:Sans;-inkscape-font-specification:Sans"
       d="m 29.374795,1012.2335 c -0.148816,-0.1593 -0.323191,-0.3087 -0.486136,-0.442 -0.651921,-0.5331 -1.522036,-0.8857 -2.386486,-0.6629 -0.864378,0.2227 -1.524318,0.9491 -1.944543,1.9004 -0.840523,1.9026 -1.037878,5.0057 -0.30936,10.032 a 1.0063276,1.0063276 0 0 0 1.568894,0.685 1.0063276,1.0063276 0 0 0 0.265165,-0.2651 1.0063276,1.0063276 0 0 0 0.154679,-0.7292 c -0.701993,-4.8437 -0.379719,-7.6954 0.15468,-8.9052 0.267235,-0.6049 0.489458,-0.7457 0.596621,-0.7733 0.10695,-0.028 0.315159,-0.024 0.640816,0.243 0.651596,0.5328 1.474464,2.0456 1.613087,3.9554 0.09905,1.3645 -0.129415,2.9294 -0.861786,4.5299 l 1.502602,1.5026 c 1.11818,-2.1289 1.484155,-4.2881 1.347922,-6.1651 -0.149623,-2.0614 -0.814445,-3.7904 -1.856155,-4.9055 z"
       id="path3804" />
  </g>
</svg>
