<?xml version="1.0" encoding="UTF-8" standalone="no"?>
<!-- Created with Inkscape (http://www.inkscape.org/) -->

<svg
   xmlns:dc="http://purl.org/dc/elements/1.1/"
   xmlns:cc="http://creativecommons.org/ns#"
   xmlns:rdf="http://www.w3.org/1999/02/22-rdf-syntax-ns#"
   xmlns:svg="http://www.w3.org/2000/svg"
   xmlns="http://www.w3.org/2000/svg"
   xmlns:xlink="http://www.w3.org/1999/xlink"
   xmlns:sodipodi="http://sodipodi.sourceforge.net/DTD/sodipodi-0.dtd"
   xmlns:inkscape="http://www.inkscape.org/namespaces/inkscape"
   width="48"
   height="48"
   id="svg2"
   version="1.1"
   inkscape:version="0.48.4 r9939"
   sodipodi:docname="ekiga.svg">
  <defs
     id="defs4">
    <linearGradient
       id="linearGradient3779">
      <stop
         style="stop-color:#000000;stop-opacity:1;"
         offset="0"
         id="stop3781" />
      <stop
         style="stop-color:#ffffff;stop-opacity:1;"
         offset="1"
         id="stop3783" />
    </linearGradient>
    <linearGradient
       inkscape:collect="always"
       xlink:href="#linearGradient3779"
       id="linearGradient3783"
       gradientUnits="userSpaceOnUse"
       gradientTransform="translate(-40,0)"
       spreadMethod="repeat"
       x1="24"
       y1="1028.3622"
       x2="45"
       y2="1007.3622" />
    <linearGradient
       inkscape:collect="always"
       xlink:href="#linearGradient3779"
       id="linearGradient3785"
       gradientUnits="userSpaceOnUse"
       gradientTransform="translate(-40,0)"
       spreadMethod="repeat"
       x1="44"
       y1="1048.3622"
       x2="15"
       y2="1019.3622" />
  </defs>
  <sodipodi:namedview
     id="base"
     pagecolor="#ffffff"
     bordercolor="#666666"
     borderopacity="1.0"
     inkscape:pageopacity="0.0"
     inkscape:pageshadow="2"
     inkscape:zoom="11.583333"
     inkscape:cx="13.104465"
     inkscape:cy="21.825633"
     inkscape:document-units="px"
     inkscape:current-layer="layer1"
     showgrid="true"
     inkscape:snap-bbox="true"
     inkscape:window-width="1301"
     inkscape:window-height="744"
     inkscape:window-x="65"
     inkscape:window-y="24"
     inkscape:window-maximized="1"
     inkscape:object-nodes="true">
    <inkscape:grid
       type="xygrid"
       id="grid3003"
       empspacing="6"
       visible="true"
       enabled="true"
       snapvisiblegridlinesonly="true" />
  </sodipodi:namedview>
  <metadata
     id="metadata7">
    <rdf:RDF>
      <cc:Work
         rdf:about="">
        <dc:format>image/svg+xml</dc:format>
        <dc:type
           rdf:resource="http://purl.org/dc/dcmitype/StillImage" />
        <dc:title />
      </cc:Work>
    </rdf:RDF>
  </metadata>
  <g
     inkscape:label="Layer 1"
     inkscape:groupmode="layer"
     id="layer1"
     transform="translate(0,-1004.3622)">
    <path
       id="path3788"
       d="m 24,1051.1116 c -21.2715315,0 -23.66257505,-0.089 -23.9375,-15.4063 0.328125,14.4033 2.9375,14.4063 23.9375,14.4063 21,0 23.609375,0 23.9375,-14.4063 -0.274925,15.3174 -2.665968,15.4063 -23.9375,15.4063 z"
       style="opacity:0.20000000000000001;fill:#ffffff;fill-opacity:1;stroke:none"
       inkscape:connector-curvature="0" />
    <path
       style="fill:#ef6c00;fill-opacity:1;stroke:none"
       d="m 24,1006.3622 c -24,0 -24,0 -24,22 0,22 0,22 24,22 24,0 24,0 24,-22 0,-22 0,-22 -24,-22 z"
       id="path3757"
       inkscape:connector-curvature="0"
       sodipodi:nodetypes="zzzzz" />
    <g
       id="g3779"
       transform="translate(40,0)">
      <path
         style="opacity:0.05;fill:url(#linearGradient3783);fill-opacity:1;stroke:none"
         d="m -16,1006.3622 c -24,0 -24,0 -24,22 0,22 0,22 24,22 24,0 24,0 24,-22 0,-22 0,-22 -24,-22 z"
         id="path3777"
         inkscape:connector-curvature="0"
         sodipodi:nodetypes="zzzzz" />
      <path
         sodipodi:nodetypes="zzzzz"
         inkscape:connector-curvature="0"
         id="path3787"
         d="m -16,1006.3622 c -24,0 -24,0 -24,22 0,22 0,22 24,22 24,0 24,0 24,-22 0,-22 0,-22 -24,-22 z"
         style="opacity:0.05;fill:url(#linearGradient3785);fill-opacity:1;stroke:none" />
    </g>
    <path
       style="fill:#000000;fill-opacity:1;stroke:none;opacity:0.20000000000000001"
       d="M 24 2 C 2.7284685 2 0.33742495 2.0888436 0.0625 17.40625 C 0.390625 3.0029297 3 3 24 3 C 45 3 47.609375 3.0029297 47.9375 17.40625 C 47.662575 2.0888436 45.271532 2 24 2 z "
       transform="translate(0,1004.3622)"
       id="path3770" />
    <g
       id="g3813"
       transform="translate(-47.998,993.3622)" />
    <g
       id="g3837"
       style="opacity:0.2;fill:#000000;fill-opacity:1"
       transform="translate(1,1)">
      <path
         style="fill:#000000;fill-opacity:1;stroke:none"
         d="m 11,1016.3622 c 0,13.8072 11.19288,25 25,25 l 0,-5.9524 c -10.51971,0 -19.04762,-8.5278 -19.04762,-19.0476 l -5.95238,0 z"
         id="path3831"
         inkscape:connector-curvature="0" />
      <path
         style="fill:#000000;fill-opacity:1;stroke:none"
         d="m 28.857142,1029.4574 -2.97619,2.9762 -4.278274,4.2784 c 0.151187,0.1076 0.255582,0.2681 0.409226,0.3719 1.330009,0.8985 2.745593,1.6741 4.241072,2.3067 1.495479,0.6325 3.097263,1.1178 4.724702,1.4507 1.627439,0.3331 3.296432,0.5209 5.022322,0.5209 l 0,-5.9524 0,-3.5714 -7.142858,-2.381 z"
         id="path3833"
         inkscape:connector-curvature="0" />
      <path
         style="fill:#000000;fill-opacity:1;stroke:none"
         d="m 11,1016.3622 c 0,1.7259 0.187811,3.3949 0.520834,5.0224 0.333021,1.6274 0.818357,3.2291 1.450892,4.7247 0.632535,1.4954 1.408012,2.9109 2.306548,4.2409 0.103793,0.1537 0.264923,0.2582 0.372024,0.4094 l 4.278274,-4.2784 2.97619,-2.9762 -2.380952,-7.1428 -3.57143,0 -5.95238,0 z"
         id="path3835"
         inkscape:connector-curvature="0" />
    </g>
    <g
       id="g3842">
      <path
         inkscape:connector-curvature="0"
         id="path3006"
         d="m 11,1016.3622 c 0,13.8072 11.19288,25 25,25 l 0,-5.9524 c -10.51971,0 -19.04762,-8.5278 -19.04762,-19.0476 l -5.95238,0 z"
         style="fill:#fad5b7;fill-opacity:1;stroke:none" />
      <path
         inkscape:connector-curvature="0"
         id="path3805"
         d="m 28.857142,1029.4574 -2.97619,2.9762 -4.278274,4.2784 c 0.151187,0.1076 0.255582,0.2681 0.409226,0.3719 1.330009,0.8985 2.745593,1.6741 4.241072,2.3067 1.495479,0.6325 3.097263,1.1178 4.724702,1.4507 1.627439,0.3331 3.296432,0.5209 5.022322,0.5209 l 0,-5.9524 0,-3.5714 -7.142858,-2.381 z"
         style="fill:#fcad6b;fill-opacity:1;stroke:none" />
      <path
         inkscape:connector-curvature="0"
         id="path3801"
         d="m 11,1016.3622 c 0,1.7259 0.187811,3.3949 0.520834,5.0224 0.333021,1.6274 0.818357,3.2291 1.450892,4.7247 0.632535,1.4954 1.408012,2.9109 2.306548,4.2409 0.103793,0.1537 0.264923,0.2582 0.372024,0.4094 l 4.278274,-4.2784 2.97619,-2.9762 -2.380952,-7.1428 -3.57143,0 -5.95238,0 z"
         style="fill:#fcad6b;fill-opacity:1;stroke:none" />
      <path
         id="path3822"
         transform="translate(0,1004.3622)"
         d="M 19.90625 22.09375 L 15.625 26.375 C 15.672104 26.441619 15.733513 26.496365 15.78125 26.5625 L 21.03125 23.65625 C 20.765785 23.315621 20.461002 23.014829 20.21875 22.65625 C 20.099888 22.480312 20.01932 22.273807 19.90625 22.09375 z M 24.34375 26.96875 L 21.4375 32.21875 C 21.503635 32.266487 21.558381 32.327896 21.625 32.375 L 25.90625 28.09375 C 25.726193 27.98068 25.519689 27.900111 25.34375 27.78125 C 24.98517 27.539 24.68438 27.234214 24.34375 26.96875 z "
         style="fill:#000000;fill-opacity:1;stroke:none;opacity:0.4" />
    </g>
  </g>
</svg>
