<?xml version="1.0" encoding="UTF-8" standalone="no"?>
<!-- Created with Inkscape (http://www.inkscape.org/) -->

<svg
   xmlns:dc="http://purl.org/dc/elements/1.1/"
   xmlns:cc="http://creativecommons.org/ns#"
   xmlns:rdf="http://www.w3.org/1999/02/22-rdf-syntax-ns#"
   xmlns:svg="http://www.w3.org/2000/svg"
   xmlns="http://www.w3.org/2000/svg"
   xmlns:xlink="http://www.w3.org/1999/xlink"
   xmlns:sodipodi="http://sodipodi.sourceforge.net/DTD/sodipodi-0.dtd"
   xmlns:inkscape="http://www.inkscape.org/namespaces/inkscape"
   width="48"
   height="48"
   id="svg2"
   version="1.1"
   inkscape:version="0.48.4 r9939"
   sodipodi:docname="emacs23.svg">
  <defs
     id="defs4">
    <linearGradient
       id="linearGradient3866">
      <stop
         style="stop-color:#7c76b4;stop-opacity:1;"
         offset="0"
         id="stop3868" />
      <stop
         style="stop-color:#8f89bf;stop-opacity:1;"
         offset="1"
         id="stop3870" />
    </linearGradient>
    <clipPath
       id="clipPath-610661211">
      <g
         id="g3790"
         transform="translate(0,-1004.3622)">
        <path
           id="path3792"
           fill="#1890d0"
           transform="matrix(15.333333,0,0,11.5,414.99999,878.8622)"
           d="m -24 13 c 0 1.105 -0.672 2 -1.5 2 -0.828 0 -1.5 -0.895 -1.5 -2 0 -1.105 0.672 -2 1.5 -2 0.828 0 1.5 0.895 1.5 2 z" />
      </g>
    </clipPath>
    <linearGradient
       inkscape:collect="always"
       xlink:href="#linearGradient3866"
       id="linearGradient3872"
       x1="24"
       y1="1050.3622"
       x2="24"
       y2="1006.3622"
       gradientUnits="userSpaceOnUse" />
  </defs>
  <sodipodi:namedview
     id="base"
     pagecolor="#ffffff"
     bordercolor="#666666"
     borderopacity="1.0"
     inkscape:pageopacity="0.0"
     inkscape:pageshadow="2"
     inkscape:zoom="8.1906534"
     inkscape:cx="19.035021"
     inkscape:cy="11.997148"
     inkscape:document-units="px"
     inkscape:current-layer="layer1"
     showgrid="true"
     inkscape:snap-bbox="true"
     inkscape:window-width="1301"
     inkscape:window-height="744"
     inkscape:window-x="65"
     inkscape:window-y="24"
     inkscape:window-maximized="1"
     inkscape:snap-global="true">
    <inkscape:grid
       type="xygrid"
       id="grid2985"
       empspacing="6"
       visible="true"
       enabled="true"
       snapvisiblegridlinesonly="true" />
  </sodipodi:namedview>
  <metadata
     id="metadata7">
    <rdf:RDF>
      <cc:Work
         rdf:about="">
        <dc:format>image/svg+xml</dc:format>
        <dc:type
           rdf:resource="http://purl.org/dc/dcmitype/StillImage" />
        <dc:title />
      </cc:Work>
    </rdf:RDF>
  </metadata>
  <g
     inkscape:label="Layer 1"
     inkscape:groupmode="layer"
     id="layer1"
     transform="translate(0,-1004.3622)">
    <path
       id="path3788"
       d="m 24,1051.1116 c -21.2715315,0 -23.66257505,-0.089 -23.9375,-15.4063 0.328125,14.4033 2.9375,14.4063 23.9375,14.4063 21,0 23.609375,0 23.9375,-14.4063 -0.274925,15.3174 -2.665968,15.4063 -23.9375,15.4063 z"
       style="opacity:0.20000000000000001;fill:#ffffff;fill-opacity:1;stroke:none"
       inkscape:connector-curvature="0" />
    <path
       style="fill:url(#linearGradient3872);fill-opacity:1;stroke:none"
       d="m 24,1006.3622 c -24,0 -24,0 -24,22 0,22 0,22 24,22 24,0 24,0 24,-22 0,-22 0,-22 -24,-22 z"
       id="path3757"
       inkscape:connector-curvature="0"
       sodipodi:nodetypes="zzzzz" />
    <path
       style="fill:#000000;fill-opacity:1;stroke:none;opacity:0.20000000000000001"
       d="M 24 2 C 2.7284685 2 0.33742495 2.0888436 0.0625 17.40625 C 0.390625 3.0029297 3 3 24 3 C 45 3 47.609375 3.0029297 47.9375 17.40625 C 47.662575 2.0888436 45.271532 2 24 2 z "
       transform="translate(0,1004.3622)"
       id="path3770" />
    <path
       style="fill:#000000;fill-opacity:1;stroke:none;opacity:0.20000000000000001"
       d="M 24 2 C 7.2405624 2 2.2369698 2.0788791 0.71875 9.59375 C 2.3300781 2.5289866 7.5 2.53125 24 2.53125 C 40.5 2.53125 45.669922 2.5289866 47.28125 9.59375 C 45.76303 2.0788791 40.759438 2 24 2 z M 47.28125 9.59375 C 47.354492 9.9148756 47.409424 10.242768 47.46875 10.59375 C 47.41561 10.240351 47.346891 9.9186608 47.28125 9.59375 z M 0.71875 9.59375 C 0.65310868 9.9186608 0.58439008 10.240351 0.53125 10.59375 C 0.59057617 10.242768 0.64550781 9.9148756 0.71875 9.59375 z "
       transform="translate(0,1004.3622)"
       id="path3012" />
    <g
       id="g3032"
       transform="translate(48,1007.3622)" />
    <g
       id="g3806"
       transform="translate(-49.998,1010.3622)" />
    <path
       id="path3818"
       d="m 16.068363,1041.1995 c 0,0 1.559,0.453 3.629,0.711 0.84,0.102 4.04,0.469 6.484,0.457 0,0 2.984,0 4.629,-0.23 1.723,-0.246 2.699,-0.555 3.242,-1.176 0.016,-0.148 0.262,-0.633 -0.406,-1.098 -1.715,-1.184 -3.926,-1.512 -8.227,-2.527 -4.754,-1.191 -6.176,-2.328 -6.883,-3.156 -0.676,-0.824 0.125,-2.539 3.957,-3.383 1.938,-0.469 9.164,-0.555 9.164,-0.555 -2.074,-1.637 -5.965,-4.57 -6.758,-5.191 -0.699,-0.547 -1.82,-1.387 -1.941,-2.137 -0.164,-0.73 0.992,-1.082 1.602,-1.125 1.969,-0.133 4.66,0.098 7.05,0.566 1.203,0.238 1.414,0.203 1.414,0.203 1.711,0.082 3.043,-0.813 2.973,-2.688 -0.016,-1.906 -1.926,-3.434 -4.047,-3.5 -1.996,-0.066 -6.914,0.281 -6.914,0.281 5.734,1.176 6.672,1.477 6.969,2.16 0.176,0.406 -0.297,0.809 -1.875,0.73 -1.719,-0.086 -5.246,-0.5 -5.246,-0.5 -3.355,-0.52 -5.688,-0.996 -6.711,0.328 -0.664,0.855 0.098,1.918 0.395,2.531 1.332,2.316 3.633,3.898 5.094,5.02 0.547,0.422 2.227,1.348 2.227,1.348 -5.215,-1.418 -9.371,-0.617 -12.01,0.758 -3.03,1.789 -2.52,4.797 2.297,7.613 2.836,1.66 4.25,2.461 8.895,3.03 2.723,0.434 3.125,0.609 3.105,0.836 -0.027,0.316 -3.215,0.434 -4.094,0.496 -2.23,0.152 -7.988,0.191 -8.02,0.191 m 0.004,0"
       inkscape:connector-curvature="0"
       style="opacity:0.2;fill:#000000;fill-opacity:1;fill-rule:evenodd;stroke:none" />
    <g
       id="g3820"
       transform="translate(-1.0016374,1004.3675)">
      <g
         clip-path="url(#clipPath-610661211)"
         id="g3822">
        <!-- color: #7f7bc5 -->
        <g
           id="g3824">
          <path
             style="fill:#f9f9f9;fill-opacity:1;fill-rule:evenodd;stroke:none"
             inkscape:connector-curvature="0"
             d="m 16.07,35.832 c 0,0 1.559,0.453 3.629,0.711 0.84,0.102 4.04,0.469 6.484,0.457 0,0 2.984,0.004 4.629,-0.23 1.723,-0.246 2.699,-0.555 3.242,-1.176 0.016,-0.148 0.262,-0.633 -0.406,-1.098 -1.715,-1.184 -3.926,-1.512 -8.227,-2.527 -4.754,-1.191 -6.176,-2.328 -6.883,-3.156 -0.676,-0.824 0.125,-2.539 3.957,-3.383 1.938,-0.469 9.164,-0.555 9.164,-0.555 -2.074,-1.637 -5.965,-4.57 -6.758,-5.191 -0.699,-0.547 -1.82,-1.387 -1.941,-2.137 -0.164,-0.73 0.992,-1.082 1.602,-1.125 1.969,-0.133 4.66,0.098 7.05,0.566 1.203,0.238 1.414,0.203 1.414,0.203 1.711,0.082 3.043,-0.813 2.973,-2.688 -0.016,-1.906 -1.926,-3.434 -4.047,-3.5 -1.996,-0.066 -6.914,0.281 -6.914,0.281 5.734,1.176 6.672,1.477 6.969,2.16 0.176,0.406 -0.297,0.809 -1.875,0.73 -1.719,-0.086 -5.246,-0.5 -5.246,-0.5 -3.355,-0.52 -5.688,-0.996 -6.711,0.328 -0.664,0.855 0.098,1.918 0.395,2.531 1.332,2.316 3.633,3.898 5.094,5.02 0.547,0.422 2.227,1.348 2.227,1.348 -5.215,-1.418 -9.371,-0.617 -12.01,0.758 -3.03,1.789 -2.52,4.797 2.297,7.613 2.836,1.66 4.25,2.461 8.895,3.03 2.723,0.434 3.125,0.609 3.105,0.836 -0.027,0.316 -3.215,0.434 -4.094,0.496 -2.23,0.152 -7.988,0.191 -8.02,0.191 m 0.004,0.004"
             id="path3826" />
        </g>
      </g>
    </g>
  </g>
</svg>
