<?xml version="1.0" encoding="UTF-8" standalone="no"?>
<!-- Created with Inkscape (http://www.inkscape.org/) -->

<svg
   xmlns:dc="http://purl.org/dc/elements/1.1/"
   xmlns:cc="http://creativecommons.org/ns#"
   xmlns:rdf="http://www.w3.org/1999/02/22-rdf-syntax-ns#"
   xmlns:svg="http://www.w3.org/2000/svg"
   xmlns="http://www.w3.org/2000/svg"
   xmlns:xlink="http://www.w3.org/1999/xlink"
   xmlns:sodipodi="http://sodipodi.sourceforge.net/DTD/sodipodi-0.dtd"
   xmlns:inkscape="http://www.inkscape.org/namespaces/inkscape"
   width="48"
   height="48"
   id="svg2"
   version="1.1"
   inkscape:version="0.48.4 r9939"
   sodipodi:docname="emesene.svg">
  <defs
     id="defs4">
    <linearGradient
       id="linearGradient3994">
      <stop
         style="stop-color:#3c4558;stop-opacity:1;"
         offset="0"
         id="stop3996" />
      <stop
         style="stop-color:#505c76;stop-opacity:1;"
         offset="1"
         id="stop3998" />
    </linearGradient>
    <linearGradient
       inkscape:collect="always"
       id="linearGradient3986">
      <stop
         style="stop-color:#0d47a1;stop-opacity:1;"
         offset="0"
         id="stop3988" />
      <stop
         style="stop-color:#0d47a1;stop-opacity:0;"
         offset="1"
         id="stop3990" />
    </linearGradient>
    <linearGradient
       id="linearGradient3936">
      <stop
         style="stop-color:#2196f3;stop-opacity:1;"
         offset="0"
         id="stop3938" />
      <stop
         style="stop-color:#2196f3;stop-opacity:0;"
         offset="1"
         id="stop3940" />
    </linearGradient>
    <linearGradient
       inkscape:collect="always"
       id="linearGradient3918">
      <stop
         style="stop-color:#d500f9;stop-opacity:1;"
         offset="0"
         id="stop3920" />
      <stop
         style="stop-color:#d500f9;stop-opacity:0;"
         offset="1"
         id="stop3922" />
    </linearGradient>
    <clipPath
       id="clipPath-671003598">
      <g
         id="g3028"
         transform="translate(0,-1004.3622)">
        <path
           id="path3030"
           fill="#1890d0"
           transform="matrix(15.333333,0,0,11.5,414.99999,878.8622)"
           d="m -24 13 c 0 1.105 -0.672 2 -1.5 2 -0.828 0 -1.5 -0.895 -1.5 -2 0 -1.105 0.672 -2 1.5 -2 0.828 0 1.5 0.895 1.5 2 z" />
      </g>
    </clipPath>
    <clipPath
       id="clipPath-662662026">
      <g
         id="g3023"
         transform="translate(0,-1004.3622)">
        <path
           id="path3025"
           fill="#1890d0"
           transform="matrix(15.333333,0,0,11.5,414.99999,878.8622)"
           d="m -24 13 c 0 1.105 -0.672 2 -1.5 2 -0.828 0 -1.5 -0.895 -1.5 -2 0 -1.105 0.672 -2 1.5 -2 0.828 0 1.5 0.895 1.5 2 z" />
      </g>
    </clipPath>
    <radialGradient
       inkscape:collect="always"
       xlink:href="#linearGradient3918"
       id="radialGradient3924"
       cx="2"
       cy="1052.3622"
       fx="2"
       fy="1052.3622"
       r="24"
       gradientTransform="matrix(1,0,0,0.91666667,0,85.69685)"
       gradientUnits="userSpaceOnUse" />
    <radialGradient
       inkscape:collect="always"
       xlink:href="#linearGradient3936"
       id="radialGradient3942"
       cx="24"
       cy="1045.8168"
       fx="24"
       fy="1045.8168"
       r="24"
       gradientTransform="matrix(1,0,0,0.91666667,0,85.69685)"
       gradientUnits="userSpaceOnUse" />
    <radialGradient
       inkscape:collect="always"
       xlink:href="#linearGradient3986"
       id="radialGradient3992"
       cx="6"
       cy="1008.7258"
       fx="6"
       fy="1008.7258"
       r="24"
       gradientTransform="matrix(1,0,0,0.91666667,0,85.69685)"
       gradientUnits="userSpaceOnUse" />
    <linearGradient
       inkscape:collect="always"
       xlink:href="#linearGradient3994"
       id="linearGradient4000"
       x1="24"
       y1="1050.3622"
       x2="24"
       y2="1006.3622"
       gradientUnits="userSpaceOnUse" />
  </defs>
  <sodipodi:namedview
     id="base"
     pagecolor="#ffffff"
     bordercolor="#666666"
     borderopacity="1.0"
     inkscape:pageopacity="0.0"
     inkscape:pageshadow="2"
     inkscape:zoom="8.1906533"
     inkscape:cx="2.5137912"
     inkscape:cy="16.381493"
     inkscape:document-units="px"
     inkscape:current-layer="layer1"
     showgrid="true"
     inkscape:snap-bbox="true"
     inkscape:window-width="1301"
     inkscape:window-height="744"
     inkscape:window-x="65"
     inkscape:window-y="24"
     inkscape:window-maximized="1"
     inkscape:object-nodes="false"
     inkscape:snap-nodes="true">
    <inkscape:grid
       type="xygrid"
       id="grid3005"
       empspacing="6"
       visible="true"
       enabled="true"
       snapvisiblegridlinesonly="true" />
  </sodipodi:namedview>
  <metadata
     id="metadata7">
    <rdf:RDF>
      <cc:Work
         rdf:about="">
        <dc:format>image/svg+xml</dc:format>
        <dc:type
           rdf:resource="http://purl.org/dc/dcmitype/StillImage" />
        <dc:title />
      </cc:Work>
    </rdf:RDF>
  </metadata>
  <g
     inkscape:label="Layer 1"
     inkscape:groupmode="layer"
     id="layer1"
     transform="translate(0,-1004.3622)">
    <path
       id="path3788"
       d="m 24,1051.1116 c -21.2715315,0 -23.66257505,-0.089 -23.9375,-15.4063 0.328125,14.4033 2.9375,14.4063 23.9375,14.4063 21,0 23.609375,0 23.9375,-14.4063 -0.274925,15.3174 -2.665968,15.4063 -23.9375,15.4063 z"
       style="opacity:0.20000000000000001;fill:#ffffff;fill-opacity:1;stroke:none"
       inkscape:connector-curvature="0" />
    <path
       style="fill:url(#linearGradient4000);fill-opacity:1;stroke:none"
       d="m 24,1006.3622 c -24,0 -24,0 -24,22 0,22 0,22 24,22 24,0 24,0 24,-22 0,-22 0,-22 -24,-22 z"
       id="path3757"
       inkscape:connector-curvature="0"
       sodipodi:nodetypes="zzzzz" />
    <path
       sodipodi:nodetypes="zzzzz"
       inkscape:connector-curvature="0"
       id="path3944"
       d="m 24,1006.3622 c -24,0 -24,0 -24,22 0,22 0,22 24,22 24,0 24,0 24,-22 0,-22 0,-22 -24,-22 z"
       style="fill:url(#radialGradient3992);fill-opacity:1;stroke:none;opacity:0.50000000000000000" />
    <path
       style="fill:url(#radialGradient3942);fill-opacity:1;stroke:none;opacity:0.50000000000000000"
       d="m 24,1006.3622 c -24,0 -24,0 -24,22 0,22 0,22 24,22 24,0 24,0 24,-22 0,-22 0,-22 -24,-22 z"
       id="path3926"
       inkscape:connector-curvature="0"
       sodipodi:nodetypes="zzzzz" />
    <path
       sodipodi:nodetypes="zzzzz"
       inkscape:connector-curvature="0"
       id="path3916"
       d="m 24,1006.3622 c -24,0 -24,0 -24,22 0,22 0,22 24,22 24,0 24,0 24,-22 0,-22 0,-22 -24,-22 z"
       style="fill:url(#radialGradient3924);fill-opacity:1;stroke:none;opacity:0.50000000000000000" />
    <path
       style="fill:#000000;fill-opacity:1;stroke:none;opacity:0.20000000000000001"
       d="M 24 2 C 2.7284685 2 0.33742495 2.0888436 0.0625 17.40625 C 0.390625 3.0029297 3 3 24 3 C 45 3 47.609375 3.0029297 47.9375 17.40625 C 47.662575 2.0888436 45.271532 2 24 2 z "
       transform="translate(0,1004.3622)"
       id="path3770" />
    <g
       id="g3037"
       transform="translate(-46.998,1004.3622)" />
    <g
       id="g3808"
       transform="translate(-52.998,1013.3622)" />
    <g
       id="g3795"
       style="stroke-width:2;stroke-miterlimit:4;stroke-dasharray:none" />
    <g
       id="g3048"
       clip-path="url(#clipPath-662662026)"
       transform="translate(-7.7811225e-4,1004.3698)">
      <g
         id="g3050"
         transform="translate(1,1)">
        <g
           id="g3052"
           style="opacity:0.1">
          <!-- color: #87abd0 -->
          <g
             id="g3054">
            <path
               id="path3056"
               d="m 18.688,29.21 c 0,0 -3.117,-2.48 -5.348,-6.07 -2.234,-3.586 -2.855,-5.855 -1.922,-6.539 0.934,-0.688 4.621,0.789 7.422,2.582 2.805,1.793 2.316,1.563 2.316,1.563 0,0 0.008,-1.273 0.676,-1.531 0.781,-0.305 1.406,1.055 1.406,1.055 0,0 0.898,-1.93 3.391,-4.41 2.492,-2.477 5.234,-4.184 6.375,-3.816 1.145,0.371 1.941,3.41 1.996,7.102 0.051,3.691 -2.422,7.422 -2.422,7.422 0,0 1.578,2.574 1.27,4.316 -0.383,2.137 -1.199,3.543 -2.809,3.703 -1.609,0.156 -4.516,-2.691 -4.516,-2.691 0,0 0.105,3.746 -1.246,4.059 -1.348,0.316 -3.582,-1.422 -4.879,-3.215 -1.297,-1.793 -1.711,-3.535 -1.711,-3.535 m 0,0.016"
               inkscape:connector-curvature="0"
               style="fill:#000000;fill-opacity:1;fill-rule:nonzero;stroke:none" />
          </g>
        </g>
      </g>
    </g>
    <g
       id="g3060"
       clip-path="url(#clipPath-671003598)"
       transform="translate(-7.7811225e-4,1004.3698)">
      <!-- color: #87abd0 -->
      <g
         id="g3062">
        <path
           id="path3064"
           d="m 18.688,29.21 c 0,0 -3.117,-2.48 -5.348,-6.07 -2.234,-3.586 -2.855,-5.855 -1.922,-6.539 0.934,-0.688 4.621,0.789 7.422,2.582 2.805,1.793 2.316,1.563 2.316,1.563 0,0 0.008,-1.273 0.676,-1.531 0.781,-0.305 1.406,1.055 1.406,1.055 0,0 0.898,-1.93 3.391,-4.41 2.492,-2.477 5.234,-4.184 6.375,-3.816 1.145,0.371 1.941,3.41 1.996,7.102 0.051,3.691 -2.422,7.422 -2.422,7.422 0,0 1.578,2.574 1.27,4.316 -0.383,2.137 -1.199,3.543 -2.809,3.703 -1.609,0.156 -4.516,-2.691 -4.516,-2.691 0,0 0.105,3.746 -1.246,4.059 -1.348,0.316 -3.582,-1.422 -4.879,-3.215 -1.297,-1.793 -1.711,-3.535 -1.711,-3.535 m 0,0.016"
           inkscape:connector-curvature="0"
           style="fill:#f9f9f9;fill-opacity:1;fill-rule:nonzero;stroke:none" />
      </g>
    </g>
  </g>
</svg>
