<?xml version="1.0" encoding="UTF-8" standalone="no"?>
<!-- Created with Inkscape (http://www.inkscape.org/) -->

<svg
   xmlns:dc="http://purl.org/dc/elements/1.1/"
   xmlns:cc="http://creativecommons.org/ns#"
   xmlns:rdf="http://www.w3.org/1999/02/22-rdf-syntax-ns#"
   xmlns:svg="http://www.w3.org/2000/svg"
   xmlns="http://www.w3.org/2000/svg"
   xmlns:xlink="http://www.w3.org/1999/xlink"
   xmlns:sodipodi="http://sodipodi.sourceforge.net/DTD/sodipodi-0.dtd"
   xmlns:inkscape="http://www.inkscape.org/namespaces/inkscape"
   width="48"
   height="48"
   id="svg2"
   version="1.1"
   inkscape:version="0.48.4 r9939"
   sodipodi:docname="chrome-npfkoakaabdallkcdbpkkhfilkkngakh-Default.svg">
  <defs
     id="defs4">
    <linearGradient
       id="linearGradient4096">
      <stop
         style="stop-color:#363636;stop-opacity:1;"
         offset="0"
         id="stop4098" />
      <stop
         style="stop-color:#454545;stop-opacity:1;"
         offset="1"
         id="stop4100" />
    </linearGradient>
    <clipPath
       id="clipPath-863563858">
      <g
         id="g3033"
         transform="translate(0,-1004.3622)">
        <path
           id="path3035"
           fill="#1890d0"
           transform="matrix(15.333333,0,0,11.5,414.99999,878.8622)"
           d="m -24 13 c 0 1.105 -0.672 2 -1.5 2 -0.828 0 -1.5 -0.895 -1.5 -2 0 -1.105 0.672 -2 1.5 -2 0.828 0 1.5 0.895 1.5 2 z" />
      </g>
    </clipPath>
    <clipPath
       id="clipPath-851318584">
      <g
         id="g3028"
         transform="translate(0,-1004.3622)">
        <path
           id="path3030"
           fill="#1890d0"
           transform="matrix(15.333333,0,0,11.5,414.99999,878.8622)"
           d="m -24 13 c 0 1.105 -0.672 2 -1.5 2 -0.828 0 -1.5 -0.895 -1.5 -2 0 -1.105 0.672 -2 1.5 -2 0.828 0 1.5 0.895 1.5 2 z" />
      </g>
    </clipPath>
    <linearGradient
       gradientTransform="matrix(0,-1,1,0,-1.5e-6,47.999998)"
       gradientUnits="userSpaceOnUse"
       x2="47"
       x1="1"
       id="linearGradient3764-4">
      <stop
         id="stop3023"
         stop-opacity="1"
         stop-color="#333" />
      <stop
         id="stop3025"
         stop-opacity="1"
         stop-color="#3d3d3d"
         offset="1" />
    </linearGradient>
    <linearGradient
       inkscape:collect="always"
       xlink:href="#linearGradient4096"
       id="linearGradient4102"
       x1="24"
       y1="1050.3622"
       x2="24"
       y2="1006.3622"
       gradientUnits="userSpaceOnUse" />
  </defs>
  <sodipodi:namedview
     id="base"
     pagecolor="#ffffff"
     bordercolor="#666666"
     borderopacity="1.0"
     inkscape:pageopacity="0.0"
     inkscape:pageshadow="2"
     inkscape:zoom="8.1906533"
     inkscape:cx="8.0062444"
     inkscape:cy="30.333515"
     inkscape:document-units="px"
     inkscape:current-layer="layer1"
     showgrid="true"
     inkscape:snap-bbox="true"
     inkscape:window-width="1301"
     inkscape:window-height="744"
     inkscape:window-x="65"
     inkscape:window-y="24"
     inkscape:window-maximized="1"
     inkscape:snap-global="true"
     inkscape:snap-nodes="false"
     inkscape:snap-object-midpoints="true">
    <inkscape:grid
       type="xygrid"
       id="grid2985"
       empspacing="6"
       visible="true"
       enabled="true"
       snapvisiblegridlinesonly="true" />
  </sodipodi:namedview>
  <metadata
     id="metadata7">
    <rdf:RDF>
      <cc:Work
         rdf:about="">
        <dc:format>image/svg+xml</dc:format>
        <dc:type
           rdf:resource="http://purl.org/dc/dcmitype/StillImage" />
        <dc:title />
      </cc:Work>
    </rdf:RDF>
  </metadata>
  <g
     inkscape:label="Layer 1"
     inkscape:groupmode="layer"
     id="layer1"
     transform="translate(0,-1004.3622)">
    <path
       id="path3788"
       d="m 24,1051.1116 c -21.2715315,0 -23.66257505,-0.089 -23.9375,-15.4063 0.328125,14.4033 2.9375,14.4063 23.9375,14.4063 21,0 23.609375,0 23.9375,-14.4063 -0.274925,15.3174 -2.665968,15.4063 -23.9375,15.4063 z"
       style="opacity:0.20000000000000001;fill:#ffffff;fill-opacity:1;stroke:none"
       inkscape:connector-curvature="0" />
    <path
       style="fill:url(#linearGradient4102);fill-opacity:1;stroke:none"
       d="m 24,1006.3622 c -24,0 -24,0 -24,22 0,22 0,22 24,22 24,0 24,0 24,-22 0,-22 0,-22 -24,-22 z"
       id="path3757"
       inkscape:connector-curvature="0"
       sodipodi:nodetypes="zzzzz" />
    <path
       style="fill:#000000;fill-opacity:1;stroke:none;opacity:0.20000000000000001"
       d="M 24 2 C 2.7284685 2 0.33742495 2.0888436 0.0625 17.40625 C 0.390625 3.0029297 3 3 24 3 C 45 3 47.609375 3.0029297 47.9375 17.40625 C 47.662575 2.0888436 45.271532 2 24 2 z "
       transform="translate(0,1004.3622)"
       id="path3770" />
    <path
       style="fill:#000000;fill-opacity:1;stroke:none;opacity:0.20000000000000001"
       d="M 24 2 C 7.2405624 2 2.2369698 2.0788791 0.71875 9.59375 C 2.3300781 2.5289866 7.5 2.53125 24 2.53125 C 40.5 2.53125 45.669922 2.5289866 47.28125 9.59375 C 45.76303 2.0788791 40.759438 2 24 2 z M 47.28125 9.59375 C 47.354492 9.9148756 47.409424 10.242768 47.46875 10.59375 C 47.41561 10.240351 47.346891 9.9186608 47.28125 9.59375 z M 0.71875 9.59375 C 0.65310868 9.9186608 0.58439008 10.240351 0.53125 10.59375 C 0.59057617 10.242768 0.64550781 9.9148756 0.71875 9.59375 z "
       transform="translate(0,1004.3622)"
       id="path3012" />
    <g
       id="g3032"
       transform="translate(48,1007.3622)" />
    <g
       id="g3824"
       transform="translate(-52.998,1003.3622)" />
    <g
       id="g3037"
       transform="translate(25.002,1002.3625)" />
    <g
       id="g3808"
       transform="translate(19.002,1011.3625)" />
    <g
       id="g3795"
       style="stroke-width:2;stroke-miterlimit:4;stroke-dasharray:none"
       transform="translate(72,-1.9997)" />
    <g
       id="g3049"
       transform="translate(-55.0005,1001.3622)" />
    <g
       id="g3051"
       transform="translate(0.003,1004.3622)">
      <g
         clip-path="url(#clipPath-851318584)"
         id="g3053">
        <g
           transform="translate(1,1)"
           id="g3055">
          <g
             style="opacity:0.1"
             id="g3057">
            <!-- color: #3d3d3d -->
            <g
               id="g3059">
              <path
                 style="fill:#000000;fill-opacity:1;fill-rule:nonzero;stroke:none"
                 inkscape:connector-curvature="0"
                 d="m 17.02,32 3.957,0 c 0.012,0 0.02,0.004 0.02,0.004 l 0,1.992 c 0,0 -0.008,0.004 -0.02,0.004 l -3.957,0 c -0.012,0 -0.023,-0.004 -0.023,-0.004 l 0,-1.992 c 0,0 0.012,-0.004 0.023,-0.004 m 0,0"
                 id="path3061" />
              <path
                 style="fill:#000000;fill-opacity:0.9020004;fill-rule:nonzero;stroke:none"
                 inkscape:connector-curvature="0"
                 d="m 17.02,28.984 3.957,0 c 0.012,0 0.02,0.004 0.02,0.004 l 0,1.992 c 0,0 -0.008,0.004 -0.02,0.004 l -3.957,0 c -0.012,0 -0.023,-0.004 -0.023,-0.004 l 0,-1.992 c 0,0 0.012,-0.004 0.023,-0.004 m 0,0"
                 id="path3063" />
              <path
                 style="fill:#000000;fill-opacity:0.8;fill-rule:nonzero;stroke:none"
                 inkscape:connector-curvature="0"
                 d="m 17.02,26.02 3.957,0 c 0.012,0 0.02,0 0.02,0.004 l 0,1.965 c 0,0.004 -0.008,0.004 -0.02,0.004 l -3.957,0 c -0.012,0 -0.023,0 -0.023,-0.004 l 0,-1.965 c 0,-0.004 0.012,-0.004 0.023,-0.004 m 0,0"
                 id="path3065" />
              <path
                 style="fill:#000000;fill-opacity:0.70200004;fill-rule:nonzero;stroke:none"
                 inkscape:connector-curvature="0"
                 d="m 17.02,23 3.957,0 c 0.012,0 0.02,0.004 0.02,0.004 l 0,1.953 c 0,0 -0.008,0.004 -0.02,0.004 l -3.957,0 c -0.012,0 -0.023,-0.004 -0.023,-0.004 l 0,-1.953 c 0,0 0.012,-0.004 0.023,-0.004 m 0,0"
                 id="path3067" />
              <path
                 style="fill:#000000;fill-opacity:0.6;fill-rule:nonzero;stroke:none"
                 inkscape:connector-curvature="0"
                 d="m 17.02,20 3.957,0 c 0.012,0 0.02,0 0.02,0.004 l 0,1.941 c 0,0 -0.008,0.004 -0.02,0.004 l -3.957,0 c -0.012,0 -0.023,-0.004 -0.023,-0.004 l 0,-1.941 C 16.997,20 17.009,20 17.02,20 m 0,0"
                 id="path3069" />
              <path
                 style="fill:#000000;fill-opacity:1;fill-rule:nonzero;stroke:none"
                 inkscape:connector-curvature="0"
                 d="m 27.02,32.01 3.961,0 c 0.012,0 0.02,0 0.02,0.004 l 0,1.977 c 0,0 -0.008,0.004 -0.02,0.004 l -3.961,0 C 27.008,33.995 27,33.991 27,33.991 l 0,-1.977 c 0,-0.004 0.008,-0.004 0.02,-0.004 m 0,0"
                 id="path3071" />
              <path
                 style="fill:#000000;fill-opacity:0.9020004;fill-rule:nonzero;stroke:none"
                 inkscape:connector-curvature="0"
                 d="m 27.02,29.02 3.961,0 c 0.012,0 0.02,0.004 0.02,0.004 l 0,1.965 c 0,0.004 -0.008,0.004 -0.02,0.004 l -3.961,0 c -0.012,0 -0.02,0 -0.02,-0.004 l 0,-1.965 c 0,0 0.008,-0.004 0.02,-0.004 m 0,0"
                 id="path3073" />
              <path
                 style="fill:#000000;fill-opacity:0.8;fill-rule:nonzero;stroke:none"
                 inkscape:connector-curvature="0"
                 d="m 27.02,26.05 3.961,0 c 0.012,0 0.02,0.004 0.02,0.004 l 0,1.957 c 0,0 -0.008,0.004 -0.02,0.004 l -3.961,0 C 27.008,28.015 27,28.011 27,28.011 l 0,-1.957 c 0,0 0.008,-0.004 0.02,-0.004 m 0,0"
                 id="path3075" />
              <path
                 style="fill:#000000;fill-opacity:0.70200004;fill-rule:nonzero;stroke:none"
                 inkscape:connector-curvature="0"
                 d="m 27.02,23.05 3.961,0 c 0.012,0 0.02,0 0.02,0.004 l 0,1.941 c 0,0 -0.008,0.004 -0.02,0.004 l -3.961,0 C 27.008,24.999 27,24.995 27,24.995 l 0,-1.941 c 0,-0.004 0.008,-0.004 0.02,-0.004 m 0,0"
                 id="path3077" />
              <path
                 style="fill:#000000;fill-opacity:0.6;fill-rule:nonzero;stroke:none"
                 inkscape:connector-curvature="0"
                 d="m 27.02,20.06 3.961,0 c 0.012,0 0.02,0.004 0.02,0.004 l 0,1.926 c 0,0.004 -0.008,0.004 -0.02,0.004 l -3.961,0 c -0.012,0 -0.02,0 -0.02,-0.004 l 0,-1.926 c 0,0 0.008,-0.004 0.02,-0.004 m 0,0"
                 id="path3079" />
              <path
                 style="fill:#000000;fill-opacity:0.50199998;fill-rule:nonzero;stroke:none"
                 inkscape:connector-curvature="0"
                 d="m 27.02,17 3.961,0 c 0.012,0 0.02,0.004 0.02,0.004 l 0,1.992 C 31.001,19 30.993,19 30.981,19 L 27.02,19 C 27.008,19 27,19 27,18.996 l 0,-1.992 c 0,0 0.008,-0.004 0.02,-0.004 m 0,0"
                 id="path3081" />
              <path
                 style="fill:#000000;fill-opacity:1;fill-rule:nonzero;stroke:none"
                 inkscape:connector-curvature="0"
                 d="m 32.02,32 3.961,0 c 0.012,0 0.02,0.004 0.02,0.004 l 0,1.992 c 0,0 -0.008,0.004 -0.02,0.004 L 32.02,34 C 32.008,34 32,33.996 32,33.996 l 0,-1.992 c 0,0 0.008,-0.004 0.02,-0.004 m 0,0"
                 id="path3083" />
              <path
                 style="fill:#000000;fill-opacity:0.9020004;fill-rule:nonzero;stroke:none"
                 inkscape:connector-curvature="0"
                 d="m 32.02,29 3.961,0 c 0.012,0 0.02,0 0.02,0.004 l 0,1.98 c 0,0 -0.008,0.004 -0.02,0.004 l -3.961,0 C 32.008,30.988 32,30.984 32,30.984 l 0,-1.98 C 32,29 32.008,29 32.02,29 m 0,0"
                 id="path3085" />
              <path
                 style="fill:#000000;fill-opacity:0.8;fill-rule:nonzero;stroke:none"
                 inkscape:connector-curvature="0"
                 d="m 32.02,26.02 3.961,0 c 0.012,0 0.02,0 0.02,0.004 l 0,1.965 c 0,0.004 -0.008,0.004 -0.02,0.004 l -3.961,0 c -0.012,0 -0.02,0 -0.02,-0.004 l 0,-1.965 c 0,-0.004 0.008,-0.004 0.02,-0.004 m 0,0"
                 id="path3087" />
              <path
                 style="fill:#000000;fill-opacity:0.70200004;fill-rule:nonzero;stroke:none"
                 inkscape:connector-curvature="0"
                 d="m 32.02,23 3.961,0 c 0.012,0 0.02,0.004 0.02,0.004 l 0,1.953 c 0,0 -0.008,0.004 -0.02,0.004 l -3.961,0 C 32.008,24.961 32,24.957 32,24.957 l 0,-1.953 c 0,0 0.008,-0.004 0.02,-0.004 m 0,0"
                 id="path3089" />
              <path
                 style="fill:#000000;fill-opacity:0.6;fill-rule:nonzero;stroke:none"
                 inkscape:connector-curvature="0"
                 d="m 32.02,20 3.961,0 c 0.012,0 0.02,0 0.02,0.004 l 0,1.941 c 0,0 -0.008,0.004 -0.02,0.004 l -3.961,0 C 32.008,21.949 32,21.945 32,21.945 l 0,-1.941 C 32,20 32.008,20 32.02,20 m 0,0"
                 id="path3091" />
              <path
                 style="fill:#000000;fill-opacity:1;fill-rule:nonzero;stroke:none"
                 inkscape:connector-curvature="0"
                 d="m 22.02,32 3.957,0 c 0.012,0 0.02,0.004 0.02,0.004 l 0,1.992 c 0,0 -0.008,0.004 -0.02,0.004 l -3.957,0 c -0.012,0 -0.023,-0.004 -0.023,-0.004 l 0,-1.992 c 0,0 0.012,-0.004 0.023,-0.004 m 0,0"
                 id="path3093" />
              <path
                 style="fill:#000000;fill-opacity:0.9020004;fill-rule:nonzero;stroke:none"
                 inkscape:connector-curvature="0"
                 d="m 22.02,29 3.957,0 c 0.012,0 0.02,0 0.02,0.004 l 0,1.98 c 0,0 -0.008,0.004 -0.02,0.004 l -3.957,0 c -0.012,0 -0.023,-0.004 -0.023,-0.004 l 0,-1.98 C 21.997,29 22.009,29 22.02,29 m 0,0"
                 id="path3095" />
              <path
                 style="fill:#000000;fill-opacity:0.8;fill-rule:nonzero;stroke:none"
                 inkscape:connector-curvature="0"
                 d="m 22.02,26.02 3.957,0 c 0.012,0 0.02,0 0.02,0.004 l 0,1.965 c 0,0.004 -0.008,0.004 -0.02,0.004 l -3.957,0 c -0.012,0 -0.023,0 -0.023,-0.004 l 0,-1.965 c 0,-0.004 0.012,-0.004 0.023,-0.004 m 0,0"
                 id="path3097" />
              <path
                 style="fill:#000000;fill-opacity:1;fill-rule:nonzero;stroke:none"
                 inkscape:connector-curvature="0"
                 d="m 12.02,32 3.957,0 c 0.012,0 0.02,0.004 0.02,0.004 l 0,1.992 c 0,0 -0.008,0.004 -0.02,0.004 l -3.957,0 c -0.012,0 -0.023,-0.004 -0.023,-0.004 l 0,-1.992 c 0,0 0.012,-0.004 0.023,-0.004 m 0,0"
                 id="path3099" />
              <path
                 style="fill:#000000;fill-opacity:0.9020004;fill-rule:nonzero;stroke:none"
                 inkscape:connector-curvature="0"
                 d="m 12.02,29.02 3.957,0 c 0.012,0 0.02,0.004 0.02,0.004 l 0,1.969 c 0,0 -0.008,0 -0.02,0 l -3.957,0 c -0.012,0 -0.023,0 -0.023,0 l 0,-1.969 c 0,0 0.012,-0.004 0.023,-0.004 m 0,0"
                 id="path3101" />
              <path
                 style="fill:#000000;fill-opacity:0.8;fill-rule:nonzero;stroke:none"
                 inkscape:connector-curvature="0"
                 d="m 12.02,26.04 3.957,0 c 0.012,0 0.02,0 0.02,0 l 0,1.957 c 0,0.004 -0.008,0.004 -0.02,0.004 l -3.957,0 c -0.012,0 -0.023,0 -0.023,-0.004 l 0,-1.957 c 0,0 0.012,0 0.023,0 m 0,0"
                 id="path3103" />
              <path
                 style="fill:#000000;fill-opacity:0.70200004;fill-rule:nonzero;stroke:none"
                 inkscape:connector-curvature="0"
                 d="m 12.02,23.05 3.957,0 c 0.012,0 0.02,0 0.02,0.004 l 0,1.941 c 0,0 -0.008,0.004 -0.02,0.004 l -3.957,0 c -0.012,0 -0.023,-0.004 -0.023,-0.004 l 0,-1.941 c 0,-0.004 0.012,-0.004 0.023,-0.004 m 0,0"
                 id="path3105" />
              <path
                 style="fill:#000000;fill-opacity:0.6;fill-rule:nonzero;stroke:none"
                 inkscape:connector-curvature="0"
                 d="m 12.02,20.06 3.957,0 c 0.012,0 0.02,0.004 0.02,0.004 l 0,1.93 c 0,0 -0.008,0 -0.02,0 l -3.957,0 c -0.012,0 -0.023,0 -0.023,0 l 0,-1.93 c 0,0 0.012,-0.004 0.023,-0.004 m 0,0"
                 id="path3107" />
              <path
                 style="fill:#000000;fill-opacity:0.50199998;fill-rule:nonzero;stroke:none"
                 inkscape:connector-curvature="0"
                 d="m 12.02,17 3.957,0 c 0.012,0 0.02,0 0.02,0.004 l 0,1.988 c 0,0.004 -0.008,0.004 -0.02,0.004 l -3.957,0 c -0.012,0 -0.023,0 -0.023,-0.004 l 0,-1.988 C 11.997,17 12.009,17 12.02,17 m 0,0"
                 id="path3109" />
              <path
                 style="fill:#000000;fill-opacity:0.4;fill-rule:nonzero;stroke:none"
                 inkscape:connector-curvature="0"
                 d="m 12.02,14 3.957,0 c 0.012,0 0.02,0.004 0.02,0.004 l 0,1.992 c 0,0 -0.008,0.004 -0.02,0.004 l -3.957,0 c -0.012,0 -0.023,-0.004 -0.023,-0.004 l 0,-1.992 c 0,0 0.012,-0.004 0.023,-0.004 m 0,0"
                 id="path3111" />
            </g>
          </g>
        </g>
      </g>
    </g>
    <g
       id="g3113"
       transform="translate(0.003,1004.3622)">
      <g
         clip-path="url(#clipPath-863563858)"
         id="g3115">
        <!-- color: #3d3d3d -->
        <g
           id="g3117">
          <path
             style="fill:#e4c82f;fill-opacity:1;fill-rule:nonzero;stroke:none"
             inkscape:connector-curvature="0"
             d="m 17.02,32 3.957,0 c 0.012,0 0.02,0.004 0.02,0.004 l 0,1.992 c 0,0 -0.008,0.004 -0.02,0.004 l -3.957,0 c -0.012,0 -0.023,-0.004 -0.023,-0.004 l 0,-1.992 c 0,0 0.012,-0.004 0.023,-0.004 m 0,0"
             id="path3119" />
          <path
             style="fill:#e4c82f;fill-opacity:0.9020004;fill-rule:nonzero;stroke:none"
             inkscape:connector-curvature="0"
             d="m 17.02,28.984 3.957,0 c 0.012,0 0.02,0.004 0.02,0.004 l 0,1.992 c 0,0 -0.008,0.004 -0.02,0.004 l -3.957,0 c -0.012,0 -0.023,-0.004 -0.023,-0.004 l 0,-1.992 c 0,0 0.012,-0.004 0.023,-0.004 m 0,0"
             id="path3121" />
          <path
             style="fill:#e4c82f;fill-opacity:0.8;fill-rule:nonzero;stroke:none"
             inkscape:connector-curvature="0"
             d="m 17.02,26.02 3.957,0 c 0.012,0 0.02,0 0.02,0.004 l 0,1.965 c 0,0.004 -0.008,0.004 -0.02,0.004 l -3.957,0 c -0.012,0 -0.023,0 -0.023,-0.004 l 0,-1.965 c 0,-0.004 0.012,-0.004 0.023,-0.004 m 0,0"
             id="path3123" />
          <path
             style="fill:#e4c82f;fill-opacity:0.70200004;fill-rule:nonzero;stroke:none"
             inkscape:connector-curvature="0"
             d="m 17.02,23 3.957,0 c 0.012,0 0.02,0.004 0.02,0.004 l 0,1.953 c 0,0 -0.008,0.004 -0.02,0.004 l -3.957,0 c -0.012,0 -0.023,-0.004 -0.023,-0.004 l 0,-1.953 c 0,0 0.012,-0.004 0.023,-0.004 m 0,0"
             id="path3125" />
          <path
             style="fill:#e4c82f;fill-opacity:0.6;fill-rule:nonzero;stroke:none"
             inkscape:connector-curvature="0"
             d="m 17.02,20 3.957,0 c 0.012,0 0.02,0 0.02,0.004 l 0,1.941 c 0,0 -0.008,0.004 -0.02,0.004 l -3.957,0 c -0.012,0 -0.023,-0.004 -0.023,-0.004 l 0,-1.941 C 16.997,20 17.009,20 17.02,20 m 0,0"
             id="path3127" />
          <path
             style="fill:#3e8ded;fill-opacity:1;fill-rule:nonzero;stroke:none"
             inkscape:connector-curvature="0"
             d="m 27.02,32.01 3.961,0 c 0.012,0 0.02,0 0.02,0.004 l 0,1.977 c 0,0 -0.008,0.004 -0.02,0.004 l -3.961,0 C 27.008,33.995 27,33.991 27,33.991 l 0,-1.977 c 0,-0.004 0.008,-0.004 0.02,-0.004 m 0,0"
             id="path3129" />
          <path
             style="fill:#3e8ded;fill-opacity:0.9020004;fill-rule:nonzero;stroke:none"
             inkscape:connector-curvature="0"
             d="m 27.02,29.02 3.961,0 c 0.012,0 0.02,0.004 0.02,0.004 l 0,1.965 c 0,0.004 -0.008,0.004 -0.02,0.004 l -3.961,0 c -0.012,0 -0.02,0 -0.02,-0.004 l 0,-1.965 c 0,0 0.008,-0.004 0.02,-0.004 m 0,0"
             id="path3131" />
          <path
             style="fill:#3e8ded;fill-opacity:0.8;fill-rule:nonzero;stroke:none"
             inkscape:connector-curvature="0"
             d="m 27.02,26.05 3.961,0 c 0.012,0 0.02,0.004 0.02,0.004 l 0,1.957 c 0,0 -0.008,0.004 -0.02,0.004 l -3.961,0 C 27.008,28.015 27,28.011 27,28.011 l 0,-1.957 c 0,0 0.008,-0.004 0.02,-0.004 m 0,0"
             id="path3133" />
          <path
             style="fill:#3e8ded;fill-opacity:0.70200004;fill-rule:nonzero;stroke:none"
             inkscape:connector-curvature="0"
             d="m 27.02,23.05 3.961,0 c 0.012,0 0.02,0 0.02,0.004 l 0,1.941 c 0,0 -0.008,0.004 -0.02,0.004 l -3.961,0 C 27.008,24.999 27,24.995 27,24.995 l 0,-1.941 c 0,-0.004 0.008,-0.004 0.02,-0.004 m 0,0"
             id="path3135" />
          <path
             style="fill:#3e8ded;fill-opacity:0.6;fill-rule:nonzero;stroke:none"
             inkscape:connector-curvature="0"
             d="m 27.02,20.06 3.961,0 c 0.012,0 0.02,0.004 0.02,0.004 l 0,1.926 c 0,0.004 -0.008,0.004 -0.02,0.004 l -3.961,0 c -0.012,0 -0.02,0 -0.02,-0.004 l 0,-1.926 c 0,0 0.008,-0.004 0.02,-0.004 m 0,0"
             id="path3137" />
          <path
             style="fill:#3e8ded;fill-opacity:0.50199998;fill-rule:nonzero;stroke:none"
             inkscape:connector-curvature="0"
             d="m 27.02,17 3.961,0 c 0.012,0 0.02,0.004 0.02,0.004 l 0,1.992 C 31.001,19 30.993,19 30.981,19 L 27.02,19 C 27.008,19 27,19 27,18.996 l 0,-1.992 c 0,0 0.008,-0.004 0.02,-0.004 m 0,0"
             id="path3139" />
          <path
             style="fill:#db4ddb;fill-opacity:1;fill-rule:nonzero;stroke:none"
             inkscape:connector-curvature="0"
             d="m 32.02,32 3.961,0 c 0.012,0 0.02,0.004 0.02,0.004 l 0,1.992 c 0,0 -0.008,0.004 -0.02,0.004 L 32.02,34 C 32.008,34 32,33.996 32,33.996 l 0,-1.992 c 0,0 0.008,-0.004 0.02,-0.004 m 0,0"
             id="path3141" />
          <path
             style="fill:#db4ddb;fill-opacity:0.9020004;fill-rule:nonzero;stroke:none"
             inkscape:connector-curvature="0"
             d="m 32.02,29 3.961,0 c 0.012,0 0.02,0 0.02,0.004 l 0,1.98 c 0,0 -0.008,0.004 -0.02,0.004 l -3.961,0 C 32.008,30.988 32,30.984 32,30.984 l 0,-1.98 C 32,29 32.008,29 32.02,29 m 0,0"
             id="path3143" />
          <path
             style="fill:#db4ddb;fill-opacity:0.8;fill-rule:nonzero;stroke:none"
             inkscape:connector-curvature="0"
             d="m 32.02,26.02 3.961,0 c 0.012,0 0.02,0 0.02,0.004 l 0,1.965 c 0,0.004 -0.008,0.004 -0.02,0.004 l -3.961,0 c -0.012,0 -0.02,0 -0.02,-0.004 l 0,-1.965 c 0,-0.004 0.008,-0.004 0.02,-0.004 m 0,0"
             id="path3145" />
          <path
             style="fill:#db4ddb;fill-opacity:0.70200004;fill-rule:nonzero;stroke:none"
             inkscape:connector-curvature="0"
             d="m 32.02,23 3.961,0 c 0.012,0 0.02,0.004 0.02,0.004 l 0,1.953 c 0,0 -0.008,0.004 -0.02,0.004 l -3.961,0 C 32.008,24.961 32,24.957 32,24.957 l 0,-1.953 c 0,0 0.008,-0.004 0.02,-0.004 m 0,0"
             id="path3147" />
          <path
             style="fill:#db4ddb;fill-opacity:0.6;fill-rule:nonzero;stroke:none"
             inkscape:connector-curvature="0"
             d="m 32.02,20 3.961,0 c 0.012,0 0.02,0 0.02,0.004 l 0,1.941 c 0,0 -0.008,0.004 -0.02,0.004 l -3.961,0 C 32.008,21.949 32,21.945 32,21.945 l 0,-1.941 C 32,20 32.008,20 32.02,20 m 0,0"
             id="path3149" />
          <path
             style="fill:#7fcf5b;fill-opacity:1;fill-rule:nonzero;stroke:none"
             inkscape:connector-curvature="0"
             d="m 22.02,32 3.957,0 c 0.012,0 0.02,0.004 0.02,0.004 l 0,1.992 c 0,0 -0.008,0.004 -0.02,0.004 l -3.957,0 c -0.012,0 -0.023,-0.004 -0.023,-0.004 l 0,-1.992 c 0,0 0.012,-0.004 0.023,-0.004 m 0,0"
             id="path3151" />
          <path
             style="fill:#7fcf5b;fill-opacity:0.9020004;fill-rule:nonzero;stroke:none"
             inkscape:connector-curvature="0"
             d="m 22.02,29 3.957,0 c 0.012,0 0.02,0 0.02,0.004 l 0,1.98 c 0,0 -0.008,0.004 -0.02,0.004 l -3.957,0 c -0.012,0 -0.023,-0.004 -0.023,-0.004 l 0,-1.98 C 21.997,29 22.009,29 22.02,29 m 0,0"
             id="path3153" />
          <path
             style="fill:#7fcf5b;fill-opacity:0.8;fill-rule:nonzero;stroke:none"
             inkscape:connector-curvature="0"
             d="m 22.02,26.02 3.957,0 c 0.012,0 0.02,0 0.02,0.004 l 0,1.965 c 0,0.004 -0.008,0.004 -0.02,0.004 l -3.957,0 c -0.012,0 -0.023,0 -0.023,-0.004 l 0,-1.965 c 0,-0.004 0.012,-0.004 0.023,-0.004 m 0,0"
             id="path3155" />
          <path
             style="fill:#c52f2f;fill-opacity:1;fill-rule:nonzero;stroke:none"
             inkscape:connector-curvature="0"
             d="m 12.02,32 3.957,0 c 0.012,0 0.02,0.004 0.02,0.004 l 0,1.992 c 0,0 -0.008,0.004 -0.02,0.004 l -3.957,0 c -0.012,0 -0.023,-0.004 -0.023,-0.004 l 0,-1.992 c 0,0 0.012,-0.004 0.023,-0.004 m 0,0"
             id="path3157" />
          <path
             style="fill:#c52f2f;fill-opacity:0.9020004;fill-rule:nonzero;stroke:none"
             inkscape:connector-curvature="0"
             d="m 12.02,29.02 3.957,0 c 0.012,0 0.02,0.004 0.02,0.004 l 0,1.969 c 0,0 -0.008,0 -0.02,0 l -3.957,0 c -0.012,0 -0.023,0 -0.023,0 l 0,-1.969 c 0,0 0.012,-0.004 0.023,-0.004 m 0,0"
             id="path3159" />
          <path
             style="fill:#c52f2f;fill-opacity:0.8;fill-rule:nonzero;stroke:none"
             inkscape:connector-curvature="0"
             d="m 12.02,26.04 3.957,0 c 0.012,0 0.02,0 0.02,0 l 0,1.957 c 0,0.004 -0.008,0.004 -0.02,0.004 l -3.957,0 c -0.012,0 -0.023,0 -0.023,-0.004 l 0,-1.957 c 0,0 0.012,0 0.023,0 m 0,0"
             id="path3161" />
          <path
             style="fill:#c52f2f;fill-opacity:0.70200004;fill-rule:nonzero;stroke:none"
             inkscape:connector-curvature="0"
             d="m 12.02,23.05 3.957,0 c 0.012,0 0.02,0 0.02,0.004 l 0,1.941 c 0,0 -0.008,0.004 -0.02,0.004 l -3.957,0 c -0.012,0 -0.023,-0.004 -0.023,-0.004 l 0,-1.941 c 0,-0.004 0.012,-0.004 0.023,-0.004 m 0,0"
             id="path3163" />
          <path
             style="fill:#c52f2f;fill-opacity:0.6;fill-rule:nonzero;stroke:none"
             inkscape:connector-curvature="0"
             d="m 12.02,20.06 3.957,0 c 0.012,0 0.02,0.004 0.02,0.004 l 0,1.93 c 0,0 -0.008,0 -0.02,0 l -3.957,0 c -0.012,0 -0.023,0 -0.023,0 l 0,-1.93 c 0,0 0.012,-0.004 0.023,-0.004 m 0,0"
             id="path3165" />
          <path
             style="fill:#c52f2f;fill-opacity:0.50199998;fill-rule:nonzero;stroke:none"
             inkscape:connector-curvature="0"
             d="m 12.02,17 3.957,0 c 0.012,0 0.02,0 0.02,0.004 l 0,1.988 c 0,0.004 -0.008,0.004 -0.02,0.004 l -3.957,0 c -0.012,0 -0.023,0 -0.023,-0.004 l 0,-1.988 C 11.997,17 12.009,17 12.02,17 m 0,0"
             id="path3167" />
          <path
             style="fill:#c52f2f;fill-opacity:0.4;fill-rule:nonzero;stroke:none"
             inkscape:connector-curvature="0"
             d="m 12.02,14 3.957,0 c 0.012,0 0.02,0.004 0.02,0.004 l 0,1.992 c 0,0 -0.008,0.004 -0.02,0.004 l -3.957,0 c -0.012,0 -0.023,-0.004 -0.023,-0.004 l 0,-1.992 c 0,0 0.012,-0.004 0.023,-0.004 m 0,0"
             id="path3169" />
        </g>
      </g>
    </g>
  </g>
</svg>
