<?xml version="1.0" encoding="UTF-8" standalone="no"?>
<!-- Created with Inkscape (http://www.inkscape.org/) -->

<svg
   xmlns:dc="http://purl.org/dc/elements/1.1/"
   xmlns:cc="http://creativecommons.org/ns#"
   xmlns:rdf="http://www.w3.org/1999/02/22-rdf-syntax-ns#"
   xmlns:svg="http://www.w3.org/2000/svg"
   xmlns="http://www.w3.org/2000/svg"
   xmlns:xlink="http://www.w3.org/1999/xlink"
   xmlns:sodipodi="http://sodipodi.sourceforge.net/DTD/sodipodi-0.dtd"
   xmlns:inkscape="http://www.inkscape.org/namespaces/inkscape"
   width="48"
   height="48"
   id="svg2"
   version="1.1"
   inkscape:version="0.48.4 r9939"
   sodipodi:docname="exfalso.svg">
  <defs
     id="defs4">
    <linearGradient
       id="linearGradient3838">
      <stop
         style="stop-color:#3a3463;stop-opacity:1;"
         offset="0"
         id="stop3840" />
      <stop
         style="stop-color:#4a427e;stop-opacity:1;"
         offset="1"
         id="stop3842" />
    </linearGradient>
    <linearGradient
       id="linearGradient3779">
      <stop
         style="stop-color:#000000;stop-opacity:1;"
         offset="0"
         id="stop3781" />
      <stop
         style="stop-color:#ffffff;stop-opacity:1;"
         offset="1"
         id="stop3783" />
    </linearGradient>
    <linearGradient
       inkscape:collect="always"
       xlink:href="#linearGradient3779"
       id="linearGradient3795"
       gradientUnits="userSpaceOnUse"
       gradientTransform="translate(-20,0)"
       spreadMethod="repeat"
       x1="24"
       y1="1028.3622"
       x2="45"
       y2="1007.3622" />
    <linearGradient
       inkscape:collect="always"
       xlink:href="#linearGradient3779"
       id="linearGradient3797"
       gradientUnits="userSpaceOnUse"
       gradientTransform="translate(-20,0)"
       spreadMethod="repeat"
       x1="44"
       y1="1048.3622"
       x2="15"
       y2="1019.3622" />
    <linearGradient
       gradientUnits="userSpaceOnUse"
       y2="84"
       x2="84"
       y1="24"
       x1="24"
       id="linearGradient3956"
       xlink:href="#linearGradient3950"
       inkscape:collect="always" />
    <linearGradient
       inkscape:collect="always"
       xlink:href="#linearGradient3782"
       id="linearGradient3793"
       gradientUnits="userSpaceOnUse"
       spreadMethod="repeat"
       x1="48"
       y1="48"
       x2="90"
       y2="48"
       gradientTransform="translate(0,956.36218)" />
    <linearGradient
       inkscape:collect="always"
       xlink:href="#linearGradient3782"
       id="linearGradient3788"
       x1="48"
       y1="48"
       x2="48"
       y2="84"
       gradientUnits="userSpaceOnUse"
       spreadMethod="repeat" />
    <linearGradient
       id="linearGradient3782">
      <stop
         style="stop-color:#0082b4;stop-opacity:1;"
         offset="0"
         id="stop3784" />
      <stop
         style="stop-color:#00d1fb;stop-opacity:1;"
         offset="1"
         id="stop3786" />
    </linearGradient>
    <linearGradient
       id="linearGradient3950"
       inkscape:collect="always">
      <stop
         id="stop3952"
         offset="0"
         style="stop-color:#000000;stop-opacity:1;" />
      <stop
         id="stop3954"
         offset="1"
         style="stop-color:#000000;stop-opacity:0;" />
    </linearGradient>
    <linearGradient
       inkscape:collect="always"
       xlink:href="#linearGradient3782"
       id="linearGradient3050"
       gradientUnits="userSpaceOnUse"
       gradientTransform="translate(83.9988,980.3622)"
       spreadMethod="repeat"
       x1="48"
       y1="48"
       x2="90"
       y2="48" />
    <linearGradient
       inkscape:collect="always"
       xlink:href="#linearGradient3782"
       id="linearGradient3053"
       gradientUnits="userSpaceOnUse"
       spreadMethod="repeat"
       x1="48"
       y1="48"
       x2="48"
       y2="84"
       gradientTransform="translate(83.9988,980.3622)" />
    <linearGradient
       inkscape:collect="always"
       xlink:href="#linearGradient3950"
       id="linearGradient3056"
       gradientUnits="userSpaceOnUse"
       x1="24"
       y1="24"
       x2="84"
       y2="84"
       gradientTransform="translate(83.9988,980.3622)" />
    <linearGradient
       inkscape:collect="always"
       xlink:href="#linearGradient3782"
       id="linearGradient3066"
       gradientUnits="userSpaceOnUse"
       gradientTransform="translate(83.9988,980.3622)"
       spreadMethod="repeat"
       x1="48"
       y1="48"
       x2="48"
       y2="84" />
    <linearGradient
       inkscape:collect="always"
       xlink:href="#linearGradient3782"
       id="linearGradient3068"
       gradientUnits="userSpaceOnUse"
       gradientTransform="translate(83.9988,980.3622)"
       spreadMethod="repeat"
       x1="48"
       y1="48"
       x2="90"
       y2="48" />
    <linearGradient
       inkscape:collect="always"
       xlink:href="#linearGradient3838"
       id="linearGradient3844"
       x1="24"
       y1="1050.3622"
       x2="24"
       y2="1006.3622"
       gradientUnits="userSpaceOnUse" />
    <linearGradient
       inkscape:collect="always"
       xlink:href="#linearGradient3782"
       id="linearGradient3847"
       gradientUnits="userSpaceOnUse"
       gradientTransform="matrix(0.35355338,-0.35355338,0.35355338,0.35355338,-9.9411309,1028.3622)"
       spreadMethod="repeat"
       x1="48"
       y1="48"
       x2="90"
       y2="48" />
    <linearGradient
       inkscape:collect="always"
       xlink:href="#linearGradient3782"
       id="linearGradient3850"
       gradientUnits="userSpaceOnUse"
       gradientTransform="matrix(0.35355338,-0.35355338,0.35355338,0.35355338,-9.9411309,1028.3622)"
       spreadMethod="repeat"
       x1="48"
       y1="48"
       x2="48"
       y2="84" />
  </defs>
  <sodipodi:namedview
     id="base"
     pagecolor="#ffffff"
     bordercolor="#666666"
     borderopacity="1.0"
     inkscape:pageopacity="0.0"
     inkscape:pageshadow="2"
     inkscape:zoom="8.1906533"
     inkscape:cx="27.664978"
     inkscape:cy="6.7140114"
     inkscape:document-units="px"
     inkscape:current-layer="layer1"
     showgrid="true"
     inkscape:snap-bbox="true"
     inkscape:window-width="1301"
     inkscape:window-height="744"
     inkscape:window-x="65"
     inkscape:window-y="24"
     inkscape:window-maximized="1"
     inkscape:snap-global="true">
    <inkscape:grid
       type="xygrid"
       id="grid2985"
       empspacing="6"
       visible="true"
       enabled="true"
       snapvisiblegridlinesonly="true" />
  </sodipodi:namedview>
  <metadata
     id="metadata7">
    <rdf:RDF>
      <cc:Work
         rdf:about="">
        <dc:format>image/svg+xml</dc:format>
        <dc:type
           rdf:resource="http://purl.org/dc/dcmitype/StillImage" />
        <dc:title />
      </cc:Work>
    </rdf:RDF>
  </metadata>
  <g
     inkscape:label="Layer 1"
     inkscape:groupmode="layer"
     id="layer1"
     transform="translate(0,-1004.3622)">
    <path
       id="path3788"
       d="m 24,1051.1116 c -21.2715315,0 -23.66257505,-0.089 -23.9375,-15.4063 0.328125,14.4033 2.9375,14.4063 23.9375,14.4063 21,0 23.609375,0 23.9375,-14.4063 -0.274925,15.3174 -2.665968,15.4063 -23.9375,15.4063 z"
       style="opacity:0.20000000000000001;fill:#ffffff;fill-opacity:1;stroke:none"
       inkscape:connector-curvature="0" />
    <path
       style="fill:url(#linearGradient3844);fill-opacity:1;stroke:none"
       d="m 24,1006.3622 c -24,0 -24,0 -24,22 0,22 0,22 24,22 24,0 24,0 24,-22 0,-22 0,-22 -24,-22 z"
       id="path3757"
       inkscape:connector-curvature="0"
       sodipodi:nodetypes="zzzzz" />
    <g
       id="g3791"
       transform="translate(20,0)">
      <path
         style="opacity:0.02999998;fill:url(#linearGradient3795);fill-opacity:1;stroke:none"
         d="m 4,1006.3622 c -24,0 -24,0 -24,22 0,22 0,22 24,22 24,0 24,0 24,-22 0,-22 0,-22 -24,-22 z"
         id="path3777"
         inkscape:connector-curvature="0"
         sodipodi:nodetypes="zzzzz" />
      <path
         sodipodi:nodetypes="zzzzz"
         inkscape:connector-curvature="0"
         id="path3787"
         d="m 4,1006.3622 c -24,0 -24,0 -24,22 0,22 0,22 24,22 24,0 24,0 24,-22 0,-22 0,-22 -24,-22 z"
         style="opacity:0.02999998;fill:url(#linearGradient3797);fill-opacity:1;stroke:none" />
    </g>
    <path
       style="fill:#000000;fill-opacity:1;stroke:none;opacity:0.20000000000000001"
       d="M 24 2 C 2.7284685 2 0.33742495 2.0888436 0.0625 17.40625 C 0.390625 3.0029297 3 3 24 3 C 45 3 47.609375 3.0029297 47.9375 17.40625 C 47.662575 2.0888436 45.271532 2 24 2 z "
       transform="translate(0,1004.3622)"
       id="path3770" />
    <path
       style="fill:#000000;fill-opacity:1;stroke:none;opacity:0.20000000000000001"
       d="M 24 2 C 7.2405624 2 2.2369698 2.0788791 0.71875 9.59375 C 2.3300781 2.5289866 7.5 2.53125 24 2.53125 C 40.5 2.53125 45.669922 2.5289866 47.28125 9.59375 C 45.76303 2.0788791 40.759438 2 24 2 z M 47.28125 9.59375 C 47.354492 9.9148756 47.409424 10.242768 47.46875 10.59375 C 47.41561 10.240351 47.346891 9.9186608 47.28125 9.59375 z M 0.71875 9.59375 C 0.65310868 9.9186608 0.58439008 10.240351 0.53125 10.59375 C 0.59057617 10.242768 0.64550781 9.9148756 0.71875 9.59375 z "
       transform="translate(0,1004.3622)"
       id="path3012" />
    <g
       id="g3032"
       transform="translate(48,1007.3622)" />
    <path
       id="path3852"
       d="m 12.544157,1016.9064 c 2.12132,2.1213 -0.170837,8.3144 2.12132,10.6066 2.087662,2.0876 4.559697,1.1567 7.048953,2.1213 -2.489224,0.9645 -4.961301,0.034 -7.048953,2.1213 -2.292157,2.2922 0,8.4853 -2.12132,10.6066 2.12132,-2.1213 8.314444,0.1709 10.606601,-2.1213 2.087652,-2.0877 1.156777,-4.5597 2.121303,-7.049 0.964536,2.4893 0.03368,4.9613 2.121338,7.049 2.292157,2.2922 8.485281,0 10.606601,2.1213 -2.12132,-2.1213 0.170837,-8.3144 -2.12132,-10.6066 -2.087662,-2.0876 -4.559732,-1.1568 -7.048988,-2.1213 2.48926,-0.9645 4.961337,-0.034 7.048988,-2.1213 2.292157,-2.2922 0,-8.4853 2.12132,-10.6066 -2.12132,2.1213 -8.314444,-0.1709 -10.606601,2.1213 -2.087652,2.0876 -1.156777,4.5597 -2.121303,7.049 -0.964571,-2.4893 -0.03368,-4.9613 -2.121338,-7.049 -2.292157,-2.2922 -8.485281,0 -10.606601,-2.1213 z"
       style="opacity:0.2;fill:#000000;fill-opacity:1;stroke:none"
       inkscape:connector-curvature="0" />
    <g
       id="g3854">
      <path
         style="fill:url(#linearGradient3850);fill-opacity:1;stroke:none"
         d="m 11.272072,1015.6343 c 2.12132,2.1213 -0.170837,8.3144 2.12132,10.6066 2.087662,2.0876 4.559732,1.1568 7.048988,2.1213 -2.489259,0.9645 -4.961336,0.034 -7.048988,2.1213 -2.292157,2.2922 0,8.4853 -2.12132,10.6066 2.12132,-2.1213 8.314444,0.1709 10.606601,-2.1213 2.087652,-2.0877 1.156777,-4.5597 2.121338,-7.049 0.964501,2.4893 0.03368,4.9614 2.121303,7.049 2.292157,2.2922 8.485281,0 10.606601,2.1213 -2.12132,-2.1213 0.170837,-8.3144 -2.12132,-10.6066 -2.087627,-2.0876 -4.559732,-1.1568 -7.048953,-2.1213 2.489225,-0.9645 4.961302,-0.034 7.048953,-2.1213 2.292157,-2.2922 0,-8.4853 2.12132,-10.6066 -2.12132,2.1213 -8.314444,-0.1709 -10.606601,2.1213 -2.087652,2.0876 -1.156777,4.5597 -2.121303,7.049 -0.964536,-2.4893 -0.03368,-4.9613 -2.121338,-7.049 -2.292157,-2.2922 -8.485281,0 -10.606601,-2.1213 z"
         id="rect2993"
         inkscape:connector-curvature="0" />
      <path
         id="path3790"
         d="m 11.272072,1015.6343 c 2.12132,2.1213 -0.170837,8.3144 2.12132,10.6066 2.087662,2.0876 4.559697,1.1567 7.048953,2.1213 -2.489224,0.9645 -4.961301,0.034 -7.048953,2.1213 -2.292157,2.2922 0,8.4853 -2.12132,10.6066 2.12132,-2.1213 8.314444,0.1709 10.606601,-2.1213 2.087652,-2.0877 1.156777,-4.5597 2.121303,-7.049 0.964536,2.4893 0.03368,4.9613 2.121338,7.049 2.292157,2.2922 8.485281,0 10.606601,2.1213 -2.12132,-2.1213 0.170837,-8.3144 -2.12132,-10.6066 -2.087662,-2.0876 -4.559732,-1.1568 -7.048988,-2.1213 2.48926,-0.9645 4.961337,-0.034 7.048988,-2.1213 2.292157,-2.2922 0,-8.4853 2.12132,-10.6066 -2.12132,2.1213 -8.314444,-0.1709 -10.606601,2.1213 -2.087652,2.0876 -1.156777,4.5597 -2.121303,7.049 -0.964571,-2.4893 -0.03368,-4.9613 -2.121338,-7.049 -2.292157,-2.2922 -8.485281,0 -10.606601,-2.1213 z"
         style="opacity:0.5;fill:url(#linearGradient3847);fill-opacity:1;stroke:none"
         inkscape:connector-curvature="0" />
    </g>
  </g>
</svg>
