<?xml version="1.0" encoding="UTF-8" standalone="no"?>
<!-- Created with Inkscape (http://www.inkscape.org/) -->

<svg
   xmlns:dc="http://purl.org/dc/elements/1.1/"
   xmlns:cc="http://creativecommons.org/ns#"
   xmlns:rdf="http://www.w3.org/1999/02/22-rdf-syntax-ns#"
   xmlns:svg="http://www.w3.org/2000/svg"
   xmlns="http://www.w3.org/2000/svg"
   xmlns:xlink="http://www.w3.org/1999/xlink"
   xmlns:sodipodi="http://sodipodi.sourceforge.net/DTD/sodipodi-0.dtd"
   xmlns:inkscape="http://www.inkscape.org/namespaces/inkscape"
   width="48"
   height="48"
   id="svg2"
   version="1.1"
   inkscape:version="0.48.4 r9939"
   sodipodi:docname="fedora-documentation.svg">
  <defs
     id="defs4">
    <linearGradient
       id="linearGradient3899">
      <stop
         style="stop-color:#283f6f;stop-opacity:1;"
         offset="0"
         id="stop3901" />
      <stop
         style="stop-color:#33508d;stop-opacity:1;"
         offset="1"
         id="stop3903" />
    </linearGradient>
    <linearGradient
       inkscape:collect="always"
       xlink:href="#linearGradient3899"
       id="linearGradient3905"
       x1="24"
       y1="1050.3622"
       x2="24"
       y2="1006.3622"
       gradientUnits="userSpaceOnUse" />
  </defs>
  <sodipodi:namedview
     id="base"
     pagecolor="#ffffff"
     bordercolor="#666666"
     borderopacity="1.0"
     inkscape:pageopacity="0.0"
     inkscape:pageshadow="2"
     inkscape:zoom="16.381307"
     inkscape:cx="19.904109"
     inkscape:cy="23.330281"
     inkscape:document-units="px"
     inkscape:current-layer="layer1"
     showgrid="true"
     inkscape:snap-bbox="true"
     inkscape:window-width="1301"
     inkscape:window-height="744"
     inkscape:window-x="65"
     inkscape:window-y="24"
     inkscape:window-maximized="1"
     inkscape:snap-global="true">
    <inkscape:grid
       type="xygrid"
       id="grid2985"
       empspacing="6"
       visible="true"
       enabled="true"
       snapvisiblegridlinesonly="true" />
  </sodipodi:namedview>
  <metadata
     id="metadata7">
    <rdf:RDF>
      <cc:Work
         rdf:about="">
        <dc:format>image/svg+xml</dc:format>
        <dc:type
           rdf:resource="http://purl.org/dc/dcmitype/StillImage" />
        <dc:title />
      </cc:Work>
    </rdf:RDF>
  </metadata>
  <g
     inkscape:label="Layer 1"
     inkscape:groupmode="layer"
     id="layer1"
     transform="translate(0,-1004.3622)">
    <path
       id="path3788"
       d="m 24,1051.1116 c -21.2715315,0 -23.66257505,-0.089 -23.9375,-15.4063 0.328125,14.4033 2.9375,14.4063 23.9375,14.4063 21,0 23.609375,0 23.9375,-14.4063 -0.274925,15.3174 -2.665968,15.4063 -23.9375,15.4063 z"
       style="opacity:0.20000000000000001;fill:#ffffff;fill-opacity:1;stroke:none"
       inkscape:connector-curvature="0" />
    <path
       style="fill:url(#linearGradient3905);fill-opacity:1;stroke:none"
       d="m 24,1006.3622 c -24,0 -24,0 -24,22 0,22 0,22 24,22 24,0 24,0 24,-22 0,-22 0,-22 -24,-22 z"
       id="path3757"
       inkscape:connector-curvature="0"
       sodipodi:nodetypes="zzzzz" />
    <path
       style="fill:#000000;fill-opacity:1;stroke:none;opacity:0.20000000000000001"
       d="M 24 2 C 2.7284685 2 0.33742495 2.0888436 0.0625 17.40625 C 0.390625 3.0029297 3 3 24 3 C 45 3 47.609375 3.0029297 47.9375 17.40625 C 47.662575 2.0888436 45.271532 2 24 2 z "
       transform="translate(0,1004.3622)"
       id="path3770" />
    <path
       style="fill:#000000;fill-opacity:1;stroke:none;opacity:0.20000000000000001"
       d="M 24 2 C 7.2405624 2 2.2369698 2.0788791 0.71875 9.59375 C 2.3300781 2.5289866 7.5 2.53125 24 2.53125 C 40.5 2.53125 45.669922 2.5289866 47.28125 9.59375 C 45.76303 2.0788791 40.759438 2 24 2 z M 47.28125 9.59375 C 47.354492 9.9148756 47.409424 10.242768 47.46875 10.59375 C 47.41561 10.240351 47.346891 9.9186608 47.28125 9.59375 z M 0.71875 9.59375 C 0.65310868 9.9186608 0.58439008 10.240351 0.53125 10.59375 C 0.59057617 10.242768 0.64550781 9.9148756 0.71875 9.59375 z "
       transform="translate(0,1004.3622)"
       id="path3012" />
    <g
       id="g3032"
       transform="translate(48,1007.3622)" />
    <g
       id="g3028"
       transform="translate(-55,1009.3622)" />
    <path
       style="fill:#f8f8f8;fill-opacity:1;stroke:none"
       d="m 18,16 0,16 0,4 16,0 0,-20 -4,0 z"
       transform="translate(0,1004.3622)"
       id="rect3923"
       inkscape:connector-curvature="0"
       sodipodi:nodetypes="ccccccc" />
    <path
       inkscape:connector-curvature="0"
       id="path3943"
       d="m 28.21875,1022.3305 c -2.316,0 -4.1875,1.7777 -4.1875,3.9687 l 0,2.125 -1.78125,0 c -0.551,0 -0.96875,0.4145 -0.96875,0.9375 0,0.512 0.42975,0.9375 0.96875,0.9375 l 1.46875,0 c 0.172,0 0.3125,0.1173 0.3125,0.2813 l 0,1.8125 c 0,1.157 -0.99575,2.0937 -2.21875,2.0937 -0.414,0 -0.5275,-0.062 -0.8125,-0.062 -0.59,0 -1,0.3833 -1,0.9063 0,0.43 0.402,0.7892 0.875,0.9062 0.324,0.082 0.5855,0.125 0.9375,0.125 2.316,0 4.1875,-1.7777 4.1875,-3.9687 l 0,-2.125 1.75,0 c 0.551,0 1,-0.4215 1,-0.9375 0,-0.512 -0.42975,-0.9063 -0.96875,-0.9063 l -1.46875,0 c -0.172,0 -0.3125,-0.1485 -0.3125,-0.3125 l 0,-1.8125 c 0,-1.152 0.99975,-2.0937 2.21875,-2.0937 0.418,0 0.5315,0.062 0.8125,0.062 0.594,0 0.96875,-0.3903 0.96875,-0.9063 0,-0.426 -0.37075,-0.7893 -0.84375,-0.9062 -0.328,-0.078 -0.5825,-0.125 -0.9375,-0.125 z"
       style="opacity:0.2;fill:#000000;fill-opacity:1;fill-rule:nonzero;stroke:none" />
    <path
       style="fill:#212121;fill-opacity:1;fill-rule:nonzero;stroke:none"
       d="m 29.21875,1023.331 c -2.316,0 -4.1875,1.7777 -4.1875,3.9687 l 0,2.125 -1.78125,0 c -0.551,0 -0.96875,0.4145 -0.96875,0.9375 0,0.512 0.42975,0.9375 0.96875,0.9375 l 1.46875,0 c 0.172,0 0.3125,0.1173 0.3125,0.2813 l 0,1.8125 c 0,1.157 -0.99575,2.0937 -2.21875,2.0937 -0.414,0 -0.5275,-0.062 -0.8125,-0.062 -0.59,0 -1,0.3833 -1,0.9063 0,0.43 0.402,0.7892 0.875,0.9062 0.324,0.082 0.5855,0.125 0.9375,0.125 2.316,0 4.1875,-1.7777 4.1875,-3.9687 l 0,-2.125 1.75,0 c 0.551,0 1,-0.4215 1,-0.9375 0,-0.512 -0.42975,-0.9063 -0.96875,-0.9063 l -1.46875,0 c -0.172,0 -0.3125,-0.1485 -0.3125,-0.3125 l 0,-1.8125 c 0,-1.152 0.99975,-2.0937 2.21875,-2.0937 0.418,0 0.5315,0.062 0.8125,0.062 0.594,0 0.96875,-0.3903 0.96875,-0.9063 0,-0.426 -0.37075,-0.7893 -0.84375,-0.9062 -0.328,-0.078 -0.5825,-0.125 -0.9375,-0.125 z"
       id="path3058"
       inkscape:connector-curvature="0" />
    <path
       style="fill:#bdbdbd;fill-opacity:1;stroke:none"
       d="m 14,12 0,20 4,4 0,-20 z"
       transform="translate(0,1004.3622)"
       id="rect3933"
       inkscape:connector-curvature="0"
       sodipodi:nodetypes="ccccc" />
    <path
       sodipodi:nodetypes="cccccccc"
       inkscape:connector-curvature="0"
       id="path3937"
       d="m 14,1016.3622 16,0 1,1 0,2 2,0 1,1 -16,0 z"
       style="fill:#e0e0e0;fill-opacity:1;stroke:none" />
    <path
       style="fill:#757575;fill-opacity:1;stroke:none"
       d="m 17,1017.3622 14,0 0,2 -1,-1 -12,0 z"
       id="path3939"
       inkscape:connector-curvature="0"
       sodipodi:nodetypes="cccccc" />
    <path
       sodipodi:nodetypes="cccccc"
       inkscape:connector-curvature="0"
       id="path3941"
       d="m 18,1018.3622 12,0 1,1 -2,0 -10,0 z"
       style="fill:#212121;fill-opacity:1;stroke:none" />
  </g>
</svg>
