<?xml version="1.0" encoding="UTF-8" standalone="no"?>
<!-- Created with Inkscape (http://www.inkscape.org/) -->

<svg
   xmlns:dc="http://purl.org/dc/elements/1.1/"
   xmlns:cc="http://creativecommons.org/ns#"
   xmlns:rdf="http://www.w3.org/1999/02/22-rdf-syntax-ns#"
   xmlns:svg="http://www.w3.org/2000/svg"
   xmlns="http://www.w3.org/2000/svg"
   xmlns:xlink="http://www.w3.org/1999/xlink"
   xmlns:sodipodi="http://sodipodi.sourceforge.net/DTD/sodipodi-0.dtd"
   xmlns:inkscape="http://www.inkscape.org/namespaces/inkscape"
   width="48"
   height="48"
   id="svg2"
   version="1.1"
   inkscape:version="0.48.4 r9939"
   sodipodi:docname="firefox.svg">
  <defs
     id="defs4">
    <linearGradient
       id="linearGradient3797">
      <stop
         style="stop-color:#ff3b05;stop-opacity:1;"
         offset="0"
         id="stop3799" />
      <stop
         style="stop-color:#ff5d05;stop-opacity:1;"
         offset="1"
         id="stop3801" />
    </linearGradient>
    <linearGradient
       id="linearGradient4787">
      <stop
         style="stop-color:#1e88e5;stop-opacity:1;"
         offset="0"
         id="stop4789" />
      <stop
         style="stop-color:#1eaae5;stop-opacity:1;"
         offset="1"
         id="stop4791" />
    </linearGradient>
    <linearGradient
       inkscape:collect="always"
       xlink:href="#linearGradient4787"
       id="linearGradient4793"
       x1="24"
       y1="1050.3622"
       x2="24"
       y2="1006.3622"
       gradientUnits="userSpaceOnUse" />
    <linearGradient
       inkscape:collect="always"
       xlink:href="#linearGradient4787"
       id="linearGradient3013"
       gradientUnits="userSpaceOnUse"
       gradientTransform="translate(-60,0)"
       x1="24"
       y1="1050.3622"
       x2="24"
       y2="1006.3622" />
    <linearGradient
       inkscape:collect="always"
       xlink:href="#linearGradient3797"
       id="linearGradient3803"
       x1="24"
       y1="1050.3622"
       x2="24"
       y2="1006.3622"
       gradientUnits="userSpaceOnUse"
       gradientTransform="translate(-60,0)" />
    <clipPath
       clipPathUnits="userSpaceOnUse"
       id="clipPath3814">
      <path
         sodipodi:nodetypes="zzzzz"
         inkscape:connector-curvature="0"
         id="path3816"
         d="m -36,1006.3622 c -24,0 -24,0 -24,22 0,22 0,22 24,22 24,0 24,0 24,-22 0,-22 0,-22 -24,-22 z"
         style="fill:url(#linearGradient3818);fill-opacity:1;stroke:none" />
    </clipPath>
    <linearGradient
       inkscape:collect="always"
       xlink:href="#linearGradient4787"
       id="linearGradient3818"
       gradientUnits="userSpaceOnUse"
       gradientTransform="translate(-60,0)"
       x1="24"
       y1="1050.3622"
       x2="24"
       y2="1006.3622" />
    <linearGradient
       inkscape:collect="always"
       xlink:href="#linearGradient3797"
       id="linearGradient3820"
       gradientUnits="userSpaceOnUse"
       gradientTransform="translate(-60,0)"
       x1="24"
       y1="1050.3622"
       x2="24"
       y2="1006.3622" />
  </defs>
  <sodipodi:namedview
     id="base"
     pagecolor="#ffffff"
     bordercolor="#666666"
     borderopacity="1.0"
     inkscape:pageopacity="0.0"
     inkscape:pageshadow="2"
     inkscape:zoom="4.0261257"
     inkscape:cx="-15.436317"
     inkscape:cy="27.290811"
     inkscape:document-units="px"
     inkscape:current-layer="layer1"
     showgrid="true"
     inkscape:snap-bbox="true"
     inkscape:window-width="1301"
     inkscape:window-height="744"
     inkscape:window-x="65"
     inkscape:window-y="24"
     inkscape:window-maximized="1"
     inkscape:object-nodes="false"
     inkscape:snap-nodes="false"
     inkscape:snap-global="true">
    <inkscape:grid
       type="xygrid"
       id="grid3005"
       empspacing="6"
       visible="true"
       enabled="true"
       snapvisiblegridlinesonly="true" />
  </sodipodi:namedview>
  <metadata
     id="metadata7">
    <rdf:RDF>
      <cc:Work
         rdf:about="">
        <dc:format>image/svg+xml</dc:format>
        <dc:type
           rdf:resource="http://purl.org/dc/dcmitype/StillImage" />
        <dc:title />
      </cc:Work>
    </rdf:RDF>
  </metadata>
  <g
     inkscape:label="Layer 1"
     inkscape:groupmode="layer"
     id="layer1"
     transform="translate(0,-1004.3622)">
    <path
       id="path3788"
       d="m 24,1051.1116 c -21.2715315,0 -23.66257505,-0.089 -23.9375,-15.4063 0.328125,14.4033 2.9375,14.4063 23.9375,14.4063 21,0 23.609375,0 23.9375,-14.4063 -0.274925,15.3174 -2.665968,15.4063 -23.9375,15.4063 z"
       style="opacity:0.20000000000000001;fill:#ffffff;fill-opacity:1;stroke:none"
       inkscape:connector-curvature="0" />
    <g
       id="g3037"
       transform="translate(-46.998,1004.3622)" />
    <g
       id="g3808"
       transform="translate(-52.998,1013.3622)" />
    <g
       id="g3795"
       style="stroke-width:2;stroke-miterlimit:4;stroke-dasharray:none" />
    <path
       sodipodi:nodetypes="zzzzz"
       inkscape:connector-curvature="0"
       id="path4759"
       d="m 24,1006.3622 c -24,0 -24,0 -24,22 0,22 0,22 24,22 24,0 24,0 24,-22 0,-22 0,-22 -24,-22 z"
       style="fill:url(#linearGradient4793);fill-opacity:1;stroke:none" />
    <path
       style="fill:#e0f7fa;fill-opacity:1;stroke:none;opacity:0.25925925999999999"
       d="m 24,1006.3622 c -4.117658,0 -7.48656,0.014 -10.3125,0.125 0.158637,0.023 0.430005,0.032 0.8125,0.031 -1.918057,1.5884 2.173582,-0.203 2.8125,1.5625 1.205686,1.089 1.06705,1.8858 1.53125,2.8437 -1.222796,1.4353 1.757144,5.2916 2.6875,2.4063 1.063001,-1.9453 3.109331,-2.5426 5.25,-2.875 -0.677251,0.062 -1.335205,-0.9244 -0.09375,-0.8438 -0.408603,-0.2793 -1.983704,-1.5671 0,-1.4375 1.776321,0.9103 0.171958,-1.5246 0.8125,-1.375 0.268323,-0.082 0.250616,-0.2496 0.1875,-0.4375 -1.236517,0 -2.293821,0 -3.6875,0 z m 2.6875,3.25 c 0.100649,0.068 0.175586,0.094 0.0625,0 l -0.0625,0 z m -13,-3.125 c -0.87107,0.034 -1.674093,0.098 -2.4375,0.1563 0.763407,-0.059 1.56643,-0.1221 2.4375,-0.1563 z m -2.4375,0.1563 c -0.797113,0.061 -1.593606,0.1237 -2.28125,0.2187 0.4005,0.6427 2.782409,0.1547 2.28125,-0.2187 z m 18.3125,-0.25 c 1.034791,0.01 2.094253,0.01 3.03125,0.031 -0.896786,-0.021 -2.026827,-0.023 -3.03125,-0.031 z m -16.28125,0.2812 c -0.444775,0.2842 0.465193,0.3229 0,0 z m 24.125,0 c 0.08257,0.3862 0.230925,0.261 0.46875,0.031 -0.143806,-0.015 -0.32083,-0.018 -0.46875,-0.031 z m -28.5,0.1875 c -0.564543,0.079 -1.06722,0.1743 -1.5625,0.2813 0.492347,-0.1055 1.001382,-0.2034 1.5625,-0.2813 z m 31.125,0.125 c -0.0065,0.1054 0.07772,0.077 0.15625,0.031 -0.05105,-0.01 -0.10453,-0.022 -0.15625,-0.031 z m -32.75,0.1563 c -0.113486,0.025 -0.233782,0.067 -0.34375,0.094 1.162794,0.8875 4.099128,1.3564 3.78125,0.3125 -1.324064,0.2836 -2.349668,0.014 -3.4375,-0.4062 z m -1,0.25 c -0.02234,0.01 -0.04032,0.025 -0.0625,0.031 -0.197769,0.4467 0.502535,0.039 0.09375,-0.031 -0.0096,0 -0.02161,0 -0.03125,0 z m 21.84375,0.094 c -0.533197,0.3285 0.581869,0.2825 0,0 z m -21.34375,0.125 c -0.713756,0.4586 1.118273,0.3001 0,0 z m 21.65625,0.094 c -0.454812,0.2824 0.455793,0.2898 0,0 z m 10,0.125 c -0.412565,0.346 0.497603,0.1856 0,0 z m -30.78125,0.4687 c -1.74421,0.5211 0.591252,1.2229 0.1875,0.031 l -0.15625,-0.031 -0.03125,0 z m -1.46875,0.031 c -2.924422,0.6174 1.438989,2.2645 0,0 z m -2.15625,0.125 c -0.141908,0.5347 -0.575303,0.6808 -1.0625,0.6875 -0.430406,0.4002 -0.810374,0.8512 -1.125,1.375 1.658031,0.3198 4.426178,0.1634 2.125,-1.25 l -0.09375,-0.375 0.15625,-0.4375 z m 7.09375,0 c -0.908717,0.8959 1.856082,0.015 0,0 z m -2.03125,0.125 c -2.172363,2.4695 3.578548,0.8931 3.9375,2.875 0.323748,0.1504 0.451554,0.3084 0.40625,0.4375 -0.193462,0.063 -0.180767,0.081 -0.09375,0.094 -0.45093,0.5035 -2.778223,0.8189 -0.6875,1.0313 1.148813,1.1269 3.557121,1.1334 1.71875,-0.8125 0.301494,-0.2647 2.796925,0.1798 0.9375,-0.75 -1.44951,-1.938 -3.235676,-1.9089 -5.21875,-2.6875 -0.216422,0.3936 -0.374122,0.6867 -0.5,0.7812 l -0.03125,0 c -0.04313,0.023 -0.06797,0.012 -0.09375,-0.031 0.0952,0.08 0.150265,-1.0343 -0.375,-0.9375 z m 17.03125,0.1562 c 0.506826,0.4986 0.918275,0.1513 0,0 z m -0.5,0.6875 c 0.561366,0.1088 -0.41179,0.4465 0,0 z m -18.59375,0.125 c -0.139492,0.2699 -0.139297,0.5588 -0.125,0.8438 -0.82637,-0.2306 -1.342086,0.898 -0.09375,0.2812 -0.517599,0.6195 -0.180202,0.4883 0.09375,0.2188 -0.06685,0.2911 -0.314108,0.4409 -1.125,0.25 -1.483454,0.2944 -2.57896,-0.9164 -2.71875,0.625 -0.359183,-0.1249 -0.926875,-0.4076 -1.53125,-0.6875 -1.309875,2.676 -1.468748,7.1216 -1.5,13.6875 0.304214,0.4762 0.695822,0.937 1.15625,1.3437 0.233121,1.264 2.367778,3.5589 0.875,1.3125 -1.067145,-3.3563 1.606551,1.5954 2.34375,2.5 1.691747,1.4081 4.241464,1.1645 5.5625,3.25 3.065005,0.04 0.77167,2.8994 0.84375,4.6563 0.294357,2.8526 3.686716,4.0876 2.65625,7.1562 -0.271848,1.7534 -0.544137,3.4906 -0.78125,5.2188 0.691134,0.036 1.450174,0.073 2.21875,0.094 0.878536,-0.9819 2.897456,-1.3894 1.90625,-2.75 2.799582,0.6731 1.800582,-3.9924 4.53125,-4.0937 0.921558,-1.539 0.985187,-3.6001 1.78125,-5.0938 -0.430128,-1.8856 -3.812278,-1.189 -4,-1.8125 0.274526,-0.7383 -1.147979,0.9606 -0.21875,-0.4062 -0.110312,-2.0442 -2.606883,-2.5913 -4.15625,-3.625 -0.767713,-0.028 -1.18859,0.3075 -1.4375,0.3125 -0.02602,-0.06 -0.06001,-0.1357 -0.15625,-0.1875 -0.0031,0.032 10e-4,0.035 0,0.062 -0.07117,-0.078 -0.127442,-0.1876 -0.1875,-0.4375 -0.732039,1.7638 -3.472586,1.0138 -2.90625,-0.7813 -1.502762,-0.3251 -1.154082,-1.4719 -1.375,-2.25 -1.532232,2.2829 -3.553911,-0.167 -2.40625,-1.9375 1.497663,-1.1819 3.731487,-1.6969 4.65625,0.5625 -0.832332,-2.1691 0.941625,-4.1005 1.9375,-5.5625 0.55167,-0.554 2.429986,-2.5552 2.34375,-1.375 -0.910304,0.8974 2.365919,-1.2271 0.625,-0.25 -1.150591,-0.8354 -0.490954,-1.6795 -2.09375,-0.875 0.342454,-1.259 4.856039,-0.8421 3.125,-2.1875 -0.850375,0.1491 0.928159,-1.1313 -0.65625,-0.9062 -0.431466,-0.7726 -1.128587,-2.3425 -2.125,-1.125 -0.09751,-2.2184 -3.635855,-2.1123 -2.5,0.375 0.367924,2.2646 -1.164987,3.4512 -1.84375,0.9062 -2.637897,0.3009 -3.639462,-3.49 -0.875,-3.9687 -0.701157,-1.1918 0.772616,-0.3135 0.5625,0.6562 1.972247,-0.3055 0.698889,-0.4538 0.0625,-1.5312 2.21425,0.063 -0.0022,-2.7376 -0.40625,-0.4688 -0.535037,-1.1773 -1.278183,-0.614 -2.0625,-2 z M 31,1009.7372 c -0.420195,0.3555 0.53844,0.1729 0,0 z m 9.15625,0.031 c -2.093757,0.3795 -3.100496,1.9034 -4.28125,3.2187 -0.01914,-0.029 -0.07453,-0.084 -0.1875,-0.094 -0.119063,0.1941 -0.0267,0.2393 0.0625,0.2187 -0.281099,0.3054 -0.552414,0.6163 -0.875,0.875 -1.451341,2.1899 2.142194,0.2592 1.75,2.4375 2.295265,0.1382 0.846437,-4.6236 3.25,-3.875 -1.204165,1.1723 -0.851203,2.481 1,2.1563 0.92874,0.079 -1.830438,0.226 -1.28125,1.4687 -0.798254,0.5889 -2.508982,1.7922 -3.5,0.875 0.162358,0.054 0.524981,-0.098 0.125,-0.3437 -0.119466,0.1 -0.174689,0.1936 -0.1875,0.25 -0.159188,-0.1659 -0.331306,-0.3594 -0.4375,-0.6563 0.08191,2.451 -4.912124,2.2365 -2.875,4.9063 -1.835736,-0.3243 -3.300772,1.7811 -1.1875,2.625 2.068048,-0.066 2.560565,-4.0741 4.78125,-2.0313 0.633958,1.083 2.497642,1.778 0.96875,0.2188 -1.679928,-1.5185 -0.02764,-1.6159 0.75,-0.125 0.33589,0.4303 0.773872,1.0013 1.09375,1.3437 -0.0103,0.015 0.01115,0.022 0,0.031 0.08879,0.1798 0.147307,0.2047 0.1875,0.1562 0.248314,0.2037 0.354179,0.081 0.09375,-0.7812 1.70924,0.414 1.68235,-3.3896 3.28125,-1.9063 0.57139,-2.1097 2.87138,2.8854 0.46875,1.375 -2.44594,-0.893 -3.56681,2.5434 -0.4375,1.8125 0.78733,2.5854 -2.25095,2.1346 -3.71875,1.6563 -1.405417,1.5711 -3.089658,-1.0338 -3.625,-1.6875 -2.241461,0.068 -5.042616,0.3749 -5.5625,3.0312 -1.817983,1.9178 -2.16839,5.1261 -0.03125,6.9688 1.64658,2.0465 6.046113,-1.1964 5.90625,2.5937 1.629393,2.0841 0.265624,5.0715 1.34375,7.4688 -0.0372,2.5353 2.234726,5.4081 4.34375,2.5 1.41206,-1.6026 0.73086,-3.8086 2.53125,-4.9688 -0.0702,-1.074 -0.11908,-2.1372 0.03125,-3.125 0.0486,0.1089 0.4961,0.01 0.125,-0.1875 -0.0599,0.04 -0.10483,0.065 -0.125,0.094 0.20659,-1.269 0.76339,-2.3835 2.0625,-3.25 0.96588,-1.0794 1.70674,-3.0825 -0.46875,-2.3125 -1.96927,-1.0775 -2.2246,-3.6269 -3.15625,-5.4688 2.2e-4,-1.7479 1.63224,1.683 1.78125,2.4688 0.36691,2.4144 2.38164,2.0742 3.8125,0.9375 0.0015,-0.7987 0.03125,-1.416 0.03125,-2.2813 0,-0.1541 1e-5,-0.2543 0,-0.4062 -0.30833,-0.012 -0.62585,0.04 -0.96875,0.1875 -0.50077,-0.7041 -0.71022,-1.5785 -0.40625,-1.75 0.18238,-0.103 0.55055,0.059 1.125,0.625 0.09742,0.079 0.16693,0.1014 0.25,0.1562 -0.0037,-7.7753 -0.06972,-12.7542 -1.40625,-15.7812 -0.56918,0.1272 -1.05459,0.1441 -1.3125,-0.2188 0.24857,1.3728 -3.26375,2.7095 -2.84375,0.5 1.37543,0.9144 2.50825,-0.4764 0.5625,-0.8437 -1.01378,-0.341 -1.96665,-0.9401 -2.84375,-1.0625 z m 6.4375,1.625 c -0.12105,-0.2742 -0.26353,-0.5362 -0.40625,-0.7813 0.14431,0.2471 0.28433,0.5051 0.40625,0.7813 z M 30.6875,1009.956 c -0.462028,0.2729 0.4427,0.2693 0,0 z m 7.53125,0.125 c -0.412569,0.3459 0.497603,0.1856 0,0 z m -19.90625,0.4062 c -0.39599,0.2652 0.552388,0.1441 0,0 z m -7.1875,0.031 c -0.40515,0.3545 0.50648,0.2077 0,0 z m 26.03125,0.25 c -0.33098,0.4053 0.615387,0.1353 0,0 z m -25.96875,0.2187 c -0.334799,0.4486 0.553853,0.1206 0,0 z m 25.5,0 c -0.268669,0.4761 0.61175,0.077 0,0 z m -24.65625,0.1875 c -0.830735,0.3776 0.700094,0.3108 0,0 z m 16.21875,0.8125 c -1.195306,0.1323 -2.374063,1.1498 -0.34375,1.125 0.534053,0 1.973344,-0.591 0.875,-1.125 -0.161907,-0.024 -0.360492,-0.018 -0.53125,0 z m -1.59375,0.062 c -0.556212,0.015 0.525064,0.5714 0.34375,0.031 -0.154916,-0.025 -0.264292,-0.033 -0.34375,-0.031 z m -12.5625,1.1563 c 0.927074,0.1029 0.453189,0.6607 0,0 z m -2.1875,0.031 c -0.439194,0.362 0.540383,0.1724 0,0 z m -0.4375,0.094 c -0.478958,0.3322 0.494791,0.2609 0,0 z m -1.28125,0.3437 c -1.241924,0.2976 0.644486,0.4679 0,0 z m 0.875,0 c -0.575792,0.443 0.511556,0.6706 0,0 z m 20.0625,0.094 c -0.62804,0.7903 0.370513,0.9097 0,0 z m 10.46875,0.4375 c 1.70569,0.5148 -0.67844,0.9536 0,0 z m -8.875,0.25 c -0.633317,0.4883 0.638143,0.3741 0,0 z m -18.5,0.125 c -0.317237,0.4697 0.594355,0.074 0,0 z m 24.28125,0 c -0.250426,0.4985 0.597175,0.018 0,0 z m -6.25,0.5625 c -1.589568,0.9094 0.529588,2.8463 -0.5625,3.625 2.577628,0.1657 0.958136,-2.0078 0.28125,-3.0938 0.08522,-0.1739 0.315746,-0.3057 0.28125,-0.5312 z m -1.125,0.2187 c -0.528539,0.362 0.579399,0.2408 0,0 z m 8.09375,0 c -0.387654,0.4045 0.540772,0.1251 0,0 z m -8.09375,0.4375 c -0.52854,0.3618 0.579407,0.2404 0,0 z m 7,0 c -0.639879,0.5209 0.649394,0.3387 0,0 z m -27.15625,0.5938 c -0.249897,0.5075 0.587804,0.018 0,0 z m 26.09375,0.4375 c -0.416594,0.4971 0.63819,0.077 0,0 z m -6.15625,0.031 c -1.922506,2.0743 1.61773,0.9603 0,0 z m -20.4375,0.75 c -0.410329,0.4964 0.688771,0.4233 0,0 z m 7.15625,1.1563 c -2.557758,0.8179 2.117125,2.1793 0.15625,0.3437 -0.653133,0.091 0.08491,-0.2202 -0.15625,-0.3437 z m -9,0.125 c 0.479897,0.2709 -0.475384,0.2672 0,0 z m 7.1875,0.1562 c -0.0826,-0.015 -0.193103,0.01 -0.34375,0.031 0.0071,0.8614 0.921886,0.044 0.34375,-0.031 z m -6.9375,0.4688 c 0.998114,0.4081 2.750853,2.41 0.875,1.2187 -0.687562,0.856 -1.031264,1.6373 -0.625,0.062 0.880677,-1.3808 -2.638602,-0.1658 -0.25,-1.2812 z m 3,0.3437 c 0.641152,0.3877 -0.655526,0.2672 0,0 z m 5.5625,0.094 c -0.435656,0.3246 0.501368,0.2844 0,0 z m 29.875,0.25 c -0.32011,0.9696 0.01215,1.9011 0.46875,2.3125 0.39944,2.2831 -1.67969,0.8915 -1.15625,-0.7813 -0.47889,-0.9513 -0.4935,-1.338 0.6875,-1.5312 z m -36.34375,0.125 c 0.600013,0.049 -0.244493,0.476 0,0 z m 1,0.8437 c -0.983156,0.9287 -2.299274,1.0443 -0.4375,0.1875 l 0.4375,-0.1875 z m 23.59375,0.5 c -0.693188,0.3902 0.589801,0.4624 0,0 z m -0.0625,0.75 c -0.702113,0.6854 0.661037,0.5276 0,0 z m -1.25,0.1563 c -1.064503,0.1278 -0.103013,0.5675 0.21875,0.094 L 34.25,1022.581 z m -0.78125,0.4375 c -0.387654,0.4045 0.540773,0.125 0,0 z m 3.5625,0.375 c -0.07791,-0.015 -0.205706,0.01 -0.34375,0.031 0.08387,0.7801 0.889233,0.041 0.34375,-0.031 z m 1.65625,0.062 c -0.487489,0.2918 0.489228,0.2342 0,0 z m -2.375,0.3437 c -0.449728,0.3514 0.534266,0.2644 0,0 z m 4.0625,0 c -0.468647,0.3042 0.48397,0.324 0,0 z m -0.5625,0.094 c -0.395357,0.3475 0.51178,0.2518 0,0 z m -3,0.3437 c -0.317234,0.4696 0.594352,0.072 0,0 z m 5.34375,0 c -0.74505,0.3471 0.79428,0.1948 0,0 z m -5.8125,0.125 c -0.231133,0.5351 0.562485,0.019 0,0 z m 3.5625,0.094 c -0.413403,0.1074 0.46637,0.034 0,0 z m -24.84375,0.7812 c -0.412504,0.3459 0.497525,0.1856 0,0 z m 13.28125,0.125 c -0.393988,0.3523 0.498451,0.2158 0,0 z m -0.21875,1.3438 c -0.528611,0.362 0.579445,0.2406 0,0 z m 1,0.125 c -0.440736,0.3869 0.547759,0.1382 0,0 z m -0.5625,0.094 c -0.412567,0.346 0.497603,0.1855 0,0 z m -17.21875,0.2188 c -0.409102,0.3283 0.494942,0.2071 0,0 z m 16.78125,0 c -0.533189,0.3286 0.581857,0.2824 0,0 z m -16.3125,0.125 c -0.487422,0.292 0.489154,0.2345 0,0 z M 48,1027.581 c -0.17678,0.1437 -0.09635,0.1998 0,0.2187 -1e-5,-0.081 2e-5,-0.138 0,-0.2187 z m -36.65625,0.125 c -0.405149,0.3543 0.506479,0.2075 0,0 z m 0.5625,0 c -0.427895,0.3874 0.550783,0.1696 0,0 z m -0.375,0.375 c -0.249664,0.4576 0.590122,0.072 0,0 z m 0.5625,0 c -0.251869,0.484 0.629538,0.034 0,0 z m -0.21875,0.3125 c 0.02453,0.6232 1.025366,0.028 0,0 z m -1.53125,0.1875 c -1.467193,0.7579 3.869635,1.6243 0.96875,0.3125 -0.309942,-0.1456 -0.622391,-0.2951 -0.96875,-0.3125 z m 2.375,0.1562 c -0.575758,0.3586 0.582682,0.2521 0,0 z m 0.4375,0.125 c -0.388426,0.3246 0.498419,0.18 0,0 z m -0.21875,0.3125 c -0.463989,0.3714 0.553464,0.2104 0,0 z M 13,1029.8935 c -0.743518,1.0192 2.847169,-0.057 0,0 z m 1.6875,0.1562 c -0.622303,0.2701 0.57417,0.413 0,0 z m -3.125,0.125 c -0.754495,0.4845 0.849504,0.1044 0,0 z m 3.5625,0.1563 c -0.280788,0.5139 0.569792,0.025 0,0 z m -5.625,0.094 c -0.231081,0.5351 0.562441,0.019 0,0 z m 6.0625,0 c -0.227836,0.4963 0.559944,0 0,0 z m 0.5,0.125 c -0.387639,0.4045 0.540706,0.125 0,0 z m 10.03125,0.2188 c -0.465171,0.3393 0.509775,0.2031 0,0 z m 0.65625,0.094 c -0.4008,0.3433 0.490074,0.1958 0,0 z m -10.6875,0.125 c -0.387638,0.4045 0.540698,0.125 0,0 z m 10.25,0.3438 c -0.435298,0.3268 0.521558,0.2205 0,0 z m 0.4375,0 c -0.382202,0.3339 0.506365,0.205 0,0 z m -10.5625,0.094 c -0.61402,0.9257 0.366307,0.5223 0,0 z m 0.40625,0.4688 c -0.323405,0.4124 0.633011,0.1353 0,0 z m -2.46875,0.125 c -0.326449,0.504 0.576849,0.04 0,0 z m 0.4375,0.094 c -0.326861,0.4604 0.618494,0.1511 0,0 z m 33.15625,0 c -0.27845,0.5054 0.57216,0.081 0,0 z m -31.84375,0.125 c -0.273837,0.5426 0.650063,0.015 0,0 z m 0.40625,0.3438 c -0.387716,0.4044 0.540818,0.125 0,0 z m 31.65625,2.0937 c -0.01738,1.2568 -0.04083,2.4059 -0.09375,3.4375 0.05286,-1.0306 0.07403,-2.2256 0.09375,-3.4375 z m -0.09375,3.4375 c -0.03162,-0.01 -0.06742,-0.029 -0.125,-0.031 -0.12902,0.2469 0.02146,0.2462 0.125,0.1875 0.0026,-0.049 -0.0025,-0.107 0,-0.1563 z m 0,0.1563 c -0.03568,0.6648 -0.06946,1.2812 -0.125,1.875 0.05594,-0.5959 0.08917,-1.2074 0.125,-1.875 z m -12.65625,-3.2188 c -0.514814,0.3528 0.584286,0.2856 0,0 z m -0.28125,0.4375 c -0.251948,0.4842 0.629619,0.034 0,0 z m -26.96875,0.2188 c -0.275571,0.4773 0.574709,0.015 0,0 z m 26.625,0.2187 c -0.339869,0.4798 0.561856,0.085 0,0 z m -27.03125,0.3438 c -0.639859,0.5212 0.649381,0.3388 0,0 z m 0.4375,0 c -0.555327,0.396 0.650981,0.1974 0,0 z m 0.4375,0.094 c -0.417571,0.4096 0.554015,0.1652 0,0 z m 26,0.3438 c -0.474147,0.2624 0.450844,0.2716 0,0 z m 9.71875,1.0312 c -0.26479,0.4855 0.58347,0.072 0,0 z m 0.03125,1 c -0.41252,0.3461 0.49757,0.1855 0,0 z m 0.65625,1.25 c -0.3876,0.4672 0.56154,0.103 0,0 z m 0.375,0.2188 c -0.46513,0.3394 0.50974,0.2033 0,0 z m 1.375,0.094 c -1.12032,0.7617 -2.43265,4.3048 -0.65625,3.9063 0.6857,-1.1427 0.98839,-2.5999 0.65625,-3.9063 z m 1.125,0.1563 c -0.13245,1.2978 -0.32327,2.4262 -0.59375,3.4062 0.26831,-0.9737 0.46181,-2.1182 0.59375,-3.4062 z m -0.59375,3.4062 c -0.06876,0.2491 -0.13908,0.4883 -0.21875,0.7188 0.07963,-0.2306 0.15004,-0.4694 0.21875,-0.7188 z m -0.21875,0.7188 c -0.31868,0.9216 -0.72463,1.6926 -1.25,2.3437 0.52435,-0.6502 0.93191,-1.4228 1.25,-2.3437 z m -1.34375,-4.0313 c -0.39352,0.3144 0.47209,0.1848 0,0 z M 0.4375,1041.489 c 0.152174,1.1147 0.345456,2.0854 0.625,2.9375 -0.276868,-0.8454 -0.473144,-1.8344 -0.625,-2.9375 z m 0.625,2.9375 c 0.07495,0.2285 0.164143,0.4451 0.25,0.6563 -0.08725,-0.2144 -0.173969,-0.4241 -0.25,-0.6563 z m 0.25,0.6563 c 0.1733,0.4262 0.371454,0.8274 0.59375,1.1875 -0.223999,-0.3619 -0.419253,-0.7588 -0.59375,-1.1875 z m 0.59375,1.1875 c 0.08078,0.1308 0.162198,0.2523 0.25,0.375 -0.08657,-0.1209 -0.170234,-0.2462 -0.25,-0.375 z m 2.25,-1.5625 c -0.414848,0.3843 0.544712,0.1678 0,0 z m -1.34375,0.2187 c -0.514754,0.3527 0.584254,0.2854 0,0 z m 8.28125,2.4688 c -0.264779,0.4857 0.583412,0.072 0,0 z m 34.09375,0 c -0.14627,0.1477 -0.30674,0.3041 -0.46875,0.4375 0.16749,-0.1365 0.31796,-0.2859 0.46875,-0.4375 z m -1.53125,1.1562 c -0.39178,0.2137 -0.81527,0.3959 -1.28125,0.5625 0.46061,-0.1645 0.89327,-0.3519 1.28125,-0.5625 z m -38.1875,0.5 c 0.41391,0.1552 0.833263,0.2857 1.3125,0.4063 -0.467579,-0.1181 -0.907188,-0.2551 -1.3125,-0.4063 z m 36.1875,0.2813 c -1.01099,0.2905 -2.203187,0.5073 -3.5625,0.6562 1.373132,-0.1484 2.54389,-0.3637 3.5625,-0.6562 z m -34.84375,0.125 c 0.518005,0.1292 1.087702,0.2494 1.6875,0.3437 -0.606604,-0.095 -1.16435,-0.2128 -1.6875,-0.3437 z m 26.625,0.8125 c -0.879567,0.027 -1.823321,0.05 -2.8125,0.062 0.964276,-0.012 1.953048,-0.036 2.8125,-0.062 z"
       id="path4220"
       inkscape:connector-curvature="0" />
    <path
       style="fill:#000000;fill-opacity:1;stroke:none;opacity:0.20000000000000001"
       d="M 24 2 C 2.7284685 2 0.33742495 2.0888436 0.0625 17.40625 C 0.390625 3.0029297 3 3 24 3 C 45 3 47.609375 3.0029297 47.9375 17.40625 C 47.662575 2.0888436 45.271532 2 24 2 z "
       transform="translate(0,1004.3622)"
       id="path3770" />
    <g
       id="g3155"
       transform="matrix(0.13623866,0,0,0.13623866,-59.986379,1004.3213)">
      <defs
         id="defs3157">
        <path
           inkscape:connector-curvature="0"
           id="SVGID_15_"
           d="m 175.7,337 c 93,0 168.4,-75.4 168.4,-168.5 C 344.1,75.4 268.7,0 175.7,0 82.7,0 7.3,75.4 7.3,168.5 7.3,261.5 82.7,337 175.7,337 z" />
      </defs>
      <clipPath
         id="SVGID_16_">
        <use
           height="1"
           width="1"
           y="0"
           x="0"
           style="overflow:visible"
           xlink:href="#SVGID_15_"
           overflow="visible"
           id="use3161" />
      </clipPath>
    </g>
    <g
       id="g3805"
       clip-path="url(#clipPath3814)"
       transform="translate(60,0)">
      <path
         inkscape:connector-curvature="0"
         id="path5353"
         d="m -27.200553,1012.3234 c 0.04551,0.03 0.06779,0.026 0.112713,0.056 0.509381,0.3388 0.998676,0.6871 1.437089,1.0145 0.954158,0.7124 1.754244,1.3945 2.423328,2.0569 0.334542,0.3311 0.625307,0.6665 0.901703,0.9863 1.096598,1.2679 1.787254,2.439 2.310615,3.5504 0.0043,0.011 -0.0043,0.019 0,0.028 -1.202408,-1.23 -3.253507,-2.4818 -4.649408,-2.5924 2.059122,1.5375 5.503893,6.0609 5.184795,12.9338 -0.928226,-2.3606 -2.169724,-3.3532 -2.169724,-3.3532 l -0.02818,0 c 0.250202,2.2889 0.339805,3.9662 0.338139,5.2694 -0.0048,0.7423 -0.05702,1.5062 -0.140892,2.2542 -0.01729,0.1377 -0.0083,0.268 -0.02818,0.3945 -0.01096,0.081 -0.01598,0.1733 -0.02818,0.2536 -0.135116,0.7613 -0.324409,1.3587 -0.47903,1.9724 -0.09675,-0.8293 -0.425892,-1.4865 -0.591742,-1.8597 0,0 -0.08319,2.1442 -1.465268,5.1848 -1.050381,2.3081 -2.10867,3.0134 -2.592397,2.9305 -0.124388,-0.014 -0.197248,-0.056 -0.197248,-0.056 0.02764,-0.304 0.08292,-0.6381 0,-0.8453 0,0 -0.470576,0.1627 -0.760812,0.5636 -0.110569,0.1657 -0.257362,0.3269 -0.450852,0.479 -0.02764,0.028 0.337602,-0.4647 0.309961,-0.4509 -0.16585,0.1382 -0.383895,0.3138 -0.563565,0.5072 -0.677218,0.7049 -1.288281,1.4892 -1.606159,1.2681 0.290236,-0.096 0.508282,-0.4724 0.563565,-0.8454 -0.262596,0.1934 -0.931221,0.695 -2.451506,0.9299 -0.621936,0.096 -3.238475,0.5574 -6.762775,-1.2117 0.511369,-0.055 1.27929,-0.2046 1.859763,0.141 -0.580473,-0.6358 -2.006153,-0.4995 -3.015071,-0.8172 -0.88453,-0.2766 -2.013534,-1.5197 -2.676931,-2.1416 l 0.05636,0 c 2.230848,0.5305 4.532733,0.2606 6.19921,-0.479 0.127652,-0.05 0.246842,-0.112 0.366317,-0.1691 0.0452,-0.023 0.0969,-0.033 0.140891,-0.056 0.159887,-0.082 0.308682,-0.1847 0.450852,-0.2818 0.339988,-0.2314 0.641563,-0.4207 0.929882,-0.6199 0.640939,-0.4289 1.315568,-0.8664 1.859762,-1.0707 0.09698,-0.03 0.189422,-0.045 0.281783,-0.056 0.04752,-0.013 0.09666,-0.05 0.140892,-0.056 0.115055,0 0.227572,0.033 0.338138,0.056 0.12063,0.026 0.236685,0.013 0.338139,0 0.05947,-0.01 0.114555,-0.014 0.169069,-0.028 0.0076,0 0.02077,0 0.02818,0 0.567502,-0.1737 0.826641,-0.8616 0.281782,-1.4934 -0.691039,-0.8018 -2.368979,-1.863 -4.649407,-1.2962 -1.755241,0.4423 -3.231902,1.8409 -5.692002,0.8734 -0.152028,-0.055 -0.298823,-0.1143 -0.450852,-0.1971 -0.0095,0 0.0036,-0.053 0,-0.056 0.07644,0.011 0.265147,0.083 0.338139,0.085 0.002,0 0.02073,-0.016 0,-0.028 -0.469907,-0.1796 -1.32867,-0.5805 -1.549803,-0.7325 -0.04146,-0.028 0.351422,0.055 0.309961,0.028 -0.493248,-0.2919 -0.85943,-0.5527 -1.155308,-0.8172 -0.05988,-0.053 -0.115673,-0.087 -0.169069,-0.1409 -0.05013,-0.049 -0.09643,-0.093 -0.140891,-0.1409 -0.971793,-1.0651 -0.687128,-2.0613 -0.535387,-2.5923 0.07873,-0.2792 0.201282,-0.563 0.366317,-0.7609 0.03997,-0.042 0.09688,-0.074 0.140892,-0.1127 0.03369,-0.035 0.08087,-0.086 0.112713,-0.1128 0.0549,-0.039 0.108949,-0.051 0.169068,-0.084 0.331699,0.1244 0.507209,0.2254 0.507209,0.2254 0,0 -0.12868,-0.2419 -0.225426,-0.3663 0.02764,-0.014 0.02872,-0.042 0.05636,-0.056 0.276416,0.096 0.907605,0.3414 1.211664,0.5072 0.428443,0.2074 0.563564,0.4509 0.563564,0.4509 0,0 0.09675,-0.074 0,-0.2818 -0.04146,-0.096 -0.177119,-0.3712 -0.591742,-0.6199 0.221133,0.083 0.427503,0.1861 0.676278,0.3382 0.08292,-0.3733 0.237636,-0.7318 0.14089,-1.409 -0.08292,-0.4837 -0.0585,-0.6373 -0.169069,-0.817 -0.09675,-0.1522 0.01704,-0.182 0.169069,-0.056 -0.04146,-0.1244 -0.08561,-0.242 -0.14089,-0.3664 0.0016,-0.01 0.02189,-0.018 0.02818,-0.028 0.03118,0.065 0.05118,0.1029 0.05636,0.056 0.124387,-0.5779 3.766892,-2.4332 4.029487,-2.8178 0.02073,-0.016 0.05392,-0.058 0.08453,-0.085 0.03269,-0.032 0.0782,-0.077 0.112713,-0.1127 0.08519,-0.083 0.183938,-0.1913 0.281783,-0.3099 -0.02194,0.078 -0.03876,0.1804 -0.05636,0.2254 0.373162,-0.2904 0.538606,-0.5855 0.704455,-0.9862 0.165849,-0.4147 0.355584,-1.3708 -0.197248,-1.578 -0.449199,-0.109 -0.853108,-0.2082 -1.57798,-0.1973 -0.570248,-0.038 -1.328003,-0.064 -2.338793,-0.056 -1.534109,0.014 -2.259089,-1.3214 -2.507863,-1.8879 -0.005,0.018 0.0049,0.038 0,0.056 -0.005,-0.012 -0.02403,-0.017 -0.02818,-0.028 0.442265,-1.6171 1.337388,-3.0233 2.733288,-4.1704 0.06219,-0.052 -0.119505,-0.027 -0.197247,-0.028 0.124237,-0.093 0.653889,-0.3973 0.760812,-0.4508 0.138208,-0.083 -0.660979,-0.2791 -1.324377,-0.1408 -0.677219,0.1382 -0.767788,0.2427 -1.127129,0.4226 0.138209,-0.1521 0.589597,-0.4084 0.47903,-0.3945 -0.732501,0.1659 -1.634469,0.6723 -2.366972,1.1835 0,-0.068 0.04255,-0.1287 0.05636,-0.2254 -0.345521,0.1795 -1.229778,0.8125 -1.43709,1.2962 0,-0.1108 0.01381,-0.1715 0,-0.2818 -0.234953,0.221 -0.468965,0.4841 -0.676278,0.7609 0,0 0.01382,0.056 0,0.056 -2.169054,-0.5353 -4.024138,-0.4317 -5.579288,0.056 l -0.02818,0 c -0.356119,-0.2468 -1.06452,-0.833 -1.859763,-2.1135 -0.05528,-0.083 -0.05742,0.1956 -0.112712,0.1128 -0.373162,-0.6634 -0.691172,-1.8191 -0.732635,-2.6206 0,0 -0.599257,0.3624 -0.986238,1.6061 -0.0691,0.2213 -0.127607,0.3266 -0.16907,0.4509 -0.01381,0.042 0.01383,-0.3796 0,-0.3381 -0.0691,0.1519 -0.269034,0.3997 -0.338138,0.6763 -0.05528,0.2211 -0.155787,0.3434 -0.197248,0.6199 -0.01381,0.083 -0.01435,-0.3509 -0.02818,-0.2818 -0.931176,2.3412 -0.849918,5.6901 -0.732634,5.8046 -0.0044,0.01 0.0044,0.023 0,0.028 -0.583025,0.8038 -1.004937,1.4897 -1.155307,1.8316 -0.718681,1.3958 -1.434539,3.5309 -2.028833,6.8755 0,0 0.395701,-1.2255 1.183486,-2.6488 -0.580473,1.7967 -1.037227,4.5476 -0.760812,8.7353 0.01381,-0.1382 0.146794,-1.1972 0.450851,-2.6206 0.15203,2.7918 0.788851,6.201 2.958714,9.9188 1.658496,2.8333 6.03105,9.431 16.963295,11.8911 -1.20241,-0.3455 -1.944298,-1.0143 -1.944298,-1.0143 0,0 4.07309,1.2658 7.044557,1.1553 -0.939814,-0.1659 -1.098951,-0.5918 -1.098951,-0.5918 0,0 7.082579,0.3827 11.665787,-2.1979 0.333015,-0.17 0.642212,-0.3692 0.929881,-0.5635 0.04689,-0.035 0.09481,-0.049 0.140892,-0.084 1.087484,-0.7693 1.789116,-1.6756 2.000654,-2.5079 0.457679,-0.2365 0.925184,-0.489 1.408911,-0.8171 1.341819,-0.9055 2.962754,-2.2251 4.1422,-3.9168 0.0061,-0.011 -0.006,-0.019 0,-0.028 0.734227,-1.0593 1.29004,-2.2615 1.465268,-3.6349 -0.02871,0.1062 -0.100199,0.2057 -0.140891,0.3099 0.03489,-0.1106 0.0581,-0.2023 0.08453,-0.3099 0.02348,-0.1398 0.06291,-0.2852 0.08453,-0.4227 0.09514,-0.6528 0.03552,-1.2399 -0.225426,-1.6624 1.236587,-2.3405 2.650369,-6.4466 2.282437,-10.5106 -0.0043,-0.058 0.0051,-0.1121 0,-0.1691 -0.02922,-0.283 -0.06543,-0.5918 -0.112713,-0.8734 -0.105887,-0.6751 -0.279761,-1.3241 -0.507208,-1.9725 0,0 -0.443625,1.323 -0.986238,3.156 0.299533,-2.6517 0.134995,-5.4172 -0.788991,-7.9746 -0.418898,-1.1666 -0.956284,-2.117 -1.465268,-2.9023 -0.691879,-1.1486 -1.455806,-2.065 -2.057011,-2.4796 -4.47e-4,-3e-4 -0.02818,0 -0.02818,0 0,0 0.09794,0.6237 0.112713,0.7044 -1.313829,-2.0546 -3.296852,-3.0151 -3.296852,-3.0151 0,0 0.08881,0.7025 0.225425,1.7753 -1.910675,-1.5234 -4.18927,-2.7677 -6.931844,-3.5223 z"
         style="opacity:0.2;fill:#000000;fill-opacity:1" />
      <path
         sodipodi:nodetypes="cssssccccccccccccccccccccccccccccccccccccccccccccccccccccccccccccccccccccccccccccccccccccccccccccccccccccccccccccccccccccccc"
         inkscape:connector-curvature="0"
         id="path3048"
         d="m -26.889065,1010.8189 c 0.05047,0.033 0.103598,0.043 0.153415,0.076 0.56491,0.3757 1.086296,0.7493 1.572502,1.1123 1.058172,0.7901 1.942737,1.5667 2.684759,2.3013 0.371011,0.3672 0.69067,0.7193 0.997196,1.0739 1.21614,1.4062 1.989285,2.7177 2.569699,3.9503 0.0048,0.012 -0.0048,0.028 0,0.038 -1.333486,-1.3641 -3.591326,-2.754 -5.139397,-2.8766 2.283591,1.7051 6.10694,6.7221 5.753056,14.3443 -1.029414,-2.6179 -2.416284,-3.7203 -2.416284,-3.7203 -0.0055,0 -0.03292,0 -0.03835,0 0.277477,2.5384 0.385385,4.3846 0.383537,5.8298 -0.0053,0.8232 -0.0604,1.6634 -0.153415,2.4929 -0.01917,0.1527 -0.01635,0.32 -0.03835,0.4603 -0.01215,0.09 -0.02483,0.1795 -0.03835,0.2685 -0.149846,0.8443 -0.365476,1.5054 -0.536952,2.1861 -0.107293,-0.9198 -0.468084,-1.6572 -0.652013,-2.0711 0,0 -0.07812,2.3811 -1.610856,5.7531 -1.164885,2.5597 -2.340068,3.352 -2.876528,3.2601 -0.137947,-0.016 -0.230122,-0.076 -0.230122,-0.076 0.03066,-0.3372 0.09196,-0.6906 0,-0.9205 0,0 -0.521906,0.1691 -0.843782,0.6137 -0.122621,0.1838 -0.284015,0.3682 -0.498598,0.5369 -0.03066,0.031 0.375838,-0.514 0.345183,-0.4986 -0.183929,0.1532 -0.414402,0.3608 -0.613659,0.5753 -0.751043,0.7817 -1.450093,1.6261 -1.802624,1.3808 0.321875,-0.1068 0.590703,-0.5068 0.652013,-0.9205 -0.291222,0.2145 -1.037098,0.7749 -2.723113,1.0355 -0.689735,0.1067 -3.608835,0.6195 -7.517327,-1.3424 0.567115,-0.061 1.42735,-0.2298 2.071101,0.1534 -0.643751,-0.705 -2.217871,-0.568 -3.336773,-0.9204 -0.980955,-0.3066 -2.255873,-1.6883 -2.991589,-2.378 0.02355,0 0.05308,0 0.07671,0 2.982683,0.7093 6.114665,0.1728 7.939218,-1.0739 0.377051,-0.2566 0.715801,-0.4694 1.03555,-0.6903 0.710809,-0.4757 1.467582,-0.9625 2.0711,-1.1891 0.10755,-0.033 0.204399,-0.063 0.306829,-0.076 0.0527,-0.014 0.104359,-0.031 0.153415,-0.038 0.127598,0 0.260918,0.012 0.383537,0.038 0.980956,0.2147 1.648508,-0.7987 0.882136,-1.6875 -0.766371,-0.8891 -2.610375,-2.0476 -5.139397,-1.419 -1.946584,0.4905 -3.60008,2.0317 -6.328362,0.9587 -0.168601,-0.061 -0.329996,-0.1382 -0.498598,-0.2301 -0.01055,0 0.0039,-0.034 0,-0.038 0.08478,0.012 0.302589,0.074 0.383537,0.076 0.0022,0 0.02299,-0.025 0,-0.038 -0.521133,-0.1992 -1.480677,-0.6367 -1.725917,-0.8054 -0.04597,-0.031 0.391165,0.068 0.345184,0.038 -0.547018,-0.3237 -0.93754,-0.6272 -1.265672,-0.9205 -0.0664,-0.059 -0.132553,-0.094 -0.191769,-0.1534 -0.05559,-0.054 -0.104113,-0.1007 -0.153415,-0.1534 -1.07773,-1.1812 -0.781942,-2.2875 -0.613659,-2.8765 0.08731,-0.3096 0.238864,-0.6243 0.421891,-0.8438 0.04433,-0.047 0.104604,-0.072 0.153414,-0.1153 0.03737,-0.038 0.07975,-0.085 0.115062,-0.1154 0.06089,-0.044 0.125094,-0.079 0.191768,-0.1154 0.367858,0.138 0.575306,0.2686 0.575306,0.2686 0,0 -0.161184,-0.284 -0.268476,-0.422 0.03066,-0.016 0.04606,-0.023 0.07671,-0.038 0.306549,0.1067 1.005175,0.3529 1.34238,0.5369 0.475149,0.2299 0.613659,0.4985 0.613659,0.4985 0,0 0.107292,-0.076 0,-0.3068 -0.04597,-0.1068 -0.192191,-0.4146 -0.652013,-0.6903 0.245239,0.092 0.49118,0.2149 0.767074,0.3835 0.09196,-0.4139 0.260707,-0.8215 0.153415,-1.5725 -0.09196,-0.5364 -0.06915,-0.6828 -0.191768,-0.8821 -0.107293,-0.1687 0.02317,-0.2152 0.191768,-0.076 -0.04597,-0.138 -0.09211,-0.284 -0.153415,-0.4219 0.0063,-0.029 0.05592,-0.08 0.07671,-0.1153 -0.03449,-0.014 -0.09211,-0.054 -0.153415,-0.1154 -0.505805,-0.7665 -1.434626,-1.8577 -1.649209,-3.145 -0.33469,-1.9322 -0.243968,-3.5797 0.191768,-5.1778 -0.0055,-0.014 -0.03375,-0.026 -0.03835,-0.038 0.490477,-1.7933 1.481873,-3.3303 3.029943,-4.6024 0.06898,-0.058 -0.143905,-0.037 -0.230122,-0.038 0.13778,-0.1031 0.725202,-0.4392 0.843781,-0.4985 0.153275,-0.092 -0.721724,-0.3068 -1.45744,-0.1534 -0.751044,0.1533 -0.86716,0.2607 -1.265673,0.4602 0.153275,-0.1686 0.659572,-0.4373 0.536952,-0.4219 -0.812353,0.184 -1.795698,0.737 -2.608052,1.304 0,-0.076 0.02304,-0.1611 0.03835,-0.2684 -0.383186,0.1991 -1.342591,0.921 -1.572502,1.4574 0,-0.1228 0.01532,-0.1844 0,-0.3068 -0.260565,0.2451 -0.537163,0.537 -0.767074,0.8438 0,0 0.01533,0.038 0,0.038 -2.405508,-0.5936 -4.450266,-0.4652 -6.174947,0.076 l -0.03835,0 c -0.0941,0.032 -3.21174,1.0916 -5.714702,4.3341 -0.0061,0.012 0.0061,0.031 0,0.038 -0.646582,0.8914 -1.09891,1.6537 -1.265672,2.0328 -0.797026,1.548 -1.60379,3.9231 -2.262869,7.6323 0,0 0.430363,-1.3746 1.304026,-2.9531 -0.643752,1.9925 -1.150329,5.0592 -0.843781,9.7034 0.01532,-0.1532 0.161395,-1.3363 0.498598,-2.9149 0.168602,3.096 0.892014,6.8845 3.298419,11.0076 1.839291,3.1422 6.669324,10.4653 18.793316,13.1937 -1.333487,-0.3833 -2.147808,-1.1507 -2.147808,-1.1507 0,0 4.528762,1.4267 7.824156,1.3041 -1.042265,-0.1839 -1.227318,-0.6521 -1.227318,-0.6521 0,0 7.842365,0.4073 12.925199,-2.4546 0.369317,-0.1886 0.71652,-0.3982 1.03555,-0.6137 0.052,-0.038 0.102309,-0.076 0.153414,-0.1154 1.206034,-0.8531 1.989917,-1.8384 2.224515,-2.7614 0.507572,-0.2624 1.036043,-0.5566 1.572502,-0.9205 1.488094,-1.0041 3.294425,-2.458 4.602445,-4.3341 0.0068,-0.012 -0.0066,-0.028 0,-0.038 0.814267,-1.1748 1.416526,-2.5041 1.610856,-4.0272 -0.03184,0.1178 -0.108287,0.2296 -0.153415,0.3452 0.0387,-0.1227 0.04739,-0.2259 0.07671,-0.3452 0.02604,-0.155 0.09108,-0.3077 0.115062,-0.4602 0.105512,-0.7239 0.02091,-1.3724 -0.268476,-1.841 1.371389,-2.5956 2.939385,-7.1526 2.531344,-11.6596 -0.0048,-0.064 0.0057,-0.1285 0,-0.1917 -0.0324,-0.3139 -0.06262,-0.6466 -0.115061,-0.9589 -0.11743,-0.7486 -0.323065,-1.467 -0.575306,-2.1861 0,0 -0.472139,1.4574 -1.073903,3.4902 0.332186,-2.9408 0.142576,-6.0235 -0.882136,-8.8597 -0.464563,-1.2938 -1.046386,-2.3508 -1.610855,-3.2217 -0.767303,-1.2739 -1.634479,-2.2634 -2.301223,-2.7232 -4.95e-4,-3e-4 -0.03835,0 -0.03835,0 0,0 0.137026,0.6776 0.153415,0.7671 -1.457053,-2.2785 -3.681956,-3.3367 -3.681956,-3.3367 0,0 0.116963,0.7663 0.268476,1.956 -2.118962,-1.6894 -4.667547,-3.0752 -7.709095,-3.9121 z"
         style="fill:url(#linearGradient3820);fill-opacity:1" />
      <path
         id="path3261"
         d="m -37.023159,1022.6742 c -0.03066,-0.5058 -0.352531,-0.8584 -4.506262,-0.8277 -1.701345,0.016 -2.49837,-1.4714 -2.774263,-2.0998 -0.444497,1.6094 -0.521133,3.2647 -0.18393,5.2113 0.214583,1.2875 1.134229,2.3757 1.640034,3.1421 0.122622,0.1227 0.183929,0.1533 0.214585,0.076 0.183928,-0.3986 3.831854,-2.4678 4.123076,-2.6977 0.306548,-0.1993 1.563396,-1.2722 1.48676,-2.8049 z"
         inkscape:connector-curvature="0"
         style="fill:#671700;fill-opacity:1" />
      <path
         id="path3417"
         d="m -56.075146,1015.2864 c -0.0613,-0.092 -0.0613,0.2146 -0.122621,0.1227 -0.41384,-0.7357 -0.751043,-1.9926 -0.797026,-2.8815 0,0 -0.674407,0.3832 -1.103574,1.7625 -0.07663,0.2454 -0.137947,0.3833 -0.183929,0.5212 -0.01532,0.047 0.03066,-0.4444 0.01532,-0.3984 -0.07663,0.1686 -0.321877,0.4444 -0.398514,0.751 -0.0613,0.2452 -0.153275,0.3831 -0.199256,0.6896 -0.01532,0.092 -0.01532,-0.3677 -0.03066,-0.2911 -1.07292,2.6976 -0.950301,6.6367 -0.812354,6.4682 2.544353,-3.3108 5.747783,-4.3683 5.747783,-4.3683 -0.383186,-0.2605 -1.210865,-0.9197 -2.115184,-2.3758 z"
         inkscape:connector-curvature="0"
         style="fill:#671700;fill-opacity:1" />
      <path
         sodipodi:nodetypes="ccccccccc"
         style="fill:#f6d7cb;fill-opacity:1"
         inkscape:connector-curvature="0"
         d="m -38.234025,1025.2646 c 0.214584,-0.1686 0.965628,-0.8584 1.149557,-1.6708 -0.137947,0.061 -0.153274,-0.1067 -0.306549,-0.031 -3.056903,2.1463 -5.312501,0.1715 -6.744065,2.4518 0.01533,0.031 0.01533,0.1067 0.04599,0.1379 0.122622,0.3678 0.567116,0.9964 0.980956,1.5941 0.306548,0.3678 0.398512,0.7816 0.41384,0.6437 0.137947,-0.6408 4.169059,-2.7002 4.46028,-3.1267 z"
         id="path3430" />
      <path
         id="path3457"
         d="m -36.961849,1023.8697 c 0.183929,-0.4598 0.398512,-1.5328 -0.214585,-1.7626 -0.505804,-0.1228 -0.950299,-0.2147 -1.777981,-0.1992 0.275894,0.061 1.07292,0.2298 1.272177,0.5977 0.398512,0.7051 0.07663,2.0845 -0.06132,2.4371 0.413842,-0.322 0.59777,-0.6286 0.781698,-1.073 z"
         inkscape:connector-curvature="0"
         style="fill:#212121" />
      <path
         id="path5295"
         d="m -30.839497,1038.1652 c -0.729607,-0.2936 -1.42594,-0.5685 -1.994393,-0.6137 -0.733631,-0.059 -1.371922,0.092 -1.917685,0.3451 -1.091527,0.5053 -1.876813,1.5138 -2.761467,2.5698 -0.615085,0.7341 -1.643285,1.3235 -2.608052,1.8026 -0.347359,0.1724 -0.527816,0.2444 -0.843781,0.3835 2.029754,0 3.954753,-0.327 5.216104,-1.1889 0.377051,-0.2566 0.715801,-0.4695 1.03555,-0.6904 0.710809,-0.4757 1.467582,-0.9624 2.0711,-1.189 0.10755,-0.033 0.204399,-0.063 0.306829,-0.076 0.0527,-0.014 0.104359,-0.031 0.153415,-0.038 0.127598,0 0.260918,0.012 0.383537,0.038 0.846238,0.1852 1.298436,-0.5681 0.958843,-1.3423 z"
         style="fill:#f6d4c6;fill-opacity:1"
         inkscape:connector-curvature="0" />
    </g>
  </g>
</svg>
