<?xml version="1.0" encoding="UTF-8" standalone="no"?>
<!-- Created with Inkscape (http://www.inkscape.org/) -->

<svg
   xmlns:dc="http://purl.org/dc/elements/1.1/"
   xmlns:cc="http://creativecommons.org/ns#"
   xmlns:rdf="http://www.w3.org/1999/02/22-rdf-syntax-ns#"
   xmlns:svg="http://www.w3.org/2000/svg"
   xmlns="http://www.w3.org/2000/svg"
   xmlns:xlink="http://www.w3.org/1999/xlink"
   xmlns:sodipodi="http://sodipodi.sourceforge.net/DTD/sodipodi-0.dtd"
   xmlns:inkscape="http://www.inkscape.org/namespaces/inkscape"
   width="48"
   height="48"
   id="svg2"
   version="1.1"
   inkscape:version="0.48.4 r9939"
   sodipodi:docname="florence.svg">
  <defs
     id="defs4">
    <linearGradient
       id="linearGradient3770">
      <stop
         style="stop-color:#bdbdbd;stop-opacity:1;"
         offset="0"
         id="stop3772" />
      <stop
         style="stop-color:#ebebeb;stop-opacity:1;"
         offset="1"
         id="stop3774" />
    </linearGradient>
    <linearGradient
       inkscape:collect="always"
       xlink:href="#linearGradient3770"
       id="linearGradient3776"
       x1="24"
       y1="1050.3622"
       x2="24"
       y2="1006.3622"
       gradientUnits="userSpaceOnUse" />
  </defs>
  <sodipodi:namedview
     id="base"
     pagecolor="#ffffff"
     bordercolor="#666666"
     borderopacity="1.0"
     inkscape:pageopacity="0.0"
     inkscape:pageshadow="2"
     inkscape:zoom="10.108768"
     inkscape:cx="6.3272839"
     inkscape:cy="19.902783"
     inkscape:document-units="px"
     inkscape:current-layer="layer1"
     showgrid="true"
     inkscape:snap-bbox="true"
     inkscape:window-width="1301"
     inkscape:window-height="744"
     inkscape:window-x="65"
     inkscape:window-y="24"
     inkscape:window-maximized="1"
     inkscape:object-nodes="false">
    <inkscape:grid
       type="xygrid"
       id="grid3003"
       empspacing="6"
       visible="true"
       enabled="true"
       snapvisiblegridlinesonly="true" />
  </sodipodi:namedview>
  <metadata
     id="metadata7">
    <rdf:RDF>
      <cc:Work
         rdf:about="">
        <dc:format>image/svg+xml</dc:format>
        <dc:type
           rdf:resource="http://purl.org/dc/dcmitype/StillImage" />
        <dc:title />
      </cc:Work>
    </rdf:RDF>
  </metadata>
  <g
     inkscape:label="Layer 1"
     inkscape:groupmode="layer"
     id="layer1"
     transform="translate(0,-1004.3622)">
    <path
       id="path3788"
       d="m 24,1051.1116 c -21.2715315,0 -23.66257505,-0.089 -23.9375,-15.4063 0.328125,14.4033 2.9375,14.4063 23.9375,14.4063 21,0 23.609375,0 23.9375,-14.4063 -0.274925,15.3174 -2.665968,15.4063 -23.9375,15.4063 z"
       style="opacity:0.20000000000000001;fill:#ffffff;fill-opacity:1;stroke:none"
       inkscape:connector-curvature="0" />
    <path
       style="fill:url(#linearGradient3776);fill-opacity:1;stroke:none"
       d="m 24,1050.3622 c -24,0 -24,0 -24,-22 0,-22 0,-22 24,-22 24,0 24,0 24,22 0,22 0,22 -24,22 z"
       id="path3757"
       inkscape:connector-curvature="0"
       sodipodi:nodetypes="zzzzz" />
    <path
       style="fill:#000000;fill-opacity:1;stroke:none;opacity:0.20000000000000001"
       d="M 24 2 C 2.7284685 2 0.33742495 2.0888436 0.0625 17.40625 C 0.390625 3.0029297 3 3 24 3 C 45 3 47.609375 3.0029297 47.9375 17.40625 C 47.662575 2.0888436 45.271532 2 24 2 z "
       transform="translate(0,1004.3622)"
       id="path3770" />
    <g
       id="g3813"
       transform="translate(-47.998,993.3622)" />
    <g
       id="g3039"
       transform="translate(-56.998,1002.3622)" />
    <g
       id="g3831"
       transform="translate(1,1)"
       style="fill:#000000;fill-opacity:1;opacity:0.1">
      <path
         style="fill:#000000;fill-opacity:1;stroke:none"
         d="M 7.875,7 C 7.3825561,7 7,7.3825561 7,7.875 l 0,14.25 C 7,22.617444 7.3825561,23 7.875,23 l 14.25,0 C 22.617444,23 23,22.617444 23,22.125 L 23,7.875 C 23,7.3825561 22.617444,7 22.125,7 L 7.875,7 z m 2.25,3 5.96875,0 0,1.09375 -3.8125,4.53125 3.9375,0 0,1.375 L 10,17 l 0,-1.09375 3.8125,-4.53125 -3.6875,0 0,-1.375 z"
         transform="translate(0,1004.3622)"
         id="path3833"
         inkscape:connector-curvature="0" />
      <path
         style="fill:#000000;fill-opacity:1;stroke:none"
         d="M 25.875,7 C 25.382556,7 25,7.3825561 25,7.875 l 0,14.25 C 25,22.617444 25.382556,23 25.875,23 l 14.25,0 C 40.617444,23 41,22.617444 41,22.125 L 41,7.875 C 41,7.3825561 40.617444,7 40.125,7 l -14.25,0 z m 2.21875,3 1.9375,0 1.5625,2.25 L 33.125,10 35.0625,10 32.6875,13.4375 35.15625,17 33.25,17 31.59375,14.59375 29.9375,17 28,17 30.46875,13.4375 28.09375,10 z"
         transform="translate(0,1004.3622)"
         id="path3835"
         inkscape:connector-curvature="0" />
      <path
         style="fill:#000000;fill-opacity:1;stroke:none"
         d="M 7.875,25 C 7.382555,25 7,25.382555 7,25.875 l 0,14.25 C 7,40.617445 7.382555,41 7.875,41 l 14.25,0 C 22.617445,41 23,40.617445 23,40.125 l 0,-14.25 C 23,25.382555 22.617445,25 22.125,25 L 7.875,25 z M 15,28 c 2.761424,0 5,2.2386 5,5 0,2.7614 -2.238576,5 -5,5 -2.761424,0 -5,-2.2386 -5,-5 0,-2.7614 2.238576,-5 5,-5 z m 0,1 c -2.209139,0 -4,1.7909 -4,4 0,2.2091 1.790861,4 4,4 2.209139,0 4,-1.7909 4,-4 0,-2.2091 -1.790861,-4 -4,-4 z M 15.59375,31 17,31 17,32.4375 16.28125,33.125 16.25,34.53125 15.53125,35.25 14.84375,34.53125 14.125,35.21875 12.71875,33.8125 13.4375,33.09375 12.75,32.375 l 0.71875,-0.6875 1.40625,0 L 15.59375,31 z"
         transform="translate(0,1004.3622)"
         id="path3837"
         inkscape:connector-curvature="0" />
      <path
         style="fill:#000000;fill-opacity:1;stroke:none"
         d="M 25.875,25 C 25.382555,25 25,25.382555 25,25.875 l 0,14.25 C 25,40.617445 25.382555,41 25.875,41 l 14.25,0 C 40.617445,41 41,40.617445 41,40.125 l 0,-14.25 C 41,25.382555 40.617445,25 40.125,25 l -14.25,0 z m 7.5,5 1.09375,0 0,6 -1.09375,0 0,-6 z m -3.6875,0.25 1.4375,0 1.6875,5.75 -1.1875,0 -0.28125,-1.0625 -1.875,0 L 29.1875,36 28,36 29.6875,30.25 z m 5.96875,0.21875 1.09375,0 0,1.21875 1.125,0 0,0.96875 -1.125,0 0,1.84375 c -2e-6,0.200515 0.03012,0.334272 0.09375,0.40625 0.06363,0.06941 0.186164,0.09375 0.375,0.09375 l 0.5625,0 0,1 -0.9375,0 c -0.435141,0 -0.754825,-0.117529 -0.9375,-0.34375 -0.180625,-0.228791 -0.250001,-0.611262 -0.25,-1.15625 l 0,-1.84375 -0.5625,0 0,-0.96875 0.5625,0 0,-1.21875 z m -5.25,1.125 -0.625,2.28125 1.25,0 -0.625,-2.28125 z"
         transform="translate(0,1004.3622)"
         id="path3839"
         inkscape:connector-curvature="0" />
    </g>
    <path
       inkscape:connector-curvature="0"
       style="fill:#e91e63;fill-opacity:1;stroke:none"
       d="m 7.875,1011.3622 c -0.4924439,0 -0.875,0.3826 -0.875,0.875 l 0,14.25 c 0,0.4924 0.3825561,0.875 0.875,0.875 l 14.25,0 c 0.492444,0 0.875,-0.3826 0.875,-0.875 l 0,-14.25 c 0,-0.4924 -0.382556,-0.875 -0.875,-0.875 l -14.25,0 z m 2.25,3 5.96875,0 0,1.0938 -3.8125,4.5312 3.9375,0 0,1.375 -6.21875,0 0,-1.0937 3.8125,-4.5313 -3.6875,0 0,-1.375 z"
       id="rect3006" />
    <path
       inkscape:connector-curvature="0"
       style="fill:#ff9800;fill-opacity:1;stroke:none"
       d="m 25.875,1011.3622 c -0.492444,0 -0.875,0.3826 -0.875,0.875 l 0,14.25 c 0,0.4924 0.382556,0.875 0.875,0.875 l 14.25,0 c 0.492444,0 0.875,-0.3826 0.875,-0.875 l 0,-14.25 c 0,-0.4924 -0.382556,-0.875 -0.875,-0.875 l -14.25,0 z m 2.21875,3 1.9375,0 1.5625,2.25 1.53125,-2.25 1.9375,0 -2.375,3.4375 2.46875,3.5625 -1.90625,0 -1.65625,-2.4062 -1.65625,2.4062 -1.9375,0 2.46875,-3.5625 -2.375,-3.4375 z"
       id="rect3776" />
    <path
       inkscape:connector-curvature="0"
       style="fill:#0288d1;fill-opacity:1;stroke:none"
       d="m 7.875,1029.3622 c -0.492445,0 -0.875,0.3826 -0.875,0.875 l 0,14.25 c 0,0.4924 0.382555,0.875 0.875,0.875 l 14.25,0 c 0.492445,0 0.875,-0.3826 0.875,-0.875 l 0,-14.25 c 0,-0.4924 -0.382555,-0.875 -0.875,-0.875 l -14.25,0 z m 7.125,3 c 2.761424,0 5,2.2386 5,5 0,2.7614 -2.238576,5 -5,5 -2.761424,0 -5,-2.2386 -5,-5 0,-2.7614 2.238576,-5 5,-5 z m 0,1 c -2.209139,0 -4,1.7909 -4,4 0,2.2091 1.790861,4 4,4 2.209139,0 4,-1.7909 4,-4 0,-2.2091 -1.790861,-4 -4,-4 z m 0.59375,2 1.40625,0 0,1.4375 -0.71875,0.6875 -0.03125,1.4063 -0.71875,0.7187 -0.6875,-0.7187 -0.71875,0.6875 -1.40625,-1.4063 0.71875,-0.7187 -0.6875,-0.7188 0.71875,-0.6875 1.40625,0 0.71875,-0.6875 z"
       id="rect3778" />
    <path
       inkscape:connector-curvature="0"
       style="fill:#44980f;fill-opacity:1;stroke:none"
       d="m 25.875,1029.3622 c -0.492445,0 -0.875,0.3826 -0.875,0.875 l 0,14.25 c 0,0.4924 0.382555,0.875 0.875,0.875 l 14.25,0 c 0.492445,0 0.875,-0.3826 0.875,-0.875 l 0,-14.25 c 0,-0.4924 -0.382555,-0.875 -0.875,-0.875 l -14.25,0 z m 7.5,5 1.09375,0 0,6 -1.09375,0 0,-6 z m -3.6875,0.25 1.4375,0 1.6875,5.75 -1.1875,0 -0.28125,-1.0625 -1.875,0 -0.28125,1.0625 -1.1875,0 1.6875,-5.75 z m 5.96875,0.2188 1.09375,0 0,1.2187 1.125,0 0,0.9688 -1.125,0 0,1.8437 c -2e-6,0.2005 0.03012,0.3343 0.09375,0.4063 0.06363,0.069 0.186164,0.094 0.375,0.094 l 0.5625,0 0,1 -0.9375,0 c -0.435141,0 -0.754825,-0.1175 -0.9375,-0.3437 -0.180625,-0.2288 -0.250001,-0.6113 -0.25,-1.1563 l 0,-1.8437 -0.5625,0 0,-0.9688 0.5625,0 0,-1.2187 z m -5.25,1.125 -0.625,2.2812 1.25,0 -0.625,-2.2812 z"
       id="rect3780" />
  </g>
</svg>
