<?xml version="1.0" encoding="UTF-8" standalone="no"?>
<!-- Created with Inkscape (http://www.inkscape.org/) -->

<svg
   xmlns:dc="http://purl.org/dc/elements/1.1/"
   xmlns:cc="http://creativecommons.org/ns#"
   xmlns:rdf="http://www.w3.org/1999/02/22-rdf-syntax-ns#"
   xmlns:svg="http://www.w3.org/2000/svg"
   xmlns="http://www.w3.org/2000/svg"
   xmlns:xlink="http://www.w3.org/1999/xlink"
   xmlns:sodipodi="http://sodipodi.sourceforge.net/DTD/sodipodi-0.dtd"
   xmlns:inkscape="http://www.inkscape.org/namespaces/inkscape"
   width="48"
   height="48"
   id="svg2"
   version="1.1"
   inkscape:version="0.48.4 r9939"
   sodipodi:docname="flowblade.svg">
  <defs
     id="defs4">
    <linearGradient
       id="linearGradient3765">
      <stop
         style="stop-color:#4d4d4d;stop-opacity:1;"
         offset="0"
         id="stop3767" />
      <stop
         style="stop-color:#666666;stop-opacity:1;"
         offset="1"
         id="stop3769" />
    </linearGradient>
    <linearGradient
       inkscape:collect="always"
       xlink:href="#linearGradient3765"
       id="linearGradient3771"
       x1="24"
       y1="1050.3622"
       x2="24"
       y2="1006.3622"
       gradientUnits="userSpaceOnUse" />
    <linearGradient
       gradientTransform="matrix(1.1428571,0,0,1.1428571,-6.8571429,949.50504)"
       spreadMethod="pad"
       gradientUnits="userSpaceOnUse"
       y2="84"
       x2="84"
       y1="12"
       x1="12"
       id="linearGradient3767"
       xlink:href="#linearGradient3761"
       inkscape:collect="always" />
    <linearGradient
       id="linearGradient3761">
      <stop
         id="stop3763"
         offset="0"
         style="stop-color:#2b4144;stop-opacity:1;" />
      <stop
         id="stop3765"
         offset="1"
         style="stop-color:#3b5a5e;stop-opacity:1;" />
    </linearGradient>
    <linearGradient
       inkscape:collect="always"
       xlink:href="#linearGradient3761"
       id="linearGradient3034"
       gradientUnits="userSpaceOnUse"
       gradientTransform="matrix(0.57141428,0,0,0.57141428,-63.427887,1000.9337)"
       spreadMethod="pad"
       x1="12"
       y1="12"
       x2="84"
       y2="84" />
  </defs>
  <sodipodi:namedview
     id="base"
     pagecolor="#ffffff"
     bordercolor="#666666"
     borderopacity="1.0"
     inkscape:pageopacity="0.0"
     inkscape:pageshadow="2"
     inkscape:zoom="11.583333"
     inkscape:cx="-16.048816"
     inkscape:cy="28.383041"
     inkscape:document-units="px"
     inkscape:current-layer="layer1"
     showgrid="true"
     inkscape:snap-bbox="true"
     inkscape:window-width="1301"
     inkscape:window-height="744"
     inkscape:window-x="65"
     inkscape:window-y="24"
     inkscape:window-maximized="1">
    <inkscape:grid
       type="xygrid"
       id="grid2985"
       empspacing="6"
       visible="true"
       enabled="true"
       snapvisiblegridlinesonly="true" />
  </sodipodi:namedview>
  <metadata
     id="metadata7">
    <rdf:RDF>
      <cc:Work
         rdf:about="">
        <dc:format>image/svg+xml</dc:format>
        <dc:type
           rdf:resource="http://purl.org/dc/dcmitype/StillImage" />
        <dc:title />
      </cc:Work>
    </rdf:RDF>
  </metadata>
  <g
     inkscape:label="Layer 1"
     inkscape:groupmode="layer"
     id="layer1"
     transform="translate(0,-1004.3622)">
    <path
       id="path3788"
       d="m 24,1051.1116 c -21.2715315,0 -23.66257505,-0.089 -23.9375,-15.4063 0.328125,14.4033 2.9375,14.4063 23.9375,14.4063 21,0 23.609375,0 23.9375,-14.4063 -0.274925,15.3174 -2.665968,15.4063 -23.9375,15.4063 z"
       style="opacity:0.20000000000000001;fill:#ffffff;fill-opacity:1;stroke:none"
       inkscape:connector-curvature="0" />
    <path
       style="fill:url(#linearGradient3771);fill-opacity:1;stroke:none"
       d="m 24,1006.3622 c -24,0 -24,0 -24,22 0,22 0,22 24,22 24,0 24,0 24,-22 0,-22 0,-22 -24,-22 z"
       id="path3757"
       inkscape:connector-curvature="0"
       sodipodi:nodetypes="zzzzz" />
    <path
       style="fill:#000000;fill-opacity:1;stroke:none;opacity:0.20000000000000001"
       d="M 24 2 C 2.7284685 2 0.33742495 2.0888436 0.0625 17.40625 C 0.390625 3.0029297 3 3 24 3 C 45 3 47.609375 3.0029297 47.9375 17.40625 C 47.662575 2.0888436 45.271532 2 24 2 z "
       transform="translate(0,1004.3622)"
       id="path3770" />
    <path
       id="path3037"
       d="m 10,1020.3622 0,1 1.99995,0 0,2 -1.99995,0 0,1.4999 2.999925,0 0,8.9998 -2.999925,0 0,1.5 1.99995,0 0,1.9999 -1.99995,0 0,1 29.999251,0 0,-1 -1.99995,0 0,-1.9999 1.99995,0 0,-11.9997 -1.99995,0 0,-2 1.99995,0 0,-1 -29.999251,0 z m 3.9999,1 1.99995,0 0,2 -1.99995,0 0,-2 z m 3.9999,0 1.99995,0 0,2 -1.99995,0 0,-2 z m 3.9999,0 1.99995,0 0,2 -1.99995,0 0,-2 z m 3.999901,0 1.99995,0 0,2 -1.99995,0 0,-2 z m 3.9999,0 1.99995,0 0,2 -1.99995,0 0,-2 z m 3.9999,0 1.99995,0 0,2 -1.99995,0 0,-2 z m -17.999551,3.4999 8.999775,0 0,8.9998 -8.999775,0 0,-8.9998 z m 11.999701,0 8.999775,0 0,8.9998 -8.999775,0 0,-8.9998 z m -13.999651,10.4998 1.99995,0 0,1.9999 -1.99995,0 0,-1.9999 z m 3.9999,0 1.99995,0 0,1.9999 -1.99995,0 0,-1.9999 z m 3.9999,0 1.99995,0 0,1.9999 -1.99995,0 0,-1.9999 z m 3.999901,0 1.99995,0 0,1.9999 -1.99995,0 0,-1.9999 z m 3.9999,0 1.99995,0 0,1.9999 -1.99995,0 0,-1.9999 z m 3.9999,0 1.99995,0 0,1.9999 -1.99995,0 0,-1.9999 z"
       style="fill:#000000;fill-opacity:1;fill-rule:evenodd;stroke:none;opacity:0.1"
       inkscape:connector-curvature="0" />
    <path
       inkscape:connector-curvature="0"
       style="fill:#ff6685;fill-opacity:1;fill-rule:evenodd;stroke:none"
       d="m 9,1019.3622 0,1 1.99995,0 0,2 -1.99995,0 0,1.4999 2.999925,0 0,8.9998 -2.999925,0 0,1.5 1.99995,0 0,1.9999 -1.99995,0 0,1 29.999251,0 0,-1 -1.99995,0 0,-1.9999 1.99995,0 0,-11.9997 -1.99995,0 0,-2 1.99995,0 0,-1 -29.999251,0 z m 3.9999,1 1.99995,0 0,2 -1.99995,0 0,-2 z m 3.9999,0 1.99995,0 0,2 -1.99995,0 0,-2 z m 3.9999,0 1.99995,0 0,2 -1.99995,0 0,-2 z m 3.999901,0 1.99995,0 0,2 -1.99995,0 0,-2 z m 3.9999,0 1.99995,0 0,2 -1.99995,0 0,-2 z m 3.9999,0 1.99995,0 0,2 -1.99995,0 0,-2 z m -17.999551,3.4999 8.999775,0 0,8.9998 -8.999775,0 0,-8.9998 z m 11.999701,0 8.999775,0 0,8.9998 -8.999775,0 0,-8.9998 z m -13.999651,10.4998 1.99995,0 0,1.9999 -1.99995,0 0,-1.9999 z m 3.9999,0 1.99995,0 0,1.9999 -1.99995,0 0,-1.9999 z m 3.9999,0 1.99995,0 0,1.9999 -1.99995,0 0,-1.9999 z m 3.999901,0 1.99995,0 0,1.9999 -1.99995,0 0,-1.9999 z m 3.9999,0 1.99995,0 0,1.9999 -1.99995,0 0,-1.9999 z m 3.9999,0 1.99995,0 0,1.9999 -1.99995,0 0,-1.9999 z"
       id="rect3769" />
  </g>
</svg>
