<?xml version="1.0" encoding="UTF-8" standalone="no"?>
<!-- Created with Inkscape (http://www.inkscape.org/) -->

<svg
   xmlns:dc="http://purl.org/dc/elements/1.1/"
   xmlns:cc="http://creativecommons.org/ns#"
   xmlns:rdf="http://www.w3.org/1999/02/22-rdf-syntax-ns#"
   xmlns:svg="http://www.w3.org/2000/svg"
   xmlns="http://www.w3.org/2000/svg"
   xmlns:xlink="http://www.w3.org/1999/xlink"
   xmlns:sodipodi="http://sodipodi.sourceforge.net/DTD/sodipodi-0.dtd"
   xmlns:inkscape="http://www.inkscape.org/namespaces/inkscape"
   width="48"
   height="48"
   id="svg2"
   version="1.1"
   inkscape:version="0.48.4 r9939"
   sodipodi:docname="focuswriter.svg">
  <defs
     id="defs4">
    <linearGradient
       id="linearGradient3799">
      <stop
         style="stop-color:#e6e6e6;stop-opacity:1;"
         offset="0"
         id="stop3801" />
      <stop
         style="stop-color:#ffffff;stop-opacity:1;"
         offset="1"
         id="stop3803" />
    </linearGradient>
    <linearGradient
       id="linearGradient3791">
      <stop
         style="stop-color:#666666;stop-opacity:1;"
         offset="0"
         id="stop3793" />
      <stop
         style="stop-color:#8e8e8e;stop-opacity:1;"
         offset="1"
         id="stop3795" />
    </linearGradient>
    <linearGradient
       id="linearGradient3779">
      <stop
         style="stop-color:#000000;stop-opacity:1;"
         offset="0"
         id="stop3781" />
      <stop
         style="stop-color:#ffffff;stop-opacity:1;"
         offset="1"
         id="stop3783" />
    </linearGradient>
    <linearGradient
       inkscape:collect="always"
       xlink:href="#linearGradient3779"
       id="linearGradient3795"
       gradientUnits="userSpaceOnUse"
       gradientTransform="translate(-20,0)"
       spreadMethod="repeat"
       x1="24"
       y1="1028.3622"
       x2="45"
       y2="1007.3622" />
    <linearGradient
       inkscape:collect="always"
       xlink:href="#linearGradient3779"
       id="linearGradient3797"
       gradientUnits="userSpaceOnUse"
       gradientTransform="translate(-20,0)"
       spreadMethod="repeat"
       x1="44"
       y1="1048.3622"
       x2="15"
       y2="1019.3622" />
    <linearGradient
       inkscape:collect="always"
       xlink:href="#linearGradient3791"
       id="linearGradient3798"
       x1="24"
       y1="1050.3622"
       x2="24"
       y2="1006.3622"
       gradientUnits="userSpaceOnUse" />
    <linearGradient
       inkscape:collect="always"
       xlink:href="#linearGradient3799"
       id="linearGradient3805"
       x1="24"
       y1="8"
       x2="24"
       y2="40"
       gradientUnits="userSpaceOnUse"
       gradientTransform="matrix(0.75,0,0,1,6,0)" />
  </defs>
  <sodipodi:namedview
     id="base"
     pagecolor="#ffffff"
     bordercolor="#666666"
     borderopacity="1.0"
     inkscape:pageopacity="0.0"
     inkscape:pageshadow="2"
     inkscape:zoom="8.1906533"
     inkscape:cx="2.7583617"
     inkscape:cy="26.832807"
     inkscape:document-units="px"
     inkscape:current-layer="layer1"
     showgrid="true"
     inkscape:snap-bbox="true"
     inkscape:window-width="1301"
     inkscape:window-height="744"
     inkscape:window-x="65"
     inkscape:window-y="24"
     inkscape:window-maximized="1"
     inkscape:object-nodes="true">
    <inkscape:grid
       type="xygrid"
       id="grid3003"
       empspacing="6"
       visible="true"
       enabled="true"
       snapvisiblegridlinesonly="true" />
  </sodipodi:namedview>
  <metadata
     id="metadata7">
    <rdf:RDF>
      <cc:Work
         rdf:about="">
        <dc:format>image/svg+xml</dc:format>
        <dc:type
           rdf:resource="http://purl.org/dc/dcmitype/StillImage" />
        <dc:title />
      </cc:Work>
    </rdf:RDF>
  </metadata>
  <g
     inkscape:label="Layer 1"
     inkscape:groupmode="layer"
     id="layer1"
     transform="translate(0,-1004.3622)">
    <path
       id="path3788"
       d="m 24,1051.1116 c -21.2715315,0 -23.66257505,-0.089 -23.9375,-15.4063 0.328125,14.4033 2.9375,14.4063 23.9375,14.4063 21,0 23.609375,0 23.9375,-14.4063 -0.274925,15.3174 -2.665968,15.4063 -23.9375,15.4063 z"
       style="opacity:0.20000000000000001;fill:#ffffff;fill-opacity:1;stroke:none"
       inkscape:connector-curvature="0" />
    <path
       style="fill:url(#linearGradient3798);fill-opacity:1.0;stroke:none"
       d="m 24,1006.3622 c -24,0 -24,0 -24,22 0,22 0,22 24,22 24,0 24,0 24,-22 0,-22 0,-22 -24,-22 z"
       id="path3757"
       inkscape:connector-curvature="0"
       sodipodi:nodetypes="zzzzz" />
    <g
       id="g3791"
       transform="translate(20,0)">
      <path
         style="opacity:0.02999998;fill:url(#linearGradient3795);fill-opacity:1;stroke:none"
         d="m 4,1006.3622 c -24,0 -24,0 -24,22 0,22 0,22 24,22 24,0 24,0 24,-22 0,-22 0,-22 -24,-22 z"
         id="path3777"
         inkscape:connector-curvature="0"
         sodipodi:nodetypes="zzzzz" />
      <path
         sodipodi:nodetypes="zzzzz"
         inkscape:connector-curvature="0"
         id="path3787"
         d="m 4,1006.3622 c -24,0 -24,0 -24,22 0,22 0,22 24,22 24,0 24,0 24,-22 0,-22 0,-22 -24,-22 z"
         style="opacity:0.02999998;fill:url(#linearGradient3797);fill-opacity:1;stroke:none" />
    </g>
    <path
       style="fill:#000000;fill-opacity:1;stroke:none;opacity:0.20000000000000001"
       d="M 24 2 C 2.7284685 2 0.33742495 2.0888436 0.0625 17.40625 C 0.390625 3.0029297 3 3 24 3 C 45 3 47.609375 3.0029297 47.9375 17.40625 C 47.662575 2.0888436 45.271532 2 24 2 z "
       transform="translate(0,1004.3622)"
       id="path3770" />
    <g
       id="g3813"
       transform="translate(-47.998,993.3622)" />
    <path
       sodipodi:nodetypes="ccccccc"
       inkscape:connector-curvature="0"
       id="path3813"
       d="m 13,1044.3622 0,1 24,0 0,-26 -1,-1 0,26 z"
       style="opacity:0.2;fill:#000000;fill-opacity:1;stroke:none" />
    <path
       style="fill:url(#linearGradient3805);fill-opacity:1;stroke:none"
       d="m 12,8 0,32 24,0 0,-26 -6,-6 z"
       transform="translate(0,1004.3622)"
       id="rect3787"
       inkscape:connector-curvature="0"
       sodipodi:nodetypes="cccccc" />
    <path
       style="fill:#b1b1b1;fill-opacity:1;stroke:none"
       d="m 30,8 0,6 6,0 z"
       transform="translate(0,1004.3622)"
       id="rect3808"
       inkscape:connector-curvature="0"
       sodipodi:nodetypes="cccc" />
    <path
       sodipodi:nodetypes="cccc"
       inkscape:connector-curvature="0"
       id="path3811"
       d="m 36,1024.3622 0,-6 -6,0 z"
       style="fill:#3a3a3a;fill-opacity:1;stroke:none" />
    <path
       style="font-size:19.06877135999999950px;font-style:normal;font-variant:normal;font-weight:normal;font-stretch:normal;text-align:center;line-height:100%;letter-spacing:0px;word-spacing:0px;writing-mode:lr-tb;text-anchor:middle;fill:#1a1a1a;fill-opacity:1;stroke:none;font-family:Coca Cola ii;-inkscape-font-specification:Coca Cola ii"
       d="M 22.875 13 C 21.660511 13.000014 20.515533 13.379495 19.40625 14.15625 C 18.268268 14.945168 17.393269 15.9826 16.78125 17.28125 C 16.484799 17.912384 16.312498 18.523319 16.3125 19.09375 C 16.312498 19.737019 16.477798 20.248759 16.8125 20.625 C 17.147196 20.989116 17.577353 21.187506 18.09375 21.1875 C 18.963964 21.187506 19.685787 20.762823 20.25 19.9375 C 20.804638 19.148602 21.093743 18.179114 21.09375 17.0625 L 21.09375 16.90625 C 21.093743 15.777519 20.753579 15.187512 20.09375 15.1875 C 19.347843 15.187512 18.740262 15.626146 18.28125 16.5 C 17.870044 17.264642 17.687496 18.161024 17.6875 19.15625 C 17.706622 19.253354 17.699621 19.352549 17.71875 19.4375 C 17.737872 19.413234 17.966355 19.200892 18.40625 18.8125 C 18.683568 18.569768 18.945863 18.371379 19.15625 18.25 C 19.213622 17.873762 19.327864 17.461216 19.5 17 C 19.729503 16.39316 19.945862 16.093761 20.15625 16.09375 C 20.337938 16.093761 20.437494 16.220859 20.4375 16.5 C 20.437494 17.507382 20.15095 18.436829 19.625 19.25 C 19.07035 20.123872 18.430836 20.562506 17.65625 20.5625 C 17.350236 20.562506 17.087941 20.416295 16.90625 20.125 C 16.724553 19.833719 16.624997 19.494279 16.625 19.09375 C 16.624997 18.207757 17.037907 17.238269 17.8125 16.21875 C 19.026976 14.616676 20.283634 13.812513 21.59375 13.8125 C 22.15795 13.812513 22.957641 14.057919 24 14.53125 C 25.051902 15.004606 25.785849 15.250012 26.1875 15.25 C 26.522187 15.250012 26.891722 15.063759 27.3125 14.6875 C 27.771503 14.299128 27.999986 13.900535 28 13.5 L 27.96875 13.375 L 27.875 13.34375 C 27.329905 13.610778 26.982057 13.750013 26.78125 13.75 C 26.360473 13.750013 25.713957 13.617754 24.84375 13.375 C 23.983084 13.120137 23.314881 13.000014 22.875 13 z M 24.4375 15.6875 C 23.959348 15.711785 23.303269 16.48986 22.5 18.03125 C 21.840156 19.293507 21.395314 20.357029 21.15625 21.21875 C 20.745041 21.315852 20.183396 21.568234 19.4375 21.96875 C 18.538588 22.454235 18.062496 22.878918 18.0625 23.21875 C 18.072059 23.243028 18.084183 23.276093 18.09375 23.3125 L 18.1875 23.34375 C 18.962085 22.773315 19.419052 22.421738 19.5625 22.3125 C 20.098013 21.948395 20.572227 21.734238 21.03125 21.625 C 20.562664 23.129994 20.042515 24.273597 19.46875 25.0625 C 18.703718 26.118421 17.799347 26.625 16.71875 26.625 C 16.336234 26.625 15.945012 26.564032 15.5625 26.40625 C 15.055668 26.199922 14.812499 25.888386 14.8125 25.5 C 14.812499 25.22085 14.965675 25.046735 15.28125 24.9375 C 15.606385 24.816132 15.83743 24.7048 16 24.65625 C 16.286883 24.510608 16.437498 24.270363 16.4375 23.90625 C 16.437498 23.165896 16.104335 22.781254 15.40625 22.78125 C 15.00461 22.781254 14.642759 22.960531 14.375 23.3125 C 14.116803 23.65234 14 24.083998 14 24.59375 C 14 25.491891 14.364412 26.149842 15.0625 26.5625 C 15.588455 26.878063 16.237532 27.03125 17.03125 27.03125 C 20.244359 27.03125 22.288585 25.109573 23.1875 21.25 C 23.560441 21.177184 23.942101 21.125006 24.34375 21.125 L 24.53125 20.78125 C 23.995721 20.817667 23.589813 20.850732 23.3125 20.875 C 23.427245 19.976868 23.580421 19.125688 23.78125 18.3125 C 23.91512 17.778481 24.146165 16.936091 24.5 15.84375 L 24.5 15.71875 L 24.4375 15.6875 z "
       transform="translate(0,1004.3622)"
       id="text3823" />
    <rect
       style="fill:#999999;fill-opacity:1;stroke:none"
       id="rect3828"
       width="24"
       height="1"
       x="12"
       y="39"
       transform="translate(0,1004.3622)" />
    <g
       transform="translate(10.694635,9.2519388)"
       id="g3019"
       style="opacity:0.2;fill:#000000;fill-opacity:1">
      <rect
         style="fill:#000000;fill-opacity:1;stroke:none"
         id="rect3021"
         width="3"
         height="20.000105"
         x="738.17023"
         y="698.28241"
         transform="matrix(0.70710678,0.70710678,-0.70710678,0.70710678,0,0)" />
      <rect
         y="698.28241"
         x="741.17023"
         height="20.000105"
         width="3"
         id="rect3023"
         style="fill:#000000;fill-opacity:1;stroke:none"
         transform="matrix(0.70710678,0.70710678,-0.70710678,0.70710678,0,0)" />
      <rect
         style="fill:#000000;fill-opacity:1;stroke:none"
         id="rect3025"
         width="3"
         height="20.000105"
         x="744.17023"
         y="698.28241"
         transform="matrix(0.70710678,0.70710678,-0.70710678,0.70710678,0,0)" />
      <path
         style="fill:#000000;fill-opacity:1;stroke:none"
         d="m 14.062737,1029.8676 -1.767767,8.1317 8.131728,-1.7678 z"
         id="path3027"
         inkscape:connector-curvature="0"
         sodipodi:nodetypes="cccc" />
    </g>
    <g
       id="g3013"
       transform="translate(9.70503,8.3629)">
      <rect
         transform="matrix(0.70710678,0.70710678,-0.70710678,0.70710678,0,0)"
         y="698.28241"
         x="738.17023"
         height="20.000105"
         width="3"
         id="rect3784"
         style="fill:#fadd60;fill-opacity:1;stroke:none" />
      <rect
         transform="matrix(0.70710678,0.70710678,-0.70710678,0.70710678,0,0)"
         style="fill:#f5a816;fill-opacity:1;stroke:none"
         id="rect3786"
         width="3"
         height="20.000105"
         x="741.17023"
         y="698.28241" />
      <rect
         transform="matrix(0.70710678,0.70710678,-0.70710678,0.70710678,0,0)"
         y="698.28241"
         x="744.17023"
         height="20.000105"
         width="3"
         id="rect3788"
         style="fill:#ee6f0b;fill-opacity:1;stroke:none" />
      <path
         sodipodi:nodetypes="cccc"
         inkscape:connector-curvature="0"
         id="rect3790"
         d="m 14.062737,1029.8676 -1.767767,8.1317 8.131728,-1.7678 z"
         style="fill:#ffccbc;fill-opacity:1;stroke:none" />
    </g>
  </g>
</svg>
