<?xml version="1.0" encoding="UTF-8" standalone="no"?>
<!-- Created with Inkscape (http://www.inkscape.org/) -->

<svg
   xmlns:dc="http://purl.org/dc/elements/1.1/"
   xmlns:cc="http://creativecommons.org/ns#"
   xmlns:rdf="http://www.w3.org/1999/02/22-rdf-syntax-ns#"
   xmlns:svg="http://www.w3.org/2000/svg"
   xmlns="http://www.w3.org/2000/svg"
   xmlns:sodipodi="http://sodipodi.sourceforge.net/DTD/sodipodi-0.dtd"
   xmlns:inkscape="http://www.inkscape.org/namespaces/inkscape"
   width="48"
   height="48"
   id="svg2"
   version="1.1"
   inkscape:version="0.48.4 r9939"
   sodipodi:docname="gnect.svg">
  <defs
     id="defs4">
    <linearGradient
       gradientTransform="matrix(0,-1,1,0,-1.5e-6,47.999998)"
       gradientUnits="userSpaceOnUse"
       x2="47"
       x1="1"
       id="linearGradient3764">
      <stop
         id="stop3801"
         stop-opacity="1"
         stop-color="#773f97" />
      <stop
         id="stop3803"
         stop-opacity="1"
         stop-color="#8345a5"
         offset="1" />
    </linearGradient>
  </defs>
  <sodipodi:namedview
     id="base"
     pagecolor="#ffffff"
     bordercolor="#666666"
     borderopacity="1.0"
     inkscape:pageopacity="0.0"
     inkscape:pageshadow="2"
     inkscape:zoom="11.583333"
     inkscape:cx="19.466052"
     inkscape:cy="18.699142"
     inkscape:document-units="px"
     inkscape:current-layer="layer1"
     showgrid="true"
     inkscape:snap-bbox="true"
     inkscape:window-width="1301"
     inkscape:window-height="744"
     inkscape:window-x="65"
     inkscape:window-y="24"
     inkscape:window-maximized="1"
     inkscape:snap-nodes="true">
    <inkscape:grid
       type="xygrid"
       id="grid2985"
       empspacing="6"
       visible="true"
       enabled="true"
       snapvisiblegridlinesonly="true" />
  </sodipodi:namedview>
  <metadata
     id="metadata7">
    <rdf:RDF>
      <cc:Work
         rdf:about="">
        <dc:format>image/svg+xml</dc:format>
        <dc:type
           rdf:resource="http://purl.org/dc/dcmitype/StillImage" />
        <dc:title />
      </cc:Work>
    </rdf:RDF>
  </metadata>
  <g
     inkscape:label="Layer 1"
     inkscape:groupmode="layer"
     id="layer1"
     transform="translate(0,-1004.3622)">
    <path
       id="path3788"
       d="m 24,1051.1116 c -21.2715315,0 -23.66257505,-0.089 -23.9375,-15.4063 0.328125,14.4033 2.9375,14.4063 23.9375,14.4063 21,0 23.609375,0 23.9375,-14.4063 -0.274925,15.3174 -2.665968,15.4063 -23.9375,15.4063 z"
       style="opacity:0.20000000000000001;fill:#ffffff;fill-opacity:1;stroke:none"
       inkscape:connector-curvature="0" />
    <path
       style="opacity:1;fill:#4a148c;fill-opacity:1;stroke:none"
       d="m 24,1006.3622 c -6,0 -10.5,10e-5 -13.875,0.3438 -1.6875,0.1719 -3.078125,0.4257 -4.25,0.8125 -1.171875,0.3868 -2.125,0.9062 -2.875,1.5937 -0.75,0.6875 -1.328125,1.5508 -1.75,2.625 -0.421875,1.0742 -0.6875,2.3595 -0.875,3.9063 C 0,1018.7373 0,1022.8622 0,1028.3622 c 0,5.5 0,9.6251 0.375,12.7188 0.1875,1.5469 0.453125,2.832 0.875,3.9062 0.421875,1.0742 1,1.9375 1.75,2.625 0.75,0.6875 1.703125,1.2071 2.875,1.5938 1.171875,0.3868 2.5625,0.6407 4.25,0.8125 3.375,0.3438 7.875,0.3437 13.875,0.3437 6,0 10.5,0 13.875,-0.3437 1.6875,-0.1719 3.078125,-0.4258 4.25,-0.8125 1.171875,-0.3868 2.125,-0.9063 2.875,-1.5938 0.75,-0.6875 1.328125,-1.5508 1.75,-2.625 0.421875,-1.0742 0.6875,-2.3594 0.875,-3.9062 0.375,-3.0938 0.375,-7.2188 0.375,-12.7188 0,-5.5 0,-9.625 -0.375,-12.7187 -0.1875,-1.5469 -0.453125,-2.8321 -0.875,-3.9063 -0.421875,-1.0742 -1,-1.9375 -1.75,-2.625 -0.75,-0.6875 -1.703125,-1.207 -2.875,-1.5937 -1.171875,-0.3868 -2.5625,-0.6407 -4.25,-0.8125 C 34.5,1006.3622 30,1006.3622 24,1006.3622 z"
       id="path3772"
       inkscape:connector-curvature="0" />
    <path
       style="fill:#000000;fill-opacity:1;stroke:none;opacity:0.20000000000000001"
       d="M 24 2 C 2.7284685 2 0.33742495 2.0888436 0.0625 17.40625 C 0.390625 3.0029297 3 3 24 3 C 45 3 47.609375 3.0029297 47.9375 17.40625 C 47.662575 2.0888436 45.271532 2 24 2 z "
       transform="translate(0,1004.3622)"
       id="path3770" />
    <g
       id="g3025"
       transform="translate(-50.998,1000.3622)" />
    <g
       id="g3817"
       transform="translate(-55.998,1000.3622)" />
    <g
       id="g3064"
       transform="translate(-109,1010.3622)" />
    <g
       id="g3054"
       transform="translate(-49.998,1002.3622)" />
    <g
       id="g3062"
       transform="translate(-67,1003.3622)" />
    <g
       id="g3970"
       style="opacity:0.1;fill:#000000;fill-opacity:1"
       transform="translate(1,1.0000174)">
      <rect
         style="fill:#000000;fill-opacity:1;stroke:none"
         id="rect3972"
         width="4"
         height="4"
         x="25"
         y="1023.3622"
         ry="1" />
      <rect
         ry="1"
         y="1029.3622"
         x="19"
         height="4"
         width="4"
         id="rect3974"
         style="fill:#000000;fill-opacity:1;stroke:none" />
      <rect
         style="fill:#000000;fill-opacity:1;stroke:none"
         id="rect3976"
         width="4"
         height="4"
         x="13"
         y="1035.3622"
         ry="1" />
      <rect
         ry="1"
         y="1035.3622"
         x="19"
         height="4"
         width="4"
         id="rect3978"
         style="fill:#000000;fill-opacity:1;stroke:none" />
      <rect
         style="fill:#000000;fill-opacity:1;stroke:none"
         id="rect3980"
         width="4"
         height="4"
         x="25"
         y="1035.3622"
         ry="1" />
      <rect
         ry="1"
         y="1035.3622"
         x="31"
         height="4"
         width="4"
         id="rect3982"
         style="fill:#000000;fill-opacity:1;stroke:none" />
      <rect
         ry="1"
         y="1029.3622"
         x="13"
         height="4"
         width="4"
         id="rect3984"
         style="fill:#000000;fill-opacity:1;stroke:none" />
      <rect
         style="fill:#000000;fill-opacity:1;stroke:none"
         id="rect3986"
         width="4"
         height="4"
         x="25"
         y="1029.3622"
         ry="1" />
      <rect
         ry="1"
         y="1029.3622"
         x="31"
         height="4"
         width="4"
         id="rect3988"
         style="fill:#000000;fill-opacity:1;stroke:none" />
      <rect
         ry="1"
         y="1017.3622"
         x="31"
         height="4"
         width="4"
         id="rect3990"
         style="fill:#000000;fill-opacity:1;stroke:none" />
      <rect
         style="fill:#000000;fill-opacity:1;stroke:none"
         id="rect3992"
         width="4"
         height="4"
         x="31"
         y="1023.3622"
         ry="1" />
    </g>
    <g
       id="g3957">
      <rect
         ry="1"
         y="1023.3622"
         x="25"
         height="4"
         width="4"
         id="rect3784"
         style="fill:#ffffff;fill-opacity:1;stroke:none" />
      <rect
         style="fill:#ffffff;fill-opacity:1;stroke:none"
         id="rect3786"
         width="4"
         height="4"
         x="19"
         y="1029.3622"
         ry="1" />
      <rect
         ry="1"
         y="1035.3622"
         x="13"
         height="4"
         width="4"
         id="rect3788"
         style="fill:#ffffff;fill-opacity:1;stroke:none" />
      <rect
         style="fill:#ffffff;fill-opacity:1;stroke:none"
         id="rect3790"
         width="4"
         height="4"
         x="19"
         y="1035.3622"
         ry="1" />
      <rect
         ry="1"
         y="1035.3622"
         x="25"
         height="4"
         width="4"
         id="rect3792"
         style="fill:#ffffff;fill-opacity:1;stroke:none" />
      <rect
         style="fill:#ffffff;fill-opacity:1;stroke:none"
         id="rect3794"
         width="4"
         height="4"
         x="31"
         y="1035.3622"
         ry="1" />
      <rect
         style="fill:#ffd600;fill-opacity:1;stroke:none"
         id="rect3947"
         width="4"
         height="4"
         x="13"
         y="1029.3622"
         ry="1" />
      <rect
         ry="1"
         y="1029.3622"
         x="25"
         height="4"
         width="4"
         id="rect3949"
         style="fill:#ffd600;fill-opacity:1;stroke:none" />
      <rect
         style="fill:#ffd600;fill-opacity:1;stroke:none"
         id="rect3951"
         width="4"
         height="4"
         x="31"
         y="1029.3622"
         ry="1" />
      <rect
         style="fill:#ffffff;fill-opacity:1;stroke:none"
         id="rect3953"
         width="4"
         height="4"
         x="31"
         y="1017.3622"
         ry="1" />
      <rect
         ry="1"
         y="1023.3622"
         x="31"
         height="4"
         width="4"
         id="rect3955"
         style="fill:#ffd600;fill-opacity:1;stroke:none" />
    </g>
  </g>
</svg>
