<?xml version="1.0" encoding="UTF-8" standalone="no"?>
<!-- Created with Inkscape (http://www.inkscape.org/) -->

<svg
   xmlns:dc="http://purl.org/dc/elements/1.1/"
   xmlns:cc="http://creativecommons.org/ns#"
   xmlns:rdf="http://www.w3.org/1999/02/22-rdf-syntax-ns#"
   xmlns:svg="http://www.w3.org/2000/svg"
   xmlns="http://www.w3.org/2000/svg"
   xmlns:xlink="http://www.w3.org/1999/xlink"
   xmlns:sodipodi="http://sodipodi.sourceforge.net/DTD/sodipodi-0.dtd"
   xmlns:inkscape="http://www.inkscape.org/namespaces/inkscape"
   width="48"
   height="48"
   id="svg2"
   version="1.1"
   inkscape:version="0.48.4 r9939"
   sodipodi:docname="freeplane.svg">
  <defs
     id="defs4">
    <linearGradient
       id="linearGradient3769">
      <stop
         style="stop-color:#424242;stop-opacity:1;"
         offset="0"
         id="stop3771" />
      <stop
         style="stop-color:#4f4f4f;stop-opacity:1;"
         offset="1"
         id="stop3773" />
    </linearGradient>
    <linearGradient
       inkscape:collect="always"
       xlink:href="#linearGradient3769"
       id="linearGradient3775"
       x1="24"
       y1="1050.3622"
       x2="24"
       y2="1006.3622"
       gradientUnits="userSpaceOnUse" />
    <clipPath
       id="clipPath-666973034">
      <g
         id="g3038"
         transform="translate(0,-1004.3622)">
        <path
           id="path3040"
           fill="#1890d0"
           transform="matrix(15.333333,0,0,11.5,414.99999,878.8622)"
           d="m -24 13 c 0 1.105 -0.672 2 -1.5 2 -0.828 0 -1.5 -0.895 -1.5 -2 0 -1.105 0.672 -2 1.5 -2 0.828 0 1.5 0.895 1.5 2 z" />
      </g>
    </clipPath>
    <clipPath
       id="clipPath-659885763">
      <g
         id="g3033"
         transform="translate(0,-1004.3622)">
        <path
           id="path3035"
           fill="#1890d0"
           transform="matrix(15.333333,0,0,11.5,414.99999,878.8622)"
           d="m -24 13 c 0 1.105 -0.672 2 -1.5 2 -0.828 0 -1.5 -0.895 -1.5 -2 0 -1.105 0.672 -2 1.5 -2 0.828 0 1.5 0.895 1.5 2 z" />
      </g>
    </clipPath>
    <linearGradient
       gradientTransform="matrix(0,-1,1,0,-1.5e-6,47.999998)"
       gradientUnits="userSpaceOnUse"
       x2="47"
       x1="1"
       id="linearGradient3764">
      <stop
         id="stop3028"
         stop-opacity="1"
         stop-color="#3d3d3d" />
      <stop
         id="stop3030"
         stop-opacity="1"
         stop-color="#474747"
         offset="1" />
    </linearGradient>
  </defs>
  <sodipodi:namedview
     id="base"
     pagecolor="#ffffff"
     bordercolor="#666666"
     borderopacity="1.0"
     inkscape:pageopacity="0.0"
     inkscape:pageshadow="2"
     inkscape:zoom="10.108768"
     inkscape:cx="-27.065647"
     inkscape:cy="17.512722"
     inkscape:document-units="px"
     inkscape:current-layer="layer1"
     showgrid="true"
     inkscape:snap-bbox="true"
     inkscape:window-width="1301"
     inkscape:window-height="744"
     inkscape:window-x="65"
     inkscape:window-y="24"
     inkscape:window-maximized="1"
     inkscape:object-nodes="false">
    <inkscape:grid
       type="xygrid"
       id="grid3003"
       empspacing="6"
       visible="true"
       enabled="true"
       snapvisiblegridlinesonly="true" />
  </sodipodi:namedview>
  <metadata
     id="metadata7">
    <rdf:RDF>
      <cc:Work
         rdf:about="">
        <dc:format>image/svg+xml</dc:format>
        <dc:type
           rdf:resource="http://purl.org/dc/dcmitype/StillImage" />
        <dc:title />
      </cc:Work>
    </rdf:RDF>
  </metadata>
  <g
     inkscape:label="Layer 1"
     inkscape:groupmode="layer"
     id="layer1"
     transform="translate(0,-1004.3622)">
    <path
       id="path3788"
       d="m 24,1051.1116 c -21.2715315,0 -23.66257505,-0.089 -23.9375,-15.4063 0.328125,14.4033 2.9375,14.4063 23.9375,14.4063 21,0 23.609375,0 23.9375,-14.4063 -0.274925,15.3174 -2.665968,15.4063 -23.9375,15.4063 z"
       style="opacity:0.20000000000000001;fill:#ffffff;fill-opacity:1;stroke:none"
       inkscape:connector-curvature="0" />
    <path
       style="fill:url(#linearGradient3775);fill-opacity:1.0;stroke:none"
       d="m 24,1050.3622 c -24,0 -24,0 -24,-22 0,-22 0,-22 24,-22 24,0 24,0 24,22 0,22 0,22 -24,22 z"
       id="path3757"
       inkscape:connector-curvature="0"
       sodipodi:nodetypes="zzzzz" />
    <path
       style="fill:#000000;fill-opacity:1;stroke:none;opacity:0.20000000000000001"
       d="M 24 2 C 2.7284685 2 0.33742495 2.0888436 0.0625 17.40625 C 0.390625 3.0029297 3 3 24 3 C 45 3 47.609375 3.0029297 47.9375 17.40625 C 47.662575 2.0888436 45.271532 2 24 2 z "
       transform="translate(0,1004.3622)"
       id="path3770" />
    <g
       id="g3813"
       transform="translate(-47.998,993.3622)" />
    <g
       id="g3039"
       transform="translate(-56.998,1002.3622)" />
    <g
       id="g3046"
       transform="translate(-51.998,1010.3622)" />
    <g
       id="g3063"
       transform="translate(-65.998,1003.3622)" />
    <g
       id="g3054"
       transform="translate(-66.998,1012.3622)" />
    <g
       id="g3056"
       transform="translate(0.00866966,1004.3662)">
      <g
         clip-path="url(#clipPath-659885763)"
         id="g3058">
        <g
           transform="translate(1,1)"
           id="g3060">
          <g
             style="opacity:0.1"
             id="g3062">
            <!-- color: #474747 -->
            <g
               id="g3064">
              <path
                 style="fill:#000000;fill-opacity:1;fill-rule:nonzero;stroke:none"
                 inkscape:connector-curvature="0"
                 d="m 24,19.211 c -1.754,0 -3.09,1.168 -3.91,2.523 -0.816,1.355 -1.285,3.02 -1.285,4.848 0,1.832 0.469,3.547 1.285,4.898 0.82,1.355 2.156,2.523 3.91,2.523 1.754,0 3.141,-1.168 3.957,-2.523 0.816,-1.355 1.238,-3.066 1.238,-4.898 0,-1.828 -0.422,-3.492 -1.238,-4.848 C 27.141,20.379 25.754,19.211 24,19.211 m 0,1.746 c 2.211,0 4.01,2.688 4.01,5.965 0,3.281 -1.797,5.918 -4.01,5.918 -2.211,0 -4.01,-2.637 -4.01,-5.918 0,-3.277 1.797,-5.965 4.01,-5.965 m 0,0"
                 id="path3066" />
              <path
                 style="fill:#000000;fill-opacity:1;fill-rule:nonzero;stroke:none"
                 inkscape:connector-curvature="0"
                 d="m 24.02,22.22 c -2.098,0 -3.957,1.105 -5.094,2.84 -0.063,0.543 -0.09,1.109 -0.102,1.68 1.125,-1.59 3.02,-2.629 5.195,-2.629 2.152,0 4.047,1.012 5.16,2.578 C 29.171,26.15 29.132,25.623 29.081,25.111 27.956,23.369 26.124,22.22 24.018,22.22 m 0,0"
                 id="path3068" />
              <path
                 style="fill:#000000;fill-opacity:1;fill-rule:nonzero;stroke:none"
                 inkscape:connector-curvature="0"
                 d="m 23.13,29.1 c -1.301,0.168 -2.473,0.754 -3.449,1.543 0.121,0.234 0.219,0.496 0.363,0.711 0.121,0.184 0.277,0.363 0.422,0.535 1.035,-0.527 2.227,-0.832 3.512,-0.832 1.285,0 2.477,0.305 3.512,0.832 0.148,-0.172 0.313,-0.355 0.426,-0.535 0.148,-0.223 0.309,-0.469 0.43,-0.711 C 27.155,29.67 25.643,29.1 23.991,29.1 c -0.297,0 -0.559,-0.035 -0.848,0 m -0.004,0"
                 id="path3070" />
              <path
                 style="fill:#000000;fill-opacity:1;fill-rule:nonzero;stroke:none"
                 inkscape:connector-curvature="0"
                 d="m 23.984,25.574 c -1.984,0 -3.453,0.918 -4.781,2.246 0.074,0.547 -0.109,0.992 0.066,1.492 1.285,-0.961 2.922,-1.543 4.723,-1.543 1.797,0 3.441,0.582 4.719,1.543 0.168,-0.5 0.043,-0.941 0.117,-1.492 -1.328,-1.336 -2.844,-2.246 -4.836,-2.246 m -0.008,0"
                 id="path3072" />
              <path
                 style="fill:#000000;fill-opacity:1;fill-rule:nonzero;stroke:none"
                 inkscape:connector-curvature="0"
                 d="m 24.02,13.996 c -2.531,0 -4.598,1.723 -4.598,3.883 0,1.32 0.777,2.508 1.957,3.215 0.242,-0.559 1.246,-0.996 2.492,-0.996 1.332,0 2.43,0.488 2.563,1.105 1.289,-0.691 2.148,-1.922 2.148,-3.324 0,-2.16 -2.035,-3.883 -4.563,-3.883 m -2.902,2.258 c 0.43,0 0.754,0.578 0.754,1.293 0,0.715 -0.328,1.293 -0.754,1.293 -0.43,0 -0.793,-0.578 -0.793,-1.293 0,-0.715 0.363,-1.293 0.793,-1.293 m 5.77,0 c 0.426,0 0.789,0.578 0.789,1.293 0,0.715 -0.363,1.293 -0.789,1.293 -0.43,0 -0.754,-0.578 -0.754,-1.293 0,-0.715 0.324,-1.293 0.754,-1.293 m 0,0"
                 id="path3074" />
              <path
                 style="fill:#000000;fill-opacity:1;fill-rule:nonzero;stroke:none"
                 inkscape:connector-curvature="0"
                 d="m 14.258,16.332 c 1.551,0.109 3.895,0.746 6.559,2.254 0.25,0.141 0.445,0.301 0.68,0.445 -0.258,0.215 -0.473,0.457 -0.68,0.703 -0.152,-0.098 -0.289,-0.207 -0.453,-0.297 -1.586,-0.898 -3.199,-1.41 -4.523,-1.516 -1.324,-0.105 -2.355,0.188 -2.789,0.926 -0.867,1.469 1.395,3.605 4.563,5.402 0.215,0.121 0.605,0.363 0.816,0.469 -0.027,0.031 -0.645,0.445 -0.668,0.484 -0.215,-0.117 -0.418,-0.207 -0.641,-0.332 -2.668,-1.508 -4.445,-3.172 -5.313,-4.434 -0.871,-1.266 -1.023,-2.297 -0.566,-3.07 0.453,-0.77 1.465,-1.145 3.02,-1.035 m 5.02,9.426 c 0.023,0.07 0.023,0.145 0.035,0.219 -0.02,-0.012 -0.051,-0.023 -0.074,-0.035 0.027,-0.063 0.027,-0.113 0.035,-0.184 m 0.004,0"
                 id="path3076" />
              <path
                 style="fill:#000000;fill-opacity:1;fill-rule:nonzero;stroke:none"
                 inkscape:connector-curvature="0"
                 d="m 19.621,23.965 c -0.047,0.172 -0.133,0.332 -0.168,0.508 -0.012,0.004 0.004,0.043 -0.012,0.047 -3.379,1.316 -5.418,3.137 -4.648,4.418 0.645,1.066 3.02,1.453 5.973,1.172 0.051,0.063 0.051,0.137 0.102,0.199 0.07,0.086 0.152,0.168 0.227,0.258 -1.57,0.23 -3.01,0.328 -4.168,0.277 -2.074,-0.09 -3.488,-0.543 -3.984,-1.367 -0.496,-0.824 0.035,-1.855 1.418,-2.906 1.133,-0.863 2.926,-1.805 5.262,-2.602 m 0,-0.004"
                 id="path3078" />
              <path
                 style="fill:#000000;fill-opacity:1;fill-rule:nonzero;stroke:none"
                 inkscape:connector-curvature="0"
                 d="m 33.742,16.332 c -1.551,0.109 -3.895,0.746 -6.559,2.254 -0.25,0.141 -0.445,0.301 -0.68,0.445 0.258,0.215 0.473,0.457 0.68,0.703 0.152,-0.098 0.289,-0.207 0.453,-0.297 1.586,-0.898 3.199,-1.41 4.523,-1.516 1.324,-0.105 2.355,0.188 2.789,0.926 0.867,1.469 -1.395,3.605 -4.563,5.402 -0.215,0.121 -0.605,0.363 -0.816,0.469 0.027,0.031 0.645,0.445 0.668,0.484 0.215,-0.117 0.418,-0.207 0.641,-0.332 2.668,-1.508 4.445,-3.172 5.313,-4.434 0.871,-1.266 1.023,-2.297 0.566,-3.07 -0.453,-0.77 -1.465,-1.145 -3.02,-1.035 m -5.02,9.426 c -0.023,0.07 -0.023,0.145 -0.035,0.219 0.02,-0.012 0.051,-0.023 0.074,-0.035 -0.027,-0.063 -0.027,-0.113 -0.035,-0.184 m -0.004,0"
                 id="path3080" />
              <path
                 style="fill:#000000;fill-opacity:1;fill-rule:nonzero;stroke:none"
                 inkscape:connector-curvature="0"
                 d="m 28.379,23.965 c 0.047,0.172 0.133,0.332 0.168,0.508 0.012,0.004 -0.004,0.043 0.012,0.047 3.379,1.316 5.418,3.137 4.648,4.418 -0.645,1.066 -3.02,1.453 -5.973,1.172 -0.051,0.063 -0.051,0.137 -0.102,0.199 -0.07,0.086 -0.152,0.168 -0.227,0.258 1.57,0.23 3.01,0.328 4.168,0.277 2.074,-0.09 3.488,-0.543 3.984,-1.367 0.496,-0.824 -0.035,-1.855 -1.418,-2.906 -1.133,-0.863 -2.926,-1.805 -5.262,-2.602 m 0,-0.004"
                 id="path3082" />
            </g>
          </g>
        </g>
      </g>
    </g>
    <g
       id="g3084"
       transform="translate(0.00866966,1004.3662)">
      <g
         clip-path="url(#clipPath-666973034)"
         id="g3086">
        <!-- color: #474747 -->
        <g
           id="g3088">
          <path
             style="fill:#ece333;fill-opacity:1;fill-rule:nonzero;stroke:none"
             inkscape:connector-curvature="0"
             d="m 24,19.211 c -1.754,0 -3.09,1.168 -3.91,2.523 -0.816,1.355 -1.285,3.02 -1.285,4.848 0,1.832 0.469,3.547 1.285,4.898 0.82,1.355 2.156,2.523 3.91,2.523 1.754,0 3.141,-1.168 3.957,-2.523 0.816,-1.355 1.238,-3.066 1.238,-4.898 0,-1.828 -0.422,-3.492 -1.238,-4.848 C 27.141,20.379 25.754,19.211 24,19.211 m 0,1.746 c 2.211,0 4.01,2.688 4.01,5.965 0,3.281 -1.797,5.918 -4.01,5.918 -2.211,0 -4.01,-2.637 -4.01,-5.918 0,-3.277 1.797,-5.965 4.01,-5.965 m 0,0"
             id="path3090" />
          <path
             style="fill:#ece333;fill-opacity:1;fill-rule:nonzero;stroke:none"
             inkscape:connector-curvature="0"
             d="m 24.02,22.22 c -2.098,0 -3.957,1.105 -5.094,2.84 -0.063,0.543 -0.09,1.109 -0.102,1.68 1.125,-1.59 3.02,-2.629 5.195,-2.629 2.152,0 4.047,1.012 5.16,2.578 C 29.171,26.15 29.132,25.623 29.081,25.111 27.956,23.369 26.124,22.22 24.018,22.22 m 0,0"
             id="path3092" />
          <path
             style="fill:#ece333;fill-opacity:1;fill-rule:nonzero;stroke:none"
             inkscape:connector-curvature="0"
             d="m 23.13,29.1 c -1.301,0.168 -2.473,0.754 -3.449,1.543 0.121,0.234 0.219,0.496 0.363,0.711 0.121,0.184 0.277,0.363 0.422,0.535 1.035,-0.527 2.227,-0.832 3.512,-0.832 1.285,0 2.477,0.305 3.512,0.832 0.148,-0.172 0.313,-0.355 0.426,-0.535 0.148,-0.223 0.309,-0.469 0.43,-0.711 C 27.155,29.67 25.643,29.1 23.991,29.1 c -0.297,0 -0.559,-0.035 -0.848,0 m -0.004,0"
             id="path3094" />
          <path
             style="fill:#ece333;fill-opacity:1;fill-rule:nonzero;stroke:none"
             inkscape:connector-curvature="0"
             d="m 23.984,25.574 c -1.984,0 -3.453,0.918 -4.781,2.246 0.074,0.547 -0.109,0.992 0.066,1.492 1.285,-0.961 2.922,-1.543 4.723,-1.543 1.797,0 3.441,0.582 4.719,1.543 0.168,-0.5 0.043,-0.941 0.117,-1.492 -1.328,-1.336 -2.844,-2.246 -4.836,-2.246 m -0.008,0"
             id="path3096" />
          <path
             style="fill:#ece333;fill-opacity:1;fill-rule:nonzero;stroke:none"
             inkscape:connector-curvature="0"
             d="m 24.02,13.996 c -2.531,0 -4.598,1.723 -4.598,3.883 0,1.32 0.777,2.508 1.957,3.215 0.242,-0.559 1.246,-0.996 2.492,-0.996 1.332,0 2.43,0.488 2.563,1.105 1.289,-0.691 2.148,-1.922 2.148,-3.324 0,-2.16 -2.035,-3.883 -4.563,-3.883 m -2.902,2.258 c 0.43,0 0.754,0.578 0.754,1.293 0,0.715 -0.328,1.293 -0.754,1.293 -0.43,0 -0.793,-0.578 -0.793,-1.293 0,-0.715 0.363,-1.293 0.793,-1.293 m 5.77,0 c 0.426,0 0.789,0.578 0.789,1.293 0,0.715 -0.363,1.293 -0.789,1.293 -0.43,0 -0.754,-0.578 -0.754,-1.293 0,-0.715 0.324,-1.293 0.754,-1.293 m 0,0"
             id="path3098" />
          <path
             style="fill:#ece333;fill-opacity:1;fill-rule:nonzero;stroke:none"
             inkscape:connector-curvature="0"
             d="m 14.258,16.332 c 1.551,0.109 3.895,0.746 6.559,2.254 0.25,0.141 0.445,0.301 0.68,0.445 -0.258,0.215 -0.473,0.457 -0.68,0.703 -0.152,-0.098 -0.289,-0.207 -0.453,-0.297 -1.586,-0.898 -3.199,-1.41 -4.523,-1.516 -1.324,-0.105 -2.355,0.188 -2.789,0.926 -0.867,1.469 1.395,3.605 4.563,5.402 0.215,0.121 0.605,0.363 0.816,0.469 -0.027,0.031 -0.645,0.445 -0.668,0.484 -0.215,-0.117 -0.418,-0.207 -0.641,-0.332 -2.668,-1.508 -4.445,-3.172 -5.313,-4.434 -0.871,-1.266 -1.023,-2.297 -0.566,-3.07 0.453,-0.77 1.465,-1.145 3.02,-1.035 m 5.02,9.426 c 0.023,0.07 0.023,0.145 0.035,0.219 -0.02,-0.012 -0.051,-0.023 -0.074,-0.035 0.027,-0.063 0.027,-0.113 0.035,-0.184 m 0.004,0"
             id="path3100" />
          <path
             style="fill:#ece333;fill-opacity:1;fill-rule:nonzero;stroke:none"
             inkscape:connector-curvature="0"
             d="m 19.621,23.965 c -0.047,0.172 -0.133,0.332 -0.168,0.508 -0.012,0.004 0.004,0.043 -0.012,0.047 -3.379,1.316 -5.418,3.137 -4.648,4.418 0.645,1.066 3.02,1.453 5.973,1.172 0.051,0.063 0.051,0.137 0.102,0.199 0.07,0.086 0.152,0.168 0.227,0.258 -1.57,0.23 -3.01,0.328 -4.168,0.277 -2.074,-0.09 -3.488,-0.543 -3.984,-1.367 -0.496,-0.824 0.035,-1.855 1.418,-2.906 1.133,-0.863 2.926,-1.805 5.262,-2.602 m 0,-0.004"
             id="path3102" />
          <path
             style="fill:#ece333;fill-opacity:1;fill-rule:nonzero;stroke:none"
             inkscape:connector-curvature="0"
             d="m 33.742,16.332 c -1.551,0.109 -3.895,0.746 -6.559,2.254 -0.25,0.141 -0.445,0.301 -0.68,0.445 0.258,0.215 0.473,0.457 0.68,0.703 0.152,-0.098 0.289,-0.207 0.453,-0.297 1.586,-0.898 3.199,-1.41 4.523,-1.516 1.324,-0.105 2.355,0.188 2.789,0.926 0.867,1.469 -1.395,3.605 -4.563,5.402 -0.215,0.121 -0.605,0.363 -0.816,0.469 0.027,0.031 0.645,0.445 0.668,0.484 0.215,-0.117 0.418,-0.207 0.641,-0.332 2.668,-1.508 4.445,-3.172 5.313,-4.434 0.871,-1.266 1.023,-2.297 0.566,-3.07 -0.453,-0.77 -1.465,-1.145 -3.02,-1.035 m -5.02,9.426 c -0.023,0.07 -0.023,0.145 -0.035,0.219 0.02,-0.012 0.051,-0.023 0.074,-0.035 -0.027,-0.063 -0.027,-0.113 -0.035,-0.184 m -0.004,0"
             id="path3104" />
          <path
             style="fill:#ece333;fill-opacity:1;fill-rule:nonzero;stroke:none"
             inkscape:connector-curvature="0"
             d="m 28.379,23.965 c 0.047,0.172 0.133,0.332 0.168,0.508 0.012,0.004 -0.004,0.043 0.012,0.047 3.379,1.316 5.418,3.137 4.648,4.418 -0.645,1.066 -3.02,1.453 -5.973,1.172 -0.051,0.063 -0.051,0.137 -0.102,0.199 -0.07,0.086 -0.152,0.168 -0.227,0.258 1.57,0.23 3.01,0.328 4.168,0.277 2.074,-0.09 3.488,-0.543 3.984,-1.367 0.496,-0.824 -0.035,-1.855 -1.418,-2.906 -1.133,-0.863 -2.926,-1.805 -5.262,-2.602 m 0,-0.004"
             id="path3106" />
        </g>
      </g>
    </g>
  </g>
</svg>
