<?xml version="1.0" encoding="UTF-8" standalone="no"?>
<!-- Created with Inkscape (http://www.inkscape.org/) -->

<svg
   xmlns:dc="http://purl.org/dc/elements/1.1/"
   xmlns:cc="http://creativecommons.org/ns#"
   xmlns:rdf="http://www.w3.org/1999/02/22-rdf-syntax-ns#"
   xmlns:svg="http://www.w3.org/2000/svg"
   xmlns="http://www.w3.org/2000/svg"
   xmlns:xlink="http://www.w3.org/1999/xlink"
   xmlns:sodipodi="http://sodipodi.sourceforge.net/DTD/sodipodi-0.dtd"
   xmlns:inkscape="http://www.inkscape.org/namespaces/inkscape"
   width="48"
   height="48"
   id="svg2"
   version="1.1"
   inkscape:version="0.48.4 r9939"
   sodipodi:docname="frogatto.svg">
  <defs
     id="defs4">
    <linearGradient
       id="linearGradient3769">
      <stop
         style="stop-color:#424242;stop-opacity:1;"
         offset="0"
         id="stop3771" />
      <stop
         style="stop-color:#4f4f4f;stop-opacity:1;"
         offset="1"
         id="stop3773" />
    </linearGradient>
    <linearGradient
       inkscape:collect="always"
       xlink:href="#linearGradient3769"
       id="linearGradient3775"
       x1="24"
       y1="1050.3622"
       x2="24"
       y2="1006.3622"
       gradientUnits="userSpaceOnUse" />
    <clipPath
       id="clip2">
      <path
         id="path3024"
         d="m 34.652 27.648 c 0 3.777 -4.738 6.844 -10.586 6.844 c -5.844 0 -10.582 -3.066 -10.582 -6.844 c 0 -3.781 4.738 -6.844 10.582 -6.844 c 5.848 0 10.586 3.063 10.586 6.844 m 0 0" />
    </clipPath>
    <clipPath
       id="clip1">
      <path
         id="path3021"
         d="m 13 24 l 22 0 l 0 11 l -22 0 m 0 -11" />
    </clipPath>
    <clipPath
       id="clipPath-013008175">
      <g
         id="g3016"
         transform="translate(0,-1004.3622)">
        <path
           id="path3018"
           fill="#1890d0"
           transform="matrix(15.333333,0,0,11.5,414.99999,878.8622)"
           d="m -24 13 c 0 1.105 -0.672 2 -1.5 2 -0.828 0 -1.5 -0.895 -1.5 -2 0 -1.105 0.672 -2 1.5 -2 0.828 0 1.5 0.895 1.5 2 z" />
      </g>
    </clipPath>
    <clipPath
       id="clipPath-003644862">
      <g
         id="g3011"
         transform="translate(0,-1004.3622)">
        <path
           id="path3013"
           fill="#1890d0"
           transform="matrix(15.333333,0,0,11.5,414.99999,878.8622)"
           d="m -24 13 c 0 1.105 -0.672 2 -1.5 2 -0.828 0 -1.5 -0.895 -1.5 -2 0 -1.105 0.672 -2 1.5 -2 0.828 0 1.5 0.895 1.5 2 z" />
      </g>
    </clipPath>
    <linearGradient
       gradientTransform="matrix(0,-1,1,0,-1.5e-6,47.999998)"
       gradientUnits="userSpaceOnUse"
       x2="47"
       x1="1"
       id="linearGradient3764">
      <stop
         id="stop3006"
         stop-opacity="1"
         stop-color="#3d3d3d" />
      <stop
         id="stop3008"
         stop-opacity="1"
         stop-color="#474747"
         offset="1" />
    </linearGradient>
  </defs>
  <sodipodi:namedview
     id="base"
     pagecolor="#ffffff"
     bordercolor="#666666"
     borderopacity="1.0"
     inkscape:pageopacity="0.0"
     inkscape:pageshadow="2"
     inkscape:zoom="10.108768"
     inkscape:cx="-3.1903697"
     inkscape:cy="19.902783"
     inkscape:document-units="px"
     inkscape:current-layer="layer1"
     showgrid="true"
     inkscape:snap-bbox="true"
     inkscape:window-width="1301"
     inkscape:window-height="744"
     inkscape:window-x="65"
     inkscape:window-y="24"
     inkscape:window-maximized="1"
     inkscape:object-nodes="false">
    <inkscape:grid
       type="xygrid"
       id="grid3003"
       empspacing="6"
       visible="true"
       enabled="true"
       snapvisiblegridlinesonly="true" />
  </sodipodi:namedview>
  <metadata
     id="metadata7">
    <rdf:RDF>
      <cc:Work
         rdf:about="">
        <dc:format>image/svg+xml</dc:format>
        <dc:type
           rdf:resource="http://purl.org/dc/dcmitype/StillImage" />
        <dc:title />
      </cc:Work>
    </rdf:RDF>
  </metadata>
  <g
     inkscape:label="Layer 1"
     inkscape:groupmode="layer"
     id="layer1"
     transform="translate(0,-1004.3622)">
    <path
       id="path3788"
       d="m 24,1051.1116 c -21.2715315,0 -23.66257505,-0.089 -23.9375,-15.4063 0.328125,14.4033 2.9375,14.4063 23.9375,14.4063 21,0 23.609375,0 23.9375,-14.4063 -0.274925,15.3174 -2.665968,15.4063 -23.9375,15.4063 z"
       style="opacity:0.20000000000000001;fill:#ffffff;fill-opacity:1;stroke:none"
       inkscape:connector-curvature="0" />
    <path
       style="fill:url(#linearGradient3775);fill-opacity:1.0;stroke:none"
       d="m 24,1050.3622 c -24,0 -24,0 -24,-22 0,-22 0,-22 24,-22 24,0 24,0 24,22 0,22 0,22 -24,22 z"
       id="path3757"
       inkscape:connector-curvature="0"
       sodipodi:nodetypes="zzzzz" />
    <path
       style="fill:#000000;fill-opacity:1;stroke:none;opacity:0.20000000000000001"
       d="M 24 2 C 2.7284685 2 0.33742495 2.0888436 0.0625 17.40625 C 0.390625 3.0029297 3 3 24 3 C 45 3 47.609375 3.0029297 47.9375 17.40625 C 47.662575 2.0888436 45.271532 2 24 2 z "
       transform="translate(0,1004.3622)"
       id="path3770" />
    <g
       id="g3813"
       transform="translate(-47.998,993.3622)" />
    <g
       id="g3039"
       transform="translate(-56.998,1002.3622)" />
    <g
       id="g3046"
       transform="translate(-51.998,1010.3622)" />
    <g
       id="g3048"
       transform="translate(1.7827251,1004.3539)">
      <g
         clip-path="url(#clipPath-003644862)"
         id="g3050">
        <g
           transform="translate(1,1)"
           id="g3052">
          <g
             style="opacity:0.1"
             id="g3054">
            <!-- color: #474747 -->
            <g
               id="g3056">
              <path
                 style="fill:#000000;fill-opacity:1;fill-rule:nonzero;stroke:#452f58;stroke-width:0.40900001;stroke-linecap:butt;stroke-linejoin:miter;stroke-miterlimit:4;stroke-opacity:1"
                 inkscape:connector-curvature="0"
                 d="M 4.468,9.273 C 4.687,9.405 4.916,9.525 5.149,9.632 5.286,9.695 5.426,9.754 5.569,9.801 6.302,10.047 7.114,9.983 7.862,9.78 8.012,9.74 8.16,9.694 8.303,9.643 8.766,9.48 9.215,9.245 9.534,8.878 9.695,8.694 9.822,8.479 9.891,8.244 9.958,8.01 9.968,7.756 9.904,7.521 9.861,7.364 9.786,7.217 9.7,7.078 9.561,6.856 9.395,6.65 9.191,6.487 8.987,6.324 8.745,6.205 8.487,6.162 8.383,6.142 8.275,6.14 8.174,6.108 8.123,6.094 8.077,6.072 8.034,6.041 7.991,6.01 7.955,5.968 7.933,5.92 7.9,5.847 7.903,5.761 7.921,5.683 7.94,5.605 7.973,5.531 8.001,5.455 8.138,5.081 8.13,4.66 8.001,4.283 7.954,4.147 7.892,4.015 7.804,3.903 7.716,3.787 7.601,3.695 7.468,3.642 7.303,3.576 7.111,3.58 6.941,3.638 6.771,3.695 6.622,3.804 6.502,3.939 6.455,3.992 6.413,4.048 6.363,4.098 6.312,4.148 6.253,4.191 6.183,4.205 6.121,4.218 6.061,4.212 6,4.194 5.872,4.159 5.763,4.083 5.655,4.007 5.547,3.931 5.436,3.854 5.31,3.814 5.146,3.763 4.964,3.783 4.805,3.854 4.647,3.927 4.516,4.045 4.418,4.185 4.22,4.465 4.15,4.818 4.105,5.156 4.062,5.468 4.031,5.791 4.116,6.095 4.138,6.18 4.17,6.264 4.194,6.347 4.219,6.432 4.237,6.519 4.235,6.607 4.224,6.771 4.134,6.92 4.03,7.051 3.931,7.181 3.815,7.306 3.74,7.452 3.629,7.681 3.63,7.957 3.707,8.202 3.812,8.523 4.038,8.786 4.264,9.038 4.353,9.137 4.445,9.235 4.536,9.332"
                 transform="scale(3.543307,3.543307)"
                 stroke-miterlimit="4"
                 id="path3058" />
              <path
                 style="fill:#000000;fill-opacity:1;fill-rule:nonzero;stroke:none"
                 inkscape:connector-curvature="0"
                 d="m 28.02,21.297 c -0.656,1.426 -1.723,2.367 -2.941,2.367 -1.078,0 -2.027,-0.754 -2.695,-1.91 -0.605,2.41 -2.109,4.113 -3.883,4.113 -1.23,0 -2.328,-0.828 -3.09,-2.137 -1.199,1.109 -1.926,2.473 -1.926,3.93 0,3.781 4.734,6.828 10.582,6.828 5.848,0 10.582,-3.047 10.582,-6.828 0,-2.879 -2.738,-5.355 -6.625,-6.367 m -0.004,0.004"
                 id="path3060" />
              <path
                 style="fill:#000000;fill-opacity:1;fill-rule:nonzero;stroke:none"
                 inkscape:connector-curvature="0"
                 d="m 20.313,14.344 c 0.129,0.113 0.258,0.242 0.375,0.375 -0.121,-0.133 -0.242,-0.262 -0.375,-0.375 m 2.688,0.125 c -0.121,0.172 -0.238,0.363 -0.344,0.563 0.105,-0.203 0.223,-0.387 0.344,-0.563 m -1.531,1.469 c 0.105,0.215 0.199,0.449 0.281,0.688 -0.086,-0.238 -0.176,-0.469 -0.281,-0.688 m -6.25,0.75 c -0.105,0.309 -0.172,0.633 -0.25,0.969 0.07,-0.34 0.148,-0.66 0.25,-0.969 m -0.25,0.969 c -0.121,0.551 -0.219,1.137 -0.219,1.75 0,3.203 1.684,5.781 3.75,5.781 1.965,0 3.563,-2.336 3.719,-5.313 0.477,1.727 1.59,2.938 2.875,2.938 1.555,0 2.809,-1.754 3.03,-4.063 l -13.06,0 c -0.082,0 -0.172,-0.027 -0.25,-0.031 0.027,-0.359 0.086,-0.723 0.156,-1.063 m 6.813,-0.906 c 0.078,0.238 0.164,0.496 0.223,0.75 -0.063,-0.262 -0.141,-0.508 -0.223,-0.75 m 0,0"
                 id="path3062" />
              <path
                 style="fill:#000000;fill-opacity:1;fill-rule:nonzero;stroke:none"
                 inkscape:connector-curvature="0"
                 d="m 25.418,20.13 c 0,0.746 -0.484,1.348 -1.082,1.348 -0.598,0 -1.082,-0.602 -1.082,-1.348 0,-0.746 0.484,-1.352 1.082,-1.352 0.598,0 1.082,0.605 1.082,1.352 m 0,0"
                 id="path3064" />
              <path
                 style="fill:#000000;fill-opacity:1;fill-rule:nonzero;stroke:none"
                 inkscape:connector-curvature="0"
                 d="m 25.09,13.215 c -1.598,0 -2.902,1.891 -3.063,4.301 -0.508,-2.273 -1.875,-3.91 -3.512,-3.91 -1.914,0 -3.465,2.23 -3.688,5.102 0.082,0.004 0.168,0.023 0.25,0.023 l 13.08,0 c 0.02,-0.234 0.047,-0.469 0.047,-0.711 0,-2.652 -1.402,-4.805 -3.113,-4.805 m -0.004,0"
                 id="path3066" />
              <path
                 style="fill:#000000;fill-opacity:1;fill-rule:nonzero;stroke:none"
                 inkscape:connector-curvature="0"
                 d="m 21.797,20.523 c 0,0.746 -0.484,1.352 -1.082,1.352 -0.598,0 -1.082,-0.605 -1.082,-1.352 0,-0.746 0.484,-1.348 1.082,-1.348 0.598,0 1.082,0.602 1.082,1.348 m 0,0"
                 id="path3068" />
              <g
                 clip-path="url(#clip1)"
                 id="g3070">
                <g
                   clip-path="url(#clip2)"
                   id="g3072">
                  <path
                     style="fill:#000000;stroke:#452f58;stroke-width:1;stroke-linecap:butt;stroke-linejoin:miter;stroke-miterlimit:4;stroke-opacity:1"
                     inkscape:connector-curvature="0"
                     d="m 42.86,13.195 2.947,-2.586 3.234,3.521 3.525,-3.165 3.238,3.887 4.315,-3.887 3.164,2.374 2.301,-2.299 2.73,1.981"
                     transform="matrix(0.791266,0,0,0.735645,-19.855015,20.551191)"
                     stroke-miterlimit="4"
                     id="path3074" />
                </g>
              </g>
            </g>
          </g>
        </g>
      </g>
    </g>
    <g
       id="g3076"
       transform="translate(1.7827251,1004.3539)">
      <g
         clip-path="url(#clipPath-013008175)"
         id="g3078">
        <!-- color: #474747 -->
        <g
           id="g3080">
          <path
             style="fill:#009900;fill-opacity:1;fill-rule:nonzero;stroke:#452f58;stroke-width:0.40900001;stroke-linecap:butt;stroke-linejoin:miter;stroke-miterlimit:4;stroke-opacity:1"
             inkscape:connector-curvature="0"
             d="M 4.468,9.273 C 4.687,9.405 4.916,9.525 5.149,9.632 5.286,9.695 5.426,9.754 5.569,9.801 6.302,10.047 7.114,9.983 7.862,9.78 8.012,9.74 8.16,9.694 8.303,9.643 8.766,9.48 9.215,9.245 9.534,8.878 9.695,8.694 9.822,8.479 9.891,8.244 9.958,8.01 9.968,7.756 9.904,7.521 9.861,7.364 9.786,7.217 9.7,7.078 9.561,6.856 9.395,6.65 9.191,6.487 8.987,6.324 8.745,6.205 8.487,6.162 8.383,6.142 8.275,6.14 8.174,6.108 8.123,6.094 8.077,6.072 8.034,6.041 7.991,6.01 7.955,5.968 7.933,5.92 7.9,5.847 7.903,5.761 7.921,5.683 7.94,5.605 7.973,5.531 8.001,5.455 8.138,5.081 8.13,4.66 8.001,4.283 7.954,4.147 7.892,4.015 7.804,3.903 7.716,3.787 7.601,3.695 7.468,3.642 7.303,3.576 7.111,3.58 6.941,3.638 6.771,3.695 6.622,3.804 6.502,3.939 6.455,3.992 6.413,4.048 6.363,4.098 6.312,4.148 6.253,4.191 6.183,4.205 6.121,4.218 6.061,4.212 6,4.194 5.872,4.159 5.763,4.083 5.655,4.007 5.547,3.931 5.436,3.854 5.31,3.814 5.146,3.763 4.964,3.783 4.805,3.854 4.647,3.927 4.516,4.045 4.418,4.185 4.22,4.465 4.15,4.818 4.105,5.156 4.062,5.468 4.031,5.791 4.116,6.095 4.138,6.18 4.17,6.264 4.194,6.347 4.219,6.432 4.237,6.519 4.235,6.607 4.224,6.771 4.134,6.92 4.03,7.051 3.931,7.181 3.815,7.306 3.74,7.452 3.629,7.681 3.63,7.957 3.707,8.202 3.812,8.523 4.038,8.786 4.264,9.038 4.353,9.137 4.445,9.235 4.536,9.332"
             transform="scale(3.543307,3.543307)"
             stroke-miterlimit="4"
             id="path3082" />
          <path
             style="fill:#66cc33;fill-opacity:1;fill-rule:nonzero;stroke:none"
             inkscape:connector-curvature="0"
             d="m 28.02,21.297 c -0.656,1.426 -1.723,2.367 -2.941,2.367 -1.078,0 -2.027,-0.754 -2.695,-1.91 -0.605,2.41 -2.109,4.113 -3.883,4.113 -1.23,0 -2.328,-0.828 -3.09,-2.137 -1.199,1.109 -1.926,2.473 -1.926,3.93 0,3.781 4.734,6.828 10.582,6.828 5.848,0 10.582,-3.047 10.582,-6.828 0,-2.879 -2.738,-5.355 -6.625,-6.367 m -0.004,0.004"
             id="path3084" />
          <path
             style="fill:#f9f9f9;fill-opacity:1;fill-rule:nonzero;stroke:none"
             inkscape:connector-curvature="0"
             d="m 20.313,14.344 c 0.129,0.113 0.258,0.242 0.375,0.375 -0.121,-0.133 -0.242,-0.262 -0.375,-0.375 m 2.688,0.125 c -0.121,0.172 -0.238,0.363 -0.344,0.563 0.105,-0.203 0.223,-0.387 0.344,-0.563 m -1.531,1.469 c 0.105,0.215 0.199,0.449 0.281,0.688 -0.086,-0.238 -0.176,-0.469 -0.281,-0.688 m -6.25,0.75 c -0.105,0.309 -0.172,0.633 -0.25,0.969 0.07,-0.34 0.148,-0.66 0.25,-0.969 m -0.25,0.969 c -0.121,0.551 -0.219,1.137 -0.219,1.75 0,3.203 1.684,5.781 3.75,5.781 1.965,0 3.563,-2.336 3.719,-5.313 0.477,1.727 1.59,2.938 2.875,2.938 1.555,0 2.809,-1.754 3.03,-4.063 l -13.06,0 c -0.082,0 -0.172,-0.027 -0.25,-0.031 0.027,-0.359 0.086,-0.723 0.156,-1.063 m 6.813,-0.906 c 0.078,0.238 0.164,0.496 0.223,0.75 -0.063,-0.262 -0.141,-0.508 -0.223,-0.75 m 0,0"
             id="path3086" />
          <path
             style="fill:#705ba1;fill-opacity:1;fill-rule:nonzero;stroke:none"
             inkscape:connector-curvature="0"
             d="m 25.418,20.13 c 0,0.746 -0.484,1.348 -1.082,1.348 -0.598,0 -1.082,-0.602 -1.082,-1.348 0,-0.746 0.484,-1.352 1.082,-1.352 0.598,0 1.082,0.605 1.082,1.352 m 0,0"
             id="path3088" />
          <path
             style="fill:#66cc33;fill-opacity:1;fill-rule:nonzero;stroke:none"
             inkscape:connector-curvature="0"
             d="m 25.09,13.215 c -1.598,0 -2.902,1.891 -3.063,4.301 -0.508,-2.273 -1.875,-3.91 -3.512,-3.91 -1.914,0 -3.465,2.23 -3.688,5.102 0.082,0.004 0.168,0.023 0.25,0.023 l 13.08,0 c 0.02,-0.234 0.047,-0.469 0.047,-0.711 0,-2.652 -1.402,-4.805 -3.113,-4.805 m -0.004,0"
             id="path3090" />
          <path
             style="fill:#705ba1;fill-opacity:1;fill-rule:nonzero;stroke:none"
             inkscape:connector-curvature="0"
             d="m 21.797,20.523 c 0,0.746 -0.484,1.352 -1.082,1.352 -0.598,0 -1.082,-0.605 -1.082,-1.352 0,-0.746 0.484,-1.348 1.082,-1.348 0.598,0 1.082,0.602 1.082,1.348 m 0,0"
             id="path3092" />
          <g
             clip-path="url(#clip1)"
             id="g3094">
            <g
               clip-path="url(#clip2)"
               id="g3096">
              <path
                 style="fill:none;stroke:#452f58;stroke-width:1;stroke-linecap:butt;stroke-linejoin:miter;stroke-miterlimit:4;stroke-opacity:1"
                 inkscape:connector-curvature="0"
                 d="m 42.86,13.195 2.947,-2.586 3.234,3.521 3.525,-3.165 3.238,3.887 4.315,-3.887 3.164,2.374 2.301,-2.299 2.73,1.981"
                 transform="matrix(0.791266,0,0,0.735645,-19.855015,20.551191)"
                 stroke-miterlimit="4"
                 id="path3098" />
            </g>
          </g>
        </g>
      </g>
    </g>
  </g>
</svg>
