<?xml version="1.0" encoding="UTF-8" standalone="no"?>
<!-- Created with Inkscape (http://www.inkscape.org/) -->

<svg
   xmlns:dc="http://purl.org/dc/elements/1.1/"
   xmlns:cc="http://creativecommons.org/ns#"
   xmlns:rdf="http://www.w3.org/1999/02/22-rdf-syntax-ns#"
   xmlns:svg="http://www.w3.org/2000/svg"
   xmlns="http://www.w3.org/2000/svg"
   xmlns:xlink="http://www.w3.org/1999/xlink"
   xmlns:sodipodi="http://sodipodi.sourceforge.net/DTD/sodipodi-0.dtd"
   xmlns:inkscape="http://www.inkscape.org/namespaces/inkscape"
   width="48"
   height="48"
   id="svg2"
   version="1.1"
   inkscape:version="0.48.4 r9939"
   sodipodi:docname="gambas3.svg">
  <defs
     id="defs4">
    <linearGradient
       id="linearGradient3792">
      <stop
         style="stop-color:#d32f2f;stop-opacity:1;"
         offset="0"
         id="stop3794" />
      <stop
         style="stop-color:#da5050;stop-opacity:1;"
         offset="1"
         id="stop3796" />
    </linearGradient>
    <linearGradient
       inkscape:collect="always"
       xlink:href="#linearGradient3792"
       id="linearGradient3798"
       x1="24"
       y1="1050.3622"
       x2="24"
       y2="1006.3622"
       gradientUnits="userSpaceOnUse" />
  </defs>
  <sodipodi:namedview
     id="base"
     pagecolor="#ffffff"
     bordercolor="#666666"
     borderopacity="1.0"
     inkscape:pageopacity="0.0"
     inkscape:pageshadow="2"
     inkscape:zoom="8.1906536"
     inkscape:cx="8.3301615"
     inkscape:cy="15.556123"
     inkscape:document-units="px"
     inkscape:current-layer="layer1"
     showgrid="true"
     inkscape:snap-bbox="true"
     inkscape:window-width="1301"
     inkscape:window-height="744"
     inkscape:window-x="65"
     inkscape:window-y="24"
     inkscape:window-maximized="1">
    <inkscape:grid
       type="xygrid"
       id="grid2985"
       empspacing="6"
       visible="true"
       enabled="true"
       snapvisiblegridlinesonly="true" />
  </sodipodi:namedview>
  <metadata
     id="metadata7">
    <rdf:RDF>
      <cc:Work
         rdf:about="">
        <dc:format>image/svg+xml</dc:format>
        <dc:type
           rdf:resource="http://purl.org/dc/dcmitype/StillImage" />
        <dc:title />
      </cc:Work>
    </rdf:RDF>
  </metadata>
  <g
     inkscape:label="Layer 1"
     inkscape:groupmode="layer"
     id="layer1"
     transform="translate(0,-1004.3622)">
    <path
       id="path3788"
       d="m 24,1051.1116 c -21.2715315,0 -23.66257505,-0.089 -23.9375,-15.4063 0.328125,14.4033 2.9375,14.4063 23.9375,14.4063 21,0 23.609375,0 23.9375,-14.4063 -0.274925,15.3174 -2.665968,15.4063 -23.9375,15.4063 z"
       style="opacity:0.20000000000000001;fill:#ffffff;fill-opacity:1;stroke:none"
       inkscape:connector-curvature="0" />
    <path
       style="fill:url(#linearGradient3798);fill-opacity:1;stroke:none"
       d="m 24,1006.3622 c -24,0 -24,0 -24,22 0,22 0,22 24,22 24,0 24,0 24,-22 0,-22 0,-22 -24,-22 z"
       id="path3757"
       inkscape:connector-curvature="0"
       sodipodi:nodetypes="zzzzz" />
    <path
       style="fill:#000000;fill-opacity:1;stroke:none;opacity:0.20000000000000001"
       d="M 24 2 C 2.7284685 2 0.33742495 2.0888436 0.0625 17.40625 C 0.390625 3.0029297 3 3 24 3 C 45 3 47.609375 3.0029297 47.9375 17.40625 C 47.662575 2.0888436 45.271532 2 24 2 z "
       transform="translate(0,1004.3622)"
       id="path3770" />
    <path
       id="path3771"
       d="m 29.498516,1018.8622 c -0.104601,0.01 -0.19291,0.024 -0.25,0.031 -0.532834,0 -1.100465,0.1269 -1.65625,0.375 -0.360568,0.1657 -0.701579,0.4017 -1.0625,0.625 -0.172283,-0.093 -0.354306,-0.2188 -0.5,-0.2188 -0.107278,0 -0.259825,-7e-4 -0.46875,0.125 -0.208925,0.1257 -0.406283,0.4737 -0.40625,0.7188 -7e-6,0.1182 0.04265,0.1824 0.0625,0.2812 -0.208247,0.1579 -0.395759,0.3035 -0.625,0.5 a 0.74112936,0.74112936 0 0 0 -0.03125,0 c -0.362365,0.3221 -0.698041,0.6667 -1.03125,1 a 0.74112936,0.74112936 0 0 0 0,0.031 c -0.353638,0.3671 -0.660674,0.7102 -0.9375,1.0625 -0.260318,0.3314 -0.507357,0.6686 -0.71875,1.0625 -0.0072,0.013 -0.02423,0.018 -0.03125,0.031 -0.136059,0.2433 -0.138479,0.3162 -0.15625,0.375 -0.0013,0 0.0018,0.027 0,0.031 -0.08173,0.1809 -0.164479,0.3085 -0.21875,0.4062 a 0.74112936,0.74112936 0 0 0 0,0.031 c -0.0084,0.017 -0.137897,0.1854 -0.28125,0.375 -0.0079,0.01 0.0082,0.021 0,0.031 -0.193661,0.2473 -0.351313,0.4732 -0.46875,0.7188 -0.0037,0.01 0.0036,0.024 0,0.031 -0.145918,0.3056 -0.218756,0.6316 -0.21875,0.9375 -8e-6,0.2579 0.04814,0.504 0.125,0.75 0.06422,0.2055 0.168238,0.4928 0.3125,0.7813 0.127511,0.2551 0.241982,0.4295 0.375,0.5625 a 0.74112936,0.74112936 0 0 0 0.0625,0.031 c 0.277698,0.2304 0.557917,0.2813 0.8125,0.2813 0.314534,0 0.381143,-0.058 0.625,-0.125 0.246998,-0.068 0.458686,-0.1528 0.5625,-0.1875 0.770395,-0.2656 1.476454,-0.5826 2.15625,-1.0313 0.287067,-0.1895 0.667955,-0.535 1,-0.7812 -0.112973,0.1702 -0.318203,0.4114 -0.40625,0.5625 -1.822823,0.9006 -3.667348,1.9407 -5.53125,3.1875 -0.37122,0.2528 -0.747434,0.6096 -1.21875,1.0937 -0.303565,0.3036 -0.529644,0.5227 -0.6875,0.6563 a 0.74112936,0.74112936 0 0 0 -0.03125,0 c -0.171346,0.1485 -0.417361,0.3688 -0.8125,0.6562 -0.652552,0.4862 -1.122085,0.9071 -1.4375,1.25 l 0,0.031 c -0.234811,0.2516 -0.55296,0.6004 -0.875,1.125 -0.0057,0.01 0.0057,0.022 0,0.031 -0.214767,0.33 -0.388685,0.6068 -0.46875,0.7188 a 0.74112936,0.74112936 0 0 0 -0.03125,0.062 c -0.02349,0.039 -0.0533,0.044 -0.125,0.125 -0.188386,0.2151 -0.334089,0.4253 -0.46875,0.6562 -0.145357,0.249 -0.249998,0.5622 -0.25,0.8438 10e-7,0.433 0.215971,0.954 0.625,1.25 l 0,0.031 c 0.0058,0 0.0254,-0 0.03125,0 0.01137,0.01 0.01979,0.024 0.03125,0.031 0.374251,0.2418 0.803184,0.3437 1.21875,0.3437 0.702177,0 1.418077,-0.1345 2.125,-0.4375 0.687116,-0.2945 1.304458,-0.6983 1.90625,-1.1562 0.586442,-0.4334 1.119491,-0.8845 1.59375,-1.3438 l 0.03125,0 c 0.463481,-0.4386 1.026035,-0.9823 1.6875,-1.6562 a 0.74112936,0.74112936 0 0 0 0,-0.031 c 0.326373,-0.3385 0.497654,-0.4661 0.59375,-0.5625 a 0.74112936,0.74112936 0 0 0 0,-0.031 c 0.411935,-0.4376 0.714127,-0.753 0.90625,-1 a 0.74112936,0.74112936 0 0 0 0,-0.031 c 0.108721,-0.1413 0.33096,-0.3886 0.65625,-0.75 0.439715,-0.4915 0.755201,-0.9054 0.96875,-1.2187 0.191963,-0.2805 0.421174,-0.6751 0.65625,-1.2188 0.0047,-0.011 -0.0047,-0.02 0,-0.031 0.215872,-0.4791 0.39646,-0.795 0.53125,-1 0.215077,-0.101 0.429204,-0.1916 0.78125,-0.3438 0.160503,-0.064 0.291902,-0.1418 0.40625,-0.1875 0.0068,-0 0.02434,0 0.03125,0 0.199291,-0.072 0.451451,-0.1603 0.78125,-0.3125 l 0,-0.031 c 0.284845,-0.1189 0.533358,-0.285 0.84375,-0.5 0.360656,-0.2622 0.642946,-0.3233 0.5625,-0.3125 a 0.74112936,0.74112936 0 0 0 0.25,-0.094 l 0.125,-0.062 c 0.0013,-7e-4 0.135905,-0.072 0.34375,-0.1562 0.0095,-0 0.02178,0 0.03125,0 0.343738,-0.1299 0.665122,-0.2618 0.96875,-0.4063 0.28954,-0.1378 0.538287,-0.2827 0.75,-0.5 0.0163,-0.017 0.04659,-0.014 0.0625,-0.031 l 0,-0.031 c 0.02588,-0.035 0.02611,-0.046 0.03125,-0.062 0.01167,-0.039 0.109741,-0.1572 0.09375,-0.125 l -0.03125,-0.031 c 0.09856,-0.1447 0.21868,-0.2828 0.21875,-0.5 a 0.74112936,0.74112936 0 0 0 0,-0.094 c -0.02019,-0.1815 -0.132242,-0.4244 -0.34375,-0.5937 -0.198095,-0.1585 -0.410296,-0.1837 -0.5625,-0.1875 -0.01031,-3e-4 -0.02153,-0.031 -0.03125,-0.031 l -0.03125,0 a 0.74112936,0.74112936 0 0 0 -0.0625,0 0.74112936,0.74112936 0 0 0 -0.1875,0.031 0.74112936,0.74112936 0 0 0 -0.03125,0.031 c -0.149539,0.04 -0.240867,0.049 -0.40625,0.125 l 0,0.031 c -0.197479,0.081 -0.380342,0.1566 -0.53125,0.2187 -0.32774,0.1288 -0.49873,0.1909 -0.65625,0.25 -0.240262,0.087 -0.464222,0.1581 -0.6875,0.25 0.177022,-0.2298 0.354434,-0.4413 0.5625,-0.7187 0.320196,-0.4404 0.567423,-0.8328 0.75,-1.125 0.220565,-0.3446 0.406174,-0.4941 0.40625,-1 -3.2e-5,-0.2146 -0.114582,-0.4161 -0.25,-0.625 l 0.0625,-0.031 c -0.01044,-0.018 -0.04959,-0.014 -0.0625,-0.031 -0.01569,-0.022 -0.01342,-0.041 -0.03125,-0.062 l -0.03125,0.031 c -0.188114,-0.2165 -0.501833,-0.4375 -0.75,-0.4375 -0.19681,0 -0.398863,0.1279 -0.59375,0.1875 0.254851,-0.1914 0.531542,-0.3793 0.71875,-0.625 0.296579,-0.3839 0.468727,-0.8413 0.46875,-1.3125 -10e-6,-0.2145 -0.01395,-0.4234 -0.09375,-0.6562 -0.0798,-0.233 -0.266118,-0.5003 -0.5,-0.6563 -0.391008,-0.2605 -0.8026,-0.3125 -1.25,-0.3125 l -0.3125,0 a 0.74112936,0.74112936 0 0 0 -0.0625,0 z m -3.03125,4.0313 c 0.09735,0.071 0.14182,0.1984 0.25,0.25 a 0.74112936,0.74112936 0 0 0 0,0.031 c 0.313335,0.1425 0.701613,0.2812 1.15625,0.2813 0.350667,0 0.672228,-0.092 1,-0.1875 -0.06235,0.043 -0.123805,0.082 -0.1875,0.125 a 0.74112936,0.74112936 0 0 0 -0.03125,0.031 c -0.409782,0.2857 -0.799128,0.5654 -1.1875,0.875 -0.0067,0.01 -0.02458,-0.01 -0.03125,0 -0.36932,0.2836 -0.67537,0.5576 -0.90625,0.75 a 0.74112936,0.74112936 0 0 0 -0.03125,0 c -0.120616,0.1076 -0.258692,0.2624 -0.46875,0.4375 -0.616801,0.52 -1.16189,0.9189 -1.59375,1.2188 -0.365672,0.2612 -0.770962,0.4346 -1.21875,0.5625 l 0,0.031 c -0.07707,0.024 -0.08813,0.04 -0.125,0.062 0.01319,-0.1265 0.0084,-0.2608 0.03125,-0.375 a 0.74112936,0.74112936 0 0 0 0,-0.031 c 0.04943,-0.2572 0.131457,-0.4242 0.21875,-0.5625 a 0.74112936,0.74112936 0 0 0 0,-0.031 c 0.415414,-0.6923 0.965811,-1.4058 1.625,-2.125 a 0.74112936,0.74112936 0 0 0 0.03125,0 c 0.516301,-0.5726 0.981887,-0.9719 1.46875,-1.3437 z m -3.25,9.5625 c -0.07495,0.1327 -0.161854,0.2464 -0.25,0.4062 -0.20925,0.3854 -0.388139,0.6295 -0.5,0.75 a 0.74112936,0.74112936 0 0 0 -0.03125,0 c -1.076667,1.2112 -2.082846,2.1906 -3.03125,2.9375 -0.646351,0.5154 -1.405605,0.8166 -2.15625,1.125 0.0502,-0.075 0.07237,-0.1027 0.125,-0.1875 a 0.74112936,0.74112936 0 0 0 0,-0.031 c 0.264378,-0.4327 0.459622,-0.7022 0.5625,-0.8125 a 0.74112936,0.74112936 0 0 0 0.03125,0 c 0.189039,-0.2069 0.611405,-0.5818 1.21875,-1.0313 0.421536,-0.3161 0.709515,-0.5769 0.875,-0.7187 0.20657,-0.177 0.45955,-0.397 0.75,-0.6875 0.413963,-0.4255 0.73364,-0.7194 0.9375,-0.875 0.007,-0.01 0.02455,-0.026 0.03125,-0.031 0.296003,-0.2035 1.014264,-0.5822 1.4375,-0.8437 z"
       style="font-size:36px;font-style:normal;font-variant:normal;font-weight:500;font-stretch:normal;text-align:center;line-height:100%;letter-spacing:0px;word-spacing:0px;writing-mode:lr-tb;text-anchor:middle;fill:#000000;fill-opacity:1;stroke:none;font-family:Cezanne;-inkscape-font-specification:Cezanne Medium;opacity:0.1"
       inkscape:connector-curvature="0" />
    <path
       style="font-size:36px;font-style:normal;font-variant:normal;font-weight:500;font-stretch:normal;text-align:center;line-height:100%;letter-spacing:0px;word-spacing:0px;writing-mode:lr-tb;text-anchor:middle;fill:#ffffff;fill-opacity:1;stroke:none;font-family:Cezanne;-inkscape-font-specification:Cezanne Medium"
       d="M 28.25 13.25 C 28.145399 13.2572 28.05709 13.27435 28 13.28125 C 27.467166 13.28125 26.899535 13.40825 26.34375 13.65625 C 25.983182 13.82195 25.642171 14.05795 25.28125 14.28125 C 25.108967 14.18785 24.926944 14.0625 24.78125 14.0625 C 24.673972 14.0625 24.521425 14.0618 24.3125 14.1875 C 24.103575 14.3132 23.906217 14.66115 23.90625 14.90625 C 23.906243 15.02445 23.948905 15.0887 23.96875 15.1875 C 23.760503 15.3454 23.572991 15.491 23.34375 15.6875 A 0.74112936 0.74112936 0 0 0 23.3125 15.6875 C 22.950135 16.0096 22.614459 16.3542 22.28125 16.6875 A 0.74112936 0.74112936 0 0 0 22.28125 16.71875 C 21.927612 17.08585 21.620576 17.42895 21.34375 17.78125 C 21.083432 18.11265 20.836393 18.44985 20.625 18.84375 C 20.61784 18.85705 20.600774 18.8615 20.59375 18.875 C 20.457691 19.1183 20.455271 19.1912 20.4375 19.25 C 20.436243 19.2542 20.439315 19.27695 20.4375 19.28125 C 20.355767 19.46215 20.273021 19.5898 20.21875 19.6875 A 0.74112936 0.74112936 0 0 0 20.21875 19.71875 C 20.210378 19.73545 20.080853 19.90415 19.9375 20.09375 C 19.929637 20.10405 19.945656 20.1143 19.9375 20.125 C 19.743839 20.3723 19.586187 20.59815 19.46875 20.84375 C 19.46508 20.85135 19.472345 20.8673 19.46875 20.875 C 19.322832 21.1806 19.249994 21.5066 19.25 21.8125 C 19.249992 22.0704 19.298144 22.3165 19.375 22.5625 C 19.439222 22.768 19.543238 23.05525 19.6875 23.34375 C 19.815011 23.59885 19.929482 23.77325 20.0625 23.90625 A 0.74112936 0.74112936 0 0 0 20.125 23.9375 C 20.402698 24.1679 20.682917 24.21875 20.9375 24.21875 C 21.252034 24.21875 21.318643 24.16115 21.5625 24.09375 C 21.809498 24.02545 22.021186 23.94095 22.125 23.90625 C 22.895395 23.64065 23.601454 23.3237 24.28125 22.875 C 24.568317 22.6855 24.949205 22.33995 25.28125 22.09375 C 25.168277 22.26395 24.963047 22.50515 24.875 22.65625 C 23.052177 23.55685 21.207652 24.59695 19.34375 25.84375 C 18.97253 26.09655 18.596316 26.4534 18.125 26.9375 C 17.821435 27.2411 17.595356 27.46015 17.4375 27.59375 A 0.74112936 0.74112936 0 0 0 17.40625 27.59375 C 17.234904 27.74225 16.988889 27.9626 16.59375 28.25 C 15.941198 28.7362 15.471665 29.1571 15.15625 29.5 L 15.15625 29.53125 C 14.921439 29.78285 14.60329 30.13165 14.28125 30.65625 C 14.275563 30.66555 14.286958 30.6781 14.28125 30.6875 C 14.066483 31.0175 13.892565 31.29425 13.8125 31.40625 A 0.74112936 0.74112936 0 0 0 13.78125 31.46875 C 13.757758 31.50765 13.727954 31.51305 13.65625 31.59375 C 13.467864 31.80885 13.322161 32.0191 13.1875 32.25 C 13.042143 32.499 12.937502 32.81215 12.9375 33.09375 C 12.937501 33.52675 13.153471 34.04775 13.5625 34.34375 L 13.5625 34.375 C 13.568259 34.379 13.587904 34.3711 13.59375 34.375 C 13.60512 34.3827 13.613541 34.39885 13.625 34.40625 C 13.999251 34.64805 14.428184 34.75 14.84375 34.75 C 15.545927 34.75 16.261827 34.6155 16.96875 34.3125 C 17.655866 34.018 18.273208 33.61415 18.875 33.15625 C 19.461442 32.72285 19.994491 32.2718 20.46875 31.8125 L 20.5 31.8125 C 20.963481 31.3739 21.526035 30.83015 22.1875 30.15625 A 0.74112936 0.74112936 0 0 0 22.1875 30.125 C 22.513873 29.7865 22.685154 29.6589 22.78125 29.5625 A 0.74112936 0.74112936 0 0 0 22.78125 29.53125 C 23.193185 29.09365 23.495377 28.77825 23.6875 28.53125 A 0.74112936 0.74112936 0 0 0 23.6875 28.5 C 23.796221 28.3587 24.01846 28.1114 24.34375 27.75 C 24.783465 27.2585 25.098951 26.84455 25.3125 26.53125 C 25.504463 26.25075 25.733674 25.8562 25.96875 25.3125 C 25.973449 25.3016 25.964041 25.29225 25.96875 25.28125 C 26.184622 24.80215 26.36521 24.48625 26.5 24.28125 C 26.715077 24.18025 26.929204 24.0897 27.28125 23.9375 C 27.441753 23.8731 27.573152 23.7957 27.6875 23.75 C 27.694256 23.7476 27.711841 23.7525 27.71875 23.75 C 27.918041 23.6783 28.170201 23.5897 28.5 23.4375 L 28.5 23.40625 C 28.784845 23.28735 29.033358 23.12125 29.34375 22.90625 C 29.704406 22.64405 29.986696 22.58295 29.90625 22.59375 A 0.74112936 0.74112936 0 0 0 30.15625 22.5 L 30.28125 22.4375 C 30.282587 22.4368 30.417155 22.36565 30.625 22.28125 C 30.634515 22.27765 30.646776 22.28485 30.65625 22.28125 C 30.999988 22.15135 31.321372 22.0195 31.625 21.875 C 31.91454 21.7372 32.163287 21.5923 32.375 21.375 C 32.391304 21.3583 32.421587 21.36135 32.4375 21.34375 L 32.4375 21.3125 C 32.463379 21.277 32.463613 21.2669 32.46875 21.25 C 32.480424 21.2115 32.578491 21.0928 32.5625 21.125 L 32.53125 21.09375 C 32.629814 20.94905 32.74993 20.81095 32.75 20.59375 A 0.74112936 0.74112936 0 0 0 32.75 20.5 C 32.729811 20.3185 32.617758 20.07555 32.40625 19.90625 C 32.208155 19.74775 31.995954 19.72255 31.84375 19.71875 C 31.833444 19.71845 31.822217 19.6875 31.8125 19.6875 L 31.78125 19.6875 A 0.74112936 0.74112936 0 0 0 31.71875 19.6875 A 0.74112936 0.74112936 0 0 0 31.53125 19.71875 A 0.74112936 0.74112936 0 0 0 31.5 19.75 C 31.350461 19.7898 31.259133 19.7986 31.09375 19.875 L 31.09375 19.90625 C 30.896271 19.98715 30.713408 20.0629 30.5625 20.125 C 30.23476 20.2538 30.06377 20.3159 29.90625 20.375 C 29.665988 20.4623 29.442028 20.5331 29.21875 20.625 C 29.395772 20.3952 29.573184 20.18365 29.78125 19.90625 C 30.101446 19.46585 30.348673 19.07345 30.53125 18.78125 C 30.751815 18.43665 30.937424 18.28715 30.9375 17.78125 C 30.937468 17.56675 30.822918 17.36525 30.6875 17.15625 L 30.75 17.125 C 30.739561 17.1068 30.700413 17.11155 30.6875 17.09375 C 30.671807 17.07225 30.674076 17.05265 30.65625 17.03125 L 30.625 17.0625 C 30.436886 16.846 30.123167 16.625 29.875 16.625 C 29.67819 16.625 29.476137 16.7529 29.28125 16.8125 C 29.536101 16.6211 29.812792 16.4332 30 16.1875 C 30.296579 15.8036 30.468727 15.3462 30.46875 14.875 C 30.46874 14.6605 30.454798 14.45165 30.375 14.21875 C 30.295202 13.98575 30.108882 13.7185 29.875 13.5625 C 29.483992 13.302 29.0724 13.25 28.625 13.25 L 28.3125 13.25 A 0.74112936 0.74112936 0 0 0 28.25 13.25 z M 25.21875 17.28125 C 25.316097 17.35235 25.36057 17.47975 25.46875 17.53125 A 0.74112936 0.74112936 0 0 0 25.46875 17.5625 C 25.782085 17.705 26.170363 17.84365 26.625 17.84375 C 26.975667 17.84375 27.297228 17.75125 27.625 17.65625 C 27.562651 17.69925 27.501195 17.73825 27.4375 17.78125 A 0.74112936 0.74112936 0 0 0 27.40625 17.8125 C 26.996468 18.0982 26.607122 18.3779 26.21875 18.6875 C 26.212066 18.6928 26.194172 18.6822 26.1875 18.6875 C 25.81818 18.9711 25.51213 19.2451 25.28125 19.4375 A 0.74112936 0.74112936 0 0 0 25.25 19.4375 C 25.129384 19.5451 24.991308 19.6999 24.78125 19.875 C 24.164449 20.395 23.61936 20.79385 23.1875 21.09375 C 22.821828 21.35495 22.416538 21.52835 21.96875 21.65625 L 21.96875 21.6875 C 21.891684 21.7115 21.880615 21.7274 21.84375 21.75 C 21.856942 21.6235 21.852155 21.4892 21.875 21.375 A 0.74112936 0.74112936 0 0 0 21.875 21.34375 C 21.924425 21.08655 22.006457 20.91955 22.09375 20.78125 A 0.74112936 0.74112936 0 0 0 22.09375 20.75 C 22.509164 20.0577 23.059561 19.3442 23.71875 18.625 A 0.74112936 0.74112936 0 0 0 23.75 18.625 C 24.266301 18.0524 24.731887 17.65315 25.21875 17.28125 z M 21.96875 26.84375 C 21.8938 26.97645 21.806896 27.0902 21.71875 27.25 C 21.5095 27.6354 21.330611 27.8795 21.21875 28 A 0.74112936 0.74112936 0 0 0 21.1875 28 C 20.110833 29.2112 19.104654 30.1906 18.15625 30.9375 C 17.509899 31.4529 16.750645 31.7541 16 32.0625 C 16.050202 31.9875 16.072369 31.9598 16.125 31.875 A 0.74112936 0.74112936 0 0 0 16.125 31.84375 C 16.389378 31.41105 16.584622 31.14155 16.6875 31.03125 A 0.74112936 0.74112936 0 0 0 16.71875 31.03125 C 16.907789 30.82435 17.330155 30.4495 17.9375 30 C 18.359036 29.6839 18.647015 29.42305 18.8125 29.28125 C 19.01907 29.10425 19.27205 28.88425 19.5625 28.59375 C 19.976463 28.16825 20.29614 27.87435 20.5 27.71875 C 20.507022 27.71335 20.524548 27.6925 20.53125 27.6875 C 20.827253 27.484 21.545514 27.10525 21.96875 26.84375 z "
       transform="translate(0,1004.3622)"
       id="path3000" />
  </g>
</svg>
