<?xml version="1.0" encoding="UTF-8" standalone="no"?>
<!-- Created with Inkscape (http://www.inkscape.org/) -->

<svg
   xmlns:dc="http://purl.org/dc/elements/1.1/"
   xmlns:cc="http://creativecommons.org/ns#"
   xmlns:rdf="http://www.w3.org/1999/02/22-rdf-syntax-ns#"
   xmlns:svg="http://www.w3.org/2000/svg"
   xmlns="http://www.w3.org/2000/svg"
   xmlns:sodipodi="http://sodipodi.sourceforge.net/DTD/sodipodi-0.dtd"
   xmlns:inkscape="http://www.inkscape.org/namespaces/inkscape"
   width="48"
   height="48"
   id="svg2"
   version="1.1"
   inkscape:version="0.48.4 r9939"
   sodipodi:docname="gcstar.svg">
  <defs
     id="defs4">
    <clipPath
       id="clipPath-462767564">
      <g
         id="g3021"
         transform="translate(0,-1004.3622)">
        <path
           id="path3023"
           fill="#1890d0"
           transform="matrix(15.333333,0,0,11.5,414.99999,878.8622)"
           d="m -24 13 c 0 1.105 -0.672 2 -1.5 2 -0.828 0 -1.5 -0.895 -1.5 -2 0 -1.105 0.672 -2 1.5 -2 0.828 0 1.5 0.895 1.5 2 z" />
      </g>
    </clipPath>
  </defs>
  <sodipodi:namedview
     id="base"
     pagecolor="#ffffff"
     bordercolor="#666666"
     borderopacity="1.0"
     inkscape:pageopacity="0.0"
     inkscape:pageshadow="2"
     inkscape:zoom="11.583333"
     inkscape:cx="10.752673"
     inkscape:cy="21.976192"
     inkscape:document-units="px"
     inkscape:current-layer="layer1"
     showgrid="true"
     inkscape:snap-bbox="true"
     inkscape:window-width="1301"
     inkscape:window-height="744"
     inkscape:window-x="65"
     inkscape:window-y="24"
     inkscape:window-maximized="1"
     inkscape:snap-global="true"
     inkscape:object-nodes="true"
     inkscape:snap-nodes="false">
    <inkscape:grid
       type="xygrid"
       id="grid2985"
       empspacing="6"
       visible="true"
       enabled="true"
       snapvisiblegridlinesonly="true" />
  </sodipodi:namedview>
  <metadata
     id="metadata7">
    <rdf:RDF>
      <cc:Work
         rdf:about="">
        <dc:format>image/svg+xml</dc:format>
        <dc:type
           rdf:resource="http://purl.org/dc/dcmitype/StillImage" />
        <dc:title />
      </cc:Work>
    </rdf:RDF>
  </metadata>
  <g
     inkscape:label="Layer 1"
     inkscape:groupmode="layer"
     id="layer1"
     transform="translate(0,-1004.3622)">
    <path
       style="fill:#f59c60;fill-opacity:1;stroke:none"
       d="M 24 2 C 5.6607939 2 1.3640144 2.1840904 0.34375 12 C 0.028823257 15.029893 0 18.810939 0 24 C 0 46 0 46 24 46 C 48 46 48 46 48 24 C 48 18.810939 47.971177 15.029893 47.65625 12 C 46.635986 2.1840904 42.339206 2 24 2 z "
       transform="translate(0,1004.3622)"
       id="path3773" />
    <path
       style="fill:#000000;fill-opacity:1;stroke:none;opacity:0.20000000000000001"
       d="M 24 2 C 2.7284685 2 0.33742495 2.0888436 0.0625 17.40625 C 0.390625 3.0029297 3 3 24 3 C 45 3 47.609375 3.0029297 47.9375 17.40625 C 47.662575 2.0888436 45.271532 2 24 2 z "
       transform="translate(0,1004.3622)"
       id="path3770" />
    <path
       style="fill:#000000;fill-opacity:1;stroke:none;opacity:0.20000000000000001"
       d="M 24 2 C 7.2405624 2 2.2369698 2.0788791 0.71875 9.59375 C 2.3300781 2.5289866 7.5 2.53125 24 2.53125 C 40.5 2.53125 45.669922 2.5289866 47.28125 9.59375 C 45.76303 2.0788791 40.759438 2 24 2 z M 47.28125 9.59375 C 47.354492 9.9148756 47.409424 10.242768 47.46875 10.59375 C 47.41561 10.240351 47.346891 9.9186608 47.28125 9.59375 z M 0.71875 9.59375 C 0.65310868 9.9186608 0.58439008 10.240351 0.53125 10.59375 C 0.59057617 10.242768 0.64550781 9.9148756 0.71875 9.59375 z "
       transform="translate(0,1004.3622)"
       id="path3012" />
    <g
       id="g3032"
       transform="translate(48,1007.3622)" />
    <g
       id="g3042"
       transform="translate(-49.875,1002.6422)" />
    <g
       id="g3044"
       transform="translate(-1.4964605,1005.3087)">
      <g
         clip-path="url(#clipPath-462767564)"
         id="g3046">
        <g
           transform="translate(1,1)"
           id="g3048">
          <g
             style="opacity:0.1"
             id="g3050">
            <!-- color: #f6a56f -->
            <g
               id="g3052">
              <path
                 style="fill:#000000;fill-opacity:0.77600002;fill-rule:nonzero;stroke:none"
                 inkscape:connector-curvature="0"
                 d="m 16.969,25.406 c -0.195,-0.551 -0.098,-0.988 0.125,-1.375 1.078,-0.527 2.01,-0.371 2.969,-0.344 l 1.563,-5.156 c 0.348,-1.078 1.188,-2.129 3.03,-3.125 1.238,-0.633 3.715,-0.316 5,0.188 2.371,1.582 2.32,3.145 2.328,4.758 -0.09,3.148 -2.066,4.902 -3.172,5.398 -0.641,0.262 -2.461,0.227 -3.469,-0.688 l -1.063,0.125 0.688,0.969 c 0.27,0.383 0.523,0.895 0.656,1.344 -0.32,0.59 -0.734,0.629 -1.219,0.219 0,0 -0.344,-1.469 -0.563,-1.313 -0.52,1.988 -1.328,3.82 -2.191,5.688 -1.656,2.906 -3.656,0.906 -2.5,-0.156 0.281,-0.281 0.844,-1.188 0.656,-1.25 -0.191,-0.063 -1.531,-0.906 -1.531,-0.906 0,0 -0.969,0.938 -1.094,1.063 -1.191,1.156 -2.125,0.215 -1.469,-0.938 l 1.969,-1.594 1.313,-1.375 c 0.598,-0.871 0.684,-1.367 0.551,-2.031 -0.191,0.094 -1.926,0.563 -1.926,0.563 -0.348,0.242 -0.484,0.055 -0.652,-0.063 m 0,0"
                 id="path3054" />
              <path
                 style="fill:#000000;fill-opacity:1;fill-rule:nonzero;stroke:none"
                 inkscape:connector-curvature="0"
                 d="m 28,16.719 c -1.313,0.195 -2.488,1.711 -2.781,3.688 -0.332,2.258 0.637,4.246 2.156,4.469 1.52,0.227 3.01,-1.398 3.344,-3.656 0.332,-2.258 -0.633,-4.273 -2.156,-4.5 -0.191,-0.027 -0.375,-0.027 -0.563,0 m -0.094,2.625 c 0.074,-0.023 0.156,-0.027 0.219,0 0.254,0.109 0.281,0.586 0.063,1.094 -0.219,0.508 -0.621,0.828 -0.875,0.719 -0.254,-0.102 -0.281,-0.586 -0.063,-1.094 0.164,-0.379 0.43,-0.652 0.656,-0.719 m 1.969,0.375 c 0.262,0.086 0.355,0.598 0.188,1.125 -0.168,0.527 -0.551,0.867 -0.813,0.781 -0.262,-0.086 -0.324,-0.566 -0.156,-1.094 0.172,-0.527 0.52,-0.898 0.781,-0.813 m 0,0"
                 id="path3056" />
            </g>
          </g>
        </g>
      </g>
    </g>
    <path
       id="path3064"
       d="m 15.47254,1030.7147 c -0.195,-0.551 -0.098,-0.988 0.125,-1.375 1.077999,-0.527 2.009999,-0.371 2.968999,-0.344 l 1.563,-5.156 c 0.348,-1.078 1.188,-2.129 3.03,-3.125 1.238,-0.633 3.715,-0.316 5,0.188 2.371,1.582 2.320001,3.145 2.328,4.758 -0.09,3.148 -2.065999,4.902 -3.172,5.398 -0.641,0.262 -2.460999,0.227 -3.469,-0.688 l -1.063,0.125 0.688,0.969 c 0.27,0.383 0.523,0.895 0.656,1.344 -0.32,0.59 -0.734,0.629 -1.219,0.219 0,0 -0.344,-1.469 -0.563,-1.313 -0.52,1.988 -1.328,3.82 -2.191,5.688 -1.656,2.906 -3.656,0.906 -2.5,-0.156 0.281,-0.281 0.844,-1.188 0.656,-1.25 -0.191,-0.063 -1.531,-0.906 -1.531,-0.906 0,0 -0.969,0.938 -1.094,1.063 -1.191,1.156 -2.125,0.215 -1.468999,-0.938 l 1.968999,-1.594 1.313,-1.375 c 0.598,-0.871 0.684,-1.367 0.551,-2.031 -0.191,0.094 -1.926,0.563 -1.926,0.563 -0.348,0.242 -0.484,0.055 -0.652,-0.063 m 0,0"
       inkscape:connector-curvature="0"
       style="fill:#1e88e5;fill-opacity:0.77600002000000001;fill-rule:nonzero;stroke:none" />
    <path
       id="path3066"
       d="m 26.503539,1022.0277 c -1.313,0.195 -2.488,1.711 -2.781,3.688 -0.332,2.258 0.637,4.246 2.156,4.469 1.52,0.227 3.01,-1.398 3.344,-3.656 0.332,-2.258 -0.633,-4.273 -2.156,-4.5 -0.190999,-0.027 -0.375,-0.027 -0.562999,0 m -0.094,2.625 c 0.074,-0.023 0.156,-0.027 0.219001,0 0.254,0.109 0.280999,0.586 0.063,1.094 -0.219,0.508 -0.620999,0.828 -0.875,0.719 -0.254,-0.102 -0.280999,-0.586 -0.063,-1.094 0.164,-0.379 0.43,-0.652 0.655999,-0.719 m 1.969001,0.375 c 0.262,0.086 0.355,0.598 0.187999,1.125 -0.167999,0.527 -0.550999,0.867 -0.812999,0.781 -0.262,-0.086 -0.324001,-0.566 -0.156,-1.094 0.172,-0.527 0.52,-0.898 0.781,-0.813 m 0,0"
       inkscape:connector-curvature="0"
       style="fill:#fbdd4c;fill-opacity:1;fill-rule:nonzero;stroke:none" />
  </g>
</svg>
