<?xml version="1.0" encoding="UTF-8" standalone="no"?>
<!-- Created with Inkscape (http://www.inkscape.org/) -->

<svg
   xmlns:dc="http://purl.org/dc/elements/1.1/"
   xmlns:cc="http://creativecommons.org/ns#"
   xmlns:rdf="http://www.w3.org/1999/02/22-rdf-syntax-ns#"
   xmlns:svg="http://www.w3.org/2000/svg"
   xmlns="http://www.w3.org/2000/svg"
   xmlns:xlink="http://www.w3.org/1999/xlink"
   xmlns:sodipodi="http://sodipodi.sourceforge.net/DTD/sodipodi-0.dtd"
   xmlns:inkscape="http://www.inkscape.org/namespaces/inkscape"
   width="48"
   height="48"
   id="svg2"
   version="1.1"
   inkscape:version="0.48.4 r9939"
   sodipodi:docname="gensgs.svg">
  <defs
     id="defs4">
    <linearGradient
       id="linearGradient3894">
      <stop
         style="stop-color:#367ed7;stop-opacity:1;"
         offset="0"
         id="stop3896" />
      <stop
         style="stop-color:#3691d7;stop-opacity:1;"
         offset="1"
         id="stop3898" />
    </linearGradient>
    <linearGradient
       gradientTransform="matrix(0,-1,1,0,-1.5e-6,47.999998)"
       gradientUnits="userSpaceOnUse"
       x2="47"
       x1="1"
       id="linearGradient3764-7">
      <stop
         id="stop3005"
         stop-opacity="1"
         stop-color="#327bd6" />
      <stop
         id="stop3007"
         stop-opacity="1"
         stop-color="#4488d9"
         offset="1" />
    </linearGradient>
    <linearGradient
       inkscape:collect="always"
       xlink:href="#linearGradient3894"
       id="linearGradient3900"
       x1="24"
       y1="1050.3622"
       x2="24"
       y2="1006.3622"
       gradientUnits="userSpaceOnUse" />
  </defs>
  <sodipodi:namedview
     id="base"
     pagecolor="#ffffff"
     bordercolor="#666666"
     borderopacity="1.0"
     inkscape:pageopacity="0.0"
     inkscape:pageshadow="2"
     inkscape:zoom="11.583333"
     inkscape:cx="25.76403"
     inkscape:cy="17.667588"
     inkscape:document-units="px"
     inkscape:current-layer="layer1"
     showgrid="true"
     inkscape:snap-bbox="true"
     inkscape:window-width="1301"
     inkscape:window-height="744"
     inkscape:window-x="65"
     inkscape:window-y="24"
     inkscape:window-maximized="1"
     inkscape:snap-nodes="false">
    <inkscape:grid
       type="xygrid"
       id="grid2985"
       empspacing="6"
       visible="true"
       enabled="true"
       snapvisiblegridlinesonly="true" />
  </sodipodi:namedview>
  <metadata
     id="metadata7">
    <rdf:RDF>
      <cc:Work
         rdf:about="">
        <dc:format>image/svg+xml</dc:format>
        <dc:type
           rdf:resource="http://purl.org/dc/dcmitype/StillImage" />
        <dc:title />
      </cc:Work>
    </rdf:RDF>
  </metadata>
  <g
     inkscape:label="Layer 1"
     inkscape:groupmode="layer"
     id="layer1"
     transform="translate(0,-1004.3622)">
    <path
       id="path3788"
       d="m 24,1051.1116 c -21.2715315,0 -23.66257505,-0.089 -23.9375,-15.4063 0.328125,14.4033 2.9375,14.4063 23.9375,14.4063 21,0 23.609375,0 23.9375,-14.4063 -0.274925,15.3174 -2.665968,15.4063 -23.9375,15.4063 z"
       style="opacity:0.20000000000000001;fill:#ffffff;fill-opacity:1;stroke:none"
       inkscape:connector-curvature="0" />
    <path
       style="fill:url(#linearGradient3900);fill-opacity:1;stroke:none"
       d="m 24,1006.3622 c -24,0 -24,0 -24,22 0,22 0,22 24,22 24,0 24,0 24,-22 0,-22 0,-22 -24,-22 z"
       id="path3757"
       inkscape:connector-curvature="0"
       sodipodi:nodetypes="zzzzz" />
    <path
       style="fill:#000000;fill-opacity:1;stroke:none;opacity:0.20000000000000001"
       d="M 24 2 C 2.7284685 2 0.33742495 2.0888436 0.0625 17.40625 C 0.390625 3.0029297 3 3 24 3 C 45 3 47.609375 3.0029297 47.9375 17.40625 C 47.662575 2.0888436 45.271532 2 24 2 z "
       transform="translate(0,1004.3622)"
       id="path3770" />
    <g
       id="g3031"
       transform="translate(-50.998,1005.3622)" />
    <path
       style="opacity:0.1;fill:#000000;fill-opacity:1;fill-rule:nonzero;stroke:none"
       inkscape:connector-curvature="0"
       d="m 35.438,1023.3572 c -1.156,0 -2.133,0.703 -2.531,1.688 l -1,3.063 0,-4.594 -4.875,0 c -0.879,0 -1.668,0.348 -2.25,0.938 l 0,-0.938 -5,0 c -0.93,0 -1.785,0.418 -2.375,1.063 l 0,-1.063 -4.688,0 c -2.031,0 -3.715,1.641 -3.719,3.813 0,1.012 0.438,1.918 1.063,2.594 l -1.063,0 0,4.441 4.75,0 c 1.332,0 2.637,-0.848 3.094,-1.848 l 0.031,-0.027 c 0.531,1.105 1.625,1.875 2.906,1.875 l 5,0 0,-0.973 c 0.586,0.594 1.367,0.973 2.25,0.973 l 13.969,0 -3,-9.316 c -0.41,-0.988 -1.402,-1.688 -2.563,-1.688 m -0.313,0.781 c 0.109,-0.016 0.199,0 0.313,0 0.902,0 1.676,0.555 1.906,1.344 l 2.625,8.094 -5.063,0 0,-1.281 3.344,0 -2.156,-6.594 c -0.105,-0.258 -0.367,-0.438 -0.656,-0.438 -0.289,0 -0.52,0.207 -0.625,0.469 l -2.594,7.844 -5.188,0 c -1.387,0 -2.5,-1.16 -2.5,-2.594 l 0,-4.125 c 0,-1.434 1.113,-2.594 2.5,-2.594 l 4.156,0 0,1.313 -4.156,0 c -0.691,0 -1.25,0.563 -1.25,1.281 l 0,4.125 c 0,0.719 0.59,1.313 1.281,1.313 l 2.844,0 0,-3.531 -2.281,0 0,-1.273 3.563,0 0,5.148 2.375,-7.148 c 0.203,-0.691 0.809,-1.23 1.563,-1.352 m -22.438,0.125 4,0 0,1.316 -4,0 c -0.934,0 -1.688,0.785 -1.688,1.75 0,0.969 0.75,1.75 1.688,1.75 l 1.031,0 c 0.773,0 1.406,0.672 1.406,1.469 0,0.801 -0.633,1.441 -1.406,1.441 l -4,0 0,-1.281 4,0 c 0.078,0 0.156,-0.074 0.156,-0.156 0,-0.082 -0.078,-0.156 -0.156,-0.156 l -1.031,0 c -1.633,0 -2.969,-1.371 -2.969,-3.063 0,-1.691 1.336,-3.066 2.969,-3.066 m 7.094,0 4.281,0 0,1.316 -4.281,0 c -0.695,0 -1.25,0.578 -1.25,1.281 l 0,4.125 c 0,0.727 0.555,1.313 1.25,1.313 l 4.25,0 0,1.281 -4.25,0 c -1.391,0 -2.5,-1.16 -2.5,-2.594 l 0,-4.125 c 0,-1.438 1.109,-2.598 2.5,-2.598 m 15.656,1.316 c 0.18,0 0.352,0.117 0.406,0.281 l 2,6.125 -2.938,0 0,-1.156 -0.906,2.75 -1.469,0 2.531,-7.719 c 0.055,-0.164 0.195,-0.281 0.375,-0.281 m -22.75,0.313 4,0 0,1.281 -4,0 c -0.082,0 -0.156,0.07 -0.156,0.156 0,0.086 0.074,0.156 0.156,0.156 l 1.031,0 c 1.637,0 2.969,1.371 2.969,3.063 0,1.688 -1.332,3.063 -2.969,3.063 l -4,0 0,-1.313 4,0 c 0.938,0 1.719,-0.785 1.719,-1.75 0,-0.965 -0.781,-1.75 -1.719,-1.75 l -1.031,-0.031 c -0.773,0 -1.406,-0.637 -1.406,-1.438 0,-0.797 0.633,-1.441 1.406,-1.441 m 7.094,0 4.281,0 0,1.281 -3.691,0 c -0.297,0 -0.277,0.316 -0.277,0.316 l 3.063,0 0,1.277 -4.313,0 0,-1.902 c 0,-0.547 0.402,-0.973 0.938,-0.973 m 7.25,0 4.156,0 0,1.281 -3.566,0 c -0.297,0.01 -0.277,0.316 -0.277,0.316 l 0,2.902 c 0,0.168 0.121,0.316 0.277,0.316 l 0.75,0 0,-0.316 -0.75,0 0,-1.313 2,0 0,2.906 -2.594,0 c -0.531,0 -0.938,-0.449 -0.938,-1 l 0,-4.125 c 0,-0.551 0.406,-0.973 0.938,-0.973 m -8.188,3.191 4.313,0 0,1.313 -3.063,0 c 0.004,0.309 0.281,0.316 0.281,0.316 l 3.656,0 0,1.281 -4.25,0 c -0.527,0 -0.938,-0.453 -0.938,-1 m 16.594,-1.785 -0.441,1.344 0.875,0 m -0.438,-1.344"
       id="path3914" />
    <path
       id="path3055"
       d="m 34.438,1022.3622 c -1.156,0 -2.133,0.703 -2.531,1.688 l -1,3.063 0,-4.594 -4.875,0 c -0.879,0 -1.668,0.348 -2.25,0.938 l 0,-0.938 -5,0 c -0.93,0 -1.785,0.418 -2.375,1.063 l 0,-1.063 -4.688,0 c -2.031,0 -3.715,1.641 -3.719,3.813 0,1.012 0.438,1.918 1.063,2.594 l -1.063,0 0,4.441 4.75,0 c 1.332,0 2.637,-0.848 3.094,-1.848 l 0.031,-0.027 c 0.531,1.105 1.625,1.875 2.906,1.875 l 5,0 0,-0.973 c 0.586,0.594 1.367,0.973 2.25,0.973 l 13.969,0 -3,-9.316 c -0.41,-0.988 -1.402,-1.688 -2.563,-1.688 m -0.313,0.781 c 0.109,-0.016 0.199,0 0.313,0 0.902,0 1.676,0.555 1.906,1.344 l 2.625,8.094 -5.063,0 0,-1.281 3.344,0 -2.156,-6.594 c -0.105,-0.258 -0.367,-0.438 -0.656,-0.438 -0.289,0 -0.52,0.207 -0.625,0.469 l -2.594,7.844 -5.188,0 c -1.387,0 -2.5,-1.16 -2.5,-2.594 l 0,-4.125 c 0,-1.434 1.113,-2.594 2.5,-2.594 l 4.156,0 0,1.313 -4.156,0 c -0.691,0 -1.25,0.563 -1.25,1.281 l 0,4.125 c 0,0.719 0.59,1.313 1.281,1.313 l 2.844,0 0,-3.531 -2.281,0 0,-1.273 3.563,0 0,5.148 2.375,-7.148 c 0.203,-0.691 0.809,-1.23 1.563,-1.352 m -22.438,0.125 4,0 0,1.316 -4,0 c -0.934,0 -1.688,0.785 -1.688,1.75 0,0.969 0.75,1.75 1.688,1.75 l 1.031,0 c 0.773,0 1.406,0.672 1.406,1.469 0,0.801 -0.633,1.441 -1.406,1.441 l -4,0 0,-1.281 4,0 c 0.078,0 0.156,-0.074 0.156,-0.156 0,-0.082 -0.078,-0.156 -0.156,-0.156 l -1.031,0 c -1.633,0 -2.969,-1.371 -2.969,-3.063 0,-1.691 1.336,-3.066 2.969,-3.066 m 7.094,0 4.281,0 0,1.316 -4.281,0 c -0.695,0 -1.25,0.578 -1.25,1.281 l 0,4.125 c 0,0.727 0.555,1.313 1.25,1.313 l 4.25,0 0,1.281 -4.25,0 c -1.391,0 -2.5,-1.16 -2.5,-2.594 l 0,-4.125 c 0,-1.438 1.109,-2.598 2.5,-2.598 m 15.656,1.316 c 0.18,0 0.352,0.117 0.406,0.281 l 2,6.125 -2.938,0 0,-1.156 -0.906,2.75 -1.469,0 2.531,-7.719 c 0.055,-0.164 0.195,-0.281 0.375,-0.281 m -22.75,0.313 4,0 0,1.281 -4,0 c -0.082,0 -0.156,0.07 -0.156,0.156 0,0.086 0.074,0.156 0.156,0.156 l 1.031,0 c 1.637,0 2.969,1.371 2.969,3.063 0,1.688 -1.332,3.063 -2.969,3.063 l -4,0 0,-1.313 4,0 c 0.938,0 1.719,-0.785 1.719,-1.75 0,-0.965 -0.781,-1.75 -1.719,-1.75 l -1.031,-0.031 c -0.773,0 -1.406,-0.637 -1.406,-1.438 0,-0.797 0.633,-1.441 1.406,-1.441 m 7.094,0 4.281,0 0,1.281 -3.691,0 c -0.297,0 -0.277,0.316 -0.277,0.316 l 3.063,0 0,1.277 -4.313,0 0,-1.902 c 0,-0.547 0.402,-0.973 0.938,-0.973 m 7.25,0 4.156,0 0,1.281 -3.566,0 c -0.297,0.01 -0.277,0.316 -0.277,0.316 l 0,2.902 c 0,0.168 0.121,0.316 0.277,0.316 l 0.75,0 0,-0.316 -0.75,0 0,-1.313 2,0 0,2.906 -2.594,0 c -0.531,0 -0.938,-0.449 -0.938,-1 l 0,-4.125 c 0,-0.551 0.406,-0.973 0.938,-0.973 m -8.188,3.191 4.313,0 0,1.313 -3.063,0 c 0.004,0.309 0.281,0.316 0.281,0.316 l 3.656,0 0,1.281 -4.25,0 c -0.527,0 -0.938,-0.453 -0.938,-1 m 16.594,-1.785 -0.441,1.344 0.875,0 m -0.438,-1.344"
       inkscape:connector-curvature="0"
       style="fill:#ffffff;fill-opacity:1;fill-rule:nonzero;stroke:none" />
  </g>
</svg>
