<?xml version="1.0" encoding="UTF-8" standalone="no"?>
<!-- Created with Inkscape (http://www.inkscape.org/) -->

<svg
   xmlns:dc="http://purl.org/dc/elements/1.1/"
   xmlns:cc="http://creativecommons.org/ns#"
   xmlns:rdf="http://www.w3.org/1999/02/22-rdf-syntax-ns#"
   xmlns:svg="http://www.w3.org/2000/svg"
   xmlns="http://www.w3.org/2000/svg"
   xmlns:xlink="http://www.w3.org/1999/xlink"
   xmlns:sodipodi="http://sodipodi.sourceforge.net/DTD/sodipodi-0.dtd"
   xmlns:inkscape="http://www.inkscape.org/namespaces/inkscape"
   width="48"
   height="48"
   id="svg2"
   version="1.1"
   inkscape:version="0.48.4 r9939"
   sodipodi:docname="chrome-bnbaboaihhkjoaolfnfoablhllahjnee-Default.svg">
  <defs
     id="defs4">
    <linearGradient
       id="linearGradient3775">
      <stop
         style="stop-color:#5e5364;stop-opacity:1;"
         offset="0"
         id="stop3777" />
      <stop
         style="stop-color:#604c6b;stop-opacity:1;"
         offset="1"
         id="stop3779" />
    </linearGradient>
    <linearGradient
       inkscape:collect="always"
       xlink:href="#linearGradient3775"
       id="linearGradient3781"
       x1="24"
       y1="1006.3622"
       x2="24"
       y2="1050.3622"
       gradientUnits="userSpaceOnUse" />
  </defs>
  <sodipodi:namedview
     id="base"
     pagecolor="#ffffff"
     bordercolor="#666666"
     borderopacity="1.0"
     inkscape:pageopacity="0.0"
     inkscape:pageshadow="2"
     inkscape:zoom="11.583333"
     inkscape:cx="20.373216"
     inkscape:cy="22.967927"
     inkscape:document-units="px"
     inkscape:current-layer="layer1"
     showgrid="true"
     inkscape:snap-bbox="true"
     inkscape:window-width="1301"
     inkscape:window-height="744"
     inkscape:window-x="65"
     inkscape:window-y="24"
     inkscape:window-maximized="1"
     inkscape:object-nodes="true"
     inkscape:snap-nodes="true">
    <inkscape:grid
       type="xygrid"
       id="grid3003"
       empspacing="6"
       visible="true"
       enabled="true"
       snapvisiblegridlinesonly="true" />
  </sodipodi:namedview>
  <metadata
     id="metadata7">
    <rdf:RDF>
      <cc:Work
         rdf:about="">
        <dc:format>image/svg+xml</dc:format>
        <dc:type
           rdf:resource="http://purl.org/dc/dcmitype/StillImage" />
        <dc:title />
      </cc:Work>
    </rdf:RDF>
  </metadata>
  <g
     inkscape:label="Layer 1"
     inkscape:groupmode="layer"
     id="layer1"
     transform="translate(0,-1004.3622)">
    <path
       id="path3788"
       d="m 24,1051.1116 c -21.2715315,0 -23.66257505,-0.089 -23.9375,-15.4063 0.328125,14.4033 2.9375,14.4063 23.9375,14.4063 21,0 23.609375,0 23.9375,-14.4063 -0.274925,15.3174 -2.665968,15.4063 -23.9375,15.4063 z"
       style="opacity:0.20000000000000001;fill:#ffffff;fill-opacity:1;stroke:none"
       inkscape:connector-curvature="0" />
    <path
       style="fill:url(#linearGradient3781);fill-opacity:1;stroke:none"
       d="m 24,1050.3622 c -24,0 -24,0 -24,-22 0,-22 0,-22 24,-22 24,0 24,0 24,22 0,22 0,22 -24,22 z"
       id="path3757"
       inkscape:connector-curvature="0"
       sodipodi:nodetypes="zzzzz" />
    <path
       style="fill:#000000;fill-opacity:1;stroke:none;opacity:0.20000000000000001"
       d="M 24 2 C 2.7284685 2 0.33742495 2.0888436 0.0625 17.40625 C 0.390625 3.0029297 3 3 24 3 C 45 3 47.609375 3.0029297 47.9375 17.40625 C 47.662575 2.0888436 45.271532 2 24 2 z "
       transform="translate(0,1004.3622)"
       id="path3770" />
    <g
       id="g3813"
       transform="translate(-47.998,993.3622)" />
    <path
       sodipodi:type="arc"
       style="opacity:0.22222222;fill:none;fill-opacity:1;stroke:#ffffff;stroke-opacity:1;stroke-width:0.80000000000000004;stroke-miterlimit:4;stroke-dasharray:0.80000000000000004, 0.80000000000000004;stroke-dashoffset:0"
       id="path3006"
       sodipodi:cx="24"
       sodipodi:cy="24"
       sodipodi:rx="12"
       sodipodi:ry="12"
       d="m 36,24 c 0,6.627417 -5.372583,12 -12,12 -6.627417,0 -12,-5.372583 -12,-12 0,-6.627417 5.372583,-12 12,-12 6.627417,0 12,5.372583 12,12 z"
       transform="matrix(1.25,0,0,1.25,-6,998.3622)" />
    <path
       transform="matrix(1.5833334,0,0,1.5833334,-14.000001,990.3622)"
       d="m 36,24 c 0,6.627417 -5.372583,12 -12,12 -6.627417,0 -12,-5.372583 -12,-12 0,-6.627417 5.372583,-12 12,-12 6.627417,0 12,5.372583 12,12 z"
       sodipodi:ry="12"
       sodipodi:rx="12"
       sodipodi:cy="24"
       sodipodi:cx="24"
       id="path3776"
       style="fill:none;stroke:#ffffff;stroke-width:0.63157892;stroke-miterlimit:4;stroke-opacity:1;stroke-dasharray:0.63157892,0.63157892;stroke-dashoffset:0;opacity:0.37860082000000000"
       sodipodi:type="arc" />
    <path
       transform="matrix(0.897482,0,0,0.91666667,2.4604319,1006.3622)"
       d="m 36,24 a 12,12 0 1 1 -24,0 12,12 0 1 1 24,0 z"
       sodipodi:ry="12"
       sodipodi:rx="12"
       sodipodi:cy="24"
       sodipodi:cx="24"
       id="path3783"
       style="opacity:0.22222224;fill:none;stroke:#ffffff;stroke-width:1.10250711;stroke-miterlimit:4;stroke-opacity:1;stroke-dasharray:1.10250713, 1.10250713;stroke-dashoffset:0"
       sodipodi:type="arc" />
    <path
       sodipodi:type="arc"
       style="opacity:0.22222224;fill:none;stroke:#ffffff;stroke-width:1.84615386;stroke-miterlimit:4;stroke-opacity:1;stroke-dasharray:1.84615385, 1.84615385;stroke-dashoffset:0"
       id="path3785"
       sodipodi:cx="24"
       sodipodi:cy="24"
       sodipodi:rx="12"
       sodipodi:ry="12"
       d="m 36,24 a 12,12 0 1 1 -24,0 12,12 0 1 1 24,0 z"
       transform="matrix(0.54166666,0,0,0.54166667,11,1015.3622)" />
    <path
       sodipodi:type="arc"
       style="fill:#29b6f6;fill-opacity:1;stroke:none"
       id="path3787"
       sodipodi:cx="23.5"
       sodipodi:cy="22.5"
       sodipodi:rx="1.5"
       sodipodi:ry="1.5"
       d="m 25,22.5 a 1.5,1.5 0 1 1 -3,0 1.5,1.5 0 1 1 3,0 z"
       transform="translate(-4.5,1009.9112)" />
    <path
       transform="matrix(1.3333339,0,0,1.3333331,1.6666541,1004.3622)"
       d="m 25,22.5 a 1.5,1.5 0 1 1 -3,0 1.5,1.5 0 1 1 3,0 z"
       sodipodi:ry="1.5"
       sodipodi:rx="1.5"
       sodipodi:cy="22.5"
       sodipodi:cx="23.5"
       id="path3789"
       style="fill:#80d8ff;fill-opacity:1;stroke:none"
       sodipodi:type="arc" />
    <path
       sodipodi:type="arc"
       style="fill:#e57373;fill-opacity:1;stroke:none"
       id="path3791"
       sodipodi:cx="23.5"
       sodipodi:cy="22.5"
       sodipodi:rx="1.5"
       sodipodi:ry="1.5"
       d="m 25,22.5 a 1.5,1.5 0 1 1 -3,0 1.5,1.5 0 1 1 3,0 z"
       transform="matrix(2,0,0,1.9999942,-24.000001,968.36232)" />
    <path
       transform="matrix(2,0,0,1.9999942,-37,996.36234)"
       d="m 25,22.5 a 1.5,1.5 0 1 1 -3,0 1.5,1.5 0 1 1 3,0 z"
       sodipodi:ry="1.5"
       sodipodi:rx="1.5"
       sodipodi:cy="22.5"
       sodipodi:cx="23.5"
       id="path3793"
       style="fill:#ffa726;fill-opacity:1;stroke:none"
       sodipodi:type="arc" />
  </g>
</svg>
