<?xml version="1.0" encoding="UTF-8" standalone="no"?>
<!-- Created with Inkscape (http://www.inkscape.org/) -->

<svg
   xmlns:dc="http://purl.org/dc/elements/1.1/"
   xmlns:cc="http://creativecommons.org/ns#"
   xmlns:rdf="http://www.w3.org/1999/02/22-rdf-syntax-ns#"
   xmlns:svg="http://www.w3.org/2000/svg"
   xmlns="http://www.w3.org/2000/svg"
   xmlns:xlink="http://www.w3.org/1999/xlink"
   xmlns:sodipodi="http://sodipodi.sourceforge.net/DTD/sodipodi-0.dtd"
   xmlns:inkscape="http://www.inkscape.org/namespaces/inkscape"
   width="48"
   height="48"
   id="svg2"
   version="1.1"
   inkscape:version="0.48.4 r9939"
   sodipodi:docname="gmusicbrowser.svg">
  <sodipodi:namedview
     id="base"
     pagecolor="#ffffff"
     bordercolor="#666666"
     borderopacity="1.0"
     inkscape:pageopacity="0.0"
     inkscape:pageshadow="2"
     inkscape:zoom="8.1906533"
     inkscape:cx="-7.0039384"
     inkscape:cy="25.756457"
     inkscape:document-units="px"
     inkscape:current-layer="layer1"
     showgrid="true"
     inkscape:snap-bbox="true"
     inkscape:window-width="1301"
     inkscape:window-height="744"
     inkscape:window-x="65"
     inkscape:window-y="24"
     inkscape:window-maximized="1"
     inkscape:snap-global="true">
    <inkscape:grid
       snapvisiblegridlinesonly="true"
       enabled="true"
       visible="true"
       empspacing="6"
       id="grid2985"
       type="xygrid" />
  </sodipodi:namedview>
  <defs
     id="defs4">
    <linearGradient
       inkscape:collect="always"
       id="linearGradient3791">
      <stop
         style="stop-color:#f3f3f3;stop-opacity:1;"
         offset="0"
         id="stop3793" />
      <stop
         style="stop-color:#f3f3f3;stop-opacity:0;"
         offset="1"
         id="stop3795" />
    </linearGradient>
    <linearGradient
       id="linearGradient3771">
      <stop
         id="stop3773"
         offset="0"
         style="stop-color:#0288d1;stop-opacity:1;" />
      <stop
         id="stop3775"
         offset="1"
         style="stop-color:#09a7fd;stop-opacity:1;" />
    </linearGradient>
    <linearGradient
       inkscape:collect="always"
       xlink:href="#linearGradient3771"
       id="linearGradient4307"
       gradientUnits="userSpaceOnUse"
       x1="24"
       y1="1050.3622"
       x2="24"
       y2="1006.3622" />
    <linearGradient
       inkscape:collect="always"
       xlink:href="#linearGradient3791"
       id="linearGradient3797"
       x1="36"
       y1="24"
       x2="30"
       y2="18"
       gradientUnits="userSpaceOnUse" />
    <linearGradient
       inkscape:collect="always"
       xlink:href="#linearGradient3791"
       id="linearGradient3806"
       gradientUnits="userSpaceOnUse"
       x1="36"
       y1="24"
       x2="30"
       y2="18" />
    <linearGradient
       inkscape:collect="always"
       xlink:href="#linearGradient3791"
       id="linearGradient3809"
       gradientUnits="userSpaceOnUse"
       x1="36"
       y1="24"
       x2="30"
       y2="18"
       gradientTransform="matrix(0,-1,1,0,0,1052.3622)" />
  </defs>
  <metadata
     id="metadata7">
    <rdf:RDF>
      <cc:Work
         rdf:about="">
        <dc:format>image/svg+xml</dc:format>
        <dc:type
           rdf:resource="http://purl.org/dc/dcmitype/StillImage" />
        <dc:title />
      </cc:Work>
    </rdf:RDF>
  </metadata>
  <g
     transform="translate(0,-1004.3622)"
     id="layer1"
     inkscape:groupmode="layer"
     inkscape:label="Layer 1">
    <path
       inkscape:connector-curvature="0"
       style="opacity:0.20000000000000001;fill:#ffffff;fill-opacity:1;stroke:none"
       d="m 24,1051.1116 c -21.2715315,0 -23.66257505,-0.089 -23.9375,-15.4063 0.328125,14.4033 2.9375,14.4063 23.9375,14.4063 21,0 23.609375,0 23.9375,-14.4063 -0.274925,15.3174 -2.665968,15.4063 -23.9375,15.4063 z"
       id="path3788" />
    <path
       sodipodi:nodetypes="zzzzz"
       inkscape:connector-curvature="0"
       id="path3757"
       d="m 24,1006.3622 c -24,0 -24,0 -24,22 0,22 0,22 24,22 24,0 24,0 24,-22 0,-22 0,-22 -24,-22 z"
       style="fill:url(#linearGradient4307);fill-opacity:1;stroke:none" />
    <path
       id="path3770"
       transform="translate(0,1004.3622)"
       d="M 24 2 C 2.7284685 2 0.33742495 2.0888436 0.0625 17.40625 C 0.390625 3.0029297 3 3 24 3 C 45 3 47.609375 3.0029297 47.9375 17.40625 C 47.662575 2.0888436 45.271532 2 24 2 z "
       style="fill:#000000;fill-opacity:1;stroke:none;opacity:0.20000000000000001" />
    <path
       id="path3012"
       transform="translate(0,1004.3622)"
       d="M 24 2 C 7.2405624 2 2.2369698 2.0788791 0.71875 9.59375 C 2.3300781 2.5289866 7.5 2.53125 24 2.53125 C 40.5 2.53125 45.669922 2.5289866 47.28125 9.59375 C 45.76303 2.0788791 40.759438 2 24 2 z M 47.28125 9.59375 C 47.354492 9.9148756 47.409424 10.242768 47.46875 10.59375 C 47.41561 10.240351 47.346891 9.9186608 47.28125 9.59375 z M 0.71875 9.59375 C 0.65310868 9.9186608 0.58439008 10.240351 0.53125 10.59375 C 0.59057617 10.242768 0.64550781 9.9148756 0.71875 9.59375 z "
       style="fill:#000000;fill-opacity:1;stroke:none;opacity:0.20000000000000001" />
    <g
       transform="translate(48,1007.3622)"
       id="g3032" />
    <path
       sodipodi:type="arc"
       style="opacity:0.43209881;fill:#f3f3f3;fill-opacity:1;stroke:none"
       id="path3015"
       sodipodi:cx="24"
       sodipodi:cy="24"
       sodipodi:rx="12"
       sodipodi:ry="12"
       d="m 36,24 a 12,12 0 1 1 -24,0 12,12 0 1 1 24,0 z"
       transform="matrix(0,-1,1,0,0,1052.3622)" />
    <path
       inkscape:connector-curvature="0"
       style="opacity:0.43209881;fill:url(#linearGradient3809);fill-opacity:1;stroke:none"
       d="m 12,1028.3622 12,0 0,-12 c -6.627417,0 -12,5.3726 -12,12 z"
       id="path3020" />
    <path
       sodipodi:nodetypes="cccc"
       inkscape:connector-curvature="0"
       id="path3812"
       d="m 19,1023.3622 0,12 12,-6 z"
       style="opacity:0.2;fill:#000000;fill-opacity:1;stroke:none" />
    <path
       style="opacity:1;fill:#f3f3f3;fill-opacity:1;stroke:none"
       d="m 18,18 0,12 12,-6 z"
       transform="translate(0,1004.3622)"
       id="rect3799"
       inkscape:connector-curvature="0"
       sodipodi:nodetypes="cccc" />
  </g>
</svg>
