<?xml version="1.0" encoding="UTF-8" standalone="no"?>
<!-- Created with Inkscape (http://www.inkscape.org/) -->

<svg
   xmlns:dc="http://purl.org/dc/elements/1.1/"
   xmlns:cc="http://creativecommons.org/ns#"
   xmlns:rdf="http://www.w3.org/1999/02/22-rdf-syntax-ns#"
   xmlns:svg="http://www.w3.org/2000/svg"
   xmlns="http://www.w3.org/2000/svg"
   xmlns:xlink="http://www.w3.org/1999/xlink"
   xmlns:sodipodi="http://sodipodi.sourceforge.net/DTD/sodipodi-0.dtd"
   xmlns:inkscape="http://www.inkscape.org/namespaces/inkscape"
   width="48"
   height="48"
   id="svg2"
   version="1.1"
   inkscape:version="0.48.4 r9939"
   sodipodi:docname="gmysqlcc.svg">
  <defs
     id="defs4">
    <linearGradient
       id="linearGradient3780">
      <stop
         style="stop-color:#00b0ff;stop-opacity:1;"
         offset="0"
         id="stop3782" />
      <stop
         style="stop-color:#8200c4;stop-opacity:1;"
         offset="1"
         id="stop3784" />
    </linearGradient>
    <linearGradient
       id="linearGradient3779">
      <stop
         style="stop-color:#000000;stop-opacity:1;"
         offset="0"
         id="stop3781" />
      <stop
         style="stop-color:#ffffff;stop-opacity:1;"
         offset="1"
         id="stop3783" />
    </linearGradient>
    <linearGradient
       inkscape:collect="always"
       xlink:href="#linearGradient3779"
       id="linearGradient3795"
       gradientUnits="userSpaceOnUse"
       gradientTransform="translate(-20,0)"
       spreadMethod="repeat"
       x1="24"
       y1="1028.3622"
       x2="45"
       y2="1007.3622" />
    <linearGradient
       inkscape:collect="always"
       xlink:href="#linearGradient3779"
       id="linearGradient3797"
       gradientUnits="userSpaceOnUse"
       gradientTransform="translate(-20,0)"
       spreadMethod="repeat"
       x1="44"
       y1="1048.3622"
       x2="15"
       y2="1019.3622" />
    <linearGradient
       inkscape:collect="always"
       xlink:href="#linearGradient3780"
       id="linearGradient3786"
       x1="24"
       y1="1050.3622"
       x2="24"
       y2="1006.3622"
       gradientUnits="userSpaceOnUse"
       gradientTransform="matrix(1,0,0,-1,0,2056.7244)" />
    <linearGradient
       gradientUnits="userSpaceOnUse"
       y2="84"
       x2="90"
       y1="18"
       x1="24"
       id="linearGradient3876"
       xlink:href="#linearGradient3870"
       inkscape:collect="always" />
    <linearGradient
       id="linearGradient3870"
       inkscape:collect="always">
      <stop
         id="stop3872"
         offset="0"
         style="stop-color:#000000;stop-opacity:1;" />
      <stop
         id="stop3874"
         offset="1"
         style="stop-color:#000000;stop-opacity:0;" />
    </linearGradient>
    <linearGradient
       inkscape:collect="always"
       xlink:href="#linearGradient3870"
       id="linearGradient3827"
       gradientUnits="userSpaceOnUse"
       x1="24"
       y1="18"
       x2="90"
       y2="84" />
    <linearGradient
       inkscape:collect="always"
       xlink:href="#linearGradient3870"
       id="linearGradient3834"
       gradientUnits="userSpaceOnUse"
       x1="24"
       y1="18"
       x2="90"
       y2="84"
       gradientTransform="matrix(0.49998752,0,0,0.49998752,-71.999401,1004.3616)" />
  </defs>
  <sodipodi:namedview
     id="base"
     pagecolor="#ffffff"
     bordercolor="#666666"
     borderopacity="1.0"
     inkscape:pageopacity="0.0"
     inkscape:pageshadow="2"
     inkscape:zoom="16.381307"
     inkscape:cx="17.92011"
     inkscape:cy="28.755128"
     inkscape:document-units="px"
     inkscape:current-layer="layer1"
     showgrid="true"
     inkscape:snap-bbox="true"
     inkscape:window-width="1301"
     inkscape:window-height="744"
     inkscape:window-x="65"
     inkscape:window-y="24"
     inkscape:window-maximized="1"
     inkscape:snap-global="false">
    <inkscape:grid
       type="xygrid"
       id="grid2985"
       empspacing="6"
       visible="true"
       enabled="true"
       snapvisiblegridlinesonly="true" />
  </sodipodi:namedview>
  <metadata
     id="metadata7">
    <rdf:RDF>
      <cc:Work
         rdf:about="">
        <dc:format>image/svg+xml</dc:format>
        <dc:type
           rdf:resource="http://purl.org/dc/dcmitype/StillImage" />
        <dc:title />
      </cc:Work>
    </rdf:RDF>
  </metadata>
  <g
     inkscape:label="Layer 1"
     inkscape:groupmode="layer"
     id="layer1"
     transform="translate(0,-1004.3622)">
    <path
       id="path3788"
       d="m 24,1051.1116 c -21.2715315,0 -23.66257505,-0.089 -23.9375,-15.4063 0.328125,14.4033 2.9375,14.4063 23.9375,14.4063 21,0 23.609375,0 23.9375,-14.4063 -0.274925,15.3174 -2.665968,15.4063 -23.9375,15.4063 z"
       style="opacity:0.20000000000000001;fill:#ffffff;fill-opacity:1;stroke:none"
       inkscape:connector-curvature="0" />
    <path
       style="fill:url(#linearGradient3786);fill-opacity:1;stroke:none"
       d="m 24,1050.3622 c -24,0 -24,0 -24,-22 0,-22 0,-22 24,-22 24,0 24,0 24,22 0,22 0,22 -24,22 z"
       id="path3757"
       inkscape:connector-curvature="0"
       sodipodi:nodetypes="zzzzz" />
    <g
       id="g3791"
       transform="translate(20,0)">
      <path
         style="opacity:0.02999998;fill:url(#linearGradient3795);fill-opacity:1;stroke:none"
         d="m 4,1006.3622 c -24,0 -24,0 -24,22 0,22 0,22 24,22 24,0 24,0 24,-22 0,-22 0,-22 -24,-22 z"
         id="path3777"
         inkscape:connector-curvature="0"
         sodipodi:nodetypes="zzzzz" />
      <path
         sodipodi:nodetypes="zzzzz"
         inkscape:connector-curvature="0"
         id="path3787"
         d="m 4,1006.3622 c -24,0 -24,0 -24,22 0,22 0,22 24,22 24,0 24,0 24,-22 0,-22 0,-22 -24,-22 z"
         style="opacity:0.02999998;fill:url(#linearGradient3797);fill-opacity:1;stroke:none" />
    </g>
    <path
       style="fill:#000000;fill-opacity:1;stroke:none;opacity:0.20000000000000001"
       d="M 24 2 C 2.7284685 2 0.33742495 2.0888436 0.0625 17.40625 C 0.390625 3.0029297 3 3 24 3 C 45 3 47.609375 3.0029297 47.9375 17.40625 C 47.662575 2.0888436 45.271532 2 24 2 z "
       transform="translate(0,1004.3622)"
       id="path3770" />
    <path
       style="fill:#000000;fill-opacity:1;stroke:none;opacity:0.20000000000000001"
       d="M 24 2 C 7.2405624 2 2.2369698 2.0788791 0.71875 9.59375 C 2.3300781 2.5289866 7.5 2.53125 24 2.53125 C 40.5 2.53125 45.669922 2.5289866 47.28125 9.59375 C 45.76303 2.0788791 40.759438 2 24 2 z M 47.28125 9.59375 C 47.354492 9.9148756 47.409424 10.242768 47.46875 10.59375 C 47.41561 10.240351 47.346891 9.9186608 47.28125 9.59375 z M 0.71875 9.59375 C 0.65310868 9.9186608 0.58439008 10.240351 0.53125 10.59375 C 0.59057617 10.242768 0.64550781 9.9148756 0.71875 9.59375 z "
       transform="translate(0,1004.3622)"
       id="path3012" />
    <g
       id="g3032"
       transform="translate(48,1007.3622)" />
    <path
       sodipodi:type="inkscape:offset"
       inkscape:radius="3.115068"
       inkscape:original="M 48 30 L 30 42 L 30 66 L 48 78 L 66 66 L 66 42 L 48 30 z "
       style="opacity:0.2;fill:#000000;fill-opacity:1;stroke:none"
       id="path3841"
       d="m 47.96875,26.875 a 3.1153795,3.1153795 0 0 0 -1.6875,0.53125 l -18,12 A 3.1153795,3.1153795 0 0 0 26.875,42 l 0,24 a 3.1153795,3.1153795 0 0 0 1.40625,2.59375 l 18,12 a 3.1153795,3.1153795 0 0 0 3.4375,0 l 18,-12 A 3.1153795,3.1153795 0 0 0 69.125,66 l 0,-24 a 3.1153795,3.1153795 0 0 0 -1.40625,-2.59375 l -18,-12 a 3.1153795,3.1153795 0 0 0 -1.75,-0.53125 z"
       transform="matrix(0.47337279,0,0,0.41549821,2.3158743,1007.215)" />
    <path
       transform="matrix(0.47337279,0,0,0.41549821,1.278106,1006.2383)"
       d="m 47.96875,26.875 a 3.1153795,3.1153795 0 0 0 -1.6875,0.53125 l -18,12 A 3.1153795,3.1153795 0 0 0 26.875,42 l 0,24 a 3.1153795,3.1153795 0 0 0 1.40625,2.59375 l 18,12 a 3.1153795,3.1153795 0 0 0 3.4375,0 l 18,-12 A 3.1153795,3.1153795 0 0 0 69.125,66 l 0,-24 a 3.1153795,3.1153795 0 0 0 -1.40625,-2.59375 l -18,-12 a 3.1153795,3.1153795 0 0 0 -1.75,-0.53125 z"
       id="path3774"
       style="fill:#ffffff;fill-opacity:1;stroke:none"
       inkscape:original="M 48 30 L 30 42 L 30 66 L 48 78 L 66 66 L 66 42 L 48 30 z "
       inkscape:radius="3.115068"
       sodipodi:type="inkscape:offset" />
    <path
       inkscape:connector-curvature="0"
       id="rect2999"
       d="m 24,1018.0538 -8.999775,5.3084 L 24,1028.6707 32.999775,1023.3622 24,1018.0538 z m -0.546861,2.8754 c 0.272579,-0.01 0.547932,0 0.828104,0.028 0.565358,0.056 1.13887,0.1782 1.703082,0.3733 0.564197,0.1951 1.092916,0.444 1.593711,0.7465 0.343386,0.2074 0.629832,0.4133 0.859353,0.5944 0.241682,0.1825 0.440782,0.3429 0.593735,0.4839 0.152932,0.141 0.267356,0.2586 0.343742,0.3594 0.08352,0.1051 0.141889,0.1788 0.171871,0.2212 l -1.187471,0.2212 c -0.124143,-0.1843 -0.316513,-0.3912 -0.57811,-0.6221 -0.249436,-0.2297 -0.555687,-0.4518 -0.906228,-0.6636 -0.765495,-0.4624 -1.520972,-0.7174 -2.265568,-0.7603 -0.732428,-0.042 -1.391124,0.1255 -1.984326,0.4839 -0.281526,0.17 -0.497339,0.354 -0.640609,0.5529 -0.131096,0.2002 -0.191983,0.3957 -0.17187,0.6083 0.02726,0.2169 0.144619,0.4511 0.328116,0.6774 0.19567,0.2275 0.480183,0.4483 0.859354,0.6773 0.23608,0.1426 0.443226,0.2618 0.624984,0.3595 0.186774,0.095 0.332842,0.1728 0.453114,0.2211 l 1.890578,-1.1335 1.343716,0.8156 -2.515562,1.5068 c -0.236285,-0.082 -0.605474,-0.2385 -1.109347,-0.47 -0.503885,-0.2315 -1.045483,-0.5209 -1.62496,-0.8709 -0.53656,-0.3242 -0.95832,-0.6545 -1.281218,-0.9953 -0.322903,-0.3409 -0.525832,-0.6794 -0.609359,-1.0092 -0.07638,-0.3255 -0.04013,-0.6329 0.124996,-0.94 0.165121,-0.3072 0.468861,-0.5929 0.906228,-0.8571 0.437361,-0.2642 0.914632,-0.4481 1.437464,-0.5392 0.264988,-0.043 0.5399,-0.062 0.81248,-0.069 z"
       style="fill:#dfe592;fill-opacity:1;stroke:none" />
    <path
       style="fill:#ffa560;fill-opacity:1;stroke:none"
       d="M 15.000225,1033.9791 24,1039.2876 l 0,-10.6169 -8.999775,-5.3085 z"
       id="path3002"
       inkscape:connector-curvature="0"
       sodipodi:nodetypes="ccccc" />
    <path
       sodipodi:nodetypes="ccccc"
       inkscape:connector-curvature="0"
       id="path3773"
       d="M 32.999775,1033.9791 24,1039.2876 l 0,-10.6169 8.999775,-5.3085 z"
       style="fill:#99dd92;fill-opacity:1;stroke:none" />
  </g>
</svg>
