<?xml version="1.0" encoding="UTF-8" standalone="no"?>
<!-- Created with Inkscape (http://www.inkscape.org/) -->

<svg
   xmlns:dc="http://purl.org/dc/elements/1.1/"
   xmlns:cc="http://creativecommons.org/ns#"
   xmlns:rdf="http://www.w3.org/1999/02/22-rdf-syntax-ns#"
   xmlns:svg="http://www.w3.org/2000/svg"
   xmlns="http://www.w3.org/2000/svg"
   xmlns:xlink="http://www.w3.org/1999/xlink"
   xmlns:sodipodi="http://sodipodi.sourceforge.net/DTD/sodipodi-0.dtd"
   xmlns:inkscape="http://www.inkscape.org/namespaces/inkscape"
   width="48"
   height="48"
   id="svg2"
   version="1.1"
   inkscape:version="0.48.4 r9939"
   sodipodi:docname="gnome-activity-journal.svg">
  <defs
     id="defs4">
    <linearGradient
       id="linearGradient3788">
      <stop
         style="stop-color:#ffb74d;stop-opacity:1;"
         offset="0"
         id="stop3790" />
      <stop
         style="stop-color:#ffc775;stop-opacity:1;"
         offset="1"
         id="stop3792" />
    </linearGradient>
    <linearGradient
       id="linearGradient3763">
      <stop
         style="stop-color:#000000;stop-opacity:1;"
         offset="0"
         id="stop3765" />
      <stop
         style="stop-color:#ffffff;stop-opacity:1;"
         offset="1"
         id="stop3767" />
    </linearGradient>
    <linearGradient
       inkscape:collect="always"
       xlink:href="#linearGradient3788"
       id="linearGradient3794"
       x1="24"
       y1="1050.3622"
       x2="24"
       y2="1006.3622"
       gradientUnits="userSpaceOnUse" />
    <linearGradient
       inkscape:collect="always"
       xlink:href="#linearGradient3763"
       id="linearGradient3806"
       gradientUnits="userSpaceOnUse"
       gradientTransform="translate(-40,0)"
       spreadMethod="repeat"
       x1="24"
       y1="1028.3622"
       x2="45"
       y2="1007.3622" />
    <linearGradient
       inkscape:collect="always"
       xlink:href="#linearGradient3763"
       id="linearGradient3808"
       gradientUnits="userSpaceOnUse"
       gradientTransform="translate(-40,0)"
       spreadMethod="repeat"
       x1="45"
       y1="1049.3622"
       x2="18"
       y2="1022.3622" />
  </defs>
  <sodipodi:namedview
     id="base"
     pagecolor="#ffffff"
     bordercolor="#666666"
     borderopacity="1.0"
     inkscape:pageopacity="0.0"
     inkscape:pageshadow="2"
     inkscape:zoom="8.1906533"
     inkscape:cx="16.412916"
     inkscape:cy="18.568709"
     inkscape:document-units="px"
     inkscape:current-layer="layer1"
     showgrid="true"
     inkscape:snap-bbox="true"
     inkscape:window-width="1301"
     inkscape:window-height="744"
     inkscape:window-x="65"
     inkscape:window-y="24"
     inkscape:window-maximized="1"
     inkscape:object-nodes="false"
     inkscape:snap-nodes="true">
    <inkscape:grid
       type="xygrid"
       id="grid3005"
       empspacing="6"
       visible="true"
       enabled="true"
       snapvisiblegridlinesonly="true" />
  </sodipodi:namedview>
  <metadata
     id="metadata7">
    <rdf:RDF>
      <cc:Work
         rdf:about="">
        <dc:format>image/svg+xml</dc:format>
        <dc:type
           rdf:resource="http://purl.org/dc/dcmitype/StillImage" />
        <dc:title />
      </cc:Work>
    </rdf:RDF>
  </metadata>
  <g
     inkscape:label="Layer 1"
     inkscape:groupmode="layer"
     id="layer1"
     transform="translate(0,-1004.3622)">
    <path
       id="path3788"
       d="m 24,1051.1116 c -21.2715315,0 -23.66257505,-0.089 -23.9375,-15.4063 0.328125,14.4033 2.9375,14.4063 23.9375,14.4063 21,0 23.609375,0 23.9375,-14.4063 -0.274925,15.3174 -2.665968,15.4063 -23.9375,15.4063 z"
       style="opacity:0.20000000000000001;fill:#ffffff;fill-opacity:1;stroke:none"
       inkscape:connector-curvature="0" />
    <path
       style="fill:url(#linearGradient3794);fill-opacity:1;stroke:none"
       d="m 24,1006.3622 c -24,0 -24,0 -24,22 0,22 0,22 24,22 24,0 24,0 24,-22 0,-22 0,-22 -24,-22 z"
       id="path3757"
       inkscape:connector-curvature="0"
       sodipodi:nodetypes="zzzzz" />
    <g
       id="g3802"
       transform="translate(40,0)">
      <path
         style="opacity:0.05;fill:url(#linearGradient3806);fill-opacity:1;stroke:none"
         d="m -16,1006.3622 c -24,0 -24,0 -24,22 0,22 0,22 24,22 24,0 24,0 24,-22 0,-22 0,-22 -24,-22 z"
         id="path3783"
         inkscape:connector-curvature="0"
         sodipodi:nodetypes="zzzzz" />
      <path
         sodipodi:nodetypes="zzzzz"
         inkscape:connector-curvature="0"
         id="path3795"
         d="m -16,1006.3622 c -24,0 -24,0 -24,22 0,22 0,22 24,22 24,0 24,0 24,-22 0,-22 0,-22 -24,-22 z"
         style="opacity:0.05;fill:url(#linearGradient3808);fill-opacity:1;stroke:none" />
    </g>
    <path
       style="fill:#000000;fill-opacity:1;stroke:none;opacity:0.20000000000000001"
       d="M 24 2 C 2.7284685 2 0.33742495 2.0888436 0.0625 17.40625 C 0.390625 3.0029297 3 3 24 3 C 45 3 47.609375 3.0029297 47.9375 17.40625 C 47.662575 2.0888436 45.271532 2 24 2 z "
       transform="translate(0,1004.3622)"
       id="path3770" />
    <g
       id="g3037"
       transform="translate(-46.998,1004.3622)" />
    <g
       id="g3808"
       transform="translate(-52.998,1013.3622)" />
    <path
       style="opacity:0.2;fill:#000000;fill-opacity:1;stroke:none"
       d="m 34,11 0,25 -19,0 0,1 20,0 0,-26 z"
       transform="translate(0,1004.3622)"
       id="rect3009"
       inkscape:connector-curvature="0"
       sodipodi:nodetypes="ccccccc" />
    <rect
       style="fill:#333333;fill-opacity:1;stroke:none"
       id="rect3002"
       width="20"
       height="21"
       x="14"
       y="1019.3622" />
    <rect
       style="fill:#b3b3b3;fill-opacity:1;stroke:none"
       id="rect3786"
       width="20"
       height="6"
       x="14"
       y="1014.3622" />
    <rect
       style="fill:#4d4d4d;fill-opacity:1;stroke:none"
       id="rect3776"
       width="17"
       height="1"
       x="16"
       y="1018.3622" />
    <rect
       y="1017.3622"
       x="16"
       height="1"
       width="17"
       id="rect3778"
       style="fill:#1a1a1a;fill-opacity:1;stroke:none" />
    <rect
       y="1016.3622"
       x="16"
       height="1"
       width="17"
       id="rect3780"
       style="fill:#4d4d4d;fill-opacity:1;stroke:none" />
    <rect
       style="fill:#1a1a1a;fill-opacity:1;stroke:none"
       id="rect3782"
       width="17"
       height="1"
       x="16"
       y="1015.3622" />
    <rect
       style="fill:#333333;fill-opacity:1;stroke:none"
       id="rect3788"
       width="1"
       height="4"
       x="33"
       y="1015.3622" />
    <path
       id="path3815"
       d="m 31.257967,1022.413 c -0.02797,0 -0.06253,0.012 -0.09375,0.031 -0.102186,0.063 -0.21359,0.2226 -0.3125,0.5 -0.175035,0.4911 -0.229724,1.2501 -0.1875,2.2812 0.02395,0.5138 0.06333,1.0097 0.125,1.4688 0.02892,0.2072 0.06059,0.3389 0.09375,0.5 -0.02246,0.02 -0.05598,0.043 -0.0625,0.062 l -0.1875,0.5625 c -0.112058,0.2764 -0.216335,0.4903 -0.28125,0.625 -0.149532,-0.1614 -0.204199,-0.3675 -0.21875,-0.625 -0.0098,-0.1792 -0.0012,-0.4189 0.03125,-0.7188 0.0021,-0.019 -0.01967,-0.047 -0.03125,-0.062 -0.01726,-0.012 -0.03128,0.012 -0.0625,0.031 -0.08232,0.05 -0.141981,0.098 -0.15625,0.1562 1.45e-4,0.072 0.0063,0.1295 0,0.1875 -0.03042,0.3303 -0.101163,0.6792 -0.21875,1.0313 -0.117065,0.3472 -0.215992,0.5346 -0.3125,0.5937 -0.03406,0.021 -0.06724,0.024 -0.09375,0 -0.03346,-0.034 -0.06298,-0.1111 -0.09375,-0.2187 -0.06228,-0.2329 -0.07325,-0.4978 -0.03125,-0.8125 0.03886,-0.2858 0.08867,-0.5536 0.1875,-0.7813 0.105556,-0.2408 0.215691,-0.3823 0.3125,-0.4687 0.0617,-0.056 0.115319,-0.07 0.15625,-0.031 0.03862,0.035 0.04656,0.088 0.03125,0.1563 -0.02353,0.046 -0.02136,0.071 0,0.094 0.02651,0.024 0.07107,0.033 0.125,0 0.03122,-0.019 0.04801,-0.058 0.0625,-0.094 0.05692,-0.1343 0.05442,-0.2604 -0.03125,-0.375 -0.06252,-0.084 -0.156357,-0.077 -0.28125,0 -0.04542,0.028 -0.09739,0.071 -0.15625,0.125 -0.380408,0.3489 -0.595436,0.8617 -0.625,1.5312 -0.0088,0 -0.01561,0.019 -0.03125,0.031 -0.05498,0.043 -0.056,0.058 -0.0625,0.094 -0.01614,0.1002 -0.04121,0.2136 -0.0625,0.3125 -0.114536,0.5444 -0.245923,0.8536 -0.375,0.9688 -0.03227,0.029 -0.0644,0.054 -0.09375,0.031 -0.01494,-0.01 -0.02535,-0.043 -0.03125,-0.062 -0.0082,-0.022 -0.02251,-0.014 -0.03125,-0.031 -0.06869,-0.5903 -0.103803,-1.0496 -0.125,-1.3438 0.0042,-0.039 0.008,-0.063 0,-0.062 -0.01142,-0.115 -0.03315,-0.1648 -0.0625,-0.1875 -0.02368,-0.026 -0.06823,-0.035 -0.125,0 -0.06529,0.04 -0.126965,0.1195 -0.15625,0.2188 -0.03086,0.1137 -0.04592,0.1946 -0.0625,0.25 -0.0904,0.2721 -0.153893,0.603 -0.21875,1.0312 l -0.03125,-0.062 c -0.0224,-0.185 -0.02184,-0.3217 -0.03125,-0.4062 -0.03211,-0.2424 -0.04764,-0.3789 -0.0625,-0.4375 -0.05795,-0.1994 -0.117634,-0.34 -0.15625,-0.375 -0.05072,-0.046 -0.116537,-0.043 -0.1875,0 -0.139086,0.085 -0.245131,0.3282 -0.34375,0.75 -0.007,0.04 -0.0121,0.083 0,0.094 0.01494,0.01 0.0318,0.014 0.0625,0 0.07275,-0.036 0.114092,-0.1044 0.125,-0.1562 0.04438,-0.1898 0.09313,-0.3262 0.15625,-0.4688 0.01337,0.023 0.02177,0.028 0.03125,0.062 0.0236,0.076 0.05175,0.1399 0.0625,0.1875 0.03577,0.2084 0.04719,0.3652 0.0625,0.4688 0.0025,0.015 -0.0024,0.016 0,0.031 l -0.1875,0.7813 c -0.0576,0.2385 -0.08157,0.3671 -0.09375,0.4062 -0.06163,0.1778 -0.137181,0.307 -0.21875,0.375 -0.06118,0.051 -0.117635,0.066 -0.15625,0.031 -0.04325,-0.041 -0.06598,-0.1662 -0.09375,-0.375 -0.03032,-0.2344 -0.04472,-0.5367 -0.03125,-0.9063 l 0,-0.25 c 0.0074,-0.1174 4.19e-4,-0.193 -0.03125,-0.2187 -0.01957,-0.015 -0.03979,-0.014 -0.0625,0 -0.0369,0.023 -0.05311,0.081 -0.09375,0.1875 -0.04012,0.1013 -0.07254,0.1696 -0.09375,0.2187 -0.03003,0.082 -0.116565,0.1562 -0.21875,0.2188 -0.03974,0.024 -0.0698,0.073 -0.125,0.094 0.01062,-0.3678 0.006,-0.6404 0,-0.7812 -0.02658,-0.1464 -0.0523,-0.248 -0.09375,-0.2813 -0.02935,-0.023 -0.0682,-0.016 -0.09375,0 -0.0057,0 -0.01601,0.013 -0.03125,0.031 -0.127063,0.1455 -0.151316,0.4582 -0.09375,0.9062 0.01934,0.1643 0.05524,0.2781 0.125,0.3438 -0.0042,0.085 -0.02493,0.2213 -0.03125,0.3125 0.0058,-0.053 -0.0094,-0.076 -0.03125,-0.094 -0.01673,-0.017 -0.02844,-0.021 -0.0625,0 -0.04542,0.028 -0.05906,0.069 -0.0625,0.125 -0.0447,0.5604 -0.184463,1.022 -0.40625,1.4063 -0.01188,0.012 -0.03073,0.026 -0.03125,0.031 -0.01419,0.01 -0.02199,0.012 -0.03125,0 -0.07029,-0.061 -0.131435,-0.3843 -0.1875,-0.9687 -0.02261,-0.3792 -0.02768,-0.6563 -0.03125,-0.8438 -0.0054,-0.024 -0.02304,-0.04 -0.03125,-0.062 -0.02241,-0.013 -0.05685,-0.023 -0.09375,0 -0.0738,0.045 -0.088,0.103 -0.09375,0.1563 l -0.15625,1.0312 c -0.04282,0.3469 -0.09683,0.6814 -0.21875,1 -0.044,0.1128 -0.105131,0.1753 -0.125,0.1875 -0.08985,-0.076 -0.151467,-0.5385 -0.1875,-1.4062 -0.0066,-0.086 -0.02849,-0.1708 -0.03125,-0.2188 -0.0011,-0.1122 0.0063,-0.1861 0,-0.25 -0.0033,-0.043 -0.01168,-0.079 -0.03125,-0.094 -0.02241,-0.013 -0.07518,-0.013 -0.125,0.031 -0.0555,0.048 -0.127017,0.1438 -0.21875,0.2813 -0.10077,0.1475 -0.167553,0.2506 -0.1875,0.3125 -0.02413,0.1006 -0.02704,0.1679 0,0.1875 0.01494,0.01 0.03875,-0.01 0.0625,-0.031 0.115933,-0.1162 0.236007,-0.2246 0.3125,-0.3437 0.0043,0.033 3e-4,0.066 0,0.094 l 0,0.1563 c 5.27e-4,0.022 -8.91e-4,0.069 0,0.094 -0.0433,0.046 -0.08587,0.1064 -0.125,0.2188 l -0.09375,0.3125 c -0.09413,0.1841 -0.160412,0.2944 -0.21875,0.3437 0.01436,-0.4514 -0.06944,-0.7361 -0.21875,-0.875 -0.06282,-0.056 -0.147815,-0.063 -0.25,0 -0.164633,0.1009 -0.265601,0.3325 -0.34375,0.6875 -0.04699,0.214 -0.07434,0.3905 -0.03125,0.5313 0.03077,0.1076 0.08596,0.1891 0.15625,0.25 0.1089,0.096 0.258871,0.082 0.40625,-0.031 -0.0095,0.1368 -0.07527,0.3149 -0.15625,0.5 -0.08823,0.2031 -0.184742,0.3159 -0.28125,0.375 -0.05961,0.036 -0.102696,0.044 -0.15625,0 -0.04377,-0.036 -0.08012,-0.1326 -0.125,-0.2812 -0.02002,-0.06 -0.03177,-0.089 -0.03125,-0.094 l -0.03125,-0.125 c -0.02173,-0.1177 -0.0069,-0.3216 0.03125,-0.625 0.04596,-0.3759 0.126221,-0.655 0.25,-0.8437 0.04728,-0.07 0.06755,-0.1243 0.03125,-0.1563 -0.02704,-0.02 -0.07958,0 -0.125,0.031 -0.09858,0.06 -0.175887,0.2664 -0.25,0.5625 -0.01199,5e-4 -0.01848,-0.01 -0.03125,0 -0.0142,0.01 -0.03539,0 -0.0625,0.031 -0.250245,0.2798 -0.524434,0.6037 -0.78125,0.9688 -0.05212,-0.474 -0.113351,-0.8886 -0.1875,-1.2813 -0.09125,-0.5042 -0.149523,-0.8828 -0.21875,-1.125 -0.127931,-0.4591 -0.283522,-0.8146 -0.46875,-1.0625 -0.423716,-0.567 -0.946522,-0.6707 -1.53125,-0.3125 -0.195856,0.12 -0.381755,0.2798 -0.59375,0.5 -0.292819,0.3058 -0.555799,0.6756 -0.78125,1.0938 -0.14634,0.2748 -0.266492,0.6489 -0.34375,1.0937 -0.03123,0.1908 -0.03386,0.3525 -0.03125,0.5 0.0053,0.2452 0.03709,0.4575 0.125,0.625 0.03085,0.058 0.07249,0.1026 0.125,0.1563 0.234755,0.231 0.514459,0.245 0.8125,0.062 0.144763,-0.089 0.256426,-0.1913 0.34375,-0.3125 0.0558,-0.075 0.04377,-0.1199 0,-0.1563 -0.03167,-0.026 -0.0455,-0.03 -0.09375,0 -0.02555,0.016 -0.05423,0.047 -0.09375,0.094 -0.04183,0.044 -0.09945,0.078 -0.125,0.094 -0.08516,0.052 -0.172718,0.064 -0.28125,0.062 -0.1222,0 -0.232953,-0.021 -0.3125,-0.094 -0.08186,-0.076 -0.117788,-0.178 -0.15625,-0.3125 -0.06564,-0.2263 -0.08751,-0.5331 -0.03125,-0.9063 0.103937,-0.6915 0.419017,-1.2826 0.9375,-1.8125 0.154925,-0.1581 0.312633,-0.3106 0.46875,-0.4062 0.425773,-0.2609 0.787141,-0.2462 1.09375,0.031 0.06513,0.059 0.127298,0.1382 0.1875,0.2188 0.178282,0.2385 0.320323,0.5572 0.4375,0.9687 0.05922,0.2122 0.132238,0.4455 0.1875,0.7188 0.111264,0.5641 0.190082,1.2119 0.28125,1.9375 -0.617628,0.9564 -0.992818,1.9222 -1.125,2.875 -0.110515,0.7768 -0.0514,1.47 0.125,2.0937 0.05153,0.1852 0.119187,0.3355 0.21875,0.4688 0.229221,0.3067 0.451903,0.3943 0.6875,0.25 0.173145,-0.1061 0.31719,-0.3432 0.40625,-0.75 0.04431,-0.3117 0.0527,-0.5547 0.0625,-0.7188 0.04828,-0.5445 0.0771,-1.1835 0.0625,-1.9062 -0.02124,-0.931 -0.08122,-1.7209 -0.15625,-2.375 0.151415,-0.2238 0.301368,-0.3948 0.40625,-0.5313 0.155487,-0.194 0.243222,-0.3185 0.34375,-0.4375 -0.07703,0.4672 -0.0645,0.8272 0.03125,1.0938 0.03697,0.099 0.09575,0.1967 0.15625,0.25 0.135939,0.1154 0.284221,0.1251 0.4375,0.031 0.249787,-0.153 0.40668,-0.4735 0.5,-0.9687 0.0319,-0.1235 0.05465,-0.24 0.0625,-0.3125 0.07148,-0.048 0.151294,-0.1097 0.21875,-0.2188 0.06514,-0.1122 0.105525,-0.2491 0.15625,-0.375 0.04921,-0.1286 0.09441,-0.2479 0.125,-0.375 0.0068,0.1142 -0.01173,0.1954 0,0.3438 0.01747,0.2061 0.04868,0.3379 0.0625,0.4062 0.04734,0.2239 0.112585,0.3705 0.1875,0.4375 0.06513,0.059 0.136434,0.082 0.21875,0.031 0.09651,-0.059 0.157563,-0.2149 0.21875,-0.4375 0.01427,-0.058 0.05736,-0.1856 0.09375,-0.375 l 0.125,-0.7813 c 0.01627,0.1436 0.01796,0.2393 0.03125,0.3125 0.05092,0.4115 0.135945,0.684 0.25,0.7813 0.05355,0.044 0.127891,0.036 0.1875,0 0.156116,-0.096 0.289029,-0.3659 0.40625,-0.8125 0.07615,-0.2917 0.12249,-0.5896 0.15625,-0.875 -0.03506,0.4813 -0.09595,0.9776 -0.1875,1.625 -0.0052,0.048 0.01452,0.077 0.03125,0.094 0.02241,0.013 0.03695,0.016 0.0625,0 0.04258,-0.026 0.05675,-0.072 0.0625,-0.125 0.107529,-0.8473 0.188401,-1.4853 0.21875,-1.9375 0.05752,-0.017 0.119376,-0.052 0.1875,-0.094 0.139086,-0.085 0.254529,-0.1999 0.3125,-0.3438 -0.0026,0.1958 -0.0311,0.338 -0.03125,0.4375 0.0027,0.2694 0.02311,0.4595 0.03125,0.5313 0.03106,0.2519 0.09764,0.3928 0.1875,0.4687 0.07775,0.065 0.168979,0.082 0.28125,0 0.175762,-0.1302 0.307184,-0.4044 0.40625,-0.7812 l 0.09375,-0.4063 c 0.0098,-0.049 0.02059,-0.1331 0.03125,-0.1875 0.02182,0.1667 0.06023,0.4198 0.0625,0.5 l 0.03125,0.1875 c 0.0035,0.066 -0.0072,0.1245 0,0.1563 0.0049,0.029 0.02871,0.037 0.03125,0.062 0.01434,0.063 0.01761,0.085 0.0625,0.062 0.08926,-0.041 0.167244,-0.1767 0.1875,-0.4375 0.04552,-0.5925 0.125484,-1.154 0.28125,-1.6875 0.058,0.6645 0.109392,1.0174 0.125,1.0937 0.02203,0.09 0.02281,0.1742 0.03125,0.2188 0.01538,0.054 0.04861,0.075 0.0625,0.094 0.0077,0.027 0.0094,0.044 0.03125,0.062 0.06102,0.048 0.119375,0.073 0.1875,0.031 0.0738,-0.045 0.153609,-0.1379 0.21875,-0.25 0.110108,-0.1849 0.211993,-0.4148 0.28125,-0.6875 0.04175,-0.1563 0.05774,-0.3547 0.09375,-0.5625 0.0048,0.4326 0.05881,0.694 0.1875,0.8125 0.09859,0.093 0.19896,0.1008 0.3125,0.031 0.161794,-0.099 0.325856,-0.4191 0.5,-1 0.03786,0.1891 0.09142,0.3195 0.15625,0.4063 0.09493,0.127 0.227371,0.165 0.34375,0.094 0.08231,-0.05 0.141277,-0.218 0.21875,-0.4687 0.05862,-0.1843 0.174668,-0.4618 0.28125,-0.75 0.05825,0.2149 0.118039,0.3757 0.1875,0.4687 0.09493,0.127 0.201799,0.1616 0.3125,0.094 0.09367,-0.057 0.173925,-0.1677 0.21875,-0.3125 0.04535,-0.1498 0.0694,-0.2656 0.09375,-0.3438 0.156211,-0.4886 0.295221,-1.015 0.40625,-1.625 l 0.03125,-0.1875 c 0.0044,-0.016 0.0093,-0.019 0,-0.031 -0.01031,0 -0.02557,0 -0.03125,0 -0.04826,0.03 -0.08698,0.074 -0.125,0.1562 -0.01681,0.033 -0.04741,0.097 -0.0625,0.1875 -0.137252,0.73 -0.2979,1.3288 -0.46875,1.7813 -0.04064,0.1061 -0.06536,0.1701 -0.09375,0.1875 -0.02271,0.014 -0.04345,0.02 -0.0625,0 -0.04892,-0.038 -0.09673,-0.1589 -0.15625,-0.3438 -0.05056,-0.1452 -0.106854,-0.2732 -0.125,-0.375 l 0,-0.1562 0.0625,-0.3125 c 0.152036,-0.6216 0.258988,-1.2509 0.3125,-1.8438 0.03513,-0.3738 0.04398,-0.9229 0.03125,-1.6875 -0.0046,-0.1778 -0.0047,-0.3664 -0.03125,-0.5625 -0.02308,-0.081 -0.07787,-0.1576 -0.125,-0.1875 -0.02472,-0.016 -0.03453,0 -0.0625,0 z m -0.125,0.3125 c 0.01083,0 0.02146,-0.01 0.03125,0 0.04556,0.044 0.0854,0.2029 0.09375,0.4688 0.04169,1.2075 -0.05203,2.327 -0.28125,3.3437 -0.05802,-0.3213 -0.07943,-0.687 -0.09375,-1.0937 -0.01097,-0.2417 -0.03561,-0.6123 -0.03125,-1.0938 0.0016,-0.1861 0.0353,-0.4047 0.0625,-0.6562 0.06905,-0.6386 0.124634,-0.9563 0.21875,-0.9688 z m -8.4375,8.5313 c 0.02838,-0.017 0.06492,-0.028 0.09375,0 0.02188,0.018 0.01661,0.058 0.03125,0.094 0.01105,0.02 0.04711,0.04 0.0625,0.094 l 0.03125,0.3125 c 0.0096,0.107 0.0075,0.239 0,0.4062 -0.08441,0.07 -0.182031,0.058 -0.25,0 -0.01725,-0.012 -0.01736,-0.013 -0.03125,-0.031 -0.0481,-0.07 -0.06146,-0.1818 -0.0625,-0.3438 -0.0024,-0.2966 0.03133,-0.4739 0.125,-0.5312 z m -1.71875,2.1875 c 0.08622,0.9182 0.102093,1.9112 0.09375,2.9687 -9.12e-4,0.2535 -0.0085,0.5491 -0.03125,0.9063 -0.02751,0.4504 -0.07991,0.7774 -0.15625,0.9687 -0.04348,0.1079 -0.09381,0.1805 -0.15625,0.2188 -0.07948,0.049 -0.181614,0.052 -0.28125,-0.031 -0.04609,-0.04 -0.08564,-0.1036 -0.125,-0.1562 -0.03936,-0.053 -0.05701,-0.1107 -0.09375,-0.1875 -0.06244,-0.1334 -0.11563,-0.3255 -0.15625,-0.5625 -0.02375,-0.1481 -0.05625,-0.4494 -0.0625,-0.9063 -0.01227,-1.063 0.327214,-2.1392 0.96875,-3.2187 z"
       style="font-size:5.37091875px;font-style:normal;font-weight:normal;text-align:center;line-height:100%;letter-spacing:0px;word-spacing:0px;text-anchor:middle;opacity:0.2;fill:#000000;fill-opacity:1;stroke:none;font-family:Sans"
       inkscape:connector-curvature="0" />
    <path
       style="font-size:5.37091875px;font-style:normal;font-weight:normal;text-align:center;line-height:100%;letter-spacing:0px;word-spacing:0px;text-anchor:middle;fill:#ffffff;fill-opacity:1;stroke:none;font-family:Sans"
       d="M 30.90625 17.6875 C 30.878277 17.688827 30.843723 17.699627 30.8125 17.71875 C 30.710314 17.78135 30.59891 17.941363 30.5 18.21875 C 30.324965 18.709898 30.270276 19.468947 30.3125 20.5 C 30.336451 21.013792 30.375826 21.509687 30.4375 21.96875 C 30.466422 22.175976 30.49809 22.30766 30.53125 22.46875 C 30.508795 22.489183 30.475275 22.512077 30.46875 22.53125 L 30.28125 23.09375 C 30.169192 23.370163 30.064915 23.584134 30 23.71875 C 29.850468 23.557409 29.795801 23.351326 29.78125 23.09375 C 29.771473 22.914553 29.780066 22.674908 29.8125 22.375 C 29.814591 22.355654 29.792826 22.327995 29.78125 22.3125 C 29.763995 22.300488 29.749972 22.324626 29.71875 22.34375 C 29.636433 22.394176 29.576769 22.441577 29.5625 22.5 C 29.562645 22.572181 29.568777 22.629456 29.5625 22.6875 C 29.532082 23.017791 29.461337 23.366683 29.34375 23.71875 C 29.226685 24.065982 29.127758 24.253383 29.03125 24.3125 C 28.997188 24.333365 28.964015 24.336909 28.9375 24.3125 C 28.904038 24.278796 28.874519 24.201372 28.84375 24.09375 C 28.781466 23.860897 28.770505 23.596048 28.8125 23.28125 C 28.851356 22.995478 28.901167 22.727663 29 22.5 C 29.105556 22.25919 29.215691 22.117654 29.3125 22.03125 C 29.3742 21.97539 29.427819 21.961841 29.46875 22 C 29.507365 22.035066 29.515315 22.088153 29.5 22.15625 C 29.476468 22.202284 29.478638 22.226954 29.5 22.25 C 29.526515 22.274411 29.571068 22.283038 29.625 22.25 C 29.656223 22.230876 29.673006 22.192231 29.6875 22.15625 C 29.744423 22.022015 29.741918 21.895896 29.65625 21.78125 C 29.593734 21.697595 29.499893 21.704748 29.375 21.78125 C 29.329584 21.809073 29.277612 21.852129 29.21875 21.90625 C 28.838342 22.255237 28.623314 22.767988 28.59375 23.4375 C 28.584993 23.439071 28.578141 23.45646 28.5625 23.46875 C 28.507521 23.511463 28.506499 23.526903 28.5 23.5625 C 28.483859 23.662723 28.458792 23.77614 28.4375 23.875 C 28.322964 24.41942 28.191577 24.728549 28.0625 24.84375 C 28.030229 24.872551 27.998103 24.897671 27.96875 24.875 C 27.953811 24.866085 27.943399 24.831471 27.9375 24.8125 C 27.929284 24.790433 27.914988 24.798482 27.90625 24.78125 C 27.83756 24.190981 27.802447 23.731657 27.78125 23.4375 C 27.785434 23.398805 27.789242 23.374623 27.78125 23.375 C 27.769827 23.260047 27.748103 23.210172 27.71875 23.1875 C 27.695072 23.161355 27.650519 23.152728 27.59375 23.1875 C 27.528464 23.227494 27.466785 23.307012 27.4375 23.40625 C 27.406645 23.520005 27.391585 23.600925 27.375 23.65625 C 27.284605 23.928428 27.221107 24.259331 27.15625 24.6875 L 27.125 24.625 C 27.102601 24.439985 27.103157 24.303324 27.09375 24.21875 C 27.061644 23.976447 27.046111 23.8399 27.03125 23.78125 C 26.973297 23.58188 26.913616 23.441316 26.875 23.40625 C 26.824285 23.360534 26.758463 23.362784 26.6875 23.40625 C 26.548414 23.491451 26.442369 23.734501 26.34375 24.15625 C 26.336727 24.196688 26.331651 24.239346 26.34375 24.25 C 26.358689 24.258918 26.37555 24.26429 26.40625 24.25 C 26.479005 24.214469 26.520342 24.145601 26.53125 24.09375 C 26.575629 23.903964 26.624376 23.767555 26.6875 23.625 C 26.70087 23.64843 26.709266 23.652661 26.71875 23.6875 C 26.74235 23.763381 26.770497 23.827388 26.78125 23.875 C 26.817018 24.083446 26.828443 24.240209 26.84375 24.34375 C 26.846221 24.359004 26.841353 24.360073 26.84375 24.375 L 26.65625 25.15625 C 26.598647 25.39479 26.574676 25.523425 26.5625 25.5625 C 26.500867 25.740274 26.425319 25.869467 26.34375 25.9375 C 26.282571 25.988526 26.226115 26.003814 26.1875 25.96875 C 26.144253 25.92749 26.121525 25.802575 26.09375 25.59375 C 26.063435 25.359382 26.049035 25.05709 26.0625 24.6875 L 26.0625 24.4375 C 26.0699 24.32005 26.062919 24.244521 26.03125 24.21875 C 26.01168 24.203639 25.991457 24.204843 25.96875 24.21875 C 25.931849 24.241356 25.915639 24.300057 25.875 24.40625 C 25.834883 24.507611 25.802465 24.575872 25.78125 24.625 C 25.751218 24.706633 25.664685 24.781157 25.5625 24.84375 C 25.522761 24.868094 25.4927 24.917239 25.4375 24.9375 C 25.448125 24.569653 25.443468 24.297133 25.4375 24.15625 C 25.410916 24.009934 25.385204 23.908328 25.34375 23.875 C 25.314396 23.852333 25.275547 23.859354 25.25 23.875 C 25.244323 23.87848 25.233989 23.887885 25.21875 23.90625 C 25.091687 24.051838 25.067434 24.364472 25.125 24.8125 C 25.144338 24.97681 25.180239 25.090582 25.25 25.15625 C 25.245763 25.241334 25.225069 25.377549 25.21875 25.46875 C 25.224502 25.415543 25.209383 25.393214 25.1875 25.375 C 25.170768 25.358151 25.15906 25.354138 25.125 25.375 C 25.079583 25.402822 25.065937 25.443695 25.0625 25.5 C 25.017802 26.060359 24.878037 26.521971 24.65625 26.90625 C 24.644372 26.918043 24.625522 26.932664 24.625 26.9375 C 24.610806 26.946195 24.60301 26.949895 24.59375 26.9375 C 24.523464 26.876669 24.462315 26.553204 24.40625 25.96875 C 24.383636 25.589646 24.378575 25.312516 24.375 25.125 C 24.369622 25.101196 24.351964 25.084571 24.34375 25.0625 C 24.321341 25.049128 24.2869 25.039899 24.25 25.0625 C 24.176199 25.10771 24.162004 25.165544 24.15625 25.21875 L 24 26.25 C 23.957182 26.59692 23.903168 26.931414 23.78125 27.25 C 23.737249 27.362772 23.676119 27.425329 23.65625 27.4375 C 23.566396 27.361555 23.504783 26.89898 23.46875 26.03125 C 23.462181 25.944941 23.440261 25.860495 23.4375 25.8125 C 23.436385 25.700266 23.443846 25.626367 23.4375 25.5625 C 23.434216 25.519347 23.425819 25.483866 23.40625 25.46875 C 23.383842 25.455378 23.331074 25.455932 23.28125 25.5 C 23.22575 25.54755 23.154233 25.643759 23.0625 25.78125 C 22.96173 25.928798 22.894947 26.031849 22.875 26.09375 C 22.850869 26.194352 22.847962 26.26168 22.875 26.28125 C 22.889939 26.290168 22.913746 26.273586 22.9375 26.25 C 23.053433 26.133819 23.173507 26.025377 23.25 25.90625 C 23.254331 25.939733 23.2503 25.972718 23.25 26 L 23.25 26.15625 C 23.250527 26.178055 23.249109 26.225658 23.25 26.25 C 23.206701 26.295709 23.164133 26.356363 23.125 26.46875 L 23.03125 26.78125 C 22.937124 26.965378 22.870838 27.075715 22.8125 27.125 C 22.826864 26.673561 22.743057 26.388898 22.59375 26.25 C 22.530934 26.193629 22.445935 26.187408 22.34375 26.25 C 22.179117 26.350849 22.078149 26.582492 22 26.9375 C 21.953006 27.151475 21.925658 27.328028 21.96875 27.46875 C 21.999519 27.576373 22.054715 27.657919 22.125 27.71875 C 22.2339 27.814647 22.383871 27.800363 22.53125 27.6875 C 22.521756 27.824302 22.455978 28.002394 22.375 28.1875 C 22.286775 28.390597 22.190258 28.503383 22.09375 28.5625 C 22.034142 28.599014 21.991054 28.60648 21.9375 28.5625 C 21.893731 28.526077 21.857384 28.42991 21.8125 28.28125 C 21.792485 28.221243 21.780727 28.192338 21.78125 28.1875 L 21.75 28.0625 C 21.72827 27.944826 21.74314 27.740885 21.78125 27.4375 C 21.827207 27.06156 21.907471 26.782493 22.03125 26.59375 C 22.078535 26.524137 22.0988 26.469468 22.0625 26.4375 C 22.035461 26.417931 21.982916 26.440933 21.9375 26.46875 C 21.838921 26.529137 21.761613 26.735215 21.6875 27.03125 C 21.675511 27.031819 21.669021 27.023428 21.65625 27.03125 C 21.642054 27.039948 21.620862 27.032344 21.59375 27.0625 C 21.343505 27.342261 21.069316 27.666166 20.8125 28.03125 C 20.760384 27.557299 20.699149 27.142708 20.625 26.75 C 20.533746 26.245824 20.475477 25.867154 20.40625 25.625 C 20.278319 25.165875 20.122728 24.810383 19.9375 24.5625 C 19.513784 23.99549 18.990978 23.891827 18.40625 24.25 C 18.210394 24.36998 18.024495 24.529812 17.8125 24.75 C 17.519681 25.055844 17.256701 25.425615 17.03125 25.84375 C 16.88491 26.118585 16.764758 26.492705 16.6875 26.9375 C 16.656269 27.128273 16.653645 27.290048 16.65625 27.4375 C 16.661542 27.682685 16.693344 27.89503 16.78125 28.0625 C 16.812097 28.120393 16.853743 28.165099 16.90625 28.21875 C 17.141005 28.449844 17.420709 28.463821 17.71875 28.28125 C 17.863513 28.192577 17.975176 28.089996 18.0625 27.96875 C 18.118301 27.893921 18.106269 27.848927 18.0625 27.8125 C 18.030831 27.786735 18.017004 27.782945 17.96875 27.8125 C 17.943204 27.828152 17.914516 27.859464 17.875 27.90625 C 17.833169 27.949945 17.775547 27.984355 17.75 28 C 17.664845 28.052165 17.577282 28.063773 17.46875 28.0625 C 17.34655 28.06509 17.235797 28.041979 17.15625 27.96875 C 17.074389 27.892429 17.038462 27.790781 17 27.65625 C 16.934356 27.429977 16.912487 27.123226 16.96875 26.75 C 17.072687 26.058509 17.387767 25.467395 17.90625 24.9375 C 18.061175 24.779371 18.218883 24.626887 18.375 24.53125 C 18.800773 24.270446 19.162141 24.285096 19.46875 24.5625 C 19.533879 24.621979 19.596048 24.700697 19.65625 24.78125 C 19.834532 25.019837 19.976573 25.338489 20.09375 25.75 C 20.15297 25.96215 20.225988 26.195465 20.28125 26.46875 C 20.392514 27.032944 20.471332 27.680698 20.5625 28.40625 C 19.944872 29.362729 19.569682 30.328546 19.4375 31.28125 C 19.326985 32.058076 19.386101 32.751337 19.5625 33.375 C 19.614028 33.560237 19.681687 33.710514 19.78125 33.84375 C 20.010471 34.150494 20.233153 34.238063 20.46875 34.09375 C 20.641895 33.987684 20.78594 33.750607 20.875 33.34375 C 20.919307 33.03205 20.927704 32.789084 20.9375 32.625 C 20.985778 32.080514 21.0146 31.44152 21 30.71875 C 20.978757 29.78776 20.918782 28.997887 20.84375 28.34375 C 20.995165 28.120015 21.145118 27.949016 21.25 27.8125 C 21.405487 27.618513 21.493222 27.494022 21.59375 27.375 C 21.516716 27.842248 21.529255 28.202193 21.625 28.46875 C 21.661969 28.568057 21.72075 28.665475 21.78125 28.71875 C 21.917189 28.834217 22.065471 28.843892 22.21875 28.75 C 22.468537 28.596991 22.62543 28.27654 22.71875 27.78125 C 22.75065 27.657825 22.773402 27.541309 22.78125 27.46875 C 22.852734 27.420446 22.932544 27.359073 23 27.25 C 23.065138 27.137832 23.105525 27.000925 23.15625 26.875 C 23.205464 26.746397 23.250658 26.627133 23.28125 26.5 C 23.288093 26.614205 23.269518 26.695431 23.28125 26.84375 C 23.298718 27.049855 23.329935 27.181678 23.34375 27.25 C 23.391095 27.473937 23.456335 27.620471 23.53125 27.6875 C 23.596381 27.746972 23.667684 27.769174 23.75 27.71875 C 23.846508 27.659633 23.907563 27.503918 23.96875 27.28125 C 23.983019 27.222825 24.026113 27.09566 24.0625 26.90625 L 24.1875 26.125 C 24.203775 26.268601 24.205457 26.364342 24.21875 26.4375 C 24.26967 26.848952 24.354695 27.121495 24.46875 27.21875 C 24.522303 27.262731 24.596641 27.255264 24.65625 27.21875 C 24.812366 27.12312 24.945279 26.852946 25.0625 26.40625 C 25.13865 26.114625 25.18499 25.816659 25.21875 25.53125 C 25.183691 26.01259 25.122802 26.508937 25.03125 27.15625 C 25.026019 27.204622 25.04577 27.233148 25.0625 27.25 C 25.084908 27.263374 25.099454 27.265648 25.125 27.25 C 25.167578 27.223918 25.181746 27.178209 25.1875 27.125 C 25.295029 26.277733 25.375901 25.639701 25.40625 25.1875 C 25.463766 25.170337 25.525626 25.135481 25.59375 25.09375 C 25.732836 25.008553 25.848279 24.893914 25.90625 24.75 C 25.903625 24.94583 25.875154 25.088038 25.875 25.1875 C 25.877675 25.456868 25.898111 25.646951 25.90625 25.71875 C 25.93731 25.97073 26.003895 26.111555 26.09375 26.1875 C 26.171503 26.252791 26.262729 26.269823 26.375 26.1875 C 26.550762 26.057252 26.682184 25.783107 26.78125 25.40625 L 26.875 25 C 26.884778 24.951512 26.895591 24.866898 26.90625 24.8125 C 26.928074 24.979245 26.966481 25.232339 26.96875 25.3125 L 27 25.5 C 27.003507 25.565603 26.992831 25.624508 27 25.65625 C 27.004854 25.684894 27.028712 25.693204 27.03125 25.71875 C 27.045588 25.782235 27.048857 25.804233 27.09375 25.78125 C 27.183012 25.740122 27.260994 25.60458 27.28125 25.34375 C 27.326769 24.751273 27.406734 24.189793 27.5625 23.65625 C 27.620503 24.320819 27.671892 24.673743 27.6875 24.75 C 27.70953 24.840392 27.710311 24.924235 27.71875 24.96875 C 27.734134 25.022562 27.767357 25.04391 27.78125 25.0625 C 27.788941 25.089406 27.790615 25.106789 27.8125 25.125 C 27.873522 25.173439 27.931875 25.19798 28 25.15625 C 28.0738 25.111043 28.153609 25.018421 28.21875 24.90625 C 28.328858 24.721367 28.430743 24.491529 28.5 24.21875 C 28.541752 24.062545 28.557743 23.864129 28.59375 23.65625 C 28.598556 24.088932 28.652559 24.350284 28.78125 24.46875 C 28.879842 24.561926 28.98021 24.56955 29.09375 24.5 C 29.255544 24.400892 29.419606 24.080933 29.59375 23.5 C 29.63161 23.689097 29.685168 23.819494 29.75 23.90625 C 29.84493 24.033287 29.977371 24.071289 30.09375 24 C 30.176065 23.949577 30.235027 23.781961 30.3125 23.53125 C 30.371119 23.346982 30.487168 23.0695 30.59375 22.78125 C 30.652001 22.996248 30.711789 23.157047 30.78125 23.25 C 30.876181 23.377037 30.983049 23.411561 31.09375 23.34375 C 31.18742 23.286372 31.267675 23.176143 31.3125 23.03125 C 31.357847 22.88152 31.381895 22.765654 31.40625 22.6875 C 31.562461 22.198854 31.701471 21.672524 31.8125 21.0625 L 31.84375 20.875 C 31.848157 20.858752 31.853011 20.856146 31.84375 20.84375 C 31.833441 20.841033 31.818176 20.840275 31.8125 20.84375 C 31.764245 20.873311 31.725523 20.917993 31.6875 21 C 31.670691 21.032882 31.640092 21.096955 31.625 21.1875 C 31.487748 21.917473 31.3271 22.516305 31.15625 22.96875 C 31.11561 23.074946 31.090885 23.138863 31.0625 23.15625 C 31.039792 23.17016 31.019046 23.176201 31 23.15625 C 30.951077 23.118467 30.903272 22.997361 30.84375 22.8125 C 30.793189 22.667319 30.736896 22.539305 30.71875 22.4375 L 30.71875 22.28125 L 30.78125 21.96875 C 30.933286 21.34716 31.040238 20.71786 31.09375 20.125 C 31.128875 19.75118 31.137733 19.20207 31.125 18.4375 C 31.120378 18.259666 31.120256 18.071056 31.09375 17.875 C 31.070673 17.794289 31.015881 17.717353 30.96875 17.6875 C 30.944027 17.67103 30.934223 17.686173 30.90625 17.6875 z M 30.78125 18 C 30.792081 17.997888 30.802715 17.992449 30.8125 18 C 30.858062 18.044364 30.897898 18.202866 30.90625 18.46875 C 30.947942 19.67629 30.854216 20.795843 30.625 21.8125 C 30.566979 21.491219 30.545571 21.125522 30.53125 20.71875 C 30.520283 20.47705 30.495643 20.106449 30.5 19.625 C 30.501578 19.43885 30.535298 19.220288 30.5625 18.96875 C 30.631551 18.330245 30.687134 18.012489 30.78125 18 z M 22.34375 26.53125 C 22.372134 26.513865 22.408669 26.503745 22.4375 26.53125 C 22.459384 26.549464 22.454111 26.588802 22.46875 26.625 C 22.479803 26.645332 22.515865 26.664941 22.53125 26.71875 L 22.5625 27.03125 C 22.572129 27.138272 22.569977 27.270318 22.5625 27.4375 C 22.478091 27.507274 22.380469 27.495235 22.3125 27.4375 C 22.295246 27.425487 22.295142 27.424842 22.28125 27.40625 C 22.23315 27.336347 22.219787 27.22447 22.21875 27.0625 C 22.216375 26.765851 22.250079 26.588631 22.34375 26.53125 z M 20.625 28.71875 C 20.711223 29.637037 20.727093 30.629984 20.71875 31.6875 C 20.717838 31.940995 20.710223 32.236555 20.6875 32.59375 C 20.659986 33.044209 20.607595 33.371194 20.53125 33.5625 C 20.48777 33.670432 20.437444 33.742995 20.375 33.78125 C 20.29552 33.829932 20.193386 33.833499 20.09375 33.75 C 20.047663 33.710476 20.008109 33.646421 19.96875 33.59375 C 19.929387 33.541074 19.911744 33.483108 19.875 33.40625 C 19.81256 33.272858 19.75937 33.080837 19.71875 32.84375 C 19.695003 32.695691 19.662499 32.394379 19.65625 31.9375 C 19.643978 30.874545 19.983464 29.798276 20.625 28.71875 z "
       transform="translate(0,1004.3622)"
       id="text3810" />
  </g>
</svg>
