<?xml version="1.0" encoding="UTF-8" standalone="no"?>
<!-- Created with Inkscape (http://www.inkscape.org/) -->

<svg
   xmlns:dc="http://purl.org/dc/elements/1.1/"
   xmlns:cc="http://creativecommons.org/ns#"
   xmlns:rdf="http://www.w3.org/1999/02/22-rdf-syntax-ns#"
   xmlns:svg="http://www.w3.org/2000/svg"
   xmlns="http://www.w3.org/2000/svg"
   xmlns:xlink="http://www.w3.org/1999/xlink"
   xmlns:sodipodi="http://sodipodi.sourceforge.net/DTD/sodipodi-0.dtd"
   xmlns:inkscape="http://www.inkscape.org/namespaces/inkscape"
   width="48"
   height="48"
   id="svg2"
   version="1.1"
   inkscape:version="0.48.4 r9939"
   sodipodi:docname="google.svg">
  <sodipodi:namedview
     id="base"
     pagecolor="#ffffff"
     bordercolor="#666666"
     borderopacity="1.0"
     inkscape:pageopacity="0.0"
     inkscape:pageshadow="2"
     inkscape:zoom="11.583333"
     inkscape:cx="20.410485"
     inkscape:cy="16.586675"
     inkscape:document-units="px"
     inkscape:current-layer="layer1"
     showgrid="true"
     inkscape:snap-bbox="true"
     inkscape:window-width="1301"
     inkscape:window-height="744"
     inkscape:window-x="65"
     inkscape:window-y="24"
     inkscape:window-maximized="1"
     inkscape:snap-global="true">
    <inkscape:grid
       snapvisiblegridlinesonly="true"
       enabled="true"
       visible="true"
       empspacing="6"
       id="grid2985"
       type="xygrid" />
  </sodipodi:namedview>
  <defs
     id="defs4">
    <linearGradient
       inkscape:collect="always"
       id="linearGradient4309">
      <stop
         style="stop-color:#000000;stop-opacity:1;"
         offset="0"
         id="stop4311" />
      <stop
         style="stop-color:#000000;stop-opacity:0;"
         offset="1"
         id="stop4313" />
    </linearGradient>
    <linearGradient
       id="linearGradient3771">
      <stop
         id="stop3773"
         offset="0"
         style="stop-color:#0288d1;stop-opacity:1;" />
      <stop
         id="stop3775"
         offset="1"
         style="stop-color:#09a7fd;stop-opacity:1;" />
    </linearGradient>
    <linearGradient
       gradientUnits="userSpaceOnUse"
       y2="1006.3622"
       x2="24"
       y1="1050.3622"
       x1="24"
       id="linearGradient3777"
       xlink:href="#linearGradient3771"
       inkscape:collect="always" />
    <linearGradient
       inkscape:collect="always"
       xlink:href="#linearGradient3771"
       id="linearGradient4307"
       gradientUnits="userSpaceOnUse"
       x1="24"
       y1="1050.3622"
       x2="24"
       y2="1006.3622" />
    <linearGradient
       inkscape:collect="always"
       xlink:href="#linearGradient4309"
       id="linearGradient4315"
       x1="18"
       y1="12"
       x2="46"
       y2="40"
       gradientUnits="userSpaceOnUse" />
  </defs>
  <metadata
     id="metadata7">
    <rdf:RDF>
      <cc:Work
         rdf:about="">
        <dc:format>image/svg+xml</dc:format>
        <dc:type
           rdf:resource="http://purl.org/dc/dcmitype/StillImage" />
        <dc:title />
      </cc:Work>
    </rdf:RDF>
  </metadata>
  <g
     transform="translate(0,-1004.3622)"
     id="layer1"
     inkscape:groupmode="layer"
     inkscape:label="Layer 1">
    <path
       inkscape:connector-curvature="0"
       style="opacity:0.20000000000000001;fill:#ffffff;fill-opacity:1;stroke:none"
       d="m 24,1051.1116 c -21.2715315,0 -23.66257505,-0.089 -23.9375,-15.4063 0.328125,14.4033 2.9375,14.4063 23.9375,14.4063 21,0 23.609375,0 23.9375,-14.4063 -0.274925,15.3174 -2.665968,15.4063 -23.9375,15.4063 z"
       id="path3788" />
    <path
       sodipodi:nodetypes="zzzzz"
       inkscape:connector-curvature="0"
       id="path3757"
       d="m 24,1006.3622 c -24,0 -24,0 -24,22 0,22 0,22 24,22 24,0 24,0 24,-22 0,-22 0,-22 -24,-22 z"
       style="fill:url(#linearGradient4307);fill-opacity:1;stroke:none" />
    <path
       id="path3770"
       transform="translate(0,1004.3622)"
       d="M 24 2 C 2.7284685 2 0.33742495 2.0888436 0.0625 17.40625 C 0.390625 3.0029297 3 3 24 3 C 45 3 47.609375 3.0029297 47.9375 17.40625 C 47.662575 2.0888436 45.271532 2 24 2 z "
       style="fill:#000000;fill-opacity:1;stroke:none;opacity:0.20000000000000001" />
    <path
       id="path3012"
       transform="translate(0,1004.3622)"
       d="M 24 2 C 7.2405624 2 2.2369698 2.0788791 0.71875 9.59375 C 2.3300781 2.5289866 7.5 2.53125 24 2.53125 C 40.5 2.53125 45.669922 2.5289866 47.28125 9.59375 C 45.76303 2.0788791 40.759438 2 24 2 z M 47.28125 9.59375 C 47.354492 9.9148756 47.409424 10.242768 47.46875 10.59375 C 47.41561 10.240351 47.346891 9.9186608 47.28125 9.59375 z M 0.71875 9.59375 C 0.65310868 9.9186608 0.58439008 10.240351 0.53125 10.59375 C 0.59057617 10.242768 0.64550781 9.9148756 0.71875 9.59375 z "
       style="fill:#000000;fill-opacity:1;stroke:none;opacity:0.20000000000000001" />
    <g
       transform="translate(48,1007.3622)"
       id="g3032" />
    <path
       style="opacity:0.20000000000000001;fill:url(#linearGradient4315);fill-opacity:1"
       d="M 28.0625 45.90625 C 31.707371 45.885411 35.488134 45.899357 37.875 45.65625 C 39.5625 45.484375 40.953125 45.230469 42.125 44.84375 C 43.296875 44.457031 44.25 43.9375 45 43.25 C 45.75 42.5625 46.328125 41.699219 46.75 40.625 C 47.171875 39.550781 47.4375 38.265625 47.625 36.71875 C 47.914305 34.331983 47.891142 30.678418 47.90625 26.90625 L 32 11 L 25.40625 11 C 24.529823 11 23.557295 11.11635 22.53125 11.34375 C 21.526569 11.57115 20.575418 12.0789 19.65625 12.875 C 18.972213 13.512 18.467015 14.2436 18.125 15.0625 C 17.782981 15.8586 17.593749 16.6414 17.59375 17.4375 C 17.593749 18.0972 17.733612 18.7779 17.96875 19.4375 C 18.203886 20.0745 18.519851 20.6245 18.96875 21.125 L 24.25 26.40625 C 23.959247 26.43325 23.672324 26.466 23.3125 26.5 C 22.820844 26.545 22.305773 26.60495 21.75 26.71875 C 21.194218 26.83245 20.6084 27.0056 20.03125 27.1875 C 19.475468 27.3923 18.960398 27.65035 18.46875 27.96875 C 17.528202 28.56015 16.873267 29.2266 16.53125 30 C 16.167857 30.7961 16.000001 31.5109 16 32.125 C 16.000001 32.762 16.128361 33.3689 16.40625 33.9375 C 16.606195 34.3631 16.895126 34.73885 17.25 35.09375 L 28.0625 45.90625 z "
       id="path3868"
       transform="translate(0,1004.3622)" />
    <path
       id="path3774"
       d="m 27.95992,1016.5909 c 0.192373,0.1592 0.416822,0.3753 0.673347,0.6482 0.256501,0.2503 0.502325,0.5687 0.737475,0.9554 0.235124,0.364 0.438196,0.7962 0.609218,1.2966 0.170995,0.5005 0.2565,1.0691 0.256513,1.706 -1.3e-5,0.637 -0.07483,1.1943 -0.224449,1.672 -0.149645,0.4777 -0.352718,0.9099 -0.609218,1.2966 -0.256526,0.3639 -0.545102,0.7051 -0.865732,1.0236 -0.320652,0.2957 -0.651982,0.58 -0.993988,0.853 -0.213771,0.2275 -0.416844,0.4663 -0.609218,0.7165 -0.192395,0.2502 -0.288587,0.5687 -0.288577,0.9554 -10e-6,0.3867 0.09618,0.6938 0.288577,0.9213 0.192374,0.2047 0.374071,0.3867 0.54509,0.5459 l 1.154309,0.9554 c 0.342005,0.3184 0.673334,0.6369 0.993988,0.9554 0.342004,0.3184 0.630581,0.6596 0.865731,1.0236 0.256499,0.3639 0.459572,0.7734 0.609219,1.2283 0.149618,0.455 0.224434,0.9782 0.224449,1.5696 -1.5e-5,0.7961 -0.181712,1.5809 -0.54509,2.3543 -0.363408,0.7734 -0.897809,1.4558 -1.603207,2.0473 -0.705423,0.6141 -1.592529,1.1032 -2.661323,1.4672 -1.047437,0.3867 -2.255184,0.58 -3.623247,0.58 -1.154314,0 -2.169677,-0.1365 -3.046092,-0.4094 -0.855046,-0.273 -1.571144,-0.637 -2.148297,-1.0919 -0.577155,-0.4549 -1.004676,-0.9781 -1.282565,-1.5696 -0.277889,-0.5686 -0.416833,-1.1714 -0.416834,-1.8084 10e-7,-0.6141 0.181697,-1.3193 0.54509,-2.1154 0.342017,-0.7734 0.9833,-1.4559 1.923848,-2.0473 0.491648,-0.3184 1.015361,-0.58 1.571143,-0.7848 0.57715,-0.1819 1.143616,-0.3298 1.699398,-0.4435 0.555773,-0.1138 1.079487,-0.1934 1.571143,-0.2389 0.491643,-0.046 0.919164,-0.08 1.282565,-0.1023 -0.235144,-0.3185 -0.459593,-0.6483 -0.673346,-0.9895 -0.192392,-0.364 -0.288585,-0.8076 -0.288577,-1.3308 -8e-6,-0.2957 0.03206,-0.5345 0.09619,-0.7165 0.06412,-0.2047 0.138938,-0.4094 0.224449,-0.6142 -0.171015,0.023 -0.342024,0.045 -0.513026,0.068 -0.171015,0 -0.342023,0 -0.513026,0 -0.855049,0 -1.613899,-0.1479 -2.276553,-0.4436 -0.662662,-0.3185 -1.21844,-0.7279 -1.667335,-1.2283 -0.448899,-0.5005 -0.790916,-1.0691 -1.026052,-1.7061 -0.235138,-0.6596 -0.352706,-1.3193 -0.352705,-1.979 -1e-6,-0.7961 0.171007,-1.5923 0.513026,-2.3884 0.342015,-0.8189 0.855041,-1.5468 1.539078,-2.1838 0.919168,-0.7961 1.881091,-1.3079 2.885772,-1.5354 1.026045,-0.2274 1.97728,-0.3412 2.853707,-0.3412 l 6.605211,0 -2.052104,1.2284 -1.987976,0 m -3.527055,9.622 c 0.406138,0 0.801595,-0.091 1.186373,-0.273 0.406137,-0.1819 0.737466,-0.4094 0.993988,-0.6824 0.363383,-0.3867 0.587832,-0.8189 0.673347,-1.2966 0.08549,-0.4777 0.128246,-0.8757 0.128256,-1.1942 -10e-6,-0.6142 -0.08552,-1.2852 -0.256513,-2.0131 -0.171019,-0.7279 -0.427531,-1.4103 -0.769539,-2.0473 -0.342026,-0.6369 -0.769548,-1.1601 -1.282565,-1.5695 -0.491658,-0.4322 -1.068812,-0.6483 -1.731463,-0.6483 -0.427528,0 -0.844361,0.1024 -1.250501,0.3071 -0.406151,0.2047 -0.73748,0.4777 -0.993988,0.8189 -0.277893,0.3639 -0.470278,0.762 -0.577154,1.1942 -0.08551,0.4322 -0.128261,0.8758 -0.128257,1.3307 -4e-6,0.5687 0.07481,1.2056 0.224449,1.9108 0.171004,0.7051 0.416829,1.3648 0.737475,1.979 0.342012,0.6141 0.758846,1.1373 1.250501,1.5695 0.51302,0.4095 1.111549,0.6142 1.795591,0.6142 m 4.745492,10.0315 c -1.3e-5,-0.4322 -0.07483,-0.8303 -0.224449,-1.1942 -0.128269,-0.3412 -0.331342,-0.6824 -0.609219,-1.0237 -0.2779,-0.3412 -0.641293,-0.6937 -1.09018,-1.0577 -0.448908,-0.3639 -0.972622,-0.7734 -1.571143,-1.2283 -0.128265,-0.023 -0.245833,-0.034 -0.352705,-0.034 -0.08551,0 -0.213769,0 -0.38477,0 -0.06414,0 -0.213769,0 -0.448897,0 -0.235145,0.023 -0.513034,0.046 -0.833668,0.068 -0.320648,0.045 -0.662665,0.1023 -1.026052,0.1706 -0.363399,0.091 -0.716104,0.1933 -1.058116,0.3071 -0.171014,0.068 -0.416839,0.1706 -0.737475,0.3071 -0.299269,0.1592 -0.598534,0.3753 -0.897796,0.6483 -0.299268,0.2729 -0.566469,0.6141 -0.801603,1.0236 -0.213763,0.4094 -0.320644,0.9212 -0.320641,1.5354 -3e-6,1.2284 0.502335,2.2292 1.507014,3.0026 1.026047,0.7734 2.404803,1.1601 4.136273,1.1601 1.539068,0 2.704064,-0.3525 3.49499,-1.0577 0.812279,-0.6824 1.218424,-1.5582 1.218437,-2.6273"
       inkscape:connector-curvature="0"
       style="fill:#fafafa;fill-opacity:1" />
  </g>
</svg>
