<?xml version="1.0" encoding="UTF-8" standalone="no"?>
<!-- Created with Inkscape (http://www.inkscape.org/) -->

<svg
   xmlns:dc="http://purl.org/dc/elements/1.1/"
   xmlns:cc="http://creativecommons.org/ns#"
   xmlns:rdf="http://www.w3.org/1999/02/22-rdf-syntax-ns#"
   xmlns:svg="http://www.w3.org/2000/svg"
   xmlns="http://www.w3.org/2000/svg"
   xmlns:xlink="http://www.w3.org/1999/xlink"
   xmlns:sodipodi="http://sodipodi.sourceforge.net/DTD/sodipodi-0.dtd"
   xmlns:inkscape="http://www.inkscape.org/namespaces/inkscape"
   width="48"
   height="48"
   id="svg2"
   version="1.1"
   inkscape:version="0.48.4 r9939"
   sodipodi:docname="golly.svg">
  <defs
     id="defs4">
    <linearGradient
       id="linearGradient3773">
      <stop
         style="stop-color:#b4cd48;stop-opacity:1;"
         offset="0"
         id="stop3775" />
      <stop
         style="stop-color:#a3cd48;stop-opacity:1;"
         offset="1"
         id="stop3777" />
    </linearGradient>
    <linearGradient
       inkscape:collect="always"
       xlink:href="#linearGradient3773"
       id="linearGradient3779"
       x1="24"
       y1="1006.3622"
       x2="24"
       y2="1050.3622"
       gradientUnits="userSpaceOnUse" />
  </defs>
  <sodipodi:namedview
     id="base"
     pagecolor="#ffffff"
     bordercolor="#666666"
     borderopacity="1.0"
     inkscape:pageopacity="0.0"
     inkscape:pageshadow="2"
     inkscape:zoom="8.1906533"
     inkscape:cx="-2.2340624"
     inkscape:cy="21.25113"
     inkscape:document-units="px"
     inkscape:current-layer="layer1"
     showgrid="true"
     inkscape:snap-bbox="true"
     inkscape:window-width="1301"
     inkscape:window-height="744"
     inkscape:window-x="65"
     inkscape:window-y="24"
     inkscape:window-maximized="1"
     inkscape:snap-global="true"
     inkscape:snap-nodes="false">
    <inkscape:grid
       type="xygrid"
       id="grid2985"
       empspacing="6"
       visible="true"
       enabled="true"
       snapvisiblegridlinesonly="true" />
  </sodipodi:namedview>
  <metadata
     id="metadata7">
    <rdf:RDF>
      <cc:Work
         rdf:about="">
        <dc:format>image/svg+xml</dc:format>
        <dc:type
           rdf:resource="http://purl.org/dc/dcmitype/StillImage" />
        <dc:title />
      </cc:Work>
    </rdf:RDF>
  </metadata>
  <g
     inkscape:label="Layer 1"
     inkscape:groupmode="layer"
     id="layer1"
     transform="translate(0,-1004.3622)">
    <path
       id="path3788"
       d="m 24,1051.1116 c -21.2715315,0 -23.66257505,-0.089 -23.9375,-15.4063 0.328125,14.4033 2.9375,14.4063 23.9375,14.4063 21,0 23.609375,0 23.9375,-14.4063 -0.274925,15.3174 -2.665968,15.4063 -23.9375,15.4063 z"
       style="opacity:0.20000000000000001;fill:#ffffff;fill-opacity:1;stroke:none"
       inkscape:connector-curvature="0" />
    <path
       style="fill:url(#linearGradient3779);fill-opacity:1;stroke:none"
       d="m 24,1006.3622 c -24,0 -24,0 -24,22 0,22 0,22 24,22 24,0 24,0 24,-22 0,-22 0,-22 -24,-22 z"
       id="path3757"
       inkscape:connector-curvature="0"
       sodipodi:nodetypes="zzzzz" />
    <path
       style="fill:#000000;fill-opacity:1;stroke:none;opacity:0.20000000000000001"
       d="M 24 2 C 2.7284685 2 0.33742495 2.0888436 0.0625 17.40625 C 0.390625 3.0029297 3 3 24 3 C 45 3 47.609375 3.0029297 47.9375 17.40625 C 47.662575 2.0888436 45.271532 2 24 2 z "
       transform="translate(0,1004.3622)"
       id="path3770" />
    <path
       style="fill:#000000;fill-opacity:1;stroke:none;opacity:0.20000000000000001"
       d="M 24 2 C 7.2405624 2 2.2369698 2.0788791 0.71875 9.59375 C 2.3300781 2.5289866 7.5 2.53125 24 2.53125 C 40.5 2.53125 45.669922 2.5289866 47.28125 9.59375 C 45.76303 2.0788791 40.759438 2 24 2 z M 47.28125 9.59375 C 47.354492 9.9148756 47.409424 10.242768 47.46875 10.59375 C 47.41561 10.240351 47.346891 9.9186608 47.28125 9.59375 z M 0.71875 9.59375 C 0.65310868 9.9186608 0.58439008 10.240351 0.53125 10.59375 C 0.59057617 10.242768 0.64550781 9.9148756 0.71875 9.59375 z "
       transform="translate(0,1004.3622)"
       id="path3012" />
    <g
       id="g3032"
       transform="translate(48,1007.3622)" />
    <g
       id="g3025"
       transform="translate(-53.998,1003.3622)" />
    <path
       id="path3771"
       d="m 16.53125,1017.3622 0,2.7813 2.6875,0 0,-2.7813 -2.6875,0 z m 4.125,0 0,2.7813 2.71875,0 0,-2.7813 -2.71875,0 z m 4.1875,0 0,2.7813 2.6875,0 0,-2.7813 -2.6875,0 z m 4.15625,0 0,2.7813 2.6875,0 0,-2.7813 -2.6875,0 z m 4.15625,0 0,2.7813 2.6875,0 0,-2.7813 -2.6875,0 z m -20.8125,4.25 0,2.75 2.6875,0 0,-2.75 -2.6875,0 z m 4.1875,0 0,2.75 2.6875,0 0,-2.75 -2.6875,0 z m -4.1875,4.2813 0,2.7187 2.6875,0 0,-2.7187 -2.6875,0 z m 4.1875,0 0,2.7187 2.6875,0 0,-2.7187 -2.6875,0 z m -4.1875,4.2187 0,2.7188 2.6875,0 0,-2.7188 -2.6875,0 z m 4.1875,0 0,2.7188 2.6875,0 0,-2.7188 -2.6875,0 z m 12.46875,0 0,2.7188 2.6875,0 0,-2.7188 -2.6875,0 z m 4.15625,0 0,2.7188 2.6875,0 0,-2.7188 -2.6875,0 z m 4.15625,0 0,2.7188 2.6875,0 0,-2.7188 -2.6875,0 z m -24.96875,4.25 0,2.75 2.6875,0 0,-2.75 -2.6875,0 z m 4.1875,0 0,2.75 2.6875,0 0,-2.75 -2.6875,0 z m 16.625,0 0,2.75 2.6875,0 0,-2.75 -2.6875,0 z m 4.15625,0 0,2.75 2.6875,0 0,-2.75 -2.6875,0 z m -20.78125,4.2188 0,2.7812 2.6875,0 0,-2.7812 -2.6875,0 z m 4.125,0 0,2.7812 2.71875,0 0,-2.7812 -2.71875,0 z m 4.1875,0 0,2.7812 2.6875,0 0,-2.7812 -2.6875,0 z m 4.15625,0 0,2.7812 2.6875,0 0,-2.7812 -2.6875,0 z m 4.15625,0 0,2.7812 2.6875,0 0,-2.7812 -2.6875,0 z"
       style="font-size:40.55433655000000215px;font-style:normal;font-weight:normal;text-align:center;line-height:100%;letter-spacing:0px;word-spacing:0px;text-anchor:middle;fill:#000000;fill-opacity:1;stroke:none;font-family:Sans;opacity:0.1"
       inkscape:connector-curvature="0" />
    <path
       style="font-size:40.55433655000000215px;font-style:normal;font-weight:normal;text-align:center;line-height:100%;letter-spacing:0px;word-spacing:0px;text-anchor:middle;fill:#ffffff;fill-opacity:1;stroke:none;font-family:Sans"
       d="M 15.1875 12 L 15.1875 14.78125 L 17.875 14.78125 L 17.875 12 L 15.1875 12 z M 19.3125 12 L 19.3125 14.78125 L 22.03125 14.78125 L 22.03125 12 L 19.3125 12 z M 23.5 12 L 23.5 14.78125 L 26.1875 14.78125 L 26.1875 12 L 23.5 12 z M 27.65625 12 L 27.65625 14.78125 L 30.34375 14.78125 L 30.34375 12 L 27.65625 12 z M 31.8125 12 L 31.8125 14.78125 L 34.5 14.78125 L 34.5 12 L 31.8125 12 z M 11 16.25 L 11 19 L 13.6875 19 L 13.6875 16.25 L 11 16.25 z M 15.1875 16.25 L 15.1875 19 L 17.875 19 L 17.875 16.25 L 15.1875 16.25 z M 11 20.53125 L 11 23.25 L 13.6875 23.25 L 13.6875 20.53125 L 11 20.53125 z M 15.1875 20.53125 L 15.1875 23.25 L 17.875 23.25 L 17.875 20.53125 L 15.1875 20.53125 z M 11 24.75 L 11 27.46875 L 13.6875 27.46875 L 13.6875 24.75 L 11 24.75 z M 15.1875 24.75 L 15.1875 27.46875 L 17.875 27.46875 L 17.875 24.75 L 15.1875 24.75 z M 27.65625 24.75 L 27.65625 27.46875 L 30.34375 27.46875 L 30.34375 24.75 L 27.65625 24.75 z M 31.8125 24.75 L 31.8125 27.46875 L 34.5 27.46875 L 34.5 24.75 L 31.8125 24.75 z M 35.96875 24.75 L 35.96875 27.46875 L 38.65625 27.46875 L 38.65625 24.75 L 35.96875 24.75 z M 11 29 L 11 31.75 L 13.6875 31.75 L 13.6875 29 L 11 29 z M 15.1875 29 L 15.1875 31.75 L 17.875 31.75 L 17.875 29 L 15.1875 29 z M 31.8125 29 L 31.8125 31.75 L 34.5 31.75 L 34.5 29 L 31.8125 29 z M 35.96875 29 L 35.96875 31.75 L 38.65625 31.75 L 38.65625 29 L 35.96875 29 z M 15.1875 33.21875 L 15.1875 36 L 17.875 36 L 17.875 33.21875 L 15.1875 33.21875 z M 19.3125 33.21875 L 19.3125 36 L 22.03125 36 L 22.03125 33.21875 L 19.3125 33.21875 z M 23.5 33.21875 L 23.5 36 L 26.1875 36 L 26.1875 33.21875 L 23.5 33.21875 z M 27.65625 33.21875 L 27.65625 36 L 30.34375 36 L 30.34375 33.21875 L 27.65625 33.21875 z M 31.8125 33.21875 L 31.8125 36 L 34.5 36 L 34.5 33.21875 L 31.8125 33.21875 z "
       transform="translate(0,1004.3622)"
       id="text3766" />
  </g>
</svg>
