<?xml version="1.0" encoding="UTF-8" standalone="no"?>
<!-- Created with Inkscape (http://www.inkscape.org/) -->

<svg
   xmlns:dc="http://purl.org/dc/elements/1.1/"
   xmlns:cc="http://creativecommons.org/ns#"
   xmlns:rdf="http://www.w3.org/1999/02/22-rdf-syntax-ns#"
   xmlns:svg="http://www.w3.org/2000/svg"
   xmlns="http://www.w3.org/2000/svg"
   xmlns:xlink="http://www.w3.org/1999/xlink"
   xmlns:sodipodi="http://sodipodi.sourceforge.net/DTD/sodipodi-0.dtd"
   xmlns:inkscape="http://www.inkscape.org/namespaces/inkscape"
   width="48"
   height="48"
   id="svg2"
   version="1.1"
   inkscape:version="0.48.4 r9939"
   sodipodi:docname="chrome-komhbcfkdcgmcdoenjcjheifdiabikfi-Default.svg">
  <defs
     id="defs4">
    <linearGradient
       id="linearGradient3776">
      <stop
         style="stop-color:#e6e6e6;stop-opacity:1;"
         offset="0"
         id="stop3778" />
      <stop
         style="stop-color:#ffffff;stop-opacity:1;"
         offset="1"
         id="stop3780" />
    </linearGradient>
    <linearGradient
       id="linearGradient3779">
      <stop
         style="stop-color:#000000;stop-opacity:1;"
         offset="0"
         id="stop3781" />
      <stop
         style="stop-color:#ffffff;stop-opacity:1;"
         offset="1"
         id="stop3783" />
    </linearGradient>
    <linearGradient
       inkscape:collect="always"
       xlink:href="#linearGradient3776"
       id="linearGradient3782"
       x1="24"
       y1="1050.3622"
       x2="24"
       y2="1006.3622"
       gradientUnits="userSpaceOnUse" />
    <linearGradient
       inkscape:collect="always"
       xlink:href="#linearGradient3779"
       id="linearGradient3785"
       gradientUnits="userSpaceOnUse"
       spreadMethod="repeat"
       x1="44"
       y1="1048.3622"
       x2="15"
       y2="1019.3622" />
    <linearGradient
       inkscape:collect="always"
       xlink:href="#linearGradient3779"
       id="linearGradient3788"
       gradientUnits="userSpaceOnUse"
       spreadMethod="repeat"
       x1="24"
       y1="1028.3622"
       x2="45"
       y2="1007.3622" />
    <linearGradient
       gradientTransform="matrix(0,-1,1,0,-1.5e-6,47.999998)"
       gradientUnits="userSpaceOnUse"
       x2="47"
       x1="1"
       id="linearGradient3764">
      <stop
         id="stop3017"
         stop-opacity="1"
         stop-color="#e4e4e4" />
      <stop
         id="stop3019"
         stop-opacity="1"
         stop-color="#eee"
         offset="1" />
    </linearGradient>
    <linearGradient
       inkscape:collect="always"
       xlink:href="#linearGradient3764"
       id="linearGradient3161"
       gradientUnits="userSpaceOnUse"
       gradientTransform="matrix(0,-1,1,0,-1.5e-6,47.999998)"
       x1="1"
       x2="47" />
    <linearGradient
       inkscape:collect="always"
       xlink:href="#linearGradient3764"
       id="linearGradient3164"
       gradientUnits="userSpaceOnUse"
       gradientTransform="matrix(0,-1,1,0,-52.696002,1050.4692)"
       x1="1"
       x2="47" />
  </defs>
  <sodipodi:namedview
     id="base"
     pagecolor="#ffffff"
     bordercolor="#666666"
     borderopacity="1.0"
     inkscape:pageopacity="0.0"
     inkscape:pageshadow="2"
     inkscape:zoom="8.1906533"
     inkscape:cx="-6.3062919"
     inkscape:cy="26.610234"
     inkscape:document-units="px"
     inkscape:current-layer="layer1"
     showgrid="true"
     inkscape:snap-bbox="true"
     inkscape:window-width="1301"
     inkscape:window-height="744"
     inkscape:window-x="65"
     inkscape:window-y="24"
     inkscape:window-maximized="1"
     inkscape:object-nodes="true">
    <inkscape:grid
       type="xygrid"
       id="grid3003"
       empspacing="6"
       visible="true"
       enabled="true"
       snapvisiblegridlinesonly="true" />
  </sodipodi:namedview>
  <metadata
     id="metadata7">
    <rdf:RDF>
      <cc:Work
         rdf:about="">
        <dc:format>image/svg+xml</dc:format>
        <dc:type
           rdf:resource="http://purl.org/dc/dcmitype/StillImage" />
        <dc:title />
      </cc:Work>
    </rdf:RDF>
  </metadata>
  <g
     inkscape:label="Layer 1"
     inkscape:groupmode="layer"
     id="layer1"
     transform="translate(0,-1004.3622)">
    <path
       id="path3788"
       d="m 24,1051.1116 c -21.2715315,0 -23.66257505,-0.089 -23.9375,-15.4063 0.328125,14.4033 2.9375,14.4063 23.9375,14.4063 21,0 23.609375,0 23.9375,-14.4063 -0.274925,15.3174 -2.665968,15.4063 -23.9375,15.4063 z"
       style="opacity:0.20000000000000001;fill:#ffffff;fill-opacity:1;stroke:none"
       inkscape:connector-curvature="0" />
    <path
       style="fill:url(#linearGradient3782);fill-opacity:1;stroke:none"
       d="m 24,1006.3622 c -24,0 -24,0 -24,22 0,22 0,22 24,22 24,0 24,0 24,-22 0,-22 0,-22 -24,-22 z"
       id="path3757"
       inkscape:connector-curvature="0"
       sodipodi:nodetypes="zzzzz" />
    <g
       id="g3790">
      <path
         style="opacity:0.05;fill:url(#linearGradient3788);fill-opacity:1;stroke:none"
         d="m 24,1006.3622 c -24,0 -24,0 -24,22 0,22 0,22 24,22 24,0 24,0 24,-22 0,-22 0,-22 -24,-22 z"
         id="path3777"
         inkscape:connector-curvature="0"
         sodipodi:nodetypes="zzzzz" />
      <path
         sodipodi:nodetypes="zzzzz"
         inkscape:connector-curvature="0"
         id="path3787"
         d="m 24,1006.3622 c -24,0 -24,0 -24,22 0,22 0,22 24,22 24,0 24,0 24,-22 0,-22 0,-22 -24,-22 z"
         style="opacity:0.05;fill:url(#linearGradient3785);fill-opacity:1;stroke:none" />
    </g>
    <path
       style="fill:#000000;fill-opacity:1;stroke:none;opacity:0.20000000000000001"
       d="M 24 2 C 2.7284685 2 0.33742495 2.0888436 0.0625 17.40625 C 0.390625 3.0029297 3 3 24 3 C 45 3 47.609375 3.0029297 47.9375 17.40625 C 47.662575 2.0888436 45.271532 2 24 2 z "
       transform="translate(0,1004.3622)"
       id="path3770" />
    <g
       id="g3813"
       transform="translate(-47.998,993.3622)" />
    <path
       id="path3055"
       d="m 30.738,1033.3412 c 3.03,-1.688 5.348,-2.977 5.563,-3.086 0.625,-0.355 1.285,-1.238 0,-1.949 -0.414,-0.23 -2.668,-1.48 -5.566,-3.082 l -3.984,4.074 m 3.988,4.04"
       inkscape:connector-curvature="0"
       style="opacity:0.2;fill:#000000;fill-opacity:1;fill-rule:nonzero;stroke:none" />
    <path
       id="path3057"
       d="m 26.75,1029.3002 -12.742,13.02 c 0.289,0.035 0.637,-0.039 1.031,-0.262 0.828,-0.457 9.68,-5.371 15.703,-8.719 m -3.992,-4.04"
       inkscape:connector-curvature="0"
       style="opacity:0.2;fill:#000000;fill-opacity:1;fill-rule:nonzero;stroke:none" />
    <path
       id="path3059"
       d="m 26.75,1029.3002 3.984,-4.074 c 0,0 -14.809,-8.195 -15.699,-8.684 -0.34,-0.188 -0.711,-0.254 -1.039,-0.18 l 12.75,12.938 m 0.004,0"
       inkscape:connector-curvature="0"
       style="opacity:0.1;fill:#000000;fill-opacity:1;fill-rule:nonzero;stroke:none" />
    <path
       id="path3061"
       d="M 26.75,1029.3002 14,1016.3622 c -0.527,0.121 -0.957,0.582 -0.957,1.508 0,1.512 0,21.633 0,22.898 0,0.875 0.34,1.492 0.965,1.551 l 12.746,-13.02 m -0.004,0"
       inkscape:connector-curvature="0"
       style="opacity:0.1;fill:#000000;fill-opacity:1;fill-rule:nonzero;stroke:none" />
    <path
       id="path3069"
       d="m 29.738,1032.3412 c 3.03,-1.688 5.348,-2.977 5.563,-3.086 0.625,-0.355 1.285,-1.238 0,-1.949 -0.414,-0.23 -2.668,-1.48 -5.566,-3.082 l -3.984,4.074 m 3.988,4.04"
       inkscape:connector-curvature="0"
       style="fill:#f9ab7d;fill-opacity:1;fill-rule:nonzero;stroke:none" />
    <path
       id="path3071"
       d="m 25.75,1028.3002 -12.742,13.02 c 0.289,0.035 0.637,-0.039 1.031,-0.262 0.828,-0.457 9.68,-5.371 15.703,-8.719 m -3.992,-4.04"
       inkscape:connector-curvature="0"
       style="fill:#cf435a;fill-opacity:1;fill-rule:nonzero;stroke:none" />
    <path
       id="path3073"
       d="m 25.75,1028.3002 3.984,-4.074 c 0,0 -14.809,-8.195 -15.699,-8.684 -0.34,-0.188 -0.711,-0.254 -1.039,-0.18 l 12.75,12.938 m 0.004,0"
       inkscape:connector-curvature="0"
       style="fill:#95deb2;fill-opacity:1;fill-rule:nonzero;stroke:none" />
    <path
       id="path3075"
       d="M 25.75,1028.3002 13,1015.3622 c -0.527,0.121 -0.957,0.582 -0.957,1.508 0,1.512 0,21.633 0,22.898 0,0.875 0.34,1.492 0.965,1.551 l 12.746,-13.02 m -0.004,0"
       inkscape:connector-curvature="0"
       style="fill:#43a2ab;fill-opacity:1;fill-rule:nonzero;stroke:none" />
  </g>
</svg>
