<?xml version="1.0" encoding="UTF-8" standalone="no"?>
<!-- Created with Inkscape (http://www.inkscape.org/) -->

<svg
   xmlns:dc="http://purl.org/dc/elements/1.1/"
   xmlns:cc="http://creativecommons.org/ns#"
   xmlns:rdf="http://www.w3.org/1999/02/22-rdf-syntax-ns#"
   xmlns:svg="http://www.w3.org/2000/svg"
   xmlns="http://www.w3.org/2000/svg"
   xmlns:sodipodi="http://sodipodi.sourceforge.net/DTD/sodipodi-0.dtd"
   xmlns:inkscape="http://www.inkscape.org/namespaces/inkscape"
   width="48"
   height="48"
   id="svg2"
   version="1.1"
   inkscape:version="0.48.4 r9939"
   sodipodi:docname="google-earth.svg">
  <defs
     id="defs4" />
  <sodipodi:namedview
     id="base"
     pagecolor="#ffffff"
     bordercolor="#666666"
     borderopacity="1.0"
     inkscape:pageopacity="0.0"
     inkscape:pageshadow="2"
     inkscape:zoom="5.7916665"
     inkscape:cx="2.7297264"
     inkscape:cy="19.543783"
     inkscape:document-units="px"
     inkscape:current-layer="layer1"
     showgrid="true"
     inkscape:snap-bbox="true"
     inkscape:window-width="1301"
     inkscape:window-height="744"
     inkscape:window-x="65"
     inkscape:window-y="24"
     inkscape:window-maximized="1"
     inkscape:snap-global="true"
     inkscape:object-nodes="true">
    <inkscape:grid
       type="xygrid"
       id="grid2985"
       empspacing="6"
       visible="true"
       enabled="true"
       snapvisiblegridlinesonly="true" />
  </sodipodi:namedview>
  <metadata
     id="metadata7">
    <rdf:RDF>
      <cc:Work
         rdf:about="">
        <dc:format>image/svg+xml</dc:format>
        <dc:type
           rdf:resource="http://purl.org/dc/dcmitype/StillImage" />
        <dc:title />
      </cc:Work>
    </rdf:RDF>
  </metadata>
  <g
     inkscape:label="Layer 1"
     inkscape:groupmode="layer"
     id="layer1"
     transform="translate(0,-1004.3622)">
    <path
       id="path3788"
       d="m 24,1051.1116 c -21.2715315,0 -23.66257505,-0.089 -23.9375,-15.4063 0.328125,14.4033 2.9375,14.4063 23.9375,14.4063 21,0 23.609375,0 23.9375,-14.4063 -0.274925,15.3174 -2.665968,15.4063 -23.9375,15.4063 z"
       style="opacity:0.20000000000000001;fill:#ffffff;fill-opacity:1;stroke:none"
       inkscape:connector-curvature="0" />
    <path
       style="fill:#2196f3;fill-opacity:1;stroke:none"
       d="m 24,1006.3622 c -21.3879022,0 -23.68414786,0.1173 -23.9375,15.6875 0.25977777,-15.4839 2.6013125,-15.6875 23.9375,-15.6875 z"
       id="path3071" />
    <path
       style="fill:#2196f3;fill-opacity:1;stroke:none"
       d="m 30.0625,1006.3935 c 0.914651,0.01 1.801709,0.011 2.625,0.031 -0.785713,-0.019 -1.756411,-0.022 -2.625,-0.031 z"
       id="path3069" />
    <path
       style="fill:#2196f3;fill-opacity:1;stroke:none"
       d="m 39.28125,1006.8935 c 0.425626,0.064 0.865014,0.1382 1.25,0.2187 -0.400013,-0.084 -0.805862,-0.153 -1.25,-0.2187 z"
       id="path3067" />
    <path
       style="fill:#3f51b5;fill-opacity:1;stroke:none"
       d="m 39.28125,1007.456 c -20.870307,0.4774 -22.205011,16.5846 -39.25,17.9062 -0.0033213,1.0233 -0.03125,1.8621 -0.03125,3 0,1.6358 0.02138495,2.9109 0.03125,4.3125 22.438685,-3.8233 28.72855,-15.3194 46.875,-20.5 -0.83552,-2.4485 -2.334485,-3.8693 -4.90625,-4.6875 -0.203002,-0.01 -0.425376,-0.026 -0.625,-0.031 -0.71505,-0.018 -1.420514,-0.015 -2.09375,0 z"
       id="path3065" />
    <path
       style="fill:#2196f3;fill-opacity:1;stroke:none"
       d="m 47.78125,1017.5185 c 0.0706,1.0616 0.129299,2.2109 0.15625,3.4687 -0.02975,-1.2734 -0.08049,-2.4078 -0.15625,-3.4687 z"
       id="path3063" />
    <path
       style="fill:#039be5;fill-opacity:1;stroke:none"
       d="m 40.1875,1021.081 c -8.826775,0.4861 -21.836657,11.6689 -40.0625,16.2187 0.0580809,1.4478 0.13609901,2.7943 0.28125,3.9375 18.253679,1.5341 35.386358,-11.241 43.59375,-12.875 0.217157,-0.043 0.420997,-0.082 0.625,-0.094 0.184632,-0.01 0.357785,-0.015 0.53125,0 1.214258,0.1081 2.159934,0.8337 2.8125,1.9062 7.33e-4,-0.6452 0.03125,-1.1249 0.03125,-1.8125 0,-1.1617 -0.02772,-2.0203 -0.03125,-3.0625 -1.917962,-2.9004 -4.214314,-4.1485 -6.9375,-4.2187 -0.276058,-0.01 -0.559015,-0.016 -0.84375,0 z"
       id="path3061" />
    <path
       style="fill:#2196f3;fill-opacity:1;stroke:none"
       d="m 47.96875,1030.1747 c -0.0026,2.2582 -0.01375,4.2693 -0.0625,6.0625 0.04915,-1.7488 0.05999,-3.8522 0.0625,-6.0625 z"
       id="path3059" />
    <path
       style="fill:#2196f3;fill-opacity:1;stroke:none"
       d="m 47.90625,1036.2372 c -0.02438,0.8966 -0.04566,1.7421 -0.09375,2.5313 0.04879,-0.7828 0.06867,-1.639 0.09375,-2.5313 z"
       id="path3057" />
    <path
       style="fill:#2196f3;fill-opacity:1;stroke:none"
       d="m 0.40625,1041.2372 c 0.1372848,1.0812 0.3132166,2.035 0.5625,2.875 -0.2488325,-0.8442 -0.424545,-1.7884 -0.5625,-2.875 z"
       id="path3055" />
    <path
       style="fill:#2196f3;fill-opacity:1;stroke:none"
       d="m 0.125,1037.2997 c -0.04797725,-1.1958 -0.08014689,-2.6691 -0.09375,-4.125 0.01287737,1.4419 0.04531889,2.9178 0.09375,4.125 z"
       id="path3053" />
    <path
       style="fill:#2196f3;fill-opacity:1;stroke:none"
       d="m 47.625,1041.081 c -0.11857,0.9915 -0.292514,1.8632 -0.5,2.6562 0.210368,-0.7925 0.379506,-1.6622 0.5,-2.6562 z"
       id="path3051" />
    <path
       style="fill:#2196f3;fill-opacity:1;stroke:none"
       d="m 47.125,1043.7372 c -0.07144,0.273 -0.166035,0.5616 -0.25,0.8125 0.08878,-0.2594 0.174844,-0.5294 0.25,-0.8125 z"
       id="path3049" />
    <path
       style="fill:#2196f3;fill-opacity:1;stroke:none"
       d="m 46.875,1044.5497 c -0.08396,0.2509 -0.152499,0.4892 -0.25,0.7188 0.09754,-0.2258 0.165728,-0.4726 0.25,-0.7188 z"
       id="path3047" />
    <path
       style="fill:#ffd600;fill-opacity:1;stroke:none"
       d="m 39.09375,1041.1122 c -3.614429,0.016 -8.469891,2.0005 -14.09375,4.25 -7.544099,3.0176 -15.668214,2.0547 -23.0625,0.9688 1.1925736,1.8891 3.1350556,2.9042 6.25,3.4375 0.073746,0.013 0.1451934,0.019 0.21875,0.031 1.863041,0.3005 4.155414,0.4334 6.9375,0.5 0.679658,0.016 1.508674,0.023 2.25,0.031 1.957367,0.023 3.984981,0.031 6.40625,0.031 7.179,0 12.19224,-0 15.71875,-0.5937 0.370811,-0.062 0.724224,-0.1432 1.0625,-0.2188 2.158234,-0.4825 3.691768,-1.254 4.75,-2.5 -0.947678,-4.3708 -3.190821,-5.9521 -6.4375,-5.9375 z"
       id="path3045" />
    <path
       style="fill:#2196f3;fill-opacity:1;stroke:none"
       d="m 1.9375,1046.331 c -0.1989825,-0.3153 -0.3719416,-0.6644 -0.53125,-1.0313 0.1597583,0.365 0.3329342,0.7171 0.53125,1.0313 z"
       id="path3043" />
    <path
       style="fill:#2196f3;fill-opacity:1;stroke:none"
       d="m 1.40625,1045.2997 c -0.1556171,-0.3584 -0.3152297,-0.7452 -0.4375,-1.1562 0.1248563,0.4171 0.2786131,0.7932 0.4375,1.1562 z"
       id="path3757" />
    <path
       style="fill:#4fc3f7;fill-opacity:1;stroke:none"
       d="m 24,1006.3622 c 8.897238,0 14.476734,0 18,1.125 -0.203002,-0.01 -0.425376,-0.026 -0.625,-0.031 -22.881602,-0.581 -23.748923,16.542 -41.34375,17.9062 0.06089,-18.7597 1.21015,-19 23.96875,-19 z"
       id="path3039" />
    <path
       style="fill:#ffc400;fill-opacity:1;stroke:none"
       d="m 42.125,1007.5185 c 0.585938,0.1933 1.119141,0.4243 1.59375,0.6875 -0.481227,-0.2677 -1.00149,-0.4918 -1.59375,-0.6875 z"
       id="path3037" />
    <path
       style="fill:#3d5afe;fill-opacity:1;stroke:none"
       d="m 46.90625,1012.1747 c 0.944442,2.7677 1.042032,7.0876 1.0625,13.125 -1.917962,-2.9004 -4.214314,-4.1484 -6.9375,-4.2187 -8.833858,-0.2283 -22.092477,11.5221 -40.90625,16.2187 -0.05379,-1.3407 -0.08227,-2.9934 -0.09375,-4.625 22.438685,-3.8233 28.72855,-15.3194 46.875,-20.5 z"
       id="path3035" />
    <path
       style="fill:#ffc400;fill-opacity:1;stroke:none"
       d="m 0.125,1037.2997 c 0.02558,0.6376 0.0564,1.2541 0.09375,1.8438 -0.04049,-0.578 -0.0681,-1.2045 -0.09375,-1.8438 z"
       id="path3033" />
    <path
       style="fill:#26c6da;fill-opacity:1;stroke:none"
       d="m 45.15625,1028.2685 c 1.214258,0.1081 2.159934,0.8337 2.8125,1.9062 -0.01026,9.0327 -0.130383,14.1586 -2.4375,16.875 -0.947678,-4.3708 -3.190821,-5.9521 -6.4375,-5.9375 -3.614429,0.016 -8.469891,2.0005 -14.09375,4.25 -7.544099,3.0176 -15.668214,2.0547 -23.0625,0.9688 -0.79593,-1.2609 -1.25534,-2.9207 -1.53125,-5.0938 18.253679,1.5341 35.386358,-11.241 43.59375,-12.875 0.217157,-0.043 0.420997,-0.082 0.625,-0.094 0.184632,-0.01 0.357785,-0.015 0.53125,0 z"
       id="path3031" />
    <path
       style="fill:#ffc400;fill-opacity:1;stroke:none"
       d="m 1.9375,1046.331 c 0.15902,0.2519 0.34504,0.4973 0.53125,0.7187 -0.19356,-0.2279 -0.36681,-0.4583 -0.53125,-0.7187 z"
       id="path3029" />
    <path
       style="fill:#ffc400;fill-opacity:1;stroke:none"
       d="m 43.59375,1048.581 c -0.2545,0.1352 -0.527645,0.2595 -0.8125,0.375 0.288445,-0.1163 0.555023,-0.2387 0.8125,-0.375 z"
       id="path3027" />
    <path
       style="fill:#ffc400;fill-opacity:1;stroke:none"
       d="m 42.78125,1048.956 c -0.285293,0.1156 -0.588793,0.2151 -0.90625,0.3125 0.321168,-0.098 0.617805,-0.1963 0.90625,-0.3125 z"
       id="path3025" />
    <path
       style="fill:#ffc400;fill-opacity:1;stroke:none"
       d="m 40.78125,1049.5497 c -0.338276,0.076 -0.691689,0.1568 -1.0625,0.2188 0.370897,-0.062 0.7241,-0.143 1.0625,-0.2188 z"
       id="path3023" />
    <path
       style="fill:#ffc400;fill-opacity:1;stroke:none"
       d="m 7.5625,1049.6437 c 0.26674,0.054 0.557865,0.1101 0.84375,0.1562 -0.292895,-0.047 -0.57094,-0.1008 -0.84375,-0.1562 z"
       id="path3021" />
    <path
       style="fill:#ffc400;fill-opacity:1;stroke:none"
       d="m 32.34375,1050.2999 c -0.72103,0.015 -1.648467,0.024 -2.4375,0.031 0.828312,-0.01 1.683537,-0.015 2.4375,-0.031 z"
       id="path3019" />
    <path
       style="fill:#ffc400;fill-opacity:1;stroke:none"
       d="m 15.34375,1050.2999 c 0.694587,0.016 1.491036,0.023 2.25,0.031 -0.741326,-0.01 -1.570342,-0.015 -2.25,-0.031 z"
       id="path3098" />
    <path
       style="fill:#000000;fill-opacity:1;stroke:none;opacity:0.20000000000000001"
       d="M 24 2 C 2.7284685 2 0.33742495 2.0888436 0.0625 17.40625 C 0.390625 3.0029297 3 3 24 3 C 45 3 47.609375 3.0029297 47.9375 17.40625 C 47.662575 2.0888436 45.271532 2 24 2 z "
       transform="translate(0,1004.3622)"
       id="path3770" />
    <path
       style="fill:#000000;fill-opacity:1;stroke:none;opacity:0.20000000000000001"
       d="M 24 2 C 7.2405624 2 2.2369698 2.0788791 0.71875 9.59375 C 2.3300781 2.5289866 7.5 2.53125 24 2.53125 C 40.5 2.53125 45.669922 2.5289866 47.28125 9.59375 C 45.76303 2.0788791 40.759438 2 24 2 z M 47.28125 9.59375 C 47.354492 9.9148756 47.409424 10.242768 47.46875 10.59375 C 47.41561 10.240351 47.346891 9.9186608 47.28125 9.59375 z M 0.71875 9.59375 C 0.65310868 9.9186608 0.58439008 10.240351 0.53125 10.59375 C 0.59057617 10.242768 0.64550781 9.9148756 0.71875 9.59375 z "
       transform="translate(0,1004.3622)"
       id="path3012" />
    <g
       id="g3032"
       transform="translate(48,1007.3622)" />
  </g>
</svg>
