<?xml version="1.0" encoding="UTF-8" standalone="no"?>
<!-- Created with Inkscape (http://www.inkscape.org/) -->

<svg
   xmlns:dc="http://purl.org/dc/elements/1.1/"
   xmlns:cc="http://creativecommons.org/ns#"
   xmlns:rdf="http://www.w3.org/1999/02/22-rdf-syntax-ns#"
   xmlns:svg="http://www.w3.org/2000/svg"
   xmlns="http://www.w3.org/2000/svg"
   xmlns:xlink="http://www.w3.org/1999/xlink"
   xmlns:sodipodi="http://sodipodi.sourceforge.net/DTD/sodipodi-0.dtd"
   xmlns:inkscape="http://www.inkscape.org/namespaces/inkscape"
   width="48"
   height="48"
   id="svg2"
   version="1.1"
   inkscape:version="0.48.4 r9939"
   sodipodi:docname="guayadeque.svg">
  <defs
     id="defs4">
    <linearGradient
       id="linearGradient3782">
      <stop
         style="stop-color:#f0f0f0;stop-opacity:1;"
         offset="0"
         id="stop3784" />
      <stop
         style="stop-color:#ffffff;stop-opacity:1;"
         offset="1"
         id="stop3786" />
    </linearGradient>
    <linearGradient
       id="linearGradient3772">
      <stop
         style="stop-color:#448aff;stop-opacity:1;"
         offset="0"
         id="stop3775" />
      <stop
         style="stop-color:#6da4ff;stop-opacity:1;"
         offset="1"
         id="stop3777" />
    </linearGradient>
    <linearGradient
       id="linearGradient3779">
      <stop
         style="stop-color:#000000;stop-opacity:1;"
         offset="0"
         id="stop3781" />
      <stop
         style="stop-color:#ffffff;stop-opacity:1;"
         offset="1"
         id="stop3783" />
    </linearGradient>
    <linearGradient
       inkscape:collect="always"
       xlink:href="#linearGradient3779"
       id="linearGradient3795"
       gradientUnits="userSpaceOnUse"
       gradientTransform="translate(-20,0)"
       spreadMethod="repeat"
       x1="24"
       y1="1028.3622"
       x2="45"
       y2="1007.3622" />
    <linearGradient
       inkscape:collect="always"
       xlink:href="#linearGradient3779"
       id="linearGradient3797"
       gradientUnits="userSpaceOnUse"
       gradientTransform="translate(-20,0)"
       spreadMethod="repeat"
       x1="44"
       y1="1048.3622"
       x2="15"
       y2="1019.3622" />
    <linearGradient
       inkscape:collect="always"
       xlink:href="#linearGradient3772"
       id="linearGradient3780"
       x1="24"
       y1="1050.3622"
       x2="24"
       y2="1006.3622"
       gradientUnits="userSpaceOnUse" />
    <linearGradient
       inkscape:collect="always"
       xlink:href="#linearGradient3782"
       id="linearGradient3788"
       x1="24"
       y1="1035.3622"
       x2="24"
       y2="1016.3622"
       gradientUnits="userSpaceOnUse"
       gradientTransform="matrix(-1,0,0,1,48,0)" />
    <linearGradient
       gradientTransform="matrix(0,-1,1,0,-1.5e-6,47.999998)"
       gradientUnits="userSpaceOnUse"
       x2="47"
       x1="1"
       id="linearGradient3764">
      <stop
         id="stop3013"
         stop-opacity="1"
         stop-color="#007fba" />
      <stop
         id="stop3015"
         stop-opacity="1"
         stop-color="#008cce"
         offset="1" />
    </linearGradient>
    <linearGradient
       inkscape:collect="always"
       xlink:href="#linearGradient3764"
       id="linearGradient3137"
       gradientUnits="userSpaceOnUse"
       gradientTransform="matrix(0,-1,1,0,-1.5e-6,47.999998)"
       x1="1"
       x2="47" />
    <linearGradient
       inkscape:collect="always"
       xlink:href="#linearGradient3764"
       id="linearGradient3140"
       gradientUnits="userSpaceOnUse"
       gradientTransform="matrix(0,-1,1,0,-54.000002,1054.9512)"
       x1="1"
       x2="47" />
  </defs>
  <sodipodi:namedview
     id="base"
     pagecolor="#ffffff"
     bordercolor="#666666"
     borderopacity="1.0"
     inkscape:pageopacity="0.0"
     inkscape:pageshadow="2"
     inkscape:zoom="16.381307"
     inkscape:cx="11.803005"
     inkscape:cy="8.9517155"
     inkscape:document-units="px"
     inkscape:current-layer="layer1"
     showgrid="true"
     inkscape:snap-bbox="true"
     inkscape:window-width="1301"
     inkscape:window-height="744"
     inkscape:window-x="65"
     inkscape:window-y="24"
     inkscape:window-maximized="1"
     inkscape:snap-global="true"
     inkscape:object-paths="false"
     inkscape:object-nodes="true"
     inkscape:snap-nodes="true"
     inkscape:snap-smooth-nodes="true">
    <inkscape:grid
       type="xygrid"
       id="grid2985"
       empspacing="6"
       visible="true"
       enabled="true"
       snapvisiblegridlinesonly="true" />
  </sodipodi:namedview>
  <metadata
     id="metadata7">
    <rdf:RDF>
      <cc:Work
         rdf:about="">
        <dc:format>image/svg+xml</dc:format>
        <dc:type
           rdf:resource="http://purl.org/dc/dcmitype/StillImage" />
        <dc:title />
      </cc:Work>
    </rdf:RDF>
  </metadata>
  <g
     inkscape:label="Layer 1"
     inkscape:groupmode="layer"
     id="layer1"
     transform="translate(0,-1004.3622)">
    <path
       id="path3788"
       d="m 24,1051.1116 c -21.2715315,0 -23.66257505,-0.089 -23.9375,-15.4063 0.328125,14.4033 2.9375,14.4063 23.9375,14.4063 21,0 23.609375,0 23.9375,-14.4063 -0.274925,15.3174 -2.665968,15.4063 -23.9375,15.4063 z"
       style="opacity:0.20000000000000001;fill:#ffffff;fill-opacity:1;stroke:none"
       inkscape:connector-curvature="0" />
    <path
       style="fill:url(#linearGradient3780);fill-opacity:1;stroke:none"
       d="m 24,1006.3622 c -24,0 -24,0 -24,22 0,22 0,22 24,22 24,0 24,0 24,-22 0,-22 0,-22 -24,-22 z"
       id="path3757"
       inkscape:connector-curvature="0"
       sodipodi:nodetypes="zzzzz" />
    <g
       id="g3791"
       transform="translate(20,0)">
      <path
         style="opacity:0.02999998;fill:url(#linearGradient3795);fill-opacity:1;stroke:none"
         d="m 4,1006.3622 c -24,0 -24,0 -24,22 0,22 0,22 24,22 24,0 24,0 24,-22 0,-22 0,-22 -24,-22 z"
         id="path3777"
         inkscape:connector-curvature="0"
         sodipodi:nodetypes="zzzzz" />
      <path
         sodipodi:nodetypes="zzzzz"
         inkscape:connector-curvature="0"
         id="path3787"
         d="m 4,1006.3622 c -24,0 -24,0 -24,22 0,22 0,22 24,22 24,0 24,0 24,-22 0,-22 0,-22 -24,-22 z"
         style="opacity:0.02999998;fill:url(#linearGradient3797);fill-opacity:1;stroke:none" />
    </g>
    <path
       style="fill:#000000;fill-opacity:1;stroke:none;opacity:0.20000000000000001"
       d="M 24 2 C 2.7284685 2 0.33742495 2.0888436 0.0625 17.40625 C 0.390625 3.0029297 3 3 24 3 C 45 3 47.609375 3.0029297 47.9375 17.40625 C 47.662575 2.0888436 45.271532 2 24 2 z "
       transform="translate(0,1004.3622)"
       id="path3770" />
    <path
       style="fill:#000000;fill-opacity:1;stroke:none;opacity:0.20000000000000001"
       d="M 24 2 C 7.2405624 2 2.2369698 2.0788791 0.71875 9.59375 C 2.3300781 2.5289866 7.5 2.53125 24 2.53125 C 40.5 2.53125 45.669922 2.5289866 47.28125 9.59375 C 45.76303 2.0788791 40.759438 2 24 2 z M 47.28125 9.59375 C 47.354492 9.9148756 47.409424 10.242768 47.46875 10.59375 C 47.41561 10.240351 47.346891 9.9186608 47.28125 9.59375 z M 0.71875 9.59375 C 0.65310868 9.9186608 0.58439008 10.240351 0.53125 10.59375 C 0.59057617 10.242768 0.64550781 9.9148756 0.71875 9.59375 z "
       transform="translate(0,1004.3622)"
       id="path3012" />
    <g
       id="g3032"
       transform="translate(48,1007.3622)" />
    <path
       id="path3051"
       d="m 24.945,1023.0532 c -4.387,0.023 -7.945,3.281 -7.945,7.309 0,4.047 3.586,7.34 8,7.34 1.539,0 2.961,-0.426 4.18,-1.117 -0.102,1.508 -1.078,2.785 -2.492,3.402 l 0,3.656 c 3.551,-0.77 6.191,-3.648 6.285,-7.109 l 0.027,0 0,-13.48 -3.793,0 0,7.309 c 0,2.129 -1.887,3.859 -4.203,3.859 -2.324,0 -4.207,-1.73 -4.207,-3.859 0,-2.125 1.887,-3.855 4.207,-3.855 0.137,0 0.277,0.02 0.414,0.023 l 0,-3.477 m -0.473,0"
       inkscape:connector-curvature="0"
       style="opacity:0.2;fill:#000000;fill-opacity:1;fill-rule:nonzero;stroke:none" />
    <path
       id="path3053"
       d="m 25.418,1017.6432 0,8.891 c -0.133,-0.012 -0.277,-0.023 -0.418,-0.023 -2.324,0 -4.203,1.727 -4.203,3.852 0,2.129 1.883,3.855 4.203,3.855 2.32,0 4.203,-1.727 4.203,-3.855 l 0,-7.324 3.328,0 c 0,-2.941 -2.512,-5.398 -5.852,-5.398 l -1.262,0 m 0,0.012"
       inkscape:connector-curvature="0"
       style="opacity:0.1;fill:#000000;fill-opacity:1;fill-rule:nonzero;stroke:none" />
    <path
       id="path3061"
       d="m 23.945,1022.0532 c -4.387,0.023 -7.945,3.281 -7.945,7.309 0,4.047 3.586,7.34 8,7.34 1.539,0 2.961,-0.426 4.18,-1.117 -0.102,1.508 -1.078,2.785 -2.492,3.402 l 0,3.656 c 3.551,-0.77 6.191,-3.648 6.285,-7.109 l 0.027,0 0,-13.48 -3.793,0 0,7.309 c 0,2.129 -1.887,3.859 -4.203,3.859 -2.324,0 -4.207,-1.73 -4.207,-3.859 0,-2.125 1.887,-3.855 4.207,-3.855 0.137,0 0.277,0.02 0.414,0.023 l 0,-3.477 m -0.473,0"
       inkscape:connector-curvature="0"
       style="fill:#a8cf33;fill-opacity:1;fill-rule:nonzero;stroke:none" />
    <path
       id="path3063"
       d="m 24.418,1016.6432 0,8.891 c -0.133,-0.012 -0.277,-0.023 -0.418,-0.023 -2.324,0 -4.203,1.727 -4.203,3.852 0,2.129 1.883,3.855 4.203,3.855 2.32,0 4.203,-1.727 4.203,-3.855 l 0,-7.324 3.328,0 c 0,-2.941 -2.512,-5.398 -5.852,-5.398 l -1.262,0 m 0,0.012"
       inkscape:connector-curvature="0"
       style="fill:#2d2d2d;fill-opacity:1;fill-rule:nonzero;stroke:none" />
  </g>
</svg>
