<?xml version="1.0" encoding="UTF-8" standalone="no"?>
<!-- Created with Inkscape (http://www.inkscape.org/) -->

<svg
   xmlns:dc="http://purl.org/dc/elements/1.1/"
   xmlns:cc="http://creativecommons.org/ns#"
   xmlns:rdf="http://www.w3.org/1999/02/22-rdf-syntax-ns#"
   xmlns:svg="http://www.w3.org/2000/svg"
   xmlns="http://www.w3.org/2000/svg"
   xmlns:xlink="http://www.w3.org/1999/xlink"
   xmlns:sodipodi="http://sodipodi.sourceforge.net/DTD/sodipodi-0.dtd"
   xmlns:inkscape="http://www.inkscape.org/namespaces/inkscape"
   width="48"
   height="48"
   id="svg2"
   version="1.1"
   inkscape:version="0.48.4 r9939"
   sodipodi:docname="gummi.svg">
  <defs
     id="defs4">
    <linearGradient
       id="linearGradient3872">
      <stop
         style="stop-color:#90c462;stop-opacity:1;"
         offset="0"
         id="stop3874" />
      <stop
         style="stop-color:#9ac971;stop-opacity:1;"
         offset="1"
         id="stop3876" />
    </linearGradient>
    <linearGradient
       gradientTransform="matrix(0.620285,0,0,0.6,-6.156983,-7.199999)"
       y2="21.384"
       x2="0"
       y1="81.38"
       gradientUnits="userSpaceOnUse"
       id="linear0">
      <stop
         id="stop3016"
         stop-opacity="1"
         stop-color="#000" />
      <stop
         id="stop3018"
         stop-opacity="1"
         stop-color="#191919"
         offset="1" />
    </linearGradient>
    <linearGradient
       gradientTransform="matrix(0,-1,1,0,-1.5e-6,47.999998)"
       gradientUnits="userSpaceOnUse"
       x2="47"
       x1="1"
       id="linearGradient3764">
      <stop
         id="stop3001"
         stop-opacity="1"
         stop-color="#8fc361" />
      <stop
         id="stop3003"
         stop-opacity="1"
         stop-color="#99c86f"
         offset="1" />
    </linearGradient>
    <linearGradient
       inkscape:collect="always"
       xlink:href="#linearGradient3872"
       id="linearGradient3878"
       x1="24"
       y1="1050.3622"
       x2="24"
       y2="1006.3622"
       gradientUnits="userSpaceOnUse" />
    <linearGradient
       inkscape:collect="always"
       xlink:href="#linear0"
       id="linearGradient3900"
       gradientUnits="userSpaceOnUse"
       gradientTransform="matrix(0.620285,0,0,0.6,-6.156983,-7.199999)"
       y1="81.38"
       x2="0"
       y2="21.384" />
    <linearGradient
       inkscape:collect="always"
       xlink:href="#linearGradient3764"
       id="linearGradient3910"
       gradientUnits="userSpaceOnUse"
       gradientTransform="matrix(0,-1,1,0,-1.5e-6,47.999998)"
       x1="1"
       x2="47" />
    <linearGradient
       inkscape:collect="always"
       xlink:href="#linearGradient3764"
       id="linearGradient3913"
       gradientUnits="userSpaceOnUse"
       gradientTransform="matrix(0,-1,1,0,-45.998001,1054.3622)"
       x1="1"
       x2="47" />
    <linearGradient
       inkscape:collect="always"
       xlink:href="#linear0"
       id="linearGradient3922"
       gradientUnits="userSpaceOnUse"
       gradientTransform="matrix(0.620285,0,0,0.6,-6.156983,-7.199999)"
       y1="81.38"
       x2="0"
       y2="21.384" />
    <linearGradient
       inkscape:collect="always"
       xlink:href="#linear0"
       id="linearGradient3926"
       gradientUnits="userSpaceOnUse"
       gradientTransform="matrix(0.620285,0,0,0.6,-6.156983,-7.199999)"
       y1="81.38"
       x2="0"
       y2="21.384" />
    <linearGradient
       inkscape:collect="always"
       xlink:href="#linear0"
       id="linearGradient3929"
       gradientUnits="userSpaceOnUse"
       gradientTransform="matrix(0.620285,0,0,0.6,-6.152983,997.1622)"
       y1="81.38"
       x2="0"
       y2="21.384" />
  </defs>
  <sodipodi:namedview
     id="base"
     pagecolor="#ffffff"
     bordercolor="#666666"
     borderopacity="1.0"
     inkscape:pageopacity="0.0"
     inkscape:pageshadow="2"
     inkscape:zoom="8.1906535"
     inkscape:cx="1.6886352"
     inkscape:cy="25.038036"
     inkscape:document-units="px"
     inkscape:current-layer="layer1"
     showgrid="true"
     inkscape:snap-bbox="true"
     inkscape:window-width="1301"
     inkscape:window-height="744"
     inkscape:window-x="65"
     inkscape:window-y="24"
     inkscape:window-maximized="1"
     inkscape:snap-global="true"
     inkscape:snap-nodes="false">
    <inkscape:grid
       type="xygrid"
       id="grid2985"
       empspacing="6"
       visible="true"
       enabled="true"
       snapvisiblegridlinesonly="true" />
  </sodipodi:namedview>
  <metadata
     id="metadata7">
    <rdf:RDF>
      <cc:Work
         rdf:about="">
        <dc:format>image/svg+xml</dc:format>
        <dc:type
           rdf:resource="http://purl.org/dc/dcmitype/StillImage" />
        <dc:title />
      </cc:Work>
    </rdf:RDF>
  </metadata>
  <g
     inkscape:label="Layer 1"
     inkscape:groupmode="layer"
     id="layer1"
     transform="translate(0,-1004.3622)">
    <path
       id="path3788"
       d="m 24,1051.1116 c -21.2715315,0 -23.66257505,-0.089 -23.9375,-15.4063 0.328125,14.4033 2.9375,14.4063 23.9375,14.4063 21,0 23.609375,0 23.9375,-14.4063 -0.274925,15.3174 -2.665968,15.4063 -23.9375,15.4063 z"
       style="opacity:0.20000000000000001;fill:#ffffff;fill-opacity:1;stroke:none"
       inkscape:connector-curvature="0" />
    <path
       style="fill:url(#linearGradient3878);fill-opacity:1;stroke:none"
       d="m 24,1006.3622 c -24,0 -24,0 -24,22 0,22 0,22 24,22 24,0 24,0 24,-22 0,-22 0,-22 -24,-22 z"
       id="path3757"
       inkscape:connector-curvature="0"
       sodipodi:nodetypes="zzzzz" />
    <path
       style="fill:#000000;fill-opacity:1;stroke:none;opacity:0.20000000000000001"
       d="M 24 2 C 2.7284685 2 0.33742495 2.0888436 0.0625 17.40625 C 0.390625 3.0029297 3 3 24 3 C 45 3 47.609375 3.0029297 47.9375 17.40625 C 47.662575 2.0888436 45.271532 2 24 2 z "
       transform="translate(0,1004.3622)"
       id="path3770" />
    <path
       style="fill:#000000;fill-opacity:1;stroke:none;opacity:0.20000000000000001"
       d="M 24 2 C 7.2405624 2 2.2369698 2.0788791 0.71875 9.59375 C 2.3300781 2.5289866 7.5 2.53125 24 2.53125 C 40.5 2.53125 45.669922 2.5289866 47.28125 9.59375 C 45.76303 2.0788791 40.759438 2 24 2 z M 47.28125 9.59375 C 47.354492 9.9148756 47.409424 10.242768 47.46875 10.59375 C 47.41561 10.240351 47.346891 9.9186608 47.28125 9.59375 z M 0.71875 9.59375 C 0.65310868 9.9186608 0.58439008 10.240351 0.53125 10.59375 C 0.59057617 10.242768 0.64550781 9.9148756 0.71875 9.59375 z "
       transform="translate(0,1004.3622)"
       id="path3012" />
    <g
       id="g3032"
       transform="translate(48,1007.3622)" />
    <path
       id="path3050"
       d="m 33,1040.1002 c -1.395,0.441 -1.203,0.508 -2.707,0.809 -1.504,0.305 -3.121,0.453 -4.852,0.453 -1.91,0 -3.637,-0.25 -5.176,-0.75 -1.527,-0.512 -2.828,-1.262 -3.91,-2.25 -1.082,-1 -1.914,-2.23 -2.488,-3.695 -0.578,-1.465 -0.867,-3.156 -0.867,-5.078 0,-4.094 1.059,-7.148 3.176,-9.172 2.125,-2.035 5.238,-3.055 9.34,-3.055 1.563,0 3.047,0.094 4.453,0.281 1.418,0.184 2.766,0.441 4.04,0.766 l -0.008,4.953 -1,0 -0.688,-2.824 c -0.828,-0.57 -1.828,-1.012 -2.992,-1.309 -1.156,-0.316 -2.375,-0.473 -3.66,-0.473 -1.406,0 -2.664,0.191 -3.77,0.578 -1.094,0.371 -2.02,0.98 -2.777,1.828 -0.758,0.852 -1.34,1.965 -1.75,3.352 -0.395,1.371 -0.594,3.051 -0.594,5.04 0,2.01 0.234,3.691 0.703,5.04 0.469,1.34 1.102,2.406 1.895,3.211 0.805,0.801 1.73,1.371 2.777,1.707 1.055,0.34 2.168,0.508 3.336,0.508 0.586,0 1.172,-0.035 1.746,-0.102 0.59,-0.082 1.137,-0.184 1.641,-0.297 0.52,-0.117 0.977,-0.246 1.371,-0.387 0.398,-0.141 0.535,-0.27 0.762,-0.398 l 0,-6.477 -3,-1 0,-1 9,0 0,1 -3,1 0,7.34"
       inkscape:connector-curvature="0"
       style="opacity:0.1;fill:#000000;fill-rule:nonzero;stroke:none" />
    <path
       id="path3058"
       d="m 32,1039.1002 c -1.395,0.441 -1.203,0.508 -2.707,0.809 -1.504,0.305 -3.121,0.453 -4.852,0.453 -1.91,0 -3.637,-0.25 -5.176,-0.75 -1.527,-0.512 -2.828,-1.262 -3.91,-2.25 -1.082,-1 -1.914,-2.23 -2.488,-3.695 -0.578,-1.465 -0.867,-3.156 -0.867,-5.078 0,-4.094 1.059,-7.148 3.176,-9.172 2.125,-2.035 5.238,-3.055 9.34,-3.055 1.563,0 3.047,0.094 4.453,0.281 1.418,0.184 2.766,0.441 4.04,0.766 l -0.008,4.953 -1,0 -0.688,-2.824 c -0.828,-0.57 -1.828,-1.012 -2.992,-1.309 -1.156,-0.316 -2.375,-0.473 -3.66,-0.473 -1.406,0 -2.664,0.191 -3.77,0.578 -1.094,0.371 -2.02,0.98 -2.777,1.828 -0.758,0.852 -1.34,1.965 -1.75,3.352 -0.395,1.371 -0.594,3.051 -0.594,5.04 0,2.01 0.234,3.691 0.703,5.04 0.469,1.34 1.102,2.406 1.895,3.211 0.805,0.801 1.73,1.371 2.777,1.707 1.055,0.34 2.168,0.508 3.336,0.508 0.586,0 1.172,-0.035 1.746,-0.102 0.59,-0.082 1.137,-0.184 1.641,-0.297 0.52,-0.117 0.977,-0.246 1.371,-0.387 0.398,-0.141 0.535,-0.27 0.762,-0.398 l 0,-6.477 -3,-1 0,-1 9,0 0,1 -3,1 0,7.34"
       inkscape:connector-curvature="0"
       style="fill:url(#linearGradient3929);fill-rule:nonzero;stroke:none" />
  </g>
</svg>
