<?xml version="1.0" encoding="UTF-8" standalone="no"?>
<!-- Created with Inkscape (http://www.inkscape.org/) -->

<svg
   xmlns:dc="http://purl.org/dc/elements/1.1/"
   xmlns:cc="http://creativecommons.org/ns#"
   xmlns:rdf="http://www.w3.org/1999/02/22-rdf-syntax-ns#"
   xmlns:svg="http://www.w3.org/2000/svg"
   xmlns="http://www.w3.org/2000/svg"
   xmlns:xlink="http://www.w3.org/1999/xlink"
   xmlns:sodipodi="http://sodipodi.sourceforge.net/DTD/sodipodi-0.dtd"
   xmlns:inkscape="http://www.inkscape.org/namespaces/inkscape"
   width="48"
   height="48"
   id="svg2"
   version="1.1"
   inkscape:version="0.48.4 r9939"
   sodipodi:docname="haguichi.svg">
  <defs
     id="defs4">
    <linearGradient
       id="linearGradient3779">
      <stop
         style="stop-color:#000000;stop-opacity:1;"
         offset="0"
         id="stop3781" />
      <stop
         style="stop-color:#ffffff;stop-opacity:1;"
         offset="1"
         id="stop3783" />
    </linearGradient>
    <linearGradient
       inkscape:collect="always"
       xlink:href="#linearGradient3779"
       id="linearGradient3783"
       gradientUnits="userSpaceOnUse"
       gradientTransform="translate(-40,0)"
       spreadMethod="repeat"
       x1="24"
       y1="1028.3622"
       x2="45"
       y2="1007.3622" />
    <linearGradient
       inkscape:collect="always"
       xlink:href="#linearGradient3779"
       id="linearGradient3785"
       gradientUnits="userSpaceOnUse"
       gradientTransform="translate(-40,0)"
       spreadMethod="repeat"
       x1="44"
       y1="1048.3622"
       x2="15"
       y2="1019.3622" />
  </defs>
  <sodipodi:namedview
     id="base"
     pagecolor="#ffffff"
     bordercolor="#666666"
     borderopacity="1.0"
     inkscape:pageopacity="0.0"
     inkscape:pageshadow="2"
     inkscape:zoom="8.1906535"
     inkscape:cx="-4.1765989"
     inkscape:cy="24.204294"
     inkscape:document-units="px"
     inkscape:current-layer="layer1"
     showgrid="true"
     inkscape:snap-bbox="true"
     inkscape:window-width="1301"
     inkscape:window-height="744"
     inkscape:window-x="65"
     inkscape:window-y="24"
     inkscape:window-maximized="1"
     inkscape:object-nodes="false">
    <inkscape:grid
       type="xygrid"
       id="grid3003"
       empspacing="6"
       visible="true"
       enabled="true"
       snapvisiblegridlinesonly="true" />
  </sodipodi:namedview>
  <metadata
     id="metadata7">
    <rdf:RDF>
      <cc:Work
         rdf:about="">
        <dc:format>image/svg+xml</dc:format>
        <dc:type
           rdf:resource="http://purl.org/dc/dcmitype/StillImage" />
        <dc:title />
      </cc:Work>
    </rdf:RDF>
  </metadata>
  <g
     inkscape:label="Layer 1"
     inkscape:groupmode="layer"
     id="layer1"
     transform="translate(0,-1004.3622)">
    <path
       id="path3788"
       d="m 24,1051.1116 c -21.2715315,0 -23.66257505,-0.089 -23.9375,-15.4063 0.328125,14.4033 2.9375,14.4063 23.9375,14.4063 21,0 23.609375,0 23.9375,-14.4063 -0.274925,15.3174 -2.665968,15.4063 -23.9375,15.4063 z"
       style="opacity:0.20000000000000001;fill:#ffffff;fill-opacity:1;stroke:none"
       inkscape:connector-curvature="0" />
    <path
       style="fill:#f9ce1d;fill-opacity:1;stroke:none"
       d="m 24,1006.3622 c -24,0 -24,0 -24,22 0,22 0,22 24,22 24,0 24,0 24,-22 0,-22 0,-22 -24,-22 z"
       id="path3757"
       inkscape:connector-curvature="0"
       sodipodi:nodetypes="zzzzz" />
    <g
       id="g3779"
       transform="translate(40,0)">
      <path
         style="opacity:0.05;fill:url(#linearGradient3783);fill-opacity:1;stroke:none"
         d="m -16,1006.3622 c -24,0 -24,0 -24,22 0,22 0,22 24,22 24,0 24,0 24,-22 0,-22 0,-22 -24,-22 z"
         id="path3777"
         inkscape:connector-curvature="0"
         sodipodi:nodetypes="zzzzz" />
      <path
         sodipodi:nodetypes="zzzzz"
         inkscape:connector-curvature="0"
         id="path3787"
         d="m -16,1006.3622 c -24,0 -24,0 -24,22 0,22 0,22 24,22 24,0 24,0 24,-22 0,-22 0,-22 -24,-22 z"
         style="opacity:0.05;fill:url(#linearGradient3785);fill-opacity:1;stroke:none" />
    </g>
    <path
       style="fill:#000000;fill-opacity:1;stroke:none;opacity:0.20000000000000001"
       d="M 24 2 C 2.7284685 2 0.33742495 2.0888436 0.0625 17.40625 C 0.390625 3.0029297 3 3 24 3 C 45 3 47.609375 3.0029297 47.9375 17.40625 C 47.662575 2.0888436 45.271532 2 24 2 z "
       transform="translate(0,1004.3622)"
       id="path3770" />
    <g
       id="g3813"
       transform="translate(-47.998,993.3622)" />
    <path
       id="path3785"
       d="m 31,1012.3622 c -2.761423,0 -5,2.2386 -5,5 0,1.0202 0.287894,1.959 0.8125,2.75 l -5.0625,5.0625 c -0.79097,-0.5246 -1.729766,-0.8125 -2.75,-0.8125 -2.761423,0 -5,2.2386 -5,5 0,2.7614 2.238577,5 5,5 1.020234,0 1.95903,-0.2879 2.75,-0.8125 l 5.0625,5.0625 c -0.524606,0.791 -0.8125,1.7298 -0.8125,2.75 0,2.7614 2.238577,5 5,5 2.761423,0 5,-2.2386 5,-5 0,-2.7614 -2.238577,-5 -5,-5 -1.020234,0 -1.95903,0.2879 -2.75,0.8125 l -5.0625,-5.0625 c 0.524606,-0.791 0.8125,-1.7298 0.8125,-2.75 0,-1.0202 -0.287894,-1.959 -0.8125,-2.75 l 5.0625,-5.0625 c 0.79097,0.5246 1.729766,0.8125 2.75,0.8125 2.761423,0 5,-2.2386 5,-5 0,-2.7614 -2.238577,-5 -5,-5 z"
       style="font-size:medium;font-style:normal;font-variant:normal;font-weight:normal;font-stretch:normal;text-indent:0;text-align:start;text-decoration:none;line-height:normal;letter-spacing:normal;word-spacing:normal;text-transform:none;direction:ltr;block-progression:tb;writing-mode:lr-tb;text-anchor:start;baseline-shift:baseline;opacity:0.2;color:#000000;fill:#000000;fill-opacity:1;stroke:none;stroke-width:2;marker:none;visibility:visible;display:inline;overflow:visible;enable-background:accumulate;font-family:Sans;-inkscape-font-specification:Sans"
       inkscape:connector-curvature="0" />
    <path
       style="font-size:medium;font-style:normal;font-variant:normal;font-weight:normal;font-stretch:normal;text-indent:0;text-align:start;text-decoration:none;line-height:normal;letter-spacing:normal;word-spacing:normal;text-transform:none;direction:ltr;block-progression:tb;writing-mode:lr-tb;text-anchor:start;baseline-shift:baseline;color:#000000;fill:#bf360c;fill-opacity:1;stroke:none;stroke-width:2;marker:none;visibility:visible;display:inline;overflow:visible;enable-background:accumulate;font-family:Sans;-inkscape-font-specification:Sans"
       d="M 30 7 C 27.238577 7 25 9.2385527 25 12 C 25 13.020243 25.287894 13.959023 25.8125 14.75 L 20.75 19.8125 C 19.95903 19.287889 19.020234 19 18 19 C 15.238577 19 13 21.238553 13 24 C 13 26.761447 15.238577 29 18 29 C 19.020234 29 19.95903 28.712111 20.75 28.1875 L 25.8125 33.25 C 25.287894 34.040977 25 34.979757 25 36 C 25 38.761447 27.238577 41 30 41 C 32.761423 41 35 38.761447 35 36 C 35 33.238553 32.761423 31 30 31 C 28.979766 31 28.04097 31.287889 27.25 31.8125 L 22.1875 26.75 C 22.712106 25.959023 23 25.020243 23 24 C 23 22.979757 22.712106 22.040977 22.1875 21.25 L 27.25 16.1875 C 28.04097 16.712111 28.979766 17 30 17 C 32.761423 17 35 14.761447 35 12 C 35 9.2385527 32.761423 7 30 7 z "
       transform="translate(0,1004.3622)"
       id="path3003" />
  </g>
</svg>
