<?xml version="1.0" encoding="UTF-8" standalone="no"?>
<!-- Created with Inkscape (http://www.inkscape.org/) -->

<svg
   xmlns:dc="http://purl.org/dc/elements/1.1/"
   xmlns:cc="http://creativecommons.org/ns#"
   xmlns:rdf="http://www.w3.org/1999/02/22-rdf-syntax-ns#"
   xmlns:svg="http://www.w3.org/2000/svg"
   xmlns="http://www.w3.org/2000/svg"
   xmlns:xlink="http://www.w3.org/1999/xlink"
   xmlns:sodipodi="http://sodipodi.sourceforge.net/DTD/sodipodi-0.dtd"
   xmlns:inkscape="http://www.inkscape.org/namespaces/inkscape"
   width="48"
   height="48"
   id="svg2"
   version="1.1"
   inkscape:version="0.48.4 r9939"
   sodipodi:docname="hotot.svg">
  <defs
     id="defs4">
    <linearGradient
       id="linearGradient3767">
      <stop
         style="stop-color:#2196f3;stop-opacity:1;"
         offset="0"
         id="stop3769" />
      <stop
         style="stop-color:#50acf6;stop-opacity:1;"
         offset="1"
         id="stop3771" />
    </linearGradient>
    <linearGradient
       inkscape:collect="always"
       xlink:href="#linearGradient3767"
       id="linearGradient3773"
       x1="24"
       y1="1050.3622"
       x2="24"
       y2="1006.3622"
       gradientUnits="userSpaceOnUse" />
  </defs>
  <sodipodi:namedview
     id="base"
     pagecolor="#ffffff"
     bordercolor="#666666"
     borderopacity="1.0"
     inkscape:pageopacity="0.0"
     inkscape:pageshadow="2"
     inkscape:zoom="11.583333"
     inkscape:cx="27.367677"
     inkscape:cy="21.08219"
     inkscape:document-units="px"
     inkscape:current-layer="layer1"
     showgrid="true"
     inkscape:snap-bbox="true"
     inkscape:window-width="1301"
     inkscape:window-height="744"
     inkscape:window-x="65"
     inkscape:window-y="24"
     inkscape:window-maximized="1">
    <inkscape:grid
       type="xygrid"
       id="grid2985"
       empspacing="6"
       visible="true"
       enabled="true"
       snapvisiblegridlinesonly="true" />
  </sodipodi:namedview>
  <metadata
     id="metadata7">
    <rdf:RDF>
      <cc:Work
         rdf:about="">
        <dc:format>image/svg+xml</dc:format>
        <dc:type
           rdf:resource="http://purl.org/dc/dcmitype/StillImage" />
        <dc:title />
      </cc:Work>
    </rdf:RDF>
  </metadata>
  <g
     inkscape:label="Layer 1"
     inkscape:groupmode="layer"
     id="layer1"
     transform="translate(0,-1004.3622)">
    <path
       id="path3788"
       d="m 24,1051.1116 c -21.2715315,0 -23.66257505,-0.089 -23.9375,-15.4063 0.328125,14.4033 2.9375,14.4063 23.9375,14.4063 21,0 23.609375,0 23.9375,-14.4063 -0.274925,15.3174 -2.665968,15.4063 -23.9375,15.4063 z"
       style="opacity:0.20000000000000001;fill:#ffffff;fill-opacity:1;stroke:none"
       inkscape:connector-curvature="0" />
    <path
       style="fill:url(#linearGradient3773);fill-opacity:1;stroke:none"
       d="m 24,1006.3622 c -24,0 -24,0 -24,22 0,22 0,22 24,22 24,0 24,0 24,-22 0,-22 0,-22 -24,-22 z"
       id="path3757"
       inkscape:connector-curvature="0"
       sodipodi:nodetypes="zzzzz" />
    <path
       style="fill:#000000;fill-opacity:1;stroke:none;opacity:0.20000000000000001"
       d="M 24 2 C 2.7284685 2 0.33742495 2.0888436 0.0625 17.40625 C 0.390625 3.0029297 3 3 24 3 C 45 3 47.609375 3.0029297 47.9375 17.40625 C 47.662575 2.0888436 45.271532 2 24 2 z "
       transform="translate(0,1004.3622)"
       id="path3770" />
    <path
       id="path2997"
       d="m 17,1015.3622 0,4 -4,0 0,17 18,0 0,6 6,-6 0,-17 -9,0 0,-4 -3,0 0,4 -5,0 0,-4 -3,0 z m 3,9 c 1.656854,0 3,1.3431 3,3 0,1.6569 -1.343146,3 -3,3 -1.656854,0 -3,-1.3431 -3,-3 0,-1.6569 1.343146,-3 3,-3 z m 10,0 c 1.656854,0 3,1.3431 3,3 0,1.6569 -1.343146,3 -3,3 -1.656854,0 -3,-1.3431 -3,-3 0,-1.6569 1.343146,-3 3,-3 z"
       style="fill:#000000;fill-opacity:1;stroke:none;opacity:0.2"
       inkscape:connector-curvature="0" />
    <path
       style="fill:#ffffff;fill-opacity:1;stroke:none"
       d="M 16 10 L 16 14 L 12 14 L 12 31 L 30 31 L 30 37 L 36 31 L 36 14 L 27 14 L 27 10 L 24 10 L 24 14 L 19 14 L 19 10 L 16 10 z M 19 19 C 20.656854 19 22 20.343146 22 22 C 22 23.656854 20.656854 25 19 25 C 17.343146 25 16 23.656854 16 22 C 16 20.343146 17.343146 19 19 19 z M 29 19 C 30.656854 19 32 20.343146 32 22 C 32 23.656854 30.656854 25 29 25 C 27.343146 25 26 23.656854 26 22 C 26 20.343146 27.343146 19 29 19 z "
       transform="translate(0,1004.3622)"
       id="rect3764" />
  </g>
</svg>
