<?xml version="1.0" encoding="UTF-8" standalone="no"?>
<!-- Created with Inkscape (http://www.inkscape.org/) -->

<svg
   xmlns:dc="http://purl.org/dc/elements/1.1/"
   xmlns:cc="http://creativecommons.org/ns#"
   xmlns:rdf="http://www.w3.org/1999/02/22-rdf-syntax-ns#"
   xmlns:svg="http://www.w3.org/2000/svg"
   xmlns="http://www.w3.org/2000/svg"
   xmlns:xlink="http://www.w3.org/1999/xlink"
   xmlns:sodipodi="http://sodipodi.sourceforge.net/DTD/sodipodi-0.dtd"
   xmlns:inkscape="http://www.inkscape.org/namespaces/inkscape"
   width="48"
   height="48"
   id="svg2"
   version="1.1"
   inkscape:version="0.48.4 r9939"
   sodipodi:docname="h2-icon.svg">
  <defs
     id="defs4">
    <linearGradient
       id="linearGradient3785">
      <stop
         style="stop-color:#e6e6e6;stop-opacity:1;"
         offset="0"
         id="stop3787" />
      <stop
         style="stop-color:#f9f9f9;stop-opacity:1;"
         offset="1"
         id="stop3789" />
    </linearGradient>
    <linearGradient
       id="linearGradient3779">
      <stop
         style="stop-color:#000000;stop-opacity:1;"
         offset="0"
         id="stop3781" />
      <stop
         style="stop-color:#ffffff;stop-opacity:1;"
         offset="1"
         id="stop3783" />
    </linearGradient>
    <linearGradient
       inkscape:collect="always"
       xlink:href="#linearGradient3779"
       id="linearGradient3792"
       gradientUnits="userSpaceOnUse"
       gradientTransform="translate(-40,0)"
       spreadMethod="repeat"
       x1="24"
       y1="1028.3622"
       x2="45"
       y2="1007.3622" />
    <linearGradient
       inkscape:collect="always"
       xlink:href="#linearGradient3779"
       id="linearGradient3794"
       gradientUnits="userSpaceOnUse"
       gradientTransform="translate(-40,0)"
       spreadMethod="repeat"
       x1="44"
       y1="1048.3622"
       x2="15"
       y2="1019.3622" />
    <linearGradient
       inkscape:collect="always"
       xlink:href="#linearGradient3785"
       id="linearGradient3791"
       x1="24"
       y1="1050.3622"
       x2="24"
       y2="1006.3622"
       gradientUnits="userSpaceOnUse" />
  </defs>
  <sodipodi:namedview
     id="base"
     pagecolor="#ffffff"
     bordercolor="#666666"
     borderopacity="1.0"
     inkscape:pageopacity="0.0"
     inkscape:pageshadow="2"
     inkscape:zoom="9.6925244"
     inkscape:cx="17.782423"
     inkscape:cy="18.19513"
     inkscape:document-units="px"
     inkscape:current-layer="layer1"
     showgrid="true"
     inkscape:snap-bbox="true"
     inkscape:window-width="1301"
     inkscape:window-height="744"
     inkscape:window-x="65"
     inkscape:window-y="24"
     inkscape:window-maximized="1"
     inkscape:object-nodes="true">
    <inkscape:grid
       type="xygrid"
       id="grid3003"
       empspacing="6"
       visible="true"
       enabled="true"
       snapvisiblegridlinesonly="true" />
  </sodipodi:namedview>
  <metadata
     id="metadata7">
    <rdf:RDF>
      <cc:Work
         rdf:about="">
        <dc:format>image/svg+xml</dc:format>
        <dc:type
           rdf:resource="http://purl.org/dc/dcmitype/StillImage" />
        <dc:title />
      </cc:Work>
    </rdf:RDF>
  </metadata>
  <g
     inkscape:label="Layer 1"
     inkscape:groupmode="layer"
     id="layer1"
     transform="translate(0,-1004.3622)">
    <path
       id="path3788"
       d="m 24,1051.1116 c -21.2715315,0 -23.66257505,-0.089 -23.9375,-15.4063 0.328125,14.4033 2.9375,14.4063 23.9375,14.4063 21,0 23.609375,0 23.9375,-14.4063 -0.274925,15.3174 -2.665968,15.4063 -23.9375,15.4063 z"
       style="opacity:0.20000000000000001;fill:#ffffff;fill-opacity:1;stroke:none"
       inkscape:connector-curvature="0" />
    <path
       style="fill:url(#linearGradient3791);fill-opacity:1;stroke:none"
       d="m 24,1006.3622 c -24,0 -24,0 -24,22 0,22 0,22 24,22 24,0 24,0 24,-22 0,-22 0,-22 -24,-22 z"
       id="path3757"
       inkscape:connector-curvature="0"
       sodipodi:nodetypes="zzzzz" />
    <g
       id="g3788"
       transform="translate(40,0)">
      <path
         style="opacity:0.07999998;fill:url(#linearGradient3792);fill-opacity:1;stroke:none"
         d="m -16,1006.3622 c -24,0 -24,0 -24,22 0,22 0,22 24,22 24,0 24,0 24,-22 0,-22 0,-22 -24,-22 z"
         id="path3777"
         inkscape:connector-curvature="0"
         sodipodi:nodetypes="zzzzz" />
      <path
         sodipodi:nodetypes="zzzzz"
         inkscape:connector-curvature="0"
         id="path3787"
         d="m -16,1006.3622 c -24,0 -24,0 -24,22 0,22 0,22 24,22 24,0 24,0 24,-22 0,-22 0,-22 -24,-22 z"
         style="opacity:0.07999998;fill:url(#linearGradient3794);fill-opacity:1;stroke:none" />
    </g>
    <path
       style="fill:#000000;fill-opacity:1;stroke:none;opacity:0.20000000000000001"
       d="M 24 2 C 2.7284685 2 0.33742495 2.0888436 0.0625 17.40625 C 0.390625 3.0029297 3 3 24 3 C 45 3 47.609375 3.0029297 47.9375 17.40625 C 47.662575 2.0888436 45.271532 2 24 2 z "
       transform="translate(0,1004.3622)"
       id="path3770" />
    <g
       id="g3813"
       transform="translate(-47.998,993.3622)" />
    <path
       id="path3020"
       d="m 13,1020.3622 c -1.108,0 -2,0.892 -2,2 l 0,5 0,4 0,5 c 0,1.108 0.892,2 2,2 1.108,0 2,-0.892 2,-2 l 0,-5 6,0 0,4 c 0,1.662 1.33799,3 3,3 l 12,0 c 1.66201,0 3,-1.338 3,-3 l 0,-12 c 0,-1.662 -1.33799,-3 -3,-3 l -12,0 c -1.66201,0 -3,1.338 -3,3 l 0,4 -6,0 0,-5 c 0,-1.108 -0.892,-2 -2,-2 z m 11,2 12,0 0,1 0,2 0,3 0,3 -9,0 0,2 9,0 0,3 -12,0 0,-2 0,-3 0,-3 3,0 6,0 0,-3 -9,0 0,-3 z"
       style="fill:#000000;fill-opacity:1;stroke:none;opacity:0.2"
       inkscape:connector-curvature="0" />
    <path
       style="fill:#01579b;fill-opacity:1;stroke:none"
       d="m 12,15 c -1.108,0 -2,0.892 -2,2 l 0,5 0,4 0,5 c 0,1.108 0.892,2 2,2 1.108,0 2,-0.892 2,-2 l 0,-5 6,0 0,4 c 0,1.66201 1.33799,3 3,3 l 12,0 c 1.66201,0 3,-1.33799 3,-3 l 0,-12 c 0,-1.66201 -1.33799,-3 -3,-3 l -12,0 c -1.66201,0 -3,1.33799 -3,3 l 0,4 -6,0 0,-5 c 0,-1.108 -0.892,-2 -2,-2 z m 11,2 9,0 3,3 0,1 0,2 -3,3 -6,0 0,2 9,0 0,3 -9,0 -3,-3 0,-2 3,-3 6,0 0,-3 -9,0 z"
       transform="translate(0,1004.3622)"
       id="rect3001"
       inkscape:connector-curvature="0"
       sodipodi:nodetypes="ssccsssccssssssssccsscccccccccccccccccc" />
    <g
       id="g3827"
       style="opacity:0.2;fill:#000000;fill-opacity:1"
       transform="translate(1,1)">
      <path
         style="fill:#000000;fill-opacity:1;stroke:none"
         d="m 23,17 0,3 12,0 -3,-3 z"
         transform="translate(0,1004.3622)"
         id="path3809"
         inkscape:connector-curvature="0"
         sodipodi:nodetypes="ccccc" />
      <path
         sodipodi:nodetypes="ccccc"
         inkscape:connector-curvature="0"
         id="path3811"
         transform="translate(0,1004.3622)"
         d="m 32,20 0,6 3,-3 0,-3 z"
         style="fill:#000000;fill-opacity:1;stroke:none" />
      <path
         style="fill:#000000;fill-opacity:1;stroke:none"
         d="m 23,26 9,0 0,-3 -6,0 z"
         transform="translate(0,1004.3622)"
         id="path3813"
         inkscape:connector-curvature="0"
         sodipodi:nodetypes="ccccc" />
      <path
         style="fill:#000000;fill-opacity:1;stroke:none"
         d="m 26,1030.3622 0,5 -3,-3 0,-2 z"
         id="path3815"
         inkscape:connector-curvature="0"
         sodipodi:nodetypes="ccccc" />
      <path
         sodipodi:nodetypes="ccccc"
         inkscape:connector-curvature="0"
         id="path3817"
         d="m 26,1032.3622 0,3 9,0 0,-3 z"
         style="fill:#000000;fill-opacity:1;stroke:none" />
      <path
         style="opacity:0.2;fill:#000000;fill-opacity:1;stroke:none"
         d="m 32,20 0,2 3,-2 z"
         transform="translate(0,1004.3622)"
         id="path3819"
         inkscape:connector-curvature="0"
         sodipodi:nodetypes="cccc" />
      <path
         sodipodi:nodetypes="cccc"
         inkscape:connector-curvature="0"
         id="path3821"
         d="m 32,1027.3622 -2,0 2,3 z"
         style="opacity:0.2;fill:#000000;fill-opacity:1;stroke:none" />
      <path
         sodipodi:nodetypes="cccc"
         inkscape:connector-curvature="0"
         id="path3823"
         d="m 23,1030.3622 0,2 3,-2 z"
         style="opacity:0.2;fill:#000000;fill-opacity:1;stroke:none" />
      <path
         style="opacity:0.2;fill:#000000;fill-opacity:1;stroke:none"
         d="m 26,1032.3622 2,0 -2,3 z"
         id="path3825"
         inkscape:connector-curvature="0"
         sodipodi:nodetypes="cccc" />
    </g>
    <g
       id="g3838">
      <path
         sodipodi:nodetypes="ccccc"
         inkscape:connector-curvature="0"
         id="rect3790"
         transform="translate(0,1004.3622)"
         d="m 23,17 0,3 12,0 -3,-3 z"
         style="opacity:1;fill:#b2ff59;fill-opacity:1;stroke:none" />
      <path
         style="fill:#29b6f6;fill-opacity:1;stroke:none"
         d="m 32,20 0,6 3,-3 0,-3 z"
         transform="translate(0,1004.3622)"
         id="path3793"
         inkscape:connector-curvature="0"
         sodipodi:nodetypes="ccccc" />
      <path
         sodipodi:nodetypes="ccccc"
         inkscape:connector-curvature="0"
         id="path3795"
         transform="translate(0,1004.3622)"
         d="m 23,26 9,0 0,-3 -6,0 z"
         style="fill:#bbdefb;fill-opacity:1;stroke:none" />
      <path
         sodipodi:nodetypes="ccccc"
         inkscape:connector-curvature="0"
         id="path3797"
         d="m 26,1030.3622 0,5 -3,-3 0,-2 z"
         style="fill:#ba68c8;fill-opacity:1;stroke:none" />
      <path
         style="fill:#ffb74d;fill-opacity:1;stroke:none"
         d="m 26,1032.3622 0,3 9,0 0,-3 z"
         id="path3799"
         inkscape:connector-curvature="0"
         sodipodi:nodetypes="ccccc" />
      <path
         sodipodi:nodetypes="cccc"
         inkscape:connector-curvature="0"
         id="path3801"
         transform="translate(0,1004.3622)"
         d="m 32,20 0,2 3,-2 z"
         style="opacity:0.2;fill:#000000;fill-opacity:1;stroke:none" />
      <path
         style="opacity:0.2;fill:#000000;fill-opacity:1;stroke:none"
         d="m 32,1027.3622 -2,0 2,3 z"
         id="path3803"
         inkscape:connector-curvature="0"
         sodipodi:nodetypes="cccc" />
      <path
         style="opacity:0.2;fill:#000000;fill-opacity:1;stroke:none"
         d="m 23,1030.3622 0,2 3,-2 z"
         id="path3805"
         inkscape:connector-curvature="0"
         sodipodi:nodetypes="cccc" />
      <path
         sodipodi:nodetypes="cccc"
         inkscape:connector-curvature="0"
         id="path3807"
         d="m 26,1032.3622 2,0 -2,3 z"
         style="opacity:0.2;fill:#000000;fill-opacity:1;stroke:none" />
    </g>
  </g>
</svg>
