<?xml version="1.0" encoding="UTF-8" standalone="no"?>
<!-- Created with Inkscape (http://www.inkscape.org/) -->

<svg
   xmlns:dc="http://purl.org/dc/elements/1.1/"
   xmlns:cc="http://creativecommons.org/ns#"
   xmlns:rdf="http://www.w3.org/1999/02/22-rdf-syntax-ns#"
   xmlns:svg="http://www.w3.org/2000/svg"
   xmlns="http://www.w3.org/2000/svg"
   xmlns:xlink="http://www.w3.org/1999/xlink"
   xmlns:sodipodi="http://sodipodi.sourceforge.net/DTD/sodipodi-0.dtd"
   xmlns:inkscape="http://www.inkscape.org/namespaces/inkscape"
   width="48"
   height="48"
   id="svg2"
   version="1.1"
   inkscape:version="0.48.4 r9939"
   sodipodi:docname="iagno.svg">
  <defs
     id="defs4">
    <linearGradient
       id="linearGradient3760">
      <stop
         style="stop-color:#8b9eae;stop-opacity:1;"
         offset="0"
         id="stop3762" />
      <stop
         style="stop-color:#a3b2bf;stop-opacity:1;"
         offset="1"
         id="stop3764" />
    </linearGradient>
    <linearGradient
       inkscape:collect="always"
       xlink:href="#linearGradient3760"
       id="linearGradient3766"
       x1="24"
       y1="1050.3622"
       x2="24"
       y2="1006.3622"
       gradientUnits="userSpaceOnUse" />
  </defs>
  <sodipodi:namedview
     id="base"
     pagecolor="#ffffff"
     bordercolor="#666666"
     borderopacity="1.0"
     inkscape:pageopacity="0.0"
     inkscape:pageshadow="2"
     inkscape:zoom="11.583333"
     inkscape:cx="12.173432"
     inkscape:cy="21.08219"
     inkscape:document-units="px"
     inkscape:current-layer="layer1"
     showgrid="true"
     inkscape:snap-bbox="true"
     inkscape:window-width="1301"
     inkscape:window-height="744"
     inkscape:window-x="65"
     inkscape:window-y="24"
     inkscape:window-maximized="1">
    <inkscape:grid
       type="xygrid"
       id="grid2985"
       empspacing="6"
       visible="true"
       enabled="true"
       snapvisiblegridlinesonly="true" />
  </sodipodi:namedview>
  <metadata
     id="metadata7">
    <rdf:RDF>
      <cc:Work
         rdf:about="">
        <dc:format>image/svg+xml</dc:format>
        <dc:type
           rdf:resource="http://purl.org/dc/dcmitype/StillImage" />
        <dc:title />
      </cc:Work>
    </rdf:RDF>
  </metadata>
  <g
     inkscape:label="Layer 1"
     inkscape:groupmode="layer"
     id="layer1"
     transform="translate(0,-1004.3622)">
    <path
       id="path3788"
       d="m 24,1051.1116 c -21.2715315,0 -23.66257505,-0.089 -23.9375,-15.4063 0.328125,14.4033 2.9375,14.4063 23.9375,14.4063 21,0 23.609375,0 23.9375,-14.4063 -0.274925,15.3174 -2.665968,15.4063 -23.9375,15.4063 z"
       style="opacity:0.20000000000000001;fill:#ffffff;fill-opacity:1;stroke:none"
       inkscape:connector-curvature="0" />
    <path
       style="fill:url(#linearGradient3766);fill-opacity:1;stroke:none"
       d="m 24,1006.3622 c -24,0 -24,0 -24,22 0,22 0,22 24,22 24,0 24,0 24,-22 0,-22 0,-22 -24,-22 z"
       id="path3757"
       inkscape:connector-curvature="0"
       sodipodi:nodetypes="zzzzz" />
    <path
       style="fill:#000000;fill-opacity:1;stroke:none;opacity:0.20000000000000001"
       d="M 24 2 C 2.7284685 2 0.33742495 2.0888436 0.0625 17.40625 C 0.390625 3.0029297 3 3 24 3 C 45 3 47.609375 3.0029297 47.9375 17.40625 C 47.662575 2.0888436 45.271532 2 24 2 z "
       transform="translate(0,1004.3622)"
       id="path3770" />
    <path
       transform="translate(1,1005.3622)"
       d="m 36,24 a 12,12 0 1 1 -24,0 12,12 0 1 1 24,0 z"
       sodipodi:ry="12"
       sodipodi:rx="12"
       sodipodi:cy="24"
       sodipodi:cx="24"
       id="path3777"
       style="opacity:0.20000000000000001;fill:#000000;fill-opacity:1;stroke:none"
       sodipodi:type="arc" />
    <path
       sodipodi:type="arc"
       style="fill:#424242;fill-opacity:1;stroke:none"
       id="path3775"
       sodipodi:cx="24"
       sodipodi:cy="24"
       sodipodi:rx="12"
       sodipodi:ry="12"
       d="m 36,24 a 12,12 0 1 1 -24,0 12,12 0 1 1 24,0 z"
       transform="translate(0,1004.3622)" />
    <path
       id="path3780"
       d="m 24.875,1020.7685 -2.625,5 -5.59375,0.875 3.96875,4.0312 -0.9375,5.5938 5.09375,-2.5 5.03125,2.5937 -0.8125,-5.5937 4,-4 -5.5625,-0.9375 -2.5625,-5.0625 z"
       style="fill:#000000;fill-opacity:1;stroke:none;opacity:0.2"
       inkscape:connector-curvature="0" />
    <path
       style="opacity:1;fill:#fbc02d;fill-opacity:1;stroke:none"
       d="M 24.0625 15.40625 L 21.4375 20.40625 L 15.84375 21.28125 L 19.8125 25.3125 L 18.875 30.90625 L 23.96875 28.40625 L 29 31 L 28.1875 25.40625 L 32.1875 21.40625 L 26.625 20.46875 L 24.0625 15.40625 z "
       transform="translate(0,1004.3622)"
       id="path3773" />
  </g>
</svg>
