<?xml version="1.0" encoding="UTF-8" standalone="no"?>
<!-- Created with Inkscape (http://www.inkscape.org/) -->

<svg
   xmlns:dc="http://purl.org/dc/elements/1.1/"
   xmlns:cc="http://creativecommons.org/ns#"
   xmlns:rdf="http://www.w3.org/1999/02/22-rdf-syntax-ns#"
   xmlns:svg="http://www.w3.org/2000/svg"
   xmlns="http://www.w3.org/2000/svg"
   xmlns:xlink="http://www.w3.org/1999/xlink"
   xmlns:sodipodi="http://sodipodi.sourceforge.net/DTD/sodipodi-0.dtd"
   xmlns:inkscape="http://www.inkscape.org/namespaces/inkscape"
   width="48"
   height="48"
   id="svg2"
   version="1.1"
   inkscape:version="0.48.4 r9939"
   sodipodi:docname="iexplorer.svg">
  <defs
     id="defs4">
    <linearGradient
       id="linearGradient3770">
      <stop
         style="stop-color:#42a5f5;stop-opacity:1;"
         offset="0"
         id="stop3772" />
      <stop
         style="stop-color:#42c5f5;stop-opacity:1;"
         offset="1"
         id="stop3774" />
    </linearGradient>
    <linearGradient
       inkscape:collect="always"
       xlink:href="#linearGradient3770"
       id="linearGradient3776"
       x1="24"
       y1="1050.3622"
       x2="24"
       y2="1006.3622"
       gradientUnits="userSpaceOnUse" />
  </defs>
  <sodipodi:namedview
     id="base"
     pagecolor="#ffffff"
     bordercolor="#666666"
     borderopacity="1.0"
     inkscape:pageopacity="0.0"
     inkscape:pageshadow="2"
     inkscape:zoom="11.313709"
     inkscape:cx="22.117924"
     inkscape:cy="23.30242"
     inkscape:document-units="px"
     inkscape:current-layer="layer1"
     showgrid="true"
     inkscape:snap-bbox="true"
     inkscape:window-width="1301"
     inkscape:window-height="744"
     inkscape:window-x="65"
     inkscape:window-y="24"
     inkscape:window-maximized="1"
     inkscape:object-nodes="true"
     inkscape:snap-nodes="false"
     inkscape:object-paths="true"
     inkscape:snap-global="true">
    <inkscape:grid
       type="xygrid"
       id="grid3003"
       empspacing="6"
       visible="true"
       enabled="true"
       snapvisiblegridlinesonly="true" />
  </sodipodi:namedview>
  <metadata
     id="metadata7">
    <rdf:RDF>
      <cc:Work
         rdf:about="">
        <dc:format>image/svg+xml</dc:format>
        <dc:type
           rdf:resource="http://purl.org/dc/dcmitype/StillImage" />
        <dc:title />
      </cc:Work>
    </rdf:RDF>
  </metadata>
  <g
     inkscape:label="Layer 1"
     inkscape:groupmode="layer"
     id="layer1"
     transform="translate(0,-1004.3622)">
    <path
       id="path3788"
       d="m 24,1051.1116 c -21.2715315,0 -23.66257505,-0.089 -23.9375,-15.4063 0.328125,14.4033 2.9375,14.4063 23.9375,14.4063 21,0 23.609375,0 23.9375,-14.4063 -0.274925,15.3174 -2.665968,15.4063 -23.9375,15.4063 z"
       style="opacity:0.20000000000000001;fill:#ffffff;fill-opacity:1;stroke:none"
       inkscape:connector-curvature="0" />
    <path
       style="fill:url(#linearGradient3776);fill-opacity:1;stroke:none"
       d="m 24,1006.3622 c -24,0 -24,0 -24,22 0,22 0,22 24,22 24,0 24,0 24,-22 0,-22 0,-22 -24,-22 z"
       id="path3757"
       inkscape:connector-curvature="0"
       sodipodi:nodetypes="zzzzz" />
    <g
       id="g3813"
       transform="translate(-47.998,993.3622)" />
    <path
       style="fill:#000000;fill-opacity:1;stroke:none;opacity:0.20000000000000001"
       d="M 24 2 C 2.7284685 2 0.33742495 2.0888436 0.0625 17.40625 C 0.390625 3.0029297 3 3 24 3 C 45 3 47.609375 3.0029297 47.9375 17.40625 C 47.662575 2.0888436 45.271532 2 24 2 z "
       transform="translate(0,1004.3622)"
       id="path3770" />
    <g
       id="g3057"
       transform="translate(-49.355,995.0622)" />
    <g
       id="g3062"
       transform="translate(-55.998,1000.3622)" />
    <g
       id="g3049"
       transform="translate(-54.166963,994.16525)" />
    <path
       id="path3791"
       d="m 24.914833,1017.3633 c -1.667857,0 -3.217546,0.3025 -4.6875,0.9063 -1.441704,0.6037 -2.710033,1.4296 -3.8125,2.5 -1.074209,1.0703 -1.943577,2.3617 -2.59375,3.8437 -0.62191,1.4546 -0.937502,3.0172 -0.9375,4.7188 -2e-6,1.6192 0.31559,3.1704 0.9375,4.625 0.245681,0.5746 0.529922,1.109 0.84375,1.625 1.180995,-0.4098 2.473594,-0.9423 3.8125,-1.5313 -0.525212,-0.7886 -0.908978,-1.7309 -1.1875,-2.8125 l 6.84375,0 c 0.566165,-0.3105 1.114211,-0.6052 1.6875,-0.9375 1.33213,-0.7722 2.579917,-1.555 3.78125,-2.3437 l -12.3125,0 c 0.05653,-0.8234 0.291734,-1.6417 0.6875,-2.4375 0.395753,-0.8234 0.915297,-1.5525 1.59375,-2.1563 0.678436,-0.6312 1.467415,-1.1158 2.34375,-1.5 0.904582,-0.3842 1.894532,-0.5937 2.96875,-0.5937 1.045922,0 2.032891,0.2095 2.9375,0.5937 0.904576,0.3842 1.696536,0.8688 2.375,1.5 0.678426,0.6038 1.19797,1.3329 1.59375,2.1563 0.118449,0.2382 0.2233,0.4769 0.3125,0.7187 1.253964,-0.9016 2.3954,-1.7681 3.40625,-2.625 -0.595359,-1.0928 -1.325509,-2.0613 -2.21875,-2.9062 -1.102494,-1.0429 -2.370824,-1.8612 -3.8125,-2.4375 -1.441713,-0.6038 -2.979476,-0.9063 -4.5625,-0.9063 z m 14.875,0.031 c -1.96795,0.065 -4.735938,0.7896 -7.90625,2 l 0,0.062 c 4.407094,-1.605 7.643895,-2.0113 8.375,-0.75 1.246387,2.15 -5.199831,8.2388 -14.4375,13.5937 -3.098733,1.7962 -6.092091,3.2463 -8.78125,4.3438 -0.432796,0.1627 -0.866195,0.3278 -1.28125,0.4687 0.0096,0.011 0.02166,0.02 0.03125,0.031 -4.715416,1.7831 -8.2051086,2.2548 -8.9687497,0.9375 -0.1987265,-0.3429 -0.1738939,-0.7886 0,-1.3125 -0.5893626,1.1022 -0.7245919,2.0305 -0.34375,2.6875 0.979532,1.6898 5.1977697,1.2213 10.7499997,-0.875 0.868179,0.7346 1.838652,1.356 2.90625,1.8437 1.469954,0.6312 3.050894,0.9375 4.71875,0.9375 0.904579,0 1.89453,-0.1318 2.96875,-0.4062 1.102456,-0.247 2.138563,-0.6737 3.15625,-1.25 1.045916,-0.6038 2.032885,-1.3871 2.9375,-2.375 0.90457,-0.988 1.653355,-2.2368 2.21875,-3.7188 l -4.4375,0 c -0.537122,0.988 -1.372258,1.8916 -2.53125,2.6875 -1.130759,0.7684 -2.516689,1.1563 -4.15625,1.1563 -0.734995,0 -1.489743,-0.1242 -2.28125,-0.3438 -0.364481,-0.1137 -0.711957,-0.2754 -1.0625,-0.4375 1.845395,-0.872 3.769262,-1.87 5.71875,-3 1.380214,-0.8001 2.689793,-1.6124 3.9375,-2.4375 l 5.4375,0 c 0.02824,-0.1372 0.06546,-0.4397 0.09375,-0.9062 0.02824,-0.4666 0.03122,-0.8971 0.03125,-1.2813 -1e-5,-0.6171 -0.03613,-1.2294 -0.125,-1.8125 4.527257,-3.7536 7.005041,-7.1638 6.03125,-8.8437 -0.430962,-0.7435 -1.476397,-1.0503 -3,-1 z"
       style="font-size:41.78003693000000141px;font-style:normal;font-variant:normal;font-weight:bold;font-stretch:normal;text-align:center;line-height:100%;letter-spacing:0px;word-spacing:0px;writing-mode:lr-tb;text-anchor:middle;fill:#000000;fill-opacity:1;stroke:none;font-family:AvantGarde LT Medium;-inkscape-font-specification:'AvantGarde LT Medium, Bold';opacity:0.1"
       inkscape:connector-curvature="0" />
    <path
       style="font-size:41.78003693000000141px;font-style:normal;font-variant:normal;font-weight:bold;font-stretch:normal;text-align:center;line-height:100%;letter-spacing:0px;word-spacing:0px;writing-mode:lr-tb;text-anchor:middle;fill:#ffffff;fill-opacity:1;stroke:none;font-family:AvantGarde LT Medium;-inkscape-font-specification:'AvantGarde LT Medium, Bold'"
       d="M 24.03125 12 C 22.363393 12.000023 20.813704 12.302499 19.34375 12.90625 C 17.902046 13.510046 16.633717 14.335945 15.53125 15.40625 C 14.457041 16.476595 13.587673 17.768027 12.9375 19.25 C 12.31559 20.704561 11.999998 22.267219 12 23.96875 C 11.999998 25.587971 12.31559 27.139212 12.9375 28.59375 C 13.183181 29.168364 13.467422 29.702833 13.78125 30.21875 C 14.962245 29.809029 16.254844 29.276474 17.59375 28.6875 C 17.068538 27.89886 16.684772 26.956635 16.40625 25.875 L 23.25 25.875 C 23.816165 25.564547 24.364211 25.269819 24.9375 24.9375 C 26.26963 24.16529 27.517417 23.382471 28.71875 22.59375 L 16.40625 22.59375 C 16.462781 21.770436 16.697984 20.952148 17.09375 20.15625 C 17.489503 19.332938 18.009047 18.603791 18.6875 18 C 19.365936 17.3688 20.154915 16.884238 21.03125 16.5 C 21.935832 16.1158 22.925782 15.90627 24 15.90625 C 25.045922 15.90627 26.032891 16.1158 26.9375 16.5 C 27.842076 16.884238 28.634036 17.3688 29.3125 18 C 29.990926 18.603791 30.51047 19.332938 30.90625 20.15625 C 31.024699 20.394472 31.12955 20.633232 31.21875 20.875 C 32.472714 19.973383 33.61415 19.106925 34.625 18.25 C 34.029641 17.157156 33.299491 16.188742 32.40625 15.34375 C 31.303756 14.300889 30.035426 13.482601 28.59375 12.90625 C 27.152037 12.302499 25.614274 12.000023 24.03125 12 z M 38.90625 12.03125 C 36.9383 12.096153 34.170312 12.820922 31 14.03125 L 31 14.09375 C 35.407094 12.488767 38.643895 12.082503 39.375 13.34375 C 40.621387 15.49385 34.175169 21.5826 24.9375 26.9375 C 21.838767 28.733742 18.845409 30.183788 16.15625 31.28125 C 15.723454 31.444039 15.290055 31.609097 14.875 31.75 C 14.884594 31.761364 14.896661 31.769956 14.90625 31.78125 C 10.190834 33.564398 6.7011411 34.036081 5.9375 32.71875 C 5.7387735 32.37585 5.7636061 31.93015 5.9375 31.40625 C 5.3481374 32.50845 5.2129081 33.43675 5.59375 34.09375 C 6.573282 35.783567 10.79152 35.315121 16.34375 33.21875 C 17.211929 33.953432 18.182402 34.574754 19.25 35.0625 C 20.719954 35.693718 22.300894 35.999999 23.96875 36 C 24.873329 35.999999 25.86328 35.868192 26.9375 35.59375 C 28.039956 35.346752 29.076063 34.92008 30.09375 34.34375 C 31.139666 33.739978 32.126635 32.956746 33.03125 31.96875 C 33.93582 30.980761 34.684605 29.731996 35.25 28.25 L 30.8125 28.25 C 30.275378 29.238 29.440242 30.141622 28.28125 30.9375 C 27.150491 31.705943 25.764561 32.093753 24.125 32.09375 C 23.390005 32.093753 22.635257 31.969558 21.84375 31.75 C 21.479269 31.636265 21.131793 31.474551 20.78125 31.3125 C 22.626645 30.440463 24.550512 29.442536 26.5 28.3125 C 27.880214 27.512421 29.189793 26.700078 30.4375 25.875 L 35.875 25.875 C 35.903243 25.737788 35.940456 25.435312 35.96875 24.96875 C 35.996993 24.502208 35.999974 24.071731 36 23.6875 C 35.99999 23.070397 35.96387 22.458069 35.875 21.875 C 40.402257 18.121354 42.880041 14.711162 41.90625 13.03125 C 41.475288 12.287812 40.429853 11.981002 38.90625 12.03125 z "
       transform="translate(0,1004.3622)"
       id="text3004" />
  </g>
</svg>
