<?xml version="1.0" encoding="UTF-8" standalone="no"?>
<!-- Created with Inkscape (http://www.inkscape.org/) -->

<svg
   xmlns:dc="http://purl.org/dc/elements/1.1/"
   xmlns:cc="http://creativecommons.org/ns#"
   xmlns:rdf="http://www.w3.org/1999/02/22-rdf-syntax-ns#"
   xmlns:svg="http://www.w3.org/2000/svg"
   xmlns="http://www.w3.org/2000/svg"
   xmlns:xlink="http://www.w3.org/1999/xlink"
   xmlns:sodipodi="http://sodipodi.sourceforge.net/DTD/sodipodi-0.dtd"
   xmlns:inkscape="http://www.inkscape.org/namespaces/inkscape"
   width="48"
   height="48"
   id="svg2"
   version="1.1"
   inkscape:version="0.48.4 r9939"
   sodipodi:docname="internet-telephony.svg">
  <defs
     id="defs4">
    <linearGradient
       id="linearGradient3780">
      <stop
         style="stop-color:#448aff;stop-opacity:1;"
         offset="0"
         id="stop3782" />
      <stop
         style="stop-color:#44ccff;stop-opacity:1;"
         offset="1"
         id="stop3784" />
    </linearGradient>
    <linearGradient
       id="linearGradient3779">
      <stop
         style="stop-color:#000000;stop-opacity:1;"
         offset="0"
         id="stop3781" />
      <stop
         style="stop-color:#ffffff;stop-opacity:1;"
         offset="1"
         id="stop3783" />
    </linearGradient>
    <linearGradient
       inkscape:collect="always"
       xlink:href="#linearGradient3779"
       id="linearGradient3783"
       gradientUnits="userSpaceOnUse"
       gradientTransform="translate(-40,0)"
       spreadMethod="repeat"
       x1="24"
       y1="1028.3622"
       x2="45"
       y2="1007.3622" />
    <linearGradient
       inkscape:collect="always"
       xlink:href="#linearGradient3779"
       id="linearGradient3785"
       gradientUnits="userSpaceOnUse"
       gradientTransform="translate(-40,0)"
       spreadMethod="repeat"
       x1="44"
       y1="1048.3622"
       x2="15"
       y2="1019.3622" />
    <linearGradient
       inkscape:collect="always"
       xlink:href="#linearGradient3780"
       id="linearGradient3786"
       x1="24"
       y1="1050.3622"
       x2="24"
       y2="1006.3622"
       gradientUnits="userSpaceOnUse" />
  </defs>
  <sodipodi:namedview
     id="base"
     pagecolor="#ffffff"
     bordercolor="#666666"
     borderopacity="1.0"
     inkscape:pageopacity="0.0"
     inkscape:pageshadow="2"
     inkscape:zoom="8.1906533"
     inkscape:cx="-5.0272027"
     inkscape:cy="31.331229"
     inkscape:document-units="px"
     inkscape:current-layer="layer1"
     showgrid="true"
     inkscape:snap-bbox="true"
     inkscape:window-width="1301"
     inkscape:window-height="744"
     inkscape:window-x="65"
     inkscape:window-y="24"
     inkscape:window-maximized="1"
     inkscape:object-nodes="true"
     inkscape:snap-nodes="false">
    <inkscape:grid
       type="xygrid"
       id="grid3003"
       empspacing="6"
       visible="true"
       enabled="true"
       snapvisiblegridlinesonly="true" />
  </sodipodi:namedview>
  <metadata
     id="metadata7">
    <rdf:RDF>
      <cc:Work
         rdf:about="">
        <dc:format>image/svg+xml</dc:format>
        <dc:type
           rdf:resource="http://purl.org/dc/dcmitype/StillImage" />
        <dc:title />
      </cc:Work>
    </rdf:RDF>
  </metadata>
  <g
     inkscape:label="Layer 1"
     inkscape:groupmode="layer"
     id="layer1"
     transform="translate(0,-1004.3622)">
    <path
       id="path3788"
       d="m 24,1051.1116 c -21.2715315,0 -23.66257505,-0.089 -23.9375,-15.4063 0.328125,14.4033 2.9375,14.4063 23.9375,14.4063 21,0 23.609375,0 23.9375,-14.4063 -0.274925,15.3174 -2.665968,15.4063 -23.9375,15.4063 z"
       style="opacity:0.20000000000000001;fill:#ffffff;fill-opacity:1;stroke:none"
       inkscape:connector-curvature="0" />
    <path
       style="fill:url(#linearGradient3786);fill-opacity:1.0;stroke:none"
       d="m 24,1006.3622 c -24,0 -24,0 -24,22 0,22 0,22 24,22 24,0 24,0 24,-22 0,-22 0,-22 -24,-22 z"
       id="path3757"
       inkscape:connector-curvature="0"
       sodipodi:nodetypes="zzzzz" />
    <g
       id="g3779"
       transform="translate(40,0)">
      <path
         style="opacity:0.05;fill:url(#linearGradient3783);fill-opacity:1;stroke:none"
         d="m -16,1006.3622 c -24,0 -24,0 -24,22 0,22 0,22 24,22 24,0 24,0 24,-22 0,-22 0,-22 -24,-22 z"
         id="path3777"
         inkscape:connector-curvature="0"
         sodipodi:nodetypes="zzzzz" />
      <path
         sodipodi:nodetypes="zzzzz"
         inkscape:connector-curvature="0"
         id="path3787"
         d="m -16,1006.3622 c -24,0 -24,0 -24,22 0,22 0,22 24,22 24,0 24,0 24,-22 0,-22 0,-22 -24,-22 z"
         style="opacity:0.05;fill:url(#linearGradient3785);fill-opacity:1;stroke:none" />
    </g>
    <path
       style="fill:#000000;fill-opacity:1;stroke:none;opacity:0.20000000000000001"
       d="M 24 2 C 2.7284685 2 0.33742495 2.0888436 0.0625 17.40625 C 0.390625 3.0029297 3 3 24 3 C 45 3 47.609375 3.0029297 47.9375 17.40625 C 47.662575 2.0888436 45.271532 2 24 2 z "
       transform="translate(0,1004.3622)"
       id="path3770" />
    <g
       id="g3813"
       transform="translate(-47.998,993.3622)" />
    <g
       id="g3837"
       style="opacity:0.2;fill:#000000;fill-opacity:1"
       transform="translate(1,1)">
      <path
         style="fill:#000000;fill-opacity:1;stroke:none"
         d="m 11,1016.3622 c 0,13.8072 11.19288,25 25,25 l 0,-5.9524 c -10.51971,0 -19.04762,-8.5278 -19.04762,-19.0476 l -5.95238,0 z"
         id="path3831"
         inkscape:connector-curvature="0" />
      <path
         style="fill:#000000;fill-opacity:1;stroke:none"
         d="m 28.857142,1029.4574 -2.97619,2.9762 -4.278274,4.2784 c 0.151187,0.1076 0.255582,0.2681 0.409226,0.3719 1.330009,0.8985 2.745593,1.6741 4.241072,2.3067 1.495479,0.6325 3.097263,1.1178 4.724702,1.4507 1.627439,0.3331 3.296432,0.5209 5.022322,0.5209 l 0,-5.9524 0,-3.5714 -7.142858,-2.381 z"
         id="path3833"
         inkscape:connector-curvature="0" />
      <path
         style="fill:#000000;fill-opacity:1;stroke:none"
         d="m 11,1016.3622 c 0,1.7259 0.187811,3.3949 0.520834,5.0224 0.333021,1.6274 0.818357,3.2291 1.450892,4.7247 0.632535,1.4954 1.408012,2.9109 2.306548,4.2409 0.103793,0.1537 0.264923,0.2582 0.372024,0.4094 l 4.278274,-4.2784 2.97619,-2.9762 -2.380952,-7.1428 -3.57143,0 -5.95238,0 z"
         id="path3835"
         inkscape:connector-curvature="0" />
    </g>
    <path
       style="fill:#ff7043;fill-opacity:1;stroke:none"
       d="m 11,1016.3622 c 0,13.8072 11.19288,25 25,25 l 0,-5.9524 c -10.51971,0 -19.04762,-8.5278 -19.04762,-19.0476 l -5.95238,0 z"
       id="path3006"
       inkscape:connector-curvature="0" />
    <path
       style="fill:#ffd54f;fill-opacity:1;stroke:none"
       d="m 28.857142,1029.4574 -2.97619,2.9762 -4.278274,4.2784 c 0.151187,0.1076 0.255582,0.2681 0.409226,0.3719 1.330009,0.8985 2.745593,1.6741 4.241072,2.3067 1.495479,0.6325 3.097263,1.1178 4.724702,1.4507 1.627439,0.3331 3.296432,0.5209 5.022322,0.5209 l 0,-5.9524 0,-3.5714 -7.142858,-2.381 z"
       id="path3805"
       inkscape:connector-curvature="0" />
    <path
       style="fill:#ffd54f;fill-opacity:1;stroke:none"
       d="m 11,1016.3622 c 0,1.7259 0.187811,3.3949 0.520834,5.0224 0.333021,1.6274 0.818357,3.2291 1.450892,4.7247 0.632535,1.4954 1.408012,2.9109 2.306548,4.2409 0.103793,0.1537 0.264923,0.2582 0.372024,0.4094 l 4.278274,-4.2784 2.97619,-2.9762 -2.380952,-7.1428 -3.57143,0 -5.95238,0 z"
       id="path3801"
       inkscape:connector-curvature="0" />
    <path
       inkscape:connector-curvature="0"
       style="opacity:0.4;fill:#000000;fill-opacity:1;stroke:none"
       d="m 19.90625,1026.456 -4.28125,4.2812 c 0.0471,0.067 0.108513,0.1214 0.15625,0.1875 l 5.25,-2.9062 c -0.265465,-0.3407 -0.570248,-0.6415 -0.8125,-1 -0.118862,-0.176 -0.19943,-0.3825 -0.3125,-0.5625 z m 4.4375,4.875 -2.90625,5.25 c 0.06613,0.048 0.120881,0.1091 0.1875,0.1562 l 4.28125,-4.2812 c -0.180057,-0.1131 -0.386561,-0.1937 -0.5625,-0.3125 -0.35858,-0.2423 -0.65937,-0.5471 -1,-0.8125 z"
       id="path3822" />
    <g
       id="g3814"
       style="fill:#ffffff;fill-opacity:1">
      <path
         inkscape:connector-curvature="0"
         id="path3784"
         d="m 26.15625,1020.1562 0.46875,1.9376 c 0.996558,-0.2481 2.090303,-0 2.875,0.7812 0.792568,0.7926 1.073457,1.9019 0.8125,2.9062 l 1.90625,0.5 c 0.433557,-1.6686 0.02021,-3.511 -1.28125,-4.8124 -1.288519,-1.2886 -3.125844,-1.7247 -4.78125,-1.3126 z"
         style="font-size:medium;font-style:normal;font-variant:normal;font-weight:normal;font-stretch:normal;text-indent:0;text-align:start;text-decoration:none;line-height:normal;letter-spacing:normal;word-spacing:normal;text-transform:none;direction:ltr;block-progression:tb;writing-mode:lr-tb;text-anchor:start;baseline-shift:baseline;color:#000000;fill:#ffffff;fill-opacity:1;stroke:none;stroke-width:2;marker:none;visibility:visible;display:inline;overflow:visible;enable-background:accumulate;font-family:Sans;-inkscape-font-specification:Sans" />
      <path
         inkscape:connector-curvature="0"
         id="path3789"
         d="m 26.875,1016.75 c -0.76473,0.018 -1.533432,0.1345 -2.28125,0.3438 l 0.5625,1.9374 c 2.358587,-0.6598 4.857665,-0.1423 6.59375,1.5938 1.753488,1.7535 2.284606,4.3091 1.59375,6.6875 l 1.90625,0.5625 c 0.875926,-3.0156 0.203548,-6.3589 -2.09375,-8.6562 -1.705873,-1.7059 -3.987059,-2.5226 -6.28125,-2.4688 z"
         style="font-size:medium;font-style:normal;font-variant:normal;font-weight:normal;font-stretch:normal;text-indent:0;text-align:start;text-decoration:none;line-height:normal;letter-spacing:normal;word-spacing:normal;text-transform:none;direction:ltr;block-progression:tb;writing-mode:lr-tb;text-anchor:start;baseline-shift:baseline;color:#000000;fill:#ffffff;fill-opacity:1;stroke:none;stroke-width:1.99999975999999990;marker:none;visibility:visible;display:inline;overflow:visible;enable-background:accumulate;font-family:Sans;-inkscape-font-specification:Sans" />
      <path
         inkscape:connector-curvature="0"
         id="path3791"
         d="m 26.34375,1013.375 c -1.141208,0.065 -2.282905,0.2767 -3.40625,0.625 l 0.59375,1.9062 c 3.88801,-1.2056 7.934405,-0.4405 10.65625,2.2813 2.749113,2.7491 3.475978,6.859 2.21875,10.7813 l 1.90625,0.5937 c 1.452376,-4.5311 0.611489,-9.4822 -2.71875,-12.8125 -2.472878,-2.4729 -5.826375,-3.5688 -9.25,-3.375 z"
         style="font-size:medium;font-style:normal;font-variant:normal;font-weight:normal;font-stretch:normal;text-indent:0;text-align:start;text-decoration:none;line-height:normal;letter-spacing:normal;word-spacing:normal;text-transform:none;direction:ltr;block-progression:tb;writing-mode:lr-tb;text-anchor:start;baseline-shift:baseline;color:#000000;fill:#ffffff;fill-opacity:1;stroke:none;stroke-width:2;marker:none;visibility:visible;display:inline;overflow:visible;enable-background:accumulate;font-family:Sans;-inkscape-font-specification:Sans" />
    </g>
  </g>
</svg>
