<?xml version="1.0" encoding="UTF-8" standalone="no"?>
<!-- Created with Inkscape (http://www.inkscape.org/) -->

<svg
   xmlns:dc="http://purl.org/dc/elements/1.1/"
   xmlns:cc="http://creativecommons.org/ns#"
   xmlns:rdf="http://www.w3.org/1999/02/22-rdf-syntax-ns#"
   xmlns:svg="http://www.w3.org/2000/svg"
   xmlns="http://www.w3.org/2000/svg"
   xmlns:xlink="http://www.w3.org/1999/xlink"
   xmlns:sodipodi="http://sodipodi.sourceforge.net/DTD/sodipodi-0.dtd"
   xmlns:inkscape="http://www.inkscape.org/namespaces/inkscape"
   width="48"
   height="48"
   id="svg2"
   version="1.1"
   inkscape:version="0.48.4 r9939"
   sodipodi:docname="ipython-notebook.svg">
  <sodipodi:namedview
     id="base"
     pagecolor="#ffffff"
     bordercolor="#666666"
     borderopacity="1.0"
     inkscape:pageopacity="0.0"
     inkscape:pageshadow="2"
     inkscape:zoom="8.1906533"
     inkscape:cx="28.624015"
     inkscape:cy="19.612429"
     inkscape:document-units="px"
     inkscape:current-layer="layer1"
     showgrid="true"
     inkscape:snap-bbox="true"
     inkscape:window-width="1301"
     inkscape:window-height="744"
     inkscape:window-x="65"
     inkscape:window-y="24"
     inkscape:window-maximized="1"
     inkscape:snap-global="true">
    <inkscape:grid
       snapvisiblegridlinesonly="true"
       enabled="true"
       visible="true"
       empspacing="6"
       id="grid2985"
       type="xygrid" />
  </sodipodi:namedview>
  <defs
     id="defs4">
    <linearGradient
       id="linearGradient3772">
      <stop
         style="stop-color:#616161;stop-opacity:1;"
         offset="0"
         id="stop3774" />
      <stop
         style="stop-color:#54606e;stop-opacity:1;"
         offset="1"
         id="stop3776" />
    </linearGradient>
    <linearGradient
       inkscape:collect="always"
       xlink:href="#linearGradient3772"
       id="linearGradient3778"
       x1="24"
       y1="1006.3622"
       x2="24"
       y2="1050.3622"
       gradientUnits="userSpaceOnUse" />
  </defs>
  <metadata
     id="metadata7">
    <rdf:RDF>
      <cc:Work
         rdf:about="">
        <dc:format>image/svg+xml</dc:format>
        <dc:type
           rdf:resource="http://purl.org/dc/dcmitype/StillImage" />
        <dc:title />
      </cc:Work>
    </rdf:RDF>
  </metadata>
  <g
     transform="translate(0,-1004.3622)"
     id="layer1"
     inkscape:groupmode="layer"
     inkscape:label="Layer 1">
    <path
       inkscape:connector-curvature="0"
       style="opacity:0.20000000000000001;fill:#ffffff;fill-opacity:1;stroke:none"
       d="m 24,1051.1116 c -21.2715315,0 -23.66257505,-0.089 -23.9375,-15.4063 0.328125,14.4033 2.9375,14.4063 23.9375,14.4063 21,0 23.609375,0 23.9375,-14.4063 -0.274925,15.3174 -2.665968,15.4063 -23.9375,15.4063 z"
       id="path3788" />
    <path
       sodipodi:nodetypes="zzzzz"
       inkscape:connector-curvature="0"
       id="path3757"
       d="m 24,1006.3622 c -24,0 -24,0 -24,22 0,22 0,22 24,22 24,0 24,0 24,-22 0,-22 0,-22 -24,-22 z"
       style="fill:url(#linearGradient3778);fill-opacity:1;stroke:none" />
    <path
       id="path3770"
       transform="translate(0,1004.3622)"
       d="M 24 2 C 2.7284685 2 0.33742495 2.0888436 0.0625 17.40625 C 0.390625 3.0029297 3 3 24 3 C 45 3 47.609375 3.0029297 47.9375 17.40625 C 47.662575 2.0888436 45.271532 2 24 2 z "
       style="fill:#000000;fill-opacity:1;stroke:none;opacity:0.20000000000000001" />
    <path
       id="path3012"
       transform="translate(0,1004.3622)"
       d="M 24 2 C 7.2405624 2 2.2369698 2.0788791 0.71875 9.59375 C 2.3300781 2.5289866 7.5 2.53125 24 2.53125 C 40.5 2.53125 45.669922 2.5289866 47.28125 9.59375 C 45.76303 2.0788791 40.759438 2 24 2 z M 47.28125 9.59375 C 47.354492 9.9148756 47.409424 10.242768 47.46875 10.59375 C 47.41561 10.240351 47.346891 9.9186608 47.28125 9.59375 z M 0.71875 9.59375 C 0.65310868 9.9186608 0.58439008 10.240351 0.53125 10.59375 C 0.59057617 10.242768 0.64550781 9.9148756 0.71875 9.59375 z "
       style="fill:#000000;fill-opacity:1;stroke:none;opacity:0.20000000000000001" />
    <g
       transform="translate(48,1007.3622)"
       id="g3032" />
    <g
       id="g3041"
       transform="translate(-72.998,1016.3622)" />
    <g
       id="g3915"
       style="opacity:0.1;fill:#000000;fill-opacity:1"
       transform="translate(0.99999945,1.0000248)">
      <path
         id="path3917"
         stroke-miterlimit="4"
         d="m 23.857839,1016.3662 c -0.989146,0 -1.922723,0.08 -2.759978,0.2333 -2.441377,0.4297 -2.897051,1.3225 -2.897051,2.9749 l 0,2.1821 5.786692,0 0,0.726 -7.957628,0 c -1.681919,0 -3.156379,1.0002 -3.626871,2.9008 -0.518653,2.1895 -0.555701,3.5453 0,5.82 0.411218,1.6894 1.392956,2.9082 3.074874,2.9082 l 1.707854,0 0,-2.9082 c 0,-1.8782 1.648577,-3.5491 3.623165,-3.5491 l 6.064544,0 c 1.596711,0 3.119331,-1.315 3.119331,-2.9118 l 0,-5.1717 c 0,-1.5524 -1.559665,-2.7156 -3.119331,-2.9748 -0.996556,-0.163 -2.030159,-0.2372 -3.026715,-0.2336 m -3.11933,1.7599 c 0.596451,0 1.085467,0.4779 1.085467,1.0818 0,0.6 -0.489016,1.0891 -1.085467,1.0891 -0.600158,0 -1.08547,-0.4854 -1.08547,-1.0891 0,-0.6039 0.485312,-1.0818 1.08547,-1.0818 m 0,0"
         inkscape:connector-curvature="0"
         style="fill:#000000;fill-opacity:1;fill-rule:nonzero;stroke:none" />
      <path
         id="path3919"
         stroke-miterlimit="4"
         d="m 30.818911,1022.4825 0,2.5414 c 0,1.9708 -1.689328,3.3935 -3.623165,3.3935 l -6.342392,0 c -1.593008,0 -2.904461,1.5856 -2.904461,3.1452 l 0,5.4571 c 0,1.5523 1.363317,2.4636 2.904461,2.9081 1.830105,0.5262 3.826921,0.6298 6.016381,0 1.444821,-0.4296 2.893346,-1.267 2.893346,-2.9081 l 0,-2.1895 -5.779283,0 0,-0.7187 8.676335,0 c 1.678214,0 2.311713,-1.1595 2.900754,-2.9082 0.603861,-1.7967 0.566815,-3.5084 0,-5.82 -0.414923,-1.6448 -1.207723,-2.9008 -2.900754,-2.9008 z m -3.582414,13.8037 c 0.600156,0 1.085469,0.4852 1.085469,1.0891 0,0.6002 -0.485313,1.0817 -1.085469,1.0817 -0.596452,0 -1.074353,-0.4815 -1.074353,-1.0817 0,-0.6 0.477901,-1.0891 1.074353,-1.0891 m 0,0"
         inkscape:connector-curvature="0"
         style="fill:#000000;fill-opacity:1;fill-rule:nonzero;stroke:none" />
    </g>
    <path
       id="path3063"
       stroke-miterlimit="4"
       d="m 23.857839,1016.3662 c -0.989146,0 -1.922723,0.08 -2.759978,0.2333 -2.441377,0.4297 -2.897051,1.3225 -2.897051,2.9749 l 0,2.1821 5.786692,0 0,0.726 -7.957628,0 c -1.681919,0 -3.156379,1.0002 -3.626871,2.9008 -0.518653,2.1895 -0.555701,3.5453 0,5.82 0.411218,1.6894 1.392956,2.9082 3.074874,2.9082 l 1.707854,0 0,-2.9082 c 0,-1.8782 1.648577,-3.5491 3.623165,-3.5491 l 6.064544,0 c 1.596711,0 3.119331,-1.315 3.119331,-2.9118 l 0,-5.1717 c 0,-1.5524 -1.559665,-2.7156 -3.119331,-2.9748 -0.996556,-0.163 -2.030159,-0.2372 -3.026715,-0.2336 m -3.11933,1.7599 c 0.596451,0 1.085467,0.4779 1.085467,1.0818 0,0.6 -0.489016,1.0891 -1.085467,1.0891 -0.600158,0 -1.08547,-0.4854 -1.08547,-1.0891 0,-0.6039 0.485312,-1.0818 1.08547,-1.0818 m 0,0"
       inkscape:connector-curvature="0"
       style="fill:#29b6f6;fill-opacity:1;fill-rule:nonzero;stroke:none" />
    <path
       id="path3065"
       stroke-miterlimit="4"
       d="m 30.818911,1022.4825 0,2.5414 c 0,1.9708 -1.689328,3.3935 -3.623165,3.3935 l -6.342392,0 c -1.593008,0 -2.904461,1.5856 -2.904461,3.1452 l 0,5.4571 c 0,1.5523 1.363317,2.4636 2.904461,2.9081 1.830105,0.5262 3.826921,0.6298 6.016381,0 1.444821,-0.4296 2.893346,-1.267 2.893346,-2.9081 l 0,-2.1895 -5.779283,0 0,-0.7187 8.676335,0 c 1.678214,0 2.311713,-1.1595 2.900754,-2.9082 0.603861,-1.7967 0.566815,-3.5084 0,-5.82 -0.414923,-1.6448 -1.207723,-2.9008 -2.900754,-2.9008 z m -3.582414,13.8037 c 0.600156,0 1.085469,0.4852 1.085469,1.0891 0,0.6002 -0.485313,1.0817 -1.085469,1.0817 -0.596452,0 -1.074353,-0.4815 -1.074353,-1.0817 0,-0.6 0.477901,-1.0891 1.074353,-1.0891 m 0,0"
       inkscape:connector-curvature="0"
       style="fill:#ffd600;fill-opacity:1;fill-rule:nonzero;stroke:none" />
    <path
       id="path3003"
       d="m 14.4375,1022.3622 c -0.528719,0 -0.896368,0.1053 -1.125,0.3125 -0.221491,0.2001 -0.343752,0.4526 -0.34375,0.7813 -2e-6,0.3286 0.122259,0.6053 0.34375,0.8125 0.228632,0.2 0.596281,0.3125 1.125,0.3125 l 2.21875,0 0,8.5937 -2.21875,0 c -0.528719,0 -0.896368,0.1053 -1.125,0.3125 -0.221491,0.2001 -0.343752,0.4597 -0.34375,0.7813 -2e-6,0.3286 0.122259,0.574 0.34375,0.7812 0.228632,0.2001 0.596281,0.3125 1.125,0.3125 l 6.625,0 c 0.528706,0 0.9035,-0.1124 1.125,-0.3125 0.228623,-0.2072 0.343739,-0.4597 0.34375,-0.7812 -1.1e-5,-0.3287 -0.115127,-0.5812 -0.34375,-0.7813 -0.2215,-0.2072 -0.596294,-0.3125 -1.125,-0.3125 l -2.21875,0 0,-8.5937 2.21875,0 c 0.528706,0 0.9035,-0.1125 1.125,-0.3125 0.228623,-0.2072 0.343739,-0.4839 0.34375,-0.8125 -1.1e-5,-0.3287 -0.115127,-0.5812 -0.34375,-0.7813 -0.2215,-0.2 -0.596294,-0.3125 -1.125,-0.3125 l -6.625,0 z m 12.65625,0 c -0.528718,0 -0.896368,0.1053 -1.125,0.3125 -0.221491,0.2001 -0.343751,0.4526 -0.34375,0.7813 -1e-6,0.3286 0.122259,0.6053 0.34375,0.8125 0.228632,0.2 0.596282,0.3125 1.125,0.3125 l 0.34375,0 0,8.5937 -0.34375,0 c -0.521573,0 -0.896368,0.1053 -1.125,0.3125 -0.228635,0.2001 -0.343751,0.4597 -0.34375,0.7813 -1e-6,0.3286 0.122259,0.574 0.34375,0.7812 0.228632,0.2001 0.596282,0.3125 1.125,0.3125 l 4.78125,0 c 0.528708,0 0.903502,-0.1124 1.125,-0.3125 0.228625,-0.2072 0.343741,-0.4597 0.34375,-0.7812 -9e-6,-0.3287 -0.115125,-0.5812 -0.34375,-0.7813 -0.221498,-0.2072 -0.596292,-0.3125 -1.125,-0.3125 l -2.21875,0 0,-2.2812 2.0625,0 c 0.885948,0 1.58913,-0.1053 2.125,-0.3125 0.542996,-0.2144 1.079313,-0.5231 1.59375,-0.9375 0.52156,-0.4216 0.903499,-0.8526 1.125,-1.2813 0.292925,-0.5716 0.437487,-1.1695 0.4375,-1.8125 -1.3e-5,-1.1646 -0.440845,-2.1614 -1.3125,-2.9687 -0.864533,-0.8145 -2.045139,-1.2188 -3.53125,-1.2188 l -5.0625,0 z m 2.5625,2.2188 2.53125,0 c 0.843079,0 1.487368,0.1766 1.9375,0.5625 0.457258,0.3858 0.68749,0.8293 0.6875,1.3437 -1e-5,0.6073 -0.31057,1.1267 -0.875,1.5625 -0.557304,0.4287 -1.292604,0.6563 -2.25,0.6563 l -2.03125,0 0,-4.125 z"
       style="font-size:21.94885826px;font-style:normal;font-weight:normal;text-align:center;line-height:100%;letter-spacing:0px;word-spacing:0px;text-anchor:middle;opacity:0.1;fill:#000000;fill-opacity:1;stroke:none;font-family:Sans"
       inkscape:connector-curvature="0" />
    <path
       style="font-size:21.94885826000000151px;font-style:normal;font-weight:normal;text-align:center;line-height:100%;letter-spacing:0px;word-spacing:0px;text-anchor:middle;fill:#fafafa;fill-opacity:1;stroke:none;font-family:Sans"
       d="M 13.46875 17 C 12.940031 17.000013 12.572382 17.105313 12.34375 17.3125 C 12.122259 17.512567 11.999998 17.765101 12 18.09375 C 11.999998 18.422423 12.122259 18.699062 12.34375 18.90625 C 12.572382 19.106316 12.940031 19.218761 13.46875 19.21875 L 15.6875 19.21875 L 15.6875 27.8125 L 13.46875 27.8125 C 12.940031 27.812502 12.572382 27.917803 12.34375 28.125 C 12.122259 28.325056 11.999998 28.584735 12 28.90625 C 11.999998 29.234912 12.122259 29.480301 12.34375 29.6875 C 12.572382 29.887555 12.940031 30 13.46875 30 L 20.09375 30 C 20.622456 30 20.99725 29.887555 21.21875 29.6875 C 21.447373 29.480301 21.562489 29.227767 21.5625 28.90625 C 21.562489 28.57759 21.447373 28.325056 21.21875 28.125 C 20.99725 27.917803 20.622456 27.812502 20.09375 27.8125 L 17.875 27.8125 L 17.875 19.21875 L 20.09375 19.21875 C 20.622456 19.218761 20.99725 19.106316 21.21875 18.90625 C 21.447373 18.699062 21.562489 18.422423 21.5625 18.09375 C 21.562489 17.765101 21.447373 17.512567 21.21875 17.3125 C 20.99725 17.112458 20.622456 17.000013 20.09375 17 L 13.46875 17 z M 26.125 17 C 25.596282 17.000013 25.228632 17.105313 25 17.3125 C 24.778509 17.512567 24.656249 17.765101 24.65625 18.09375 C 24.656249 18.422423 24.778509 18.699062 25 18.90625 C 25.228632 19.106316 25.596282 19.218761 26.125 19.21875 L 26.46875 19.21875 L 26.46875 27.8125 L 26.125 27.8125 C 25.603427 27.812502 25.228632 27.917803 25 28.125 C 24.771365 28.325056 24.656249 28.584735 24.65625 28.90625 C 24.656249 29.234912 24.778509 29.480301 25 29.6875 C 25.228632 29.887555 25.596282 30 26.125 30 L 30.90625 30 C 31.434958 30 31.809752 29.887555 32.03125 29.6875 C 32.259875 29.480301 32.374991 29.227767 32.375 28.90625 C 32.374991 28.57759 32.259875 28.325056 32.03125 28.125 C 31.809752 27.917803 31.434958 27.812502 30.90625 27.8125 L 28.6875 27.8125 L 28.6875 25.53125 L 30.75 25.53125 C 31.635948 25.531254 32.33913 25.425954 32.875 25.21875 C 33.417996 25.004411 33.954313 24.695654 34.46875 24.28125 C 34.99031 23.859712 35.372249 23.428695 35.59375 23 C 35.886675 22.428423 36.031237 21.830541 36.03125 21.1875 C 36.031237 20.022906 35.590405 19.026125 34.71875 18.21875 C 33.854217 17.404254 32.673611 17.000013 31.1875 17 L 26.125 17 z M 28.6875 19.21875 L 31.21875 19.21875 C 32.061829 19.218761 32.706118 19.395441 33.15625 19.78125 C 33.613508 20.16708 33.84374 20.610583 33.84375 21.125 C 33.84374 21.732317 33.53318 22.251674 32.96875 22.6875 C 32.411446 23.116196 31.676146 23.343757 30.71875 23.34375 L 28.6875 23.34375 L 28.6875 19.21875 z "
       transform="translate(0,1004.3622)"
       id="text2998" />
  </g>
</svg>
