<?xml version="1.0" encoding="UTF-8" standalone="no"?>
<!-- Created with Inkscape (http://www.inkscape.org/) -->

<svg
   xmlns:dc="http://purl.org/dc/elements/1.1/"
   xmlns:cc="http://creativecommons.org/ns#"
   xmlns:rdf="http://www.w3.org/1999/02/22-rdf-syntax-ns#"
   xmlns:svg="http://www.w3.org/2000/svg"
   xmlns="http://www.w3.org/2000/svg"
   xmlns:xlink="http://www.w3.org/1999/xlink"
   xmlns:sodipodi="http://sodipodi.sourceforge.net/DTD/sodipodi-0.dtd"
   xmlns:inkscape="http://www.inkscape.org/namespaces/inkscape"
   width="48"
   height="48"
   id="svg2"
   version="1.1"
   inkscape:version="0.48.4 r9939"
   sodipodi:docname="acidrip.svg">
  <defs
     id="defs4">
    <linearGradient
       id="linearGradient3784">
      <stop
         style="stop-color:#424242;stop-opacity:1;"
         offset="0"
         id="stop3786" />
      <stop
         style="stop-color:#493b5b;stop-opacity:1;"
         offset="1"
         id="stop3788" />
    </linearGradient>
    <linearGradient
       inkscape:collect="always"
       xlink:href="#linearGradient3784"
       id="linearGradient3790"
       x1="24"
       y1="1050.3622"
       x2="24"
       y2="1006.3622"
       gradientUnits="userSpaceOnUse" />
  </defs>
  <sodipodi:namedview
     id="base"
     pagecolor="#ffffff"
     bordercolor="#666666"
     borderopacity="1.0"
     inkscape:pageopacity="0.0"
     inkscape:pageshadow="2"
     inkscape:zoom="8.1906533"
     inkscape:cx="8.2753768"
     inkscape:cy="24.979506"
     inkscape:document-units="px"
     inkscape:current-layer="layer1"
     showgrid="true"
     inkscape:snap-bbox="true"
     inkscape:window-width="1301"
     inkscape:window-height="744"
     inkscape:window-x="65"
     inkscape:window-y="24"
     inkscape:window-maximized="1"
     inkscape:object-nodes="true"
     inkscape:snap-nodes="true">
    <inkscape:grid
       type="xygrid"
       id="grid3003"
       empspacing="6"
       visible="true"
       enabled="true"
       snapvisiblegridlinesonly="true" />
  </sodipodi:namedview>
  <metadata
     id="metadata7">
    <rdf:RDF>
      <cc:Work
         rdf:about="">
        <dc:format>image/svg+xml</dc:format>
        <dc:type
           rdf:resource="http://purl.org/dc/dcmitype/StillImage" />
        <dc:title />
      </cc:Work>
    </rdf:RDF>
  </metadata>
  <g
     inkscape:label="Layer 1"
     inkscape:groupmode="layer"
     id="layer1"
     transform="translate(0,-1004.3622)">
    <path
       id="path3788"
       d="m 24,1051.1116 c -21.2715315,0 -23.66257505,-0.089 -23.9375,-15.4063 0.328125,14.4033 2.9375,14.4063 23.9375,14.4063 21,0 23.609375,0 23.9375,-14.4063 -0.274925,15.3174 -2.665968,15.4063 -23.9375,15.4063 z"
       style="opacity:0.20000000000000001;fill:#ffffff;fill-opacity:1;stroke:none"
       inkscape:connector-curvature="0" />
    <path
       style="fill:url(#linearGradient3790);fill-opacity:1;stroke:none"
       d="m 24,1006.3622 c -24,0 -24,0 -24,22 0,22 0,22 24,22 24,0 24,0 24,-22 0,-22 0,-22 -24,-22 z"
       id="path3757"
       inkscape:connector-curvature="0"
       sodipodi:nodetypes="zzzzz" />
    <path
       style="fill:#000000;fill-opacity:1;stroke:none;opacity:0.20000000000000001"
       d="M 24 2 C 2.7284685 2 0.33742495 2.0888436 0.0625 17.40625 C 0.390625 3.0029297 3 3 24 3 C 45 3 47.609375 3.0029297 47.9375 17.40625 C 47.662575 2.0888436 45.271532 2 24 2 z "
       transform="translate(0,1004.3622)"
       id="path3770" />
    <g
       id="g3813"
       transform="translate(-47.998,993.3622)" />
    <g
       id="g3032"
       transform="translate(-48.998,1007.3622)" />
    <path
       style="fill:#7100a9;fill-opacity:1;stroke:none"
       d="M 24 12 C 17.372583 12 12 17.3726 12 24 C 12 30.6274 17.372583 36 24 36 C 24.973545 36 25.906163 35.875064 26.8125 35.65625 C 24.984939 33.739343 23.659964 30.585085 23.1875 26.875 C 21.932332 26.516262 21 25.370312 21 24 C 21 22.643495 21.920497 21.527214 23.15625 21.15625 C 23.60296 17.440424 24.912265 14.265138 26.71875 12.3125 C 25.841615 12.108397 24.939265 12 24 12 z M 30.96875 20.5 C 29.868496 20.5 28.96875 22.043 28.96875 23.9375 C 28.96875 25.832 29.868496 27.375 30.96875 27.375 C 32.069005 27.375 32.96875 25.832 32.96875 23.9375 C 32.96875 22.043 32.069005 20.5 30.96875 20.5 z "
       transform="translate(0,1004.3622)"
       id="path3792" />
    <path
       style="fill:#7c00ba;fill-opacity:1;stroke:none"
       d="m 31.0625,1021.2997 -4.9375,4.9375 c 0.542893,0.5429 0.875,1.2966 0.875,2.125 0,0.8284 -0.332107,1.5821 -0.875,2.125 l 4.9375,4.9375 c 1.809644,-1.8096 2.9375,-4.3011 2.9375,-7.0625 0,-2.7614 -1.127856,-5.2529 -2.9375,-7.0625 z"
       id="path3802"
       inkscape:connector-curvature="0"
       inkscape:transform-center-x="-6.0625" />
    <path
       inkscape:connector-curvature="0"
       id="path3813"
       d="m 16.9375,1035.4247 4.9375,-4.9375 c -0.5429,-0.5429 -0.875,-1.2966 -0.875,-2.125 0,-0.8284 0.3321,-1.5821 0.875,-2.125 l -4.9375,-4.9375 c -1.8096,1.8096 -2.9375,4.3011 -2.9375,7.0625 0,2.7614 1.1279,5.2529 2.9375,7.0625 z"
       style="fill:#7c00ba;fill-opacity:1;stroke:none"
       inkscape:transform-center-x="6.0625" />
    <path
       style="fill:#cc66ff;fill-opacity:1;stroke:none"
       d="M 23.5 19.03125 C 20.97872 19.287302 19 21.411187 19 24 C 19 26.610302 21.011119 28.742028 23.5625 28.96875 C 23.40916 28.299387 23.278686 27.591049 23.1875 26.875 C 21.932332 26.516262 21 25.370312 21 24 C 21 22.643495 21.920497 21.527214 23.15625 21.15625 C 23.243592 20.429724 23.380074 19.710781 23.53125 19.03125 C 23.520767 19.032248 23.510464 19.030187 23.5 19.03125 z M 29 23.75 C 28.997926 23.814134 28.96875 23.872474 28.96875 23.9375 C 28.96875 24.013202 28.997195 24.081768 29 24.15625 C 29.001682 24.102935 29 24.053724 29 24 C 29 23.914042 29.004287 23.834893 29 23.75 z "
       transform="translate(0,1004.3622)"
       id="path3794" />
    <path
       inkscape:connector-curvature="0"
       id="path3823"
       d="m 30.96875,1016.2997 c -3.848734,0 -6.96875,5.3726 -6.96875,12 0,6.6274 3.120016,12 6.96875,12 3.848734,0 6.96875,-5.3726 6.96875,-12 0,-6.6274 -3.120016,-12 -6.96875,-12 z m 0,9 c 0.962184,0 1.742188,1.3432 1.742188,3 0,1.6568 -0.780004,3 -1.742188,3 -0.962183,0 -1.742187,-1.3432 -1.742187,-3 0,-1.6568 0.780004,-3 1.742187,-3 z"
       style="fill:#aa00ff;fill-opacity:1;stroke:none" />
    <path
       inkscape:transform-center-x="-6.0625"
       inkscape:connector-curvature="0"
       id="path3825"
       d="m 35.07015,1021.2372 -2.86735,4.9375 c 0.315273,0.5429 0.508138,1.2966 0.508138,2.125 0,0.8284 -0.192865,1.5821 -0.508138,2.125 l 2.86735,4.9375 c 1.050913,-1.8096 1.705892,-4.3011 1.705892,-7.0625 0,-2.7614 -0.654979,-5.2529 -1.705892,-7.0625 z"
       style="fill:#7c00ba;fill-opacity:1;stroke:none" />
    <path
       inkscape:transform-center-x="6.0625"
       style="fill:#7c00ba;fill-opacity:1;stroke:none"
       d="m 26.86735,1035.3622 2.867351,-4.9375 c -0.315278,-0.5429 -0.508138,-1.2966 -0.508138,-2.125 0,-0.8284 0.19286,-1.5821 0.508138,-2.125 l -2.867351,-4.9375 c -1.050887,1.8096 -1.705892,4.3011 -1.705892,7.0625 0,2.7614 0.655005,5.2529 1.705892,7.0625 z"
       id="path3827"
       inkscape:connector-curvature="0" />
    <path
       inkscape:connector-curvature="0"
       id="path3829"
       d="m 30.96875,1023.2997 c -1.603639,0 -2.903646,2.2386 -2.903646,5 0,2.7614 1.300007,5 2.903646,5 1.603639,0 2.903646,-2.2386 2.903646,-5 0,-2.7614 -1.300007,-5 -2.903646,-5 z m 0,2 c 0.962184,0 1.742188,1.3432 1.742188,3 0,1.6568 -0.780004,3 -1.742188,3 -0.962183,0 -1.742187,-1.3432 -1.742187,-3 0,-1.6568 0.780004,-3 1.742187,-3 z"
       style="fill:#cc66ff;fill-opacity:1;stroke:none" />
  </g>
</svg>
