<?xml version="1.0" encoding="UTF-8" standalone="no"?>
<!-- Created with Inkscape (http://www.inkscape.org/) -->

<svg
   xmlns:dc="http://purl.org/dc/elements/1.1/"
   xmlns:cc="http://creativecommons.org/ns#"
   xmlns:rdf="http://www.w3.org/1999/02/22-rdf-syntax-ns#"
   xmlns:svg="http://www.w3.org/2000/svg"
   xmlns="http://www.w3.org/2000/svg"
   xmlns:xlink="http://www.w3.org/1999/xlink"
   xmlns:sodipodi="http://sodipodi.sourceforge.net/DTD/sodipodi-0.dtd"
   xmlns:inkscape="http://www.inkscape.org/namespaces/inkscape"
   width="48"
   height="48"
   id="svg2"
   version="1.1"
   inkscape:version="0.48.4 r9939"
   sodipodi:docname="gnome-panel-launcher.svg">
  <defs
     id="defs4">
    <linearGradient
       id="linearGradient3983">
      <stop
         style="stop-color:#424242;stop-opacity:1;"
         offset="0"
         id="stop3985" />
      <stop
         style="stop-color:#565656;stop-opacity:1;"
         offset="1"
         id="stop3987" />
    </linearGradient>
    <linearGradient
       inkscape:collect="always"
       xlink:href="#linearGradient3983"
       id="linearGradient3989"
       x1="24"
       y1="1050.3622"
       x2="24"
       y2="1006.3622"
       gradientUnits="userSpaceOnUse" />
  </defs>
  <sodipodi:namedview
     id="base"
     pagecolor="#ffffff"
     bordercolor="#666666"
     borderopacity="1.0"
     inkscape:pageopacity="0.0"
     inkscape:pageshadow="2"
     inkscape:zoom="8.1906535"
     inkscape:cx="6.7382759"
     inkscape:cy="10.441267"
     inkscape:document-units="px"
     inkscape:current-layer="layer1"
     showgrid="true"
     inkscape:snap-bbox="true"
     inkscape:window-width="1301"
     inkscape:window-height="744"
     inkscape:window-x="65"
     inkscape:window-y="24"
     inkscape:window-maximized="1"
     inkscape:snap-global="true"
     inkscape:snap-nodes="false"
     inkscape:object-nodes="false">
    <inkscape:grid
       type="xygrid"
       id="grid2985"
       empspacing="6"
       visible="true"
       enabled="true"
       snapvisiblegridlinesonly="true" />
  </sodipodi:namedview>
  <metadata
     id="metadata7">
    <rdf:RDF>
      <cc:Work
         rdf:about="">
        <dc:format>image/svg+xml</dc:format>
        <dc:type
           rdf:resource="http://purl.org/dc/dcmitype/StillImage" />
        <dc:title />
      </cc:Work>
    </rdf:RDF>
  </metadata>
  <g
     inkscape:label="Layer 1"
     inkscape:groupmode="layer"
     id="layer1"
     transform="translate(0,-1004.3622)">
    <path
       id="path3788"
       d="m 24,1051.1116 c -21.2715315,0 -23.66257505,-0.089 -23.9375,-15.4063 0.328125,14.4033 2.9375,14.4063 23.9375,14.4063 21,0 23.609375,0 23.9375,-14.4063 -0.274925,15.3174 -2.665968,15.4063 -23.9375,15.4063 z"
       style="opacity:0.20000000000000001;fill:#ffffff;fill-opacity:1;stroke:none"
       inkscape:connector-curvature="0" />
    <path
       style="fill:url(#linearGradient3989);fill-opacity:1;stroke:none"
       d="m 24,1006.3622 c -24,0 -24,0 -24,22 0,22 0,22 24,22 24,0 24,0 24,-22 0,-22 0,-22 -24,-22 z"
       id="path3757"
       inkscape:connector-curvature="0"
       sodipodi:nodetypes="zzzzz" />
    <g
       id="g3032"
       transform="translate(48,1007.3622)" />
    <g
       id="g3028"
       transform="translate(-55,1009.3622)" />
    <path
       style="fill:#000000;fill-opacity:1;stroke:none;opacity:0.20000000000000001"
       d="M 24 2 C 2.7284685 2 0.33742495 2.0888436 0.0625 17.40625 C 0.390625 3.0029297 3 3 24 3 C 45 3 47.609375 3.0029297 47.9375 17.40625 C 47.662575 2.0888436 45.271532 2 24 2 z "
       transform="translate(0,1004.3622)"
       id="path3770" />
    <path
       style="fill:#000000;fill-opacity:1;stroke:none;opacity:0.20000000000000001"
       d="M 24 2 C 7.2405624 2 2.2369698 2.0788791 0.71875 9.59375 C 2.3300781 2.5289866 7.5 2.53125 24 2.53125 C 40.5 2.53125 45.669922 2.5289866 47.28125 9.59375 C 45.76303 2.0788791 40.759438 2 24 2 z M 47.28125 9.59375 C 47.354492 9.9148756 47.409424 10.242768 47.46875 10.59375 C 47.41561 10.240351 47.346891 9.9186608 47.28125 9.59375 z M 0.71875 9.59375 C 0.65310868 9.9186608 0.58439008 10.240351 0.53125 10.59375 C 0.59057617 10.242768 0.64550781 9.9148756 0.71875 9.59375 z "
       transform="translate(0,1004.3622)"
       id="path3012" />
    <g
       id="g3999"
       style="opacity:0.2;fill:#000000;fill-opacity:1"
       transform="translate(1.142402,-1.5513335)">
      <path
         id="path4001"
         d="m 28.029734,1019.7335 c 1.370785,-0.3741 2.830476,-0.7195 4.300571,-0.4946 0.568382,1.3478 0.543287,2.7965 0.51573,4.1918 -0.157243,3.3914 -1.259138,6.7481 -3.510092,9.2278 0.190927,0.7829 0.410845,1.5635 0.596705,2.3438 0.236354,1.1589 -0.174712,2.367 -1.034241,3.1063 -1.101488,0.9203 -2.191805,1.8427 -3.316122,2.7557 -0.584254,0.4537 -1.616679,0.068 -1.821418,-0.681 -0.306885,-1.2603 -0.591221,-2.5294 -0.914795,-3.783 -1.036926,0.069 -2.12595,-0.2085 -3.017111,-0.8292 -1.030711,-0.6997 -1.699724,-1.8481 -1.931141,-3.0242 -0.903549,-0.043 -1.827531,0.031 -2.739336,0.027 -0.433674,-0.01 -0.871278,0.08 -1.301116,-0.036 -0.658617,-0.1916 -1.070646,-0.9988 -0.794751,-1.586 0.581659,-1.2763 1.159742,-2.5699 1.752966,-3.8464 0.506759,-1.0658 1.655652,-1.7841 2.892938,-1.8037 0.706824,0 1.415606,0.017 2.120884,0.044 0.172218,0.037 0.21954,-0.1525 0.309252,-0.2523 1.854331,-2.6429 4.749355,-4.4147 7.881771,-5.3553 m -1.824973,3.9601 c -1.133541,0.2355 -1.911593,1.3777 -1.723517,2.5344 0.149067,1.2976 1.486465,2.3973 2.7986,2.2767 0.966323,-0.037 1.806196,-0.7018 2.060034,-1.6018 0.265907,-0.8588 -0.03588,-1.8777 -0.72952,-2.5243 -0.633721,-0.6155 -1.585936,-0.8829 -2.403035,-0.6883 m 0,0"
         inkscape:connector-curvature="0"
         style="fill:#000000;fill-opacity:1;fill-rule:nonzero;stroke:none" />
      <path
         id="path4003"
         d="m 15.945187,1034.6734 c 0.24337,-0.3251 0.777076,-0.2366 0.932279,0.1634 0.765315,1.5379 2.296307,2.7115 3.974397,3.0849 0.401985,0.058 0.659307,0.5682 0.427164,0.8863 -0.526829,0.6794 -1.057199,1.356 -1.588548,2.0267 -0.252978,0.3373 -0.879541,0.1813 -0.992058,-0.2367 -0.07553,-0.3376 -0.113408,-0.6813 -0.177619,-1.0205 -0.770664,0.3286 -1.532195,0.6803 -2.307379,1.0002 -0.367484,0.1552 -0.855249,-0.2271 -0.801348,-0.615 0.128961,-0.8263 0.291093,-1.6531 0.415534,-2.4883 -0.340249,0.027 -0.680462,0.07 -1.026303,0.077 -0.439777,-0.01 -0.767292,-0.4524 -0.506253,-0.7781 0.519143,-0.6696 1.123513,-1.4334 1.646197,-2.1003 m 0.0035,0"
         inkscape:connector-curvature="0"
         style="fill:#000000;fill-opacity:1;fill-rule:nonzero;stroke:none" />
      <path
         id="path4005"
         d="m 28.213541,1027.226 c -0.53037,0.6766 -1.555694,0.7595 -2.28867,0.185 -0.732977,-0.5745 -0.897411,-1.59 -0.367041,-2.2666 0.53037,-0.6767 1.555695,-0.7596 2.288671,-0.1851 0.732976,0.5746 0.89741,1.59 0.36704,2.2667 m 0,0"
         inkscape:connector-curvature="0"
         style="fill:#000000;fill-opacity:1;fill-rule:nonzero;stroke:none" />
    </g>
    <path
       id="path3070"
       d="m 28.029734,1016.8789 c 1.370785,-0.3741 2.830476,-0.7195 4.300571,-0.4946 0.568382,1.3478 0.543287,2.7965 0.51573,4.1918 -0.157243,3.3914 -1.259138,6.7481 -3.510092,9.2278 0.190927,0.7829 0.410845,1.5635 0.596705,2.3438 0.236354,1.1589 -0.174712,2.367 -1.034241,3.1063 -1.101488,0.9203 -2.191805,1.8427 -3.316122,2.7557 -0.584254,0.4537 -1.616679,0.068 -1.821418,-0.681 -0.306885,-1.2603 -0.591221,-2.5294 -0.914795,-3.783 -1.036926,0.069 -2.12595,-0.2085 -3.017111,-0.8292 -1.030711,-0.6997 -1.699724,-1.8481 -1.931141,-3.0242 -0.903549,-0.043 -1.827531,0.031 -2.739336,0.027 -0.433674,-0.01 -0.871278,0.08 -1.301116,-0.036 -0.658617,-0.1916 -1.070646,-0.9988 -0.794751,-1.586 0.581659,-1.2763 1.159742,-2.5699 1.752966,-3.8464 0.506759,-1.0658 1.655652,-1.7841 2.892938,-1.8037 0.706824,0 1.415606,0.017 2.120884,0.044 0.172218,0.037 0.21954,-0.1525 0.309252,-0.2523 1.854331,-2.6429 4.749355,-4.4147 7.881771,-5.3553 m -1.824973,3.9601 c -1.133541,0.2355 -1.911593,1.3777 -1.723517,2.5344 0.149067,1.2976 1.486465,2.3973 2.7986,2.2767 0.966323,-0.037 1.806196,-0.7018 2.060034,-1.6018 0.265907,-0.8588 -0.03588,-1.8777 -0.72952,-2.5243 -0.633721,-0.6155 -1.585936,-0.8829 -2.403035,-0.6883 m 0,0"
       inkscape:connector-curvature="0"
       style="fill:#03a9f4;fill-opacity:1;fill-rule:nonzero;stroke:none" />
    <path
       id="path3072"
       d="m 15.945187,1031.8188 c 0.24337,-0.3251 0.777076,-0.2366 0.932279,0.1634 0.765315,1.5379 2.296307,2.7115 3.974397,3.0849 0.401985,0.058 0.659307,0.5682 0.427164,0.8863 -0.526829,0.6794 -1.057199,1.356 -1.588548,2.0267 -0.252978,0.3373 -0.879541,0.1813 -0.992058,-0.2367 -0.07553,-0.3376 -0.113408,-0.6813 -0.177619,-1.0205 -0.770664,0.3286 -1.532195,0.6803 -2.307379,1.0002 -0.367484,0.1552 -0.855249,-0.2271 -0.801348,-0.615 0.128961,-0.8263 0.291093,-1.6531 0.415534,-2.4883 -0.340249,0.027 -0.680462,0.07 -1.026303,0.077 -0.439777,-0.01 -0.767292,-0.4524 -0.506253,-0.7781 0.519143,-0.6696 1.123513,-1.4334 1.646197,-2.1003 m 0.0035,0"
       inkscape:connector-curvature="0"
       style="fill:#ff8f00;fill-opacity:1;fill-rule:nonzero;stroke:none" />
    <path
       id="path3074"
       d="m 28.213541,1024.3714 c -0.53037,0.6766 -1.555694,0.7595 -2.28867,0.185 -0.732977,-0.5745 -0.897411,-1.59 -0.367041,-2.2666 0.53037,-0.6767 1.555695,-0.7596 2.288671,-0.1851 0.732976,0.5746 0.89741,1.59 0.36704,2.2667 m 0,0"
       inkscape:connector-curvature="0"
       style="fill:#ffff00;fill-opacity:1;fill-rule:nonzero;stroke:none" />
  </g>
</svg>
