<?xml version="1.0" encoding="UTF-8" standalone="no"?>
<!-- Created with Inkscape (http://www.inkscape.org/) -->

<svg
   xmlns:dc="http://purl.org/dc/elements/1.1/"
   xmlns:cc="http://creativecommons.org/ns#"
   xmlns:rdf="http://www.w3.org/1999/02/22-rdf-syntax-ns#"
   xmlns:svg="http://www.w3.org/2000/svg"
   xmlns="http://www.w3.org/2000/svg"
   xmlns:xlink="http://www.w3.org/1999/xlink"
   xmlns:sodipodi="http://sodipodi.sourceforge.net/DTD/sodipodi-0.dtd"
   xmlns:inkscape="http://www.inkscape.org/namespaces/inkscape"
   width="48"
   height="48"
   id="svg2"
   version="1.1"
   inkscape:version="0.48.4 r9939"
   sodipodi:docname="krita.svg">
  <defs
     id="defs4">
    <linearGradient
       id="linearGradient3775">
      <stop
         style="stop-color:#448aff;stop-opacity:1;"
         offset="0"
         id="stop3777" />
      <stop
         style="stop-color:#44b6ff;stop-opacity:1;"
         offset="1"
         id="stop3779" />
    </linearGradient>
    <linearGradient
       id="linearGradient3779">
      <stop
         style="stop-color:#000000;stop-opacity:1;"
         offset="0"
         id="stop3781" />
      <stop
         style="stop-color:#ffffff;stop-opacity:1;"
         offset="1"
         id="stop3783" />
    </linearGradient>
    <linearGradient
       inkscape:collect="always"
       xlink:href="#linearGradient3779"
       id="linearGradient3795"
       gradientUnits="userSpaceOnUse"
       gradientTransform="translate(-20,0)"
       spreadMethod="repeat"
       x1="24"
       y1="1028.3622"
       x2="45"
       y2="1007.3622" />
    <linearGradient
       inkscape:collect="always"
       xlink:href="#linearGradient3779"
       id="linearGradient3797"
       gradientUnits="userSpaceOnUse"
       gradientTransform="translate(-20,0)"
       spreadMethod="repeat"
       x1="44"
       y1="1048.3622"
       x2="15"
       y2="1019.3622" />
    <linearGradient
       inkscape:collect="always"
       xlink:href="#linearGradient3775"
       id="linearGradient3781"
       x1="24"
       y1="1050.3622"
       x2="24"
       y2="1006.3622"
       gradientUnits="userSpaceOnUse" />
  </defs>
  <sodipodi:namedview
     id="base"
     pagecolor="#ffffff"
     bordercolor="#666666"
     borderopacity="1.0"
     inkscape:pageopacity="0.0"
     inkscape:pageshadow="2"
     inkscape:zoom="10.108768"
     inkscape:cx="14.444572"
     inkscape:cy="21.941962"
     inkscape:document-units="px"
     inkscape:current-layer="layer1"
     showgrid="true"
     inkscape:snap-bbox="true"
     inkscape:window-width="1301"
     inkscape:window-height="744"
     inkscape:window-x="65"
     inkscape:window-y="24"
     inkscape:window-maximized="1"
     inkscape:object-nodes="false">
    <inkscape:grid
       type="xygrid"
       id="grid3003"
       empspacing="6"
       visible="true"
       enabled="true"
       snapvisiblegridlinesonly="true" />
  </sodipodi:namedview>
  <metadata
     id="metadata7">
    <rdf:RDF>
      <cc:Work
         rdf:about="">
        <dc:format>image/svg+xml</dc:format>
        <dc:type
           rdf:resource="http://purl.org/dc/dcmitype/StillImage" />
        <dc:title />
      </cc:Work>
    </rdf:RDF>
  </metadata>
  <g
     inkscape:label="Layer 1"
     inkscape:groupmode="layer"
     id="layer1"
     transform="translate(0,-1004.3622)">
    <path
       id="path3788"
       d="m 24,1051.1116 c -21.2715315,0 -23.66257505,-0.089 -23.9375,-15.4063 0.328125,14.4033 2.9375,14.4063 23.9375,14.4063 21,0 23.609375,0 23.9375,-14.4063 -0.274925,15.3174 -2.665968,15.4063 -23.9375,15.4063 z"
       style="opacity:0.20000000000000001;fill:#ffffff;fill-opacity:1;stroke:none"
       inkscape:connector-curvature="0" />
    <path
       style="fill:url(#linearGradient3781);fill-opacity:1;stroke:none"
       d="m 24,1050.3622 c -24,0 -24,0 -24,-22 0,-22 0,-22 24,-22 24,0 24,0 24,22 0,22 0,22 -24,22 z"
       id="path3757"
       inkscape:connector-curvature="0"
       sodipodi:nodetypes="zzzzz" />
    <g
       id="g3791"
       transform="translate(20,0)">
      <path
         style="opacity:0.02999998;fill:url(#linearGradient3795);fill-opacity:1;stroke:none"
         d="m 4,1006.3622 c -24,0 -24,0 -24,22 0,22 0,22 24,22 24,0 24,0 24,-22 0,-22 0,-22 -24,-22 z"
         id="path3777"
         inkscape:connector-curvature="0"
         sodipodi:nodetypes="zzzzz" />
      <path
         sodipodi:nodetypes="zzzzz"
         inkscape:connector-curvature="0"
         id="path3787"
         d="m 4,1006.3622 c -24,0 -24,0 -24,22 0,22 0,22 24,22 24,0 24,0 24,-22 0,-22 0,-22 -24,-22 z"
         style="opacity:0.02999998;fill:url(#linearGradient3797);fill-opacity:1;stroke:none" />
    </g>
    <path
       style="fill:#000000;fill-opacity:1;stroke:none;opacity:0.20000000000000001"
       d="M 24 2 C 2.7284685 2 0.33742495 2.0888436 0.0625 17.40625 C 0.390625 3.0029297 3 3 24 3 C 45 3 47.609375 3.0029297 47.9375 17.40625 C 47.662575 2.0888436 45.271532 2 24 2 z "
       transform="translate(0,1004.3622)"
       id="path3770" />
    <g
       id="g3813"
       transform="translate(-47.998,993.3622)" />
    <g
       id="g3039"
       transform="translate(-56.998,1002.3622)" />
    <path
       sodipodi:nodetypes="ssssssssssss"
       inkscape:connector-curvature="0"
       id="path3862"
       d="m 26.149541,1015.3622 c -8.284271,0 -16.5537426,6.9919 -17.1874997,15 -0.6337571,8.0081 4.5282287,15 12.8124997,15 8.284271,0 18.525013,-7.5467 18.21875,-15.5 -0.327317,-8.5 -6.99528,2.0255 -10.03125,-2.5 -1.287506,-1.9192 1.573652,-3.1846 2.625,-5 2.316557,-4 -2.4375,-7 -6.4375,-7 z m 0.3125,11.5 c 1.380712,0 2.5,1.1193 2.5,2.5 0,1.3807 -1.119288,2.5 -2.5,2.5 -1.380712,0 -2.5,-1.1193 -2.5,-2.5 0,-1.3807 1.119288,-2.5 2.5,-2.5 z"
       style="opacity:0.1;fill:#000000;fill-opacity:1;stroke:none" />
    <path
       style="fill:#fff3ef;fill-opacity:1;stroke:none"
       d="M 25.1875,10 C 16.903229,10 8.6337571,16.9919 8,25 7.3662429,33.0081 12.528229,40 20.8125,40 29.096771,40 39.337513,32.4533 39.03125,24.5 38.703933,16 32.03597,26.5255 29,22 c -1.287506,-1.9192 1.573652,-3.1846 2.625,-5 2.316557,-4 -2.4375,-7 -6.4375,-7 z M 25.5,21.5 c 1.380712,0 2.5,1.119288 2.5,2.5 0,1.380712 -1.119288,2.5 -2.5,2.5 -1.380712,0 -2.5,-1.119288 -2.5,-2.5 0,-1.380712 1.119288,-2.5 2.5,-2.5 z"
       transform="translate(0,1004.3622)"
       id="path3775"
       inkscape:connector-curvature="0"
       sodipodi:nodetypes="ssssssssssss" />
    <g
       id="g3852"
       style="opacity:0.1;fill:#000000;fill-opacity:1"
       transform="translate(0.72244585,1)">
      <path
         style="fill:#000000;fill-opacity:1;stroke:none"
         d="m 17.306173,1019.505 c -1.675774,-0.7791 -3.980574,2.25 -1.694339,2.9895 1.037878,0.9649 0.953973,3.8414 2.985569,2.5319 1.470325,-0.7616 2.468397,-2.1572 2.330079,-3.8495 0.470051,-1.9102 -1.448521,-2.1146 -2.770938,-1.5168 -0.289659,0.028 -0.594877,-0.01 -0.850371,-0.1551 z"
         id="path3854"
         inkscape:connector-curvature="0" />
      <path
         style="fill:#000000;fill-opacity:1;stroke:none"
         d="m 13.063957,1032.125 c 0.755531,1.9754 4.185378,1.5457 3.810534,-0.7976 0.909624,-1.0404 1.659509,-4.0594 -0.677974,-3.2988 -1.510825,0.8341 -3.267397,0.1549 -4.722297,0.6102 -1.362975,1.6194 0.936285,2.3857 1.589737,3.4862 l 0,0 z"
         id="path3856"
         inkscape:connector-curvature="0" />
      <path
         style="fill:#000000;fill-opacity:1;stroke:none"
         d="m 20.672126,1040.1408 c 2.099918,0.8261 3.611059,-2.3774 1.836069,-3.5651 -0.263245,-2.1275 -2.948501,-3.2494 -4.13977,-1.1116 -1.155832,1.1064 -2.384014,4.641 -0.01614,4.8981 0.772731,-0.049 1.545269,-0.4945 2.319839,-0.2214 z"
         id="path3858"
         inkscape:connector-curvature="0" />
      <path
         style="fill:#000000;fill-opacity:1;stroke:none"
         d="m 29.163513,1034.7189 c -2.402147,-0.8179 -3.578774,3.092 -1.616684,4.2727 2.03965,1.2179 3.523374,-1.5875 4.667129,-2.8753 0.48525,-2.0277 -1.93,-1.5288 -3.050445,-1.3978 l 0,4e-4 z"
         id="path3860"
         inkscape:connector-curvature="0" />
    </g>
    <path
       style="fill:#43a047;fill-opacity:1;stroke:none"
       d="m 17.306173,1019.505 c -1.675774,-0.7791 -3.980574,2.25 -1.694339,2.9895 1.037878,0.9649 0.953973,3.8414 2.985569,2.5319 1.470325,-0.7616 2.468397,-2.1572 2.330079,-3.8495 0.470051,-1.9102 -1.448521,-2.1146 -2.770938,-1.5168 -0.289659,0.028 -0.594877,-0.01 -0.850371,-0.1551 z"
       id="path3781"
       inkscape:connector-curvature="0" />
    <path
       style="fill:#42a5f5;fill-opacity:1;stroke:none"
       d="m 13.063957,1032.125 c 0.755531,1.9754 4.185378,1.5457 3.810534,-0.7976 0.909624,-1.0404 1.659509,-4.0594 -0.677974,-3.2988 -1.510825,0.8341 -3.267397,0.1549 -4.722297,0.6102 -1.362975,1.6194 0.936285,2.3857 1.589737,3.4862 l 0,0 z"
       id="path3793"
       inkscape:connector-curvature="0" />
    <path
       style="fill:#ffc400;fill-opacity:1;stroke:none"
       d="m 20.672126,1040.1408 c 2.099918,0.8261 3.611059,-2.3774 1.836069,-3.5651 -0.263245,-2.1275 -2.948501,-3.2494 -4.13977,-1.1116 -1.155832,1.1064 -2.384014,4.641 -0.01614,4.8981 0.772731,-0.049 1.545269,-0.4945 2.319839,-0.2214 z"
       id="path3795"
       inkscape:connector-curvature="0" />
    <path
       style="fill:#ff6f00;fill-opacity:1;stroke:none"
       d="m 29.163513,1034.7189 c -2.402147,-0.8179 -3.578774,3.092 -1.616684,4.2727 2.03965,1.2179 3.523374,-1.5875 4.667129,-2.8753 0.48525,-2.0277 -1.93,-1.5288 -3.050445,-1.3978 l 0,4e-4 z"
       id="path3816"
       inkscape:connector-curvature="0" />
  </g>
</svg>
