<?xml version="1.0" encoding="UTF-8" standalone="no"?>
<!-- Created with Inkscape (http://www.inkscape.org/) -->

<svg
   xmlns:dc="http://purl.org/dc/elements/1.1/"
   xmlns:cc="http://creativecommons.org/ns#"
   xmlns:rdf="http://www.w3.org/1999/02/22-rdf-syntax-ns#"
   xmlns:svg="http://www.w3.org/2000/svg"
   xmlns="http://www.w3.org/2000/svg"
   xmlns:xlink="http://www.w3.org/1999/xlink"
   xmlns:sodipodi="http://sodipodi.sourceforge.net/DTD/sodipodi-0.dtd"
   xmlns:inkscape="http://www.inkscape.org/namespaces/inkscape"
   width="48"
   height="48"
   id="svg2"
   version="1.1"
   inkscape:version="0.48.4 r9939"
   sodipodi:docname="ktuberling.svg">
  <defs
     id="defs4">
    <linearGradient
       id="linearGradient3757">
      <stop
         style="stop-color:#2196f3;stop-opacity:1;"
         offset="0"
         id="stop3759" />
      <stop
         style="stop-color:#21bff3;stop-opacity:1;"
         offset="1"
         id="stop3761" />
    </linearGradient>
    <linearGradient
       inkscape:collect="always"
       xlink:href="#linearGradient3757"
       id="linearGradient3763"
       x1="24"
       y1="1050.3622"
       x2="24"
       y2="1006.3622"
       gradientUnits="userSpaceOnUse" />
    <filter
       id="filter3720"
       inkscape:collect="always"
       color-interpolation-filters="sRGB">
      <feGaussianBlur
         id="feGaussianBlur3722"
         stdDeviation="0.51799575"
         inkscape:collect="always" />
    </filter>
    <linearGradient
       id="linearGradient3250"
       inkscape:collect="always">
      <stop
         id="stop3252"
         offset="0"
         style="stop-color:#ffaa00;stop-opacity:1;" />
      <stop
         id="stop3254"
         offset="1"
         style="stop-color:#ec7a00;stop-opacity:1" />
    </linearGradient>
    <linearGradient
       inkscape:collect="always"
       xlink:href="#linearGradient3250"
       id="linearGradient3182"
       gradientUnits="userSpaceOnUse"
       x1="49.267925"
       y1="11.350944"
       x2="51.555767"
       y2="21.494339" />
    <linearGradient
       inkscape:collect="always"
       xlink:href="#linearGradient3250"
       id="linearGradient3229"
       gradientUnits="userSpaceOnUse"
       x1="49.267925"
       y1="11.350944"
       x2="51.555767"
       y2="21.494339" />
    <linearGradient
       inkscape:collect="always"
       xlink:href="#linearGradient3250"
       id="linearGradient3262"
       gradientUnits="userSpaceOnUse"
       x1="49.267925"
       y1="11.350944"
       x2="51.555767"
       y2="21.494339" />
  </defs>
  <sodipodi:namedview
     id="base"
     pagecolor="#ffffff"
     bordercolor="#666666"
     borderopacity="1.0"
     inkscape:pageopacity="0.0"
     inkscape:pageshadow="2"
     inkscape:zoom="8.1906533"
     inkscape:cx="7.6613292"
     inkscape:cy="20.115578"
     inkscape:document-units="px"
     inkscape:current-layer="layer1"
     showgrid="true"
     inkscape:snap-bbox="true"
     inkscape:window-width="1301"
     inkscape:window-height="744"
     inkscape:window-x="65"
     inkscape:window-y="24"
     inkscape:window-maximized="1"
     inkscape:snap-global="true">
    <inkscape:grid
       type="xygrid"
       id="grid2985"
       empspacing="6"
       visible="true"
       enabled="true"
       snapvisiblegridlinesonly="true" />
  </sodipodi:namedview>
  <metadata
     id="metadata7">
    <rdf:RDF>
      <cc:Work
         rdf:about="">
        <dc:format>image/svg+xml</dc:format>
        <dc:type
           rdf:resource="http://purl.org/dc/dcmitype/StillImage" />
        <dc:title />
      </cc:Work>
    </rdf:RDF>
  </metadata>
  <g
     inkscape:label="Layer 1"
     inkscape:groupmode="layer"
     id="layer1"
     transform="translate(0,-1004.3622)">
    <path
       id="path3788"
       d="m 24,1051.1116 c -21.2715315,0 -23.66257505,-0.089 -23.9375,-15.4063 0.328125,14.4033 2.9375,14.4063 23.9375,14.4063 21,0 23.609375,0 23.9375,-14.4063 -0.274925,15.3174 -2.665968,15.4063 -23.9375,15.4063 z"
       style="opacity:0.20000000000000001;fill:#ffffff;fill-opacity:1;stroke:none"
       inkscape:connector-curvature="0" />
    <path
       style="fill:url(#linearGradient3763);fill-opacity:1;stroke:none"
       d="m 24,1006.3622 c -24,0 -24,0 -24,22 0,22 0,22 24,22 24,0 24,0 24,-22 0,-22 0,-22 -24,-22 z"
       id="path3757"
       inkscape:connector-curvature="0"
       sodipodi:nodetypes="zzzzz" />
    <path
       style="fill:#000000;fill-opacity:1;stroke:none;opacity:0.20000000000000001"
       d="M 24 2 C 2.7284685 2 0.33742495 2.0888436 0.0625 17.40625 C 0.390625 3.0029297 3 3 24 3 C 45 3 47.609375 3.0029297 47.9375 17.40625 C 47.662575 2.0888436 45.271532 2 24 2 z "
       transform="translate(0,1004.3622)"
       id="path3770" />
    <path
       style="opacity:0.1;fill:#000000;fill-opacity:1;fill-rule:nonzero;stroke:none"
       d="m 28.746967,1012.778 c -0.352406,-0.016 -0.67948,-0.01 -1.03125,0.031 -0.33853,0.047 -0.688057,0.148 -1,0.2812 -0.307111,0.1262 -0.607104,0.2464 -0.875,0.4375 -0.243582,0.1827 -0.458514,0.4001 -0.65625,0.625 -0.196401,0.2284 -0.390629,0.4572 -0.53125,0.7188 -0.136196,0.2578 -0.21859,0.5318 -0.28125,0.8125 -0.117559,0.5357 -0.15915,1.0811 -0.15625,1.625 0.01183,0.2926 0.05198,0.585 0.09375,0.875 0.03908,0.2798 0.06658,0.5669 0.125,0.8437 -6.928238,0.1342 -12.751284,5.0582 -13.25,11.4375 -0.524807,6.7131 5.037618,12.4773 12.4375,12.875 7.399882,0.3978 13.818943,-4.7244 14.34375,-11.4375 0.524807,-6.713 -5.037618,-12.4772 -12.4375,-12.875 -0.241758,-0.013 -0.479247,0 -0.71875,0 -0.07335,-0.2525 -0.133021,-0.4934 -0.1875,-0.75 -0.06109,-0.2855 -0.11817,-0.5859 -0.15625,-0.875 -0.03719,-0.2588 -0.05236,-0.5202 -0.0625,-0.7812 0.005,-0.038 -0.006,-0.056 0,-0.094 -0.03408,0.2017 -0.01608,-0.01 0,-0.2187 -0.0089,0.1175 0.0042,0.1629 0,0.2187 0.0044,-0.028 0.02645,-0.038 0.03125,-0.062 0.05622,-0.2791 0.153782,-0.554 0.28125,-0.8125 0.132123,-0.262 0.308702,-0.4907 0.5,-0.7187 0.191417,-0.2244 0.390122,-0.4393 0.625,-0.625 0.258184,-0.1938 0.573418,-0.3129 0.875,-0.4375 0.305033,-0.128 0.60763,-0.2313 0.9375,-0.2813 0.345746,-0.042 0.68475,-0.048 1.03125,-0.031 0.318,0.017 0.629536,0.087 0.9375,0.1562 0.249957,0.061 0.518432,0.1454 0.75,0.25 0.174196,0.077 0.319368,0.1718 0.4375,0.3125 -0.06957,0.1173 -0.142065,0.2239 -0.25,0.3125 -0.13639,0.109 -0.30821,0.2063 -0.46875,0.2813 -0.152053,0.073 -0.299968,0.107 -0.46875,0.125 -0.155704,0.01 -0.318936,0 -0.46875,-0.031 -0.138358,-0.037 -0.26552,-0.1015 -0.375,-0.1875 -0.088,-0.072 -0.14707,-0.1812 -0.1875,-0.2812 -0.154623,-0.3818 -0.347028,0.4452 -0.15625,0.8125 0.0539,0.1038 0.117556,0.2112 0.21875,0.2812 0.125054,0.083 0.256957,0.1505 0.40625,0.1875 0.160524,0.036 0.333692,0.044 0.5,0.031 0.179015,-0.018 0.368772,-0.05 0.53125,-0.125 0.166799,-0.075 0.323365,-0.1738 0.46875,-0.2813 0.128457,-0.098 0.23009,-0.1771 0.3125,-0.3125 0.223637,-0.3745 0.20634,-0.7736 0.21875,-1.2187 -0.0054,-0.149 -0.0491,-0.291 -0.15625,-0.4063 -0.136742,-0.1354 -0.28383,-0.2385 -0.46875,-0.3125 -0.239095,-0.1 -0.494114,-0.1607 -0.75,-0.2187 -0.313703,-0.066 -0.645969,-0.1403 -0.96875,-0.1563 z"
       id="path3233"
       inkscape:connector-curvature="0" />
    <g
       id="g3213"
       transform="translate(75.569495,-4.2499797)">
      <path
         transform="matrix(1.3209256,0.07100033,-0.09368134,1.1983234,-115.69094,1016.9196)"
         d="m 59.411322,11.350944 c 0,5.602043 -4.541354,10.143396 -10.143397,10.143396 -5.602043,0 -10.143396,-4.541353 -10.143396,-10.143396 0,-5.6020436 4.541353,-10.1433968 10.143396,-10.1433968 5.602043,0 10.143397,4.5413532 10.143397,10.1433968 z"
         sodipodi:ry="10.143396"
         sodipodi:rx="10.143396"
         sodipodi:cy="11.350944"
         sodipodi:cx="49.267925"
         id="path4736"
         style="fill:#803f00;fill-opacity:1;fill-rule:nonzero;stroke:none"
         sodipodi:type="arc" />
      <path
         transform="matrix(1.2724056,0.06839236,-0.0915859,1.1715196,-113.42977,1017.4377)"
         d="m 59.411322,11.350944 c 0,5.602043 -4.541354,10.143396 -10.143397,10.143396 -5.602043,0 -10.143396,-4.541353 -10.143396,-10.143396 0,-5.6020436 4.541353,-10.1433968 10.143396,-10.1433968 5.602043,0 10.143397,4.5413532 10.143397,10.1433968 z"
         sodipodi:ry="10.143396"
         sodipodi:rx="10.143396"
         sodipodi:cy="11.350944"
         sodipodi:cx="49.267925"
         id="path3206"
         style="fill:url(#linearGradient3229);fill-opacity:1;fill-rule:nonzero;stroke:none"
         sodipodi:type="arc" />
      <path
         inkscape:connector-curvature="0"
         transform="matrix(1.2314686,0.06619198,-0.09077416,1.1611362,-107.74173,1010.9109)"
         id="path3241"
         d="m 55.854632,12.622265 c 0.27251,0.916668 0.4375,1.901475 0.4375,2.90625 -1e-6,5.599155 -4.557095,10.125 -10.15625,10.125 -4.074384,0 -7.574801,-2.407001 -9.1875,-5.875 1.246063,4.191509 5.124369,7.250001 9.71875,7.25 5.599155,0 10.125,-4.557095 10.125,-10.15625 0,-1.52477 -0.333975,-2.95216 -0.9375,-4.25 z"
         style="fill:#c75b00;fill-opacity:1;fill-rule:nonzero;stroke:none;filter:url(#filter3720)" />
      <path
         sodipodi:type="arc"
         style="fill:#ffc400;fill-opacity:1;fill-rule:nonzero;stroke:none"
         id="path3223"
         sodipodi:cx="49.267925"
         sodipodi:cy="11.350944"
         sodipodi:rx="10.143396"
         sodipodi:ry="10.143396"
         d="m 59.411322,11.350944 c 0,5.602043 -4.541354,10.143396 -10.143397,10.143396 -5.602043,0 -10.143396,-4.541353 -10.143396,-10.143396 0,-5.6020436 4.541353,-10.1433968 10.143396,-10.1433968 5.602043,0 10.143397,4.5413532 10.143397,10.1433968 z"
         transform="matrix(1.2724056,0.06839236,-0.0915859,1.1715196,-113.42977,1017.4377)" />
      <path
         inkscape:connector-curvature="0"
         sodipodi:nodetypes="cscsc"
         id="path3298"
         d="m -62.245924,1036.7738 c 0.502342,3.2031 4.753061,5.8576 10.120596,6.1461 5.344205,0.2872 9.96524,-1.8639 10.989207,-4.9647 -1.541098,1.254 -5.810483,2.0218 -10.738437,1.757 -4.968421,-0.2671 -9.073492,-1.5147 -10.371366,-2.9384 z"
         style="fill:#7a002d;fill-opacity:1;fill-rule:nonzero;stroke:none" />
      <path
         sodipodi:type="arc"
         style="fill:#eeeeec;fill-opacity:1;fill-rule:nonzero;stroke:none"
         id="path3319"
         sodipodi:cx="46.254318"
         sodipodi:cy="12.255174"
         sodipodi:rx="1.2449403"
         sodipodi:ry="2.8410175"
         d="m 47.499259,12.255174 c 0,1.56905 -0.557379,2.841017 -1.244941,2.841017 -0.687561,0 -1.24494,-1.271967 -1.24494,-2.841017 0,-1.569051 0.557379,-2.8410178 1.24494,-2.8410178 0.687562,0 1.244941,1.2719668 1.244941,2.8410178 z"
         transform="matrix(1.5796157,0.41134945,0.46860038,-1.4587926,-124.84779,1031.2504)" />
      <path
         transform="matrix(1.630443,-0.23880738,0.23754503,1.4967482,-135.54271,1024.5016)"
         d="m 47.499259,12.255174 c 0,1.56905 -0.557379,2.841017 -1.244941,2.841017 -0.687561,0 -1.24494,-1.271967 -1.24494,-2.841017 0,-1.569051 0.557379,-2.8410178 1.24494,-2.8410178 0.687562,0 1.244941,1.2719668 1.244941,2.8410178 z"
         sodipodi:ry="2.8410175"
         sodipodi:rx="1.2449403"
         sodipodi:cy="12.255174"
         sodipodi:cx="46.254318"
         id="path3317"
         style="fill:#eeeeec;fill-opacity:1;fill-rule:nonzero;stroke:none"
         sodipodi:type="arc" />
      <path
         sodipodi:type="arc"
         style="fill:#005bec;fill-opacity:1;fill-rule:nonzero;stroke:none"
         id="path3337"
         sodipodi:cx="46.254318"
         sodipodi:cy="12.255174"
         sodipodi:rx="1.2449403"
         sodipodi:ry="2.8410175"
         d="m 47.499259,12.255174 c 0,1.56905 -0.557379,2.841017 -1.244941,2.841017 -0.687561,0 -1.24494,-1.271967 -1.24494,-2.841017 0,-1.569051 0.557379,-2.8410178 1.24494,-2.8410178 0.687562,0 1.244941,1.2719668 1.244941,2.8410178 z"
         transform="matrix(1.1574351,-0.18030048,0.16463363,1.1112869,-112.51281,1027.3969)" />
      <path
         inkscape:connector-curvature="0"
         id="path3347"
         d="m -58.327842,1026.538 c -1.546145,0.1413 -2.324572,2.1801 -1.738342,4.5388 0.195409,0.7863 0.5414,1.4986 0.941903,2.1094 -0.268844,-0.4982 -0.499037,-1.0626 -0.645596,-1.6523 -0.58623,-2.3587 0.192197,-4.3975 1.738343,-4.5388 0.966344,-0.088 2.014536,0.6039 2.800567,1.6946 -0.808028,-1.3565 -2.001687,-2.2517 -3.096875,-2.1517 z"
         style="fill:#4d2600;fill-opacity:1;fill-rule:nonzero;stroke:none" />
      <path
         transform="matrix(-1.1196759,-0.3026962,-0.33628293,1.0843624,9.4996276,1033.9551)"
         d="m 47.499259,12.255174 c 0,1.56905 -0.557379,2.841017 -1.244941,2.841017 -0.687561,0 -1.24494,-1.271967 -1.24494,-2.841017 0,-1.569051 0.557379,-2.8410178 1.24494,-2.8410178 0.687562,0 1.244941,1.2719668 1.244941,2.8410178 z"
         sodipodi:ry="2.8410175"
         sodipodi:rx="1.2449403"
         sodipodi:cy="12.255174"
         sodipodi:cx="46.254318"
         id="path3375"
         style="fill:#0048cc;fill-opacity:1;fill-rule:nonzero;stroke:none"
         sodipodi:type="arc" />
      <path
         inkscape:connector-curvature="0"
         style="fill:#4d2600;fill-opacity:1;fill-rule:nonzero;stroke:none"
         d="m -44.07334,1027.3793 c 1.411053,0.3002 1.82513,2.4031 0.926831,4.6821 -0.299432,0.7596 -0.727226,1.4304 -1.190236,1.9948 0.324083,-0.4664 0.622329,-1.0024 0.846903,-1.5721 0.8983,-2.279 0.484222,-4.3819 -0.926832,-4.6821 -0.88191,-0.1876 -1.957175,0.3905 -2.849602,1.391 0.952834,-1.2619 2.193438,-2.0263 3.192936,-1.8137 z"
         id="path3377" />
      <path
         inkscape:connector-curvature="0"
         d="m -50.621219,1024.2682 c -0.07757,-0.046 -0.138163,-0.1096 -0.196147,-0.1744 -0.08703,-0.097 -0.164526,-0.2009 -0.23979,-0.3058 -0.104502,-0.1504 -0.200497,-0.3057 -0.289724,-0.4643 -0.112373,-0.2024 -0.188383,-0.4189 -0.257856,-0.6366 -0.08018,-0.2645 -0.141839,-0.5334 -0.200077,-0.8028 -0.06128,-0.2867 -0.112029,-0.5751 -0.152523,-0.8651 -0.04177,-0.29 -0.06473,-0.5818 -0.07656,-0.8744 -0.0029,-0.5439 0.01988,-1.0932 0.137439,-1.6289 0.06266,-0.2807 0.169422,-0.5494 0.305618,-0.8072 0.140621,-0.2616 0.327763,-0.4983 0.524164,-0.7267 0.197736,-0.2249 0.416835,-0.4325 0.660417,-0.6152 0.267896,-0.1911 0.575501,-0.3223 0.882612,-0.4485 0.311943,-0.1332 0.632452,-0.2293 0.970982,-0.2762 0.35177,-0.039 0.706415,-0.034 1.058821,-0.018 0.322781,0.016 0.640434,0.069 0.954137,0.1354 0.255886,0.058 0.503027,0.1417 0.742122,0.2416 0.18492,0.074 0.347924,0.1787 0.484666,0.3141 0.107148,0.1153 0.144991,0.2522 0.150359,0.4012 -0.01241,0.4451 0.01704,0.824 -0.206597,1.1985 -0.08241,0.1354 -0.206616,0.2394 -0.335073,0.3371 -0.145385,0.1075 -0.306568,0.1935 -0.473367,0.2688 -0.162478,0.075 -0.336378,0.1139 -0.515393,0.1317 -0.166308,0.013 -0.330885,-0.011 -0.491409,-0.047 -0.149293,-0.037 -0.288576,-0.097 -0.41363,-0.1802 -0.101194,-0.07 -0.171242,-0.1645 -0.225142,-0.2683 -0.190778,-0.3673 0.0078,-1.197 0.162423,-0.8152 l 0,0 c 0.04043,0.1 0.09213,0.1949 0.180134,0.2666 0.10948,0.086 0.238057,0.1437 0.376415,0.1809 0.149814,0.035 0.304333,0.057 0.460037,0.047 0.168782,-0.018 0.331862,-0.057 0.483915,-0.1304 0.16054,-0.075 0.314631,-0.1609 0.451021,-0.2699 0.119417,-0.098 0.230354,-0.2047 0.299615,-0.3397 0.155259,-0.3103 0.176257,-0.9602 0.04894,0.4228 0.01177,-0.1408 0.0013,-0.2757 -0.08642,-0.3958 -0.118132,-0.1407 -0.272257,-0.244 -0.446453,-0.3211 -0.231568,-0.1046 -0.473078,-0.1903 -0.723035,-0.2517 -0.307964,-0.069 -0.619907,-0.1261 -0.937907,-0.1432 -0.3465,-0.017 -0.695464,-0.022 -1.04121,0.02 -0.32987,0.05 -0.643159,0.1492 -0.948192,0.2772 -0.301582,0.1246 -0.600563,0.2598 -0.858747,0.4536 -0.234878,0.1857 -0.450666,0.3904 -0.642083,0.6148 -0.191298,0.228 -0.372506,0.4646 -0.504629,0.7266 -0.127468,0.2585 -0.227622,0.5267 -0.283845,0.8058 -0.05411,0.2796 -0.08937,0.8503 3.65e-4,-0.3602 0.03066,-0.4134 -0.08306,0.8299 -0.0149,0.4266 0.0094,0.2923 0.02713,0.5841 0.06876,0.8738 0.03808,0.2891 0.08593,0.5767 0.147017,0.8622 0.05662,0.2667 0.116604,0.5329 0.194142,0.795 0.06616,0.2125 0.137696,0.4241 0.243974,0.6227 0.08542,0.156 0.17871,0.3081 0.282348,0.4545 0.07083,0.1019 0.149484,0.1991 0.230621,0.2942 0.05367,0.057 0.101596,0.1201 0.170939,0.1624 0.373234,0.2275 0.265481,1.055 -0.111294,0.8324 z"
         id="path3442"
         style="fill:#803f00;fill-opacity:1;fill-rule:nonzero;stroke:none" />
      <path
         inkscape:connector-curvature="0"
         id="path3502"
         d="m -47.940619,1037.4483 c -1.411053,-0.3002 -1.825129,-2.4032 -0.926831,-4.6821 0.299432,-0.7597 0.727226,-1.4304 1.190237,-1.9948 -0.324084,0.4663 -0.622329,1.0023 -0.846904,1.5721 -0.898299,2.2789 -0.484222,4.3819 0.926832,4.682 0.88191,0.1877 1.957175,-0.3904 2.849602,-1.3909 -0.952834,1.2619 -2.193438,2.0263 -3.192936,1.8137 z"
         style="fill:#bf5e00;fill-opacity:1;fill-rule:nonzero;stroke:none" />
      <path
         inkscape:connector-curvature="0"
         style="fill:#bf5e00;fill-opacity:1;fill-rule:nonzero;stroke:none"
         d="m -56.121978,1036.9334 c 1.546145,-0.1412 2.324572,-2.1801 1.738342,-4.5388 -0.195409,-0.7863 -0.5414,-1.4986 -0.941903,-2.1094 0.268844,0.4982 0.499037,1.0626 0.645595,1.6523 0.586231,2.3587 -0.192197,4.3976 -1.738342,4.5388 -0.966344,0.088 -2.014536,-0.6039 -2.800567,-1.6946 0.808028,1.3565 2.001687,2.2517 3.096875,2.1517 z"
         id="path3504" />
    </g>
  </g>
</svg>
