<?xml version="1.0" encoding="UTF-8" standalone="no"?>
<!-- Created with Inkscape (http://www.inkscape.org/) -->

<svg
   xmlns:dc="http://purl.org/dc/elements/1.1/"
   xmlns:cc="http://creativecommons.org/ns#"
   xmlns:rdf="http://www.w3.org/1999/02/22-rdf-syntax-ns#"
   xmlns:svg="http://www.w3.org/2000/svg"
   xmlns="http://www.w3.org/2000/svg"
   xmlns:xlink="http://www.w3.org/1999/xlink"
   xmlns:sodipodi="http://sodipodi.sourceforge.net/DTD/sodipodi-0.dtd"
   xmlns:inkscape="http://www.inkscape.org/namespaces/inkscape"
   width="48"
   height="48"
   id="svg2"
   version="1.1"
   inkscape:version="0.48.4 r9939"
   sodipodi:docname="kuaipan4uk.svg">
  <defs
     id="defs4">
    <linearGradient
       id="linearGradient3801">
      <stop
         style="stop-color:#f6f6f6;stop-opacity:1;"
         offset="0"
         id="stop3803" />
      <stop
         style="stop-color:#ffffff;stop-opacity:1;"
         offset="1"
         id="stop3805" />
    </linearGradient>
    <linearGradient
       id="linearGradient3793">
      <stop
         style="stop-color:#43a047;stop-opacity:1;"
         offset="0"
         id="stop3795" />
      <stop
         style="stop-color:#4db552;stop-opacity:1;"
         offset="1"
         id="stop3797" />
    </linearGradient>
    <linearGradient
       inkscape:collect="always"
       xlink:href="#linearGradient3793"
       id="linearGradient3799"
       x1="24"
       y1="1050.3622"
       x2="24"
       y2="1006.3622"
       gradientUnits="userSpaceOnUse" />
    <linearGradient
       inkscape:collect="always"
       xlink:href="#linearGradient3801"
       id="linearGradient3807"
       x1="24"
       y1="1044.3622"
       x2="24"
       y2="1012.3622"
       gradientUnits="userSpaceOnUse" />
  </defs>
  <sodipodi:namedview
     id="base"
     pagecolor="#ffffff"
     bordercolor="#666666"
     borderopacity="1.0"
     inkscape:pageopacity="0.0"
     inkscape:pageshadow="2"
     inkscape:zoom="11.583333"
     inkscape:cx="21.239584"
     inkscape:cy="20.888348"
     inkscape:document-units="px"
     inkscape:current-layer="layer1"
     showgrid="true"
     inkscape:snap-bbox="true"
     inkscape:window-width="1301"
     inkscape:window-height="744"
     inkscape:window-x="65"
     inkscape:window-y="24"
     inkscape:window-maximized="1"
     inkscape:snap-global="true">
    <inkscape:grid
       type="xygrid"
       id="grid2985"
       empspacing="6"
       visible="true"
       enabled="true"
       snapvisiblegridlinesonly="true" />
  </sodipodi:namedview>
  <metadata
     id="metadata7">
    <rdf:RDF>
      <cc:Work
         rdf:about="">
        <dc:format>image/svg+xml</dc:format>
        <dc:type
           rdf:resource="http://purl.org/dc/dcmitype/StillImage" />
        <dc:title />
      </cc:Work>
    </rdf:RDF>
  </metadata>
  <g
     inkscape:label="Layer 1"
     inkscape:groupmode="layer"
     id="layer1"
     transform="translate(0,-1004.3622)">
    <path
       id="path3788"
       d="m 24,1051.1116 c -21.2715315,0 -23.66257505,-0.089 -23.9375,-15.4063 0.328125,14.4033 2.9375,14.4063 23.9375,14.4063 21,0 23.609375,0 23.9375,-14.4063 -0.274925,15.3174 -2.665968,15.4063 -23.9375,15.4063 z"
       style="opacity:0.20000000000000001;fill:#ffffff;fill-opacity:1;stroke:none"
       inkscape:connector-curvature="0" />
    <path
       style="fill:url(#linearGradient3799);fill-opacity:1;stroke:none"
       d="m 24,1006.3622 c -24,0 -24,0 -24,22 0,22 0,22 24,22 24,0 24,0 24,-22 0,-22 0,-22 -24,-22 z"
       id="path3757"
       inkscape:connector-curvature="0"
       sodipodi:nodetypes="zzzzz" />
    <path
       style="fill:#000000;fill-opacity:1;stroke:none;opacity:0.20000000000000001"
       d="M 24 2 C 2.7284685 2 0.33742495 2.0888436 0.0625 17.40625 C 0.390625 3.0029297 3 3 24 3 C 45 3 47.609375 3.0029297 47.9375 17.40625 C 47.662575 2.0888436 45.271532 2 24 2 z "
       transform="translate(0,1004.3622)"
       id="path3770" />
    <path
       style="fill:#000000;fill-opacity:1;stroke:none;opacity:0.20000000000000001"
       d="M 24 2 C 7.2405624 2 2.2369698 2.0788791 0.71875 9.59375 C 2.3300781 2.5289866 7.5 2.53125 24 2.53125 C 40.5 2.53125 45.669922 2.5289866 47.28125 9.59375 C 45.76303 2.0788791 40.759438 2 24 2 z M 47.28125 9.59375 C 47.354492 9.9148756 47.409424 10.242768 47.46875 10.59375 C 47.41561 10.240351 47.346891 9.9186608 47.28125 9.59375 z M 0.71875 9.59375 C 0.65310868 9.9186608 0.58439008 10.240351 0.53125 10.59375 C 0.59057617 10.242768 0.64550781 9.9148756 0.71875 9.59375 z "
       transform="translate(0,1004.3622)"
       id="path3012" />
    <g
       id="g3032"
       transform="translate(48,1007.3622)" />
    <path
       inkscape:connector-curvature="0"
       id="path3790"
       d="m 9.2996963,1027.8041 c -0.7834743,0.7835 -0.7834743,2.0449 0,2.8284 l 9.8994947,9.8995 7.071068,-7.0711 -11.313709,-11.3137 -5.6568537,5.6569 z m 8.4852807,-8.4853 4.242641,4.2426 7.071068,-7.071 -2.828427,-2.8284 c -0.783475,-0.7835 -2.044953,-0.7835 -2.828428,0 l -5.656854,5.6568 z m 5.656854,5.6569 11.313709,11.3137 5.656854,-5.6569 c 0.783474,-0.7835 0.783474,-2.0449 0,-2.8284 l -9.899495,-9.8995 -7.071068,7.0711 z m -2.828427,16.9705 2.828427,2.8284 c 0.783475,0.7835 2.044953,0.7835 2.828428,0 l 5.656854,-5.6568 -4.242641,-4.2426 -7.071068,7.071 z"
       style="fill:#000000;fill-opacity:1;stroke:none;opacity:0.2" />
    <path
       style="fill:url(#linearGradient3807);fill-opacity:1;stroke:none"
       d="m 8.4436508,1026.948 c -0.7834743,0.7835 -0.7834743,2.0449 0,2.8284 l 9.8994952,9.8995 7.071068,-7.0711 -11.313709,-11.3137 -5.6568542,5.6569 z m 8.4852812,-8.4853 4.242641,4.2426 7.071068,-7.071 -2.828427,-2.8284 c -0.783475,-0.7835 -2.044953,-0.7835 -2.828428,0 l -5.656854,5.6568 z m 5.656854,5.6569 11.313709,11.3137 5.656854,-5.6569 c 0.783474,-0.7835 0.783474,-2.0449 0,-2.8284 l -9.899495,-9.8995 -7.071068,7.0711 z m -2.828427,16.9705 2.828427,2.8284 c 0.783475,0.7835 2.044953,0.7835 2.828428,0 l 5.656854,-5.6568 -4.242641,-4.2426 -7.071068,7.071 z"
       id="rect3012"
       inkscape:connector-curvature="0" />
  </g>
</svg>
