<?xml version="1.0" encoding="UTF-8" standalone="no"?>
<!-- Created with Inkscape (http://www.inkscape.org/) -->

<svg
   xmlns:dc="http://purl.org/dc/elements/1.1/"
   xmlns:cc="http://creativecommons.org/ns#"
   xmlns:rdf="http://www.w3.org/1999/02/22-rdf-syntax-ns#"
   xmlns:svg="http://www.w3.org/2000/svg"
   xmlns="http://www.w3.org/2000/svg"
   xmlns:xlink="http://www.w3.org/1999/xlink"
   xmlns:sodipodi="http://sodipodi.sourceforge.net/DTD/sodipodi-0.dtd"
   xmlns:inkscape="http://www.inkscape.org/namespaces/inkscape"
   width="48"
   height="48"
   id="svg2"
   version="1.1"
   inkscape:version="0.48.4 r9939"
   sodipodi:docname="lernid.svg">
  <sodipodi:namedview
     id="base"
     pagecolor="#ffffff"
     bordercolor="#666666"
     borderopacity="1.0"
     inkscape:pageopacity="0.0"
     inkscape:pageshadow="2"
     inkscape:zoom="11.583333"
     inkscape:cx="9.5774039"
     inkscape:cy="24.028835"
     inkscape:document-units="px"
     inkscape:current-layer="layer1"
     showgrid="true"
     inkscape:snap-bbox="true"
     inkscape:window-width="1301"
     inkscape:window-height="744"
     inkscape:window-x="65"
     inkscape:window-y="24"
     inkscape:window-maximized="1"
     inkscape:snap-global="true">
    <inkscape:grid
       snapvisiblegridlinesonly="true"
       enabled="true"
       visible="true"
       empspacing="6"
       id="grid2985"
       type="xygrid" />
  </sodipodi:namedview>
  <defs
     id="defs4">
    <linearGradient
       id="linearGradient3767">
      <stop
         style="stop-color:#ef6c00;stop-opacity:1;"
         offset="0"
         id="stop3769" />
      <stop
         style="stop-color:#ff8119;stop-opacity:1;"
         offset="1"
         id="stop3771" />
    </linearGradient>
    <linearGradient
       inkscape:collect="always"
       xlink:href="#linearGradient3767"
       id="linearGradient3773"
       x1="24"
       y1="1050.3622"
       x2="24"
       y2="1006.3622"
       gradientUnits="userSpaceOnUse" />
  </defs>
  <metadata
     id="metadata7">
    <rdf:RDF>
      <cc:Work
         rdf:about="">
        <dc:format>image/svg+xml</dc:format>
        <dc:type
           rdf:resource="http://purl.org/dc/dcmitype/StillImage" />
        <dc:title />
      </cc:Work>
    </rdf:RDF>
  </metadata>
  <g
     transform="translate(0,-1004.3622)"
     id="layer1"
     inkscape:groupmode="layer"
     inkscape:label="Layer 1">
    <path
       inkscape:connector-curvature="0"
       style="opacity:0.20000000000000001;fill:#ffffff;fill-opacity:1;stroke:none"
       d="m 24,1051.1116 c -21.2715315,0 -23.66257505,-0.089 -23.9375,-15.4063 0.328125,14.4033 2.9375,14.4063 23.9375,14.4063 21,0 23.609375,0 23.9375,-14.4063 -0.274925,15.3174 -2.665968,15.4063 -23.9375,15.4063 z"
       id="path3788" />
    <path
       sodipodi:nodetypes="zzzzz"
       inkscape:connector-curvature="0"
       id="path3757"
       d="m 24,1006.3622 c -24,0 -24,0 -24,22 0,22 0,22 24,22 24,0 24,0 24,-22 0,-22 0,-22 -24,-22 z"
       style="fill:url(#linearGradient3773);fill-opacity:1;stroke:none" />
    <path
       id="path3770"
       transform="translate(0,1004.3622)"
       d="M 24 2 C 2.7284685 2 0.33742495 2.0888436 0.0625 17.40625 C 0.390625 3.0029297 3 3 24 3 C 45 3 47.609375 3.0029297 47.9375 17.40625 C 47.662575 2.0888436 45.271532 2 24 2 z "
       style="fill:#000000;fill-opacity:1;stroke:none;opacity:0.20000000000000001" />
    <path
       id="path3012"
       transform="translate(0,1004.3622)"
       d="M 24 2 C 7.2405624 2 2.2369698 2.0788791 0.71875 9.59375 C 2.3300781 2.5289866 7.5 2.53125 24 2.53125 C 40.5 2.53125 45.669922 2.5289866 47.28125 9.59375 C 45.76303 2.0788791 40.759438 2 24 2 z M 47.28125 9.59375 C 47.354492 9.9148756 47.409424 10.242768 47.46875 10.59375 C 47.41561 10.240351 47.346891 9.9186608 47.28125 9.59375 z M 0.71875 9.59375 C 0.65310868 9.9186608 0.58439008 10.240351 0.53125 10.59375 C 0.59057617 10.242768 0.64550781 9.9148756 0.71875 9.59375 z "
       style="fill:#000000;fill-opacity:1;stroke:none;opacity:0.20000000000000001" />
    <g
       transform="translate(48,1007.3622)"
       id="g3032" />
    <path
       inkscape:connector-curvature="0"
       id="path3775"
       d="m 23.84375,1021.3622 c -0.421448,0 -0.771471,0.1363 -1.09375,0.4375 -0.322284,0.3012 -0.544693,0.7212 -0.65625,1.2188 l -2.5625,11.7812 c -0.04958,0.1833 -0.09375,0.3792 -0.09375,0.5625 1e-6,0.4714 0.127092,0.8471 0.375,1.1875 0.247909,0.3405 0.597409,0.5827 1.03125,0.6875 0.16114,0.039 0.320004,0.062 0.46875,0.062 0.433839,0 0.783862,-0.1676 1.09375,-0.4687 0.495815,0.7201 1.201274,1.2148 2.09375,1.4375 0.347068,0.079 0.684173,0.094 1.03125,0.094 1.189957,0 2.276688,-0.4453 3.21875,-1.375 0.880068,-0.8773 1.464895,-1.9668 1.75,-3.25 0.123944,-0.5761 0.18749,-1.1608 0.1875,-1.75 -10e-6,-1.2832 -0.29836,-2.3959 -0.84375,-3.3125 -0.632177,-1.0475 -1.528795,-1.6988 -2.71875,-2 -0.731338,-0.1702 -1.43086,-0.1652 -2.125,0.031 l 0.59375,-2.8438 c 0.04958,-0.1833 0.09374,-0.3792 0.09375,-0.5625 -5e-6,-0.4583 -0.127096,-0.847 -0.375,-1.1875 -0.247914,-0.3535 -0.597414,-0.5827 -1.03125,-0.6875 -0.136354,-0.039 -0.288758,-0.062 -0.4375,-0.062 z m -8.875,4.4688 c -0.173544,0 -0.33293,0.023 -0.53125,0.062 -0.594988,0.1571 -1.026888,0.5176 -1.25,1.0937 -0.495824,-0.275 -1.042419,-0.4062 -1.625,-0.4062 -0.297495,0 -0.596368,0.046 -0.90625,0.125 -1.1031975,0.2749 -1.9868972,0.9292 -2.65625,1.9375 -0.6693545,0.9951 -0.9999999,2.1462 -1,3.4687 1e-7,0.5238 0.044691,1.0387 0.15625,1.5625 0.3222814,1.4273 0.9388811,2.5914 1.84375,3.4688 0.9172605,0.8642 1.959824,1.2812 3.125,1.2812 0.359463,0 0.734276,-0.033 1.09375,-0.125 0.88007,-0.2095 1.591988,-0.6962 2.125,-1.4687 0.309878,0.3404 0.672296,0.5 1.09375,0.5 0.161131,0 0.3076,-0.023 0.46875,-0.062 0.892462,-0.2096 1.343739,-0.7659 1.34375,-1.6563 -1.1e-5,-0.275 -0.03824,-0.6122 -0.125,-1.0312 l -1.5,-6.8125 c -0.285105,-1.2833 -0.838159,-1.9375 -1.65625,-1.9375 z m 22.21875,0.5937 c -1.512248,0.092 -2.764302,0.7924 -3.71875,2.0625 -0.917264,1.2178 -1.324373,2.6213 -1.25,4.2188 0.08677,1.6236 0.639823,2.9756 1.65625,4.0625 1.053611,1.1261 2.356815,1.6229 3.90625,1.5312 0.756116,-0.039 1.506266,-0.2554 2.25,-0.6875 0.942046,-0.5238 1.380927,-1.178 1.34375,-1.9375 -0.0248,-0.4714 -0.196582,-0.8732 -0.53125,-1.1875 -0.334685,-0.3274 -0.722417,-0.4637 -1.15625,-0.4375 -0.223125,0.013 -0.534916,0.1212 -0.96875,0.3438 -0.421451,0.2095 -0.764492,0.3306 -1,0.3437 -0.520614,0.039 -0.953036,-0.1485 -1.3125,-0.5937 -0.347076,-0.4453 -0.556567,-1.0147 -0.59375,-1.6563 -0.03719,-0.694 0.108756,-1.2786 0.40625,-1.75 0.297487,-0.4714 0.72345,-0.6926 1.28125,-0.7187 0.247904,-0.013 0.603863,0.03 1.0625,0.1875 0.47102,0.1571 0.814584,0.2318 1.0625,0.2187 0.458624,-0.026 0.821042,-0.2604 1.09375,-0.7187 0.223109,-0.3798 0.337282,-0.7685 0.3125,-1.1875 -0.03719,-0.7202 -0.545559,-1.2947 -1.5,-1.6875 -0.768524,-0.3143 -1.538051,-0.4456 -2.34375,-0.4063 z m -11.59375,3.5938 c 0.111554,0 0.21979,0.01 0.34375,0.031 0.768512,0.1964 1.156243,0.8376 1.15625,1.9375 -7e-6,0.6416 -0.177725,1.2313 -0.5,1.7813 -0.371869,0.6285 -0.81721,0.9375 -1.375,0.9375 -0.471031,0 -0.852304,-0.206 -1.125,-0.625 -0.223122,-0.3536 -0.343753,-0.7757 -0.34375,-1.3125 -3e-6,-0.275 0.03177,-0.5557 0.09375,-0.8438 0.123951,-0.5761 0.34636,-1.0345 0.65625,-1.375 0.309882,-0.3535 0.684695,-0.5312 1.09375,-0.5312 z m -13.5,0.031 c 0.409044,0 0.771463,0.214 1.09375,0.5938 0.322275,0.3666 0.563539,0.8301 0.6875,1.4062 0.06197,0.275 0.09374,0.5325 0.09375,0.7813 -7e-6,0.5368 -0.127098,0.9902 -0.375,1.3437 -0.260311,0.4059 -0.641583,0.5938 -1.125,0.5938 -0.42145,0 -0.802723,-0.1647 -1.125,-0.5313 -0.322286,-0.3666 -0.532299,-0.8432 -0.65625,-1.4062 -0.04959,-0.275 -0.0625,-0.5507 -0.0625,-0.8125 -3e-6,-0.5369 0.09584,-0.9953 0.34375,-1.375 0.2603,-0.3929 0.641573,-0.5938 1.125,-0.5938 z"
       style="font-size:19.11009978999999959px;font-style:normal;font-weight:normal;text-align:center;line-height:100%;letter-spacing:1.48000014000000002px;word-spacing:0px;text-anchor:middle;fill:#000000;fill-opacity:1;stroke:none;font-family:Sans;opacity:0.2" />
    <path
       style="font-size:19.11009978999999959px;font-style:normal;font-weight:normal;text-align:center;line-height:100%;letter-spacing:1.48000014000000002px;word-spacing:0px;text-anchor:middle;fill:#ffffff;fill-opacity:1;stroke:none;font-family:Sans"
       d="m 22.84375,1020.3622 c -0.421448,0 -0.771471,0.1363 -1.09375,0.4375 -0.322284,0.3012 -0.544693,0.7212 -0.65625,1.2188 l -2.5625,11.7812 c -0.04958,0.1833 -0.09375,0.3792 -0.09375,0.5625 1e-6,0.4714 0.127092,0.8471 0.375,1.1875 0.247909,0.3405 0.597409,0.5827 1.03125,0.6875 0.16114,0.039 0.320004,0.062 0.46875,0.062 0.433839,0 0.783862,-0.1676 1.09375,-0.4687 0.495815,0.7201 1.201274,1.2148 2.09375,1.4375 0.347068,0.079 0.684173,0.094 1.03125,0.094 1.189957,0 2.276688,-0.4453 3.21875,-1.375 0.880068,-0.8773 1.464895,-1.9668 1.75,-3.25 0.123944,-0.5761 0.18749,-1.1608 0.1875,-1.75 -10e-6,-1.2832 -0.29836,-2.3959 -0.84375,-3.3125 -0.632177,-1.0475 -1.528795,-1.6988 -2.71875,-2 -0.731338,-0.1702 -1.43086,-0.1652 -2.125,0.031 l 0.59375,-2.8438 c 0.04958,-0.1833 0.09374,-0.3792 0.09375,-0.5625 -5e-6,-0.4583 -0.127096,-0.847 -0.375,-1.1875 -0.247914,-0.3535 -0.597414,-0.5827 -1.03125,-0.6875 -0.136354,-0.039 -0.288758,-0.062 -0.4375,-0.062 z m -8.875,4.4688 c -0.173544,0 -0.33293,0.023 -0.53125,0.062 -0.594988,0.1571 -1.026888,0.5176 -1.25,1.0937 -0.495824,-0.275 -1.042419,-0.4062 -1.625,-0.4062 -0.297495,0 -0.5963676,0.046 -0.90625,0.125 -1.1031975,0.2749 -1.9868972,0.9292 -2.65625,1.9375 -0.6693545,0.9951 -0.9999999,2.1462 -1,3.4687 1e-7,0.5238 0.044691,1.0387 0.15625,1.5625 0.3222814,1.4273 0.9388811,2.5914 1.84375,3.4688 0.9172605,0.8642 1.9598238,1.2812 3.125,1.2812 0.359463,0 0.734276,-0.033 1.09375,-0.125 0.88007,-0.2095 1.591988,-0.6962 2.125,-1.4687 0.309878,0.3404 0.672296,0.5 1.09375,0.5 0.161131,0 0.3076,-0.023 0.46875,-0.062 0.892462,-0.2096 1.343739,-0.7659 1.34375,-1.6563 -1.1e-5,-0.275 -0.03824,-0.6122 -0.125,-1.0312 l -1.5,-6.8125 c -0.285105,-1.2833 -0.838159,-1.9375 -1.65625,-1.9375 z m 22.21875,0.5937 c -1.512248,0.092 -2.764302,0.7924 -3.71875,2.0625 -0.917264,1.2178 -1.324373,2.6213 -1.25,4.2188 0.08677,1.6236 0.639823,2.9756 1.65625,4.0625 1.053611,1.1261 2.356815,1.6229 3.90625,1.5312 0.756116,-0.039 1.506266,-0.2554 2.25,-0.6875 0.942046,-0.5238 1.380927,-1.178 1.34375,-1.9375 -0.0248,-0.4714 -0.196582,-0.8732 -0.53125,-1.1875 -0.334685,-0.3274 -0.722417,-0.4637 -1.15625,-0.4375 -0.223125,0.013 -0.534916,0.1212 -0.96875,0.3438 -0.421451,0.2095 -0.764492,0.3306 -1,0.3437 -0.520614,0.039 -0.953036,-0.1485 -1.3125,-0.5937 -0.347076,-0.4453 -0.556567,-1.0147 -0.59375,-1.6563 -0.03719,-0.694 0.108756,-1.2786 0.40625,-1.75 0.297487,-0.4714 0.72345,-0.6926 1.28125,-0.7187 0.247904,-0.013 0.603863,0.03 1.0625,0.1875 0.47102,0.1571 0.814584,0.2318 1.0625,0.2187 0.458624,-0.026 0.821042,-0.2604 1.09375,-0.7187 0.223109,-0.3798 0.337282,-0.7685 0.3125,-1.1875 -0.03719,-0.7202 -0.545559,-1.2947 -1.5,-1.6875 -0.768524,-0.3143 -1.538051,-0.4456 -2.34375,-0.4063 z m -11.59375,3.5938 c 0.111554,0 0.21979,0.01 0.34375,0.031 0.768512,0.1964 1.156243,0.8376 1.15625,1.9375 -7e-6,0.6416 -0.177725,1.2313 -0.5,1.7813 -0.371869,0.6285 -0.81721,0.9375 -1.375,0.9375 -0.471031,0 -0.852304,-0.206 -1.125,-0.625 -0.223122,-0.3536 -0.343753,-0.7757 -0.34375,-1.3125 -3e-6,-0.275 0.03177,-0.5557 0.09375,-0.8438 0.123951,-0.5761 0.34636,-1.0345 0.65625,-1.375 0.309882,-0.3535 0.684695,-0.5312 1.09375,-0.5312 z m -13.5,0.031 c 0.409044,0 0.771463,0.214 1.09375,0.5938 0.322275,0.3666 0.563539,0.8301 0.6875,1.4062 0.06197,0.275 0.09374,0.5325 0.09375,0.7813 -7e-6,0.5368 -0.127098,0.9902 -0.375,1.3437 -0.260311,0.4059 -0.641583,0.5938 -1.125,0.5938 -0.42145,0 -0.802723,-0.1647 -1.125,-0.5313 -0.322286,-0.3666 -0.5322992,-0.8432 -0.65625,-1.4062 -0.049585,-0.275 -0.062504,-0.5507 -0.0625,-0.8125 -3.5e-6,-0.5369 0.095837,-0.9953 0.34375,-1.375 0.2603,-0.3929 0.641573,-0.5938 1.125,-0.5938 z"
       id="text3002"
       inkscape:connector-curvature="0" />
  </g>
</svg>
