<?xml version="1.0" encoding="UTF-8" standalone="no"?>
<!-- Created with Inkscape (http://www.inkscape.org/) -->

<svg
   xmlns:dc="http://purl.org/dc/elements/1.1/"
   xmlns:cc="http://creativecommons.org/ns#"
   xmlns:rdf="http://www.w3.org/1999/02/22-rdf-syntax-ns#"
   xmlns:svg="http://www.w3.org/2000/svg"
   xmlns="http://www.w3.org/2000/svg"
   xmlns:xlink="http://www.w3.org/1999/xlink"
   xmlns:sodipodi="http://sodipodi.sourceforge.net/DTD/sodipodi-0.dtd"
   xmlns:inkscape="http://www.inkscape.org/namespaces/inkscape"
   width="48"
   height="48"
   id="svg2"
   version="1.1"
   inkscape:version="0.48.4 r9939"
   sodipodi:docname="lightworks.svg">
  <defs
     id="defs4">
    <linearGradient
       id="linearGradient3786">
      <stop
         style="stop-color:#544c6d;stop-opacity:1;"
         offset="0"
         id="stop3788" />
      <stop
         style="stop-color:#3b374f;stop-opacity:1;"
         offset="1"
         id="stop3790" />
    </linearGradient>
    <linearGradient
       inkscape:collect="always"
       xlink:href="#linearGradient3786"
       id="linearGradient3792"
       x1="24"
       y1="2"
       x2="24"
       y2="46"
       gradientUnits="userSpaceOnUse" />
    <linearGradient
       gradientTransform="matrix(1,0,0,1,23.006475,-139.51006)"
       y2="176.51"
       x2="0"
       y1="150.51"
       gradientUnits="userSpaceOnUse"
       id="linear0">
      <stop
         id="stop3023"
         stop-opacity="1"
         stop-color="#dbe5ea" />
      <stop
         id="stop3025"
         stop-opacity="1"
         stop-color="#787f86"
         offset="1" />
    </linearGradient>
    <clipPath
       id="clipPath-444980892">
      <g
         id="g3018"
         transform="translate(0,-1004.3622)">
        <path
           id="path3020"
           fill="#1890d0"
           transform="matrix(15.333333,0,0,11.5,414.99999,878.8622)"
           d="m -24 13 c 0 1.105 -0.672 2 -1.5 2 -0.828 0 -1.5 -0.895 -1.5 -2 0 -1.105 0.672 -2 1.5 -2 0.828 0 1.5 0.895 1.5 2 z" />
      </g>
    </clipPath>
    <clipPath
       id="clipPath-437379099">
      <g
         id="g3013"
         transform="translate(0,-1004.3622)">
        <path
           id="path3015"
           fill="#1890d0"
           transform="matrix(15.333333,0,0,11.5,414.99999,878.8622)"
           d="m -24 13 c 0 1.105 -0.672 2 -1.5 2 -0.828 0 -1.5 -0.895 -1.5 -2 0 -1.105 0.672 -2 1.5 -2 0.828 0 1.5 0.895 1.5 2 z" />
      </g>
    </clipPath>
    <linearGradient
       gradientTransform="matrix(0,-1,1,0,-1.5e-6,47.999998)"
       gradientUnits="userSpaceOnUse"
       x2="47"
       x1="1"
       id="linearGradient3764">
      <stop
         id="stop3008"
         stop-opacity="1"
         stop-color="#182e3e" />
      <stop
         id="stop3010"
         stop-opacity="1"
         stop-color="#1d384d"
         offset="1" />
    </linearGradient>
    <linearGradient
       inkscape:collect="always"
       xlink:href="#linear0"
       id="linearGradient3153"
       gradientUnits="userSpaceOnUse"
       gradientTransform="translate(23.006475,-139.51006)"
       y1="150.51"
       x2="0"
       y2="176.51" />
    <linearGradient
       inkscape:collect="always"
       xlink:href="#linear0"
       id="linearGradient3155"
       gradientUnits="userSpaceOnUse"
       gradientTransform="translate(23.006475,-139.51006)"
       y1="150.51"
       x2="0"
       y2="176.51" />
    <linearGradient
       inkscape:collect="always"
       xlink:href="#linear0"
       id="linearGradient3157"
       gradientUnits="userSpaceOnUse"
       gradientTransform="translate(23.006475,-139.51006)"
       y1="150.51"
       x2="0"
       y2="176.51" />
    <linearGradient
       inkscape:collect="always"
       xlink:href="#linear0"
       id="linearGradient3159"
       gradientUnits="userSpaceOnUse"
       gradientTransform="translate(23.006475,-139.51006)"
       y1="150.51"
       x2="0"
       y2="176.51" />
    <linearGradient
       inkscape:collect="always"
       xlink:href="#linear0"
       id="linearGradient3161"
       gradientUnits="userSpaceOnUse"
       gradientTransform="translate(23.006475,-139.51006)"
       y1="150.51"
       x2="0"
       y2="176.51" />
    <linearGradient
       inkscape:collect="always"
       xlink:href="#linear0"
       id="linearGradient3163"
       gradientUnits="userSpaceOnUse"
       gradientTransform="translate(23.006475,-139.51006)"
       y1="150.51"
       x2="0"
       y2="176.51" />
    <linearGradient
       inkscape:collect="always"
       xlink:href="#linear0"
       id="linearGradient3165"
       gradientUnits="userSpaceOnUse"
       gradientTransform="translate(23.006475,-139.51006)"
       y1="150.51"
       x2="0"
       y2="176.51" />
    <linearGradient
       inkscape:collect="always"
       xlink:href="#linear0"
       id="linearGradient3167"
       gradientUnits="userSpaceOnUse"
       gradientTransform="translate(23.006475,-139.51006)"
       y1="150.51"
       x2="0"
       y2="176.51" />
  </defs>
  <sodipodi:namedview
     id="base"
     pagecolor="#ffffff"
     bordercolor="#666666"
     borderopacity="1.0"
     inkscape:pageopacity="0.0"
     inkscape:pageshadow="2"
     inkscape:zoom="8.1906535"
     inkscape:cx="8.797997"
     inkscape:cy="22.335899"
     inkscape:document-units="px"
     inkscape:current-layer="layer1"
     showgrid="true"
     inkscape:snap-bbox="true"
     inkscape:window-width="1301"
     inkscape:window-height="744"
     inkscape:window-x="65"
     inkscape:window-y="24"
     inkscape:window-maximized="1"
     inkscape:snap-global="true"
     inkscape:object-nodes="true"
     inkscape:snap-nodes="false">
    <inkscape:grid
       type="xygrid"
       id="grid2985"
       empspacing="6"
       visible="true"
       enabled="true"
       snapvisiblegridlinesonly="true" />
  </sodipodi:namedview>
  <metadata
     id="metadata7">
    <rdf:RDF>
      <cc:Work
         rdf:about="">
        <dc:format>image/svg+xml</dc:format>
        <dc:type
           rdf:resource="http://purl.org/dc/dcmitype/StillImage" />
        <dc:title />
      </cc:Work>
    </rdf:RDF>
  </metadata>
  <g
     inkscape:label="Layer 1"
     inkscape:groupmode="layer"
     id="layer1"
     transform="translate(0,-1004.3622)">
    <path
       style="fill:url(#linearGradient3792);fill-opacity:1;stroke:none"
       d="M 24 2 C 5.6607939 2 1.3640144 2.1840904 0.34375 12 C 0.028823257 15.029893 0 18.810939 0 24 C 0 46 0 46 24 46 C 48 46 48 46 48 24 C 48 18.810939 47.971177 15.029893 47.65625 12 C 46.635986 2.1840904 42.339206 2 24 2 z "
       transform="translate(0,1004.3622)"
       id="path3773" />
    <path
       style="fill:#000000;fill-opacity:1;stroke:none;opacity:0.20000000000000001"
       d="M 24 2 C 2.7284685 2 0.33742495 2.0888436 0.0625 17.40625 C 0.390625 3.0029297 3 3 24 3 C 45 3 47.609375 3.0029297 47.9375 17.40625 C 47.662575 2.0888436 45.271532 2 24 2 z "
       transform="translate(0,1004.3622)"
       id="path3770" />
    <path
       style="fill:#000000;fill-opacity:1;stroke:none;opacity:0.20000000000000001"
       d="M 24 2 C 7.2405624 2 2.2369698 2.0788791 0.71875 9.59375 C 2.3300781 2.5289866 7.5 2.53125 24 2.53125 C 40.5 2.53125 45.669922 2.5289866 47.28125 9.59375 C 45.76303 2.0788791 40.759438 2 24 2 z M 47.28125 9.59375 C 47.354492 9.9148756 47.409424 10.242768 47.46875 10.59375 C 47.41561 10.240351 47.346891 9.9186608 47.28125 9.59375 z M 0.71875 9.59375 C 0.65310868 9.9186608 0.58439008 10.240351 0.53125 10.59375 C 0.59057617 10.242768 0.64550781 9.9148756 0.71875 9.59375 z "
       transform="translate(0,1004.3622)"
       id="path3012" />
    <g
       id="g3032"
       transform="translate(48,1007.3622)" />
    <g
       id="g3042"
       transform="translate(-49.875,1002.6422)" />
    <g
       id="g3038"
       transform="translate(-53.998,1003.3622)" />
    <g
       id="g3045"
       transform="translate(-48.996,1004.3622)" />
    <g
       id="g3047"
       transform="translate(0,1004.3632)">
      <g
         clip-path="url(#clipPath-437379099)"
         id="g3049">
        <g
           transform="translate(1,1)"
           id="g3051">
          <g
             style="opacity:0.1"
             id="g3053">
            <!-- color: #1d384d -->
            <g
               id="g3055">
              <path
                 style="fill:#000000;fill-rule:nonzero;stroke:none"
                 inkscape:connector-curvature="0"
                 d="M 17.258,11 C 13.801,11 11,13.801 11,17.258 c 0,3.305 2.566,5.996 5.809,6.23 0.258,-3.563 3.117,-6.422 6.68,-6.68 -0.234,-3.242 -2.926,-5.809 -6.227,-5.809 m -0.004,0"
                 id="path3057" />
              <path
                 style="fill:#000000;fill-rule:nonzero;stroke:none"
                 inkscape:connector-curvature="0"
                 d="m 30.742,11 c -3.305,0 -5.996,2.566 -6.23,5.809 3.563,0.258 6.422,3.117 6.68,6.68 3.242,-0.234 5.809,-2.926 5.809,-6.227 C 37.001,13.805 34.2,11 30.743,11 m 0,0"
                 id="path3059" />
              <path
                 style="fill:#000000;fill-rule:nonzero;stroke:none"
                 inkscape:connector-curvature="0"
                 d="m 17.996,25 c 0.25,3.043 1.957,4.75 5,5 l 0,-5 m -5,0"
                 id="path3061" />
              <path
                 style="fill:#000000;fill-rule:nonzero;stroke:none"
                 inkscape:connector-curvature="0"
                 d="M 16.629,24.512 C 13.473,24.832 11,27.496 11,30.739 c 0,3.457 2.801,6.258 6.258,6.258 3.305,0 5.996,-2.563 6.23,-5.805 -3.563,-0.258 -6.422,-3.121 -6.68,-6.684 -0.063,0.008 -0.121,-0.004 -0.184,0 m 0.004,0.004"
                 id="path3063" />
              <path
                 style="fill:#000000;fill-rule:nonzero;stroke:none"
                 inkscape:connector-curvature="0"
                 d="m 31.19,24.512 c -0.258,3.559 -3.117,6.422 -6.68,6.68 0.227,3.242 2.926,5.809 6.227,5.809 3.457,0 6.258,-2.805 6.258,-6.262 0,-3.301 -2.563,-5.992 -5.809,-6.227 m 0,0"
                 id="path3065" />
              <path
                 style="fill:#000000;fill-rule:nonzero;stroke:none"
                 inkscape:connector-curvature="0"
                 d="m 30,25 c -0.25,3.043 -1.957,4.75 -5,5 l 0,-5 m 5,0"
                 id="path3067" />
              <path
                 style="fill:#000000;fill-rule:nonzero;stroke:none"
                 inkscape:connector-curvature="0"
                 d="m 30,23 c -0.25,-3.043 -1.957,-4.75 -5,-5 l 0,5 m 5,0"
                 id="path3069" />
              <path
                 style="fill:#000000;fill-rule:nonzero;stroke:none"
                 inkscape:connector-curvature="0"
                 d="m 17.996,23 c 0.25,-3.043 1.957,-4.75 5,-5 l 0,5 m -5,0"
                 id="path3071" />
            </g>
          </g>
        </g>
      </g>
    </g>
    <g
       id="g3073"
       transform="translate(0,1004.3632)">
      <g
         clip-path="url(#clipPath-444980892)"
         id="g3075">
        <!-- color: #1d384d -->
        <g
           id="g3077">
          <path
             style="fill:url(#linearGradient3153);fill-rule:nonzero;stroke:none"
             inkscape:connector-curvature="0"
             d="M 17.258,11 C 13.801,11 11,13.801 11,17.258 c 0,3.305 2.566,5.996 5.809,6.23 0.258,-3.563 3.117,-6.422 6.68,-6.68 -0.234,-3.242 -2.926,-5.809 -6.227,-5.809 m -0.004,0"
             id="path3079" />
          <path
             style="fill:url(#linearGradient3155);fill-rule:nonzero;stroke:none"
             inkscape:connector-curvature="0"
             d="m 30.742,11 c -3.305,0 -5.996,2.566 -6.23,5.809 3.563,0.258 6.422,3.117 6.68,6.68 3.242,-0.234 5.809,-2.926 5.809,-6.227 C 37.001,13.805 34.2,11 30.743,11 m 0,0"
             id="path3081" />
          <path
             style="fill:url(#linearGradient3157);fill-rule:nonzero;stroke:none"
             inkscape:connector-curvature="0"
             d="m 17.996,25 c 0.25,3.043 1.957,4.75 5,5 l 0,-5 m -5,0"
             id="path3083" />
          <path
             style="fill:url(#linearGradient3159);fill-rule:nonzero;stroke:none"
             inkscape:connector-curvature="0"
             d="M 16.629,24.512 C 13.473,24.832 11,27.496 11,30.739 c 0,3.457 2.801,6.258 6.258,6.258 3.305,0 5.996,-2.563 6.23,-5.805 -3.563,-0.258 -6.422,-3.121 -6.68,-6.684 -0.063,0.008 -0.121,-0.004 -0.184,0 m 0.004,0.004"
             id="path3085" />
          <path
             style="fill:url(#linearGradient3161);fill-rule:nonzero;stroke:none"
             inkscape:connector-curvature="0"
             d="m 31.19,24.512 c -0.258,3.559 -3.117,6.422 -6.68,6.68 0.227,3.242 2.926,5.809 6.227,5.809 3.457,0 6.258,-2.805 6.258,-6.262 0,-3.301 -2.563,-5.992 -5.809,-6.227 m 0,0"
             id="path3087" />
          <path
             style="fill:url(#linearGradient3163);fill-rule:nonzero;stroke:none"
             inkscape:connector-curvature="0"
             d="m 30,25 c -0.25,3.043 -1.957,4.75 -5,5 l 0,-5 m 5,0"
             id="path3089" />
          <path
             style="fill:url(#linearGradient3165);fill-rule:nonzero;stroke:none"
             inkscape:connector-curvature="0"
             d="m 30,23 c -0.25,-3.043 -1.957,-4.75 -5,-5 l 0,5 m 5,0"
             id="path3091" />
          <path
             style="fill:url(#linearGradient3167);fill-rule:nonzero;stroke:none"
             inkscape:connector-curvature="0"
             d="m 17.996,23 c 0.25,-3.043 1.957,-4.75 5,-5 l 0,5 m -5,0"
             id="path3093" />
        </g>
      </g>
    </g>
  </g>
</svg>
