<?xml version="1.0" encoding="UTF-8" standalone="no"?>
<!-- Created with Inkscape (http://www.inkscape.org/) -->

<svg
   xmlns:dc="http://purl.org/dc/elements/1.1/"
   xmlns:cc="http://creativecommons.org/ns#"
   xmlns:rdf="http://www.w3.org/1999/02/22-rdf-syntax-ns#"
   xmlns:svg="http://www.w3.org/2000/svg"
   xmlns="http://www.w3.org/2000/svg"
   xmlns:sodipodi="http://sodipodi.sourceforge.net/DTD/sodipodi-0.dtd"
   xmlns:inkscape="http://www.inkscape.org/namespaces/inkscape"
   width="48"
   height="48"
   id="svg2"
   version="1.1"
   inkscape:version="0.48.4 r9939"
   sodipodi:docname="liquidwar.svg">
  <defs
     id="defs4">
    <linearGradient
       x2="47"
       x1="1"
       gradientTransform="matrix(0,-1,1,0,-1.5e-6,47.999998)"
       gradientUnits="userSpaceOnUse"
       id="linearGradient3118">
      <stop
         id="stop3026"
         stop-opacity="1"
         stop-color="#003774" />
      <stop
         id="stop3028"
         stop-opacity="1"
         stop-color="#004088"
         offset="1" />
    </linearGradient>
  </defs>
  <sodipodi:namedview
     id="base"
     pagecolor="#ffffff"
     bordercolor="#666666"
     borderopacity="1.0"
     inkscape:pageopacity="0.0"
     inkscape:pageshadow="2"
     inkscape:zoom="8.1906535"
     inkscape:cx="-18.412159"
     inkscape:cy="23.472453"
     inkscape:document-units="px"
     inkscape:current-layer="layer1"
     showgrid="true"
     inkscape:snap-bbox="true"
     inkscape:window-width="1301"
     inkscape:window-height="744"
     inkscape:window-x="65"
     inkscape:window-y="24"
     inkscape:window-maximized="1"
     inkscape:snap-global="true">
    <inkscape:grid
       type="xygrid"
       id="grid2985"
       empspacing="6"
       visible="true"
       enabled="true"
       snapvisiblegridlinesonly="true" />
  </sodipodi:namedview>
  <metadata
     id="metadata7">
    <rdf:RDF>
      <cc:Work
         rdf:about="">
        <dc:format>image/svg+xml</dc:format>
        <dc:type
           rdf:resource="http://purl.org/dc/dcmitype/StillImage" />
        <dc:title />
      </cc:Work>
    </rdf:RDF>
  </metadata>
  <g
     inkscape:label="Layer 1"
     inkscape:groupmode="layer"
     id="layer1"
     transform="translate(0,-1004.3622)">
    <path
       id="path3788"
       d="m 24,1051.1116 c -21.2715315,0 -23.66257505,-0.089 -23.9375,-15.4063 0.328125,14.4033 2.9375,14.4063 23.9375,14.4063 21,0 23.609375,0 23.9375,-14.4063 -0.274925,15.3174 -2.665968,15.4063 -23.9375,15.4063 z"
       style="opacity:0.20000000000000001;fill:#ffffff;fill-opacity:1;stroke:none"
       inkscape:connector-curvature="0" />
    <path
       style="fill:#7cb216;fill-opacity:1;stroke:none"
       d="M 20.09375 45.90625 C 19.273686 45.334104 18.360168 44.776085 17.6875 44.1875 C 16.5 43.148438 15.5 42.087891 14.625 41.03125 C 13.75 39.974609 13 38.90625 12.25 37.875 C 11.5 36.84375 10.75 35.837891 9.9375 34.875 C 9.125 33.912109 8.25 32.976562 7.1875 32.125 C 6.125 31.273438 4.875 30.509766 3.375 29.8125 C 2.4682075 29.390983 1.2466522 29.07128 0.125 28.71875 C 0.29775882 43.873305 2.736488 45.815049 20.09375 45.90625 z "
       id="path3856"
       transform="translate(0,1004.3622)" />
    <path
       style="fill:#f4c62e;fill-opacity:1;stroke:none"
       d="M 47.5625 34.84375 C 45.49613 34.437145 43.413162 34.116732 41.5 33.75 C 41.374474 34.309895 41.226858 34.872559 41 35.375 C 40.773142 35.877441 40.468882 36.328776 40.0625 36.71875 C 39.656118 37.108724 39.132845 37.433757 38.46875 37.65625 C 37.804655 37.878743 37 38 36 38 C 35.049143 38 34.203501 38.014728 33.40625 37.9375 C 32.608999 37.860272 31.863148 37.683912 31.125 37.375 C 30.386852 37.066088 29.648548 36.601302 28.875 35.90625 C 28.101452 35.211198 27.27845 34.298149 26.375 33.0625 C 24.457621 33.205661 22.868579 33.42217 21.625 33.75 C 20.381421 34.07783 19.488308 34.524624 18.9375 35.03125 C 18.662096 35.284563 18.473654 35.546839 18.375 35.84375 C 18.276346 36.140661 18.263282 36.472725 18.34375 36.8125 C 18.504686 37.49205 19.045849 38.247149 19.9375 39.09375 C 20.829151 39.940351 22.077413 40.86722 23.71875 41.875 C 25.360087 42.88278 27.371255 43.961913 29.78125 45.125 C 30.218003 45.335781 30.850134 45.565482 31.3125 45.78125 C 43.132147 45.38566 46.788447 43.490819 47.5625 34.84375 z "
       id="path3865"
       transform="translate(0,1004.3622)" />
    <path
       style="fill:#003b7c;fill-opacity:1;stroke:none"
       d="M 0.125 20.21875 C 0.11514308 21.619981 3.2381505e-17 22.364693 0 24 C 0 26.040361 0.10585462 27.039301 0.125 28.71875 C 1.2466522 29.07128 2.4682075 29.390983 3.375 29.8125 C 4.875 30.509766 6.125 31.273438 7.1875 32.125 C 8.25 32.976562 9.125 33.912109 9.9375 34.875 C 10.75 35.837891 11.5 36.84375 12.25 37.875 C 13 38.90625 13.75 39.974609 14.625 41.03125 C 15.5 42.087891 16.5 43.148438 17.6875 44.1875 C 18.360168 44.776085 19.273686 45.334104 20.09375 45.90625 C 21.553503 45.91392 22.310843 46 24 46 C 27.042675 46 28.997808 45.85872 31.3125 45.78125 C 30.850134 45.565482 30.218003 45.335781 29.78125 45.125 C 27.371255 43.961913 25.360087 42.88278 23.71875 41.875 C 22.077413 40.86722 20.829151 39.940351 19.9375 39.09375 C 19.045849 38.247149 18.504686 37.49205 18.34375 36.8125 C 18.263282 36.472725 18.276346 36.140661 18.375 35.84375 C 18.473654 35.546839 18.662096 35.284563 18.9375 35.03125 C 19.488308 34.524624 20.381421 34.07783 21.625 33.75 C 22.868579 33.42217 24.457621 33.205661 26.375 33.0625 C 27.27845 34.298149 28.101452 35.211198 28.875 35.90625 C 29.648548 36.601302 30.386852 37.066088 31.125 37.375 C 31.863148 37.683912 32.608999 37.860272 33.40625 37.9375 C 34.203501 38.014728 35.049143 38 36 38 C 37 38 37.804655 37.878743 38.46875 37.65625 C 39.132845 37.433757 39.656118 37.108724 40.0625 36.71875 C 40.468882 36.328776 40.773142 35.877441 41 35.375 C 41.226858 34.872559 41.374474 34.309895 41.5 33.75 C 43.413162 34.116732 45.49613 34.437145 47.5625 34.84375 C 47.657743 33.779776 47.740393 32.715002 47.78125 31.4375 C 47.20986 31.271495 46.522972 31.029166 45.96875 30.875 C 42.900391 30.021484 40.085938 29.351562 37.5 28.8125 C 32.328125 27.734375 28.0625 27.1875 24.375 26.875 C 20.6875 26.5625 17.609375 26.453125 14.8125 26.25 C 13.414062 26.148438 12.068359 26.041016 10.78125 25.84375 C 9.4941406 25.646484 8.25 25.375 7 25 C 5.2339472 24.4702 3.6363649 23.6536 2.28125 22.625 C 1.3857926 21.945303 0.79363208 21.054028 0.125 20.21875 z "
       id="path3850"
       transform="translate(0,1004.3622)" />
    <path
       style="fill:#f9f9f9;fill-opacity:1;stroke:none"
       d="M 36.03125 2.3125 C 35.847436 2.4963664 35.569119 2.6172632 35.40625 2.8125 C 34.701825 3.65692 34.186118 4.5977415 33.9375 5.625 C 33.795433 6.2120049 33.75102 6.799221 33.78125 7.375 C 33.81148 7.950779 33.905073 8.5115187 34.09375 9.0625 C 34.471104 10.164463 35.165713 11.203659 36.09375 12.125 C 37.021787 13.046341 38.194585 13.867854 39.5625 14.5 C 40.930415 15.132146 42.490512 15.578124 44.1875 15.8125 C 45.411909 15.981607 46.578424 15.889344 47.75 15.8125 C 47.363175 6.1743667 45.192511 2.9558789 36.03125 2.3125 z "
       id="path3876"
       transform="translate(0,1004.3622)" />
    <path
       style="fill:#de2721;fill-opacity:1;stroke:none"
       d="M 5.5625 3.71875 C 0.87994011 5.7438555 0.19566065 10.17384 0.125 20.21875 C 0.79363208 21.054028 1.3857926 21.945303 2.28125 22.625 C 3.6363649 23.6536 5.2339472 24.4702 7 25 C 8.25 25.375 9.4941406 25.646484 10.78125 25.84375 C 12.068359 26.041016 13.414062 26.148438 14.8125 26.25 C 17.609375 26.453125 20.6875 26.5625 24.375 26.875 C 28.0625 27.1875 32.328125 27.734375 37.5 28.8125 C 40.085938 29.351562 42.900391 30.021484 45.96875 30.875 C 46.522972 31.029166 47.20986 31.271495 47.78125 31.4375 C 47.856235 29.092918 48 27.216209 48 24 C 48 20.45935 47.850044 18.305203 47.75 15.8125 C 46.578424 15.889344 45.411909 15.981607 44.1875 15.8125 C 42.490512 15.578124 40.930415 15.132146 39.5625 14.5 C 38.194585 13.867854 37.021787 13.046341 36.09375 12.125 C 35.165713 11.203659 34.471104 10.164463 34.09375 9.0625 C 33.905073 8.5115187 33.81148 7.950779 33.78125 7.375 C 33.75102 6.799221 33.795433 6.2120049 33.9375 5.625 C 34.186118 4.5977415 34.701825 3.65692 35.40625 2.8125 C 35.569119 2.6172632 35.847436 2.4963664 36.03125 2.3125 C 32.839689 2.0883624 29.202857 2 24 2 C 21.01753 2 19.252424 2.1525312 16.96875 2.21875 C 16.114524 2.7695346 15.388197 3.3489543 14.8125 3.9375 C 14.171582 4.5927221 13.674331 5.2463188 13.28125 5.90625 C 12.495089 7.2261123 12.097879 8.5211467 11.6875 9.59375 C 11.48231 10.130052 11.265136 10.623287 11 11.03125 C 10.734864 11.439213 10.427677 11.764725 10 12 C 9.5374212 12.254475 9.0894268 12.427972 8.6875 12.5 C 8.2855732 12.572028 7.9288744 12.53394 7.59375 12.40625 C 7.2586256 12.27856 6.9496714 12.06343 6.6875 11.71875 C 6.4253286 11.37407 6.214318 10.922692 6.03125 10.34375 C 5.6651141 9.1858653 5.4503192 7.5423119 5.4375 5.34375 C 5.4350018 4.9152925 5.5504633 4.1898661 5.5625 3.71875 z "
       id="path3874"
       transform="translate(0,1004.3622)" />
    <path
       style="fill:#f9f9f9;fill-opacity:1;stroke:none"
       d="M 5.5625 3.71875 C 5.5504633 4.1898661 5.4350018 4.9152925 5.4375 5.34375 C 5.4503192 7.5423119 5.6651141 9.1858653 6.03125 10.34375 C 6.214318 10.922692 6.4253286 11.37407 6.6875 11.71875 C 6.9496714 12.06343 7.2586256 12.27856 7.59375 12.40625 C 7.9288744 12.53394 8.2855732 12.572028 8.6875 12.5 C 9.0894268 12.427972 9.5374212 12.254475 10 12 C 10.427677 11.764725 10.734864 11.439213 11 11.03125 C 11.265136 10.623287 11.48231 10.130052 11.6875 9.59375 C 12.097879 8.5211467 12.495089 7.2261123 13.28125 5.90625 C 13.674331 5.2463188 14.171582 4.5927221 14.8125 3.9375 C 15.388197 3.3489543 16.114524 2.7695346 16.96875 2.21875 C 12.03388 2.3618445 7.9223082 2.6981842 5.5625 3.71875 z "
       id="path3757"
       transform="translate(0,1004.3622)" />
    <path
       style="fill:#000000;fill-opacity:1;stroke:none;opacity:0.20000000000000001"
       d="M 24 2 C 2.7284685 2 0.33742495 2.0888436 0.0625 17.40625 C 0.390625 3.0029297 3 3 24 3 C 45 3 47.609375 3.0029297 47.9375 17.40625 C 47.662575 2.0888436 45.271532 2 24 2 z "
       transform="translate(0,1004.3622)"
       id="path3770" />
    <path
       style="fill:#000000;fill-opacity:1;stroke:none;opacity:0.20000000000000001"
       d="M 24 2 C 7.2405624 2 2.2369698 2.0788791 0.71875 9.59375 C 2.3300781 2.5289866 7.5 2.53125 24 2.53125 C 40.5 2.53125 45.669922 2.5289866 47.28125 9.59375 C 45.76303 2.0788791 40.759438 2 24 2 z M 47.28125 9.59375 C 47.354492 9.9148756 47.409424 10.242768 47.46875 10.59375 C 47.41561 10.240351 47.346891 9.9186608 47.28125 9.59375 z M 0.71875 9.59375 C 0.65310868 9.9186608 0.58439008 10.240351 0.53125 10.59375 C 0.59057617 10.242768 0.64550781 9.9148756 0.71875 9.59375 z "
       transform="translate(0,1004.3622)"
       id="path3012" />
    <g
       id="g3032"
       transform="translate(48,1007.3622)" />
  </g>
</svg>
