<?xml version="1.0" encoding="UTF-8" standalone="no"?>
<!-- Created with Inkscape (http://www.inkscape.org/) -->

<svg
   xmlns:dc="http://purl.org/dc/elements/1.1/"
   xmlns:cc="http://creativecommons.org/ns#"
   xmlns:rdf="http://www.w3.org/1999/02/22-rdf-syntax-ns#"
   xmlns:svg="http://www.w3.org/2000/svg"
   xmlns="http://www.w3.org/2000/svg"
   xmlns:xlink="http://www.w3.org/1999/xlink"
   xmlns:sodipodi="http://sodipodi.sourceforge.net/DTD/sodipodi-0.dtd"
   xmlns:inkscape="http://www.inkscape.org/namespaces/inkscape"
   width="48"
   height="48"
   id="svg2"
   version="1.1"
   inkscape:version="0.48.4 r9939"
   sodipodi:docname="goa-account-microsoft.svg">
  <defs
     id="defs4">
    <linearGradient
       id="linearGradient3795">
      <stop
         style="stop-color:#1976d2;stop-opacity:1;"
         offset="0"
         id="stop3797" />
      <stop
         style="stop-color:#2586e5;stop-opacity:1;"
         offset="1"
         id="stop3799" />
    </linearGradient>
    <linearGradient
       inkscape:collect="always"
       xlink:href="#linearGradient3795"
       id="linearGradient3801"
       x1="24"
       y1="1050.3622"
       x2="24"
       y2="1006.3622"
       gradientUnits="userSpaceOnUse" />
  </defs>
  <sodipodi:namedview
     id="base"
     pagecolor="#ffffff"
     bordercolor="#666666"
     borderopacity="1.0"
     inkscape:pageopacity="0.0"
     inkscape:pageshadow="2"
     inkscape:zoom="8.1906536"
     inkscape:cx="4.8425636"
     inkscape:cy="15.556123"
     inkscape:document-units="px"
     inkscape:current-layer="layer1"
     showgrid="true"
     inkscape:snap-bbox="true"
     inkscape:window-width="1301"
     inkscape:window-height="744"
     inkscape:window-x="65"
     inkscape:window-y="24"
     inkscape:window-maximized="1">
    <inkscape:grid
       type="xygrid"
       id="grid2985"
       empspacing="6"
       visible="true"
       enabled="true"
       snapvisiblegridlinesonly="true" />
  </sodipodi:namedview>
  <metadata
     id="metadata7">
    <rdf:RDF>
      <cc:Work
         rdf:about="">
        <dc:format>image/svg+xml</dc:format>
        <dc:type
           rdf:resource="http://purl.org/dc/dcmitype/StillImage" />
        <dc:title />
      </cc:Work>
    </rdf:RDF>
  </metadata>
  <g
     inkscape:label="Layer 1"
     inkscape:groupmode="layer"
     id="layer1"
     transform="translate(0,-1004.3622)">
    <path
       id="path3788"
       d="m 24,1051.1116 c -21.2715315,0 -23.66257505,-0.089 -23.9375,-15.4063 0.328125,14.4033 2.9375,14.4063 23.9375,14.4063 21,0 23.609375,0 23.9375,-14.4063 -0.274925,15.3174 -2.665968,15.4063 -23.9375,15.4063 z"
       style="opacity:0.20000000000000001;fill:#ffffff;fill-opacity:1;stroke:none"
       inkscape:connector-curvature="0" />
    <path
       style="fill:url(#linearGradient3801);fill-opacity:1;stroke:none"
       d="m 24,1006.3622 c -24,0 -24,0 -24,22 0,22 0,22 24,22 24,0 24,0 24,-22 0,-22 0,-22 -24,-22 z"
       id="path3757"
       inkscape:connector-curvature="0"
       sodipodi:nodetypes="zzzzz" />
    <path
       style="fill:#000000;fill-opacity:1;stroke:none;opacity:0.20000000000000001"
       d="M 24 2 C 2.7284685 2 0.33742495 2.0888436 0.0625 17.40625 C 0.390625 3.0029297 3 3 24 3 C 45 3 47.609375 3.0029297 47.9375 17.40625 C 47.662575 2.0888436 45.271532 2 24 2 z "
       transform="translate(0,1004.3622)"
       id="path3770" />
    <g
       id="g3822"
       style="opacity:0.2;stroke:#000000;stroke-width:0.98058069;stroke-opacity:1"
       transform="matrix(1,0,0,1.04,-0.99999999,-40.654488)">
      <path
         style="fill:none;stroke:#000000;stroke-width:1.96116138;stroke-miterlimit:4;stroke-opacity:1;stroke-dasharray:none"
         d="m 24,12 -12,3 0,18 12,3 0,-24 z m -6.5,7 C 19.432996,19 21,21.4624 21,24.5 21,27.5376 19.432996,30 17.5,30 15.567004,30 14,27.5376 14,24.5 14,21.4624 15.567004,19 17.5,19 z m 0,1.6875 c -1.073887,0 -1.9375,1.7096 -1.9375,3.8125 0,2.1029 0.863613,3.8125 1.9375,3.8125 1.073887,0 1.9375,-1.7096 1.9375,-3.8125 0,-2.1029 -0.863613,-3.8125 -1.9375,-3.8125 z"
         transform="translate(0,1004.3622)"
         id="path3818"
         inkscape:connector-curvature="0" />
      <path
         style="fill:none;stroke:#000000;stroke-width:1.96116138;stroke-miterlimit:4;stroke-opacity:1;stroke-dasharray:none"
         d="m 26,16 0,5 4,2 8,-3 0,-4 z m 0,8 0,8 12,0 0,-9 -8,3 z"
         transform="translate(0,1004.3622)"
         id="path3820"
         inkscape:connector-curvature="0"
         sodipodi:nodetypes="cccccccccccc" />
    </g>
    <path
       style="fill:none;stroke:#f8f8f8;stroke-width:2;stroke-miterlimit:4;stroke-opacity:1;stroke-dasharray:none"
       d="m 23,1016.3422 -12,3 0,18 12,3 0,-24 z m -6.5,7 c 1.932996,0 3.5,2.4624 3.5,5.5 0,3.0376 -1.567004,5.5 -3.5,5.5 -1.932996,0 -3.5,-2.4624 -3.5,-5.5 0,-3.0376 1.567004,-5.5 3.5,-5.5 z m 0,1.6875 c -1.073887,0 -1.9375,1.7096 -1.9375,3.8125 0,2.1029 0.863613,3.8125 1.9375,3.8125 1.073887,0 1.9375,-1.7096 1.9375,-3.8125 0,-2.1029 -0.863613,-3.8125 -1.9375,-3.8125 z"
       id="rect3803"
       inkscape:connector-curvature="0" />
    <path
       style="fill:none;stroke:#f8f8f8;stroke-width:2;stroke-miterlimit:4;stroke-opacity:1;stroke-dasharray:none"
       d="m 25,1020.3422 0,5 4,2 8,-3 0,-4 z m 0,8 0,8 12,0 0,-9 -8,3 z"
       id="rect3805"
       inkscape:connector-curvature="0"
       sodipodi:nodetypes="cccccccccccc" />
  </g>
</svg>
