<?xml version="1.0" encoding="UTF-8" standalone="no"?>
<!-- Created with Inkscape (http://www.inkscape.org/) -->

<svg
   xmlns:dc="http://purl.org/dc/elements/1.1/"
   xmlns:cc="http://creativecommons.org/ns#"
   xmlns:rdf="http://www.w3.org/1999/02/22-rdf-syntax-ns#"
   xmlns:svg="http://www.w3.org/2000/svg"
   xmlns="http://www.w3.org/2000/svg"
   xmlns:xlink="http://www.w3.org/1999/xlink"
   xmlns:sodipodi="http://sodipodi.sourceforge.net/DTD/sodipodi-0.dtd"
   xmlns:inkscape="http://www.inkscape.org/namespaces/inkscape"
   width="48"
   height="48"
   id="svg2"
   version="1.1"
   inkscape:version="0.48.4 r9939"
   sodipodi:docname="lubuntu-software-center.svg">
  <defs
     id="defs4">
    <linearGradient
       id="linearGradient3964">
      <stop
         style="stop-color:#000000;stop-opacity:1;"
         offset="0"
         id="stop3966" />
      <stop
         style="stop-color:#ffffff;stop-opacity:1;"
         offset="1"
         id="stop3968" />
    </linearGradient>
    <linearGradient
       inkscape:collect="always"
       xlink:href="#linearGradient3964"
       id="linearGradient3970"
       x1="24"
       y1="1034.3622"
       x2="24"
       y2="1006.3622"
       gradientUnits="userSpaceOnUse"
       spreadMethod="repeat" />
    <linearGradient
       gradientTransform="matrix(1,0,0,1.090909,2.95276e-6,-3.090907)"
       y2="19"
       x2="0"
       y1="34"
       gradientUnits="userSpaceOnUse"
       id="linear0">
      <stop
         id="stop3026"
         stop-opacity="0.059"
         stop-color="#000" />
      <stop
         id="stop3028"
         stop-opacity="0"
         stop-color="#000"
         offset="1" />
    </linearGradient>
    <linearGradient
       gradientTransform="matrix(0,-1,1,0,-1.5e-6,47.999998)"
       gradientUnits="userSpaceOnUse"
       x2="47"
       x1="1"
       id="linearGradient3764-2">
      <stop
         id="stop3011"
         stop-opacity="1"
         stop-color="#e2e3d5" />
      <stop
         id="stop3013"
         stop-opacity="1"
         stop-color="#eaebe1"
         offset="1" />
    </linearGradient>
    <linearGradient
       inkscape:collect="always"
       xlink:href="#linear0"
       id="linearGradient3228"
       gradientUnits="userSpaceOnUse"
       gradientTransform="matrix(1,0,0,1.090909,2.95276e-6,-3.090907)"
       y1="34"
       x2="0"
       y2="19" />
    <linearGradient
       inkscape:collect="always"
       xlink:href="#linearGradient3764-2"
       id="linearGradient3262"
       gradientUnits="userSpaceOnUse"
       gradientTransform="matrix(0,-1,1,0,-1.5e-6,47.999998)"
       x1="1"
       x2="47" />
    <linearGradient
       inkscape:collect="always"
       xlink:href="#linearGradient3764-2"
       id="linearGradient3265"
       gradientUnits="userSpaceOnUse"
       gradientTransform="matrix(0,-1,1,0,-61.000002,1049.3622)"
       x1="1"
       x2="47" />
    <linearGradient
       inkscape:collect="always"
       xlink:href="#linear0"
       id="linearGradient3286"
       gradientUnits="userSpaceOnUse"
       gradientTransform="matrix(1,0,0,1.090909,2.95276e-6,-3.090907)"
       y1="34"
       x2="0"
       y2="19" />
    <linearGradient
       inkscape:collect="always"
       xlink:href="#linear0"
       id="linearGradient3302"
       gradientUnits="userSpaceOnUse"
       gradientTransform="matrix(1,0,0,1.090909,2.95276e-6,-3.090907)"
       y1="34"
       x2="0"
       y2="19" />
    <linearGradient
       inkscape:collect="always"
       xlink:href="#linear0"
       id="linearGradient3305"
       gradientUnits="userSpaceOnUse"
       gradientTransform="matrix(1,0,0,1.090909,-55.995997,993.27129)"
       y1="34"
       x2="0"
       y2="19" />
  </defs>
  <sodipodi:namedview
     id="base"
     pagecolor="#ffffff"
     bordercolor="#666666"
     borderopacity="1.0"
     inkscape:pageopacity="0.0"
     inkscape:pageshadow="2"
     inkscape:zoom="8.1906533"
     inkscape:cx="24.25089"
     inkscape:cy="18.639971"
     inkscape:document-units="px"
     inkscape:current-layer="layer1"
     showgrid="true"
     inkscape:snap-bbox="true"
     inkscape:window-width="1301"
     inkscape:window-height="744"
     inkscape:window-x="65"
     inkscape:window-y="24"
     inkscape:window-maximized="1"
     inkscape:object-nodes="false"
     inkscape:snap-nodes="true">
    <inkscape:grid
       type="xygrid"
       id="grid3005"
       empspacing="6"
       visible="true"
       enabled="true"
       snapvisiblegridlinesonly="true" />
  </sodipodi:namedview>
  <metadata
     id="metadata7">
    <rdf:RDF>
      <cc:Work
         rdf:about="">
        <dc:format>image/svg+xml</dc:format>
        <dc:type
           rdf:resource="http://purl.org/dc/dcmitype/StillImage" />
        <dc:title />
      </cc:Work>
    </rdf:RDF>
  </metadata>
  <g
     inkscape:label="Layer 1"
     inkscape:groupmode="layer"
     id="layer1"
     transform="translate(0,-1004.3622)">
    <path
       id="path3788"
       d="m 24,1051.1116 c -21.2715315,0 -23.66257505,-0.089 -23.9375,-15.4063 0.328125,14.4033 2.9375,14.4063 23.9375,14.4063 21,0 23.609375,0 23.9375,-14.4063 -0.274925,15.3174 -2.665968,15.4063 -23.9375,15.4063 z"
       style="opacity:0.20000000000000001;fill:#ffffff;fill-opacity:1;stroke:none"
       inkscape:connector-curvature="0" />
    <path
       style="fill:#c19a69;fill-opacity:1;stroke:none"
       d="m 24,1006.3622 c -24,0 -24,0 -24,22 0,22 0,22 24,22 24,0 24,0 24,-22 0,-22 0,-22 -24,-22 z"
       id="path3757"
       inkscape:connector-curvature="0"
       sodipodi:nodetypes="zzzzz" />
    <g
       id="g3048"
       transform="translate(-57,1011.3622)" />
    <g
       id="g3338"
       transform="translate(25.02,-3.0106)">
      <path
         style="fill:#0068c8;fill-opacity:1;fill-rule:nonzero;stroke:none"
         inkscape:connector-curvature="0"
         d="m 9.98,1030.3728 c -5.523,0 -10,4.477 -10,10 0,5.523 4.477,9.996 10,9.996 5.523,0 9.996,-4.477 9.996,-9.996 0,-5.527 -4.477,-10 -9.996,-10 m 0,0"
         id="path3104" />
      <path
         style="fill:#eaebde;fill-opacity:1;fill-rule:nonzero;stroke:none"
         inkscape:connector-curvature="0"
         d="m 14.539,1033.3728 c -0.098,-0.059 -0.496,0.137 -1.082,0.375 -0.539,0.219 -0.816,0.488 -0.957,0.5 -1.234,0.129 -10.469,6.805 -10.5,6.875 0.09,0.051 2.828,-1.313 5.125,-1.875 0.535,-0.133 0.898,-0.02 -0.043,1.332 -1.094,1.57 -3.469,5.359 -3.543,5.668 0.211,0.063 3.25,-4.195 4.289,-5.336 0.566,-0.621 0.941,-0.875 1.125,-0.875 0.129,0 0.164,-0.121 -0.918,1.711 -0.906,1.523 -4.125,6.789 -4.125,7.207 0.191,-0.121 0.332,-0.324 0.586,-0.625 0.855,-1.043 5.555,-7.609 6.328,-8.75 1.309,-1.918 2.188,-1.18 3.168,-0.043 1.906,2.211 3.801,9.305 4,9.836 -0.039,-0.477 -0.172,-1.27 -0.336,-2.336 -0.68,-4.484 -1.613,-10.07 -4,-11.707 0.125,-0.168 0.246,-0.676 0.254,-1 0,-0.199 0.195,-0.34 0.621,-0.957 m 0.004,0"
         id="path3106" />
    </g>
    <path
       sodipodi:nodetypes="zzzzz"
       inkscape:connector-curvature="0"
       id="path3962"
       d="m 24,1006.3622 c -24,0 -24,0 -24,22 0,22 0,22 24,22 24,0 24,0 24,-22 0,-22 0,-22 -24,-22 z"
       style="opacity:0.05;fill:url(#linearGradient3970);fill-opacity:1;stroke:none" />
    <path
       style="opacity:0.2;fill:#000000;fill-opacity:1;stroke:none"
       d="M 12 9 L 15 23.65625 L 22.5 31 L 34.5 31 L 39 23.65625 L 36 9 L 30 9 L 33 23.65625 L 21 23.65625 L 18 9 L 12 9 z "
       transform="translate(0,1004.3622)"
       id="path3825" />
    <g
       id="g3818">
      <path
         sodipodi:nodetypes="ccccc"
         inkscape:connector-curvature="0"
         id="rect3811"
         transform="translate(0,1004.3622)"
         d="m 12,9 0,12 6,6 0,-18 z"
         style="fill:#2d2d2d;fill-opacity:1;stroke:none" />
      <path
         style="fill:#0d0d0d;fill-opacity:1;stroke:none"
         d="m 30,1025.3622 -12,0 0,6 12,0 z"
         id="path3814"
         inkscape:connector-curvature="0"
         sodipodi:nodetypes="ccccc" />
      <path
         style="fill:#2d2d2d;fill-opacity:1;stroke:none"
         d="m 36,1013.3622 0,12 -6,6 0,-18 z"
         id="path3816"
         inkscape:connector-curvature="0"
         sodipodi:nodetypes="ccccc" />
    </g>
    <path
       style="fill:#000000;fill-opacity:1;stroke:none;opacity:0.20000000000000001"
       d="M 24 2 C 2.7284685 2 0.33742495 2.0888436 0.0625 17.40625 C 0.390625 3.0029297 3 3 24 3 C 45 3 47.609375 3.0029297 47.9375 17.40625 C 47.662575 2.0888436 45.271532 2 24 2 z "
       transform="translate(0,1004.3622)"
       id="path3770" />
  </g>
</svg>
