<?xml version="1.0" encoding="UTF-8" standalone="no"?>
<!-- Created with Inkscape (http://www.inkscape.org/) -->

<svg
   xmlns:dc="http://purl.org/dc/elements/1.1/"
   xmlns:cc="http://creativecommons.org/ns#"
   xmlns:rdf="http://www.w3.org/1999/02/22-rdf-syntax-ns#"
   xmlns:svg="http://www.w3.org/2000/svg"
   xmlns="http://www.w3.org/2000/svg"
   xmlns:xlink="http://www.w3.org/1999/xlink"
   xmlns:sodipodi="http://sodipodi.sourceforge.net/DTD/sodipodi-0.dtd"
   xmlns:inkscape="http://www.inkscape.org/namespaces/inkscape"
   width="48"
   height="48"
   id="svg2"
   version="1.1"
   inkscape:version="0.48.4 r9939"
   sodipodi:docname="meld.svg">
  <defs
     id="defs4">
    <linearGradient
       id="linearGradient3779">
      <stop
         style="stop-color:#000000;stop-opacity:1;"
         offset="0"
         id="stop3781" />
      <stop
         style="stop-color:#ffffff;stop-opacity:1;"
         offset="1"
         id="stop3783" />
    </linearGradient>
    <linearGradient
       inkscape:collect="always"
       xlink:href="#linearGradient3779"
       id="linearGradient3832"
       gradientUnits="userSpaceOnUse"
       gradientTransform="translate(-60,0)"
       spreadMethod="repeat"
       x1="24"
       y1="1028.3622"
       x2="45"
       y2="1007.3622" />
    <linearGradient
       inkscape:collect="always"
       xlink:href="#linearGradient3779"
       id="linearGradient3834"
       gradientUnits="userSpaceOnUse"
       gradientTransform="translate(-60,0)"
       spreadMethod="repeat"
       x1="44"
       y1="1048.3622"
       x2="15"
       y2="1019.3622" />
  </defs>
  <sodipodi:namedview
     id="base"
     pagecolor="#ffffff"
     bordercolor="#666666"
     borderopacity="1.0"
     inkscape:pageopacity="0.0"
     inkscape:pageshadow="2"
     inkscape:zoom="8.1906533"
     inkscape:cx="6.7516929"
     inkscape:cy="26.973311"
     inkscape:document-units="px"
     inkscape:current-layer="layer1"
     showgrid="true"
     inkscape:snap-bbox="true"
     inkscape:window-width="1301"
     inkscape:window-height="744"
     inkscape:window-x="65"
     inkscape:window-y="24"
     inkscape:window-maximized="1"
     inkscape:object-nodes="true"
     inkscape:object-paths="true">
    <inkscape:grid
       type="xygrid"
       id="grid3003"
       empspacing="6"
       visible="true"
       enabled="true"
       snapvisiblegridlinesonly="true" />
  </sodipodi:namedview>
  <metadata
     id="metadata7">
    <rdf:RDF>
      <cc:Work
         rdf:about="">
        <dc:format>image/svg+xml</dc:format>
        <dc:type
           rdf:resource="http://purl.org/dc/dcmitype/StillImage" />
        <dc:title />
      </cc:Work>
    </rdf:RDF>
  </metadata>
  <g
     inkscape:label="Layer 1"
     inkscape:groupmode="layer"
     id="layer1"
     transform="translate(0,-1004.3622)">
    <path
       id="path3788"
       d="m 24,1051.1116 c -21.2715315,0 -23.66257505,-0.089 -23.9375,-15.4063 0.328125,14.4033 2.9375,14.4063 23.9375,14.4063 21,0 23.609375,0 23.9375,-14.4063 -0.274925,15.3174 -2.665968,15.4063 -23.9375,15.4063 z"
       style="opacity:0.20000000000000001;fill:#ffffff;fill-opacity:1;stroke:none"
       inkscape:connector-curvature="0" />
    <path
       style="fill:#ffa000;fill-opacity:1;stroke:none"
       d="m 36,1006.581 c -11.082985,5.6848 -19,12.1341 -19,17.9687 0,5.325 4,1.8125 7,3.8125 -1.1512,-0.7674 -2,-2.542 -2,-6 0,-7.7664 9,-5.0123 15,-0.1875 5.061257,4.8133 8.536861,15.1035 7.4375,25.875 3.561671,-2.5791 3.5625,-8.0399 3.5625,-19.6875 0,-17.4374 -0.04943,-21.0313 -12,-21.7812 z"
       id="path3040" />
    <path
       style="fill:#ffa000;fill-opacity:1;stroke:none"
       d="m 24,1028.3622 c 1.151155,0.7674 2,2.542 2,6 0,7.7664 -9,5.0123 -15,0.1875 -5.061257,-4.8133 -8.5368607,-15.1035 -7.4375,-25.875 C 8.2929523e-4,1011.2538 0,1016.7146 0,1028.3622 c 0,17.4374 0.04942895,21.0313 12,21.7813 11.082984,-5.6849 19,-12.1341 19,-17.9688 0,-5.325 -4,-1.8125 -7,-3.8125 z"
       id="path3757" />
    <g
       id="g3813"
       transform="translate(-47.998,993.3622)" />
    <path
       style="opacity:1;fill:#1e88e5;fill-opacity:1;stroke:none"
       d="M 35.9375 2.28125 C 32.75722 2.0623505 29.162007 2 24 2 C 18 2 13.5 2 10.125 2.34375 C 8.4375 2.515625 7.046875 2.7695312 5.875 3.15625 C 4.9476672 3.4622698 4.2507821 3.9174977 3.59375 4.40625 C 2.5229017 15.144956 5.9528219 25.387634 11 30.1875 C 17 35.0123 26 37.7664 26 30 C 26 26.542 25.151155 24.7674 24 24 C 21 22 17 25.5125 17 20.1875 C 17 14.374654 24.919843 7.9507026 35.9375 2.28125 z "
       id="path3055"
       transform="translate(0,1004.3622)" />
    <path
       style="opacity:1;fill:#1e88e5;fill-opacity:1;stroke:none"
       d="M 12.0625 45.71875 C 15.24278 45.937649 18.837993 46 24 46 C 30 46 34.5 46 37.875 45.65625 C 39.5625 45.484375 40.953125 45.230469 42.125 44.84375 C 43.052333 44.53773 43.749218 44.082502 44.40625 43.59375 C 45.477098 32.855044 42.047178 22.612366 37 17.8125 C 31 12.9877 22 10.2336 22 18 C 22 21.458 22.8488 23.2326 24 24 C 27 26 31 22.4875 31 27.8125 C 31 33.625346 23.080156 40.049297 12.0625 45.71875 z "
       id="path3028"
       transform="translate(0,1004.3622)" />
    <g
       id="g3828"
       transform="translate(60,0)">
      <path
         style="opacity:0.05;fill:url(#linearGradient3832);fill-opacity:1;stroke:none"
         d="m -36,1006.3622 c -24,0 -24,0 -24,22 0,22 0,22 24,22 24,0 24,0 24,-22 0,-22 0,-22 -24,-22 z"
         id="path3777"
         inkscape:connector-curvature="0"
         sodipodi:nodetypes="zzzzz" />
      <path
         sodipodi:nodetypes="zzzzz"
         inkscape:connector-curvature="0"
         id="path3787"
         d="m -36,1006.3622 c -24,0 -24,0 -24,22 0,22 0,22 24,22 24,0 24,0 24,-22 0,-22 0,-22 -24,-22 z"
         style="opacity:0.05;fill:url(#linearGradient3834);fill-opacity:1;stroke:none" />
    </g>
    <path
       style="fill:#000000;fill-opacity:1;stroke:none;opacity:0.20000000000000001"
       d="M 24 2 C 2.7284685 2 0.33742495 2.0888436 0.0625 17.40625 C 0.390625 3.0029297 3 3 24 3 C 45 3 47.609375 3.0029297 47.9375 17.40625 C 47.662575 2.0888436 45.271532 2 24 2 z "
       transform="translate(0,1004.3622)"
       id="path3770" />
  </g>
</svg>
