<?xml version="1.0" encoding="UTF-8" standalone="no"?>
<!-- Created with Inkscape (http://www.inkscape.org/) -->

<svg
   xmlns:dc="http://purl.org/dc/elements/1.1/"
   xmlns:cc="http://creativecommons.org/ns#"
   xmlns:rdf="http://www.w3.org/1999/02/22-rdf-syntax-ns#"
   xmlns:svg="http://www.w3.org/2000/svg"
   xmlns="http://www.w3.org/2000/svg"
   xmlns:xlink="http://www.w3.org/1999/xlink"
   xmlns:sodipodi="http://sodipodi.sourceforge.net/DTD/sodipodi-0.dtd"
   xmlns:inkscape="http://www.inkscape.org/namespaces/inkscape"
   width="48"
   height="48"
   id="svg2"
   version="1.1"
   inkscape:version="0.48.4 r9939"
   sodipodi:docname="mkvmerge.svg">
  <defs
     id="defs4">
    <linearGradient
       id="linearGradient3785">
      <stop
         style="stop-color:#21c56c;stop-opacity:1;"
         offset="0"
         id="stop3787" />
      <stop
         style="stop-color:#3ade83;stop-opacity:1;"
         offset="1"
         id="stop3789" />
    </linearGradient>
    <linearGradient
       id="linearGradient3763">
      <stop
         style="stop-color:#000000;stop-opacity:1;"
         offset="0"
         id="stop3765" />
      <stop
         style="stop-color:#ffffff;stop-opacity:1;"
         offset="1"
         id="stop3767" />
    </linearGradient>
    <linearGradient
       inkscape:collect="always"
       xlink:href="#linearGradient3763"
       id="linearGradient3800"
       gradientUnits="userSpaceOnUse"
       gradientTransform="translate(-60,0)"
       spreadMethod="repeat"
       x1="24"
       y1="1028.3622"
       x2="45"
       y2="1007.3622" />
    <linearGradient
       inkscape:collect="always"
       xlink:href="#linearGradient3763"
       id="linearGradient3802"
       gradientUnits="userSpaceOnUse"
       gradientTransform="translate(-60,0)"
       spreadMethod="repeat"
       x1="45"
       y1="1049.3622"
       x2="18"
       y2="1022.3622" />
    <linearGradient
       inkscape:collect="always"
       xlink:href="#linearGradient3785"
       id="linearGradient3792"
       x1="24"
       y1="1050.3622"
       x2="24"
       y2="1006.3622"
       gradientUnits="userSpaceOnUse" />
  </defs>
  <sodipodi:namedview
     id="base"
     pagecolor="#ffffff"
     bordercolor="#666666"
     borderopacity="1.0"
     inkscape:pageopacity="0.0"
     inkscape:pageshadow="2"
     inkscape:zoom="8.1906533"
     inkscape:cx="1.9669077"
     inkscape:cy="13.310603"
     inkscape:document-units="px"
     inkscape:current-layer="layer1"
     showgrid="true"
     inkscape:snap-bbox="true"
     inkscape:window-width="1301"
     inkscape:window-height="744"
     inkscape:window-x="65"
     inkscape:window-y="24"
     inkscape:window-maximized="1"
     inkscape:object-nodes="false"
     inkscape:snap-nodes="true">
    <inkscape:grid
       type="xygrid"
       id="grid3005"
       empspacing="6"
       visible="true"
       enabled="true"
       snapvisiblegridlinesonly="true" />
  </sodipodi:namedview>
  <metadata
     id="metadata7">
    <rdf:RDF>
      <cc:Work
         rdf:about="">
        <dc:format>image/svg+xml</dc:format>
        <dc:type
           rdf:resource="http://purl.org/dc/dcmitype/StillImage" />
        <dc:title />
      </cc:Work>
    </rdf:RDF>
  </metadata>
  <g
     inkscape:label="Layer 1"
     inkscape:groupmode="layer"
     id="layer1"
     transform="translate(0,-1004.3622)">
    <path
       id="path3788"
       d="m 24,1051.1116 c -21.2715315,0 -23.66257505,-0.089 -23.9375,-15.4063 0.328125,14.4033 2.9375,14.4063 23.9375,14.4063 21,0 23.609375,0 23.9375,-14.4063 -0.274925,15.3174 -2.665968,15.4063 -23.9375,15.4063 z"
       style="opacity:0.20000000000000001;fill:#ffffff;fill-opacity:1;stroke:none"
       inkscape:connector-curvature="0" />
    <path
       style="fill:url(#linearGradient3792);fill-opacity:1;stroke:none"
       d="m 24,1006.3622 c -24,0 -24,0 -24,22 0,22 0,22 24,22 24,0 24,0 24,-22 0,-22 0,-22 -24,-22 z"
       id="path3757"
       inkscape:connector-curvature="0"
       sodipodi:nodetypes="zzzzz" />
    <g
       id="g3796"
       transform="translate(60,0)">
      <path
         style="opacity:0.03999999;fill:url(#linearGradient3800);fill-opacity:1;stroke:none"
         d="m -36,1006.3622 c -24,0 -24,0 -24,22 0,22 0,22 24,22 24,0 24,0 24,-22 0,-22 0,-22 -24,-22 z"
         id="path3783"
         inkscape:connector-curvature="0"
         sodipodi:nodetypes="zzzzz" />
      <path
         sodipodi:nodetypes="zzzzz"
         inkscape:connector-curvature="0"
         id="path3795"
         d="m -36,1006.3622 c -24,0 -24,0 -24,22 0,22 0,22 24,22 24,0 24,0 24,-22 0,-22 0,-22 -24,-22 z"
         style="opacity:0.03999999;fill:url(#linearGradient3802);fill-opacity:1;stroke:none" />
    </g>
    <path
       style="fill:#000000;fill-opacity:1;stroke:none;opacity:0.20000000000000001"
       d="M 24 2 C 2.7284685 2 0.33742495 2.0888436 0.0625 17.40625 C 0.390625 3.0029297 3 3 24 3 C 45 3 47.609375 3.0029297 47.9375 17.40625 C 47.662575 2.0888436 45.271532 2 24 2 z "
       transform="translate(0,1004.3622)"
       id="path3770" />
    <g
       id="g3037"
       transform="translate(-46.998,1004.3622)" />
    <g
       id="g3808"
       transform="translate(-52.998,1013.3622)" />
    <g
       id="g3795"
       style="stroke-width:2;stroke-miterlimit:4;stroke-dasharray:none" />
    <path
       id="path3816"
       d="m 25,1017.3622 c -6.627417,0 -12,5.3726 -12,12 0,6.6274 5.372583,12 12,12 6.627417,0 12,-5.3726 12,-12 0,-6.6274 -5.372583,-12 -12,-12 z m 0,2 c 1.104569,0 2,0.8954 2,2 0,1.1046 -0.895431,2 -2,2 -1.104569,0 -2,-0.8954 -2,-2 0,-1.1046 0.895431,-2 2,-2 z m -5.65625,2.3438 c 0.511845,0 1.015726,0.2032 1.40625,0.5937 0.781049,0.781 0.781049,2.0315 0,2.8125 -0.781049,0.781 -2.031451,0.781 -2.8125,0 -0.781049,-0.781 -0.781049,-2.0315 0,-2.8125 0.390524,-0.3905 0.894405,-0.5937 1.40625,-0.5937 z m 11.3125,0 c 0.511845,0 1.015726,0.2032 1.40625,0.5937 0.781049,0.781 0.781049,2.0315 0,2.8125 -0.781049,0.781 -2.031451,0.781 -2.8125,0 -0.781049,-0.781 -0.781049,-2.0315 0,-2.8125 0.390524,-0.3905 0.894405,-0.5937 1.40625,-0.5937 z M 25,1025.3622 c 1.02369,0 2.062701,0.3752 2.84375,1.1563 1.562098,1.5621 1.562098,4.1253 0,5.6875 -1.562098,1.5621 -4.125402,1.5621 -5.6875,0 -1.562098,-1.5622 -1.562098,-4.1254 0,-5.6875 0.781049,-0.7811 1.82006,-1.1563 2.84375,-1.1563 z m -8,2 c 1.104569,0 2,0.8954 2,2 0,1.1046 -0.895431,2 -2,2 -1.104569,0 -2,-0.8954 -2,-2 0,-1.1046 0.895431,-2 2,-2 z m 16,0 c 1.104569,0 2,0.8954 2,2 0,1.1046 -0.895431,2 -2,2 -1.104569,0 -2,-0.8954 -2,-2 0,-1.1046 0.895431,-2 2,-2 z m -13.65625,5.6563 c 0.511845,0 1.015726,0.2032 1.40625,0.5937 0.781049,0.781 0.781049,2.0315 0,2.8125 -0.781049,0.781 -2.031451,0.781 -2.8125,0 -0.781049,-0.781 -0.781049,-2.0315 0,-2.8125 0.390524,-0.3905 0.894405,-0.5937 1.40625,-0.5937 z m 11.3125,0 c 0.511845,0 1.015726,0.2032 1.40625,0.5937 0.781049,0.781 0.781049,2.0315 0,2.8125 -0.781049,0.781 -2.031451,0.781 -2.8125,0 -0.781049,-0.781 -0.781049,-2.0315 0,-2.8125 0.390524,-0.3905 0.894405,-0.5937 1.40625,-0.5937 z M 25,1035.3622 c 1.104569,0 2,0.8954 2,2 0,1.1046 -0.895431,2 -2,2 -1.104569,0 -2,-0.8954 -2,-2 0,-1.1046 0.895431,-2 2,-2 z"
       style="opacity:0.2;fill:#000000;fill-opacity:1;stroke:none"
       inkscape:connector-curvature="0" />
    <path
       style="opacity:1;fill:#f8f8f8;fill-opacity:1;stroke:none;stroke-width:2;stroke-linecap:round;stroke-linejoin:miter;stroke-miterlimit:4;stroke-opacity:1;stroke-dasharray:none;stroke-dashoffset:0"
       d="M 24 12 C 17.372583 12 12 17.372583 12 24 C 12 30.627417 17.372583 36 24 36 C 30.627417 36 36 30.627417 36 24 C 36 17.372583 30.627417 12 24 12 z M 24 14 C 25.104569 14 26 14.895431 26 16 C 26 17.104569 25.104569 18 24 18 C 22.895431 18 22 17.104569 22 16 C 22 14.895431 22.895431 14 24 14 z M 18.34375 16.34375 C 18.855595 16.34375 19.359476 16.546976 19.75 16.9375 C 20.531049 17.718549 20.531049 18.968951 19.75 19.75 C 18.968951 20.531049 17.718549 20.531049 16.9375 19.75 C 16.156451 18.968951 16.156451 17.718549 16.9375 16.9375 C 17.328024 16.546976 17.831905 16.34375 18.34375 16.34375 z M 29.65625 16.34375 C 30.168095 16.34375 30.671976 16.546976 31.0625 16.9375 C 31.843549 17.718549 31.843549 18.968951 31.0625 19.75 C 30.281451 20.531049 29.031049 20.531049 28.25 19.75 C 27.468951 18.968951 27.468951 17.718549 28.25 16.9375 C 28.640524 16.546976 29.144405 16.34375 29.65625 16.34375 z M 24 20 C 25.02369 20 26.062701 20.375189 26.84375 21.15625 C 28.405848 22.718371 28.405848 25.281629 26.84375 26.84375 C 25.281652 28.405871 22.718348 28.405871 21.15625 26.84375 C 19.594152 25.281629 19.594152 22.718371 21.15625 21.15625 C 21.937299 20.375189 22.97631 20 24 20 z M 16 22 C 17.104569 22 18 22.895431 18 24 C 18 25.104569 17.104569 26 16 26 C 14.895431 26 14 25.104569 14 24 C 14 22.895431 14.895431 22 16 22 z M 32 22 C 33.104569 22 34 22.895431 34 24 C 34 25.104569 33.104569 26 32 26 C 30.895431 26 30 25.104569 30 24 C 30 22.895431 30.895431 22 32 22 z M 18.34375 27.65625 C 18.855595 27.65625 19.359476 27.859476 19.75 28.25 C 20.531049 29.031049 20.531049 30.281451 19.75 31.0625 C 18.968951 31.843549 17.718549 31.843549 16.9375 31.0625 C 16.156451 30.281451 16.156451 29.031049 16.9375 28.25 C 17.328024 27.859476 17.831905 27.65625 18.34375 27.65625 z M 29.65625 27.65625 C 30.168095 27.65625 30.671976 27.859476 31.0625 28.25 C 31.843549 29.031049 31.843549 30.281451 31.0625 31.0625 C 30.281451 31.843549 29.031049 31.843549 28.25 31.0625 C 27.468951 30.281451 27.468951 29.031049 28.25 28.25 C 28.640524 27.859476 29.144405 27.65625 29.65625 27.65625 z M 24 30 C 25.104569 30 26 30.895431 26 32 C 26 33.104569 25.104569 34 24 34 C 22.895431 34 22 33.104569 22 32 C 22 30.895431 22.895431 30 24 30 z "
       transform="translate(0,1004.3622)"
       id="path3794" />
  </g>
</svg>
