<?xml version="1.0" encoding="UTF-8" standalone="no"?>
<!-- Created with Inkscape (http://www.inkscape.org/) -->

<svg
   xmlns:dc="http://purl.org/dc/elements/1.1/"
   xmlns:cc="http://creativecommons.org/ns#"
   xmlns:rdf="http://www.w3.org/1999/02/22-rdf-syntax-ns#"
   xmlns:svg="http://www.w3.org/2000/svg"
   xmlns="http://www.w3.org/2000/svg"
   xmlns:xlink="http://www.w3.org/1999/xlink"
   xmlns:sodipodi="http://sodipodi.sourceforge.net/DTD/sodipodi-0.dtd"
   xmlns:inkscape="http://www.inkscape.org/namespaces/inkscape"
   width="48"
   height="48"
   id="svg2"
   version="1.1"
   inkscape:version="0.48.4 r9939"
   sodipodi:docname="mono-runtime-common.svg">
  <defs
     id="defs4">
    <clipPath
       id="clipPath-787446318">
      <g
         id="g3023"
         transform="translate(0,-1004.3622)">
        <path
           id="path3025"
           fill="#1890d0"
           transform="matrix(15.333333,0,0,11.5,414.99999,878.8622)"
           d="m -24 13 c 0 1.105 -0.672 2 -1.5 2 -0.828 0 -1.5 -0.895 -1.5 -2 0 -1.105 0.672 -2 1.5 -2 0.828 0 1.5 0.895 1.5 2 z" />
      </g>
    </clipPath>
    <clipPath
       id="clipPath-780220428">
      <g
         id="g3018"
         transform="translate(0,-1004.3622)">
        <path
           id="path3020"
           fill="#1890d0"
           transform="matrix(15.333333,0,0,11.5,414.99999,878.8622)"
           d="m -24 13 c 0 1.105 -0.672 2 -1.5 2 -0.828 0 -1.5 -0.895 -1.5 -2 0 -1.105 0.672 -2 1.5 -2 0.828 0 1.5 0.895 1.5 2 z" />
      </g>
    </clipPath>
    <linearGradient
       gradientTransform="matrix(0,-1,1,0,-1.5e-6,47.999998)"
       gradientUnits="userSpaceOnUse"
       x2="47"
       x1="1"
       id="linearGradient3764-8">
      <stop
         id="stop3013"
         stop-opacity="1"
         stop-color="#6086b4" />
      <stop
         id="stop3015"
         stop-opacity="1"
         stop-color="#6e90bb"
         offset="1" />
    </linearGradient>
    <linearGradient
       inkscape:collect="always"
       xlink:href="#linearGradient3764-8"
       id="linearGradient3127"
       gradientUnits="userSpaceOnUse"
       gradientTransform="matrix(0,-1,1,0,-1.5e-6,47.999998)"
       x1="1"
       x2="47" />
    <linearGradient
       inkscape:collect="always"
       xlink:href="#linearGradient3764-8"
       id="linearGradient3130"
       gradientUnits="userSpaceOnUse"
       gradientTransform="matrix(0,-1,1,0,-65.998001,1057.3622)"
       x1="1"
       x2="47" />
  </defs>
  <sodipodi:namedview
     id="base"
     pagecolor="#ffffff"
     bordercolor="#666666"
     borderopacity="1.0"
     inkscape:pageopacity="0.0"
     inkscape:pageshadow="2"
     inkscape:zoom="8.1906533"
     inkscape:cx="-32.825257"
     inkscape:cy="16.674223"
     inkscape:document-units="px"
     inkscape:current-layer="layer1"
     showgrid="true"
     inkscape:snap-bbox="true"
     inkscape:window-width="1301"
     inkscape:window-height="744"
     inkscape:window-x="65"
     inkscape:window-y="24"
     inkscape:window-maximized="1"
     inkscape:object-nodes="true"
     inkscape:snap-nodes="false">
    <inkscape:grid
       type="xygrid"
       id="grid3003"
       empspacing="6"
       visible="true"
       enabled="true"
       snapvisiblegridlinesonly="true" />
  </sodipodi:namedview>
  <metadata
     id="metadata7">
    <rdf:RDF>
      <cc:Work
         rdf:about="">
        <dc:format>image/svg+xml</dc:format>
        <dc:type
           rdf:resource="http://purl.org/dc/dcmitype/StillImage" />
        <dc:title />
      </cc:Work>
    </rdf:RDF>
  </metadata>
  <g
     inkscape:label="Layer 1"
     inkscape:groupmode="layer"
     id="layer1"
     transform="translate(0,-1004.3622)">
    <path
       id="path3788"
       d="m 24,1051.1116 c -21.2715315,0 -23.66257505,-0.089 -23.9375,-15.4063 0.328125,14.4033 2.9375,14.4063 23.9375,14.4063 21,0 23.609375,0 23.9375,-14.4063 -0.274925,15.3174 -2.665968,15.4063 -23.9375,15.4063 z"
       style="opacity:0.20000000000000001;fill:#ffffff;fill-opacity:1;stroke:none"
       inkscape:connector-curvature="0" />
    <path
       style="fill:#6489b6;fill-opacity:1;stroke:none"
       d="m 24,1006.3622 c -24,0 -24,0 -24,22 0,22 0,22 24,22 24,0 24,0 24,-22 0,-22 0,-22 -24,-22 z"
       id="path3757"
       inkscape:connector-curvature="0"
       sodipodi:nodetypes="zzzzz" />
    <path
       style="fill:#000000;fill-opacity:1;stroke:none;opacity:0.20000000000000001"
       d="M 24 2 C 2.7284685 2 0.33742495 2.0888436 0.0625 17.40625 C 0.390625 3.0029297 3 3 24 3 C 45 3 47.609375 3.0029297 47.9375 17.40625 C 47.662575 2.0888436 45.271532 2 24 2 z "
       transform="translate(0,1004.3622)"
       id="path3770" />
    <g
       id="g3813"
       transform="translate(-47.998,993.3622)" />
    <g
       id="g3032"
       transform="translate(-48.998,1007.3622)" />
    <g
       id="g3025"
       transform="translate(-51.03,1001.0072)" />
    <g
       id="g3043"
       clip-path="url(#clipPath-780220428)"
       transform="translate(-0.005,1004.3785)">
      <g
         id="g3045"
         transform="translate(1,1)">
        <g
           id="g3047"
           style="opacity:0.1">
          <!-- color: #6e90bb -->
          <g
             id="g3049">
            <path
               id="path3051"
               d="m 14.04,35.926 c 0,-0.148 5.01,-6.172 5.117,-6.148 0.059,0.016 2.301,0.965 4.973,2.113 4.57,1.961 4.875,2.078 4.996,1.914 0.188,-0.254 0.832,-1.598 1.172,-2.449 l 0.289,-0.723 -0.484,-0.266 c -0.691,-0.375 -1.703,-1.215 -2.336,-1.938 -0.578,-0.66 -1.621,-2.25 -1.621,-2.473 0,-0.074 0.332,0.262 0.738,0.746 1.137,1.352 3.758,3.477 3.922,3.176 0.195,-0.359 0.324,-1.414 0.316,-2.641 -0.008,-1.496 -0.203,-2.66 -0.719,-4.266 l -0.289,-0.902 -1.422,-0.445 c -0.785,-0.25 -1.57,-0.492 -1.746,-0.551 -0.617,-0.195 -0.23,-0.184 0.668,0.02 1.078,0.242 2.176,0.441 2.852,0.527 0.602,0.074 0.73,-0.043 0.793,-0.703 0.082,-0.848 -0.461,-3.191 -1.016,-4.352 -0.219,-0.465 -0.32,-0.57 -0.762,-0.77 -1.465,-0.684 -6.06,-1.309 -8.01,-1.105 -0.844,0.086 -1.707,0.293 -1.98,0.465 -0.074,0.059 0.469,0.191 1.402,0.363 0.84,0.156 1.453,0.293 1.363,0.316 -0.102,0.016 -1.414,-0.129 -2.941,-0.324 -2.672,-0.344 -2.77,-0.352 -2.965,-0.18 -0.391,0.352 -0.945,1.309 -1.063,1.824 -0.109,0.496 -0.102,0.555 0.145,1.059 0.422,0.863 1.211,1.492 2.996,2.395 0.844,0.438 1.516,0.797 1.492,0.824 -0.027,0.023 -0.75,-0.246 -1.602,-0.602 l -1.559,-0.645 -2.285,0.641 c -1.254,0.348 -2.324,0.637 -2.375,0.637 -0.063,0 -0.094,-1.516 -0.094,-4.086 0,-3.934 0.008,-4.098 0.203,-4.5 0.117,-0.246 0.348,-0.508 0.555,-0.633 l 0.359,-0.223 10.461,-0.031 c 5.75,-0.016 10.699,0 10.977,0.031 0.641,0.078 1.219,0.547 1.371,1.113 0.066,0.246 0.09,3.969 0.074,11.05 l -0.027,10.668 -0.223,0.355 c -0.129,0.211 -0.391,0.441 -0.633,0.559 -0.41,0.199 -0.492,0.203 -10.738,0.203 -5.68,0 -10.332,-0.035 -10.332,-0.074 m -0.02,0.02"
               inkscape:connector-curvature="0"
               style="fill:#000000;fill-opacity:1;fill-rule:nonzero;stroke:none" />
          </g>
        </g>
      </g>
    </g>
    <g
       id="g3055"
       clip-path="url(#clipPath-787446318)"
       transform="translate(-0.005,1004.3785)">
      <!-- color: #6e90bb -->
      <g
         id="g3057">
        <path
           id="path3059"
           d="m 14.04,35.926 c 0,-0.148 5.01,-6.172 5.117,-6.148 0.059,0.016 2.301,0.965 4.973,2.113 4.57,1.961 4.875,2.078 4.996,1.914 0.188,-0.254 0.832,-1.598 1.172,-2.449 l 0.289,-0.723 -0.484,-0.266 c -0.691,-0.375 -1.703,-1.215 -2.336,-1.938 -0.578,-0.66 -1.621,-2.25 -1.621,-2.473 0,-0.074 0.332,0.262 0.738,0.746 1.137,1.352 3.758,3.477 3.922,3.176 0.195,-0.359 0.324,-1.414 0.316,-2.641 -0.008,-1.496 -0.203,-2.66 -0.719,-4.266 l -0.289,-0.902 -1.422,-0.445 c -0.785,-0.25 -1.57,-0.492 -1.746,-0.551 -0.617,-0.195 -0.23,-0.184 0.668,0.02 1.078,0.242 2.176,0.441 2.852,0.527 0.602,0.074 0.73,-0.043 0.793,-0.703 0.082,-0.848 -0.461,-3.191 -1.016,-4.352 -0.219,-0.465 -0.32,-0.57 -0.762,-0.77 -1.465,-0.684 -6.06,-1.309 -8.01,-1.105 -0.844,0.086 -1.707,0.293 -1.98,0.465 -0.074,0.059 0.469,0.191 1.402,0.363 0.84,0.156 1.453,0.293 1.363,0.316 -0.102,0.016 -1.414,-0.129 -2.941,-0.324 -2.672,-0.344 -2.77,-0.352 -2.965,-0.18 -0.391,0.352 -0.945,1.309 -1.063,1.824 -0.109,0.496 -0.102,0.555 0.145,1.059 0.422,0.863 1.211,1.492 2.996,2.395 0.844,0.438 1.516,0.797 1.492,0.824 -0.027,0.023 -0.75,-0.246 -1.602,-0.602 l -1.559,-0.645 -2.285,0.641 c -1.254,0.348 -2.324,0.637 -2.375,0.637 -0.063,0 -0.094,-1.516 -0.094,-4.086 0,-3.934 0.008,-4.098 0.203,-4.5 0.117,-0.246 0.348,-0.508 0.555,-0.633 l 0.359,-0.223 10.461,-0.031 c 5.75,-0.016 10.699,0 10.977,0.031 0.641,0.078 1.219,0.547 1.371,1.113 0.066,0.246 0.09,3.969 0.074,11.05 l -0.027,10.668 -0.223,0.355 c -0.129,0.211 -0.391,0.441 -0.633,0.559 -0.41,0.199 -0.492,0.203 -10.738,0.203 -5.68,0 -10.332,-0.035 -10.332,-0.074 m -0.02,0.02"
           inkscape:connector-curvature="0"
           style="fill:#ffffff;fill-opacity:1;fill-rule:nonzero;stroke:none" />
      </g>
    </g>
  </g>
</svg>
