<?xml version="1.0" encoding="UTF-8" standalone="no"?>
<!-- Created with Inkscape (http://www.inkscape.org/) -->

<svg
   xmlns:dc="http://purl.org/dc/elements/1.1/"
   xmlns:cc="http://creativecommons.org/ns#"
   xmlns:rdf="http://www.w3.org/1999/02/22-rdf-syntax-ns#"
   xmlns:svg="http://www.w3.org/2000/svg"
   xmlns="http://www.w3.org/2000/svg"
   xmlns:xlink="http://www.w3.org/1999/xlink"
   xmlns:sodipodi="http://sodipodi.sourceforge.net/DTD/sodipodi-0.dtd"
   xmlns:inkscape="http://www.inkscape.org/namespaces/inkscape"
   width="48"
   height="48"
   id="svg2"
   version="1.1"
   inkscape:version="0.48.4 r9939"
   sodipodi:docname="movie-editor.svg">
  <defs
     id="defs4">
    <linearGradient
       id="linearGradient3760">
      <stop
         style="stop-color:#d500f9;stop-opacity:1;"
         offset="0"
         id="stop3762" />
      <stop
         style="stop-color:#e33fff;stop-opacity:1;"
         offset="1"
         id="stop3764" />
    </linearGradient>
    <linearGradient
       inkscape:collect="always"
       xlink:href="#linearGradient3760"
       id="linearGradient3766"
       x1="24"
       y1="1050.3622"
       x2="24"
       y2="1006.3622"
       gradientUnits="userSpaceOnUse" />
  </defs>
  <sodipodi:namedview
     id="base"
     pagecolor="#ffffff"
     bordercolor="#666666"
     borderopacity="1.0"
     inkscape:pageopacity="0.0"
     inkscape:pageshadow="2"
     inkscape:zoom="11.583333"
     inkscape:cx="15.721648"
     inkscape:cy="21.08219"
     inkscape:document-units="px"
     inkscape:current-layer="layer1"
     showgrid="true"
     inkscape:snap-bbox="true"
     inkscape:window-width="1301"
     inkscape:window-height="744"
     inkscape:window-x="65"
     inkscape:window-y="24"
     inkscape:window-maximized="1">
    <inkscape:grid
       type="xygrid"
       id="grid2985"
       empspacing="6"
       visible="true"
       enabled="true"
       snapvisiblegridlinesonly="true" />
  </sodipodi:namedview>
  <metadata
     id="metadata7">
    <rdf:RDF>
      <cc:Work
         rdf:about="">
        <dc:format>image/svg+xml</dc:format>
        <dc:type
           rdf:resource="http://purl.org/dc/dcmitype/StillImage" />
        <dc:title />
      </cc:Work>
    </rdf:RDF>
  </metadata>
  <g
     inkscape:label="Layer 1"
     inkscape:groupmode="layer"
     id="layer1"
     transform="translate(0,-1004.3622)">
    <path
       id="path3788"
       d="m 24,1051.1116 c -21.2715315,0 -23.66257505,-0.089 -23.9375,-15.4063 0.328125,14.4033 2.9375,14.4063 23.9375,14.4063 21,0 23.609375,0 23.9375,-14.4063 -0.274925,15.3174 -2.665968,15.4063 -23.9375,15.4063 z"
       style="opacity:0.20000000000000001;fill:#ffffff;fill-opacity:1;stroke:none"
       inkscape:connector-curvature="0" />
    <path
       style="fill:url(#linearGradient3766);fill-opacity:1;stroke:none"
       d="m 24,1006.3622 c -24,0 -24,0 -24,22 0,22 0,22 24,22 24,0 24,0 24,-22 0,-22 0,-22 -24,-22 z"
       id="path3757"
       inkscape:connector-curvature="0"
       sodipodi:nodetypes="zzzzz" />
    <path
       style="fill:#000000;fill-opacity:1;stroke:none;opacity:0.20000000000000001"
       d="M 24 2 C 2.7284685 2 0.33742495 2.0888436 0.0625 17.40625 C 0.390625 3.0029297 3 3 24 3 C 45 3 47.609375 3.0029297 47.9375 17.40625 C 47.662575 2.0888436 45.271532 2 24 2 z "
       transform="translate(0,1004.3622)"
       id="path3770" />
    <g
       transform="translate(3,1)"
       id="g3036"
       style="fill:#000000;fill-opacity:1;opacity:0.2">
      <path
         style="fill:#000000;fill-opacity:1;stroke:none"
         d="m 8,1016.3622 0,24 24,0 0,-2 -2,0 0,-4 2,0 0,-12 -2,0 0,-4 2,0 0,-2 -24,0 z m 2,2 3,0 0,4 -3,0 0,-4 z m 5,0 3,0 0,4 -3,0 0,-4 z m 5,0 3,0 0,4 -3,0 0,-4 z m 5,0 3,0 0,4 -3,0 0,-4 z m -15,16 3,0 0,4 -3,0 0,-4 z m 5,0 3,0 0,4 -3,0 0,-4 z m 5,0 3,0 0,4 -3,0 0,-4 z m 5,0 3,0 0,4 -3,0 0,-4 z"
         id="path3038"
         inkscape:connector-curvature="0" />
      <rect
         style="fill:#000000;fill-opacity:1;stroke:none"
         id="rect3040"
         width="2"
         height="28"
         x="34"
         y="10"
         transform="translate(0,1004.3622)" />
    </g>
    <g
       id="g3026"
       transform="translate(2,0)"
       style="fill:#ffffff;fill-opacity:1">
      <path
         inkscape:connector-curvature="0"
         id="rect3000"
         d="m 8,1016.3622 0,24 24,0 0,-2 -2,0 0,-4 2,0 0,-12 -2,0 0,-4 2,0 0,-2 -24,0 z m 2,2 3,0 0,4 -3,0 0,-4 z m 5,0 3,0 0,4 -3,0 0,-4 z m 5,0 3,0 0,4 -3,0 0,-4 z m 5,0 3,0 0,4 -3,0 0,-4 z m -15,16 3,0 0,4 -3,0 0,-4 z m 5,0 3,0 0,4 -3,0 0,-4 z m 5,0 3,0 0,4 -3,0 0,-4 z m 5,0 3,0 0,4 -3,0 0,-4 z"
         style="fill:#ffffff;fill-opacity:1;stroke:none" />
      <rect
         transform="translate(0,1004.3622)"
         y="10"
         x="34"
         height="28"
         width="2"
         id="rect3024"
         style="fill:#ffffff;fill-opacity:1;stroke:none" />
    </g>
  </g>
</svg>
