<?xml version="1.0" encoding="UTF-8" standalone="no"?>
<!-- Created with Inkscape (http://www.inkscape.org/) -->

<svg
   xmlns:dc="http://purl.org/dc/elements/1.1/"
   xmlns:cc="http://creativecommons.org/ns#"
   xmlns:rdf="http://www.w3.org/1999/02/22-rdf-syntax-ns#"
   xmlns:svg="http://www.w3.org/2000/svg"
   xmlns="http://www.w3.org/2000/svg"
   xmlns:xlink="http://www.w3.org/1999/xlink"
   xmlns:sodipodi="http://sodipodi.sourceforge.net/DTD/sodipodi-0.dtd"
   xmlns:inkscape="http://www.inkscape.org/namespaces/inkscape"
   width="48"
   height="48"
   id="svg2"
   version="1.1"
   inkscape:version="0.48.4 r9939"
   sodipodi:docname="mysql-workbench.svg">
  <defs
     id="defs4">
    <linearGradient
       id="linearGradient3768">
      <stop
         style="stop-color:#ffcb4f;stop-opacity:1;"
         offset="0"
         id="stop3770" />
      <stop
         style="stop-color:#ffcd55;stop-opacity:1;"
         offset="1"
         id="stop3772" />
    </linearGradient>
    <linearGradient
       inkscape:collect="always"
       xlink:href="#linearGradient3768"
       id="linearGradient3774"
       x1="24"
       y1="1050.3622"
       x2="24"
       y2="1006.3622"
       gradientUnits="userSpaceOnUse" />
    <clipPath
       id="clipPath-136761220">
      <g
         id="g3808"
         transform="translate(0,-1004.3622)">
        <path
           id="path3810"
           fill="#1890d0"
           transform="matrix(15.333333,0,0,11.5,414.99999,878.8622)"
           d="m -24 13 c 0 1.105 -0.672 2 -1.5 2 -0.828 0 -1.5 -0.895 -1.5 -2 0 -1.105 0.672 -2 1.5 -2 0.828 0 1.5 0.895 1.5 2 z" />
      </g>
    </clipPath>
    <clipPath
       id="clipPath-129306397">
      <g
         id="g3803"
         transform="translate(0,-1004.3622)">
        <path
           id="path3805"
           fill="#1890d0"
           transform="matrix(15.333333,0,0,11.5,414.99999,878.8622)"
           d="m -24 13 c 0 1.105 -0.672 2 -1.5 2 -0.828 0 -1.5 -0.895 -1.5 -2 0 -1.105 0.672 -2 1.5 -2 0.828 0 1.5 0.895 1.5 2 z" />
      </g>
    </clipPath>
  </defs>
  <sodipodi:namedview
     id="base"
     pagecolor="#ffffff"
     bordercolor="#666666"
     borderopacity="1.0"
     inkscape:pageopacity="0.0"
     inkscape:pageshadow="2"
     inkscape:zoom="11.583333"
     inkscape:cx="24.257944"
     inkscape:cy="25.30879"
     inkscape:document-units="px"
     inkscape:current-layer="layer1"
     showgrid="true"
     inkscape:snap-bbox="true"
     inkscape:window-width="1301"
     inkscape:window-height="744"
     inkscape:window-x="65"
     inkscape:window-y="24"
     inkscape:window-maximized="1"
     inkscape:snap-global="true"
     inkscape:snap-nodes="true"
     inkscape:snap-object-midpoints="true">
    <inkscape:grid
       type="xygrid"
       id="grid2985"
       empspacing="6"
       visible="true"
       enabled="true"
       snapvisiblegridlinesonly="true" />
  </sodipodi:namedview>
  <metadata
     id="metadata7">
    <rdf:RDF>
      <cc:Work
         rdf:about="">
        <dc:format>image/svg+xml</dc:format>
        <dc:type
           rdf:resource="http://purl.org/dc/dcmitype/StillImage" />
        <dc:title />
      </cc:Work>
    </rdf:RDF>
  </metadata>
  <g
     inkscape:label="Layer 1"
     inkscape:groupmode="layer"
     id="layer1"
     transform="translate(0,-1004.3622)">
    <path
       id="path3788"
       d="m 24,1051.1116 c -21.2715315,0 -23.66257505,-0.089 -23.9375,-15.4063 0.328125,14.4033 2.9375,14.4063 23.9375,14.4063 21,0 23.609375,0 23.9375,-14.4063 -0.274925,15.3174 -2.665968,15.4063 -23.9375,15.4063 z"
       style="opacity:0.20000000000000001;fill:#ffffff;fill-opacity:1;stroke:none"
       inkscape:connector-curvature="0" />
    <path
       style="fill:url(#linearGradient3774);fill-opacity:1;stroke:none"
       d="m 24,1006.3622 c -24,0 -24,0 -24,22 0,22 0,22 24,22 24,0 24,0 24,-22 0,-22 0,-22 -24,-22 z"
       id="path3757"
       inkscape:connector-curvature="0"
       sodipodi:nodetypes="zzzzz" />
    <path
       style="fill:#000000;fill-opacity:1;stroke:none;opacity:0.20000000000000001"
       d="M 24 2 C 2.7284685 2 0.33742495 2.0888436 0.0625 17.40625 C 0.390625 3.0029297 3 3 24 3 C 45 3 47.609375 3.0029297 47.9375 17.40625 C 47.662575 2.0888436 45.271532 2 24 2 z "
       transform="translate(0,1004.3622)"
       id="path3770" />
    <path
       style="fill:#000000;fill-opacity:1;stroke:none;opacity:0.20000000000000001"
       d="M 24 2 C 7.2405624 2 2.2369698 2.0788791 0.71875 9.59375 C 2.3300781 2.5289866 7.5 2.53125 24 2.53125 C 40.5 2.53125 45.669922 2.5289866 47.28125 9.59375 C 45.76303 2.0788791 40.759438 2 24 2 z M 47.28125 9.59375 C 47.354492 9.9148756 47.409424 10.242768 47.46875 10.59375 C 47.41561 10.240351 47.346891 9.9186608 47.28125 9.59375 z M 0.71875 9.59375 C 0.65310868 9.9186608 0.58439008 10.240351 0.53125 10.59375 C 0.59057617 10.242768 0.64550781 9.9148756 0.71875 9.59375 z "
       transform="translate(0,1004.3622)"
       id="path3012" />
    <g
       id="g3032"
       transform="translate(48,1007.3622)" />
    <g
       id="g3788"
       style="opacity:0.28395061999999999;stroke:#000000;stroke-opacity:1">
      <path
         sodipodi:nodetypes="csc"
         inkscape:connector-curvature="0"
         style="opacity:1;fill:none;fill-opacity:1;stroke:#000000;stroke-width:2;stroke-linecap:butt;stroke-linejoin:miter;stroke-miterlimit:4;stroke-opacity:1;stroke-dasharray:none;stroke-dashoffset:0"
         d="m 15,17 0,13 c 0,2.650967 4.029437,4.78125 9,4.78125 4.970563,0 9,-2.130283 9,-4.78125 l 0,-13"
         transform="translate(0,1004.3622)"
         id="path3784" />
      <path
         id="path3786"
         transform="translate(0,1004.3622)"
         d="m 15,23 c 0,2.650967 4.029437,4.78125 9,4.78125 4.970563,0 9,-2.130283 9,-4.78125"
         style="opacity:1;fill:none;fill-opacity:1;stroke:#000000;stroke-width:2;stroke-linecap:butt;stroke-linejoin:miter;stroke-miterlimit:4;stroke-opacity:1;stroke-dasharray:none;stroke-dashoffset:0"
         inkscape:connector-curvature="0"
         sodipodi:nodetypes="ccc" />
      <path
         id="path3776"
         transform="translate(0,1004.3622)"
         d="M 24 12 C 19.029437 12 15 14.161533 15 16.8125 C 15 19.463467 19.029437 21.59375 24 21.59375 C 28.970563 21.59375 33 19.463467 33 16.8125 C 33 14.161533 28.970563 12 24 12 z "
         style="opacity:1;fill:none;fill-opacity:1;stroke:#000000;stroke-width:2;stroke-linecap:butt;stroke-linejoin:miter;stroke-miterlimit:4;stroke-opacity:1;stroke-dasharray:none;stroke-dashoffset:0" />
    </g>
    <g
       id="g3824"
       transform="translate(-52.998,1003.3622)" />
    <g
       id="g3911"
       transform="translate(-1,-0.99997966)">
      <g
         transform="translate(1.0008472,1005.3578)"
         id="g3826">
        <g
           id="g3828"
           clip-path="url(#clipPath-129306397)">
          <g
             id="g3830"
             transform="translate(1,1)">
            <g
               id="g3832"
               style="opacity:0.1">
              <!-- color: #f6b953 -->
              <g
                 id="g3834">
                <path
                   id="path3836"
                   d="m 34.11,30.559 c -1.309,-0.031 -2.32,0.102 -3.168,0.465 -0.246,0.102 -0.637,0.102 -0.672,0.418 0.133,0.133 0.148,0.348 0.262,0.531 0.195,0.332 0.539,0.781 0.852,1.016 0.34,0.266 0.684,0.531 1.043,0.762 0.637,0.402 1.355,0.633 1.977,1.031 0.359,0.234 0.719,0.535 1.078,0.781 0.18,0.133 0.293,0.352 0.523,0.434 0,-0.016 0,-0.031 0,-0.051 -0.113,-0.148 -0.148,-0.363 -0.262,-0.531 -0.164,-0.168 -0.328,-0.316 -0.488,-0.48 -0.477,-0.648 -1.063,-1.215 -1.695,-1.68 -0.523,-0.367 -1.668,-0.867 -1.879,-1.48 0,0 -0.02,-0.016 -0.035,-0.035 0.359,-0.023 0.785,-0.164 1.129,-0.266 0.555,-0.148 1.066,-0.117 1.633,-0.266 0.266,-0.066 0.523,-0.148 0.781,-0.23 0,-0.051 0,-0.102 0,-0.152 -0.293,-0.297 -0.504,-0.691 -0.816,-0.977 -0.832,-0.73 -1.742,-1.445 -2.688,-2.043 -0.508,-0.332 -1.16,-0.551 -1.699,-0.832 -0.195,-0.105 -0.523,-0.152 -0.637,-0.316 -0.293,-0.367 -0.457,-0.848 -0.668,-1.277 -0.477,-0.914 -0.934,-1.934 -1.34,-2.895 -0.293,-0.645 -0.477,-1.297 -0.832,-1.895 -1.688,-2.824 -3.516,-4.539 -6.32,-6.219 -0.602,-0.352 -1.32,-0.5 -2.09,-0.684 -0.406,-0.016 -0.816,-0.051 -1.227,-0.066 -0.262,-0.113 -0.52,-0.434 -0.75,-0.582 -0.934,-0.598 -3.332,-1.895 -4.02,-0.184 -0.441,1.082 0.656,2.148 1.031,2.695 0.273,0.383 0.637,0.813 0.832,1.246 0.109,0.277 0.145,0.582 0.262,0.883 0.262,0.727 0.504,1.543 0.848,2.227 0.184,0.352 0.375,0.715 0.605,1.031 0.129,0.184 0.355,0.266 0.406,0.566 -0.23,0.332 -0.242,0.824 -0.375,1.242 -0.59,1.883 -0.359,4.207 0.473,5.59 0.262,0.41 0.883,1.324 1.715,0.977 0.734,-0.301 0.57,-1.246 0.785,-2.078 0.047,-0.199 0.016,-0.332 0.113,-0.465 0,0.016 0,0.031 0,0.031 0.227,0.465 0.457,0.914 0.668,1.383 0.508,0.813 1.391,1.66 2.125,2.227 0.391,0.305 0.695,0.816 1.188,0.996 0,-0.016 0,-0.023 0,-0.051 -0.016,0 -0.016,0 -0.035,0 -0.098,-0.145 -0.234,-0.215 -0.375,-0.332 -0.293,-0.297 -0.609,-0.664 -0.848,-0.996 -0.688,-0.93 -1.289,-1.961 -1.828,-3.03 -0.262,-0.516 -0.492,-1.078 -0.703,-1.594 -0.098,-0.199 -0.098,-0.5 -0.262,-0.598 -0.242,0.363 -0.602,0.68 -0.781,1.129 -0.313,0.715 -0.344,1.598 -0.457,2.512 -0.063,0.016 -0.035,0 -0.063,0.031 -0.523,-0.133 -0.703,-0.68 -0.898,-1.148 -0.488,-1.18 -0.566,-3.074 -0.145,-4.438 0.113,-0.348 0.602,-1.445 0.406,-1.777 -0.098,-0.316 -0.426,-0.5 -0.602,-0.75 -0.211,-0.316 -0.441,-0.715 -0.586,-1.063 -0.398,-0.941 -0.59,-1.965 -1.012,-2.898 -0.199,-0.434 -0.539,-0.883 -0.816,-1.277 -0.313,-0.449 -0.656,-0.766 -0.898,-1.301 -0.082,-0.184 -0.195,-0.477 -0.066,-0.68 0.031,-0.133 0.098,-0.184 0.23,-0.219 0.211,-0.184 0.816,0.051 1.027,0.148 0.602,0.25 1.109,0.48 1.617,0.832 0.227,0.164 0.473,0.48 0.766,0.566 0.113,0 0.23,0 0.344,0 0.523,0.117 1.109,0.035 1.602,0.184 0.863,0.285 1.648,0.699 2.348,1.148 2.141,1.379 3.902,3.34 5.094,5.688 0.199,0.383 0.277,0.73 0.457,1.133 0.344,0.813 0.77,1.645 1.113,2.441 0.34,0.781 0.668,1.578 1.156,2.23 0.246,0.348 1.227,0.523 1.668,0.715 0.324,0.145 0.832,0.281 1.125,0.465 0.555,0.348 1.109,0.75 1.633,1.133 0.262,0.199 1.078,0.613 1.125,0.945 m 0.004,0"
                   inkscape:connector-curvature="0"
                   style="fill:#000000;fill-opacity:1;fill-rule:nonzero;stroke:none" />
                <path
                   id="path3838"
                   d="m 17.453,16.11 c -0.277,0 -0.473,0.035 -0.668,0.086 0,0 0,0.016 0,0.031 0.016,0 0.016,0 0.031,0 0.133,0.266 0.359,0.449 0.523,0.684 0.133,0.266 0.246,0.531 0.375,0.797 0.016,-0.016 0.035,-0.031 0.035,-0.031 0.227,-0.168 0.34,-0.434 0.34,-0.832 -0.098,-0.117 -0.113,-0.234 -0.195,-0.352 -0.098,-0.164 -0.309,-0.25 -0.441,-0.383 m 0,0"
                   inkscape:connector-curvature="0"
                   style="fill:#000000;fill-opacity:1;fill-rule:nonzero;stroke:none" />
              </g>
            </g>
          </g>
        </g>
      </g>
      <g
         transform="translate(1.0008472,1005.3578)"
         id="g3840">
        <g
           id="g3842"
           clip-path="url(#clipPath-136761220)">
          <!-- color: #f6b953 -->
          <g
             id="g3844">
            <path
               id="path3846"
               d="m 34.11,30.559 c -1.309,-0.031 -2.32,0.102 -3.168,0.465 -0.246,0.102 -0.637,0.102 -0.672,0.418 0.133,0.133 0.148,0.348 0.262,0.531 0.195,0.332 0.539,0.781 0.852,1.016 0.34,0.266 0.684,0.531 1.043,0.762 0.637,0.402 1.355,0.633 1.977,1.031 0.359,0.234 0.719,0.535 1.078,0.781 0.18,0.133 0.293,0.352 0.523,0.434 0,-0.016 0,-0.031 0,-0.051 -0.113,-0.148 -0.148,-0.363 -0.262,-0.531 -0.164,-0.168 -0.328,-0.316 -0.488,-0.48 -0.477,-0.648 -1.063,-1.215 -1.695,-1.68 -0.523,-0.367 -1.668,-0.867 -1.879,-1.48 0,0 -0.02,-0.016 -0.035,-0.035 0.359,-0.023 0.785,-0.164 1.129,-0.266 0.555,-0.148 1.066,-0.117 1.633,-0.266 0.266,-0.066 0.523,-0.148 0.781,-0.23 0,-0.051 0,-0.102 0,-0.152 -0.293,-0.297 -0.504,-0.691 -0.816,-0.977 -0.832,-0.73 -1.742,-1.445 -2.688,-2.043 -0.508,-0.332 -1.16,-0.551 -1.699,-0.832 -0.195,-0.105 -0.523,-0.152 -0.637,-0.316 -0.293,-0.367 -0.457,-0.848 -0.668,-1.277 -0.477,-0.914 -0.934,-1.934 -1.34,-2.895 -0.293,-0.645 -0.477,-1.297 -0.832,-1.895 -1.688,-2.824 -3.516,-4.539 -6.32,-6.219 -0.602,-0.352 -1.32,-0.5 -2.09,-0.684 -0.406,-0.016 -0.816,-0.051 -1.227,-0.066 -0.262,-0.113 -0.52,-0.434 -0.75,-0.582 -0.934,-0.598 -3.332,-1.895 -4.02,-0.184 -0.441,1.082 0.656,2.148 1.031,2.695 0.273,0.383 0.637,0.813 0.832,1.246 0.109,0.277 0.145,0.582 0.262,0.883 0.262,0.727 0.504,1.543 0.848,2.227 0.184,0.352 0.375,0.715 0.605,1.031 0.129,0.184 0.355,0.266 0.406,0.566 -0.23,0.332 -0.242,0.824 -0.375,1.242 -0.59,1.883 -0.359,4.207 0.473,5.59 0.262,0.41 0.883,1.324 1.715,0.977 0.734,-0.301 0.57,-1.246 0.785,-2.078 0.047,-0.199 0.016,-0.332 0.113,-0.465 0,0.016 0,0.031 0,0.031 0.227,0.465 0.457,0.914 0.668,1.383 0.508,0.813 1.391,1.66 2.125,2.227 0.391,0.305 0.695,0.816 1.188,0.996 0,-0.016 0,-0.023 0,-0.051 -0.016,0 -0.016,0 -0.035,0 -0.098,-0.145 -0.234,-0.215 -0.375,-0.332 -0.293,-0.297 -0.609,-0.664 -0.848,-0.996 -0.688,-0.93 -1.289,-1.961 -1.828,-3.03 -0.262,-0.516 -0.492,-1.078 -0.703,-1.594 -0.098,-0.199 -0.098,-0.5 -0.262,-0.598 -0.242,0.363 -0.602,0.68 -0.781,1.129 -0.313,0.715 -0.344,1.598 -0.457,2.512 -0.063,0.016 -0.035,0 -0.063,0.031 -0.523,-0.133 -0.703,-0.68 -0.898,-1.148 -0.488,-1.18 -0.566,-3.074 -0.145,-4.438 0.113,-0.348 0.602,-1.445 0.406,-1.777 -0.098,-0.316 -0.426,-0.5 -0.602,-0.75 -0.211,-0.316 -0.441,-0.715 -0.586,-1.063 -0.398,-0.941 -0.59,-1.965 -1.012,-2.898 -0.199,-0.434 -0.539,-0.883 -0.816,-1.277 -0.313,-0.449 -0.656,-0.766 -0.898,-1.301 -0.082,-0.184 -0.195,-0.477 -0.066,-0.68 0.031,-0.133 0.098,-0.184 0.23,-0.219 0.211,-0.184 0.816,0.051 1.027,0.148 0.602,0.25 1.109,0.48 1.617,0.832 0.227,0.164 0.473,0.48 0.766,0.566 0.113,0 0.23,0 0.344,0 0.523,0.117 1.109,0.035 1.602,0.184 0.863,0.285 1.648,0.699 2.348,1.148 2.141,1.379 3.902,3.34 5.094,5.688 0.199,0.383 0.277,0.73 0.457,1.133 0.344,0.813 0.77,1.645 1.113,2.441 0.34,0.781 0.668,1.578 1.156,2.23 0.246,0.348 1.227,0.523 1.668,0.715 0.324,0.145 0.832,0.281 1.125,0.465 0.555,0.348 1.109,0.75 1.633,1.133 0.262,0.199 1.078,0.613 1.125,0.945 m 0.004,0"
               inkscape:connector-curvature="0"
               style="fill:#005369;fill-opacity:1;fill-rule:nonzero;stroke:none" />
            <path
               id="path3848"
               d="m 17.453,16.11 c -0.277,0 -0.473,0.035 -0.668,0.086 0,0 0,0.016 0,0.031 0.016,0 0.016,0 0.031,0 0.133,0.266 0.359,0.449 0.523,0.684 0.133,0.266 0.246,0.531 0.375,0.797 0.016,-0.016 0.035,-0.031 0.035,-0.031 0.227,-0.168 0.34,-0.434 0.34,-0.832 -0.098,-0.117 -0.113,-0.234 -0.195,-0.352 -0.098,-0.164 -0.309,-0.25 -0.441,-0.383 m 0,0"
               inkscape:connector-curvature="0"
               style="fill:#005369;fill-opacity:1;fill-rule:nonzero;stroke:none" />
          </g>
        </g>
      </g>
    </g>
  </g>
</svg>
