<?xml version="1.0" encoding="UTF-8" standalone="no"?>
<!-- Created with Inkscape (http://www.inkscape.org/) -->

<svg
   xmlns:dc="http://purl.org/dc/elements/1.1/"
   xmlns:cc="http://creativecommons.org/ns#"
   xmlns:rdf="http://www.w3.org/1999/02/22-rdf-syntax-ns#"
   xmlns:svg="http://www.w3.org/2000/svg"
   xmlns="http://www.w3.org/2000/svg"
   xmlns:xlink="http://www.w3.org/1999/xlink"
   xmlns:sodipodi="http://sodipodi.sourceforge.net/DTD/sodipodi-0.dtd"
   xmlns:inkscape="http://www.inkscape.org/namespaces/inkscape"
   width="48"
   height="48"
   id="svg2"
   version="1.1"
   inkscape:version="0.48.4 r9939"
   sodipodi:docname="nero-linux-express.svg">
  <defs
     id="defs4">
    <linearGradient
       id="linearGradient3768">
      <stop
         style="stop-color:#f59731;stop-opacity:1;"
         offset="0"
         id="stop3770" />
      <stop
         style="stop-color:#d9760a;stop-opacity:1"
         offset="1"
         id="stop3772" />
    </linearGradient>
    <linearGradient
       inkscape:collect="always"
       xlink:href="#linearGradient3768"
       id="linearGradient3774"
       x1="24"
       y1="1050.3622"
       x2="24"
       y2="1006.3622"
       gradientUnits="userSpaceOnUse"
       gradientTransform="matrix(1,0,0,-1,0,2056.7244)" />
    <clipPath
       id="clipPath-339667696-5">
      <g
         id="g3973"
         transform="translate(0,-1004.3622)">
        <path
           id="path3975"
           fill="#1890d0"
           transform="matrix(15.333333,0,0,11.5,414.99999,878.8622)"
           d="m -24 13 c 0 1.105 -0.672 2 -1.5 2 -0.828 0 -1.5 -0.895 -1.5 -2 0 -1.105 0.672 -2 1.5 -2 0.828 0 1.5 0.895 1.5 2 z" />
      </g>
    </clipPath>
  </defs>
  <sodipodi:namedview
     id="base"
     pagecolor="#ffffff"
     bordercolor="#666666"
     borderopacity="1.0"
     inkscape:pageopacity="0.0"
     inkscape:pageshadow="2"
     inkscape:zoom="11.583333"
     inkscape:cx="13.559997"
     inkscape:cy="24.880381"
     inkscape:document-units="px"
     inkscape:current-layer="layer1"
     showgrid="true"
     inkscape:snap-bbox="true"
     inkscape:window-width="1301"
     inkscape:window-height="744"
     inkscape:window-x="65"
     inkscape:window-y="24"
     inkscape:window-maximized="1"
     inkscape:object-nodes="true"
     showguides="true"
     inkscape:guide-bbox="true"
     inkscape:snap-nodes="false"
     inkscape:snap-global="true">
    <inkscape:grid
       type="xygrid"
       id="grid3003"
       empspacing="6"
       visible="true"
       enabled="true"
       snapvisiblegridlinesonly="true" />
  </sodipodi:namedview>
  <metadata
     id="metadata7">
    <rdf:RDF>
      <cc:Work
         rdf:about="">
        <dc:format>image/svg+xml</dc:format>
        <dc:type
           rdf:resource="http://purl.org/dc/dcmitype/StillImage" />
        <dc:title />
      </cc:Work>
    </rdf:RDF>
  </metadata>
  <g
     inkscape:label="Layer 1"
     inkscape:groupmode="layer"
     id="layer1"
     transform="translate(0,-1004.3622)">
    <path
       id="path3788"
       d="m 24,1051.1116 c -21.2715315,0 -23.66257505,-0.089 -23.9375,-15.4063 0.328125,14.4033 2.9375,14.4063 23.9375,14.4063 21,0 23.609375,0 23.9375,-14.4063 -0.274925,15.3174 -2.665968,15.4063 -23.9375,15.4063 z"
       style="opacity:0.20000000000000001;fill:#ffffff;fill-opacity:1;stroke:none"
       inkscape:connector-curvature="0" />
    <path
       style="fill:url(#linearGradient3774);fill-opacity:1;stroke:none"
       d="m 24,1050.3622 c -24,0 -24,0 -24,-22 0,-22 0,-22 24,-22 24,0 24,0 24,22 0,22 0,22 -24,22 z"
       id="path3757"
       inkscape:connector-curvature="0"
       sodipodi:nodetypes="zzzzz" />
    <path
       style="fill:#000000;fill-opacity:1;stroke:none;opacity:0.20000000000000001"
       d="M 24 2 C 2.7284685 2 0.33742495 2.0888436 0.0625 17.40625 C 0.390625 3.0029297 3 3 24 3 C 45 3 47.609375 3.0029297 47.9375 17.40625 C 47.662575 2.0888436 45.271532 2 24 2 z "
       transform="translate(0,1004.3622)"
       id="path3770" />
    <g
       id="g3813"
       transform="translate(-47.998,993.3622)" />
    <g
       id="g3038"
       transform="translate(-50.335,1008.7072)" />
    <g
       id="g3041"
       transform="translate(-51.97,1003.7612)" />
    <g
       id="g3026"
       transform="translate(-56.532,1001.6102)" />
    <path
       style="font-size:medium;font-style:normal;font-variant:normal;font-weight:normal;font-stretch:normal;text-indent:0;text-align:start;text-decoration:none;line-height:normal;letter-spacing:normal;word-spacing:normal;text-transform:none;direction:ltr;block-progression:tb;writing-mode:lr-tb;text-anchor:start;baseline-shift:baseline;color:#000000;fill:#f0f0f0;fill-opacity:1;stroke:none;stroke-width:2;marker:none;visibility:visible;display:inline;overflow:visible;enable-background:accumulate;font-family:Sans;-inkscape-font-specification:Sans;opacity:0.41152263"
       d="M 24 9 C 17.855411 9 12.566015 12.700427 10.25 18 L 12.46875 18 C 14.635738 13.844842 18.980095 11 24 11 C 29.019905 11 33.364262 13.844842 35.53125 18 L 37.75 18 C 35.433985 12.700427 30.144589 9 24 9 z M 24 13 C 20.132541 13 16.742025 14.989782 14.78125 18 L 16 18 C 17.819896 15.573182 20.714205 14 24 14 C 27.285795 14 30.180104 15.573182 32 18 L 33.21875 18 C 31.257975 14.989782 27.867459 13 24 13 z M 10.25 30 C 12.566015 35.299573 17.855411 39 24 39 C 30.144589 39 35.433985 35.299573 37.75 30 L 35.53125 30 C 33.364262 34.155158 29.019905 37 24 37 C 18.980095 37 14.635738 34.155158 12.46875 30 L 10.25 30 z M 14.78125 30 C 16.742025 33.010218 20.132541 35 24 35 C 27.867459 35 31.257975 33.010218 33.21875 30 L 32 30 C 30.180104 32.426818 27.285795 34 24 34 C 20.714205 34 17.819896 32.426818 16 30 L 14.78125 30 z "
       transform="translate(0,1004.3622)"
       id="path3029" />
    <g
       id="g3989"
       transform="translate(-63.858,1000.7492)" />
    <g
       transform="translate(0.98588777,1005.3592)"
       id="g4084"
       style="opacity:0.1;fill:#000000;fill-opacity:1">
      <g
         id="g4086"
         clip-path="url(#clipPath-339667696-5)"
         style="fill:#000000;fill-opacity:1">
        <!-- color: #e87e0b -->
        <g
           id="g4088"
           style="fill:#000000;fill-opacity:1">
          <path
             id="path4090"
             d="m 20.84,27.984 c -1.02,-0.074 -1.844,-0.387 -2.516,-0.945 -0.301,-0.25 -0.625,-0.648 -0.816,-1 -0.047,-0.082 -0.105,-0.16 -0.113,-0.172 l 0,1.949 -2.867,0 -0.008,-2.25 c -0.008,-2.332 -0.008,-2.445 -0.074,-2.727 -0.117,-0.512 -0.539,-0.707 -0.984,-0.707 -0.516,-0.016 -0.906,0.211 -1.137,0.73 -0.098,0.277 -0.09,0.121 -0.098,2.645 l -0.004,2.313 -2.879,0 C 9.301,25.695 9.387,23.57 9.309,21.453 9.278,21.109 9.211,20.824 9.075,20.422 l -0.074,-0.227 2.801,0.012 0.07,0.156 c 0.043,0.094 0.082,0.215 0.098,0.293 0.016,0.074 0.031,0.141 0.039,0.141 0.008,0 0.102,-0.07 0.215,-0.145 0.43,-0.313 0.871,-0.492 1.43,-0.578 0.297,-0.047 1.043,-0.043 1.355,0.008 0.688,0.117 1.25,0.375 1.68,0.777 0.313,0.297 0.539,0.754 0.641,1.289 l 0.035,0.191 0.074,-0.148 c 0.141,-0.293 0.313,-0.543 0.543,-0.797 0.688,-0.77 1.637,-1.219 2.859,-1.359 0.281,-0.031 1.027,-0.031 1.324,0.004 0.621,0.078 1.137,0.234 1.602,0.496 0.367,0.207 0.641,0.426 0.93,0.742 0.27,0.297 0.504,0.668 0.66,1.02 l 0.055,0.121 0,-0.355 c 0,-0.75 -0.035,-1.164 -0.141,-1.598 l -0.066,-0.277 2.832,0.023 0.035,0.129 c 0.059,0.195 0.102,0.449 0.113,0.664 l 0.012,0.199 0.102,-0.148 c 0.336,-0.492 0.75,-0.797 1.27,-0.938 0.25,-0.07 0.477,-0.09 0.82,-0.082 0.289,0.004 0.477,0.035 0.809,0.121 l 0.086,0.02 c 0,0.301 0,0.605 0,0.906 0.004,0 0.078,-0.043 0.141,-0.09 1.074,-0.832 2.613,-1.172 4.07,-0.902 0.805,0.148 1.563,0.484 2.137,0.949 0.996,0.805 1.488,2.02 1.363,3.379 -0.086,0.93 -0.488,1.762 -1.156,2.375 -0.883,0.813 -2.145,1.246 -3.523,1.207 -0.898,-0.027 -1.66,-0.227 -2.363,-0.625 -0.574,-0.316 -1.063,-0.785 -1.426,-1.359 -0.645,-1.043 -0.73,-2.445 -0.219,-3.613 0.039,-0.094 0.074,-0.172 0.074,-0.176 -0.289,-0.105 -0.598,-0.102 -0.887,-0.035 -0.18,0.059 -0.293,0.121 -0.449,0.25 -0.375,0.305 -0.598,0.75 -0.688,1.398 -0.051,0.34 -0.059,0.668 -0.059,2.32 l 0,1.66 -2.875,0 0,-1.855 -0.086,0.152 c -0.129,0.234 -0.277,0.438 -0.469,0.641 -0.684,0.734 -1.652,1.137 -2.949,1.23 -0.27,0.02 -0.797,0.02 -1.066,0 m 2.113,-2.559 2.457,0.047 0,-0.863 -5.566,0 0.012,0.113 c 0.008,0.063 0.027,0.184 0.047,0.27 0.137,0.578 0.547,0.938 1.199,1.051 0.734,0.074 1.348,0.035 1.852,-0.617 m 12.293,0.445 c 0.473,-0.316 0.762,-0.914 0.816,-1.688 0.039,-0.563 -0.09,-1.156 -0.352,-1.566 -0.082,-0.137 -0.266,-0.336 -0.371,-0.414 -0.383,-0.285 -0.852,-0.32 -1.297,-0.219 -0.688,0.227 -1.105,0.922 -1.141,1.887 -0.023,0.707 0.156,1.313 0.52,1.719 0.23,0.254 0.434,0.379 0.754,0.453 0.363,0.063 0.738,0.016 1.07,-0.172 M 22.737,22.934 C 22.76,22.907 22.671,22.571 22.6,22.422 22.526,22.27 22.338,22.09 22.159,21.996 c -0.523,-0.273 -1.313,-0.219 -1.754,0.117 -0.223,0.176 -0.398,0.445 -0.492,0.77 l -0.02,0.074 1.414,-0.008 c 0.781,-0.004 1.422,-0.012 1.43,-0.016 m 0,0"
             inkscape:connector-curvature="0"
             style="fill:#000000;fill-opacity:1;fill-rule:nonzero;stroke:none" />
        </g>
      </g>
    </g>
    <g
       id="g4003"
       transform="translate(-10e-4,1004.3632)">
      <g
         clip-path="url(#clipPath-339667696-5)"
         id="g4005">
        <!-- color: #e87e0b -->
        <g
           id="g4007">
          <path
             style="fill:#f9f9f9;fill-opacity:1;fill-rule:nonzero;stroke:none"
             inkscape:connector-curvature="0"
             d="m 20.84,27.984 c -1.02,-0.074 -1.844,-0.387 -2.516,-0.945 -0.301,-0.25 -0.625,-0.648 -0.816,-1 -0.047,-0.082 -0.105,-0.16 -0.113,-0.172 l 0,1.949 -2.867,0 -0.008,-2.25 c -0.008,-2.332 -0.008,-2.445 -0.074,-2.727 -0.117,-0.512 -0.539,-0.707 -0.984,-0.707 -0.516,-0.016 -0.906,0.211 -1.137,0.73 -0.098,0.277 -0.09,0.121 -0.098,2.645 l -0.004,2.313 -2.879,0 C 9.301,25.695 9.387,23.57 9.309,21.453 9.278,21.109 9.211,20.824 9.075,20.422 l -0.074,-0.227 2.801,0.012 0.07,0.156 c 0.043,0.094 0.082,0.215 0.098,0.293 0.016,0.074 0.031,0.141 0.039,0.141 0.008,0 0.102,-0.07 0.215,-0.145 0.43,-0.313 0.871,-0.492 1.43,-0.578 0.297,-0.047 1.043,-0.043 1.355,0.008 0.688,0.117 1.25,0.375 1.68,0.777 0.313,0.297 0.539,0.754 0.641,1.289 l 0.035,0.191 0.074,-0.148 c 0.141,-0.293 0.313,-0.543 0.543,-0.797 0.688,-0.77 1.637,-1.219 2.859,-1.359 0.281,-0.031 1.027,-0.031 1.324,0.004 0.621,0.078 1.137,0.234 1.602,0.496 0.367,0.207 0.641,0.426 0.93,0.742 0.27,0.297 0.504,0.668 0.66,1.02 l 0.055,0.121 0,-0.355 c 0,-0.75 -0.035,-1.164 -0.141,-1.598 l -0.066,-0.277 2.832,0.023 0.035,0.129 c 0.059,0.195 0.102,0.449 0.113,0.664 l 0.012,0.199 0.102,-0.148 c 0.336,-0.492 0.75,-0.797 1.27,-0.938 0.25,-0.07 0.477,-0.09 0.82,-0.082 0.289,0.004 0.477,0.035 0.809,0.121 l 0.086,0.02 c 0,0.301 0,0.605 0,0.906 0.004,0 0.078,-0.043 0.141,-0.09 1.074,-0.832 2.613,-1.172 4.07,-0.902 0.805,0.148 1.563,0.484 2.137,0.949 0.996,0.805 1.488,2.02 1.363,3.379 -0.086,0.93 -0.488,1.762 -1.156,2.375 -0.883,0.813 -2.145,1.246 -3.523,1.207 -0.898,-0.027 -1.66,-0.227 -2.363,-0.625 -0.574,-0.316 -1.063,-0.785 -1.426,-1.359 -0.645,-1.043 -0.73,-2.445 -0.219,-3.613 0.039,-0.094 0.074,-0.172 0.074,-0.176 -0.289,-0.105 -0.598,-0.102 -0.887,-0.035 -0.18,0.059 -0.293,0.121 -0.449,0.25 -0.375,0.305 -0.598,0.75 -0.688,1.398 -0.051,0.34 -0.059,0.668 -0.059,2.32 l 0,1.66 -2.875,0 0,-1.855 -0.086,0.152 c -0.129,0.234 -0.277,0.438 -0.469,0.641 -0.684,0.734 -1.652,1.137 -2.949,1.23 -0.27,0.02 -0.797,0.02 -1.066,0 m 2.113,-2.559 2.457,0.047 0,-0.863 -5.566,0 0.012,0.113 c 0.008,0.063 0.027,0.184 0.047,0.27 0.137,0.578 0.547,0.938 1.199,1.051 0.734,0.074 1.348,0.035 1.852,-0.617 m 12.293,0.445 c 0.473,-0.316 0.762,-0.914 0.816,-1.688 0.039,-0.563 -0.09,-1.156 -0.352,-1.566 -0.082,-0.137 -0.266,-0.336 -0.371,-0.414 -0.383,-0.285 -0.852,-0.32 -1.297,-0.219 -0.688,0.227 -1.105,0.922 -1.141,1.887 -0.023,0.707 0.156,1.313 0.52,1.719 0.23,0.254 0.434,0.379 0.754,0.453 0.363,0.063 0.738,0.016 1.07,-0.172 M 22.737,22.934 C 22.76,22.907 22.671,22.571 22.6,22.422 22.526,22.27 22.338,22.09 22.159,21.996 c -0.523,-0.273 -1.313,-0.219 -1.754,0.117 -0.223,0.176 -0.398,0.445 -0.492,0.77 l -0.02,0.074 1.414,-0.008 c 0.781,-0.004 1.422,-0.012 1.43,-0.016 m 0,0"
             id="path4009" />
        </g>
      </g>
    </g>
  </g>
</svg>
