<?xml version="1.0" encoding="UTF-8" standalone="no"?>
<!-- Created with Inkscape (http://www.inkscape.org/) -->

<svg
   xmlns:dc="http://purl.org/dc/elements/1.1/"
   xmlns:cc="http://creativecommons.org/ns#"
   xmlns:rdf="http://www.w3.org/1999/02/22-rdf-syntax-ns#"
   xmlns:svg="http://www.w3.org/2000/svg"
   xmlns="http://www.w3.org/2000/svg"
   xmlns:xlink="http://www.w3.org/1999/xlink"
   xmlns:sodipodi="http://sodipodi.sourceforge.net/DTD/sodipodi-0.dtd"
   xmlns:inkscape="http://www.inkscape.org/namespaces/inkscape"
   width="48"
   height="48"
   id="svg2"
   version="1.1"
   inkscape:version="0.48.4 r9939"
   sodipodi:docname="nvidia.svg">
  <defs
     id="defs4">
    <linearGradient
       id="linearGradient3761">
      <stop
         style="stop-color:#000000;stop-opacity:1;"
         offset="0"
         id="stop3763" />
      <stop
         style="stop-color:#ffffff;stop-opacity:1;"
         offset="1"
         id="stop3765" />
    </linearGradient>
    <linearGradient
       inkscape:collect="always"
       xlink:href="#linearGradient3761"
       id="linearGradient3767"
       x1="24"
       y1="46"
       x2="24"
       y2="2"
       gradientUnits="userSpaceOnUse"
       gradientTransform="translate(0,1004.3622)" />
    <linearGradient
       gradientUnits="userSpaceOnUse"
       y2="96"
       x2="96"
       y1="24"
       x1="24"
       id="linearGradient4132"
       xlink:href="#linearGradient4126"
       inkscape:collect="always" />
    <linearGradient
       id="linearGradient4126"
       inkscape:collect="always">
      <stop
         id="stop4128"
         offset="0"
         style="stop-color:#000000;stop-opacity:1;" />
      <stop
         id="stop4130"
         offset="1"
         style="stop-color:#000000;stop-opacity:0;" />
    </linearGradient>
  </defs>
  <sodipodi:namedview
     id="base"
     pagecolor="#ffffff"
     bordercolor="#666666"
     borderopacity="1.0"
     inkscape:pageopacity="0.0"
     inkscape:pageshadow="2"
     inkscape:zoom="2.0476634"
     inkscape:cx="-123.75236"
     inkscape:cy="-22.190782"
     inkscape:document-units="px"
     inkscape:current-layer="layer1"
     showgrid="true"
     inkscape:snap-bbox="true"
     inkscape:window-width="1301"
     inkscape:window-height="744"
     inkscape:window-x="65"
     inkscape:window-y="24"
     inkscape:window-maximized="1">
    <inkscape:grid
       type="xygrid"
       id="grid2985"
       empspacing="6"
       visible="true"
       enabled="true"
       snapvisiblegridlinesonly="true" />
  </sodipodi:namedview>
  <metadata
     id="metadata7">
    <rdf:RDF>
      <cc:Work
         rdf:about="">
        <dc:format>image/svg+xml</dc:format>
        <dc:type
           rdf:resource="http://purl.org/dc/dcmitype/StillImage" />
        <dc:title />
      </cc:Work>
    </rdf:RDF>
  </metadata>
  <g
     inkscape:label="Layer 1"
     inkscape:groupmode="layer"
     id="layer1"
     transform="translate(0,-1004.3622)">
    <path
       id="path3788"
       d="m 24,1051.1116 c -21.2715315,0 -23.66257505,-0.089 -23.9375,-15.4063 0.328125,14.4033 2.9375,14.4063 23.9375,14.4063 21,0 23.609375,0 23.9375,-14.4063 -0.274925,15.3174 -2.665968,15.4063 -23.9375,15.4063 z"
       style="opacity:0.20000000000000001;fill:#ffffff;fill-opacity:1;stroke:none"
       inkscape:connector-curvature="0" />
    <path
       style="fill:#81bd00;fill-opacity:1;stroke:none"
       d="m 45,43.25 c 0.75,-0.6875 1.328125,-1.5508 1.75,-2.625 0.421875,-1.0742 0.6875,-2.35945 0.875,-3.90625 C 48,33.62495 48,29.5 48,24 48,18.5 48,14.37495 47.625,11.28125 47.4375,9.73435 47.171875,8.4492 46.75,7.375 46.328125,6.3008 45.75,5.4375 45,4.75 44.25,4.0625 43.296875,3.54295 42.125,3.15625 40.953125,2.76945 39.5625,2.51555 37.875,2.34375 34.5,1.99995 30,2 24,2 18,2 13.5,1.99995 10.125,2.34375 8.4375,2.51545 7.046875,2.76945 5.875,3.15625 4.703125,3.54295 3.75,4.0625 3,4.75 L 11,29 z"
       id="path3014"
       transform="translate(0,1004.3622)"
       inkscape:connector-curvature="0"
       sodipodi:nodetypes="cssssssccsccccc" />
    <path
       id="path3897"
       d="M 34.590168,1038.1678 29.75,1033.7372 c -1.899129,0.4515 -3.746018,0.7188 -5.1875,0.7188 -0.351,0 -0.69525,-0.031 -1.03125,-0.062 -7.777,-0.734 -10.53125,-8.75 -10.53125,-8.75 0,0 1.790026,-1.7347 4.4375,-3.2188 l -3.518535,-3.224 L 8,1022.3622 l 9,16 z m -17.152668,-15.7431 1.125,1.0313 c 1.234447,-0.8022 2.876835,-1.5273 4.96875,-1.6875 0.125,-0.01 0.246,-0.027 0.375,-0.031 4.621,-0.145 7.65625,3.9688 7.65625,3.9688 0,0 -2.653251,3.6818 -5.75,4.4062 l 1.125,1 c 4.111144,-1.2722 7.5625,-5.4687 7.5625,-5.4687 0,0 -4.16375,-5.4963 -10.59375,-5.2813 -0.125,0 -0.25,0.023 -0.375,0.031 -2.244176,0.1798 -4.350292,1.0538 -6.09375,2.0312 z m 9.5,8.6875 c -0.731366,0.2263 -1.493338,0.375 -2.25,0.375 -0.414,0 -0.78925,-0.066 -1.15625,-0.125 -4.313,-0.77 -5.5,-5.25 -5.5,-5.25 0,0 0.680769,-0.7354 1.875,-1.4375 l -1.34375,-1.2187 c -1.778033,1.1553 -2.6875,2.4687 -2.6875,2.4687 0,0 1.94925,6.3153 7.65625,7.0313 0.305,0.037 0.6095,0.062 0.9375,0.062 1.395855,0 2.677683,-0.2172 3.875,-0.5938 z m 1.40625,1.3125 1.40625,1.3125 c 3.505189,-0.8334 7.23483,-2.3098 9.25,-4 -0.457,-0.461 -2.67575,-1.5025 -3.21875,-1.9375 -2.288752,1.9762 -4.633339,3.7431 -7.4375,4.625 z m -8.4375,-7.75 1.125,1.0313 c 0.455625,-0.3447 1.10375,-0.7225 1.84375,-0.8125 0.211,-0.023 0.42925,-0.027 0.65625,0 1.684,0.242 2.07,1.0897 3.125,2.8437 l 2.40625,-2.0312 c 0,0 -1.75775,-2.3125 -4.71875,-2.3125 -0.277,0 -0.5465,0.034 -0.8125,0.062 -1.495317,0.1612 -2.707197,0.6791 -3.625,1.2187 z m 1.125,1.0313 c -0.455625,0.3446 -0.71875,0.6562 -0.71875,0.6562 0,0 0.78475,2.8664 3.21875,3.6875 0.375,0.1155 0.793,0.1875 1.25,0.1875 0.345167,0 0.693615,-0.046 1.03125,-0.125 z"
       style="opacity:0.2;fill:#000000;fill-opacity:1;stroke:none"
       inkscape:connector-curvature="0"
       sodipodi:nodetypes="ccscccccccccccccccccccsccccccscccccccccccccscccccscc" />
    <path
       style="fill:#2d2d2d;fill-opacity:1;stroke:none"
       d="M 3 4.75 C 2.25 5.4375 1.671875 6.3008 1.25 7.375 C 0.828125 8.4492 0.5625 9.73425 0.375 11.28125 C 0 14.37495 0 18.5 0 24 C 0 29.5 0 33.62495 0.375 36.71875 C 0.5625 38.26555 0.828125 39.5508 1.25 40.625 C 1.671875 41.6992 2.25 42.5625 3 43.25 C 3.75 43.9375 4.703125 44.45695 5.875 44.84375 C 7.046875 45.23045 8.4375 45.48435 10.125 45.65625 C 13.5 45.99995 18 46 24 46 C 30 46 34.5 45.99995 37.875 45.65625 C 39.5625 45.48435 40.953125 45.23045 42.125 44.84375 C 43.296875 44.45695 44.25 43.9375 45 43.25 L 28.75 28.375 C 26.850871 28.826531 25.003982 29.09375 23.5625 29.09375 C 23.2115 29.09375 22.86725 29.06225 22.53125 29.03125 C 14.75425 28.29725 12 20.28125 12 20.28125 C 12 20.28125 13.790026 18.546649 16.4375 17.0625 L 3 4.75 z M 16.4375 17.0625 L 17.5625 18.09375 C 18.796947 17.291605 20.439335 16.566473 22.53125 16.40625 C 22.65625 16.39625 22.77725 16.379 22.90625 16.375 C 27.52725 16.23 30.5625 20.34375 30.5625 20.34375 C 30.5625 20.34375 27.909249 24.025638 24.8125 24.75 L 25.9375 25.75 C 30.048644 24.477767 33.5 20.28125 33.5 20.28125 C 33.5 20.28125 29.33625 14.785 22.90625 15 C 22.78125 15 22.65625 15.02325 22.53125 15.03125 C 20.287074 15.211118 18.180958 16.085133 16.4375 17.0625 z M 25.9375 25.75 C 25.206134 25.976328 24.444162 26.125 23.6875 26.125 C 23.2735 26.125 22.89825 26.059 22.53125 26 C 18.21825 25.23 17.03125 20.75 17.03125 20.75 C 17.03125 20.75 17.712019 20.014577 18.90625 19.3125 L 17.5625 18.09375 C 15.784467 19.249117 14.875 20.5625 14.875 20.5625 C 14.875 20.5625 16.82425 26.87775 22.53125 27.59375 C 22.83625 27.63075 23.14075 27.65625 23.46875 27.65625 C 24.864605 27.65625 26.146433 27.439059 27.34375 27.0625 L 25.9375 25.75 z M 27.34375 27.0625 L 28.75 28.375 C 32.255189 27.541617 35.98483 26.065227 38 24.375 C 37.543 23.914 35.32425 22.8725 34.78125 22.4375 C 32.492498 24.413703 30.147911 26.180585 27.34375 27.0625 z M 18.90625 19.3125 L 20.03125 20.34375 C 20.486875 19.999075 21.135 19.62125 21.875 19.53125 C 22.086 19.50825 22.30425 19.50425 22.53125 19.53125 C 24.21525 19.77325 24.60125 20.621 25.65625 22.375 L 28.0625 20.34375 C 28.0625 20.34375 26.30475 18.03125 23.34375 18.03125 C 23.06675 18.03125 22.79725 18.06575 22.53125 18.09375 C 21.035933 18.254971 19.824053 18.772932 18.90625 19.3125 z M 20.03125 20.34375 C 19.575625 20.688425 19.3125 21 19.3125 21 C 19.3125 21 20.09725 23.8664 22.53125 24.6875 C 22.90625 24.803 23.32425 24.875 23.78125 24.875 C 24.126417 24.875 24.474865 24.828976 24.8125 24.75 L 20.03125 20.34375 z "
       transform="translate(0,1004.3622)"
       id="path3773" />
    <path
       style="opacity:0.1;fill:url(#linearGradient3767);fill-opacity:1;stroke:none"
       d="m 24,1006.3622 c -6,0 -10.5,0 -13.875,0.3438 -1.6875,0.1717 -3.078125,0.4257 -4.25,0.8125 -1.171875,0.3867 -2.125,0.9062 -2.875,1.5937 -0.75,0.6875 -1.328125,1.5508 -1.75,2.625 -0.421875,1.0742 -0.6875,2.3592 -0.875,3.9063 C 0,1018.7372 0,1022.8622 0,1028.3622 c 0,5.5 0,9.625 0.375,12.7188 0.1875,1.5468 0.453125,2.832 0.875,3.9062 0.421875,1.0742 1,1.9375 1.75,2.625 0.75,0.6875 1.703125,1.207 2.875,1.5938 1.171875,0.3867 2.5625,0.6406 4.25,0.8125 3.375,0.3437 7.875,0.3437 13.875,0.3437 6,0 10.5,0 13.875,-0.3437 1.6875,-0.1719 3.07813,-0.4258 4.25,-0.8125 1.17188,-0.3868 2.125,-0.9063 2.875,-1.5938 0.75,-0.6875 1.32813,-1.5508 1.75,-2.625 0.42188,-1.0742 0.6875,-2.3594 0.875,-3.9062 0.375,-3.0938 0.375,-7.2188 0.375,-12.7188 0,-5.5 0,-9.625 -0.375,-12.7187 -0.1875,-1.547 -0.45312,-2.8321 -0.875,-3.9063 -0.42187,-1.0742 -1,-1.9375 -1.75,-2.625 -0.75,-0.6875 -1.70312,-1.207 -2.875,-1.5937 -1.17187,-0.3868 -2.5625,-0.6408 -4.25,-0.8125 C 34.5,1006.3622 30,1006.3622 24,1006.3622 z"
       id="path3756"
       inkscape:connector-curvature="0" />
    <path
       style="fill:#000000;fill-opacity:1;stroke:none;opacity:0.20000000000000001"
       d="M 24 2 C 2.7284685 2 0.33742495 2.0888436 0.0625 17.40625 C 0.390625 3.0029297 3 3 24 3 C 45 3 47.609375 3.0029297 47.9375 17.40625 C 47.662575 2.0888436 45.271532 2 24 2 z "
       transform="translate(0,1004.3622)"
       id="path3770" />
  </g>
</svg>
