<?xml version="1.0" encoding="UTF-8" standalone="no"?>
<!-- Created with Inkscape (http://www.inkscape.org/) -->

<svg
   xmlns:dc="http://purl.org/dc/elements/1.1/"
   xmlns:cc="http://creativecommons.org/ns#"
   xmlns:rdf="http://www.w3.org/1999/02/22-rdf-syntax-ns#"
   xmlns:svg="http://www.w3.org/2000/svg"
   xmlns="http://www.w3.org/2000/svg"
   xmlns:xlink="http://www.w3.org/1999/xlink"
   xmlns:sodipodi="http://sodipodi.sourceforge.net/DTD/sodipodi-0.dtd"
   xmlns:inkscape="http://www.inkscape.org/namespaces/inkscape"
   width="48"
   height="48"
   id="svg2"
   version="1.1"
   inkscape:version="0.48.4 r9939"
   sodipodi:docname="oolite-logo1.svg">
  <defs
     id="defs4">
    <linearGradient
       id="linearGradient3776">
      <stop
         style="stop-color:#e53935;stop-opacity:1;"
         offset="0"
         id="stop3778" />
      <stop
         style="stop-color:#e85350;stop-opacity:1;"
         offset="1"
         id="stop3780" />
    </linearGradient>
    <linearGradient
       id="linearGradient3779">
      <stop
         style="stop-color:#000000;stop-opacity:1;"
         offset="0"
         id="stop3781" />
      <stop
         style="stop-color:#ffffff;stop-opacity:1;"
         offset="1"
         id="stop3783" />
    </linearGradient>
    <linearGradient
       inkscape:collect="always"
       xlink:href="#linearGradient3779"
       id="linearGradient3795"
       gradientUnits="userSpaceOnUse"
       gradientTransform="translate(-20,0)"
       spreadMethod="repeat"
       x1="24"
       y1="1028.3622"
       x2="45"
       y2="1007.3622" />
    <linearGradient
       inkscape:collect="always"
       xlink:href="#linearGradient3779"
       id="linearGradient3797"
       gradientUnits="userSpaceOnUse"
       gradientTransform="translate(-20,0)"
       spreadMethod="repeat"
       x1="44"
       y1="1048.3622"
       x2="15"
       y2="1019.3622" />
    <linearGradient
       inkscape:collect="always"
       xlink:href="#linearGradient3776"
       id="linearGradient3782"
       x1="24"
       y1="1050.3622"
       x2="24"
       y2="1006.3622"
       gradientUnits="userSpaceOnUse" />
    <linearGradient
       gradientUnits="userSpaceOnUse"
       y2="12"
       x2="84"
       y1="96"
       x1="0"
       id="linearGradient4000"
       xlink:href="#linearGradient3994"
       inkscape:collect="always" />
    <linearGradient
       gradientUnits="userSpaceOnUse"
       y2="78"
       x2="90"
       y1="30"
       x1="42"
       id="linearGradient3986"
       xlink:href="#linearGradient3980"
       inkscape:collect="always" />
    <linearGradient
       id="linearGradient3980"
       inkscape:collect="always">
      <stop
         id="stop3982"
         offset="0"
         style="stop-color:#000000;stop-opacity:1;" />
      <stop
         id="stop3984"
         offset="1"
         style="stop-color:#000000;stop-opacity:0;" />
    </linearGradient>
    <linearGradient
       id="linearGradient3994"
       inkscape:collect="always">
      <stop
         id="stop3996"
         offset="0"
         style="stop-color:#000000;stop-opacity:1;" />
      <stop
         id="stop3998"
         offset="1"
         style="stop-color:#000000;stop-opacity:0;" />
    </linearGradient>
    <linearGradient
       inkscape:collect="always"
       xlink:href="#linearGradient3980"
       id="linearGradient3043"
       gradientUnits="userSpaceOnUse"
       x1="42"
       y1="30"
       x2="90"
       y2="78"
       gradientTransform="translate(-108.9231,989.58925)" />
    <linearGradient
       inkscape:collect="always"
       xlink:href="#linearGradient3994"
       id="linearGradient3048"
       gradientUnits="userSpaceOnUse"
       x1="0"
       y1="96"
       x2="84"
       y2="12"
       gradientTransform="translate(-108.9231,989.58925)" />
  </defs>
  <sodipodi:namedview
     id="base"
     pagecolor="#ffffff"
     bordercolor="#666666"
     borderopacity="1.0"
     inkscape:pageopacity="0.0"
     inkscape:pageshadow="2"
     inkscape:zoom="8.1906536"
     inkscape:cx="10.060221"
     inkscape:cy="10.968277"
     inkscape:document-units="px"
     inkscape:current-layer="layer1"
     showgrid="true"
     inkscape:snap-bbox="true"
     inkscape:window-width="1301"
     inkscape:window-height="744"
     inkscape:window-x="65"
     inkscape:window-y="24"
     inkscape:window-maximized="1">
    <inkscape:grid
       type="xygrid"
       id="grid2985"
       empspacing="6"
       visible="true"
       enabled="true"
       snapvisiblegridlinesonly="true" />
  </sodipodi:namedview>
  <metadata
     id="metadata7">
    <rdf:RDF>
      <cc:Work
         rdf:about="">
        <dc:format>image/svg+xml</dc:format>
        <dc:type
           rdf:resource="http://purl.org/dc/dcmitype/StillImage" />
        <dc:title />
      </cc:Work>
    </rdf:RDF>
  </metadata>
  <g
     inkscape:label="Layer 1"
     inkscape:groupmode="layer"
     id="layer1"
     transform="translate(0,-1004.3622)">
    <path
       id="path3788"
       d="m 24,1051.1116 c -21.2715315,0 -23.66257505,-0.089 -23.9375,-15.4063 0.328125,14.4033 2.9375,14.4063 23.9375,14.4063 21,0 23.609375,0 23.9375,-14.4063 -0.274925,15.3174 -2.665968,15.4063 -23.9375,15.4063 z"
       style="opacity:0.20000000000000001;fill:#ffffff;fill-opacity:1;stroke:none"
       inkscape:connector-curvature="0" />
    <path
       style="fill:url(#linearGradient3782);fill-opacity:1;stroke:none"
       d="m 24,1006.3622 c -24,0 -24,0 -24,22 0,22 0,22 24,22 24,0 24,0 24,-22 0,-22 0,-22 -24,-22 z"
       id="path3757"
       inkscape:connector-curvature="0"
       sodipodi:nodetypes="zzzzz" />
    <g
       id="g3791"
       transform="translate(20,0)">
      <path
         style="opacity:0.02999998;fill:url(#linearGradient3795);fill-opacity:1;stroke:none"
         d="m 4,1006.3622 c -24,0 -24,0 -24,22 0,22 0,22 24,22 24,0 24,0 24,-22 0,-22 0,-22 -24,-22 z"
         id="path3777"
         inkscape:connector-curvature="0"
         sodipodi:nodetypes="zzzzz" />
      <path
         sodipodi:nodetypes="zzzzz"
         inkscape:connector-curvature="0"
         id="path3787"
         d="m 4,1006.3622 c -24,0 -24,0 -24,22 0,22 0,22 24,22 24,0 24,0 24,-22 0,-22 0,-22 -24,-22 z"
         style="opacity:0.02999998;fill:url(#linearGradient3797);fill-opacity:1;stroke:none" />
    </g>
    <path
       style="fill:#000000;fill-opacity:1;stroke:none;opacity:0.20000000000000001"
       d="M 24 2 C 2.7284685 2 0.33742495 2.0888436 0.0625 17.40625 C 0.390625 3.0029297 3 3 24 3 C 45 3 47.609375 3.0029297 47.9375 17.40625 C 47.662575 2.0888436 45.271532 2 24 2 z "
       transform="translate(0,1004.3622)"
       id="path3770" />
    <path
       style="fill:#000000;fill-opacity:1;fill-rule:nonzero;stroke:none;opacity:0.1"
       d="m 20.998894,1012.6742 -4.892295,6.0856 8.591398,9.4027 -0.16716,0.1672 -9.712921,-7.2551 -1.682558,5.6919 10.906303,2.0523 -0.727966,0.728 c -0.210082,0.2101 -0.315585,0.4816 -0.369818,0.7516 l -1.563113,0.2983 -8.877811,11.7655 11.789329,-8.854 0.298273,-1.5631 c 0.270048,-0.054 0.517709,-0.1836 0.72779,-0.3937 l 0.596657,-0.5966 1.992726,10.5841 5.691859,-1.6826 -7.087999,-9.4981 0.202939,-0.2029 9.199934,8.4123 L 42,1033.6753 27.287284,1029.5825 c 0.344029,-0.3679 0.45061,-0.8608 0.334125,-1.3126 0.554196,0.077 1.20979,-0.1597 1.73022,-0.6801 0.768201,-0.7682 0.931135,-1.8611 0.357989,-2.4343 -0.573147,-0.5731 -1.666033,-0.4102 -2.434234,0.358 -0.520431,0.5204 -0.745414,1.188 -0.668234,1.7422 -0.466793,-0.1203 -0.988853,-0.014 -1.360296,0.3579 l -0.07156,0.072 -4.176401,-15.011 z"
       id="path3052"
       inkscape:connector-curvature="0" />
    <path
       inkscape:connector-curvature="0"
       id="rect3755"
       d="m 20.495941,1011.6742 -4.892295,6.0856 8.591398,9.4027 -0.16716,0.1672 -9.712921,-7.2551 -1.682558,5.6919 10.906303,2.0523 -0.727966,0.728 c -0.210082,0.2101 -0.315585,0.4816 -0.369818,0.7516 l -1.563113,0.2983 L 12,1041.3622 l 11.789329,-8.854 0.298273,-1.5631 c 0.270048,-0.054 0.517709,-0.1836 0.72779,-0.3937 l 0.596657,-0.5966 1.992726,10.5841 5.691859,-1.6826 -7.087999,-9.4981 0.202939,-0.2029 9.199934,8.4123 6.085539,-4.8923 -14.712716,-4.0928 c 0.344029,-0.3679 0.45061,-0.8608 0.334125,-1.3126 0.554196,0.077 1.20979,-0.1597 1.73022,-0.6801 0.768201,-0.7682 0.931135,-1.8611 0.357989,-2.4343 -0.573147,-0.5731 -1.666033,-0.4102 -2.434234,0.358 -0.520431,0.5204 -0.745414,1.188 -0.668234,1.7422 -0.466793,-0.1203 -0.988853,-0.014 -1.360296,0.3579 l -0.07156,0.072 -4.176401,-15.011 z"
       style="fill:#ffeaf5;fill-opacity:1;fill-rule:nonzero;stroke:none" />
  </g>
</svg>
