<?xml version="1.0" encoding="UTF-8" standalone="no"?>
<!-- Created with Inkscape (http://www.inkscape.org/) -->

<svg
   xmlns:dc="http://purl.org/dc/elements/1.1/"
   xmlns:cc="http://creativecommons.org/ns#"
   xmlns:rdf="http://www.w3.org/1999/02/22-rdf-syntax-ns#"
   xmlns:svg="http://www.w3.org/2000/svg"
   xmlns="http://www.w3.org/2000/svg"
   xmlns:xlink="http://www.w3.org/1999/xlink"
   xmlns:sodipodi="http://sodipodi.sourceforge.net/DTD/sodipodi-0.dtd"
   xmlns:inkscape="http://www.inkscape.org/namespaces/inkscape"
   width="48"
   height="48"
   id="svg2"
   version="1.1"
   inkscape:version="0.48.4 r9939"
   sodipodi:docname="openoffice-new.svg">
  <defs
     id="defs4">
    <linearGradient
       id="linearGradient3776">
      <stop
         style="stop-color:#e6e6e6;stop-opacity:1;"
         offset="0"
         id="stop3778" />
      <stop
         style="stop-color:#ffffff;stop-opacity:1;"
         offset="1"
         id="stop3780" />
    </linearGradient>
    <linearGradient
       id="linearGradient3779">
      <stop
         style="stop-color:#000000;stop-opacity:1;"
         offset="0"
         id="stop3781" />
      <stop
         style="stop-color:#ffffff;stop-opacity:1;"
         offset="1"
         id="stop3783" />
    </linearGradient>
    <linearGradient
       inkscape:collect="always"
       xlink:href="#linearGradient3776"
       id="linearGradient3782"
       x1="24"
       y1="1050.3622"
       x2="24"
       y2="1006.3622"
       gradientUnits="userSpaceOnUse" />
    <linearGradient
       inkscape:collect="always"
       xlink:href="#linearGradient3779"
       id="linearGradient3785"
       gradientUnits="userSpaceOnUse"
       spreadMethod="repeat"
       x1="44"
       y1="1048.3622"
       x2="15"
       y2="1019.3622" />
    <linearGradient
       inkscape:collect="always"
       xlink:href="#linearGradient3779"
       id="linearGradient3788"
       gradientUnits="userSpaceOnUse"
       spreadMethod="repeat"
       x1="24"
       y1="1028.3622"
       x2="45"
       y2="1007.3622" />
    <clipPath
       id="clipPath-718178204">
      <g
         id="g3027"
         transform="translate(0,-1004.3622)">
        <path
           id="path3029"
           fill="#1890d0"
           transform="matrix(15.333333,0,0,11.5,414.99999,878.8622)"
           d="m -24 13 c 0 1.105 -0.672 2 -1.5 2 -0.828 0 -1.5 -0.895 -1.5 -2 0 -1.105 0.672 -2 1.5 -2 0.828 0 1.5 0.895 1.5 2 z" />
      </g>
    </clipPath>
    <clipPath
       id="clipPath-710374497">
      <g
         id="g3022"
         transform="translate(0,-1004.3622)">
        <path
           id="path3024"
           fill="#1890d0"
           transform="matrix(15.333333,0,0,11.5,414.99999,878.8622)"
           d="m -24 13 c 0 1.105 -0.672 2 -1.5 2 -0.828 0 -1.5 -0.895 -1.5 -2 0 -1.105 0.672 -2 1.5 -2 0.828 0 1.5 0.895 1.5 2 z" />
      </g>
    </clipPath>
    <linearGradient
       gradientTransform="matrix(0,-1,1,0,-1.5e-6,47.999998)"
       gradientUnits="userSpaceOnUse"
       x2="47"
       x1="1"
       id="linearGradient3764">
      <stop
         id="stop3017"
         stop-opacity="1"
         stop-color="#e4e4e4" />
      <stop
         id="stop3019"
         stop-opacity="1"
         stop-color="#eee"
         offset="1" />
    </linearGradient>
  </defs>
  <sodipodi:namedview
     id="base"
     pagecolor="#ffffff"
     bordercolor="#666666"
     borderopacity="1.0"
     inkscape:pageopacity="0.0"
     inkscape:pageshadow="2"
     inkscape:zoom="8.1906533"
     inkscape:cx="5.5624611"
     inkscape:cy="20.998948"
     inkscape:document-units="px"
     inkscape:current-layer="layer1"
     showgrid="true"
     inkscape:snap-bbox="true"
     inkscape:window-width="1301"
     inkscape:window-height="744"
     inkscape:window-x="65"
     inkscape:window-y="24"
     inkscape:window-maximized="1"
     inkscape:object-nodes="true"
     inkscape:object-paths="true"
     inkscape:snap-nodes="false">
    <inkscape:grid
       type="xygrid"
       id="grid3003"
       empspacing="6"
       visible="true"
       enabled="true"
       snapvisiblegridlinesonly="true" />
  </sodipodi:namedview>
  <metadata
     id="metadata7">
    <rdf:RDF>
      <cc:Work
         rdf:about="">
        <dc:format>image/svg+xml</dc:format>
        <dc:type
           rdf:resource="http://purl.org/dc/dcmitype/StillImage" />
        <dc:title />
      </cc:Work>
    </rdf:RDF>
  </metadata>
  <g
     inkscape:label="Layer 1"
     inkscape:groupmode="layer"
     id="layer1"
     transform="translate(0,-1004.3622)">
    <path
       id="path3788"
       d="m 24,1051.1116 c -21.2715315,0 -23.66257505,-0.089 -23.9375,-15.4063 0.328125,14.4033 2.9375,14.4063 23.9375,14.4063 21,0 23.609375,0 23.9375,-14.4063 -0.274925,15.3174 -2.665968,15.4063 -23.9375,15.4063 z"
       style="opacity:0.20000000000000001;fill:#ffffff;fill-opacity:1;stroke:none"
       inkscape:connector-curvature="0" />
    <path
       style="fill:url(#linearGradient3782);fill-opacity:1;stroke:none"
       d="m 24,1006.3622 c -24,0 -24,0 -24,22 0,22 0,22 24,22 24,0 24,0 24,-22 0,-22 0,-22 -24,-22 z"
       id="path3757"
       inkscape:connector-curvature="0"
       sodipodi:nodetypes="zzzzz" />
    <g
       id="g3790">
      <path
         style="opacity:0.05;fill:url(#linearGradient3788);fill-opacity:1;stroke:none"
         d="m 24,1006.3622 c -24,0 -24,0 -24,22 0,22 0,22 24,22 24,0 24,0 24,-22 0,-22 0,-22 -24,-22 z"
         id="path3777"
         inkscape:connector-curvature="0"
         sodipodi:nodetypes="zzzzz" />
      <path
         sodipodi:nodetypes="zzzzz"
         inkscape:connector-curvature="0"
         id="path3787"
         d="m 24,1006.3622 c -24,0 -24,0 -24,22 0,22 0,22 24,22 24,0 24,0 24,-22 0,-22 0,-22 -24,-22 z"
         style="opacity:0.05;fill:url(#linearGradient3785);fill-opacity:1;stroke:none" />
    </g>
    <path
       style="fill:#000000;fill-opacity:1;stroke:none;opacity:0.20000000000000001"
       d="M 24 2 C 2.7284685 2 0.33742495 2.0888436 0.0625 17.40625 C 0.390625 3.0029297 3 3 24 3 C 45 3 47.609375 3.0029297 47.9375 17.40625 C 47.662575 2.0888436 45.271532 2 24 2 z "
       transform="translate(0,1004.3622)"
       id="path3770" />
    <g
       id="g3813"
       transform="translate(-47.998,993.3622)" />
    <g
       id="g3043"
       transform="translate(-55.29,1006.1972)" />
    <g
       id="g3045"
       transform="translate(-1.001,1005.3642)">
      <g
         clip-path="url(#clipPath-710374497)"
         id="g3047">
        <g
           transform="translate(1,1)"
           id="g3049">
          <g
             style="opacity:0.1"
             id="g3051">
            <!-- color: #eeeeee -->
            <g
               id="g3053">
              <path
                 style="fill:#000000;fill-opacity:1;fill-rule:nonzero;stroke:none"
                 inkscape:connector-curvature="0"
                 d="m 36.18,16 c -1.582,-0.023 -3.086,0.391 -4.379,1.133 -1.012,-0.57 -2.164,-0.941 -3.398,-1.059 -1.699,-0.156 -3.328,0.191 -4.738,0.922 -0.016,0.008 -0.031,0.016 -0.043,0.023 -0.035,0.027 -0.059,0.07 -0.059,0.117 0,0.082 0.066,0.141 0.145,0.141 0.008,0 0.02,0 0.027,0 0.004,0 0.008,-0.004 0.008,-0.004 0.762,-0.137 1.551,-0.176 2.359,-0.102 2.258,0.211 4.23,0.906 5.613,2.461 0.07,0.074 0.133,0.066 0.203,-0.004 1.742,-1.996 4.406,-2.789 7.27,-2.52 0.16,0.016 0.32,0.031 0.477,0.059 0.055,0.008 0.141,0.02 0.191,0.023 0.094,0.012 0.145,-0.063 0.145,-0.141 0,-0.063 -0.023,-0.105 -0.078,-0.129 -0.055,-0.027 -0.109,-0.063 -0.164,-0.082 -0.887,-0.43 -1.863,-0.699 -2.898,-0.809 -0.227,-0.02 -0.457,-0.039 -0.684,-0.043 m 0.004,0.004"
                 id="path3055" />
              <path
                 style="fill:#000000;fill-opacity:1;fill-rule:nonzero;stroke:none"
                 inkscape:connector-curvature="0"
                 d="m 30.938,22.84 c -3.191,0 -6.141,1.012 -8.555,2.711 -1.844,-0.82 -3.883,-1.277 -6.03,-1.277 -3.055,0 -5.887,0.922 -8.242,2.5 -0.004,0.004 -0.016,0.012 -0.02,0.016 -0.055,0.039 -0.082,0.098 -0.082,0.168 0,0.121 0.098,0.219 0.215,0.219 0.016,0 0.031,-0.004 0.043,-0.004 0.012,0 0.02,-0.004 0.023,-0.008 1.352,-0.406 2.785,-0.621 4.27,-0.621 3.934,0 7.449,0.926 10.09,3.391 0.008,0.004 0.016,0.012 0.023,0.016 0.039,0.035 0.086,0.047 0.145,0.047 0.066,0 0.125,-0.02 0.164,-0.07 0,0 0.086,-0.113 0.129,-0.18 2.691,-3.641 7.121,-5.438 12.04,-5.438 0.352,0 0.703,0.008 1.051,0.035 0.098,0.004 0.313,0.023 0.316,0.023 0.117,0 0.215,-0.098 0.215,-0.219 0,-0.086 -0.051,-0.156 -0.125,-0.188 -0.008,-0.004 -0.016,-0.008 -0.023,-0.012 -1.742,-0.711 -3.641,-1.113 -5.633,-1.113 m -0.008,0.004"
                 id="path3057" />
            </g>
          </g>
        </g>
      </g>
    </g>
    <g
       id="g3059"
       transform="translate(-1.001,1005.3642)">
      <g
         clip-path="url(#clipPath-718178204)"
         id="g3061">
        <!-- color: #eeeeee -->
        <g
           id="g3063">
          <path
             style="fill:#2d2d2d;fill-opacity:1;fill-rule:nonzero;stroke:none"
             inkscape:connector-curvature="0"
             d="m 36.18,16 c -1.582,-0.023 -3.086,0.391 -4.379,1.133 -1.012,-0.57 -2.164,-0.941 -3.398,-1.059 -1.699,-0.156 -3.328,0.191 -4.738,0.922 -0.016,0.008 -0.031,0.016 -0.043,0.023 -0.035,0.027 -0.059,0.07 -0.059,0.117 0,0.082 0.066,0.141 0.145,0.141 0.008,0 0.02,0 0.027,0 0.004,0 0.008,-0.004 0.008,-0.004 0.762,-0.137 1.551,-0.176 2.359,-0.102 2.258,0.211 4.23,0.906 5.613,2.461 0.07,0.074 0.133,0.066 0.203,-0.004 1.742,-1.996 4.406,-2.789 7.27,-2.52 0.16,0.016 0.32,0.031 0.477,0.059 0.055,0.008 0.141,0.02 0.191,0.023 0.094,0.012 0.145,-0.063 0.145,-0.141 0,-0.063 -0.023,-0.105 -0.078,-0.129 -0.055,-0.027 -0.109,-0.063 -0.164,-0.082 -0.887,-0.43 -1.863,-0.699 -2.898,-0.809 -0.227,-0.02 -0.457,-0.039 -0.684,-0.043 m 0.004,0.004"
             id="path3065" />
          <path
             style="fill:#2d2d2d;fill-opacity:1;fill-rule:nonzero;stroke:none"
             inkscape:connector-curvature="0"
             d="m 30.938,22.84 c -3.191,0 -6.141,1.012 -8.555,2.711 -1.844,-0.82 -3.883,-1.277 -6.03,-1.277 -3.055,0 -5.887,0.922 -8.242,2.5 -0.004,0.004 -0.016,0.012 -0.02,0.016 -0.055,0.039 -0.082,0.098 -0.082,0.168 0,0.121 0.098,0.219 0.215,0.219 0.016,0 0.031,-0.004 0.043,-0.004 0.012,0 0.02,-0.004 0.023,-0.008 1.352,-0.406 2.785,-0.621 4.27,-0.621 3.934,0 7.449,0.926 10.09,3.391 0.008,0.004 0.016,0.012 0.023,0.016 0.039,0.035 0.086,0.047 0.145,0.047 0.066,0 0.125,-0.02 0.164,-0.07 0,0 0.086,-0.113 0.129,-0.18 2.691,-3.641 7.121,-5.438 12.04,-5.438 0.352,0 0.703,0.008 1.051,0.035 0.098,0.004 0.313,0.023 0.316,0.023 0.117,0 0.215,-0.098 0.215,-0.219 0,-0.086 -0.051,-0.156 -0.125,-0.188 -0.008,-0.004 -0.016,-0.008 -0.023,-0.012 -1.742,-0.711 -3.641,-1.113 -5.633,-1.113 m -0.008,0.004"
             id="path3067" />
        </g>
      </g>
    </g>
  </g>
</svg>
