<?xml version="1.0" encoding="UTF-8" standalone="no"?>
<!-- Created with Inkscape (http://www.inkscape.org/) -->

<svg
   xmlns:dc="http://purl.org/dc/elements/1.1/"
   xmlns:cc="http://creativecommons.org/ns#"
   xmlns:rdf="http://www.w3.org/1999/02/22-rdf-syntax-ns#"
   xmlns:svg="http://www.w3.org/2000/svg"
   xmlns="http://www.w3.org/2000/svg"
   xmlns:xlink="http://www.w3.org/1999/xlink"
   xmlns:sodipodi="http://sodipodi.sourceforge.net/DTD/sodipodi-0.dtd"
   xmlns:inkscape="http://www.inkscape.org/namespaces/inkscape"
   width="48"
   height="48"
   id="svg2"
   version="1.1"
   inkscape:version="0.48.4 r9939"
   sodipodi:docname="openarena.svg">
  <defs
     id="defs4">
    <linearGradient
       id="linearGradient3765">
      <stop
         style="stop-color:#80deea;stop-opacity:1;"
         offset="0"
         id="stop3767" />
      <stop
         style="stop-color:#54b9d2;stop-opacity:1"
         offset="1"
         id="stop3770" />
    </linearGradient>
    <linearGradient
       inkscape:collect="always"
       xlink:href="#linearGradient3765"
       id="linearGradient3772"
       x1="24"
       y1="1050.3622"
       x2="24"
       y2="1006.3622"
       gradientUnits="userSpaceOnUse"
       gradientTransform="matrix(1,0,0,-1,0,2056.7244)" />
    <linearGradient
       gradientTransform="matrix(0,-1,1,0,-1.5e-6,47.999998)"
       gradientUnits="userSpaceOnUse"
       x2="47"
       x1="1"
       id="linearGradient3764-8">
      <stop
         id="stop3779"
         stop-opacity="1"
         stop-color="#52b8d2" />
      <stop
         id="stop3781"
         stop-opacity="1"
         stop-color="#62bed6"
         offset="1" />
    </linearGradient>
    <linearGradient
       inkscape:collect="always"
       xlink:href="#linearGradient3764-8"
       id="linearGradient3893"
       gradientUnits="userSpaceOnUse"
       gradientTransform="matrix(0,-1,1,0,-1.5e-6,47.999998)"
       x1="1"
       x2="47" />
    <linearGradient
       inkscape:collect="always"
       xlink:href="#linearGradient3764-8"
       id="linearGradient3896"
       gradientUnits="userSpaceOnUse"
       gradientTransform="matrix(0,-1,1,0,-48.998001,1051.3622)"
       x1="1"
       x2="47" />
  </defs>
  <sodipodi:namedview
     id="base"
     pagecolor="#ffffff"
     bordercolor="#666666"
     borderopacity="1.0"
     inkscape:pageopacity="0.0"
     inkscape:pageshadow="2"
     inkscape:zoom="8.1906533"
     inkscape:cx="7.8459786"
     inkscape:cy="24.138666"
     inkscape:document-units="px"
     inkscape:current-layer="layer1"
     showgrid="true"
     inkscape:snap-bbox="true"
     inkscape:window-width="1301"
     inkscape:window-height="744"
     inkscape:window-x="65"
     inkscape:window-y="24"
     inkscape:window-maximized="1">
    <inkscape:grid
       type="xygrid"
       id="grid2985"
       empspacing="6"
       visible="true"
       enabled="true"
       snapvisiblegridlinesonly="true" />
  </sodipodi:namedview>
  <metadata
     id="metadata7">
    <rdf:RDF>
      <cc:Work
         rdf:about="">
        <dc:format>image/svg+xml</dc:format>
        <dc:type
           rdf:resource="http://purl.org/dc/dcmitype/StillImage" />
        <dc:title />
      </cc:Work>
    </rdf:RDF>
  </metadata>
  <g
     inkscape:label="Layer 1"
     inkscape:groupmode="layer"
     id="layer1"
     transform="translate(0,-1004.3622)">
    <path
       id="path3788"
       d="m 24,1051.1116 c -21.2715315,0 -23.66257505,-0.089 -23.9375,-15.4063 0.328125,14.4033 2.9375,14.4063 23.9375,14.4063 21,0 23.609375,0 23.9375,-14.4063 -0.274925,15.3174 -2.665968,15.4063 -23.9375,15.4063 z"
       style="opacity:0.20000000000000001;fill:#ffffff;fill-opacity:1;stroke:none"
       inkscape:connector-curvature="0" />
    <path
       style="fill:url(#linearGradient3772);fill-opacity:1;stroke:none"
       d="m 24,1050.3622 c -24,0 -24,0 -24,-22 0,-22 0,-22 24,-22 24,0 24,0 24,22 0,22 0,22 -24,22 z"
       id="path3757"
       inkscape:connector-curvature="0"
       sodipodi:nodetypes="zzzzz" />
    <path
       style="fill:#000000;fill-opacity:1;stroke:none;opacity:0.20000000000000001"
       d="M 24 2 C 2.7284685 2 0.33742495 2.0888436 0.0625 17.40625 C 0.390625 3.0029297 3 3 24 3 C 45 3 47.609375 3.0029297 47.9375 17.40625 C 47.662575 2.0888436 45.271532 2 24 2 z "
       transform="translate(0,1004.3622)"
       id="path3770" />
    <g
       id="g3813"
       style="opacity:0.2"
       transform="translate(0.9899275,1004.353)">
      <!-- color: #62bed6 -->
      <g
         id="g3815">
        <path
           id="path3817"
           d="M 22.648,31.961 21.32,29.84 22.578,27.77 c 0.695,-1.141 1.297,-2.137 1.34,-2.211 0.051,-0.094 0.527,0.602 1.41,2.051 0.73,1.203 1.328,2.207 1.328,2.234 0,0.063 -2.508,4.066 -2.613,4.164 -0.035,0.039 -0.668,-0.883 -1.398,-2.047 m -6.941,1.109 -1.648,-0.809 0.688,-1.281 c 0.379,-0.707 0.648,-1.316 0.605,-1.355 -0.051,-0.039 -0.457,-0.34 -0.906,-0.66 -4.883,-3.547 -4.516,-9.32 0.797,-12.66 4.414,-2.766 11.316,-3.07 16.207,-0.707 2.406,1.164 4.03,2.664 4.926,4.57 0.457,0.973 0.625,1.68 0.637,2.68 0.012,2.551 -1.461,4.93 -4.148,6.684 L 32.6,29.7 l 0.633,1.195 c 0.348,0.656 0.648,1.23 0.66,1.273 0.035,0.078 -3.246,1.719 -3.438,1.719 -0.047,0 -1.504,-2.652 -3.227,-5.898 -1.73,-3.246 -3.172,-5.898 -3.211,-5.898 -0.035,0 -1.48,2.641 -3.207,5.875 -1.832,3.434 -3.207,5.883 -3.297,5.895 -0.086,0.023 -0.898,-0.34 -1.813,-0.785 m 4.445,-11.965 c 1.613,-2.957 2.91,-5.395 2.891,-5.418 -0.02,-0.02 -0.477,0.023 -1.02,0.082 -7.086,0.875 -10.668,5.48 -7.086,9.148 0.707,0.723 2.113,1.715 2.25,1.59 0.016,-0.02 1.352,-2.449 2.965,-5.402 m 12.07,4.578 c 1.188,-0.844 2.02,-2.059 2.207,-3.215 0.496,-3.105 -2.965,-5.938 -8.137,-6.66 -0.664,-0.09 -1.23,-0.145 -1.262,-0.117 -0.047,0.043 4.238,8.02 5.496,10.23 l 0.363,0.641 0.336,-0.199 c 0.184,-0.105 0.633,-0.418 0.996,-0.68 m 0,0"
           inkscape:connector-curvature="0"
           style="fill:#000000;fill-opacity:1;fill-rule:nonzero;stroke:none" />
      </g>
    </g>
    <path
       id="path3825"
       d="m 22.637927,1035.314 -1.328,-2.121 1.258,-2.07 c 0.695,-1.141 1.297,-2.137 1.34,-2.211 0.051,-0.094 0.527,0.602 1.41,2.051 0.73,1.203 1.328,2.207 1.328,2.234 0,0.063 -2.508,4.066 -2.613,4.164 -0.035,0.039 -0.668,-0.883 -1.398,-2.047 m -6.941,1.109 -1.648,-0.809 0.688,-1.281 c 0.379,-0.707 0.648,-1.316 0.605,-1.355 -0.051,-0.039 -0.457,-0.34 -0.906,-0.66 -4.8829994,-3.547 -4.5159994,-9.32 0.797,-12.66 4.414,-2.766 11.316,-3.07 16.207,-0.707 2.406,1.164 4.03,2.664 4.926,4.57 0.457,0.973 0.625,1.68 0.637,2.68 0.012,2.551 -1.461,4.93 -4.148,6.684 l -0.262,0.168 0.633,1.195 c 0.348,0.656 0.648,1.23 0.66,1.273 0.035,0.078 -3.246,1.719 -3.438,1.719 -0.047,0 -1.504,-2.652 -3.227,-5.898 -1.73,-3.246 -3.172,-5.898 -3.211,-5.898 -0.035,0 -1.48,2.641 -3.207,5.875 -1.832,3.434 -3.207,5.883 -3.297,5.895 -0.086,0.023 -0.898,-0.34 -1.813,-0.785 m 4.445,-11.965 c 1.613,-2.957 2.91,-5.395 2.891,-5.418 -0.02,-0.02 -0.477,0.023 -1.02,0.082 -7.086,0.875 -10.668,5.48 -7.086,9.148 0.707,0.723 2.113,1.715 2.25,1.59 0.016,-0.02 1.352,-2.449 2.965,-5.402 m 12.07,4.578 c 1.188,-0.844 2.02,-2.059 2.207,-3.215 0.496,-3.105 -2.965,-5.938 -8.137,-6.66 -0.664,-0.09 -1.23,-0.145 -1.262,-0.117 -0.047,0.043 4.238,8.02 5.496,10.23 l 0.363,0.641 0.336,-0.199 c 0.184,-0.105 0.633,-0.418 0.996,-0.68 m 0,0"
       inkscape:connector-curvature="0"
       style="fill:#2d2d2d;fill-opacity:1;fill-rule:nonzero;stroke:none" />
  </g>
</svg>
