<?xml version="1.0" encoding="UTF-8" standalone="no"?>
<!-- Created with Inkscape (http://www.inkscape.org/) -->

<svg
   xmlns:dc="http://purl.org/dc/elements/1.1/"
   xmlns:cc="http://creativecommons.org/ns#"
   xmlns:rdf="http://www.w3.org/1999/02/22-rdf-syntax-ns#"
   xmlns:svg="http://www.w3.org/2000/svg"
   xmlns="http://www.w3.org/2000/svg"
   xmlns:xlink="http://www.w3.org/1999/xlink"
   xmlns:sodipodi="http://sodipodi.sourceforge.net/DTD/sodipodi-0.dtd"
   xmlns:inkscape="http://www.inkscape.org/namespaces/inkscape"
   width="48"
   height="48"
   id="svg2"
   version="1.1"
   inkscape:version="0.48.4 r9939"
   sodipodi:docname="oracle-sqldeveloper.svg">
  <defs
     id="defs4">
    <linearGradient
       id="linearGradient3777">
      <stop
         style="stop-color:#d32f2f;stop-opacity:1;"
         offset="0"
         id="stop3779" />
      <stop
         style="stop-color:#d84444;stop-opacity:1;"
         offset="1"
         id="stop3781" />
    </linearGradient>
    <linearGradient
       inkscape:collect="always"
       xlink:href="#linearGradient3777"
       id="linearGradient3783"
       x1="24"
       y1="1050.3622"
       x2="24"
       y2="1006.3622"
       gradientUnits="userSpaceOnUse" />
  </defs>
  <sodipodi:namedview
     id="base"
     pagecolor="#ffffff"
     bordercolor="#666666"
     borderopacity="1.0"
     inkscape:pageopacity="0.0"
     inkscape:pageshadow="2"
     inkscape:zoom="8.1906535"
     inkscape:cx="0.85985208"
     inkscape:cy="24.921057"
     inkscape:document-units="px"
     inkscape:current-layer="layer1"
     showgrid="true"
     inkscape:snap-bbox="true"
     inkscape:window-width="1301"
     inkscape:window-height="744"
     inkscape:window-x="65"
     inkscape:window-y="24"
     inkscape:window-maximized="1">
    <inkscape:grid
       type="xygrid"
       id="grid2985"
       empspacing="6"
       visible="true"
       enabled="true"
       snapvisiblegridlinesonly="true" />
  </sodipodi:namedview>
  <metadata
     id="metadata7">
    <rdf:RDF>
      <cc:Work
         rdf:about="">
        <dc:format>image/svg+xml</dc:format>
        <dc:type
           rdf:resource="http://purl.org/dc/dcmitype/StillImage" />
        <dc:title />
      </cc:Work>
    </rdf:RDF>
  </metadata>
  <g
     inkscape:label="Layer 1"
     inkscape:groupmode="layer"
     id="layer1"
     transform="translate(0,-1004.3622)">
    <path
       id="path3788"
       d="m 24,1051.1116 c -21.2715315,0 -23.66257505,-0.089 -23.9375,-15.4063 0.328125,14.4033 2.9375,14.4063 23.9375,14.4063 21,0 23.609375,0 23.9375,-14.4063 -0.274925,15.3174 -2.665968,15.4063 -23.9375,15.4063 z"
       style="opacity:0.20000000000000001;fill:#ffffff;fill-opacity:1;stroke:none"
       inkscape:connector-curvature="0" />
    <path
       style="fill:url(#linearGradient3783);fill-opacity:1;stroke:none"
       d="m 24,1006.3622 c -24,0 -24,0 -24,22 0,22 0,22 24,22 24,0 24,0 24,-22 0,-22 0,-22 -24,-22 z"
       id="path3757"
       inkscape:connector-curvature="0"
       sodipodi:nodetypes="zzzzz" />
    <path
       style="fill:#000000;fill-opacity:1;stroke:none;opacity:0.20000000000000001"
       d="M 24 2 C 2.7284685 2 0.33742495 2.0888436 0.0625 17.40625 C 0.390625 3.0029297 3 3 24 3 C 45 3 47.609375 3.0029297 47.9375 17.40625 C 47.662575 2.0888436 45.271532 2 24 2 z "
       transform="translate(0,1004.3622)"
       id="path3770" />
    <g
       id="g3771"
       style="opacity:0.2;stroke:#000000;stroke-opacity:1"
       transform="translate(0.99999996,-0.9999999)">
      <path
         sodipodi:type="arc"
         style="fill:none;stroke:#000000;stroke-width:2.4000001;stroke-miterlimit:4;stroke-opacity:1;stroke-dasharray:none"
         id="path3773"
         sodipodi:cx="24"
         sodipodi:cy="24"
         sodipodi:rx="12"
         sodipodi:ry="6"
         d="m 36,24 c 0,3.313708 -5.372583,6 -12,6 -6.627417,0 -12,-2.686292 -12,-6 0,-3.313708 5.372583,-6 12,-6 6.627417,0 12,2.686292 12,6 z"
         transform="matrix(0.83333333,0,0,0.83333333,4.0000001,1004.3622)" />
      <path
         style="fill:none;stroke:#000000;stroke-width:2;stroke-miterlimit:4;stroke-opacity:1;stroke-dasharray:none"
         d="m 14,1024.3622 0,13 c 0,2.7614 4.477153,5 10,5 5.522847,0 10,-2.2386 10,-5 l 0,-13"
         id="path3775"
         inkscape:connector-curvature="0"
         sodipodi:nodetypes="cscc" />
    </g>
    <g
       id="g3767"
       transform="translate(-1.5736425e-8,-1.9999999)">
      <path
         transform="matrix(0.83333333,0,0,0.83333333,4.0000001,1004.3622)"
         d="m 36,24 c 0,3.313708 -5.372583,6 -12,6 -6.627417,0 -12,-2.686292 -12,-6 0,-3.313708 5.372583,-6 12,-6 6.627417,0 12,2.686292 12,6 z"
         sodipodi:ry="6"
         sodipodi:rx="12"
         sodipodi:cy="24"
         sodipodi:cx="24"
         id="path2994"
         style="fill:none;stroke:#f2f2f2;stroke-width:2.4000001;stroke-miterlimit:4;stroke-opacity:1;stroke-dasharray:none"
         sodipodi:type="arc" />
      <path
         sodipodi:nodetypes="cscc"
         inkscape:connector-curvature="0"
         id="path3764"
         d="m 14,1024.3622 0,13 c 0,2.7614 4.477153,5 10,5 5.522847,0 10,-2.2386 10,-5 l 0,-13"
         style="fill:none;stroke:#f2f2f2;stroke-width:2;stroke-miterlimit:4;stroke-opacity:1;stroke-dasharray:none" />
    </g>
    <path
       sodipodi:type="arc"
       style="opacity:0.18930041;fill:none;stroke:#ffffff;stroke-width:1.06451761999999994;stroke-linecap:butt;stroke-linejoin:bevel;stroke-miterlimit:4;stroke-opacity:1;stroke-dasharray:1.06451761999999994, 1.06451761999999994;stroke-dashoffset:0"
       id="path2996"
       sodipodi:cx="25.5"
       sodipodi:cy="25.5"
       sodipodi:rx="16.5"
       sodipodi:ry="16.5"
       d="m 42,25.5 a 16.5,16.5 0 1 1 -33,0 16.5,16.5 0 1 1 33,0 z"
       transform="matrix(0.939394,0,0,0.93939125,0.54545394,1004.9077)" />
    <path
       transform="matrix(1.1515151,0,0,1.1515119,-4.8636362,999.49859)"
       d="m 42,25.5 a 16.5,16.5 0 1 1 -33,0 16.5,16.5 0 1 1 33,0 z"
       sodipodi:ry="16.5"
       sodipodi:rx="16.5"
       sodipodi:cy="25.5"
       sodipodi:cx="25.5"
       id="path3766"
       style="opacity:0.4;fill:none;stroke:#ffffff;stroke-width:1.73684459999999996;stroke-linecap:butt;stroke-linejoin:bevel;stroke-miterlimit:4;stroke-opacity:1;stroke-dasharray:1.73684459999999996, 1.73684459999999996;stroke-dashoffset:0"
       sodipodi:type="arc" />
  </g>
</svg>
