<?xml version="1.0" encoding="UTF-8" standalone="no"?>
<!-- Created with Inkscape (http://www.inkscape.org/) -->

<svg
   xmlns:dc="http://purl.org/dc/elements/1.1/"
   xmlns:cc="http://creativecommons.org/ns#"
   xmlns:rdf="http://www.w3.org/1999/02/22-rdf-syntax-ns#"
   xmlns:svg="http://www.w3.org/2000/svg"
   xmlns="http://www.w3.org/2000/svg"
   xmlns:sodipodi="http://sodipodi.sourceforge.net/DTD/sodipodi-0.dtd"
   xmlns:inkscape="http://www.inkscape.org/namespaces/inkscape"
   width="48"
   height="48"
   id="svg2"
   version="1.1"
   inkscape:version="0.48.4 r9939"
   sodipodi:docname="web-paypal.svg">
  <defs
     id="defs4">
    <clipPath
       id="clipPath-869232659">
      <g
         id="g3018"
         transform="translate(0,-1004.3622)">
        <path
           id="path3020"
           fill="#1890d0"
           transform="matrix(15.333333,0,0,11.5,414.99999,878.8622)"
           d="m -24 13 c 0 1.105 -0.672 2 -1.5 2 -0.828 0 -1.5 -0.895 -1.5 -2 0 -1.105 0.672 -2 1.5 -2 0.828 0 1.5 0.895 1.5 2 z" />
      </g>
    </clipPath>
    <clipPath
       id="clipPath-861048850">
      <g
         id="g3013"
         transform="translate(0,-1004.3622)">
        <path
           id="path3015"
           fill="#1890d0"
           transform="matrix(15.333333,0,0,11.5,414.99999,878.8622)"
           d="m -24 13 c 0 1.105 -0.672 2 -1.5 2 -0.828 0 -1.5 -0.895 -1.5 -2 0 -1.105 0.672 -2 1.5 -2 0.828 0 1.5 0.895 1.5 2 z" />
      </g>
    </clipPath>
    <linearGradient
       gradientTransform="matrix(0,-1,1,0,-1.5e-6,47.999998)"
       gradientUnits="userSpaceOnUse"
       x2="47"
       x1="1"
       id="linearGradient3764">
      <stop
         id="stop3008"
         stop-opacity="1"
         stop-color="#234b6d" />
      <stop
         id="stop3010"
         stop-opacity="1"
         stop-color="#28557c"
         offset="1" />
    </linearGradient>
  </defs>
  <sodipodi:namedview
     id="base"
     pagecolor="#ffffff"
     bordercolor="#666666"
     borderopacity="1.0"
     inkscape:pageopacity="0.0"
     inkscape:pageshadow="2"
     inkscape:zoom="8.9910424"
     inkscape:cx="6.6257875"
     inkscape:cy="16.305526"
     inkscape:document-units="px"
     inkscape:current-layer="layer1"
     showgrid="true"
     inkscape:snap-bbox="true"
     inkscape:window-width="1301"
     inkscape:window-height="744"
     inkscape:window-x="65"
     inkscape:window-y="24"
     inkscape:window-maximized="1"
     inkscape:snap-nodes="false">
    <inkscape:grid
       type="xygrid"
       id="grid2985"
       empspacing="6"
       visible="true"
       enabled="true"
       snapvisiblegridlinesonly="true" />
  </sodipodi:namedview>
  <metadata
     id="metadata7">
    <rdf:RDF>
      <cc:Work
         rdf:about="">
        <dc:format>image/svg+xml</dc:format>
        <dc:type
           rdf:resource="http://purl.org/dc/dcmitype/StillImage" />
        <dc:title />
      </cc:Work>
    </rdf:RDF>
  </metadata>
  <g
     inkscape:label="Layer 1"
     inkscape:groupmode="layer"
     id="layer1"
     transform="translate(0,-1004.3622)">
    <path
       id="path3788"
       d="m 24,1051.1116 c -21.2715315,0 -23.66257505,-0.089 -23.9375,-15.4063 0.328125,14.4033 2.9375,14.4063 23.9375,14.4063 21,0 23.609375,0 23.9375,-14.4063 -0.274925,15.3174 -2.665968,15.4063 -23.9375,15.4063 z"
       style="opacity:0.20000000000000001;fill:#ffffff;fill-opacity:1;stroke:none"
       inkscape:connector-curvature="0" />
    <path
       style="fill:#244e71;fill-opacity:1;stroke:none"
       d="m 24,1050.3622 c -24,0 -24,0 -24,-22 0,-22 0,-22 24,-22 24,0 24,0 24,22 0,22 0,22 -24,22 z"
       id="path3757"
       inkscape:connector-curvature="0"
       sodipodi:nodetypes="zzzzz" />
    <path
       style="fill:#000000;fill-opacity:1;stroke:none;opacity:0.20000000000000001"
       d="M 24 2 C 2.7284685 2 0.33742495 2.0888436 0.0625 17.40625 C 0.390625 3.0029297 3 3 24 3 C 45 3 47.609375 3.0029297 47.9375 17.40625 C 47.662575 2.0888436 45.271532 2 24 2 z "
       transform="translate(0,1004.3622)"
       id="path3770" />
    <g
       id="g3807"
       transform="translate(-52.998,1004.3622)" />
    <g
       id="g3056"
       transform="translate(-77.998,1004.3622)" />
    <g
       id="g3034"
       transform="translate(-59.998,1010.3622)" />
    <g
       id="g3036"
       transform="translate(-8.9302324e-4,1004.3622)">
      <g
         clip-path="url(#clipPath-861048850)"
         id="g3038">
        <g
           transform="translate(1,1)"
           id="g3040">
          <g
             style="opacity:0.1"
             id="g3042">
            <!-- color: #28557c -->
            <g
               id="g3044">
              <path
                 style="fill:#000000;fill-opacity:1;fill-rule:nonzero;stroke:none"
                 inkscape:connector-curvature="0"
                 d="m 36.48,16.12 c 0.078,0.488 0.113,1 0.109,1.547 0,0.004 0,0.008 0,0.012 0.004,3.105 -1.359,5.75 -3.922,7.633 -2.586,1.898 -6.105,2.793 -10.508,2.793 l -1.012,0 c -0.309,0 -0.762,0.383 -0.82,0.66 l 0,0.012 -1.207,5.199 c -0.273,1.188 -1.324,2 -2.531,2 l -3.035,0 c 0.008,0.578 0.457,1.023 1.09,1.02 l 3.52,-0.012 c 0.746,0.008 1.508,-0.59 1.684,-1.316 l 1.191,-5.211 c 0.172,-0.73 0.926,-1.344 1.684,-1.332 l 1.012,0 c 4.293,0 7.617,-0.879 9.996,-2.633 2.379,-1.762 3.578,-4.07 3.578,-6.945 -0.008,-1.258 -0.23,-2.32 -0.672,-3.156 -0.047,-0.094 -0.102,-0.184 -0.148,-0.27 M 23.868,16.32 c -0.293,0 -0.758,0.383 -0.816,0.66 l -0.012,0.012 -1.051,4.543 c -0.031,0.145 0.004,0.184 0.027,0.215 0.02,0.027 0.051,0.066 0.203,0.066 l 0.816,0 0.727,-3.156 c 0.16,-0.723 0.926,-1.324 1.668,-1.316 l 1.156,-0.016 c 0.566,0.004 1.066,0.043 1.52,0.121 -0.102,-0.25 -0.266,-0.43 -0.508,-0.59 -0.477,-0.313 -1.324,-0.539 -2.566,-0.539 m -1.164,0"
                 id="path3046" />
              <path
                 style="fill:#000000;fill-opacity:1;fill-rule:nonzero;stroke:none"
                 inkscape:connector-curvature="0"
                 d="M 35.06,14.512 C 34.626,13.664 33.974,12.973 33.138,12.449 32.275,11.918 31.267,11.551 30.099,11.328 28.919,11.117 27.54,11.015 25.962,11 l -7.316,0.004 c -0.762,0.012 -1.504,0.605 -1.68,1.336 l -4.93,21.441 c -0.172,0.734 0.305,1.34 1.059,1.34 l 3.508,0 c 0.758,0 1.508,-0.59 1.68,-1.34 l 1.203,-5.203 c 0.16,-0.73 0.914,-1.328 1.672,-1.328 l 1,0 c 4.285,-0.008 7.613,-0.883 10,-2.637 2.395,-1.754 3.578,-4.074 3.57,-6.945 0.008,-1.262 -0.211,-2.316 -0.668,-3.16 m -7.559,7.01 c -1.059,0.77 -2.527,1.16 -4.422,1.16 l -0.859,0 c -0.754,0 -1.234,-0.605 -1.066,-1.34 l 1.051,-4.555 c 0.16,-0.727 0.918,-1.34 1.684,-1.324 l 1.145,-0.016 c 1.34,0 2.359,0.23 3.043,0.691 0.676,0.438 1.023,1.145 1.012,2.086 0.02,1.418 -0.52,2.527 -1.582,3.289"
                 id="path3048" />
            </g>
          </g>
        </g>
      </g>
    </g>
    <g
       id="g3050"
       transform="translate(-8.9302324e-4,1004.3622)">
      <g
         clip-path="url(#clipPath-869232659)"
         id="g3052">
        <!-- color: #28557c -->
        <g
           id="g3054">
          <path
             style="fill:#9cc7e5;fill-opacity:1;fill-rule:nonzero;stroke:none"
             inkscape:connector-curvature="0"
             d="m 36.48,16.12 c 0.078,0.488 0.113,1 0.109,1.547 0,0.004 0,0.008 0,0.012 0.004,3.105 -1.359,5.75 -3.922,7.633 -2.586,1.898 -6.105,2.793 -10.508,2.793 l -1.012,0 c -0.309,0 -0.762,0.383 -0.82,0.66 l 0,0.012 -1.207,5.199 c -0.273,1.188 -1.324,2 -2.531,2 l -3.035,0 c 0.008,0.578 0.457,1.023 1.09,1.02 l 3.52,-0.012 c 0.746,0.008 1.508,-0.59 1.684,-1.316 l 1.191,-5.211 c 0.172,-0.73 0.926,-1.344 1.684,-1.332 l 1.012,0 c 4.293,0 7.617,-0.879 9.996,-2.633 2.379,-1.762 3.578,-4.07 3.578,-6.945 -0.008,-1.258 -0.23,-2.32 -0.672,-3.156 -0.047,-0.094 -0.102,-0.184 -0.148,-0.27 M 23.868,16.32 c -0.293,0 -0.758,0.383 -0.816,0.66 l -0.012,0.012 -1.051,4.543 c -0.031,0.145 0.004,0.184 0.027,0.215 0.02,0.027 0.051,0.066 0.203,0.066 l 0.816,0 0.727,-3.156 c 0.16,-0.723 0.926,-1.324 1.668,-1.316 l 1.156,-0.016 c 0.566,0.004 1.066,0.043 1.52,0.121 -0.102,-0.25 -0.266,-0.43 -0.508,-0.59 -0.477,-0.313 -1.324,-0.539 -2.566,-0.539 m -1.164,0"
             id="path3056" />
          <path
             style="fill:#f9f9f9;fill-opacity:1;fill-rule:nonzero;stroke:none"
             inkscape:connector-curvature="0"
             d="M 35.06,14.512 C 34.626,13.664 33.974,12.973 33.138,12.449 32.275,11.918 31.267,11.551 30.099,11.328 28.919,11.117 27.54,11.015 25.962,11 l -7.316,0.004 c -0.762,0.012 -1.504,0.605 -1.68,1.336 l -4.93,21.441 c -0.172,0.734 0.305,1.34 1.059,1.34 l 3.508,0 c 0.758,0 1.508,-0.59 1.68,-1.34 l 1.203,-5.203 c 0.16,-0.73 0.914,-1.328 1.672,-1.328 l 1,0 c 4.285,-0.008 7.613,-0.883 10,-2.637 2.395,-1.754 3.578,-4.074 3.57,-6.945 0.008,-1.262 -0.211,-2.316 -0.668,-3.16 m -7.559,7.01 c -1.059,0.77 -2.527,1.16 -4.422,1.16 l -0.859,0 c -0.754,0 -1.234,-0.605 -1.066,-1.34 l 1.051,-4.555 c 0.16,-0.727 0.918,-1.34 1.684,-1.324 l 1.145,-0.016 c 1.34,0 2.359,0.23 3.043,0.691 0.676,0.438 1.023,1.145 1.012,2.086 0.02,1.418 -0.52,2.527 -1.582,3.289"
             id="path3058" />
        </g>
      </g>
    </g>
  </g>
</svg>
