<?xml version="1.0" encoding="UTF-8" standalone="no"?>
<!-- Created with Inkscape (http://www.inkscape.org/) -->

<svg
   xmlns:dc="http://purl.org/dc/elements/1.1/"
   xmlns:cc="http://creativecommons.org/ns#"
   xmlns:rdf="http://www.w3.org/1999/02/22-rdf-syntax-ns#"
   xmlns:svg="http://www.w3.org/2000/svg"
   xmlns="http://www.w3.org/2000/svg"
   xmlns:xlink="http://www.w3.org/1999/xlink"
   xmlns:sodipodi="http://sodipodi.sourceforge.net/DTD/sodipodi-0.dtd"
   xmlns:inkscape="http://www.inkscape.org/namespaces/inkscape"
   width="48"
   height="48"
   id="svg2"
   version="1.1"
   inkscape:version="0.48.4 r9939"
   sodipodi:docname="pgadmin3.svg">
  <defs
     id="defs4">
    <linearGradient
       id="linearGradient5715">
      <stop
         style="stop-color:#bdbdbd;stop-opacity:1;"
         offset="0"
         id="stop5717" />
      <stop
         style="stop-color:#f7f7f7;stop-opacity:1;"
         offset="1"
         id="stop5719" />
    </linearGradient>
    <filter
       id="filter4009-8"
       color-interpolation-filters="sRGB"
       height="1.1597476"
       width="1.2244866"
       y="-0.079873785"
       x="-0.11224329">
      <feGaussianBlur
         id="feGaussianBlur4011-6"
         stdDeviation="6.7803529" />
    </filter>
    <filter
       id="filter4005-7"
       color-interpolation-filters="sRGB"
       height="1.152902"
       width="1.2446516"
       y="-0.076450996"
       x="-0.12232576">
      <feGaussianBlur
         id="feGaussianBlur4007-7"
         stdDeviation="6.7803529" />
    </filter>
    <filter
       id="filter4001-9"
       color-interpolation-filters="sRGB"
       height="1.257324"
       width="1.149857"
       y="-0.12866202"
       x="-0.07492853">
      <feGaussianBlur
         id="feGaussianBlur4003-7"
         stdDeviation="6.7803529" />
    </filter>
    <filter
       id="filter3997-0"
       color-interpolation-filters="sRGB"
       height="1.2207661"
       width="1.1631417"
       y="-0.11038305"
       x="-0.081570871">
      <feGaussianBlur
         id="feGaussianBlur3999-7"
         stdDeviation="6.7803529" />
    </filter>
    <filter
       id="filter3993-8"
       color-interpolation-filters="sRGB"
       height="1.1447482"
       width="1.2981865"
       y="-0.072374105"
       x="-0.1490933">
      <feGaussianBlur
         id="feGaussianBlur3995-4"
         stdDeviation="6.7803529" />
    </filter>
    <filter
       id="filter3989-9"
       color-interpolation-filters="sRGB">
      <feGaussianBlur
         id="feGaussianBlur3991-1"
         stdDeviation="6.7803529" />
    </filter>
    <filter
       id="filter3985-9"
       color-interpolation-filters="sRGB"
       height="1.3107746"
       width="1.1436011"
       y="-0.15538733"
       x="-0.071800567">
      <feGaussianBlur
         id="feGaussianBlur3987-0"
         stdDeviation="6.7803529" />
    </filter>
    <filter
       id="filter4009"
       color-interpolation-filters="sRGB"
       height="1.1597476"
       width="1.2244866"
       y="-0.079873785"
       x="-0.11224329">
      <feGaussianBlur
         id="feGaussianBlur4011"
         stdDeviation="6.7803529" />
    </filter>
    <filter
       id="filter4005"
       color-interpolation-filters="sRGB"
       height="1.152902"
       width="1.2446516"
       y="-0.076450996"
       x="-0.12232576">
      <feGaussianBlur
         id="feGaussianBlur4007"
         stdDeviation="6.7803529" />
    </filter>
    <filter
       id="filter4001"
       color-interpolation-filters="sRGB"
       height="1.257324"
       width="1.149857"
       y="-0.12866202"
       x="-0.07492853">
      <feGaussianBlur
         id="feGaussianBlur4003"
         stdDeviation="6.7803529" />
    </filter>
    <filter
       id="filter3997"
       color-interpolation-filters="sRGB"
       height="1.2207661"
       width="1.1631417"
       y="-0.11038305"
       x="-0.081570871">
      <feGaussianBlur
         id="feGaussianBlur3999"
         stdDeviation="6.7803529" />
    </filter>
    <filter
       id="filter3993"
       color-interpolation-filters="sRGB"
       height="1.1447482"
       width="1.2981865"
       y="-0.072374105"
       x="-0.1490933">
      <feGaussianBlur
         id="feGaussianBlur3995"
         stdDeviation="6.7803529" />
    </filter>
    <filter
       id="filter3989"
       color-interpolation-filters="sRGB">
      <feGaussianBlur
         id="feGaussianBlur3991"
         stdDeviation="6.7803529" />
    </filter>
    <filter
       id="filter3985"
       color-interpolation-filters="sRGB"
       height="1.3107746"
       width="1.1436011"
       y="-0.15538733"
       x="-0.071800567">
      <feGaussianBlur
         id="feGaussianBlur3987"
         stdDeviation="6.7803529" />
    </filter>
    <filter
       id="filter3174"
       color-interpolation-filters="sRGB">
      <feGaussianBlur
         stdDeviation="1.71"
         id="feGaussianBlur3176" />
    </filter>
    <linearGradient
       gradientTransform="scale(1.0058652,0.994169)"
       gradientUnits="userSpaceOnUse"
       id="ButtonShadow"
       y2="7.0165396"
       x2="45.447727"
       y1="92.539597"
       x1="45.447727">
      <stop
         offset="0"
         style="stop-color:#000000;stop-opacity:1"
         id="stop3750" />
      <stop
         offset="1"
         style="stop-color:#000000;stop-opacity:0.58823532"
         id="stop3752" />
    </linearGradient>
    <linearGradient
       inkscape:collect="always"
       xlink:href="#ButtonShadow"
       id="linearGradient4464"
       gradientUnits="userSpaceOnUse"
       gradientTransform="matrix(1.0058652,0,0,0.994169,58.395239,981.5892)"
       x1="45.447727"
       y1="92.539597"
       x2="45.447727"
       y2="7.0165396" />
    <linearGradient
       inkscape:collect="always"
       xlink:href="#linearGradient5715"
       id="linearGradient5721"
       x1="24"
       y1="1050.3622"
       x2="24"
       y2="1006.3622"
       gradientUnits="userSpaceOnUse" />
    <clipPath
       id="clipPath-538646568">
      <g
         id="g3061"
         transform="translate(0,-1004.3622)">
        <path
           id="path3063"
           fill="#1890d0"
           transform="matrix(15.333333,0,0,11.5,414.99999,878.8622)"
           d="m -24 13 c 0 1.105 -0.672 2 -1.5 2 -0.828 0 -1.5 -0.895 -1.5 -2 0 -1.105 0.672 -2 1.5 -2 0.828 0 1.5 0.895 1.5 2 z" />
      </g>
    </clipPath>
    <clipPath
       id="clipPath-530784810">
      <g
         id="g3056"
         transform="translate(0,-1004.3622)">
        <path
           id="path3058"
           fill="#1890d0"
           transform="matrix(15.333333,0,0,11.5,414.99999,878.8622)"
           d="m -24 13 c 0 1.105 -0.672 2 -1.5 2 -0.828 0 -1.5 -0.895 -1.5 -2 0 -1.105 0.672 -2 1.5 -2 0.828 0 1.5 0.895 1.5 2 z" />
      </g>
    </clipPath>
    <linearGradient
       gradientTransform="matrix(0,-1,1,0,-1.5e-6,47.999998)"
       gradientUnits="userSpaceOnUse"
       x2="47"
       x1="1"
       id="linearGradient3764">
      <stop
         id="stop3051"
         stop-opacity="1"
         stop-color="#e4e4e4" />
      <stop
         id="stop3053"
         stop-opacity="1"
         stop-color="#eee"
         offset="1" />
    </linearGradient>
  </defs>
  <sodipodi:namedview
     id="base"
     pagecolor="#ffffff"
     bordercolor="#666666"
     borderopacity="1.0"
     inkscape:pageopacity="0.0"
     inkscape:pageshadow="2"
     inkscape:zoom="8.1906533"
     inkscape:cx="18.18092"
     inkscape:cy="16.589207"
     inkscape:document-units="px"
     inkscape:current-layer="layer1"
     showgrid="true"
     inkscape:snap-bbox="true"
     inkscape:window-width="1301"
     inkscape:window-height="744"
     inkscape:window-x="65"
     inkscape:window-y="24"
     inkscape:window-maximized="1"
     inkscape:snap-global="true"
     inkscape:snap-nodes="false"
     inkscape:snap-object-midpoints="true">
    <inkscape:grid
       type="xygrid"
       id="grid2985"
       empspacing="6"
       visible="true"
       enabled="true"
       snapvisiblegridlinesonly="true" />
  </sodipodi:namedview>
  <metadata
     id="metadata7">
    <rdf:RDF>
      <cc:Work
         rdf:about="">
        <dc:format>image/svg+xml</dc:format>
        <dc:type
           rdf:resource="http://purl.org/dc/dcmitype/StillImage" />
        <dc:title />
      </cc:Work>
    </rdf:RDF>
  </metadata>
  <g
     inkscape:label="Layer 1"
     inkscape:groupmode="layer"
     id="layer1"
     transform="translate(0,-1004.3622)">
    <path
       id="path3788"
       d="m 24,1051.1116 c -21.2715315,0 -23.66257505,-0.089 -23.9375,-15.4063 0.328125,14.4033 2.9375,14.4063 23.9375,14.4063 21,0 23.609375,0 23.9375,-14.4063 -0.274925,15.3174 -2.665968,15.4063 -23.9375,15.4063 z"
       style="opacity:0.20000000000000001;fill:#ffffff;fill-opacity:1;stroke:none"
       inkscape:connector-curvature="0" />
    <path
       style="fill:url(#linearGradient5721);fill-opacity:1;stroke:none"
       d="m 24,1006.3622 c -24,0 -24,0 -24,22 0,22 0,22 24,22 24,0 24,0 24,-22 0,-22 0,-22 -24,-22 z"
       id="path3757"
       inkscape:connector-curvature="0"
       sodipodi:nodetypes="zzzzz" />
    <path
       style="fill:#000000;fill-opacity:1;stroke:none;opacity:0.20000000000000001"
       d="M 24 2 C 2.7284685 2 0.33742495 2.0888436 0.0625 17.40625 C 0.390625 3.0029297 3 3 24 3 C 45 3 47.609375 3.0029297 47.9375 17.40625 C 47.662575 2.0888436 45.271532 2 24 2 z "
       transform="translate(0,1004.3622)"
       id="path3770" />
    <path
       style="fill:#000000;fill-opacity:1;stroke:none;opacity:0.20000000000000001"
       d="M 24 2 C 7.2405624 2 2.2369698 2.0788791 0.71875 9.59375 C 2.3300781 2.5289866 7.5 2.53125 24 2.53125 C 40.5 2.53125 45.669922 2.5289866 47.28125 9.59375 C 45.76303 2.0788791 40.759438 2 24 2 z M 47.28125 9.59375 C 47.354492 9.9148756 47.409424 10.242768 47.46875 10.59375 C 47.41561 10.240351 47.346891 9.9186608 47.28125 9.59375 z M 0.71875 9.59375 C 0.65310868 9.9186608 0.58439008 10.240351 0.53125 10.59375 C 0.59057617 10.242768 0.64550781 9.9148756 0.71875 9.59375 z "
       transform="translate(0,1004.3622)"
       id="path3012" />
    <g
       id="g3032"
       transform="translate(48,1007.3622)" />
    <g
       id="g3824"
       transform="translate(-52.998,1003.3622)" />
    <g
       id="g3047"
       transform="translate(-56.50457,1004.9708)" />
    <path
       style="fill:#dbdbdb;fill-opacity:1;fill-rule:nonzero;stroke:none;stroke-width:25;marker-mid:none;display:none;filter:url(#filter3985);enable-background:new"
       id="path3095"
       transform="matrix(0.08878086,0,0,0.08881664,-236.77678,1010.4868)"
       inkscape:connector-curvature="0"
       d="m 324.38759,135.62452 c -45.38059,3.2742 -125.14974,80.45343 -113.93317,80.06244 92.77726,-3.23392 150.72813,2.10512 223.11793,24.5811 10.71863,3.32799 -11.56647,-97.10992 -109.18476,-104.64354 z" />
    <path
       style="fill:#dbdbdb;fill-opacity:1;fill-rule:nonzero;stroke:#000000;stroke-width:0;stroke-linecap:butt;stroke-linejoin:round;stroke-miterlimit:4;stroke-opacity:1;stroke-dasharray:none;stroke-dashoffset:1;marker-mid:none;display:none;filter:url(#filter3989);enable-background:new"
       id="path3097"
       transform="matrix(0.08878086,0,0,0.08881664,-236.77678,1010.4868)"
       inkscape:connector-curvature="0"
       d="M 186.37822,72.150309 C 160.57833,109.62675 157.33905,256.29261 163.99898,247.2588 218.88951,172.80293 350.45207,80.852043 428.9148,43.825512 525.90264,-1.943011 243.81268,3.6410539 186.37822,72.150309 z" />
    <path
       style="fill:#dbdbdb;fill-opacity:1;fill-rule:nonzero;stroke:none;stroke-width:25;marker-mid:none;display:none;filter:url(#filter3993);enable-background:new"
       id="path3099"
       transform="matrix(0.08878086,0,0,0.08881664,-236.77678,1010.4868)"
       inkscape:connector-curvature="0"
       d="M 69.5521,231.67976 C 84.41923,274.68075 179.56014,331.84683 176.28962,321.11052 149.23774,232.30583 139.45061,174.93843 142.49683,99.2009 142.94789,87.986573 51.65499,135.42084 69.5521,231.67976 z" />
    <path
       style="fill:#dbdbdb;fill-opacity:1;fill-rule:nonzero;stroke:none;stroke-width:25;marker-mid:none;display:none;filter:url(#filter3997);enable-background:new"
       id="path3101"
       transform="matrix(0.08878086,0,0,0.08881664,-236.77678,1010.4868)"
       inkscape:connector-curvature="0"
       d="m 81.97729,372.8505 c 42.13653,17.1648 147.83895,-16.69886 137.60948,-21.31646 -84.61255,-38.1942 -134.204,-68.649 -189.1504,-120.86343 -8.1358,-7.73129 -32.64264,92.18775 51.54092,142.17989 z" />
    <path
       style="fill:#dbdbdb;fill-opacity:1;fill-rule:nonzero;stroke:none;stroke-width:25;marker-mid:none;display:none;filter:url(#filter4001);enable-background:new"
       id="path3103"
       transform="matrix(0.08878086,0,0,0.08881664,-236.77678,1010.4868)"
       inkscape:connector-curvature="0"
       d="m 203.88504,453.62703 c 40.28664,-21.14484 82.54559,-123.77977 72.42084,-118.93689 -83.74641,40.05772 -138.99861,58.33341 -214.33707,66.67436 -11.15521,1.23503 49.42757,84.38627 141.91623,52.26253 z" />
    <path
       style="fill:#dbdbdb;fill-opacity:1;fill-rule:nonzero;stroke:none;stroke-width:25;marker-mid:none;display:none;filter:url(#filter4005);enable-background:new"
       id="path3105"
       transform="matrix(0.08878086,0,0,0.08881664,-236.77678,1010.4868)"
       inkscape:connector-curvature="0"
       d="m 345.96158,410.03296 c 9.84126,-44.42146 -41.30053,-142.93171 -44.13379,-132.07183 -23.43513,89.82691 -45.12493,143.83025 -87.36533,206.76832 -6.25446,9.31914 96.3617,16.68976 131.49912,-74.69649 z" />
    <path
       style="fill:#dbdbdb;fill-opacity:1;fill-rule:nonzero;stroke:none;stroke-width:25;marker-mid:none;display:none;filter:url(#filter4009);enable-background:new"
       id="path3107"
       transform="matrix(0.08878086,0,0,0.08881664,-236.77678,1010.4868)"
       inkscape:connector-curvature="0"
       d="M 401.89383,270.24178 C 374.5208,233.89852 266.4087,208.76833 272.82303,217.97814 c 53.05584,76.17847 80.01415,127.7542 100.41172,200.75689 3.02024,10.80938 75.29683,-62.40604 28.65908,-148.49325 z" />
    <path
       style="fill:#dbdbdb;fill-opacity:1;fill-rule:nonzero;stroke:none;stroke-width:25;marker-mid:none;display:none;filter:url(#filter3985-9);enable-background:new"
       id="path3095-7"
       transform="matrix(0.08878086,0,0,0.08881664,-475.90178,987.73679)"
       inkscape:connector-curvature="0"
       d="m 324.38759,135.62452 c -45.38059,3.2742 -125.14974,80.45343 -113.93317,80.06244 92.77726,-3.23392 150.72813,2.10512 223.11793,24.5811 10.71863,3.32799 -11.56647,-97.10992 -109.18476,-104.64354 z" />
    <path
       style="fill:#dbdbdb;fill-opacity:1;fill-rule:nonzero;stroke:#000000;stroke-width:0;stroke-linecap:butt;stroke-linejoin:round;stroke-miterlimit:4;stroke-opacity:1;stroke-dasharray:none;stroke-dashoffset:1;marker-mid:none;display:none;filter:url(#filter3989-9);enable-background:new"
       id="path3097-4"
       transform="matrix(0.08878086,0,0,0.08881664,-475.90178,987.73679)"
       inkscape:connector-curvature="0"
       d="M 186.37822,72.150309 C 160.57833,109.62675 157.33905,256.29261 163.99898,247.2588 218.88951,172.80293 350.45207,80.852043 428.9148,43.825512 525.90264,-1.943011 243.81268,3.6410539 186.37822,72.150309 z" />
    <path
       style="fill:#dbdbdb;fill-opacity:1;fill-rule:nonzero;stroke:none;stroke-width:25;marker-mid:none;display:none;filter:url(#filter3993-8);enable-background:new"
       id="path3099-9"
       transform="matrix(0.08878086,0,0,0.08881664,-475.90178,987.73679)"
       inkscape:connector-curvature="0"
       d="M 69.5521,231.67976 C 84.41923,274.68075 179.56014,331.84683 176.28962,321.11052 149.23774,232.30583 139.45061,174.93843 142.49683,99.2009 142.94789,87.986573 51.65499,135.42084 69.5521,231.67976 z" />
    <path
       style="fill:#dbdbdb;fill-opacity:1;fill-rule:nonzero;stroke:none;stroke-width:25;marker-mid:none;display:none;filter:url(#filter3997-0);enable-background:new"
       id="path3101-4"
       transform="matrix(0.08878086,0,0,0.08881664,-475.90178,987.73679)"
       inkscape:connector-curvature="0"
       d="m 81.97729,372.8505 c 42.13653,17.1648 147.83895,-16.69886 137.60948,-21.31646 -84.61255,-38.1942 -134.204,-68.649 -189.1504,-120.86343 -8.1358,-7.73129 -32.64264,92.18775 51.54092,142.17989 z" />
    <path
       style="fill:#dbdbdb;fill-opacity:1;fill-rule:nonzero;stroke:none;stroke-width:25;marker-mid:none;display:none;filter:url(#filter4001-9);enable-background:new"
       id="path3103-3"
       transform="matrix(0.08878086,0,0,0.08881664,-475.90178,987.73679)"
       inkscape:connector-curvature="0"
       d="m 203.88504,453.62703 c 40.28664,-21.14484 82.54559,-123.77977 72.42084,-118.93689 -83.74641,40.05772 -138.99861,58.33341 -214.33707,66.67436 -11.15521,1.23503 49.42757,84.38627 141.91623,52.26253 z" />
    <path
       style="fill:#dbdbdb;fill-opacity:1;fill-rule:nonzero;stroke:none;stroke-width:25;marker-mid:none;display:none;filter:url(#filter4005-7);enable-background:new"
       id="path3105-1"
       transform="matrix(0.08878086,0,0,0.08881664,-475.90178,987.73679)"
       inkscape:connector-curvature="0"
       d="m 345.96158,410.03296 c 9.84126,-44.42146 -41.30053,-142.93171 -44.13379,-132.07183 -23.43513,89.82691 -45.12493,143.83025 -87.36533,206.76832 -6.25446,9.31914 96.3617,16.68976 131.49912,-74.69649 z" />
    <path
       style="fill:#dbdbdb;fill-opacity:1;fill-rule:nonzero;stroke:none;stroke-width:25;marker-mid:none;display:none;filter:url(#filter4009-8);enable-background:new"
       id="path3107-0"
       transform="matrix(0.08878086,0,0,0.08881664,-475.90178,987.73679)"
       inkscape:connector-curvature="0"
       d="M 401.89383,270.24178 C 374.5208,233.89852 266.4087,208.76833 272.82303,217.97814 c 53.05584,76.17847 80.01415,127.7542 100.41172,200.75689 3.02024,10.80938 75.29683,-62.40604 28.65908,-148.49325 z" />
    <rect
       style="opacity:0.9;fill:url(#linearGradient4464);fill-opacity:1;fill-rule:nonzero;stroke:none;display:none;filter:url(#filter3174)"
       id="rect3745"
       y="988.58917"
       x="63.395241"
       ry="6"
       rx="6"
       height="85"
       width="86" />
    <g
       id="g3077"
       transform="translate(-49.998,1007.3622)" />
    <g
       id="g3079"
       transform="translate(-0.00480419,1005.3611)">
      <g
         clip-path="url(#clipPath-530784810)"
         id="g3081">
        <g
           transform="translate(1,1)"
           id="g3083">
          <g
             style="opacity:0.1"
             id="g3085">
            <!-- color: #eeeeee -->
            <g
               id="g3087">
              <path
                 style="fill:#000000;fill-opacity:1;fill-rule:nonzero;stroke:none"
                 inkscape:connector-curvature="0"
                 d="m 36.04,27.02 c -3.254,0.645 -3.477,-0.418 -3.477,-0.418 3.434,-4.906 4.867,-11.137 3.629,-12.664 -3.379,-4.156 -9.227,-2.191 -9.328,-2.137 l -0.031,0.004 c -0.641,-0.125 -1.359,-0.203 -2.168,-0.215 -1.469,-0.023 -2.586,0.371 -3.434,0.992 0,0 -10.43,-4.141 -9.949,5.207 0.102,1.988 2.957,15.05 6.363,11.11 1.246,-1.441 2.449,-2.66 2.449,-2.66 0.598,0.383 1.313,0.578 2.063,0.508 L 22.212,26.7 c -0.016,0.18 -0.008,0.355 0.027,0.563 -0.879,0.945 -0.621,1.109 -2.375,1.461 -1.773,0.352 -0.734,0.98 -0.055,1.145 0.828,0.199 2.738,0.48 4.03,-1.258 l -0.055,0.199 c 0.344,0.266 0.586,1.723 0.547,3.051 -0.039,1.324 -0.066,2.23 0.203,2.941 0.27,0.711 0.539,2.309 2.844,1.832 1.93,-0.395 2.926,-1.426 3.066,-3.148 0.098,-1.223 0.32,-1.043 0.336,-2.137 l 0.176,-0.516 c 0.207,-1.66 0.031,-2.195 1.219,-1.941 l 0.289,0.023 c 0.875,0.039 2.02,-0.137 2.688,-0.438 1.445,-0.645 2.305,-1.723 0.879,-1.441 m 0.012,-0.012"
                 id="path3089" />
              <path
                 style="fill:#000000;stroke:#f9f9f9;stroke-width:0.141;stroke-linecap:round;stroke-linejoin:round;stroke-miterlimit:4;stroke-opacity:1"
                 inkscape:connector-curvature="0"
                 d="m 6.769,7.893 c -0.025,0.87 0.007,1.745 0.095,1.96 0.088,0.213 0.278,0.624 0.929,0.493 C 8.335,10.234 8.535,10.014 8.62,9.537 8.683,9.184 8.805,8.204 8.821,8.002"
                 transform="scale(3.543307,3.543307)"
                 stroke-miterlimit="4"
                 id="path3091" />
              <path
                 style="fill:#000000;stroke:#f9f9f9;stroke-width:0.141;stroke-linecap:round;stroke-linejoin:round;stroke-miterlimit:4;stroke-opacity:1"
                 inkscape:connector-curvature="0"
                 d="m 5.99,3.53 c 0,0 -2.947,-1.16 -2.809,1.478 0.03,0.561 0.836,4.248 1.797,3.133 C 5.329,7.733 5.646,7.412 5.646,7.412"
                 transform="scale(3.543307,3.543307)"
                 stroke-miterlimit="4"
                 id="path3093" />
              <path
                 style="fill:#000000;stroke:#f9f9f9;stroke-width:0.141;stroke-linecap:round;stroke-linejoin:round;stroke-miterlimit:4;stroke-opacity:1"
                 inkscape:connector-curvature="0"
                 d="M 7.581,3.318 C 7.476,3.349 9.218,2.705 10.208,3.923 10.559,4.353 10.153,6.109 9.185,7.496"
                 transform="scale(3.543307,3.543307)"
                 stroke-miterlimit="4"
                 id="path3095-1" />
              <path
                 style="fill:#000000;stroke:#f9f9f9;stroke-width:0.141;stroke-linecap:round;stroke-linejoin:bevel;stroke-miterlimit:4;stroke-opacity:1"
                 inkscape:connector-curvature="0"
                 d="m 9.185,7.497 c 0,0 0.063,0.301 0.98,0.118 0.4,-0.078 0.161,0.226 -0.248,0.409 C 9.583,8.174 8.83,8.209 8.82,8.003 8.787,7.468 9.216,7.631 9.185,7.497 9.154,7.378 8.966,7.26 8.84,6.967 8.73,6.71 7.33,4.737 9.228,5.03 9.295,5.016 8.733,3.289 6.956,3.262 5.179,3.234 5.236,5.368 5.236,5.368"
                 transform="scale(3.543307,3.543307)"
                 stroke-miterlimit="4"
                 id="path3097-0" />
              <path
                 style="fill:#000000;stroke:#f9f9f9;stroke-width:0.141;stroke-linecap:round;stroke-linejoin:round;stroke-miterlimit:4;stroke-opacity:1"
                 inkscape:connector-curvature="0"
                 d="M 6.272,7.68 C 6.024,7.949 6.098,7.992 5.602,8.091 5.101,8.19 5.398,8.369 5.59,8.414 5.823,8.47 6.362,8.551 6.726,8.058 6.837,7.908 6.725,7.67 6.574,7.609 6.499,7.58 6.402,7.543 6.275,7.68 m 0,0"
                 transform="scale(3.543307,3.543307)"
                 stroke-miterlimit="4"
                 id="path3099-2" />
              <path
                 style="fill:#000000;stroke:#f9f9f9;stroke-width:0.141;stroke-linecap:round;stroke-linejoin:round;stroke-miterlimit:4;stroke-opacity:1"
                 inkscape:connector-curvature="0"
                 d="M 6.256,7.675 C 6.231,7.517 6.309,7.332 6.393,7.114 6.519,6.787 6.811,6.459 6.578,5.421 6.404,4.647 5.239,5.26 5.236,5.366 c 0,0.107 0.053,0.531 -0.02,1.031 -0.094,0.648 0.429,1.197 1.031,1.141"
                 transform="scale(3.543307,3.543307)"
                 stroke-miterlimit="4"
                 id="path3101-8" />
              <path
                 style="fill:#000000;fill-opacity:1;fill-rule:nonzero;stroke:#f9f9f9;stroke-width:0.141;stroke-linecap:butt;stroke-linejoin:miter;stroke-miterlimit:4;stroke-opacity:1"
                 inkscape:connector-curvature="0"
                 d="M 5.978,5.348 C 5.97,5.384 6.043,5.479 6.14,5.492 6.236,5.505 6.316,5.429 6.323,5.394 6.329,5.358 6.256,5.319 6.16,5.306 6.064,5.293 5.983,5.312 5.978,5.348 m 0,0"
                 transform="scale(3.543307,3.543307)"
                 stroke-miterlimit="4"
                 id="path3103-9" />
              <path
                 style="fill:#000000;fill-opacity:1;fill-rule:nonzero;stroke:#f9f9f9;stroke-width:0.071;stroke-linecap:butt;stroke-linejoin:miter;stroke-miterlimit:4;stroke-opacity:1"
                 inkscape:connector-curvature="0"
                 d="M 8.887,5.275 C 8.895,5.311 8.821,5.406 8.724,5.419 8.627,5.429 8.549,5.354 8.541,5.321 8.535,5.285 8.608,5.246 8.704,5.233 8.8,5.22 8.881,5.239 8.886,5.275 m 0.001,0"
                 transform="scale(3.543307,3.543307)"
                 stroke-miterlimit="4"
                 id="path3105-4" />
              <path
                 style="fill:#000000;stroke:#f9f9f9;stroke-width:0.141;stroke-linecap:round;stroke-linejoin:round;stroke-miterlimit:4;stroke-opacity:1"
                 inkscape:connector-curvature="0"
                 d="M 9.228,5.03 C 9.241,5.311 9.164,5.503 9.153,5.802 9.14,6.236 9.368,6.735 9.024,7.233"
                 transform="scale(3.543307,3.543307)"
                 stroke-miterlimit="4"
                 id="path3107-9" />
            </g>
          </g>
        </g>
      </g>
    </g>
    <g
       id="g3109"
       transform="translate(-0.00480419,1005.3611)">
      <g
         clip-path="url(#clipPath-538646568)"
         id="g3111">
        <!-- color: #eeeeee -->
        <g
           id="g3113">
          <path
             style="fill:#33678e;fill-opacity:1;fill-rule:nonzero;stroke:none"
             inkscape:connector-curvature="0"
             d="m 36.04,27.02 c -3.254,0.645 -3.477,-0.418 -3.477,-0.418 3.434,-4.906 4.867,-11.137 3.629,-12.664 -3.379,-4.156 -9.227,-2.191 -9.328,-2.137 l -0.031,0.004 c -0.641,-0.125 -1.359,-0.203 -2.168,-0.215 -1.469,-0.023 -2.586,0.371 -3.434,0.992 0,0 -10.43,-4.141 -9.949,5.207 0.102,1.988 2.957,15.05 6.363,11.11 1.246,-1.441 2.449,-2.66 2.449,-2.66 0.598,0.383 1.313,0.578 2.063,0.508 L 22.212,26.7 c -0.016,0.18 -0.008,0.355 0.027,0.563 -0.879,0.945 -0.621,1.109 -2.375,1.461 -1.773,0.352 -0.734,0.98 -0.055,1.145 0.828,0.199 2.738,0.48 4.03,-1.258 l -0.055,0.199 c 0.344,0.266 0.586,1.723 0.547,3.051 -0.039,1.324 -0.066,2.23 0.203,2.941 0.27,0.711 0.539,2.309 2.844,1.832 1.93,-0.395 2.926,-1.426 3.066,-3.148 0.098,-1.223 0.32,-1.043 0.336,-2.137 l 0.176,-0.516 c 0.207,-1.66 0.031,-2.195 1.219,-1.941 l 0.289,0.023 c 0.875,0.039 2.02,-0.137 2.688,-0.438 1.445,-0.645 2.305,-1.723 0.879,-1.441 m 0.012,-0.012"
             id="path3115" />
          <path
             style="fill:none;stroke:#f9f9f9;stroke-width:0.141;stroke-linecap:round;stroke-linejoin:round;stroke-miterlimit:4;stroke-opacity:1"
             inkscape:connector-curvature="0"
             d="m 6.769,7.893 c -0.025,0.87 0.007,1.745 0.095,1.96 0.088,0.213 0.278,0.624 0.929,0.493 C 8.335,10.234 8.535,10.014 8.62,9.537 8.683,9.184 8.805,8.204 8.821,8.002"
             transform="scale(3.543307,3.543307)"
             stroke-miterlimit="4"
             id="path3117" />
          <path
             style="fill:none;stroke:#f9f9f9;stroke-width:0.141;stroke-linecap:round;stroke-linejoin:round;stroke-miterlimit:4;stroke-opacity:1"
             inkscape:connector-curvature="0"
             d="m 5.99,3.53 c 0,0 -2.947,-1.16 -2.809,1.478 0.03,0.561 0.836,4.248 1.797,3.133 C 5.329,7.733 5.646,7.412 5.646,7.412"
             transform="scale(3.543307,3.543307)"
             stroke-miterlimit="4"
             id="path3119" />
          <path
             style="fill:none;stroke:#f9f9f9;stroke-width:0.141;stroke-linecap:round;stroke-linejoin:round;stroke-miterlimit:4;stroke-opacity:1"
             inkscape:connector-curvature="0"
             d="M 7.581,3.318 C 7.476,3.349 9.218,2.705 10.208,3.923 10.559,4.353 10.153,6.109 9.185,7.496"
             transform="scale(3.543307,3.543307)"
             stroke-miterlimit="4"
             id="path3121" />
          <path
             style="fill:none;stroke:#f9f9f9;stroke-width:0.141;stroke-linecap:round;stroke-linejoin:bevel;stroke-miterlimit:4;stroke-opacity:1"
             inkscape:connector-curvature="0"
             d="m 9.185,7.497 c 0,0 0.063,0.301 0.98,0.118 0.4,-0.078 0.161,0.226 -0.248,0.409 C 9.583,8.174 8.83,8.209 8.82,8.003 8.787,7.468 9.216,7.631 9.185,7.497 9.154,7.378 8.966,7.26 8.84,6.967 8.73,6.71 7.33,4.737 9.228,5.03 9.295,5.016 8.733,3.289 6.956,3.262 5.179,3.234 5.236,5.368 5.236,5.368"
             transform="scale(3.543307,3.543307)"
             stroke-miterlimit="4"
             id="path3123" />
          <path
             style="fill:none;stroke:#f9f9f9;stroke-width:0.141;stroke-linecap:round;stroke-linejoin:round;stroke-miterlimit:4;stroke-opacity:1"
             inkscape:connector-curvature="0"
             d="M 6.272,7.68 C 6.024,7.949 6.098,7.992 5.602,8.091 5.101,8.19 5.398,8.369 5.59,8.414 5.823,8.47 6.362,8.551 6.726,8.058 6.837,7.908 6.725,7.67 6.574,7.609 6.499,7.58 6.402,7.543 6.275,7.68 m 0,0"
             transform="scale(3.543307,3.543307)"
             stroke-miterlimit="4"
             id="path3125" />
          <path
             style="fill:none;stroke:#f9f9f9;stroke-width:0.141;stroke-linecap:round;stroke-linejoin:round;stroke-miterlimit:4;stroke-opacity:1"
             inkscape:connector-curvature="0"
             d="M 6.256,7.675 C 6.231,7.517 6.309,7.332 6.393,7.114 6.519,6.787 6.811,6.459 6.578,5.421 6.404,4.647 5.239,5.26 5.236,5.366 c 0,0.107 0.053,0.531 -0.02,1.031 -0.094,0.648 0.429,1.197 1.031,1.141"
             transform="scale(3.543307,3.543307)"
             stroke-miterlimit="4"
             id="path3127" />
          <path
             style="fill:#ffffff;fill-opacity:1;fill-rule:nonzero;stroke:#f9f9f9;stroke-width:0.141;stroke-linecap:butt;stroke-linejoin:miter;stroke-miterlimit:4;stroke-opacity:1"
             inkscape:connector-curvature="0"
             d="M 5.978,5.348 C 5.97,5.384 6.043,5.479 6.14,5.492 6.236,5.505 6.316,5.429 6.323,5.394 6.329,5.358 6.256,5.319 6.16,5.306 6.064,5.293 5.983,5.312 5.978,5.348 m 0,0"
             transform="scale(3.543307,3.543307)"
             stroke-miterlimit="4"
             id="path3129" />
          <path
             style="fill:#ffffff;fill-opacity:1;fill-rule:nonzero;stroke:#f9f9f9;stroke-width:0.071;stroke-linecap:butt;stroke-linejoin:miter;stroke-miterlimit:4;stroke-opacity:1"
             inkscape:connector-curvature="0"
             d="M 8.887,5.275 C 8.895,5.311 8.821,5.406 8.724,5.419 8.627,5.429 8.549,5.354 8.541,5.321 8.535,5.285 8.608,5.246 8.704,5.233 8.8,5.22 8.881,5.239 8.886,5.275 m 0.001,0"
             transform="scale(3.543307,3.543307)"
             stroke-miterlimit="4"
             id="path3131" />
          <path
             style="fill:none;stroke:#f9f9f9;stroke-width:0.141;stroke-linecap:round;stroke-linejoin:round;stroke-miterlimit:4;stroke-opacity:1"
             inkscape:connector-curvature="0"
             d="M 9.228,5.03 C 9.241,5.311 9.164,5.503 9.153,5.802 9.14,6.236 9.368,6.735 9.024,7.233"
             transform="scale(3.543307,3.543307)"
             stroke-miterlimit="4"
             id="path3133" />
        </g>
      </g>
    </g>
  </g>
</svg>
