<?xml version="1.0" encoding="UTF-8" standalone="no"?>
<!-- Created with Inkscape (http://www.inkscape.org/) -->

<svg
   xmlns:dc="http://purl.org/dc/elements/1.1/"
   xmlns:cc="http://creativecommons.org/ns#"
   xmlns:rdf="http://www.w3.org/1999/02/22-rdf-syntax-ns#"
   xmlns:svg="http://www.w3.org/2000/svg"
   xmlns="http://www.w3.org/2000/svg"
   xmlns:xlink="http://www.w3.org/1999/xlink"
   xmlns:sodipodi="http://sodipodi.sourceforge.net/DTD/sodipodi-0.dtd"
   xmlns:inkscape="http://www.inkscape.org/namespaces/inkscape"
   width="48"
   height="48"
   id="svg2"
   version="1.1"
   inkscape:version="0.48.4 r9939"
   sodipodi:docname="picard.svg">
  <defs
     id="defs4">
    <linearGradient
       id="linearGradient3814">
      <stop
         style="stop-color:#aa00ff;stop-opacity:1;"
         offset="0"
         id="stop3816" />
      <stop
         style="stop-color:#be3dff;stop-opacity:1;"
         offset="1"
         id="stop3818" />
    </linearGradient>
    <linearGradient
       inkscape:collect="always"
       xlink:href="#linearGradient3814"
       id="linearGradient3820"
       x1="24"
       y1="1050.3622"
       x2="24"
       y2="1006.3622"
       gradientUnits="userSpaceOnUse" />
  </defs>
  <sodipodi:namedview
     id="base"
     pagecolor="#ffffff"
     bordercolor="#666666"
     borderopacity="1.0"
     inkscape:pageopacity="0.0"
     inkscape:pageshadow="2"
     inkscape:zoom="9.1441763"
     inkscape:cx="31.941911"
     inkscape:cy="21.863373"
     inkscape:document-units="px"
     inkscape:current-layer="layer1"
     showgrid="true"
     inkscape:snap-bbox="true"
     inkscape:window-width="1301"
     inkscape:window-height="744"
     inkscape:window-x="65"
     inkscape:window-y="24"
     inkscape:window-maximized="1"
     inkscape:object-nodes="true"
     inkscape:snap-nodes="true">
    <inkscape:grid
       type="xygrid"
       id="grid3003"
       empspacing="6"
       visible="true"
       enabled="true"
       snapvisiblegridlinesonly="true" />
  </sodipodi:namedview>
  <metadata
     id="metadata7">
    <rdf:RDF>
      <cc:Work
         rdf:about="">
        <dc:format>image/svg+xml</dc:format>
        <dc:type
           rdf:resource="http://purl.org/dc/dcmitype/StillImage" />
        <dc:title />
      </cc:Work>
    </rdf:RDF>
  </metadata>
  <g
     inkscape:label="Layer 1"
     inkscape:groupmode="layer"
     id="layer1"
     transform="translate(0,-1004.3622)">
    <path
       id="path3788"
       d="m 24,1051.1116 c -21.2715315,0 -23.66257505,-0.089 -23.9375,-15.4063 0.328125,14.4033 2.9375,14.4063 23.9375,14.4063 21,0 23.609375,0 23.9375,-14.4063 -0.274925,15.3174 -2.665968,15.4063 -23.9375,15.4063 z"
       style="opacity:0.20000000000000001;fill:#ffffff;fill-opacity:1;stroke:none"
       inkscape:connector-curvature="0" />
    <path
       style="fill:url(#linearGradient3820);fill-opacity:1;stroke:none"
       d="m 24,1006.3622 c -24,0 -24,0 -24,22 0,22 0,22 24,22 24,0 24,0 24,-22 0,-22 0,-22 -24,-22 z"
       id="path3757"
       inkscape:connector-curvature="0"
       sodipodi:nodetypes="zzzzz" />
    <g
       id="g3813"
       transform="translate(-47.998,993.3622)" />
    <path
       style="fill:#000000;fill-opacity:1;stroke:none;opacity:0.20000000000000001"
       d="M 24 2 C 2.7284685 2 0.33742495 2.0888436 0.0625 17.40625 C 0.390625 3.0029297 3 3 24 3 C 45 3 47.609375 3.0029297 47.9375 17.40625 C 47.662575 2.0888436 45.271532 2 24 2 z "
       transform="translate(0,1004.3622)"
       id="path3770" />
    <g
       id="g3057"
       transform="translate(-49.355,995.0622)" />
    <g
       id="g3062"
       transform="translate(-55.998,1000.3622)" />
    <g
       id="g3049"
       transform="translate(-54.166963,994.16525)" />
    <path
       id="path3824"
       d="m 11.542331,1030.0467 c -0.783481,0.7835 -0.783481,2.045 0,2.8284 l 9.899495,9.8995 c 0.783481,0.7835 2.044945,0.7835 2.828427,0 l 14.142135,-14.1421 c 0.783482,-0.7835 0.783482,-2.045 0,-2.8284 l -9.899494,-9.8995 c -0.783482,-0.7835 -2.044946,-0.7835 -2.828428,0 l -14.142134,14.1421 z m 14.495689,-13.0815 c 0.585786,-0.5858 1.535534,-0.5858 2.12132,0 0.585786,0.5858 0.585786,1.5356 0,2.1214 -0.585786,0.5857 -1.535534,0.5857 -2.12132,0 -0.585787,-0.5858 -0.585787,-1.5356 0,-2.1214 z"
       style="fill:#000000;fill-opacity:1;stroke:none;opacity:0.2"
       inkscape:connector-curvature="0" />
    <g
       id="g3804"
       transform="matrix(0.70710678,-0.70710678,0.70710678,0.70710678,-720.13245,318.17088)">
      <path
         id="rect3015"
         transform="translate(0,1004.3622)"
         d="m 14,15 c -1.10801,0 -2,0.89199 -2,2 l 0,14 c 0,1.10801 0.89199,2 2,2 l 20,0 c 1.10801,0 2,-0.89199 2,-2 l 0,-14 c 0,-1.10801 -0.89199,-2 -2,-2 l -20,0 z m 19.5,1 C 34.328427,16 35,16.671573 35,17.5 35,18.328427 34.328427,19 33.5,19 32.671573,19 32,18.328427 32,17.5 32,16.671573 32.671573,16 33.5,16 z"
         style="fill:#ffffff;fill-opacity:1;stroke:none"
         inkscape:connector-curvature="0" />
      <rect
         y="1027.3622"
         x="12"
         height="1"
         width="21"
         id="rect3787"
         style="fill:#4e4e4e;fill-opacity:1;stroke:none" />
      <path
         transform="translate(0,1004.3622)"
         d="m 23,21 c 0,2.209139 -1.790861,4 -4,4 -2.209139,0 -4,-1.790861 -4,-4 0,-2.209139 1.790861,-4 4,-4 2.209139,0 4,1.790861 4,4 z"
         sodipodi:ry="4"
         sodipodi:rx="4"
         sodipodi:cy="21"
         sodipodi:cx="19"
         id="path3789"
         style="opacity:0.4;fill:#64b5f6;fill-opacity:1;stroke:none"
         sodipodi:type="arc" />
      <path
         transform="translate(0,1004.3622)"
         d="M 25,23.5 C 25,25.432997 23.432997,27 21.5,27 19.567003,27 18,25.432997 18,23.5 18,21.567003 19.567003,20 21.5,20 c 1.932997,0 3.5,1.567003 3.5,3.5 z"
         sodipodi:ry="3.5"
         sodipodi:rx="3.5"
         sodipodi:cy="23.5"
         sodipodi:cx="21.5"
         id="path3791"
         style="opacity:0.4;fill:#ffab00;fill-opacity:1;stroke:none"
         sodipodi:type="arc" />
      <path
         sodipodi:type="arc"
         style="opacity:0.4;fill:#18ffff;fill-opacity:1;stroke:none"
         id="path3793"
         sodipodi:cx="21.5"
         sodipodi:cy="23.5"
         sodipodi:rx="3.5"
         sodipodi:ry="3.5"
         d="M 25,23.5 C 25,25.432997 23.432997,27 21.5,27 19.567003,27 18,25.432997 18,23.5 18,21.567003 19.567003,20 21.5,20 c 1.932997,0 3.5,1.567003 3.5,3.5 z"
         transform="matrix(0.71428573,0,0,0.71428369,2.1428569,1011.0765)" />
      <rect
         transform="scale(-1,1)"
         style="fill:#757575;fill-opacity:1;stroke:none"
         id="rect3795"
         width="1"
         height="1"
         x="-34"
         y="1027.3622" />
      <rect
         y="1027.3622"
         x="-35"
         height="1"
         width="1"
         id="rect3797"
         style="fill:#9e9e9e;fill-opacity:1;stroke:none"
         transform="scale(-1,1)" />
      <rect
         transform="scale(-1,1)"
         style="fill:#e0e0e0;fill-opacity:1;stroke:none"
         id="rect3799"
         width="1"
         height="1"
         x="-36"
         y="1027.3622" />
    </g>
  </g>
</svg>
