<?xml version="1.0" encoding="UTF-8" standalone="no"?>
<!-- Created with Inkscape (http://www.inkscape.org/) -->

<svg
   xmlns:dc="http://purl.org/dc/elements/1.1/"
   xmlns:cc="http://creativecommons.org/ns#"
   xmlns:rdf="http://www.w3.org/1999/02/22-rdf-syntax-ns#"
   xmlns:svg="http://www.w3.org/2000/svg"
   xmlns="http://www.w3.org/2000/svg"
   xmlns:xlink="http://www.w3.org/1999/xlink"
   xmlns:sodipodi="http://sodipodi.sourceforge.net/DTD/sodipodi-0.dtd"
   xmlns:inkscape="http://www.inkscape.org/namespaces/inkscape"
   width="48"
   height="48"
   id="svg2"
   version="1.1"
   inkscape:version="0.48.4 r9939"
   sodipodi:docname="pidgin-menu.svg">
  <defs
     id="defs4">
    <linearGradient
       id="linearGradient3799">
      <stop
         style="stop-color:#9c27b0;stop-opacity:1;"
         offset="0"
         id="stop3801" />
      <stop
         style="stop-color:#b027ab;stop-opacity:1"
         offset="1"
         id="stop3803" />
    </linearGradient>
    <linearGradient
       id="linearGradient3925">
      <stop
         style="stop-color:#ff8f00;stop-opacity:1;"
         offset="0"
         id="stop3927" />
      <stop
         id="stop3933"
         offset="0.5"
         style="stop-color:#ff8f00;stop-opacity:1;" />
      <stop
         style="stop-color:#ffbc66;stop-opacity:1;"
         offset="0.5"
         id="stop3935" />
      <stop
         style="stop-color:#ffa433;stop-opacity:1;"
         offset="1"
         id="stop3929" />
    </linearGradient>
    <linearGradient
       inkscape:collect="always"
       xlink:href="#linearGradient3925"
       id="linearGradient3931"
       x1="17"
       y1="24"
       x2="31"
       y2="24"
       gradientUnits="userSpaceOnUse"
       gradientTransform="matrix(-1,0,0,1,48,1004.3622)" />
    <linearGradient
       inkscape:collect="always"
       xlink:href="#linearGradient3799"
       id="linearGradient3805"
       x1="24"
       y1="1050.3622"
       x2="24"
       y2="1006.3622"
       gradientUnits="userSpaceOnUse" />
  </defs>
  <sodipodi:namedview
     id="base"
     pagecolor="#ffffff"
     bordercolor="#666666"
     borderopacity="1.0"
     inkscape:pageopacity="0.0"
     inkscape:pageshadow="2"
     inkscape:zoom="16.381307"
     inkscape:cx="20.284536"
     inkscape:cy="17.552777"
     inkscape:document-units="px"
     inkscape:current-layer="layer1"
     showgrid="true"
     inkscape:snap-bbox="true"
     inkscape:window-width="1301"
     inkscape:window-height="744"
     inkscape:window-x="65"
     inkscape:window-y="24"
     inkscape:window-maximized="1"
     inkscape:object-nodes="true"
     showguides="true"
     inkscape:guide-bbox="true"
     inkscape:snap-nodes="true"
     inkscape:snap-global="true">
    <inkscape:grid
       type="xygrid"
       id="grid3003"
       empspacing="6"
       visible="true"
       enabled="true"
       snapvisiblegridlinesonly="true" />
  </sodipodi:namedview>
  <metadata
     id="metadata7">
    <rdf:RDF>
      <cc:Work
         rdf:about="">
        <dc:format>image/svg+xml</dc:format>
        <dc:type
           rdf:resource="http://purl.org/dc/dcmitype/StillImage" />
        <dc:title />
      </cc:Work>
    </rdf:RDF>
  </metadata>
  <g
     inkscape:label="Layer 1"
     inkscape:groupmode="layer"
     id="layer1"
     transform="translate(0,-1004.3622)">
    <path
       id="path3788"
       d="m 24,1051.1116 c -21.2715315,0 -23.66257505,-0.089 -23.9375,-15.4063 0.328125,14.4033 2.9375,14.4063 23.9375,14.4063 21,0 23.609375,0 23.9375,-14.4063 -0.274925,15.3174 -2.665968,15.4063 -23.9375,15.4063 z"
       style="opacity:0.20000000000000001;fill:#ffffff;fill-opacity:1;stroke:none"
       inkscape:connector-curvature="0" />
    <path
       style="fill:url(#linearGradient3805);fill-opacity:1;stroke:none"
       d="m 24,1006.3622 c -24,0 -24,0 -24,22 0,22 0,22 24,22 24,0 24,0 24,-22 0,-22 0,-22 -24,-22 z"
       id="path3757"
       inkscape:connector-curvature="0"
       sodipodi:nodetypes="zzzzz" />
    <path
       style="fill:#000000;fill-opacity:1;stroke:none;opacity:0.20000000000000001"
       d="M 24 2 C 2.7284685 2 0.33742495 2.0888436 0.0625 17.40625 C 0.390625 3.0029297 3 3 24 3 C 45 3 47.609375 3.0029297 47.9375 17.40625 C 47.662575 2.0888436 45.271532 2 24 2 z "
       transform="translate(0,1004.3622)"
       id="path3770" />
    <g
       id="g3813"
       transform="translate(-47.998,993.3622)" />
    <g
       id="g3038"
       transform="translate(-50.335,1008.7072)" />
    <g
       id="g3041"
       transform="translate(-51.97,1003.7612)" />
    <g
       id="g3026"
       transform="translate(-56.532,1001.6102)" />
    <g
       id="g3811"
       transform="translate(-51.613,998.4722)" />
    <g
       id="g3073"
       transform="translate(-56,1004.3622)" />
    <g
       id="g3945"
       style="opacity:0.1;fill:#000000;fill-opacity:1"
       transform="translate(1.3140172,1.2757169)">
      <g
         id="g3947"
         style="fill:#000000;fill-opacity:1">
        <path
           transform="matrix(0.96860963,-0.53795456,0.51128161,0.92058387,-4.723589,1013.0116)"
           d="m 16.057555,14.201438 c 0,2.360123 -2.222472,4.273381 -4.964029,4.273381 -2.7415575,0 -4.9640289,-1.913258 -4.9640289,-4.273381 0,-2.360123 2.2224714,-4.2733813 4.9640289,-4.2733813 2.741557,0 4.964029,1.9132583 4.964029,4.2733813 z"
           sodipodi:ry="4.2733812"
           sodipodi:rx="4.9640288"
           sodipodi:cy="14.201438"
           sodipodi:cx="11.093526"
           id="path3949"
           style="fill:#000000;fill-opacity:1;stroke:none"
           sodipodi:type="arc" />
        <path
           sodipodi:type="arc"
           style="fill:#000000;fill-opacity:1;stroke:none"
           id="path3951"
           sodipodi:cx="11.093526"
           sodipodi:cy="14.201438"
           sodipodi:rx="4.9640288"
           sodipodi:ry="4.2733812"
           d="m 16.057555,14.201438 c 0,2.360123 -2.222472,4.273381 -4.964029,4.273381 -2.7415575,0 -4.9640289,-1.913258 -4.9640289,-4.273381 0,-2.360123 2.2224714,-4.2733813 4.9640289,-4.2733813 2.741557,0 4.964029,1.9132583 4.964029,4.2733813 z"
           transform="matrix(0.45171394,-0.10209473,-0.02824478,0.52049582,7.3900161,1012.603)" />
      </g>
      <g
         id="g3953"
         transform="matrix(-1,0,0,1,47.565282,7.4525003e-6)"
         style="fill:#000000;fill-opacity:1">
        <path
           sodipodi:type="arc"
           style="fill:#000000;fill-opacity:1;stroke:none"
           id="path3955"
           sodipodi:cx="11.093526"
           sodipodi:cy="14.201438"
           sodipodi:rx="4.9640288"
           sodipodi:ry="4.2733812"
           d="m 16.057555,14.201438 c 0,2.360123 -2.222472,4.273381 -4.964029,4.273381 -2.7415575,0 -4.9640289,-1.913258 -4.9640289,-4.273381 0,-2.360123 2.2224714,-4.2733813 4.9640289,-4.2733813 2.741557,0 4.964029,1.9132583 4.964029,4.2733813 z"
           transform="matrix(0.96860963,-0.53795456,0.51128161,0.92058387,-4.723589,1013.0116)" />
        <path
           transform="matrix(0.45171394,-0.10209473,-0.02824478,0.52049582,7.3900161,1012.603)"
           d="m 16.057555,14.201438 c 0,2.360123 -2.222472,4.273381 -4.964029,4.273381 -2.7415575,0 -4.9640289,-1.913258 -4.9640289,-4.273381 0,-2.360123 2.2224714,-4.2733813 4.9640289,-4.2733813 2.741557,0 4.964029,1.9132583 4.964029,4.2733813 z"
           sodipodi:ry="4.2733812"
           sodipodi:rx="4.9640288"
           sodipodi:cy="14.201438"
           sodipodi:cx="11.093526"
           id="path3957"
           style="fill:#000000;fill-opacity:1;stroke:none"
           sodipodi:type="arc" />
      </g>
    </g>
    <g
       id="g3910">
      <path
         transform="matrix(0.96860963,-0.53795456,0.51128161,0.92058387,-4.723589,1013.0116)"
         d="m 16.057555,14.201438 c 0,2.360123 -2.222472,4.273381 -4.964029,4.273381 -2.7415575,0 -4.9640289,-1.913258 -4.9640289,-4.273381 0,-2.360123 2.2224714,-4.2733813 4.9640289,-4.2733813 2.741557,0 4.964029,1.9132583 4.964029,4.2733813 z"
         sodipodi:ry="4.2733812"
         sodipodi:rx="4.9640288"
         sodipodi:cy="14.201438"
         sodipodi:cx="11.093526"
         id="path3138"
         style="fill:#000000;fill-opacity:1;stroke:none"
         sodipodi:type="arc" />
      <path
         sodipodi:type="arc"
         style="fill:#ffffff;fill-opacity:1;stroke:none"
         id="path3908"
         sodipodi:cx="11.093526"
         sodipodi:cy="14.201438"
         sodipodi:rx="4.9640288"
         sodipodi:ry="4.2733812"
         d="m 16.057555,14.201438 c 0,2.360123 -2.222472,4.273381 -4.964029,4.273381 -2.7415575,0 -4.9640289,-1.913258 -4.9640289,-4.273381 0,-2.360123 2.2224714,-4.2733813 4.9640289,-4.2733813 2.741557,0 4.964029,1.9132583 4.964029,4.2733813 z"
         transform="matrix(0.45171394,-0.10209473,-0.02824478,0.52049582,7.3900161,1012.603)" />
    </g>
    <path
       transform="matrix(-0.96860963,-0.53795456,-0.51128161,0.92058387,52.288871,1013.0116)"
       d="m 16.057555,14.201438 c 0,2.360123 -2.222472,4.273381 -4.964029,4.273381 -2.7415575,0 -4.9640289,-1.913258 -4.9640289,-4.273381 0,-2.360123 2.2224714,-4.2733813 4.9640289,-4.2733813 2.741557,0 4.964029,1.9132583 4.964029,4.2733813 z"
       sodipodi:ry="4.2733812"
       sodipodi:rx="4.9640288"
       sodipodi:cy="14.201438"
       sodipodi:cx="11.093526"
       id="path3916"
       style="fill:#000000;fill-opacity:1;stroke:none"
       sodipodi:type="arc" />
    <path
       sodipodi:type="arc"
       style="fill:#ffffff;fill-opacity:1;stroke:none"
       id="path3918"
       sodipodi:cx="11.093526"
       sodipodi:cy="14.201438"
       sodipodi:rx="4.9640288"
       sodipodi:ry="4.2733812"
       d="m 16.057555,14.201438 c 0,2.360123 -2.222472,4.273381 -4.964029,4.273381 -2.7415575,0 -4.9640289,-1.913258 -4.9640289,-4.273381 0,-2.360123 2.2224714,-4.2733813 4.9640289,-4.2733813 2.741557,0 4.964029,1.9132583 4.964029,4.2733813 z"
       transform="matrix(0.45171394,-0.10209473,-0.02824478,0.52049582,27.687838,1012.2367)" />
    <path
       style="opacity:0.1;fill:#000000;fill-opacity:1;stroke:none"
       d="m 24,19 c -3.746564,1.597558 -5.082402,3.490264 -6.53125,5.375 C 17.298917,24.516107 17.150681,24.709268 17,25 c 1,3 6.279725,9.3007 9,10 3.351559,-0.6484 6,-4 7,-7 -1.479228,-2.8541 -5.89374,-7.7729 -9,-9 z"
       transform="translate(0,1004.3622)"
       id="path3959"
       inkscape:connector-curvature="0"
       sodipodi:nodetypes="cccccc" />
    <path
       sodipodi:nodetypes="ccccc"
       inkscape:connector-curvature="0"
       id="path3923"
       transform="translate(0,1004.3622)"
       d="m 17,25 c 1,3 4.279725,6.300689 7,7 3.351559,-0.648441 6,-4 7,-7 -1.671947,-2.082673 -2.843869,2.77215 -7,1 -3.10626,1.227073 -5.520772,-3.854105 -7,-1 z"
       style="fill:#df6100;fill-opacity:1;stroke:none" />
    <path
       style="fill:url(#linearGradient3931);fill-opacity:1;stroke:none"
       d="m 31,1029.3622 c -2.074624,2.3134 -4.279725,3.3007 -7,4 -3.351559,-0.6484 -5.250528,-1.7495 -7,-4 0.757763,-0.9439 1.436488,-1.9669 2.289527,-2.8297 C 19,1025.3622 20,1024.3622 21.620115,1024.6024 c 0.669995,-0.4288 1.450294,-0.8438 2.379885,-1.2402 0.890368,0.3517 1.723901,0.7603 2.494865,1.2314 1.505135,-0.2314 2.505135,0.7686 2.364778,1.8443 0.84581,0.8424 1.564063,1.8124 2.140357,2.9243 z"
       id="rect3920"
       inkscape:connector-curvature="0"
       sodipodi:nodetypes="ccccccccc" />
    <path
       style="fill:#000000;fill-opacity:1;stroke:none"
       d="m 21,1025.3622 c -0.958414,0.9603 0.580578,2.1294 1.568543,1.971 0.545853,-0.3934 -0.79053,-0.9394 -1.015206,-1.4174 -0.18448,-0.1845 -0.368935,-0.369 -0.553337,-0.5536 z m 6,0 c -0.432127,0.6428 -1.872448,1.4496 -1.668543,1.9878 0.961671,0.03 2.720182,-0.8994 1.668543,-1.9878 z"
       id="rect3018"
       inkscape:connector-curvature="0" />
  </g>
</svg>
