<?xml version="1.0" encoding="UTF-8" standalone="no"?>
<!-- Created with Inkscape (http://www.inkscape.org/) -->

<svg
   xmlns:dc="http://purl.org/dc/elements/1.1/"
   xmlns:cc="http://creativecommons.org/ns#"
   xmlns:rdf="http://www.w3.org/1999/02/22-rdf-syntax-ns#"
   xmlns:svg="http://www.w3.org/2000/svg"
   xmlns="http://www.w3.org/2000/svg"
   xmlns:xlink="http://www.w3.org/1999/xlink"
   xmlns:sodipodi="http://sodipodi.sourceforge.net/DTD/sodipodi-0.dtd"
   xmlns:inkscape="http://www.inkscape.org/namespaces/inkscape"
   width="48"
   height="48"
   id="svg2"
   version="1.1"
   inkscape:version="0.48.4 r9939"
   sodipodi:docname="pingus-icon.svg">
  <defs
     id="defs4">
    <linearGradient
       id="linearGradient3763">
      <stop
         style="stop-color:#000000;stop-opacity:1;"
         offset="0"
         id="stop3765" />
      <stop
         style="stop-color:#ffffff;stop-opacity:1;"
         offset="1"
         id="stop3767" />
    </linearGradient>
    <linearGradient
       inkscape:collect="always"
       xlink:href="#linearGradient3763"
       id="linearGradient3800"
       gradientUnits="userSpaceOnUse"
       gradientTransform="translate(-60,0)"
       spreadMethod="repeat"
       x1="24"
       y1="1028.3622"
       x2="45"
       y2="1007.3622" />
    <linearGradient
       inkscape:collect="always"
       xlink:href="#linearGradient3763"
       id="linearGradient3802"
       gradientUnits="userSpaceOnUse"
       gradientTransform="translate(-60,0)"
       spreadMethod="repeat"
       x1="45"
       y1="1049.3622"
       x2="18"
       y2="1022.3622" />
    <linearGradient
       gradientTransform="matrix(1.026316,0,0,1.02,-0.178246,-0.135467)"
       y2="4.634"
       x2="6.712"
       y1="10.308"
       x1="6.905"
       gradientUnits="userSpaceOnUse"
       id="linear0">
      <stop
         id="stop3029"
         stop-opacity="1"
         stop-color="#d5ecf1" />
      <stop
         id="stop3031"
         stop-opacity="1"
         stop-color="#f9f9f9"
         offset="1" />
    </linearGradient>
    <clipPath
       id="clipPath-686123521">
      <g
         id="g3024"
         transform="translate(0,-1004.3622)">
        <path
           id="path3026"
           fill="#1890d0"
           transform="matrix(15.333333,0,0,11.5,414.99999,878.8622)"
           d="m -24 13 c 0 1.105 -0.672 2 -1.5 2 -0.828 0 -1.5 -0.895 -1.5 -2 0 -1.105 0.672 -2 1.5 -2 0.828 0 1.5 0.895 1.5 2 z" />
      </g>
    </clipPath>
    <clipPath
       id="clipPath-676821770">
      <g
         id="g3019"
         transform="translate(0,-1004.3622)">
        <path
           id="path3021"
           fill="#1890d0"
           transform="matrix(15.333333,0,0,11.5,414.99999,878.8622)"
           d="m -24 13 c 0 1.105 -0.672 2 -1.5 2 -0.828 0 -1.5 -0.895 -1.5 -2 0 -1.105 0.672 -2 1.5 -2 0.828 0 1.5 0.895 1.5 2 z" />
      </g>
    </clipPath>
    <linearGradient
       gradientTransform="matrix(0,-1,1,0,-1.5e-6,47.999998)"
       gradientUnits="userSpaceOnUse"
       x2="47"
       x1="1"
       id="linearGradient3764">
      <stop
         id="stop3014"
         stop-opacity="1"
         stop-color="#57b1cf" />
      <stop
         id="stop3016"
         stop-opacity="1"
         stop-color="#67b8d3"
         offset="1" />
    </linearGradient>
    <linearGradient
       inkscape:collect="always"
       xlink:href="#linear0"
       id="linearGradient3168"
       gradientUnits="userSpaceOnUse"
       gradientTransform="matrix(1.026316,0,0,1.02,-0.178246,-0.135467)"
       x1="6.905"
       y1="10.308"
       x2="6.712"
       y2="4.634" />
  </defs>
  <sodipodi:namedview
     id="base"
     pagecolor="#ffffff"
     bordercolor="#666666"
     borderopacity="1.0"
     inkscape:pageopacity="0.0"
     inkscape:pageshadow="2"
     inkscape:zoom="5.7916665"
     inkscape:cx="4.9749636"
     inkscape:cy="11.825932"
     inkscape:document-units="px"
     inkscape:current-layer="layer1"
     showgrid="true"
     inkscape:snap-bbox="true"
     inkscape:window-width="1301"
     inkscape:window-height="744"
     inkscape:window-x="65"
     inkscape:window-y="24"
     inkscape:window-maximized="1"
     inkscape:object-nodes="false"
     inkscape:snap-nodes="true">
    <inkscape:grid
       type="xygrid"
       id="grid3005"
       empspacing="6"
       visible="true"
       enabled="true"
       snapvisiblegridlinesonly="true" />
  </sodipodi:namedview>
  <metadata
     id="metadata7">
    <rdf:RDF>
      <cc:Work
         rdf:about="">
        <dc:format>image/svg+xml</dc:format>
        <dc:type
           rdf:resource="http://purl.org/dc/dcmitype/StillImage" />
        <dc:title />
      </cc:Work>
    </rdf:RDF>
  </metadata>
  <g
     inkscape:label="Layer 1"
     inkscape:groupmode="layer"
     id="layer1"
     transform="translate(0,-1004.3622)">
    <path
       id="path3788"
       d="m 24,1051.1116 c -21.2715315,0 -23.66257505,-0.089 -23.9375,-15.4063 0.328125,14.4033 2.9375,14.4063 23.9375,14.4063 21,0 23.609375,0 23.9375,-14.4063 -0.274925,15.3174 -2.665968,15.4063 -23.9375,15.4063 z"
       style="opacity:0.20000000000000001;fill:#ffffff;fill-opacity:1;stroke:none"
       inkscape:connector-curvature="0" />
    <path
       style="fill:#40c4ff;fill-opacity:1;stroke:none"
       d="m 24,1006.3622 c -24,0 -24,0 -24,22 0,22 0,22 24,22 24,0 24,0 24,-22 0,-22 0,-22 -24,-22 z"
       id="path3757"
       inkscape:connector-curvature="0"
       sodipodi:nodetypes="zzzzz" />
    <g
       id="g3796"
       transform="translate(60,0)">
      <path
         style="opacity:0.03999999;fill:url(#linearGradient3800);fill-opacity:1;stroke:none"
         d="m -36,1006.3622 c -24,0 -24,0 -24,22 0,22 0,22 24,22 24,0 24,0 24,-22 0,-22 0,-22 -24,-22 z"
         id="path3783"
         inkscape:connector-curvature="0"
         sodipodi:nodetypes="zzzzz" />
      <path
         sodipodi:nodetypes="zzzzz"
         inkscape:connector-curvature="0"
         id="path3795"
         d="m -36,1006.3622 c -24,0 -24,0 -24,22 0,22 0,22 24,22 24,0 24,0 24,-22 0,-22 0,-22 -24,-22 z"
         style="opacity:0.03999999;fill:url(#linearGradient3802);fill-opacity:1;stroke:none" />
    </g>
    <path
       style="fill:#000000;fill-opacity:1;stroke:none;opacity:0.20000000000000001"
       d="M 24 2 C 2.7284685 2 0.33742495 2.0888436 0.0625 17.40625 C 0.390625 3.0029297 3 3 24 3 C 45 3 47.609375 3.0029297 47.9375 17.40625 C 47.662575 2.0888436 45.271532 2 24 2 z "
       transform="translate(0,1004.3622)"
       id="path3770" />
    <g
       id="g3037"
       transform="translate(-46.998,1004.3622)" />
    <g
       id="g3808"
       transform="translate(-52.998,1013.3622)" />
    <g
       id="g3795"
       style="stroke-width:2;stroke-miterlimit:4;stroke-dasharray:none" />
    <g
       id="g3051"
       transform="translate(-50.998,1001.3622)" />
    <g
       id="g3053"
       transform="translate(0.01018837,1004.3593)">
      <g
         clip-path="url(#clipPath-676821770)"
         id="g3055">
        <g
           transform="translate(1,1)"
           id="g3057">
          <g
             style="opacity:0.1"
             id="g3059">
            <!-- color: #67b8d3 -->
            <g
               id="g3061">
              <path
                 style="fill:#000000;fill-rule:nonzero;stroke:#2d2d2d;stroke-width:0.141;stroke-linecap:butt;stroke-linejoin:miter;stroke-miterlimit:4;stroke-opacity:1"
                 inkscape:connector-curvature="0"
                 d="M 4.437,8.43 C 5.621,8.469 5.231,8.311 5.279,7.309 6.256,6.567 6.054,6.398 5.206,7.256 4.495,7.222 3.666,7.41 4.177,6.849 l 1.637,-1.51 c -0.637,-2.139 1.279,-3 2.292,-1.15 0.742,0.223 0.975,0.324 0.912,0.815 -1.15,0.36 -1.494,-0.082 -1.45,0.743 0.088,0.531 2.8,1.428 0.98,1.414 L 8.734,8.192 C 10.393,8.883 9.057,9.721 8.079,10.251 7.544,9.842 7.371,10.037 6.769,10.37 5.165,10.286 4.25,9.768 4.432,8.432 M 4.431,8.43"
                 transform="scale(3.543307,3.543307)"
                 stroke-miterlimit="4"
                 id="path3063" />
              <path
                 style="fill:#000000;stroke:#2d2d2d;stroke-width:0.141;stroke-linecap:butt;stroke-linejoin:miter;stroke-miterlimit:4;stroke-opacity:1"
                 inkscape:connector-curvature="0"
                 d="M 5.24,8.389 C 5.145,8.408 5.06,8.417 4.978,8.421 4.966,8.421 4.946,8.422 4.934,8.423 4.909,8.424 4.883,8.426 4.86,8.427 4.828,8.428 4.787,8.429 4.752,8.43 c -0.022,0 -0.054,0 -0.084,0 C 4.595,8.43 4.529,8.429 4.44,8.427 4.385,8.842 4.429,9.178 4.571,9.447 L 4.603,9.44 C 4.99,9.281 5.154,8.838 5.239,8.386 m 0.001,0"
                 transform="scale(3.543307,3.543307)"
                 stroke-miterlimit="4"
                 id="path3065" />
              <path
                 style="fill:#000000;stroke:#2d2d2d;stroke-width:0.141;stroke-linecap:butt;stroke-linejoin:miter;stroke-miterlimit:4;stroke-opacity:1"
                 inkscape:connector-curvature="0"
                 d="M 7.463,6.617 C 6.621,6.589 5.942,8.125 7.357,9.972 7.56,9.48 7.796,8.369 8.694,8.164 8.402,7.077 7.902,6.635 7.461,6.617 m -0.001,0"
                 transform="scale(3.543307,3.543307)"
                 stroke-miterlimit="4"
                 id="path3067" />
              <path
                 style="fill:#000000;stroke:#2d2d2d;stroke-width:0.141;stroke-linecap:butt;stroke-linejoin:miter;stroke-miterlimit:4;stroke-opacity:1"
                 inkscape:connector-curvature="0"
                 d="M 8.089,4.154 8.065,4.18 C 7.496,4.262 6.85,5.106 7.68,5.215 L 7.798,5.207 C 8.013,5.154 8.4,5.196 9.023,5.001 9.086,4.514 8.853,4.407 8.11,4.184 8.101,4.173 8.098,4.162 8.089,4.151 m 0,0"
                 transform="scale(3.543307,3.543307)"
                 stroke-miterlimit="4"
                 id="path3069" />
              <path
                 style="fill:#000000;fill-opacity:1;fill-rule:nonzero;stroke:none"
                 inkscape:connector-curvature="0"
                 d="m 26,15 c 0.008,0.363 -0.184,0.699 -0.496,0.883 -0.313,0.184 -0.699,0.184 -1.012,0 C 24.179,15.699 23.992,15.363 24,15 c -0.008,-0.363 0.18,-0.699 0.492,-0.883 0.313,-0.184 0.699,-0.184 1.012,0 0.313,0.184 0.504,0.52 0.496,0.883 m 0,0"
                 id="path3071" />
            </g>
          </g>
        </g>
      </g>
    </g>
    <g
       id="g3073"
       transform="translate(0.01018837,1004.3593)">
      <g
         clip-path="url(#clipPath-686123521)"
         id="g3075">
        <!-- color: #67b8d3 -->
        <g
           id="g3077">
          <path
             style="fill:url(#linearGradient3168);fill-rule:nonzero;stroke:#2d2d2d;stroke-width:0.141;stroke-linecap:butt;stroke-linejoin:miter;stroke-miterlimit:4;stroke-opacity:1"
             inkscape:connector-curvature="0"
             d="M 4.437,8.43 C 5.621,8.469 5.231,8.311 5.279,7.309 6.256,6.567 6.054,6.398 5.206,7.256 4.495,7.222 3.666,7.41 4.177,6.849 l 1.637,-1.51 c -0.637,-2.139 1.279,-3 2.292,-1.15 0.742,0.223 0.975,0.324 0.912,0.815 -1.15,0.36 -1.494,-0.082 -1.45,0.743 0.088,0.531 2.8,1.428 0.98,1.414 L 8.734,8.192 C 10.393,8.883 9.057,9.721 8.079,10.251 7.544,9.842 7.371,10.037 6.769,10.37 5.165,10.286 4.25,9.768 4.432,8.432 M 4.431,8.43"
             transform="scale(3.543307,3.543307)"
             stroke-miterlimit="4"
             id="path3079" />
          <path
             style="fill:none;stroke:#2d2d2d;stroke-width:0.141;stroke-linecap:butt;stroke-linejoin:miter;stroke-miterlimit:4;stroke-opacity:1"
             inkscape:connector-curvature="0"
             d="M 5.24,8.389 C 5.145,8.408 5.06,8.417 4.978,8.421 4.966,8.421 4.946,8.422 4.934,8.423 4.909,8.424 4.883,8.426 4.86,8.427 4.828,8.428 4.787,8.429 4.752,8.43 c -0.022,0 -0.054,0 -0.084,0 C 4.595,8.43 4.529,8.429 4.44,8.427 4.385,8.842 4.429,9.178 4.571,9.447 L 4.603,9.44 C 4.99,9.281 5.154,8.838 5.239,8.386 m 0.001,0"
             transform="scale(3.543307,3.543307)"
             stroke-miterlimit="4"
             id="path3081" />
          <path
             style="fill:none;stroke:#2d2d2d;stroke-width:0.141;stroke-linecap:butt;stroke-linejoin:miter;stroke-miterlimit:4;stroke-opacity:1"
             inkscape:connector-curvature="0"
             d="M 7.463,6.617 C 6.621,6.589 5.942,8.125 7.357,9.972 7.56,9.48 7.796,8.369 8.694,8.164 8.402,7.077 7.902,6.635 7.461,6.617 m -0.001,0"
             transform="scale(3.543307,3.543307)"
             stroke-miterlimit="4"
             id="path3083" />
          <path
             style="fill:none;stroke:#2d2d2d;stroke-width:0.141;stroke-linecap:butt;stroke-linejoin:miter;stroke-miterlimit:4;stroke-opacity:1"
             inkscape:connector-curvature="0"
             d="M 8.089,4.154 8.065,4.18 C 7.496,4.262 6.85,5.106 7.68,5.215 L 7.798,5.207 C 8.013,5.154 8.4,5.196 9.023,5.001 9.086,4.514 8.853,4.407 8.11,4.184 8.101,4.173 8.098,4.162 8.089,4.151 m 0,0"
             transform="scale(3.543307,3.543307)"
             stroke-miterlimit="4"
             id="path3085" />
          <path
             style="fill:#2d2d2d;fill-opacity:1;fill-rule:nonzero;stroke:none"
             inkscape:connector-curvature="0"
             d="m 26,15 c 0.008,0.363 -0.184,0.699 -0.496,0.883 -0.313,0.184 -0.699,0.184 -1.012,0 C 24.179,15.699 23.992,15.363 24,15 c -0.008,-0.363 0.18,-0.699 0.492,-0.883 0.313,-0.184 0.699,-0.184 1.012,0 0.313,0.184 0.504,0.52 0.496,0.883 m 0,0"
             id="path3087" />
        </g>
      </g>
    </g>
  </g>
</svg>
