<?xml version="1.0" encoding="UTF-8" standalone="no"?>
<!-- Created with Inkscape (http://www.inkscape.org/) -->

<svg
   xmlns:dc="http://purl.org/dc/elements/1.1/"
   xmlns:cc="http://creativecommons.org/ns#"
   xmlns:rdf="http://www.w3.org/1999/02/22-rdf-syntax-ns#"
   xmlns:svg="http://www.w3.org/2000/svg"
   xmlns="http://www.w3.org/2000/svg"
   xmlns:xlink="http://www.w3.org/1999/xlink"
   xmlns:sodipodi="http://sodipodi.sourceforge.net/DTD/sodipodi-0.dtd"
   xmlns:inkscape="http://www.inkscape.org/namespaces/inkscape"
   width="48"
   height="48"
   id="svg2"
   version="1.1"
   inkscape:version="0.48.4 r9939"
   sodipodi:docname="library-podcast.svg">
  <defs
     id="defs4">
    <linearGradient
       id="linearGradient3808">
      <stop
         style="stop-color:#ffffff;stop-opacity:1;"
         offset="0"
         id="stop3810" />
      <stop
         id="stop3816"
         offset="0.73913044"
         style="stop-color:#ffffff;stop-opacity:0.49803922;" />
      <stop
         style="stop-color:#ffffff;stop-opacity:0;"
         offset="1"
         id="stop3812" />
    </linearGradient>
    <linearGradient
       id="linearGradient3760">
      <stop
         style="stop-color:#d500f9;stop-opacity:1;"
         offset="0"
         id="stop3762" />
      <stop
         style="stop-color:#e02bff;stop-opacity:1;"
         offset="1"
         id="stop3765" />
    </linearGradient>
    <linearGradient
       inkscape:collect="always"
       xlink:href="#linearGradient3760"
       id="linearGradient3767"
       x1="24"
       y1="1050.3622"
       x2="24"
       y2="1006.3622"
       gradientUnits="userSpaceOnUse" />
    <linearGradient
       inkscape:collect="always"
       xlink:href="#linearGradient3808"
       id="linearGradient3814"
       x1="24"
       y1="2"
       x2="24"
       y2="25"
       gradientUnits="userSpaceOnUse"
       gradientTransform="matrix(1,0,0,0.81481481,1.1684509e-8,1010.4154)" />
  </defs>
  <sodipodi:namedview
     id="base"
     pagecolor="#ffffff"
     bordercolor="#666666"
     borderopacity="1.0"
     inkscape:pageopacity="0.0"
     inkscape:pageshadow="2"
     inkscape:zoom="11.583333"
     inkscape:cx="23.278749"
     inkscape:cy="21.08219"
     inkscape:document-units="px"
     inkscape:current-layer="layer1"
     showgrid="true"
     inkscape:snap-bbox="true"
     inkscape:window-width="1301"
     inkscape:window-height="744"
     inkscape:window-x="65"
     inkscape:window-y="24"
     inkscape:window-maximized="1">
    <inkscape:grid
       type="xygrid"
       id="grid2985"
       empspacing="6"
       visible="true"
       enabled="true"
       snapvisiblegridlinesonly="true" />
  </sodipodi:namedview>
  <metadata
     id="metadata7">
    <rdf:RDF>
      <cc:Work
         rdf:about="">
        <dc:format>image/svg+xml</dc:format>
        <dc:type
           rdf:resource="http://purl.org/dc/dcmitype/StillImage" />
        <dc:title />
      </cc:Work>
    </rdf:RDF>
  </metadata>
  <g
     inkscape:label="Layer 1"
     inkscape:groupmode="layer"
     id="layer1"
     transform="translate(0,-1004.3622)">
    <path
       id="path3788"
       d="m 24,1051.1116 c -21.2715315,0 -23.66257505,-0.089 -23.9375,-15.4063 0.328125,14.4033 2.9375,14.4063 23.9375,14.4063 21,0 23.609375,0 23.9375,-14.4063 -0.274925,15.3174 -2.665968,15.4063 -23.9375,15.4063 z"
       style="opacity:0.20000000000000001;fill:#ffffff;fill-opacity:1;stroke:none"
       inkscape:connector-curvature="0" />
    <path
       style="fill:url(#linearGradient3767);fill-opacity:1;stroke:none"
       d="m 24,1006.3622 c -24,0 -24,0 -24,22 0,22 0,22 24,22 24,0 24,0 24,-22 0,-22 0,-22 -24,-22 z"
       id="path3757"
       inkscape:connector-curvature="0"
       sodipodi:nodetypes="zzzzz" />
    <path
       style="fill:#000000;fill-opacity:1;stroke:none;opacity:0.20000000000000001"
       d="M 24 2 C 2.7284685 2 0.33742495 2.0888436 0.0625 17.40625 C 0.390625 3.0029297 3 3 24 3 C 45 3 47.609375 3.0029297 47.9375 17.40625 C 47.662575 2.0888436 45.271532 2 24 2 z "
       transform="translate(0,1004.3622)"
       id="path3770" />
    <path
       style="font-size:medium;font-style:normal;font-variant:normal;font-weight:normal;font-stretch:normal;text-indent:0;text-align:start;text-decoration:none;line-height:normal;letter-spacing:normal;word-spacing:normal;text-transform:none;direction:ltr;block-progression:tb;writing-mode:lr-tb;text-anchor:start;baseline-shift:baseline;color:#000000;fill:url(#linearGradient3814);fill-opacity:1;stroke:none;stroke-width:1.41846883;marker:none;visibility:visible;display:inline;overflow:visible;enable-background:accumulate;font-family:Sans;-inkscape-font-specification:Sans"
       d="m 24,1014.3622 c -4.317647,0 -8.21013,1.3934 -11.09375,3.7431 -2.88362,2.3495 -4.75,5.7071 -4.75,9.4212 0,3.4181 1.5942233,6.5292 4.09375,8.8357 l 1.375,-1.2477 c -2.340684,-2.0405 -3.75,-4.689 -3.75,-7.588 0,-3.0361 1.517187,-5.8196 4.0625,-7.8935 2.545313,-2.0739 6.095878,-3.3866 10.0625,-3.3866 3.966623,0 7.548437,1.3127 10.09375,3.3866 2.545312,2.0739 4.0625,4.8574 4.0625,7.8935 0,2.9055 -1.39975,5.5712 -3.75,7.6135 l 1.34375,1.2222 c 2.503746,-2.3065 4.125,-5.4176 4.125,-8.8357 0,-3.7141 -1.89763,-7.0717 -4.78125,-9.4212 -2.88362,-2.3497 -6.776102,-3.7431 -11.09375,-3.7431 z m 0,3.2593 c -3.213079,0 -6.152739,1.041 -8.3125,2.8008 -2.159761,1.7599 -3.53125,4.2902 -3.53125,7.1042 0,2.4623 1.040617,4.7151 2.75,6.4167 l 1.375,-1.1967 c -1.549302,-1.4351 -2.40625,-3.2598 -2.40625,-5.22 0,-2.1361 1.022295,-4.1177 2.84375,-5.6018 1.821454,-1.4842 4.419198,-2.419 7.28125,-2.419 2.862051,0 5.459795,0.9348 7.28125,2.419 1.821454,1.4841 2.84375,3.4657 2.84375,5.6018 0,1.9602 -0.856949,3.7849 -2.40625,5.22 l 1.375,1.1967 c 1.709383,-1.7016 2.75,-3.9544 2.75,-6.4167 0,-2.814 -1.371489,-5.3443 -3.53125,-7.1042 -2.159761,-1.7598 -5.099422,-2.8008 -8.3125,-2.8008 z m 0,2.9791 c -2.198649,0 -4.192524,0.7426 -5.6875,1.9607 -1.494975,1.2181 -2.53125,2.9777 -2.53125,4.9652 0,1.5848 0.66264,3.0145 1.6875,4.1505 l 1.3125,-1.1968 c -0.791268,-0.8545 -1.21875,-1.8782 -1.21875,-2.9537 0,-1.3095 0.624581,-2.5459 1.78125,-3.4883 1.156669,-0.9425 2.808627,-1.5279 4.65625,-1.5279 1.847623,0 3.499581,0.5854 4.65625,1.5279 1.156669,0.9424 1.78125,2.1788 1.78125,3.4883 0,1.0755 -0.427482,2.0992 -1.21875,2.9537 l 1.3125,1.1968 c 1.02486,-1.136 1.6875,-2.5657 1.6875,-4.1505 0,-1.9875 -1.036274,-3.7471 -2.53125,-4.9652 -1.494975,-1.2181 -3.488851,-1.9607 -5.6875,-1.9607 z m 0,2.7245 c -1.280083,0 -2.450739,0.4183 -3.34375,1.1459 -0.89301,0.7276 -1.53125,1.8165 -1.53125,3.0555 0,0.7634 0.261284,1.4624 0.65625,2.0625 l 1.3125,-1.1713 c -0.159982,-0.2828 -0.21875,-0.5849 -0.21875,-0.8912 0,-0.561 0.257796,-1.1012 0.8125,-1.5532 0.554704,-0.452 1.383443,-0.7639 2.3125,-0.7639 0.929057,0 1.757796,0.3119 2.3125,0.7639 0.554704,0.452 0.8125,0.9922 0.8125,1.5532 0,0.3063 -0.05877,0.6084 -0.21875,0.8912 l 1.3125,1.1713 c 0.394966,-0.6001 0.65625,-1.2991 0.65625,-2.0625 0,-1.239 -0.63824,-2.3279 -1.53125,-3.0555 -0.893011,-0.7276 -2.063667,-1.1459 -3.34375,-1.1459 z"
       id="path3775"
       inkscape:connector-curvature="0" />
    <path
       transform="matrix(1.7210699,0,0,2.29476,-17.305677,978.31961)"
       d="m 30,20.5 a 6,4.5 0 1 1 -12,0 6,4.5 0 1 1 12,0 z"
       sodipodi:ry="4.5"
       sodipodi:rx="6"
       sodipodi:cy="20.5"
       sodipodi:cx="24"
       id="path3779"
       style="opacity:0.70370370000000004;fill:none;stroke:#000000;stroke-width:0;stroke-opacity:1;stroke-miterlimit:4;stroke-dasharray:none"
       sodipodi:type="arc" />
    <path
       inkscape:connector-curvature="0"
       id="path3818"
       d="m 25,1026.318 c -1.772111,0 -3.20869,1.257 -3.20869,2.8076 0,1.0481 0.656718,1.9493 1.629413,2.4316 -1.48151,0.7994 -2.721079,2.6055 -2.356382,4.6375 1.973697,10.9967 3.27776,10.1525 3.935659,10.1525 0.657899,0 1.961962,0.8442 3.935659,-10.1525 0.364697,-2.032 -0.874872,-3.8381 -2.356382,-4.6375 0.972695,-0.4823 1.629413,-1.3835 1.629413,-2.4316 0,-1.5506 -1.436579,-2.8076 -3.20869,-2.8076 z"
       style="opacity:0.2;fill:#000000;fill-opacity:1;stroke:none" />
    <path
       style="fill:#fef8ff;fill-opacity:1;stroke:none"
       d="m 24,1025.318 c -1.772111,0 -3.20869,1.257 -3.20869,2.8076 0,1.0481 0.656718,1.9493 1.629413,2.4316 -1.48151,0.7994 -2.721079,2.6055 -2.356382,4.6375 1.973697,10.9967 3.27776,10.1525 3.935659,10.1525 0.657899,0 1.961962,0.8442 3.935659,-10.1525 0.364697,-2.032 -0.874872,-3.8381 -2.356382,-4.6375 0.972695,-0.4823 1.629413,-1.3835 1.629413,-2.4316 0,-1.5506 -1.436579,-2.8076 -3.20869,-2.8076 z"
       id="rect3769"
       inkscape:connector-curvature="0" />
  </g>
</svg>
