<?xml version="1.0" encoding="UTF-8" standalone="no"?>
<!-- Created with Inkscape (http://www.inkscape.org/) -->

<svg
   xmlns:dc="http://purl.org/dc/elements/1.1/"
   xmlns:cc="http://creativecommons.org/ns#"
   xmlns:rdf="http://www.w3.org/1999/02/22-rdf-syntax-ns#"
   xmlns:svg="http://www.w3.org/2000/svg"
   xmlns="http://www.w3.org/2000/svg"
   xmlns:xlink="http://www.w3.org/1999/xlink"
   xmlns:sodipodi="http://sodipodi.sourceforge.net/DTD/sodipodi-0.dtd"
   xmlns:inkscape="http://www.inkscape.org/namespaces/inkscape"
   width="48"
   height="48"
   id="svg2"
   version="1.1"
   inkscape:version="0.48.4 r9939"
   sodipodi:docname="polly.svg">
  <defs
     id="defs4">
    <linearGradient
       id="linearGradient3952">
      <stop
         style="stop-color:#64a53e;stop-opacity:1;"
         offset="0"
         id="stop3954" />
      <stop
         style="stop-color:#76ca45;stop-opacity:1;"
         offset="1"
         id="stop3956" />
    </linearGradient>
    <linearGradient
       inkscape:collect="always"
       xlink:href="#linearGradient3952"
       id="linearGradient3958"
       x1="24"
       y1="1050.3622"
       x2="24"
       y2="1006.3622"
       gradientUnits="userSpaceOnUse" />
  </defs>
  <sodipodi:namedview
     id="base"
     pagecolor="#ffffff"
     bordercolor="#666666"
     borderopacity="1.0"
     inkscape:pageopacity="0.0"
     inkscape:pageshadow="2"
     inkscape:zoom="5.7916666"
     inkscape:cx="46.241297"
     inkscape:cy="6.726451"
     inkscape:document-units="px"
     inkscape:current-layer="layer1"
     showgrid="true"
     inkscape:snap-bbox="true"
     inkscape:window-width="1301"
     inkscape:window-height="744"
     inkscape:window-x="65"
     inkscape:window-y="24"
     inkscape:window-maximized="1"
     inkscape:snap-global="true">
    <inkscape:grid
       type="xygrid"
       id="grid2985"
       empspacing="6"
       visible="true"
       enabled="true"
       snapvisiblegridlinesonly="true" />
  </sodipodi:namedview>
  <metadata
     id="metadata7">
    <rdf:RDF>
      <cc:Work
         rdf:about="">
        <dc:format>image/svg+xml</dc:format>
        <dc:type
           rdf:resource="http://purl.org/dc/dcmitype/StillImage" />
        <dc:title />
      </cc:Work>
    </rdf:RDF>
  </metadata>
  <g
     inkscape:label="Layer 1"
     inkscape:groupmode="layer"
     id="layer1"
     transform="translate(0,-1004.3622)">
    <path
       id="path3788"
       d="m 24,1051.1116 c -21.2715315,0 -23.66257505,-0.089 -23.9375,-15.4063 0.328125,14.4033 2.9375,14.4063 23.9375,14.4063 21,0 23.609375,0 23.9375,-14.4063 -0.274925,15.3174 -2.665968,15.4063 -23.9375,15.4063 z"
       style="opacity:0.20000000000000001;fill:#ffffff;fill-opacity:1;stroke:none"
       inkscape:connector-curvature="0" />
    <path
       style="fill:url(#linearGradient3958);fill-opacity:1;stroke:none"
       d="m 24,1006.3622 c -24,0 -24,0 -24,22 0,22 0,22 24,22 24,0 24,0 24,-22 0,-22 0,-22 -24,-22 z"
       id="path3757"
       inkscape:connector-curvature="0"
       sodipodi:nodetypes="zzzzz" />
    <path
       style="fill:#000000;fill-opacity:1;stroke:none;opacity:0.20000000000000001"
       d="M 24 2 C 2.7284685 2 0.33742495 2.0888436 0.0625 17.40625 C 0.390625 3.0029297 3 3 24 3 C 45 3 47.609375 3.0029297 47.9375 17.40625 C 47.662575 2.0888436 45.271532 2 24 2 z "
       transform="translate(0,1004.3622)"
       id="path3770" />
    <path
       style="fill:#000000;fill-opacity:1;stroke:none;opacity:0.20000000000000001"
       d="M 24 2 C 7.2405624 2 2.2369698 2.0788791 0.71875 9.59375 C 2.3300781 2.5289866 7.5 2.53125 24 2.53125 C 40.5 2.53125 45.669922 2.5289866 47.28125 9.59375 C 45.76303 2.0788791 40.759438 2 24 2 z M 47.28125 9.59375 C 47.354492 9.9148756 47.409424 10.242768 47.46875 10.59375 C 47.41561 10.240351 47.346891 9.9186608 47.28125 9.59375 z M 0.71875 9.59375 C 0.65310868 9.9186608 0.58439008 10.240351 0.53125 10.59375 C 0.59057617 10.242768 0.64550781 9.9148756 0.71875 9.59375 z "
       transform="translate(0,1004.3622)"
       id="path3012" />
    <g
       id="g3032"
       transform="translate(48,1007.3622)" />
    <path
       style="opacity:0.2;fill:#000000;fill-opacity:1;stroke:none"
       d="m 32.03125,11.9375 c -1.733059,0.04754 -3.285057,1.038569 -3.8125,2.59375 -0.703257,2.073575 0.661937,4.383612 3.03125,5.1875 C 33.619313,20.522638 36.785437,20.821845 38,19 40,16 36.181813,13.022638 33.8125,12.21875 33.220172,12.017778 32.608936,11.921652 32.03125,11.9375 z"
       transform="translate(0,1004.3622)"
       id="path3960"
       inkscape:connector-curvature="0"
       sodipodi:nodetypes="ssssss" />
    <path
       transform="matrix(-1.2626628,-0.42832277,-0.32124209,0.94699711,55.919194,1011.6086)"
       d="m 18,15.5 a 3,3.5 0 1 1 -6,0 3,3.5 0 1 1 6,0 z"
       sodipodi:ry="3.5"
       sodipodi:rx="3"
       sodipodi:cy="15.5"
       sodipodi:cx="15"
       id="path3938"
       style="fill:#ffffff;fill-opacity:1;stroke:none"
       sodipodi:type="arc" />
    <path
       sodipodi:type="arc"
       style="fill:#333333;fill-opacity:1;stroke:none"
       id="path3940"
       sodipodi:cx="15"
       sodipodi:cy="15.5"
       sodipodi:rx="3"
       sodipodi:ry="3.5"
       d="m 18,15.5 a 3,3.5 0 1 1 -6,0 3,3.5 0 1 1 6,0 z"
       transform="matrix(-0.79867523,-0.30114574,-0.20319605,0.66581598,46.629667,1014.0593)" />
    <path
       sodipodi:nodetypes="czccc"
       inkscape:connector-curvature="0"
       id="path3965"
       d="m 17.73698,1027.4887 c -1.056706,5.4084 1.3354,5.6585 4.939423,8.0996 3.60402,2.441 9.323597,4.7739 7.323597,8.7739 13,-2 9.606373,-9.57 0.406763,-19.7849 -3.94797,-5.1879 -9.812417,-6.9797 -12.669783,2.9114 z"
       style="opacity:0.2;fill:#000000;fill-opacity:1;stroke:none" />
    <path
       sodipodi:nodetypes="cccc"
       inkscape:connector-curvature="0"
       id="path3967"
       d="m 18.330091,1034.5349 c -2.433781,1.4079 0.369153,6.0715 1.791668,7.7968 9.878241,9.0305 8.35156,3.2037 8.878241,1.0305 -2.766267,-7.5728 -8.799476,-5.1529 -10.669909,-8.8273 z"
       style="opacity:0.2;fill:#000000;fill-opacity:1;stroke:none" />
    <path
       style="fill:#ffec00;fill-opacity:1;stroke:none"
       d="m 17.73698,1027.4887 c -1.056706,5.4084 1.3354,5.6585 4.939423,8.0996 3.60402,2.441 3.281087,5.2633 4.939423,8.0995 1.552317,-1.5029 6.708206,-12.2654 2.790937,-19.1105 -3.94797,-5.1879 -9.812417,-6.9797 -12.669783,2.9114 z"
       id="rect3942"
       inkscape:connector-curvature="0"
       sodipodi:nodetypes="czccc" />
    <path
       style="fill:#dcb90a;fill-opacity:1;stroke:none"
       d="m 18.330091,1034.5349 c -2.433781,1.4079 0.369153,6.0715 1.791668,7.7968 4.269384,4.6379 5.768828,2.7786 6.295509,0.6054 -2.766267,-7.5728 -6.216744,-4.7278 -8.087177,-8.4022 z"
       id="rect3949"
       inkscape:connector-curvature="0"
       sodipodi:nodetypes="cccc" />
    <path
       sodipodi:nodetypes="ssssss"
       inkscape:connector-curvature="0"
       id="path3963"
       d="m 16.471066,1016.9493 c -1.733059,0.048 -3.285057,1.0386 -3.8125,2.5937 -0.703257,2.0736 0.661937,4.3836 3.03125,5.1875 2.369313,0.8039 4.617788,0.7089 5.310184,-1.3683 1,-3 -0.378371,-5.3278 -2.747684,-6.1317 -0.592328,-0.2009 -1.203564,-0.2971 -1.78125,-0.2812 z"
       style="opacity:0.2;fill:#000000;fill-opacity:1;stroke:none" />
    <path
       sodipodi:type="arc"
       style="fill:#ffffff;fill-opacity:1;stroke:none"
       id="path3931"
       sodipodi:cx="15"
       sodipodi:cy="15.5"
       sodipodi:rx="3"
       sodipodi:ry="3.5"
       d="m 18,15.5 a 3,3.5 0 1 1 -6,0 3,3.5 0 1 1 6,0 z"
       transform="matrix(1.2626628,-0.42832277,0.32124209,0.94699711,-7.9191945,1011.6086)" />
    <path
       transform="matrix(0.79867523,-0.30114574,0.20319605,0.66581598,0.37033286,1014.0593)"
       d="m 18,15.5 a 3,3.5 0 1 1 -6,0 3,3.5 0 1 1 6,0 z"
       sodipodi:ry="3.5"
       sodipodi:rx="3"
       sodipodi:cy="15.5"
       sodipodi:cx="15"
       id="path3933"
       style="fill:#333333;fill-opacity:1;stroke:none"
       sodipodi:type="arc" />
  </g>
</svg>
