<?xml version="1.0" encoding="UTF-8" standalone="no"?>
<!-- Created with Inkscape (http://www.inkscape.org/) -->

<svg
   xmlns:dc="http://purl.org/dc/elements/1.1/"
   xmlns:cc="http://creativecommons.org/ns#"
   xmlns:rdf="http://www.w3.org/1999/02/22-rdf-syntax-ns#"
   xmlns:svg="http://www.w3.org/2000/svg"
   xmlns="http://www.w3.org/2000/svg"
   xmlns:xlink="http://www.w3.org/1999/xlink"
   xmlns:sodipodi="http://sodipodi.sourceforge.net/DTD/sodipodi-0.dtd"
   xmlns:inkscape="http://www.inkscape.org/namespaces/inkscape"
   width="48"
   height="48"
   id="svg2"
   version="1.1"
   inkscape:version="0.48.4 r9939"
   sodipodi:docname="preferences-system-old.svg">
  <defs
     id="defs4">
    <linearGradient
       id="linearGradient3765">
      <stop
         style="stop-color:#4d4d4d;stop-opacity:1;"
         offset="0"
         id="stop3767" />
      <stop
         style="stop-color:#666666;stop-opacity:1;"
         offset="1"
         id="stop3769" />
    </linearGradient>
    <linearGradient
       inkscape:collect="always"
       xlink:href="#linearGradient3765"
       id="linearGradient3771"
       x1="24"
       y1="1050.3622"
       x2="24"
       y2="1006.3622"
       gradientUnits="userSpaceOnUse" />
  </defs>
  <sodipodi:namedview
     id="base"
     pagecolor="#ffffff"
     bordercolor="#666666"
     borderopacity="1.0"
     inkscape:pageopacity="0.0"
     inkscape:pageshadow="2"
     inkscape:zoom="11.583333"
     inkscape:cx="21.153655"
     inkscape:cy="18.241339"
     inkscape:document-units="px"
     inkscape:current-layer="layer1"
     showgrid="true"
     inkscape:snap-bbox="true"
     inkscape:window-width="1301"
     inkscape:window-height="744"
     inkscape:window-x="65"
     inkscape:window-y="24"
     inkscape:window-maximized="1">
    <inkscape:grid
       type="xygrid"
       id="grid2985"
       empspacing="6"
       visible="true"
       enabled="true"
       snapvisiblegridlinesonly="true" />
  </sodipodi:namedview>
  <metadata
     id="metadata7">
    <rdf:RDF>
      <cc:Work
         rdf:about="">
        <dc:format>image/svg+xml</dc:format>
        <dc:type
           rdf:resource="http://purl.org/dc/dcmitype/StillImage" />
        <dc:title />
      </cc:Work>
    </rdf:RDF>
  </metadata>
  <g
     inkscape:label="Layer 1"
     inkscape:groupmode="layer"
     id="layer1"
     transform="translate(0,-1004.3622)">
    <path
       id="path3788"
       d="m 24,1051.1116 c -21.2715315,0 -23.66257505,-0.089 -23.9375,-15.4063 0.328125,14.4033 2.9375,14.4063 23.9375,14.4063 21,0 23.609375,0 23.9375,-14.4063 -0.274925,15.3174 -2.665968,15.4063 -23.9375,15.4063 z"
       style="opacity:0.20000000000000001;fill:#ffffff;fill-opacity:1;stroke:none"
       inkscape:connector-curvature="0" />
    <path
       style="fill:url(#linearGradient3771);fill-opacity:1;stroke:none"
       d="m 24,1006.3622 c -24,0 -24,0 -24,22 0,22 0,22 24,22 24,0 24,0 24,-22 0,-22 0,-22 -24,-22 z"
       id="path3757"
       inkscape:connector-curvature="0"
       sodipodi:nodetypes="zzzzz" />
    <path
       style="fill:#000000;fill-opacity:1;stroke:none;opacity:0.20000000000000001"
       d="M 24 2 C 2.7284685 2 0.33742495 2.0888436 0.0625 17.40625 C 0.390625 3.0029297 3 3 24 3 C 45 3 47.609375 3.0029297 47.9375 17.40625 C 47.662575 2.0888436 45.271532 2 24 2 z "
       transform="translate(0,1004.3622)"
       id="path3770" />
    <rect
       style="opacity:1;fill:#cccccc;fill-opacity:1;stroke:none"
       id="rect3002"
       width="30"
       height="6"
       x="9"
       y="1025.3622"
       ry="3" />
    <path
       transform="matrix(1.3333333,0,0,1.3333333,1.0000006,997.3622)"
       d="m 18,24 c 0,3.313708 -2.686292,6 -6,6 -3.3137085,0 -6,-2.686292 -6,-6 0,-3.313708 2.6862915,-6 6,-6 3.313708,0 6,2.686292 6,6 z"
       sodipodi:ry="6"
       sodipodi:rx="6"
       sodipodi:cy="24"
       sodipodi:cx="12"
       id="path3776"
       style="opacity:0.2;fill:#000000;fill-opacity:1;stroke:none"
       sodipodi:type="arc" />
    <path
       sodipodi:type="arc"
       style="fill:#ef5350;fill-opacity:1;stroke:none"
       id="path3772"
       sodipodi:cx="12"
       sodipodi:cy="24"
       sodipodi:rx="6"
       sodipodi:ry="6"
       d="m 18,24 c 0,3.313708 -2.686292,6 -6,6 -3.3137085,0 -6,-2.686292 -6,-6 0,-3.313708 2.6862915,-6 6,-6 3.313708,0 6,2.686292 6,6 z"
       transform="matrix(1.3333333,0,0,1.3333333,2e-7,996.3622)" />
    <path
       style="fill:#000000;fill-opacity:1;stroke:none;opacity:0.2"
       d="M 21.875 18.59375 C 23.016247 19.976622 23.6875 21.754503 23.6875 23.6875 C 23.6875 28.105778 20.105778 31.6875 15.6875 31.6875 C 13.754503 31.6875 11.976622 31.016247 10.59375 29.875 C 12.018952 31.18808 13.909336 32 16 32 C 20.418278 32 24 28.418278 24 24 C 24 21.909336 23.18808 20.018952 21.875 18.59375 z "
       transform="translate(0,1004.3622)"
       id="path3783" />
    <path
       style="fill:#ffffff;fill-opacity:1;stroke:none;opacity:0.2"
       d="M 16 16 C 11.581722 16 8 19.581722 8 24 C 8 26.01183 8.7426732 27.844237 9.96875 29.25 C 8.8275029 27.867128 8.15625 26.089247 8.15625 24.15625 C 8.15625 19.737972 11.737972 16.15625 16.15625 16.15625 C 18.089247 16.15625 19.867128 16.827503 21.25 17.96875 C 19.844237 16.742673 18.01183 16 16 16 z "
       transform="translate(0,1004.3622)"
       id="path3789" />
    <path
       sodipodi:type="arc"
       style="fill:#000000;fill-opacity:1;stroke:none;opacity:0.2"
       id="path3794"
       sodipodi:cx="12"
       sodipodi:cy="24"
       sodipodi:rx="6"
       sodipodi:ry="6"
       d="m 18,24 c 0,3.313708 -2.686292,6 -6,6 -3.3137085,0 -6,-2.686292 -6,-6 0,-3.313708 2.6862915,-6 6,-6 3.313708,0 6,2.686292 6,6 z"
       transform="matrix(0.49999997,0,0,0.49999987,11.000001,1017.3622)" />
    <path
       transform="matrix(0.49999997,0,0,0.49999987,10,1016.3622)"
       d="m 18,24 c 0,3.313708 -2.686292,6 -6,6 -3.3137085,0 -6,-2.686292 -6,-6 0,-3.313708 2.6862915,-6 6,-6 3.313708,0 6,2.686292 6,6 z"
       sodipodi:ry="6"
       sodipodi:rx="6"
       sodipodi:cy="24"
       sodipodi:cx="12"
       id="path3774"
       style="fill:#ffcdd2;fill-opacity:1;stroke:none"
       sodipodi:type="arc" />
  </g>
</svg>
