<?xml version="1.0" encoding="UTF-8" standalone="no"?>
<!-- Created with Inkscape (http://www.inkscape.org/) -->

<svg
   xmlns:dc="http://purl.org/dc/elements/1.1/"
   xmlns:cc="http://creativecommons.org/ns#"
   xmlns:rdf="http://www.w3.org/1999/02/22-rdf-syntax-ns#"
   xmlns:svg="http://www.w3.org/2000/svg"
   xmlns="http://www.w3.org/2000/svg"
   xmlns:xlink="http://www.w3.org/1999/xlink"
   xmlns:sodipodi="http://sodipodi.sourceforge.net/DTD/sodipodi-0.dtd"
   xmlns:inkscape="http://www.inkscape.org/namespaces/inkscape"
   width="48"
   height="48"
   id="svg2"
   version="1.1"
   inkscape:version="0.48.4 r9939"
   sodipodi:docname="preferences-color.svg">
  <defs
     id="defs4">
    <linearGradient
       id="linearGradient3818">
      <stop
         style="stop-color:#424242;stop-opacity:1;"
         offset="0"
         id="stop3820" />
      <stop
         style="stop-color:#565656;stop-opacity:1;"
         offset="1"
         id="stop3822" />
    </linearGradient>
    <linearGradient
       inkscape:collect="always"
       xlink:href="#linearGradient3818"
       id="linearGradient3824"
       x1="24"
       y1="1050.3622"
       x2="24"
       y2="1006.3622"
       gradientUnits="userSpaceOnUse" />
  </defs>
  <sodipodi:namedview
     id="base"
     pagecolor="#ffffff"
     bordercolor="#666666"
     borderopacity="1.0"
     inkscape:pageopacity="0.0"
     inkscape:pageshadow="2"
     inkscape:zoom="8.1906536"
     inkscape:cx="8.6131455"
     inkscape:cy="15.556123"
     inkscape:document-units="px"
     inkscape:current-layer="layer1"
     showgrid="true"
     inkscape:snap-bbox="true"
     inkscape:window-width="1301"
     inkscape:window-height="744"
     inkscape:window-x="65"
     inkscape:window-y="24"
     inkscape:window-maximized="1">
    <inkscape:grid
       type="xygrid"
       id="grid2985"
       empspacing="6"
       visible="true"
       enabled="true"
       snapvisiblegridlinesonly="true" />
  </sodipodi:namedview>
  <metadata
     id="metadata7">
    <rdf:RDF>
      <cc:Work
         rdf:about="">
        <dc:format>image/svg+xml</dc:format>
        <dc:type
           rdf:resource="http://purl.org/dc/dcmitype/StillImage" />
        <dc:title />
      </cc:Work>
    </rdf:RDF>
  </metadata>
  <g
     inkscape:label="Layer 1"
     inkscape:groupmode="layer"
     id="layer1"
     transform="translate(0,-1004.3622)">
    <path
       id="path3788"
       d="m 24,1051.1116 c -21.2715315,0 -23.66257505,-0.089 -23.9375,-15.4063 0.328125,14.4033 2.9375,14.4063 23.9375,14.4063 21,0 23.609375,0 23.9375,-14.4063 -0.274925,15.3174 -2.665968,15.4063 -23.9375,15.4063 z"
       style="opacity:0.20000000000000001;fill:#ffffff;fill-opacity:1;stroke:none"
       inkscape:connector-curvature="0" />
    <path
       style="fill:url(#linearGradient3824);fill-opacity:1;stroke:none"
       d="m 24,1006.3622 c -24,0 -24,0 -24,22 0,22 0,22 24,22 24,0 24,0 24,-22 0,-22 0,-22 -24,-22 z"
       id="path3757"
       inkscape:connector-curvature="0"
       sodipodi:nodetypes="zzzzz" />
    <path
       style="fill:#000000;fill-opacity:1;stroke:none;opacity:0.20000000000000001"
       d="M 24 2 C 2.7284685 2 0.33742495 2.0888436 0.0625 17.40625 C 0.390625 3.0029297 3 3 24 3 C 45 3 47.609375 3.0029297 47.9375 17.40625 C 47.662575 2.0888436 45.271532 2 24 2 z "
       transform="translate(0,1004.3622)"
       id="path3770" />
    <g
       id="g3774"
       transform="matrix(1.7750449,0,0,1.7142872,-125.1038,-561.40288)">
      <rect
         inkscape:transform-center-y="-4"
         ry="1"
         transform="translate(61,904.36218)"
         y="16"
         x="22"
         height="6"
         width="2"
         id="rect2994"
         style="fill:#ff6565;fill-opacity:1;stroke:none" />
      <rect
         inkscape:transform-center-x="3.4640821"
         style="fill:#656bff;fill-opacity:1;stroke:none"
         id="rect2996"
         width="2"
         height="6"
         x="-762.1192"
         y="529.42725"
         transform="matrix(0.5,-0.8660254,0.8660254,0.5,0,0)"
         ry="1"
         inkscape:transform-center-y="-1.9999959" />
      <rect
         inkscape:transform-center-y="1.9999829"
         ry="1"
         transform="matrix(-0.5,-0.8660254,0.8660254,-0.5,0,0)"
         y="-397.93494"
         x="-846.1192"
         height="6"
         width="2"
         id="rect2998"
         style="fill:#65c4ff;fill-opacity:1;stroke:none"
         inkscape:transform-center-x="3.4640856" />
      <rect
         style="fill:#6bff63;fill-opacity:1;stroke:none"
         id="rect3000"
         width="2"
         height="6"
         x="-84.999992"
         y="-934.36218"
         transform="scale(-1,-1)"
         ry="1"
         inkscape:transform-center-y="4.0000026" />
      <rect
         inkscape:transform-center-x="-3.4641288"
         inkscape:transform-center-y="2.0000041"
         ry="1"
         transform="matrix(-0.5,0.8660254,-0.8660254,-0.5,0,0)"
         y="-543.42725"
         x="760.1192"
         height="6"
         width="2"
         id="rect3002"
         style="fill:#e1c71f;fill-opacity:1;stroke:none" />
      <rect
         style="fill:#ffa560;fill-opacity:1;stroke:none"
         id="rect3004"
         width="2"
         height="6"
         x="844.1192"
         y="383.93494"
         transform="matrix(0.5,0.8660254,-0.8660254,0.5,0,0)"
         ry="1"
         inkscape:transform-center-y="-2.0000171"
         inkscape:transform-center-x="-3.4641253" />
    </g>
  </g>
</svg>
