<?xml version="1.0" encoding="UTF-8" standalone="no"?>
<!-- Created with Inkscape (http://www.inkscape.org/) -->

<svg
   xmlns:dc="http://purl.org/dc/elements/1.1/"
   xmlns:cc="http://creativecommons.org/ns#"
   xmlns:rdf="http://www.w3.org/1999/02/22-rdf-syntax-ns#"
   xmlns:svg="http://www.w3.org/2000/svg"
   xmlns="http://www.w3.org/2000/svg"
   xmlns:xlink="http://www.w3.org/1999/xlink"
   xmlns:sodipodi="http://sodipodi.sourceforge.net/DTD/sodipodi-0.dtd"
   xmlns:inkscape="http://www.inkscape.org/namespaces/inkscape"
   width="48"
   height="48"
   id="svg2"
   version="1.1"
   inkscape:version="0.48.4 r9939"
   sodipodi:docname="preferences-desktop-user.svg">
  <defs
     id="defs4">
    <linearGradient
       id="linearGradient3767">
      <stop
         style="stop-color:#ff8f00;stop-opacity:1;"
         offset="0"
         id="stop3769" />
      <stop
         style="stop-color:#ffa201;stop-opacity:1;"
         offset="1"
         id="stop3771" />
    </linearGradient>
    <linearGradient
       inkscape:collect="always"
       xlink:href="#linearGradient3767"
       id="linearGradient3773"
       x1="24"
       y1="46"
       x2="24"
       y2="2"
       gradientUnits="userSpaceOnUse" />
  </defs>
  <sodipodi:namedview
     id="base"
     pagecolor="#ffffff"
     bordercolor="#666666"
     borderopacity="1.0"
     inkscape:pageopacity="0.0"
     inkscape:pageshadow="2"
     inkscape:zoom="11.583333"
     inkscape:cx="22.800237"
     inkscape:cy="25.176705"
     inkscape:document-units="px"
     inkscape:current-layer="layer1"
     showgrid="true"
     inkscape:snap-bbox="true"
     inkscape:window-width="1301"
     inkscape:window-height="744"
     inkscape:window-x="65"
     inkscape:window-y="24"
     inkscape:window-maximized="1"
     inkscape:snap-global="true"
     inkscape:object-nodes="true"
     inkscape:snap-nodes="true">
    <inkscape:grid
       type="xygrid"
       id="grid2985"
       empspacing="6"
       visible="true"
       enabled="true"
       snapvisiblegridlinesonly="true" />
  </sodipodi:namedview>
  <metadata
     id="metadata7">
    <rdf:RDF>
      <cc:Work
         rdf:about="">
        <dc:format>image/svg+xml</dc:format>
        <dc:type
           rdf:resource="http://purl.org/dc/dcmitype/StillImage" />
        <dc:title />
      </cc:Work>
    </rdf:RDF>
  </metadata>
  <g
     inkscape:label="Layer 1"
     inkscape:groupmode="layer"
     id="layer1"
     transform="translate(0,-1004.3622)">
    <path
       style="fill:url(#linearGradient3773);fill-opacity:1;stroke:none"
       d="M 24 2 C 5.6607939 2 1.3640144 2.1840904 0.34375 12 C 0.028823257 15.029893 0 18.810939 0 24 C 0 46 0 46 24 46 C 48 46 48 46 48 24 C 48 18.810939 47.971177 15.029893 47.65625 12 C 46.635986 2.1840904 42.339206 2 24 2 z "
       transform="translate(0,1004.3622)"
       id="path3773" />
    <path
       style="fill:#000000;fill-opacity:1;stroke:none;opacity:0.20000000000000001"
       d="M 24 2 C 2.7284685 2 0.33742495 2.0888436 0.0625 17.40625 C 0.390625 3.0029297 3 3 24 3 C 45 3 47.609375 3.0029297 47.9375 17.40625 C 47.662575 2.0888436 45.271532 2 24 2 z "
       transform="translate(0,1004.3622)"
       id="path3770" />
    <path
       style="fill:#000000;fill-opacity:1;stroke:none;opacity:0.20000000000000001"
       d="M 24 2 C 7.2405624 2 2.2369698 2.0788791 0.71875 9.59375 C 2.3300781 2.5289866 7.5 2.53125 24 2.53125 C 40.5 2.53125 45.669922 2.5289866 47.28125 9.59375 C 45.76303 2.0788791 40.759438 2 24 2 z M 47.28125 9.59375 C 47.354492 9.9148756 47.409424 10.242768 47.46875 10.59375 C 47.41561 10.240351 47.346891 9.9186608 47.28125 9.59375 z M 0.71875 9.59375 C 0.65310868 9.9186608 0.58439008 10.240351 0.53125 10.59375 C 0.59057617 10.242768 0.64550781 9.9148756 0.71875 9.59375 z "
       transform="translate(0,1004.3622)"
       id="path3012" />
    <g
       id="g3032"
       transform="translate(48,1007.3622)" />
    <g
       id="g3042"
       transform="translate(-49.875,1002.6422)" />
    <g
       id="g3038"
       transform="translate(-53.998,1003.3622)" />
    <g
       id="g3793"
       transform="translate(1,1)"
       style="fill:#000000;fill-opacity:1;opacity:0.1">
      <path
         style="fill:#000000;fill-opacity:1;stroke:none"
         d="M 19.46875,24.34375 C 16.868014,24.960722 14,24.739823 14,30 l 0,5 20.0625,0 L 34,30 C 34.041169,24.730392 31.0905,24.95758 28.46875,24.34375 27.254768,25.375614 25.683577,26 23.96875,26 c -1.714827,0 -3.286018,-0.624386 -4.5,-1.65625 z"
         transform="translate(0,1004.3622)"
         id="path3795"
         inkscape:connector-curvature="0"
         sodipodi:nodetypes="csccccsc" />
      <path
         style="fill:#000000;fill-opacity:1;stroke:none"
         d="m 24,12 c -5,0 -6.03125,3.686292 -6.03125,7 0,3.313708 2.686291,6 6,6 3.313709,0 6,-2.686292 6,-6 C 29.96875,15.686292 29,12 24,12 z"
         transform="translate(0,1004.3622)"
         id="path3797"
         inkscape:connector-curvature="0"
         sodipodi:nodetypes="zszsz" />
    </g>
    <g
       id="g3789">
      <path
         sodipodi:nodetypes="csccccsc"
         inkscape:connector-curvature="0"
         id="rect2997"
         transform="translate(0,1004.3622)"
         d="M 19.46875,24.34375 C 16.868014,24.960722 14,24.739823 14,30 l 0,5 20.0625,0 L 34,30 C 34.041169,24.730392 31.0905,24.95758 28.46875,24.34375 27.254768,25.375614 25.683577,26 23.96875,26 c -1.714827,0 -3.286018,-0.624386 -4.5,-1.65625 z"
         style="fill:#ffffff;fill-opacity:1;stroke:none" />
      <path
         sodipodi:nodetypes="zszsz"
         inkscape:connector-curvature="0"
         id="path3767"
         transform="translate(0,1004.3622)"
         d="m 24,12 c -5,0 -6.03125,3.686292 -6.03125,7 0,3.313708 2.686291,6 6,6 3.313709,0 6,-2.686292 6,-6 C 29.96875,15.686292 29,12 24,12 z"
         style="fill:#ffffff;fill-opacity:1;stroke:none" />
    </g>
  </g>
</svg>
