<?xml version="1.0" encoding="UTF-8" standalone="no"?>
<!-- Created with Inkscape (http://www.inkscape.org/) -->

<svg
   xmlns:dc="http://purl.org/dc/elements/1.1/"
   xmlns:cc="http://creativecommons.org/ns#"
   xmlns:rdf="http://www.w3.org/1999/02/22-rdf-syntax-ns#"
   xmlns:svg="http://www.w3.org/2000/svg"
   xmlns="http://www.w3.org/2000/svg"
   xmlns:xlink="http://www.w3.org/1999/xlink"
   xmlns:sodipodi="http://sodipodi.sourceforge.net/DTD/sodipodi-0.dtd"
   xmlns:inkscape="http://www.inkscape.org/namespaces/inkscape"
   width="48"
   height="48"
   id="svg2"
   version="1.1"
   inkscape:version="0.48.4 r9939"
   sodipodi:docname="psensor.svg">
  <defs
     id="defs4">
    <linearGradient
       id="linearGradient3785">
      <stop
         style="stop-color:#dbdbdb;stop-opacity:1;"
         offset="0"
         id="stop3787" />
      <stop
         style="stop-color:#ffffff;stop-opacity:1;"
         offset="1"
         id="stop3789" />
    </linearGradient>
    <linearGradient
       id="linearGradient3763">
      <stop
         style="stop-color:#000000;stop-opacity:1;"
         offset="0"
         id="stop3765" />
      <stop
         style="stop-color:#ffffff;stop-opacity:1;"
         offset="1"
         id="stop3767" />
    </linearGradient>
    <linearGradient
       inkscape:collect="always"
       xlink:href="#linearGradient3763"
       id="linearGradient3800"
       gradientUnits="userSpaceOnUse"
       gradientTransform="translate(-60,0)"
       spreadMethod="repeat"
       x1="24"
       y1="1028.3622"
       x2="45"
       y2="1007.3622" />
    <linearGradient
       inkscape:collect="always"
       xlink:href="#linearGradient3763"
       id="linearGradient3802"
       gradientUnits="userSpaceOnUse"
       gradientTransform="translate(-60,0)"
       spreadMethod="repeat"
       x1="45"
       y1="1049.3622"
       x2="18"
       y2="1022.3622" />
    <linearGradient
       inkscape:collect="always"
       xlink:href="#linearGradient3785"
       id="linearGradient3791"
       x1="24"
       y1="1050.3622"
       x2="24"
       y2="1006.3622"
       gradientUnits="userSpaceOnUse" />
  </defs>
  <sodipodi:namedview
     id="base"
     pagecolor="#ffffff"
     bordercolor="#666666"
     borderopacity="1.0"
     inkscape:pageopacity="0.0"
     inkscape:pageshadow="2"
     inkscape:zoom="8.1906533"
     inkscape:cx="7.9703748"
     inkscape:cy="21.207168"
     inkscape:document-units="px"
     inkscape:current-layer="layer1"
     showgrid="true"
     inkscape:snap-bbox="true"
     inkscape:window-width="1301"
     inkscape:window-height="744"
     inkscape:window-x="65"
     inkscape:window-y="24"
     inkscape:window-maximized="1"
     inkscape:object-nodes="false"
     inkscape:snap-nodes="true">
    <inkscape:grid
       type="xygrid"
       id="grid3005"
       empspacing="6"
       visible="true"
       enabled="true"
       snapvisiblegridlinesonly="true" />
  </sodipodi:namedview>
  <metadata
     id="metadata7">
    <rdf:RDF>
      <cc:Work
         rdf:about="">
        <dc:format>image/svg+xml</dc:format>
        <dc:type
           rdf:resource="http://purl.org/dc/dcmitype/StillImage" />
        <dc:title />
      </cc:Work>
    </rdf:RDF>
  </metadata>
  <g
     inkscape:label="Layer 1"
     inkscape:groupmode="layer"
     id="layer1"
     transform="translate(0,-1004.3622)">
    <path
       id="path3788"
       d="m 24,1051.1116 c -21.2715315,0 -23.66257505,-0.089 -23.9375,-15.4063 0.328125,14.4033 2.9375,14.4063 23.9375,14.4063 21,0 23.609375,0 23.9375,-14.4063 -0.274925,15.3174 -2.665968,15.4063 -23.9375,15.4063 z"
       style="opacity:0.20000000000000001;fill:#ffffff;fill-opacity:1;stroke:none"
       inkscape:connector-curvature="0" />
    <path
       style="fill:url(#linearGradient3791);fill-opacity:1;stroke:none"
       d="m 24,1006.3622 c -24,0 -24,0 -24,22 0,22 0,22 24,22 24,0 24,0 24,-22 0,-22 0,-22 -24,-22 z"
       id="path3757"
       inkscape:connector-curvature="0"
       sodipodi:nodetypes="zzzzz" />
    <g
       id="g3796"
       transform="translate(60,0)">
      <path
         style="opacity:0.03999999;fill:url(#linearGradient3800);fill-opacity:1;stroke:none"
         d="m -36,1006.3622 c -24,0 -24,0 -24,22 0,22 0,22 24,22 24,0 24,0 24,-22 0,-22 0,-22 -24,-22 z"
         id="path3783"
         inkscape:connector-curvature="0"
         sodipodi:nodetypes="zzzzz" />
      <path
         sodipodi:nodetypes="zzzzz"
         inkscape:connector-curvature="0"
         id="path3795"
         d="m -36,1006.3622 c -24,0 -24,0 -24,22 0,22 0,22 24,22 24,0 24,0 24,-22 0,-22 0,-22 -24,-22 z"
         style="opacity:0.03999999;fill:url(#linearGradient3802);fill-opacity:1;stroke:none" />
    </g>
    <path
       style="fill:#000000;fill-opacity:1;stroke:none;opacity:0.20000000000000001"
       d="M 24 2 C 2.7284685 2 0.33742495 2.0888436 0.0625 17.40625 C 0.390625 3.0029297 3 3 24 3 C 45 3 47.609375 3.0029297 47.9375 17.40625 C 47.662575 2.0888436 45.271532 2 24 2 z "
       transform="translate(0,1004.3622)"
       id="path3770" />
    <g
       id="g3037"
       transform="translate(-46.998,1004.3622)" />
    <g
       id="g3808"
       transform="translate(-52.998,1013.3622)" />
    <g
       id="g3795"
       style="stroke-width:2;stroke-miterlimit:4;stroke-dasharray:none" />
    <g
       id="g3802"
       style="opacity:0.2;fill:#000000;fill-opacity:1"
       transform="translate(1.000001,1.0000174)">
      <rect
         style="fill:#000000;fill-opacity:1;stroke:none"
         id="rect3804"
         width="6"
         height="19"
         x="21"
         y="1013.3622"
         ry="0" />
      <path
         sodipodi:type="arc"
         style="fill:#000000;fill-opacity:1;stroke:none"
         id="path3806"
         sodipodi:cx="24"
         sodipodi:cy="30"
         sodipodi:rx="6"
         sodipodi:ry="6"
         d="m 30,30 c 0,3.313708 -2.686292,6 -6,6 -3.313708,0 -6,-2.686292 -6,-6 0,-3.313708 2.686292,-6 6,-6 3.313708,0 6,2.686292 6,6 z"
         transform="matrix(1.3333333,0,0,1.3333333,-8,995.3622)" />
      <rect
         ry="0"
         y="1023.3622"
         x="21"
         height="8.9999485"
         width="6"
         id="rect3808"
         style="fill:#000000;fill-opacity:1;stroke:none" />
      <rect
         style="fill:#000000;fill-opacity:1;stroke:none"
         id="rect3810"
         width="3"
         height="2"
         x="24"
         y="12"
         transform="translate(0,1004.3622)" />
      <rect
         style="fill:#000000;fill-opacity:1;stroke:none"
         id="rect3812"
         width="3"
         height="2"
         x="24"
         y="1022.3622" />
      <rect
         style="fill:#000000;fill-opacity:1;stroke:none"
         id="rect3814"
         width="3"
         height="2"
         x="24"
         y="24"
         transform="translate(0,1004.3622)" />
    </g>
    <g
       id="g3794">
      <rect
         ry="0"
         y="1013.3622"
         x="21"
         height="19"
         width="6"
         id="rect3784"
         style="fill:#333333;fill-opacity:1;stroke:none" />
      <path
         transform="matrix(1.3333333,0,0,1.3333333,-8,995.3622)"
         d="m 30,30 a 6,6 0 1 1 -12,0 6,6 0 1 1 12,0 z"
         sodipodi:ry="6"
         sodipodi:rx="6"
         sodipodi:cy="30"
         sodipodi:cx="24"
         id="path3014"
         style="fill:#f44336;stroke:none"
         sodipodi:type="arc" />
      <rect
         style="fill:#f44336;fill-opacity:1;stroke:none"
         id="rect3786"
         width="6"
         height="8.9999485"
         x="21"
         y="1023.3622"
         ry="0" />
      <rect
         transform="translate(0,1004.3622)"
         y="12"
         x="24"
         height="2"
         width="3"
         id="rect3788"
         style="fill:#ffffff;fill-opacity:1;stroke:none" />
      <rect
         y="1022.3622"
         x="24"
         height="2"
         width="3"
         id="rect3790"
         style="fill:#ffffff;fill-opacity:1;stroke:none" />
      <rect
         transform="translate(0,1004.3622)"
         y="24"
         x="24"
         height="2"
         width="3"
         id="rect3792"
         style="fill:#ffffff;fill-opacity:1;stroke:none" />
    </g>
  </g>
</svg>
