<?xml version="1.0" encoding="UTF-8" standalone="no"?>
<!-- Created with Inkscape (http://www.inkscape.org/) -->

<svg
   xmlns:dc="http://purl.org/dc/elements/1.1/"
   xmlns:cc="http://creativecommons.org/ns#"
   xmlns:rdf="http://www.w3.org/1999/02/22-rdf-syntax-ns#"
   xmlns:svg="http://www.w3.org/2000/svg"
   xmlns="http://www.w3.org/2000/svg"
   xmlns:xlink="http://www.w3.org/1999/xlink"
   xmlns:sodipodi="http://sodipodi.sourceforge.net/DTD/sodipodi-0.dtd"
   xmlns:inkscape="http://www.inkscape.org/namespaces/inkscape"
   width="48"
   height="48"
   id="svg2"
   version="1.1"
   inkscape:version="0.48.4 r9939"
   sodipodi:docname="pstree.svg">
  <defs
     id="defs4">
    <linearGradient
       id="linearGradient3775">
      <stop
         style="stop-color:#b36a2a;stop-opacity:1;"
         offset="0"
         id="stop3777" />
      <stop
         style="stop-color:#d1823d;stop-opacity:1;"
         offset="1"
         id="stop3779" />
    </linearGradient>
    <linearGradient
       id="linearGradient3763">
      <stop
         style="stop-color:#000000;stop-opacity:1;"
         offset="0"
         id="stop3765" />
      <stop
         style="stop-color:#ffffff;stop-opacity:1;"
         offset="1"
         id="stop3767" />
    </linearGradient>
    <linearGradient
       inkscape:collect="always"
       xlink:href="#linearGradient3763"
       id="linearGradient3989"
       gradientUnits="userSpaceOnUse"
       gradientTransform="translate(-40,0)"
       spreadMethod="repeat"
       x1="24"
       y1="1028.3622"
       x2="45"
       y2="1007.3622" />
    <linearGradient
       inkscape:collect="always"
       xlink:href="#linearGradient3763"
       id="linearGradient3991"
       gradientUnits="userSpaceOnUse"
       gradientTransform="translate(-40,0)"
       spreadMethod="repeat"
       x1="45"
       y1="1049.3622"
       x2="18"
       y2="1022.3622" />
    <linearGradient
       inkscape:collect="always"
       xlink:href="#linearGradient3775"
       id="linearGradient3781"
       x1="24"
       y1="1050.3622"
       x2="24"
       y2="1006.3622"
       gradientUnits="userSpaceOnUse" />
  </defs>
  <sodipodi:namedview
     id="base"
     pagecolor="#ffffff"
     bordercolor="#666666"
     borderopacity="1.0"
     inkscape:pageopacity="0.0"
     inkscape:pageshadow="2"
     inkscape:zoom="8.1906533"
     inkscape:cx="7.8027972"
     inkscape:cy="19.328824"
     inkscape:document-units="px"
     inkscape:current-layer="layer1"
     showgrid="true"
     inkscape:snap-bbox="true"
     inkscape:window-width="1301"
     inkscape:window-height="744"
     inkscape:window-x="65"
     inkscape:window-y="24"
     inkscape:window-maximized="1"
     inkscape:object-nodes="false"
     inkscape:snap-nodes="true">
    <inkscape:grid
       type="xygrid"
       id="grid3005"
       empspacing="6"
       visible="true"
       enabled="true"
       snapvisiblegridlinesonly="true" />
  </sodipodi:namedview>
  <metadata
     id="metadata7">
    <rdf:RDF>
      <cc:Work
         rdf:about="">
        <dc:format>image/svg+xml</dc:format>
        <dc:type
           rdf:resource="http://purl.org/dc/dcmitype/StillImage" />
        <dc:title />
      </cc:Work>
    </rdf:RDF>
  </metadata>
  <g
     inkscape:label="Layer 1"
     inkscape:groupmode="layer"
     id="layer1"
     transform="translate(0,-1004.3622)">
    <path
       id="path3788"
       d="m 24,1051.1116 c -21.2715315,0 -23.66257505,-0.089 -23.9375,-15.4063 0.328125,14.4033 2.9375,14.4063 23.9375,14.4063 21,0 23.609375,0 23.9375,-14.4063 -0.274925,15.3174 -2.665968,15.4063 -23.9375,15.4063 z"
       style="opacity:0.20000000000000001;fill:#ffffff;fill-opacity:1;stroke:none"
       inkscape:connector-curvature="0" />
    <path
       style="fill:url(#linearGradient3781);fill-opacity:1;stroke:none"
       d="m 24,1006.3622 c -24,0 -24,0 -24,22 0,22 0,22 24,22 24,0 24,0 24,-22 0,-22 0,-22 -24,-22 z"
       id="path3757"
       inkscape:connector-curvature="0"
       sodipodi:nodetypes="zzzzz" />
    <g
       id="g3969"
       transform="translate(40,0)">
      <path
         style="opacity:0.02000002;fill:url(#linearGradient3989);fill-opacity:1;stroke:none"
         d="m -16,1006.3622 c -24,0 -24,0 -24,22 0,22 0,22 24,22 24,0 24,0 24,-22 0,-22 0,-22 -24,-22 z"
         id="path3783"
         inkscape:connector-curvature="0"
         sodipodi:nodetypes="zzzzz" />
      <path
         sodipodi:nodetypes="zzzzz"
         inkscape:connector-curvature="0"
         id="path3795"
         d="m -16,1006.3622 c -24,0 -24,0 -24,22 0,22 0,22 24,22 24,0 24,0 24,-22 0,-22 0,-22 -24,-22 z"
         style="opacity:0.02000002;fill:url(#linearGradient3991);fill-opacity:1;stroke:none" />
    </g>
    <path
       style="fill:#000000;fill-opacity:1;stroke:none;opacity:0.20000000000000001"
       d="M 24 2 C 2.7284685 2 0.33742495 2.0888436 0.0625 17.40625 C 0.390625 3.0029297 3 3 24 3 C 45 3 47.609375 3.0029297 47.9375 17.40625 C 47.662575 2.0888436 45.271532 2 24 2 z "
       transform="translate(0,1004.3622)"
       id="path3770" />
    <path
       inkscape:connector-curvature="0"
       id="path3813"
       d="m 26,1015.3622 c -3.313708,0 -6,2.6863 -6,6 0,0.093 -0.0042,0.1893 0,0.2813 -0.47255,-0.1686 -0.969566,-0.2813 -1.5,-0.2813 -2.485281,0 -4.5,2.0147 -4.5,4.5 0,1.9686 1.270553,3.6393 3.03125,4.25 -0.0073,0.085 -0.03125,0.1626 -0.03125,0.25 0,1.6569 1.343146,3 3,3 0.819899,0 1.552239,-0.3419 2.09375,-0.875 0.284755,0.1856 0.58073,0.3711 0.90625,0.5 l 0,10.375 5,0 0,-10.9375 c 0.05042,-0.034 0.107355,-0.058 0.15625,-0.094 0.723858,0.6333 1.739181,1.0312 2.84375,1.0312 2.209139,0 4,-1.567 4,-3.5 0,-0.4832 -0.110089,-0.9563 -0.3125,-1.375 0.197137,-0.5061 0.3125,-1.0491 0.3125,-1.625 0,-2.0034 -1.315458,-3.6983 -3.125,-4.2812 0.07992,-0.3906 0.125,-0.8046 0.125,-1.2188 0,-3.3137 -2.686292,-6 -6,-6 z"
       style="fill:#000000;fill-opacity:1;stroke:none;opacity:0.2" />
    <path
       style="fill:#eaeaea;fill-opacity:1;stroke:none"
       d="m 25,1014.3622 c -3.313708,0 -6,2.6863 -6,6 0,0.093 -0.0042,0.1893 0,0.2813 -0.47255,-0.1686 -0.969566,-0.2813 -1.5,-0.2813 -2.485281,0 -4.5,2.0147 -4.5,4.5 0,1.9686 1.270553,3.6393 3.03125,4.25 -0.0073,0.085 -0.03125,0.1626 -0.03125,0.25 0,1.6569 1.343146,3 3,3 0.819899,0 1.552239,-0.3419 2.09375,-0.875 0.284755,0.1856 0.58073,0.3711 0.90625,0.5 l 0,10.375 5,0 0,-10.9375 c 0.05042,-0.034 0.107355,-0.058 0.15625,-0.094 0.723858,0.6333 1.739181,1.0312 2.84375,1.0312 2.209139,0 4,-1.567 4,-3.5 0,-0.4832 -0.110089,-0.9563 -0.3125,-1.375 0.197137,-0.5061 0.3125,-1.0491 0.3125,-1.625 0,-2.0034 -1.315458,-3.6983 -3.125,-4.2812 0.07992,-0.3906 0.125,-0.8046 0.125,-1.2188 0,-3.3137 -2.686292,-6 -6,-6 z"
       id="path3027"
       inkscape:connector-curvature="0" />
  </g>
</svg>
