<?xml version="1.0" encoding="UTF-8" standalone="no"?>
<!-- Created with Inkscape (http://www.inkscape.org/) -->

<svg
   xmlns:dc="http://purl.org/dc/elements/1.1/"
   xmlns:cc="http://creativecommons.org/ns#"
   xmlns:rdf="http://www.w3.org/1999/02/22-rdf-syntax-ns#"
   xmlns:svg="http://www.w3.org/2000/svg"
   xmlns="http://www.w3.org/2000/svg"
   xmlns:xlink="http://www.w3.org/1999/xlink"
   xmlns:sodipodi="http://sodipodi.sourceforge.net/DTD/sodipodi-0.dtd"
   xmlns:inkscape="http://www.inkscape.org/namespaces/inkscape"
   width="48"
   height="48"
   id="svg2"
   version="1.1"
   inkscape:version="0.48.4 r9939"
   sodipodi:docname="pycharm.svg">
  <defs
     id="defs4">
    <linearGradient
       id="linearGradient3772">
      <stop
         style="stop-color:#bdbdbd;stop-opacity:1;"
         offset="0"
         id="stop3774" />
      <stop
         style="stop-color:#f5f5f5;stop-opacity:1;"
         offset="1"
         id="stop3776" />
    </linearGradient>
    <linearGradient
       id="linearGradient3779">
      <stop
         style="stop-color:#000000;stop-opacity:1;"
         offset="0"
         id="stop3781" />
      <stop
         style="stop-color:#ffffff;stop-opacity:1;"
         offset="1"
         id="stop3783" />
    </linearGradient>
    <linearGradient
       inkscape:collect="always"
       xlink:href="#linearGradient3779"
       id="linearGradient3794"
       gradientUnits="userSpaceOnUse"
       gradientTransform="translate(-40,0)"
       spreadMethod="repeat"
       x1="24"
       y1="1028.3622"
       x2="45"
       y2="1007.3622" />
    <linearGradient
       inkscape:collect="always"
       xlink:href="#linearGradient3779"
       id="linearGradient3796"
       gradientUnits="userSpaceOnUse"
       gradientTransform="translate(-40,0)"
       spreadMethod="repeat"
       x1="44"
       y1="1048.3622"
       x2="15"
       y2="1019.3622" />
    <linearGradient
       inkscape:collect="always"
       xlink:href="#linearGradient3772"
       id="linearGradient3778"
       x1="24"
       y1="1050.3622"
       x2="24"
       y2="1006.5204"
       gradientUnits="userSpaceOnUse" />
    <clipPath
       id="clipPath-203121267">
      <g
         id="g3022"
         transform="translate(0,-1004.3622)">
        <path
           id="path3024"
           fill="#1890d0"
           transform="matrix(15.333333,0,0,11.5,414.99999,878.8622)"
           d="m -24 13 c 0 1.105 -0.672 2 -1.5 2 -0.828 0 -1.5 -0.895 -1.5 -2 0 -1.105 0.672 -2 1.5 -2 0.828 0 1.5 0.895 1.5 2 z" />
      </g>
    </clipPath>
    <clipPath
       id="clipPath-197489017">
      <g
         id="g3017"
         transform="translate(0,-1004.3622)">
        <path
           id="path3019"
           fill="#1890d0"
           transform="matrix(15.333333,0,0,11.5,414.99999,878.8622)"
           d="m -24 13 c 0 1.105 -0.672 2 -1.5 2 -0.828 0 -1.5 -0.895 -1.5 -2 0 -1.105 0.672 -2 1.5 -2 0.828 0 1.5 0.895 1.5 2 z" />
      </g>
    </clipPath>
    <linearGradient
       gradientTransform="matrix(0,-1,1,0,-1.5e-6,47.999998)"
       gradientUnits="userSpaceOnUse"
       x2="47"
       x1="1"
       id="linearGradient3764">
      <stop
         id="stop3012"
         stop-opacity="1"
         stop-color="#e4e4e4" />
      <stop
         id="stop3014"
         stop-opacity="1"
         stop-color="#eee"
         offset="1" />
    </linearGradient>
  </defs>
  <sodipodi:namedview
     id="base"
     pagecolor="#ffffff"
     bordercolor="#666666"
     borderopacity="1.0"
     inkscape:pageopacity="0.0"
     inkscape:pageshadow="2"
     inkscape:zoom="5.7916665"
     inkscape:cx="24.874826"
     inkscape:cy="9.5779774"
     inkscape:document-units="px"
     inkscape:current-layer="layer1"
     showgrid="true"
     inkscape:snap-bbox="true"
     inkscape:window-width="1301"
     inkscape:window-height="744"
     inkscape:window-x="65"
     inkscape:window-y="24"
     inkscape:window-maximized="1"
     inkscape:object-nodes="true"
     showguides="true"
     inkscape:guide-bbox="true"
     inkscape:snap-nodes="true"
     inkscape:snap-global="true">
    <inkscape:grid
       type="xygrid"
       id="grid3003"
       empspacing="6"
       visible="true"
       enabled="true"
       snapvisiblegridlinesonly="true" />
  </sodipodi:namedview>
  <metadata
     id="metadata7">
    <rdf:RDF>
      <cc:Work
         rdf:about="">
        <dc:format>image/svg+xml</dc:format>
        <dc:type
           rdf:resource="http://purl.org/dc/dcmitype/StillImage" />
        <dc:title />
      </cc:Work>
    </rdf:RDF>
  </metadata>
  <g
     inkscape:label="Layer 1"
     inkscape:groupmode="layer"
     id="layer1"
     transform="translate(0,-1004.3622)">
    <path
       id="path3788"
       d="m 24,1051.1116 c -21.2715315,0 -23.66257505,-0.089 -23.9375,-15.4063 0.328125,14.4033 2.9375,14.4063 23.9375,14.4063 21,0 23.609375,0 23.9375,-14.4063 -0.274925,15.3174 -2.665968,15.4063 -23.9375,15.4063 z"
       style="opacity:0.20000000000000001;fill:#ffffff;fill-opacity:1;stroke:none"
       inkscape:connector-curvature="0" />
    <path
       style="fill:url(#linearGradient3778);fill-opacity:1;stroke:none"
       d="m 24,1006.3622 c -24,0 -24,0 -24,22 0,22 0,22 24,22 24,0 24,0 24,-22 0,-22 0,-22 -24,-22 z"
       id="path3757"
       inkscape:connector-curvature="0"
       sodipodi:nodetypes="zzzzz" />
    <g
       id="g3790"
       transform="translate(40,0)">
      <path
         style="opacity:0.05;fill:url(#linearGradient3794);fill-opacity:1;stroke:none"
         d="m -16,1006.3622 c -24,0 -24,0 -24,22 0,22 0,22 24,22 24,0 24,0 24,-22 0,-22 0,-22 -24,-22 z"
         id="path3777"
         inkscape:connector-curvature="0"
         sodipodi:nodetypes="zzzzz" />
      <path
         sodipodi:nodetypes="zzzzz"
         inkscape:connector-curvature="0"
         id="path3787"
         d="m -16,1006.3622 c -24,0 -24,0 -24,22 0,22 0,22 24,22 24,0 24,0 24,-22 0,-22 0,-22 -24,-22 z"
         style="opacity:0.05;fill:url(#linearGradient3796);fill-opacity:1;stroke:none" />
    </g>
    <path
       style="fill:#000000;fill-opacity:1;stroke:none;opacity:0.20000000000000001"
       d="M 24 2 C 2.7284685 2 0.33742495 2.0888436 0.0625 17.40625 C 0.390625 3.0029297 3 3 24 3 C 45 3 47.609375 3.0029297 47.9375 17.40625 C 47.662575 2.0888436 45.271532 2 24 2 z "
       transform="translate(0,1004.3622)"
       id="path3770" />
    <g
       id="g3813"
       transform="translate(-47.998,993.3622)" />
    <g
       id="g3038"
       transform="translate(-50.335,1008.7072)" />
    <g
       id="g3040"
       transform="translate(-0.00380783,1004.3614)">
      <g
         clip-path="url(#clipPath-197489017)"
         id="g3042">
        <g
           transform="translate(1,1)"
           id="g3044">
          <g
             style="opacity:0.1"
             id="g3046">
            <!-- color: #eeeeee -->
            <g
               id="g3048">
              <path
                 style="fill:#000000;fill-opacity:1;fill-rule:nonzero;stroke:none"
                 inkscape:connector-curvature="0"
                 d="m 11.129,36.898 c -0.07,-0.074 -0.129,-3.684 -0.125,-8.02 0,-8.84 0.082,-9.617 1.238,-12.02 1.695,-3.531 5.641,-5.941 9.574,-5.855 0.582,0.012 1.305,0.074 1.609,0.145 0.543,0.121 0.531,0.137 -0.941,1.289 -4.313,3.375 -6.621,9.238 -4.73,11.992 0.313,0.453 0.934,1.09 1.383,1.41 0.688,0.492 1.031,0.598 2.199,0.656 1.195,0.063 1.512,0.004 2.363,-0.438 2.953,-2.242 3.543,-7.02 7.465,-7.125 0.676,0 0.727,0.043 0.867,0.727 0.254,1.238 0.145,3.957 -0.211,5.199 -1.34,4.676 -5.496,7.855 -10.293,7.871 -0.641,0.004 -1.828,-0.172 -2.645,-0.387 -0.82,-0.215 -1.555,-0.395 -1.641,-0.395 -0.086,0 -0.176,1.117 -0.207,2.48 l -0.051,2.477 -2.859,0.059 c -1.574,0.023 -2.922,-0.012 -2.996,-0.082 m 9.02,-12.04 c 20.824,7.73 10.41,3.859 0,0 m 0,0"
                 id="path3050" />
              <path
                 style="fill:#000000;fill-opacity:1;fill-rule:nonzero;stroke:none"
                 inkscape:connector-curvature="0"
                 d="m 29.523,36.902 c -2.051,-0.414 -2.625,-0.578 -3.637,-1.043 -1.523,-0.703 -2.691,-1.52 -2.336,-1.621 2.992,-0.875 4.117,-1.406 5.691,-2.68 l 1.031,-0.832 2.266,0.059 c 1.246,0.031 2.449,0.125 2.676,0.215 0.633,0.25 1.59,1.473 1.723,2.219 0.262,1.418 -0.441,2.855 -1.676,3.426 -0.656,0.305 -1.215,0.367 -3.082,0.355 -1.254,-0.012 -2.453,-0.055 -2.66,-0.098 m -9.43,-12.348 c -0.859,-0.512 -1.492,-1.625 -1.492,-2.641 0,-0.914 0.48,-2.402 1.328,-4.133 0.895,-1.824 3.43,-4.344 5.32,-5.289 2.309,-1.148 3.402,-1.352 6.918,-1.281 2.703,0.055 3.121,0.105 3.578,0.449 0.621,0.469 1.336,1.863 1.25,2.453 -0.098,0.668 -1.277,1 -3.035,0.855 -1.711,-0.148 -1.953,0.039 -1.156,0.852 0.395,0.406 0.813,0.602 1.484,0.691 0.512,0.066 1.063,0.145 1.219,0.168 0.195,0.035 0.133,0.137 -0.191,0.328 -0.324,0.188 -1.336,0.313 -3.23,0.383 -2.445,0.09 -2.875,0.16 -3.801,0.602 -1.113,0.539 -2.5,1.824 -2.977,2.773 -0.16,0.32 -0.457,1.063 -0.656,1.656 -0.586,1.73 -1.57,2.559 -3.055,2.547 -0.48,-0.004 -1.102,-0.172 -1.512,-0.414 M 34.335,13.655 c 0.563,-0.578 0.016,-1.902 -0.785,-1.902 -0.898,0 -1.406,1.188 -0.777,1.832 0.352,0.355 1.238,0.398 1.563,0.066 m 0,0.004"
                 id="path3052" />
            </g>
          </g>
        </g>
      </g>
    </g>
    <g
       id="g3054"
       transform="translate(-0.00380783,1004.3614)">
      <g
         clip-path="url(#clipPath-203121267)"
         id="g3056">
        <!-- color: #eeeeee -->
        <g
           id="g3058">
          <path
             style="fill:#f28e0a;fill-opacity:1;fill-rule:nonzero;stroke:none"
             inkscape:connector-curvature="0"
             d="m 11.129,36.898 c -0.07,-0.074 -0.129,-3.684 -0.125,-8.02 0,-8.84 0.082,-9.617 1.238,-12.02 1.695,-3.531 5.641,-5.941 9.574,-5.855 0.582,0.012 1.305,0.074 1.609,0.145 0.543,0.121 0.531,0.137 -0.941,1.289 -4.313,3.375 -6.621,9.238 -4.73,11.992 0.313,0.453 0.934,1.09 1.383,1.41 0.688,0.492 1.031,0.598 2.199,0.656 1.195,0.063 1.512,0.004 2.363,-0.438 2.953,-2.242 3.543,-7.02 7.465,-7.125 0.676,0 0.727,0.043 0.867,0.727 0.254,1.238 0.145,3.957 -0.211,5.199 -1.34,4.676 -5.496,7.855 -10.293,7.871 -0.641,0.004 -1.828,-0.172 -2.645,-0.387 -0.82,-0.215 -1.555,-0.395 -1.641,-0.395 -0.086,0 -0.176,1.117 -0.207,2.48 l -0.051,2.477 -2.859,0.059 c -1.574,0.023 -2.922,-0.012 -2.996,-0.082 m 9.02,-12.04 c 20.824,7.73 10.41,3.859 0,0 m 0,0"
             id="path3060" />
          <path
             style="fill:#45703e;fill-opacity:1;fill-rule:nonzero;stroke:none"
             inkscape:connector-curvature="0"
             d="m 29.523,36.902 c -2.051,-0.414 -2.625,-0.578 -3.637,-1.043 -1.523,-0.703 -2.691,-1.52 -2.336,-1.621 2.992,-0.875 4.117,-1.406 5.691,-2.68 l 1.031,-0.832 2.266,0.059 c 1.246,0.031 2.449,0.125 2.676,0.215 0.633,0.25 1.59,1.473 1.723,2.219 0.262,1.418 -0.441,2.855 -1.676,3.426 -0.656,0.305 -1.215,0.367 -3.082,0.355 -1.254,-0.012 -2.453,-0.055 -2.66,-0.098 m -9.43,-12.348 c -0.859,-0.512 -1.492,-1.625 -1.492,-2.641 0,-0.914 0.48,-2.402 1.328,-4.133 0.895,-1.824 3.43,-4.344 5.32,-5.289 2.309,-1.148 3.402,-1.352 6.918,-1.281 2.703,0.055 3.121,0.105 3.578,0.449 0.621,0.469 1.336,1.863 1.25,2.453 -0.098,0.668 -1.277,1 -3.035,0.855 -1.711,-0.148 -1.953,0.039 -1.156,0.852 0.395,0.406 0.813,0.602 1.484,0.691 0.512,0.066 1.063,0.145 1.219,0.168 0.195,0.035 0.133,0.137 -0.191,0.328 -0.324,0.188 -1.336,0.313 -3.23,0.383 -2.445,0.09 -2.875,0.16 -3.801,0.602 -1.113,0.539 -2.5,1.824 -2.977,2.773 -0.16,0.32 -0.457,1.063 -0.656,1.656 -0.586,1.73 -1.57,2.559 -3.055,2.547 -0.48,-0.004 -1.102,-0.172 -1.512,-0.414 M 34.335,13.655 c 0.563,-0.578 0.016,-1.902 -0.785,-1.902 -0.898,0 -1.406,1.188 -0.777,1.832 0.352,0.355 1.238,0.398 1.563,0.066 m 0,0.004"
             id="path3062" />
        </g>
      </g>
    </g>
  </g>
</svg>
