<?xml version="1.0" encoding="UTF-8" standalone="no"?>
<!-- Created with Inkscape (http://www.inkscape.org/) -->

<svg
   xmlns:dc="http://purl.org/dc/elements/1.1/"
   xmlns:cc="http://creativecommons.org/ns#"
   xmlns:rdf="http://www.w3.org/1999/02/22-rdf-syntax-ns#"
   xmlns:svg="http://www.w3.org/2000/svg"
   xmlns="http://www.w3.org/2000/svg"
   xmlns:xlink="http://www.w3.org/1999/xlink"
   xmlns:sodipodi="http://sodipodi.sourceforge.net/DTD/sodipodi-0.dtd"
   xmlns:inkscape="http://www.inkscape.org/namespaces/inkscape"
   width="48"
   height="48"
   id="svg2"
   version="1.1"
   inkscape:version="0.48.4 r9939"
   sodipodi:docname="qbittorrent.svg">
  <defs
     id="defs4">
    <linearGradient
       id="linearGradient3790">
      <stop
         style="stop-color:#e6e6e6;stop-opacity:1;"
         offset="0"
         id="stop3792" />
      <stop
         style="stop-color:#ffffff;stop-opacity:1;"
         offset="1"
         id="stop3794" />
    </linearGradient>
    <linearGradient
       id="linearGradient3779">
      <stop
         style="stop-color:#000000;stop-opacity:1;"
         offset="0"
         id="stop3781" />
      <stop
         style="stop-color:#ffffff;stop-opacity:1;"
         offset="1"
         id="stop3783" />
    </linearGradient>
    <linearGradient
       inkscape:collect="always"
       xlink:href="#linearGradient3779"
       id="linearGradient3794"
       gradientUnits="userSpaceOnUse"
       gradientTransform="translate(-40,0)"
       spreadMethod="repeat"
       x1="24"
       y1="1028.3622"
       x2="45"
       y2="1007.3622" />
    <linearGradient
       inkscape:collect="always"
       xlink:href="#linearGradient3779"
       id="linearGradient3796"
       gradientUnits="userSpaceOnUse"
       gradientTransform="translate(-40,0)"
       spreadMethod="repeat"
       x1="44"
       y1="1048.3622"
       x2="15"
       y2="1019.3622" />
    <linearGradient
       inkscape:collect="always"
       xlink:href="#linearGradient3790"
       id="linearGradient3797"
       x1="24"
       y1="1050.3622"
       x2="24"
       y2="1006.3622"
       gradientUnits="userSpaceOnUse" />
  </defs>
  <sodipodi:namedview
     id="base"
     pagecolor="#ffffff"
     bordercolor="#666666"
     borderopacity="1.0"
     inkscape:pageopacity="0.0"
     inkscape:pageshadow="2"
     inkscape:zoom="8.1906533"
     inkscape:cx="-0.8370157"
     inkscape:cy="19.28237"
     inkscape:document-units="px"
     inkscape:current-layer="layer1"
     showgrid="true"
     inkscape:snap-bbox="true"
     inkscape:window-width="1301"
     inkscape:window-height="744"
     inkscape:window-x="65"
     inkscape:window-y="24"
     inkscape:window-maximized="1"
     inkscape:object-nodes="true">
    <inkscape:grid
       type="xygrid"
       id="grid3003"
       empspacing="6"
       visible="true"
       enabled="true"
       snapvisiblegridlinesonly="true" />
  </sodipodi:namedview>
  <metadata
     id="metadata7">
    <rdf:RDF>
      <cc:Work
         rdf:about="">
        <dc:format>image/svg+xml</dc:format>
        <dc:type
           rdf:resource="http://purl.org/dc/dcmitype/StillImage" />
        <dc:title />
      </cc:Work>
    </rdf:RDF>
  </metadata>
  <g
     inkscape:label="Layer 1"
     inkscape:groupmode="layer"
     id="layer1"
     transform="translate(0,-1004.3622)">
    <path
       id="path3788"
       d="m 24,1051.1116 c -21.2715315,0 -23.66257505,-0.089 -23.9375,-15.4063 0.328125,14.4033 2.9375,14.4063 23.9375,14.4063 21,0 23.609375,0 23.9375,-14.4063 -0.274925,15.3174 -2.665968,15.4063 -23.9375,15.4063 z"
       style="opacity:0.20000000000000001;fill:#ffffff;fill-opacity:1;stroke:none"
       inkscape:connector-curvature="0" />
    <path
       style="fill:url(#linearGradient3797);fill-opacity:1;stroke:none"
       d="m 24,1006.3622 c -24,0 -24,0 -24,22 0,22 0,22 24,22 24,0 24,0 24,-22 0,-22 0,-22 -24,-22 z"
       id="path3757"
       inkscape:connector-curvature="0"
       sodipodi:nodetypes="zzzzz" />
    <g
       id="g3790"
       transform="translate(40,0)">
      <path
         style="opacity:0.05;fill:url(#linearGradient3794);fill-opacity:1;stroke:none"
         d="m -16,1006.3622 c -24,0 -24,0 -24,22 0,22 0,22 24,22 24,0 24,0 24,-22 0,-22 0,-22 -24,-22 z"
         id="path3777"
         inkscape:connector-curvature="0"
         sodipodi:nodetypes="zzzzz" />
      <path
         sodipodi:nodetypes="zzzzz"
         inkscape:connector-curvature="0"
         id="path3787"
         d="m -16,1006.3622 c -24,0 -24,0 -24,22 0,22 0,22 24,22 24,0 24,0 24,-22 0,-22 0,-22 -24,-22 z"
         style="opacity:0.05;fill:url(#linearGradient3796);fill-opacity:1;stroke:none" />
    </g>
    <path
       style="fill:#000000;fill-opacity:1;stroke:none;opacity:0.20000000000000001"
       d="M 24 2 C 2.7284685 2 0.33742495 2.0888436 0.0625 17.40625 C 0.390625 3.0029297 3 3 24 3 C 45 3 47.609375 3.0029297 47.9375 17.40625 C 47.662575 2.0888436 45.271532 2 24 2 z "
       transform="translate(0,1004.3622)"
       id="path3770" />
    <g
       id="g3813"
       transform="translate(-47.998,993.3622)" />
    <path
       transform="matrix(1.24,0,0,1.24,-4.88,999.4822)"
       d="M 37,24.5 C 37,31.403559 31.403559,37 24.5,37 17.596441,37 12,31.403559 12,24.5 12,17.596441 17.596441,12 24.5,12 31.403559,12 37,17.596441 37,24.5 z"
       sodipodi:ry="12.5"
       sodipodi:rx="12.5"
       sodipodi:cy="24.5"
       sodipodi:cx="24.5"
       id="path3851"
       style="fill:#000000;fill-opacity:1;stroke:none;opacity:0.2"
       sodipodi:type="arc" />
    <path
       sodipodi:type="arc"
       style="fill:#1a1a1a;fill-opacity:1;stroke:none"
       id="path3826"
       sodipodi:cx="24.5"
       sodipodi:cy="24.5"
       sodipodi:rx="12.5"
       sodipodi:ry="12.5"
       d="M 37,24.5 C 37,31.403559 31.403559,37 24.5,37 17.596441,37 12,31.403559 12,24.5 12,17.596441 17.596441,12 24.5,12 31.403559,12 37,17.596441 37,24.5 z"
       transform="matrix(1.24,0,0,1.24,-5.88,998.4822)" />
    <path
       style="fill:#21a058;fill-opacity:1;stroke:none"
       d="m 18.375,1018.6122 c -2.689191,2.3807 -4.375,5.8807 -4.375,9.75 0,7.1679 5.832143,13 13,13 l 6.625,0 c 0.82047,-0.5999 1.594244,-1.2538 2.28125,-2 l -8.90625,0 c -6.086977,0 -11,-4.913 -11,-11 0,-3.2859 1.441075,-6.2336 3.71875,-8.25 l -1.34375,-1.5 z"
       id="path3849" />
    <path
       style="fill:#33691e;fill-opacity:1;stroke:none"
       d="m 33.625,1041.3622 c -0.320301,0.2342 -0.662094,0.4461 -1,0.6563 0.338136,-0.2095 0.679835,-0.4222 1,-0.6563 z"
       id="path3847" />
    <path
       style="fill:#33691e;fill-opacity:1;stroke:none"
       d="m 32.625,1042.0185 c -0.337906,0.2101 -0.676953,0.4092 -1.03125,0.5937 0.353357,-0.1829 0.694418,-0.3851 1.03125,-0.5937 z"
       id="path3845" />
    <path
       style="fill:#197942;fill-opacity:1;stroke:none"
       d="M 23.28125,1020.1747 C 20.163879,1021.5906 18,1024.7261 18,1028.3622 c 0,4.9587 4.041282,9 9,9 l 10.4375,0 c 0.419716,-0.6372 0.80146,-1.3019 1.125,-2 l -11.5625,0 c -3.877838,0 -7,-3.1222 -7,-7 0,-2.8435 1.672379,-5.2752 4.09375,-6.375 l -0.8125,-1.8125 z"
       id="path3843" />
    <path
       style="fill:#104e2b;fill-opacity:1;stroke:none"
       d="m 27,1023.3622 c -2.749579,0 -5,2.2504 -5,5 0,2.7496 2.250421,5 5,5 l 12.34375,0 c 0.198759,-0.6539 0.325997,-1.3127 0.4375,-2 l -12.78125,0 c -1.668699,0 -3,-1.3313 -3,-3 0,-1.6687 1.331301,-3 3,-3 l 0,-2 z"
       id="path3841" />
    <path
       style="fill:#33691e;fill-opacity:1;stroke:none"
       d="m 36.6875,1038.4247 c -0.214666,0.2816 -0.45211,0.5498 -0.6875,0.8125 0.238122,-0.2639 0.467747,-0.5326 0.6875,-0.8125 z"
       id="path3839" />
    <path
       style="fill:#33691e;fill-opacity:1;stroke:none"
       d="m 29.375,1043.5497 c -0.383442,0.129 -0.760054,0.2448 -1.15625,0.3438 0.395363,-0.098 0.773503,-0.2164 1.15625,-0.3438 z"
       id="path3837" />
    <path
       style="fill:#33691e;fill-opacity:1;stroke:none"
       d="m 28.21875,1043.8935 c -0.376698,0.094 -0.769092,0.1843 -1.15625,0.25 0.395234,-0.066 0.77173,-0.155 1.15625,-0.25 z"
       id="path3832" />
  </g>
</svg>
