<?xml version="1.0" encoding="UTF-8" standalone="no"?>
<!-- Created with Inkscape (http://www.inkscape.org/) -->

<svg
   xmlns:dc="http://purl.org/dc/elements/1.1/"
   xmlns:cc="http://creativecommons.org/ns#"
   xmlns:rdf="http://www.w3.org/1999/02/22-rdf-syntax-ns#"
   xmlns:svg="http://www.w3.org/2000/svg"
   xmlns="http://www.w3.org/2000/svg"
   xmlns:xlink="http://www.w3.org/1999/xlink"
   xmlns:sodipodi="http://sodipodi.sourceforge.net/DTD/sodipodi-0.dtd"
   xmlns:inkscape="http://www.inkscape.org/namespaces/inkscape"
   width="48"
   height="48"
   id="svg2"
   version="1.1"
   inkscape:version="0.48.4 r9939"
   sodipodi:docname="qtqr.svg">
  <sodipodi:namedview
     id="base"
     pagecolor="#ffffff"
     bordercolor="#666666"
     borderopacity="1.0"
     inkscape:pageopacity="0.0"
     inkscape:pageshadow="2"
     inkscape:zoom="11.854167"
     inkscape:cx="11.789667"
     inkscape:cy="19.376332"
     inkscape:document-units="px"
     inkscape:current-layer="layer1"
     showgrid="true"
     inkscape:snap-bbox="true"
     inkscape:window-width="1301"
     inkscape:window-height="744"
     inkscape:window-x="65"
     inkscape:window-y="24"
     inkscape:window-maximized="1"
     inkscape:object-nodes="true"
     inkscape:snap-nodes="true">
    <inkscape:grid
       snapvisiblegridlinesonly="true"
       enabled="true"
       visible="true"
       empspacing="6"
       id="grid3003"
       type="xygrid" />
  </sodipodi:namedview>
  <defs
     id="defs4">
    <linearGradient
       id="linearGradient3765">
      <stop
         id="stop3767"
         offset="0"
         style="stop-color:#ff6f00;stop-opacity:1;" />
      <stop
         id="stop3769"
         offset="1"
         style="stop-color:#ff9a4d;stop-opacity:1;" />
    </linearGradient>
    <linearGradient
       gradientUnits="userSpaceOnUse"
       y2="1006.3622"
       x2="24"
       y1="1050.3622"
       x1="24"
       id="linearGradient3771"
       xlink:href="#linearGradient3765"
       inkscape:collect="always" />
  </defs>
  <metadata
     id="metadata7">
    <rdf:RDF>
      <cc:Work
         rdf:about="">
        <dc:format>image/svg+xml</dc:format>
        <dc:type
           rdf:resource="http://purl.org/dc/dcmitype/StillImage" />
        <dc:title />
      </cc:Work>
    </rdf:RDF>
  </metadata>
  <g
     transform="translate(0,-1004.3622)"
     id="layer1"
     inkscape:groupmode="layer"
     inkscape:label="Layer 1">
    <path
       inkscape:connector-curvature="0"
       style="opacity:0.20000000000000001;fill:#ffffff;fill-opacity:1;stroke:none"
       d="m 24,1051.1116 c -21.2715315,0 -23.66257505,-0.089 -23.9375,-15.4063 0.328125,14.4033 2.9375,14.4063 23.9375,14.4063 21,0 23.609375,0 23.9375,-14.4063 -0.274925,15.3174 -2.665968,15.4063 -23.9375,15.4063 z"
       id="path3788" />
    <path
       sodipodi:nodetypes="zzzzz"
       inkscape:connector-curvature="0"
       id="path3757"
       d="m 24,1006.3622 c -24,0 -24,0 -24,22 0,22 0,22 24,22 24,0 24,0 24,-22 0,-22 0,-22 -24,-22 z"
       style="fill:url(#linearGradient3771);fill-opacity:1;stroke:none" />
    <g
       transform="translate(-47.998,993.3622)"
       id="g3813" />
    <path
       id="path3770"
       transform="translate(0,1004.3622)"
       d="M 24 2 C 2.7284685 2 0.33742495 2.0888436 0.0625 17.40625 C 0.390625 3.0029297 3 3 24 3 C 45 3 47.609375 3.0029297 47.9375 17.40625 C 47.662575 2.0888436 45.271532 2 24 2 z "
       style="fill:#000000;fill-opacity:1;stroke:none;opacity:0.20000000000000001" />
    <g
       transform="translate(-49.355,995.0622)"
       id="g3057" />
    <g
       transform="translate(-55.998,1000.3622)"
       id="g3062" />
    <g
       transform="translate(-54.166963,994.16525)"
       id="g3049" />
    <rect
       style="fill:#000000;fill-opacity:1;stroke:none;opacity:0.1"
       id="rect7630"
       width="28"
       height="28"
       x="11"
       y="1015.3622"
       ry="1.0769231" />
    <rect
       ry="1.0769231"
       y="1014.3622"
       x="10"
       height="28"
       width="28"
       id="rect5167"
       style="fill:#ffffff;fill-opacity:1;stroke:none" />
    <rect
       height="2"
       style="fill:#212121;stroke:none"
       width="2"
       x="12"
       y="1016.3622"
       id="rect7253" />
    <rect
       height="2"
       style="fill:#212121;stroke:none"
       width="2"
       x="16"
       y="1016.3622"
       id="rect7255" />
    <rect
       height="2"
       style="fill:#212121;stroke:none"
       width="2"
       x="20"
       y="1016.3622"
       id="rect7257" />
    <rect
       height="2"
       style="fill:#212121;stroke:none"
       width="2"
       x="24"
       y="1016.3622"
       id="rect7259" />
    <rect
       height="2"
       style="fill:#212121;stroke:none"
       width="2"
       x="28"
       y="1016.3622"
       id="rect7261" />
    <rect
       height="2"
       style="fill:#212121;stroke:none"
       width="2"
       x="32"
       y="1016.3622"
       id="rect7263" />
    <rect
       height="2"
       style="fill:#212121;stroke:none"
       width="2"
       x="12"
       y="1018.3622"
       id="rect7265" />
    <rect
       height="2"
       style="fill:#212121;stroke:none"
       width="2"
       x="16"
       y="1018.3622"
       id="rect7267" />
    <rect
       height="2"
       style="fill:#212121;stroke:none"
       width="2"
       x="20"
       y="1018.3622"
       id="rect7269" />
    <rect
       height="2"
       style="fill:#212121;stroke:none"
       width="2"
       x="24"
       y="1018.3622"
       id="rect7271" />
    <rect
       height="2"
       style="fill:#212121;stroke:none"
       width="2"
       x="28"
       y="1018.3622"
       id="rect7273" />
    <rect
       height="2"
       style="fill:#212121;stroke:none"
       width="2"
       x="32"
       y="1018.3622"
       id="rect7275" />
    <rect
       height="2"
       style="fill:#212121;stroke:none"
       width="2"
       x="34"
       y="1018.3622"
       id="rect7277" />
    <rect
       height="2"
       style="fill:#212121;stroke:none"
       width="2"
       x="12"
       y="1020.3622"
       id="rect7279" />
    <rect
       height="2"
       style="fill:#212121;stroke:none"
       width="2"
       x="14"
       y="1020.3622"
       id="rect7281" />
    <rect
       height="2"
       style="fill:#212121;stroke:none"
       width="2"
       x="16"
       y="1020.3622"
       id="rect7283" />
    <rect
       height="2"
       style="fill:#212121;stroke:none"
       width="2"
       x="22"
       y="1020.3622"
       id="rect7285" />
    <rect
       height="2"
       style="fill:#212121;stroke:none"
       width="2"
       x="26"
       y="1020.3622"
       id="rect7287" />
    <rect
       height="2"
       style="fill:#212121;stroke:none"
       width="2"
       x="30"
       y="1020.3622"
       id="rect7289" />
    <rect
       height="2"
       style="fill:#212121;stroke:none"
       width="2"
       x="32"
       y="1020.3622"
       id="rect7291" />
    <rect
       height="2"
       style="fill:#212121;stroke:none"
       width="2"
       x="12"
       y="1022.3622"
       id="rect7293" />
    <rect
       height="2"
       style="fill:#212121;stroke:none"
       width="2"
       x="20"
       y="1022.3622"
       id="rect7295" />
    <rect
       height="2"
       style="fill:#212121;stroke:none"
       width="2"
       x="26"
       y="1022.3622"
       id="rect7297" />
    <rect
       height="2"
       style="fill:#212121;stroke:none"
       width="2"
       x="28"
       y="1022.3622"
       id="rect7299" />
    <rect
       height="2"
       style="fill:#212121;stroke:none"
       width="2"
       x="32"
       y="1022.3622"
       id="rect7301" />
    <rect
       height="2"
       style="fill:#212121;stroke:none"
       width="2"
       x="34"
       y="1022.3622"
       id="rect7303" />
    <rect
       height="2"
       style="fill:#212121;stroke:none"
       width="2"
       x="12"
       y="1024.3622"
       id="rect7305" />
    <rect
       height="2"
       style="fill:#212121;stroke:none"
       width="2"
       x="16"
       y="1024.3622"
       id="rect7307" />
    <rect
       height="2"
       style="fill:#212121;stroke:none"
       width="2"
       x="22"
       y="1024.3622"
       id="rect7309" />
    <rect
       height="2"
       style="fill:#212121;stroke:none"
       width="2"
       x="24"
       y="1024.3622"
       id="rect7311" />
    <rect
       height="2"
       style="fill:#212121;stroke:none"
       width="2"
       x="28"
       y="1024.3622"
       id="rect7313" />
    <rect
       height="2"
       style="fill:#212121;stroke:none"
       width="2"
       x="30"
       y="1024.3622"
       id="rect7315" />
    <rect
       height="2"
       style="fill:#212121;stroke:none"
       width="2"
       x="32"
       y="1024.3622"
       id="rect7317" />
    <rect
       height="2"
       style="fill:#212121;stroke:none"
       width="2"
       x="12"
       y="1026.3622"
       id="rect7319" />
    <rect
       height="2"
       style="fill:#212121;stroke:none"
       width="2"
       x="14"
       y="1026.3622"
       id="rect7321" />
    <rect
       height="2"
       style="fill:#212121;stroke:none"
       width="2"
       x="20"
       y="1026.3622"
       id="rect7323" />
    <rect
       height="2"
       style="fill:#212121;stroke:none"
       width="2"
       x="22"
       y="1026.3622"
       id="rect7325" />
    <rect
       height="2"
       style="fill:#212121;stroke:none"
       width="2"
       x="26"
       y="1026.3622"
       id="rect7327" />
    <rect
       height="2"
       style="fill:#212121;stroke:none"
       width="2"
       x="28"
       y="1026.3622"
       id="rect7329" />
    <rect
       height="2"
       style="fill:#212121;stroke:none"
       width="2"
       x="30"
       y="1026.3622"
       id="rect7331" />
    <rect
       height="2"
       style="fill:#212121;stroke:none"
       width="2"
       x="32"
       y="1026.3622"
       id="rect7333" />
    <rect
       height="2"
       style="fill:#212121;stroke:none"
       width="2"
       x="34"
       y="1026.3622"
       id="rect7335" />
    <rect
       height="2"
       style="fill:#212121;stroke:none"
       width="2"
       x="12"
       y="1028.3622"
       id="rect7337" />
    <rect
       height="2"
       style="fill:#212121;stroke:none"
       width="2"
       x="14"
       y="1028.3622"
       id="rect7339" />
    <rect
       height="2"
       style="fill:#212121;stroke:none"
       width="2"
       x="16"
       y="1028.3622"
       id="rect7341" />
    <rect
       height="2"
       style="fill:#212121;stroke:none"
       width="2"
       x="20"
       y="1028.3622"
       id="rect7343" />
    <rect
       height="2"
       style="fill:#212121;stroke:none"
       width="2"
       x="22"
       y="1028.3622"
       id="rect7345" />
    <rect
       height="2"
       style="fill:#212121;stroke:none"
       width="2"
       x="26"
       y="1028.3622"
       id="rect7347" />
    <rect
       height="2"
       style="fill:#212121;stroke:none"
       width="2"
       x="28"
       y="1028.3622"
       id="rect7349" />
    <rect
       height="2"
       style="fill:#212121;stroke:none"
       width="2"
       x="12"
       y="1030.3622"
       id="rect7351" />
    <rect
       height="2"
       style="fill:#212121;stroke:none"
       width="2"
       x="18"
       y="1030.3622"
       id="rect7353" />
    <rect
       height="2"
       style="fill:#212121;stroke:none"
       width="2"
       x="20"
       y="1030.3622"
       id="rect7355" />
    <rect
       height="2"
       style="fill:#212121;stroke:none"
       width="2"
       x="22"
       y="1030.3622"
       id="rect7357" />
    <rect
       height="2"
       style="fill:#212121;stroke:none"
       width="2"
       x="24"
       y="1030.3622"
       id="rect7359" />
    <rect
       height="2"
       style="fill:#212121;stroke:none"
       width="2"
       x="26"
       y="1030.3622"
       id="rect7361" />
    <rect
       height="2"
       style="fill:#212121;stroke:none"
       width="2"
       x="28"
       y="1030.3622"
       id="rect7363" />
    <rect
       height="2"
       style="fill:#212121;stroke:none"
       width="2"
       x="30"
       y="1030.3622"
       id="rect7365" />
    <rect
       height="2"
       style="fill:#212121;stroke:none"
       width="2"
       x="34"
       y="1030.3622"
       id="rect7367" />
    <rect
       height="2"
       style="fill:#212121;stroke:none"
       width="2"
       x="12"
       y="1032.3622"
       id="rect7369" />
    <rect
       height="2"
       style="fill:#212121;stroke:none"
       width="2"
       x="18"
       y="1032.3622"
       id="rect7371" />
    <rect
       height="2"
       style="fill:#212121;stroke:none"
       width="2"
       x="20"
       y="1032.3622"
       id="rect7373" />
    <rect
       height="2"
       style="fill:#212121;stroke:none"
       width="2"
       x="22"
       y="1032.3622"
       id="rect7375" />
    <rect
       height="2"
       style="fill:#212121;stroke:none"
       width="2"
       x="24"
       y="1032.3622"
       id="rect7377" />
    <rect
       height="2"
       style="fill:#212121;stroke:none"
       width="2"
       x="26"
       y="1032.3622"
       id="rect7379" />
    <rect
       height="2"
       style="fill:#212121;stroke:none"
       width="2"
       x="28"
       y="1032.3622"
       id="rect7381" />
    <rect
       height="2"
       style="fill:#212121;stroke:none"
       width="2"
       x="30"
       y="1032.3622"
       id="rect7383" />
    <rect
       height="2"
       style="fill:#212121;stroke:none"
       width="2"
       x="12"
       y="1034.3622"
       id="rect7385" />
    <rect
       height="2"
       style="fill:#212121;stroke:none"
       width="2"
       x="16"
       y="1034.3622"
       id="rect7387" />
    <rect
       height="2"
       style="fill:#212121;stroke:none"
       width="2"
       x="26"
       y="1034.3622"
       id="rect7389" />
    <rect
       height="2"
       style="fill:#212121;stroke:none"
       width="2"
       x="30"
       y="1034.3622"
       id="rect7391" />
    <rect
       height="2"
       style="fill:#212121;stroke:none"
       width="2"
       x="34"
       y="1034.3622"
       id="rect7393" />
    <rect
       height="2"
       style="fill:#212121;stroke:none"
       width="2"
       x="12"
       y="1036.3622"
       id="rect7395" />
    <rect
       height="2"
       style="fill:#212121;stroke:none"
       width="2"
       x="14"
       y="1036.3622"
       id="rect7397" />
    <rect
       height="2"
       style="fill:#212121;stroke:none"
       width="2"
       x="16"
       y="1036.3622"
       id="rect7399" />
    <rect
       height="2"
       style="fill:#212121;stroke:none"
       width="2"
       x="22"
       y="1036.3622"
       id="rect7401" />
    <rect
       height="2"
       style="fill:#212121;stroke:none"
       width="2"
       x="26"
       y="1036.3622"
       id="rect7403" />
    <rect
       height="2"
       style="fill:#212121;stroke:none"
       width="2"
       x="28"
       y="1036.3622"
       id="rect7405" />
    <rect
       height="2"
       style="fill:#212121;stroke:none"
       width="2"
       x="32"
       y="1036.3622"
       id="rect7407" />
    <rect
       height="2"
       style="fill:#212121;stroke:none"
       width="2"
       x="12"
       y="1038.3622"
       id="rect7409" />
    <rect
       height="2"
       style="fill:#212121;stroke:none"
       width="2"
       x="14"
       y="1038.3622"
       id="rect7411" />
    <rect
       height="2"
       style="fill:#212121;stroke:none"
       width="2"
       x="16"
       y="1038.3622"
       id="rect7413" />
    <rect
       height="2"
       style="fill:#212121;stroke:none"
       width="2"
       x="18"
       y="1038.3622"
       id="rect7415" />
    <rect
       height="2"
       style="fill:#212121;stroke:none"
       width="2"
       x="20"
       y="1038.3622"
       id="rect7417" />
    <rect
       height="2"
       style="fill:#212121;stroke:none"
       width="2"
       x="22"
       y="1038.3622"
       id="rect7419" />
    <rect
       height="2"
       style="fill:#212121;stroke:none"
       width="2"
       x="24"
       y="1038.3622"
       id="rect7421" />
    <rect
       height="2"
       style="fill:#212121;stroke:none"
       width="2"
       x="26"
       y="1038.3622"
       id="rect7423" />
    <rect
       height="2"
       style="fill:#212121;stroke:none"
       width="2"
       x="28"
       y="1038.3622"
       id="rect7425" />
    <rect
       height="2"
       style="fill:#212121;stroke:none"
       width="2"
       x="30"
       y="1038.3622"
       id="rect7427" />
    <rect
       height="2"
       style="fill:#212121;stroke:none"
       width="2"
       x="32"
       y="1038.3622"
       id="rect7429" />
    <rect
       height="2"
       style="fill:#212121;stroke:none"
       width="2"
       x="34"
       y="1038.3622"
       id="rect7431" />
  </g>
</svg>
