<?xml version="1.0" encoding="UTF-8" standalone="no"?>
<!-- Created with Inkscape (http://www.inkscape.org/) -->

<svg
   xmlns:dc="http://purl.org/dc/elements/1.1/"
   xmlns:cc="http://creativecommons.org/ns#"
   xmlns:rdf="http://www.w3.org/1999/02/22-rdf-syntax-ns#"
   xmlns:svg="http://www.w3.org/2000/svg"
   xmlns="http://www.w3.org/2000/svg"
   xmlns:sodipodi="http://sodipodi.sourceforge.net/DTD/sodipodi-0.dtd"
   xmlns:inkscape="http://www.inkscape.org/namespaces/inkscape"
   width="48"
   height="48"
   id="svg2"
   version="1.1"
   inkscape:version="0.48.4 r9939"
   sodipodi:docname="qtconfig-qt4.svg">
  <defs
     id="defs4" />
  <sodipodi:namedview
     id="base"
     pagecolor="#ffffff"
     bordercolor="#666666"
     borderopacity="1.0"
     inkscape:pageopacity="0.0"
     inkscape:pageshadow="2"
     inkscape:zoom="8.9910424"
     inkscape:cx="11.248491"
     inkscape:cy="26.401617"
     inkscape:document-units="px"
     inkscape:current-layer="layer1"
     showgrid="true"
     inkscape:snap-bbox="true"
     inkscape:window-width="1301"
     inkscape:window-height="744"
     inkscape:window-x="65"
     inkscape:window-y="24"
     inkscape:window-maximized="1"
     inkscape:snap-nodes="true">
    <inkscape:grid
       type="xygrid"
       id="grid2985"
       empspacing="6"
       visible="true"
       enabled="true"
       snapvisiblegridlinesonly="true" />
  </sodipodi:namedview>
  <metadata
     id="metadata7">
    <rdf:RDF>
      <cc:Work
         rdf:about="">
        <dc:format>image/svg+xml</dc:format>
        <dc:type
           rdf:resource="http://purl.org/dc/dcmitype/StillImage" />
        <dc:title />
      </cc:Work>
    </rdf:RDF>
  </metadata>
  <g
     inkscape:label="Layer 1"
     inkscape:groupmode="layer"
     id="layer1"
     transform="translate(0,-1004.3622)">
    <path
       id="path3788"
       d="m 24,1051.1116 c -21.2715315,0 -23.66257505,-0.089 -23.9375,-15.4063 0.328125,14.4033 2.9375,14.4063 23.9375,14.4063 21,0 23.609375,0 23.9375,-14.4063 -0.274925,15.3174 -2.665968,15.4063 -23.9375,15.4063 z"
       style="opacity:0.20000000000000001;fill:#ffffff;fill-opacity:1;stroke:none"
       inkscape:connector-curvature="0" />
    <path
       style="fill:#49a313;fill-opacity:1;stroke:none"
       d="m 24,1050.3622 c -24,0 -24,0 -24,-22 0,-22 0,-22 24,-22 24,0 24,0 24,22 0,22 0,22 -24,22 z"
       id="path3757"
       inkscape:connector-curvature="0"
       sodipodi:nodetypes="zzzzz" />
    <path
       style="fill:#000000;fill-opacity:1;stroke:none;opacity:0.20000000000000001"
       d="M 24 2 C 2.7284685 2 0.33742495 2.0888436 0.0625 17.40625 C 0.390625 3.0029297 3 3 24 3 C 45 3 47.609375 3.0029297 47.9375 17.40625 C 47.662575 2.0888436 45.271532 2 24 2 z "
       transform="translate(0,1004.3622)"
       id="path3770" />
    <g
       id="g3807"
       transform="translate(-52.998,1004.3622)" />
    <g
       id="g3056"
       transform="translate(-77.998,1004.3622)" />
    <g
       id="g3034"
       transform="translate(-59.998,1010.3622)" />
    <g
       id="g3041"
       transform="translate(-53,1004.3622)" />
    <rect
       style="fill:#2b600c;fill-opacity:1;stroke:none"
       id="rect3009"
       width="27"
       height="7.9999828"
       x="12"
       y="1024.3622"
       ry="3.9999914" />
    <path
       transform="matrix(0.66666667,0,0,0.63636335,4.9999999,1014.7258)"
       d="M 27,23 A 10.5,11 0 1 1 6,23 10.5,11 0 1 1 27,23 z"
       sodipodi:ry="11"
       sodipodi:rx="10.5"
       sodipodi:cy="23"
       sodipodi:cx="16.5"
       id="path3783"
       style="opacity:0.1;fill:#000000;fill-opacity:1;stroke:none"
       sodipodi:type="arc" />
    <path
       sodipodi:type="arc"
       style="fill:#f4f4f4;fill-opacity:1;stroke:none"
       id="path3779"
       sodipodi:cx="16.5"
       sodipodi:cy="23"
       sodipodi:rx="10.5"
       sodipodi:ry="11"
       d="M 27,23 A 10.5,11 0 1 1 6,23 10.5,11 0 1 1 27,23 z"
       transform="matrix(0.66666667,0,0,0.63636335,3.9999999,1013.7258)" />
    <path
       transform="matrix(0.28571428,0,0,0.27272337,10.285714,1022.0895)"
       d="M 27,23 A 10.5,11 0 1 1 6,23 10.5,11 0 1 1 27,23 z"
       sodipodi:ry="11"
       sodipodi:rx="10.5"
       sodipodi:cy="23"
       sodipodi:cx="16.5"
       id="path3781"
       style="fill:#183706;fill-opacity:1;stroke:none"
       sodipodi:type="arc" />
  </g>
</svg>
