<?xml version="1.0" encoding="UTF-8" standalone="no"?>
<!-- Created with Inkscape (http://www.inkscape.org/) -->

<svg
   xmlns:dc="http://purl.org/dc/elements/1.1/"
   xmlns:cc="http://creativecommons.org/ns#"
   xmlns:rdf="http://www.w3.org/1999/02/22-rdf-syntax-ns#"
   xmlns:svg="http://www.w3.org/2000/svg"
   xmlns="http://www.w3.org/2000/svg"
   xmlns:xlink="http://www.w3.org/1999/xlink"
   xmlns:sodipodi="http://sodipodi.sourceforge.net/DTD/sodipodi-0.dtd"
   xmlns:inkscape="http://www.inkscape.org/namespaces/inkscape"
   width="48"
   height="48"
   id="svg2"
   version="1.1"
   inkscape:version="0.48.4 r9939"
   sodipodi:docname="gnome-quadrapassel.svg">
  <defs
     id="defs4">
    <linearGradient
       id="linearGradient3768">
      <stop
         style="stop-color:#ffab00;stop-opacity:1;"
         offset="0"
         id="stop3770" />
      <stop
         style="stop-color:#ffbf3d;stop-opacity:1;"
         offset="1"
         id="stop3772" />
    </linearGradient>
    <linearGradient
       id="linearGradient3779">
      <stop
         style="stop-color:#000000;stop-opacity:1;"
         offset="0"
         id="stop3781" />
      <stop
         style="stop-color:#ffffff;stop-opacity:1;"
         offset="1"
         id="stop3783" />
    </linearGradient>
    <linearGradient
       inkscape:collect="always"
       xlink:href="#linearGradient3779"
       id="linearGradient3795"
       gradientUnits="userSpaceOnUse"
       gradientTransform="translate(-20,0)"
       spreadMethod="repeat"
       x1="24"
       y1="1028.3622"
       x2="45"
       y2="1007.3622" />
    <linearGradient
       inkscape:collect="always"
       xlink:href="#linearGradient3779"
       id="linearGradient3797"
       gradientUnits="userSpaceOnUse"
       gradientTransform="translate(-20,0)"
       spreadMethod="repeat"
       x1="44"
       y1="1048.3622"
       x2="15"
       y2="1019.3622" />
    <linearGradient
       inkscape:collect="always"
       xlink:href="#linearGradient3768"
       id="linearGradient3774"
       x1="24"
       y1="1050.3622"
       x2="24"
       y2="1006.3622"
       gradientUnits="userSpaceOnUse" />
  </defs>
  <sodipodi:namedview
     id="base"
     pagecolor="#ffffff"
     bordercolor="#666666"
     borderopacity="1.0"
     inkscape:pageopacity="0.0"
     inkscape:pageshadow="2"
     inkscape:zoom="11.583333"
     inkscape:cx="20.664311"
     inkscape:cy="21.709216"
     inkscape:document-units="px"
     inkscape:current-layer="layer1"
     showgrid="true"
     inkscape:snap-bbox="true"
     inkscape:window-width="1301"
     inkscape:window-height="744"
     inkscape:window-x="65"
     inkscape:window-y="24"
     inkscape:window-maximized="1">
    <inkscape:grid
       type="xygrid"
       id="grid2985"
       empspacing="6"
       visible="true"
       enabled="true"
       snapvisiblegridlinesonly="true" />
  </sodipodi:namedview>
  <metadata
     id="metadata7">
    <rdf:RDF>
      <cc:Work
         rdf:about="">
        <dc:format>image/svg+xml</dc:format>
        <dc:type
           rdf:resource="http://purl.org/dc/dcmitype/StillImage" />
        <dc:title />
      </cc:Work>
    </rdf:RDF>
  </metadata>
  <g
     inkscape:label="Layer 1"
     inkscape:groupmode="layer"
     id="layer1"
     transform="translate(0,-1004.3622)">
    <path
       id="path3788"
       d="m 24,1051.1116 c -21.2715315,0 -23.66257505,-0.089 -23.9375,-15.4063 0.328125,14.4033 2.9375,14.4063 23.9375,14.4063 21,0 23.609375,0 23.9375,-14.4063 -0.274925,15.3174 -2.665968,15.4063 -23.9375,15.4063 z"
       style="opacity:0.20000000000000001;fill:#ffffff;fill-opacity:1;stroke:none"
       inkscape:connector-curvature="0" />
    <path
       style="fill:url(#linearGradient3774);fill-opacity:1;stroke:none"
       d="m 24,1006.3622 c -24,0 -24,0 -24,22 0,22 0,22 24,22 24,0 24,0 24,-22 0,-22 0,-22 -24,-22 z"
       id="path3757"
       inkscape:connector-curvature="0"
       sodipodi:nodetypes="zzzzz" />
    <g
       id="g3791"
       transform="translate(20,0)">
      <path
         style="opacity:0.02999998;fill:url(#linearGradient3795);fill-opacity:1;stroke:none"
         d="m 4,1006.3622 c -24,0 -24,0 -24,22 0,22 0,22 24,22 24,0 24,0 24,-22 0,-22 0,-22 -24,-22 z"
         id="path3777"
         inkscape:connector-curvature="0"
         sodipodi:nodetypes="zzzzz" />
      <path
         sodipodi:nodetypes="zzzzz"
         inkscape:connector-curvature="0"
         id="path3787"
         d="m 4,1006.3622 c -24,0 -24,0 -24,22 0,22 0,22 24,22 24,0 24,0 24,-22 0,-22 0,-22 -24,-22 z"
         style="opacity:0.02999998;fill:url(#linearGradient3797);fill-opacity:1;stroke:none" />
    </g>
    <path
       style="fill:#000000;fill-opacity:1;stroke:none;opacity:0.20000000000000001"
       d="M 24 2 C 2.7284685 2 0.33742495 2.0888436 0.0625 17.40625 C 0.390625 3.0029297 3 3 24 3 C 45 3 47.609375 3.0029297 47.9375 17.40625 C 47.662575 2.0888436 45.271532 2 24 2 z "
       transform="translate(0,1004.3622)"
       id="path3770" />
    <rect
       style="fill:#424242;fill-opacity:1;stroke:none"
       id="rect3776"
       width="4"
       height="4"
       x="7"
       y="1035.3622" />
    <rect
       y="1035.3622"
       x="13"
       height="4"
       width="4"
       id="rect3778"
       style="fill:#424242;fill-opacity:1;stroke:none" />
    <rect
       style="fill:#424242;fill-opacity:1;stroke:none"
       id="rect3780"
       width="4"
       height="4"
       x="25"
       y="1035.3622" />
    <rect
       y="1035.3622"
       x="31"
       height="4"
       width="4"
       id="rect3782"
       style="fill:#424242;fill-opacity:1;stroke:none" />
    <rect
       style="fill:#424242;fill-opacity:1;stroke:none"
       id="rect3784"
       width="4"
       height="4"
       x="37"
       y="1035.3622" />
    <rect
       y="1041.3622"
       x="7"
       height="4"
       width="4"
       id="rect3786"
       style="fill:#424242;fill-opacity:1;stroke:none" />
    <rect
       style="fill:#424242;fill-opacity:1;stroke:none"
       id="rect3788"
       width="4"
       height="4"
       x="13"
       y="1041.3622" />
    <rect
       y="1041.3622"
       x="25"
       height="4"
       width="4"
       id="rect3790"
       style="fill:#424242;fill-opacity:1;stroke:none" />
    <rect
       style="fill:#424242;fill-opacity:1;stroke:none"
       id="rect3792"
       width="4"
       height="4"
       x="31"
       y="1041.3622" />
    <rect
       y="1041.3622"
       x="37"
       height="4"
       width="4"
       id="rect3794"
       style="fill:#424242;fill-opacity:1;stroke:none" />
    <rect
       y="1041.3622"
       x="19"
       height="4"
       width="4"
       id="rect3796"
       style="fill:#424242;fill-opacity:1;stroke:none" />
    <rect
       y="1029.3622"
       x="7"
       height="4"
       width="4"
       id="rect3798"
       style="fill:#424242;fill-opacity:1;stroke:none" />
    <g
       id="g3816"
       transform="translate(1,1.0000174)"
       style="fill:#000000;fill-opacity:1;opacity:0.2">
      <rect
         style="fill:#000000;fill-opacity:1;stroke:none"
         id="rect3818"
         width="4"
         height="4"
         x="19"
         y="1011.3622" />
      <rect
         y="1017.3622"
         x="25"
         height="4"
         width="4"
         id="rect3820"
         style="fill:#000000;fill-opacity:1;stroke:none" />
      <rect
         style="fill:#000000;fill-opacity:1;stroke:none"
         id="rect3822"
         width="4"
         height="4"
         x="19"
         y="1023.3622" />
      <rect
         y="1017.3622"
         x="19"
         height="4"
         width="4"
         id="rect3824"
         style="fill:#000000;fill-opacity:1;stroke:none" />
    </g>
    <g
       id="g3810">
      <rect
         y="1011.3622"
         x="19"
         height="4"
         width="4"
         id="rect3802"
         style="fill:#f8f8f8;fill-opacity:1;stroke:none" />
      <rect
         style="fill:#f8f8f8;fill-opacity:1;stroke:none"
         id="rect3804"
         width="4"
         height="4"
         x="25"
         y="1017.3622" />
      <rect
         y="1023.3622"
         x="19"
         height="4"
         width="4"
         id="rect3806"
         style="fill:#f8f8f8;fill-opacity:1;stroke:none" />
      <rect
         style="fill:#f8f8f8;fill-opacity:1;stroke:none"
         id="rect3808"
         width="4"
         height="4"
         x="19"
         y="1017.3622" />
    </g>
  </g>
</svg>
