<?xml version="1.0" encoding="UTF-8" standalone="no"?>
<!-- Created with Inkscape (http://www.inkscape.org/) -->

<svg
   xmlns:dc="http://purl.org/dc/elements/1.1/"
   xmlns:cc="http://creativecommons.org/ns#"
   xmlns:rdf="http://www.w3.org/1999/02/22-rdf-syntax-ns#"
   xmlns:svg="http://www.w3.org/2000/svg"
   xmlns="http://www.w3.org/2000/svg"
   xmlns:sodipodi="http://sodipodi.sourceforge.net/DTD/sodipodi-0.dtd"
   xmlns:inkscape="http://www.inkscape.org/namespaces/inkscape"
   width="48"
   height="48"
   id="svg2"
   version="1.1"
   inkscape:version="0.48.4 r9939"
   sodipodi:docname="qutim.svg">
  <defs
     id="defs4">
    <clipPath
       id="clipPath-458954348">
      <g
         id="g3009"
         transform="translate(0,-1004.3622)">
        <path
           id="path3011"
           fill="#1890d0"
           transform="matrix(15.333333,0,0,11.5,414.99999,878.8622)"
           d="m -24 13 c 0 1.105 -0.672 2 -1.5 2 -0.828 0 -1.5 -0.895 -1.5 -2 0 -1.105 0.672 -2 1.5 -2 0.828 0 1.5 0.895 1.5 2 z" />
      </g>
    </clipPath>
    <clipPath
       id="clipPath-447377509">
      <g
         id="g3004"
         transform="translate(0,-1004.3622)">
        <path
           id="path3006"
           fill="#1890d0"
           transform="matrix(15.333333,0,0,11.5,414.99999,878.8622)"
           d="m -24 13 c 0 1.105 -0.672 2 -1.5 2 -0.828 0 -1.5 -0.895 -1.5 -2 0 -1.105 0.672 -2 1.5 -2 0.828 0 1.5 0.895 1.5 2 z" />
      </g>
    </clipPath>
    <linearGradient
       gradientTransform="matrix(0,-1,1,0,-1.5e-6,47.999998)"
       gradientUnits="userSpaceOnUse"
       x2="47"
       x1="1"
       id="linearGradient3764">
      <stop
         id="stop2999"
         stop-opacity="1"
         stop-color="#e4e4e4" />
      <stop
         id="stop3001"
         stop-opacity="1"
         stop-color="#eee"
         offset="1" />
    </linearGradient>
  </defs>
  <sodipodi:namedview
     id="base"
     pagecolor="#ffffff"
     bordercolor="#666666"
     borderopacity="1.0"
     inkscape:pageopacity="0.0"
     inkscape:pageshadow="2"
     inkscape:zoom="5.7916665"
     inkscape:cx="25.406172"
     inkscape:cy="16.285986"
     inkscape:document-units="px"
     inkscape:current-layer="layer1"
     showgrid="true"
     inkscape:snap-bbox="true"
     inkscape:window-width="1301"
     inkscape:window-height="744"
     inkscape:window-x="65"
     inkscape:window-y="24"
     inkscape:window-maximized="1"
     inkscape:object-nodes="true"
     inkscape:snap-nodes="false">
    <inkscape:grid
       type="xygrid"
       id="grid3003"
       empspacing="6"
       visible="true"
       enabled="true"
       snapvisiblegridlinesonly="true" />
  </sodipodi:namedview>
  <metadata
     id="metadata7">
    <rdf:RDF>
      <cc:Work
         rdf:about="">
        <dc:format>image/svg+xml</dc:format>
        <dc:type
           rdf:resource="http://purl.org/dc/dcmitype/StillImage" />
        <dc:title />
      </cc:Work>
    </rdf:RDF>
  </metadata>
  <g
     inkscape:label="Layer 1"
     inkscape:groupmode="layer"
     id="layer1"
     transform="translate(0,-1004.3622)">
    <path
       id="path3788"
       d="m 24,1051.1116 c -21.2715315,0 -23.66257505,-0.089 -23.9375,-15.4063 0.328125,14.4033 2.9375,14.4063 23.9375,14.4063 21,0 23.609375,0 23.9375,-14.4063 -0.274925,15.3174 -2.665968,15.4063 -23.9375,15.4063 z"
       style="opacity:0.20000000000000001;fill:#ffffff;fill-opacity:1;stroke:none"
       inkscape:connector-curvature="0" />
    <path
       style="fill:#1993d7;fill-opacity:1;stroke:none"
       d="m 24,1006.3622 c -24,0 -24,0 -24,22 0,22 0,22 24,22 24,0 24,0 24,-22 0,-22 0,-22 -24,-22 z"
       id="path3757"
       inkscape:connector-curvature="0"
       sodipodi:nodetypes="zzzzz" />
    <path
       style="fill:#000000;fill-opacity:1;stroke:none;opacity:0.20000000000000001"
       d="M 24 2 C 2.7284685 2 0.33742495 2.0888436 0.0625 17.40625 C 0.390625 3.0029297 3 3 24 3 C 45 3 47.609375 3.0029297 47.9375 17.40625 C 47.662575 2.0888436 45.271532 2 24 2 z "
       transform="translate(0,1004.3622)"
       id="path3770" />
    <g
       id="g3813"
       transform="translate(-47.998,993.3622)" />
    <g
       id="g3032"
       transform="translate(-48.998,1007.3622)" />
    <g
       id="g3025"
       transform="translate(-51.03,1001.0072)" />
    <g
       id="g3027"
       transform="translate(-0.06497076,1003.4189)">
      <g
         clip-path="url(#clipPath-447377509)"
         id="g3029">
        <g
           transform="translate(1,1)"
           id="g3031">
          <g
             style="opacity:0.1"
             id="g3033">
            <!-- color: #eeeeee -->
            <g
               id="g3035">
              <path
                 style="fill:#000000;fill-opacity:1;fill-rule:nonzero;stroke:none"
                 inkscape:connector-curvature="0"
                 d="m 19.03,19.355 c 0.055,1.402 -1.43,1.465 -1.125,-0.156 0.348,-1.859 -0.891,-2.695 -2.074,-3.367 2.406,3.156 -0.477,3.164 -1.59,7.219 -0.379,1.375 -0.688,2.793 -0.148,4.01 0.156,0.348 0.57,0.766 0.531,1.184 -0.039,0.438 -0.27,0.773 -0.457,1.156 -0.289,0.586 -0.828,1.113 -1.07,1.633 -0.137,0.289 0.195,0.508 0.438,0.645 0.367,0.211 0.867,0.277 1.082,0.668 0.148,0.27 0.109,0.555 -0.02,0.816 -0.117,0.246 -0.203,0.613 0.039,0.777 0.18,0.121 0.414,0.184 0.539,0.395 0.117,0.199 0.063,0.438 0.25,0.594 0.313,0.258 0.828,0.234 1.066,0.777 0.109,0.25 0.184,0.531 0.328,0.777 0.223,0.379 0.844,0.492 1.273,0.453 0.461,-0.047 0.801,-0.191 1.242,-0.324 1.145,-0.355 2.227,-0.824 3.25,-1.469 0.859,-0.551 1.383,-0.863 2.156,-1.316 0.566,-0.32 1.371,-0.215 1.996,-0.375 0.773,-0.199 1.703,-0.512 2.25,-1.055 0.578,-0.57 0.816,-1.023 0.992,-2.074 -0.25,0.344 -0.895,1.133 -1.535,1.344 -0.703,0.23 -0.953,0.109 -1.168,-0.18 -0.18,-0.246 -0.227,-0.574 -0.219,-0.879 0.418,-1.375 2.219,-0.801 3.426,-1.277 2.203,-0.863 2.707,-2.828 2.855,-4.367 0.066,-0.84 0.176,-1.406 1.594,-3.098 -1.773,0.762 -2.508,1.457 -2.918,2.352 -0.383,0.84 -1.594,1.824 -2.32,1 -0.922,-1.051 1.141,-2.457 2.648,-2.832 1.203,-0.301 2.313,-1.504 2.563,-2.664 0.605,-4.03 -1.289,-5.82 0.152,-8.785 -4.289,3.352 -0.648,5.176 -3.387,7.934 -1.566,1.566 -3.207,0.734 -2.598,-0.605 0.402,-0.863 1.363,-0.34 1.684,-2.336 -0.895,1.293 -3.766,0.418 -4.578,2.52 -1.441,3.656 -3.422,0.141 -0.16,-1.613 1.375,-0.742 4.688,-0.5 5.488,-5.773 -1.609,3.121 -5.566,2.625 -8.742,3.973 -1.648,0.695 -3.816,2.316 -3.734,4.32 m 0,0"
                 id="path3037" />
            </g>
          </g>
        </g>
      </g>
    </g>
    <g
       id="g3039"
       transform="translate(-0.06497076,1003.4189)"
       style="fill:#f5f5f5">
      <g
         clip-path="url(#clipPath-458954348)"
         id="g3041"
         style="fill:#f5f5f5">
        <!-- color: #eeeeee -->
        <g
           id="g3043"
           style="fill:#f5f5f5">
          <path
             style="fill:#f5f5f5;fill-opacity:1;fill-rule:nonzero;stroke:none"
             inkscape:connector-curvature="0"
             d="m 19.03,19.355 c 0.055,1.402 -1.43,1.465 -1.125,-0.156 0.348,-1.859 -0.891,-2.695 -2.074,-3.367 2.406,3.156 -0.477,3.164 -1.59,7.219 -0.379,1.375 -0.688,2.793 -0.148,4.01 0.156,0.348 0.57,0.766 0.531,1.184 -0.039,0.438 -0.27,0.773 -0.457,1.156 -0.289,0.586 -0.828,1.113 -1.07,1.633 -0.137,0.289 0.195,0.508 0.438,0.645 0.367,0.211 0.867,0.277 1.082,0.668 0.148,0.27 0.109,0.555 -0.02,0.816 -0.117,0.246 -0.203,0.613 0.039,0.777 0.18,0.121 0.414,0.184 0.539,0.395 0.117,0.199 0.063,0.438 0.25,0.594 0.313,0.258 0.828,0.234 1.066,0.777 0.109,0.25 0.184,0.531 0.328,0.777 0.223,0.379 0.844,0.492 1.273,0.453 0.461,-0.047 0.801,-0.191 1.242,-0.324 1.145,-0.355 2.227,-0.824 3.25,-1.469 0.859,-0.551 1.383,-0.863 2.156,-1.316 0.566,-0.32 1.371,-0.215 1.996,-0.375 0.773,-0.199 1.703,-0.512 2.25,-1.055 0.578,-0.57 0.816,-1.023 0.992,-2.074 -0.25,0.344 -0.895,1.133 -1.535,1.344 -0.703,0.23 -0.953,0.109 -1.168,-0.18 -0.18,-0.246 -0.227,-0.574 -0.219,-0.879 0.418,-1.375 2.219,-0.801 3.426,-1.277 2.203,-0.863 2.707,-2.828 2.855,-4.367 0.066,-0.84 0.176,-1.406 1.594,-3.098 -1.773,0.762 -2.508,1.457 -2.918,2.352 -0.383,0.84 -1.594,1.824 -2.32,1 -0.922,-1.051 1.141,-2.457 2.648,-2.832 1.203,-0.301 2.313,-1.504 2.563,-2.664 0.605,-4.03 -1.289,-5.82 0.152,-8.785 -4.289,3.352 -0.648,5.176 -3.387,7.934 -1.566,1.566 -3.207,0.734 -2.598,-0.605 0.402,-0.863 1.363,-0.34 1.684,-2.336 -0.895,1.293 -3.766,0.418 -4.578,2.52 -1.441,3.656 -3.422,0.141 -0.16,-1.613 1.375,-0.742 4.688,-0.5 5.488,-5.773 -1.609,3.121 -5.566,2.625 -8.742,3.973 -1.648,0.695 -3.816,2.316 -3.734,4.32 m 0,0"
             id="path3045" />
        </g>
      </g>
    </g>
  </g>
</svg>
