<?xml version="1.0" encoding="UTF-8" standalone="no"?>
<!-- Created with Inkscape (http://www.inkscape.org/) -->

<svg
   xmlns:dc="http://purl.org/dc/elements/1.1/"
   xmlns:cc="http://creativecommons.org/ns#"
   xmlns:rdf="http://www.w3.org/1999/02/22-rdf-syntax-ns#"
   xmlns:svg="http://www.w3.org/2000/svg"
   xmlns="http://www.w3.org/2000/svg"
   xmlns:xlink="http://www.w3.org/1999/xlink"
   xmlns:sodipodi="http://sodipodi.sourceforge.net/DTD/sodipodi-0.dtd"
   xmlns:inkscape="http://www.inkscape.org/namespaces/inkscape"
   width="48"
   height="48"
   id="svg2"
   version="1.1"
   inkscape:version="0.48.4 r9939"
   sodipodi:docname="sauerbraten.svg">
  <defs
     id="defs4">
    <linearGradient
       id="linearGradient3762">
      <stop
         style="stop-color:#e53935;stop-opacity:1;"
         offset="0"
         id="stop3764" />
      <stop
         style="stop-color:#e54635;stop-opacity:1;"
         offset="1"
         id="stop3766" />
    </linearGradient>
    <linearGradient
       inkscape:collect="always"
       xlink:href="#linearGradient3762"
       id="linearGradient3768"
       x1="24"
       y1="1050.3622"
       x2="24"
       y2="1007.3622"
       gradientUnits="userSpaceOnUse" />
    <linearGradient
       gradientTransform="matrix(0,-1,1,0,-1.5e-6,47.999998)"
       gradientUnits="userSpaceOnUse"
       x2="47"
       x1="1"
       id="linearGradient3764">
      <stop
         id="stop3775"
         stop-opacity="1"
         stop-color="#e4e4e4" />
      <stop
         id="stop3777"
         stop-opacity="1"
         stop-color="#eee"
         offset="1" />
    </linearGradient>
    <linearGradient
       inkscape:collect="always"
       xlink:href="#linearGradient3764"
       id="linearGradient3992"
       gradientUnits="userSpaceOnUse"
       gradientTransform="matrix(0,-1,1,0,-46.938002,1049.3622)"
       x1="1"
       x2="47" />
  </defs>
  <sodipodi:namedview
     id="base"
     pagecolor="#ffffff"
     bordercolor="#666666"
     borderopacity="1.0"
     inkscape:pageopacity="0.0"
     inkscape:pageshadow="2"
     inkscape:zoom="11.583333"
     inkscape:cx="15.461706"
     inkscape:cy="21.564151"
     inkscape:document-units="px"
     inkscape:current-layer="layer1"
     showgrid="true"
     inkscape:snap-bbox="true"
     inkscape:window-width="1301"
     inkscape:window-height="744"
     inkscape:window-x="65"
     inkscape:window-y="24"
     inkscape:window-maximized="1"
     inkscape:snap-global="true"
     inkscape:object-nodes="true"
     inkscape:snap-nodes="false">
    <inkscape:grid
       type="xygrid"
       id="grid2985"
       empspacing="6"
       visible="true"
       enabled="true"
       snapvisiblegridlinesonly="true" />
  </sodipodi:namedview>
  <metadata
     id="metadata7">
    <rdf:RDF>
      <cc:Work
         rdf:about="">
        <dc:format>image/svg+xml</dc:format>
        <dc:type
           rdf:resource="http://purl.org/dc/dcmitype/StillImage" />
        <dc:title />
      </cc:Work>
    </rdf:RDF>
  </metadata>
  <g
     inkscape:label="Layer 1"
     inkscape:groupmode="layer"
     id="layer1"
     transform="translate(0,-1004.3622)">
    <path
       id="path3788"
       d="m 24,1051.1116 c -21.2715315,0 -23.66257505,-0.089 -23.9375,-15.4063 0.328125,14.4033 2.9375,14.4063 23.9375,14.4063 21,0 23.609375,0 23.9375,-14.4063 -0.274925,15.3174 -2.665968,15.4063 -23.9375,15.4063 z"
       style="opacity:0.20000000000000001;fill:#ffffff;fill-opacity:1;stroke:none"
       inkscape:connector-curvature="0" />
    <path
       style="fill:url(#linearGradient3768);fill-opacity:1;stroke:none"
       d="m 24,1006.3622 c -24,0 -24,0 -24,22 0,22 0,22 24,22 24,0 24,0 24,-22 0,-22 0,-22 -24,-22 z"
       id="path3757"
       inkscape:connector-curvature="0"
       sodipodi:nodetypes="zzzzz" />
    <path
       style="fill:#000000;fill-opacity:1;stroke:none;opacity:0.20000000000000001"
       d="M 24 2 C 2.7284685 2 0.33742495 2.0888436 0.0625 17.40625 C 0.390625 3.0029297 3 3 24 3 C 45 3 47.609375 3.0029297 47.9375 17.40625 C 47.662575 2.0888436 45.271532 2 24 2 z "
       transform="translate(0,1004.3622)"
       id="path3770" />
    <path
       style="fill:#000000;fill-opacity:1;stroke:none;opacity:0.20000000000000001"
       d="M 24 2 C 7.2405624 2 2.2369698 2.0788791 0.71875 9.59375 C 2.3300781 2.5289866 7.5 2.53125 24 2.53125 C 40.5 2.53125 45.669922 2.5289866 47.28125 9.59375 C 45.76303 2.0788791 40.759438 2 24 2 z M 47.28125 9.59375 C 47.354492 9.9148756 47.409424 10.242768 47.46875 10.59375 C 47.41561 10.240351 47.346891 9.9186608 47.28125 9.59375 z M 0.71875 9.59375 C 0.65310868 9.9186608 0.58439008 10.240351 0.53125 10.59375 C 0.59057617 10.242768 0.64550781 9.9148756 0.71875 9.59375 z "
       transform="translate(0,1004.3622)"
       id="path3012" />
    <g
       id="g3032"
       transform="translate(48,1007.3622)" />
    <g
       id="g4142"
       style="opacity:0.2">
      <path
         style="opacity:1;fill:#000000;fill-opacity:1;fill-rule:nonzero;stroke:none"
         inkscape:connector-curvature="0"
         d="m 25.40625,1041.3622 0,-12 -10.406,-6 0,12 m 10.406,6"
         id="path3813" />
      <path
         style="opacity:1;fill:#000000;fill-opacity:1;fill-rule:nonzero;stroke:none"
         inkscape:connector-curvature="0"
         d="m 35.81225,1023.3622 -10.406,6 0,12 10.406,-6 m 0,-12"
         id="path3815" />
      <path
         style="opacity:1;fill:#000000;fill-opacity:1;fill-rule:nonzero;stroke:none"
         inkscape:connector-curvature="0"
         d="m 25.40625,1017.3622 -10.40625,6 10.40625,6 10.40625,-6 m -10.40625,-6"
         id="path3817" />
      <path
         style="opacity:1;fill:#000000;fill-opacity:1;fill-rule:nonzero;stroke:none"
         inkscape:connector-curvature="0"
         d="m 25.40625,1021.3622 0,8 -6.938,4 0,-8 m 6.938,-4"
         id="path3819" />
      <path
         style="opacity:1;fill:#000000;fill-opacity:1;fill-rule:nonzero;stroke:none"
         inkscape:connector-curvature="0"
         d="m 32.34425,1033.3622 -6.938,-4 0,-8 6.938,4 m 0,8"
         id="path3821" />
      <path
         style="opacity:1;fill:#000000;fill-opacity:1;fill-rule:nonzero;stroke:none"
         inkscape:connector-curvature="0"
         d="m 25.40625,1037.3622 -6.9375,-4 6.9375,-4 6.9375,4 m -6.9375,4"
         id="path3823" />
      <path
         style="opacity:1;fill:#000000;fill-opacity:1;fill-rule:nonzero;stroke:none"
         inkscape:connector-curvature="0"
         d="m 25.40625,1035.3622 0,-6 -5.188,-3 0,6 m 5.188,3"
         id="path3825" />
      <path
         style="opacity:1;fill:#000000;fill-opacity:1;fill-rule:nonzero;stroke:none"
         inkscape:connector-curvature="0"
         d="m 27.40625,1028.2102 -2,1.156 0,6 5.188,-3 0,-1.844 -3.188,1.844 m 0,-4.156"
         id="path3827" />
      <path
         style="opacity:1;fill:#000000;fill-opacity:1;fill-rule:nonzero;stroke:none"
         inkscape:connector-curvature="0"
         d="m 27.40625,1028.6782 0,3.688 3.188,-1.844 m -3.188,-1.844"
         id="path3829" />
      <path
         style="opacity:1;fill:#000000;fill-opacity:1;fill-rule:nonzero;stroke:none"
         inkscape:connector-curvature="0"
         d="m 27.00025,1027.9912 0,-3.691 -3.188,1.848 m 3.188,1.844"
         id="path3831" />
      <path
         style="opacity:1;fill:#000000;fill-opacity:1;fill-rule:nonzero;stroke:none"
         inkscape:connector-curvature="0"
         d="m 27.41625,1028.2102 -2,1.156 -5.195,-3 5.191,-2.996 1.598,0.922 -3.191,1.84 3.602,2.074 m -0.004,0"
         id="path3833" />
    </g>
    <path
       id="path3841"
       d="m 24.40625,1040.3622 0,-12 -10.406,-6 0,12 m 10.406,6"
       inkscape:connector-curvature="0"
       style="fill:#212121;fill-opacity:1;fill-rule:nonzero;stroke:none" />
    <path
       id="path3843"
       d="m 34.81225,1022.3622 -10.406,6 0,12 10.406,-6 m 0,-12"
       inkscape:connector-curvature="0"
       style="fill:#424242;fill-opacity:1;fill-rule:nonzero;stroke:none" />
    <path
       id="path3845"
       d="m 24.40625,1016.3622 -10.40625,6 10.40625,6 10.40625,-6 m -10.40625,-6"
       inkscape:connector-curvature="0"
       style="fill:#bdbdbd;fill-opacity:1;fill-rule:nonzero;stroke:none" />
    <path
       id="path3847"
       d="m 24.40625,1020.3622 0,8 -6.938,4 0,-8 m 6.938,-4"
       inkscape:connector-curvature="0"
       style="fill:#616161;fill-opacity:1;fill-rule:nonzero;stroke:none" />
    <path
       id="path3849"
       d="m 31.34425,1032.3622 -6.938,-4 0,-8 6.938,4 m 0,8"
       inkscape:connector-curvature="0"
       style="fill:#212121;fill-opacity:1;fill-rule:nonzero;stroke:none" />
    <path
       id="path3851"
       d="m 24.40625,1036.3622 -6.9375,-4 6.9375,-4 6.9375,4 m -6.9375,4"
       inkscape:connector-curvature="0"
       style="fill:#bdbdbd;fill-opacity:1;fill-rule:nonzero;stroke:none" />
    <path
       id="path3853"
       d="m 24.40625,1034.3622 0,-6 -5.188,-3 0,6 m 5.188,3"
       inkscape:connector-curvature="0"
       style="fill:#212121;fill-opacity:1;fill-rule:nonzero;stroke:none" />
    <path
       id="path3855"
       d="m 26.40625,1027.2102 -2,1.156 0,6 5.188,-3 0,-1.844 -3.188,1.844 m 0,-4.156"
       inkscape:connector-curvature="0"
       style="fill:#424242;fill-opacity:1;fill-rule:nonzero;stroke:none" />
    <path
       id="path3857"
       d="m 26.40625,1027.6782 0,3.688 3.188,-1.844 m -3.188,-1.844"
       inkscape:connector-curvature="0"
       style="fill:#bdbdbd;fill-opacity:1;fill-rule:nonzero;stroke:none" />
    <path
       id="path3859"
       d="m 26.00025,1026.9912 0,-3.691 -3.188,1.848 m 3.188,1.844"
       inkscape:connector-curvature="0"
       style="fill:#616161;fill-opacity:1;fill-rule:nonzero;stroke:none" />
    <path
       id="path3861"
       d="m 26.41625,1027.2102 -2,1.156 -5.195,-3 5.191,-2.996 1.598,0.922 -3.191,1.84 3.602,2.074 m -0.004,0"
       inkscape:connector-curvature="0"
       style="fill:#bdbdbd;fill-opacity:1;fill-rule:nonzero;stroke:none" />
  </g>
</svg>
