<?xml version="1.0" encoding="UTF-8" standalone="no"?>
<!-- Created with Inkscape (http://www.inkscape.org/) -->

<svg
   xmlns:dc="http://purl.org/dc/elements/1.1/"
   xmlns:cc="http://creativecommons.org/ns#"
   xmlns:rdf="http://www.w3.org/1999/02/22-rdf-syntax-ns#"
   xmlns:svg="http://www.w3.org/2000/svg"
   xmlns="http://www.w3.org/2000/svg"
   xmlns:sodipodi="http://sodipodi.sourceforge.net/DTD/sodipodi-0.dtd"
   xmlns:inkscape="http://www.inkscape.org/namespaces/inkscape"
   width="48"
   height="48"
   id="svg2"
   version="1.1"
   inkscape:version="0.48.4 r9939"
   sodipodi:docname="scantailor.svg">
  <defs
     id="defs4" />
  <sodipodi:namedview
     id="base"
     pagecolor="#ffffff"
     bordercolor="#666666"
     borderopacity="1.0"
     inkscape:pageopacity="0.0"
     inkscape:pageshadow="2"
     inkscape:zoom="11.583333"
     inkscape:cx="19.621582"
     inkscape:cy="26.619157"
     inkscape:document-units="px"
     inkscape:current-layer="layer1"
     showgrid="true"
     inkscape:snap-bbox="true"
     inkscape:window-width="1301"
     inkscape:window-height="744"
     inkscape:window-x="65"
     inkscape:window-y="24"
     inkscape:window-maximized="1"
     inkscape:snap-global="true">
    <inkscape:grid
       type="xygrid"
       id="grid2985"
       empspacing="6"
       visible="true"
       enabled="true"
       snapvisiblegridlinesonly="true" />
  </sodipodi:namedview>
  <metadata
     id="metadata7">
    <rdf:RDF>
      <cc:Work
         rdf:about="">
        <dc:format>image/svg+xml</dc:format>
        <dc:type
           rdf:resource="http://purl.org/dc/dcmitype/StillImage" />
        <dc:title />
      </cc:Work>
    </rdf:RDF>
  </metadata>
  <g
     inkscape:label="Layer 1"
     inkscape:groupmode="layer"
     id="layer1"
     transform="translate(0,-1004.3622)">
    <path
       id="path3788"
       d="m 24,1051.1116 c -21.2715315,0 -23.66257505,-0.089 -23.9375,-15.4063 0.328125,14.4033 2.9375,14.4063 23.9375,14.4063 21,0 23.609375,0 23.9375,-14.4063 -0.274925,15.3174 -2.665968,15.4063 -23.9375,15.4063 z"
       style="opacity:0.20000000000000001;fill:#ffffff;fill-opacity:1;stroke:none"
       inkscape:connector-curvature="0" />
    <path
       style="fill:#3e3e3e;fill-opacity:1;stroke:none"
       d="m 24,1006.3622 c -24,0 -24,0 -24,22 0,22 0,22 24,22 24,0 24,0 24,-22 0,-22 0,-22 -24,-22 z"
       id="path3757"
       inkscape:connector-curvature="0"
       sodipodi:nodetypes="zzzzz" />
    <path
       style="fill:#000000;fill-opacity:1;stroke:none;opacity:0.20000000000000001"
       d="M 24 2 C 2.7284685 2 0.33742495 2.0888436 0.0625 17.40625 C 0.390625 3.0029297 3 3 24 3 C 45 3 47.609375 3.0029297 47.9375 17.40625 C 47.662575 2.0888436 45.271532 2 24 2 z "
       transform="translate(0,1004.3622)"
       id="path3770" />
    <path
       style="fill:#000000;fill-opacity:1;stroke:none;opacity:0.20000000000000001"
       d="M 24 2 C 7.2405624 2 2.2369698 2.0788791 0.71875 9.59375 C 2.3300781 2.5289866 7.5 2.53125 24 2.53125 C 40.5 2.53125 45.669922 2.5289866 47.28125 9.59375 C 45.76303 2.0788791 40.759438 2 24 2 z M 47.28125 9.59375 C 47.354492 9.9148756 47.409424 10.242768 47.46875 10.59375 C 47.41561 10.240351 47.346891 9.9186608 47.28125 9.59375 z M 0.71875 9.59375 C 0.65310868 9.9186608 0.58439008 10.240351 0.53125 10.59375 C 0.59057617 10.242768 0.64550781 9.9148756 0.71875 9.59375 z "
       transform="translate(0,1004.3622)"
       id="path3012" />
    <g
       id="g3032"
       transform="translate(48,1007.3622)" />
    <g
       id="g3028"
       transform="translate(-55,1009.3622)" />
    <path
       style="fill:#e53935;fill-opacity:1;stroke:none"
       d="m 16,1020.3622 0,16 0,4 18,0 0,-20 -4.5,0 z"
       id="rect3923"
       inkscape:connector-curvature="0"
       sodipodi:nodetypes="ccccccc" />
    <path
       style="fill:#b71c1c;fill-opacity:1;stroke:none"
       d="m 12,1016.3622 0,20 4,4 0,-20 z"
       id="rect3933"
       inkscape:connector-curvature="0"
       sodipodi:nodetypes="ccccc" />
    <path
       sodipodi:nodetypes="cccccccc"
       inkscape:connector-curvature="0"
       id="path3937"
       d="m 12,1016.3622 18,0 1,1 0,2 2,0 1,1 -18,0 z"
       style="fill:#e57373;fill-opacity:1;stroke:none" />
    <path
       style="fill:#c62828;fill-opacity:1;stroke:none"
       d="m 15,1017.3622 16,0 0,2 -1,-1 -14,0 z"
       id="path3939"
       inkscape:connector-curvature="0"
       sodipodi:nodetypes="cccccc" />
    <path
       sodipodi:nodetypes="cccccc"
       inkscape:connector-curvature="0"
       id="path3941"
       d="m 16,1018.3622 14,0 1,1 -4,0 -10,0 z"
       style="fill:#9e9e9e;fill-opacity:1;stroke:none" />
    <path
       id="path3067"
       d="m 19.405,1023.3572 5.594,4.406 5.594,-4.406 c 0,4.215 -1.043,5.699 -2.656,6.719 l 2.719,2.125 c 0.547,0.352 0.977,0.852 1.188,1.469 l 0.156,0.188 -0.125,-0.031 c 0.043,0.23 0.125,0.469 0.125,0.719 0,1.547 -1.266,2.816 -2.813,2.816 -1.547,0 -2.781,-1.266 -2.781,-2.816 0,-0.621 0.188,-1.16 0.531,-1.625 -0.672,-0.543 -1.305,-0.93 -1.938,-1.281 -0.629,0.355 -1.262,0.738 -1.938,1.281 0.344,0.465 0.531,1 0.531,1.625 0,1.547 -1.234,2.816 -2.781,2.816 -1.547,0 -2.813,-1.266 -2.813,-2.816 0,-0.25 0.063,-0.488 0.125,-0.719 l -0.125,0.031 0.156,-0.188 c 0.207,-0.617 0.641,-1.117 1.188,-1.469 l 2.719,-2.125 c -1.613,-1.02 -2.656,-2.504 -2.656,-6.719 m 1.406,9.813 c -0.77,0 -1.406,0.605 -1.406,1.375 0,0.77 0.637,1.406 1.406,1.406 0.77,0 1.375,-0.637 1.375,-1.406 0,-0.77 -0.605,-1.375 -1.375,-1.375 m 8.375,0 c -0.77,0 -1.375,0.605 -1.375,1.375 0,0.77 0.605,1.406 1.375,1.406 0.77,0 1.406,-0.637 1.406,-1.406 0,-0.77 -0.637,-1.375 -1.406,-1.375"
       inkscape:connector-curvature="0"
       style="fill:#ffe57f;fill-opacity:1;fill-rule:evenodd;stroke:none"
       sodipodi:nodetypes="ccccccccssscccssscccccccsssccsssc" />
  </g>
</svg>
