<?xml version="1.0" encoding="UTF-8" standalone="no"?>
<!-- Created with Inkscape (http://www.inkscape.org/) -->

<svg
   xmlns:dc="http://purl.org/dc/elements/1.1/"
   xmlns:cc="http://creativecommons.org/ns#"
   xmlns:rdf="http://www.w3.org/1999/02/22-rdf-syntax-ns#"
   xmlns:svg="http://www.w3.org/2000/svg"
   xmlns="http://www.w3.org/2000/svg"
   xmlns:xlink="http://www.w3.org/1999/xlink"
   xmlns:sodipodi="http://sodipodi.sourceforge.net/DTD/sodipodi-0.dtd"
   xmlns:inkscape="http://www.inkscape.org/namespaces/inkscape"
   width="48"
   height="48"
   id="svg2"
   version="1.1"
   inkscape:version="0.48.4 r9939"
   sodipodi:docname="scummvm.svg">
  <defs
     id="defs4">
    <linearGradient
       id="linearGradient3773">
      <stop
         style="stop-color:#c62828;stop-opacity:1;"
         offset="0"
         id="stop3775" />
      <stop
         style="stop-color:#d63636;stop-opacity:1;"
         offset="1"
         id="stop3777" />
    </linearGradient>
    <linearGradient
       inkscape:collect="always"
       xlink:href="#linearGradient3773"
       id="linearGradient3779"
       x1="24"
       y1="1050.3622"
       x2="24"
       y2="1006.3622"
       gradientUnits="userSpaceOnUse" />
  </defs>
  <sodipodi:namedview
     id="base"
     pagecolor="#ffffff"
     bordercolor="#666666"
     borderopacity="1.0"
     inkscape:pageopacity="0.0"
     inkscape:pageshadow="2"
     inkscape:zoom="8.1906535"
     inkscape:cx="9.3838328"
     inkscape:cy="17.866645"
     inkscape:document-units="px"
     inkscape:current-layer="layer1"
     showgrid="true"
     inkscape:snap-bbox="true"
     inkscape:window-width="1301"
     inkscape:window-height="744"
     inkscape:window-x="65"
     inkscape:window-y="24"
     inkscape:window-maximized="1"
     inkscape:snap-global="true">
    <inkscape:grid
       type="xygrid"
       id="grid2985"
       empspacing="6"
       visible="true"
       enabled="true"
       snapvisiblegridlinesonly="true" />
  </sodipodi:namedview>
  <metadata
     id="metadata7">
    <rdf:RDF>
      <cc:Work
         rdf:about="">
        <dc:format>image/svg+xml</dc:format>
        <dc:type
           rdf:resource="http://purl.org/dc/dcmitype/StillImage" />
        <dc:title />
      </cc:Work>
    </rdf:RDF>
  </metadata>
  <g
     inkscape:label="Layer 1"
     inkscape:groupmode="layer"
     id="layer1"
     transform="translate(0,-1004.3622)">
    <path
       id="path3788"
       d="m 24,1051.1116 c -21.2715315,0 -23.66257505,-0.089 -23.9375,-15.4063 0.328125,14.4033 2.9375,14.4063 23.9375,14.4063 21,0 23.609375,0 23.9375,-14.4063 -0.274925,15.3174 -2.665968,15.4063 -23.9375,15.4063 z"
       style="opacity:0.20000000000000001;fill:#ffffff;fill-opacity:1;stroke:none"
       inkscape:connector-curvature="0" />
    <path
       style="fill:url(#linearGradient3779);fill-opacity:1;stroke:none"
       d="m 24,1006.3622 c -24,0 -24,0 -24,22 0,22 0,22 24,22 24,0 24,0 24,-22 0,-22 0,-22 -24,-22 z"
       id="path3757"
       inkscape:connector-curvature="0"
       sodipodi:nodetypes="zzzzz" />
    <path
       style="fill:#000000;fill-opacity:1;stroke:none;opacity:0.20000000000000001"
       d="M 24 2 C 2.7284685 2 0.33742495 2.0888436 0.0625 17.40625 C 0.390625 3.0029297 3 3 24 3 C 45 3 47.609375 3.0029297 47.9375 17.40625 C 47.662575 2.0888436 45.271532 2 24 2 z "
       transform="translate(0,1004.3622)"
       id="path3770" />
    <path
       style="fill:#000000;fill-opacity:1;stroke:none;opacity:0.20000000000000001"
       d="M 24 2 C 7.2405624 2 2.2369698 2.0788791 0.71875 9.59375 C 2.3300781 2.5289866 7.5 2.53125 24 2.53125 C 40.5 2.53125 45.669922 2.5289866 47.28125 9.59375 C 45.76303 2.0788791 40.759438 2 24 2 z M 47.28125 9.59375 C 47.354492 9.9148756 47.409424 10.242768 47.46875 10.59375 C 47.41561 10.240351 47.346891 9.9186608 47.28125 9.59375 z M 0.71875 9.59375 C 0.65310868 9.9186608 0.58439008 10.240351 0.53125 10.59375 C 0.59057617 10.242768 0.64550781 9.9148756 0.71875 9.59375 z "
       transform="translate(0,1004.3622)"
       id="path3012" />
    <g
       id="g3032"
       transform="translate(48,1007.3622)" />
    <path
       inkscape:connector-curvature="0"
       id="path3003"
       d="m 26.38522,1016.2894 c -5.645978,-0.447 -11.645823,5.1243 -9.933702,10.9362 1.602105,2.2638 2.50086,4.9334 0.09834,6.9531 -1.138947,3.8885 2.66028,7.0272 6.123111,7.72 5.602352,1.6596 13.081364,-1.2081 14.063205,-7.4782 1.569122,-4.1115 -4.497272,-6.5096 -1.57914,-9.8051 1.483974,-3.4703 -1.493492,-6.8151 -4.718947,-7.7061 -1.304162,-0.4316 -2.681928,-0.6153 -4.052868,-0.6199 z"
       style="font-size:36px;font-style:normal;font-weight:normal;text-align:center;line-height:100%;letter-spacing:0px;word-spacing:0px;text-anchor:middle;opacity:0.1;fill:#000000;fill-opacity:1;stroke:none;font-family:Sans" />
    <path
       style="font-size:36px;font-style:normal;font-weight:normal;text-align:center;line-height:100%;letter-spacing:0px;word-spacing:0px;text-anchor:middle;fill:#000000;fill-opacity:1;stroke:none;font-family:Sans"
       d="m 25.21875,1015.456 c -5.645978,-0.447 -11.645823,5.1243 -9.933702,10.9362 1.602105,2.2638 2.50086,4.9334 0.09834,6.9531 -1.138947,3.8885 2.66028,7.0272 6.123111,7.72 5.602352,1.6596 13.081364,-1.2081 14.063205,-7.4782 1.569122,-4.1115 -4.497272,-6.5096 -1.57914,-9.8051 1.483974,-3.4703 -1.493492,-6.8151 -4.718947,-7.7061 -1.304162,-0.4316 -2.681928,-0.6153 -4.052868,-0.6199 z"
       id="path2996"
       inkscape:connector-curvature="0" />
    <path
       style="font-size:36px;font-style:normal;font-weight:normal;text-align:center;line-height:100%;letter-spacing:0px;word-spacing:0px;text-anchor:middle;fill:#ffea00;fill-opacity:1;stroke:none;font-family:Sans"
       d="M 25.21875 13.1875 C 23.630924 13.180786 22.168547 13.547037 20.78125 14.28125 C 18.747266 15.35339 17.546109 16.958716 17.21875 19.09375 C 17.138727 19.615664 17.128821 20.151315 17.1875 20.71875 C 17.317985 22.559802 18.223097 24.021911 19.875 25.125 C 20.886221 25.814225 22.363682 26.453604 24.34375 27 C 25.924152 27.460849 26.731642 27.771698 26.75 27.96875 C 26.786683 28.362868 26.40958 28.575339 25.625 28.625 C 25.353128 28.656161 25.104691 28.665014 24.84375 28.625 C 24.393009 28.555894 23.762666 28.333289 22.96875 27.96875 C 22.198543 27.607857 21.5682 27.385252 21.09375 27.3125 C 20.785349 27.26522 20.475554 27.257372 20.15625 27.28125 C 19.347934 27.327282 18.661127 27.666294 18.125 28.3125 C 17.678223 28.851013 17.417981 29.468293 17.3125 30.15625 C 17.108808 31.484726 17.766308 32.612146 19.28125 33.5 C 20.391 34.180043 21.700487 34.642208 23.21875 34.875 C 24.14393 35.016854 24.989124 35.053299 25.75 35 C 27.83917 34.834716 29.586182 34.192911 30.96875 33.09375 C 32.375011 31.998225 33.210482 30.621818 33.46875 28.9375 C 33.545117 28.439326 33.542212 27.922619 33.5 27.40625 C 33.365859 25.588937 32.491997 24.126829 30.84375 23 C 29.828873 22.334514 28.320162 21.695135 26.34375 21.125 C 24.735969 20.684253 23.920952 20.377042 23.90625 20.15625 C 23.891533 19.935483 23.971996 19.749415 24.15625 19.65625 C 24.446291 19.506491 24.860617 19.478854 25.40625 19.5625 C 25.809527 19.624348 26.417541 19.839173 27.21875 20.15625 C 28.023573 20.449628 28.612896 20.601702 28.96875 20.65625 C 29.751588 20.776294 30.453541 20.564395 31.09375 20.03125 C 31.733929 19.49813 32.122677 18.83031 32.25 18 C 32.453675 16.671541 31.884005 15.569995 30.5625 14.6875 C 29.574983 14.001937 28.338272 13.541671 26.84375 13.3125 C 26.292193 13.227937 25.748025 13.189738 25.21875 13.1875 z "
       transform="translate(0,1004.3622)"
       id="text3774" />
  </g>
</svg>
