<?xml version="1.0" encoding="UTF-8" standalone="no"?>
<!-- Created with Inkscape (http://www.inkscape.org/) -->

<svg
   xmlns:dc="http://purl.org/dc/elements/1.1/"
   xmlns:cc="http://creativecommons.org/ns#"
   xmlns:rdf="http://www.w3.org/1999/02/22-rdf-syntax-ns#"
   xmlns:svg="http://www.w3.org/2000/svg"
   xmlns="http://www.w3.org/2000/svg"
   xmlns:xlink="http://www.w3.org/1999/xlink"
   xmlns:sodipodi="http://sodipodi.sourceforge.net/DTD/sodipodi-0.dtd"
   xmlns:inkscape="http://www.inkscape.org/namespaces/inkscape"
   width="48"
   height="48"
   id="svg2"
   version="1.1"
   inkscape:version="0.48.4 r9939"
   sodipodi:docname="setroubleshoot_icon.svg">
  <defs
     id="defs4">
    <linearGradient
       id="linearGradient3773">
      <stop
         style="stop-color:#ef5350;stop-opacity:1;"
         offset="0"
         id="stop3775" />
      <stop
         style="stop-color:#fb6649;stop-opacity:1;"
         offset="1"
         id="stop3777" />
    </linearGradient>
    <linearGradient
       id="linearGradient3765">
      <stop
         style="stop-color:#4d4d4d;stop-opacity:1;"
         offset="0"
         id="stop3767" />
      <stop
         style="stop-color:#666666;stop-opacity:1;"
         offset="1"
         id="stop3769" />
    </linearGradient>
    <linearGradient
       inkscape:collect="always"
       xlink:href="#linearGradient3765"
       id="linearGradient3771"
       x1="24"
       y1="1050.3622"
       x2="24"
       y2="1006.3622"
       gradientUnits="userSpaceOnUse" />
    <linearGradient
       inkscape:collect="always"
       xlink:href="#linearGradient3773"
       id="linearGradient3779"
       x1="24"
       y1="1041.3622"
       x2="24"
       y2="1015.3622"
       gradientUnits="userSpaceOnUse"
       gradientTransform="translate(0,-1004.3622)" />
    <linearGradient
       inkscape:collect="always"
       xlink:href="#linearGradient3773"
       id="linearGradient3774"
       gradientUnits="userSpaceOnUse"
       gradientTransform="translate(0.6104519,0.6104519)"
       x1="24"
       y1="1041.3622"
       x2="24"
       y2="1015.3622" />
    <linearGradient
       inkscape:collect="always"
       xlink:href="#linearGradient3773"
       id="linearGradient3776"
       gradientUnits="userSpaceOnUse"
       gradientTransform="translate(0,-1004.3622)"
       x1="24"
       y1="1041.3622"
       x2="24"
       y2="1015.3622" />
    <linearGradient
       inkscape:collect="always"
       xlink:href="#linearGradient3773"
       id="linearGradient3785"
       gradientUnits="userSpaceOnUse"
       x1="24"
       y1="1041.3622"
       x2="24"
       y2="1015.3622"
       gradientTransform="translate(0,-1004.3622)" />
    <linearGradient
       inkscape:collect="always"
       xlink:href="#linearGradient3773"
       id="linearGradient3789"
       gradientUnits="userSpaceOnUse"
       x1="24"
       y1="1041.3622"
       x2="24"
       y2="1015.3622"
       gradientTransform="translate(-0.30522595,-0.30522595)" />
    <linearGradient
       inkscape:collect="always"
       xlink:href="#linearGradient3773"
       id="linearGradient3792"
       gradientUnits="userSpaceOnUse"
       x1="24"
       y1="1041.3622"
       x2="24"
       y2="1015.3622" />
  </defs>
  <sodipodi:namedview
     id="base"
     pagecolor="#ffffff"
     bordercolor="#666666"
     borderopacity="1.0"
     inkscape:pageopacity="0.0"
     inkscape:pageshadow="2"
     inkscape:zoom="8.1906536"
     inkscape:cx="2.4830925"
     inkscape:cy="12.913115"
     inkscape:document-units="px"
     inkscape:current-layer="layer1"
     showgrid="true"
     inkscape:snap-bbox="true"
     inkscape:window-width="1301"
     inkscape:window-height="744"
     inkscape:window-x="65"
     inkscape:window-y="24"
     inkscape:window-maximized="1">
    <inkscape:grid
       type="xygrid"
       id="grid2985"
       empspacing="6"
       visible="true"
       enabled="true"
       snapvisiblegridlinesonly="true" />
  </sodipodi:namedview>
  <metadata
     id="metadata7">
    <rdf:RDF>
      <cc:Work
         rdf:about="">
        <dc:format>image/svg+xml</dc:format>
        <dc:type
           rdf:resource="http://purl.org/dc/dcmitype/StillImage" />
        <dc:title />
      </cc:Work>
    </rdf:RDF>
  </metadata>
  <g
     inkscape:label="Layer 1"
     inkscape:groupmode="layer"
     id="layer1"
     transform="translate(0,-1004.3622)">
    <path
       id="path3788"
       d="m 24,1051.1116 c -21.2715315,0 -23.66257505,-0.089 -23.9375,-15.4063 0.328125,14.4033 2.9375,14.4063 23.9375,14.4063 21,0 23.609375,0 23.9375,-14.4063 -0.274925,15.3174 -2.665968,15.4063 -23.9375,15.4063 z"
       style="opacity:0.20000000000000001;fill:#ffffff;fill-opacity:1;stroke:none"
       inkscape:connector-curvature="0" />
    <path
       style="fill:url(#linearGradient3771);fill-opacity:1;stroke:none"
       d="m 24,1006.3622 c -24,0 -24,0 -24,22 0,22 0,22 24,22 24,0 24,0 24,-22 0,-22 0,-22 -24,-22 z"
       id="path3757"
       inkscape:connector-curvature="0"
       sodipodi:nodetypes="zzzzz" />
    <path
       inkscape:connector-curvature="0"
       id="path3794"
       d="m 23,1016.3622 -0.6875,3.375 c -0.777385,0.2174 -1.530224,0.5493 -2.21875,0.9375 l -2.875,-1.9062 -2.8125,2.8125 1.90625,2.875 c -0.388244,0.6884 -0.720064,1.4413 -0.9375,2.2187 l -3.375,0.6875 0,4 3.375,0.6875 c 0.217436,0.7774 0.549256,1.5302 0.9375,2.2188 l -1.90625,2.875 2.8125,2.8125 2.875,-1.9063 c 0.688526,0.3882 1.441365,0.7201 2.21875,0.9375 l 0.6875,3.375 4,0 0.6875,-3.375 c 0.777385,-0.2174 1.530224,-0.5493 2.21875,-0.9375 l 2.875,1.9063 2.8125,-2.8125 -1.90625,-2.875 c 0.388244,-0.6886 0.720064,-1.4414 0.9375,-2.2188 l 3.375,-0.6875 0,-4 -3.375,-0.6875 c -0.217436,-0.7774 -0.549256,-1.5303 -0.9375,-2.2187 l 1.90625,-2.875 -2.8125,-2.8125 -2.875,1.9062 c -0.688526,-0.3882 -1.441365,-0.7201 -2.21875,-0.9375 l -0.6875,-3.375 -4,0 z m 2,9 c 2.209139,0 4,1.7909 4,4 0,2.2091 -1.790861,4 -4,4 -2.209139,0 -4,-1.7909 -4,-4 0,-2.2091 1.790861,-4 4,-4 z"
       style="fill:#000000;fill-opacity:1;stroke:none;opacity:0.2" />
    <path
       style="fill:#000000;fill-opacity:1;stroke:none;opacity:0.20000000000000001"
       d="M 24 2 C 2.7284685 2 0.33742495 2.0888436 0.0625 17.40625 C 0.390625 3.0029297 3 3 24 3 C 45 3 47.609375 3.0029297 47.9375 17.40625 C 47.662575 2.0888436 45.271532 2 24 2 z "
       transform="translate(0,1004.3622)"
       id="path3770" />
    <path
       style="fill:url(#linearGradient3792);fill-opacity:1;stroke:none"
       d="m 22,1015.3622 -0.6875,3.375 c -0.777385,0.2174 -1.530224,0.5493 -2.21875,0.9375 l -2.875,-1.9062 -2.8125,2.8125 1.90625,2.875 c -0.388244,0.6884 -0.720064,1.4413 -0.9375,2.2187 l -3.375,0.6875 0,4 3.375,0.6875 c 0.217436,0.7774 0.549256,1.5302 0.9375,2.2188 l -1.90625,2.875 2.8125,2.8125 2.875,-1.9063 c 0.688526,0.3882 1.441365,0.7201 2.21875,0.9375 l 0.6875,3.375 4,0 0.6875,-3.375 c 0.777385,-0.2174 1.530224,-0.5493 2.21875,-0.9375 l 2.875,1.9063 2.8125,-2.8125 -1.90625,-2.875 c 0.388244,-0.6886 0.720064,-1.4414 0.9375,-2.2188 l 3.375,-0.6875 0,-4 -3.375,-0.6875 c -0.217436,-0.7774 -0.549256,-1.5303 -0.9375,-2.2187 l 1.90625,-2.875 -2.8125,-2.8125 -2.875,1.9062 c -0.688526,-0.3882 -1.441365,-0.7201 -2.21875,-0.9375 l -0.6875,-3.375 -4,0 z m 2,9 c 2.209139,0 4,1.7909 4,4 0,2.2091 -1.790861,4 -4,4 -2.209139,0 -4,-1.7909 -4,-4 0,-2.2091 1.790861,-4 4,-4 z"
       id="path3000"
       inkscape:connector-curvature="0" />
    <path
       style="fill:#ffffff;fill-opacity:1;stroke:none;opacity:0.2"
       d="M 22 11 L 21.3125 14.375 C 20.535115 14.5924 19.782276 14.9243 19.09375 15.3125 L 16.21875 13.40625 L 13.40625 16.21875 L 15.3125 19.09375 C 14.924256 19.78225 14.592436 20.5351 14.375 21.3125 L 11 22 L 11 26 L 11.625 26.125 L 11.625 22.625 L 15 21.9375 C 15.217436 21.1601 15.549256 20.40725 15.9375 19.71875 L 14.03125 16.84375 L 16.84375 14.03125 L 19.71875 15.9375 C 20.407276 15.5493 21.160115 15.2174 21.9375 15 L 22.625 11.625 L 26.125 11.625 L 26 11 L 22 11 z M 31.78125 13.40625 L 28.90625 15.3125 C 28.375978 15.013525 27.80715 14.768101 27.21875 14.5625 L 27.3125 15 C 28.089885 15.2174 28.842724 15.5493 29.53125 15.9375 L 32.40625 14.03125 L 31.78125 13.40625 z M 34.0625 21.40625 C 34.123858 21.581858 34.200024 21.758819 34.25 21.9375 L 37 22.5 L 37 22 L 34.0625 21.40625 z M 27.125 21.53125 C 27.660998 22.211814 28 23.066488 28 24 C 28 26.209139 26.209139 28 24 28 C 23.066488 28 22.211814 27.660998 21.53125 27.125 C 22.26483 28.019245 23.378108 28.625 24.625 28.625 C 26.834139 28.625 28.625 26.8341 28.625 24.625 C 28.625 23.37813 28.019241 22.264837 27.125 21.53125 z M 14.5625 27.21875 C 14.768097 27.807135 15.013492 28.375921 15.3125 28.90625 L 13.40625 31.78125 L 14.03125 32.40625 L 15.9375 29.53125 C 15.549256 28.84265 15.217436 28.0899 15 27.3125 L 14.5625 27.21875 z M 21.40625 34.0625 L 22 37 L 22.5 37 L 21.9375 34.25 C 21.758823 34.200032 21.581851 34.123859 21.40625 34.0625 z "
       transform="translate(0,1004.3622)"
       id="path3768" />
    <path
       style="fill:#000000;fill-opacity:1;stroke:none;opacity:0.2"
       d="M 25.75 11 L 26.375 14.0625 C 26.469014 14.088792 26.563024 14.126712 26.65625 14.15625 L 26 11 L 25.75 11 z M 34.28125 15.90625 L 32.375 18.78125 C 32.763244 19.46975 33.095064 20.2226 33.3125 21 L 33.53125 21.03125 C 33.316535 20.353607 33.028791 19.698985 32.6875 19.09375 L 34.59375 16.21875 L 34.28125 15.90625 z M 23.6875 19.6875 C 21.478361 19.6875 19.6875 21.4784 19.6875 23.6875 C 19.6875 24.833047 20.197011 25.864525 20.96875 26.59375 C 20.372397 25.895129 20 24.990514 20 24 C 20 21.7909 21.790861 20 24 20 C 24.990531 20 25.895133 20.372392 26.59375 20.96875 C 25.86453 20.197007 24.833067 19.6875 23.6875 19.6875 z M 36.6875 21.9375 L 36.6875 25.6875 L 33.3125 26.375 C 33.095064 27.1524 32.763244 27.90515 32.375 28.59375 L 34.28125 31.46875 L 31.46875 34.28125 L 28.59375 32.375 C 27.905224 32.7632 27.152385 33.0951 26.375 33.3125 L 25.6875 36.6875 L 21.9375 36.6875 L 22 37 L 26 37 L 26.6875 33.625 C 27.464885 33.4076 28.217724 33.0757 28.90625 32.6875 L 31.78125 34.59375 L 34.59375 31.78125 L 32.6875 28.90625 C 33.075744 28.21765 33.407564 27.4649 33.625 26.6875 L 37 26 L 37 22 L 36.6875 21.9375 z M 11 25.75 L 11 26 L 14.15625 26.65625 C 14.126711 26.563024 14.088796 26.469016 14.0625 26.375 L 11 25.75 z M 18.78125 32.375 L 15.90625 34.28125 L 16.21875 34.59375 L 19.09375 32.6875 C 19.699008 33.028753 20.353609 33.316545 21.03125 33.53125 L 21 33.3125 C 20.222615 33.0951 19.469776 32.7632 18.78125 32.375 z "
       transform="translate(0,1004.3622)"
       id="path3779" />
  </g>
</svg>
