<?xml version="1.0" encoding="UTF-8" standalone="no"?>
<!-- Created with Inkscape (http://www.inkscape.org/) -->

<svg
   xmlns:dc="http://purl.org/dc/elements/1.1/"
   xmlns:cc="http://creativecommons.org/ns#"
   xmlns:rdf="http://www.w3.org/1999/02/22-rdf-syntax-ns#"
   xmlns:svg="http://www.w3.org/2000/svg"
   xmlns="http://www.w3.org/2000/svg"
   xmlns:xlink="http://www.w3.org/1999/xlink"
   xmlns:sodipodi="http://sodipodi.sourceforge.net/DTD/sodipodi-0.dtd"
   xmlns:inkscape="http://www.inkscape.org/namespaces/inkscape"
   width="48"
   height="48"
   id="svg2"
   version="1.1"
   inkscape:version="0.48.4 r9939"
   sodipodi:docname="shares.svg">
  <defs
     id="defs4">
    <linearGradient
       id="linearGradient3779">
      <stop
         style="stop-color:#000000;stop-opacity:1;"
         offset="0"
         id="stop3781" />
      <stop
         style="stop-color:#ffffff;stop-opacity:1;"
         offset="1"
         id="stop3783" />
    </linearGradient>
    <linearGradient
       inkscape:collect="always"
       xlink:href="#linearGradient3779"
       id="linearGradient3795"
       gradientUnits="userSpaceOnUse"
       gradientTransform="translate(-20,0)"
       spreadMethod="repeat"
       x1="24"
       y1="1028.3622"
       x2="45"
       y2="1007.3622" />
    <linearGradient
       inkscape:collect="always"
       xlink:href="#linearGradient3779"
       id="linearGradient3797"
       gradientUnits="userSpaceOnUse"
       gradientTransform="translate(-20,0)"
       spreadMethod="repeat"
       x1="44"
       y1="1048.3622"
       x2="15"
       y2="1019.3622" />
  </defs>
  <sodipodi:namedview
     id="base"
     pagecolor="#ffffff"
     bordercolor="#666666"
     borderopacity="1.0"
     inkscape:pageopacity="0.0"
     inkscape:pageshadow="2"
     inkscape:zoom="5.7916667"
     inkscape:cx="8.1517398"
     inkscape:cy="8.9309665"
     inkscape:document-units="px"
     inkscape:current-layer="layer1"
     showgrid="true"
     inkscape:snap-bbox="true"
     inkscape:window-width="1301"
     inkscape:window-height="744"
     inkscape:window-x="65"
     inkscape:window-y="24"
     inkscape:window-maximized="1"
     inkscape:snap-global="true"
     showguides="true"
     inkscape:guide-bbox="true">
    <inkscape:grid
       type="xygrid"
       id="grid2985"
       empspacing="6"
       visible="true"
       enabled="true"
       snapvisiblegridlinesonly="true" />
  </sodipodi:namedview>
  <metadata
     id="metadata7">
    <rdf:RDF>
      <cc:Work
         rdf:about="">
        <dc:format>image/svg+xml</dc:format>
        <dc:type
           rdf:resource="http://purl.org/dc/dcmitype/StillImage" />
        <dc:title />
      </cc:Work>
    </rdf:RDF>
  </metadata>
  <g
     inkscape:label="Layer 1"
     inkscape:groupmode="layer"
     id="layer1"
     transform="translate(0,-1004.3622)">
    <path
       id="path3788"
       d="m 24,1051.1116 c -21.2715315,0 -23.66257505,-0.089 -23.9375,-15.4063 0.328125,14.4033 2.9375,14.4063 23.9375,14.4063 21,0 23.609375,0 23.9375,-14.4063 -0.274925,15.3174 -2.665968,15.4063 -23.9375,15.4063 z"
       style="opacity:0.20000000000000001;fill:#ffffff;fill-opacity:1;stroke:none"
       inkscape:connector-curvature="0" />
    <path
       style="fill:#ffa000;fill-opacity:1;stroke:none"
       d="m 24,1006.3622 c -24,0 -24,0 -24,22 0,22 0,22 24,22 24,0 24,0 24,-22 0,-22 0,-22 -24,-22 z"
       id="path3757"
       inkscape:connector-curvature="0"
       sodipodi:nodetypes="zzzzz" />
    <g
       id="g3791"
       transform="translate(20,0)">
      <path
         style="opacity:0.02999998;fill:url(#linearGradient3795);fill-opacity:1;stroke:none"
         d="m 4,1006.3622 c -24,0 -24,0 -24,22 0,22 0,22 24,22 24,0 24,0 24,-22 0,-22 0,-22 -24,-22 z"
         id="path3777"
         inkscape:connector-curvature="0"
         sodipodi:nodetypes="zzzzz" />
      <path
         sodipodi:nodetypes="zzzzz"
         inkscape:connector-curvature="0"
         id="path3787"
         d="m 4,1006.3622 c -24,0 -24,0 -24,22 0,22 0,22 24,22 24,0 24,0 24,-22 0,-22 0,-22 -24,-22 z"
         style="opacity:0.02999998;fill:url(#linearGradient3797);fill-opacity:1;stroke:none" />
    </g>
    <path
       style="fill:#000000;fill-opacity:1;stroke:none;opacity:0.20000000000000001"
       d="M 24 2 C 2.7284685 2 0.33742495 2.0888436 0.0625 17.40625 C 0.390625 3.0029297 3 3 24 3 C 45 3 47.609375 3.0029297 47.9375 17.40625 C 47.662575 2.0888436 45.271532 2 24 2 z "
       transform="translate(0,1004.3622)"
       id="path3770" />
    <path
       style="fill:#000000;fill-opacity:1;stroke:none;opacity:0.20000000000000001"
       d="M 24 2 C 7.2405624 2 2.2369698 2.0788791 0.71875 9.59375 C 2.3300781 2.5289866 7.5 2.53125 24 2.53125 C 40.5 2.53125 45.669922 2.5289866 47.28125 9.59375 C 45.76303 2.0788791 40.759438 2 24 2 z M 47.28125 9.59375 C 47.354492 9.9148756 47.409424 10.242768 47.46875 10.59375 C 47.41561 10.240351 47.346891 9.9186608 47.28125 9.59375 z M 0.71875 9.59375 C 0.65310868 9.9186608 0.58439008 10.240351 0.53125 10.59375 C 0.59057617 10.242768 0.64550781 9.9148756 0.71875 9.59375 z "
       transform="translate(0,1004.3622)"
       id="path3012" />
    <g
       id="g3032"
       transform="translate(48,1007.3622)" />
    <path
       inkscape:connector-curvature="0"
       id="path3813"
       d="m 29.447533,1017.0877 c -2.773425,-0.2013 -4.950108,2.301 -5.570775,4.8024 -0.329659,1.4286 -1.391992,2.9706 -3.03121,2.8251 -1.84957,0 -3.811615,-1.0964 -5.566515,-0.051 -2.944099,1.3418 -4.329627,5.5624 -2.287055,8.2112 1.562035,2.2023 4.867764,3.1439 7.235469,1.6986 1.709613,-0.2113 3.217624,1.2202 3.779571,2.7229 0.377725,1.3047 0.521538,2.8732 1.754758,3.6956 2.401026,2.1922 6.829304,1.7296 8.417991,-1.2196 1.463131,-2.4081 0.836328,-5.8612 -1.509177,-7.483 -1.646953,-1.3216 -3.902594,-0.9165 -5.796282,-0.4953 -1.331191,0.1315 -2.874542,-0.3643 -3.494499,-1.6357 -0.238053,-1.7968 1.924365,-3.0094 3.493623,-2.5093 1.776356,0.4551 3.869441,0.922 5.470678,-0.2751 2.592826,-1.6093 3.609501,-5.5783 1.578369,-8.0148 -1.040403,-1.3784 -2.720348,-2.3368 -4.474946,-2.2714 z"
       style="fill:#000000;fill-opacity:1;stroke:none;opacity:0.2" />
    <path
       style="fill:#ffffff;fill-opacity:1;stroke:none"
       d="m 28.424998,1015.7135 c -2.773425,-0.2013 -4.950108,2.301 -5.570775,4.8024 -0.329659,1.4286 -1.391992,2.9706 -3.03121,2.8251 -1.84957,0 -3.811615,-1.0964 -5.566515,-0.051 -2.944099,1.3418 -4.3296272,5.5624 -2.287055,8.2112 1.562035,2.2023 4.867764,3.1439 7.235469,1.6986 1.709613,-0.2113 3.217624,1.2202 3.779571,2.7229 0.377725,1.3047 0.521538,2.8732 1.754758,3.6956 2.401026,2.1922 6.829304,1.7296 8.417991,-1.2196 1.463131,-2.4081 0.836328,-5.8612 -1.509177,-7.483 -1.646953,-1.3216 -3.902594,-0.9165 -5.796282,-0.4953 -1.331191,0.1315 -2.874542,-0.3643 -3.494499,-1.6357 -0.238053,-1.7968 1.924365,-3.0094 3.493623,-2.5093 1.776356,0.4551 3.869441,0.922 5.470678,-0.2751 2.592826,-1.6093 3.609501,-5.5783 1.578369,-8.0148 -1.040403,-1.3784 -2.720348,-2.3368 -4.474946,-2.2714 z"
       id="path3004"
       inkscape:connector-curvature="0" />
  </g>
</svg>
