<?xml version="1.0" encoding="UTF-8" standalone="no"?>
<!-- Created with Inkscape (http://www.inkscape.org/) -->

<svg
   xmlns:dc="http://purl.org/dc/elements/1.1/"
   xmlns:cc="http://creativecommons.org/ns#"
   xmlns:rdf="http://www.w3.org/1999/02/22-rdf-syntax-ns#"
   xmlns:svg="http://www.w3.org/2000/svg"
   xmlns="http://www.w3.org/2000/svg"
   xmlns:xlink="http://www.w3.org/1999/xlink"
   xmlns:sodipodi="http://sodipodi.sourceforge.net/DTD/sodipodi-0.dtd"
   xmlns:inkscape="http://www.inkscape.org/namespaces/inkscape"
   width="48"
   height="48"
   id="svg2"
   version="1.1"
   inkscape:version="0.48.4 r9939"
   sodipodi:docname="simon.svg">
  <defs
     id="defs4">
    <linearGradient
       id="linearGradient3765">
      <stop
         style="stop-color:#ec407a;stop-opacity:1;"
         offset="0"
         id="stop3767" />
      <stop
         style="stop-color:#ec4099;stop-opacity:1;"
         offset="1"
         id="stop3769" />
    </linearGradient>
    <linearGradient
       inkscape:collect="always"
       xlink:href="#linearGradient3765"
       id="linearGradient3771"
       x1="24"
       y1="1050.3622"
       x2="24"
       y2="1006.3622"
       gradientUnits="userSpaceOnUse" />
  </defs>
  <sodipodi:namedview
     id="base"
     pagecolor="#ffffff"
     bordercolor="#666666"
     borderopacity="1.0"
     inkscape:pageopacity="0.0"
     inkscape:pageshadow="2"
     inkscape:zoom="11.583333"
     inkscape:cx="17.790535"
     inkscape:cy="21.246616"
     inkscape:document-units="px"
     inkscape:current-layer="layer1"
     showgrid="true"
     inkscape:snap-bbox="true"
     inkscape:window-width="1301"
     inkscape:window-height="744"
     inkscape:window-x="65"
     inkscape:window-y="24"
     inkscape:window-maximized="1">
    <inkscape:grid
       type="xygrid"
       id="grid2985"
       empspacing="6"
       visible="true"
       enabled="true"
       snapvisiblegridlinesonly="true" />
  </sodipodi:namedview>
  <metadata
     id="metadata7">
    <rdf:RDF>
      <cc:Work
         rdf:about="">
        <dc:format>image/svg+xml</dc:format>
        <dc:type
           rdf:resource="http://purl.org/dc/dcmitype/StillImage" />
        <dc:title />
      </cc:Work>
    </rdf:RDF>
  </metadata>
  <g
     inkscape:label="Layer 1"
     inkscape:groupmode="layer"
     id="layer1"
     transform="translate(0,-1004.3622)">
    <path
       id="path3788"
       d="m 24,1051.1116 c -21.2715315,0 -23.66257505,-0.089 -23.9375,-15.4063 0.328125,14.4033 2.9375,14.4063 23.9375,14.4063 21,0 23.609375,0 23.9375,-14.4063 -0.274925,15.3174 -2.665968,15.4063 -23.9375,15.4063 z"
       style="opacity:0.20000000000000001;fill:#ffffff;fill-opacity:1;stroke:none"
       inkscape:connector-curvature="0" />
    <path
       style="fill:url(#linearGradient3771);fill-opacity:1;stroke:none"
       d="m 24,1006.3622 c -24,0 -24,0 -24,22 0,22 0,22 24,22 24,0 24,0 24,-22 0,-22 0,-22 -24,-22 z"
       id="path3757"
       inkscape:connector-curvature="0"
       sodipodi:nodetypes="zzzzz" />
    <path
       style="fill:#000000;fill-opacity:1;stroke:none;opacity:0.20000000000000001"
       d="M 24 2 C 2.7284685 2 0.33742495 2.0888436 0.0625 17.40625 C 0.390625 3.0029297 3 3 24 3 C 45 3 47.609375 3.0029297 47.9375 17.40625 C 47.662575 2.0888436 45.271532 2 24 2 z "
       transform="translate(0,1004.3622)"
       id="path3770" />
    <path
       inkscape:connector-curvature="0"
       id="path3814"
       d="m 6.8874992,1031.2197 c 3.1459088,-0.2881 7.1130728,0.8994 9.5241098,-1.7223 1.691628,-1.6182 0.621533,-6.7299 3.637104,-6.2354 1.528799,2.2029 0.336229,5.2302 2.032384,7.449 1.952811,3.8404 3.04279,-2.3289 2.861223,-4.1905 -0.319796,-1.7215 1.673012,-4.8266 2.112115,-1.6623 0.685749,3.9575 0.0055,8.328 2.174122,11.894 2.610926,-2.0832 1.698585,-6.8403 2.171459,-10.0466 0.461519,-3.3537 2.507308,0.8231 2.374987,2.2879 0.06019,3.2844 3.297655,4.0748 5.943231,3.1864 1.342342,-0.8137 5.271401,0.5575 2.033408,0.6273 -2.388867,-0.3155 -5.231305,1.3212 -7.253496,-0.3286 -1.389235,-1.4116 -1.952666,-6.0929 -2.328441,-6.2336 -0.261898,3.0723 0.114469,6.3023 -0.91851,9.2434 -0.525747,2.5521 -3.429819,2.5258 -3.540253,-0.2542 -1.385026,-3.6808 -0.774791,-7.6759 -1.619242,-11.4522 -0.74782,2.8141 0.232626,7.3618 -2.548761,9.0728 -2.561474,-0.4863 -3.06491,-4.0027 -3.391342,-6.1877 0.313999,-1.4075 -0.973215,-4.3376 -1.444274,-1.5208 -0.448639,3.2149 -2.149792,6.9284 -5.977678,6.7192 -1.981214,-0.09 -4.490855,0.4562 -6.1780214,-0.2844 l 0.3358756,-0.3614 0,0 z"
       style="fill:#060606;fill-opacity:1;stroke:#000000;stroke-width:2;stroke-linecap:round;stroke-linejoin:round;stroke-miterlimit:4;stroke-opacity:1;stroke-dasharray:none;stroke-dashoffset:0;opacity:0.1" />
    <path
       style="fill:#ec407a;fill-opacity:1;stroke:#ffffff;stroke-width:2;stroke-linecap:round;stroke-linejoin:round;stroke-miterlimit:4;stroke-opacity:1;stroke-dasharray:none;stroke-dashoffset:0"
       d="m 5.5986394,1030.6037 c 3.1459085,-0.2881 7.1130726,0.8994 9.5241096,-1.7223 1.691628,-1.6182 0.621533,-6.7299 3.637104,-6.2354 1.528799,2.2029 0.336229,5.2302 2.032384,7.449 1.952811,3.8404 3.04279,-2.3289 2.861223,-4.1905 -0.319796,-1.7215 1.673012,-4.8266 2.112115,-1.6623 0.685749,3.9575 0.0055,8.328 2.174122,11.894 2.610926,-2.0832 1.698585,-6.8403 2.171459,-10.0466 0.461519,-3.3537 2.507308,0.8231 2.374987,2.2879 0.06019,3.2844 3.297655,4.0748 5.943231,3.1864 1.342342,-0.8137 5.271401,0.5575 2.033408,0.6273 -2.388867,-0.3155 -5.231305,1.3212 -7.253496,-0.3286 -1.389235,-1.4116 -1.952666,-6.0929 -2.328441,-6.2336 -0.261898,3.0723 0.114469,6.3023 -0.91851,9.2434 -0.525747,2.5521 -3.429819,2.5258 -3.540253,-0.2542 -1.385026,-3.6808 -0.774791,-7.6759 -1.619242,-11.4522 -0.74782,2.8141 0.232626,7.3618 -2.548761,9.0728 -2.561474,-0.4863 -3.06491,-4.0027 -3.391342,-6.1877 0.313999,-1.4075 -0.973215,-4.3376 -1.444274,-1.5208 -0.448639,3.2149 -2.149792,6.9284 -5.977678,6.7192 -1.9812142,-0.09 -4.4908548,0.4562 -6.1780212,-0.2844 l 0.3358756,-0.3614 0,0 z"
       id="path3809"
       inkscape:connector-curvature="0" />
  </g>
</svg>
