<?xml version="1.0" encoding="UTF-8" standalone="no"?>
<!-- Created with Inkscape (http://www.inkscape.org/) -->

<svg
   xmlns:dc="http://purl.org/dc/elements/1.1/"
   xmlns:cc="http://creativecommons.org/ns#"
   xmlns:rdf="http://www.w3.org/1999/02/22-rdf-syntax-ns#"
   xmlns:svg="http://www.w3.org/2000/svg"
   xmlns="http://www.w3.org/2000/svg"
   xmlns:xlink="http://www.w3.org/1999/xlink"
   xmlns:sodipodi="http://sodipodi.sourceforge.net/DTD/sodipodi-0.dtd"
   xmlns:inkscape="http://www.inkscape.org/namespaces/inkscape"
   width="48"
   height="48"
   id="svg2"
   version="1.1"
   inkscape:version="0.48.4 r9939"
   sodipodi:docname="snes9x.svg">
  <defs
     id="defs4">
    <linearGradient
       xlink:href="#linear0"
       gradientTransform="matrix(0.696528,0,0,0.546693,32.503705,20.223838)"
       y2="3.387"
       x2="0"
       y1="10.16"
       gradientUnits="userSpaceOnUse"
       id="linear3" />
    <linearGradient
       xlink:href="#linear0"
       gradientTransform="matrix(0.696528,0,0,0.546693,32.503705,4.223837)"
       y2="3.387"
       x2="0"
       y1="10.16"
       gradientUnits="userSpaceOnUse"
       id="linear2" />
    <linearGradient
       xlink:href="#linear0"
       gradientTransform="matrix(0.696528,0,0,0.546693,40.503702,12.223838)"
       y2="3.387"
       x2="0"
       y1="10.16"
       gradientUnits="userSpaceOnUse"
       id="linear1" />
    <linearGradient
       gradientTransform="matrix(0.696528,0,0,0.546693,24.503703,12.223838)"
       y2="3.387"
       x2="0"
       y1="10.16"
       gradientUnits="userSpaceOnUse"
       id="linear0">
      <stop
         id="stop3015"
         stop-opacity="1"
         stop-color="#8678e3" />
      <stop
         id="stop3017"
         stop-opacity="1"
         stop-color="#a3a2c7"
         offset="1" />
    </linearGradient>
    <linearGradient
       gradientTransform="matrix(0,-1,1,0,-1.5e-6,47.999998)"
       gradientUnits="userSpaceOnUse"
       x2="47"
       x1="1"
       id="linearGradient3764">
      <stop
         id="stop3000"
         stop-opacity="1"
         stop-color="#3d3d3d" />
      <stop
         id="stop3002"
         stop-opacity="1"
         stop-color="#474747"
         offset="1" />
    </linearGradient>
    <linearGradient
       inkscape:collect="always"
       xlink:href="#linear0"
       id="linearGradient3136"
       gradientUnits="userSpaceOnUse"
       gradientTransform="matrix(0.696528,0,0,0.546693,24.503703,12.223838)"
       y1="10.16"
       x2="0"
       y2="3.387" />
  </defs>
  <sodipodi:namedview
     id="base"
     pagecolor="#ffffff"
     bordercolor="#666666"
     borderopacity="1.0"
     inkscape:pageopacity="0.0"
     inkscape:pageshadow="2"
     inkscape:zoom="10.108768"
     inkscape:cx="8.854452"
     inkscape:cy="21.238441"
     inkscape:document-units="px"
     inkscape:current-layer="layer1"
     showgrid="true"
     inkscape:snap-bbox="true"
     inkscape:window-width="1301"
     inkscape:window-height="744"
     inkscape:window-x="65"
     inkscape:window-y="24"
     inkscape:window-maximized="1"
     inkscape:object-nodes="false">
    <inkscape:grid
       type="xygrid"
       id="grid3003"
       empspacing="6"
       visible="true"
       enabled="true"
       snapvisiblegridlinesonly="true" />
  </sodipodi:namedview>
  <metadata
     id="metadata7">
    <rdf:RDF>
      <cc:Work
         rdf:about="">
        <dc:format>image/svg+xml</dc:format>
        <dc:type
           rdf:resource="http://purl.org/dc/dcmitype/StillImage" />
        <dc:title />
      </cc:Work>
    </rdf:RDF>
  </metadata>
  <g
     inkscape:label="Layer 1"
     inkscape:groupmode="layer"
     id="layer1"
     transform="translate(0,-1004.3622)">
    <path
       id="path3788"
       d="m 24,1051.1116 c -21.2715315,0 -23.66257505,-0.089 -23.9375,-15.4063 0.328125,14.4033 2.9375,14.4063 23.9375,14.4063 21,0 23.609375,0 23.9375,-14.4063 -0.274925,15.3174 -2.665968,15.4063 -23.9375,15.4063 z"
       style="opacity:0.20000000000000001;fill:#ffffff;fill-opacity:1;stroke:none"
       inkscape:connector-curvature="0" />
    <path
       style="fill:#616161;fill-opacity:1;stroke:none"
       d="m 24,1050.3622 c -24,0 -24,0 -24,-22 0,-22 0,-22 24,-22 24,0 24,0 24,22 0,22 0,22 -24,22 z"
       id="path3757"
       inkscape:connector-curvature="0"
       sodipodi:nodetypes="zzzzz" />
    <path
       style="fill:#000000;fill-opacity:1;stroke:none;opacity:0.20000000000000001"
       d="M 24 2 C 2.7284685 2 0.33742495 2.0888436 0.0625 17.40625 C 0.390625 3.0029297 3 3 24 3 C 45 3 47.609375 3.0029297 47.9375 17.40625 C 47.662575 2.0888436 45.271532 2 24 2 z "
       transform="translate(0,1004.3622)"
       id="path3770" />
    <g
       id="g3813"
       transform="translate(-47.998,993.3622)" />
    <g
       id="g3039"
       transform="translate(-56.998,1002.3622)" />
    <g
       id="g3827"
       style="opacity:0.1"
       transform="translate(1.012,1006.3672)">
      <!-- color: #555555 -->
    </g>
    <g
       id="g3946"
       style="opacity:0.1;fill:#000000;fill-opacity:1"
       transform="translate(1,1)">
      <path
         sodipodi:type="arc"
         style="fill:#000000;fill-opacity:1;stroke:none"
         id="path3948"
         sodipodi:cx="23.5"
         sodipodi:cy="18"
         sodipodi:rx="5.5"
         sodipodi:ry="6"
         d="m 29,18 a 5.5,6 0 1 1 -11,0 5.5,6 0 1 1 11,0 z"
         transform="matrix(1.0909091,0,0,1,-1.6363639,1000.3622)" />
      <g
         id="g3950"
         transform="translate(0,2)"
         style="fill:#000000;fill-opacity:1">
        <path
           sodipodi:type="arc"
           style="fill:#000000;fill-opacity:1;stroke:none"
           id="path3952"
           sodipodi:cx="23.5"
           sodipodi:cy="18"
           sodipodi:rx="5.5"
           sodipodi:ry="6"
           d="m 29,18 a 5.5,6 0 1 1 -11,0 5.5,6 0 1 1 11,0 z"
           transform="matrix(1.0909091,0,0,1,-1.6363638,1018.3622)" />
      </g>
      <path
         transform="matrix(0,1.0909091,-1,0,52,1002.7258)"
         d="m 29,18 a 5.5,6 0 1 1 -11,0 5.5,6 0 1 1 11,0 z"
         sodipodi:ry="6"
         sodipodi:rx="5.5"
         sodipodi:cy="18"
         sodipodi:cx="23.5"
         id="path3954"
         style="fill:#000000;fill-opacity:1;stroke:none"
         sodipodi:type="arc" />
      <g
         id="g3956"
         transform="matrix(0,1,-1,0,1050.3622,1004.3622)"
         style="fill:#000000;fill-opacity:1">
        <path
           transform="matrix(1.0909091,0,0,1,-1.6363638,1018.3622)"
           d="m 29,18 a 5.5,6 0 1 1 -11,0 5.5,6 0 1 1 11,0 z"
           sodipodi:ry="6"
           sodipodi:rx="5.5"
           sodipodi:cy="18"
           sodipodi:cx="23.5"
           id="path3958"
           style="fill:#000000;fill-opacity:1;stroke:none"
           sodipodi:type="arc" />
      </g>
    </g>
    <g
       id="g3938">
      <path
         transform="matrix(1.0909091,0,0,1,-1.6363639,1000.3622)"
         d="m 29,18 a 5.5,6 0 1 1 -11,0 5.5,6 0 1 1 11,0 z"
         sodipodi:ry="6"
         sodipodi:rx="5.5"
         sodipodi:cy="18"
         sodipodi:cx="23.5"
         id="path3138"
         style="fill:#ec7eff;fill-opacity:1;stroke:none"
         sodipodi:type="arc" />
      <g
         transform="translate(0,2)"
         id="g3912">
        <path
           transform="matrix(1.0909091,0,0,1,-1.6363638,1018.3622)"
           d="m 29,18 c 0,3.313708 -2.462434,6 -5.5,6 -3.037566,0 -5.5,-2.686292 -5.5,-6 0,-3.313708 2.462434,-6 5.5,-6 3.037566,0 5.5,2.686292 5.5,6 z"
           sodipodi:ry="6"
           sodipodi:rx="5.5"
           sodipodi:cy="18"
           sodipodi:cx="23.5"
           id="path3908"
           style="fill:#ec7eff;fill-opacity:1;stroke:none"
           sodipodi:type="arc" />
      </g>
      <path
         sodipodi:type="arc"
         style="fill:#ec7eff;fill-opacity:1;stroke:none"
         id="path3926"
         sodipodi:cx="23.5"
         sodipodi:cy="18"
         sodipodi:rx="5.5"
         sodipodi:ry="6"
         d="m 29,18 a 5.5,6 0 1 1 -11,0 5.5,6 0 1 1 11,0 z"
         transform="matrix(0,1.0909091,-1,0,52,1002.7258)" />
      <g
         transform="matrix(0,1,-1,0,1050.3622,1004.3622)"
         id="g3928">
        <path
           sodipodi:type="arc"
           style="fill:#ec7eff;fill-opacity:1;stroke:none"
           id="path3930"
           sodipodi:cx="23.5"
           sodipodi:cy="18"
           sodipodi:rx="5.5"
           sodipodi:ry="6"
           d="m 29,18 c 0,3.313708 -2.462434,6 -5.5,6 -3.037566,0 -5.5,-2.686292 -5.5,-6 0,-3.313708 2.462434,-6 5.5,-6 3.037566,0 5.5,2.686292 5.5,6 z"
           transform="matrix(1.0909091,0,0,1,-1.6363638,1018.3622)" />
      </g>
    </g>
  </g>
</svg>
