<?xml version="1.0" encoding="UTF-8" standalone="no"?>
<!-- Created with Inkscape (http://www.inkscape.org/) -->

<svg
   xmlns:dc="http://purl.org/dc/elements/1.1/"
   xmlns:cc="http://creativecommons.org/ns#"
   xmlns:rdf="http://www.w3.org/1999/02/22-rdf-syntax-ns#"
   xmlns:svg="http://www.w3.org/2000/svg"
   xmlns="http://www.w3.org/2000/svg"
   xmlns:xlink="http://www.w3.org/1999/xlink"
   xmlns:sodipodi="http://sodipodi.sourceforge.net/DTD/sodipodi-0.dtd"
   xmlns:inkscape="http://www.inkscape.org/namespaces/inkscape"
   width="48"
   height="48"
   id="svg2"
   version="1.1"
   inkscape:version="0.48.4 r9939"
   sodipodi:docname="softwarecenter-ubuntu.svg">
  <defs
     id="defs4">
    <linearGradient
       id="linearGradient3964">
      <stop
         style="stop-color:#000000;stop-opacity:1;"
         offset="0"
         id="stop3966" />
      <stop
         style="stop-color:#ffffff;stop-opacity:1;"
         offset="1"
         id="stop3968" />
    </linearGradient>
    <linearGradient
       id="linearGradient3954">
      <stop
         style="stop-color:#ff5722;stop-opacity:1;"
         offset="0"
         id="stop3956" />
      <stop
         style="stop-color:#ff6b22;stop-opacity:1;"
         offset="1"
         id="stop3958" />
    </linearGradient>
    <linearGradient
       gradientTransform="matrix(0,-1,1,0,-1.5e-6,47.999998)"
       gradientUnits="userSpaceOnUse"
       x2="47"
       x1="1"
       id="linearGradient3764">
      <stop
         id="stop3001"
         stop-opacity="1"
         stop-color="#f6b042" />
      <stop
         id="stop3003"
         stop-opacity="1"
         stop-color="#f7b754"
         offset="1" />
    </linearGradient>
    <linearGradient
       inkscape:collect="always"
       xlink:href="#linearGradient3764"
       id="linearGradient3936"
       gradientUnits="userSpaceOnUse"
       gradientTransform="matrix(0,-1,1,0,-47.998001,1051.3622)"
       x1="1"
       x2="47" />
    <linearGradient
       inkscape:collect="always"
       xlink:href="#linearGradient3954"
       id="linearGradient3960"
       x1="24"
       y1="1050.3622"
       x2="24"
       y2="1006.3622"
       gradientUnits="userSpaceOnUse" />
    <linearGradient
       inkscape:collect="always"
       xlink:href="#linearGradient3964"
       id="linearGradient3970"
       x1="24"
       y1="1034.3622"
       x2="24"
       y2="1006.3622"
       gradientUnits="userSpaceOnUse"
       spreadMethod="repeat" />
  </defs>
  <sodipodi:namedview
     id="base"
     pagecolor="#ffffff"
     bordercolor="#666666"
     borderopacity="1.0"
     inkscape:pageopacity="0.0"
     inkscape:pageshadow="2"
     inkscape:zoom="8.1906533"
     inkscape:cx="11.234069"
     inkscape:cy="23.962354"
     inkscape:document-units="px"
     inkscape:current-layer="layer1"
     showgrid="true"
     inkscape:snap-bbox="true"
     inkscape:window-width="1301"
     inkscape:window-height="744"
     inkscape:window-x="65"
     inkscape:window-y="24"
     inkscape:window-maximized="1"
     inkscape:object-nodes="false"
     inkscape:snap-nodes="true">
    <inkscape:grid
       type="xygrid"
       id="grid3005"
       empspacing="6"
       visible="true"
       enabled="true"
       snapvisiblegridlinesonly="true" />
  </sodipodi:namedview>
  <metadata
     id="metadata7">
    <rdf:RDF>
      <cc:Work
         rdf:about="">
        <dc:format>image/svg+xml</dc:format>
        <dc:type
           rdf:resource="http://purl.org/dc/dcmitype/StillImage" />
        <dc:title />
      </cc:Work>
    </rdf:RDF>
  </metadata>
  <g
     inkscape:label="Layer 1"
     inkscape:groupmode="layer"
     id="layer1"
     transform="translate(0,-1004.3622)">
    <path
       id="path3788"
       d="m 24,1051.1116 c -21.2715315,0 -23.66257505,-0.089 -23.9375,-15.4063 0.328125,14.4033 2.9375,14.4063 23.9375,14.4063 21,0 23.609375,0 23.9375,-14.4063 -0.274925,15.3174 -2.665968,15.4063 -23.9375,15.4063 z"
       style="opacity:0.20000000000000001;fill:#ffffff;fill-opacity:1;stroke:none"
       inkscape:connector-curvature="0" />
    <path
       style="fill:url(#linearGradient3960);fill-opacity:1;stroke:none"
       d="m 24,1006.3622 c -24,0 -24,0 -24,22 0,22 0,22 24,22 24,0 24,0 24,-22 0,-22 0,-22 -24,-22 z"
       id="path3757"
       inkscape:connector-curvature="0"
       sodipodi:nodetypes="zzzzz" />
    <path
       id="path3063"
       d="m 41.240735,1025.3631 c -0.653918,0.054 -1.265255,0.3984 -1.616545,0.9976 -0.564195,0.9747 -0.214425,2.1974 0.760369,2.7617 0.96871,0.5581 2.197467,0.2554 2.757099,-0.7133 0.55811,-0.9688 0.20834,-2.2401 -0.760369,-2.8043 -0.368019,-0.2083 -0.748205,-0.2615 -1.140554,-0.2371 m -5.038206,2.1381 c -1.408205,0 -2.720603,0.3148 -3.897655,0.9033 l 1.426454,2.567 c 0.760369,-0.3558 1.580047,-0.5702 2.477284,-0.5702 3.094702,0 5.62521,2.3815 5.892861,5.4411 L 45,1035.8003 c -0.14295,-2.24 -1.110139,-4.2778 -2.614149,-5.75 -0.772535,0.2906 -1.651522,0.2495 -2.424057,-0.19 -0.772536,-0.4456 -1.247006,-1.1817 -1.37779,-1.9968 -0.748203,-0.2083 -1.561799,-0.333 -2.376915,-0.333 m -4.901339,1.4904 c -1.776223,1.1876 -3.106869,2.9577 -3.658897,5.0914 0.641752,0.5231 1.09341,1.3429 1.09341,2.234 0,0.8972 -0.451658,1.7168 -1.09341,2.24 0.552028,2.126 1.882674,3.8915 3.658897,5.0853 l 1.473595,-2.4712 c -1.520738,-1.0751 -2.518342,-2.8452 -2.518342,-4.8526 0,-2.0013 0.991521,-3.8201 2.518342,-4.8952 m -6.914797,2.8452 c -1.122305,0 -2.043873,0.9261 -2.043873,2.044 0,1.1222 0.920047,1.9966 2.043873,1.9966 1.122305,0 1.996729,-0.8729 1.996729,-1.9966 0,-1.1163 -0.872904,-2.044 -1.996729,-2.044 m 16.217154,2.567 c -0.261566,3.0293 -2.798157,5.4413 -5.892862,5.4413 -0.897234,0 -1.716912,-0.2145 -2.471199,-0.5704 l -1.431015,2.5671 c 1.181613,0.5946 2.495532,0.9154 3.897654,0.9154 0.819676,0 1.627189,-0.1183 2.376914,-0.3451 0.136867,-0.8015 0.611336,-1.5512 1.377788,-1.9906 0.772536,-0.4518 1.657606,-0.5293 2.424058,-0.2373 1.502489,-1.4797 2.477283,-3.4689 2.614149,-5.7028 m -3.89157,6.3445 c -0.261566,0.034 -0.463825,0.1551 -0.707143,0.2905 -0.974794,0.5581 -1.324564,1.7823 -0.760369,2.7571 0.55811,0.9748 1.782305,1.3185 2.757099,0.7603 0.968709,-0.552 1.318479,-1.8233 0.760369,-2.8042 -0.421245,-0.7254 -1.259172,-1.0934 -2.043873,-0.9977 m -0.006,0"
       inkscape:connector-curvature="0"
       style="fill:#fefaf8;fill-opacity:1;fill-rule:nonzero;stroke:none" />
    <g
       id="g3048"
       transform="translate(-57,1011.3622)" />
    <path
       sodipodi:nodetypes="zzzzz"
       inkscape:connector-curvature="0"
       id="path3962"
       d="m 24,1006.3622 c -24,0 -24,0 -24,22 0,22 0,22 24,22 24,0 24,0 24,-22 0,-22 0,-22 -24,-22 z"
       style="fill:url(#linearGradient3970);fill-opacity:1;stroke:none;opacity:0.05" />
    <path
       style="opacity:0.2;fill:#000000;fill-opacity:1;stroke:none"
       d="M 12 9 L 15 23.65625 L 22.5 31 L 34.5 31 L 39 23.65625 L 36 9 L 30 9 L 33 23.65625 L 21 23.65625 L 18 9 L 12 9 z "
       transform="translate(0,1004.3622)"
       id="path3825" />
    <g
       id="g3818">
      <path
         sodipodi:nodetypes="ccccc"
         inkscape:connector-curvature="0"
         id="rect3811"
         transform="translate(0,1004.3622)"
         d="m 12,9 0,12 6,6 0,-18 z"
         style="fill:#2d2d2d;fill-opacity:1;stroke:none" />
      <path
         style="fill:#0d0d0d;fill-opacity:1;stroke:none"
         d="m 30,1025.3622 -12,0 0,6 12,0 z"
         id="path3814"
         inkscape:connector-curvature="0"
         sodipodi:nodetypes="ccccc" />
      <path
         style="fill:#2d2d2d;fill-opacity:1;stroke:none"
         d="m 36,1013.3622 0,12 -6,6 0,-18 z"
         id="path3816"
         inkscape:connector-curvature="0"
         sodipodi:nodetypes="ccccc" />
    </g>
    <path
       style="fill:#000000;fill-opacity:1;stroke:none;opacity:0.20000000000000001"
       d="M 24 2 C 2.7284685 2 0.33742495 2.0888436 0.0625 17.40625 C 0.390625 3.0029297 3 3 24 3 C 45 3 47.609375 3.0029297 47.9375 17.40625 C 47.662575 2.0888436 45.271532 2 24 2 z "
       transform="translate(0,1004.3622)"
       id="path3770" />
  </g>
</svg>
