<?xml version="1.0" encoding="UTF-8" standalone="no"?>
<!-- Created with Inkscape (http://www.inkscape.org/) -->

<svg
   xmlns:dc="http://purl.org/dc/elements/1.1/"
   xmlns:cc="http://creativecommons.org/ns#"
   xmlns:rdf="http://www.w3.org/1999/02/22-rdf-syntax-ns#"
   xmlns:svg="http://www.w3.org/2000/svg"
   xmlns="http://www.w3.org/2000/svg"
   xmlns:xlink="http://www.w3.org/1999/xlink"
   xmlns:sodipodi="http://sodipodi.sourceforge.net/DTD/sodipodi-0.dtd"
   xmlns:inkscape="http://www.inkscape.org/namespaces/inkscape"
   width="48"
   height="48"
   id="svg2"
   version="1.1"
   inkscape:version="0.48.4 r9939"
   sodipodi:docname="soulseek-qt.svg">
  <defs
     id="defs4">
    <linearGradient
       id="linearGradient3763">
      <stop
         style="stop-color:#4c7589;stop-opacity:1;"
         offset="0"
         id="stop3765" />
      <stop
         style="stop-color:#5ea2b0;stop-opacity:1;"
         offset="1"
         id="stop3767" />
    </linearGradient>
    <linearGradient
       inkscape:collect="always"
       xlink:href="#linearGradient3763"
       id="linearGradient3769"
       x1="24"
       y1="1050.3622"
       x2="24"
       y2="1006.3622"
       gradientUnits="userSpaceOnUse" />
    <clipPath
       id="clipPath-451953302">
      <g
         id="g3775"
         transform="translate(0,-1004.3622)">
        <path
           id="path3777"
           fill="#1890d0"
           transform="matrix(15.333333,0,0,11.5,414.99999,878.8622)"
           d="m -24 13 c 0 1.105 -0.672 2 -1.5 2 -0.828 0 -1.5 -0.895 -1.5 -2 0 -1.105 0.672 -2 1.5 -2 0.828 0 1.5 0.895 1.5 2 z" />
      </g>
    </clipPath>
    <linearGradient
       gradientTransform="matrix(0,-1,1,0,-1.5e-6,47.999998)"
       gradientUnits="userSpaceOnUse"
       x2="47"
       x1="1"
       id="linearGradient3764">
      <stop
         id="stop3765-7"
         stop-opacity="1"
         stop-color="#7eb3c6" />
      <stop
         id="stop3767-7"
         stop-opacity="1"
         stop-color="#8cbbcd"
         offset="1" />
    </linearGradient>
    <linearGradient
       inkscape:collect="always"
       xlink:href="#linearGradient3764"
       id="linearGradient3879"
       gradientUnits="userSpaceOnUse"
       gradientTransform="matrix(0,-1,1,0,-1.5e-6,47.999998)"
       x1="1"
       x2="47" />
    <linearGradient
       inkscape:collect="always"
       xlink:href="#linearGradient3764"
       id="linearGradient3882"
       gradientUnits="userSpaceOnUse"
       gradientTransform="matrix(0,-1,1,0,-48.998001,1057.3622)"
       x1="1"
       x2="47" />
  </defs>
  <sodipodi:namedview
     id="base"
     pagecolor="#ffffff"
     bordercolor="#666666"
     borderopacity="1.0"
     inkscape:pageopacity="0.0"
     inkscape:pageshadow="2"
     inkscape:zoom="8.1906536"
     inkscape:cx="16.65696"
     inkscape:cy="11.437907"
     inkscape:document-units="px"
     inkscape:current-layer="layer1"
     showgrid="true"
     inkscape:snap-bbox="true"
     inkscape:window-width="1301"
     inkscape:window-height="744"
     inkscape:window-x="65"
     inkscape:window-y="24"
     inkscape:window-maximized="1">
    <inkscape:grid
       type="xygrid"
       id="grid2985"
       empspacing="6"
       visible="true"
       enabled="true"
       snapvisiblegridlinesonly="true" />
  </sodipodi:namedview>
  <metadata
     id="metadata7">
    <rdf:RDF>
      <cc:Work
         rdf:about="">
        <dc:format>image/svg+xml</dc:format>
        <dc:type
           rdf:resource="http://purl.org/dc/dcmitype/StillImage" />
        <dc:title />
      </cc:Work>
    </rdf:RDF>
  </metadata>
  <g
     inkscape:label="Layer 1"
     inkscape:groupmode="layer"
     id="layer1"
     transform="translate(0,-1004.3622)">
    <path
       id="path3788"
       d="m 24,1051.1116 c -21.2715315,0 -23.66257505,-0.089 -23.9375,-15.4063 0.328125,14.4033 2.9375,14.4063 23.9375,14.4063 21,0 23.609375,0 23.9375,-14.4063 -0.274925,15.3174 -2.665968,15.4063 -23.9375,15.4063 z"
       style="opacity:0.20000000000000001;fill:#ffffff;fill-opacity:1;stroke:none"
       inkscape:connector-curvature="0" />
    <path
       style="fill:url(#linearGradient3769);fill-opacity:1;stroke:none"
       d="m 24,1006.3622 c -24,0 -24,0 -24,22 0,22 0,22 24,22 24,0 24,0 24,-22 0,-22 0,-22 -24,-22 z"
       id="path3757"
       inkscape:connector-curvature="0"
       sodipodi:nodetypes="zzzzz" />
    <path
       style="fill:#000000;fill-opacity:1;stroke:none;opacity:0.20000000000000001"
       d="M 24 2 C 2.7284685 2 0.33742495 2.0888436 0.0625 17.40625 C 0.390625 3.0029297 3 3 24 3 C 45 3 47.609375 3.0029297 47.9375 17.40625 C 47.662575 2.0888436 45.271532 2 24 2 z "
       transform="translate(0,1004.3622)"
       id="path3770" />
    <g
       id="g3799"
       style="opacity:0.2"
       transform="translate(1.0075171,1005.3614)">
      <!-- color: #8cbbcd -->
      <g
         id="g3801">
        <path
           id="path3803"
           d="m 19.379,34.32 c -0.254,-0.422 -0.469,-0.836 -0.469,-0.93 0,-0.09 -0.52,-0.23 -1.156,-0.313 -0.727,-0.098 -1.148,-0.266 -1.148,-0.461 0,-0.172 0.613,-0.719 1.359,-1.227 1.703,-1.156 2.84,-2.48 2.57,-2.984 -0.109,-0.203 -1.066,-0.871 -2.121,-1.492 -2.18,-1.273 -3.699,-2.402 -4.648,-3.441 -1.32,-1.453 -2.285,-4.273 -1.457,-4.273 0.176,0 1.184,0.402 2.246,0.898 2.02,0.938 5.184,1.855 6.414,1.855 1.344,0 1.492,-1.797 0.227,-2.73 -0.582,-0.434 -0.672,-0.645 -0.672,-1.617 0,-1.012 -0.082,-1.184 -0.844,-1.793 L 18,14.503 l 1.832,0.082 c 0.629,0.027 1.031,-0.762 1.168,-1.016 0.141,-0.25 -0.031,-1.512 0,-1.566 0.031,-0.051 0.777,0.805 1,1 0.223,0.199 0.625,0.789 1.082,0.977 1.043,0.43 1.66,1.09 2.297,2.438 0.27,0.578 0.855,1.563 1.297,2.172 0.961,1.344 0.793,1.648 -0.676,1.211 -1.273,-0.383 -1.559,-0.195 -1.559,1.035 0,1.043 0.262,1.254 0.813,0.652 0.234,-0.262 0.707,-0.457 1.098,-0.457 1.063,0 5.148,-1.332 7.121,-2.324 7.582,-1.102 -4.086,7.883 -7.03,9.04 -1.672,0.609 -3.195,2.203 -4.895,5.145 -0.641,1.109 -1.289,2.059 -1.438,2.105 -0.148,0.051 -0.484,-0.254 -0.738,-0.672 M 25.06,17.458 c 0.168,-0.43 -0.465,-1.137 -0.824,-0.914 -0.27,0.172 -0.34,0.883 -0.098,1.125 0.277,0.277 0.781,0.16 0.922,-0.211 m 0,0"
           inkscape:connector-curvature="0"
           style="fill:#000000;fill-opacity:1;fill-rule:nonzero;stroke:none" />
      </g>
    </g>
    <g
       id="g3807"
       clip-path="url(#clipPath-451953302)"
       transform="translate(0.00751714,1004.3614)"
       style="fill:#fafafa">
      <!-- color: #8cbbcd -->
      <g
         id="g3809"
         style="fill:#fafafa">
        <path
           id="path3811"
           d="m 19.379,34.32 c -0.254,-0.422 -0.469,-0.836 -0.469,-0.93 0,-0.09 -0.52,-0.23 -1.156,-0.313 -0.727,-0.098 -1.148,-0.266 -1.148,-0.461 0,-0.172 0.613,-0.719 1.359,-1.227 1.703,-1.156 2.84,-2.48 2.57,-2.984 -0.109,-0.203 -1.066,-0.871 -2.121,-1.492 -2.18,-1.273 -3.699,-2.402 -4.648,-3.441 -1.32,-1.453 -2.285,-4.273 -1.457,-4.273 0.176,0 1.184,0.402 2.246,0.898 2.02,0.938 5.184,1.855 6.414,1.855 1.344,0 1.492,-1.797 0.227,-2.73 -0.582,-0.434 -0.672,-0.645 -0.672,-1.617 0,-1.012 -0.082,-1.184 -0.844,-1.793 L 18,14.503 l 1.832,0.082 c 0.629,0.027 1.031,-0.762 1.168,-1.016 0.141,-0.25 -0.031,-1.512 0,-1.566 0.031,-0.051 0.777,0.805 1,1 0.223,0.199 0.625,0.789 1.082,0.977 1.043,0.43 1.66,1.09 2.297,2.438 0.27,0.578 0.855,1.563 1.297,2.172 0.961,1.344 0.793,1.648 -0.676,1.211 -1.273,-0.383 -1.559,-0.195 -1.559,1.035 0,1.043 0.262,1.254 0.813,0.652 0.234,-0.262 0.707,-0.457 1.098,-0.457 1.063,0 5.148,-1.332 7.121,-2.324 7.582,-1.102 -4.086,7.883 -7.03,9.04 -1.672,0.609 -3.195,2.203 -4.895,5.145 -0.641,1.109 -1.289,2.059 -1.438,2.105 -0.148,0.051 -0.484,-0.254 -0.738,-0.672 M 25.06,17.458 c 0.168,-0.43 -0.465,-1.137 -0.824,-0.914 -0.27,0.172 -0.34,0.883 -0.098,1.125 0.277,0.277 0.781,0.16 0.922,-0.211 m 0,0"
           inkscape:connector-curvature="0"
           style="fill:#fafafa;fill-opacity:1;fill-rule:nonzero;stroke:none" />
      </g>
    </g>
  </g>
</svg>
