<?xml version="1.0" encoding="UTF-8" standalone="no"?>
<!-- Created with Inkscape (http://www.inkscape.org/) -->

<svg
   xmlns:dc="http://purl.org/dc/elements/1.1/"
   xmlns:cc="http://creativecommons.org/ns#"
   xmlns:rdf="http://www.w3.org/1999/02/22-rdf-syntax-ns#"
   xmlns:svg="http://www.w3.org/2000/svg"
   xmlns="http://www.w3.org/2000/svg"
   xmlns:xlink="http://www.w3.org/1999/xlink"
   xmlns:sodipodi="http://sodipodi.sourceforge.net/DTD/sodipodi-0.dtd"
   xmlns:inkscape="http://www.inkscape.org/namespaces/inkscape"
   width="48"
   height="48"
   id="svg2"
   version="1.1"
   inkscape:version="0.48.4 r9939"
   sodipodi:docname="oggconvert.svg">
  <defs
     id="defs4">
    <linearGradient
       id="linearGradient3840">
      <stop
         style="stop-color:#000000;stop-opacity:1;"
         offset="0"
         id="stop3842" />
      <stop
         style="stop-color:#ffffff;stop-opacity:1;"
         offset="1"
         id="stop3844" />
    </linearGradient>
    <linearGradient
       inkscape:collect="always"
       xlink:href="#linearGradient3840"
       id="linearGradient3846"
       x1="-36"
       y1="1050.3622"
       x2="-36"
       y2="1006.3622"
       gradientUnits="userSpaceOnUse"
       gradientTransform="translate(60,0)" />
  </defs>
  <sodipodi:namedview
     id="base"
     pagecolor="#ffffff"
     bordercolor="#666666"
     borderopacity="1.0"
     inkscape:pageopacity="0.0"
     inkscape:pageshadow="2"
     inkscape:zoom="8.1906533"
     inkscape:cx="8.6329484"
     inkscape:cy="23.098608"
     inkscape:document-units="px"
     inkscape:current-layer="layer1"
     showgrid="true"
     inkscape:snap-bbox="true"
     inkscape:window-width="1301"
     inkscape:window-height="744"
     inkscape:window-x="65"
     inkscape:window-y="24"
     inkscape:window-maximized="1"
     inkscape:object-nodes="true"
     showguides="true"
     inkscape:guide-bbox="true"
     inkscape:snap-nodes="true"
     inkscape:snap-global="true">
    <inkscape:grid
       type="xygrid"
       id="grid3003"
       empspacing="6"
       visible="true"
       enabled="true"
       snapvisiblegridlinesonly="true" />
  </sodipodi:namedview>
  <metadata
     id="metadata7">
    <rdf:RDF>
      <cc:Work
         rdf:about="">
        <dc:format>image/svg+xml</dc:format>
        <dc:type
           rdf:resource="http://purl.org/dc/dcmitype/StillImage" />
        <dc:title />
      </cc:Work>
    </rdf:RDF>
  </metadata>
  <g
     inkscape:label="Layer 1"
     inkscape:groupmode="layer"
     id="layer1"
     transform="translate(0,-1004.3622)">
    <path
       id="path3788"
       d="m 24,1051.1116 c -21.2715315,0 -23.66257505,-0.089 -23.9375,-15.4063 0.328125,14.4033 2.9375,14.4063 23.9375,14.4063 21,0 23.609375,0 23.9375,-14.4063 -0.274925,15.3174 -2.665968,15.4063 -23.9375,15.4063 z"
       style="opacity:0.20000000000000001;fill:#ffffff;fill-opacity:1;stroke:none"
       inkscape:connector-curvature="0" />
    <path
       style="fill:#039be5;fill-opacity:1;stroke:none"
       d="M 24 46 C 48 46 48 46 48 24 C 48 2 48 2 24 2 L 24 46 z "
       id="path3798"
       transform="translate(0,1004.3622)" />
    <path
       style="fill:#fbc02d;fill-opacity:1;stroke:none"
       d="M 24 46 L 24 2 C 0 2 0 2 0 24 C 0 46 0 46 24 46 z "
       id="path3757"
       transform="translate(0,1004.3622)" />
    <path
       sodipodi:nodetypes="zzzzz"
       inkscape:connector-curvature="0"
       id="path3023"
       d="m 24,1006.3622 c -24,0 -24,0 -24,22 0,22 0,22 24,22 24,0 24,0 24,-22 0,-22 0,-22 -24,-22 z"
       style="opacity:0.2;fill:url(#linearGradient3846);fill-opacity:1;stroke:none" />
    <g
       id="g3813"
       transform="translate(-47.998,993.3622)" />
    <g
       id="g3038"
       transform="translate(-50.335,1008.7072)" />
    <g
       id="g3041"
       transform="translate(-51.97,1003.7612)" />
    <g
       id="g3026"
       transform="translate(-56.532,1001.6102)" />
    <g
       id="g3811"
       transform="translate(-51.613,998.4722)" />
    <g
       id="g3073"
       transform="translate(-56,1004.3622)" />
    <path
       style="fill:#000000;fill-opacity:1;stroke:none;opacity:0.20000000000000001"
       d="M 24 2 C 2.7284685 2 0.33742495 2.0888436 0.0625 17.40625 C 0.390625 3.0029297 3 3 24 3 C 45 3 47.609375 3.0029297 47.9375 17.40625 C 47.662575 2.0888436 45.271532 2 24 2 z "
       transform="translate(0,1004.3622)"
       id="path3770" />
    <path
       inkscape:connector-curvature="0"
       d="m 3.6270972,1030.0739 c 0.3705828,-0.072 0.7427829,-0.061 1.1141768,-0.07 0.4097439,-0.019 0.8194438,0.015 1.22915,0.019 0.3504742,0 0.7009972,-10e-5 1.0514594,0.013 0.2629124,0.012 0.5258398,0.019 0.7887853,0.021 0.1101907,-0.045 0.5325324,0.071 -0.00736,0.021 -0.013787,0 0.026436,-0.022 0.038649,-0.04 0.080616,-0.1121 0.097269,-0.1478 0.1646498,-0.2689 0.1902932,-0.3064 0.2429034,-0.7997 0.3278095,-1.3173 0.090554,-0.6646 0.1908548,-1.3124 0.3425639,-1.894 0.4003811,-0.701 0.2541976,-0.6977 0.8785787,-0.1009 0.066659,0.063 0.2333544,0.8007 0.3114888,1.0233 0.1465916,0.2381 0.2205566,0.714 0.4064186,0.7518 0.233128,0.3128 0.449628,0.6986 0.635172,1.1847 0.102518,0.1669 0.190117,0.4479 0.320519,0.4039 -0.117378,-0.03 -0.234205,-0.087 -0.352132,-0.091 -0.02326,-7e-4 -0.07497,0.1395 -0.06072,0.091 0.06902,-0.2355 0.09857,-0.378 0.150111,-0.6521 0.09313,-0.6413 0.186386,-1.2746 0.322167,-1.8631 0.108925,-0.3832 0.304263,-1.3761 0.482143,-1.5043 0.187715,-0.1354 0.386963,-0.1084 0.580445,-0.1623 0.08432,0.1654 0.179663,0.2973 0.252952,0.496 0.175105,0.4749 0.285188,1.4503 0.371379,2.0756 0.102717,0.6679 0.144232,1.3912 0.230337,2.0699 0.04827,0.3598 0.140255,0.6761 0.217543,1.008 0.05535,0.2627 0.138449,0.8099 0.24518,0.9496 -0.288867,-1.3004 -0.780041,0.7887 -0.535773,-0.7891 0.02502,-0.1616 0.04933,-0.3239 0.07399,-0.4859 0.161723,-0.963 0.318823,-1.9309 0.484818,-2.889 0.09159,-0.6552 0.216293,-1.2787 0.27388,-1.9628 0.100852,-0.8487 0.135802,-1.734 0.196261,-2.6047 0.008,-0.2078 0.165304,-1.8271 0.230954,-1.8818 0.270321,-0.2249 0.555648,-0.2956 0.833472,-0.4434 0.06698,0.2931 0.143071,0.5728 0.200931,0.8791 0.05763,0.3051 0.110878,0.9683 0.139029,1.2776 0.07229,0.7943 0.129515,1.5947 0.192441,2.3943 0.14449,1.3058 0.196797,2.6597 0.352261,3.9541 0.05469,0.5845 0.131746,1.153 0.189638,1.7349 0.0587,0.5901 0.006,0.2844 0.08193,0.6622 0.13863,0.7717 0.266581,1.5542 0.382372,2.3522 0.113898,0.5582 0.16092,1.1937 0.282328,1.7408 0.09795,0.4038 0.1592,0.9454 0.301069,1.2615 -0.200104,-0.6672 -0.09545,-0.4844 -0.689612,-0.1725 -0.03992,0.021 -0.04163,0.2349 -0.08231,0.2385 -0.02911,0 -0.0017,-0.154 -0.0021,-0.2311 -0.002,-0.3755 -0.0027,-0.7511 -0.004,-1.1266 -0.01502,-1.4882 -0.02119,-2.977 -0.01009,-4.4655 0.0031,-1.0719 2.2e-5,-2.1438 0.0048,-3.2157 -0.02386,-1.0824 0.03372,-2.15 0.09337,-3.217 0.08256,-0.9815 0.167663,-1.9633 0.269794,-2.932 0.03865,-0.019 0.145755,-1.6323 0.167469,-1.6377 0.333437,-0.082 0.669638,-0.035 1.004457,-0.052 0.153725,1.2417 0.231363,2.5366 0.336873,3.8106 0.09147,1.114 0.203091,2.2162 0.308944,3.3213 0.104686,0.8975 0.172587,1.8079 0.320886,2.6648 0.128376,0.8474 0.320534,1.5962 0.438289,2.4563 0.04737,0.6519 0.155858,1.2465 0.228304,1.8771 0.09596,0.6888 0.205727,1.356 0.275018,2.0688 0.0095,0.1388 0.01725,0.2785 0.02835,0.4164 0.01134,0.141 0.03282,0.275 0.04615,0.4149 0.0028,0.029 -9.48e-4,-0.078 -0.01204,-0.083 -0.830799,-0.3833 -0.646527,-0.852 -0.880116,-0.143 0.04417,-1.0788 0.153493,-2.1282 0.230168,-3.1924 0.04928,-1.2376 0.142712,-2.315 0.303773,-3.4838 0.135755,-0.812 0.261942,-1.6351 0.399717,-2.4447 0.110992,-0.5951 0.209849,-1.2015 0.301501,-1.8189 0.09233,-0.6327 0.226525,-1.2024 0.319504,-1.8325 0.08701,-0.6659 0.113478,-1.3752 0.166313,-2.0652 0.08289,-0.7896 0.174371,-1.5739 0.309468,-2.3125 0.233825,-1.1507 0.43158,-1.1465 1.032857,-0.3789 0.08668,0.1108 0.145206,1.5873 0.162461,1.8832 0.08103,1.2415 0.0672,2.5063 0.113517,3.7551 0.02448,0.9081 0.07896,1.7924 0.150264,2.6805 0.12889,1.0226 0.152891,2.098 0.205664,3.1576 0.02188,0.6889 0.117544,1.3295 0.175203,1.9985 0.08827,0.6464 0.112968,1.3313 0.187198,1.9867 -0.191232,-0.6582 0.07303,0.4996 0.05064,0.3793 -0.150451,-0.8084 -0.115877,-0.4841 -0.726936,-0.4983 -0.02877,-6e-4 -0.03571,0.1393 -0.064,0.1532 -0.01596,0.012 0.0064,-0.085 0.0096,-0.1262 0.07786,-0.8231 0.162459,-1.6408 0.244095,-2.4612 0.08856,-0.5788 0.155855,-1.1779 0.247443,-1.7531 0.08286,-0.4967 0.132571,-1.0166 0.186766,-1.5375 0.08761,-0.5244 0.0535,-1.1201 0.13533,-1.6459 0.02512,-0.1613 0.0616,-0.3086 0.0924,-0.463 0.274606,-0.072 0.551252,-0.3294 0.823817,-0.2155 0.14315,0.06 0.403372,2.3082 0.447941,2.6984 0.134511,0.8097 0.218672,1.6447 0.251054,2.5234 0.0049,0.309 4.39e-4,0.3571 0.01634,0.6033 0.0047,0.073 0.02861,0.284 0.01618,0.2178 -0.01789,-0.096 0.0011,-0.2506 -0.03297,-0.3071 -0.496161,-0.8229 -0.390089,-0.7905 -0.72117,-0.3033 0.115381,-0.5223 0.15039,-1.1171 0.200684,-1.6971 0.0719,-0.7127 0.15125,-1.4255 0.242716,-2.1228 0.223357,-1.1536 0.445833,-1.3088 0.959311,-0.9666 0.120909,0.081 0.353622,0.8355 0.435307,1.1119 0.167978,0.5598 0.185596,1.3202 0.306869,1.9322 0.0014,-0.026 -0.0037,-0.062 0.0042,-0.078 0.02247,-0.045 0.872668,0.06 -0.198502,-0.066 -0.0071,0.012 -0.02029,0.05 -0.02137,0.029 -0.0026,-0.05 0.300819,-1.2616 0.370673,-1.5701 0.163571,-0.6088 0.232213,-1.4601 0.460035,-1.9437 0.07486,-0.159 0.163416,-0.2665 0.245124,-0.3999 0.191102,0.075 0.394466,0.032 0.573308,0.2257 0.235703,0.255 0.356028,1.8141 0.420085,2.4023 0.0377,0.6337 0.123188,1.1976 0.227184,1.7668 0.05064,0.3071 0.09437,0.6272 0.149483,0.9293 0.0094,0.051 0.03643,0.2005 0.03536,0.1435 -0.0099,-0.5322 -0.37166,-0.4232 -0.567044,-0.5529 -0.452143,1.304 -0.07848,-0.5403 -0.0048,-0.9041 0.103469,-0.5573 0.153612,-1.1703 0.232373,-1.7543 0.201969,-1.4728 0.359764,-2.1407 1.089094,-1.4505 0.08509,0.081 0.107183,0.3849 0.160774,0.5774 0.147161,0.7315 0.186809,1.5492 0.270085,2.3322 -0.01634,0.2097 0.304918,1.5501 0.136542,0.7085 -0.154928,-0.046 -0.309856,-0.092 -0.464784,-0.1377 -0.0174,0.026 -0.03233,0.084 -0.0522,0.079 -0.01237,0 0.01171,-0.058 0.01674,-0.088 0.01028,-0.062 0.01955,-0.1245 0.02915,-0.187 0.06691,-0.4354 0.0414,-0.2601 0.09847,-0.685 0.07706,-0.6967 0.07899,-1.4085 0.161279,-2.1025 0.192269,-0.7715 0.217588,-1.1297 0.772915,-0.9272 0.267277,0.097 0.419138,1.5453 0.471341,2.1037 0.06621,0.9365 0.135277,1.8684 0.169362,2.8177 0.0075,0.096 0.02449,0.3271 0.03683,0.4125 0.03957,0.2739 0.126001,-0.1 -0.04602,-0.2439 -0.145281,-0.122 -0.303147,-0.086 -0.454721,-0.1278 -0.02742,0.05 -0.05003,0.1277 -0.08227,0.1497 -0.0218,0.015 0.02845,-0.055 0.06353,-0.2893 0.04658,-0.3118 0.08408,-0.6409 0.12753,-0.9571 0.08832,-0.8178 0.166787,-1.6468 0.28494,-2.439 0.226139,-1.369 0.431269,-1.686 1.065904,-0.8431 0.03859,0.051 0.154722,0.8264 0.186658,1.0314 0.130442,0.6685 0.193834,1.4085 0.332892,2.0658 0.02895,0.1868 0.138722,0.696 0.241336,0.5856 -0.125837,-0.062 -0.249733,-0.1659 -0.377512,-0.1855 -0.03243,0 -0.05874,0.073 -0.08727,0.1145 -0.0074,0.012 -0.01285,0.051 -0.02013,0.04 -0.0068,-0.013 0.004,-0.041 0.007,-0.06 0.03637,-0.2317 0.07276,-0.4285 0.113645,-0.6592 0.09991,-0.4391 0.23062,-1.6597 0.412897,-1.8656 0.187969,-0.2124 0.395678,-0.2717 0.593518,-0.4075 0.398255,0.4114 0.462857,1.3813 0.680881,2.1922 0.160887,0.733 0.12067,0.046 -0.02795,-0.014 -0.304466,-0.122 -0.306775,-0.087 -0.436828,0.1846 0.148576,-0.6128 0.27642,-1.2584 0.398531,-1.9102 0.262826,-1.2661 0.478138,-1.768 1.106915,-1.2173 0.14366,0.1257 0.253136,0.8381 0.31327,1.1571 0.121321,0.5966 0.172553,1.3385 0.3404,1.8637 0.164496,0.6492 0.06524,-0.016 -0.03193,-0.09 -0.129444,-0.1 -0.349505,-0.062 -0.421123,0.016 0.09925,-0.7061 0.205169,-1.4081 0.336711,-2.0762 0.294627,-1.3783 0.52926,-1.5353 1.142598,-0.7274 0.07608,0.1 0.178111,0.847 0.20902,1.0472 0.08014,0.6786 0.123676,1.3982 0.259951,2.0194 -0.08898,-0.817 -0.316544,-0.5043 -0.576494,-0.4477 -4.73e-4,0 0.0373,-0.1406 0.04174,-0.1586 0.02291,-0.092 0.04483,-0.1868 0.06725,-0.2802 0.13889,-0.7511 0.312266,-1.4477 0.48482,-2.1462 0.334241,-1.2959 0.535792,-1.994 1.224336,-0.9903 0.08735,0.1274 0.09312,0.4666 0.139685,0.6999 0.06459,0.8662 0.107456,1.735 0.18639,2.5952 0.02545,0.305 0.05033,0.6341 0.103883,0.9179 0.03095,0.1641 0.02878,-0.031 0.02596,-0.034 -0.163074,-0.1622 -0.333387,-0.2682 -0.500081,-0.4024 -0.04315,0.061 -0.08185,0.2162 -0.129454,0.1849 -0.03582,-0.024 0.04789,-0.1484 0.07193,-0.2225 0.157297,-0.4845 0.319653,-0.957 0.476844,-1.4417 0.317767,-1.0522 0.427103,-1.8011 1.051694,-1.7726 0.09306,0 0.164604,0.23 0.246905,0.3449 0.277991,0.4615 0.330239,1.3405 0.505154,1.9968 0.05393,0.1635 0.202161,0.8917 0.242981,0.9392 0.0063,0.013 0.0065,-0.032 0.0098,-0.048 0.168685,0.3646 0.251267,0.8977 0.374945,1.3493 0.126375,0.6551 0.07267,0 -0.03838,-0.096 -0.142686,-0.1145 -0.298234,-0.073 -0.447055,-0.047 -0.03223,0 -0.05633,0.1932 -0.08137,0.1392 -0.02399,-0.052 0.0331,-0.1383 0.04965,-0.2075 0.128774,-0.6754 0.246188,-1.361 0.351311,-2.065 0.07323,-0.5667 0.103802,-1.1686 0.185822,-1.727 0.12827,-1.0091 0.778511,-1.2515 1.011937,0.1358 0.05031,0.2991 0.07165,0.6286 0.09552,0.947 0.03487,0.3737 0.0204,1.1767 0.111594,1.4968 2.96e-4,-0.035 -0.01249,-0.1096 8.89e-4,-0.1071 0.02091,0 0.027,0.088 0.04495,0.1171 0.0063,0.012 0.01558,-0.021 0.02166,-0.013 0.09428,0.1675 0.149139,0.4406 0.227464,0.651 0.0555,-0.017 0.03064,-0.025 0.102583,0.1898 0.03572,0.1058 0.06401,0.229 0.09882,0.3376 0.01095,0.034 -0.01074,-0.1021 -0.02702,-0.1133 -0.17264,-0.1302 -0.346707,-0.3126 -0.526202,-0.3037 -0.07058,0 -0.112523,0.2256 -0.168785,0.3384 -0.01298,0.036 -0.02475,0.1421 -0.03894,0.1083 -0.0022,0 0.04154,-1.5508 0.04683,-1.6537 0.03951,-0.7212 0.109745,-1.3963 0.241029,-2.0374 0.330191,-0.731 0.296834,-0.9336 0.854527,-0.4721 0.201008,0.1664 0.353715,1.3449 0.418909,1.8445 0.05351,0.5555 0.119348,1.102 0.210491,1.6203 0.0024,-0.022 0.104472,0.6856 0.127888,0.5965 0.01234,-0.047 0.0028,-0.1146 0.0059,-0.1708 -0.01097,-0.06 0.126908,-0.07 0.09421,-0.072 -0.410187,-0.032 -0.349708,0.1334 -0.116019,-0.2967 0.271731,-0.5251 0.585898,-0.7369 0.915379,-0.8126 0.362688,-0.2789 0.649406,2.3301 0.286717,2.609 l 0,0 c -0.171119,-0.017 -0.34401,-0.058 -0.497062,0.1861 -0.123487,0.2191 -0.270903,0.6159 -0.418466,0.7018 -0.349496,0.2033 -0.534052,0.248 -0.831128,-0.09 -0.254728,-0.4289 -0.408797,-0.9273 -0.514133,-1.6747 -0.108356,-0.5952 -0.193489,-1.223 -0.258909,-1.8602 -0.02241,-0.1833 -0.05315,-0.3595 -0.07211,-0.5455 -0.0011,-0.012 0.0086,0 0.01196,0.012 0.02948,0.059 0.04944,0.1723 0.08599,0.1826 0.48281,0.1354 0.389031,0.2082 0.590799,-0.5041 -0.05818,-0.1058 -0.09376,0.951 -0.111373,1.0804 -0.04076,0.9208 -9.54e-4,1.8669 -0.193189,2.7005 -0.08298,0.1986 -0.138289,0.5516 -0.248934,0.5958 -0.478067,0.1907 -0.629593,-0.2697 -0.894724,-0.9446 -0.143397,-0.4419 -0.341479,-0.7479 -0.429416,-1.3138 -0.09028,-0.638 -0.151422,-1.2988 -0.164009,-1.9818 -0.01112,-0.1965 -0.02353,-0.3881 -0.0423,-0.5805 -0.0084,-0.086 -0.05933,-0.2627 -0.02581,-0.2575 0.979546,0.1516 0.737221,1.1416 0.94946,0 -0.02722,0.6433 -0.12806,1.2597 -0.174223,1.8929 -0.121236,0.9003 -0.255032,1.787 -0.439666,2.6123 -0.07331,0.2596 -0.239193,0.8975 -0.345217,0.9824 -0.490304,0.3927 -0.724345,0.1208 -0.941575,-0.9181 -0.06739,-0.3066 -0.136273,-0.6088 -0.24376,-0.8327 -0.146244,-0.4405 -0.271101,-0.9304 -0.39472,-1.4168 -0.08027,-0.3686 -0.152556,-0.7512 -0.227543,-1.1254 0.225897,0.2877 0.124166,0.2353 0.535015,-0.1867 0.0157,-0.016 0.02317,-0.1639 0.01242,-0.1296 -0.115994,0.3705 -0.19584,0.8327 -0.323122,1.1839 -0.271134,0.9208 -0.57705,1.7979 -0.945174,2.4494 -0.212575,-0.1171 -0.434835,-0.1474 -0.637725,-0.3522 -0.167134,-0.1687 -0.33995,-1.6175 -0.377689,-2.0576 -0.07028,-0.7549 -0.128647,-1.5254 -0.129615,-2.306 0.169983,0.5035 0.121076,0.4384 0.610688,0.3862 0.04836,0 0.114702,-0.4123 0.08423,-0.3129 -0.06386,0.2085 -0.09753,0.4746 -0.171551,0.6649 -0.173372,0.6933 -0.348122,1.385 -0.485086,2.1356 -0.08215,0.3272 -0.246042,1.0828 -0.384654,1.2278 -0.513352,0.5373 -0.692493,0.5106 -1.011303,-0.5519 -0.13506,-0.7249 -0.24166,-1.4759 -0.301925,-2.2712 -0.07288,-0.6449 0.203745,0.09 0.546477,0.04 0.07498,-0.012 0.205294,-0.8759 0.04081,-0.053 -0.159569,0.7142 -0.252707,1.5171 -0.389096,2.2623 -0.07514,0.2803 -0.201178,0.8439 -0.33983,0.9509 -0.509555,0.393 -0.724551,0.1705 -0.996962,-0.8479 -0.174906,-0.6975 -0.311086,-1.4485 -0.414535,-2.2406 -0.0085,-0.1836 -0.0039,0.052 0.06312,0.062 0.3959,0.059 0.427819,0.2492 0.573797,-0.3892 0.03628,-0.1586 -0.247463,0.7785 -0.118685,0.4592 -0.152353,0.8334 -0.32747,1.6427 -0.530783,2.3967 -0.0585,0.1661 -0.09657,0.4091 -0.1755,0.4982 -0.561395,0.6333 -0.829203,0.2523 -1.111267,-0.9417 -0.11988,-0.5203 -0.04729,-0.1876 -0.13529,-0.6235 -0.08151,-0.4038 -0.209885,-0.7854 0.08191,-0.2701 0.154238,-0.1406 0.312959,-0.2504 0.462714,-0.4216 0.01584,-0.017 0.0304,-0.1605 0.01828,-0.128 -0.125315,0.3354 -0.142234,0.9333 -0.244541,1.3111 -0.132727,0.6617 -0.317435,1.9578 -0.647228,2.054 -0.178024,0.052 -0.356292,-0.098 -0.534438,-0.1468 -0.25787,-0.4189 -0.475047,-0.9466 -0.600015,-1.6945 -0.148416,-0.7661 -0.271713,-1.5579 -0.380646,-2.369 -0.01245,-0.1108 -0.04648,-0.2186 -0.03736,-0.3313 0.0052,-0.065 0.02822,0.1281 0.05274,0.1413 0.199783,0.1071 0.404155,0.2835 0.606277,0.213 0.117491,-0.041 0.231577,-0.9601 0.10628,-0.1293 -0.116003,0.7552 -0.192374,1.5539 -0.277022,2.3366 -0.130148,1.0299 -0.258434,2.0285 -0.616271,2.6676 -0.200227,0 -0.405281,0.1083 -0.60068,-0.013 -0.278496,-0.1647 -0.404509,-1.4858 -0.456628,-2.1101 -0.04293,-0.8593 -0.124948,-1.7004 -0.160971,-2.5621 -4.13e-4,0 -0.0336,-0.4674 -0.03948,-0.5315 -0.0037,-0.04 -0.02723,-0.1408 -0.01398,-0.1183 0.07786,0.1298 0.123846,0.4548 0.215885,0.4554 0.520988,0 0.500482,-0.057 0.59715,-0.7096 -0.08347,0.2899 -0.03378,1.6944 -0.140892,2.0829 -0.08297,0.6422 -0.311457,2.2716 -0.583299,2.4352 -0.20561,0.1233 -0.421703,0.013 -0.632554,0.014 -0.07688,-0.1656 -0.161436,-0.309 -0.230646,-0.4967 -0.171086,-0.4641 -0.229548,-1.1977 -0.31855,-1.7762 -0.06306,-0.5831 -0.106349,-1.1846 -0.176268,-1.7604 0.183278,0.4721 0.148209,0.459 0.634146,0.1974 0.09535,-0.051 0.183758,-0.8796 0.05533,-0.042 -0.01712,0.112 -0.0318,0.2256 -0.04769,0.3385 -0.108527,0.6885 -0.149534,1.4445 -0.293018,2.0956 -0.200816,0.7184 -0.162378,1.7008 -0.525327,2.1597 -0.206059,-0.1033 -0.421677,-0.1145 -0.618178,-0.3087 -0.156043,-0.1538 -0.268845,-1.233 -0.344072,-1.6201 -0.12883,-0.6917 -0.233613,-1.4038 -0.293517,-2.161 -0.127559,-1.289 0.01763,0.204 -0.07092,-0.7704 -0.0265,-0.2916 -0.04509,-0.3912 -0.03535,-0.3771 0.380523,0.5491 -0.565006,0.1391 0.554338,0.3113 0.03902,-0.1083 0.08146,-0.2079 0.117055,-0.3238 0.0082,-0.026 0.01998,-0.1254 0.01238,-0.097 -0.131442,0.4808 -0.182578,1.1049 -0.311008,1.5932 -0.0992,0.4294 -0.203587,0.8354 -0.312046,1.2459 -0.09842,0.3725 -0.128467,0.6268 -0.258143,0.9608 -0.06742,0.1737 -0.149531,0.3024 -0.224297,0.4537 -0.19242,0.045 -0.384087,0.1393 -0.577261,0.1357 -0.05814,-0 -0.111619,-0.088 -0.164978,-0.1499 -0.230914,-0.2645 -0.407029,-0.7033 -0.523699,-1.2914 -0.06978,-0.4577 -0.125067,-0.9379 -0.216841,-1.3684 -0.03644,-0.112 -0.08302,-0.1999 -0.116314,-0.3184 -0.0088,-0.031 0.02294,0.062 0.03776,0.062 0.136696,0 0.281396,0.055 0.409161,-0.073 0.210273,-0.2118 0.169629,-0.3353 0.121894,-0.5119 -0.08718,0.6003 -0.130332,1.258 -0.203268,1.871 -0.08511,0.9779 -0.145584,1.9749 -0.40294,2.7662 -0.109422,0.2165 -0.191656,0.6411 -0.328266,0.6494 -0.634223,0.039 -0.779537,-0.9558 -0.797484,-2.2217 -0.02797,-0.7382 -0.135085,-1.382 -0.249323,-2.0573 -0.0549,-0.4702 -0.106075,-0.9406 -0.155401,-1.4147 -0.0093,-0.09 -0.05955,-0.2104 -0.03125,-0.2645 0.02725,-0.052 0.04827,0.1245 0.07241,0.1859 0.245972,-0.1257 0.491944,-0.2513 0.737916,-0.3769 0.01141,-0.082 0.02017,-0.1665 0.03422,-0.2454 0.0051,-0.029 -0.0055,0.062 -0.0071,0.093 -0.02209,0.4351 -0.04463,0.8579 -0.08787,1.2831 -0.01122,0.1108 -0.02444,0.2191 -0.03666,0.3286 -0.07402,0.5883 -0.125079,1.195 -0.225965,1.7582 -0.07281,0.465 -0.117257,0.9529 -0.186921,1.4233 -0.07737,0.9107 -0.159721,1.8259 -0.27795,2.7051 -0.03632,0.2365 -0.143232,1.048 -0.243968,1.1157 -0.674962,0.4537 -0.847861,0.2256 -1.000875,-1.1301 -0.08617,-0.7035 -0.132631,-1.4288 -0.202046,-2.1448 -0.068,-0.7233 -0.176381,-1.4192 -0.214721,-2.1629 -0.06665,-1.0163 -0.08477,-2.0547 -0.186303,-3.0562 -0.07045,-0.967 -0.169326,-1.9181 -0.188198,-2.909 -0.0467,-1.242 -0.05893,-2.4916 -0.110908,-3.733 -0.0016,-0.063 -0.02857,-0.8781 -0.01206,-0.9276 0.01745,-0.052 0.0279,0.1428 0.05398,0.153 1.195234,0.4675 0.524704,0.6486 0.817893,-0.1748 0.0239,-0.067 -0.03236,0.1633 -0.04854,0.245 -0.119482,0.5266 -0.148068,1.1626 -0.236415,1.7254 -0.06669,0.8278 -0.07885,1.6886 -0.207985,2.4756 -0.0991,0.6053 -0.208467,1.1867 -0.315798,1.7805 -0.09524,0.6657 -0.200792,1.3177 -0.3159,1.9605 -0.133583,0.7456 -0.217887,1.5453 -0.352793,2.2903 -0.03994,0.2872 -0.08723,0.5678 -0.121372,0.8603 -0.08561,0.7334 -0.07279,1.5111 -0.12781,2.2597 -0.08789,1.2223 -0.194449,2.4398 -0.344541,3.6198 -0.03831,0.1834 -0.03646,0.5215 -0.114921,0.55 -0.849792,0.3085 -0.913229,0.073 -1.026585,-1.4425 -0.07217,-0.6828 -0.196902,-1.3171 -0.268341,-2.0016 -0.06305,-0.5752 -0.15404,-1.1244 -0.213334,-1.7029 -0.131779,-0.8122 -0.346684,-1.5177 -0.453294,-2.3641 -0.147097,-0.9794 -0.238191,-1.9943 -0.353538,-3.0012 -0.112396,-1.133 -0.246046,-2.2498 -0.350433,-3.3885 -0.09183,-1.1098 -0.172067,-2.237 -0.209344,-3.3691 0.309824,-0.1589 0.61725,-0.3551 0.929474,-0.477 0.01578,0 10e-4,0.2613 -0.01526,0.5273 -0.02714,0.4426 -0.06846,0.8779 -0.11399,1.3094 -0.09053,0.8603 -0.17436,1.7265 -0.254125,2.5938 -0.03891,0.9736 -0.09863,1.9439 -0.08189,2.9262 0.0042,1.0616 8.43e-4,2.1236 0.01357,3.1849 0.02538,1.5149 0.04035,3.0327 0.02041,4.5487 -0.01231,0.6438 -0.0036,1.4117 -0.09087,2.0268 -0.03965,0.2794 -0.0523,0.6641 -0.15302,0.7987 -0.586357,0.7831 -0.583448,0.5725 -0.904267,-0.085 -0.155327,-0.5332 -0.2891,-1.1016 -0.400123,-1.7084 -0.116576,-0.6342 -0.209833,-1.2945 -0.32236,-1.9339 -0.125021,-0.7824 -0.263663,-1.5484 -0.385228,-2.3345 -0.114312,-0.8354 -0.191719,-1.7032 -0.311377,-2.5355 -0.176709,-1.3762 -0.278673,-2.8004 -0.418296,-4.2052 -0.07451,-0.9901 -0.138299,-1.984 -0.195565,-2.9821 -0.0076,-0.1332 -0.07202,-0.3647 -0.02282,-0.3996 0.05659,-0.04 0.0833,0.218 0.124957,0.327 1.057392,-0.7976 0.729647,-0.955 0.616204,0.7491 -0.06198,0.9277 -0.07465,1.8834 -0.204095,2.7751 -0.08324,0.7869 -0.213319,1.5225 -0.308399,2.2997 -0.147966,0.9808 -0.297661,1.9631 -0.471866,2.9134 -0.246172,1.4097 -0.334165,2.4809 -1.079268,2.386 -0.105592,-0.014 -0.178405,-0.3 -0.267607,-0.4502 -0.129876,-0.4133 -0.250447,-0.8463 -0.336334,-1.3368 -0.117759,-0.4799 -0.233109,-0.9787 -0.303985,-1.5209 -0.07932,-0.6575 -0.142109,-1.3284 -0.234534,-1.9758 -0.02797,-0.2002 -0.164598,-1.0171 -0.170593,-1.1873 -0.0058,-0.1651 0.266846,1.2039 0.155559,0.2801 0.145577,-0.075 0.295558,-0.1046 0.43673,-0.2256 0.02501,-0.021 0.06092,-0.1403 0.03947,-0.1805 -0.0052,-0.013 -0.203577,0.6655 -0.241596,0.7836 -0.121923,0.5551 -0.189745,1.1599 -0.281451,1.7564 -0.120891,0.6041 -0.370279,1.8297 -0.651313,1.9621 -0.171866,0.081 -0.349125,-0.013 -0.523687,-0.013 -0.228039,-0.2543 -0.435842,-0.6101 -0.619444,-1.0507 -0.1329534,-0.2505 -0.2683873,-0.501 -0.4230927,-0.6503 -0.27285,-0.3892 -0.4932194,-0.929 -0.6976462,-1.5419 -0.027443,-0.098 -0.055727,-0.1946 -0.08233,-0.2943 -0.2943594,-1.1033 0.4451951,0.5895 0.5835944,-0.5636 -6.403e-4,-0.03 0.00915,-0.09 -0.00192,-0.088 -0.015765,0 -0.1784231,1.2303 -0.1905918,1.3436 -0.1284564,0.8473 -0.2671164,1.7183 -0.5520068,2.2833 -0.392855,0.8991 -0.6638316,1.1212 -1.2076775,1.0598 -0.2643348,0 -0.5286515,0.012 -0.7929535,0.021 -0.3511788,0.012 -0.702418,0.012 -1.0536085,0.012 -0.4108952,0 -0.8217843,0.037 -1.2327164,0.019 -0.3668284,-0.012 -0.7345212,0 -1.1005047,-0.07 -0.3599699,-0.2445 -0.1086082,-2.834 0.2513617,-2.5894 z"
       id="path3848"
       style="opacity:0.15;fill:#000000;fill-opacity:1;stroke:none" />
    <path
       style="fill:#ffffff;fill-opacity:1;stroke:none"
       id="path3836"
       d="m 3.6270972,1027.9664 c 0.3705828,-0.058 0.7427829,-0.049 1.1141768,-0.056 0.4097439,-0.015 0.8194438,0.012 1.22915,0.015 0.3504742,-0 0.7009972,-10e-5 1.0514594,0.01 0.2629124,0.01 0.5258398,0.015 0.7887853,0.017 0.1101907,-0.036 0.5325324,0.057 -0.00736,0.017 -0.013787,-0 0.026436,-0.018 0.038649,-0.032 0.080616,-0.09 0.097269,-0.1187 0.1646498,-0.216 0.1902932,-0.2461 0.2429034,-0.6423 0.3278095,-1.0581 0.090554,-0.5338 0.1908548,-1.0541 0.3425639,-1.5213 0.4003811,-0.563 0.2541976,-0.5604 0.8785787,-0.081 0.066659,0.051 0.2333544,0.6431 0.3114888,0.8219 0.1465916,0.1913 0.2205566,0.5735 0.4064186,0.6039 0.233128,0.2512 0.449628,0.5611 0.635172,0.9516 0.102518,0.134 0.190117,0.3597 0.320519,0.3244 -0.117378,-0.024 -0.234205,-0.07 -0.352132,-0.073 -0.02326,-6e-4 -0.07497,0.112 -0.06072,0.073 0.06902,-0.1892 0.09857,-0.3036 0.150111,-0.5238 0.09313,-0.5151 0.186386,-1.0238 0.322167,-1.4965 0.108925,-0.3078 0.304263,-1.1053 0.482143,-1.2083 0.187715,-0.1087 0.386963,-0.087 0.580445,-0.1303 0.08432,0.1328 0.179663,0.2388 0.252952,0.3984 0.175105,0.3814 0.285188,1.1649 0.371379,1.6671 0.102717,0.5365 0.144232,1.1175 0.230337,1.6626 0.04827,0.289 0.140255,0.5431 0.217543,0.8097 0.05535,0.211 0.138449,0.6505 0.24518,0.7627 -0.288867,-1.0445 -0.780041,0.6335 -0.535773,-0.6338 0.02502,-0.1298 0.04933,-0.2602 0.07399,-0.3903 0.161723,-0.7735 0.318823,-1.5509 0.484818,-2.3205 0.09159,-0.5263 0.216293,-1.0271 0.27388,-1.5766 0.100852,-0.6817 0.135802,-1.3928 0.196261,-2.0921 0.008,-0.1669 0.165304,-1.4676 0.230954,-1.5115 0.270321,-0.1807 0.555648,-0.2375 0.833472,-0.3562 0.06698,0.2354 0.143071,0.4601 0.200931,0.7061 0.05763,0.2451 0.110878,0.7778 0.139029,1.0262 0.07229,0.638 0.129515,1.2809 0.192441,1.9232 0.14449,1.0488 0.196797,2.1363 0.352261,3.176 0.05469,0.4695 0.131746,0.9261 0.189638,1.3935 0.0587,0.474 0.006,0.2285 0.08193,0.5319 0.13863,0.6199 0.266581,1.2484 0.382372,1.8894 0.113898,0.4483 0.16092,0.9588 0.282328,1.3982 0.09795,0.3244 0.1592,0.7594 0.301069,1.0133 -0.200104,-0.5359 -0.09545,-0.3891 -0.689612,-0.1386 -0.03992,0.017 -0.04163,0.1887 -0.08231,0.1916 -0.02911,0 -0.0017,-0.1237 -0.0021,-0.1856 -0.002,-0.3016 -0.0027,-0.6033 -0.004,-0.9049 -0.01502,-1.1954 -0.02119,-2.3912 -0.01009,-3.5868 0.0031,-0.861 2.2e-5,-1.722 0.0048,-2.583 -0.02386,-0.8694 0.03372,-1.7269 0.09337,-2.5839 0.08256,-0.7884 0.167663,-1.577 0.269794,-2.3551 0.03865,-0.015 0.145755,-1.3111 0.167469,-1.3154 0.333437,-0.066 0.669638,-0.028 1.004457,-0.042 0.153725,0.9973 0.231363,2.0374 0.336873,3.0607 0.09147,0.8948 0.203091,1.7801 0.308944,2.6678 0.104686,0.7209 0.172587,1.4521 0.320886,2.1404 0.128376,0.6807 0.320534,1.2821 0.438289,1.973 0.04737,0.5236 0.155858,1.0012 0.228304,1.5077 0.09596,0.5533 0.205727,1.0892 0.275018,1.6617 0.0095,0.1115 0.01725,0.2237 0.02835,0.3345 0.01134,0.1132 0.03282,0.2209 0.04615,0.3332 0.0028,0.023 -9.48e-4,-0.063 -0.01204,-0.067 -0.830799,-0.3079 -0.646527,-0.6844 -0.880116,-0.1149 0.04417,-0.8665 0.153493,-1.7094 0.230168,-2.5642 0.04928,-0.9941 0.142712,-1.8595 0.303773,-2.7983 0.135755,-0.6522 0.261942,-1.3133 0.399717,-1.9636 0.110992,-0.478 0.209849,-0.9651 0.301501,-1.461 0.09233,-0.5082 0.226525,-0.9658 0.319504,-1.4719 0.08701,-0.5349 0.113478,-1.1046 0.166313,-1.6588 0.08289,-0.6343 0.174371,-1.2642 0.309468,-1.8575 0.233825,-0.9243 0.43158,-0.9209 1.032857,-0.3043 0.08668,0.089 0.145206,1.2749 0.162461,1.5126 0.08103,0.9972 0.0672,2.0131 0.113517,3.0162 0.02448,0.7294 0.07896,1.4397 0.150264,2.153 0.12889,0.8214 0.152891,1.6852 0.205664,2.5363 0.02188,0.5533 0.117544,1.0679 0.175203,1.6052 0.08827,0.5192 0.112968,1.0694 0.187198,1.5958 -0.191232,-0.5287 0.07303,0.4013 0.05064,0.3047 -0.150451,-0.6494 -0.115877,-0.3889 -0.726936,-0.4003 -0.02877,-5e-4 -0.03571,0.1119 -0.064,0.1231 -0.01596,0.01 0.0064,-0.068 0.0096,-0.1014 0.07786,-0.6611 0.162459,-1.3179 0.244095,-1.9769 0.08856,-0.4649 0.155855,-0.9461 0.247443,-1.4081 0.08286,-0.399 0.132571,-0.8166 0.186766,-1.235 0.08761,-0.4212 0.0535,-0.8997 0.13533,-1.322 0.02512,-0.1296 0.0616,-0.2479 0.0924,-0.3719 0.274606,-0.058 0.551252,-0.2646 0.823817,-0.1731 0.14315,0.048 0.403372,1.854 0.447941,2.1674 0.134511,0.6504 0.218672,1.3211 0.251054,2.0269 0.0049,0.2482 4.39e-4,0.2868 0.01634,0.4846 0.0047,0.059 0.02861,0.2281 0.01618,0.1749 -0.01789,-0.077 0.0011,-0.2013 -0.03297,-0.2467 -0.496161,-0.6609 -0.390089,-0.6349 -0.72117,-0.2436 0.115381,-0.4195 0.15039,-0.8973 0.200684,-1.3631 0.0719,-0.5725 0.15125,-1.145 0.242716,-1.7051 0.223357,-0.9266 0.445833,-1.0513 0.959311,-0.7764 0.120909,0.065 0.353622,0.6711 0.435307,0.8931 0.167978,0.4496 0.185596,1.0604 0.306869,1.552 0.0014,-0.021 -0.0037,-0.05 0.0042,-0.063 0.02247,-0.036 0.872668,0.048 -0.198502,-0.053 -0.0071,0.01 -0.02029,0.04 -0.02137,0.023 -0.0026,-0.04 0.300819,-1.0134 0.370673,-1.2612 0.163571,-0.489 0.232213,-1.1728 0.460035,-1.5612 0.07486,-0.1277 0.163416,-0.2141 0.245124,-0.3212 0.191102,0.06 0.394466,0.026 0.573308,0.1813 0.235703,0.2048 0.356028,1.4571 0.420085,1.9296 0.0377,0.509 0.123188,0.9619 0.227184,1.4191 0.05064,0.2467 0.09437,0.5038 0.149483,0.7464 0.0094,0.041 0.03643,0.1611 0.03536,0.1153 -0.0099,-0.4275 -0.37166,-0.3399 -0.567044,-0.4441 -0.452143,1.0474 -0.07848,-0.434 -0.0048,-0.7262 0.103469,-0.4476 0.153612,-0.94 0.232373,-1.4091 0.201969,-1.183 0.359764,-1.7195 1.089094,-1.1651 0.08509,0.065 0.107183,0.3092 0.160774,0.4638 0.147161,0.5876 0.186809,1.2444 0.270085,1.8733 -0.01634,0.1684 0.304918,1.2451 0.136542,0.5691 -0.154928,-0.037 -0.309856,-0.074 -0.464784,-0.1106 -0.0174,0.021 -0.03233,0.067 -0.0522,0.063 -0.01237,-0 0.01171,-0.047 0.01674,-0.071 0.01028,-0.05 0.01955,-0.1 0.02915,-0.1502 0.06691,-0.3497 0.0414,-0.2089 0.09847,-0.5502 0.07706,-0.5596 0.07899,-1.1313 0.161279,-1.6888 0.192269,-0.6197 0.217588,-0.9074 0.772915,-0.7447 0.267277,0.078 0.419138,1.2412 0.471341,1.6897 0.06621,0.7522 0.135277,1.5008 0.169362,2.2633 0.0075,0.077 0.02449,0.2627 0.03683,0.3313 0.03957,0.22 0.126001,-0.08 -0.04602,-0.1959 -0.145281,-0.098 -0.303147,-0.069 -0.454721,-0.1027 -0.02742,0.04 -0.05003,0.1026 -0.08227,0.1203 -0.0218,0.012 0.02845,-0.044 0.06353,-0.2324 0.04658,-0.2504 0.08408,-0.5148 0.12753,-0.7688 0.08832,-0.6568 0.166787,-1.3227 0.28494,-1.959 0.226139,-1.0996 0.431269,-1.3543 1.065904,-0.6772 0.03859,0.041 0.154722,0.6638 0.186658,0.8284 0.130442,0.537 0.193834,1.1314 0.332892,1.6593 0.02895,0.1501 0.138722,0.5591 0.241336,0.4704 -0.125837,-0.05 -0.249733,-0.1333 -0.377512,-0.149 -0.03243,-0 -0.05874,0.059 -0.08727,0.092 -0.0074,0.01 -0.01285,0.041 -0.02013,0.032 -0.0068,-0.01 0.004,-0.033 0.007,-0.048 0.03637,-0.1861 0.07276,-0.3442 0.113645,-0.5295 0.09991,-0.3527 0.23062,-1.3331 0.412897,-1.4985 0.187969,-0.1706 0.395678,-0.2182 0.593518,-0.3273 0.398255,0.3304 0.462857,1.1095 0.680881,1.7608 0.160887,0.5888 0.12067,0.037 -0.02795,-0.011 -0.304466,-0.098 -0.306775,-0.07 -0.436828,0.1483 0.148576,-0.4922 0.27642,-1.0108 0.398531,-1.5343 0.262826,-1.017 0.478138,-1.4201 1.106915,-0.9778 0.14366,0.101 0.253136,0.6732 0.31327,0.9294 0.121321,0.4792 0.172553,1.0751 0.3404,1.497 0.164496,0.5214 0.06524,-0.013 -0.03193,-0.072 -0.129444,-0.08 -0.349505,-0.05 -0.421123,0.013 0.09925,-0.5671 0.205169,-1.131 0.336711,-1.6676 0.294627,-1.1071 0.52926,-1.2332 1.142598,-0.5843 0.07608,0.08 0.178111,0.6803 0.20902,0.8411 0.08014,0.5451 0.123676,1.1231 0.259951,1.6221 -0.08898,-0.6563 -0.316544,-0.4051 -0.576494,-0.3596 -4.73e-4,0 0.0373,-0.113 0.04174,-0.1274 0.02291,-0.074 0.04483,-0.1501 0.06725,-0.2251 0.13889,-0.6033 0.312266,-1.1628 0.48482,-1.7239 0.334241,-1.0409 0.535792,-1.6016 1.224336,-0.7954 0.08735,0.1023 0.09312,0.3748 0.139685,0.5622 0.06459,0.6957 0.107456,1.3936 0.18639,2.0845 0.02545,0.245 0.05033,0.5093 0.103883,0.7373 0.03095,0.1318 0.02878,-0.025 0.02596,-0.027 -0.163074,-0.1303 -0.333387,-0.2154 -0.500081,-0.3232 -0.04315,0.049 -0.08185,0.1736 -0.129454,0.1485 -0.03582,-0.019 0.04789,-0.1192 0.07193,-0.1787 0.157297,-0.3892 0.319653,-0.7687 0.476844,-1.158 0.317767,-0.8452 0.427103,-1.4467 1.051694,-1.4238 0.09306,0 0.164604,0.1847 0.246905,0.277 0.277991,0.3707 0.330239,1.0767 0.505154,1.6039 0.05393,0.1313 0.202161,0.7162 0.242981,0.7544 0.0063,0.01 0.0065,-0.026 0.0098,-0.039 0.168685,0.2929 0.251267,0.7211 0.374945,1.0838 0.126375,0.5262 0.07267,-0 -0.03838,-0.077 -0.142686,-0.092 -0.298234,-0.059 -0.447055,-0.038 -0.03223,0 -0.05633,0.1552 -0.08137,0.1118 -0.02399,-0.042 0.0331,-0.1111 0.04965,-0.1667 0.128774,-0.5425 0.246188,-1.0932 0.351311,-1.6586 0.07323,-0.4552 0.103802,-0.9387 0.185822,-1.3872 0.12827,-0.8105 0.778511,-1.0052 1.011937,0.1091 0.05031,0.2402 0.07165,0.5049 0.09552,0.7606 0.03487,0.3002 0.0204,0.9452 0.111594,1.2023 2.96e-4,-0.028 -0.01249,-0.088 8.89e-4,-0.086 0.02091,0 0.027,0.071 0.04495,0.094 0.0063,0.01 0.01558,-0.017 0.02166,-0.01 0.09428,0.1345 0.149139,0.3539 0.227464,0.5229 0.0555,-0.014 0.03064,-0.02 0.102583,0.1524 0.03572,0.085 0.06401,0.184 0.09882,0.2712 0.01095,0.027 -0.01074,-0.082 -0.02702,-0.091 -0.17264,-0.1046 -0.346707,-0.2511 -0.526202,-0.2439 -0.07058,0 -0.112523,0.1812 -0.168785,0.2718 -0.01298,0.029 -0.02475,0.1141 -0.03894,0.087 -0.0022,-0 0.04154,-1.2457 0.04683,-1.3283 0.03951,-0.5793 0.109745,-1.1216 0.241029,-1.6365 0.330191,-0.5872 0.296834,-0.7499 0.854527,-0.3792 0.201008,0.1336 0.353715,1.0802 0.418909,1.4815 0.05351,0.4462 0.119348,0.8852 0.210491,1.3015 0.0024,-0.018 0.104472,0.5507 0.127888,0.4791 0.01234,-0.038 0.0028,-0.092 0.0059,-0.1372 -0.01097,-0.048 0.126908,-0.056 0.09421,-0.058 -0.410187,-0.026 -0.349708,0.1072 -0.116019,-0.2383 0.271731,-0.4218 0.585898,-0.5919 0.915379,-0.6527 0.362688,-0.224 0.649406,1.8716 0.286717,2.0956 l 0,0 c -0.171119,-0.014 -0.34401,-0.047 -0.497062,0.1495 -0.123487,0.176 -0.270903,0.4947 -0.418466,0.5637 -0.349496,0.1633 -0.534052,0.1992 -0.831128,-0.072 -0.254728,-0.3445 -0.408797,-0.7448 -0.514133,-1.3451 -0.108356,-0.4781 -0.193489,-0.9824 -0.258909,-1.4942 -0.02241,-0.1472 -0.05315,-0.2887 -0.07211,-0.4381 -0.0011,-0.01 0.0086,0 0.01196,0.01 0.02948,0.047 0.04944,0.1384 0.08599,0.1467 0.48281,0.1087 0.389031,0.1672 0.590799,-0.4049 -0.05818,-0.085 -0.09376,0.7638 -0.111373,0.8678 -0.04076,0.7396 -9.54e-4,1.4995 -0.193189,2.1691 -0.08298,0.1595 -0.138289,0.443 -0.248934,0.4785 -0.478067,0.1532 -0.629593,-0.2166 -0.894724,-0.7587 -0.143397,-0.3549 -0.341479,-0.6007 -0.429416,-1.0553 -0.09028,-0.5124 -0.151422,-1.0432 -0.164009,-1.5918 -0.01112,-0.1578 -0.02353,-0.3117 -0.0423,-0.4663 -0.0084,-0.069 -0.05933,-0.211 -0.02581,-0.2068 0.979546,0.1218 0.737221,0.917 0.94946,-0 -0.02722,0.5167 -0.12806,1.0118 -0.174223,1.5204 -0.121236,0.7232 -0.255032,1.4354 -0.439666,2.0983 -0.07331,0.2085 -0.239193,0.7209 -0.345217,0.7891 -0.490304,0.3154 -0.724345,0.097 -0.941575,-0.7375 -0.06739,-0.2462 -0.136273,-0.489 -0.24376,-0.6688 -0.146244,-0.3538 -0.271101,-0.7473 -0.39472,-1.138 -0.08027,-0.2961 -0.152556,-0.6034 -0.227543,-0.904 0.225897,0.2311 0.124166,0.189 0.535015,-0.1499 0.0157,-0.013 0.02317,-0.1317 0.01242,-0.1041 -0.115994,0.2976 -0.19584,0.6688 -0.323122,0.9509 -0.271134,0.7396 -0.57705,1.4441 -0.945174,1.9674 -0.212575,-0.094 -0.434835,-0.1184 -0.637725,-0.2829 -0.167134,-0.1355 -0.33995,-1.2992 -0.377689,-1.6527 -0.07028,-0.6063 -0.128647,-1.2252 -0.129615,-1.8522 0.169983,0.4044 0.121076,0.3521 0.610688,0.3102 0.04836,-0 0.114702,-0.3312 0.08423,-0.2513 -0.06386,0.1674 -0.09753,0.3812 -0.171551,0.534 -0.173372,0.5569 -0.348122,1.1125 -0.485086,1.7154 -0.08215,0.2628 -0.246042,0.8697 -0.384654,0.9862 -0.513352,0.4316 -0.692493,0.4101 -1.011303,-0.4433 -0.13506,-0.5823 -0.24166,-1.1855 -0.301925,-1.8243 -0.07288,-0.518 0.203745,0.072 0.546477,0.032 0.07498,-0.01 0.205294,-0.7036 0.04081,-0.043 -0.159569,0.5737 -0.252707,1.2186 -0.389096,1.8171 -0.07514,0.2252 -0.201178,0.6779 -0.33983,0.7638 -0.509555,0.3157 -0.724551,0.137 -0.996962,-0.681 -0.174906,-0.5603 -0.311086,-1.1635 -0.414535,-1.7997 -0.0085,-0.1475 -0.0039,0.042 0.06312,0.05 0.3959,0.047 0.427819,0.2002 0.573797,-0.3126 0.03628,-0.1274 -0.247463,0.6253 -0.118685,0.3688 -0.152353,0.6694 -0.32747,1.3195 -0.530783,1.9251 -0.0585,0.1334 -0.09657,0.3286 -0.1755,0.4002 -0.561395,0.5087 -0.829203,0.2026 -1.111267,-0.7564 -0.11988,-0.4179 -0.04729,-0.1507 -0.13529,-0.5008 -0.08151,-0.3244 -0.209885,-0.6309 0.08191,-0.217 0.154238,-0.1129 0.312959,-0.2011 0.462714,-0.3386 0.01584,-0.014 0.0304,-0.1289 0.01828,-0.1028 -0.125315,0.2694 -0.142234,0.7496 -0.244541,1.0531 -0.132727,0.5315 -0.317435,1.5725 -0.647228,1.6498 -0.178024,0.042 -0.356292,-0.079 -0.534438,-0.1179 -0.25787,-0.3365 -0.475047,-0.7603 -0.600015,-1.3611 -0.148416,-0.6153 -0.271713,-1.2513 -0.380646,-1.9028 -0.01245,-0.089 -0.04648,-0.1756 -0.03736,-0.2661 0.0052,-0.052 0.02822,0.1029 0.05274,0.1135 0.199783,0.086 0.404155,0.2277 0.606277,0.1711 0.117491,-0.033 0.231577,-0.7712 0.10628,-0.1039 -0.116003,0.6066 -0.192374,1.2481 -0.277022,1.8768 -0.130148,0.8273 -0.258434,1.6294 -0.616271,2.1427 -0.200227,-0 -0.405281,0.087 -0.60068,-0.01 -0.278496,-0.1323 -0.404509,-1.1935 -0.456628,-1.6949 -0.04293,-0.6902 -0.124948,-1.3658 -0.160971,-2.058 -4.13e-4,-0 -0.0336,-0.3754 -0.03948,-0.4269 -0.0037,-0.032 -0.02723,-0.1131 -0.01398,-0.095 0.07786,0.1043 0.123846,0.3653 0.215885,0.3658 0.520988,0 0.500482,-0.046 0.59715,-0.57 -0.08347,0.2329 -0.03378,1.361 -0.140892,1.6731 -0.08297,0.5158 -0.311457,1.8246 -0.583299,1.956 -0.20561,0.099 -0.421703,0.01 -0.632554,0.011 -0.07688,-0.133 -0.161436,-0.2482 -0.230646,-0.399 -0.171086,-0.3728 -0.229548,-0.962 -0.31855,-1.4267 -0.06306,-0.4683 -0.106349,-0.9515 -0.176268,-1.414 0.183278,0.3792 0.148209,0.3687 0.634146,0.1586 0.09535,-0.041 0.183758,-0.7065 0.05533,-0.034 -0.01712,0.09 -0.0318,0.1812 -0.04769,0.2719 -0.108527,0.553 -0.149534,1.1603 -0.293018,1.6832 -0.200816,0.5771 -0.162378,1.3662 -0.525327,1.7348 -0.206059,-0.083 -0.421677,-0.092 -0.618178,-0.248 -0.156043,-0.1235 -0.268845,-0.9904 -0.344072,-1.3013 -0.12883,-0.5556 -0.233613,-1.1276 -0.293517,-1.7358 -0.127559,-1.0353 0.01763,0.1639 -0.07092,-0.6188 -0.0265,-0.2342 -0.04509,-0.3142 -0.03535,-0.3029 0.380523,0.4411 -0.565006,0.1118 0.554338,0.2501 0.03902,-0.087 0.08146,-0.167 0.117055,-0.2601 0.0082,-0.021 0.01998,-0.1007 0.01238,-0.078 -0.131442,0.3862 -0.182578,0.8875 -0.311008,1.2797 -0.0992,0.3449 -0.203587,0.671 -0.312046,1.0007 -0.09842,0.2992 -0.128467,0.5035 -0.258143,0.7718 -0.06742,0.1395 -0.149531,0.2429 -0.224297,0.3644 -0.19242,0.036 -0.384087,0.1119 -0.577261,0.109 -0.05814,-9e-4 -0.111619,-0.071 -0.164978,-0.1204 -0.230914,-0.2125 -0.407029,-0.5649 -0.523699,-1.0373 -0.06978,-0.3676 -0.125067,-0.7533 -0.216841,-1.0991 -0.03644,-0.09 -0.08302,-0.1606 -0.116314,-0.2558 -0.0088,-0.025 0.02294,0.05 0.03776,0.05 0.136696,-0 0.281396,0.044 0.409161,-0.059 0.210273,-0.1701 0.169629,-0.2693 0.121894,-0.4111 -0.08718,0.4821 -0.130332,1.0104 -0.203268,1.5028 -0.08511,0.7855 -0.145584,1.5863 -0.40294,2.2219 -0.109422,0.1739 -0.191656,0.5149 -0.328266,0.5216 -0.634223,0.031 -0.779537,-0.7677 -0.797484,-1.7845 -0.02797,-0.593 -0.135085,-1.1101 -0.249323,-1.6525 -0.0549,-0.3777 -0.106075,-0.7555 -0.155401,-1.1363 -0.0093,-0.072 -0.05955,-0.169 -0.03125,-0.2125 0.02725,-0.042 0.04827,0.1 0.07241,0.1493 0.245972,-0.1009 0.491944,-0.2018 0.737916,-0.3027 0.01141,-0.066 0.02017,-0.1337 0.03422,-0.1971 0.0051,-0.023 -0.0055,0.05 -0.0071,0.075 -0.02209,0.3495 -0.04463,0.6891 -0.08787,1.0306 -0.01122,0.089 -0.02444,0.176 -0.03666,0.264 -0.07402,0.4725 -0.125079,0.9598 -0.225965,1.4122 -0.07281,0.3735 -0.117257,0.7654 -0.186921,1.1432 -0.07737,0.7315 -0.159721,1.4666 -0.27795,2.1728 -0.03632,0.19 -0.143232,0.8418 -0.243968,0.8962 -0.674962,0.3644 -0.847861,0.1812 -1.000875,-0.9077 -0.08617,-0.5651 -0.132631,-1.1477 -0.202046,-1.7228 -0.068,-0.581 -0.176381,-1.1399 -0.214721,-1.7373 -0.06665,-0.8163 -0.08477,-1.6504 -0.186303,-2.4548 -0.07045,-0.7767 -0.169326,-1.5407 -0.188198,-2.3366 -0.0467,-0.9976 -0.05893,-2.0013 -0.110908,-2.9984 -0.0016,-0.051 -0.02857,-0.7053 -0.01206,-0.7451 0.01745,-0.042 0.0279,0.1147 0.05398,0.1229 1.195234,0.3755 0.524704,0.521 0.817893,-0.1404 0.0239,-0.054 -0.03236,0.1312 -0.04854,0.1968 -0.119482,0.423 -0.148068,0.9338 -0.236415,1.3859 -0.06669,0.6649 -0.07885,1.3563 -0.207985,1.9884 -0.0991,0.4862 -0.208467,0.9532 -0.315798,1.4302 -0.09524,0.5347 -0.200792,1.0584 -0.3159,1.5747 -0.133583,0.5989 -0.217887,1.2412 -0.352793,1.8396 -0.03994,0.2307 -0.08723,0.4561 -0.121372,0.691 -0.08561,0.5891 -0.07279,1.2138 -0.12781,1.8151 -0.08789,0.9818 -0.194449,1.9597 -0.344541,2.9075 -0.03831,0.1473 -0.03646,0.4189 -0.114921,0.4418 -0.849792,0.2478 -0.913229,0.059 -1.026585,-1.1587 -0.07217,-0.5484 -0.196902,-1.0579 -0.268341,-1.6077 -0.06305,-0.462 -0.15404,-0.9032 -0.213334,-1.3678 -0.131779,-0.6524 -0.346684,-1.2191 -0.453294,-1.8989 -0.147097,-0.7867 -0.238191,-1.6019 -0.353538,-2.4107 -0.112396,-0.91 -0.246046,-1.8071 -0.350433,-2.7217 -0.09183,-0.8914 -0.172067,-1.7968 -0.209344,-2.7061 0.309824,-0.1277 0.61725,-0.2853 0.929474,-0.3832 0.01578,-0 10e-4,0.2099 -0.01526,0.4236 -0.02714,0.3555 -0.06846,0.7051 -0.11399,1.0517 -0.09053,0.691 -0.17436,1.3868 -0.254125,2.0834 -0.03891,0.782 -0.09863,1.5614 -0.08189,2.3504 0.0042,0.8527 8.43e-4,1.7057 0.01357,2.5582 0.02538,1.2168 0.04035,2.4359 0.02041,3.6536 -0.01231,0.5171 -0.0036,1.1339 -0.09087,1.628 -0.03965,0.2244 -0.0523,0.5334 -0.15302,0.6415 -0.586357,0.629 -0.583448,0.4599 -0.904267,-0.068 -0.155327,-0.4283 -0.2891,-0.8848 -0.400123,-1.3722 -0.116576,-0.5094 -0.209833,-1.0398 -0.32236,-1.5534 -0.125021,-0.6284 -0.263663,-1.2437 -0.385228,-1.8751 -0.114312,-0.671 -0.191719,-1.3681 -0.311377,-2.0366 -0.176709,-1.1054 -0.278673,-2.2493 -0.418296,-3.3777 -0.07451,-0.7953 -0.138299,-1.5936 -0.195565,-2.3953 -0.0076,-0.107 -0.07202,-0.2929 -0.02282,-0.321 0.05659,-0.032 0.0833,0.1751 0.124957,0.2627 1.057392,-0.6407 0.729647,-0.7671 0.616204,0.6017 -0.06198,0.7451 -0.07465,1.5128 -0.204095,2.229 -0.08324,0.6321 -0.213319,1.2229 -0.308399,1.8472 -0.147966,0.7878 -0.297661,1.5768 -0.471866,2.3401 -0.246172,1.1323 -0.334165,1.9927 -1.079268,1.9165 -0.105592,-0.011 -0.178405,-0.241 -0.267607,-0.3616 -0.129876,-0.332 -0.250447,-0.6798 -0.336334,-1.0738 -0.117759,-0.3854 -0.233109,-0.7861 -0.303985,-1.2216 -0.07932,-0.5281 -0.142109,-1.067 -0.234534,-1.587 -0.02797,-0.1608 -0.164598,-0.817 -0.170593,-0.9537 -0.0058,-0.1326 0.266846,0.967 0.155559,0.225 0.145577,-0.06 0.295558,-0.084 0.43673,-0.1812 0.02501,-0.017 0.06092,-0.1127 0.03947,-0.145 -0.0052,-0.01 -0.203577,0.5346 -0.241596,0.6294 -0.121923,0.4459 -0.189745,0.9317 -0.281451,1.4108 -0.120891,0.4852 -0.370279,1.4697 -0.651313,1.576 -0.171866,0.065 -0.349125,-0.01 -0.523687,-0.01 -0.228039,-0.2043 -0.435842,-0.4901 -0.619444,-0.844 -0.1329534,-0.2012 -0.2683873,-0.4024 -0.4230927,-0.5223 -0.27285,-0.3126 -0.4932194,-0.7462 -0.6976462,-1.2385 -0.027443,-0.079 -0.055727,-0.1563 -0.08233,-0.2364 -0.2943594,-0.8862 0.4451951,0.4735 0.5835944,-0.4527 -6.403e-4,-0.024 0.00915,-0.072 -0.00192,-0.071 -0.015765,0 -0.1784231,0.9882 -0.1905918,1.0792 -0.1284564,0.6806 -0.2671164,1.3802 -0.5520068,1.834 -0.392855,0.7222 -0.6638316,0.9006 -1.2076775,0.8513 -0.2643348,0 -0.5286515,0.01 -0.7929535,0.017 -0.3511788,0.01 -0.702418,0.01 -1.0536085,0.01 -0.4108952,0 -0.8217843,0.03 -1.2327164,0.015 -0.3668284,-0.01 -0.7345212,0 -1.1005047,-0.056 -0.3599699,-0.1964 -0.1086082,-2.2763 0.2513617,-2.0799 z"
       inkscape:connector-curvature="0" />
  </g>
</svg>
