<?xml version="1.0" encoding="UTF-8" standalone="no"?>
<!-- Created with Inkscape (http://www.inkscape.org/) -->

<svg
   xmlns:dc="http://purl.org/dc/elements/1.1/"
   xmlns:cc="http://creativecommons.org/ns#"
   xmlns:rdf="http://www.w3.org/1999/02/22-rdf-syntax-ns#"
   xmlns:svg="http://www.w3.org/2000/svg"
   xmlns="http://www.w3.org/2000/svg"
   xmlns:xlink="http://www.w3.org/1999/xlink"
   xmlns:sodipodi="http://sodipodi.sourceforge.net/DTD/sodipodi-0.dtd"
   xmlns:inkscape="http://www.inkscape.org/namespaces/inkscape"
   width="48"
   height="48"
   id="svg2"
   version="1.1"
   inkscape:version="0.48.4 r9939"
   sodipodi:docname="spyder3.svg">
  <defs
     id="defs4">
    <linearGradient
       id="linearGradient3850">
      <stop
         style="stop-color:#bdbdbd;stop-opacity:1;"
         offset="0"
         id="stop3852" />
      <stop
         style="stop-color:#e0e0e0;stop-opacity:1;"
         offset="1"
         id="stop3854" />
    </linearGradient>
    <linearGradient
       inkscape:collect="always"
       xlink:href="#linearGradient3850"
       id="linearGradient3856"
       x1="24"
       y1="1050.3622"
       x2="24"
       y2="1006.3622"
       gradientUnits="userSpaceOnUse" />
  </defs>
  <sodipodi:namedview
     id="base"
     pagecolor="#ffffff"
     bordercolor="#666666"
     borderopacity="1.0"
     inkscape:pageopacity="0.0"
     inkscape:pageshadow="2"
     inkscape:zoom="8.1906533"
     inkscape:cx="15.093897"
     inkscape:cy="14.654185"
     inkscape:document-units="px"
     inkscape:current-layer="layer1"
     showgrid="true"
     inkscape:snap-bbox="true"
     inkscape:window-width="1301"
     inkscape:window-height="744"
     inkscape:window-x="65"
     inkscape:window-y="24"
     inkscape:window-maximized="1"
     inkscape:snap-nodes="true">
    <inkscape:grid
       type="xygrid"
       id="grid2985"
       empspacing="6"
       visible="true"
       enabled="true"
       snapvisiblegridlinesonly="true" />
  </sodipodi:namedview>
  <metadata
     id="metadata7">
    <rdf:RDF>
      <cc:Work
         rdf:about="">
        <dc:format>image/svg+xml</dc:format>
        <dc:type
           rdf:resource="http://purl.org/dc/dcmitype/StillImage" />
        <dc:title />
      </cc:Work>
    </rdf:RDF>
  </metadata>
  <g
     inkscape:label="Layer 1"
     inkscape:groupmode="layer"
     id="layer1"
     transform="translate(0,-1004.3622)">
    <path
       id="path3788"
       d="m 24,1051.1116 c -21.2715315,0 -23.66257505,-0.089 -23.9375,-15.4063 0.328125,14.4033 2.9375,14.4063 23.9375,14.4063 21,0 23.609375,0 23.9375,-14.4063 -0.274925,15.3174 -2.665968,15.4063 -23.9375,15.4063 z"
       style="opacity:0.20000000000000001;fill:#ffffff;fill-opacity:1;stroke:none"
       inkscape:connector-curvature="0" />
    <path
       style="opacity:1;fill:url(#linearGradient3856);fill-opacity:1;stroke:none"
       d="m 24,1006.3622 c -6,0 -10.5,10e-5 -13.875,0.3438 -1.6875,0.1719 -3.078125,0.4257 -4.25,0.8125 -1.171875,0.3868 -2.125,0.9062 -2.875,1.5937 -0.75,0.6875 -1.328125,1.5508 -1.75,2.625 -0.421875,1.0742 -0.6875,2.3595 -0.875,3.9063 C 0,1018.7373 0,1022.8622 0,1028.3622 c 0,5.5 0,9.6251 0.375,12.7188 0.1875,1.5469 0.453125,2.832 0.875,3.9062 0.421875,1.0742 1,1.9375 1.75,2.625 0.75,0.6875 1.703125,1.2071 2.875,1.5938 1.171875,0.3868 2.5625,0.6407 4.25,0.8125 3.375,0.3438 7.875,0.3437 13.875,0.3437 6,0 10.5,0 13.875,-0.3437 1.6875,-0.1719 3.078125,-0.4258 4.25,-0.8125 1.171875,-0.3868 2.125,-0.9063 2.875,-1.5938 0.75,-0.6875 1.328125,-1.5508 1.75,-2.625 0.421875,-1.0742 0.6875,-2.3594 0.875,-3.9062 0.375,-3.0938 0.375,-7.2188 0.375,-12.7188 0,-5.5 0,-9.625 -0.375,-12.7187 -0.1875,-1.5469 -0.453125,-2.8321 -0.875,-3.9063 -0.421875,-1.0742 -1,-1.9375 -1.75,-2.625 -0.75,-0.6875 -1.703125,-1.207 -2.875,-1.5937 -1.171875,-0.3868 -2.5625,-0.6407 -4.25,-0.8125 C 34.5,1006.3622 30,1006.3622 24,1006.3622 z"
       id="path3772"
       inkscape:connector-curvature="0" />
    <path
       style="fill:#000000;fill-opacity:1;stroke:none;opacity:0.20000000000000001"
       d="M 24 2 C 2.7284685 2 0.33742495 2.0888436 0.0625 17.40625 C 0.390625 3.0029297 3 3 24 3 C 45 3 47.609375 3.0029297 47.9375 17.40625 C 47.662575 2.0888436 45.271532 2 24 2 z "
       transform="translate(0,1004.3622)"
       id="path3770" />
    <g
       id="g3025"
       transform="translate(-50.998,1000.3622)" />
    <g
       id="g3817"
       transform="translate(-55.998,1000.3622)" />
    <g
       id="g3064"
       transform="translate(-109,1010.3622)" />
    <g
       id="g3054"
       transform="translate(-49.998,1002.3622)" />
    <g
       id="g3062"
       transform="translate(-67,1003.3622)" />
    <g
       id="g3045"
       transform="translate(-52.998,1000.3622)" />
    <g
       id="g3830"
       style="opacity:0.2;stroke:#000000;stroke-opacity:1"
       transform="translate(0.5,0.5)">
      <path
         sodipodi:type="star"
         style="fill:none;stroke:#000000;stroke-width:0.94280899;stroke-linecap:round;stroke-linejoin:round;stroke-miterlimit:4;stroke-opacity:1;stroke-dasharray:none;stroke-dashoffset:0"
         id="path3832"
         sodipodi:sides="8"
         sodipodi:cx="24"
         sodipodi:cy="24"
         sodipodi:r1="4.2426405"
         sodipodi:r2="3.9196889"
         sodipodi:arg1="0.78539816"
         sodipodi:arg2="1.1780972"
         inkscape:flatsided="true"
         inkscape:rounded="0"
         inkscape:randomized="0"
         d="M 27,27 24,28.24264 21,27 19.75736,24 21,21 24,19.75736 27,21 l 1.24264,3 z"
         transform="matrix(1.0606602,0,0,1.0606602,-1.4558453,1002.9064)" />
      <path
         transform="matrix(1.5320646,0,0,1.5320646,-12.769549,991.59269)"
         d="M 27,27 24,28.24264 21,27 19.75736,24 21,21 24,19.75736 27,21 l 1.24264,3 z"
         inkscape:randomized="0"
         inkscape:rounded="0"
         inkscape:flatsided="true"
         sodipodi:arg2="1.1780972"
         sodipodi:arg1="0.78539816"
         sodipodi:r2="3.9196889"
         sodipodi:r1="4.2426405"
         sodipodi:cy="24"
         sodipodi:cx="24"
         sodipodi:sides="8"
         id="path3834"
         style="fill:none;stroke:#000000;stroke-width:0.65271401;stroke-linecap:round;stroke-linejoin:round;stroke-miterlimit:4;stroke-opacity:1;stroke-dasharray:none;stroke-dashoffset:0"
         sodipodi:type="star" />
      <path
         sodipodi:type="star"
         style="fill:none;stroke:#000000;stroke-width:0.49913657;stroke-linecap:round;stroke-linejoin:round;stroke-miterlimit:4;stroke-opacity:1;stroke-dasharray:none;stroke-dashoffset:0"
         id="path3836"
         sodipodi:sides="8"
         sodipodi:cx="24"
         sodipodi:cy="24"
         sodipodi:r1="4.2426405"
         sodipodi:r2="3.9196889"
         sodipodi:arg1="0.78539816"
         sodipodi:arg2="1.1780972"
         inkscape:flatsided="true"
         inkscape:rounded="0"
         inkscape:randomized="0"
         d="M 27,27 24,28.24264 21,27 19.75736,24 21,21 24,19.75736 27,21 l 1.24264,3 z"
         transform="matrix(2.0034598,0,0,2.0034598,-24.083033,980.27921)" />
      <path
         transform="matrix(2.4748733,0,0,2.4748733,-35.396958,968.96529)"
         d="M 27,27 24,28.24264 21,27 19.75736,24 21,21 24,19.75736 27,21 l 1.24264,3 z"
         inkscape:randomized="0"
         inkscape:rounded="0"
         inkscape:flatsided="true"
         sodipodi:arg2="1.1780972"
         sodipodi:arg1="0.78539816"
         sodipodi:r2="3.9196889"
         sodipodi:r1="4.2426405"
         sodipodi:cy="24"
         sodipodi:cx="24"
         sodipodi:sides="8"
         id="path3838"
         style="fill:none;stroke:#000000;stroke-width:0.40406111;stroke-linecap:round;stroke-linejoin:round;stroke-miterlimit:4;stroke-opacity:1;stroke-dasharray:none;stroke-dashoffset:0"
         sodipodi:type="star" />
      <path
         sodipodi:type="star"
         style="fill:none;stroke:#000000;stroke-width:0.3394126;stroke-linecap:round;stroke-linejoin:round;stroke-miterlimit:4;stroke-opacity:1;stroke-dasharray:none;stroke-dashoffset:0"
         id="path3840"
         sodipodi:sides="8"
         sodipodi:cx="24"
         sodipodi:cy="24"
         sodipodi:r1="4.2426405"
         sodipodi:r2="3.9196889"
         sodipodi:arg1="0.78539816"
         sodipodi:arg2="1.1780972"
         inkscape:flatsided="true"
         inkscape:rounded="0"
         inkscape:randomized="0"
         d="M 27,27 24,28.24264 21,27 19.75736,24 21,21 24,19.75736 27,21 l 1.24264,3 z"
         transform="matrix(2.9462668,0,0,2.9462668,-46.710402,957.65185)" />
      <path
         style="fill:none;stroke:#000000;stroke-width:1px;stroke-linecap:round;stroke-linejoin:miter;stroke-opacity:1"
         d="m 9,24 30,0"
         id="path3842"
         inkscape:connector-curvature="0"
         transform="translate(0,1004.3622)" />
      <path
         inkscape:connector-curvature="0"
         id="path3844"
         d="m 13.393398,1038.9688 21.213204,-21.2132"
         style="fill:none;stroke:#000000;stroke-width:1px;stroke-linecap:round;stroke-linejoin:miter;stroke-opacity:1" />
      <path
         style="fill:none;stroke:#000000;stroke-width:1px;stroke-linecap:round;stroke-linejoin:miter;stroke-opacity:1"
         d="m 23.999999,1043.3622 2e-6,-30"
         id="path3846"
         inkscape:connector-curvature="0" />
      <path
         inkscape:connector-curvature="0"
         id="path3848"
         d="M 34.606601,1038.9688 13.393399,1017.7556"
         style="fill:none;stroke:#000000;stroke-width:1px;stroke-linecap:round;stroke-linejoin:miter;stroke-opacity:1" />
    </g>
    <g
       id="g3819">
      <path
         transform="matrix(1.0606602,0,0,1.0606602,-1.4558453,1002.9064)"
         d="M 27,27 24,28.24264 21,27 19.75736,24 21,21 24,19.75736 27,21 l 1.24264,3 z"
         inkscape:randomized="0"
         inkscape:rounded="0"
         inkscape:flatsided="true"
         sodipodi:arg2="1.1780972"
         sodipodi:arg1="0.78539816"
         sodipodi:r2="3.9196889"
         sodipodi:r1="4.2426405"
         sodipodi:cy="24"
         sodipodi:cx="24"
         sodipodi:sides="8"
         id="path3041"
         style="fill:none;stroke:#198fbf;stroke-width:0.94280898999999996;stroke-linecap:round;stroke-linejoin:round;stroke-miterlimit:4;stroke-opacity:1;stroke-dasharray:none;stroke-dashoffset:0"
         sodipodi:type="star" />
      <path
         sodipodi:type="star"
         style="fill:none;stroke:#19bf41;stroke-width:0.65271400999999996;stroke-linecap:round;stroke-linejoin:round;stroke-miterlimit:4;stroke-opacity:1;stroke-dasharray:none;stroke-dashoffset:0"
         id="path3811"
         sodipodi:sides="8"
         sodipodi:cx="24"
         sodipodi:cy="24"
         sodipodi:r1="4.2426405"
         sodipodi:r2="3.9196889"
         sodipodi:arg1="0.78539816"
         sodipodi:arg2="1.1780972"
         inkscape:flatsided="true"
         inkscape:rounded="0"
         inkscape:randomized="0"
         d="M 27,27 24,28.24264 21,27 19.75736,24 21,21 24,19.75736 27,21 l 1.24264,3 z"
         transform="matrix(1.5320646,0,0,1.5320646,-12.769549,991.59269)" />
      <path
         transform="matrix(2.0034598,0,0,2.0034598,-24.083033,980.27921)"
         d="M 27,27 24,28.24264 21,27 19.75736,24 21,21 24,19.75736 27,21 l 1.24264,3 z"
         inkscape:randomized="0"
         inkscape:rounded="0"
         inkscape:flatsided="true"
         sodipodi:arg2="1.1780972"
         sodipodi:arg1="0.78539816"
         sodipodi:r2="3.9196889"
         sodipodi:r1="4.2426405"
         sodipodi:cy="24"
         sodipodi:cx="24"
         sodipodi:sides="8"
         id="path3813"
         style="fill:none;stroke:#7bbf19;stroke-width:0.49913657000000000;stroke-linecap:round;stroke-linejoin:round;stroke-miterlimit:4;stroke-opacity:1;stroke-dasharray:none;stroke-dashoffset:0"
         sodipodi:type="star" />
      <path
         sodipodi:type="star"
         style="fill:none;stroke:#bf8719;stroke-width:0.40406111000000000;stroke-linecap:round;stroke-linejoin:round;stroke-miterlimit:4;stroke-opacity:1;stroke-dasharray:none;stroke-dashoffset:0"
         id="path3815"
         sodipodi:sides="8"
         sodipodi:cx="24"
         sodipodi:cy="24"
         sodipodi:r1="4.2426405"
         sodipodi:r2="3.9196889"
         sodipodi:arg1="0.78539816"
         sodipodi:arg2="1.1780972"
         inkscape:flatsided="true"
         inkscape:rounded="0"
         inkscape:randomized="0"
         d="M 27,27 24,28.24264 21,27 19.75736,24 21,21 24,19.75736 27,21 l 1.24264,3 z"
         transform="matrix(2.4748733,0,0,2.4748733,-35.396958,968.96529)" />
      <path
         transform="matrix(2.9462668,0,0,2.9462668,-46.710402,957.65185)"
         d="M 27,27 24,28.24264 21,27 19.75736,24 21,21 24,19.75736 27,21 l 1.24264,3 z"
         inkscape:randomized="0"
         inkscape:rounded="0"
         inkscape:flatsided="true"
         sodipodi:arg2="1.1780972"
         sodipodi:arg1="0.78539816"
         sodipodi:r2="3.9196889"
         sodipodi:r1="4.2426405"
         sodipodi:cy="24"
         sodipodi:cx="24"
         sodipodi:sides="8"
         id="path3817"
         style="fill:none;stroke:#bf1919;stroke-width:0.33941260000000001;stroke-linecap:round;stroke-linejoin:round;stroke-miterlimit:4;stroke-opacity:1;stroke-dasharray:none;stroke-dashoffset:0"
         sodipodi:type="star" />
      <path
         transform="translate(0,1004.3622)"
         inkscape:connector-curvature="0"
         id="path3033"
         d="m 9,24 30,0"
         style="fill:none;stroke:#080f14;stroke-width:1px;stroke-linecap:round;stroke-linejoin:miter;stroke-opacity:1" />
      <path
         style="fill:none;stroke:#080f14;stroke-width:1px;stroke-linecap:round;stroke-linejoin:miter;stroke-opacity:1"
         d="m 13.393398,1038.9688 21.213204,-21.2132"
         id="path3035"
         inkscape:connector-curvature="0" />
      <path
         inkscape:connector-curvature="0"
         id="path3037"
         d="m 23.999999,1043.3622 2e-6,-30"
         style="fill:none;stroke:#080f14;stroke-width:1px;stroke-linecap:round;stroke-linejoin:miter;stroke-opacity:1" />
      <path
         style="fill:none;stroke:#080f14;stroke-width:1px;stroke-linecap:round;stroke-linejoin:miter;stroke-opacity:1"
         d="M 34.606601,1038.9688 13.393399,1017.7556"
         id="path3039"
         inkscape:connector-curvature="0" />
    </g>
  </g>
</svg>
