<?xml version="1.0" encoding="UTF-8" standalone="no"?>
<!-- Created with Inkscape (http://www.inkscape.org/) -->

<svg
   xmlns:dc="http://purl.org/dc/elements/1.1/"
   xmlns:cc="http://creativecommons.org/ns#"
   xmlns:rdf="http://www.w3.org/1999/02/22-rdf-syntax-ns#"
   xmlns:svg="http://www.w3.org/2000/svg"
   xmlns="http://www.w3.org/2000/svg"
   xmlns:sodipodi="http://sodipodi.sourceforge.net/DTD/sodipodi-0.dtd"
   xmlns:inkscape="http://www.inkscape.org/namespaces/inkscape"
   width="48"
   height="48"
   id="svg2"
   version="1.1"
   inkscape:version="0.48.4 r9939"
   sodipodi:docname="sqliteman.svg">
  <defs
     id="defs4" />
  <sodipodi:namedview
     id="base"
     pagecolor="#ffffff"
     bordercolor="#666666"
     borderopacity="1.0"
     inkscape:pageopacity="0.0"
     inkscape:pageshadow="2"
     inkscape:zoom="11.583333"
     inkscape:cx="8.5614159"
     inkscape:cy="22.628171"
     inkscape:document-units="px"
     inkscape:current-layer="layer1"
     showgrid="true"
     inkscape:snap-bbox="true"
     inkscape:window-width="1301"
     inkscape:window-height="744"
     inkscape:window-x="65"
     inkscape:window-y="24"
     inkscape:window-maximized="1">
    <inkscape:grid
       type="xygrid"
       id="grid2985"
       empspacing="6"
       visible="true"
       enabled="true"
       snapvisiblegridlinesonly="true" />
  </sodipodi:namedview>
  <metadata
     id="metadata7">
    <rdf:RDF>
      <cc:Work
         rdf:about="">
        <dc:format>image/svg+xml</dc:format>
        <dc:type
           rdf:resource="http://purl.org/dc/dcmitype/StillImage" />
        <dc:title />
      </cc:Work>
    </rdf:RDF>
  </metadata>
  <g
     inkscape:label="Layer 1"
     inkscape:groupmode="layer"
     id="layer1"
     transform="translate(0,-1004.3622)">
    <path
       id="path3788"
       d="m 24,1051.1116 c -21.2715315,0 -23.66257505,-0.089 -23.9375,-15.4063 0.328125,14.4033 2.9375,14.4063 23.9375,14.4063 21,0 23.609375,0 23.9375,-14.4063 -0.274925,15.3174 -2.665968,15.4063 -23.9375,15.4063 z"
       style="opacity:0.20000000000000001;fill:#ffffff;fill-opacity:1;stroke:none"
       inkscape:connector-curvature="0" />
    <path
       style="fill:#78909c;fill-opacity:1;stroke:none"
       d="m 24,1006.3622 c -24,0 -24,0 -24,22 0,22 0,22 24,22 24,0 24,0 24,-22 0,-22 0,-22 -24,-22 z"
       id="path3757"
       inkscape:connector-curvature="0"
       sodipodi:nodetypes="zzzzz" />
    <path
       style="fill:#000000;fill-opacity:1;stroke:none;opacity:0.20000000000000001"
       d="M 24 2 C 2.7284685 2 0.33742495 2.0888436 0.0625 17.40625 C 0.390625 3.0029297 3 3 24 3 C 45 3 47.609375 3.0029297 47.9375 17.40625 C 47.662575 2.0888436 45.271532 2 24 2 z "
       transform="translate(0,1004.3622)"
       id="path3770" />
    <g
       id="g3006"
       style="opacity:0.2;fill:none;stroke:#000000;stroke-opacity:1"
       transform="translate(0.99999998,1)">
      <path
         sodipodi:type="arc"
         style="fill:none;stroke:#000000;stroke-width:2.4000001;stroke-miterlimit:4;stroke-opacity:1;stroke-dasharray:none"
         id="path3008"
         sodipodi:cx="24"
         sodipodi:cy="24"
         sodipodi:rx="12"
         sodipodi:ry="6"
         d="m 36,24 c 0,3.313708 -5.372583,6 -12,6 -6.627417,0 -12,-2.686292 -12,-6 0,-3.313708 5.372583,-6 12,-6 6.627417,0 12,2.686292 12,6 z"
         transform="matrix(0.83333333,0,0,0.83333333,4.0000001,1003.3622)" />
      <path
         style="fill:none;stroke:#000000;stroke-width:2;stroke-miterlimit:4;stroke-opacity:1;stroke-dasharray:none"
         d="m 14,1023.3622 0,13 c 0,2.7614 4.477153,5 10,5 5.522847,0 10,-2.2386 10,-5 l 0,-13"
         id="path3010"
         inkscape:connector-curvature="0"
         sodipodi:nodetypes="cscc" />
      <path
         style="fill:none;stroke:#000000;stroke-width:2;stroke-miterlimit:4;stroke-opacity:1;stroke-dasharray:none"
         d="m 24,1024.3622 c -5.522847,0 -10,2.2386 -10,5 0,2.7614 4.477153,5 10,5 5.522847,0 10,-2.2386 10,-5 0,-2.7614 -4.477153,-5 -10,-5 z"
         id="path3012"
         inkscape:connector-curvature="0"
         sodipodi:nodetypes="sssss" />
    </g>
    <g
       id="g3001">
      <path
         transform="matrix(0.83333333,0,0,0.83333333,4.0000001,1003.3622)"
         d="m 36,24 a 12,6 0 1 1 -24,0 12,6 0 1 1 24,0 z"
         sodipodi:ry="6"
         sodipodi:rx="12"
         sodipodi:cy="24"
         sodipodi:cx="24"
         id="path2994"
         style="fill:none;stroke:#f2f2f2;stroke-width:2.4000001;stroke-miterlimit:4;stroke-opacity:1;stroke-dasharray:none"
         sodipodi:type="arc" />
      <path
         sodipodi:nodetypes="cscc"
         inkscape:connector-curvature="0"
         id="path3764"
         d="m 14,1023.3622 0,13 c 0,2.7614 4.477153,5 10,5 5.522847,0 10,-2.2386 10,-5 l 0,-13"
         style="fill:none;stroke:#f2f2f2;stroke-width:2;stroke-miterlimit:4;stroke-opacity:1;stroke-dasharray:none" />
      <path
         sodipodi:nodetypes="sssss"
         inkscape:connector-curvature="0"
         id="path2998"
         d="m 24,1024.3622 c -5.522847,0 -10,2.2386 -10,5 0,2.7614 4.477153,5 10,5 5.522847,0 10,-2.2386 10,-5 0,-2.7614 -4.477153,-5 -10,-5 z"
         style="fill:none;stroke:#f2f2f2;stroke-width:2;stroke-miterlimit:4;stroke-opacity:1;stroke-dasharray:none" />
    </g>
  </g>
</svg>
