<?xml version="1.0" encoding="UTF-8" standalone="no"?>
<!-- Created with Inkscape (http://www.inkscape.org/) -->

<svg
   xmlns:dc="http://purl.org/dc/elements/1.1/"
   xmlns:cc="http://creativecommons.org/ns#"
   xmlns:rdf="http://www.w3.org/1999/02/22-rdf-syntax-ns#"
   xmlns:svg="http://www.w3.org/2000/svg"
   xmlns="http://www.w3.org/2000/svg"
   xmlns:xlink="http://www.w3.org/1999/xlink"
   xmlns:sodipodi="http://sodipodi.sourceforge.net/DTD/sodipodi-0.dtd"
   xmlns:inkscape="http://www.inkscape.org/namespaces/inkscape"
   width="48"
   height="48"
   id="svg2"
   version="1.1"
   inkscape:version="0.48.4 r9939"
   sodipodi:docname="steam_icon_49610.svg">
  <defs
     id="defs4">
    <linearGradient
       id="linearGradient3779">
      <stop
         style="stop-color:#000000;stop-opacity:1;"
         offset="0"
         id="stop3781" />
      <stop
         style="stop-color:#ffffff;stop-opacity:1;"
         offset="1"
         id="stop3783" />
    </linearGradient>
    <linearGradient
       inkscape:collect="always"
       xlink:href="#linearGradient3779"
       id="linearGradient3795"
       gradientUnits="userSpaceOnUse"
       gradientTransform="translate(-20,0)"
       spreadMethod="repeat"
       x1="24"
       y1="1028.3622"
       x2="45"
       y2="1007.3622" />
    <linearGradient
       inkscape:collect="always"
       xlink:href="#linearGradient3779"
       id="linearGradient3797"
       gradientUnits="userSpaceOnUse"
       gradientTransform="translate(-20,0)"
       spreadMethod="repeat"
       x1="44"
       y1="1048.3622"
       x2="15"
       y2="1019.3622" />
    <linearGradient
       gradientTransform="matrix(0,-1,1,0,-1.5e-6,47.999998)"
       gradientUnits="userSpaceOnUse"
       x2="47"
       x1="1"
       id="linearGradient3764">
      <stop
         id="stop3003"
         stop-opacity="1"
         stop-color="#f4c830" />
      <stop
         id="stop3005"
         stop-opacity="1"
         stop-color="#f5ce44"
         offset="1" />
    </linearGradient>
    <linearGradient
       inkscape:collect="always"
       xlink:href="#linearGradient3764"
       id="linearGradient3137"
       gradientUnits="userSpaceOnUse"
       gradientTransform="matrix(0,-1,1,0,-1.5e-6,47.999998)"
       x1="1"
       x2="47" />
    <linearGradient
       inkscape:collect="always"
       xlink:href="#linearGradient3764"
       id="linearGradient3140"
       gradientUnits="userSpaceOnUse"
       gradientTransform="matrix(0,-1,1,0,-67.000001,1052.3622)"
       x1="1"
       x2="47" />
  </defs>
  <sodipodi:namedview
     id="base"
     pagecolor="#ffffff"
     bordercolor="#666666"
     borderopacity="1.0"
     inkscape:pageopacity="0.0"
     inkscape:pageshadow="2"
     inkscape:zoom="4.0953268"
     inkscape:cx="-15.37471"
     inkscape:cy="0.28730003"
     inkscape:document-units="px"
     inkscape:current-layer="layer1"
     showgrid="true"
     inkscape:snap-bbox="true"
     inkscape:window-width="1301"
     inkscape:window-height="744"
     inkscape:window-x="65"
     inkscape:window-y="24"
     inkscape:window-maximized="1"
     inkscape:snap-global="true"
     showguides="true"
     inkscape:guide-bbox="true">
    <inkscape:grid
       type="xygrid"
       id="grid2985"
       empspacing="6"
       visible="true"
       enabled="true"
       snapvisiblegridlinesonly="true" />
  </sodipodi:namedview>
  <metadata
     id="metadata7">
    <rdf:RDF>
      <cc:Work
         rdf:about="">
        <dc:format>image/svg+xml</dc:format>
        <dc:type
           rdf:resource="http://purl.org/dc/dcmitype/StillImage" />
        <dc:title />
      </cc:Work>
    </rdf:RDF>
  </metadata>
  <g
     inkscape:label="Layer 1"
     inkscape:groupmode="layer"
     id="layer1"
     transform="translate(0,-1004.3622)">
    <path
       id="path3788"
       d="m 24,1051.1116 c -21.2715315,0 -23.66257505,-0.089 -23.9375,-15.4063 0.328125,14.4033 2.9375,14.4063 23.9375,14.4063 21,0 23.609375,0 23.9375,-14.4063 -0.274925,15.3174 -2.665968,15.4063 -23.9375,15.4063 z"
       style="opacity:0.20000000000000001;fill:#ffffff;fill-opacity:1;stroke:none"
       inkscape:connector-curvature="0" />
    <path
       style="fill:#f4c932;fill-opacity:1;stroke:none"
       d="m 24,1006.3622 c -24,0 -24,0 -24,22 0,22 0,22 24,22 24,0 24,0 24,-22 0,-22 0,-22 -24,-22 z"
       id="path3757"
       inkscape:connector-curvature="0"
       sodipodi:nodetypes="zzzzz" />
    <g
       id="g3791"
       transform="translate(20,0)">
      <path
         style="opacity:0.02999998;fill:url(#linearGradient3795);fill-opacity:1;stroke:none"
         d="m 4,1006.3622 c -24,0 -24,0 -24,22 0,22 0,22 24,22 24,0 24,0 24,-22 0,-22 0,-22 -24,-22 z"
         id="path3777"
         inkscape:connector-curvature="0"
         sodipodi:nodetypes="zzzzz" />
      <path
         sodipodi:nodetypes="zzzzz"
         inkscape:connector-curvature="0"
         id="path3787"
         d="m 4,1006.3622 c -24,0 -24,0 -24,22 0,22 0,22 24,22 24,0 24,0 24,-22 0,-22 0,-22 -24,-22 z"
         style="opacity:0.02999998;fill:url(#linearGradient3797);fill-opacity:1;stroke:none" />
    </g>
    <path
       style="fill:#000000;fill-opacity:1;stroke:none;opacity:0.20000000000000001"
       d="M 24 2 C 2.7284685 2 0.33742495 2.0888436 0.0625 17.40625 C 0.390625 3.0029297 3 3 24 3 C 45 3 47.609375 3.0029297 47.9375 17.40625 C 47.662575 2.0888436 45.271532 2 24 2 z "
       transform="translate(0,1004.3622)"
       id="path3770" />
    <path
       style="fill:#000000;fill-opacity:1;stroke:none;opacity:0.20000000000000001"
       d="M 24 2 C 7.2405624 2 2.2369698 2.0788791 0.71875 9.59375 C 2.3300781 2.5289866 7.5 2.53125 24 2.53125 C 40.5 2.53125 45.669922 2.5289866 47.28125 9.59375 C 45.76303 2.0788791 40.759438 2 24 2 z M 47.28125 9.59375 C 47.354492 9.9148756 47.409424 10.242768 47.46875 10.59375 C 47.41561 10.240351 47.346891 9.9186608 47.28125 9.59375 z M 0.71875 9.59375 C 0.65310868 9.9186608 0.58439008 10.240351 0.53125 10.59375 C 0.59057617 10.242768 0.64550781 9.9148756 0.71875 9.59375 z "
       transform="translate(0,1004.3622)"
       id="path3012" />
    <g
       id="g3032"
       transform="translate(48,1007.3622)" />
    <path
       id="path3041"
       d="m 25,1015.3622 c -8.285,0 -15,6.715 -15,15 0,8.285 6.715,15 15,15 8.285,0 15,-6.715 15,-15 0,-8.285 -6.715,-15 -15,-15 m 0,1.5 c 7.449,0 13.5,6.05 13.5,13.5 0,7.449 -6.05,13.5 -13.5,13.5 -7.449,0 -13.5,-6.05 -13.5,-13.5 0,-7.449 6.05,-13.5 13.5,-13.5 m 0,0"
       inkscape:connector-curvature="0"
       style="opacity:0.2;fill:#000000;fill-opacity:1;fill-rule:nonzero;stroke:none" />
    <path
       id="path3043"
       stroke-miterlimit="4"
       d="m 25.738,1039.6922 c 1.332,0.398 3.996,-0.797 5.391,-2.586"
       inkscape:connector-curvature="0"
       style="opacity:0.1;fill:#000000;stroke:#2d2d2d;stroke-width:1;stroke-linecap:butt;stroke-linejoin:miter;stroke-miterlimit:4;stroke-opacity:1" />
    <path
       id="path3045"
       d="m 12.375,1026.9602 c 1.422,-0.656 3.48,-1.105 5.559,-1.172 2.289,0.055 5.113,0.023 6.277,0.887 l 2.289,-0.023 c 0.629,-1.01 2.582,-1.246 4.957,-1.246 l -0.352,1.039 0.84,0.078 -2.164,3.281 0.027,0.586 3.543,-2.465 -0.484,-0.84 c 1.238,-1.242 1.148,-1.254 1.781,-1.984 0.855,0.07 1.688,0.195 2.414,0.535 -0.016,1.813 0.199,3.652 -0.914,5.34 -1.539,1.063 -3.578,1.809 -8.184,0.863 -0.52,-0.141 -1.242,-1.809 -1.625,-2.883 -0.191,-0.777 -2.047,-0.754 -2.211,0.063 -0.492,1.016 -0.898,2.652 -1.477,2.949 -2.645,1.406 -7.363,1.262 -8.516,0.582 -1.297,-0.605 -1.855,-3.992 -1.773,-5.586 m 0.012,0"
       inkscape:connector-curvature="0"
       style="opacity:0.1;fill:#000000;fill-opacity:1;fill-rule:nonzero;stroke:none" />
    <path
       id="path3053"
       d="m 24,1014.3622 c -8.285,0 -15,6.715 -15,15 0,8.285 6.715,15 15,15 8.285,0 15,-6.715 15,-15 0,-8.285 -6.715,-15 -15,-15 m 0,1.5 c 7.449,0 13.5,6.05 13.5,13.5 0,7.449 -6.05,13.5 -13.5,13.5 -7.449,0 -13.5,-6.05 -13.5,-13.5 0,-7.449 6.05,-13.5 13.5,-13.5 m 0,0"
       inkscape:connector-curvature="0"
       style="fill:#2d2d2d;fill-opacity:1;fill-rule:nonzero;stroke:none" />
    <path
       id="path3055"
       stroke-miterlimit="4"
       d="m 24.738,1038.6922 c 1.332,0.398 3.996,-0.797 5.391,-2.586"
       inkscape:connector-curvature="0"
       style="fill:none;stroke:#2d2d2d;stroke-width:1;stroke-linecap:butt;stroke-linejoin:miter;stroke-miterlimit:4;stroke-opacity:1" />
    <path
       id="path3057"
       d="m 11.375,1025.9602 c 1.422,-0.656 3.48,-1.105 5.559,-1.172 2.289,0.055 5.113,0.023 6.277,0.887 l 2.289,-0.023 c 0.629,-1.01 2.582,-1.246 4.957,-1.246 l -0.352,1.039 0.84,0.078 -2.164,3.281 0.027,0.586 3.543,-2.465 -0.484,-0.84 c 1.238,-1.242 1.148,-1.254 1.781,-1.984 0.855,0.07 1.688,0.195 2.414,0.535 -0.016,1.813 0.199,3.652 -0.914,5.34 -1.539,1.063 -3.578,1.809 -8.184,0.863 -0.52,-0.141 -1.242,-1.809 -1.625,-2.883 -0.191,-0.777 -2.047,-0.754 -2.211,0.063 -0.492,1.016 -0.898,2.652 -1.477,2.949 -2.645,1.406 -7.363,1.262 -8.516,0.582 -1.297,-0.605 -1.855,-3.992 -1.773,-5.586 m 0.012,0"
       inkscape:connector-curvature="0"
       style="fill:#2d2d2d;fill-opacity:1;fill-rule:nonzero;stroke:none" />
  </g>
</svg>
