<?xml version="1.0" encoding="UTF-8" standalone="no"?>
<!-- Created with Inkscape (http://www.inkscape.org/) -->

<svg
   xmlns:dc="http://purl.org/dc/elements/1.1/"
   xmlns:cc="http://creativecommons.org/ns#"
   xmlns:rdf="http://www.w3.org/1999/02/22-rdf-syntax-ns#"
   xmlns:svg="http://www.w3.org/2000/svg"
   xmlns="http://www.w3.org/2000/svg"
   xmlns:xlink="http://www.w3.org/1999/xlink"
   xmlns:sodipodi="http://sodipodi.sourceforge.net/DTD/sodipodi-0.dtd"
   xmlns:inkscape="http://www.inkscape.org/namespaces/inkscape"
   width="48"
   height="48"
   id="svg2"
   version="1.1"
   inkscape:version="0.48.4 r9939"
   sodipodi:docname="steam_icon_4000.svg">
  <defs
     id="defs4">
    <linearGradient
       id="linearGradient3793">
      <stop
         style="stop-color:#e6e6e6;stop-opacity:1;"
         offset="0"
         id="stop3796" />
      <stop
         style="stop-color:#ffffff;stop-opacity:1;"
         offset="1"
         id="stop3798" />
    </linearGradient>
    <linearGradient
       id="linearGradient3781">
      <stop
         style="stop-color:#00b0ff;stop-opacity:1;"
         offset="0"
         id="stop3783" />
      <stop
         style="stop-color:#79d6ff;stop-opacity:1;"
         offset="1"
         id="stop3785" />
    </linearGradient>
    <linearGradient
       inkscape:collect="always"
       xlink:href="#linearGradient3781"
       id="linearGradient3787"
       x1="24"
       y1="1050.3622"
       x2="24"
       y2="1006.3622"
       gradientUnits="userSpaceOnUse" />
    <linearGradient
       inkscape:collect="always"
       xlink:href="#linearGradient3793"
       id="linearGradient3800"
       x1="24"
       y1="38"
       x2="23"
       y2="9"
       gradientUnits="userSpaceOnUse" />
    <linearGradient
       inkscape:collect="always"
       xlink:href="#linearGradient3793"
       id="linearGradient3806"
       gradientUnits="userSpaceOnUse"
       x1="24"
       y1="38"
       x2="23"
       y2="9"
       gradientTransform="translate(0.6104519,1004.9727)" />
    <linearGradient
       inkscape:collect="always"
       xlink:href="#linearGradient3793"
       id="linearGradient3808"
       gradientUnits="userSpaceOnUse"
       x1="24"
       y1="38"
       x2="23"
       y2="9" />
    <linearGradient
       inkscape:collect="always"
       xlink:href="#linearGradient3793"
       id="linearGradient3815"
       gradientUnits="userSpaceOnUse"
       x1="24"
       y1="38"
       x2="23"
       y2="9"
       gradientTransform="translate(-0.4316547,1003.9307)" />
    <linearGradient
       inkscape:collect="always"
       xlink:href="#linearGradient3793"
       id="linearGradient3817"
       gradientUnits="userSpaceOnUse"
       x1="24"
       y1="38"
       x2="23"
       y2="9" />
  </defs>
  <sodipodi:namedview
     id="base"
     pagecolor="#ffffff"
     bordercolor="#666666"
     borderopacity="1.0"
     inkscape:pageopacity="0.0"
     inkscape:pageshadow="2"
     inkscape:zoom="8.1906533"
     inkscape:cx="-4.7172038"
     inkscape:cy="35.301576"
     inkscape:document-units="px"
     inkscape:current-layer="layer1"
     showgrid="true"
     inkscape:snap-bbox="true"
     inkscape:window-width="1301"
     inkscape:window-height="744"
     inkscape:window-x="65"
     inkscape:window-y="24"
     inkscape:window-maximized="1">
    <inkscape:grid
       type="xygrid"
       id="grid2985"
       empspacing="6"
       visible="true"
       enabled="true"
       snapvisiblegridlinesonly="true" />
  </sodipodi:namedview>
  <metadata
     id="metadata7">
    <rdf:RDF>
      <cc:Work
         rdf:about="">
        <dc:format>image/svg+xml</dc:format>
        <dc:type
           rdf:resource="http://purl.org/dc/dcmitype/StillImage" />
        <dc:title />
      </cc:Work>
    </rdf:RDF>
  </metadata>
  <g
     inkscape:label="Layer 1"
     inkscape:groupmode="layer"
     id="layer1"
     transform="translate(0,-1004.3622)">
    <path
       id="path3788"
       d="m 24,1051.1116 c -21.2715315,0 -23.66257505,-0.089 -23.9375,-15.4063 0.328125,14.4033 2.9375,14.4063 23.9375,14.4063 21,0 23.609375,0 23.9375,-14.4063 -0.274925,15.3174 -2.665968,15.4063 -23.9375,15.4063 z"
       style="opacity:0.20000000000000001;fill:#ffffff;fill-opacity:1;stroke:none"
       inkscape:connector-curvature="0" />
    <path
       style="fill:url(#linearGradient3787);fill-opacity:1;stroke:none"
       d="m 24,1006.3622 c -24,0 -24,0 -24,22 0,22 0,22 24,22 24,0 24,0 24,-22 0,-22 0,-22 -24,-22 z"
       id="path3757"
       inkscape:connector-curvature="0"
       sodipodi:nodetypes="zzzzz" />
    <path
       style="fill:#000000;fill-opacity:1;stroke:none;opacity:0.20000000000000001"
       d="M 24 2 C 2.7284685 2 0.33742495 2.0888436 0.0625 17.40625 C 0.390625 3.0029297 3 3 24 3 C 45 3 47.609375 3.0029297 47.9375 17.40625 C 47.662575 2.0888436 45.271532 2 24 2 z "
       transform="translate(0,1004.3622)"
       id="path3770" />
    <path
       id="path3791"
       d="m 24,1015.3622 c -4.946883,0 -9,4.0531 -9,9 0,4.9469 4.053117,9 9,9 1.840027,0 3.571067,-0.5735 5,-1.5312 l 0,2.5312 c 0,2.8046 -2.195408,5 -5,5 -1.736782,0 -3.232143,-0.8491 -4.125,-2.1562 l -3.21875,2.3437 c 1.633985,2.3028 4.320381,3.8125 7.34375,3.8125 4.951408,0 9,-4.0486 9,-9 l 0,-10 0,-9 -4,0 0,1.5313 c -1.428933,-0.9578 -3.159973,-1.5313 -5,-1.5313 z m 0,4 c 2.785123,0 5,2.2148 5,5 0,2.7851 -2.214877,5 -5,5 -2.785122,0 -5,-2.2149 -5,-5 0,-2.7852 2.214878,-5 5,-5 z"
       style="font-size:medium;font-style:normal;font-variant:normal;font-weight:normal;font-stretch:normal;text-indent:0;text-align:start;text-decoration:none;line-height:normal;letter-spacing:normal;word-spacing:normal;text-transform:none;direction:ltr;block-progression:tb;writing-mode:lr-tb;text-anchor:start;baseline-shift:baseline;opacity:0.2;color:#000000;fill:#000000;fill-opacity:1;stroke:none;stroke-width:1;marker:none;visibility:visible;display:inline;overflow:visible;enable-background:accumulate;font-family:Sans;-inkscape-font-specification:Sans"
       inkscape:connector-curvature="0" />
    <path
       style="font-size:medium;font-style:normal;font-variant:normal;font-weight:normal;font-stretch:normal;text-indent:0;text-align:start;text-decoration:none;line-height:normal;letter-spacing:normal;word-spacing:normal;text-transform:none;direction:ltr;block-progression:tb;writing-mode:lr-tb;text-anchor:start;baseline-shift:baseline;opacity:1;color:#000000;fill:url(#linearGradient3800);fill-opacity:1;stroke:none;stroke-width:1;marker:none;visibility:visible;display:inline;overflow:visible;enable-background:accumulate;font-family:Sans;-inkscape-font-specification:Sans;stroke-opacity:1;stroke-miterlimit:4;stroke-dasharray:none"
       d="M 23 10 C 18.053117 10 14 14.0531 14 19 C 14 23.9469 18.053117 28 23 28 C 24.840027 28 26.571067 27.426462 28 26.46875 L 28 29 C 28 31.8046 25.804592 34 23 34 C 21.263218 34 19.767857 33.150876 18.875 31.84375 L 15.65625 34.1875 C 17.290235 36.490303 19.976631 38 23 38 C 27.951408 38 32 33.9514 32 29 L 32 19 L 32 10 L 28 10 L 28 11.53125 C 26.571067 10.573521 24.840027 10 23 10 z M 23 14 C 25.785123 14 28 16.2148 28 19 C 28 21.7851 25.785123 24 23 24 C 20.214878 24 18 21.7851 18 19 C 18 16.2148 20.214878 14 23 14 z "
       transform="translate(0,1004.3622)"
       id="path3000" />
    <path
       style="font-size:medium;font-style:normal;font-variant:normal;font-weight:normal;font-stretch:normal;text-indent:0;text-align:start;text-decoration:none;line-height:normal;letter-spacing:normal;word-spacing:normal;text-transform:none;direction:ltr;block-progression:tb;writing-mode:lr-tb;text-anchor:start;baseline-shift:baseline;opacity:0.5;color:#000000;fill:#ffffff;fill-opacity:1;stroke:none;stroke-width:1;marker:none;visibility:visible;display:inline;overflow:visible;enable-background:accumulate;font-family:Sans;-inkscape-font-specification:Sans;stroke-opacity:1;stroke-miterlimit:4;stroke-dasharray:none"
       d="M 23 10 C 18.053117 10 14 14.0531 14 19 C 14 21.624181 15.159277 23.975445 16.96875 25.625 C 15.517728 24.025346 14.625 21.939616 14.625 19.625 C 14.625 14.6781 18.678117 10.625 23.625 10.625 C 25.465027 10.625 27.196067 11.19855 28.625 12.15625 L 28.625 10.625 L 32 10.625 L 32 10 L 28 10 L 28 11.53125 C 26.571067 10.573521 24.840027 10 23 10 z M 26.8125 15.78125 C 27.544281 16.649718 28 17.761051 28 19 C 28 21.7851 25.785123 24 23 24 C 21.761085 24 20.649725 23.544284 19.78125 22.8125 C 20.6945 23.906134 22.070816 24.625 23.625 24.625 C 26.410123 24.625 28.625 22.4101 28.625 19.625 C 28.625 18.070772 27.906131 16.694487 26.8125 15.78125 z M 28.625 27.09375 C 28.427005 27.226464 28.209082 27.320046 28 27.4375 L 28 29 C 28 31.8046 25.804592 34 23 34 C 21.729184 34 20.589599 33.537261 19.71875 32.78125 C 20.626873 33.90986 22.030649 34.625 23.625 34.625 C 26.429592 34.625 28.625 32.4296 28.625 29.625 L 28.625 27.09375 z M 18.875 31.84375 L 15.65625 34.1875 C 16.030705 34.715226 16.461116 35.189202 16.9375 35.625 C 16.701761 35.363334 16.485498 35.10035 16.28125 34.8125 L 19.4375 32.5 C 19.236365 32.294156 19.038118 32.082552 18.875 31.84375 z "
       transform="translate(0,1004.3622)"
       id="path3802" />
    <path
       style="font-size:medium;font-style:normal;font-variant:normal;font-weight:normal;font-stretch:normal;text-indent:0;text-align:start;text-decoration:none;line-height:normal;letter-spacing:normal;word-spacing:normal;text-transform:none;direction:ltr;block-progression:tb;writing-mode:lr-tb;text-anchor:start;baseline-shift:baseline;opacity:0.2;color:#000000;fill:#000000;fill-opacity:1;stroke:none;stroke-width:1;marker:none;visibility:visible;display:inline;overflow:visible;enable-background:accumulate;font-family:Sans;-inkscape-font-specification:Sans;stroke-opacity:1;stroke-miterlimit:4;stroke-dasharray:none"
       d="M 31.5625 10 L 31.5625 18.5625 L 31.5625 28.5625 C 31.5625 33.5139 27.513908 37.5625 22.5625 37.5625 C 20.294973 37.5625 18.211607 36.708597 16.625 35.3125 C 18.257896 36.957873 20.512019 38 23 38 C 27.951408 38 32 33.9514 32 29 L 32 19 L 32 10 L 31.5625 10 z M 22.5625 13.5625 C 19.777378 13.5625 17.5625 15.7773 17.5625 18.5625 C 17.5625 20.104475 18.265008 21.461715 19.34375 22.375 C 18.524373 21.48638 18 20.319475 18 19 C 18 16.2148 20.214878 14 23 14 C 24.319486 14 25.486382 14.524383 26.375 15.34375 C 25.461719 14.265017 24.104488 13.5625 22.5625 13.5625 z M 16.84375 25.5 C 18.459425 27.031407 20.613909 28 23 28 C 24.662062 28 26.220616 27.515108 27.5625 26.71875 L 27.5625 26.03125 C 26.133567 26.98895 24.402527 27.5625 22.5625 27.5625 C 20.398239 27.5625 18.401302 26.787017 16.84375 25.5 z M 18.875 31.84375 L 18.8125 31.875 C 18.947854 32.029744 19.096486 32.175865 19.25 32.3125 C 19.12027 32.164186 18.986607 32.007141 18.875 31.84375 z "
       transform="translate(0,1004.3622)"
       id="path3811" />
  </g>
</svg>
