<?xml version="1.0" encoding="UTF-8" standalone="no"?>
<!-- Created with Inkscape (http://www.inkscape.org/) -->

<svg
   xmlns:dc="http://purl.org/dc/elements/1.1/"
   xmlns:cc="http://creativecommons.org/ns#"
   xmlns:rdf="http://www.w3.org/1999/02/22-rdf-syntax-ns#"
   xmlns:svg="http://www.w3.org/2000/svg"
   xmlns="http://www.w3.org/2000/svg"
   xmlns:xlink="http://www.w3.org/1999/xlink"
   xmlns:sodipodi="http://sodipodi.sourceforge.net/DTD/sodipodi-0.dtd"
   xmlns:inkscape="http://www.inkscape.org/namespaces/inkscape"
   width="48"
   height="48"
   id="svg2"
   version="1.1"
   inkscape:version="0.48.4 r9939"
   sodipodi:docname="steam_icon_40800.svg">
  <defs
     id="defs4">
    <linearGradient
       id="linearGradient3939">
      <stop
         style="stop-color:#b01500;stop-opacity:1;"
         offset="0"
         id="stop3941" />
      <stop
         style="stop-color:#d81a00;stop-opacity:1;"
         offset="1"
         id="stop3943" />
    </linearGradient>
    <linearGradient
       gradientTransform="matrix(0,-1,1,0,-1.5e-6,47.999998)"
       gradientUnits="userSpaceOnUse"
       x2="47"
       x1="1"
       id="linearGradient3764">
      <stop
         id="stop3034"
         stop-opacity="1"
         stop-color="#ac1400" />
      <stop
         id="stop3036"
         stop-opacity="1"
         stop-color="#c01800"
         offset="1" />
    </linearGradient>
    <linearGradient
       inkscape:collect="always"
       xlink:href="#linearGradient3939"
       id="linearGradient3945"
       x1="24"
       y1="1050.3622"
       x2="24"
       y2="1006.3622"
       gradientUnits="userSpaceOnUse" />
  </defs>
  <sodipodi:namedview
     id="base"
     pagecolor="#ffffff"
     bordercolor="#666666"
     borderopacity="1.0"
     inkscape:pageopacity="0.0"
     inkscape:pageshadow="2"
     inkscape:zoom="4.0953267"
     inkscape:cx="0.64366214"
     inkscape:cy="3.6781486"
     inkscape:document-units="px"
     inkscape:current-layer="layer1"
     showgrid="true"
     inkscape:snap-bbox="true"
     inkscape:window-width="1301"
     inkscape:window-height="744"
     inkscape:window-x="65"
     inkscape:window-y="24"
     inkscape:window-maximized="1"
     inkscape:object-nodes="true"
     showguides="true"
     inkscape:guide-bbox="true"
     inkscape:snap-nodes="true"
     inkscape:snap-global="true">
    <inkscape:grid
       type="xygrid"
       id="grid3003"
       empspacing="6"
       visible="true"
       enabled="true"
       snapvisiblegridlinesonly="true" />
  </sodipodi:namedview>
  <metadata
     id="metadata7">
    <rdf:RDF>
      <cc:Work
         rdf:about="">
        <dc:format>image/svg+xml</dc:format>
        <dc:type
           rdf:resource="http://purl.org/dc/dcmitype/StillImage" />
        <dc:title />
      </cc:Work>
    </rdf:RDF>
  </metadata>
  <g
     inkscape:label="Layer 1"
     inkscape:groupmode="layer"
     id="layer1"
     transform="translate(0,-1004.3622)">
    <path
       id="path3788"
       d="m 24,1051.1116 c -21.2715315,0 -23.66257505,-0.089 -23.9375,-15.4063 0.328125,14.4033 2.9375,14.4063 23.9375,14.4063 21,0 23.609375,0 23.9375,-14.4063 -0.274925,15.3174 -2.665968,15.4063 -23.9375,15.4063 z"
       style="opacity:0.20000000000000001;fill:#ffffff;fill-opacity:1;stroke:none"
       inkscape:connector-curvature="0" />
    <path
       style="fill:url(#linearGradient3945);fill-opacity:1;stroke:none"
       d="m 24,1006.3622 c -24,0 -24,0 -24,22 0,22 0,22 24,22 24,0 24,0 24,-22 0,-22 0,-22 -24,-22 z"
       id="path3757"
       inkscape:connector-curvature="0"
       sodipodi:nodetypes="zzzzz" />
    <path
       style="fill:#000000;fill-opacity:1;stroke:none;opacity:0.20000000000000001"
       d="M 24 2 C 2.7284685 2 0.33742495 2.0888436 0.0625 17.40625 C 0.390625 3.0029297 3 3 24 3 C 45 3 47.609375 3.0029297 47.9375 17.40625 C 47.662575 2.0888436 45.271532 2 24 2 z "
       transform="translate(0,1004.3622)"
       id="path3770" />
    <g
       id="g3813"
       transform="translate(-47.998,993.3622)" />
    <g
       id="g3038"
       transform="translate(-50.335,1008.7072)" />
    <g
       id="g3041"
       transform="translate(-51.97,1003.7612)" />
    <g
       id="g3026"
       transform="translate(-56.532,1001.6102)" />
    <g
       id="g3811"
       transform="translate(-51.613,998.4722)" />
    <g
       id="g3073"
       transform="translate(-56,1004.3622)" />
    <path
       style="opacity:0.1;fill:#000000;fill-opacity:1;stroke:none"
       d="m 16.53125,1023.2843 c -0.20941,-0.01 -0.427769,-5e-4 -0.65625,0.031 -3.90228,-0.096 -4.210785,3.4838 -2.9375,6 l 0.15625,0 c -0.712579,0.8158 -0.881198,1.8334 0.625,1.625 1.725804,-0.9625 5.497885,0.5161 5.8125,-2 -0.02703,-0.039 -0.06502,-0.058 -0.09375,-0.094 0.822956,-2.3271 -0.260628,-5.4595 -2.90625,-5.5625 z m 18,0 c -0.206723,-0.01 -0.431513,3e-4 -0.65625,0.031 -3.923245,-0.079 -4.223998,3.4903 -2.9375,6 l 6.34375,0 c 1.177214,-2.3357 0.0666,-5.9361 -2.75,-6.0313 z m 1.40625,8.7813 c -0.32399,0.013 -0.656394,0.078 -0.9375,0.1875 -1.993977,0.2111 -4.000114,-0.012 -6,0.062 -5.691021,-0.014 -11.374145,0.014 -17.0625,0 0.501462,3.6881 2.911502,7.3022 6.5625,8.4687 2.152211,0.5257 4.372248,0.3612 6.5625,0.5625 3.540698,0.1131 7.413033,-0.3587 10.21875,-2.7187 1.490536,-1.2854 2.535706,-3.1154 2.71875,-5.0938 -0.09702,-1.0909 -1.090529,-1.5087 -2.0625,-1.4687 z"
       id="path4045"
       inkscape:connector-curvature="0" />
    <g
       id="g4052">
      <path
         inkscape:connector-curvature="0"
         id="path3947"
         d="m 15.59375,1022.331 c -0.20941,-0.01 -0.427769,-8e-4 -0.65625,0.031 -3.90228,-0.096 -4.210785,3.4838 -2.9375,6 l 6.3125,0 c 1.151008,-2.3472 0.103247,-5.9214 -2.71875,-6.0312 z m 18,0 c -0.206723,-0.01 -0.431513,-0 -0.65625,0.031 -3.923245,-0.079 -4.223998,3.4903 -2.9375,6 l 6.34375,0 c 1.177214,-2.3357 0.0666,-5.936 -2.75,-6.0312 z"
         style="fill:#000000;fill-opacity:1;stroke:none" />
      <path
         inkscape:connector-curvature="0"
         id="path3951"
         d="m 11,1031.3622 c 0.501462,3.6881 2.907945,7.3168 6.558943,8.4833 2.152211,0.5257 4.388208,0.3574 6.57846,0.5587 3.540698,0.1131 7.38621,-0.3595 10.191927,-2.7195 1.490536,-1.2854 2.56454,-3.1145 2.747584,-5.0929 -0.129361,-1.4545 -1.877061,-1.7287 -3.001486,-1.2895 -1.993977,0.2111 -4.000872,-0.016 -6.000758,0.059 -5.691021,-0.014 -11.386315,0.015 -17.07467,9e-4 z"
         style="fill:#000000;fill-opacity:1;stroke:none" />
      <path
         inkscape:connector-curvature="0"
         id="path3978"
         d="m 14,1032.3622 c 0,0.875 0,1.75 0,2.625 1.215982,-0.07 2.653927,0.8982 3.714824,-0.014 0.393428,-0.7005 0.595883,-1.8015 0.03928,-2.4584 -0.807968,-0.6062 -1.792294,0.1169 -2.704581,-0.1459 -0.349424,-0.016 -0.700554,-0.029 -1.049519,-0.01 z m 7,0 c 0,1.0104 0,2.0209 0,3.0313 3.642442,-0.117 7.28717,-0.064 10.930737,-0.087 1.313802,0.5293 2.747619,-1.0481 2.094329,-2.3021 -0.547514,-1.0842 -1.877654,-0.7131 -2.837804,-0.6342 -1.559293,0.046 -3.124013,-0.039 -4.687284,-0.01 -1.831994,-5e-4 -3.674648,-0.01 -5.499978,0 z m -7,3.625 c 0.512974,1.8017 2.474655,2.5447 4.137051,2.8909 3.546959,0.7731 7.218399,0.5477 10.804401,0.2175 1.720134,-0.2093 3.452103,-0.8383 4.752728,-2.0016 0.528372,-1.1239 -1.611707,-1.0236 -2.325541,-0.7654 -1.520082,0.2199 -3.055555,-0.1151 -4.585411,-0.024 -4.260453,-0 -8.55342,0.3656 -12.783228,-0.3175 z"
         style="fill:#ffffff;fill-opacity:1;stroke:none" />
      <path
         transform="translate(0,1004.3622)"
         d="m 15,20 a 1,1 0 1 1 -2,0 1,1 0 1 1 2,0 z"
         sodipodi:ry="1"
         sodipodi:rx="1"
         sodipodi:cy="20"
         sodipodi:cx="14"
         id="path4022"
         style="fill:#ffffff;fill-opacity:1;stroke:none"
         sodipodi:type="arc" />
      <path
         sodipodi:type="arc"
         style="fill:#ffffff;fill-opacity:1;stroke:none"
         id="path4024"
         sodipodi:cx="14"
         sodipodi:cy="20"
         sodipodi:rx="1"
         sodipodi:ry="1"
         d="m 15,20 a 1,1 0 1 1 -2,0 1,1 0 1 1 2,0 z"
         transform="translate(18,1004.3622)" />
      <path
         inkscape:connector-curvature="0"
         id="path4026"
         d="m 14.303025,1027.4827 c -1.578937,-0.657 -4.231889,2.8679 -1.535552,2.4948 1.725804,-0.9625 5.521796,0.5323 5.836411,-1.9838 -0.942505,-1.3704 -2.945752,-0.5617 -4.300859,-0.511 z"
         style="fill:#ef9a9a;fill-opacity:1;stroke:none" />
    </g>
  </g>
</svg>
