<?xml version="1.0" encoding="UTF-8" standalone="no"?>
<!-- Created with Inkscape (http://www.inkscape.org/) -->

<svg
   xmlns:dc="http://purl.org/dc/elements/1.1/"
   xmlns:cc="http://creativecommons.org/ns#"
   xmlns:rdf="http://www.w3.org/1999/02/22-rdf-syntax-ns#"
   xmlns:svg="http://www.w3.org/2000/svg"
   xmlns="http://www.w3.org/2000/svg"
   xmlns:xlink="http://www.w3.org/1999/xlink"
   xmlns:sodipodi="http://sodipodi.sourceforge.net/DTD/sodipodi-0.dtd"
   xmlns:inkscape="http://www.inkscape.org/namespaces/inkscape"
   width="48"
   height="48"
   id="svg2"
   version="1.1"
   inkscape:version="0.48.4 r9939"
   sodipodi:docname="steamskinmanager.svg">
  <defs
     id="defs4">
    <linearGradient
       id="linearGradient3796">
      <stop
         style="stop-color:#b000ce;stop-opacity:1;"
         offset="0"
         id="stop3798" />
      <stop
         style="stop-color:#d500f9;stop-opacity:1;"
         offset="1"
         id="stop3800" />
    </linearGradient>
    <linearGradient
       inkscape:collect="always"
       xlink:href="#linearGradient3796"
       id="linearGradient3802"
       x1="24"
       y1="1050.3622"
       x2="24"
       y2="1006.3622"
       gradientUnits="userSpaceOnUse" />
  </defs>
  <sodipodi:namedview
     id="base"
     pagecolor="#ffffff"
     bordercolor="#666666"
     borderopacity="1.0"
     inkscape:pageopacity="0.0"
     inkscape:pageshadow="2"
     inkscape:zoom="11.583333"
     inkscape:cx="22.624987"
     inkscape:cy="24.875098"
     inkscape:document-units="px"
     inkscape:current-layer="layer1"
     showgrid="true"
     inkscape:snap-bbox="true"
     inkscape:window-width="1301"
     inkscape:window-height="744"
     inkscape:window-x="65"
     inkscape:window-y="24"
     inkscape:window-maximized="1"
     inkscape:snap-global="true">
    <inkscape:grid
       type="xygrid"
       id="grid2985"
       empspacing="6"
       visible="true"
       enabled="true"
       snapvisiblegridlinesonly="true" />
  </sodipodi:namedview>
  <metadata
     id="metadata7">
    <rdf:RDF>
      <cc:Work
         rdf:about="">
        <dc:format>image/svg+xml</dc:format>
        <dc:type
           rdf:resource="http://purl.org/dc/dcmitype/StillImage" />
        <dc:title />
      </cc:Work>
    </rdf:RDF>
  </metadata>
  <g
     inkscape:label="Layer 1"
     inkscape:groupmode="layer"
     id="layer1"
     transform="translate(0,-1004.3622)">
    <path
       id="path3788"
       d="m 24,1051.1116 c -21.2715315,0 -23.66257505,-0.089 -23.9375,-15.4063 0.328125,14.4033 2.9375,14.4063 23.9375,14.4063 21,0 23.609375,0 23.9375,-14.4063 -0.274925,15.3174 -2.665968,15.4063 -23.9375,15.4063 z"
       style="opacity:0.20000000000000001;fill:#ffffff;fill-opacity:1;stroke:none"
       inkscape:connector-curvature="0" />
    <path
       style="fill:url(#linearGradient3802);fill-opacity:1;stroke:none"
       d="m 24,1006.3622 c -24,0 -24,0 -24,22 0,22 0,22 24,22 24,0 24,0 24,-22 0,-22 0,-22 -24,-22 z"
       id="path3757"
       inkscape:connector-curvature="0"
       sodipodi:nodetypes="zzzzz" />
    <g
       id="g3032"
       transform="translate(48,1007.3622)" />
    <g
       id="g3028"
       transform="translate(-55,1009.3622)" />
    <g
       id="g3026"
       transform="translate(-50.998,1003.3622)" />
    <path
       style="fill:#f9f9f9;fill-opacity:0.43317974;fill-rule:nonzero;stroke:none"
       d="M 47.9375 22 C 47.93349 19.805023 47.837635 18.228776 47.78125 16.5 C 44.031767 21.17459 35.282485 20.693363 32.9375 14.84375 C 30.656432 10.15905 33.72952 3.76585 39 3.03125 C 39.533299 2.9169598 40.079571 2.8861368 40.625 2.875 C 39.755656 2.6800771 38.967316 2.4550044 37.875 2.34375 C 36.423091 2.1958704 33.804417 2.2355132 31.90625 2.1875 C 28.671006 5.2422032 26.850376 9.7649861 28.125 14.15625 C 29.759617 17.27885 29.768498 20.8263 29.625 24.25 L 29.625 31.4375 C 27.005458 33.1689 23.399536 33.21265 20.96875 31.15625 C 18.216767 29.95505 15.470733 28.73245 12.71875 27.53125 C 12.930139 21.361962 5.6791393 16.992945 0.15625 18.9375 C 0.13727101 20.362068 0.031990548 21.311566 0.03125 23 C 1.0088834 22.343427 2.127465 21.957129 3.3125 22.1875 C 5.0701427 20.8793 9.5146825 24.6212 7.1875 24.9375 C 4.993765 23.392013 1.4200685 24.105772 0.0625 26.21875 C 0.065892831 27.714536 0.16268429 28.727689 0.1875 30 C 1.2502599 31.310729 3.4721365 32.297869 3.34375 33.15625 C 2.2043076 33.300263 1.1612737 32.943987 0.25 32.375 C 0.29873312 33.525357 0.24055902 35.234247 0.34375 36.1875 C 3.1882973 37.103838 6.4612359 36.789648 8.875 34.96875 C 12.92188 36.13785 16.507183 38.51055 20.5625 39.65625 C 22.53406 41.192237 22.799861 43.998572 24.09375 46 C 26.383227 45.999994 27.534755 45.89498 29.40625 45.875 C 27.850464 45.355122 26.477076 44.389456 25.90625 42.75 C 28.984607 42.639 32.938172 46.2903 35.1875 42.5625 C 37.432329 38.876 33.457451 35.74175 30.15625 35.15625 C 29.131759 34.23715 30.99904 34.25285 31.5 34.34375 C 36.650256 33.80135 39.98673 41.41875 35.875 44.71875 C 35.350338 45.222643 34.673448 45.47959 34 45.75 C 35.12621 45.700133 36.932446 45.752251 37.875 45.65625 C 38.458214 45.596849 38.825789 45.456705 39.34375 45.375 C 39.683567 44.86868 39.997681 44.339936 40.21875 43.75 C 42.154381 40.5539 39.440946 37.10575 39.75 33.84375 C 40.978233 30.59875 43.685129 28.1275 44.78125 24.8125 C 45.601702 23.646723 46.767564 22.809954 47.9375 22 z M 40.90625 5.78125 C 36.260678 5.31235 33.235619 12.25055 36.9375 15.21875 C 40.193737 18.52635 47.163599 15.8123 46.53125 10.9375 C 46.306319 8.1478 43.75529 5.63905 40.90625 5.78125 z "
       id="path2995"
       transform="translate(0,1004.3622)" />
    <path
       style="fill:#000000;fill-opacity:1;stroke:none;opacity:0.20000000000000001"
       d="M 24 2 C 2.7284685 2 0.33742495 2.0888436 0.0625 17.40625 C 0.390625 3.0029297 3 3 24 3 C 45 3 47.609375 3.0029297 47.9375 17.40625 C 47.662575 2.0888436 45.271532 2 24 2 z "
       transform="translate(0,1004.3622)"
       id="path3770" />
    <path
       style="fill:#000000;fill-opacity:1;stroke:none;opacity:0.20000000000000001"
       d="M 24 2 C 7.2405624 2 2.2369698 2.0788791 0.71875 9.59375 C 2.3300781 2.5289866 7.5 2.53125 24 2.53125 C 40.5 2.53125 45.669922 2.5289866 47.28125 9.59375 C 45.76303 2.0788791 40.759438 2 24 2 z M 47.28125 9.59375 C 47.354492 9.9148756 47.409424 10.242768 47.46875 10.59375 C 47.41561 10.240351 47.346891 9.9186608 47.28125 9.59375 z M 0.71875 9.59375 C 0.65310868 9.9186608 0.58439008 10.240351 0.53125 10.59375 C 0.59057617 10.242768 0.64550781 9.9148756 0.71875 9.59375 z "
       transform="translate(0,1004.3622)"
       id="path3012" />
    <path
       inkscape:connector-curvature="0"
       id="path3794"
       d="m 19.815541,1018.2041 0.230895,3.4673 c -0.457699,0.2916 -0.861408,0.6255 -1.25314,0.9887 l -3.312974,-1.1066 -1.997395,3.4906 2.632542,2.2957 c -0.114665,0.5217 -0.197995,1.039 -0.217469,1.5813 l -3.106266,1.5576 1.050162,3.8597 3.467258,-0.2309 c 0.291566,0.4577 0.62547,0.8614 0.988682,1.2532 l -1.106527,3.3129 3.490594,1.9974 2.295629,-2.6325 c 0.521756,0.1147 1.038988,0.198 1.581316,0.2175 l 1.557661,3.1062 3.859684,-1.0501 -0.230895,-3.4673 c 0.457699,-0.2916 0.861408,-0.6255 1.25314,-0.9887 l 3.312974,1.1066 1.997395,-3.4906 -2.632542,-2.2957 c 0.114665,-0.5217 0.197995,-1.039 0.217469,-1.5813 L 37,1028.0375 l -1.050162,-3.8597 -3.467258,0.2309 c -0.291566,-0.4577 -0.62547,-0.8614 -0.988682,-1.2532 l 1.106527,-3.3129 -3.490594,-1.9974 -2.295629,2.6325 c -0.521756,-0.1147 -1.038988,-0.198 -1.581316,-0.2175 l -1.557661,-3.1062 -3.859684,1.0501 z m 3.767624,6.2294 c 2.664538,-0.725 5.412327,0.8474 6.137307,3.5119 0.72498,2.6645 -0.847366,5.4123 -3.511903,6.1373 -2.664538,0.725 -5.412327,-0.8474 -6.137307,-3.5119 -0.72498,-2.6645 0.847366,-5.4123 3.511903,-6.1373 z"
       style="fill:#000000;fill-opacity:1;stroke:none;opacity:0.2" />
    <path
       style="fill:#ffffff;fill-opacity:1;stroke:none"
       d="m 18.919674,1017.3082 0.230895,3.4673 c -0.457699,0.2916 -0.861408,0.6255 -1.25314,0.9887 l -3.312974,-1.1066 -1.997395,3.4906 2.632542,2.2957 c -0.114665,0.5217 -0.197995,1.039 -0.217469,1.5813 l -3.106266,1.5576 1.050162,3.8597 3.467258,-0.2309 c 0.291566,0.4577 0.62547,0.8614 0.988682,1.2532 l -1.106527,3.3129 3.490594,1.9974 2.295629,-2.6325 c 0.521756,0.1147 1.038988,0.198 1.581316,0.2175 l 1.557661,3.1062 3.859684,-1.0501 -0.230895,-3.4673 c 0.457699,-0.2916 0.861408,-0.6255 1.25314,-0.9887 l 3.312974,1.1066 1.997395,-3.4906 -2.632542,-2.2957 c 0.114665,-0.5217 0.197995,-1.039 0.217469,-1.5813 l 3.106266,-1.5576 -1.050162,-3.8597 -3.467258,0.2309 c -0.291566,-0.4577 -0.62547,-0.8614 -0.988682,-1.2532 l 1.106527,-3.3129 -3.490594,-1.9974 -2.295629,2.6325 c -0.521756,-0.1147 -1.038988,-0.198 -1.581316,-0.2175 l -1.557661,-3.1062 -3.859684,1.0501 z m 3.767624,6.2294 c 2.664538,-0.725 5.412327,0.8474 6.137307,3.5119 0.72498,2.6645 -0.847366,5.4123 -3.511903,6.1373 -2.664538,0.725 -5.412327,-0.8474 -6.137307,-3.5119 -0.72498,-2.6645 0.847366,-5.4123 3.511903,-6.1373 z"
       id="path3771"
       inkscape:connector-curvature="0" />
  </g>
</svg>
