<?xml version="1.0" encoding="UTF-8" standalone="no"?>
<!-- Created with Inkscape (http://www.inkscape.org/) -->

<svg
   xmlns:dc="http://purl.org/dc/elements/1.1/"
   xmlns:cc="http://creativecommons.org/ns#"
   xmlns:rdf="http://www.w3.org/1999/02/22-rdf-syntax-ns#"
   xmlns:svg="http://www.w3.org/2000/svg"
   xmlns="http://www.w3.org/2000/svg"
   xmlns:xlink="http://www.w3.org/1999/xlink"
   xmlns:sodipodi="http://sodipodi.sourceforge.net/DTD/sodipodi-0.dtd"
   xmlns:inkscape="http://www.inkscape.org/namespaces/inkscape"
   width="48"
   height="48"
   id="svg2"
   version="1.1"
   inkscape:version="0.48.4 r9939"
   sodipodi:docname="steam_icon_219740.svg">
  <defs
     id="defs4">
    <linearGradient
       id="linearGradient3785">
      <stop
         style="stop-color:#dbdbdb;stop-opacity:1;"
         offset="0"
         id="stop3787" />
      <stop
         style="stop-color:#ffffff;stop-opacity:1;"
         offset="1"
         id="stop3789" />
    </linearGradient>
    <linearGradient
       id="linearGradient3763">
      <stop
         style="stop-color:#000000;stop-opacity:1;"
         offset="0"
         id="stop3765" />
      <stop
         style="stop-color:#ffffff;stop-opacity:1;"
         offset="1"
         id="stop3767" />
    </linearGradient>
    <linearGradient
       inkscape:collect="always"
       xlink:href="#linearGradient3763"
       id="linearGradient3800"
       gradientUnits="userSpaceOnUse"
       gradientTransform="translate(-60,0)"
       spreadMethod="repeat"
       x1="24"
       y1="1028.3622"
       x2="45"
       y2="1007.3622" />
    <linearGradient
       inkscape:collect="always"
       xlink:href="#linearGradient3763"
       id="linearGradient3802"
       gradientUnits="userSpaceOnUse"
       gradientTransform="translate(-60,0)"
       spreadMethod="repeat"
       x1="45"
       y1="1049.3622"
       x2="18"
       y2="1022.3622" />
    <linearGradient
       inkscape:collect="always"
       xlink:href="#linearGradient3785"
       id="linearGradient3791"
       x1="24"
       y1="1050.3622"
       x2="24"
       y2="1006.3622"
       gradientUnits="userSpaceOnUse" />
    <clipPath
       id="clipPath-805962544">
      <g
         id="g3039"
         transform="translate(0,-1004.3622)">
        <path
           id="path3041"
           fill="#1890d0"
           transform="matrix(15.333333,0,0,11.5,414.99999,878.8622)"
           d="m -24 13 c 0 1.105 -0.672 2 -1.5 2 -0.828 0 -1.5 -0.895 -1.5 -2 0 -1.105 0.672 -2 1.5 -2 0.828 0 1.5 0.895 1.5 2 z" />
      </g>
    </clipPath>
    <clipPath
       id="clipPath-798411298">
      <g
         id="g3034"
         transform="translate(0,-1004.3622)">
        <path
           id="path3036"
           fill="#1890d0"
           transform="matrix(15.333333,0,0,11.5,414.99999,878.8622)"
           d="m -24 13 c 0 1.105 -0.672 2 -1.5 2 -0.828 0 -1.5 -0.895 -1.5 -2 0 -1.105 0.672 -2 1.5 -2 0.828 0 1.5 0.895 1.5 2 z" />
      </g>
    </clipPath>
    <linearGradient
       gradientTransform="matrix(0,-1,1,0,-1.5e-6,47.999998)"
       gradientUnits="userSpaceOnUse"
       x2="47"
       x1="1"
       id="linearGradient3764">
      <stop
         id="stop3029"
         stop-opacity="1"
         stop-color="#e4e4e4" />
      <stop
         id="stop3031"
         stop-opacity="1"
         stop-color="#eee"
         offset="1" />
    </linearGradient>
  </defs>
  <sodipodi:namedview
     id="base"
     pagecolor="#ffffff"
     bordercolor="#666666"
     borderopacity="1.0"
     inkscape:pageopacity="0.0"
     inkscape:pageshadow="2"
     inkscape:zoom="8.1906535"
     inkscape:cx="9.0391244"
     inkscape:cy="31.526217"
     inkscape:document-units="px"
     inkscape:current-layer="layer1"
     showgrid="true"
     inkscape:snap-bbox="true"
     inkscape:window-width="1301"
     inkscape:window-height="744"
     inkscape:window-x="65"
     inkscape:window-y="24"
     inkscape:window-maximized="1"
     inkscape:object-nodes="false"
     inkscape:snap-nodes="false"
     inkscape:snap-global="true">
    <inkscape:grid
       type="xygrid"
       id="grid3005"
       empspacing="6"
       visible="true"
       enabled="true"
       snapvisiblegridlinesonly="true" />
  </sodipodi:namedview>
  <metadata
     id="metadata7">
    <rdf:RDF>
      <cc:Work
         rdf:about="">
        <dc:format>image/svg+xml</dc:format>
        <dc:type
           rdf:resource="http://purl.org/dc/dcmitype/StillImage" />
        <dc:title />
      </cc:Work>
    </rdf:RDF>
  </metadata>
  <g
     inkscape:label="Layer 1"
     inkscape:groupmode="layer"
     id="layer1"
     transform="translate(0,-1004.3622)">
    <path
       id="path3788"
       d="m 24,1051.1116 c -21.2715315,0 -23.66257505,-0.089 -23.9375,-15.4063 0.328125,14.4033 2.9375,14.4063 23.9375,14.4063 21,0 23.609375,0 23.9375,-14.4063 -0.274925,15.3174 -2.665968,15.4063 -23.9375,15.4063 z"
       style="opacity:0.20000000000000001;fill:#ffffff;fill-opacity:1;stroke:none"
       inkscape:connector-curvature="0" />
    <path
       style="fill:url(#linearGradient3791);fill-opacity:1;stroke:none"
       d="m 24,1006.3622 c -24,0 -24,0 -24,22 0,22 0,22 24,22 24,0 24,0 24,-22 0,-22 0,-22 -24,-22 z"
       id="path3757"
       inkscape:connector-curvature="0"
       sodipodi:nodetypes="zzzzz" />
    <g
       id="g3796"
       transform="translate(60,0)">
      <path
         style="opacity:0.03999999;fill:url(#linearGradient3800);fill-opacity:1;stroke:none"
         d="m -36,1006.3622 c -24,0 -24,0 -24,22 0,22 0,22 24,22 24,0 24,0 24,-22 0,-22 0,-22 -24,-22 z"
         id="path3783"
         inkscape:connector-curvature="0"
         sodipodi:nodetypes="zzzzz" />
      <path
         sodipodi:nodetypes="zzzzz"
         inkscape:connector-curvature="0"
         id="path3795"
         d="m -36,1006.3622 c -24,0 -24,0 -24,22 0,22 0,22 24,22 24,0 24,0 24,-22 0,-22 0,-22 -24,-22 z"
         style="opacity:0.03999999;fill:url(#linearGradient3802);fill-opacity:1;stroke:none" />
    </g>
    <path
       style="fill:#000000;fill-opacity:1;stroke:none;opacity:0.20000000000000001"
       d="M 24 2 C 2.7284685 2 0.33742495 2.0888436 0.0625 17.40625 C 0.390625 3.0029297 3 3 24 3 C 45 3 47.609375 3.0029297 47.9375 17.40625 C 47.662575 2.0888436 45.271532 2 24 2 z "
       transform="translate(0,1004.3622)"
       id="path3770" />
    <g
       id="g3037"
       transform="translate(-46.998,1004.3622)" />
    <g
       id="g3808"
       transform="translate(-52.998,1013.3622)" />
    <g
       id="g3795"
       style="stroke-width:2;stroke-miterlimit:4;stroke-dasharray:none" />
    <g
       id="g3042"
       transform="translate(-51.998,1004.3622)" />
    <g
       id="g3038"
       transform="translate(-55.998,1005.3622)" />
    <g
       id="g3055"
       transform="translate(-56,992.3622)" />
    <g
       id="g3057"
       transform="translate(0.66276891,1004.5722)">
      <g
         clip-path="url(#clipPath-798411298)"
         id="g3059">
        <g
           transform="translate(1,1)"
           id="g3061">
          <g
             style="opacity:0.1"
             id="g3063">
            <!-- color: #eeeeee -->
            <g
               id="g3065">
              <path
                 style="fill:#000000;fill-opacity:1;fill-rule:nonzero;stroke:none"
                 inkscape:connector-curvature="0"
                 d="m 24,9.03 c 0.258,0.941 -0.203,1.211 -0.531,1.594 0.676,0.328 1.082,0.574 1.125,-0.125 C 24.539,10.155 24.332,10.186 24,9.03 m -3.125,2.375 c 1.039,0.855 1.938,1.75 1,3.03 -0.734,0.602 -2.262,0.977 -2.219,-0.875 -0.379,0.621 -0.383,1.395 -0.188,2.25 0.051,0.215 0.145,0.387 0.25,0.531 1.797,1.332 1.895,1.605 2.156,2.125 1.66,2.965 -0.98,5.066 -1.156,5.344 l -0.125,0.25 c 1.895,2.785 3.691,2.566 4.813,2.563 1.316,-0.102 4.422,-1.98 3.03,-5.625 -0.039,1.914 -1.586,0.895 -1.906,0.25 -0.277,-0.301 -0.68,-2.711 0.563,-2.77 0.305,-0.148 -0.246,-2.316 -2.063,-3.355 2.531,1.941 -0.895,4.906 -1.75,1.875 -0.051,-0.176 0.008,-4.488 1.875,-3.5 -0.891,-1.469 -2.289,-2.195 -4.281,-2.094 m 5.75,0.004 c -1.141,0.523 -0.691,3.316 0.063,3.375 -0.285,-0.75 -0.609,-1.145 -0.063,-3.375 m -7.156,5.441 c -0.199,1.113 -0.211,2.285 0.25,2.781 0.547,0.645 0.879,0.488 1.25,0.469 0.164,-0.082 0.023,-0.199 -0.188,-0.344 0.027,-0.059 0.254,-0.082 0.438,-0.098 0.066,-0.063 0.129,-0.125 0.094,-0.25 -0.031,0.102 -0.117,0.148 -0.25,0.191 m 7.344,0.344 c -0.059,0.031 -0.074,0.137 -0.031,0.219 0.047,0.082 0.129,0.125 0.188,0.094 0.059,-0.031 0.047,-0.137 0,-0.219 -0.043,-0.082 -0.098,-0.125 -0.156,-0.094 m -7.438,5.656 c -0.027,0.004 0.711,0.938 0.688,0.875 -0.008,-0.031 0.289,-0.359 0.344,-0.316 -0.262,-0.145 -0.629,-0.348 -1.031,-0.563 m 0,0"
                 id="path3067" />
              <path
                 style="fill:#000000;fill-opacity:1;fill-rule:nonzero;stroke:none"
                 inkscape:connector-curvature="0"
                 d="m 23.906,20.844 c -0.508,0.035 -0.789,0.363 -0.938,0.813 l 1.844,0.156 c -0.047,-0.434 -0.238,-0.82 -0.906,-0.969 m -1.094,1.844 c -0.008,0.117 -0.027,0.223 -0.031,0.344 l 0,0.188 2,0.094 0.031,-0.344 c -0.004,-0.035 0,-0.082 0,-0.125 m -2.063,0.969 -0.031,0.625 1.906,0.094 0.063,-0.625 m -2,0.852 -0.625,14.03 c 0.637,-0.387 0.945,-1.902 1.313,-3.25 l 1.219,-10.688 m -1.906,-0.094"
                 id="path3069" />
            </g>
          </g>
        </g>
      </g>
    </g>
    <g
       id="g3071"
       transform="translate(0.66276891,1004.5722)">
      <g
         clip-path="url(#clipPath-805962544)"
         id="g3073">
        <!-- color: #eeeeee -->
        <g
           id="g3075">
          <path
             style="fill:#ff9933;fill-opacity:1;fill-rule:nonzero;stroke:none"
             inkscape:connector-curvature="0"
             d="m 24,9.03 c 0.258,0.941 -0.203,1.211 -0.531,1.594 0.676,0.328 1.082,0.574 1.125,-0.125 C 24.539,10.155 24.332,10.186 24,9.03 m -3.125,2.375 c 1.039,0.855 1.938,1.75 1,3.03 -0.734,0.602 -2.262,0.977 -2.219,-0.875 -0.379,0.621 -0.383,1.395 -0.188,2.25 0.051,0.215 0.145,0.387 0.25,0.531 1.797,1.332 1.895,1.605 2.156,2.125 1.66,2.965 -0.98,5.066 -1.156,5.344 l -0.125,0.25 c 1.895,2.785 3.691,2.566 4.813,2.563 1.316,-0.102 4.422,-1.98 3.03,-5.625 -0.039,1.914 -1.586,0.895 -1.906,0.25 -0.277,-0.301 -0.68,-2.711 0.563,-2.77 0.305,-0.148 -0.246,-2.316 -2.063,-3.355 2.531,1.941 -0.895,4.906 -1.75,1.875 -0.051,-0.176 0.008,-4.488 1.875,-3.5 -0.891,-1.469 -2.289,-2.195 -4.281,-2.094 m 5.75,0.004 c -1.141,0.523 -0.691,3.316 0.063,3.375 -0.285,-0.75 -0.609,-1.145 -0.063,-3.375 m -7.156,5.441 c -0.199,1.113 -0.211,2.285 0.25,2.781 0.547,0.645 0.879,0.488 1.25,0.469 0.164,-0.082 0.023,-0.199 -0.188,-0.344 0.027,-0.059 0.254,-0.082 0.438,-0.098 0.066,-0.063 0.129,-0.125 0.094,-0.25 -0.031,0.102 -0.117,0.148 -0.25,0.191 m 7.344,0.344 c -0.059,0.031 -0.074,0.137 -0.031,0.219 0.047,0.082 0.129,0.125 0.188,0.094 0.059,-0.031 0.047,-0.137 0,-0.219 -0.043,-0.082 -0.098,-0.125 -0.156,-0.094 m -7.438,5.656 c -0.027,0.004 0.711,0.938 0.688,0.875 -0.008,-0.031 0.289,-0.359 0.344,-0.316 -0.262,-0.145 -0.629,-0.348 -1.031,-0.563 m 0,0"
             id="path3077" />
          <path
             style="fill:#2f2f2f;fill-opacity:1;fill-rule:nonzero;stroke:none"
             inkscape:connector-curvature="0"
             d="m 23.906,20.844 c -0.508,0.035 -0.789,0.363 -0.938,0.813 l 1.844,0.156 c -0.047,-0.434 -0.238,-0.82 -0.906,-0.969 m -1.094,1.844 c -0.008,0.117 -0.027,0.223 -0.031,0.344 l 0,0.188 2,0.094 0.031,-0.344 c -0.004,-0.035 0,-0.082 0,-0.125 m -2.063,0.969 -0.031,0.625 1.906,0.094 0.063,-0.625 m -2,0.852 -0.625,14.03 c 0.637,-0.387 0.945,-1.902 1.313,-3.25 l 1.219,-10.688 m -1.906,-0.094"
             id="path3079" />
        </g>
      </g>
    </g>
  </g>
</svg>
