<?xml version="1.0" encoding="UTF-8" standalone="no"?>
<!-- Created with Inkscape (http://www.inkscape.org/) -->

<svg
   xmlns:dc="http://purl.org/dc/elements/1.1/"
   xmlns:cc="http://creativecommons.org/ns#"
   xmlns:rdf="http://www.w3.org/1999/02/22-rdf-syntax-ns#"
   xmlns:svg="http://www.w3.org/2000/svg"
   xmlns="http://www.w3.org/2000/svg"
   xmlns:xlink="http://www.w3.org/1999/xlink"
   xmlns:sodipodi="http://sodipodi.sourceforge.net/DTD/sodipodi-0.dtd"
   xmlns:inkscape="http://www.inkscape.org/namespaces/inkscape"
   width="48"
   height="48"
   id="svg2"
   version="1.1"
   inkscape:version="0.48.4 r9939"
   sodipodi:docname="stormcloud.svg">
  <sodipodi:namedview
     id="base"
     pagecolor="#ffffff"
     bordercolor="#666666"
     borderopacity="1.0"
     inkscape:pageopacity="0.0"
     inkscape:pageshadow="2"
     inkscape:zoom="11.583333"
     inkscape:cx="17.701206"
     inkscape:cy="23.106701"
     inkscape:document-units="px"
     inkscape:current-layer="layer1"
     showgrid="true"
     inkscape:snap-bbox="true"
     inkscape:window-width="1301"
     inkscape:window-height="744"
     inkscape:window-x="65"
     inkscape:window-y="24"
     inkscape:window-maximized="1"
     inkscape:snap-global="true"
     inkscape:snap-nodes="false">
    <inkscape:grid
       snapvisiblegridlinesonly="true"
       enabled="true"
       visible="true"
       empspacing="6"
       id="grid2985"
       type="xygrid" />
  </sodipodi:namedview>
  <defs
     id="defs4">
    <linearGradient
       id="linearGradient3765">
      <stop
         style="stop-color:#7c4dff;stop-opacity:1;"
         offset="0"
         id="stop3767" />
      <stop
         style="stop-color:#8b61ff;stop-opacity:1;"
         offset="1"
         id="stop3769" />
    </linearGradient>
    <linearGradient
       inkscape:collect="always"
       xlink:href="#linearGradient3765"
       id="linearGradient3771"
       x1="24"
       y1="1050.3622"
       x2="24"
       y2="1006.3622"
       gradientUnits="userSpaceOnUse" />
  </defs>
  <metadata
     id="metadata7">
    <rdf:RDF>
      <cc:Work
         rdf:about="">
        <dc:format>image/svg+xml</dc:format>
        <dc:type
           rdf:resource="http://purl.org/dc/dcmitype/StillImage" />
        <dc:title />
      </cc:Work>
    </rdf:RDF>
  </metadata>
  <g
     transform="translate(0,-1004.3622)"
     id="layer1"
     inkscape:groupmode="layer"
     inkscape:label="Layer 1">
    <path
       inkscape:connector-curvature="0"
       style="opacity:0.20000000000000001;fill:#ffffff;fill-opacity:1;stroke:none"
       d="m 24,1051.1116 c -21.2715315,0 -23.66257505,-0.089 -23.9375,-15.4063 0.328125,14.4033 2.9375,14.4063 23.9375,14.4063 21,0 23.609375,0 23.9375,-14.4063 -0.274925,15.3174 -2.665968,15.4063 -23.9375,15.4063 z"
       id="path3788" />
    <path
       sodipodi:nodetypes="zzzzz"
       inkscape:connector-curvature="0"
       id="path3757"
       d="m 24,1006.3622 c -24,0 -24,0 -24,22 0,22 0,22 24,22 24,0 24,0 24,-22 0,-22 0,-22 -24,-22 z"
       style="fill:url(#linearGradient3771);fill-opacity:1;stroke:none" />
    <path
       id="path3770"
       transform="translate(0,1004.3622)"
       d="M 24 2 C 2.7284685 2 0.33742495 2.0888436 0.0625 17.40625 C 0.390625 3.0029297 3 3 24 3 C 45 3 47.609375 3.0029297 47.9375 17.40625 C 47.662575 2.0888436 45.271532 2 24 2 z "
       style="fill:#000000;fill-opacity:1;stroke:none;opacity:0.20000000000000001" />
    <path
       id="path3012"
       transform="translate(0,1004.3622)"
       d="M 24 2 C 7.2405624 2 2.2369698 2.0788791 0.71875 9.59375 C 2.3300781 2.5289866 7.5 2.53125 24 2.53125 C 40.5 2.53125 45.669922 2.5289866 47.28125 9.59375 C 45.76303 2.0788791 40.759438 2 24 2 z M 47.28125 9.59375 C 47.354492 9.9148756 47.409424 10.242768 47.46875 10.59375 C 47.41561 10.240351 47.346891 9.9186608 47.28125 9.59375 z M 0.71875 9.59375 C 0.65310868 9.9186608 0.58439008 10.240351 0.53125 10.59375 C 0.59057617 10.242768 0.64550781 9.9148756 0.71875 9.59375 z "
       style="fill:#000000;fill-opacity:1;stroke:none;opacity:0.20000000000000001" />
    <g
       transform="translate(48,1007.3622)"
       id="g3032" />
    <g
       id="g3033"
       transform="translate(-50.998,1005.3622)" />
    <path
       id="path3780"
       d="m 22.71875,1018.3622 c -4.016617,0 -7.25,3.2646 -7.25,7.2813 0,0.029 -3.36e-4,0.034 0,0.062 -3.08179,0.4432 -5.46875,3.0768 -5.46875,6.2812 0,3.5145 2.860461,6.375 6.375,6.375 l 6.21875,0 0.40625,-2 -5,0 3,-7 7,0 -3,4 5,0 -3.46875,5 9.84375,0 c 2.008309,0 3.625,-1.6167 3.625,-3.625 0,-1.7255 -1.200218,-3.1585 -2.8125,-3.5312 0.06161,-0.3281 0.09375,-0.6853 0.09375,-1.0313 0,-3.0125 -2.456288,-5.4375 -5.46875,-5.4375 -0.649562,0 -1.265991,0.1355 -1.84375,0.3438 -0.292665,-3.7482 -3.426576,-6.7188 -7.25,-6.7188 z m 3.8125,20 -3.9375,0 -1.59375,8 5.53125,-8 z"
       style="opacity:0.1;fill:#000000;fill-opacity:1;stroke:none"
       inkscape:connector-curvature="0" />
    <path
       style="fill:#ffffff;fill-opacity:1;stroke:none"
       d="M 21.71875 13 C 17.702133 13 14.46875 16.26465 14.46875 20.28125 C 14.46875 20.31025 14.468414 20.31475 14.46875 20.34375 C 11.38696 20.78695 9 23.4206 9 26.625 C 9 30.1395 11.860461 33 15.375 33 L 21.59375 33 L 22 31 L 17 31 L 20 24 L 27 24 L 24 28 L 29 28 L 25.53125 33 L 35.375 33 C 37.383309 33 39 31.3833 39 29.375 C 39 27.6495 37.799782 26.21645 36.1875 25.84375 C 36.24911 25.51565 36.28125 25.1585 36.28125 24.8125 C 36.28125 21.8 33.824962 19.375 30.8125 19.375 C 30.162938 19.375 29.546509 19.51045 28.96875 19.71875 C 28.676085 15.97055 25.542174 13 21.71875 13 z M 25.53125 33 L 21.59375 33 L 20 41 L 25.53125 33 z "
       transform="translate(0,1004.3622)"
       id="path3007" />
  </g>
</svg>
