<?xml version="1.0" encoding="UTF-8" standalone="no"?>
<!-- Created with Inkscape (http://www.inkscape.org/) -->

<svg
   xmlns:dc="http://purl.org/dc/elements/1.1/"
   xmlns:cc="http://creativecommons.org/ns#"
   xmlns:rdf="http://www.w3.org/1999/02/22-rdf-syntax-ns#"
   xmlns:svg="http://www.w3.org/2000/svg"
   xmlns="http://www.w3.org/2000/svg"
   xmlns:sodipodi="http://sodipodi.sourceforge.net/DTD/sodipodi-0.dtd"
   xmlns:inkscape="http://www.inkscape.org/namespaces/inkscape"
   width="48"
   height="48"
   id="svg2"
   version="1.1"
   inkscape:version="0.48.4 r9939"
   sodipodi:docname="strife.svg">
  <defs
     id="defs4">
    <linearGradient
       gradientTransform="matrix(0,-1,1,0,-1.5e-6,47.999998)"
       gradientUnits="userSpaceOnUse"
       x2="47"
       x1="1"
       id="linearGradient3764">
      <stop
         id="stop3774"
         stop-opacity="1"
         stop-color="#a6bdd6" />
      <stop
         id="stop3776"
         stop-opacity="1"
         stop-color="#b4c7dc"
         offset="1" />
    </linearGradient>
  </defs>
  <sodipodi:namedview
     id="base"
     pagecolor="#ffffff"
     bordercolor="#666666"
     borderopacity="1.0"
     inkscape:pageopacity="0.0"
     inkscape:pageshadow="2"
     inkscape:zoom="11.583333"
     inkscape:cx="13.293966"
     inkscape:cy="15.896027"
     inkscape:document-units="px"
     inkscape:current-layer="layer1"
     showgrid="true"
     inkscape:snap-bbox="true"
     inkscape:window-width="1301"
     inkscape:window-height="744"
     inkscape:window-x="65"
     inkscape:window-y="24"
     inkscape:window-maximized="1"
     inkscape:snap-global="true">
    <inkscape:grid
       type="xygrid"
       id="grid2985"
       empspacing="6"
       visible="true"
       enabled="true"
       snapvisiblegridlinesonly="true" />
  </sodipodi:namedview>
  <metadata
     id="metadata7">
    <rdf:RDF>
      <cc:Work
         rdf:about="">
        <dc:format>image/svg+xml</dc:format>
        <dc:type
           rdf:resource="http://purl.org/dc/dcmitype/StillImage" />
        <dc:title />
      </cc:Work>
    </rdf:RDF>
  </metadata>
  <g
     inkscape:label="Layer 1"
     inkscape:groupmode="layer"
     id="layer1"
     transform="translate(0,-1004.3622)">
    <path
       id="path3788"
       d="m 24,1051.1116 c -21.2715315,0 -23.66257505,-0.089 -23.9375,-15.4063 0.328125,14.4033 2.9375,14.4063 23.9375,14.4063 21,0 23.609375,0 23.9375,-14.4063 -0.274925,15.3174 -2.665968,15.4063 -23.9375,15.4063 z"
       style="opacity:0.20000000000000001;fill:#ffffff;fill-opacity:1;stroke:none"
       inkscape:connector-curvature="0" />
    <path
       style="fill:#b2c6db;fill-opacity:1;stroke:none"
       d="m 24,1006.3622 c -24,0 -24,0 -24,22 0,22 0,22 24,22 24,0 24,0 24,-22 0,-22 0,-22 -24,-22 z"
       id="path3757"
       inkscape:connector-curvature="0"
       sodipodi:nodetypes="zzzzz" />
    <path
       style="fill:#000000;fill-opacity:1;stroke:none;opacity:0.20000000000000001"
       d="M 24 2 C 2.7284685 2 0.33742495 2.0888436 0.0625 17.40625 C 0.390625 3.0029297 3 3 24 3 C 45 3 47.609375 3.0029297 47.9375 17.40625 C 47.662575 2.0888436 45.271532 2 24 2 z "
       transform="translate(0,1004.3622)"
       id="path3770" />
    <path
       style="fill:#000000;fill-opacity:1;stroke:none;opacity:0.20000000000000001"
       d="M 24 2 C 7.2405624 2 2.2369698 2.0788791 0.71875 9.59375 C 2.3300781 2.5289866 7.5 2.53125 24 2.53125 C 40.5 2.53125 45.669922 2.5289866 47.28125 9.59375 C 45.76303 2.0788791 40.759438 2 24 2 z M 47.28125 9.59375 C 47.354492 9.9148756 47.409424 10.242768 47.46875 10.59375 C 47.41561 10.240351 47.346891 9.9186608 47.28125 9.59375 z M 0.71875 9.59375 C 0.65310868 9.9186608 0.58439008 10.240351 0.53125 10.59375 C 0.59057617 10.242768 0.64550781 9.9148756 0.71875 9.59375 z "
       transform="translate(0,1004.3622)"
       id="path3012" />
    <g
       id="g3032"
       transform="translate(48,1007.3622)" />
    <g
       id="g3806"
       transform="translate(-49.998,1010.3622)" />
    <g
       id="g3800"
       transform="translate(-51,1008.3622)" />
    <g
       id="g3989"
       style="opacity:0.2;fill:#000000;fill-opacity:1"
       transform="translate(1,1)">
      <path
         style="fill:#000000;fill-opacity:1;stroke:none"
         d="M 36.1875,30.46875 28,28 l 2.5,8.28125 c 2.470504,-1.302701 4.369726,-3.356131 5.6875,-5.8125 z"
         id="path3991"
         transform="translate(0,1004.3622)"
         inkscape:connector-curvature="0" />
      <path
         style="fill:#000000;fill-opacity:1;stroke:none"
         d="M 30.5,11.6875 28,20 36.3125,17.5 C 34.998863,15.023171 32.976829,13.001137 30.5,11.6875 z"
         id="path3993"
         transform="translate(0,1004.3622)"
         inkscape:connector-curvature="0" />
      <path
         style="fill:#000000;fill-opacity:1;stroke:none"
         d="M 17.5,36.28125 20,28 11.8125,30.46875 c 1.317774,2.456369 3.216996,4.509799 5.6875,5.8125 z"
         id="path3995"
         transform="translate(0,1004.3622)"
         inkscape:connector-curvature="0" />
      <path
         style="fill:#000000;fill-opacity:1;stroke:none"
         d="m 24,10 c -2.366511,0 -4.545511,0.650897 -6.5,1.6875 L 20,20 11.6875,17.5 C 10.650897,19.454489 10,21.633489 10,24 c 0,2.376655 0.764184,4.514659 1.8125,6.46875 L 20,28 17.5,36.28125 c 1.390009,0.732954 2.883867,1.297392 4.5,1.53125 L 22,14 24,10 z"
         id="path3997"
         transform="translate(0,1004.3622)"
         inkscape:connector-curvature="0" />
      <path
         style="fill:#000000;fill-opacity:1;stroke:none"
         d="m 24,10 2,4 0,23.8125 c 1.616133,-0.233858 3.109991,-0.798296 4.5,-1.53125 L 28,28 36.1875,30.46875 C 37.235816,28.514659 38,26.376655 38,24 38,21.633489 37.349103,19.454489 36.3125,17.5 L 28,20 30.5,11.6875 C 28.545511,10.650897 26.366511,10 24,10 z"
         id="path3999"
         transform="translate(0,1004.3622)"
         inkscape:connector-curvature="0" />
      <path
         style="fill:#000000;fill-opacity:1;stroke:none"
         d="M 11.6875,17.5 20,20 17.5,11.6875 c -2.476829,1.313637 -4.498863,3.335671 -5.8125,5.8125 z"
         id="path4001"
         transform="translate(0,1004.3622)"
         inkscape:connector-curvature="0" />
      <path
         style="fill:#000000;fill-opacity:1;stroke:none"
         d="M 25.90625,37.8125 24,34 22.09375,37.8125 C 22.722862,37.903117 23.345054,38 24,38 c 0.654946,0 1.277138,-0.09688 1.90625,-0.1875 z"
         id="path4003"
         transform="translate(0,1004.3622)"
         inkscape:connector-curvature="0" />
      <path
         style="fill:#000000;fill-opacity:1;stroke:none"
         d="m 24,10 -2,4 0,23.8125 c 0.03069,0.0044 0.06309,-0.0044 0.09375,0 L 24,34 l 1.90625,3.8125 c 0.03066,-0.0044 0.06306,0.0044 0.09375,0 L 26,14 24,10 z"
         id="path4005"
         transform="translate(0,1004.3622)"
         inkscape:connector-curvature="0" />
      <path
         sodipodi:nodetypes="cccc"
         inkscape:connector-curvature="0"
         id="path4007"
         transform="translate(0,1004.3622)"
         d="m 22,14 4,0 -2,-4 z"
         style="fill:#000000;fill-opacity:1;stroke:none" />
    </g>
    <g
       id="g3978">
      <path
         transform="translate(0,1004.3622)"
         id="path3971"
         d="M 36.1875 30.46875 L 28 28 L 30.5 36.28125 C 32.970504 34.978549 34.869726 32.925119 36.1875 30.46875 z "
         style="fill:#64b5f6;fill-opacity:1;stroke:none" />
      <path
         transform="translate(0,1004.3622)"
         id="path3969"
         d="M 30.5 11.6875 L 28 20 L 36.3125 17.5 C 34.998863 15.023171 32.976829 13.001137 30.5 11.6875 z "
         style="fill:#64b5f6;fill-opacity:1;stroke:none" />
      <path
         transform="translate(0,1004.3622)"
         id="path3967"
         d="M 17.5 36.28125 L 20 28 L 11.8125 30.46875 C 13.130274 32.925119 15.029496 34.978549 17.5 36.28125 z "
         style="fill:#64b5f6;fill-opacity:1;stroke:none" />
      <path
         transform="translate(0,1004.3622)"
         id="path3965"
         d="M 24 10 C 21.633489 10 19.454489 10.650897 17.5 11.6875 L 20 20 L 11.6875 17.5 C 10.650897 19.454489 10 21.633489 10 24 C 10 26.376655 10.764184 28.514659 11.8125 30.46875 L 20 28 L 17.5 36.28125 C 18.890009 37.014204 20.383867 37.578642 22 37.8125 L 22 14 L 24 10 z "
         style="fill:#2d2d2d;fill-opacity:1;stroke:none" />
      <path
         transform="translate(0,1004.3622)"
         id="path3957"
         d="M 24 10 L 26 14 L 26 37.8125 C 27.616133 37.578642 29.109991 37.014204 30.5 36.28125 L 28 28 L 36.1875 30.46875 C 37.235816 28.514659 38 26.376655 38 24 C 38 21.633489 37.349103 19.454489 36.3125 17.5 L 28 20 L 30.5 11.6875 C 28.545511 10.650897 26.366511 10 24 10 z "
         style="fill:#2d2d2d;fill-opacity:1;stroke:none" />
      <path
         transform="translate(0,1004.3622)"
         id="path3954"
         d="M 11.6875 17.5 L 20 20 L 17.5 11.6875 C 15.023171 13.001137 13.001137 15.023171 11.6875 17.5 z "
         style="fill:#64b5f6;fill-opacity:1;stroke:none" />
      <path
         transform="translate(0,1004.3622)"
         id="path3976"
         d="M 25.90625 37.8125 L 24 34 L 22.09375 37.8125 C 22.722862 37.903117 23.345054 38 24 38 C 24.654946 38 25.277138 37.903117 25.90625 37.8125 z "
         style="fill:#1e88e5;fill-opacity:1;stroke:none" />
      <path
         transform="translate(0,1004.3622)"
         id="path3952"
         d="M 24 10 L 22 14 L 22 37.8125 C 22.030686 37.81694 22.063093 37.808084 22.09375 37.8125 L 24 34 L 25.90625 37.8125 C 25.936907 37.808084 25.969314 37.81694 26 37.8125 L 26 14 L 24 10 z "
         style="fill:#4dd0e1;fill-opacity:1;stroke:none" />
      <path
         style="fill:#1e88e5;fill-opacity:1;stroke:none"
         d="m 22,14 4,0 -2,-4 z"
         transform="translate(0,1004.3622)"
         id="path3940"
         inkscape:connector-curvature="0"
         sodipodi:nodetypes="cccc" />
    </g>
  </g>
</svg>
