<?xml version="1.0" encoding="UTF-8" standalone="no"?>
<!-- Created with Inkscape (http://www.inkscape.org/) -->

<svg
   xmlns:dc="http://purl.org/dc/elements/1.1/"
   xmlns:cc="http://creativecommons.org/ns#"
   xmlns:rdf="http://www.w3.org/1999/02/22-rdf-syntax-ns#"
   xmlns:svg="http://www.w3.org/2000/svg"
   xmlns="http://www.w3.org/2000/svg"
   xmlns:xlink="http://www.w3.org/1999/xlink"
   xmlns:sodipodi="http://sodipodi.sourceforge.net/DTD/sodipodi-0.dtd"
   xmlns:inkscape="http://www.inkscape.org/namespaces/inkscape"
   width="48"
   height="48"
   id="svg2"
   version="1.1"
   inkscape:version="0.48.4 r9939"
   sodipodi:docname="swami.svg">
  <defs
     id="defs4">
    <linearGradient
       id="linearGradient3864">
      <stop
         style="stop-color:#ff4081;stop-opacity:1;"
         offset="0"
         id="stop3866" />
      <stop
         style="stop-color:#ff40ac;stop-opacity:1;"
         offset="1"
         id="stop3868" />
    </linearGradient>
    <linearGradient
       inkscape:collect="always"
       xlink:href="#linearGradient3864"
       id="linearGradient3870"
       x1="24"
       y1="1050.3622"
       x2="24"
       y2="1006.3622"
       gradientUnits="userSpaceOnUse" />
  </defs>
  <sodipodi:namedview
     id="base"
     pagecolor="#ffffff"
     bordercolor="#666666"
     borderopacity="1.0"
     inkscape:pageopacity="0.0"
     inkscape:pageshadow="2"
     inkscape:zoom="8.1906535"
     inkscape:cx="6.394103"
     inkscape:cy="22.551161"
     inkscape:document-units="px"
     inkscape:current-layer="layer1"
     showgrid="true"
     inkscape:snap-bbox="true"
     inkscape:window-width="1301"
     inkscape:window-height="744"
     inkscape:window-x="65"
     inkscape:window-y="24"
     inkscape:window-maximized="1"
     inkscape:object-nodes="true"
     showguides="true"
     inkscape:guide-bbox="true"
     inkscape:snap-nodes="false"
     inkscape:snap-global="true">
    <inkscape:grid
       type="xygrid"
       id="grid3003"
       empspacing="6"
       visible="true"
       enabled="true"
       snapvisiblegridlinesonly="true" />
  </sodipodi:namedview>
  <metadata
     id="metadata7">
    <rdf:RDF>
      <cc:Work
         rdf:about="">
        <dc:format>image/svg+xml</dc:format>
        <dc:type
           rdf:resource="http://purl.org/dc/dcmitype/StillImage" />
        <dc:title />
      </cc:Work>
    </rdf:RDF>
  </metadata>
  <g
     inkscape:label="Layer 1"
     inkscape:groupmode="layer"
     id="layer1"
     transform="translate(0,-1004.3622)">
    <path
       id="path3788"
       d="m 24,1051.1116 c -21.2715315,0 -23.66257505,-0.089 -23.9375,-15.4063 0.328125,14.4033 2.9375,14.4063 23.9375,14.4063 21,0 23.609375,0 23.9375,-14.4063 -0.274925,15.3174 -2.665968,15.4063 -23.9375,15.4063 z"
       style="opacity:0.20000000000000001;fill:#ffffff;fill-opacity:1;stroke:none"
       inkscape:connector-curvature="0" />
    <path
       style="fill:url(#linearGradient3870);fill-opacity:1;stroke:none"
       d="m 24,1006.3622 c -24,0 -24,0 -24,22 0,22 0,22 24,22 24,0 24,0 24,-22 0,-22 0,-22 -24,-22 z"
       id="path3757"
       inkscape:connector-curvature="0"
       sodipodi:nodetypes="zzzzz" />
    <path
       style="fill:#000000;fill-opacity:1;stroke:none;opacity:0.20000000000000001"
       d="M 24 2 C 2.7284685 2 0.33742495 2.0888436 0.0625 17.40625 C 0.390625 3.0029297 3 3 24 3 C 45 3 47.609375 3.0029297 47.9375 17.40625 C 47.662575 2.0888436 45.271532 2 24 2 z "
       transform="translate(0,1004.3622)"
       id="path3770" />
    <g
       id="g3813"
       transform="translate(-47.998,993.3622)" />
    <g
       id="g3038"
       transform="translate(-50.335,1008.7072)" />
    <g
       id="g3041"
       transform="translate(-51.97,1003.7612)" />
    <g
       id="g3026"
       transform="translate(-56.532,1001.6102)" />
    <g
       id="g3811"
       transform="translate(-51.613,998.4722)" />
    <g
       id="g3073"
       transform="translate(-56,1004.3622)" />
    <g
       id="g3876"
       style="opacity:0.1;fill:#000000;fill-opacity:1"
       transform="translate(0.996,0.9984935)">
      <path
         style="fill:#000000;fill-opacity:1;fill-rule:nonzero;stroke:none"
         inkscape:connector-curvature="0"
         d="m 26.496,1021.8651 c 0.008,0.902 -0.465,1.738 -1.242,2.191 -0.777,0.453 -1.738,0.453 -2.52,0 -0.777,-0.453 -1.25,-1.289 -1.238,-2.191 -0.012,-0.902 0.461,-1.738 1.238,-2.191 0.781,-0.453 1.742,-0.453 2.52,0 0.777,0.453 1.25,1.289 1.242,2.191 m 0,0"
         id="path3878" />
      <path
         style="fill:#000000;fill-opacity:1;fill-rule:nonzero;stroke:none"
         inkscape:connector-curvature="0"
         d="m 22.785,1026.9741 c -2.438,-0.703 -5.01,-3.379 -5.074,-9.129 -0.254,-1.641 -2.598,-1.699 -2.711,-0.027 0.707,10.703 5.137,11.391 7.707,11.746 l -0.145,7.02 -4.613,2.816 c -1,1.676 0.324,3.113 1.742,2.578 1.41,-0.938 2.824,-1.875 4.234,-2.813 l 3.93,3.047 c 1.695,0.77 2.922,-1.586 1.59,-2.734 l -4.234,-2.852 0.188,-7.164 c 7.02,-1.73 6.906,-4.578 7.605,-11.496 -0.168,-1.957 -2.895,-2.277 -3.02,-0.098 0.738,5.469 -1.637,8.102 -4.766,8.91 l -0.086,-1.445 c -0.859,-0.621 -1.527,-0.621 -2.293,0 m -0.059,1.641"
         id="path3880" />
    </g>
    <g
       id="g3872">
      <path
         id="path3053"
         d="m 26.496,1021.8651 c 0.008,0.902 -0.465,1.738 -1.242,2.191 -0.777,0.453 -1.738,0.453 -2.52,0 -0.777,-0.453 -1.25,-1.289 -1.238,-2.191 -0.012,-0.902 0.461,-1.738 1.238,-2.191 0.781,-0.453 1.742,-0.453 2.52,0 0.777,0.453 1.25,1.289 1.242,2.191 m 0,0"
         inkscape:connector-curvature="0"
         style="fill:#373737;fill-opacity:1;fill-rule:nonzero;stroke:none" />
      <path
         id="path3055"
         d="m 22.785,1026.9741 c -2.438,-0.703 -5.01,-3.379 -5.074,-9.129 -0.254,-1.641 -2.598,-1.699 -2.711,-0.027 0.707,10.703 5.137,11.391 7.707,11.746 l -0.145,7.02 -4.613,2.816 c -1,1.676 0.324,3.113 1.742,2.578 1.41,-0.938 2.824,-1.875 4.234,-2.813 l 3.93,3.047 c 1.695,0.77 2.922,-1.586 1.59,-2.734 l -4.234,-2.852 0.188,-7.164 c 7.02,-1.73 6.906,-4.578 7.605,-11.496 -0.168,-1.957 -2.895,-2.277 -3.02,-0.098 0.738,5.469 -1.637,8.102 -4.766,8.91 l -0.086,-1.445 c -0.859,-0.621 -1.527,-0.621 -2.293,0 m -0.059,1.641"
         inkscape:connector-curvature="0"
         style="fill:#373737;fill-opacity:1;fill-rule:nonzero;stroke:none" />
    </g>
  </g>
</svg>
