<?xml version="1.0" encoding="UTF-8" standalone="no"?>
<!-- Created with Inkscape (http://www.inkscape.org/) -->

<svg
   xmlns:dc="http://purl.org/dc/elements/1.1/"
   xmlns:cc="http://creativecommons.org/ns#"
   xmlns:rdf="http://www.w3.org/1999/02/22-rdf-syntax-ns#"
   xmlns:svg="http://www.w3.org/2000/svg"
   xmlns="http://www.w3.org/2000/svg"
   xmlns:xlink="http://www.w3.org/1999/xlink"
   xmlns:sodipodi="http://sodipodi.sourceforge.net/DTD/sodipodi-0.dtd"
   xmlns:inkscape="http://www.inkscape.org/namespaces/inkscape"
   width="48"
   height="48"
   id="svg2"
   version="1.1"
   inkscape:version="0.48.4 r9939"
   sodipodi:docname="TeXmacs.svg">
  <defs
     id="defs4">
    <linearGradient
       id="linearGradient3803">
      <stop
         style="stop-color:#616161;stop-opacity:1;"
         offset="0"
         id="stop3805" />
      <stop
         style="stop-color:#757575;stop-opacity:1;"
         offset="1"
         id="stop3807" />
    </linearGradient>
    <linearGradient
       id="linearGradient3779">
      <stop
         style="stop-color:#000000;stop-opacity:1;"
         offset="0"
         id="stop3781" />
      <stop
         style="stop-color:#ffffff;stop-opacity:1;"
         offset="1"
         id="stop3783" />
    </linearGradient>
    <linearGradient
       inkscape:collect="always"
       xlink:href="#linearGradient3779"
       id="linearGradient3792"
       gradientUnits="userSpaceOnUse"
       gradientTransform="translate(-40,0)"
       spreadMethod="repeat"
       x1="24"
       y1="1028.3622"
       x2="45"
       y2="1007.3622" />
    <linearGradient
       inkscape:collect="always"
       xlink:href="#linearGradient3779"
       id="linearGradient3794"
       gradientUnits="userSpaceOnUse"
       gradientTransform="translate(-40,0)"
       spreadMethod="repeat"
       x1="44"
       y1="1048.3622"
       x2="15"
       y2="1019.3622" />
    <clipPath
       id="clipPath-129741425">
      <g
         id="g3041"
         transform="translate(0,-1004.3622)">
        <path
           id="path3043"
           fill="#1890d0"
           transform="matrix(15.333333,0,0,11.5,414.99999,878.8622)"
           d="m -24 13 c 0 1.105 -0.672 2 -1.5 2 -0.828 0 -1.5 -0.895 -1.5 -2 0 -1.105 0.672 -2 1.5 -2 0.828 0 1.5 0.895 1.5 2 z" />
      </g>
    </clipPath>
    <clipPath
       id="clipPath-117424801">
      <g
         id="g3036"
         transform="translate(0,-1004.3622)">
        <path
           id="path3038"
           fill="#1890d0"
           transform="matrix(15.333333,0,0,11.5,414.99999,878.8622)"
           d="m -24 13 c 0 1.105 -0.672 2 -1.5 2 -0.828 0 -1.5 -0.895 -1.5 -2 0 -1.105 0.672 -2 1.5 -2 0.828 0 1.5 0.895 1.5 2 z" />
      </g>
    </clipPath>
    <linearGradient
       inkscape:collect="always"
       xlink:href="#linearGradient3803"
       id="linearGradient3809"
       x1="24"
       y1="1050.3622"
       x2="24"
       y2="1006.3622"
       gradientUnits="userSpaceOnUse" />
  </defs>
  <sodipodi:namedview
     id="base"
     pagecolor="#ffffff"
     bordercolor="#666666"
     borderopacity="1.0"
     inkscape:pageopacity="0.0"
     inkscape:pageshadow="2"
     inkscape:zoom="8.1906533"
     inkscape:cx="12.502471"
     inkscape:cy="26.894049"
     inkscape:document-units="px"
     inkscape:current-layer="layer1"
     showgrid="true"
     inkscape:snap-bbox="true"
     inkscape:window-width="1301"
     inkscape:window-height="744"
     inkscape:window-x="65"
     inkscape:window-y="24"
     inkscape:window-maximized="1"
     inkscape:object-nodes="true"
     inkscape:snap-nodes="false">
    <inkscape:grid
       type="xygrid"
       id="grid3003"
       empspacing="6"
       visible="true"
       enabled="true"
       snapvisiblegridlinesonly="true" />
  </sodipodi:namedview>
  <metadata
     id="metadata7">
    <rdf:RDF>
      <cc:Work
         rdf:about="">
        <dc:format>image/svg+xml</dc:format>
        <dc:type
           rdf:resource="http://purl.org/dc/dcmitype/StillImage" />
        <dc:title />
      </cc:Work>
    </rdf:RDF>
  </metadata>
  <g
     inkscape:label="Layer 1"
     inkscape:groupmode="layer"
     id="layer1"
     transform="translate(0,-1004.3622)">
    <path
       id="path3788"
       d="m 24,1051.1116 c -21.2715315,0 -23.66257505,-0.089 -23.9375,-15.4063 0.328125,14.4033 2.9375,14.4063 23.9375,14.4063 21,0 23.609375,0 23.9375,-14.4063 -0.274925,15.3174 -2.665968,15.4063 -23.9375,15.4063 z"
       style="opacity:0.20000000000000001;fill:#ffffff;fill-opacity:1;stroke:none"
       inkscape:connector-curvature="0" />
    <path
       style="fill:url(#linearGradient3809);fill-opacity:1;stroke:none"
       d="m 24,1006.3622 c -24,0 -24,0 -24,22 0,22 0,22 24,22 24,0 24,0 24,-22 0,-22 0,-22 -24,-22 z"
       id="path3757"
       inkscape:connector-curvature="0"
       sodipodi:nodetypes="zzzzz" />
    <g
       id="g3788"
       transform="translate(40,0)">
      <path
         style="opacity:0.07999998;fill:url(#linearGradient3792);fill-opacity:1;stroke:none"
         d="m -16,1006.3622 c -24,0 -24,0 -24,22 0,22 0,22 24,22 24,0 24,0 24,-22 0,-22 0,-22 -24,-22 z"
         id="path3777"
         inkscape:connector-curvature="0"
         sodipodi:nodetypes="zzzzz" />
      <path
         sodipodi:nodetypes="zzzzz"
         inkscape:connector-curvature="0"
         id="path3787"
         d="m -16,1006.3622 c -24,0 -24,0 -24,22 0,22 0,22 24,22 24,0 24,0 24,-22 0,-22 0,-22 -24,-22 z"
         style="opacity:0.07999998;fill:url(#linearGradient3794);fill-opacity:1;stroke:none" />
    </g>
    <g
       id="g3813"
       transform="translate(-47.998,993.3622)" />
    <path
       style="fill:#000000;fill-opacity:1;stroke:none;opacity:0.20000000000000001"
       d="M 24 2 C 2.7284685 2 0.33742495 2.0888436 0.0625 17.40625 C 0.390625 3.0029297 3 3 24 3 C 45 3 47.609375 3.0029297 47.9375 17.40625 C 47.662575 2.0888436 45.271532 2 24 2 z "
       transform="translate(0,1004.3622)"
       id="path3770" />
    <g
       id="g3057"
       transform="translate(-49.355,995.0622)" />
    <g
       id="g3059"
       transform="translate(1,1005.3632)">
      <g
         clip-path="url(#clipPath-117424801)"
         id="g3061">
        <g
           transform="translate(1,1)"
           id="g3063">
          <g
             style="opacity:0.1"
             id="g3065">
            <!-- color: #f7d9cc -->
            <g
               id="g3067">
              <path
                 style="fill:#000000;fill-opacity:1;fill-rule:nonzero;stroke:none"
                 inkscape:connector-curvature="0"
                 d="m 20.2,17.02 -8.938,0 -0.262,3.441 0.277,0 c 0.199,-2.578 0.422,-3.03 2.82,-3.03 0.277,0 0.73,0 0.855,0 0.297,0.047 0.297,0.238 0.297,0.594 l 0,8.473 c 0,0.566 -0.047,0.734 -1.352,0.734 l -0.441,0 0,0.375 c 0.746,-0.016 1.52,-0.031 2.277,-0.031 0.758,0 1.535,0.023 2.277,0.031 l 0,-0.375 -0.441,0 c -1.285,0 -1.332,-0.172 -1.332,-0.734 l 0,-8.473 c 0,-0.344 0,-0.527 0.281,-0.594 l 0.848,0 c 2.367,0 2.605,0.449 2.809,3.03 l 0.27,0"
                 id="path3069" />
              <path
                 style="fill:#000000;fill-opacity:1;fill-rule:nonzero;stroke:none"
                 inkscape:connector-curvature="0"
                 d="m 27.969,27.07 -0.277,0 c -0.34,2.309 -0.543,3.563 -3.266,3.563 l -2.148,0 c -0.617,0 -0.645,-0.078 -0.645,-0.613 l 0,-4.352 1.457,0 c 1.461,0 1.602,0.539 1.602,1.852 l 0.25,0 0,-4.047 -0.25,0 c 0,1.289 -0.141,1.82 -1.602,1.82 l -1.457,0 0,-3.859 c 0,-0.523 0.027,-0.602 0.645,-0.602 l 2.117,0 c 2.395,0 2.676,0.957 2.891,3.01 l 0.281,0 -0.371,-3.441 -7.84,0 0,0.43 c 1.098,0 1.273,0 1.273,0.699 l 0,8.398 c 0,0.699 -0.176,0.699 -1.273,0.699 l 0,0.375 8.05,0"
                 id="path3071" />
              <path
                 style="fill:#000000;fill-opacity:1;fill-rule:nonzero;stroke:none"
                 inkscape:connector-curvature="0"
                 d="m 32.14,21.719 2.289,-3.328 c 0.23,-0.324 0.699,-0.996 1.969,-1.016 l 0,-0.375 c -0.355,0.031 -0.945,0.031 -1.316,0.031 -0.508,0 -1.145,0 -1.531,-0.031 l 0,0.375 c 0.496,0.047 0.621,0.359 0.621,0.609 0,0.188 -0.078,0.313 -0.188,0.465 l -2.043,2.98 -2.289,-3.367 c -0.109,-0.172 -0.125,-0.219 -0.125,-0.266 0,-0.141 0.168,-0.406 0.684,-0.422 l 0,-0.375 c -0.496,0.031 -1.25,0.031 -1.766,0.031 -0.398,0 -1.172,0 -1.547,-0.031 l 0,0.375 c 0.852,0 1.129,0.031 1.469,0.516 l 2.988,4.41 -2.695,3.957 c -0.664,0.965 -1.668,0.984 -1.965,0.984 l 0,0.375 c 0.355,-0.031 0.941,-0.031 1.316,-0.031 0.414,0 1.145,0 1.527,0.031 l 0,-0.375 c -0.477,-0.047 -0.617,-0.359 -0.617,-0.609 0,-0.203 0.078,-0.313 0.156,-0.422 l 2.477,-3.633 2.691,3.977 c 0.121,0.172 0.121,0.219 0.121,0.266 0,0.125 -0.137,0.391 -0.68,0.422 l 0,0.379 c 0.496,-0.031 1.25,-0.031 1.762,-0.031 0.402,0 1.176,0 1.551,0.031 l 0,-0.379 c -0.992,0 -1.148,-0.074 -1.453,-0.516"
                 id="path3073" />
            </g>
          </g>
        </g>
      </g>
    </g>
    <g
       id="g3075"
       transform="translate(1,1005.3632)"
       style="fill:#f5f5f5">
      <g
         clip-path="url(#clipPath-129741425)"
         id="g3077"
         style="fill:#f5f5f5">
        <!-- color: #f7d9cc -->
        <g
           id="g3079"
           style="fill:#f5f5f5">
          <path
             style="fill:#f5f5f5;fill-opacity:1;fill-rule:nonzero;stroke:none"
             inkscape:connector-curvature="0"
             d="m 20.2,17.02 -8.938,0 -0.262,3.441 0.277,0 c 0.199,-2.578 0.422,-3.03 2.82,-3.03 0.277,0 0.73,0 0.855,0 0.297,0.047 0.297,0.238 0.297,0.594 l 0,8.473 c 0,0.566 -0.047,0.734 -1.352,0.734 l -0.441,0 0,0.375 c 0.746,-0.016 1.52,-0.031 2.277,-0.031 0.758,0 1.535,0.023 2.277,0.031 l 0,-0.375 -0.441,0 c -1.285,0 -1.332,-0.172 -1.332,-0.734 l 0,-8.473 c 0,-0.344 0,-0.527 0.281,-0.594 l 0.848,0 c 2.367,0 2.605,0.449 2.809,3.03 l 0.27,0"
             id="path3081" />
          <path
             style="fill:#f5f5f5;fill-opacity:1;fill-rule:nonzero;stroke:none"
             inkscape:connector-curvature="0"
             d="m 27.969,27.07 -0.277,0 c -0.34,2.309 -0.543,3.563 -3.266,3.563 l -2.148,0 c -0.617,0 -0.645,-0.078 -0.645,-0.613 l 0,-4.352 1.457,0 c 1.461,0 1.602,0.539 1.602,1.852 l 0.25,0 0,-4.047 -0.25,0 c 0,1.289 -0.141,1.82 -1.602,1.82 l -1.457,0 0,-3.859 c 0,-0.523 0.027,-0.602 0.645,-0.602 l 2.117,0 c 2.395,0 2.676,0.957 2.891,3.01 l 0.281,0 -0.371,-3.441 -7.84,0 0,0.43 c 1.098,0 1.273,0 1.273,0.699 l 0,8.398 c 0,0.699 -0.176,0.699 -1.273,0.699 l 0,0.375 8.05,0"
             id="path3083" />
          <path
             style="fill:#f5f5f5;fill-opacity:1;fill-rule:nonzero;stroke:none"
             inkscape:connector-curvature="0"
             d="m 32.14,21.719 2.289,-3.328 c 0.23,-0.324 0.699,-0.996 1.969,-1.016 l 0,-0.375 c -0.355,0.031 -0.945,0.031 -1.316,0.031 -0.508,0 -1.145,0 -1.531,-0.031 l 0,0.375 c 0.496,0.047 0.621,0.359 0.621,0.609 0,0.188 -0.078,0.313 -0.188,0.465 l -2.043,2.98 -2.289,-3.367 c -0.109,-0.172 -0.125,-0.219 -0.125,-0.266 0,-0.141 0.168,-0.406 0.684,-0.422 l 0,-0.375 c -0.496,0.031 -1.25,0.031 -1.766,0.031 -0.398,0 -1.172,0 -1.547,-0.031 l 0,0.375 c 0.852,0 1.129,0.031 1.469,0.516 l 2.988,4.41 -2.695,3.957 c -0.664,0.965 -1.668,0.984 -1.965,0.984 l 0,0.375 c 0.355,-0.031 0.941,-0.031 1.316,-0.031 0.414,0 1.145,0 1.527,0.031 l 0,-0.375 c -0.477,-0.047 -0.617,-0.359 -0.617,-0.609 0,-0.203 0.078,-0.313 0.156,-0.422 l 2.477,-3.633 2.691,3.977 c 0.121,0.172 0.121,0.219 0.121,0.266 0,0.125 -0.137,0.391 -0.68,0.422 l 0,0.379 c 0.496,-0.031 1.25,-0.031 1.762,-0.031 0.402,0 1.176,0 1.551,0.031 l 0,-0.379 c -0.992,0 -1.148,-0.074 -1.453,-0.516"
             id="path3085" />
        </g>
      </g>
    </g>
  </g>
</svg>
