<?xml version="1.0" encoding="UTF-8" standalone="no"?>
<!-- Created with Inkscape (http://www.inkscape.org/) -->

<svg
   xmlns:dc="http://purl.org/dc/elements/1.1/"
   xmlns:cc="http://creativecommons.org/ns#"
   xmlns:rdf="http://www.w3.org/1999/02/22-rdf-syntax-ns#"
   xmlns:svg="http://www.w3.org/2000/svg"
   xmlns="http://www.w3.org/2000/svg"
   xmlns:xlink="http://www.w3.org/1999/xlink"
   xmlns:sodipodi="http://sodipodi.sourceforge.net/DTD/sodipodi-0.dtd"
   xmlns:inkscape="http://www.inkscape.org/namespaces/inkscape"
   width="48"
   height="48"
   id="svg2"
   version="1.1"
   inkscape:version="0.48.4 r9939"
   sodipodi:docname="thunderbird.svg">
  <defs
     id="defs4">
    <linearGradient
       id="linearGradient3781">
      <stop
         id="stop3783"
         offset="0"
         style="stop-color:#e7e9ea;stop-opacity:1;" />
      <stop
         id="stop3785"
         offset="1"
         style="stop-color:#ffffff;stop-opacity:1;" />
    </linearGradient>
    <linearGradient
       inkscape:collect="always"
       xlink:href="#linearGradient3781"
       id="linearGradient3084"
       gradientUnits="userSpaceOnUse"
       x1="9"
       y1="1028.3622"
       x2="39"
       y2="1028.3622"
       gradientTransform="matrix(0.66666664,0,0,0.68636486,8.0000004,319.82596)" />
  </defs>
  <sodipodi:namedview
     id="base"
     pagecolor="#ffffff"
     bordercolor="#666666"
     borderopacity="1.0"
     inkscape:pageopacity="0.0"
     inkscape:pageshadow="2"
     inkscape:zoom="5.7916665"
     inkscape:cx="10.652399"
     inkscape:cy="8.7865732"
     inkscape:document-units="px"
     inkscape:current-layer="layer1"
     showgrid="true"
     inkscape:snap-bbox="true"
     inkscape:window-width="1301"
     inkscape:window-height="744"
     inkscape:window-x="65"
     inkscape:window-y="24"
     inkscape:window-maximized="1"
     inkscape:snap-global="true"
     inkscape:snap-nodes="true">
    <inkscape:grid
       type="xygrid"
       id="grid2985"
       empspacing="6"
       visible="true"
       enabled="true"
       snapvisiblegridlinesonly="true" />
  </sodipodi:namedview>
  <metadata
     id="metadata7">
    <rdf:RDF>
      <cc:Work
         rdf:about="">
        <dc:format>image/svg+xml</dc:format>
        <dc:type
           rdf:resource="http://purl.org/dc/dcmitype/StillImage" />
        <dc:title />
      </cc:Work>
    </rdf:RDF>
  </metadata>
  <g
     inkscape:label="Layer 1"
     inkscape:groupmode="layer"
     id="layer1"
     transform="translate(0,-1004.3622)">
    <path
       id="path3788"
       d="m 24,1051.1116 c -21.2715315,0 -23.66257505,-0.089 -23.9375,-15.4063 0.328125,14.4033 2.9375,14.4063 23.9375,14.4063 21,0 23.609375,0 23.9375,-14.4063 -0.274925,15.3174 -2.665968,15.4063 -23.9375,15.4063 z"
       style="opacity:0.20000000000000001;fill:#ffffff;fill-opacity:1;stroke:none"
       inkscape:connector-curvature="0" />
    <path
       style="fill:#1976d2;fill-opacity:1;stroke:none"
       d="m 24,1006.3622 c -24,0 -24,0 -24,22 0,22 0,22 24,22 24,0 24,0 24,-22 0,-22 0,-22 -24,-22 z"
       id="path3757"
       inkscape:connector-curvature="0"
       sodipodi:nodetypes="zzzzz" />
    <path
       style="fill:#000000;fill-opacity:1;stroke:none;opacity:0.20000000000000001"
       d="M 24 2 C 2.7284685 2 0.33742495 2.0888436 0.0625 17.40625 C 0.390625 3.0029297 3 3 24 3 C 45 3 47.609375 3.0029297 47.9375 17.40625 C 47.662575 2.0888436 45.271532 2 24 2 z "
       transform="translate(0,1004.3622)"
       id="path3770" />
    <path
       style="fill:#000000;fill-opacity:1;fill-rule:evenodd;stroke:none;opacity:0.1"
       d="m 25,1013.081 -15,10.9062 0,16.375 30,0 0,-16.375 -15,-10.9062 z"
       id="path3881"
       inkscape:connector-curvature="0" />
    <path
       inkscape:connector-curvature="0"
       style="fill:#113f5b;fill-opacity:1;fill-rule:evenodd;stroke:none"
       d="m 24,1012.0895 -15,10.9091 15,8.1818 15,-8.1818 -15,-10.9091 z"
       id="path3364" />
    <path
       style="fill:url(#linearGradient3084);fill-opacity:1;fill-rule:evenodd;stroke:none"
       d="m 14,1015.3622 0,20.5909 20,0 0,-15.5909 -5,0 0,-5 z"
       id="rect3293"
       inkscape:connector-curvature="0"
       sodipodi:nodetypes="ccccccc" />
    <path
       style="fill:#5bbff8;fill-opacity:1;fill-rule:evenodd;stroke:none"
       d="m 9,1022.9986 0,16.3636 30,0 0,-16.3636 -15,8.1818 -15,-8.1818 z"
       id="rect3291"
       inkscape:connector-curvature="0" />
    <path
       style="fill:#bdc3c7;fill-opacity:1;fill-rule:evenodd;stroke:none"
       d="m 34,1020.3622 -5,-5 0,5 z"
       id="rect3357"
       inkscape:connector-curvature="0"
       sodipodi:nodetypes="cccc" />
    <path
       style="opacity:1;fill:#246f98;fill-opacity:1;stroke:none"
       d="m 9,1039.3622 15,-8.1818 -15,-8.1818 z"
       id="path3803"
       inkscape:connector-curvature="0" />
    <rect
       style="fill:#9e9e9e;fill-opacity:1;stroke:none"
       id="rect3089"
       width="12"
       height="1.0000174"
       x="17"
       y="1018.3622" />
    <rect
       y="1021.3622"
       x="17"
       height="1.0000174"
       width="14"
       id="rect3859"
       style="fill:#9e9e9e;fill-opacity:1;stroke:none" />
    <rect
       style="fill:#9e9e9e;fill-opacity:1;stroke:none"
       id="rect3863"
       width="14"
       height="1.0000174"
       x="17"
       y="1024.3622" />
  </g>
</svg>
