<?xml version="1.0" encoding="UTF-8" standalone="no"?>
<!-- Created with Inkscape (http://www.inkscape.org/) -->

<svg
   xmlns:dc="http://purl.org/dc/elements/1.1/"
   xmlns:cc="http://creativecommons.org/ns#"
   xmlns:rdf="http://www.w3.org/1999/02/22-rdf-syntax-ns#"
   xmlns:svg="http://www.w3.org/2000/svg"
   xmlns="http://www.w3.org/2000/svg"
   xmlns:xlink="http://www.w3.org/1999/xlink"
   xmlns:sodipodi="http://sodipodi.sourceforge.net/DTD/sodipodi-0.dtd"
   xmlns:inkscape="http://www.inkscape.org/namespaces/inkscape"
   width="48"
   height="48"
   id="svg2"
   version="1.1"
   inkscape:version="0.48.4 r9939"
   sodipodi:docname="Thunar.svg">
  <defs
     id="defs4">
    <linearGradient
       id="linearGradient3768">
      <stop
         style="stop-color:#ffb74d;stop-opacity:1;"
         offset="0"
         id="stop3770" />
      <stop
         style="stop-color:#ffbf61;stop-opacity:1;"
         offset="1"
         id="stop3772" />
    </linearGradient>
    <linearGradient
       id="linearGradient3819">
      <stop
         style="stop-color:#000000;stop-opacity:1;"
         offset="0"
         id="stop3821" />
      <stop
         style="stop-color:#ffffff;stop-opacity:1;"
         offset="1"
         id="stop3823" />
    </linearGradient>
    <linearGradient
       inkscape:collect="always"
       xlink:href="#linearGradient3819"
       id="linearGradient3825"
       x1="24"
       y1="1028.3622"
       x2="46"
       y2="1006.3622"
       gradientUnits="userSpaceOnUse"
       spreadMethod="repeat" />
    <linearGradient
       inkscape:collect="always"
       xlink:href="#linearGradient3819"
       id="linearGradient3829"
       gradientUnits="userSpaceOnUse"
       spreadMethod="repeat"
       x1="45"
       y1="1049.3622"
       x2="12"
       y2="1016.3622" />
    <linearGradient
       inkscape:collect="always"
       xlink:href="#linearGradient3768"
       id="linearGradient3774"
       x1="24"
       y1="1050.3622"
       x2="24"
       y2="1006.3622"
       gradientUnits="userSpaceOnUse" />
    <linearGradient
       gradientTransform="matrix(0,-1,1,0,-1.5e-6,47.999998)"
       gradientUnits="userSpaceOnUse"
       x2="47"
       x1="1"
       id="linearGradient3764">
      <stop
         id="stop3005"
         stop-opacity="1"
         stop-color="#676799" />
      <stop
         id="stop3007"
         stop-opacity="1"
         stop-color="#7373a1"
         offset="1" />
    </linearGradient>
    <linearGradient
       inkscape:collect="always"
       xlink:href="#linearGradient3764"
       id="linearGradient3179"
       gradientUnits="userSpaceOnUse"
       gradientTransform="matrix(0,-1,1,0,-1.5e-6,47.999998)"
       x1="1"
       x2="47" />
    <linearGradient
       inkscape:collect="always"
       xlink:href="#linearGradient3764"
       id="linearGradient3182"
       gradientUnits="userSpaceOnUse"
       gradientTransform="matrix(0,-1,1,0,-54.998001,1048.3622)"
       x1="1"
       x2="47" />
  </defs>
  <sodipodi:namedview
     id="base"
     pagecolor="#ffffff"
     bordercolor="#666666"
     borderopacity="1.0"
     inkscape:pageopacity="0.0"
     inkscape:pageshadow="2"
     inkscape:zoom="11.583333"
     inkscape:cx="-5.6421146"
     inkscape:cy="14.357983"
     inkscape:document-units="px"
     inkscape:current-layer="layer1"
     showgrid="true"
     inkscape:snap-bbox="true"
     inkscape:window-width="1301"
     inkscape:window-height="744"
     inkscape:window-x="65"
     inkscape:window-y="24"
     inkscape:window-maximized="1"
     inkscape:object-nodes="false"
     inkscape:snap-nodes="true"
     showguides="true"
     inkscape:guide-bbox="true">
    <inkscape:grid
       type="xygrid"
       id="grid3005"
       empspacing="6"
       visible="true"
       enabled="true"
       snapvisiblegridlinesonly="true" />
  </sodipodi:namedview>
  <metadata
     id="metadata7">
    <rdf:RDF>
      <cc:Work
         rdf:about="">
        <dc:format>image/svg+xml</dc:format>
        <dc:type
           rdf:resource="http://purl.org/dc/dcmitype/StillImage" />
        <dc:title />
      </cc:Work>
    </rdf:RDF>
  </metadata>
  <g
     inkscape:label="Layer 1"
     inkscape:groupmode="layer"
     id="layer1"
     transform="translate(0,-1004.3622)">
    <path
       style="fill:#a05f00;fill-opacity:1;stroke:none"
       d="m 24,1008.3622 c -24,0 -24,0 -24,20 l 48,0 c 0,-20 0,-20 -24,-20 z"
       id="path3797"
       inkscape:connector-curvature="0" />
    <path
       id="path3788"
       d="m 24,1051.1116 c -21.2715315,0 -23.66257505,-0.089 -23.9375,-15.4063 0.328125,14.4033 2.9375,14.4063 23.9375,14.4063 21,0 23.609375,0 23.9375,-14.4063 -0.274925,15.3174 -2.665968,15.4063 -23.9375,15.4063 z"
       style="opacity:0.20000000000000001;fill:#ffffff;fill-opacity:1;stroke:none"
       inkscape:connector-curvature="0" />
    <rect
       style="fill:#ffffff;fill-opacity:1;stroke:none"
       id="rect3804"
       width="26"
       height="6.9999828"
       x="18"
       y="1010.3622" />
    <path
       style="fill:#ffffff;fill-opacity:1;stroke:none;opacity:0.3"
       d="M 24 4 C 2.5308478 4 0.30123961 4.120865 0.0625 18.4375 C 0.390625 5.0390625 3 5.03125 24 5.03125 C 45 5.03125 47.609375 5.0390625 47.9375 18.4375 C 47.69876 4.120865 45.469152 4 24 4 z "
       transform="translate(0,1004.3622)"
       id="path3000" />
    <path
       style="fill:url(#linearGradient3774);fill-opacity:1;stroke:none"
       d="M 18.069225,1006.3784 C 0,1006.5415 0,1008.3483 0,1028.3622 c 0,22 0,22 24,22 24,0 24,0 24,-22 0,-16 0,-16 -24,-16 -4,0 -2,-6 -5.930775,-5.9838 z"
       id="path3757"
       inkscape:connector-curvature="0"
       sodipodi:nodetypes="cccccc" />
    <path
       sodipodi:nodetypes="cccccc"
       inkscape:connector-curvature="0"
       id="path3817"
       d="M 18.069225,1006.3784 C 0,1006.5415 0,1008.3483 0,1028.3622 c 0,22 0,22 24,22 24,0 24,0 24,-22 0,-16 0,-16 -24,-16 -4,0 -2,-6 -5.930775,-5.9838 z"
       style="opacity:0.02999998;fill:url(#linearGradient3825);fill-opacity:1;stroke:none" />
    <path
       style="opacity:0.02999998;fill:url(#linearGradient3829);fill-opacity:1;stroke:none"
       d="M 18.069225,1006.3784 C 0,1006.5415 0,1008.3483 0,1028.3622 c 0,22 0,22 24,22 24,0 24,0 24,-22 0,-16 0,-16 -24,-16 -4,0 -2,-6 -5.930775,-5.9838 z"
       id="path3827"
       inkscape:connector-curvature="0"
       sodipodi:nodetypes="cccccc" />
    <path
       style="fill:#ffffff;fill-opacity:1;stroke:none;opacity:0.4"
       d="M 18.0625 2.03125 C 1.9247472 2.1769158 0.21564151 3.7140172 0.03125 18.28125 C 0.27829019 4.5254379 2.2519281 3.1427125 18.0625 3 C 21.993275 2.9838 20 8.96875 24 8.96875 C 45 8.96875 47.609375 8.96875 47.9375 19.6875 C 47.712965 8.1039598 45.550219 8 24 8 C 20 8 21.993275 2.01505 18.0625 2.03125 z "
       transform="translate(0,1004.3622)"
       id="path3808" />
    <path
       style="fill:#000000;fill-opacity:1;fill-rule:nonzero;stroke:none;opacity:0.1"
       inkscape:connector-curvature="0"
       d="m 12.384769,1027.3676 c -0.796858,0 -1.569007,0.1081 -2.304093,0.295 0,-0.015 0,-0.019 0,-0.031 -0.8200222,0.2115 -1.4423743,0.4942 -1.5628295,0.5482 0,0.019 0,0.035 0,0.054 -0.00618,0 -0.018532,0 -0.030886,0.015 0.084936,0.6702 0.2053917,1.3327 0.2656193,1.6354 0.6516937,2.7566 2.5341932,5.0313 5.0251462,6.239 -0.01235,0.1868 -0.03089,0.3675 -0.03089,0.5606 0,2.545 1.025414,4.8506 2.671635,6.5323 -0.01235,0 0.01235,0.015 0,0.019 0.477188,0.4463 1.122705,0.9651 1.255515,1.0671 0.03552,0.019 0.09111,0.036 0.1081,0.06 0.548226,-0.4834 1.037769,-1.0069 1.164401,-1.1459 1.646222,-1.6833 2.671636,-3.9873 2.671636,-6.5323 0,-0.1746 -0.03089,-0.3444 -0.03552,-0.5189 2.534193,-1.1706 4.446034,-3.4438 5.127069,-6.2081 -0.01235,0 0.0062,-0.016 0,-0.019 C 26.878001,1029.1967 27,1028.3937 27,1028.3087 c -0.01235,0 -0.03089,-0.015 -0.0417,-0.018 0,-0.042 0,0 0,-0.035 -0.350555,-0.1575 -1.145869,-0.4278 -1.569006,-0.5668 0,0.031 0,-0.015 0,0.018 -0.765972,-0.2053 -1.575184,-0.332 -2.395207,-0.332 -1.984423,0 -3.819049,0.6394 -5.326284,1.7065 -0.579111,0.4401 -0.996072,0.8138 -1.260147,1.0671 -0.03089,0.031 -0.04787,0.066 -0.07876,0.097 -0.86944,0.9049 -1.544298,1.9844 -1.996777,3.1797 0.487998,0.2903 0.971363,0.5312 1.405311,0.7366 0.361366,-1.0501 0.959009,-1.9968 1.712626,-2.7936 0.0062,-0.015 0.03089,-0.042 0.04787,-0.06 0.03552,-0.042 0.07258,-0.091 0.126632,-0.1389 0.01235,-0.019 0.03089,-0.019 0.04787,-0.036 0.537416,-0.471 0.959009,-0.7783 1.272502,-0.9837 0.157518,-0.097 0.31967,-0.193 0.483365,-0.2779 1.06711,-0.5668 2.268574,-0.8927 3.565784,-0.8927 0.772149,0 1.525767,0.1143 2.231511,0.3321 -0.471011,2.2562 -1.911841,4.1387 -3.885454,5.1934 -0.307315,-1.3033 -0.88025,-2.5156 -1.677108,-3.541 -0.664048,0.4648 -1.230805,0.9343 -1.272501,0.9713 0.651694,0.8324 1.133515,1.8038 1.399134,2.8647 0,0 0.03089,0.1081 0.07876,0.3135 0.01853,0.097 0.03552,0.1575 0.07258,0.3506 0.09729,0.4833 0.08494,1.0377 0.07876,1.2601 0,0.042 0,0.1575 0,0.1575 l -0.01853,0.025 c -0.06023,2.0879 -0.940478,3.9581 -2.334979,5.3093 -1.442374,-1.3929 -2.347333,-3.348 -2.351966,-5.5255 0.772149,0.2116 1.579817,0.3321 2.413738,0.3321 0.452479,0 0.904959,-0.048 1.338906,-0.1143 0.02471,-0.1575 0.03552,-0.3382 0.04787,-0.61 0.01853,-0.4834 -0.0417,-0.8139 -0.09111,-1.0007 -0.421593,0.073 -0.857085,0.1081 -1.291033,0.1081 -0.778326,0 -1.531944,-0.1143 -2.243865,-0.3259 -0.56058,-0.1143 -1.091819,-0.3922 -1.477893,-0.6331 -0.217746,-0.1328 -0.361366,-0.2286 -0.440125,-0.278 -1.69564,-1.098 -2.943432,-2.8292 -3.360393,-4.8862 0.681036,-0.1992 1.399134,-0.3135 2.148119,-0.3135 1.091818,0 2.117232,0.2286 3.053077,0.6456 0.458656,-0.434 1.013059,-0.8695 1.326552,-1.1104 -1.303388,-0.7119 -2.793635,-1.1273 -4.379629,-1.1273 m 0.01235,0"
       id="path3221" />
    <path
       id="path3075"
       d="m 11.647286,1026.3672 c -0.796858,0 -1.569007,0.1081 -2.3040929,0.295 0,-0.015 0,-0.019 0,-0.031 -0.8200223,0.2115 -1.4423744,0.4942 -1.5628296,0.5482 0,0.019 0,0.035 0,0.054 -0.00618,0 -0.018532,0 -0.030886,0.015 0.084936,0.6702 0.2053917,1.3327 0.2656193,1.6354 0.6516937,2.7566 2.5341932,5.0313 5.0251462,6.239 -0.01235,0.1868 -0.03089,0.3675 -0.03089,0.5606 0,2.545 1.025414,4.8506 2.671635,6.5323 -0.01235,0 0.01235,0.015 0,0.019 0.477188,0.4463 1.122705,0.9651 1.255515,1.0671 0.03552,0.019 0.09111,0.036 0.1081,0.06 0.548226,-0.4834 1.037769,-1.0069 1.164401,-1.1459 1.646222,-1.6833 2.671636,-3.9873 2.671636,-6.5323 0,-0.1746 -0.03089,-0.3444 -0.03552,-0.5189 2.534193,-1.1706 4.446034,-3.4438 5.127069,-6.2081 -0.01235,0 0.0062,-0.016 0,-0.019 0.168329,-0.7413 0.290328,-1.5443 0.290328,-1.6293 -0.01235,0 -0.03089,-0.015 -0.0417,-0.018 0,-0.042 0,0 0,-0.035 -0.350555,-0.1575 -1.145869,-0.4278 -1.569006,-0.5668 0,0.031 0,-0.015 0,0.018 -0.765972,-0.2053 -1.575184,-0.332 -2.395207,-0.332 -1.984423,0 -3.819049,0.6394 -5.326284,1.7065 -0.579111,0.4401 -0.996072,0.8138 -1.260147,1.0671 -0.03089,0.031 -0.04787,0.066 -0.07876,0.097 -0.86944,0.9049 -1.544298,1.9844 -1.996777,3.1797 0.487998,0.2903 0.971363,0.5312 1.405311,0.7366 0.361366,-1.0501 0.959009,-1.9968 1.712626,-2.7936 0.0062,-0.015 0.03089,-0.042 0.04787,-0.06 0.03552,-0.042 0.07258,-0.091 0.126632,-0.1389 0.01235,-0.019 0.03089,-0.019 0.04787,-0.036 0.537416,-0.471 0.959009,-0.7783 1.272502,-0.9837 0.157518,-0.097 0.31967,-0.193 0.483365,-0.2779 1.06711,-0.5668 2.268574,-0.8927 3.565784,-0.8927 0.772149,0 1.525767,0.1143 2.231511,0.3321 -0.471011,2.2562 -1.911841,4.1387 -3.885454,5.1934 -0.307315,-1.3033 -0.88025,-2.5156 -1.677108,-3.541 -0.664048,0.4648 -1.230805,0.9343 -1.272501,0.9713 0.651694,0.8324 1.133515,1.8038 1.399134,2.8647 0,0 0.03089,0.1081 0.07876,0.3135 0.01853,0.097 0.03552,0.1575 0.07258,0.3506 0.09729,0.4833 0.08494,1.0377 0.07876,1.2601 0,0.042 0,0.1575 0,0.1575 l -0.01853,0.025 c -0.06023,2.0879 -0.940478,3.9581 -2.334979,5.3093 -1.442374,-1.3929 -2.347333,-3.348 -2.351966,-5.5255 0.772149,0.2116 1.579817,0.3321 2.413738,0.3321 0.452479,0 0.904959,-0.048 1.338906,-0.1143 0.02471,-0.1575 0.03552,-0.3382 0.04787,-0.61 0.01853,-0.4834 -0.0417,-0.8139 -0.09111,-1.0007 -0.421593,0.073 -0.857085,0.1081 -1.291033,0.1081 -0.778326,0 -1.531944,-0.1143 -2.243865,-0.3259 -0.56058,-0.1143 -1.091819,-0.3922 -1.477893,-0.6331 -0.217746,-0.1328 -0.361366,-0.2286 -0.440125,-0.278 -1.69564,-1.098 -2.9434324,-2.8292 -3.3603929,-4.8862 0.6810359,-0.1992 1.3991339,-0.3135 2.1481189,-0.3135 1.091818,0 2.117232,0.2286 3.053077,0.6456 0.458656,-0.434 1.013059,-0.8695 1.326552,-1.1104 -1.303388,-0.7119 -2.793635,-1.1273 -4.379629,-1.1273 m 0.01235,0"
       inkscape:connector-curvature="0"
       style="fill:#fafafa;fill-opacity:1;fill-rule:nonzero;stroke:none" />
  </g>
</svg>
