<?xml version="1.0" encoding="UTF-8" standalone="no"?>
<!-- Created with Inkscape (http://www.inkscape.org/) -->

<svg
   xmlns:dc="http://purl.org/dc/elements/1.1/"
   xmlns:cc="http://creativecommons.org/ns#"
   xmlns:rdf="http://www.w3.org/1999/02/22-rdf-syntax-ns#"
   xmlns:svg="http://www.w3.org/2000/svg"
   xmlns="http://www.w3.org/2000/svg"
   xmlns:xlink="http://www.w3.org/1999/xlink"
   xmlns:sodipodi="http://sodipodi.sourceforge.net/DTD/sodipodi-0.dtd"
   xmlns:inkscape="http://www.inkscape.org/namespaces/inkscape"
   width="48"
   height="48"
   id="svg2"
   version="1.1"
   inkscape:version="0.48.4 r9939"
   sodipodi:docname="tomate.svg">
  <defs
     id="defs4">
    <linearGradient
       id="linearGradient3767">
      <stop
         style="stop-color:#40acff;stop-opacity:1;"
         offset="0"
         id="stop3770" />
      <stop
         style="stop-color:#40c4ff;stop-opacity:1;"
         offset="1"
         id="stop3772" />
    </linearGradient>
    <linearGradient
       inkscape:collect="always"
       xlink:href="#linearGradient3767"
       id="linearGradient3774"
       x1="24"
       y1="1050.3622"
       x2="24"
       y2="1006.3622"
       gradientUnits="userSpaceOnUse" />
    <linearGradient
       gradientTransform="matrix(0.189487,0,0,0.18661,38.746625,18.717954)"
       y2="2.033"
       x2="-176.39"
       y1="66.3"
       x1="-26.468"
       gradientUnits="userSpaceOnUse"
       id="linear0">
      <stop
         id="stop3034"
         stop-opacity="1"
         stop-color="#e31200" />
      <stop
         id="stop3036"
         stop-opacity="1"
         stop-color="#faa300"
         offset="1" />
    </linearGradient>
    <clipPath
       id="clipPath-655009756">
      <g
         id="g3029"
         transform="translate(0,-1004.3622)">
        <path
           id="path3031"
           fill="#1890d0"
           transform="matrix(15.333333,0,0,11.5,414.99999,878.8622)"
           d="m -24 13 c 0 1.105 -0.672 2 -1.5 2 -0.828 0 -1.5 -0.895 -1.5 -2 0 -1.105 0.672 -2 1.5 -2 0.828 0 1.5 0.895 1.5 2 z" />
      </g>
    </clipPath>
    <clipPath
       id="clipPath-646659096">
      <g
         id="g3024"
         transform="translate(0,-1004.3622)">
        <path
           id="path3026"
           fill="#1890d0"
           transform="matrix(15.333333,0,0,11.5,414.99999,878.8622)"
           d="m -24 13 c 0 1.105 -0.672 2 -1.5 2 -0.828 0 -1.5 -0.895 -1.5 -2 0 -1.105 0.672 -2 1.5 -2 0.828 0 1.5 0.895 1.5 2 z" />
      </g>
    </clipPath>
    <linearGradient
       gradientTransform="matrix(0,-1,1,0,-1.5e-6,47.999998)"
       gradientUnits="userSpaceOnUse"
       x2="47"
       x1="1"
       id="linearGradient3764">
      <stop
         id="stop3019"
         stop-opacity="1"
         stop-color="#18cbe0" />
      <stop
         id="stop3021"
         stop-opacity="1"
         stop-color="#25d3e8"
         offset="1" />
    </linearGradient>
    <linearGradient
       inkscape:collect="always"
       xlink:href="#linear0"
       id="linearGradient3165"
       gradientUnits="userSpaceOnUse"
       gradientTransform="matrix(0.189487,0,0,0.18661,38.746625,18.717954)"
       x1="-26.468"
       y1="66.3"
       x2="-176.39"
       y2="2.033" />
  </defs>
  <sodipodi:namedview
     id="base"
     pagecolor="#ffffff"
     bordercolor="#666666"
     borderopacity="1.0"
     inkscape:pageopacity="0.0"
     inkscape:pageshadow="2"
     inkscape:zoom="4.4955212"
     inkscape:cx="6.5049015"
     inkscape:cy="10.77407"
     inkscape:document-units="px"
     inkscape:current-layer="layer1"
     showgrid="true"
     inkscape:snap-bbox="true"
     inkscape:window-width="1301"
     inkscape:window-height="744"
     inkscape:window-x="65"
     inkscape:window-y="24"
     inkscape:window-maximized="1"
     inkscape:snap-nodes="false">
    <inkscape:grid
       type="xygrid"
       id="grid2985"
       empspacing="6"
       visible="true"
       enabled="true"
       snapvisiblegridlinesonly="true" />
  </sodipodi:namedview>
  <metadata
     id="metadata7">
    <rdf:RDF>
      <cc:Work
         rdf:about="">
        <dc:format>image/svg+xml</dc:format>
        <dc:type
           rdf:resource="http://purl.org/dc/dcmitype/StillImage" />
        <dc:title />
      </cc:Work>
    </rdf:RDF>
  </metadata>
  <g
     inkscape:label="Layer 1"
     inkscape:groupmode="layer"
     id="layer1"
     transform="translate(0,-1004.3622)">
    <path
       id="path3788"
       d="m 24,1051.1116 c -21.2715315,0 -23.66257505,-0.089 -23.9375,-15.4063 0.328125,14.4033 2.9375,14.4063 23.9375,14.4063 21,0 23.609375,0 23.9375,-14.4063 -0.274925,15.3174 -2.665968,15.4063 -23.9375,15.4063 z"
       style="opacity:0.20000000000000001;fill:#ffffff;fill-opacity:1;stroke:none"
       inkscape:connector-curvature="0" />
    <path
       style="fill:url(#linearGradient3774);fill-opacity:1;stroke:none"
       d="m 24,1050.3622 c -24,0 -24,0 -24,-22 0,-22 0,-22 24,-22 24,0 24,0 24,22 0,22 0,22 -24,22 z"
       id="path3757"
       inkscape:connector-curvature="0"
       sodipodi:nodetypes="zzzzz" />
    <path
       style="fill:#000000;fill-opacity:1;stroke:none;opacity:0.20000000000000001"
       d="M 24 2 C 2.7284685 2 0.33742495 2.0888436 0.0625 17.40625 C 0.390625 3.0029297 3 3 24 3 C 45 3 47.609375 3.0029297 47.9375 17.40625 C 47.662575 2.0888436 45.271532 2 24 2 z "
       transform="translate(0,1004.3622)"
       id="path3770" />
    <g
       id="g3807"
       transform="translate(-52.998,1004.3622)" />
    <g
       id="g3056"
       transform="translate(-77.998,1004.3622)" />
    <g
       id="g3058"
       transform="translate(0.0030973,1004.3532)">
      <g
         clip-path="url(#clipPath-646659096)"
         id="g3060">
        <g
           transform="translate(1,1)"
           id="g3062">
          <g
             style="opacity:0.1"
             id="g3064">
            <!-- color: #25d3e8 -->
            <g
               id="g3066">
              <path
                 style="fill:#000000;fill-rule:nonzero;stroke:none"
                 inkscape:connector-curvature="0"
                 d="m 18.973,17.895 c -14.04,12.75 5.05,25.813 15.184,12.598 6.645,-12.27 -6.172,-22.02 -15.184,-12.598 m 0,0"
                 id="path3068" />
              <path
                 style="fill:#000000;fill-opacity:1;fill-rule:nonzero;stroke:none"
                 inkscape:connector-curvature="0"
                 d="m 23.484,19.25 c 0.008,0.914 -0.488,1.762 -1.305,2.223 -0.813,0.457 -1.82,0.457 -2.633,0 -0.816,-0.461 -1.313,-1.309 -1.305,-2.223 -0.008,-0.914 0.488,-1.762 1.305,-2.223 0.813,-0.461 1.82,-0.461 2.633,0 0.816,0.461 1.313,1.309 1.305,2.223 m 0,0"
                 id="path3070" />
              <path
                 style="fill:#000000;fill-opacity:1;fill-rule:nonzero;stroke:none"
                 inkscape:connector-curvature="0"
                 d="m 18.246,19.17 c -2.02,2.508 -1.836,5.391 -1.543,8.09 0.27,-2.488 1.234,-4.906 1.852,-7.48 -0.438,3.785 0.125,5.48 0.883,7.703 -0.086,-3.059 -0.18,-5.629 0.539,-9.184 3.598,-0.531 7.461,-0.379 10.559,1.02 -2.172,-1.555 -3.145,-3.453 -8.477,-2.844 m -3.813,2.691"
                 id="path3072" />
              <path
                 style="fill:#000000;fill-opacity:1;fill-rule:nonzero;stroke:none"
                 inkscape:connector-curvature="0"
                 d="m 13.465,18.945 c 0,0 1.965,0.57 1.965,0.418 -0.672,-1.305 -1.117,-3.395 -0.746,-3.305 0.617,0.148 0.422,1.609 1.789,2.434 -0.023,-0.695 -0.09,-1.391 -0.309,-2.086 l 2.199,1.48 C 17.886,16.925 17.871,16.073 15.39,15.573 14.941,14.901 14.413,14.421 13.812,14.128 l -1.813,-0.039 0.578,-1.367 c 0.949,-0.16 1.398,-0.023 1.813,0.531 2,0.113 2.313,0.762 2.543,1.484 1.426,0.289 1.809,1.109 2.695,2.01 -0.141,-1.328 -0.629,-2.621 -1.461,-3.988 1.191,0.645 2.156,1.367 2.891,2.395 l -0.465,-3.145 c 3.641,2.602 2.688,4.102 -0.387,7.086 -3.543,2.332 -5.707,1.438 -6.742,-0.152 m 0,0.008"
                 id="path3074" />
            </g>
          </g>
        </g>
      </g>
    </g>
    <g
       id="g3076"
       transform="translate(0.0030973,1004.3532)">
      <g
         clip-path="url(#clipPath-655009756)"
         id="g3078">
        <!-- color: #25d3e8 -->
        <g
           id="g3080">
          <path
             style="fill:url(#linearGradient3165);fill-rule:nonzero;stroke:none"
             inkscape:connector-curvature="0"
             d="m 18.973,17.895 c -14.04,12.75 5.05,25.813 15.184,12.598 6.645,-12.27 -6.172,-22.02 -15.184,-12.598 m 0,0"
             id="path3082" />
          <path
             style="fill:#fbd678;fill-opacity:1;fill-rule:nonzero;stroke:none"
             inkscape:connector-curvature="0"
             d="m 23.484,19.25 c 0.008,0.914 -0.488,1.762 -1.305,2.223 -0.813,0.457 -1.82,0.457 -2.633,0 -0.816,-0.461 -1.313,-1.309 -1.305,-2.223 -0.008,-0.914 0.488,-1.762 1.305,-2.223 0.813,-0.461 1.82,-0.461 2.633,0 0.816,0.461 1.313,1.309 1.305,2.223 m 0,0"
             id="path3084" />
          <path
             style="fill:#b90303;fill-opacity:1;fill-rule:nonzero;stroke:none"
             inkscape:connector-curvature="0"
             d="m 18.246,19.17 c -2.02,2.508 -1.836,5.391 -1.543,8.09 0.27,-2.488 1.234,-4.906 1.852,-7.48 -0.438,3.785 0.125,5.48 0.883,7.703 -0.086,-3.059 -0.18,-5.629 0.539,-9.184 3.598,-0.531 7.461,-0.379 10.559,1.02 -2.172,-1.555 -3.145,-3.453 -8.477,-2.844 m -3.813,2.691"
             id="path3086" />
          <path
             style="fill:#093b0f;fill-opacity:1;fill-rule:nonzero;stroke:none"
             inkscape:connector-curvature="0"
             d="m 13.465,18.945 c 0,0 1.965,0.57 1.965,0.418 -0.672,-1.305 -1.117,-3.395 -0.746,-3.305 0.617,0.148 0.422,1.609 1.789,2.434 -0.023,-0.695 -0.09,-1.391 -0.309,-2.086 l 2.199,1.48 C 17.886,16.925 17.871,16.073 15.39,15.573 14.941,14.901 14.413,14.421 13.812,14.128 l -1.813,-0.039 0.578,-1.367 c 0.949,-0.16 1.398,-0.023 1.813,0.531 2,0.113 2.313,0.762 2.543,1.484 1.426,0.289 1.809,1.109 2.695,2.01 -0.141,-1.328 -0.629,-2.621 -1.461,-3.988 1.191,0.645 2.156,1.367 2.891,2.395 l -0.465,-3.145 c 3.641,2.602 2.688,4.102 -0.387,7.086 -3.543,2.332 -5.707,1.438 -6.742,-0.152 m 0,0.008"
             id="path3088" />
        </g>
      </g>
    </g>
  </g>
</svg>
