<?xml version="1.0" encoding="UTF-8" standalone="no"?>
<!-- Created with Inkscape (http://www.inkscape.org/) -->

<svg
   xmlns:dc="http://purl.org/dc/elements/1.1/"
   xmlns:cc="http://creativecommons.org/ns#"
   xmlns:rdf="http://www.w3.org/1999/02/22-rdf-syntax-ns#"
   xmlns:svg="http://www.w3.org/2000/svg"
   xmlns="http://www.w3.org/2000/svg"
   xmlns:xlink="http://www.w3.org/1999/xlink"
   xmlns:sodipodi="http://sodipodi.sourceforge.net/DTD/sodipodi-0.dtd"
   xmlns:inkscape="http://www.inkscape.org/namespaces/inkscape"
   width="48"
   height="48"
   id="svg2"
   version="1.1"
   inkscape:version="0.48.4 r9939"
   sodipodi:docname="trillian.svg">
  <defs
     id="defs4">
    <linearGradient
       id="linearGradient3776">
      <stop
         style="stop-color:#ff8f00;stop-opacity:1;"
         offset="0"
         id="stop3778" />
      <stop
         style="stop-color:#ffa801;stop-opacity:1;"
         offset="1"
         id="stop3780" />
    </linearGradient>
    <linearGradient
       inkscape:collect="always"
       xlink:href="#linearGradient3776"
       id="linearGradient3782"
       x1="24"
       y1="1050.3622"
       x2="24"
       y2="1006.3622"
       gradientUnits="userSpaceOnUse" />
  </defs>
  <sodipodi:namedview
     id="base"
     pagecolor="#ffffff"
     bordercolor="#666666"
     borderopacity="1.0"
     inkscape:pageopacity="0.0"
     inkscape:pageshadow="2"
     inkscape:zoom="10.108768"
     inkscape:cx="17.475668"
     inkscape:cy="19.323113"
     inkscape:document-units="px"
     inkscape:current-layer="layer1"
     showgrid="true"
     inkscape:snap-bbox="true"
     inkscape:window-width="1301"
     inkscape:window-height="744"
     inkscape:window-x="65"
     inkscape:window-y="24"
     inkscape:window-maximized="1"
     inkscape:object-nodes="false">
    <inkscape:grid
       type="xygrid"
       id="grid3003"
       empspacing="6"
       visible="true"
       enabled="true"
       snapvisiblegridlinesonly="true" />
  </sodipodi:namedview>
  <metadata
     id="metadata7">
    <rdf:RDF>
      <cc:Work
         rdf:about="">
        <dc:format>image/svg+xml</dc:format>
        <dc:type
           rdf:resource="http://purl.org/dc/dcmitype/StillImage" />
        <dc:title />
      </cc:Work>
    </rdf:RDF>
  </metadata>
  <g
     inkscape:label="Layer 1"
     inkscape:groupmode="layer"
     id="layer1"
     transform="translate(0,-1004.3622)">
    <path
       id="path3788"
       d="m 24,1051.1116 c -21.2715315,0 -23.66257505,-0.089 -23.9375,-15.4063 0.328125,14.4033 2.9375,14.4063 23.9375,14.4063 21,0 23.609375,0 23.9375,-14.4063 -0.274925,15.3174 -2.665968,15.4063 -23.9375,15.4063 z"
       style="opacity:0.20000000000000001;fill:#ffffff;fill-opacity:1;stroke:none"
       inkscape:connector-curvature="0" />
    <path
       style="fill:url(#linearGradient3782);fill-opacity:1;stroke:none"
       d="m 24,1006.3622 c -24,0 -24,0 -24,22 0,22 0,22 24,22 24,0 24,0 24,-22 0,-22 0,-22 -24,-22 z"
       id="path3757"
       inkscape:connector-curvature="0"
       sodipodi:nodetypes="zzzzz" />
    <path
       style="fill:#000000;fill-opacity:1;stroke:none;opacity:0.20000000000000001"
       d="M 24 2 C 2.7284685 2 0.33742495 2.0888436 0.0625 17.40625 C 0.390625 3.0029297 3 3 24 3 C 45 3 47.609375 3.0029297 47.9375 17.40625 C 47.662575 2.0888436 45.271532 2 24 2 z "
       transform="translate(0,1004.3622)"
       id="path3770" />
    <g
       id="g3813"
       transform="translate(-47.998,993.3622)" />
    <g
       id="g3039"
       transform="translate(-56.998,1002.3622)" />
    <g
       transform="translate(2,-4)"
       id="g3806"
       style="opacity:0.1;fill:#000000;fill-opacity:1">
      <path
         inkscape:connector-curvature="0"
         style="fill:#000000;fill-opacity:1;stroke:none"
         d="m 18,18 c -4.970563,0 -9,2.910149 -9,6.5 0,3.589851 4.029437,6.5 9,6.5 4.970563,0 9,-2.910149 9,-6.5 C 27,20.910149 22.970563,18 18,18 z m 0,1 c 3.865993,0 7,2.014718 7,4.5 0,2.485282 -3.134007,4.5 -7,4.5 -3.865993,0 -7,-2.014718 -7,-4.5 0,-2.485282 3.134007,-4.5 7,-4.5 z"
         transform="translate(0,1004.3622)"
         id="path3808" />
      <path
         style="fill:#000000;fill-opacity:1;stroke:none"
         d="m 14.0625,1023.3622 c -1.254041,0.5237 -2.0625,1.2862 -2.0625,2.1428 0,1.578 2.686291,2.8572 6,2.8572 3.313709,0 6,-1.2792 6,-2.8572 0,-0.8566 -0.808459,-1.6191 -2.0625,-2.1428 -0.206945,1.1993 -1.867995,2.1428 -3.9375,2.1428 -2.069505,0 -3.730555,-0.9435 -3.9375,-2.1428 z"
         id="path3810"
         inkscape:connector-curvature="0" />
      <path
         id="path3812"
         d="m 29,1031.3622 c -4.970563,0 -9,2.9101 -9,6.5 0,3.5899 4.029437,6.5 9,6.5 4.970563,0 9,-2.9101 9,-6.5 0,-3.5899 -4.029437,-6.5 -9,-6.5 z m 0,1 c 3.865993,0 7,2.0147 7,4.5 0,2.4853 -3.134007,4.5 -7,4.5 -3.865993,0 -7,-2.0147 -7,-4.5 0,-2.4853 3.134007,-4.5 7,-4.5 z"
         style="fill:#000000;fill-opacity:1;stroke:none"
         inkscape:connector-curvature="0" />
      <path
         inkscape:connector-curvature="0"
         id="path3814"
         d="m 25.0625,1032.3622 c -1.254041,0.5237 -2.0625,1.2862 -2.0625,2.1428 0,1.578 2.686291,2.8572 6,2.8572 3.313709,0 6,-1.2792 6,-2.8572 0,-0.8566 -0.808459,-1.6191 -2.0625,-2.1428 -0.206945,1.1993 -1.867995,2.1428 -3.9375,2.1428 -2.069505,0 -3.730555,-0.9435 -3.9375,-2.1428 z"
         style="fill:#000000;fill-opacity:1;stroke:none" />
    </g>
    <g
       id="g3800"
       transform="translate(1,-5)"
       style="fill:#ffffff;fill-opacity:1">
      <path
         id="path3784"
         transform="translate(0,1004.3622)"
         d="m 18,18 c -4.970563,0 -9,2.910149 -9,6.5 0,3.589851 4.029437,6.5 9,6.5 4.970563,0 9,-2.910149 9,-6.5 C 27,20.910149 22.970563,18 18,18 z m 0,1 c 3.865993,0 7,2.014718 7,4.5 0,2.485282 -3.134007,4.5 -7,4.5 -3.865993,0 -7,-2.014718 -7,-4.5 0,-2.485282 3.134007,-4.5 7,-4.5 z"
         style="fill:#ffffff;fill-opacity:1;stroke:none"
         inkscape:connector-curvature="0" />
      <path
         inkscape:connector-curvature="0"
         id="path3791"
         d="m 14.0625,1023.3622 c -1.254041,0.5237 -2.0625,1.2862 -2.0625,2.1428 0,1.578 2.686291,2.8572 6,2.8572 3.313709,0 6,-1.2792 6,-2.8572 0,-0.8566 -0.808459,-1.6191 -2.0625,-2.1428 -0.206945,1.1993 -1.867995,2.1428 -3.9375,2.1428 -2.069505,0 -3.730555,-0.9435 -3.9375,-2.1428 z"
         style="fill:#ffffff;fill-opacity:1;stroke:none" />
      <path
         inkscape:connector-curvature="0"
         style="fill:#ffffff;fill-opacity:1;stroke:none"
         d="m 29,1031.3622 c -4.970563,0 -9,2.9101 -9,6.5 0,3.5899 4.029437,6.5 9,6.5 4.970563,0 9,-2.9101 9,-6.5 0,-3.5899 -4.029437,-6.5 -9,-6.5 z m 0,1 c 3.865993,0 7,2.0147 7,4.5 0,2.4853 -3.134007,4.5 -7,4.5 -3.865993,0 -7,-2.0147 -7,-4.5 0,-2.4853 3.134007,-4.5 7,-4.5 z"
         id="path3796" />
      <path
         style="fill:#ffffff;fill-opacity:1;stroke:none"
         d="m 25.0625,1032.3622 c -1.254041,0.5237 -2.0625,1.2862 -2.0625,2.1428 0,1.578 2.686291,2.8572 6,2.8572 3.313709,0 6,-1.2792 6,-2.8572 0,-0.8566 -0.808459,-1.6191 -2.0625,-2.1428 -0.206945,1.1993 -1.867995,2.1428 -3.9375,2.1428 -2.069505,0 -3.730555,-0.9435 -3.9375,-2.1428 z"
         id="path3798"
         inkscape:connector-curvature="0" />
    </g>
  </g>
</svg>
