<?xml version="1.0" encoding="UTF-8" standalone="no"?>
<!-- Created with Inkscape (http://www.inkscape.org/) -->

<svg
   xmlns:dc="http://purl.org/dc/elements/1.1/"
   xmlns:cc="http://creativecommons.org/ns#"
   xmlns:rdf="http://www.w3.org/1999/02/22-rdf-syntax-ns#"
   xmlns:svg="http://www.w3.org/2000/svg"
   xmlns="http://www.w3.org/2000/svg"
   xmlns:xlink="http://www.w3.org/1999/xlink"
   xmlns:sodipodi="http://sodipodi.sourceforge.net/DTD/sodipodi-0.dtd"
   xmlns:inkscape="http://www.inkscape.org/namespaces/inkscape"
   width="48"
   height="48"
   id="svg2"
   version="1.1"
   inkscape:version="0.48.4 r9939"
   sodipodi:docname="Tumblr-tumblr.com.svg">
  <defs
     id="defs4">
    <linearGradient
       id="linearGradient3765">
      <stop
         style="stop-color:#0288d1;stop-opacity:1;"
         offset="0"
         id="stop3767" />
      <stop
         style="stop-color:#09a7fd;stop-opacity:1;"
         offset="1"
         id="stop3769" />
    </linearGradient>
    <linearGradient
       inkscape:collect="always"
       xlink:href="#linearGradient3765"
       id="linearGradient3771"
       x1="24"
       y1="1050.3622"
       x2="24"
       y2="1006.3622"
       gradientUnits="userSpaceOnUse" />
  </defs>
  <sodipodi:namedview
     id="base"
     pagecolor="#ffffff"
     bordercolor="#666666"
     borderopacity="1.0"
     inkscape:pageopacity="0.0"
     inkscape:pageshadow="2"
     inkscape:zoom="11.583333"
     inkscape:cx="19.424353"
     inkscape:cy="24.584907"
     inkscape:document-units="px"
     inkscape:current-layer="layer1"
     showgrid="true"
     inkscape:snap-bbox="true"
     inkscape:window-width="1301"
     inkscape:window-height="744"
     inkscape:window-x="65"
     inkscape:window-y="24"
     inkscape:window-maximized="1"
     inkscape:object-nodes="true">
    <inkscape:grid
       type="xygrid"
       id="grid2985"
       empspacing="6"
       visible="true"
       enabled="true"
       snapvisiblegridlinesonly="true" />
  </sodipodi:namedview>
  <metadata
     id="metadata7">
    <rdf:RDF>
      <cc:Work
         rdf:about="">
        <dc:format>image/svg+xml</dc:format>
        <dc:type
           rdf:resource="http://purl.org/dc/dcmitype/StillImage" />
        <dc:title />
      </cc:Work>
    </rdf:RDF>
  </metadata>
  <g
     inkscape:label="Layer 1"
     inkscape:groupmode="layer"
     id="layer1"
     transform="translate(0,-1004.3622)">
    <path
       id="path3788"
       d="m 24,1051.1116 c -21.2715315,0 -23.66257505,-0.089 -23.9375,-15.4063 0.328125,14.4033 2.9375,14.4063 23.9375,14.4063 21,0 23.609375,0 23.9375,-14.4063 -0.274925,15.3174 -2.665968,15.4063 -23.9375,15.4063 z"
       style="opacity:0.20000000000000001;fill:#ffffff;fill-opacity:1;stroke:none"
       inkscape:connector-curvature="0" />
    <path
       style="fill:url(#linearGradient3771);fill-opacity:1;stroke:none"
       d="m 24,1006.3622 c -24,0 -24,0 -24,22 0,22 0,22 24,22 24,0 24,0 24,-22 0,-22 0,-22 -24,-22 z"
       id="path3757"
       inkscape:connector-curvature="0"
       sodipodi:nodetypes="zzzzz" />
    <path
       style="fill:#000000;fill-opacity:1;stroke:none;opacity:0.20000000000000001"
       d="M 24 2 C 2.7284685 2 0.33742495 2.0888436 0.0625 17.40625 C 0.390625 3.0029297 3 3 24 3 C 45 3 47.609375 3.0029297 47.9375 17.40625 C 47.662575 2.0888436 45.271532 2 24 2 z "
       transform="translate(0,1004.3622)"
       id="path3770" />
    <path
       sodipodi:nodetypes="ccccscscccccscccccccccc"
       inkscape:connector-curvature="0"
       id="path3773"
       d="m 28,1017.3622 c -0.320608,3.0814 -1.42492,6 -5,6 l 0,4 2,-0.062 0,9.2188 c -3e-6,2.3437 0.582028,4.0312 1.71875,5.0625 1.148432,1.0312 2.96093,1.5312 5.46875,1.5312 1.089833,0 2.031238,-0.051 2.78125,-0.1562 0.749987,-0.094 1.457017,-0.2305 2.125,-0.4063 l 0,-4.3437 -0.53125,0 c -0.210952,0.1171 -0.585951,0.2656 -1.125,0.4062 -0.527356,0.1406 -0.953137,0.2188 -1.28125,0.2188 -0.796886,0 -1.578135,-0.047 -2,-0.2813 -0.410166,-0.2461 -0.679697,-0.5586 -0.84375,-0.9688 -0.17579,-0.4102 -0.26954,-0.8906 -0.28125,-1.4062 -0.01173,-0.5157 -0.03126,-1.1211 -0.03125,-1.8125 l 0,-7 6.09375,-0.062 -0.09375,-3.9375 -6,0 0,-6 z"
       style="font-size:36px;font-style:normal;font-variant:normal;font-weight:bold;font-stretch:normal;text-align:center;line-height:100%;letter-spacing:0px;word-spacing:0px;text-anchor:middle;opacity:0.2;fill:#000000;fill-opacity:1;stroke:none;font-family:Tahoma;-inkscape-font-specification:Tahoma Bold" />
    <path
       style="font-size:36px;font-style:normal;font-variant:normal;font-weight:bold;font-stretch:normal;text-align:center;line-height:100%;letter-spacing:0px;word-spacing:0px;text-anchor:middle;fill:#f7f7f7;fill-opacity:1;stroke:none;font-family:Tahoma;-inkscape-font-specification:Tahoma Bold"
       d="m 27,1016.3622 c -0.320608,3.0814 -1.42492,6 -5,6 l 0,4 2,-0.062 0,9.2188 c -3e-6,2.3437 0.582028,4.0312 1.71875,5.0625 1.148432,1.0312 2.96093,1.5312 5.46875,1.5312 1.089833,0 2.031238,-0.051 2.78125,-0.1562 0.749987,-0.094 1.457017,-0.2305 2.125,-0.4063 l 0,-4.3437 -0.53125,0 c -0.210952,0.1171 -0.585951,0.2656 -1.125,0.4062 -0.527356,0.1406 -0.953137,0.2188 -1.28125,0.2188 -0.796886,0 -1.578135,-0.047 -2,-0.2813 -0.410166,-0.2461 -0.679697,-0.5586 -0.84375,-0.9688 -0.17579,-0.4102 -0.26954,-0.8906 -0.28125,-1.4062 -0.01173,-0.5157 -0.03126,-1.1211 -0.03125,-1.8125 l 0,-7 6.09375,-0.062 -0.09375,-3.9375 -6,0 0,-6 z"
       id="text2992"
       inkscape:connector-curvature="0"
       sodipodi:nodetypes="ccccscscccccscccccccccc" />
  </g>
</svg>
