<?xml version="1.0" encoding="UTF-8" standalone="no"?>
<!-- Created with Inkscape (http://www.inkscape.org/) -->

<svg
   xmlns:dc="http://purl.org/dc/elements/1.1/"
   xmlns:cc="http://creativecommons.org/ns#"
   xmlns:rdf="http://www.w3.org/1999/02/22-rdf-syntax-ns#"
   xmlns:svg="http://www.w3.org/2000/svg"
   xmlns="http://www.w3.org/2000/svg"
   xmlns:xlink="http://www.w3.org/1999/xlink"
   xmlns:sodipodi="http://sodipodi.sourceforge.net/DTD/sodipodi-0.dtd"
   xmlns:inkscape="http://www.inkscape.org/namespaces/inkscape"
   width="48"
   height="48"
   id="svg2"
   version="1.1"
   inkscape:version="0.48.4 r9939"
   sodipodi:docname="turpial.svg">
  <defs
     id="defs4">
    <linearGradient
       id="linearGradient3765">
      <stop
         style="stop-color:#0277bd;stop-opacity:1;"
         offset="0"
         id="stop3767" />
      <stop
         style="stop-color:#0282dc;stop-opacity:1;"
         offset="1"
         id="stop3769" />
    </linearGradient>
    <linearGradient
       inkscape:collect="always"
       xlink:href="#linearGradient3765"
       id="linearGradient3771"
       x1="24"
       y1="1050.3622"
       x2="24"
       y2="1006.3622"
       gradientUnits="userSpaceOnUse" />
    <linearGradient
       gradientUnits="userSpaceOnUse"
       y2="84"
       x2="84"
       y1="30"
       x1="30"
       id="linearGradient4164"
       xlink:href="#linearGradient4158"
       inkscape:collect="always" />
    <linearGradient
       id="linearGradient4158"
       inkscape:collect="always">
      <stop
         id="stop4160"
         offset="0"
         style="stop-color:#000000;stop-opacity:1;" />
      <stop
         id="stop4162"
         offset="1"
         style="stop-color:#000000;stop-opacity:0;" />
    </linearGradient>
    <linearGradient
       inkscape:collect="always"
       xlink:href="#linearGradient4158"
       id="linearGradient3810"
       gradientUnits="userSpaceOnUse"
       x1="30"
       y1="30"
       x2="84"
       y2="84"
       gradientTransform="translate(-150.0012,974.3622)" />
  </defs>
  <sodipodi:namedview
     id="base"
     pagecolor="#ffffff"
     bordercolor="#666666"
     borderopacity="1.0"
     inkscape:pageopacity="0.0"
     inkscape:pageshadow="2"
     inkscape:zoom="8.1906533"
     inkscape:cx="10.237389"
     inkscape:cy="18.697735"
     inkscape:document-units="px"
     inkscape:current-layer="layer1"
     showgrid="true"
     inkscape:snap-bbox="true"
     inkscape:window-width="1301"
     inkscape:window-height="744"
     inkscape:window-x="65"
     inkscape:window-y="24"
     inkscape:window-maximized="1"
     inkscape:object-nodes="false"
     inkscape:snap-nodes="true">
    <inkscape:grid
       type="xygrid"
       id="grid3005"
       empspacing="6"
       visible="true"
       enabled="true"
       snapvisiblegridlinesonly="true" />
  </sodipodi:namedview>
  <metadata
     id="metadata7">
    <rdf:RDF>
      <cc:Work
         rdf:about="">
        <dc:format>image/svg+xml</dc:format>
        <dc:type
           rdf:resource="http://purl.org/dc/dcmitype/StillImage" />
        <dc:title />
      </cc:Work>
    </rdf:RDF>
  </metadata>
  <g
     inkscape:label="Layer 1"
     inkscape:groupmode="layer"
     id="layer1"
     transform="translate(0,-1004.3622)">
    <path
       id="path3788"
       d="m 24,1051.1116 c -21.2715315,0 -23.66257505,-0.089 -23.9375,-15.4063 0.328125,14.4033 2.9375,14.4063 23.9375,14.4063 21,0 23.609375,0 23.9375,-14.4063 -0.274925,15.3174 -2.665968,15.4063 -23.9375,15.4063 z"
       style="opacity:0.20000000000000001;fill:#ffffff;fill-opacity:1;stroke:none"
       inkscape:connector-curvature="0" />
    <path
       style="fill:url(#linearGradient3771);fill-opacity:1;stroke:none"
       d="m 24,1006.3622 c -24,0 -24,0 -24,22 0,22 0,22 24,22 24,0 24,0 24,-22 0,-22 0,-22 -24,-22 z"
       id="path3757"
       inkscape:connector-curvature="0"
       sodipodi:nodetypes="zzzzz" />
    <path
       style="fill:#000000;fill-opacity:1;stroke:none;opacity:0.20000000000000001"
       d="M 24 2 C 2.7284685 2 0.33742495 2.0888436 0.0625 17.40625 C 0.390625 3.0029297 3 3 24 3 C 45 3 47.609375 3.0029297 47.9375 17.40625 C 47.662575 2.0888436 45.271532 2 24 2 z "
       transform="translate(0,1004.3622)"
       id="path3770" />
    <g
       id="g3037"
       transform="translate(-46.998,1004.3622)" />
    <g
       id="g3808"
       transform="translate(-52.998,1013.3622)" />
    <g
       id="g3795"
       style="stroke-width:2;stroke-miterlimit:4;stroke-dasharray:none" />
    <path
       style="opacity:0.2;fill:#000000;fill-opacity:1;fill-rule:nonzero;stroke:none"
       d="m 29.08206,1018.4668 c -7.86897,0.1113 -13.498997,9.5622 -18.1224,15.3246 1.617407,0.8997 4.547788,1.8804 7.844233,1.8804 2.155358,0 4.462652,-0.4174 6.689849,-1.5296 2.718052,-1.3572 4.075592,-3.8433 4.075106,-6.0906 -5.54e-4,-1.289 -0.441554,-2.4999 -1.321278,-3.382 -0.880732,-0.8805 -2.20545,-1.4596 -4.047293,-1.4596 -0.61395,0 -1.290703,0.07 -2.016685,0.2107 l -0.125171,-0.6456 c 0.76266,-0.1486 1.482186,-0.2245 2.141856,-0.2245 1.976491,0 3.491383,0.6379 4.506258,1.6559 1.01538,1.0175 1.516488,2.4055 1.515993,3.8451 -5.14e-4,2.5114 -1.50714,5.2169 -4.436714,6.6801 -2.331703,1.1643 -4.744673,1.5998 -6.981921,1.5998 -3.455091,0 -6.486086,-1.0152 -8.205838,-1.9788 l 0.208622,-0.3789 c -0.269326,0.3324 -0.54392,0.6649 -0.806677,0.9683 2.982321,1.8823 5.884591,3.1228 8.60918,3.8031 1.176493,0.2937 2.316658,0.4821 3.421413,0.5753 l 0.723237,4.0417 0.63977,-0.1123 -0.69541,-3.8873 c 0.562068,0.028 1.115767,0.022 1.655081,0 l 0.723226,3.9996 0.639773,-0.1123 -0.695413,-3.9153 c 7.147595,-0.5673 12.062474,-5.5064 12.336586,-12.3776 0.03513,-0.8784 -0.0064,-1.7871 -0.125171,-2.7224 L 40,1022.7891 l -3.045894,-0.1965 2.600835,-2.1189 -3.518775,0.2525 c -2.503046,-1.6235 -4.808707,-2.2898 -6.954106,-2.2594 z m 2.57302,2.933 c 0.200962,0 0.380826,0.057 0.57023,0.1544 0.189413,0.097 0.386192,0.2407 0.584146,0.4069 0.395402,0.3326 0.81194,0.7937 1.223928,1.3473 l -0.514611,0.3929 c -0.578274,-0.7812 -1.187115,-1.3561 -1.585536,-1.5577 -0.130621,-0.068 -0.230428,-0.085 -0.278157,-0.085 l -0.04173,0 -0.02779,0.028 c -0.03018,0.042 -0.08494,0.1868 -0.08349,0.421 -9.06e-4,0.3517 0.09179,0.8991 0.319887,1.6559 l -0.61196,0.1965 c -0.238143,-0.7944 -0.360636,-1.3922 -0.361617,-1.8524 5.54e-4,-0.2302 0.02954,-0.428 0.09736,-0.6035 0.06587,-0.1738 0.194311,-0.3338 0.361616,-0.4209 0.110513,-0.058 0.231135,-0.083 0.347692,-0.083 z m -5.688457,2.7085 -0.166903,1.4734 c -4.228992,1.5676 -7.026201,5.256 -7.983309,8.5044 l -1.446453,0.2526 0.194719,-0.6316 c 1.064687,-3.6134 3.998855,-7.5895 8.776072,-9.3603 l 0.625874,-0.2385 z"
       id="path3816"
       inkscape:connector-curvature="0" />
    <path
       inkscape:connector-curvature="0"
       id="path5988"
       d="m 28.08206,1017.4668 c -7.86897,0.1113 -13.498997,9.5622 -18.1224,15.3246 1.617407,0.8997 4.547788,1.8804 7.844233,1.8804 2.155358,0 4.462652,-0.4174 6.689849,-1.5296 2.718052,-1.3572 4.075592,-3.8433 4.075106,-6.0906 -5.54e-4,-1.289 -0.441554,-2.4999 -1.321278,-3.382 -0.880732,-0.8805 -2.20545,-1.4596 -4.047293,-1.4596 -0.61395,0 -1.290703,0.07 -2.016685,0.2107 l -0.125171,-0.6456 c 0.76266,-0.1486 1.482186,-0.2245 2.141856,-0.2245 1.976491,0 3.491383,0.6379 4.506258,1.6559 1.01538,1.0175 1.516488,2.4055 1.515993,3.8451 -5.14e-4,2.5114 -1.50714,5.2169 -4.436714,6.6801 -2.331703,1.1643 -4.744673,1.5998 -6.981921,1.5998 -3.455091,0 -6.486086,-1.0152 -8.2058376,-1.9788 l 0.2086221,-0.3789 c -0.2693263,0.3324 -0.5439206,0.6649 -0.8066775,0.9683 2.982321,1.8823 5.884591,3.1228 8.60918,3.8031 1.176493,0.2937 2.316658,0.4821 3.421413,0.5753 l 0.723237,4.0417 0.63977,-0.1123 -0.69541,-3.8873 c 0.562068,0.028 1.115767,0.022 1.655081,0 l 0.723226,3.9996 0.639773,-0.1123 -0.695413,-3.9153 c 7.147595,-0.5673 12.062474,-5.5064 12.336586,-12.3776 0.03513,-0.8784 -0.0064,-1.7871 -0.125171,-2.7224 L 39,1021.7891 l -3.045894,-0.1965 2.600835,-2.1189 -3.518775,0.2525 c -2.503046,-1.6235 -4.808707,-2.2898 -6.954106,-2.2594 z m 2.57302,2.933 c 0.200962,0 0.380826,0.057 0.57023,0.1544 0.189413,0.097 0.386192,0.2407 0.584146,0.4069 0.395402,0.3326 0.81194,0.7937 1.223928,1.3473 l -0.514611,0.3929 c -0.578274,-0.7812 -1.187115,-1.3561 -1.585536,-1.5577 -0.130621,-0.068 -0.230428,-0.085 -0.278157,-0.085 l -0.04173,0 -0.02779,0.028 c -0.03018,0.042 -0.08494,0.1868 -0.08349,0.421 -9.06e-4,0.3517 0.09179,0.8991 0.319887,1.6559 l -0.61196,0.1965 c -0.238143,-0.7944 -0.360636,-1.3922 -0.361617,-1.8524 5.54e-4,-0.2302 0.02954,-0.428 0.09736,-0.6035 0.06587,-0.1738 0.194311,-0.3338 0.361616,-0.4209 0.110513,-0.058 0.231135,-0.083 0.347692,-0.083 z m -5.688457,2.7085 -0.166903,1.4734 c -4.228992,1.5676 -7.026201,5.256 -7.983309,8.5044 l -1.446453,0.2526 0.194719,-0.6316 c 1.064687,-3.6134 3.998855,-7.5895 8.776072,-9.3603 l 0.625874,-0.2385 z"
       style="fill:#f5fafd;fill-opacity:1;fill-rule:nonzero;stroke:none" />
  </g>
</svg>
