<?xml version="1.0" encoding="UTF-8" standalone="no"?>
<!-- Created with Inkscape (http://www.inkscape.org/) -->

<svg
   xmlns:dc="http://purl.org/dc/elements/1.1/"
   xmlns:cc="http://creativecommons.org/ns#"
   xmlns:rdf="http://www.w3.org/1999/02/22-rdf-syntax-ns#"
   xmlns:svg="http://www.w3.org/2000/svg"
   xmlns="http://www.w3.org/2000/svg"
   xmlns:sodipodi="http://sodipodi.sourceforge.net/DTD/sodipodi-0.dtd"
   xmlns:inkscape="http://www.inkscape.org/namespaces/inkscape"
   width="48"
   height="48"
   id="svg2"
   version="1.1"
   inkscape:version="0.48.4 r9939"
   sodipodi:docname="tvmaxe.svg">
  <defs
     id="defs4">
    <clipPath
       id="clipPath-358464030">
      <g
         id="g3029"
         transform="translate(0,-1004.3622)">
        <path
           id="path3031"
           fill="#1890d0"
           transform="matrix(15.333333,0,0,11.5,414.99999,878.8622)"
           d="m -24 13 c 0 1.105 -0.672 2 -1.5 2 -0.828 0 -1.5 -0.895 -1.5 -2 0 -1.105 0.672 -2 1.5 -2 0.828 0 1.5 0.895 1.5 2 z" />
      </g>
    </clipPath>
    <clipPath
       id="clipPath-352490386">
      <g
         id="g3024"
         transform="translate(0,-1004.3622)">
        <path
           id="path3026"
           fill="#1890d0"
           transform="matrix(15.333333,0,0,11.5,414.99999,878.8622)"
           d="m -24 13 c 0 1.105 -0.672 2 -1.5 2 -0.828 0 -1.5 -0.895 -1.5 -2 0 -1.105 0.672 -2 1.5 -2 0.828 0 1.5 0.895 1.5 2 z" />
      </g>
    </clipPath>
    <linearGradient
       gradientTransform="matrix(0,-1,1,0,-1.5e-6,47.999998)"
       gradientUnits="userSpaceOnUse"
       x2="47"
       x1="1"
       id="linearGradient3764">
      <stop
         id="stop3019"
         stop-opacity="1"
         stop-color="#dbdbdb" />
      <stop
         id="stop3021"
         stop-opacity="1"
         stop-color="#e5e5e5"
         offset="1" />
    </linearGradient>
  </defs>
  <sodipodi:namedview
     id="base"
     pagecolor="#ffffff"
     bordercolor="#666666"
     borderopacity="1.0"
     inkscape:pageopacity="0.0"
     inkscape:pageshadow="2"
     inkscape:zoom="8.1906533"
     inkscape:cx="-14.481579"
     inkscape:cy="10.836875"
     inkscape:document-units="px"
     inkscape:current-layer="layer1"
     showgrid="true"
     inkscape:snap-bbox="true"
     inkscape:window-width="1301"
     inkscape:window-height="744"
     inkscape:window-x="65"
     inkscape:window-y="24"
     inkscape:window-maximized="1"
     inkscape:snap-nodes="false">
    <inkscape:grid
       type="xygrid"
       id="grid2985"
       empspacing="6"
       visible="true"
       enabled="true"
       snapvisiblegridlinesonly="true" />
  </sodipodi:namedview>
  <metadata
     id="metadata7">
    <rdf:RDF>
      <cc:Work
         rdf:about="">
        <dc:format>image/svg+xml</dc:format>
        <dc:type
           rdf:resource="http://purl.org/dc/dcmitype/StillImage" />
        <dc:title />
      </cc:Work>
    </rdf:RDF>
  </metadata>
  <g
     inkscape:label="Layer 1"
     inkscape:groupmode="layer"
     id="layer1"
     transform="translate(0,-1004.3622)">
    <path
       id="path3788"
       d="m 24,1051.1116 c -21.2715315,0 -23.66257505,-0.089 -23.9375,-15.4063 0.328125,14.4033 2.9375,14.4063 23.9375,14.4063 21,0 23.609375,0 23.9375,-14.4063 -0.274925,15.3174 -2.665968,15.4063 -23.9375,15.4063 z"
       style="opacity:0.20000000000000001;fill:#ffffff;fill-opacity:1;stroke:none"
       inkscape:connector-curvature="0" />
    <path
       style="opacity:1;fill:#bdbdbd;fill-opacity:1;stroke:none"
       d="m 24,1006.3622 c -6,0 -10.5,10e-5 -13.875,0.3438 -1.6875,0.1719 -3.078125,0.4257 -4.25,0.8125 -1.171875,0.3868 -2.125,0.9062 -2.875,1.5937 -0.75,0.6875 -1.328125,1.5508 -1.75,2.625 -0.421875,1.0742 -0.6875,2.3595 -0.875,3.9063 C 0,1018.7373 0,1022.8622 0,1028.3622 c 0,5.5 0,9.6251 0.375,12.7188 0.1875,1.5469 0.453125,2.832 0.875,3.9062 0.421875,1.0742 1,1.9375 1.75,2.625 0.75,0.6875 1.703125,1.2071 2.875,1.5938 1.171875,0.3868 2.5625,0.6407 4.25,0.8125 3.375,0.3438 7.875,0.3437 13.875,0.3437 6,0 10.5,0 13.875,-0.3437 1.6875,-0.1719 3.078125,-0.4258 4.25,-0.8125 1.171875,-0.3868 2.125,-0.9063 2.875,-1.5938 0.75,-0.6875 1.328125,-1.5508 1.75,-2.625 0.421875,-1.0742 0.6875,-2.3594 0.875,-3.9062 0.375,-3.0938 0.375,-7.2188 0.375,-12.7188 0,-5.5 0,-9.625 -0.375,-12.7187 -0.1875,-1.5469 -0.453125,-2.8321 -0.875,-3.9063 -0.421875,-1.0742 -1,-1.9375 -1.75,-2.625 -0.75,-0.6875 -1.703125,-1.207 -2.875,-1.5937 -1.171875,-0.3868 -2.5625,-0.6407 -4.25,-0.8125 C 34.5,1006.3622 30,1006.3622 24,1006.3622 z"
       id="path3772"
       inkscape:connector-curvature="0" />
    <path
       style="fill:#000000;fill-opacity:1;stroke:none;opacity:0.20000000000000001"
       d="M 24 2 C 2.7284685 2 0.33742495 2.0888436 0.0625 17.40625 C 0.390625 3.0029297 3 3 24 3 C 45 3 47.609375 3.0029297 47.9375 17.40625 C 47.662575 2.0888436 45.271532 2 24 2 z "
       transform="translate(0,1004.3622)"
       id="path3770" />
    <g
       id="g3025"
       transform="translate(-50.998,1000.3622)" />
    <g
       id="g3817"
       transform="translate(-55.998,1000.3622)" />
    <g
       id="g3064"
       transform="translate(-109,1010.3622)" />
    <g
       id="g3054"
       transform="translate(-49.998,1002.3622)" />
    <g
       id="g3062"
       transform="translate(-67,1003.3622)" />
    <g
       id="g3045"
       transform="translate(-52.998,1000.3622)" />
    <g
       id="g3047"
       transform="translate(0,1004.3622)">
      <g
         clip-path="url(#clipPath-352490386)"
         id="g3049">
        <g
           transform="translate(1,1)"
           id="g3051">
          <g
             style="opacity:0.1"
             id="g3053">
            <!-- color: #e5e5e5 -->
            <g
               id="g3055">
              <path
                 style="fill:#000000;fill-opacity:1;fill-rule:nonzero;stroke:none"
                 inkscape:connector-curvature="0"
                 d="m 16,18 16,0 c 1.656,0 3,1.344 3,3 l 0,8.996 c 0,1.66 -1.344,3 -3,3 l -16,0 c -1.656,0 -3,-1.344 -3,-3 L 13,21 c 0,-1.656 1.344,-3 3,-3 m 0,0"
                 id="path3057" />
              <path
                 style="fill:#000000;fill-opacity:1;fill-rule:nonzero;stroke:none"
                 inkscape:connector-curvature="0"
                 d="m 16.457,20 15.09,0 c 0.805,0 1.457,0.652 1.457,1.453 l 0,8.09 c 0,0.805 -0.652,1.457 -1.457,1.457 l -15.09,0 C 15.652,31 15,30.348 15,29.543 l 0,-8.09 C 15,20.652 15.652,20 16.457,20 m 0,0"
                 id="path3059" />
              <path
                 style="fill:#000000;fill-opacity:1;fill-rule:nonzero;stroke:none"
                 inkscape:connector-curvature="0"
                 d="m 26,18 c 0,1.105 -0.895,2 -2,2 -1.105,0 -2,-0.895 -2,-2 0,-1.105 0.895,-2 2,-2 1.105,0 2,0.895 2,2 m 0,0"
                 id="path3061" />
              <path
                 style="fill:#000000;stroke:#2d2d2d;stroke-width:0.5;stroke-linecap:butt;stroke-linejoin:miter;stroke-miterlimit:4;stroke-opacity:1"
                 inkscape:connector-curvature="0"
                 d="m 23,17 -1,-3 -1,1 -1,-2"
                 stroke-miterlimit="4"
                 id="path3063" />
              <path
                 style="fill:#000000;stroke:#2d2d2d;stroke-width:0.5;stroke-linecap:butt;stroke-linejoin:miter;stroke-miterlimit:4;stroke-opacity:1"
                 inkscape:connector-curvature="0"
                 d="m 25,17 2,-4 -2,4"
                 stroke-miterlimit="4"
                 id="path3065" />
              <path
                 style="fill:#000000;fill-opacity:1;fill-rule:nonzero;stroke:none"
                 inkscape:connector-curvature="0"
                 d="m 21,13 c 0,0.551 -0.449,1 -1,1 -0.551,0 -1,-0.449 -1,-1 0,-0.551 0.449,-1 1,-1 0.551,0 1,0.449 1,1 m 0,0"
                 id="path3067" />
              <path
                 style="fill:#000000;fill-opacity:1;fill-rule:nonzero;stroke:none"
                 inkscape:connector-curvature="0"
                 d="m 28,13 c 0,0.551 -0.449,1 -1,1 -0.551,0 -1,-0.449 -1,-1 0,-0.551 0.449,-1 1,-1 0.551,0 1,0.449 1,1 m 0,0"
                 id="path3069" />
              <path
                 style="fill:#000000;fill-opacity:1;fill-rule:nonzero;stroke:none"
                 inkscape:connector-curvature="0"
                 d="M 22,24.5 C 22,25.879 21.328,27 20.5,27 19.672,27 19,25.879 19,24.5 19,23.121 19.672,22 20.5,22 c 0.828,0 1.5,1.121 1.5,2.5 m 0,0"
                 id="path3071" />
              <path
                 style="fill:#000000;fill-opacity:1;fill-rule:nonzero;stroke:none"
                 inkscape:connector-curvature="0"
                 d="M 29,24.5 C 29,25.879 28.328,27 27.5,27 26.672,27 26,25.879 26,24.5 26,23.121 26.672,22 27.5,22 c 0.828,0 1.5,1.121 1.5,2.5 m 0,0"
                 id="path3073" />
              <path
                 style="fill:#000000;fill-opacity:1;fill-rule:nonzero;stroke:none"
                 inkscape:connector-curvature="0"
                 d="m 21,25 c 0,0.551 -0.223,1 -0.5,1 -0.277,0 -0.5,-0.449 -0.5,-1 0,-0.551 0.223,-1 0.5,-1 0.277,0 0.5,0.449 0.5,1 m 0,0"
                 id="path3075" />
              <path
                 style="fill:#000000;fill-opacity:1;fill-rule:nonzero;stroke:none"
                 inkscape:connector-curvature="0"
                 d="m 28,25 c 0,0.551 -0.223,1 -0.5,1 -0.277,0 -0.5,-0.449 -0.5,-1 0,-0.551 0.223,-1 0.5,-1 0.277,0 0.5,0.449 0.5,1 m 0,0"
                 id="path3077" />
              <path
                 style="fill:#000000;fill-opacity:1;fill-rule:nonzero;stroke:none"
                 inkscape:connector-curvature="0"
                 d="m 20.969,28.531 -0.5,0.781 C 21.512,29.726 22.699,30 24,30 c 1.301,0 2.488,-0.273 3.531,-0.688 l -0.5,-0.781 C 26.109,28.828 25.09,29 24.001,29 c -1.09,0 -2.109,-0.172 -3.03,-0.469 m -0.004,0"
                 id="path3079" />
            </g>
          </g>
        </g>
      </g>
    </g>
    <g
       id="g3081"
       transform="translate(0,1004.3622)">
      <g
         clip-path="url(#clipPath-358464030)"
         id="g3083">
        <!-- color: #e5e5e5 -->
        <g
           id="g3085">
          <path
             style="fill:#2d2d2d;fill-opacity:1;fill-rule:nonzero;stroke:none"
             inkscape:connector-curvature="0"
             d="m 16,18 16,0 c 1.656,0 3,1.344 3,3 l 0,8.996 c 0,1.66 -1.344,3 -3,3 l -16,0 c -1.656,0 -3,-1.344 -3,-3 L 13,21 c 0,-1.656 1.344,-3 3,-3 m 0,0"
             id="path3087" />
          <path
             style="fill:#868686;fill-opacity:1;fill-rule:nonzero;stroke:none"
             inkscape:connector-curvature="0"
             d="m 16.457,20 15.09,0 c 0.805,0 1.457,0.652 1.457,1.453 l 0,8.09 c 0,0.805 -0.652,1.457 -1.457,1.457 l -15.09,0 C 15.652,31 15,30.348 15,29.543 l 0,-8.09 C 15,20.652 15.652,20 16.457,20 m 0,0"
             id="path3089" />
          <path
             style="fill:#2d2d2d;fill-opacity:1;fill-rule:nonzero;stroke:none"
             inkscape:connector-curvature="0"
             d="m 26,18 c 0,1.105 -0.895,2 -2,2 -1.105,0 -2,-0.895 -2,-2 0,-1.105 0.895,-2 2,-2 1.105,0 2,0.895 2,2 m 0,0"
             id="path3091" />
          <path
             style="fill:none;stroke:#2d2d2d;stroke-width:0.5;stroke-linecap:butt;stroke-linejoin:miter;stroke-miterlimit:4;stroke-opacity:1"
             inkscape:connector-curvature="0"
             d="m 23,17 -1,-3 -1,1 -1,-2"
             stroke-miterlimit="4"
             id="path3093" />
          <path
             style="fill:none;stroke:#2d2d2d;stroke-width:0.5;stroke-linecap:butt;stroke-linejoin:miter;stroke-miterlimit:4;stroke-opacity:1"
             inkscape:connector-curvature="0"
             d="m 25,17 2,-4 -2,4"
             stroke-miterlimit="4"
             id="path3095" />
          <path
             style="fill:#2d2d2d;fill-opacity:1;fill-rule:nonzero;stroke:none"
             inkscape:connector-curvature="0"
             d="m 21,13 c 0,0.551 -0.449,1 -1,1 -0.551,0 -1,-0.449 -1,-1 0,-0.551 0.449,-1 1,-1 0.551,0 1,0.449 1,1 m 0,0"
             id="path3097" />
          <path
             style="fill:#2d2d2d;fill-opacity:1;fill-rule:nonzero;stroke:none"
             inkscape:connector-curvature="0"
             d="m 28,13 c 0,0.551 -0.449,1 -1,1 -0.551,0 -1,-0.449 -1,-1 0,-0.551 0.449,-1 1,-1 0.551,0 1,0.449 1,1 m 0,0"
             id="path3099" />
          <path
             style="fill:#f9f9f9;fill-opacity:1;fill-rule:nonzero;stroke:none"
             inkscape:connector-curvature="0"
             d="M 22,24.5 C 22,25.879 21.328,27 20.5,27 19.672,27 19,25.879 19,24.5 19,23.121 19.672,22 20.5,22 c 0.828,0 1.5,1.121 1.5,2.5 m 0,0"
             id="path3101" />
          <path
             style="fill:#f9f9f9;fill-opacity:1;fill-rule:nonzero;stroke:none"
             inkscape:connector-curvature="0"
             d="M 29,24.5 C 29,25.879 28.328,27 27.5,27 26.672,27 26,25.879 26,24.5 26,23.121 26.672,22 27.5,22 c 0.828,0 1.5,1.121 1.5,2.5 m 0,0"
             id="path3103" />
          <path
             style="fill:#444444;fill-opacity:1;fill-rule:nonzero;stroke:none"
             inkscape:connector-curvature="0"
             d="m 21,25 c 0,0.551 -0.223,1 -0.5,1 -0.277,0 -0.5,-0.449 -0.5,-1 0,-0.551 0.223,-1 0.5,-1 0.277,0 0.5,0.449 0.5,1 m 0,0"
             id="path3105" />
          <path
             style="fill:#444444;fill-opacity:1;fill-rule:nonzero;stroke:none"
             inkscape:connector-curvature="0"
             d="m 28,25 c 0,0.551 -0.223,1 -0.5,1 -0.277,0 -0.5,-0.449 -0.5,-1 0,-0.551 0.223,-1 0.5,-1 0.277,0 0.5,0.449 0.5,1 m 0,0"
             id="path3107" />
          <path
             style="fill:#2d2d2d;fill-opacity:1;fill-rule:nonzero;stroke:none"
             inkscape:connector-curvature="0"
             d="m 20.969,28.531 -0.5,0.781 C 21.512,29.726 22.699,30 24,30 c 1.301,0 2.488,-0.273 3.531,-0.688 l -0.5,-0.781 C 26.109,28.828 25.09,29 24.001,29 c -1.09,0 -2.109,-0.172 -3.03,-0.469 m -0.004,0"
             id="path3109" />
        </g>
      </g>
    </g>
  </g>
</svg>
