<?xml version="1.0" encoding="UTF-8" standalone="no"?>
<!-- Created with Inkscape (http://www.inkscape.org/) -->

<svg
   xmlns:dc="http://purl.org/dc/elements/1.1/"
   xmlns:cc="http://creativecommons.org/ns#"
   xmlns:rdf="http://www.w3.org/1999/02/22-rdf-syntax-ns#"
   xmlns:svg="http://www.w3.org/2000/svg"
   xmlns="http://www.w3.org/2000/svg"
   xmlns:xlink="http://www.w3.org/1999/xlink"
   xmlns:sodipodi="http://sodipodi.sourceforge.net/DTD/sodipodi-0.dtd"
   xmlns:inkscape="http://www.inkscape.org/namespaces/inkscape"
   width="48"
   height="48"
   id="svg2"
   version="1.1"
   inkscape:version="0.48.4 r9939"
   sodipodi:docname="tweetdeck.svg">
  <defs
     id="defs4">
    <linearGradient
       id="linearGradient3780">
      <stop
         style="stop-color:#455064;stop-opacity:1;"
         offset="0"
         id="stop3782" />
      <stop
         style="stop-color:#455f64;stop-opacity:1;"
         offset="1"
         id="stop3784" />
    </linearGradient>
    <linearGradient
       inkscape:collect="always"
       xlink:href="#linearGradient3780"
       id="linearGradient3786"
       x1="24"
       y1="1050.3622"
       x2="24"
       y2="1006.3622"
       gradientUnits="userSpaceOnUse" />
  </defs>
  <sodipodi:namedview
     id="base"
     pagecolor="#ffffff"
     bordercolor="#666666"
     borderopacity="1.0"
     inkscape:pageopacity="0.0"
     inkscape:pageshadow="2"
     inkscape:zoom="10.108768"
     inkscape:cx="19.287195"
     inkscape:cy="19.715336"
     inkscape:document-units="px"
     inkscape:current-layer="g3827"
     showgrid="true"
     inkscape:snap-bbox="true"
     inkscape:window-width="1301"
     inkscape:window-height="744"
     inkscape:window-x="65"
     inkscape:window-y="24"
     inkscape:window-maximized="1"
     inkscape:object-nodes="false">
    <inkscape:grid
       type="xygrid"
       id="grid3003"
       empspacing="6"
       visible="true"
       enabled="true"
       snapvisiblegridlinesonly="true" />
  </sodipodi:namedview>
  <metadata
     id="metadata7">
    <rdf:RDF>
      <cc:Work
         rdf:about="">
        <dc:format>image/svg+xml</dc:format>
        <dc:type
           rdf:resource="http://purl.org/dc/dcmitype/StillImage" />
        <dc:title />
      </cc:Work>
    </rdf:RDF>
  </metadata>
  <g
     inkscape:label="Layer 1"
     inkscape:groupmode="layer"
     id="layer1"
     transform="translate(0,-1004.3622)">
    <path
       id="path3788"
       d="m 24,1051.1116 c -21.2715315,0 -23.66257505,-0.089 -23.9375,-15.4063 0.328125,14.4033 2.9375,14.4063 23.9375,14.4063 21,0 23.609375,0 23.9375,-14.4063 -0.274925,15.3174 -2.665968,15.4063 -23.9375,15.4063 z"
       style="opacity:0.20000000000000001;fill:#ffffff;fill-opacity:1;stroke:none"
       inkscape:connector-curvature="0" />
    <path
       style="fill:url(#linearGradient3786);fill-opacity:1;stroke:none"
       d="m 24,1050.3622 c -24,0 -24,0 -24,-22 0,-22 0,-22 24,-22 24,0 24,0 24,22 0,22 0,22 -24,22 z"
       id="path3757"
       inkscape:connector-curvature="0"
       sodipodi:nodetypes="zzzzz" />
    <path
       style="fill:#000000;fill-opacity:1;stroke:none;opacity:0.20000000000000001"
       d="M 24 2 C 2.7284685 2 0.33742495 2.0888436 0.0625 17.40625 C 0.390625 3.0029297 3 3 24 3 C 45 3 47.609375 3.0029297 47.9375 17.40625 C 47.662575 2.0888436 45.271532 2 24 2 z "
       transform="translate(0,1004.3622)"
       id="path3770" />
    <g
       id="g3813"
       transform="translate(-47.998,993.3622)" />
    <g
       id="g3039"
       transform="translate(-56.998,1002.3622)" />
    <g
       id="g3827"
       style="opacity:0.1"
       transform="translate(1.012,1006.3672)">
      <!-- color: #555555 -->
      <path
         sodipodi:nodetypes="ccccsssssssc"
         style="fill:#000000;fill-opacity:1;fill-rule:nonzero;stroke:none"
         inkscape:connector-curvature="0"
         d="m 13.453,32.988 9.535,0.007 0,3 3.391,-3.007 8.05,0 c 0.914,0 1.563,-0.688 1.563,-1.352 l 0,-18.293 c 0,-0.617 -0.59,-1.348 -1.547,-1.348 l -20.855,0 c -0.766,0 -1.602,0.551 -1.602,1.402 l 0,18.313 c 0,0.746 0.914,1.273 1.457,1.273"
         id="path3831" />
      <path
         style="fill:#000000;fill-opacity:1;fill-rule:nonzero;stroke:none"
         inkscape:connector-curvature="0"
         d="m 26.27,16.16 c -1.625,0.555 -2.652,1.992 -2.535,3.563 l 0.039,0.605 -0.648,-0.074 c -2.367,-0.285 -4.438,-1.25 -6.191,-2.871 l -0.859,-0.801 -0.219,0.594 c -0.469,1.32 -0.172,2.719 0.805,3.66 0.523,0.52 0.402,0.594 -0.484,0.281 -0.316,-0.098 -0.586,-0.172 -0.613,-0.133 -0.09,0.086 0.223,1.211 0.469,1.656 0.34,0.617 1.027,1.223 1.781,1.582 l 0.637,0.285 -0.754,0.012 c -0.727,0 -0.754,0.012 -0.676,0.273 0.262,0.801 1.289,1.656 2.434,2.027 l 0.805,0.258 -0.703,0.398 c -1.039,0.563 -2.262,0.887 -3.484,0.914 -0.586,0.012 -1.066,0.063 -1.066,0.098 0,0.125 1.586,0.816 2.508,1.09 2.773,0.805 6.06,0.457 8.531,-0.918 1.758,-0.977 3.512,-2.918 4.332,-4.797 0.441,-1 0.883,-2.832 0.883,-3.711 0,-0.566 0.039,-0.641 0.77,-1.32 0.43,-0.398 0.832,-0.828 0.91,-0.953 0.129,-0.234 0.117,-0.234 -0.547,-0.023 -1.105,0.371 -1.262,0.32 -0.715,-0.238 0.402,-0.395 0.883,-1.109 0.883,-1.32 0,-0.039 -0.195,0.023 -0.414,0.137 -0.234,0.121 -0.754,0.309 -1.145,0.418 l -0.703,0.211 -0.637,-0.406 c -0.352,-0.223 -0.848,-0.473 -1.105,-0.547 -0.664,-0.172 -1.68,-0.148 -2.277,0.051"
         id="path3833"
         sodipodi:nodetypes="cccccccccccccccccccscccsccccscccccc" />
    </g>
    <path
       id="path3841"
       d="m 13.465,1038.3552 13.535,0.01 0,4 5,-4 2.441,-0.01 c 0.913996,-0 1.563,-0.688 1.563,-1.352 l 0,-18.293 c 0,-0.617 -0.59,-1.348 -1.547,-1.348 l -20.855,0 c -0.766,0 -1.602,0.551 -1.602,1.402 l 0,18.313 c 0,0.746 0.914,1.273 1.457,1.273"
       inkscape:connector-curvature="0"
       style="fill:#17baff;fill-opacity:1;fill-rule:nonzero;stroke:none"
       sodipodi:nodetypes="ccccsssssssc" />
    <path
       id="path3843"
       d="m 26.282,1021.5272 c -1.625,0.555 -2.652,1.992 -2.535,3.563 l 0.039,0.605 -0.648,-0.074 c -2.367,-0.285 -4.438,-1.25 -6.191,-2.871 l -0.859,-0.801 -0.219,0.594 c -0.469,1.32 -0.172,2.719 0.805,3.66 0.523,0.52 0.402,0.594 -0.484,0.281 -0.316,-0.098 -0.586,-0.172 -0.613,-0.133 -0.09,0.086 0.223,1.211 0.469,1.656 0.34,0.617 1.027,1.223 1.781,1.582 l 0.637,0.285 -0.754,0.012 c -0.727,0 -0.754,0.012 -0.676,0.273 0.262,0.801 1.289,1.656 2.434,2.027 l 0.805,0.258 -0.703,0.398 c -1.039,0.563 -2.262,0.887 -3.484,0.914 -0.586,0.012 -1.066,0.063 -1.066,0.098 0,0.125 1.586,0.816 2.508,1.09 2.773,0.805 6.06,0.457 8.531,-0.918 1.758,-0.977 3.512,-2.918 4.332,-4.797 0.441,-1 0.883,-2.832 0.883,-3.711 0,-0.566 0.039,-0.641 0.77,-1.32 0.43,-0.398 0.832,-0.828 0.91,-0.953 0.129,-0.234 0.117,-0.234 -0.547,-0.023 -1.105,0.371 -1.262,0.32 -0.715,-0.238 0.402,-0.395 0.883,-1.109 0.883,-1.32 0,-0.039 -0.195,0.023 -0.414,0.137 -0.234,0.121 -0.754,0.309 -1.145,0.418 l -0.703,0.211 -0.637,-0.406 c -0.352,-0.223 -0.848,-0.473 -1.105,-0.547 -0.664,-0.172 -1.68,-0.148 -2.277,0.051 m 0,0"
       inkscape:connector-curvature="0"
       style="fill:#007fb2;fill-opacity:1;fill-rule:nonzero;stroke:none" />
  </g>
</svg>
