<?xml version="1.0" encoding="UTF-8" standalone="no"?>
<!-- Created with Inkscape (http://www.inkscape.org/) -->

<svg
   xmlns:dc="http://purl.org/dc/elements/1.1/"
   xmlns:cc="http://creativecommons.org/ns#"
   xmlns:rdf="http://www.w3.org/1999/02/22-rdf-syntax-ns#"
   xmlns:svg="http://www.w3.org/2000/svg"
   xmlns="http://www.w3.org/2000/svg"
   xmlns:xlink="http://www.w3.org/1999/xlink"
   xmlns:sodipodi="http://sodipodi.sourceforge.net/DTD/sodipodi-0.dtd"
   xmlns:inkscape="http://www.inkscape.org/namespaces/inkscape"
   width="48"
   height="48"
   id="svg2"
   version="1.1"
   inkscape:version="0.48.4 r9939"
   sodipodi:docname="unity-tweak-tool.svg">
  <defs
     id="defs4">
    <linearGradient
       id="linearGradient3783">
      <stop
         style="stop-color:#880e4f;stop-opacity:1;"
         offset="0"
         id="stop3785" />
      <stop
         style="stop-color:#880e67;stop-opacity:1;"
         offset="1"
         id="stop3787" />
    </linearGradient>
    <linearGradient
       id="linearGradient3779">
      <stop
         style="stop-color:#000000;stop-opacity:1;"
         offset="0"
         id="stop3781" />
      <stop
         style="stop-color:#ffffff;stop-opacity:1;"
         offset="1"
         id="stop3783" />
    </linearGradient>
    <linearGradient
       inkscape:collect="always"
       xlink:href="#linearGradient3779"
       id="linearGradient3795"
       gradientUnits="userSpaceOnUse"
       gradientTransform="translate(-20,0)"
       spreadMethod="repeat"
       x1="24"
       y1="1028.3622"
       x2="45"
       y2="1007.3622" />
    <linearGradient
       inkscape:collect="always"
       xlink:href="#linearGradient3779"
       id="linearGradient3797"
       gradientUnits="userSpaceOnUse"
       gradientTransform="translate(-20,0)"
       spreadMethod="repeat"
       x1="44"
       y1="1048.3622"
       x2="15"
       y2="1019.3622" />
    <linearGradient
       inkscape:collect="always"
       xlink:href="#linearGradient3783"
       id="linearGradient3789"
       x1="24"
       y1="1006.3622"
       x2="24"
       y2="1050.3622"
       gradientUnits="userSpaceOnUse"
       gradientTransform="matrix(1,0,0,-1,0,2056.7244)" />
  </defs>
  <sodipodi:namedview
     id="base"
     pagecolor="#ffffff"
     bordercolor="#666666"
     borderopacity="1.0"
     inkscape:pageopacity="0.0"
     inkscape:pageshadow="2"
     inkscape:zoom="11.583333"
     inkscape:cx="18.988828"
     inkscape:cy="25.616931"
     inkscape:document-units="px"
     inkscape:current-layer="layer1"
     showgrid="true"
     inkscape:snap-bbox="true"
     inkscape:window-width="1301"
     inkscape:window-height="744"
     inkscape:window-x="65"
     inkscape:window-y="24"
     inkscape:window-maximized="1"
     inkscape:object-nodes="true"
     inkscape:snap-nodes="true">
    <inkscape:grid
       type="xygrid"
       id="grid3003"
       empspacing="6"
       visible="true"
       enabled="true"
       snapvisiblegridlinesonly="true" />
  </sodipodi:namedview>
  <metadata
     id="metadata7">
    <rdf:RDF>
      <cc:Work
         rdf:about="">
        <dc:format>image/svg+xml</dc:format>
        <dc:type
           rdf:resource="http://purl.org/dc/dcmitype/StillImage" />
        <dc:title />
      </cc:Work>
    </rdf:RDF>
  </metadata>
  <g
     inkscape:label="Layer 1"
     inkscape:groupmode="layer"
     id="layer1"
     transform="translate(0,-1004.3622)">
    <path
       id="path3788"
       d="m 24,1051.1116 c -21.2715315,0 -23.66257505,-0.089 -23.9375,-15.4063 0.328125,14.4033 2.9375,14.4063 23.9375,14.4063 21,0 23.609375,0 23.9375,-14.4063 -0.274925,15.3174 -2.665968,15.4063 -23.9375,15.4063 z"
       style="opacity:0.20000000000000001;fill:#ffffff;fill-opacity:1;stroke:none"
       inkscape:connector-curvature="0" />
    <path
       style="fill:url(#linearGradient3789);fill-opacity:1;stroke:none"
       d="m 24,1050.3622 c -24,0 -24,0 -24,-22 0,-22 0,-22 24,-22 24,0 24,0 24,22 0,22 0,22 -24,22 z"
       id="path3757"
       inkscape:connector-curvature="0"
       sodipodi:nodetypes="zzzzz" />
    <g
       id="g3791"
       transform="translate(20,0)">
      <path
         style="opacity:0.02999998;fill:url(#linearGradient3795);fill-opacity:1;stroke:none"
         d="m 4,1006.3622 c -24,0 -24,0 -24,22 0,22 0,22 24,22 24,0 24,0 24,-22 0,-22 0,-22 -24,-22 z"
         id="path3777"
         inkscape:connector-curvature="0"
         sodipodi:nodetypes="zzzzz" />
      <path
         sodipodi:nodetypes="zzzzz"
         inkscape:connector-curvature="0"
         id="path3787"
         d="m 4,1006.3622 c -24,0 -24,0 -24,22 0,22 0,22 24,22 24,0 24,0 24,-22 0,-22 0,-22 -24,-22 z"
         style="opacity:0.02999998;fill:url(#linearGradient3797);fill-opacity:1;stroke:none" />
    </g>
    <path
       style="fill:#000000;fill-opacity:1;stroke:none;opacity:0.20000000000000001"
       d="M 24 2 C 2.7284685 2 0.33742495 2.0888436 0.0625 17.40625 C 0.390625 3.0029297 3 3 24 3 C 45 3 47.609375 3.0029297 47.9375 17.40625 C 47.662575 2.0888436 45.271532 2 24 2 z "
       transform="translate(0,1004.3622)"
       id="path3770" />
    <g
       id="g3813"
       transform="translate(-47.998,993.3622)" />
    <path
       sodipodi:type="arc"
       style="opacity:0.22222222;fill:none;fill-opacity:1;stroke:#ffffff;stroke-opacity:1;stroke-width:0.80000000000000004;stroke-miterlimit:4;stroke-dasharray:0.80000000000000004, 0.80000000000000004;stroke-dashoffset:0"
       id="path3006"
       sodipodi:cx="24"
       sodipodi:cy="24"
       sodipodi:rx="12"
       sodipodi:ry="12"
       d="m 36,24 c 0,6.627417 -5.372583,12 -12,12 -6.627417,0 -12,-5.372583 -12,-12 0,-6.627417 5.372583,-12 12,-12 6.627417,0 12,5.372583 12,12 z"
       transform="matrix(1.25,0,0,1.25,-6,998.3622)" />
    <path
       transform="matrix(1.5833334,0,0,1.5833334,-14.000001,990.3622)"
       d="m 36,24 c 0,6.627417 -5.372583,12 -12,12 -6.627417,0 -12,-5.372583 -12,-12 0,-6.627417 5.372583,-12 12,-12 6.627417,0 12,5.372583 12,12 z"
       sodipodi:ry="12"
       sodipodi:rx="12"
       sodipodi:cy="24"
       sodipodi:cx="24"
       id="path3776"
       style="fill:none;stroke:#ffffff;stroke-width:1.26315784000000009;stroke-miterlimit:4;stroke-opacity:1;stroke-dasharray:1.26315784000000009, 1.26315784000000009;stroke-dashoffset:0;opacity:0.37860082"
       sodipodi:type="arc" />
    <rect
       style="fill:#facee5;fill-opacity:1;stroke:none"
       id="rect3791"
       width="17"
       height="6.0000172"
       x="16"
       y="1025.3622"
       ry="3.0000086" />
    <path
       transform="translate(1,1005.3622)"
       d="m 24,24 a 6,6 0 1 1 -12,0 6,6 0 1 1 12,0 z"
       sodipodi:ry="6"
       sodipodi:rx="6"
       sodipodi:cy="24"
       sodipodi:cx="18"
       id="path3797"
       style="opacity:0.1;fill:#000000;fill-opacity:1;stroke:none"
       sodipodi:type="arc" />
    <path
       sodipodi:type="arc"
       style="fill:#ffa726;fill-opacity:1;stroke:none"
       id="path3793"
       sodipodi:cx="18"
       sodipodi:cy="24"
       sodipodi:rx="6"
       sodipodi:ry="6"
       d="m 24,24 a 6,6 0 1 1 -12,0 6,6 0 1 1 12,0 z"
       transform="translate(0,1004.3622)" />
    <rect
       style="fill:#ffe0b2;fill-opacity:1;stroke:none"
       id="rect3799"
       width="2"
       height="3.9999652"
       x="14"
       y="1026.3622" />
    <rect
       y="1026.3622"
       x="17"
       height="3.9999652"
       width="2"
       id="rect3801"
       style="fill:#ffe0b2;fill-opacity:1;stroke:none" />
    <rect
       style="fill:#ffe0b2;fill-opacity:1;stroke:none"
       id="rect3803"
       width="2"
       height="3.9999652"
       x="20"
       y="1026.3622" />
  </g>
</svg>
