<?xml version="1.0" encoding="UTF-8" standalone="no"?>
<!-- Created with Inkscape (http://www.inkscape.org/) -->

<svg
   xmlns:dc="http://purl.org/dc/elements/1.1/"
   xmlns:cc="http://creativecommons.org/ns#"
   xmlns:rdf="http://www.w3.org/1999/02/22-rdf-syntax-ns#"
   xmlns:svg="http://www.w3.org/2000/svg"
   xmlns="http://www.w3.org/2000/svg"
   xmlns:xlink="http://www.w3.org/1999/xlink"
   xmlns:sodipodi="http://sodipodi.sourceforge.net/DTD/sodipodi-0.dtd"
   xmlns:inkscape="http://www.inkscape.org/namespaces/inkscape"
   width="48"
   height="48"
   id="svg2"
   version="1.1"
   inkscape:version="0.48.4 r9939"
   sodipodi:docname="vivaldi.svg">
  <defs
     id="defs4">
    <linearGradient
       id="linearGradient3776">
      <stop
         style="stop-color:#e53935;stop-opacity:1;"
         offset="0"
         id="stop3778" />
      <stop
         style="stop-color:#e85350;stop-opacity:1;"
         offset="1"
         id="stop3780" />
    </linearGradient>
    <linearGradient
       id="linearGradient3779">
      <stop
         style="stop-color:#000000;stop-opacity:1;"
         offset="0"
         id="stop3781" />
      <stop
         style="stop-color:#ffffff;stop-opacity:1;"
         offset="1"
         id="stop3783" />
    </linearGradient>
    <linearGradient
       inkscape:collect="always"
       xlink:href="#linearGradient3779"
       id="linearGradient3795"
       gradientUnits="userSpaceOnUse"
       gradientTransform="translate(-20,0)"
       spreadMethod="repeat"
       x1="24"
       y1="1028.3622"
       x2="45"
       y2="1007.3622" />
    <linearGradient
       inkscape:collect="always"
       xlink:href="#linearGradient3779"
       id="linearGradient3797"
       gradientUnits="userSpaceOnUse"
       gradientTransform="translate(-20,0)"
       spreadMethod="repeat"
       x1="44"
       y1="1048.3622"
       x2="15"
       y2="1019.3622" />
    <linearGradient
       inkscape:collect="always"
       xlink:href="#linearGradient3776"
       id="linearGradient3782"
       x1="24"
       y1="1050.3622"
       x2="24"
       y2="1006.3622"
       gradientUnits="userSpaceOnUse" />
  </defs>
  <sodipodi:namedview
     id="base"
     pagecolor="#ffffff"
     bordercolor="#666666"
     borderopacity="1.0"
     inkscape:pageopacity="0.0"
     inkscape:pageshadow="2"
     inkscape:zoom="8.1906536"
     inkscape:cx="13.96048"
     inkscape:cy="16.293314"
     inkscape:document-units="px"
     inkscape:current-layer="layer1"
     showgrid="true"
     inkscape:snap-bbox="true"
     inkscape:window-width="1301"
     inkscape:window-height="744"
     inkscape:window-x="65"
     inkscape:window-y="24"
     inkscape:window-maximized="1"
     inkscape:snap-global="true">
    <inkscape:grid
       type="xygrid"
       id="grid2985"
       empspacing="6"
       visible="true"
       enabled="true"
       snapvisiblegridlinesonly="true" />
  </sodipodi:namedview>
  <metadata
     id="metadata7">
    <rdf:RDF>
      <cc:Work
         rdf:about="">
        <dc:format>image/svg+xml</dc:format>
        <dc:type
           rdf:resource="http://purl.org/dc/dcmitype/StillImage" />
        <dc:title />
      </cc:Work>
    </rdf:RDF>
  </metadata>
  <g
     inkscape:label="Layer 1"
     inkscape:groupmode="layer"
     id="layer1"
     transform="translate(0,-1004.3622)">
    <path
       id="path3788"
       d="m 24,1051.1116 c -21.2715315,0 -23.66257505,-0.089 -23.9375,-15.4063 0.328125,14.4033 2.9375,14.4063 23.9375,14.4063 21,0 23.609375,0 23.9375,-14.4063 -0.274925,15.3174 -2.665968,15.4063 -23.9375,15.4063 z"
       style="opacity:0.20000000000000001;fill:#ffffff;fill-opacity:1;stroke:none"
       inkscape:connector-curvature="0" />
    <path
       style="fill:url(#linearGradient3782);fill-opacity:1;stroke:none"
       d="m 24,1006.3622 c -24,0 -24,0 -24,22 0,22 0,22 24,22 24,0 24,0 24,-22 0,-22 0,-22 -24,-22 z"
       id="path3757"
       inkscape:connector-curvature="0"
       sodipodi:nodetypes="zzzzz" />
    <g
       id="g3791"
       transform="translate(20,0)">
      <path
         style="opacity:0.02999998;fill:url(#linearGradient3795);fill-opacity:1;stroke:none"
         d="m 4,1006.3622 c -24,0 -24,0 -24,22 0,22 0,22 24,22 24,0 24,0 24,-22 0,-22 0,-22 -24,-22 z"
         id="path3777"
         inkscape:connector-curvature="0"
         sodipodi:nodetypes="zzzzz" />
      <path
         sodipodi:nodetypes="zzzzz"
         inkscape:connector-curvature="0"
         id="path3787"
         d="m 4,1006.3622 c -24,0 -24,0 -24,22 0,22 0,22 24,22 24,0 24,0 24,-22 0,-22 0,-22 -24,-22 z"
         style="opacity:0.02999998;fill:url(#linearGradient3797);fill-opacity:1;stroke:none" />
    </g>
    <path
       style="fill:#000000;fill-opacity:1;stroke:none;opacity:0.20000000000000001"
       d="M 24 2 C 2.7284685 2 0.33742495 2.0888436 0.0625 17.40625 C 0.390625 3.0029297 3 3 24 3 C 45 3 47.609375 3.0029297 47.9375 17.40625 C 47.662575 2.0888436 45.271532 2 24 2 z "
       transform="translate(0,1004.3622)"
       id="path3770" />
    <path
       sodipodi:nodetypes="sccsscccsss"
       inkscape:connector-curvature="0"
       id="path3792"
       d="m 11.263275,1021.9069 9.724715,21.1208 c 1.47394,2.5638 4.02774,3.6365 6.13928,-0.049 l 9.582457,-21.4451 c 1.012919,-2.2669 -0.792086,-5.0305 -2.835971,-5.1626 -2.161764,-0.1403 -3.633339,1.457 -3.730811,2.6752 -0.124335,3.5099 1.978761,5.4507 0.235951,10.1183 -1.165114,2.6775 -5.635338,4.3857 -8.247984,-3e-4 l -5.295636,-11.5968 c -0.60136,-1.3169 -2.520465,-1.5373 -3.936168,-0.5491 -1.450286,1.0124 -2.381799,3.2692 -1.635833,4.8893 z"
       style="opacity:0.2;fill:#000000;fill-opacity:1;stroke:none" />
    <path
       style="fill:#ededed;fill-opacity:1;stroke:none"
       d="m 11.263275,1020.951 9.724715,17.4792 c 1.47394,2.1217 4.02774,3.0095 6.13928,-0.04 l 9.582457,-17.7475 c 1.012919,-1.8761 -0.792086,-4.1632 -2.835971,-4.2725 -2.161764,-0.1161 -3.633339,1.2058 -3.730811,2.2139 -0.124335,2.9048 1.978761,4.511 0.235951,8.3738 -1.165114,2.2158 -5.635338,3.6295 -8.247984,-3e-4 l -5.295636,-9.5973 c -0.60136,-1.0898 -2.520465,-1.2722 -3.936168,-0.4544 -1.450286,0.8379 -2.381799,2.7055 -1.635833,4.0463 z"
       id="rect3015"
       inkscape:connector-curvature="0"
       sodipodi:nodetypes="sccsscccsss" />
    <path
       style="opacity:0.1;fill:#000000;fill-opacity:1;stroke:none"
       d="m 16.213542,1016.748 5.247396,9.5068 c 0.316057,0.4391 0.654339,0.8236 1.015625,1.1226 -0.114937,-0.1341 -0.229682,-0.2697 -0.338542,-0.421 l -5.315104,-9.612 c -0.14262,-0.2585 -0.342812,-0.4412 -0.609375,-0.5964 z m 19.567708,0.421 c 0.580122,0.8199 0.777293,1.8333 0.270833,2.7713 l -9.580729,17.7507 c -1.704708,2.4623 -3.699408,2.3355 -5.179687,1.0875 1.502363,1.8424 3.839725,2.4786 5.822916,-0.3859 l 9.580729,-17.7506 c 0.665087,-1.2319 0.120549,-2.6196 -0.914062,-3.473 z"
       id="path3786"
       inkscape:connector-curvature="0" />
  </g>
</svg>
