<?xml version="1.0" encoding="UTF-8" standalone="no"?>
<!-- Created with Inkscape (http://www.inkscape.org/) -->

<svg
   xmlns:dc="http://purl.org/dc/elements/1.1/"
   xmlns:cc="http://creativecommons.org/ns#"
   xmlns:rdf="http://www.w3.org/1999/02/22-rdf-syntax-ns#"
   xmlns:svg="http://www.w3.org/2000/svg"
   xmlns="http://www.w3.org/2000/svg"
   xmlns:xlink="http://www.w3.org/1999/xlink"
   xmlns:sodipodi="http://sodipodi.sourceforge.net/DTD/sodipodi-0.dtd"
   xmlns:inkscape="http://www.inkscape.org/namespaces/inkscape"
   width="48"
   height="48"
   id="svg2"
   version="1.1"
   inkscape:version="0.48.4 r9939"
   sodipodi:docname="mailru-mail.ru.svg">
  <defs
     id="defs4">
    <linearGradient
       id="linearGradient3767">
      <stop
         style="stop-color:#7e57c2;stop-opacity:1;"
         offset="0"
         id="stop3769" />
      <stop
         style="stop-color:#9474cc;stop-opacity:1;"
         offset="1"
         id="stop3771" />
    </linearGradient>
    <linearGradient
       inkscape:collect="always"
       xlink:href="#linearGradient3767"
       id="linearGradient3773"
       x1="24"
       y1="1050.3622"
       x2="24"
       y2="1006.3622"
       gradientUnits="userSpaceOnUse" />
  </defs>
  <sodipodi:namedview
     id="base"
     pagecolor="#ffffff"
     bordercolor="#666666"
     borderopacity="1.0"
     inkscape:pageopacity="0.0"
     inkscape:pageshadow="2"
     inkscape:zoom="11.583333"
     inkscape:cx="19.327327"
     inkscape:cy="25.516736"
     inkscape:document-units="px"
     inkscape:current-layer="layer1"
     showgrid="true"
     inkscape:snap-bbox="true"
     inkscape:window-width="1301"
     inkscape:window-height="744"
     inkscape:window-x="65"
     inkscape:window-y="24"
     inkscape:window-maximized="1">
    <inkscape:grid
       type="xygrid"
       id="grid2985"
       empspacing="6"
       visible="true"
       enabled="true"
       snapvisiblegridlinesonly="true" />
  </sodipodi:namedview>
  <metadata
     id="metadata7">
    <rdf:RDF>
      <cc:Work
         rdf:about="">
        <dc:format>image/svg+xml</dc:format>
        <dc:type
           rdf:resource="http://purl.org/dc/dcmitype/StillImage" />
        <dc:title />
      </cc:Work>
    </rdf:RDF>
  </metadata>
  <g
     inkscape:label="Layer 1"
     inkscape:groupmode="layer"
     id="layer1"
     transform="translate(0,-1004.3622)">
    <path
       id="path3788"
       d="m 24,1051.1116 c -21.2715315,0 -23.66257505,-0.089 -23.9375,-15.4063 0.328125,14.4033 2.9375,14.4063 23.9375,14.4063 21,0 23.609375,0 23.9375,-14.4063 -0.274925,15.3174 -2.665968,15.4063 -23.9375,15.4063 z"
       style="opacity:0.20000000000000001;fill:#ffffff;fill-opacity:1;stroke:none"
       inkscape:connector-curvature="0" />
    <path
       style="fill:url(#linearGradient3773);fill-opacity:1;stroke:none"
       d="m 24,1006.3622 c -24,0 -24,0 -24,22 0,22 0,22 24,22 24,0 24,0 24,-22 0,-22 0,-22 -24,-22 z"
       id="path3757"
       inkscape:connector-curvature="0"
       sodipodi:nodetypes="zzzzz" />
    <path
       style="fill:#000000;fill-opacity:1;stroke:none;opacity:0.20000000000000001"
       d="M 24 2 C 2.7284685 2 0.33742495 2.0888436 0.0625 17.40625 C 0.390625 3.0029297 3 3 24 3 C 45 3 47.609375 3.0029297 47.9375 17.40625 C 47.662575 2.0888436 45.271532 2 24 2 z "
       transform="translate(0,1004.3622)"
       id="path3770" />
    <path
       id="path2997"
       d="m 25.5,1016.1747 c -1.850861,0 -3.626271,0.3398 -5.28125,1 -1.654999,0.6505 -3.11173,1.5795 -4.375,2.8125 -1.233903,1.2136 -2.17784,2.6168 -2.84375,4.2188 -0.665916,1.6019 -1.000002,3.2955 -1,5.0625 -2e-6,1.8349 0.312627,3.5543 0.96875,5.1562 0.656117,1.5922 1.621511,3.0052 2.875,4.2188 1.253477,1.2135 2.675215,2.1189 4.28125,2.75 1.606015,0.6407 3.31331,0.9687 5.125,0.9687 1.488496,0 2.966684,-0.2452 4.40625,-0.75 1.44932,-0.4951 2.775872,-1.2145 4,-2.1562 l -1.3125,-1.625 c -1.018477,0.7864 -2.150915,1.395 -3.375,1.8125 -1.21433,0.4271 -2.45549,0.6249 -3.71875,0.625 -1.53749,-10e-5 -2.9611,-0.2473 -4.3125,-0.7813 -1.351422,-0.5243 -2.53426,-1.3028 -3.5625,-2.3125 -1.067426,-1.0291 -1.900771,-2.213 -2.46875,-3.5625 -0.558196,-1.3495 -0.843754,-2.8001 -0.84375,-4.3437 -4e-6,-1.8738 0.450725,-3.6168 1.3125,-5.2188 0.871557,-1.6116 2.056266,-2.9159 3.59375,-3.9062 0.940103,-0.6214 1.987148,-1.0956 3.09375,-1.4063 1.106578,-0.3204 2.232966,-0.4687 3.4375,-0.4687 1.723523,0 3.322097,0.3516 4.78125,1.0312 1.468905,0.6699 2.731521,1.6344 3.75,2.9063 0.626717,0.7767 1.071397,1.6186 1.375,2.5312 0.313345,0.9126 0.468724,1.8987 0.46875,2.9375 -2.6e-5,1.7185 -0.405969,3.1001 -1.21875,4.1875 -0.803037,1.0777 -1.914017,1.7239 -3.34375,1.9375 l 0,-10.7187 -2.09375,0 0,1.9062 c -0.577796,-0.7379 -1.236176,-1.2658 -2,-1.625 -0.763858,-0.3689 -1.678853,-0.5625 -2.6875,-0.5625 -1.674589,0 -3.036134,0.5989 -4.09375,1.8125 -1.057637,1.2136 -1.562509,2.8083 -1.5625,4.75 -9e-6,1.9418 0.514656,3.5052 1.5625,4.7188 1.057616,1.2038 2.409368,1.8125 4.09375,1.8125 1.008647,0 1.902185,-0.1818 2.65625,-0.5313 0.763824,-0.3592 1.443661,-0.9087 2.03125,-1.6562 l 0,2.25 c 2.741974,-0.058 4.880414,-0.8368 6.4375,-2.3125 1.557035,-1.4758 2.343722,-3.4779 2.34375,-6.0313 -2.8e-5,-1.1942 -0.202064,-2.3522 -0.59375,-3.4687 -0.381948,-1.1165 -0.921813,-2.1423 -1.65625,-3.0938 -1.204544,-1.5534 -2.717725,-2.7491 -4.5,-3.5937 -1.772524,-0.8447 -3.673935,-1.2813 -5.75,-1.2813 z m -0.40625,8.75 c 1.194711,0 2.138648,0.3817 2.84375,1.1875 0.705066,0.7961 1.062481,1.8908 1.0625,3.25 -1.9e-5,1.3786 -0.367227,2.4539 -1.0625,3.25 -0.685516,0.7961 -1.607996,1.1875 -2.8125,1.1875 -1.214327,0 -2.179721,-0.3698 -2.875,-1.1562 -0.695303,-0.7962 -1.031261,-1.8929 -1.03125,-3.2813 -1.1e-5,-1.3689 0.335947,-2.4539 1.03125,-3.25 0.705072,-0.7961 1.658802,-1.1875 2.84375,-1.1875 z"
       style="font-size:29.95414925px;font-style:normal;font-weight:normal;text-align:center;line-height:100%;letter-spacing:0px;word-spacing:0px;text-anchor:middle;opacity:0.2;fill:#000000;fill-opacity:1;stroke:none;font-family:Sans"
       inkscape:connector-curvature="0" />
    <path
       style="font-size:29.95414925000000039px;font-style:normal;font-weight:normal;text-align:center;line-height:100%;letter-spacing:0px;word-spacing:0px;text-anchor:middle;fill:#fadd60;fill-opacity:1;stroke:none;font-family:Sans"
       d="M 24.5 11 C 22.649139 11.000021 20.873729 11.339827 19.21875 12 C 17.563751 12.650505 16.10702 13.579509 14.84375 14.8125 C 13.609847 16.026108 12.66591 17.429323 12 19.03125 C 11.334084 20.633203 10.999998 22.32677 11 24.09375 C 10.999998 25.928707 11.312627 27.648063 11.96875 29.25 C 12.624867 30.842234 13.590261 32.255158 14.84375 33.46875 C 16.097227 34.682339 17.518965 35.587679 19.125 36.21875 C 20.731015 36.859522 22.43831 37.187495 24.25 37.1875 C 25.738496 37.187495 27.216684 36.942349 28.65625 36.4375 C 30.10557 35.94235 31.432122 35.222994 32.65625 34.28125 L 31.34375 32.65625 C 30.325273 33.442656 29.192835 34.051272 27.96875 34.46875 C 26.75442 34.895932 25.51326 35.093747 24.25 35.09375 C 22.71251 35.093747 21.2889 34.846478 19.9375 34.3125 C 18.586078 33.788226 17.40324 33.009708 16.375 32 C 15.307574 30.970875 14.474229 29.787017 13.90625 28.4375 C 13.348054 27.08799 13.062496 25.637446 13.0625 24.09375 C 13.062496 22.219974 13.513225 20.476953 14.375 18.875 C 15.246557 17.263364 16.431266 15.959057 17.96875 14.96875 C 18.908853 14.347408 19.955898 13.873198 21.0625 13.5625 C 22.169078 13.24213 23.295466 13.093769 24.5 13.09375 C 26.223523 13.093769 27.822097 13.445407 29.28125 14.125 C 30.750155 14.79492 32.012771 15.759422 33.03125 17.03125 C 33.657967 17.807963 34.102647 18.649892 34.40625 19.5625 C 34.719595 20.475133 34.874974 21.461176 34.875 22.5 C 34.874974 24.218454 34.469031 25.600128 33.65625 26.6875 C 32.853213 27.765174 31.742233 28.411411 30.3125 28.625 L 30.3125 17.90625 L 28.21875 17.90625 L 28.21875 19.8125 C 27.640954 19.074649 26.982574 18.546737 26.21875 18.1875 C 25.454892 17.818582 24.539897 17.625014 23.53125 17.625 C 21.856661 17.625014 20.495116 18.223922 19.4375 19.4375 C 18.379863 20.651103 17.874991 22.245762 17.875 24.1875 C 17.874991 26.129253 18.389656 27.692662 19.4375 28.90625 C 20.495116 30.110135 21.846868 30.718751 23.53125 30.71875 C 24.539897 30.718751 25.433435 30.537016 26.1875 30.1875 C 26.951324 29.828279 27.631161 29.278825 28.21875 28.53125 L 28.21875 30.78125 C 30.960724 30.722999 33.099164 29.94448 34.65625 28.46875 C 36.213285 26.993027 36.999972 24.990905 37 22.4375 C 36.999972 21.243336 36.797936 20.085267 36.40625 18.96875 C 36.024302 17.852259 35.484437 16.826471 34.75 15.875 C 33.545456 14.32162 32.032275 13.125929 30.25 12.28125 C 28.477476 11.43661 26.576065 11.000021 24.5 11 z M 24.09375 19.75 C 25.288461 19.750012 26.232398 20.131687 26.9375 20.9375 C 27.642566 21.733627 27.999981 22.828286 28 24.1875 C 27.999981 25.566147 27.632773 26.641389 26.9375 27.4375 C 26.251984 28.23362 25.329504 28.625003 24.125 28.625 C 22.910673 28.625003 21.945279 28.255161 21.25 27.46875 C 20.554697 26.672639 20.218739 25.575856 20.21875 24.1875 C 20.218739 22.818577 20.554697 21.733627 21.25 20.9375 C 21.955072 20.141395 22.908802 19.750012 24.09375 19.75 z "
       transform="translate(0,1004.3622)"
       id="text2992" />
  </g>
</svg>
