<?xml version="1.0" encoding="UTF-8" standalone="no"?>
<!-- Created with Inkscape (http://www.inkscape.org/) -->

<svg
   xmlns:dc="http://purl.org/dc/elements/1.1/"
   xmlns:cc="http://creativecommons.org/ns#"
   xmlns:rdf="http://www.w3.org/1999/02/22-rdf-syntax-ns#"
   xmlns:svg="http://www.w3.org/2000/svg"
   xmlns="http://www.w3.org/2000/svg"
   xmlns:xlink="http://www.w3.org/1999/xlink"
   xmlns:sodipodi="http://sodipodi.sourceforge.net/DTD/sodipodi-0.dtd"
   xmlns:inkscape="http://www.inkscape.org/namespaces/inkscape"
   width="48"
   height="48"
   id="svg2"
   version="1.1"
   inkscape:version="0.48.4 r9939"
   sodipodi:docname="chrome-pchjhmiapbbphflbgejhigbmfmmgbngn-Default.svg">
  <sodipodi:namedview
     id="base"
     pagecolor="#ffffff"
     bordercolor="#666666"
     borderopacity="1.0"
     inkscape:pageopacity="0.0"
     inkscape:pageshadow="2"
     inkscape:zoom="8.1906533"
     inkscape:cx="14.483969"
     inkscape:cy="16.599678"
     inkscape:document-units="px"
     inkscape:current-layer="layer1"
     showgrid="true"
     inkscape:snap-bbox="true"
     inkscape:window-width="1301"
     inkscape:window-height="744"
     inkscape:window-x="65"
     inkscape:window-y="24"
     inkscape:window-maximized="1"
     inkscape:snap-global="true">
    <inkscape:grid
       snapvisiblegridlinesonly="true"
       enabled="true"
       visible="true"
       empspacing="6"
       id="grid2985"
       type="xygrid" />
  </sodipodi:namedview>
  <defs
     id="defs4">
    <linearGradient
       inkscape:collect="always"
       id="linearGradient4309">
      <stop
         style="stop-color:#000000;stop-opacity:1;"
         offset="0"
         id="stop4311" />
      <stop
         style="stop-color:#000000;stop-opacity:0;"
         offset="1"
         id="stop4313" />
    </linearGradient>
    <linearGradient
       id="linearGradient3771">
      <stop
         id="stop3773"
         offset="0"
         style="stop-color:#0288d1;stop-opacity:1;" />
      <stop
         id="stop3775"
         offset="1"
         style="stop-color:#09a7fd;stop-opacity:1;" />
    </linearGradient>
    <linearGradient
       inkscape:collect="always"
       xlink:href="#linearGradient3771"
       id="linearGradient4307"
       gradientUnits="userSpaceOnUse"
       x1="24"
       y1="1050.3622"
       x2="24"
       y2="1006.3622" />
    <linearGradient
       inkscape:collect="always"
       xlink:href="#linearGradient4309"
       id="linearGradient4315"
       x1="18"
       y1="12"
       x2="46"
       y2="40"
       gradientUnits="userSpaceOnUse" />
    <clipPath
       id="clipPath-766571196">
      <g
         id="g3014"
         transform="translate(0,-1004.3622)">
        <path
           id="path3016"
           fill="#1890d0"
           transform="matrix(15.333333,0,0,11.5,414.99999,878.8622)"
           d="m -24 13 c 0 1.105 -0.672 2 -1.5 2 -0.828 0 -1.5 -0.895 -1.5 -2 0 -1.105 0.672 -2 1.5 -2 0.828 0 1.5 0.895 1.5 2 z" />
      </g>
    </clipPath>
    <clipPath
       id="clipPath-756402117">
      <g
         id="g3009"
         transform="translate(0,-1004.3622)">
        <path
           id="path3011"
           fill="#1890d0"
           transform="matrix(15.333333,0,0,11.5,414.99999,878.8622)"
           d="m -24 13 c 0 1.105 -0.672 2 -1.5 2 -0.828 0 -1.5 -0.895 -1.5 -2 0 -1.105 0.672 -2 1.5 -2 0.828 0 1.5 0.895 1.5 2 z" />
      </g>
    </clipPath>
    <linearGradient
       gradientTransform="matrix(0,-1,1,0,-1.5e-6,47.999998)"
       gradientUnits="userSpaceOnUse"
       x2="47"
       x1="1"
       id="linearGradient3764">
      <stop
         id="stop3004"
         stop-opacity="1"
         stop-color="#098cc3" />
      <stop
         id="stop3006"
         stop-opacity="1"
         stop-color="#0a99d6"
         offset="1" />
    </linearGradient>
    <linearGradient
       inkscape:collect="always"
       xlink:href="#linearGradient3764"
       id="linearGradient3118"
       gradientUnits="userSpaceOnUse"
       gradientTransform="matrix(0,-1,1,0,-1.5e-6,47.999998)"
       x1="1"
       x2="47" />
    <linearGradient
       inkscape:collect="always"
       xlink:href="#linearGradient3764"
       id="linearGradient3121"
       gradientUnits="userSpaceOnUse"
       gradientTransform="matrix(0,-1,1,0,-45.998001,1049.3622)"
       x1="1"
       x2="47" />
  </defs>
  <metadata
     id="metadata7">
    <rdf:RDF>
      <cc:Work
         rdf:about="">
        <dc:format>image/svg+xml</dc:format>
        <dc:type
           rdf:resource="http://purl.org/dc/dcmitype/StillImage" />
        <dc:title />
      </cc:Work>
    </rdf:RDF>
  </metadata>
  <g
     transform="translate(0,-1004.3622)"
     id="layer1"
     inkscape:groupmode="layer"
     inkscape:label="Layer 1">
    <path
       inkscape:connector-curvature="0"
       style="opacity:0.20000000000000001;fill:#ffffff;fill-opacity:1;stroke:none"
       d="m 24,1051.1116 c -21.2715315,0 -23.66257505,-0.089 -23.9375,-15.4063 0.328125,14.4033 2.9375,14.4063 23.9375,14.4063 21,0 23.609375,0 23.9375,-14.4063 -0.274925,15.3174 -2.665968,15.4063 -23.9375,15.4063 z"
       id="path3788" />
    <path
       sodipodi:nodetypes="zzzzz"
       inkscape:connector-curvature="0"
       id="path3757"
       d="m 24,1006.3622 c -24,0 -24,0 -24,22 0,22 0,22 24,22 24,0 24,0 24,-22 0,-22 0,-22 -24,-22 z"
       style="fill:url(#linearGradient4307);fill-opacity:1;stroke:none" />
    <path
       id="path3770"
       transform="translate(0,1004.3622)"
       d="M 24 2 C 2.7284685 2 0.33742495 2.0888436 0.0625 17.40625 C 0.390625 3.0029297 3 3 24 3 C 45 3 47.609375 3.0029297 47.9375 17.40625 C 47.662575 2.0888436 45.271532 2 24 2 z "
       style="fill:#000000;fill-opacity:1;stroke:none;opacity:0.20000000000000001" />
    <path
       id="path3012"
       transform="translate(0,1004.3622)"
       d="M 24 2 C 7.2405624 2 2.2369698 2.0788791 0.71875 9.59375 C 2.3300781 2.5289866 7.5 2.53125 24 2.53125 C 40.5 2.53125 45.669922 2.5289866 47.28125 9.59375 C 45.76303 2.0788791 40.759438 2 24 2 z M 47.28125 9.59375 C 47.354492 9.9148756 47.409424 10.242768 47.46875 10.59375 C 47.41561 10.240351 47.346891 9.9186608 47.28125 9.59375 z M 0.71875 9.59375 C 0.65310868 9.9186608 0.58439008 10.240351 0.53125 10.59375 C 0.59057617 10.242768 0.64550781 9.9148756 0.71875 9.59375 z "
       style="fill:#000000;fill-opacity:1;stroke:none;opacity:0.20000000000000001" />
    <g
       transform="translate(48,1007.3622)"
       id="g3032" />
    <g
       id="g3034"
       clip-path="url(#clipPath-756402117)"
       transform="translate(-1.004,1004.3607)">
      <g
         id="g3036"
         transform="translate(1,1)">
        <g
           id="g3038"
           style="opacity:0.1">
          <!-- color: #0a99d6 -->
          <g
             id="g3040">
            <path
               id="path3042"
               d="m 17.977,14.207 c -6.695,3.48 -8.04,12.531 -2.629,17.688 3.109,2.965 7.285,3.844 11.633,2.434 4.16,-1.352 7.02,-5.547 7.02,-9.855 0,-1.648 0.188,-2.133 1.648,-2.59 1.355,-0.418 2.355,-1.895 2.355,-2.902 -2.52,0.109 -7,-1.996 -9,-4.5 l 0,5 c 0,5.348 -0.914,6.531 -3.03,8.03 -1.707,1.207 -4.813,1.418 -6.348,0.438 -2.34,-1.496 -2.32,-4.355 0.059,-6.777 2.254,-1.789 3.895,-1.902 6.313,-1.738 l 0,-6.04 c -2.602,-0.77 -5.68,-0.363 -8.02,0.813 m 0.004,0"
               inkscape:connector-curvature="0"
               style="fill:#000000;fill-opacity:1;fill-rule:nonzero;stroke:none" />
          </g>
        </g>
      </g>
    </g>
    <g
       id="g3046"
       clip-path="url(#clipPath-766571196)"
       transform="translate(-1.004,1004.3607)">
      <!-- color: #0a99d6 -->
      <g
         id="g3048">
        <path
           id="path3050"
           d="m 17.977,14.207 c -6.695,3.48 -8.04,12.531 -2.629,17.688 3.109,2.965 7.285,3.844 11.633,2.434 4.16,-1.352 7.02,-5.547 7.02,-9.855 0,-1.648 0.188,-2.133 1.648,-2.59 1.355,-0.418 2.355,-1.895 2.355,-2.902 -2.52,0.109 -7,-1.996 -9,-4.5 l 0,5 c 0,5.348 -0.914,6.531 -3.03,8.03 -1.707,1.207 -4.813,1.418 -6.348,0.438 -2.34,-1.496 -2.32,-4.355 0.059,-6.777 2.254,-1.789 3.895,-1.902 6.313,-1.738 l 0,-6.04 c -2.602,-0.77 -5.68,-0.363 -8.02,0.813 m 0.004,0"
           inkscape:connector-curvature="0"
           style="fill:#f9f9f9;fill-opacity:1;fill-rule:nonzero;stroke:none" />
      </g>
    </g>
  </g>
</svg>
