<?xml version="1.0" encoding="UTF-8" standalone="no"?>
<!-- Created with Inkscape (http://www.inkscape.org/) -->

<svg
   xmlns:dc="http://purl.org/dc/elements/1.1/"
   xmlns:cc="http://creativecommons.org/ns#"
   xmlns:rdf="http://www.w3.org/1999/02/22-rdf-syntax-ns#"
   xmlns:svg="http://www.w3.org/2000/svg"
   xmlns="http://www.w3.org/2000/svg"
   xmlns:xlink="http://www.w3.org/1999/xlink"
   xmlns:sodipodi="http://sodipodi.sourceforge.net/DTD/sodipodi-0.dtd"
   xmlns:inkscape="http://www.inkscape.org/namespaces/inkscape"
   width="48"
   height="48"
   id="svg2"
   version="1.1"
   inkscape:version="0.48.4 r9939"
   sodipodi:docname="chrome-coobgpohoikkiipiblmjeljniedjpjpf-Default.svg">
  <defs
     id="defs4">
    <linearGradient
       inkscape:collect="always"
       id="linearGradient3906">
      <stop
         style="stop-color:#000000;stop-opacity:1;"
         offset="0"
         id="stop3908" />
      <stop
         style="stop-color:#000000;stop-opacity:0;"
         offset="1"
         id="stop3910" />
    </linearGradient>
    <linearGradient
       id="linearGradient3871">
      <stop
         style="stop-color:#2196f3;stop-opacity:1;"
         offset="0"
         id="stop3873" />
      <stop
         style="stop-color:#21baf3;stop-opacity:1;"
         offset="1"
         id="stop3875" />
    </linearGradient>
    <clipPath
       id="clipPath-967501542">
      <g
         id="g3027"
         transform="translate(0,-1004.3622)">
        <path
           id="path3029"
           fill="#1890d0"
           transform="matrix(15.333333,0,0,11.5,414.99999,878.8622)"
           d="m -24 13 c 0 1.105 -0.672 2 -1.5 2 -0.828 0 -1.5 -0.895 -1.5 -2 0 -1.105 0.672 -2 1.5 -2 0.828 0 1.5 0.895 1.5 2 z" />
      </g>
    </clipPath>
    <linearGradient
       inkscape:collect="always"
       xlink:href="#linearGradient3871"
       id="linearGradient3877"
       x1="24"
       y1="1050.3622"
       x2="24"
       y2="1006.3622"
       gradientUnits="userSpaceOnUse" />
    <linearGradient
       inkscape:collect="always"
       xlink:href="#linearGradient3906"
       id="linearGradient3912"
       x1="16"
       y1="16"
       x2="44"
       y2="44"
       gradientUnits="userSpaceOnUse" />
  </defs>
  <sodipodi:namedview
     id="base"
     pagecolor="#ffffff"
     bordercolor="#666666"
     borderopacity="1.0"
     inkscape:pageopacity="0.0"
     inkscape:pageshadow="2"
     inkscape:zoom="11.583333"
     inkscape:cx="22.048013"
     inkscape:cy="25.785044"
     inkscape:document-units="px"
     inkscape:current-layer="layer1"
     showgrid="true"
     inkscape:snap-bbox="true"
     inkscape:window-width="1301"
     inkscape:window-height="744"
     inkscape:window-x="65"
     inkscape:window-y="24"
     inkscape:window-maximized="1"
     inkscape:object-nodes="true"
     showguides="true"
     inkscape:guide-bbox="true"
     inkscape:snap-nodes="true"
     inkscape:snap-global="true">
    <inkscape:grid
       type="xygrid"
       id="grid3003"
       empspacing="6"
       visible="true"
       enabled="true"
       snapvisiblegridlinesonly="true" />
  </sodipodi:namedview>
  <metadata
     id="metadata7">
    <rdf:RDF>
      <cc:Work
         rdf:about="">
        <dc:format>image/svg+xml</dc:format>
        <dc:type
           rdf:resource="http://purl.org/dc/dcmitype/StillImage" />
        <dc:title />
      </cc:Work>
    </rdf:RDF>
  </metadata>
  <g
     inkscape:label="Layer 1"
     inkscape:groupmode="layer"
     id="layer1"
     transform="translate(0,-1004.3622)">
    <path
       id="path3788"
       d="m 24,1051.1116 c -21.2715315,0 -23.66257505,-0.089 -23.9375,-15.4063 0.328125,14.4033 2.9375,14.4063 23.9375,14.4063 21,0 23.609375,0 23.9375,-14.4063 -0.274925,15.3174 -2.665968,15.4063 -23.9375,15.4063 z"
       style="opacity:0.20000000000000001;fill:#ffffff;fill-opacity:1;stroke:none"
       inkscape:connector-curvature="0" />
    <path
       style="fill:url(#linearGradient3877);fill-opacity:1;stroke:none"
       d="m 24,1006.3622 c -24,0 -24,0 -24,22 0,22 0,22 24,22 24,0 24,0 24,-22 0,-22 0,-22 -24,-22 z"
       id="path3757"
       inkscape:connector-curvature="0"
       sodipodi:nodetypes="zzzzz" />
    <path
       style="fill:#000000;fill-opacity:1;stroke:none;opacity:0.20000000000000001"
       d="M 24 2 C 2.7284685 2 0.33742495 2.0888436 0.0625 17.40625 C 0.390625 3.0029297 3 3 24 3 C 45 3 47.609375 3.0029297 47.9375 17.40625 C 47.662575 2.0888436 45.271532 2 24 2 z "
       transform="translate(0,1004.3622)"
       id="path3770" />
    <g
       id="g3813"
       transform="translate(-47.998,993.3622)" />
    <g
       id="g3038"
       transform="translate(-50.335,1008.7072)" />
    <g
       id="g3041"
       transform="translate(-51.97,1003.7612)" />
    <g
       id="g3026"
       transform="translate(-56.532,1001.6102)" />
    <g
       id="g3811"
       transform="translate(-51.613,998.4722)" />
    <g
       id="g3073"
       transform="translate(-56,1004.3622)" />
    <g
       id="g3043"
       transform="translate(-63.962,1002.1302)" />
    <path
       style="opacity:0.20000000000000001;fill:url(#linearGradient3912);fill-opacity:1;stroke:none"
       d="M 27.90625 45.90625 C 31.63164 45.886675 35.450151 45.903225 37.875 45.65625 C 39.5625 45.484375 40.953125 45.230469 42.125 44.84375 C 43.296875 44.457031 44.25 43.9375 45 43.25 C 45.75 42.5625 46.328125 41.699219 46.75 40.625 C 47.171875 39.550781 47.4375 38.265625 47.625 36.71875 C 47.914305 34.331983 47.891142 30.678418 47.90625 26.90625 L 32 11 L 22 12 L 19 16 L 19 21 L 25 27 L 19 28 L 17 33 L 17 35 L 27.90625 45.90625 z "
       id="rect3898"
       transform="translate(0,1004.3622)" />
    <g
       id="g3057"
       transform="translate(-0.001,1004.3572)">
      <g
         clip-path="url(#clipPath-967501542)"
         id="g3059">
        <!-- color: #5f9af3 -->
        <g
           id="g3061">
          <path
             style="fill:#ffffff;fill-opacity:1;fill-rule:nonzero;stroke:none"
             inkscape:connector-curvature="0"
             d="m 27.961,12.227 c 0.191,0.16 0.414,0.379 0.672,0.648 0.258,0.25 0.504,0.57 0.738,0.957 0.234,0.363 0.438,0.797 0.609,1.297 0.172,0.5 0.258,1.07 0.258,1.707 0,0.637 -0.078,1.191 -0.227,1.672 -0.148,0.477 -0.352,0.91 -0.609,1.297 -0.258,0.363 -0.543,0.703 -0.867,1.023 -0.32,0.293 -0.648,0.578 -0.992,0.852 -0.215,0.227 -0.418,0.465 -0.609,0.715 -0.191,0.254 -0.289,0.57 -0.289,0.957 0,0.387 0.098,0.695 0.289,0.922 0.191,0.203 0.375,0.387 0.547,0.547 l 1.152,0.953 c 0.344,0.32 0.672,0.637 0.996,0.957 0.34,0.316 0.629,0.66 0.863,1.023 0.258,0.363 0.461,0.773 0.609,1.227 0.148,0.457 0.227,0.98 0.227,1.57 0,0.797 -0.184,1.582 -0.547,2.355 -0.363,0.773 -0.898,1.457 -1.602,2.047 -0.707,0.613 -1.594,1.102 -2.664,1.469 C 25.468,36.809 24.261,37 22.894,37 c -1.156,0 -2.172,-0.137 -3.047,-0.41 -0.855,-0.273 -1.57,-0.637 -2.148,-1.09 -0.578,-0.457 -1,-0.98 -1.281,-1.57 C 16.141,33.36 16,32.758 16,32.121 c 0,-0.613 0.184,-1.32 0.547,-2.117 0.34,-0.773 0.98,-1.453 1.922,-2.047 0.492,-0.316 1.016,-0.578 1.57,-0.785 0.578,-0.18 1.145,-0.328 1.699,-0.441 0.559,-0.113 1.082,-0.195 1.574,-0.238 0.488,-0.047 0.918,-0.082 1.281,-0.105 -0.234,-0.316 -0.461,-0.648 -0.676,-0.988 -0.191,-0.363 -0.285,-0.809 -0.285,-1.332 0,-0.293 0.031,-0.531 0.094,-0.715 0.066,-0.203 0.141,-0.41 0.227,-0.613 -0.172,0.023 -0.344,0.043 -0.516,0.066 -0.168,0 -0.34,0 -0.512,0 -0.855,0 -1.613,-0.148 -2.277,-0.441 -0.66,-0.313 -1.219,-0.727 -1.668,-1.227 -0.449,-0.5 -0.789,-1.066 -1.023,-1.703 -0.234,-0.66 -0.355,-1.32 -0.355,-1.98 0,-0.797 0.172,-1.594 0.516,-2.391 0.34,-0.816 0.855,-1.547 1.539,-2.184 0.918,-0.793 1.879,-1.309 2.887,-1.535 1.023,-0.23 1.977,-0.34 2.852,-0.34 l 6.605,0 -2.051,1.227 -1.988,0 m -3.527,9.625 c 0.406,0 0.801,-0.094 1.188,-0.27 0.402,-0.188 0.734,-0.41 0.992,-0.688 0.363,-0.387 0.586,-0.82 0.672,-1.297 0.086,-0.48 0.129,-0.875 0.129,-1.195 0,-0.609 -0.086,-1.285 -0.254,-2.01 -0.172,-0.727 -0.43,-1.41 -0.77,-2.047 -0.344,-0.637 -0.77,-1.16 -1.285,-1.57 -0.492,-0.43 -1.066,-0.648 -1.727,-0.648 -0.434,0 -0.848,0.102 -1.25,0.309 -0.406,0.203 -0.738,0.477 -0.996,0.82 -0.277,0.363 -0.473,0.762 -0.574,1.191 -0.086,0.434 -0.129,0.875 -0.129,1.332 0,0.566 0.074,1.207 0.223,1.91 0.172,0.707 0.418,1.363 0.738,1.98 0.344,0.613 0.758,1.137 1.25,1.566 0.512,0.41 1.113,0.617 1.797,0.617 m 4.746,10.03 c 0,-0.438 -0.074,-0.832 -0.23,-1.195 -0.129,-0.34 -0.332,-0.684 -0.602,-1.02 -0.277,-0.344 -0.648,-0.695 -1.09,-1.063 -0.449,-0.363 -0.98,-0.77 -1.57,-1.227 -0.129,-0.023 -0.246,-0.035 -0.352,-0.035 -0.094,0 -0.223,0 -0.395,0 -0.063,0 -0.215,0 -0.449,0 -0.227,0.02 -0.512,0.047 -0.832,0.063 -0.313,0.055 -0.656,0.105 -1.02,0.18 -0.363,0.09 -0.715,0.188 -1.066,0.309 -0.172,0.066 -0.414,0.168 -0.73,0.305 -0.297,0.16 -0.605,0.375 -0.898,0.648 -0.301,0.27 -0.563,0.617 -0.805,1.02 -0.211,0.41 -0.32,0.922 -0.32,1.535 0,1.23 0.504,2.23 1.508,3 1.027,0.773 2.406,1.16 4.141,1.16 1.539,0 2.703,-0.352 3.496,-1.059 0.813,-0.684 1.219,-1.563 1.219,-2.625"
             id="path3063" />
        </g>
      </g>
    </g>
  </g>
</svg>
