<?xml version="1.0" encoding="UTF-8" standalone="no"?>
<!-- Created with Inkscape (http://www.inkscape.org/) -->

<svg
   xmlns:dc="http://purl.org/dc/elements/1.1/"
   xmlns:cc="http://creativecommons.org/ns#"
   xmlns:rdf="http://www.w3.org/1999/02/22-rdf-syntax-ns#"
   xmlns:svg="http://www.w3.org/2000/svg"
   xmlns="http://www.w3.org/2000/svg"
   xmlns:sodipodi="http://sodipodi.sourceforge.net/DTD/sodipodi-0.dtd"
   xmlns:inkscape="http://www.inkscape.org/namespaces/inkscape"
   width="48"
   height="48"
   id="svg2"
   version="1.1"
   inkscape:version="0.48.4 r9939"
   sodipodi:docname="chrome-aiahmijlpehemcpleichkcokhegllfjl-Default.svg">
  <defs
     id="defs4" />
  <sodipodi:namedview
     id="base"
     pagecolor="#ffffff"
     bordercolor="#666666"
     borderopacity="1.0"
     inkscape:pageopacity="0.0"
     inkscape:pageshadow="2"
     inkscape:zoom="11.583333"
     inkscape:cx="10.313285"
     inkscape:cy="18.327236"
     inkscape:document-units="px"
     inkscape:current-layer="layer1"
     showgrid="true"
     inkscape:snap-bbox="true"
     inkscape:window-width="1301"
     inkscape:window-height="744"
     inkscape:window-x="65"
     inkscape:window-y="24"
     inkscape:window-maximized="1"
     inkscape:snap-global="true"
     inkscape:object-nodes="true"
     inkscape:snap-nodes="false">
    <inkscape:grid
       type="xygrid"
       id="grid2985"
       empspacing="6"
       visible="true"
       enabled="true"
       snapvisiblegridlinesonly="true" />
  </sodipodi:namedview>
  <metadata
     id="metadata7">
    <rdf:RDF>
      <cc:Work
         rdf:about="">
        <dc:format>image/svg+xml</dc:format>
        <dc:type
           rdf:resource="http://purl.org/dc/dcmitype/StillImage" />
        <dc:title />
      </cc:Work>
    </rdf:RDF>
  </metadata>
  <g
     inkscape:label="Layer 1"
     inkscape:groupmode="layer"
     id="layer1"
     transform="translate(0,-1004.3622)">
    <path
       style="fill:#7ac21c;fill-opacity:1;stroke:none"
       d="M 24 2 C 5.6607939 2 1.3640144 2.1840904 0.34375 12 C 0.028823257 15.029893 0 18.810939 0 24 C 0 46 0 46 24 46 C 48 46 48 46 48 24 C 48 18.810939 47.971177 15.029893 47.65625 12 C 46.635986 2.1840904 42.339206 2 24 2 z "
       transform="translate(0,1004.3622)"
       id="path3773" />
    <path
       style="fill:#000000;fill-opacity:1;stroke:none;opacity:0.20000000000000001"
       d="M 24 2 C 2.7284685 2 0.33742495 2.0888436 0.0625 17.40625 C 0.390625 3.0029297 3 3 24 3 C 45 3 47.609375 3.0029297 47.9375 17.40625 C 47.662575 2.0888436 45.271532 2 24 2 z "
       transform="translate(0,1004.3622)"
       id="path3770" />
    <path
       style="fill:#000000;fill-opacity:1;stroke:none;opacity:0.20000000000000001"
       d="M 24 2 C 7.2405624 2 2.2369698 2.0788791 0.71875 9.59375 C 2.3300781 2.5289866 7.5 2.53125 24 2.53125 C 40.5 2.53125 45.669922 2.5289866 47.28125 9.59375 C 45.76303 2.0788791 40.759438 2 24 2 z M 47.28125 9.59375 C 47.354492 9.9148756 47.409424 10.242768 47.46875 10.59375 C 47.41561 10.240351 47.346891 9.9186608 47.28125 9.59375 z M 0.71875 9.59375 C 0.65310868 9.9186608 0.58439008 10.240351 0.53125 10.59375 C 0.59057617 10.242768 0.64550781 9.9148756 0.71875 9.59375 z "
       transform="translate(0,1004.3622)"
       id="path3012" />
    <g
       id="g3032"
       transform="translate(48,1007.3622)" />
    <g
       id="g3042"
       transform="translate(-49.875,1002.6422)" />
    <g
       id="g3038"
       transform="translate(-53.998,1003.3622)" />
    <path
       sodipodi:nodetypes="ccccccccc"
       inkscape:connector-curvature="0"
       id="path3942"
       d="m 13.154701,1023.3622 0,13 c 0,14 24,14 24,0 l 0,-13 c 1,-3 2,-6 0,-9 -3,1 -5,3 -6,6 -4,-1 -8,-1 -12,0 -1,-3 -3,-5 -6,-6 -2,3 -1,6 0,9 z"
       style="fill:#000000;fill-opacity:1;stroke:none;opacity:0.1" />
    <path
       style="fill:#548514;fill-opacity:1;stroke:none"
       d="m 12,1022.3622 0,13 c 0,14 24,14 24,0 l 0,-13 c 1,-3 2,-6 0,-9 -3,1 -5,3 -6,6 -4,-1 -8,-1 -12,0 -1,-3 -3,-5 -6,-6 -2,3 -1,6 0,9 z"
       id="rect3929"
       inkscape:connector-curvature="0"
       sodipodi:nodetypes="ccccccccc" />
    <path
       sodipodi:type="arc"
       style="fill:#ffffff;fill-opacity:1;stroke:none"
       id="path3919"
       sodipodi:cx="16.5"
       sodipodi:cy="28.5"
       sodipodi:rx="4.5"
       sodipodi:ry="4.5"
       d="m 21,28.5 a 4.5,4.5 0 1 1 -9,0 4.5,4.5 0 1 1 9,0 z"
       transform="matrix(1.2222222,0,0,1.2222228,-2.6666667,991.02885)" />
    <path
       transform="matrix(1.2222223,0,0,1.2222225,10.333332,991.02886)"
       d="m 21,28.5 a 4.5,4.5 0 1 1 -9,0 4.5,4.5 0 1 1 9,0 z"
       sodipodi:ry="4.5"
       sodipodi:rx="4.5"
       sodipodi:cy="28.5"
       sodipodi:cx="16.5"
       id="path3921"
       style="fill:#ffffff;fill-opacity:1;stroke:none"
       sodipodi:type="arc" />
    <path
       sodipodi:type="arc"
       style="fill:#212121;fill-opacity:1;stroke:none"
       id="path3923"
       sodipodi:cx="16.5"
       sodipodi:cy="28.5"
       sodipodi:rx="4.5"
       sodipodi:ry="4.5"
       d="m 21,28.5 a 4.5,4.5 0 1 1 -9,0 4.5,4.5 0 1 1 9,0 z"
       transform="matrix(0.55555554,0,0,0.55555489,21.333333,1010.0289)" />
    <path
       transform="matrix(0.55555556,0,0,0.55555489,8.3333333,1010.0289)"
       d="m 21,28.5 a 4.5,4.5 0 1 1 -9,0 4.5,4.5 0 1 1 9,0 z"
       sodipodi:ry="4.5"
       sodipodi:rx="4.5"
       sodipodi:cy="28.5"
       sodipodi:cx="16.5"
       id="path3925"
       style="fill:#212121;fill-opacity:1;stroke:none"
       sodipodi:type="arc" />
    <path
       style="fill:#ffd600;fill-opacity:1;stroke:none"
       d="m 21,27 1,2 2,4 2,-4 1,-2 -3,-3 z"
       transform="translate(0,1004.3622)"
       id="rect3932"
       inkscape:connector-curvature="0"
       sodipodi:nodetypes="ccccccc" />
    <path
       style="fill:#ffd600;fill-opacity:1;stroke:none"
       d="m 20.25,1031.9872 c -0.156544,0.2787 -0.25,0.5807 -0.25,0.8946 0,1.1757 1.198408,2.1577 2.84375,2.4804 l -1.6875,-2.1958 -0.90625,-1.1792 z m 7.5,0 -0.90625,1.1792 -1.6875,2.1958 C 26.801592,1035.0395 28,1034.0575 28,1032.8818 c 0,-0.3139 -0.09346,-0.6159 -0.25,-0.8946 z"
       id="path3935"
       inkscape:connector-curvature="0" />
  </g>
</svg>
