<?xml version="1.0" encoding="UTF-8" standalone="no"?>
<!-- Created with Inkscape (http://www.inkscape.org/) -->

<svg
   xmlns:dc="http://purl.org/dc/elements/1.1/"
   xmlns:cc="http://creativecommons.org/ns#"
   xmlns:rdf="http://www.w3.org/1999/02/22-rdf-syntax-ns#"
   xmlns:svg="http://www.w3.org/2000/svg"
   xmlns="http://www.w3.org/2000/svg"
   xmlns:xlink="http://www.w3.org/1999/xlink"
   xmlns:sodipodi="http://sodipodi.sourceforge.net/DTD/sodipodi-0.dtd"
   xmlns:inkscape="http://www.inkscape.org/namespaces/inkscape"
   width="48"
   height="48"
   id="svg2"
   version="1.1"
   inkscape:version="0.48.4 r9939"
   sodipodi:docname="winecfg.svg">
  <defs
     id="defs4">
    <linearGradient
       id="linearGradient3782">
      <stop
         style="stop-color:#000000;stop-opacity:1;"
         offset="0"
         id="stop3784" />
      <stop
         style="stop-color:#ffffff;stop-opacity:1;"
         offset="1"
         id="stop3786" />
    </linearGradient>
    <linearGradient
       inkscape:collect="always"
       xlink:href="#linearGradient3782"
       id="linearGradient3788"
       x1="24"
       y1="46"
       x2="24"
       y2="2"
       gradientUnits="userSpaceOnUse"
       gradientTransform="translate(0,1004.3622)" />
    <linearGradient
       inkscape:collect="always"
       xlink:href="#linearGradient3782"
       id="linearGradient3856"
       gradientUnits="userSpaceOnUse"
       gradientTransform="translate(-40,1004.3622)"
       spreadMethod="repeat"
       x1="24"
       y1="24"
       x2="46"
       y2="2" />
    <linearGradient
       inkscape:collect="always"
       xlink:href="#linearGradient3782"
       id="linearGradient3858"
       gradientUnits="userSpaceOnUse"
       gradientTransform="translate(-40,1004.3622)"
       spreadMethod="repeat"
       x1="24"
       y1="24"
       x2="2"
       y2="2" />
  </defs>
  <sodipodi:namedview
     id="base"
     pagecolor="#ffffff"
     bordercolor="#666666"
     borderopacity="1.0"
     inkscape:pageopacity="0.0"
     inkscape:pageshadow="2"
     inkscape:zoom="11.583333"
     inkscape:cx="21.840114"
     inkscape:cy="20.410812"
     inkscape:document-units="px"
     inkscape:current-layer="layer1"
     showgrid="true"
     inkscape:snap-bbox="true"
     inkscape:window-width="1301"
     inkscape:window-height="744"
     inkscape:window-x="65"
     inkscape:window-y="24"
     inkscape:window-maximized="1">
    <inkscape:grid
       type="xygrid"
       id="grid2985"
       empspacing="6"
       visible="true"
       enabled="true"
       snapvisiblegridlinesonly="true" />
  </sodipodi:namedview>
  <metadata
     id="metadata7">
    <rdf:RDF>
      <cc:Work
         rdf:about="">
        <dc:format>image/svg+xml</dc:format>
        <dc:type
           rdf:resource="http://purl.org/dc/dcmitype/StillImage" />
        <dc:title />
      </cc:Work>
    </rdf:RDF>
  </metadata>
  <g
     inkscape:label="Layer 1"
     inkscape:groupmode="layer"
     id="layer1"
     transform="translate(0,-1004.3622)">
    <path
       id="path3788"
       d="m 24,1051.1116 c -21.2715315,0 -23.66257505,-0.089 -23.9375,-15.4063 0.328125,14.4033 2.9375,14.4063 23.9375,14.4063 21,0 23.609375,0 23.9375,-14.4063 -0.274925,15.3174 -2.665968,15.4063 -23.9375,15.4063 z"
       style="opacity:0.20000000000000001;fill:#ffffff;fill-opacity:1;stroke:none"
       inkscape:connector-curvature="0" />
    <path
       id="path3771"
       d="m 0,1028.3622 c 0,5.5 0,9.625 0.375,12.7187 0.1875,1.5469 0.453125,2.8321 0.875,3.9063 0.421875,1.0742 1,1.9375 1.75,2.625 0.75,0.6875 1.703125,1.207 2.875,1.5937 1.171875,0.3868 2.5625,0.6407 4.25,0.8125 3.375,0.3438 7.875,0.3438 13.875,0.3438 l 0,-22 -24,0 z"
       style="fill:#00abec;fill-opacity:1;stroke:none"
       inkscape:connector-curvature="0" />
    <path
       inkscape:connector-curvature="0"
       style="fill:#ff5722;fill-opacity:1;stroke:none"
       d="m 0,1028.3622 c 0,-5.5 0,-9.625 0.375,-12.7188 0.1875,-1.5468 0.453125,-2.832 0.875,-3.9062 0.421875,-1.0742 1,-1.9375 1.75,-2.625 0.75,-0.6875 1.703125,-1.207 2.875,-1.5938 1.171875,-0.3867 2.5625,-0.6406 4.25,-0.8125 3.375,-0.3437 7.875,-0.3437 13.875,-0.3437 l 0,22 -24,0 z"
       id="path3769" />
    <path
       id="path3767"
       d="m 48,1028.3622 c 0,5.5 0,9.625 -0.375,12.7188 -0.1875,1.5468 -0.453125,2.832 -0.875,3.9062 -0.421875,1.0742 -1,1.9375 -1.75,2.625 -0.75,0.6875 -1.703125,1.207 -2.875,1.5938 -1.171875,0.3867 -2.5625,0.6406 -4.25,0.8125 -3.375,0.3437 -7.875,0.3437 -13.875,0.3437 l 0,-22 24,0 z"
       style="fill:#fbb909;fill-opacity:1;stroke:none"
       inkscape:connector-curvature="0" />
    <path
       style="opacity:1;fill:#7fcc28;fill-opacity:1;stroke:none;stroke-width:4;stroke-linecap:butt;stroke-linejoin:miter;stroke-miterlimit:4;stroke-opacity:1;stroke-dasharray:none;stroke-dashoffset:0"
       d="M 48 24 C 48 18.5 48 14.375 47.625 11.28125 C 47.4375 9.734375 47.171875 8.4492188 46.75 7.375 C 46.328125 6.3007812 45.75 5.4375 45 4.75 C 44.25 4.0625 43.296875 3.5429688 42.125 3.15625 C 40.953125 2.7695312 39.5625 2.515625 37.875 2.34375 C 34.5 2 30 2 24 2 L 24 24 L 48 24 z "
       id="path3765"
       transform="translate(0,1004.3622)" />
    <path
       style="opacity:0.12345677;fill:url(#linearGradient3788);fill-opacity:1;stroke:none"
       d="m 24,1006.3622 c -6,0 -10.5,10e-5 -13.875,0.3438 -1.6875,0.1719 -3.078125,0.4257 -4.25,0.8125 -1.171875,0.3868 -2.125,0.9062 -2.875,1.5937 -0.75,0.6875 -1.328125,1.5508 -1.75,2.625 -0.421875,1.0742 -0.6875,2.3595 -0.875,3.9063 C 0,1018.7373 0,1022.8622 0,1028.3622 c 0,5.5 0,9.6251 0.375,12.7188 0.1875,1.5469 0.453125,2.832 0.875,3.9062 0.421875,1.0742 1,1.9375 1.75,2.625 0.75,0.6875 1.703125,1.2071 2.875,1.5938 1.171875,0.3868 2.5625,0.6407 4.25,0.8125 3.375,0.3438 7.875,0.3437 13.875,0.3437 6,0 10.5,0 13.875,-0.3437 1.6875,-0.1719 3.078125,-0.4258 4.25,-0.8125 1.171875,-0.3868 2.125,-0.9063 2.875,-1.5938 0.75,-0.6875 1.328125,-1.5508 1.75,-2.625 0.421875,-1.0742 0.6875,-2.3594 0.875,-3.9062 0.375,-3.0938 0.375,-7.2188 0.375,-12.7188 0,-5.5 0,-9.625 -0.375,-12.7187 -0.1875,-1.5469 -0.453125,-2.8321 -0.875,-3.9063 -0.421875,-1.0742 -1,-1.9375 -1.75,-2.625 -0.75,-0.6875 -1.703125,-1.207 -2.875,-1.5937 -1.171875,-0.3868 -2.5625,-0.6407 -4.25,-0.8125 C 34.5,1006.3622 30,1006.3622 24,1006.3622 z"
       id="path3773"
       inkscape:connector-curvature="0" />
    <g
       id="g3000"
       transform="translate(40,0)">
      <path
         style="opacity:0.05;fill:url(#linearGradient3856);fill-opacity:1;stroke:none"
         d="m -16,1006.3622 c -6,0 -10.5,10e-5 -13.875,0.3438 -1.6875,0.1719 -3.078125,0.4257 -4.25,0.8125 -1.171875,0.3868 -2.125,0.9062 -2.875,1.5937 -0.75,0.6875 -1.328125,1.5508 -1.75,2.625 -0.421875,1.0742 -0.6875,2.3595 -0.875,3.9063 -0.375,3.0938 -0.375,7.2187 -0.375,12.7187 0,5.5 0,9.6251 0.375,12.7188 0.1875,1.5469 0.453125,2.832 0.875,3.9062 0.421875,1.0742 1,1.9375 1.75,2.625 0.75,0.6875 1.703125,1.2071 2.875,1.5938 1.171875,0.3868 2.5625,0.6407 4.25,0.8125 3.375,0.3438 7.875,0.3437 13.875,0.3437 6,0 10.5,0 13.875,-0.3437 1.6875,-0.1719 3.078125,-0.4258 4.25,-0.8125 1.171875,-0.3868 2.125,-0.9063 2.875,-1.5938 0.75,-0.6875 1.328125,-1.5508 1.75,-2.625 0.421875,-1.0742 0.6875,-2.3594 0.875,-3.9062 C 8,1037.9872 8,1033.8622 8,1028.3622 c 0,-5.5 0,-9.625 -0.375,-12.7187 -0.1875,-1.5469 -0.453125,-2.8321 -0.875,-3.9063 -0.421875,-1.0742 -1,-1.9375 -1.75,-2.625 -0.75,-0.6875 -1.703125,-1.207 -2.875,-1.5937 -1.171875,-0.3868 -2.5625,-0.6407 -4.25,-0.8125 C -5.5,1006.3622 -10,1006.3622 -16,1006.3622 z"
         id="path2998"
         inkscape:connector-curvature="0" />
      <path
         inkscape:connector-curvature="0"
         id="path3772"
         d="m -16,1006.3622 c -6,0 -10.5,10e-5 -13.875,0.3438 -1.6875,0.1719 -3.078125,0.4257 -4.25,0.8125 -1.171875,0.3868 -2.125,0.9062 -2.875,1.5937 -0.75,0.6875 -1.328125,1.5508 -1.75,2.625 -0.421875,1.0742 -0.6875,2.3595 -0.875,3.9063 -0.375,3.0938 -0.375,7.2187 -0.375,12.7187 0,5.5 0,9.6251 0.375,12.7188 0.1875,1.5469 0.453125,2.832 0.875,3.9062 0.421875,1.0742 1,1.9375 1.75,2.625 0.75,0.6875 1.703125,1.2071 2.875,1.5938 1.171875,0.3868 2.5625,0.6407 4.25,0.8125 3.375,0.3438 7.875,0.3437 13.875,0.3437 6,0 10.5,0 13.875,-0.3437 1.6875,-0.1719 3.078125,-0.4258 4.25,-0.8125 1.171875,-0.3868 2.125,-0.9063 2.875,-1.5938 0.75,-0.6875 1.328125,-1.5508 1.75,-2.625 0.421875,-1.0742 0.6875,-2.3594 0.875,-3.9062 C 8,1037.9872 8,1033.8622 8,1028.3622 c 0,-5.5 0,-9.625 -0.375,-12.7187 -0.1875,-1.5469 -0.453125,-2.8321 -0.875,-3.9063 -0.421875,-1.0742 -1,-1.9375 -1.75,-2.625 -0.75,-0.6875 -1.703125,-1.207 -2.875,-1.5937 -1.171875,-0.3868 -2.5625,-0.6407 -4.25,-0.8125 C -5.5,1006.3622 -10,1006.3622 -16,1006.3622 z"
         style="opacity:0.05;fill:url(#linearGradient3858);fill-opacity:1;stroke:none" />
    </g>
    <path
       style="fill:#000000;fill-opacity:1;stroke:none;opacity:0.20000000000000001"
       d="M 24 2 C 2.7284685 2 0.33742495 2.0888436 0.0625 17.40625 C 0.390625 3.0029297 3 3 24 3 C 45 3 47.609375 3.0029297 47.9375 17.40625 C 47.662575 2.0888436 45.271532 2 24 2 z "
       transform="translate(0,1004.3622)"
       id="path3770" />
    <path
       style="fill:#503200;fill-opacity:1;stroke:none"
       d="m 30.074053,1038.99 1.010494,0.4186 c -0.124213,0.6428 -0.09992,1.2831 0.02319,1.9037 l -0.012,0.029 -1.008757,0.394 0.761081,1.8374 0.991919,-0.4346 0.02884,0.012 c 0.351802,0.5259 0.787343,0.9958 1.329752,1.3626 l -0.41856,1.0105 1.847754,0.7653 0.418559,-1.0105 c 0.642889,0.1243 1.283125,0.1 1.903837,-0.023 0.0085,-0 0.01957,0.014 0.02884,0.012 l 0.393914,1.0087 1.837354,-0.7611 -0.434749,-0.9918 0.012,-0.029 c 0.52596,-0.3518 0.995825,-0.7874 1.36257,-1.3298 l 1.010494,0.4185 0.765371,-1.8477 -1.010494,-0.4186 c 0.124213,-0.6428 0.09992,-1.2831 -0.02319,-1.9037 l 0.012,-0.029 1.008757,-0.394 -0.761081,-1.8374 -0.991919,0.4346 c -0.0055,-0.01 -0.02369,-0 -0.02884,-0.012 -0.351802,-0.5259 -0.787343,-0.9958 -1.329752,-1.3626 l 0.41856,-1.0105 -1.847754,-0.7653 -0.418559,1.0105 c -0.642889,-0.1243 -1.283125,-0.1 -1.903837,0.023 -0.0085,0 -0.01957,-0.014 -0.02884,-0.012 l -0.393914,-1.0087 -1.837354,0.7611 0.434749,0.9918 c -0.0085,0 -0.0043,0.023 -0.012,0.029 -0.52596,0.3518 -0.995825,0.7874 -1.36257,1.3298 l -1.010494,-0.4185 -0.765371,1.8477 z m 3.154317,0.2242 c 0.634039,-1.5308 2.388944,-2.2577 3.919688,-1.6236 1.530744,0.6341 2.257613,2.3889 1.623572,3.9196 -0.634039,1.5308 -2.388944,2.2577 -3.919688,1.6236 -1.530744,-0.6341 -2.257613,-2.3889 -1.623572,-3.9196 z"
       id="path3003"
       inkscape:connector-curvature="0" />
    <path
       inkscape:connector-curvature="0"
       id="path3793"
       d="m 30.085739,1014.9782 1.010494,0.4186 c -0.124213,0.6428 -0.09992,1.2831 0.02319,1.9037 l -0.012,0.029 -1.008757,0.394 0.761081,1.8374 0.991919,-0.4346 0.02884,0.012 c 0.351802,0.5259 0.787343,0.9958 1.329752,1.3626 l -0.41856,1.0105 1.847754,0.7653 0.418559,-1.0105 c 0.642889,0.1243 1.283125,0.1 1.903837,-0.023 0.0085,-0 0.01957,0.014 0.02884,0.012 l 0.393914,1.0087 1.837354,-0.7611 -0.434749,-0.9918 0.012,-0.029 c 0.52596,-0.3518 0.995825,-0.7874 1.36257,-1.3298 l 1.010494,0.4185 0.765371,-1.8477 -1.010494,-0.4186 c 0.124213,-0.6428 0.09992,-1.2831 -0.02319,-1.9037 l 0.012,-0.029 1.008757,-0.394 -0.761081,-1.8374 -0.991919,0.4346 c -0.0055,-0.01 -0.02369,-0 -0.02884,-0.012 -0.351802,-0.5259 -0.787343,-0.9958 -1.329752,-1.3626 l 0.41856,-1.0105 -1.847754,-0.7653 -0.418559,1.0105 c -0.642889,-0.1243 -1.283125,-0.1 -1.903837,0.023 -0.0085,0 -0.01957,-0.013 -0.02884,-0.012 l -0.393914,-1.0087 -1.837354,0.7611 0.434749,0.9918 c -0.0085,0 -0.0043,0.023 -0.012,0.029 -0.52596,0.3518 -0.995825,0.7874 -1.36257,1.3298 l -1.010494,-0.4185 -0.765371,1.8477 z m 3.154317,0.2242 c 0.634039,-1.5308 2.388944,-2.2577 3.919688,-1.6236 1.530744,0.6341 2.257613,2.3889 1.623572,3.9196 -0.634039,1.5308 -2.388944,2.2577 -3.919688,1.6236 -1.530744,-0.6341 -2.257613,-2.3889 -1.623572,-3.9196 z"
       style="fill:#503200;fill-opacity:1;stroke:none" />
    <path
       inkscape:connector-curvature="0"
       id="path3795"
       d="m 6.0506808,1038.99 1.0104939,0.4186 c -0.1242125,0.6428 -0.09992,1.2831 0.023188,1.9037 l -0.011999,0.029 -1.0087569,0.394 0.7610808,1.8374 0.9919189,-0.4346 0.028837,0.012 c 0.3518018,0.5259 0.7873421,0.9958 1.3297511,1.3626 l -0.4185592,1.0105 1.8477537,0.7653 0.418559,-1.0105 c 0.642889,0.1243 1.283125,0.1 1.903837,-0.023 0.0085,-0 0.01957,0.014 0.02884,0.012 l 0.393914,1.0087 1.837354,-0.7611 -0.434749,-0.9918 0.012,-0.029 c 0.52596,-0.3518 0.995825,-0.7874 1.36257,-1.3298 l 1.010494,0.4185 0.765371,-1.8477 -1.010494,-0.4186 c 0.124213,-0.6428 0.09992,-1.2831 -0.02319,-1.9037 l 0.012,-0.029 1.008757,-0.394 -0.761081,-1.8374 -0.991919,0.4346 c -0.0055,-0.01 -0.02369,-0 -0.02884,-0.012 -0.351802,-0.5259 -0.787343,-0.9958 -1.329752,-1.3626 l 0.41856,-1.0105 -1.847754,-0.7653 -0.418559,1.0105 c -0.642889,-0.1243 -1.283125,-0.1 -1.903837,0.023 -0.0085,0 -0.01957,-0.014 -0.02884,-0.012 l -0.393914,-1.0087 -1.8373541,0.7611 0.4347491,0.9918 c -0.0085,0 -0.00427,0.023 -0.011999,0.029 -0.5259603,0.3518 -0.9958252,0.7874 -1.36257,1.3298 l -1.010494,-0.4185 -0.7653715,1.8477 z m 3.1543167,0.2242 c 0.6340395,-1.5308 2.3889445,-2.2577 3.9196885,-1.6236 1.530744,0.6341 2.257613,2.3889 1.623572,3.9196 -0.634039,1.5308 -2.388944,2.2577 -3.919688,1.6236 -1.530744,-0.6341 -2.2576129,-2.3889 -1.6235725,-3.9196 z"
       style="fill:#503200;fill-opacity:1;stroke:none" />
    <path
       style="fill:#503200;fill-opacity:1;stroke:none"
       d="m 6.0623668,1014.9782 1.0104939,0.4186 c -0.1242125,0.6428 -0.09992,1.2831 0.023188,1.9037 l -0.011999,0.029 -1.0087569,0.394 0.7610808,1.8374 0.9919189,-0.4346 0.028837,0.012 c 0.3518018,0.5259 0.7873421,0.9958 1.3297511,1.3626 l -0.4185592,1.0105 1.8477537,0.7653 0.418559,-1.0105 c 0.642889,0.1243 1.283125,0.1 1.903837,-0.023 0.0085,-0 0.01957,0.014 0.02884,0.012 l 0.393914,1.0087 1.837354,-0.7611 -0.434749,-0.9918 0.012,-0.029 c 0.52596,-0.3518 0.995825,-0.7874 1.36257,-1.3298 l 1.010494,0.4185 0.765371,-1.8477 -1.010494,-0.4186 c 0.124213,-0.6428 0.09992,-1.2831 -0.02319,-1.9037 l 0.012,-0.029 1.008757,-0.394 -0.761081,-1.8374 -0.991919,0.4346 c -0.0055,-0.01 -0.02369,-0 -0.02884,-0.012 -0.351802,-0.5259 -0.787343,-0.9958 -1.329752,-1.3626 l 0.41856,-1.0105 -1.847754,-0.7653 -0.418559,1.0105 c -0.642889,-0.1243 -1.283125,-0.1 -1.903837,0.023 -0.0085,0 -0.01957,-0.013 -0.02884,-0.012 l -0.393914,-1.0087 -1.8373541,0.7611 0.4347491,0.9918 c -0.0085,0 -0.00427,0.023 -0.011999,0.029 -0.5259603,0.3518 -0.9958252,0.7874 -1.36257,1.3298 l -1.010494,-0.4185 -0.7653715,1.8477 z m 3.1543167,0.2242 c 0.6340395,-1.5308 2.3889445,-2.2577 3.9196885,-1.6236 1.530744,0.6341 2.257613,2.3889 1.623572,3.9196 -0.634039,1.5308 -2.388944,2.2577 -3.919688,1.6236 -1.530744,-0.6341 -2.2576129,-2.3889 -1.6235725,-3.9196 z"
       id="path3797"
       inkscape:connector-curvature="0" />
    <path
       sodipodi:nodetypes="ccccccccccccccccccc"
       inkscape:connector-curvature="0"
       id="path3002"
       d="m 16,1019.3622 -1,3 c 0,6.0731 3.761402,9.525 8.023026,10.3311 C 24,1033.3622 24,1034.3622 24,1035.3622 l 0,5 c 0,1 -1,2 -2,2 l -1,0 0,2 3,0 2,0 3,0 0,-2 -1,0 c -1,0 -2,-1 -2,-2 l 0,-5 c 0,-1 0,-2 1.018003,-2.6768 C 31.26271,1031.865 35,1028.4158 35,1022.3622 l -1,-3 z"
       style="fill:#000000;fill-opacity:1;stroke:none;opacity:0.2" />
    <path
       style="fill:#e6e6e6;fill-opacity:1;stroke:none"
       d="m 15,1018.3622 -1,3 c 0,6.0731 3.761402,9.525 8.023026,10.3311 C 23,1032.3622 23,1033.3622 23,1034.3622 l 0,5 c 0,1 -1,2 -2,2 l -1,0 0,2 3,0 2,0 3,0 0,-2 -1,0 c -1,0 -2,-1 -2,-2 l 0,-5 c 0,-1 0,-2 1.018003,-2.6768 C 30.26271,1030.865 34,1027.4158 34,1021.3622 l -1,-3 z"
       id="rect3860"
       inkscape:connector-curvature="0"
       sodipodi:nodetypes="ccccccccccccccccccc" />
    <path
       style="fill:#731010;fill-opacity:1;stroke:none"
       d="m 16,1024.2691 c 0.106833,0.3907 0.08725,0.8816 0.23878,1.234 0.464293,1.0799 1.114303,1.9796 1.910234,2.6995 0.795932,0.7198 1.711252,1.2598 2.706166,1.6198 0.994914,0.3599 2.069421,0.5398 3.130663,0.5398 1.061242,0 2.135749,-0.1799 3.130663,-0.5398 0.994914,-0.36 1.910235,-0.9 2.706166,-1.6198 0.795931,-0.7199 1.445942,-1.6196 1.910235,-2.6995 0.04746,-0.1103 0.03636,-0.2715 0.07959,-0.3856 -8.129266,2.8492 -9.981482,-4.0486 -15.8125,-0.8484 z"
       id="rect3869"
       inkscape:connector-curvature="0" />
  </g>
</svg>
