<?xml version="1.0" encoding="UTF-8" standalone="no"?>
<!-- Created with Inkscape (http://www.inkscape.org/) -->

<svg
   xmlns:dc="http://purl.org/dc/elements/1.1/"
   xmlns:cc="http://creativecommons.org/ns#"
   xmlns:rdf="http://www.w3.org/1999/02/22-rdf-syntax-ns#"
   xmlns:svg="http://www.w3.org/2000/svg"
   xmlns="http://www.w3.org/2000/svg"
   xmlns:xlink="http://www.w3.org/1999/xlink"
   xmlns:sodipodi="http://sodipodi.sourceforge.net/DTD/sodipodi-0.dtd"
   xmlns:inkscape="http://www.inkscape.org/namespaces/inkscape"
   width="48"
   height="48"
   id="svg2"
   version="1.1"
   inkscape:version="0.48.4 r9939"
   sodipodi:docname="chrome-khjnjifipfkgglficmipimgjpbmlbemd-Default.svg">
  <defs
     id="defs4">
    <linearGradient
       id="linearGradient3870">
      <stop
         style="stop-color:#006098;stop-opacity:1;"
         offset="0"
         id="stop3872" />
      <stop
         style="stop-color:#4f0098;stop-opacity:1;"
         offset="1"
         id="stop3874" />
    </linearGradient>
    <linearGradient
       id="linearGradient3779">
      <stop
         style="stop-color:#000000;stop-opacity:1;"
         offset="0"
         id="stop3781" />
      <stop
         style="stop-color:#ffffff;stop-opacity:1;"
         offset="1"
         id="stop3783" />
    </linearGradient>
    <linearGradient
       inkscape:collect="always"
       xlink:href="#linearGradient3779"
       id="linearGradient3794"
       gradientUnits="userSpaceOnUse"
       gradientTransform="translate(-40,0)"
       spreadMethod="repeat"
       x1="24"
       y1="1028.3622"
       x2="45"
       y2="1007.3622" />
    <linearGradient
       inkscape:collect="always"
       xlink:href="#linearGradient3779"
       id="linearGradient3796"
       gradientUnits="userSpaceOnUse"
       gradientTransform="translate(-40,0)"
       spreadMethod="repeat"
       x1="44"
       y1="1048.3622"
       x2="15"
       y2="1019.3622" />
    <linearGradient
       gradientTransform="matrix(0,-1,1,0,-1.5e-6,47.999998)"
       gradientUnits="userSpaceOnUse"
       x2="47"
       x1="1"
       id="linearGradient3764-0">
      <stop
         id="stop3015"
         stop-opacity="1"
         stop-color="#005b90" />
      <stop
         id="stop3017"
         stop-opacity="1"
         stop-color="#0067a4"
         offset="1" />
    </linearGradient>
    <linearGradient
       inkscape:collect="always"
       xlink:href="#linearGradient3870"
       id="linearGradient3876"
       x1="24"
       y1="1006.3622"
       x2="24"
       y2="1050.3622"
       gradientUnits="userSpaceOnUse" />
    <linearGradient
       inkscape:collect="always"
       xlink:href="#linearGradient3764-0"
       id="linearGradient3906"
       gradientUnits="userSpaceOnUse"
       gradientTransform="matrix(0,-1,1,0,-1.5e-6,47.999998)"
       x1="1"
       x2="47" />
    <linearGradient
       inkscape:collect="always"
       xlink:href="#linearGradient3764-0"
       id="linearGradient3910"
       gradientUnits="userSpaceOnUse"
       gradientTransform="matrix(0,-1,1,0,-66.333001,1049.5002)"
       x1="1"
       x2="47" />
  </defs>
  <sodipodi:namedview
     id="base"
     pagecolor="#ffffff"
     bordercolor="#666666"
     borderopacity="1.0"
     inkscape:pageopacity="0.0"
     inkscape:pageshadow="2"
     inkscape:zoom="4.0953267"
     inkscape:cx="-24.768041"
     inkscape:cy="19.223781"
     inkscape:document-units="px"
     inkscape:current-layer="layer1"
     showgrid="true"
     inkscape:snap-bbox="true"
     inkscape:window-width="1301"
     inkscape:window-height="744"
     inkscape:window-x="65"
     inkscape:window-y="24"
     inkscape:window-maximized="1"
     inkscape:object-nodes="true">
    <inkscape:grid
       type="xygrid"
       id="grid3003"
       empspacing="6"
       visible="true"
       enabled="true"
       snapvisiblegridlinesonly="true" />
  </sodipodi:namedview>
  <metadata
     id="metadata7">
    <rdf:RDF>
      <cc:Work
         rdf:about="">
        <dc:format>image/svg+xml</dc:format>
        <dc:type
           rdf:resource="http://purl.org/dc/dcmitype/StillImage" />
        <dc:title />
      </cc:Work>
    </rdf:RDF>
  </metadata>
  <g
     inkscape:label="Layer 1"
     inkscape:groupmode="layer"
     id="layer1"
     transform="translate(0,-1004.3622)">
    <path
       id="path3788"
       d="m 24,1051.1116 c -21.2715315,0 -23.66257505,-0.089 -23.9375,-15.4063 0.328125,14.4033 2.9375,14.4063 23.9375,14.4063 21,0 23.609375,0 23.9375,-14.4063 -0.274925,15.3174 -2.665968,15.4063 -23.9375,15.4063 z"
       style="opacity:0.20000000000000001;fill:#ffffff;fill-opacity:1;stroke:none"
       inkscape:connector-curvature="0" />
    <path
       style="fill:url(#linearGradient3876);fill-opacity:1;stroke:none"
       d="m 24,1006.3622 c -24,0 -24,0 -24,22 0,22 0,22 24,22 24,0 24,0 24,-22 0,-22 0,-22 -24,-22 z"
       id="path3757"
       inkscape:connector-curvature="0"
       sodipodi:nodetypes="zzzzz" />
    <g
       id="g3790"
       transform="translate(40,0)">
      <path
         style="opacity:0.05;fill:url(#linearGradient3794);fill-opacity:1;stroke:none"
         d="m -16,1006.3622 c -24,0 -24,0 -24,22 0,22 0,22 24,22 24,0 24,0 24,-22 0,-22 0,-22 -24,-22 z"
         id="path3777"
         inkscape:connector-curvature="0"
         sodipodi:nodetypes="zzzzz" />
      <path
         sodipodi:nodetypes="zzzzz"
         inkscape:connector-curvature="0"
         id="path3787"
         d="m -16,1006.3622 c -24,0 -24,0 -24,22 0,22 0,22 24,22 24,0 24,0 24,-22 0,-22 0,-22 -24,-22 z"
         style="opacity:0.05;fill:url(#linearGradient3796);fill-opacity:1;stroke:none" />
    </g>
    <path
       style="fill:#000000;fill-opacity:1;stroke:none;opacity:0.20000000000000001"
       d="M 24 2 C 2.7284685 2 0.33742495 2.0888436 0.0625 17.40625 C 0.390625 3.0029297 3 3 24 3 C 45 3 47.609375 3.0029297 47.9375 17.40625 C 47.662575 2.0888436 45.271532 2 24 2 z "
       transform="translate(0,1004.3622)"
       id="path3770" />
    <g
       id="g3813"
       transform="translate(-47.998,993.3622)" />
    <g
       id="g3049"
       style="opacity:0.2"
       transform="translate(0.824,1005.3712)">
      <!-- color: #0067a4 -->
      <g
         id="g3051">
        <path
           id="path3053"
           d="m 24,11.11 c 3.363,0 6.426,1.285 8.723,3.402 -1.129,-0.035 -2.246,0.637 -2.297,2.172 -0.09,3.094 3.707,3.754 1.66,9.984 l -1.695,5.156 -4.613,-13.586 c -0.07,-0.211 0.012,-0.328 0.273,-0.328 l 1.305,0 c 0.066,0 0.121,-0.063 0.121,-0.133 l 0,-0.773 c 0,-0.066 -0.055,-0.129 -0.121,-0.125 -2.473,0.109 -4.922,0.109 -7.363,0 -0.066,-0.004 -0.121,0.059 -0.121,0.125 l 0,0.773 c 0,0.07 0.055,0.133 0.121,0.133 l 1.309,0 c 0.297,0 0.379,0.094 0.445,0.281 l 1.891,5.18 -2.848,8.609 -4.684,-13.805 c -0.059,-0.172 0.008,-0.27 0.18,-0.27 l 1.492,0 c 0.066,0 0.125,-0.063 0.125,-0.133 l 0,-0.773 c 0,-0.066 -0.059,-0.129 -0.125,-0.125 -1.566,0.082 -3.137,0.098 -4.602,0.117 2.297,-3.543 6.285,-5.887 10.824,-5.887 m 11.34,6.762 c 0.992,1.824 1.555,3.918 1.555,6.141 0,4.879 -2.711,9.121 -6.711,11.316 l 4.02,-11.395 c 0.625,-1.773 1.203,-4.148 1.129,-6.066 m -7.02,18.301 c -1.352,0.48 -2.805,0.742 -4.32,0.742 -1.309,0 -2.563,-0.195 -3.75,-0.555 l 3.973,-11.387 m -5.742,10.695 c -4.359,-2.063 -7.375,-6.512 -7.375,-11.652 0,-1.91 0.41,-3.73 1.156,-5.355 M 23.997,9.893 c -7.793,0 -14.11,6.316 -14.11,14.11 0,7.789 6.316,14.11 14.11,14.11 7.789,0 14.11,-6.32 14.11,-14.11 0,-7.793 -6.32,-14.11 -14.11,-14.11 m 0,-0.891 c 8.281,0 14.996,6.715 14.996,15 0,8.277 -6.715,14.992 -14.996,14.992 -8.285,0 -15,-6.715 -15,-14.992 0,-8.285 6.715,-15 15,-15 m 0,0"
           inkscape:connector-curvature="0"
           style="fill:#000000;fill-opacity:1;fill-rule:nonzero;stroke:none" />
      </g>
    </g>
    <g
       id="g3059"
       transform="translate(-0.176,1004.3712)">
      <path
         style="fill:#ffffff;fill-opacity:1;fill-rule:nonzero;stroke:none"
         inkscape:connector-curvature="0"
         d="m 24,11.11 c 3.363,0 6.426,1.285 8.723,3.402 -1.129,-0.035 -2.246,0.637 -2.297,2.172 -0.09,3.094 3.707,3.754 1.66,9.984 l -1.695,5.156 -4.613,-13.586 c -0.07,-0.211 0.012,-0.328 0.273,-0.328 l 1.305,0 c 0.066,0 0.121,-0.063 0.121,-0.133 l 0,-0.773 c 0,-0.066 -0.055,-0.129 -0.121,-0.125 -2.473,0.109 -4.922,0.109 -7.363,0 -0.066,-0.004 -0.121,0.059 -0.121,0.125 l 0,0.773 c 0,0.07 0.055,0.133 0.121,0.133 l 1.309,0 c 0.297,0 0.379,0.094 0.445,0.281 l 1.891,5.18 -2.848,8.609 -4.684,-13.805 c -0.059,-0.172 0.008,-0.27 0.18,-0.27 l 1.492,0 c 0.066,0 0.125,-0.063 0.125,-0.133 l 0,-0.773 c 0,-0.066 -0.059,-0.129 -0.125,-0.125 -1.566,0.082 -3.137,0.098 -4.602,0.117 2.297,-3.543 6.285,-5.887 10.824,-5.887 m 11.34,6.762 c 0.992,1.824 1.555,3.918 1.555,6.141 0,4.879 -2.711,9.121 -6.711,11.316 l 4.02,-11.395 c 0.625,-1.773 1.203,-4.148 1.129,-6.066 m -7.02,18.301 c -1.352,0.48 -2.805,0.742 -4.32,0.742 -1.309,0 -2.563,-0.195 -3.75,-0.555 l 3.973,-11.387 m -5.742,10.695 c -4.359,-2.063 -7.375,-6.512 -7.375,-11.652 0,-1.91 0.41,-3.73 1.156,-5.355 M 23.997,9.893 c -7.793,0 -14.11,6.316 -14.11,14.11 0,7.789 6.316,14.11 14.11,14.11 7.789,0 14.11,-6.32 14.11,-14.11 0,-7.793 -6.32,-14.11 -14.11,-14.11 m 0,-0.891 c 8.281,0 14.996,6.715 14.996,15 0,8.277 -6.715,14.992 -14.996,14.992 -8.285,0 -15,-6.715 -15,-14.992 0,-8.285 6.715,-15 15,-15 m 0,0"
         id="path3061" />
    </g>
  </g>
</svg>
