<?xml version="1.0" encoding="UTF-8" standalone="no"?>
<!-- Created with Inkscape (http://www.inkscape.org/) -->

<svg
   xmlns:dc="http://purl.org/dc/elements/1.1/"
   xmlns:cc="http://creativecommons.org/ns#"
   xmlns:rdf="http://www.w3.org/1999/02/22-rdf-syntax-ns#"
   xmlns:svg="http://www.w3.org/2000/svg"
   xmlns="http://www.w3.org/2000/svg"
   xmlns:xlink="http://www.w3.org/1999/xlink"
   xmlns:sodipodi="http://sodipodi.sourceforge.net/DTD/sodipodi-0.dtd"
   xmlns:inkscape="http://www.inkscape.org/namespaces/inkscape"
   width="48"
   height="48"
   id="svg2"
   version="1.1"
   inkscape:version="0.48.4 r9939"
   sodipodi:docname="xonotic.svg">
  <defs
     id="defs4">
    <linearGradient
       id="linearGradient3792">
      <stop
         style="stop-color:#29b6f6;stop-opacity:1;"
         offset="0"
         id="stop3794" />
      <stop
         style="stop-color:#6dcdf9;stop-opacity:1;"
         offset="1"
         id="stop3796" />
    </linearGradient>
    <linearGradient
       id="linearGradient3791">
      <stop
         style="stop-color:#666666;stop-opacity:1;"
         offset="0"
         id="stop3793" />
      <stop
         style="stop-color:#8e8e8e;stop-opacity:1;"
         offset="1"
         id="stop3795" />
    </linearGradient>
    <linearGradient
       id="linearGradient3779">
      <stop
         style="stop-color:#000000;stop-opacity:1;"
         offset="0"
         id="stop3781" />
      <stop
         style="stop-color:#ffffff;stop-opacity:1;"
         offset="1"
         id="stop3783" />
    </linearGradient>
    <linearGradient
       inkscape:collect="always"
       xlink:href="#linearGradient3779"
       id="linearGradient3795"
       gradientUnits="userSpaceOnUse"
       gradientTransform="translate(-20,0)"
       spreadMethod="repeat"
       x1="24"
       y1="1028.3622"
       x2="45"
       y2="1007.3622" />
    <linearGradient
       inkscape:collect="always"
       xlink:href="#linearGradient3779"
       id="linearGradient3797"
       gradientUnits="userSpaceOnUse"
       gradientTransform="translate(-20,0)"
       spreadMethod="repeat"
       x1="44"
       y1="1048.3622"
       x2="15"
       y2="1019.3622" />
    <linearGradient
       inkscape:collect="always"
       xlink:href="#linearGradient3791"
       id="linearGradient3798"
       x1="24"
       y1="1050.3622"
       x2="24"
       y2="1006.3622"
       gradientUnits="userSpaceOnUse" />
    <linearGradient
       inkscape:collect="always"
       xlink:href="#linearGradient3792"
       id="linearGradient3799"
       x1="26"
       y1="1032.8622"
       x2="38"
       y2="1032.8622"
       gradientUnits="userSpaceOnUse" />
    <linearGradient
       inkscape:collect="always"
       xlink:href="#linearGradient3792"
       id="linearGradient3801"
       x1="26"
       y1="1037.8622"
       x2="38"
       y2="1037.8622"
       gradientUnits="userSpaceOnUse" />
    <linearGradient
       inkscape:collect="always"
       xlink:href="#linearGradient3792"
       id="linearGradient3803"
       x1="26"
       y1="1042.8622"
       x2="38"
       y2="1042.8622"
       gradientUnits="userSpaceOnUse" />
    <linearGradient
       inkscape:collect="always"
       xlink:href="#linearGradient3792"
       id="linearGradient3805"
       x1="12"
       y1="1042.8622"
       x2="24"
       y2="1042.8622"
       gradientUnits="userSpaceOnUse" />
    <linearGradient
       inkscape:collect="always"
       xlink:href="#linearGradient3792"
       id="linearGradient3807"
       x1="12"
       y1="1037.8622"
       x2="24"
       y2="1037.8622"
       gradientUnits="userSpaceOnUse" />
    <linearGradient
       inkscape:collect="always"
       xlink:href="#linearGradient3792"
       id="linearGradient3809"
       x1="12"
       y1="1032.8622"
       x2="24"
       y2="1032.8622"
       gradientUnits="userSpaceOnUse" />
    <linearGradient
       inkscape:collect="always"
       xlink:href="#linearGradient3792"
       id="linearGradient3811"
       x1="12"
       y1="1027.8622"
       x2="24"
       y2="1027.8622"
       gradientUnits="userSpaceOnUse" />
    <linearGradient
       inkscape:collect="always"
       xlink:href="#linearGradient3792"
       id="linearGradient3813"
       x1="12"
       y1="1022.8622"
       x2="24"
       y2="1022.8622"
       gradientUnits="userSpaceOnUse" />
    <linearGradient
       gradientTransform="matrix(0,-1,1,0,-1.5e-6,47.999998)"
       gradientUnits="userSpaceOnUse"
       x2="47"
       x1="1"
       id="linearGradient3764">
      <stop
         id="stop3029"
         stop-opacity="1"
         stop-color="#444" />
      <stop
         id="stop3031"
         stop-opacity="1"
         stop-color="#4e4e4e"
         offset="1" />
    </linearGradient>
    <linearGradient
       inkscape:collect="always"
       xlink:href="#linearGradient3764"
       id="linearGradient3153"
       gradientUnits="userSpaceOnUse"
       gradientTransform="matrix(0,-1,1,0,-1.5e-6,47.999998)"
       x1="1"
       x2="47" />
    <linearGradient
       inkscape:collect="always"
       xlink:href="#linearGradient3764"
       id="linearGradient3156"
       gradientUnits="userSpaceOnUse"
       gradientTransform="matrix(0,-1,1,0,-64.974001,1048.2322)"
       x1="1"
       x2="47" />
  </defs>
  <sodipodi:namedview
     id="base"
     pagecolor="#ffffff"
     bordercolor="#666666"
     borderopacity="1.0"
     inkscape:pageopacity="0.0"
     inkscape:pageshadow="2"
     inkscape:zoom="8.1906533"
     inkscape:cx="-27.766361"
     inkscape:cy="26.832807"
     inkscape:document-units="px"
     inkscape:current-layer="layer1"
     showgrid="true"
     inkscape:snap-bbox="true"
     inkscape:window-width="1301"
     inkscape:window-height="744"
     inkscape:window-x="65"
     inkscape:window-y="24"
     inkscape:window-maximized="1"
     inkscape:object-nodes="true">
    <inkscape:grid
       type="xygrid"
       id="grid3003"
       empspacing="6"
       visible="true"
       enabled="true"
       snapvisiblegridlinesonly="true" />
  </sodipodi:namedview>
  <metadata
     id="metadata7">
    <rdf:RDF>
      <cc:Work
         rdf:about="">
        <dc:format>image/svg+xml</dc:format>
        <dc:type
           rdf:resource="http://purl.org/dc/dcmitype/StillImage" />
        <dc:title />
      </cc:Work>
    </rdf:RDF>
  </metadata>
  <g
     inkscape:label="Layer 1"
     inkscape:groupmode="layer"
     id="layer1"
     transform="translate(0,-1004.3622)">
    <path
       id="path3788"
       d="m 24,1051.1116 c -21.2715315,0 -23.66257505,-0.089 -23.9375,-15.4063 0.328125,14.4033 2.9375,14.4063 23.9375,14.4063 21,0 23.609375,0 23.9375,-14.4063 -0.274925,15.3174 -2.665968,15.4063 -23.9375,15.4063 z"
       style="opacity:0.20000000000000001;fill:#ffffff;fill-opacity:1;stroke:none"
       inkscape:connector-curvature="0" />
    <path
       style="fill:url(#linearGradient3798);fill-opacity:1.0;stroke:none"
       d="m 24,1006.3622 c -24,0 -24,0 -24,22 0,22 0,22 24,22 24,0 24,0 24,-22 0,-22 0,-22 -24,-22 z"
       id="path3757"
       inkscape:connector-curvature="0"
       sodipodi:nodetypes="zzzzz" />
    <g
       id="g3791"
       transform="translate(20,0)">
      <path
         style="opacity:0.02999998;fill:url(#linearGradient3795);fill-opacity:1;stroke:none"
         d="m 4,1006.3622 c -24,0 -24,0 -24,22 0,22 0,22 24,22 24,0 24,0 24,-22 0,-22 0,-22 -24,-22 z"
         id="path3777"
         inkscape:connector-curvature="0"
         sodipodi:nodetypes="zzzzz" />
      <path
         sodipodi:nodetypes="zzzzz"
         inkscape:connector-curvature="0"
         id="path3787"
         d="m 4,1006.3622 c -24,0 -24,0 -24,22 0,22 0,22 24,22 24,0 24,0 24,-22 0,-22 0,-22 -24,-22 z"
         style="opacity:0.02999998;fill:url(#linearGradient3797);fill-opacity:1;stroke:none" />
    </g>
    <path
       style="fill:#000000;fill-opacity:1;stroke:none;opacity:0.20000000000000001"
       d="M 24 2 C 2.7284685 2 0.33742495 2.0888436 0.0625 17.40625 C 0.390625 3.0029297 3 3 24 3 C 45 3 47.609375 3.0029297 47.9375 17.40625 C 47.662575 2.0888436 45.271532 2 24 2 z "
       transform="translate(0,1004.3622)"
       id="path3770" />
    <g
       id="g3813"
       transform="translate(-47.998,993.3622)" />
    <g
       id="g3063"
       style="opacity:0.1"
       transform="translate(1.12,1004.8572)">
      <!-- color: #4e4e4e -->
      <g
         id="g3065">
        <path
           id="path3067"
           d="m 27.656,16.16 c -4.602,1.227 -8.141,5.34 -12.219,8.188 1.738,-0.711 3.922,-1.828 4.813,-1.906 l -2.875,3.188 2.219,-0.969 c -0.992,2.949 -2.168,5.703 -5.03,6.781 l 1.5,2.313 c 0,0 7.547,4.75 7.75,4.75 0.203,0 2.316,-1.875 2.316,-1.875 l 7.75,-5.688 c -3.859,0.105 -7.289,-0.348 -7.656,-4.781 -0.094,-0.531 0.043,-4.219 5.344,-5.906 -0.535,-0.367 -2.328,-0.121 -3.594,-0.125 -0.055,-0.5 0.254,-2.664 4.344,-2.906 -1.027,-1.055 -2.32,-1.137 -4.156,-0.563 -0.195,-0.188 -0.309,-0.168 -0.5,-0.5 m -1.063,1.594 c 0.262,0.113 0.297,0.285 0.344,0.469 -0.457,0.094 -1.102,0.313 -1.281,0.063 -0.082,-0.086 0.477,-0.402 0.941,-0.523 m 0,0"
           inkscape:connector-curvature="0"
           style="fill:#000000;fill-opacity:1;fill-rule:nonzero;stroke:none" />
        <path
           id="path3069"
           d="M 17.688,10.406 C 12.559,12.785 9,17.972 9,24 c 0,8.281 6.715,14.996 15,14.996 8.281,0 14.996,-6.715 14.996,-14.996 0,-5.953 -3.473,-11.09 -8.5,-13.5 L 30.34,10.656 C 34.309,12.883 37,17.121 37,21.996 37,28.543 32.168,33.934 25.875,34.84 L 24,38 22.125,34.84 C 15.832,33.934 11,28.543 11,21.996 11,17.07 13.746,12.797 17.781,10.59 17.754,10.531 17.715,10.465 17.687,10.402 m 0,0.004"
           inkscape:connector-curvature="0"
           style="fill:#000000;fill-opacity:1;fill-rule:nonzero;stroke:none" />
      </g>
    </g>
    <path
       id="path3077"
       d="m 27.776,1020.0172 c -4.602,1.227 -8.141,5.34 -12.219,8.188 1.738,-0.711 3.922,-1.828 4.813,-1.906 l -2.875,3.188 2.219,-0.969 c -0.992,2.949 -2.168,5.703 -5.03,6.781 l 1.5,2.313 c 0,0 7.547,4.75 7.75,4.75 0.203,0 2.316,-1.875 2.316,-1.875 l 7.75,-5.688 c -3.859,0.105 -7.289,-0.348 -7.656,-4.781 -0.094,-0.531 0.043,-4.219 5.344,-5.906 -0.535,-0.367 -2.328,-0.121 -3.594,-0.125 -0.055,-0.5 0.254,-2.664 4.344,-2.906 -1.027,-1.055 -2.32,-1.137 -4.156,-0.563 -0.195,-0.188 -0.309,-0.168 -0.5,-0.5 m -1.063,1.594 c 0.262,0.113 0.297,0.285 0.344,0.469 -0.457,0.094 -1.102,0.313 -1.281,0.063 -0.082,-0.086 0.477,-0.402 0.941,-0.523 m 0,0"
       inkscape:connector-curvature="0"
       style="fill:#fab268;fill-opacity:1;fill-rule:nonzero;stroke:none" />
    <path
       id="path3079"
       d="m 17.808,1014.2632 c -5.129,2.379 -8.688,7.566 -8.688,13.594 0,8.281 6.715,14.996 15,14.996 8.281,0 14.996,-6.715 14.996,-14.996 0,-5.953 -3.473,-11.09 -8.5,-13.5 l -0.156,0.156 c 3.969,2.227 6.66,6.465 6.66,11.34 0,6.547 -4.832,11.938 -11.125,12.844 l -1.875,3.16 -1.875,-3.16 c -6.293,-0.906 -11.125,-6.297 -11.125,-12.844 0,-4.926 2.746,-9.199 6.781,-11.406 -0.027,-0.059 -0.066,-0.125 -0.094,-0.188 m 0,0"
       inkscape:connector-curvature="0"
       style="fill:#7799b9;fill-opacity:1;fill-rule:nonzero;stroke:none" />
  </g>
</svg>
