<?xml version="1.0" encoding="UTF-8" standalone="no"?>
<!-- Created with Inkscape (http://www.inkscape.org/) -->

<svg
   xmlns:dc="http://purl.org/dc/elements/1.1/"
   xmlns:cc="http://creativecommons.org/ns#"
   xmlns:rdf="http://www.w3.org/1999/02/22-rdf-syntax-ns#"
   xmlns:svg="http://www.w3.org/2000/svg"
   xmlns="http://www.w3.org/2000/svg"
   xmlns:xlink="http://www.w3.org/1999/xlink"
   xmlns:sodipodi="http://sodipodi.sourceforge.net/DTD/sodipodi-0.dtd"
   xmlns:inkscape="http://www.inkscape.org/namespaces/inkscape"
   width="48"
   height="48"
   id="svg2"
   version="1.1"
   inkscape:version="0.48.4 r9939"
   sodipodi:docname="yad.svg">
  <defs
     id="defs4">
    <linearGradient
       id="linearGradient3775">
      <stop
         style="stop-color:#e0e0e0;stop-opacity:1;"
         offset="0"
         id="stop3777" />
      <stop
         style="stop-color:#fbf9ef;stop-opacity:1;"
         offset="1"
         id="stop3779" />
    </linearGradient>
    <linearGradient
       inkscape:collect="always"
       xlink:href="#linearGradient3775"
       id="linearGradient3781"
       x1="24"
       y1="46"
       x2="24"
       y2="2"
       gradientUnits="userSpaceOnUse" />
  </defs>
  <sodipodi:namedview
     id="base"
     pagecolor="#ffffff"
     bordercolor="#666666"
     borderopacity="1.0"
     inkscape:pageopacity="0.0"
     inkscape:pageshadow="2"
     inkscape:zoom="8.1906533"
     inkscape:cx="-9.8013811"
     inkscape:cy="18.135609"
     inkscape:document-units="px"
     inkscape:current-layer="layer1"
     showgrid="true"
     inkscape:snap-bbox="true"
     inkscape:window-width="1301"
     inkscape:window-height="744"
     inkscape:window-x="65"
     inkscape:window-y="24"
     inkscape:window-maximized="1"
     inkscape:snap-global="true"
     inkscape:object-nodes="true"
     inkscape:snap-nodes="false">
    <inkscape:grid
       type="xygrid"
       id="grid2985"
       empspacing="6"
       visible="true"
       enabled="true"
       snapvisiblegridlinesonly="true" />
  </sodipodi:namedview>
  <metadata
     id="metadata7">
    <rdf:RDF>
      <cc:Work
         rdf:about="">
        <dc:format>image/svg+xml</dc:format>
        <dc:type
           rdf:resource="http://purl.org/dc/dcmitype/StillImage" />
        <dc:title />
      </cc:Work>
    </rdf:RDF>
  </metadata>
  <g
     inkscape:label="Layer 1"
     inkscape:groupmode="layer"
     id="layer1"
     transform="translate(0,-1004.3622)">
    <path
       style="fill:url(#linearGradient3781);fill-opacity:1;stroke:none"
       d="M 24 2 C 5.6607939 2 1.3640144 2.1840904 0.34375 12 C 0.028823257 15.029893 0 18.810939 0 24 C 0 46 0 46 24 46 C 48 46 48 46 48 24 C 48 18.810939 47.971177 15.029893 47.65625 12 C 46.635986 2.1840904 42.339206 2 24 2 z "
       transform="translate(0,1004.3622)"
       id="path3773" />
    <path
       style="fill:#000000;fill-opacity:1;stroke:none;opacity:0.20000000000000001"
       d="M 24 2 C 2.7284685 2 0.33742495 2.0888436 0.0625 17.40625 C 0.390625 3.0029297 3 3 24 3 C 45 3 47.609375 3.0029297 47.9375 17.40625 C 47.662575 2.0888436 45.271532 2 24 2 z "
       transform="translate(0,1004.3622)"
       id="path3770" />
    <path
       style="fill:#000000;fill-opacity:1;stroke:none;opacity:0.20000000000000001"
       d="M 24 2 C 7.2405624 2 2.2369698 2.0788791 0.71875 9.59375 C 2.3300781 2.5289866 7.5 2.53125 24 2.53125 C 40.5 2.53125 45.669922 2.5289866 47.28125 9.59375 C 45.76303 2.0788791 40.759438 2 24 2 z M 47.28125 9.59375 C 47.354492 9.9148756 47.409424 10.242768 47.46875 10.59375 C 47.41561 10.240351 47.346891 9.9186608 47.28125 9.59375 z M 0.71875 9.59375 C 0.65310868 9.9186608 0.58439008 10.240351 0.53125 10.59375 C 0.59057617 10.242768 0.64550781 9.9148756 0.71875 9.59375 z "
       transform="translate(0,1004.3622)"
       id="path3012" />
    <g
       id="g3032"
       transform="translate(48,1007.3622)" />
    <g
       id="g3042"
       transform="translate(-49.875,1002.6422)" />
    <g
       id="g3038"
       transform="translate(-53.998,1003.3622)" />
    <path
       inkscape:connector-curvature="0"
       id="path3806"
       d="m 34.548585,1020.2216 c -2.338213,-0.1975 -4.335628,1.6524 -5.03717,3.7655 -0.667838,1.8258 -0.547367,3.8699 -0.01733,5.711 0.669206,2.1487 2.650812,4.0407 5.006559,3.9073 2.995156,0.1092 5.409603,-2.7375 5.419998,-5.6182 0.34786,-2.6087 -0.423773,-5.6919 -2.793145,-7.1378 -0.774926,-0.452 -1.683554,-0.6685 -2.578916,-0.6278 z m -24.5878131,0.4749 c 0.6062341,1.2174 2.0384621,2.286 1.2887551,3.7845 0.0092,2.6806 -0.0043,5.3613 0.0015,8.0419 -1.9511838,-0.5832 -0.494938,2.3355 0.64636,0.9899 0.947019,0.1306 2.544218,0.4728 3.009093,-0.5525 -0.617872,-0.7446 -1.281071,-1.2802 -1.135536,-2.397 -0.07211,-1.0888 -0.331992,-2.6656 0.830735,-3.2751 1.005836,0.087 2.398887,-0.4013 3.204751,0.2227 0.03633,1.669 0.0054,3.3417 0.01568,5.0121 -1.956377,-0.5721 -0.461128,2.3429 0.661274,0.9791 0.946597,0.1217 2.537445,0.4535 3.007247,-0.5537 -0.603264,-0.7006 -1.316686,-1.1494 -1.086734,-2.231 -0.111957,-2.8794 0.119224,-5.7763 0.01461,-8.6455 0.522344,-0.3445 1.723021,-0.7786 0.737321,-1.4626 -1.348709,0.4738 -2.866761,-0.3691 -4.174657,0.2441 -0.382995,0.9705 1.367657,1.5537 1.05696,2.7649 0.182378,1.2327 -0.702153,2.8962 -2.146054,2.506 -0.809522,-0.1821 -2.568368,0.3422 -2.060355,-1.1186 0,-1.0891 0,-2.1783 0,-3.2674 1.932505,0.5708 0.524051,-2.2902 -0.643064,-1.0411 -1.07597,0.01 -2.151992,-0.017 -3.2279261,-7e-4 z m 24.5878131,0.5668 c 1.596963,0.1573 2.315322,1.8503 2.414438,3.2591 0.132021,2.265 0.417055,4.7052 -0.637628,6.8055 -0.604319,1.3803 -2.66241,1.4701 -3.4321,0.1914 -1.350031,-1.8708 -0.663066,-4.2906 -0.824772,-6.4236 0.244414,-1.3434 0.431088,-3.0988 1.844724,-3.7246 0.203065,-0.074 0.419623,-0.1074 0.635338,-0.1078 z m -9.474313,7.3991 c -1.025852,-0.891 -2.139244,0.5198 -2.269717,1.505 0.2248,1.0285 1.129419,-0.9496 1.953807,-0.5205 1.653051,0.1859 1.497157,2.4088 1.043887,3.5633 -0.295096,1.4362 -1.884479,1.7517 -2.55343,2.9079 -0.981413,1.0755 -0.02068,2.6657 1.405412,2.1406 1.089711,-0.016 2.375687,0.3021 3.284335,-0.4655 0.739548,-0.7858 0.0072,-2.9728 -1.04824,-1.5154 -0.595588,1.1394 -3.46009,0.2986 -1.838264,-0.7167 1.253777,-0.9977 2.90308,-2.0119 2.992686,-3.7912 0.150455,-1.6867 -1.188696,-3.3709 -2.970476,-3.1075 z"
       style="font-size:36px;font-style:normal;font-variant:normal;font-weight:bold;font-stretch:normal;text-align:center;line-height:100%;letter-spacing:0px;word-spacing:0px;writing-mode:lr-tb;text-anchor:middle;opacity:0.1;fill:#000000;fill-opacity:1;stroke:none;font-family:DejaVu Serif;-inkscape-font-specification:DejaVu Serif Bold" />
    <path
       style="font-size:36px;font-style:normal;font-variant:normal;font-weight:bold;font-stretch:normal;text-align:center;line-height:100%;letter-spacing:0px;word-spacing:0px;writing-mode:lr-tb;text-anchor:middle;fill:#4caf50;fill-opacity:1;stroke:none;font-family:DejaVu Serif;-inkscape-font-specification:DejaVu Serif Bold"
       d="m 33.587813,1019.3622 c -2.338213,-0.1975 -4.335628,1.6524 -5.03717,3.7655 -0.667838,1.8258 -0.547367,3.8699 -0.01733,5.711 0.669206,2.1487 2.650812,4.0407 5.006559,3.9073 2.995156,0.1092 5.409603,-2.7375 5.419998,-5.6182 0.34786,-2.6087 -0.423773,-5.6919 -2.793145,-7.1378 -0.774926,-0.452 -1.683554,-0.6685 -2.578916,-0.6278 z M 9,1019.8371 c 0.606234,1.2174 2.038462,2.286 1.288755,3.7845 0.0092,2.6806 -0.0043,5.3613 0.0015,8.0419 -1.9511837,-0.5832 -0.4949381,2.3355 0.64636,0.9899 0.947019,0.1306 2.544218,0.4728 3.009093,-0.5525 -0.617872,-0.7446 -1.281071,-1.2802 -1.135536,-2.397 -0.07211,-1.0888 -0.331992,-2.6656 0.830735,-3.2751 1.005836,0.087 2.398887,-0.4013 3.204751,0.2227 0.03633,1.669 0.0054,3.3417 0.01568,5.0121 -1.956377,-0.5721 -0.461128,2.3429 0.661274,0.9791 0.946597,0.1217 2.537445,0.4535 3.007247,-0.5537 -0.603264,-0.7006 -1.316686,-1.1494 -1.086734,-2.231 -0.111957,-2.8794 0.119224,-5.7763 0.01461,-8.6455 0.522344,-0.3445 1.723021,-0.7786 0.737321,-1.4626 -1.348709,0.4738 -2.866761,-0.3691 -4.174657,0.2441 -0.382995,0.9705 1.367657,1.5537 1.05696,2.7649 0.182378,1.2327 -0.702153,2.8962 -2.146054,2.506 -0.809522,-0.1821 -2.568368,0.3422 -2.060355,-1.1186 0,-1.0891 0,-2.1783 0,-3.2674 1.932505,0.5708 0.524051,-2.2902 -0.643064,-1.0411 -1.07597,0.01 -2.151992,-0.017 -3.227926,-7e-4 z m 24.587813,0.5668 c 1.596963,0.1573 2.315322,1.8503 2.414438,3.2591 0.132021,2.265 0.417055,4.7052 -0.637628,6.8055 -0.604319,1.3803 -2.66241,1.4701 -3.4321,0.1914 -1.350031,-1.8708 -0.663066,-4.2906 -0.824772,-6.4236 0.244414,-1.3434 0.431088,-3.0988 1.844724,-3.7246 0.203065,-0.074 0.419623,-0.1074 0.635338,-0.1078 z m -9.474313,7.3991 c -1.025852,-0.891 -2.139244,0.5198 -2.269717,1.505 0.2248,1.0285 1.129419,-0.9496 1.953807,-0.5205 1.653051,0.1859 1.497157,2.4088 1.043887,3.5633 -0.295096,1.4362 -1.884479,1.7517 -2.55343,2.9079 -0.981413,1.0755 -0.02068,2.6657 1.405412,2.1406 1.089711,-0.016 2.375687,0.3021 3.284335,-0.4655 0.739548,-0.7858 0.0072,-2.9728 -1.04824,-1.5154 -0.595588,1.1394 -3.46009,0.2986 -1.838264,-0.7167 1.253777,-0.9977 2.90308,-2.0119 2.992686,-3.7912 0.150455,-1.6867 -1.188696,-3.3709 -2.970476,-3.1075 z"
       id="path3788"
       inkscape:connector-curvature="0" />
  </g>
</svg>
