<?xml version="1.0" encoding="UTF-8" standalone="no"?>
<!-- Created with Inkscape (http://www.inkscape.org/) -->

<svg
   xmlns:dc="http://purl.org/dc/elements/1.1/"
   xmlns:cc="http://creativecommons.org/ns#"
   xmlns:rdf="http://www.w3.org/1999/02/22-rdf-syntax-ns#"
   xmlns:svg="http://www.w3.org/2000/svg"
   xmlns="http://www.w3.org/2000/svg"
   xmlns:xlink="http://www.w3.org/1999/xlink"
   xmlns:sodipodi="http://sodipodi.sourceforge.net/DTD/sodipodi-0.dtd"
   xmlns:inkscape="http://www.inkscape.org/namespaces/inkscape"
   width="48"
   height="48"
   id="svg2"
   version="1.1"
   inkscape:version="0.48.4 r9939"
   sodipodi:docname="yed.svg">
  <defs
     id="defs4">
    <linearGradient
       id="linearGradient3787">
      <stop
         style="stop-color:#7986cb;stop-opacity:1;"
         offset="0"
         id="stop3789" />
      <stop
         style="stop-color:#909bd4;stop-opacity:1;"
         offset="1"
         id="stop3791" />
    </linearGradient>
    <linearGradient
       id="linearGradient3763">
      <stop
         style="stop-color:#000000;stop-opacity:1;"
         offset="0"
         id="stop3765" />
      <stop
         style="stop-color:#ffffff;stop-opacity:1;"
         offset="1"
         id="stop3767" />
    </linearGradient>
    <linearGradient
       inkscape:collect="always"
       xlink:href="#linearGradient3763"
       id="linearGradient3989"
       gradientUnits="userSpaceOnUse"
       gradientTransform="translate(-40,0)"
       spreadMethod="repeat"
       x1="24"
       y1="1028.3622"
       x2="45"
       y2="1007.3622" />
    <linearGradient
       inkscape:collect="always"
       xlink:href="#linearGradient3763"
       id="linearGradient3991"
       gradientUnits="userSpaceOnUse"
       gradientTransform="translate(-40,0)"
       spreadMethod="repeat"
       x1="45"
       y1="1049.3622"
       x2="18"
       y2="1022.3622" />
    <linearGradient
       inkscape:collect="always"
       xlink:href="#linearGradient3787"
       id="linearGradient3793"
       x1="24"
       y1="1050.3622"
       x2="24"
       y2="1006.3622"
       gradientUnits="userSpaceOnUse" />
    <linearGradient
       gradientTransform="matrix(0,-1,1,0,-1.5e-6,47.999998)"
       gradientUnits="userSpaceOnUse"
       x2="47"
       x1="1"
       id="linearGradient3764-1">
      <stop
         id="stop3800"
         stop-opacity="1"
         stop-color="#739bd7" />
      <stop
         id="stop3802"
         stop-opacity="1"
         stop-color="#82a5dc"
         offset="1" />
    </linearGradient>
    <linearGradient
       inkscape:collect="always"
       xlink:href="#linearGradient3764-1"
       id="linearGradient3914"
       gradientUnits="userSpaceOnUse"
       gradientTransform="matrix(0,-1,1,0,-1.5e-6,47.999998)"
       x1="1"
       x2="47" />
    <linearGradient
       inkscape:collect="always"
       xlink:href="#linearGradient3764-1"
       id="linearGradient3917"
       gradientUnits="userSpaceOnUse"
       gradientTransform="matrix(0,-1,1,0,-53.998001,1060.3622)"
       x1="1"
       x2="47" />
  </defs>
  <sodipodi:namedview
     id="base"
     pagecolor="#ffffff"
     bordercolor="#666666"
     borderopacity="1.0"
     inkscape:pageopacity="0.0"
     inkscape:pageshadow="2"
     inkscape:zoom="8.1906533"
     inkscape:cx="14.794804"
     inkscape:cy="14.531507"
     inkscape:document-units="px"
     inkscape:current-layer="layer1"
     showgrid="true"
     inkscape:snap-bbox="true"
     inkscape:window-width="1301"
     inkscape:window-height="744"
     inkscape:window-x="65"
     inkscape:window-y="24"
     inkscape:window-maximized="1"
     inkscape:object-nodes="false"
     inkscape:snap-nodes="true">
    <inkscape:grid
       type="xygrid"
       id="grid3005"
       empspacing="6"
       visible="true"
       enabled="true"
       snapvisiblegridlinesonly="true" />
  </sodipodi:namedview>
  <metadata
     id="metadata7">
    <rdf:RDF>
      <cc:Work
         rdf:about="">
        <dc:format>image/svg+xml</dc:format>
        <dc:type
           rdf:resource="http://purl.org/dc/dcmitype/StillImage" />
        <dc:title />
      </cc:Work>
    </rdf:RDF>
  </metadata>
  <g
     inkscape:label="Layer 1"
     inkscape:groupmode="layer"
     id="layer1"
     transform="translate(0,-1004.3622)">
    <path
       id="path3788"
       d="m 24,1051.1116 c -21.2715315,0 -23.66257505,-0.089 -23.9375,-15.4063 0.328125,14.4033 2.9375,14.4063 23.9375,14.4063 21,0 23.609375,0 23.9375,-14.4063 -0.274925,15.3174 -2.665968,15.4063 -23.9375,15.4063 z"
       style="opacity:0.20000000000000001;fill:#ffffff;fill-opacity:1;stroke:none"
       inkscape:connector-curvature="0" />
    <path
       style="fill:url(#linearGradient3793);fill-opacity:1;stroke:none"
       d="m 24,1006.3622 c -24,0 -24,0 -24,22 0,22 0,22 24,22 24,0 24,0 24,-22 0,-22 0,-22 -24,-22 z"
       id="path3757"
       inkscape:connector-curvature="0"
       sodipodi:nodetypes="zzzzz" />
    <g
       id="g3969"
       transform="translate(40,0)">
      <path
         style="opacity:0.02000002;fill:url(#linearGradient3989);fill-opacity:1;stroke:none"
         d="m -16,1006.3622 c -24,0 -24,0 -24,22 0,22 0,22 24,22 24,0 24,0 24,-22 0,-22 0,-22 -24,-22 z"
         id="path3783"
         inkscape:connector-curvature="0"
         sodipodi:nodetypes="zzzzz" />
      <path
         sodipodi:nodetypes="zzzzz"
         inkscape:connector-curvature="0"
         id="path3795"
         d="m -16,1006.3622 c -24,0 -24,0 -24,22 0,22 0,22 24,22 24,0 24,0 24,-22 0,-22 0,-22 -24,-22 z"
         style="opacity:0.02000002;fill:url(#linearGradient3991);fill-opacity:1;stroke:none" />
    </g>
    <path
       style="fill:#000000;fill-opacity:1;stroke:none;opacity:0.20000000000000001"
       d="M 24 2 C 2.7284685 2 0.33742495 2.0888436 0.0625 17.40625 C 0.390625 3.0029297 3 3 24 3 C 45 3 47.609375 3.0029297 47.9375 17.40625 C 47.662575 2.0888436 45.271532 2 24 2 z "
       transform="translate(0,1004.3622)"
       id="path3770" />
    <g
       id="g3037"
       transform="translate(-46.998,1004.3622)" />
    <g
       id="g3808"
       transform="translate(-52.998,1013.3622)" />
    <g
       id="g3834"
       style="opacity:0.1"
       transform="translate(1.0011467,1004.3638)">
      <!-- color: #82a5dc -->
      <g
         id="g3836">
        <path
           id="path3838"
           d="m 21.523,13.359 c -0.719,0.797 -1.035,1.867 -1.188,2.316 -0.461,1.25 0.77,1.148 1.586,-0.148 1.281,-1.945 1.793,-0.25 1.844,5.887 0.051,5.191 -0.102,6.191 -1.176,8.285 -1.488,2.996 -3.176,4.195 -4.867,3.445 -0.922,-0.398 -1.434,-0.348 -2.098,0.102 -0.77,0.547 -0.82,0.746 -0.203,1.695 1.84,2.844 6.297,-0.148 11.52,-7.785 3.352,-4.84 4.484,-11.141 4.777,-12.08 0.254,-1.01 0.547,-2.98 -0.168,-2.98 -2.453,1.602 -4.211,12.875 -5.387,13.01 -0.125,-4.984 -0.066,-17.15 -4.645,-11.738 m 0.004,0.004"
           inkscape:connector-curvature="0"
           style="fill:#000000;fill-opacity:1;fill-rule:nonzero;stroke:none" />
      </g>
    </g>
    <path
       id="path3846"
       d="m 21.524147,1016.7228 c -0.719,0.797 -1.035,1.867 -1.188,2.316 -0.461,1.25 0.77,1.148 1.586,-0.148 1.281,-1.945 1.793,-0.25 1.844,5.887 0.051,5.191 -0.102,6.191 -1.176,8.285 -1.488,2.996 -3.176,4.195 -4.867,3.445 -0.922,-0.398 -1.434,-0.348 -2.098,0.102 -0.77,0.547 -0.82,0.746 -0.203,1.695 1.84,2.844 6.297,-0.148 11.52,-7.785 3.352,-4.84 4.484,-11.141 4.777,-12.08 0.254,-1.01 0.547,-2.98 -0.168,-2.98 -2.453,1.602 -4.211,12.875 -5.387,13.01 -0.125,-4.984 -0.066,-17.15 -4.645,-11.738 m 0.004,0"
       inkscape:connector-curvature="0"
       style="fill:#fafafa;fill-opacity:1;fill-rule:nonzero;stroke:none" />
  </g>
</svg>
