<?xml version="1.0" encoding="UTF-8" standalone="no"?>
<!-- Created with Inkscape (http://www.inkscape.org/) -->

<svg
   xmlns:dc="http://purl.org/dc/elements/1.1/"
   xmlns:cc="http://creativecommons.org/ns#"
   xmlns:rdf="http://www.w3.org/1999/02/22-rdf-syntax-ns#"
   xmlns:svg="http://www.w3.org/2000/svg"
   xmlns="http://www.w3.org/2000/svg"
   xmlns:sodipodi="http://sodipodi.sourceforge.net/DTD/sodipodi-0.dtd"
   xmlns:inkscape="http://www.inkscape.org/namespaces/inkscape"
   version="1.1"
   width="24"
   height="24"
   id="svg13094"
   inkscape:version="0.48.4 r9939"
   sodipodi:docname="folder-remote.svg"
   inkscape:export-filename="folder.png"
   inkscape:export-xdpi="90"
   inkscape:export-ydpi="90">
  <sodipodi:namedview
     pagecolor="#ffffff"
     bordercolor="#666666"
     borderopacity="1"
     objecttolerance="10"
     gridtolerance="10"
     guidetolerance="10"
     inkscape:pageopacity="0"
     inkscape:pageshadow="2"
     inkscape:window-width="1301"
     inkscape:window-height="744"
     id="namedview6"
     showgrid="true"
     inkscape:snap-bbox="true"
     inkscape:bbox-paths="true"
     inkscape:bbox-nodes="true"
     inkscape:snap-bbox-edge-midpoints="true"
     inkscape:snap-bbox-midpoints="true"
     inkscape:object-paths="true"
     inkscape:snap-intersection-paths="true"
     inkscape:object-nodes="true"
     inkscape:snap-smooth-nodes="true"
     inkscape:snap-midpoints="true"
     inkscape:snap-object-midpoints="true"
     inkscape:snap-center="true"
     inkscape:zoom="29.5"
     inkscape:cx="5.1841866"
     inkscape:cy="9.8312495"
     inkscape:window-x="65"
     inkscape:window-y="24"
     inkscape:window-maximized="1"
     inkscape:current-layer="svg13094"
     inkscape:snap-global="false">
    <inkscape:grid
       type="xygrid"
       id="grid2983"
       empspacing="5"
       visible="true"
       enabled="true"
       snapvisiblegridlinesonly="true" />
  </sodipodi:namedview>
  <defs
     id="defs7" />
  <metadata
     id="metadata13099">
    <rdf:RDF>
      <cc:Work
         rdf:about="">
        <dc:format>image/svg+xml</dc:format>
        <dc:type
           rdf:resource="http://purl.org/dc/dcmitype/StillImage" />
        <dc:title />
      </cc:Work>
    </rdf:RDF>
  </metadata>
  <path
     id="path3321"
     d="m 11.999998,2.9999991 c -4.9705612,0 -8.9999983,4.0294376 -8.9999983,8.9999999 0,4.970563 4.0294372,9.000002 8.9999983,9.000002 C 16.970561,21.000001 21,16.970562 21,11.999999 21,7.0294367 16.970561,2.9999991 11.999998,2.9999991 z m 0.124264,2.2036042 c 0.237984,0.0936 0.475895,0.1972694 0.713875,0.2908377 0.03529,0.169038 -0.161506,0.4281721 -0.211519,0.6345555 -0.207918,0.3840559 -0.06282,0.2247803 0.18508,0.2115185 0.289612,0.133274 -0.132221,0.4197529 -0.2644,0.343718 -0.172021,-0.2651943 -0.192867,-0.2653841 -0.555229,-0.079319 -0.331632,0.1709229 -0.782304,0.1542925 -0.925396,0.555235 -0.09898,0.2204836 -0.403351,0.438197 -0.449476,0.079319 C 10.557785,7.0334364 10.249624,6.7809714 10.537877,6.6313525 10.762059,6.4691226 10.626096,6.1493065 10.379241,6.076117 10.241966,5.9356211 9.8033189,5.8293334 10.141281,5.6530799 10.006518,5.6458121 9.6173572,5.8290167 9.427406,5.891038 9.041521,5.8622808 9.6536962,5.9819175 9.7975649,5.9703575 9.9275844,6.1404948 10.028544,6.3872252 10.299921,6.4198341 10.035459,6.8667607 9.7186281,6.4353646 9.4009671,6.2611954 9.1628912,6.1110563 8.9410939,6.2616516 8.7928516,6.472714 8.8508584,6.42428 8.9328903,6.3982811 9.00437,6.3933946 c 0.1201933,-0.00821 0.2352365,0.06023 0.2643989,0.1850783 0.041737,0.318018 -0.3617228,0.079768 -0.5023563,-0.05288 -0.00491,0.0055 -0.021871,-0.0059 -0.02644,0 -0.03045,0.052059 -0.061662,0.1055486 -0.079319,0.1586388 C 8.4529599,6.8997508 8.2593097,6.6916776 8.4755746,6.446274 8.6761357,6.2956141 8.7820007,6.1238703 8.7135313,5.8645983 8.7998825,5.6126999 8.9102291,6.330533 9.00437,5.8117187 9.2657552,5.7817821 9.4664084,5.5293674 9.7446838,5.5208807 9.9886135,5.5144167 10.079825,5.2362249 10.352799,5.2829222 c 0.453597,0.062854 -0.283527,0.4135572 0.158639,0.2379585 0.524506,-0.1726593 1.063455,-0.2739103 1.612824,-0.3172774 z M 15.2706,6.3669547 c 0.191974,0.07489 0.375327,0.1600185 0.581676,0.1850793 0.272476,-0.00668 0.530344,0.1291057 0.158638,0.2379574 -0.43423,-0.081028 -0.113917,0.1429255 0.05288,0.3172776 0.208492,0.025171 0.323551,-0.631572 0.528795,-0.2379582 1.181991,1.0925453 2.051665,2.5437262 2.273823,4.1510492 -0.254334,0.511049 -0.445407,-0.323352 -0.846072,-0.105758 -0.185448,-0.09067 -0.380773,-0.506773 -0.317278,-0.05288 -0.01482,0.220457 0.308485,0.306699 0.396597,0.475917 0.199738,-0.440287 0.422066,0.05236 0.370156,0.343716 -0.10624,0.257449 -0.37981,0.403523 -0.608115,0.555236 -0.330186,0.236649 -0.512966,0.498453 0.07932,0.317278 0.0215,0.35705 -0.216332,0.645113 -0.317278,0.978273 -0.250368,0.214242 -0.385362,0.517058 -0.502357,0.819634 -0.01819,0.382345 -0.06875,0.789539 0.05288,1.163351 -0.06743,0.242919 -0.414469,0.289844 -0.581675,0.475918 -0.402971,0.137009 0.313935,0.349475 0,0.502356 -0.3236,0.119053 -0.087,0.387179 -0.290838,0.555236 -0.182931,0.138786 -0.295218,0.482993 -0.555235,0.449477 -0.26633,-0.07764 -0.393986,0.264952 -0.660995,0.185078 0.01198,-0.402924 -0.08457,-0.818594 -0.237959,-1.189791 -0.191666,-0.410187 -0.233085,-0.908149 -0.02644,-1.321991 0.06211,-0.214886 -0.257001,-0.415441 -0.158639,-0.660995 0.108281,-0.263632 -0.15552,-0.387241 -0.211519,-0.581676 0.102832,-0.233523 0.143638,-0.480545 -0.105758,-0.634555 -0.258899,0.11315 -0.430093,-0.170059 -0.608115,-0.02644 -0.222972,0.329925 -0.339334,-0.182725 -0.528796,0.105758 -0.337998,0.333302 -0.7081,-0.499308 -0.925396,-0.766753 -0.04953,-0.212024 -0.310402,-0.450207 -0.07931,-0.634555 0.283015,-0.196923 -0.146347,-0.352122 0.07931,-0.581676 0.154129,-0.545348 0.593933,-0.903832 0.951834,-1.32199 0.417187,-0.1133139 0.876869,-0.2905148 1.295552,-0.1057593 0.169439,0.1439513 0.33507,0.3976753 0.502355,0.4759173 0.108485,-0.227063 0.378656,-0.231984 0.581677,-0.132199 0.211469,0.06799 0.507448,0.169356 0.687434,0 0.222343,-0.140177 0.35961,-0.3541149 0.02643,-0.4230378 -0.446041,0.1802308 -0.557167,-0.5648312 -0.872514,-0.4230369 -0.01612,0.3047245 -0.06198,0.5049995 -0.264398,0.1586389 -0.03988,-0.2308978 -0.121769,-0.4758811 -0.370157,-0.555236 -0.17452,0.048539 0.38054,0.3032228 0.105759,0.5023564 C 14.64243,9.8579529 14.793607,9.5544569 14.768228,9.4075277 14.52626,9.3771537 14.444725,8.9715314 14.186553,9.1166898 13.927581,9.1113595 13.920085,9.3646851 13.684196,9.4339684 13.642974,9.6974645 13.460337,9.8647079 13.208282,9.9363239 13.053591,9.7237732 12.818653,9.7998953 12.917444,9.4604073 12.829631,9.187809 13.149968,9.0612051 13.366919,9.0373712 c 0.338934,0.05799 -0.01878,-0.3542257 -0.105759,-0.4230377 0.239679,-0.015974 0.466743,-0.096148 0.581676,-0.3172769 -0.01355,-0.3553443 0.525967,-0.1068152 0.370157,-0.3701582 0.07588,-0.3319993 0.144456,-0.04837 0.264398,0.05288 0.250574,0.142868 0.434637,-7.141e-4 0.608116,-0.1850786 0.02769,-0.1863994 0.467808,-0.4516013 0.343718,-0.449476 -0.428764,0.2146127 -0.266708,-0.3235149 -0.132199,-0.5287961 -0.216876,-0.019274 -0.373388,0.2276844 -0.475918,0.3965971 0.06019,0.1655514 0.02779,0.530188 -0.132199,0.581675 C 14.468168,7.7522227 14.369205,7.3319338 14.160133,7.6096263 13.967676,7.855162 13.958227,7.2773349 14.001492,7.1865884 14.163626,7.0319329 14.520895,6.9929873 14.450971,6.7106719 14.684926,6.5061342 14.97435,6.4278 15.2706,6.3669547 z M 7.8938972,6.5255933 c 0.01583,-0.00127 0.011058,-2.96e-5 0.02644,0 0.2307049,4.594e-4 0.4215817,0.1471492 0.3172802,0.3965971 -0.191491,0.3425753 -0.6547038,0.4698773 -0.9518349,0.687435 0.00161,0.2917398 0.2807341,0.334156 0.5023565,0.4230369 0.1794234,0.115446 0.1140752,0.6092198 0.264399,0.1586389 0.067847,-0.2499683 0.4307251,-0.197862 0.3437165,-0.5023555 0.1341544,-0.1588123 0.202386,-0.5841015 0.4494786,-0.3172785 0.3132546,0.057846 -0.040789,0.4924276 0.3437166,0.2379582 0.2955911,-0.057956 0.07728,0.4663432 0.3172768,0.4494767 0.3032327,0.079514 0.036652,0.3768084 0.3437165,0.4494768 C 9.6929464,8.8692517 9.6164055,8.7114057 9.5860466,8.4028197 9.35943,8.4899813 9.1452278,8.5676501 8.8986108,8.5350187 8.732084,8.6263289 8.2430211,8.7921947 8.6870923,8.7465372 8.9121556,8.7559878 9.3183091,8.6629451 9.00437,8.9580565 8.9042566,9.2491855 8.4664421,9.0067819 8.3698154,9.3017741 8.2999382,9.5840014 7.8888276,9.4722842 7.8410202,9.7512499 7.7924471,10.017684 7.5678947,10.179151 7.3651027,10.332926 7.0992621,10.466937 7.2429821,10.806663 7.1800232,11.046801 7.0296522,10.878594 6.9157986,10.636642 6.6512278,10.650204 c -0.2104803,-0.03187 -0.2742692,0.201895 -0.5552376,0.158638 -0.2099584,0.141799 -0.4293495,0.272186 -0.3965946,0.555236 -0.046026,0.235489 0.05909,0.505281 0.3172777,0.502356 0.2115676,-0.138462 0.6251276,-0.616538 0.475914,0 -0.3136911,0.565511 0.438323,0.02278 0.2643998,0.502356 -0.059141,0.346568 0.4312532,0.677921 0.6081156,0.370158 0.188358,-0.124374 0.3757041,-0.464051 0.5816767,-0.185079 0.1819025,0.217602 0.4371232,0.180272 0.6874324,0.132199 0.1943069,0.01809 0.1796182,0.37328 0.290838,0.528796 0.2633717,0.01995 0.4628091,0.121558 0.5287986,0.396597 0.3331058,0.351434 0.8745936,0.479902 1.2955476,0.740315 -0.02931,0.230886 0.0027,0.490776 -0.18508,0.660995 -0.249593,0.208461 -0.108535,0.515569 -0.105758,0.793195 -0.116901,0.190054 -0.103293,0.524393 -0.396594,0.502356 -0.2294529,-0.0079 -0.4438596,0.30879 -0.2908381,0.502357 -0.1048173,0.209708 -0.1503174,0.462807 -0.2908385,0.634555 -0.3027405,7.27e-4 -0.3219573,0.260676 -0.5023563,0.423037 -0.047651,0.562855 -0.6885528,0.06498 -1.0047128,-0.158639 0.017886,-0.23725 0.089715,-0.498926 0.1321974,-0.740314 C 7.9869814,16.754289 7.9288773,16.526955 7.9732183,16.281883 8.0566666,15.979164 7.8159129,15.746769 7.6030593,15.568007 7.2994728,15.378449 7.1851132,15.050316 7.0213861,14.748373 6.8288171,14.542407 6.8817416,14.298807 6.9685065,14.060938 6.8651044,13.85095 7.1322801,13.723912 7.1535859,13.505702 7.2112628,13.332789 7.4374107,12.997079 7.1007063,13.029786 6.8684278,13.10979 6.6814877,12.845473 6.519033,12.712508 6.3735608,12.396803 5.9853229,12.466649 5.7258379,12.315911 5.4204171,12.155391 5.1339882,11.964117 5.0384021,11.602036 5.2193866,10.057611 5.8714354,8.5845115 6.9420692,7.4509866 7.1596692,6.9710571 7.7950504,7.0121331 7.8938972,6.5255933 z M 13.234739,7.107269 c 0.169636,0.0094 0.178889,0.2562556 0.264397,0.3965972 0.143504,0.2413392 0.38474,0.3712555 0.02643,0.5552359 -0.345151,0.1612304 -0.341641,-0.041035 -0.2644,-0.3172776 0.08615,-0.2521469 -0.150645,-0.3717479 -0.105759,-0.6081157 0.03175,-0.0093 0.05509,-0.027785 0.07931,-0.02644 z m -0.396598,0.3965972 c 0.01517,3.308e-4 0.03505,-0.00541 0.05288,0 0.0415,0.1749435 0.208665,0.3057499 -0.05288,0.3701573 -0.167081,0.1474757 -0.227588,-0.3751212 0,-0.3701573 z m 3.648695,3.2520958 c -0.153985,0.08249 -0.01543,0.21696 0,0.343718 0.14806,0.381245 0.457927,0.674074 0.528796,1.110472 -0.09677,0.332255 0.622471,0.569508 0.317276,0.237958 -0.145103,-0.176776 0.166439,-0.411522 -0.158638,-0.555236 -0.21885,-0.382882 -0.345272,-0.833327 -0.687434,-1.136912 z"
     style="color:#000000;fill:#bdbdbd;fill-opacity:1;fill-rule:nonzero;stroke:none;marker:none;visibility:visible;display:inline;overflow:visible;enable-background:accumulate"
     inkscape:connector-curvature="0"
     sodipodi:nodetypes="sssssccccccccccccccccccccccccccccccccccccccccccccccccccccccccccccccccccccccccccccccccccccccccccccccccccccccccccccccccccccccccccccccccccccccccccccccccsccscccccc" />
</svg>
