<?xml version="1.0" encoding="UTF-8" standalone="no"?>
<!-- Created with Inkscape (http://www.inkscape.org/) -->

<svg
   xmlns:dc="http://purl.org/dc/elements/1.1/"
   xmlns:cc="http://creativecommons.org/ns#"
   xmlns:rdf="http://www.w3.org/1999/02/22-rdf-syntax-ns#"
   xmlns:svg="http://www.w3.org/2000/svg"
   xmlns="http://www.w3.org/2000/svg"
   xmlns:xlink="http://www.w3.org/1999/xlink"
   xmlns:sodipodi="http://sodipodi.sourceforge.net/DTD/sodipodi-0.dtd"
   xmlns:inkscape="http://www.inkscape.org/namespaces/inkscape"
   width="48"
   height="48"
   id="svg2"
   version="1.1"
   inkscape:version="0.48.4 r9939"
   sodipodi:docname="meeting-attending.svg">
  <defs
     id="defs4">
    <linearGradient
       id="linearGradient3769">
      <stop
         style="stop-color:#ff5722;stop-opacity:1;"
         offset="0"
         id="stop3771" />
      <stop
         style="stop-color:#ff9c22;stop-opacity:1;"
         offset="1"
         id="stop3773" />
    </linearGradient>
    <linearGradient
       id="linearGradient3779">
      <stop
         style="stop-color:#000000;stop-opacity:1;"
         offset="0"
         id="stop3781" />
      <stop
         style="stop-color:#ffffff;stop-opacity:1;"
         offset="1"
         id="stop3783" />
    </linearGradient>
    <linearGradient
       inkscape:collect="always"
       xlink:href="#linearGradient3779"
       id="linearGradient3785"
       gradientUnits="userSpaceOnUse"
       spreadMethod="repeat"
       x1="44"
       y1="1048.3622"
       x2="15"
       y2="1019.3622" />
    <linearGradient
       inkscape:collect="always"
       xlink:href="#linearGradient3779"
       id="linearGradient3788"
       gradientUnits="userSpaceOnUse"
       spreadMethod="repeat"
       x1="24"
       y1="1028.3622"
       x2="45"
       y2="1007.3622" />
    <linearGradient
       inkscape:collect="always"
       xlink:href="#linearGradient3769"
       id="linearGradient3775"
       x1="24"
       y1="1050.3622"
       x2="24"
       y2="1006.3622"
       gradientUnits="userSpaceOnUse" />
  </defs>
  <sodipodi:namedview
     id="base"
     pagecolor="#ffffff"
     bordercolor="#666666"
     borderopacity="1.0"
     inkscape:pageopacity="0.0"
     inkscape:pageshadow="2"
     inkscape:zoom="11.583333"
     inkscape:cx="15.205119"
     inkscape:cy="21.898807"
     inkscape:document-units="px"
     inkscape:current-layer="layer1"
     showgrid="true"
     inkscape:snap-bbox="true"
     inkscape:window-width="1301"
     inkscape:window-height="744"
     inkscape:window-x="65"
     inkscape:window-y="24"
     inkscape:window-maximized="1"
     inkscape:object-nodes="true"
     inkscape:object-paths="true"
     inkscape:snap-nodes="false">
    <inkscape:grid
       type="xygrid"
       id="grid3003"
       empspacing="6"
       visible="true"
       enabled="true"
       snapvisiblegridlinesonly="true" />
  </sodipodi:namedview>
  <metadata
     id="metadata7">
    <rdf:RDF>
      <cc:Work
         rdf:about="">
        <dc:format>image/svg+xml</dc:format>
        <dc:type
           rdf:resource="http://purl.org/dc/dcmitype/StillImage" />
        <dc:title />
      </cc:Work>
    </rdf:RDF>
  </metadata>
  <g
     inkscape:label="Layer 1"
     inkscape:groupmode="layer"
     id="layer1"
     transform="translate(0,-1004.3622)">
    <path
       id="path3788"
       d="m 24,1051.1116 c -21.2715315,0 -23.66257505,-0.089 -23.9375,-15.4063 0.328125,14.4033 2.9375,14.4063 23.9375,14.4063 21,0 23.609375,0 23.9375,-14.4063 -0.274925,15.3174 -2.665968,15.4063 -23.9375,15.4063 z"
       style="opacity:0.20000000000000001;fill:#ffffff;fill-opacity:1;stroke:none"
       inkscape:connector-curvature="0" />
    <path
       style="fill:url(#linearGradient3775);fill-opacity:1;stroke:none"
       d="m 24,1006.3622 c -24,0 -24,0 -24,22 0,22 0,22 24,22 24,0 24,0 24,-22 0,-22 0,-22 -24,-22 z"
       id="path3757"
       inkscape:connector-curvature="0"
       sodipodi:nodetypes="zzzzz" />
    <g
       id="g3790">
      <path
         style="opacity:0.05;fill:url(#linearGradient3788);fill-opacity:1;stroke:none"
         d="m 24,1006.3622 c -24,0 -24,0 -24,22 0,22 0,22 24,22 24,0 24,0 24,-22 0,-22 0,-22 -24,-22 z"
         id="path3777"
         inkscape:connector-curvature="0"
         sodipodi:nodetypes="zzzzz" />
      <path
         sodipodi:nodetypes="zzzzz"
         inkscape:connector-curvature="0"
         id="path3787"
         d="m 24,1006.3622 c -24,0 -24,0 -24,22 0,22 0,22 24,22 24,0 24,0 24,-22 0,-22 0,-22 -24,-22 z"
         style="opacity:0.05;fill:url(#linearGradient3785);fill-opacity:1;stroke:none" />
    </g>
    <path
       style="fill:#000000;fill-opacity:1;stroke:none;opacity:0.20000000000000001"
       d="M 24 2 C 2.7284685 2 0.33742495 2.0888436 0.0625 17.40625 C 0.390625 3.0029297 3 3 24 3 C 45 3 47.609375 3.0029297 47.9375 17.40625 C 47.662575 2.0888436 45.271532 2 24 2 z "
       transform="translate(0,1004.3622)"
       id="path3770" />
    <g
       id="g3813"
       transform="translate(-47.998,993.3622)" />
    <g
       id="g3775"
       style="opacity:0.1;fill:#000000;fill-opacity:1"
       transform="translate(0,0.9998)">
      <path
         inkscape:connector-curvature="0"
         id="path3778"
         d="m 18.03125,1023.3642 c -0.185325,0.01 -0.364909,0.018 -0.53125,0.037 -4.163885,0.4681 -4.25,2.8483 -4.25,5.2004 0,0.3364 0.01987,0.7276 0.06641,1.1394 -0.01475,0.01 -0.02704,0.01 -0.0415,0.01 -0.418638,0.124 -0.552678,0.8814 -0.298827,1.6997 0.228465,0.7366 0.691613,1.2691 1.087402,1.2773 0.317172,0.7766 0.734776,1.4932 1.27832,2.0213 C 14.869858,1036.7484 9,1035.8468 9,1040.3622 l 17,0 c 0,-4.6213 -6.149561,-3.5698 -6.366699,-5.761 0.46771,-0.5202 0.845494,-1.1802 1.145507,-1.8836 0.415209,0.096 0.946344,-0.4653 1.195313,-1.2679 0.253852,-0.8184 0.11981,-1.5757 -0.298828,-1.6998 -0.01308,-0.01 -0.02819,-0.01 -0.0415,-0.01 0.08171,-0.4906 0.116211,-0.8934 0.116211,-1.1393 0,-1.3119 0.04694,-3.2362 -1.220215,-3.2251 0.397248,-1.6725 -1.201259,-2.0458 -2.498536,-2.0121 z"
         style="fill:#000000;fill-opacity:1;fill-rule:evenodd;stroke:none" />
      <path
         style="fill:#000000;fill-opacity:1;fill-rule:evenodd;stroke:none"
         d="m 30.15625,1019.3648 c -0.228931,0.012 -0.45077,0.022 -0.656249,0.046 -5.143624,0.5783 -5.250001,3.5185 -5.250001,6.424 0,0.4156 0.02455,0.8988 0.08204,1.4075 -0.01822,0.012 -0.0334,0.012 -0.05126,0.012 -0.517141,0.1532 -0.68272,1.0888 -0.369139,2.0996 0.282222,0.9099 0.854346,1.5677 1.343261,1.5778 0.391801,0.9594 0.907665,1.8446 1.579101,2.4969 C 26.251001,1035.8982 19,1034.7845 19,1040.3623 l 21,0 c 0,-5.7087 -7.596517,-4.4097 -7.864746,-7.1165 0.577759,-0.6426 1.044434,-1.4579 1.415038,-2.3268 0.512906,0.1186 1.169013,-0.5748 1.476564,-1.5662 0.313581,-1.011 0.148,-1.9465 -0.369141,-2.0998 -0.01616,-0.012 -0.03482,-0.012 -0.05127,-0.012 0.100936,-0.6061 0.143555,-1.1036 0.143555,-1.4074 0,-1.6206 0.05798,-3.9976 -1.507325,-3.9839 0.490718,-2.0661 -1.483908,-2.5272 -3.086426,-2.4856 z"
         id="path3780"
         inkscape:connector-curvature="0" />
    </g>
    <g
       id="g3771"
       transform="translate(-1,-10e-5)">
      <path
         style="fill:#555555;fill-opacity:1;fill-rule:evenodd;stroke:none"
         d="m 18.03125,1023.3642 c -0.185325,0.01 -0.364909,0.018 -0.53125,0.037 -4.163885,0.4681 -4.25,2.8483 -4.25,5.2004 0,0.3364 0.01987,0.7276 0.06641,1.1394 -0.01475,0.01 -0.02704,0.01 -0.0415,0.01 -0.418638,0.124 -0.552678,0.8814 -0.298827,1.6997 0.228465,0.7366 0.691613,1.2691 1.087402,1.2773 0.317172,0.7766 0.734776,1.4932 1.27832,2.0213 C 14.869858,1036.7484 9,1035.8468 9,1040.3622 l 17,0 c 0,-4.6213 -6.149561,-3.5698 -6.366699,-5.761 0.46771,-0.5202 0.845494,-1.1802 1.145507,-1.8836 0.415209,0.096 0.946344,-0.4653 1.195313,-1.2679 0.253852,-0.8184 0.11981,-1.5757 -0.298828,-1.6998 -0.01308,-0.01 -0.02819,-0.01 -0.0415,-0.01 0.08171,-0.4906 0.116211,-0.8934 0.116211,-1.1393 0,-1.3119 0.04694,-3.2362 -1.220215,-3.2251 0.397248,-1.6725 -1.201259,-2.0458 -2.498536,-2.0121 z"
         id="path3001"
         inkscape:connector-curvature="0" />
      <path
         inkscape:connector-curvature="0"
         id="rect3005"
         d="m 30.15625,1019.3648 c -0.228931,0.012 -0.45077,0.022 -0.656249,0.046 -5.143624,0.5783 -5.250001,3.5185 -5.250001,6.424 0,0.4156 0.02455,0.8988 0.08204,1.4075 -0.01822,0.012 -0.0334,0.012 -0.05126,0.012 -0.517141,0.1532 -0.68272,1.0888 -0.369139,2.0996 0.282222,0.9099 0.854346,1.5677 1.343261,1.5778 0.391801,0.9594 0.907665,1.8446 1.579101,2.4969 C 26.251001,1035.8982 19,1034.7845 19,1040.3623 l 21,0 c 0,-5.7087 -7.596517,-4.4097 -7.864746,-7.1165 0.577759,-0.6426 1.044434,-1.4579 1.415038,-2.3268 0.512906,0.1186 1.169013,-0.5748 1.476564,-1.5662 0.313581,-1.011 0.148,-1.9465 -0.369141,-2.0998 -0.01616,-0.012 -0.03482,-0.012 -0.05127,-0.012 0.100936,-0.6061 0.143555,-1.1036 0.143555,-1.4074 0,-1.6206 0.05798,-3.9976 -1.507325,-3.9839 0.490718,-2.0661 -1.483908,-2.5272 -3.086426,-2.4856 z"
         style="fill:#ffffff;fill-opacity:1;fill-rule:evenodd;stroke:none" />
    </g>
  </g>
</svg>
