<?xml version="1.0" encoding="UTF-8" standalone="no"?>
<!-- Created with Inkscape (http://www.inkscape.org/) -->

<svg
   xmlns:dc="http://purl.org/dc/elements/1.1/"
   xmlns:cc="http://creativecommons.org/ns#"
   xmlns:rdf="http://www.w3.org/1999/02/22-rdf-syntax-ns#"
   xmlns:svg="http://www.w3.org/2000/svg"
   xmlns="http://www.w3.org/2000/svg"
   xmlns:xlink="http://www.w3.org/1999/xlink"
   xmlns:sodipodi="http://sodipodi.sourceforge.net/DTD/sodipodi-0.dtd"
   xmlns:inkscape="http://www.inkscape.org/namespaces/inkscape"
   width="48"
   height="48"
   id="svg2"
   version="1.1"
   inkscape:version="0.48.4 r9939"
   sodipodi:docname="xfce-system-lock.svg">
  <defs
     id="defs4">
    <linearGradient
       id="linearGradient3775">
      <stop
         style="stop-color:#00b0ff;stop-opacity:1;"
         offset="0"
         id="stop3777" />
      <stop
         style="stop-color:#00ccff;stop-opacity:1;"
         offset="1"
         id="stop3779" />
    </linearGradient>
    <linearGradient
       id="linearGradient3779">
      <stop
         style="stop-color:#000000;stop-opacity:1;"
         offset="0"
         id="stop3781" />
      <stop
         style="stop-color:#ffffff;stop-opacity:1;"
         offset="1"
         id="stop3783" />
    </linearGradient>
    <linearGradient
       inkscape:collect="always"
       xlink:href="#linearGradient3779"
       id="linearGradient3785"
       gradientUnits="userSpaceOnUse"
       spreadMethod="repeat"
       x1="44"
       y1="1048.3622"
       x2="15"
       y2="1019.3622" />
    <linearGradient
       inkscape:collect="always"
       xlink:href="#linearGradient3779"
       id="linearGradient3788"
       gradientUnits="userSpaceOnUse"
       spreadMethod="repeat"
       x1="24"
       y1="1028.3622"
       x2="45"
       y2="1007.3622" />
    <linearGradient
       inkscape:collect="always"
       xlink:href="#linearGradient3775"
       id="linearGradient3781"
       x1="24"
       y1="1050.3622"
       x2="24"
       y2="1006.3622"
       gradientUnits="userSpaceOnUse" />
  </defs>
  <sodipodi:namedview
     id="base"
     pagecolor="#ffffff"
     bordercolor="#666666"
     borderopacity="1.0"
     inkscape:pageopacity="0.0"
     inkscape:pageshadow="2"
     inkscape:zoom="8.1906533"
     inkscape:cx="24.129931"
     inkscape:cy="16.376192"
     inkscape:document-units="px"
     inkscape:current-layer="layer1"
     showgrid="true"
     inkscape:snap-bbox="true"
     inkscape:window-width="1301"
     inkscape:window-height="744"
     inkscape:window-x="65"
     inkscape:window-y="24"
     inkscape:window-maximized="1"
     inkscape:object-nodes="true"
     inkscape:object-paths="true"
     inkscape:snap-nodes="false">
    <inkscape:grid
       type="xygrid"
       id="grid3003"
       empspacing="6"
       visible="true"
       enabled="true"
       snapvisiblegridlinesonly="true" />
  </sodipodi:namedview>
  <metadata
     id="metadata7">
    <rdf:RDF>
      <cc:Work
         rdf:about="">
        <dc:format>image/svg+xml</dc:format>
        <dc:type
           rdf:resource="http://purl.org/dc/dcmitype/StillImage" />
        <dc:title />
      </cc:Work>
    </rdf:RDF>
  </metadata>
  <g
     inkscape:label="Layer 1"
     inkscape:groupmode="layer"
     id="layer1"
     transform="translate(0,-1004.3622)">
    <path
       id="path3788"
       d="m 24,1051.1116 c -21.2715315,0 -23.66257505,-0.089 -23.9375,-15.4063 0.328125,14.4033 2.9375,14.4063 23.9375,14.4063 21,0 23.609375,0 23.9375,-14.4063 -0.274925,15.3174 -2.665968,15.4063 -23.9375,15.4063 z"
       style="opacity:0.20000000000000001;fill:#ffffff;fill-opacity:1;stroke:none"
       inkscape:connector-curvature="0" />
    <path
       style="fill:url(#linearGradient3781);fill-opacity:1;stroke:none"
       d="m 24,1006.3622 c -24,0 -24,0 -24,22 0,22 0,22 24,22 24,0 24,0 24,-22 0,-22 0,-22 -24,-22 z"
       id="path3757"
       inkscape:connector-curvature="0"
       sodipodi:nodetypes="zzzzz" />
    <g
       id="g3790">
      <path
         style="opacity:0.05;fill:url(#linearGradient3788);fill-opacity:1;stroke:none"
         d="m 24,1006.3622 c -24,0 -24,0 -24,22 0,22 0,22 24,22 24,0 24,0 24,-22 0,-22 0,-22 -24,-22 z"
         id="path3777"
         inkscape:connector-curvature="0"
         sodipodi:nodetypes="zzzzz" />
      <path
         sodipodi:nodetypes="zzzzz"
         inkscape:connector-curvature="0"
         id="path3787"
         d="m 24,1006.3622 c -24,0 -24,0 -24,22 0,22 0,22 24,22 24,0 24,0 24,-22 0,-22 0,-22 -24,-22 z"
         style="opacity:0.05;fill:url(#linearGradient3785);fill-opacity:1;stroke:none" />
    </g>
    <path
       style="fill:#000000;fill-opacity:1;stroke:none;opacity:0.20000000000000001"
       d="M 24 2 C 2.7284685 2 0.33742495 2.0888436 0.0625 17.40625 C 0.390625 3.0029297 3 3 24 3 C 45 3 47.609375 3.0029297 47.9375 17.40625 C 47.662575 2.0888436 45.271532 2 24 2 z "
       transform="translate(0,1004.3622)"
       id="path3770" />
    <g
       id="g3813"
       transform="translate(-47.998,993.3622)" />
    <path
       sodipodi:type="arc"
       style="fill:none;stroke:#ffffff;stroke-width:0.88888884000000001;stroke-miterlimit:4;stroke-opacity:1;stroke-dasharray:0.88888889000000004, 0.88888889000000004;stroke-dashoffset:0;opacity:0.57613169"
       id="path3783"
       sodipodi:cx="24"
       sodipodi:cy="24"
       sodipodi:rx="12"
       sodipodi:ry="12"
       d="m 36,24 a 12,12 0 1 1 -24,0 12,12 0 1 1 24,0 z"
       transform="matrix(1.125,0,0,1.125,-3,1001.3622)" />
    <path
       transform="matrix(1.4583333,0,0,1.4583333,-11,993.3622)"
       d="m 36,24 a 12,12 0 1 1 -24,0 12,12 0 1 1 24,0 z"
       sodipodi:ry="12"
       sodipodi:rx="12"
       sodipodi:cy="24"
       sodipodi:cx="24"
       id="path3795"
       style="fill:none;stroke:#ffffff;stroke-width:1.37142860000000000;stroke-miterlimit:4;stroke-opacity:1;stroke-dasharray:1.37142860000000000, 1.37142860000000000;stroke-dashoffset:0;opacity:0.73251029"
       sodipodi:type="arc" />
    <g
       id="g3807"
       style="opacity:0.2;fill:#000000;fill-opacity:1"
       transform="translate(0.818182,0.9008)">
      <path
         inkscape:connector-curvature="0"
         id="path3799"
         d="m 24,1020.4375 c -3.553481,0 -6.46875,2.9132 -6.46875,6.4687 l 0,1.375 2,0 0,-1.375 c 0,-2.4758 1.997307,-4.4687 4.46875,-4.4687 2.471443,0 4.46875,1.9929 4.46875,4.4687 l 0,1.375 2,0 0,-1.375 c 0,-3.5555 -2.915269,-6.4687 -6.46875,-6.4687 z"
         style="font-size:medium;font-style:normal;font-variant:normal;font-weight:normal;font-stretch:normal;text-indent:0;text-align:start;text-decoration:none;line-height:normal;letter-spacing:normal;word-spacing:normal;text-transform:none;direction:ltr;block-progression:tb;writing-mode:lr-tb;text-anchor:start;baseline-shift:baseline;color:#000000;fill:#000000;fill-opacity:1;stroke:none;stroke-width:2;marker:none;visibility:visible;display:inline;overflow:visible;enable-background:accumulate;font-family:Sans;-inkscape-font-specification:Sans" />
      <path
         style="fill:#000000;fill-opacity:1;stroke:none"
         d="m 15.946023,1026.9059 c -0.07328,0.4407 -0.127841,0.9035 -0.127841,1.365 0,4.5235 3.663125,8.1905 8.181818,8.1905 4.518693,0 8.181818,-3.667 8.181818,-8.1905 0,-0.4615 -0.05456,-0.9243 -0.127841,-1.365 l -16.107954,0 z"
         id="path3801"
         inkscape:connector-curvature="0" />
    </g>
    <g
       id="g3811">
      <path
         sodipodi:nodetypes="csc"
         inkscape:connector-curvature="0"
         id="path3790"
         d="m 18.545455,1028.2709 0,-1.365 c 0,-3.0157 2.442084,-5.4604 5.454546,-5.4604 3.012462,0 5.454545,2.4447 5.454545,5.4604 l 0,1.365"
         style="fill:none;stroke:#ffffff;stroke-width:2;stroke-linecap:butt;stroke-linejoin:round;stroke-miterlimit:4;stroke-opacity:1;stroke-dasharray:none;stroke-dashoffset:0" />
      <path
         inkscape:connector-curvature="0"
         id="path3785"
         d="m 15.946023,1026.9059 c -0.07328,0.4407 -0.127841,0.9035 -0.127841,1.365 0,4.5235 3.663125,8.1905 8.181818,8.1905 4.518693,0 8.181818,-3.667 8.181818,-8.1905 0,-0.4615 -0.05456,-0.9243 -0.127841,-1.365 l -16.107954,0 z"
         style="fill:#ff9800;fill-opacity:1;stroke:none" />
      <path
         sodipodi:type="arc"
         style="opacity:0.2;fill:#000000;fill-opacity:1;stroke:none"
         id="path3797"
         sodipodi:cx="24"
         sodipodi:cy="27"
         sodipodi:rx="2"
         sodipodi:ry="2"
         d="m 26,27 a 2,2 0 1 1 -4,0 2,2 0 1 1 4,0 z"
         transform="matrix(1.3636364,0,0,1.3650794,-7.4545464,996.7749)" />
      <path
         transform="matrix(1.3636364,0,0,1.3650794,-8.7272727,995.50903)"
         d="m 26,27 a 2,2 0 1 1 -4,0 2,2 0 1 1 4,0 z"
         sodipodi:ry="2"
         sodipodi:rx="2"
         sodipodi:cy="27"
         sodipodi:cx="24"
         id="path3793"
         style="fill:#ffffff;fill-opacity:1;stroke:none"
         sodipodi:type="arc" />
    </g>
  </g>
</svg>
