<?xml version="1.0" encoding="UTF-8" standalone="no"?>
<!-- Created with Inkscape (http://www.inkscape.org/) -->
<svg id="svg2816" xmlns:rdf="http://www.w3.org/1999/02/22-rdf-syntax-ns#" xmlns="http://www.w3.org/2000/svg" height="24" width="24" version="1.0" xmlns:cc="http://creativecommons.org/ns#" xmlns:dc="http://purl.org/dc/elements/1.1/">
 <metadata id="metadata8">
  <rdf:RDF>
   <cc:Work rdf:about="">
    <dc:format>image/svg+xml</dc:format>
    <dc:type rdf:resource="http://purl.org/dc/dcmitype/StillImage"/>
    <dc:title/>
   </cc:Work>
  </rdf:RDF>
 </metadata>
 <path id="path2396-6" style="opacity:.3;fill-rule:evenodd" d="m11.5 6c-1.8596 0-3.564 0.6905-4.875 1.8125-0.6207-0.3003-1.9759-0.8525-3.625-0.8125 0 0 1.2426 2.4851 1.6875 3.375-0.1173 0.254-0.2238 0.513-0.3125 0.781-0.8899 0.223-3.375 0.844-3.375 0.844s1.4673 2 3 2c0 0 0.02455-0.0042 0.03125 0 0.2543 3.9103 3.4945 7 7.4688 7 1.9648 0 3.7561-0.76222 5.0938-2h5.406l-3.344-3.344c0.208-0.687 0.344-1.401 0.344-2.156 0-4.14-3.36-7.5-7.5-7.5zm-3.5 3c0.5525-0.0001 1 0.4478 1 1 0 0.552-0.4477 1-1 1-0.5522 0-1-0.448-1-1 0-0.5522 0.4479-1 1-1zm3.125 3c0.99508-0.0042 1.9905 0.36582 2.75 1.125 1.0123 1.0124 1.3443 2.4594 1 3.75-1.2904 0.34438-2.7375 0.01253-3.75-1-1.0124-1.0125-1.3443-2.4597-1-3.75 0.32261-0.08611 0.66831-0.1236 1-0.125z"/>
 <path id="path2396" style="fill-rule:evenodd;fill:#dfdbd2" d="m11.5 5c-1.8596 0-3.564 0.6905-4.875 1.8125-0.6207-0.3003-1.9759-0.8525-3.625-0.8125 0 0 1.2426 2.4851 1.6875 3.375-0.1173 0.2541-0.2238 0.5128-0.3125 0.781-0.8899 0.223-3.375 0.844-3.375 0.844s1.4673 2 3 2c0 0 0.02455-0.0042 0.03125 0 0.2543 3.9103 3.4945 7 7.4688 7 1.9648 0 3.7561-0.76222 5.0938-2h5.406l-3.344-3.344c0.208-0.687 0.344-1.401 0.344-2.156 0-4.14-3.36-7.5-7.5-7.5zm-3.5 3c0.5525-0.0001 1 0.4478 1 1 0 0.5524-0.4477 1-1 1-0.5522 0-1-0.4478-1-1s0.4479-1 1-1zm3.125 3c0.99508-0.0042 1.9905 0.36582 2.75 1.125 1.0123 1.0124 1.3443 2.4594 1 3.75-1.2904 0.34438-2.7375 0.01253-3.75-1-1.0124-1.0125-1.3443-2.4597-1-3.75 0.32261-0.08611 0.66831-0.1236 1-0.125z"/>
</svg>
