<?xml version="1.0" encoding="UTF-8" standalone="no"?>
<!-- Created with Inkscape (http://www.inkscape.org/) -->
<svg id="svg7384" xmlns:rdf="http://www.w3.org/1999/02/22-rdf-syntax-ns#" xmlns="http://www.w3.org/2000/svg" height="16" width="16" version="1.1" xmlns:cc="http://creativecommons.org/ns#" xmlns:dc="http://purl.org/dc/elements/1.1/">
 <metadata id="metadata90">
  <rdf:RDF>
   <cc:Work rdf:about="">
    <dc:format>image/svg+xml</dc:format>
    <dc:type rdf:resource="http://purl.org/dc/dcmitype/StillImage"/>
    <dc:title>Gnome Symbolic Icon Theme</dc:title>
   </cc:Work>
  </rdf:RDF>
 </metadata>
 <title id="title9167">Gnome Symbolic Icon Theme</title>
 <g id="layer10" transform="translate(-201,-467)">
  <path id="path8478" style="fill:#bebebe" d="m203.5 468c-1.385 0-2.5 1.115-2.5 2.5v8c0 1.385 1.115 2.5 2.5 2.5v-2c-0.277 0-0.5-0.223-0.5-0.5v-1.5h0.5 11 0.5v1.5c0 0.277-0.223 0.5-0.5 0.5v2c1.385 0 2.5-1.115 2.5-2.5v-8c0-1.385-1.115-2.5-2.5-2.5h-11z"/>
  <path id="path40815" style="block-progression:tb;text-indent:0;color:#bebebe;text-transform:none;fill:#bebebe" d="m203.88 478.04c0 2.6909 2.2988 4.9043 5.1158 4.9043 2.8171 0 5.1342-2.2133 5.1342-4.9043h-2.017c0 1.6524-1.3873 2.9776-3.1172 2.9776s-3.0988-1.3252-3.0988-2.9776z"/>
  <path id="path40342-8" style="block-progression:tb;text-indent:0;color:#bebebe;text-transform:none;fill:#bebebe" d="m207 478c0 1.0986 0.90135 2 2 2s2-0.90136 2-2h-1c0 0.5582-0.44179 1-1 1s-1-0.4418-1-1h-1z"/>
 </g>
</svg>
