<?xml version="1.0" encoding="UTF-8" standalone="no"?>
<!-- Created with Inkscape (http://www.inkscape.org/) -->
<svg id="svg7384" xmlns:rdf="http://www.w3.org/1999/02/22-rdf-syntax-ns#" xmlns="http://www.w3.org/2000/svg" height="16" width="16" version="1.1" xmlns:cc="http://creativecommons.org/ns#" xmlns:dc="http://purl.org/dc/elements/1.1/">
 <metadata id="metadata90">
  <rdf:RDF>
   <cc:Work rdf:about="">
    <dc:format>image/svg+xml</dc:format>
    <dc:type rdf:resource="http://purl.org/dc/dcmitype/StillImage"/>
    <dc:title>Gnome Symbolic Icon Theme</dc:title>
   </cc:Work>
  </rdf:RDF>
 </metadata>
 <title id="title9167">Gnome Symbolic Icon Theme</title>
 <g id="layer10" transform="translate(-221,-567)">
  <path id="path27183" style="fill:#bebebe" d="m223.5 570c-1.385 0-2.5 1.115-2.5 2.5v6c0 1.385 1.115 2.5 2.5 2.5h11c1.385 0 2.5-1.115 2.5-2.5v-6c0-1.385-1.115-2.5-2.5-2.5h-11zm2 3c1.3748 0 2.5 1.1252 2.5 2.5 0 0.56453-0.21241 1.0803-0.53125 1.5h3.0625c-0.31884-0.41974-0.53125-0.93547-0.53125-1.5 0-1.3748 1.1252-2.5 2.5-2.5s2.5 1.1252 2.5 2.5-1.1252 2.5-2.5 2.5h-0.5-6-0.5c-1.3748 0-2.5-1.1252-2.5-2.5s1.1252-2.5 2.5-2.5zm0 1c-0.83435 0-1.5 0.66565-1.5 1.5s0.66565 1.5 1.5 1.5 1.5-0.66565 1.5-1.5-0.66565-1.5-1.5-1.5zm7 0c-0.83435 0-1.5 0.66565-1.5 1.5s0.66565 1.5 1.5 1.5 1.5-0.66565 1.5-1.5-0.66565-1.5-1.5-1.5z"/>
 </g>
</svg>
