<?xml version="1.0" encoding="UTF-8" standalone="no"?>
<!-- Generator: Adobe Illustrator 15.0.0, SVG Export Plug-In . SVG Version: 6.00 Build 0)  -->
<!DOCTYPE svg  PUBLIC '-//W3C//DTD SVG 1.1//EN'  'http://www.w3.org/Graphics/SVG/1.1/DTD/svg11.dtd'>
<svg id="Layer_1" xmlns="http://www.w3.org/2000/svg" xml:space="preserve" height="22px" viewBox="0 0 22 22" width="22px" version="1.1" y="0px" x="0px" enable-background="new 0 0 22 22">
<path d="m8.622 8.622l-3.416 0.261-2.958-2.956c-0.589 1.907-0.13 4.073 1.382 5.584 1.727 1.731 4.309 2.08 6.388 1.063l-0.009 0.007 4.917 6.55c1.159 1.159 3.042 1.159 4.203 0 1.161-1.16 1.159-3.041 0-4.204l-6.548-4.918-0.01 0.011c1.018-2.079 0.666-4.66-1.062-6.389-1.51-1.512-3.674-1.972-5.582-1.383l2.958 2.96-0.263 3.414zm9.177 7.604c0.435 0.433 0.435 1.139 0 1.575-0.436 0.434-1.143 0.434-1.574 0-0.438-0.437-0.438-1.143 0-1.575 0.431-0.438 1.138-0.438 1.574 0z" fill="#363636"/>
</svg>
