<?xml version="1.0" encoding="UTF-8" standalone="no"?>
<!-- Generator: Adobe Illustrator 15.0.0, SVG Export Plug-In . SVG Version: 6.00 Build 0)  -->
<!DOCTYPE svg  PUBLIC '-//W3C//DTD SVG 1.1//EN'  'http://www.w3.org/Graphics/SVG/1.1/DTD/svg11.dtd'>
<svg id="Layer_1" xmlns="http://www.w3.org/2000/svg" xml:space="preserve" height="22px" viewBox="0 0 22 22" width="22px" version="1.1" y="0px" x="0px" enable-background="new 0 0 22 22">
		<path d="m11 2c-4.97 0-9 4.029-9 9 0 4.97 4.03 9 9 9s9-4.03 9-9c0-4.971-4.029-9-9-9zm1.873 3.366c0.342-0.593 1.099-0.795 1.689-0.453 0.592 0.342 0.795 1.099 0.454 1.69-0.341 0.593-1.099 0.795-1.69 0.453-0.593-0.342-0.795-1.098-0.453-1.69zm-7.8 6.98c-0.684 0-1.239-0.554-1.239-1.237s0.555-1.239 1.239-1.239c0.683 0 1.237 0.555 1.237 1.238s-0.554 1.238-1.237 1.238zm2.259 2.418c-0.614-0.614-1.054-1.355-1.297-2.165 0.489-0.315 0.812-0.865 0.812-1.49s-0.323-1.174-0.812-1.49c0.243-0.81 0.683-1.551 1.297-2.166 0.219-0.219 0.455-0.416 0.705-0.59l1.06 1.839c-0.712 0.56-1.171 1.431-1.171 2.407 0 0.975 0.459 1.845 1.171 2.407l-1.062 1.838c-0.248-0.174-0.484-0.371-0.703-0.59zm7.231 2.538c-0.592 0.342-1.348 0.139-1.69-0.453-0.341-0.592-0.139-1.348 0.454-1.689 0.592-0.342 1.349-0.14 1.69 0.452 0.342 0.59 0.139 1.348-0.454 1.69zm0.19-2.652c-0.518-0.264-1.154-0.27-1.694 0.043-0.542 0.313-0.855 0.867-0.885 1.448-0.385 0.089-0.782 0.137-1.186 0.137-0.775 0-1.522-0.17-2.202-0.49l1.061-1.838c0.352 0.143 0.737 0.221 1.141 0.221 1.541 0 2.819-1.146 3.03-2.63h2.121c-0.096 1.166-0.578 2.252-1.386 3.109zm-0.734-3.976c-0.211-1.483-1.489-2.627-3.03-2.627-0.403 0-0.788 0.078-1.14 0.22l-1.062-1.84c0.68-0.32 1.428-0.489 2.202-0.489 0.403 0 0.801 0.047 1.184 0.137 0.031 0.58 0.345 1.135 0.885 1.446 0.542 0.312 1.177 0.308 1.695 0.044 0.807 0.856 1.291 1.943 1.388 3.109h-2.122z" fill="#363636"/>
</svg>
