<?xml version="1.0" encoding="UTF-8" standalone="no"?>
<!-- Created with Inkscape (http://www.inkscape.org/) -->
<svg id="svg2816" xmlns:rdf="http://www.w3.org/1999/02/22-rdf-syntax-ns#" xmlns="http://www.w3.org/2000/svg" height="16" width="18" version="1.0" xmlns:cc="http://creativecommons.org/ns#" xmlns:dc="http://purl.org/dc/elements/1.1/">
 <metadata id="metadata10">
  <rdf:RDF>
   <cc:Work rdf:about="">
    <dc:format>image/svg+xml</dc:format>
    <dc:type rdf:resource="http://purl.org/dc/dcmitype/StillImage"/>
    <dc:title/>
   </cc:Work>
  </rdf:RDF>
 </metadata>
 <path id="path2817-1" style="opacity:.3;stroke-linejoin:round;stroke:#fff;stroke-linecap:round;stroke-width:1px;fill:none" d="m9.262 8.4993h-1.762v-2.5"/>
 <path id="path2396-1" style="opacity:.3;fill-rule:evenodd;fill:#fff" d="m7.5 1c-4.14 0-7.5 3.36-7.5 7.5s3.36 7.5 7.5 7.5c1.9648 0 3.7561-0.76222 5.0938-2h5.406l-3.344-3.344c0.208-0.6874 0.344-1.4008 0.344-2.156 0-4.14-3.36-7.5-7.5-7.5zm0 3c2.484 0 4.5 2.016 4.5 4.5s-2.016 4.5-4.5 4.5-4.5-2.016-4.5-4.5 2.016-4.5 4.5-4.5z"/>
 <path id="path2396" style="fill-rule:evenodd;fill:#3c3c3c" d="m7.5 0c-4.14 0-7.5 3.36-7.5 7.5s3.36 7.5 7.5 7.5c1.9648 0 3.7561-0.76222 5.0938-2h5.406l-3.344-3.3438c0.208-0.6876 0.344-1.401 0.344-2.1562 0-4.14-3.36-7.5-7.5-7.5zm0 3c2.484 0 4.5 2.016 4.5 4.5s-2.016 4.5-4.5 4.5-4.5-2.016-4.5-4.5 2.016-4.5 4.5-4.5z"/>
 <path id="path2817" style="stroke-linejoin:round;stroke:#3c3c3c;stroke-linecap:round;stroke-width:1px;fill:none" d="m9.262 7.4993h-1.762v-2.5"/>
 <path id="path3208" style="opacity:.3;stroke-width:.5;stroke:#fff;stroke-linecap:round;fill:none" d="m11.75 7.4993c0 2.3475-1.9025 4.2507-4.25 4.2507s-4.2504-1.9032-4.25-4.2507c-0.0004-2.3475 1.9025-4.2507 4.25-4.2507s4.2504 1.9032 4.25 4.2507z"/>
</svg>
