<?xml version="1.0" encoding="UTF-8" standalone="no"?>
<!-- Created with Inkscape (http://www.inkscape.org/) -->
<svg id="svg7384" xmlns:rdf="http://www.w3.org/1999/02/22-rdf-syntax-ns#" xmlns="http://www.w3.org/2000/svg" height="16" width="16" version="1.1" xmlns:cc="http://creativecommons.org/ns#" xmlns:dc="http://purl.org/dc/elements/1.1/">
 <metadata id="metadata90">
  <rdf:RDF>
   <cc:Work rdf:about="">
    <dc:format>image/svg+xml</dc:format>
    <dc:type rdf:resource="http://purl.org/dc/dcmitype/StillImage"/>
    <dc:title>Gnome Symbolic Icon Theme</dc:title>
   </cc:Work>
  </rdf:RDF>
 </metadata>
 <title id="title9167">Gnome Symbolic Icon Theme</title>
 <g id="layer13" transform="translate(-461 -195)">
  <path id="path5005" style="block-progression:tb;text-indent:0;color:#000000;enable-background:new;text-transform:none;fill:#bebebe" d="m464.5 203.01c-1.9212 0-3.5034 1.5501-3.5034 3.4712 0 1.9212 1.5822 3.5034 3.5034 3.5034s3.5034-1.5822 3.5034-3.5034-1.5822-3.4712-3.5034-3.4712zm0 1.9928c0.84027 0 1.5106 0.63823 1.5106 1.4785s-0.67037 1.5106-1.5106 1.5106c-0.84027 0-1.5106-0.67036-1.5106-1.5106 0-0.84027 0.67037-1.4785 1.5106-1.4785z"/>
  <path id="path5007" style="block-progression:tb;text-indent:0;color:#000000;enable-background:new;text-transform:none;fill:#bebebe" d="m472.5 203.01c-1.9212 0-3.5034 1.5501-3.5034 3.4712 0 1.9212 1.5822 3.5034 3.5034 3.5034s3.5034-1.5822 3.5034-3.5034-1.5822-3.4712-3.5034-3.4712zm0 1.9928c0.84027 0 1.5106 0.63823 1.5106 1.4785s-0.67037 1.5106-1.5106 1.5106c-0.84027 0-1.5106-0.67036-1.5106-1.5106 0-0.84027 0.67037-1.4785 1.5106-1.4785z"/>
  <rect id="rect5009" style="color:#000000;enable-background:new;fill:#bebebe" height="9.5157" width="2" y="197" x="466"/>
  <rect id="rect5011" style="color:#000000;enable-background:new;fill:#bebebe" height="9.5627" width="2" y="197" x="474"/>
  <rect id="rect5013" style="color:#000000;enable-background:new;fill:#bebebe" height="2" width="10" y="197" x="466"/>
 </g>
</svg>
