<?xml version="1.0" encoding="UTF-8" standalone="no"?>
<!-- Created with Inkscape (http://www.inkscape.org/) -->
<svg id="svg7384" xmlns:rdf="http://www.w3.org/1999/02/22-rdf-syntax-ns#" xmlns="http://www.w3.org/2000/svg" height="16" width="16" version="1.1" xmlns:cc="http://creativecommons.org/ns#" xmlns:dc="http://purl.org/dc/elements/1.1/">
 <metadata id="metadata90">
  <rdf:RDF>
   <cc:Work rdf:about="">
    <dc:format>image/svg+xml</dc:format>
    <dc:type rdf:resource="http://purl.org/dc/dcmitype/StillImage"/>
    <dc:title>Gnome Symbolic Icon Theme</dc:title>
   </cc:Work>
  </rdf:RDF>
 </metadata>
 <title id="title9167">Gnome Symbolic Icon Theme</title>
 <g id="layer13" transform="translate(-581 -196)">
  <path id="path8192" style="color:#000000;enable-background:new;fill:#bebebe" d="m291 178.03a1.9688 1.9688 0 1 1 -3.9375 0 1.9688 1.9688 0 1 1 3.9375 0z" transform="matrix(1.5079 0 0 1.5079 148.16 -64.491)"/>
  <path id="path8194" style="color:#000000;enable-background:new;fill:#bebebe" d="m291 178.03a1.9688 1.9688 0 1 1 -3.9375 0 1.9688 1.9688 0 1 1 3.9375 0z" transform="matrix(1.5079 0 0 1.5079 158.13 -59.491)"/>
  <path id="path8196" style="color:#000000;enable-background:new;fill:#bebebe" d="m291 178.03a1.9688 1.9688 0 1 1 -3.9375 0 1.9688 1.9688 0 1 1 3.9375 0z" transform="matrix(1.5079 0 0 1.5079 158.13 -69.491)"/>
  <path id="path8198" style="block-progression:tb;text-indent:0;color:#000000;text-transform:none;fill:#bebebe" d="m593.62 198.16-10.062 4.875-1.8125 0.90625 1.8125 0.90625 10.031 5.0625 0.90625-1.8125-8.2188-4.1562 8.2188-4-0.875-1.7812z"/>
 </g>
</svg>
