<?xml version="1.0" encoding="UTF-8" standalone="no"?>
<!-- Created with Inkscape (http://www.inkscape.org/) -->
<svg id="svg4486" xmlns:rdf="http://www.w3.org/1999/02/22-rdf-syntax-ns#" xmlns="http://www.w3.org/2000/svg" height="19" viewBox="0 0 19 19" width="19" version="1.1" xmlns:cc="http://creativecommons.org/ns#" xmlns:dc="http://purl.org/dc/elements/1.1/">
 <defs id="defs4488">
  <filter id="filter4195" style="color-interpolation-filters:sRGB" height="1.24" width="1.24" y="-.12" x="-.12">
   <feGaussianBlur id="feGaussianBlur4197" stdDeviation="0.75"/>
  </filter>
 </defs>
 <metadata id="metadata4491">
  <rdf:RDF>
   <cc:Work rdf:about="">
    <dc:format>image/svg+xml</dc:format>
    <dc:type rdf:resource="http://purl.org/dc/dcmitype/StillImage"/>
    <dc:title/>
   </cc:Work>
  </rdf:RDF>
 </metadata>
 <g id="layer1" transform="translate(290.21 -522.86)">
  <g id="g4131" transform="translate(-289.71 -511)">
   <path id="path4133" style="color:#000000;fill:#dd4814" d="m85.5 97.5a7.5 7.5 0 0 0 -7.5 7.5 7.5 7.5 0 0 0 7.5 7.5 7.5 7.5 0 0 0 7.5 -7.5 7.5 7.5 0 0 0 -7.5 -7.5zm-2.5 4.2227 0.38867 0.38867l2.111 2.11 2.111-2.11 0.389-0.39 0.777 0.78-0.388 0.39-2.112 2.11 2.112 2.11 0.388 0.39-0.777 0.78-0.389-0.39-2.111-2.11-2.111 2.11-0.389 0.39-0.777-0.78 0.388-0.39 2.112-2.11-2.112-2.11-0.388-0.39 0.777-0.78z" transform="translate(-76.5 938.36)"/>
   <rect id="rect4135" style="color:#000000;fill:none" height="19" width="19" y="1033.9" x="-0.5"/>
   <path id="path4137" d="m85.5 97.5a7.5 7.5 0 0 0 -7.5 7.5 7.5 7.5 0 0 0 7.5 7.5 7.5 7.5 0 0 0 7.5 -7.5 7.5 7.5 0 0 0 -7.5 -7.5zm-2.5 4.2227 0.38867 0.38867l2.111 2.11 2.111-2.11 0.389-0.39 0.777 0.78-0.388 0.39-2.112 2.11 2.112 2.11 0.388 0.39-0.777 0.78-0.389-0.39-2.111-2.11-2.111 2.11-0.389 0.39-0.777-0.78 0.388-0.39 2.112-2.11-2.112-2.11-0.388-0.39 0.777-0.78z" style="color:#000000;filter:url(#filter4195);fill:#dd4814" transform="translate(-76.5 938.36)"/>
  </g>
 </g>
</svg>
