<?xml version="1.0" encoding="UTF-8" standalone="no"?>
<!-- Created with Inkscape (http://www.inkscape.org/) -->
<svg id="svg7384" xmlns:rdf="http://www.w3.org/1999/02/22-rdf-syntax-ns#" xmlns="http://www.w3.org/2000/svg" height="16.072" width="16" version="1.1" xmlns:cc="http://creativecommons.org/ns#" xmlns:dc="http://purl.org/dc/elements/1.1/">
 <metadata id="metadata90">
  <rdf:RDF>
   <cc:Work rdf:about="">
    <dc:format>image/svg+xml</dc:format>
    <dc:type rdf:resource="http://purl.org/dc/dcmitype/StillImage"/>
    <dc:title>Gnome Symbolic Icon Theme</dc:title>
   </cc:Work>
  </rdf:RDF>
 </metadata>
 <title id="title9167">Gnome Symbolic Icon Theme</title>
 <g id="layer9" transform="translate(-201 -397)">
  <path id="path59045" style="block-progression:tb;text-indent:0;color:#000000;text-transform:none;fill:#bebebe" d="m208.41 403a0.50005 0.50005 0 0 0 -0.41 0.5v2.5h-1.5a0.50005 0.50005 0 1 0 0 1h2a0.50005 0.50005 0 0 0 0.5 -0.5v-3a0.50005 0.50005 0 0 0 -0.59375 -0.5z"/>
  <path id="path59049" style="block-progression:tb;text-indent:0;color:#000000;text-transform:none;fill:#bebebe" d="m208.47 400.06c-3.5601 0-6.4433 2.9142-6.4433 6.4743s2.8832 6.4743 6.4433 6.4743 6.4743-2.9142 6.4743-6.4743-2.9142-6.4743-6.4743-6.4743zm0 1.9826c2.4886 0 4.4917 2.0031 4.4917 4.4917s-2.0031 4.4917-4.4917 4.4917-4.4608-2.0031-4.4608-4.4917 1.9721-4.4917 4.4608-4.4917z"/>
  <path id="path59561" style="color:#000000;fill:#bebebe" d="m205.28 398c-1.8062 0-3.2812 1.4751-3.2812 3.2812 0 0.40491 0.0842 0.76711 0.21875 1.125 1.206-1.8223 3.184-3.1023 5.4688-3.3438-0.6-0.65-1.46-1.06-2.41-1.06zm6.4375 0c-0.95265 0-1.8085 0.41251-2.4062 1.0625 2.2873 0.25122 4.2705 1.541 5.4688 3.375 0.14145-0.3658 0.21875-0.74054 0.21875-1.1562 0-1.8062-1.4751-3.2812-3.2812-3.2812z"/>
  <path id="path59570" style="block-progression:tb;text-indent:0;color:#000000;text-transform:none;fill:#bebebe" d="m204.91 409.91a1.0001 1.0001 0 0 0 -0.46875 0.28125l-1.125 1.0938a1.0001 1.0001 0 1 0 1.375 1.4375l1.125-1.0938a1.0001 1.0001 0 0 0 -0.90625 -1.7188z"/>
  <path id="path59572" style="block-progression:tb;text-indent:0;color:#000000;text-transform:none;fill:#bebebe" d="m211.94 410a1.0001 1.0001 0 0 0 -0.59375 1.6562l0.90625 1a1.0001 1.0001 0 1 0 1.5 -1.3125l-0.90625-1a1.0001 1.0001 0 0 0 -0.91 -0.35z"/>
 </g>
</svg>
