<?xml version="1.0" encoding="UTF-8" standalone="no"?>
<!-- Created with Inkscape (http://www.inkscape.org/) -->
<svg id="svg7384" xmlns:rdf="http://www.w3.org/1999/02/22-rdf-syntax-ns#" xmlns="http://www.w3.org/2000/svg" height="16" width="16" version="1.1" xmlns:cc="http://creativecommons.org/ns#" xmlns:dc="http://purl.org/dc/elements/1.1/">
 <metadata id="metadata90">
  <rdf:RDF>
   <cc:Work rdf:about="">
    <dc:format>image/svg+xml</dc:format>
    <dc:type rdf:resource="http://purl.org/dc/dcmitype/StillImage"/>
    <dc:title>Gnome Symbolic Icon Theme</dc:title>
   </cc:Work>
  </rdf:RDF>
 </metadata>
 <title id="title9167">Gnome Symbolic Icon Theme</title>
 <g id="layer9" transform="translate(-221 -397)">
  <path id="path4639-4-4-7" style="block-progression:tb;text-indent:0;color:#000000;text-transform:none;fill:#bebebe" d="m227.41 402a0.50005 0.50005 0 0 0 -0.41 0.5v2.5h-1.5a0.50005 0.50005 0 1 0 0 1h2a0.50005 0.50005 0 0 0 0.5 -0.5v-3a0.50005 0.50005 0 0 0 -0.59375 -0.5z"/>
  <path id="path3761-2-3-5-4-8-9-8-0-1-6" style="color:#bebebe;fill:#bebebe" d="m232 408h1.375l1.125 1.0938 1.0938-1.0938h1.4062v1.4688l-1.0938 1.0625 1.0938 1.0625v1.4062h-1.4375l-1.0625-1.0625-1.0625 1.0625h-1.4375v-1.4062l1.0625-1.0625-1.0625-1.0625v-1.4688z"/>
  <path id="path3869-9" style="block-progression:tb;text-indent:0;color:#000000;text-transform:none;fill:#bebebe" d="m227.5 399c-3.578 0-6.5 2.922-6.5 6.5s2.922 6.5 6.5 6.5c1.2912 0 2.4851-0.37561 3.5-1.0312v-2.6562c-0.82069 1.0272-2.071 1.6875-3.5 1.6875-2.4971 0-4.5-2.0029-4.5-4.5s2.0029-4.5 4.5-4.5 4.5 2.0029 4.5 4.5c0 0.53296-0.11393 1.0272-0.28125 1.5h2.0938c0.11483-0.48186 0.1875-0.98435 0.1875-1.5 0-3.578-2.922-6.5-6.5-6.5z"/>
 </g>
</svg>
