<?xml version="1.0" encoding="UTF-8" standalone="no"?>
<!-- Created with Inkscape (http://www.inkscape.org/) -->
<svg id="svg7384" xmlns:rdf="http://www.w3.org/1999/02/22-rdf-syntax-ns#" xmlns="http://www.w3.org/2000/svg" height="16" width="16" version="1.1" xmlns:cc="http://creativecommons.org/ns#" xmlns:dc="http://purl.org/dc/elements/1.1/">
 <metadata id="metadata90">
  <rdf:RDF>
   <cc:Work rdf:about="">
    <dc:format>image/svg+xml</dc:format>
    <dc:type rdf:resource="http://purl.org/dc/dcmitype/StillImage"/>
    <dc:title>Gnome Symbolic Icon Theme</dc:title>
   </cc:Work>
  </rdf:RDF>
 </metadata>
 <title id="title9167">Gnome Symbolic Icon Theme</title>
 <g id="layer9" transform="translate(-201 -217)">
  <path id="path6257" style="fill:#bebebe" d="m206 225v2h4l1-1 1-1zm0 3v2h3v-2z"/>
  <path id="path6259" style="block-progression:tb;text-indent:0;color:#bebebe;text-transform:none;fill:#bebebe" d="m206.47 217c-0.49033 0-0.79607 0.22846-1.0312 0.46875-0.24 0.24-0.44 0.56-0.44 1.03v0.5h-1-1v1 12 1h1 7v-2h-6v-10h1 1v-1-1h4v1 1h1 1v3h2v-4-1h-1-1v-0.375-0.0312-0.0312c-0.0239-0.4306-0.17023-0.72105-0.40625-1-0.22374-0.26444-0.6267-0.52931-1.1562-0.53125v-0.0312h-0.0625-4.9062z"/>
  <path id="path6264" style="block-progression:tb;text-indent:0;color:#bebebe;text-transform:none;fill:#bebebe" d="m213.84 224.97a1.0001 1.0001 0 0 0 -0.59 0.28l-3 3a1.0001 1.0001 0 0 0 0.71875 1.7188h2.5625l-1.28 1.28a1.0165 1.0165 0 1 0 1.4375 1.4375l3-3a1.0001 1.0001 0 0 0 -0.71875 -1.7188h-2.5625l1.2812-1.2812a1.0001 1.0001 0 0 0 -0.84375 -1.7188z"/>
  <rect id="rect6266" style="color:#bebebe;fill:#bebebe" height="1" width="1" y="227.97" x="215.97"/>
  <rect id="rect6268" style="color:#bebebe;fill:#bebebe" height="1" width="1" y="228.97" x="209.97"/>
  <rect id="rect6270" style="color:#bebebe;fill:#bebebe" height="1" width="1" y="224.97" x="213.97"/>
  <rect id="rect6272" style="color:#bebebe;fill:#bebebe" height="1" width="1" y="231.97" x="211.97"/>
  <path id="path6274" style="block-progression:tb;text-indent:0;color:#bebebe;text-transform:none;fill:#bebebe" d="m213.12 225.41-2 3 1.6875 1.125 2-3-1.6875-1.125z"/>
  <path id="path6276" style="block-progression:tb;text-indent:0;color:#bebebe;text-transform:none;fill:#bebebe" d="m214.12 228.41-2 3 1.6875 1.125 2-3-1.6875-1.125z"/>
 </g>
</svg>
