<?xml version="1.0" encoding="UTF-8" standalone="no"?>
<!-- Created with Inkscape (http://www.inkscape.org/) -->
<svg id="svg7384" xmlns:rdf="http://www.w3.org/1999/02/22-rdf-syntax-ns#" xmlns="http://www.w3.org/2000/svg" height="16" width="16" version="1.1" xmlns:cc="http://creativecommons.org/ns#" xmlns:dc="http://purl.org/dc/elements/1.1/">
 <metadata id="metadata90">
  <rdf:RDF>
   <cc:Work rdf:about="">
    <dc:format>image/svg+xml</dc:format>
    <dc:type rdf:resource="http://purl.org/dc/dcmitype/StillImage"/>
    <dc:title>Gnome Symbolic Icon Theme</dc:title>
   </cc:Work>
  </rdf:RDF>
 </metadata>
 <title id="title9167">Gnome Symbolic Icon Theme</title>
 <g id="layer9" transform="translate(-281 -177)">
  <path id="path16181" style="block-progression:tb;text-indent:0;color:#000000;text-transform:none;fill:#bebebe" d="m286 184c-0.30943 0.00004-0.61463 0.0905-0.8125 0.28125l-3.6 3.72 3.6562 3.7188c0.19771 0.19101 0.44055 0.28124 0.75 0.28125h1v-1c-0.00005-0.25688-0.12958-0.52871-0.3125-0.71875l-1.28-1.28h4.5937c0.52831 0.007 1-0.47164 1-1s-0.47169-1.0075-1-1h-4.625l1.2188-1.2812c0.18273-0.19024 0.40624-0.46185 0.40625-0.71875v-1z"/>
  <path id="path16183" style="block-progression:tb;text-indent:0;color:#000000;text-transform:none;fill:#bebebe" d="m292.59 186c0.30943-0.00004 0.61463-0.0905 0.8125-0.28125l3.6-3.72-3.6562-3.7188c-0.19771-0.19101-0.44055-0.28124-0.75-0.28125h-1v1c0.00005 0.25688 0.12958 0.52871 0.3125 0.71875l1.2812 1.2812h-5.1875c-0.52831-0.007-1 0.47164-1 1s0.47169 1.0075 1 1h5.2188l-1.2188 1.2812c-0.18273 0.19024-0.40624 0.46185-0.40625 0.71875v1z"/>
 </g>
</svg>
