<?xml version="1.0" encoding="UTF-8" standalone="no"?>
<!-- Created with Inkscape (http://www.inkscape.org/) -->
<svg id="svg7384" xmlns:rdf="http://www.w3.org/1999/02/22-rdf-syntax-ns#" xmlns="http://www.w3.org/2000/svg" height="16" width="16" version="1.1" xmlns:cc="http://creativecommons.org/ns#" xmlns:dc="http://purl.org/dc/elements/1.1/">
 <metadata id="metadata90">
  <rdf:RDF>
   <cc:Work rdf:about="">
    <dc:format>image/svg+xml</dc:format>
    <dc:type rdf:resource="http://purl.org/dc/dcmitype/StillImage"/>
    <dc:title>Gnome Symbolic Icon Theme</dc:title>
   </cc:Work>
  </rdf:RDF>
 </metadata>
 <title id="title9167">Gnome Symbolic Icon Theme</title>
 <g id="layer9" transform="translate(-141 -257)">
  <path id="rect4162" style="opacity:.35;color:#bebebe;fill:#bebebe" d="m141.02 266v3 3h1 2v-3h-2v-3h-1z"/>
  <path id="rect4162-9" style="opacity:.35;color:#bebebe;fill:#bebebe" d="m153 257.02v7h2v5h-2v3h3v-3-5-1-6h-3z"/>
  <path id="rect4162-92" style="opacity:.35;color:#bebebe;fill:#bebebe" d="m145 269v3h3v-3h-3z"/>
  <path id="rect4162-92-3" style="opacity:.35;color:#bebebe;fill:#bebebe" d="m149 269v3h3v-3h-3z"/>
  <path id="rect4162-92-5" style="opacity:.35;color:#bebebe;fill:#bebebe" d="m145 263v1h3v-1h-3z"/>
  <path id="rect4162-92-3-0" style="opacity:.35;color:#bebebe;fill:#bebebe" d="m149 260v4h3v-4h-3z"/>
  <path id="path4955-3" style="fill:#bebebe" d="m29 209a1 1 0 1 1 -2 0 1 1 0 1 1 2 0z" transform="matrix(1.5 0 0 1.5 102.5 -47)"/>
  <path id="path4957-3" style="fill:#bebebe" d="m29 209a1 1 0 1 1 -2 0 1 1 0 1 1 2 0z" transform="matrix(1.5 0 0 1.5 106.5 -47)"/>
  <path id="path4959-7" style="fill:#bebebe" d="m29 209a1 1 0 1 1 -2 0 1 1 0 1 1 2 0z" transform="matrix(1.5 0 0 1.5 110.5 -47)"/>
 </g>
</svg>
