<?xml version="1.0" encoding="UTF-8" standalone="no"?>
<!-- Created with Inkscape (http://www.inkscape.org/) -->
<svg id="svg7384" xmlns:rdf="http://www.w3.org/1999/02/22-rdf-syntax-ns#" xmlns="http://www.w3.org/2000/svg" height="16" width="16" version="1.1" xmlns:cc="http://creativecommons.org/ns#" xmlns:dc="http://purl.org/dc/elements/1.1/">
 <metadata id="metadata90">
  <rdf:RDF>
   <cc:Work rdf:about="">
    <dc:format>image/svg+xml</dc:format>
    <dc:type rdf:resource="http://purl.org/dc/dcmitype/StillImage"/>
    <dc:title>Gnome Symbolic Icon Theme</dc:title>
   </cc:Work>
  </rdf:RDF>
 </metadata>
 <title id="title9167">Gnome Symbolic Icon Theme</title>
 <g id="layer9" transform="translate(-241 -157)">
  <path id="path5534" style="color:#bebebe;fill:#bebebe" d="m244 158c-1.108 0-2 0.892-2 2v10c0 1.108 0.892 2 2 2h7v-2h-6c-0.554 0-1-0.446-1-1v-6c0-0.554 0.446-1 1-1h1v-1c0-0.554 0.446-1 1-1h4c0.554 0 0.96747 0.44696 1 1v1h1c0.554 0 1 0.446 1 1v4h2v-7c0-1.108-0.892-2-2-2z"/>
  <rect id="rect5536" style="opacity:.35;color:#bebebe;fill:#bebebe" ry="0" height="2" width="2" y="169" x="246"/>
  <path id="path5538" style="color:#bebebe;fill:#bebebe" d="m252 168h1.375l1.125 1.0938 1.0938-1.0938h1.4062v1.4688l-1.0938 1.0625 1.0938 1.0625v1.4062h-1.4375l-1.0625-1.0625-1.0625 1.0625h-1.4375v-1.4062l1.0625-1.0625-1.0625-1.0625v-1.4688z"/>
  <rect id="rect5540" style="opacity:.35;color:#bebebe;fill:#bebebe" ry="0" height="2" width="2" y="169" x="249"/>
 </g>
</svg>
