<?xml version="1.0" encoding="UTF-8" standalone="no"?>
<!-- Created with Inkscape (http://www.inkscape.org/) -->
<svg id="svg7384" xmlns:rdf="http://www.w3.org/1999/02/22-rdf-syntax-ns#" xmlns="http://www.w3.org/2000/svg" height="16.064" width="16.042" version="1.1" xmlns:cc="http://creativecommons.org/ns#" xmlns:dc="http://purl.org/dc/elements/1.1/">
 <metadata id="metadata90">
  <rdf:RDF>
   <cc:Work rdf:about="">
    <dc:format>image/svg+xml</dc:format>
    <dc:type rdf:resource="http://purl.org/dc/dcmitype/StillImage"/>
    <dc:title>Gnome Symbolic Icon Theme</dc:title>
   </cc:Work>
  </rdf:RDF>
 </metadata>
 <title id="title9167">Gnome Symbolic Icon Theme</title>
 <g id="layer9" transform="translate(-201 -356.94)">
  <path id="path20685" style="color:#000000;text-indent:0;block-progression:tb;text-decoration-line:none;text-transform:none;fill:#bebebe" d="m207.03 361.94c-1.0888 0-2 0.87892-2 1.9688v1.0938h-0.96875v4.0625h5.9688v-4.0625h-1.0312v-1.0938c0-1.0898-0.87998-1.9688-1.9688-1.9688zm0 1c0.54629 0 0.96875 0.41732 0.96875 0.96875v1.0938h-1.9688v-1.0938c0-0.55143 0.45371-0.96875 1-0.96875z"/>
  <path id="path20687" style="color-rendering:auto;text-decoration-color:#000000;color:#000000;shape-rendering:auto;solid-color:#000000;text-decoration-line:none;fill:#bebebe;mix-blend-mode:normal;block-progression:tb;text-indent:0;image-rendering:auto;white-space:normal;text-decoration-style:solid;isolation:auto;enable-background:new;text-transform:none" d="m207.31 356.94c-0.51485 0.00008-1.0284 0.19445-1.4141 0.58007l-4.2441 4.2422c-0.77125 0.77125-0.77612 2.0604 0.004 2.832l0.38476 0.37891 1.4062-1.4219-0.38086-0.375 4.2441-4.2422 7.7402 7.791 0.002 0.002-4.2422 4.2441-1.2109-1.2637-1.4453 1.3828 1.2344 1.2871 0.008 0.008c0.77124 0.77124 2.0569 0.77124 2.8281 0l4.2422-4.2422c0.77127-0.77125 0.76737-2.0552 0.002-2.8262l-7.7422-7.7949c-0.38575-0.38832-0.90116-0.58212-1.416-0.58203z"/>
 </g>
</svg>
