<?xml version="1.0" encoding="UTF-8" standalone="no"?>
<!-- Created with Inkscape (http://www.inkscape.org/) -->
<svg id="svg3191" xmlns="http://www.w3.org/2000/svg" height="48" width="48" version="1.0">
 <g id="layer1">
  <path id="path3189" style="opacity:.6;fill-rule:evenodd;fill:#eae3d0" d="m40.969 5c-0.251 0.0171-0.485 0.1288-0.657 0.3125l-4.75 4.7495c-3.201-2.4907-7.19-4.062-11.562-4.062-10.471 0-19 8.529-19 19s8.529 19 19 19c9.175 0 16.866-6.546 18.625-15.219 0.013-0.093 0.013-0.188 0-0.281 0.001-0.031 0.001-0.063 0-0.094 0.016-0.137 0.063-0.26 0.063-0.406 0-2.191-1.809-4-4-4-1.908 0-3.486 1.375-3.876 3.156 0.031-0.14-0.023 0.014-0.062 0.188-1.079 4.945-5.471 8.656-10.75 8.656-6.089 0-11-4.911-11-11s4.911-11 11-11c2.173 0 4.112 0.721 5.812 1.812l-4.5 4.5c-0.28 0.282-0.365 0.704-0.215 1.072s0.506 0.611 0.903 0.616h15c0.266 0.003 0.522-0.102 0.71-0.29s0.293-0.444 0.29-0.71v-15c0.003-0.2717-0.106-0.5327-0.301-0.7218s-0.459-0.2897-0.73-0.2782z"/>
  <path id="path2404" style="fill-rule:evenodd;fill:#3a3935" d="m41 6l-5.344 5.344c-3.141-2.6924-7.197-4.344-11.656-4.344-9.936 0-18 8.064-18 18s8.064 18 18 18c8.706 0 15.99-6.189 17.656-14.406h-0.031c0.04-0.195 0.063-0.387 0.063-0.594 0-1.656-1.344-3-3-3-1.436 0-2.612 1.028-2.907 2.375-0.014 0.065-0.052 0.121-0.062 0.187-1.176 5.393-5.976 9.438-11.719 9.438-6.624 0-12-5.376-12-12s5.376-12 12-12c2.806 0 5.366 0.975 7.406 2.594l-5.406 5.406h15v-15z"/>
 </g>
</svg>
