<?xml version="1.0" encoding="UTF-8" standalone="no"?>
<!-- Created with Inkscape (http://www.inkscape.org/) -->

<svg
   xmlns:dc="http://purl.org/dc/elements/1.1/"
   xmlns:cc="http://creativecommons.org/ns#"
   xmlns:rdf="http://www.w3.org/1999/02/22-rdf-syntax-ns#"
   xmlns:svg="http://www.w3.org/2000/svg"
   xmlns="http://www.w3.org/2000/svg"
   xmlns:sodipodi="http://sodipodi.sourceforge.net/DTD/sodipodi-0.dtd"
   xmlns:inkscape="http://www.inkscape.org/namespaces/inkscape"
   width="15.999998"
   height="15.999998"
   id="svg13094"
   version="1.1"
   inkscape:version="0.48.4 r9939"
   sodipodi:docname="audio-card-symbolic.svg">
  <sodipodi:namedview
     id="base"
     pagecolor="#ffffff"
     bordercolor="#666666"
     borderopacity="1.0"
     inkscape:pageopacity="0.0"
     inkscape:pageshadow="2"
     inkscape:zoom="32"
     inkscape:cx="1.4491204"
     inkscape:cy="5.913331"
     inkscape:document-units="px"
     inkscape:current-layer="layer1"
     showgrid="true"
     inkscape:snap-bbox="true"
     inkscape:bbox-paths="true"
     inkscape:bbox-nodes="true"
     inkscape:snap-bbox-edge-midpoints="true"
     inkscape:snap-bbox-midpoints="true"
     inkscape:object-paths="true"
     inkscape:snap-intersection-paths="true"
     inkscape:object-nodes="true"
     inkscape:snap-smooth-nodes="true"
     inkscape:snap-midpoints="true"
     inkscape:snap-object-midpoints="true"
     inkscape:snap-center="true"
     showguides="false"
     inkscape:guide-bbox="true"
     inkscape:window-width="1301"
     inkscape:window-height="744"
     inkscape:window-x="65"
     inkscape:window-y="24"
     inkscape:window-maximized="1"
     inkscape:snap-global="true"
     fit-margin-top="0"
     fit-margin-left="0"
     fit-margin-right="0"
     fit-margin-bottom="0"
     showborder="true"
     inkscape:showpageshadow="false">
    <sodipodi:guide
       orientation="0,1"
       position="-25.000005,930.61286"
       id="guide4700" />
    <sodipodi:guide
       orientation="0,1"
       position="576.71887,328.89388"
       id="guide4702" />
    <sodipodi:guide
       orientation="1,0"
       position="576.71899,489.70395"
       id="guide4706" />
    <sodipodi:guide
       orientation="1,0"
       position="54.999996,930.61286"
       id="guide4708" />
    <sodipodi:guide
       orientation="0,1"
       position="-25.000005,850.61296"
       id="guide4710" />
    <sodipodi:guide
       orientation="0,1"
       position="536.71887,408.8938"
       id="guide4712" />
    <sodipodi:guide
       orientation="1,0"
       position="496.71887,408.8938"
       id="guide4714" />
    <inkscape:grid
       type="xygrid"
       id="grid3216"
       empspacing="5"
       visible="true"
       enabled="true"
       snapvisiblegridlinesonly="true"
       originx="-24.999951px"
       originy="-219.00005px" />
    <sodipodi:guide
       orientation="-0.70710664,0.70710692"
       position="4.0000502,-246.00005"
       id="guide3847" />
    <sodipodi:guide
       orientation="0.70710594,0.70710762"
       position="5.0000502,-245.00005"
       id="guide3849" />
    <sodipodi:guide
       orientation="-0.70710681,0.70710676"
       position="7.0000502,-212.00005"
       id="guide3851" />
  </sodipodi:namedview>
  <defs
     id="defs13096" />
  <metadata
     id="metadata13099">
    <rdf:RDF>
      <cc:Work
         rdf:about="">
        <dc:format>image/svg+xml</dc:format>
        <dc:type
           rdf:resource="http://purl.org/dc/dcmitype/StillImage" />
        <dc:title />
      </cc:Work>
    </rdf:RDF>
  </metadata>
  <g
     transform="translate(9379.308,-4843.1988)"
     id="layer1"
     inkscape:groupmode="layer"
     inkscape:label="Camada 1">
    <path
       style="fill:#212121;fill-opacity:1;fill-rule:nonzero;stroke:none"
       d="M 3 0 L 3 2 L 2 2 L 0 2 L 0 3 L 2 3 L 2 4 L 0 4 L 0 5 L 2 5 L 2 6 L 0 6 L 0 7 L 2 7 L 2 8 L 0 8 L 0 9 L 2 9 L 2 10 L 0 10 L 0 11 L 2 11 L 2 12 L 0 12 L 0 13 L 2 13 L 2 14 L 2 16 L 3 16 L 3 14 L 4 14 L 4 16 L 5 16 L 5 14 L 6 14 L 6 16 L 7 16 L 7 14 L 8 14 L 8 16 L 9 16 L 9 14 L 10 14 L 10 16 L 11 16 L 11 14 L 12 14 L 12 16 L 13 16 L 13 14 L 14 14 L 16 14 L 16 13 L 14 13 L 14 12 L 16 12 L 16 11 L 14 11 L 14 10 L 16 10 L 16 9 L 14 9 L 14 8 L 16 8 L 16 7 L 14 7 L 14 6 L 16 6 L 16 5 L 14 5 L 14 4 L 16 4 L 16 3 L 14 3 L 14 2 L 14 0 L 13 0 L 13 2 L 12 2 L 12 0 L 11 0 L 11 2 L 10 2 L 10 0 L 9 0 L 9 2 L 8 2 L 8 0 L 7 0 L 7 2 L 6 2 L 6 0 L 5 0 L 5 2 L 4 2 L 4 0 L 3 0 z M 8.5625 3.0625 L 10.1875 3.96875 L 10.21875 4.78125 C 10.21875 4.78125 10.81375 6.0241 11.78125 8 C 12.48205 10.9809 9.375 11.1875 9.375 11.1875 C 9.375 11.1875 8.2339 11.04695 9 10.65625 C 9.8623 10.21655 11.0676 9.36815 10.5 8.15625 C 9.2336 6.59745 9.15625 5.40625 9.15625 5.40625 L 8 9.90625 C 7.3755 12.71625 5.95115 12.8922 5.03125 12.5 C 2.73015 11.8371 4.33045 7.84265 6.53125 9.84375 L 8.5625 3.0625 z "
       transform="translate(-9379.308,4843.1988)"
       id="rect3032" />
  </g>
</svg>
