<?xml version="1.0" encoding="UTF-8" standalone="no"?>
<!-- Created with Inkscape (http://www.inkscape.org/) -->

<svg
   xmlns:dc="http://purl.org/dc/elements/1.1/"
   xmlns:cc="http://creativecommons.org/ns#"
   xmlns:rdf="http://www.w3.org/1999/02/22-rdf-syntax-ns#"
   xmlns:svg="http://www.w3.org/2000/svg"
   xmlns="http://www.w3.org/2000/svg"
   xmlns:sodipodi="http://sodipodi.sourceforge.net/DTD/sodipodi-0.dtd"
   xmlns:inkscape="http://www.inkscape.org/namespaces/inkscape"
   width="16"
   height="16"
   id="svg3434"
   version="1.1"
   inkscape:version="0.48.4 r9939"
   sodipodi:docname="drive-harddisk-symbolic.svg">
  <defs
     id="defs3436" />
  <sodipodi:namedview
     id="base"
     pagecolor="#ffffff"
     bordercolor="#666666"
     borderopacity="1.0"
     inkscape:pageopacity="0.0"
     inkscape:pageshadow="2"
     inkscape:zoom="16"
     inkscape:cx="-1.9404888"
     inkscape:cy="9.7455474"
     inkscape:document-units="px"
     inkscape:current-layer="g3026"
     showgrid="true"
     inkscape:snap-global="true"
     inkscape:window-width="1301"
     inkscape:window-height="744"
     inkscape:window-x="65"
     inkscape:window-y="24"
     inkscape:window-maximized="1"
     fit-margin-top="0"
     fit-margin-left="0"
     fit-margin-right="0"
     fit-margin-bottom="0">
    <inkscape:grid
       type="xygrid"
       id="grid3564"
       empspacing="5"
       visible="true"
       enabled="true"
       snapvisiblegridlinesonly="true"
       originx="-1px"
       originy="-1.0000021px" />
  </sodipodi:namedview>
  <metadata
     id="metadata3439">
    <rdf:RDF>
      <cc:Work
         rdf:about="">
        <dc:format>image/svg+xml</dc:format>
        <dc:type
           rdf:resource="http://purl.org/dc/dcmitype/StillImage" />
        <dc:title />
      </cc:Work>
    </rdf:RDF>
  </metadata>
  <g
     inkscape:label="Camada 1"
     inkscape:groupmode="layer"
     id="device-notifier"
     transform="translate(-1,-1035.3622)">
    <g
       id="g3026"
       inkscape:label="#device">
      <path
         style="color:#000000;fill:#212121;fill-opacity:1;fill-rule:nonzero;stroke:none;stroke-width:1;marker:none;visibility:visible;display:inline;overflow:visible;enable-background:accumulate"
         d="m 1,0 0,16 14,0 0,-16 z m 6.90625,2 c 0.3321779,-0.00603 0.6606285,0.030704 1,0.09375 2.714972,0.5043677 4.504368,3.0975277 4,5.8125 -0.02378,0.1280271 -0.0288,0.2492195 -0.0625,0.375 L 9.9375,7.5 C 9.9786042,7.3402409 10,7.172589 10,7 10,5.8954306 9.1045694,5 8,5 6.8954306,5 6,5.8954306 6,7 6,7.9770566 6.6987458,8.7939673 7.625,8.96875 l -0.53125,2.9375 C 4.3787777,11.401882 2.5893823,8.8087223 3.09375,6.09375 3.5350717,3.7181493 5.5810048,2.0422412 7.90625,2 z M 8,7 l 4,4 0,2 -2,0 z m -6,5 2,0 0,2 -2,0 z"
         transform="translate(1,1035.3622)"
         id="rect3765"
         inkscape:connector-curvature="0"
         sodipodi:nodetypes="cccccsssccsssccsscccccccccc" />
    </g>
  </g>
</svg>
