<?xml version="1.0" encoding="UTF-8" standalone="no"?>
<!-- Created with Inkscape (http://www.inkscape.org/) -->

<svg
   xmlns:dc="http://purl.org/dc/elements/1.1/"
   xmlns:cc="http://creativecommons.org/ns#"
   xmlns:rdf="http://www.w3.org/1999/02/22-rdf-syntax-ns#"
   xmlns:svg="http://www.w3.org/2000/svg"
   xmlns="http://www.w3.org/2000/svg"
   xmlns:sodipodi="http://sodipodi.sourceforge.net/DTD/sodipodi-0.dtd"
   xmlns:inkscape="http://www.inkscape.org/namespaces/inkscape"
   width="22"
   height="22"
   id="svg13094"
   version="1.1"
   inkscape:version="0.48.4 r9939"
   sodipodi:docname="audio-card.svg">
  <sodipodi:namedview
     id="base"
     pagecolor="#ffffff"
     bordercolor="#666666"
     borderopacity="1.0"
     inkscape:pageopacity="0.0"
     inkscape:pageshadow="2"
     inkscape:zoom="32"
     inkscape:cx="4.808773"
     inkscape:cy="10.224527"
     inkscape:document-units="px"
     inkscape:current-layer="layer1"
     showgrid="true"
     inkscape:snap-bbox="true"
     inkscape:bbox-paths="true"
     inkscape:bbox-nodes="true"
     inkscape:snap-bbox-edge-midpoints="true"
     inkscape:snap-bbox-midpoints="true"
     inkscape:object-paths="true"
     inkscape:snap-intersection-paths="true"
     inkscape:object-nodes="true"
     inkscape:snap-smooth-nodes="true"
     inkscape:snap-midpoints="true"
     inkscape:snap-object-midpoints="true"
     inkscape:snap-center="true"
     showguides="false"
     inkscape:guide-bbox="true"
     inkscape:window-width="1301"
     inkscape:window-height="744"
     inkscape:window-x="65"
     inkscape:window-y="24"
     inkscape:window-maximized="1"
     inkscape:snap-global="true"
     fit-margin-top="0"
     fit-margin-left="0"
     fit-margin-right="0"
     fit-margin-bottom="0"
     showborder="true"
     inkscape:showpageshadow="false">
    <sodipodi:guide
       orientation="0,1"
       position="-25.000005,930.61286"
       id="guide4700" />
    <sodipodi:guide
       orientation="0,1"
       position="576.71887,328.89388"
       id="guide4702" />
    <sodipodi:guide
       orientation="1,0"
       position="576.71899,489.70395"
       id="guide4706" />
    <sodipodi:guide
       orientation="1,0"
       position="54.999996,930.61286"
       id="guide4708" />
    <sodipodi:guide
       orientation="0,1"
       position="-25.000005,850.61296"
       id="guide4710" />
    <sodipodi:guide
       orientation="0,1"
       position="536.71887,408.8938"
       id="guide4712" />
    <sodipodi:guide
       orientation="1,0"
       position="496.71887,408.8938"
       id="guide4714" />
    <inkscape:grid
       type="xygrid"
       id="grid3216"
       empspacing="5"
       visible="true"
       enabled="true"
       snapvisiblegridlinesonly="true"
       originx="-24.999951px"
       originy="-219.00005px" />
    <sodipodi:guide
       orientation="-0.70710664,0.70710692"
       position="4.0000502,-246.00005"
       id="guide3847" />
    <sodipodi:guide
       orientation="0.70710594,0.70710762"
       position="5.0000502,-245.00005"
       id="guide3849" />
    <sodipodi:guide
       orientation="-0.70710681,0.70710676"
       position="7.0000502,-212.00005"
       id="guide3851" />
  </sodipodi:namedview>
  <defs
     id="defs13096" />
  <metadata
     id="metadata13099">
    <rdf:RDF>
      <cc:Work
         rdf:about="">
        <dc:format>image/svg+xml</dc:format>
        <dc:type
           rdf:resource="http://purl.org/dc/dcmitype/StillImage" />
        <dc:title />
      </cc:Work>
    </rdf:RDF>
  </metadata>
  <g
     transform="translate(9379.308,-4837.1988)"
     id="layer1"
     inkscape:groupmode="layer"
     inkscape:label="Camada 1">
    <path
       style="fill:#bdbdbd;fill-opacity:1;fill-rule:nonzero;stroke:none;opacity:1"
       d="M 5,4 5,6 4,6 2,6 2,7 4,7 4,8 2,8 l 0,1 2,0 0,1 -2,0 0,1 2,0 0,1 -2,0 0,1 2,0 0,1 -2,0 0,1 2,0 0,1 -2,0 0,1 2,0 0,1 -2,0 0,1 2,0 0,1 0,2 1,0 0,-2 1,0 0,2 1,0 0,-2 1,0 0,2 1,0 0,-2 1,0 0,2 1,0 0,-2 1,0 0,2 1,0 0,-2 1,0 0,2 1,0 0,-2 1,0 0,2 1,0 0,-2 1,0 2,0 0,-1 -2,0 0,-1 2,0 0,-1 -2,0 0,-1 2,0 0,-1 -2,0 0,-1 2,0 0,-1 -2,0 0,-1 2,0 0,-1 -2,0 0,-1 2,0 0,-1 -2,0 0,-1 2,0 0,-1 -2,0 0,-1 0,-2 -1,0 0,2 -1,0 0,-2 -1,0 0,2 -1,0 0,-2 -1,0 0,2 -1,0 0,-2 -1,0 0,2 L 10,6 10,4 9,4 9,6 8,6 8,4 7,4 7,6 6,6 6,4 5,4 z m 6.5625,4.0625 1.625,0.90625 0.03125,0.8125 c 0,0 0.595,1.24285 1.5625,3.21875 0.7008,2.9809 -2.40625,3.1875 -2.40625,3.1875 0,0 -1.1411,-0.14055 -0.375,-0.53125 0.8623,-0.4397 2.0676,-1.2879 1.5,-2.5 -1.2664,-1.5588 -1.34375,-2.75 -1.34375,-2.75 L 11,14.90625 C 10.3755,17.71635 9.3887,18.111 8,18 4.3239,17.3371 6.17415,12.65515 9.53125,14.84375 L 11.5625,8.0625 z"
       transform="translate(-9379.308,4835.1988)"
       id="rect3032"
       inkscape:connector-curvature="0" />
  </g>
</svg>
