<?xml version="1.0" encoding="UTF-8" standalone="no"?>
<!-- Created with Inkscape (http://www.inkscape.org/) -->
<svg id="svg3229" xmlns:rdf="http://www.w3.org/1999/02/22-rdf-syntax-ns#" xmlns="http://www.w3.org/2000/svg" height="16" width="16" version="1.0" xmlns:cc="http://creativecommons.org/ns#" xmlns:dc="http://purl.org/dc/elements/1.1/">
 <metadata id="metadata9">
  <rdf:RDF>
   <cc:Work rdf:about="">
    <dc:format>image/svg+xml</dc:format>
    <dc:type rdf:resource="http://purl.org/dc/dcmitype/StillImage"/>
    <dc:title/>
   </cc:Work>
  </rdf:RDF>
 </metadata>
 <path id="path3683-5" style="opacity:.3;stroke-width:1.36;stroke:#fff;stroke-linecap:round;fill:none" d="m0.68 6.5155s2.3182-2.6355 7.3056-2.6355c4.9628 0 7.3344 2.64 7.3344 2.64"/>
 <path id="path3683" style="stroke-width:1.36;stroke:#3c3c3c;stroke-linecap:round;fill:none" d="m0.68 5.7155s2.3182-2.6355 7.3056-2.6355c4.9624 0 7.3344 2.64 7.3344 2.64"/>
 <path id="path3681-0" style="opacity:.3;stroke-width:1.36;stroke:#fff;stroke-linecap:round;fill:none" d="m2.68 8.6021s1.7175-1.7726 5.32-1.7095c3.632 0.0635 5.32 1.738 5.32 1.738"/>
 <path id="path3681" style="stroke-width:1.36;stroke:#3c3c3c;stroke-linecap:round;fill:none" d="m2.68 7.8021s1.7175-1.7726 5.32-1.7095c3.632 0.0635 5.32 1.738 5.32 1.738"/>
 <path id="path3209-5" style="opacity:.3;stroke-width:1.36;stroke:#fff;stroke-linecap:round;fill:none" d="m5.08 10.553s0.77352-0.85759 2.8789-0.87377c2.0791-0.0161 2.9611 0.8738 2.9611 0.8738"/>
 <path id="path3209" style="stroke-width:1.36;stroke:#3c3c3c;stroke-linecap:round;fill:none" d="m5.08 9.7528s0.77352-0.85759 2.8789-0.87377c2.0791-0.0159 2.9611 0.8738 2.9611 0.8738"/>
 <path id="path3196-5-7" style="opacity:.3;fill-rule:evenodd;fill:#fff" d="m7.3161 12c-0.37752 0-0.68392 0.23893-0.68392 0.53333 0 0.10941 0.04232 0.21115 0.11487 0.29582l0.80608 0.64115c0.11989 0.0808 0.27611 0.12969 0.44688 0.12969 0.20264 0 0.38479-0.06884 0.51006-0.17815l0.72073-0.56832c0.086033-0.08919 0.13704-0.20008 0.13704-0.32019 0-0.294-0.3064-0.533-0.6839-0.533h-1.3678z"/>
 <path id="path3196-5" style="fill-rule:evenodd;fill:#3c3c3c" d="m7.3161 11.2c-0.37752 0-0.68392 0.23893-0.68392 0.53333 0 0.10941 0.04232 0.21115 0.11487 0.29582l0.80608 0.64115c0.11989 0.0808 0.27611 0.12969 0.44688 0.12969 0.20264 0 0.38479-0.06884 0.51006-0.17815l0.72073-0.56832c0.086033-0.08919 0.13704-0.20008 0.13704-0.32019 0-0.2944-0.30639-0.53333-0.68392-0.53333h-1.3678z"/>
</svg>
