<?xml version="1.0" encoding="UTF-8" standalone="no"?>
<!-- Created with Inkscape (http://www.inkscape.org/) -->

<svg
   xmlns:dc="http://purl.org/dc/elements/1.1/"
   xmlns:cc="http://creativecommons.org/ns#"
   xmlns:rdf="http://www.w3.org/1999/02/22-rdf-syntax-ns#"
   xmlns:svg="http://www.w3.org/2000/svg"
   xmlns="http://www.w3.org/2000/svg"
   xmlns:sodipodi="http://sodipodi.sourceforge.net/DTD/sodipodi-0.dtd"
   xmlns:inkscape="http://www.inkscape.org/namespaces/inkscape"
   width="24"
   height="24"
   id="svg27665"
   version="1.1"
   inkscape:version="0.48.4 r9939"
   sodipodi:docname="accessories-dictionary.svg">
  <defs
     id="defs27667" />
  <sodipodi:namedview
     id="base"
     pagecolor="#ffffff"
     bordercolor="#666666"
     borderopacity="1.0"
     inkscape:pageopacity="0.0"
     inkscape:pageshadow="2"
     inkscape:zoom="32.000001"
     inkscape:cx="9.8756192"
     inkscape:cy="12.196717"
     inkscape:document-units="px"
     inkscape:current-layer="layer1"
     showgrid="true"
     inkscape:window-width="1301"
     inkscape:window-height="744"
     inkscape:window-x="65"
     inkscape:window-y="24"
     inkscape:window-maximized="1"
     inkscape:snap-bbox="true"
     inkscape:bbox-paths="true"
     inkscape:bbox-nodes="true"
     inkscape:snap-bbox-edge-midpoints="true"
     inkscape:snap-bbox-midpoints="true"
     inkscape:object-paths="true"
     inkscape:snap-intersection-paths="true"
     inkscape:object-nodes="true"
     inkscape:snap-smooth-nodes="true"
     inkscape:snap-midpoints="true"
     inkscape:snap-object-midpoints="true"
     inkscape:snap-center="true"
     inkscape:snap-global="true"
     showguides="false"
     inkscape:guide-bbox="true"
     fit-margin-top="0"
     fit-margin-left="0"
     fit-margin-right="0"
     fit-margin-bottom="0"
     inkscape:showpageshadow="false">
    <inkscape:grid
       type="xygrid"
       id="grid3469"
       empspacing="5"
       visible="true"
       enabled="true"
       snapvisiblegridlinesonly="true"
       originx="1.4067697e-05px"
       originy="719.00003px" />
    <sodipodi:guide
       orientation="1,0"
       position="11.000014,19.000035"
       id="guide3782" />
    <sodipodi:guide
       orientation="0,1"
       position="19.000014,30.000035"
       id="guide3784" />
  </sodipodi:namedview>
  <metadata
     id="metadata27670">
    <rdf:RDF>
      <cc:Work
         rdf:about="">
        <dc:format>image/svg+xml</dc:format>
        <dc:type
           rdf:resource="http://purl.org/dc/dcmitype/StillImage" />
        <dc:title />
      </cc:Work>
    </rdf:RDF>
  </metadata>
  <g
     inkscape:label="Camada 1"
     inkscape:groupmode="layer"
     id="layer1"
     transform="translate(1356.2085,-1752.6912)">
    <path
       style="color:#000000;fill:#e53935;fill-opacity:1;fill-rule:nonzero;stroke:none;stroke-width:3.36001491999999979;marker:none;visibility:visible;display:inline;overflow:visible;enable-background:accumulate"
       d="m -1352.2085,1755.6912 0,18 16,0 0,-16 -14,0 0,-1 14,0 0,-1 z m 7.3377,6 1.361,0 2.0599,5.8118 0.184,0.3679 0.1471,0.2207 0.2207,0.1106 0.2207,0.037 0.1839,0 0,0.515 -3.2737,0 0,-0.515 0.3678,0 0.1839,-0.037 0.1106,-0.073 0.1107,-0.1107 0.036,-0.1838 -0.036,-0.2208 -0.036,-0.1839 -0.3679,-0.9931 -2.391,0 -0.2943,0.8459 -0.073,0.2943 -0.036,0.2576 0.036,0.1838 0.1106,0.1107 0.1107,0.073 0.1839,0.037 0.4046,0 0,0.515 -2.5749,0 0,-0.515 0.1472,0 0.2207,-0.037 0.1839,-0.1106 0.1839,-0.2207 0.184,-0.3679 z m 0.331,1.0299 -0.073,0.3312 -0.1472,0.3678 -0.1106,0.3678 -0.1472,0.3679 -0.5885,1.6552 2.0231,0 -0.515,-1.6185 -0.1107,-0.331 -0.1106,-0.4047 -0.1107,-0.3678 z"
       id="rect3016"
       inkscape:connector-curvature="0"
       sodipodi:nodetypes="cccccccccccccccccccccccccccccccccccccccccccccccccccccccccc" />
  </g>
</svg>
