<?xml version="1.0" encoding="UTF-8" standalone="no"?>
<!-- Created with Inkscape (http://www.inkscape.org/) -->

<svg
   xmlns:dc="http://purl.org/dc/elements/1.1/"
   xmlns:cc="http://creativecommons.org/ns#"
   xmlns:rdf="http://www.w3.org/1999/02/22-rdf-syntax-ns#"
   xmlns:svg="http://www.w3.org/2000/svg"
   xmlns="http://www.w3.org/2000/svg"
   xmlns:sodipodi="http://sodipodi.sourceforge.net/DTD/sodipodi-0.dtd"
   xmlns:inkscape="http://www.inkscape.org/namespaces/inkscape"
   sodipodi:docname="distributor-logo-fedora.svg"
   inkscape:version="0.48.4 r9939"
   version="1.1"
   id="svg13094"
   height="24"
   width="24">
  <sodipodi:namedview
     id="base"
     pagecolor="#ffffff"
     bordercolor="#666666"
     borderopacity="1.0"
     inkscape:pageopacity="0.0"
     inkscape:pageshadow="2"
     inkscape:zoom="23.427508"
     inkscape:cx="3.3910807"
     inkscape:cy="8.9081654"
     inkscape:document-units="px"
     inkscape:current-layer="layer1"
     showgrid="true"
     inkscape:snap-bbox="true"
     inkscape:bbox-paths="true"
     inkscape:bbox-nodes="true"
     inkscape:snap-bbox-edge-midpoints="true"
     inkscape:snap-bbox-midpoints="true"
     inkscape:object-paths="true"
     inkscape:snap-intersection-paths="true"
     inkscape:object-nodes="true"
     inkscape:snap-smooth-nodes="true"
     inkscape:snap-midpoints="true"
     inkscape:snap-object-midpoints="true"
     inkscape:snap-center="true"
     showguides="false"
     inkscape:guide-bbox="true"
     inkscape:window-width="1301"
     inkscape:window-height="744"
     inkscape:window-x="65"
     inkscape:window-y="24"
     inkscape:window-maximized="1"
     inkscape:snap-global="true"
     fit-margin-top="0"
     fit-margin-left="0"
     fit-margin-right="0"
     fit-margin-bottom="0"
     showborder="true"
     inkscape:showpageshadow="false">
    <sodipodi:guide
       orientation="0,1"
       position="7904.3893,1688.6364"
       id="guide16149" />
    <sodipodi:guide
       orientation="0,1"
       position="7677.2464,1639.6277"
       id="guide16151" />
    <sodipodi:guide
       orientation="0,1"
       position="7742.9606,1664.132"
       id="guide16153" />
    <sodipodi:guide
       orientation="0,1"
       position="7736.5321,1583.9848"
       id="guide17725" />
    <sodipodi:guide
       orientation="1,0"
       position="8234.0303,1192.115"
       id="guide9456" />
    <sodipodi:guide
       orientation="0,1"
       position="8058.2804,1557.1639"
       id="guide9458" />
    <sodipodi:guide
       orientation="0,1"
       position="7829.5106,1502.2585"
       id="guide9468" />
    <sodipodi:guide
       orientation="0,1"
       position="7854.0304,1523.6285"
       id="guide9470" />
    <sodipodi:guide
       orientation="1,0"
       position="7722.0304,1237.629"
       id="guide11159" />
    <sodipodi:guide
       orientation="1,0"
       position="8035.0616,1501.6635"
       id="guide13980" />
    <sodipodi:guide
       id="guide3972"
       position="6181.0305,126.62899"
       orientation="0,1" />
    <sodipodi:guide
       id="guide3974"
       position="6361.0305,-1.3710498"
       orientation="1,0" />
    <sodipodi:guide
       id="guide3976"
       position="6055.0305,-236.37095"
       orientation="0,1" />
    <sodipodi:guide
       id="guide3978"
       position="6028.0305,-95.37105"
       orientation="1,0" />
    <sodipodi:guide
       id="guide4287"
       position="1377.8013,1369.629"
       orientation="1,0" />
    <sodipodi:guide
       id="guide4289"
       position="1377.8013,1369.629"
       orientation="0,1" />
    <inkscape:grid
       type="xygrid"
       id="grid3918"
       empspacing="5"
       visible="true"
       enabled="true"
       snapvisiblegridlinesonly="true"
       originx="0.00017297285px"
       originy="71.999982px" />
  </sodipodi:namedview>
  <defs
     id="defs13096" />
  <metadata
     id="metadata13099">
    <rdf:RDF>
      <cc:Work
         rdf:about="">
        <dc:format>image/svg+xml</dc:format>
        <dc:type
           rdf:resource="http://purl.org/dc/dcmitype/StillImage" />
        <dc:title />
      </cc:Work>
    </rdf:RDF>
  </metadata>
  <g
     inkscape:label="Camada 1"
     inkscape:groupmode="layer"
     id="layer1"
     transform="translate(9368.675,-1536.5613)">
    <path
       style="color:#000000;fill:#0d47a1;fill-opacity:1;fill-rule:nonzero;stroke:none;stroke-width:0.07727949000000001;marker:none;visibility:visible;display:inline;overflow:visible;enable-background:accumulate"
       d="M 12.512218,1 C 6.7199766,1 2.0244367,5.6955398 2.0244367,11.487782 l 0,7.627477 c 0,1.579685 1.2806187,2.860304 2.8603041,2.860304 l 7.6274772,0 C 18.30446,21.975563 23,17.280023 23,11.487782 23,5.6955398 18.30446,1 12.512218,1 z M 15.5,4 c 0.300127,0 0.594688,0.031892 0.875,0.09375 0.01002,0.00198 0.02126,-0.00205 0.03125,0 0.204838,0.046625 0.397965,0.1176389 0.59375,0.1875 1.741531,0.6211209 3,2.2638876 3,4.21875 0,2.313522 -1.753902,4.185114 -4,4.4375 l 0,0.03125 C 15.8371,12.98975 15.6695,13 15.5,13 l -2.5,0 0,2 0,0.5 -0.0625,0.5 c -0.2524,2.2461 -2.124,4 -4.4375,4 -0.3000706,0 -0.5946802,-0.03191 -0.875,-0.09375 -0.00986,-0.0022 -0.021414,0.0022 -0.03125,0 C 7.3865122,19.863844 7.1957913,19.788579 7,19.71875 5.2584693,19.097629 4,17.454862 4,15.5 4,13.186478 5.753902,11.314886 8,11.0625 L 8,11.03125 C 8.163,11.01025 8.3305,11 8.5,11 L 11,11 11,9 11,8.5 11.0625,8 C 11.28335,6.0346625 12.744699,4.4601658 14.65625,4.09375 14.929329,4.0414049 15.210812,4 15.5,4 z m 0,2 c -0.345175,0 -0.669655,0.060992 -0.96875,0.1875 -0.149548,0.063254 -0.304499,0.1601459 -0.4375,0.25 C 13.694747,6.7070623 13.377262,7.082607 13.1875,7.53125 13.060992,7.8303453 13.034346,8.156538 13,8.5 l 0,2.5 2.5,0 C 15.672588,11 15.837257,10.9708 16,10.9375 17.139202,10.704382 18,9.7081125 18,8.5 18,7.6784835 17.611808,6.95572 17,6.5 16.9602,6.470349 16.91671,6.433641 16.875,6.40625 16.80774,6.362383 16.727791,6.318605 16.65625,6.28125 16.59164,6.247177 16.536615,6.216088 16.46875,6.1875 16.45945,6.18356 16.44686,6.19133 16.4375,6.1875 16.296398,6.1298395 16.152614,6.0937298 16,6.0625 15.837257,6.0291975 15.672588,6 15.5,6 z m -7,7 C 8.3272,13 8.164,13.0285 8,13.0625 6.8607979,13.295618 6,14.291887 6,15.5 c 0,0.821517 0.3881919,1.54428 1,2 0.017762,0.01323 0.044351,0.01846 0.0625,0.03125 0.023362,0.0164 0.03856,0.04689 0.0625,0.0625 0.1077479,0.07074 0.2248079,0.133287 0.34375,0.1875 0.020417,0.0093 0.041793,0.02249 0.0625,0.03125 0.00922,0.0039 0.021978,-0.0038 0.03125,0 C 7.7036016,17.87016 7.8473861,17.90627 8,17.9375 8.1627432,17.970803 8.3274125,18 8.5,18 9.8807,18 11.137385,16.873848 11,15.5 L 11,13 z"
       transform="translate(-9368.675,1536.5613)"
       id="path3862"
       inkscape:connector-curvature="0"
       sodipodi:nodetypes="sssssssscccsccsccccsccssccsccccssssssscsssccccsssscsccccccssscs" />
    <path
       id="path3051"
       inkscape:connector-curvature="0"
       d="m -9346.6496,1558.5815 c 0,0 0,-0.4156 0,-0.4156 l -0.1899,0.4356 c 0,0 -0.1849,-0.4356 -0.1849,-0.4356 l 0,0.4156 -0.1066,0 0,-0.6562 0.1118,0 c 0,0 0.1828,0.4192 0.1828,0.4192 l 0.1801,-0.4192 0.1131,0 0,0.6562 -0.1064,0 z m -0.7762,-0.5463 0,0.5463 -0.1114,0 0,-0.5463 -0.1867,0 0,-0.1099 0.4846,0 0,0.1099"
       style="color:#000000;fill:#0d47a1;fill-opacity:1;fill-rule:nonzero;stroke:none;stroke-width:2;marker:none;visibility:visible;display:inline;overflow:visible;enable-background:accumulate" />
    <path
       style="color:#000000;fill:#2196f3;fill-opacity:1;fill-rule:nonzero;stroke:none;stroke-width:2;marker:none;visibility:visible;display:inline;overflow:visible;enable-background:accumulate"
       d="M 17,4.28125 17,6.5 c 0.611808,0.45572 1,1.1784835 1,2 0,1.2081125 -0.860798,2.204382 -2,2.4375 l 0,2 C 18.246098,12.685114 20,10.813522 20,8.5 20,6.5451376 18.741531,4.9023709 17,4.28125 z M 15.5,6 C 15.672587,6 15.837257,6.0291975 16,6.0625 15.836018,6.0283054 15.672787,6 15.5,6 z M 16,6.0625 c 0.152614,0.03123 0.296398,0.06734 0.4375,0.125 C 16.297953,6.1306517 16.150443,6.0938713 16,6.0625 z m -8,5 C 5.753902,11.314886 4,13.186478 4,15.5 c 0,1.954862 1.2584693,3.597629 3,4.21875 L 7,17.5 C 6.3881919,17.04428 6,16.321516 6,15.5 6,14.291888 6.8607979,13.295618 8,13.0625 z m -0.4375,6.75 C 7.7020435,17.869348 7.8495666,17.906129 8,17.9375 7.8473861,17.90627 7.7036016,17.87016 7.5625,17.8125 z M 8,17.9375 C 8.1639718,17.971695 8.3272135,18 8.5,18 8.3274125,18 8.1627432,17.970803 8,17.9375 z"
       transform="translate(-9368.675,1536.5613)"
       id="path3872"
       inkscape:connector-curvature="0"
       sodipodi:nodetypes="ccsccsccccccccsccscccccccc" />
  </g>
</svg>
