<?xml version="1.0" encoding="UTF-8" standalone="no"?>
<!-- Created with Inkscape (http://www.inkscape.org/) -->

<svg
   xmlns:dc="http://purl.org/dc/elements/1.1/"
   xmlns:cc="http://creativecommons.org/ns#"
   xmlns:rdf="http://www.w3.org/1999/02/22-rdf-syntax-ns#"
   xmlns:svg="http://www.w3.org/2000/svg"
   xmlns="http://www.w3.org/2000/svg"
   xmlns:sodipodi="http://sodipodi.sourceforge.net/DTD/sodipodi-0.dtd"
   xmlns:inkscape="http://www.inkscape.org/namespaces/inkscape"
   sodipodi:docname="docky.svg"
   inkscape:version="0.48.4 r9939"
   version="1.1"
   id="svg13094"
   height="24"
   width="24">
  <sodipodi:namedview
     id="base"
     pagecolor="#ffffff"
     bordercolor="#666666"
     borderopacity="1.0"
     inkscape:pageopacity="0.0"
     inkscape:pageshadow="2"
     inkscape:zoom="46.855018"
     inkscape:cx="7.2651245"
     inkscape:cy="11.04685"
     inkscape:document-units="px"
     inkscape:current-layer="layer1"
     showgrid="true"
     inkscape:snap-bbox="true"
     inkscape:bbox-paths="true"
     inkscape:bbox-nodes="true"
     inkscape:snap-bbox-edge-midpoints="true"
     inkscape:snap-bbox-midpoints="true"
     inkscape:object-paths="true"
     inkscape:snap-intersection-paths="true"
     inkscape:object-nodes="true"
     inkscape:snap-smooth-nodes="true"
     inkscape:snap-midpoints="true"
     inkscape:snap-object-midpoints="true"
     inkscape:snap-center="true"
     showguides="false"
     inkscape:guide-bbox="true"
     inkscape:window-width="1301"
     inkscape:window-height="744"
     inkscape:window-x="65"
     inkscape:window-y="24"
     inkscape:window-maximized="1"
     inkscape:snap-global="true"
     fit-margin-top="0"
     fit-margin-left="0"
     fit-margin-right="0"
     fit-margin-bottom="0"
     showborder="true"
     inkscape:showpageshadow="false">
    <sodipodi:guide
       orientation="0,1"
       position="7904.3893,1688.6364"
       id="guide16149" />
    <sodipodi:guide
       orientation="0,1"
       position="7677.2464,1639.6277"
       id="guide16151" />
    <sodipodi:guide
       orientation="0,1"
       position="7742.9606,1664.132"
       id="guide16153" />
    <sodipodi:guide
       orientation="0,1"
       position="7736.5321,1583.9848"
       id="guide17725" />
    <sodipodi:guide
       orientation="1,0"
       position="8234.0303,1192.115"
       id="guide9456" />
    <sodipodi:guide
       orientation="0,1"
       position="8058.2804,1557.1639"
       id="guide9458" />
    <sodipodi:guide
       orientation="0,1"
       position="7829.5106,1502.2585"
       id="guide9468" />
    <sodipodi:guide
       orientation="0,1"
       position="7854.0304,1523.6285"
       id="guide9470" />
    <sodipodi:guide
       orientation="1,0"
       position="7722.0304,1237.629"
       id="guide11159" />
    <sodipodi:guide
       orientation="1,0"
       position="8035.0616,1501.6635"
       id="guide13980" />
    <sodipodi:guide
       id="guide3972"
       position="6181.0305,126.62899"
       orientation="0,1" />
    <sodipodi:guide
       id="guide3974"
       position="6361.0305,-1.3710498"
       orientation="1,0" />
    <sodipodi:guide
       id="guide3976"
       position="6055.0305,-236.37095"
       orientation="0,1" />
    <sodipodi:guide
       id="guide3978"
       position="6028.0305,-95.37105"
       orientation="1,0" />
    <sodipodi:guide
       id="guide4287"
       position="1377.8013,1369.629"
       orientation="1,0" />
    <sodipodi:guide
       id="guide4289"
       position="1377.8013,1369.629"
       orientation="0,1" />
    <inkscape:grid
       type="xygrid"
       id="grid3918"
       empspacing="5"
       visible="true"
       enabled="true"
       snapvisiblegridlinesonly="true"
       originx="0.00017297285px"
       originy="71.999982px" />
  </sodipodi:namedview>
  <defs
     id="defs13096" />
  <metadata
     id="metadata13099">
    <rdf:RDF>
      <cc:Work
         rdf:about="">
        <dc:format>image/svg+xml</dc:format>
        <dc:type
           rdf:resource="http://purl.org/dc/dcmitype/StillImage" />
        <dc:title />
      </cc:Work>
    </rdf:RDF>
  </metadata>
  <g
     inkscape:label="Camada 1"
     inkscape:groupmode="layer"
     id="layer1"
     transform="translate(9368.675,-1536.5613)">
    <path
       style="color:#000000;fill:#1976d2;fill-opacity:1;fill-rule:nonzero;stroke:none;stroke-width:2;marker:none;visibility:visible;display:inline;overflow:visible;enable-background:accumulate"
       d="m -9356.675,1539.5613 c -1.6553,0 -3,1.3447 -3,3 0,1.3 0.8427,2.3974 2,2.8125 -2e-4,0.4908 0,1.004 0,1.1875 l -3,0 0,2 3,0 0,5.1875 c -0.7863,0.2715 -1.5713,-0.2154 -2.3125,-0.4375 -0.7701,-0.3624 -1.6478,-0.6627 -2.25,-1.2812 -0.3063,-0.6382 0.4012,-0.3893 0.625,-0.5 -0.038,-1.078 -1.2645,-1.4336 -1.9062,-2.0938 -0.6621,-1.1307 -1.0463,0.8261 -1.125,1.375 -0.065,0.7326 -0.084,3.029 0.625,3.25 0.5498,-0.9004 1.486,-0.074 2,0.4063 1.0918,0.8638 2.4449,1.3048 3.7187,1.8125 0.616,0.1952 1.2518,0.934 1.625,1.1875 0.3732,-0.2535 1.009,-0.9923 1.625,-1.1875 1.2738,-0.5077 2.6269,-0.9487 3.7188,-1.8125 0.5139,-0.4803 1.4501,-1.3067 2,-0.4063 0.709,-0.221 0.69,-2.5174 0.625,-3.25 -0.079,-0.5489 -0.463,-2.5057 -1.125,-1.375 -0.6417,0.6602 -1.8683,1.0158 -1.9063,2.0938 0.2238,0.1107 0.9313,-0.1382 0.625,0.5 -0.6022,0.6185 -1.4799,0.9188 -2.25,1.2812 -0.7412,0.2221 -1.5262,0.709 -2.3125,0.4375 l 0,-5.1875 3,0 0,-2 -3,0 c 0,-0.1835 2e-4,-0.6967 0,-1.1875 1.1573,-0.4151 2,-1.5125 2,-2.8125 0,-1.6553 -1.3447,-3 -3,-3 z m 0,2 c 0.5593,0 1,0.4406 1,1 0,0.5592 -0.4407,1 -1,1 -0.5593,0 -1,-0.4408 -1,-1 0,-0.5594 0.4407,-1 1,-1 z"
       id="path3041"
       inkscape:connector-curvature="0"
       sodipodi:nodetypes="sscccccccccccccccccccccccccccccsssssss" />
  </g>
</svg>
