<?xml version="1.0" encoding="UTF-8" standalone="no"?>
<!-- Created with Inkscape (http://www.inkscape.org/) -->

<svg
   xmlns:dc="http://purl.org/dc/elements/1.1/"
   xmlns:cc="http://creativecommons.org/ns#"
   xmlns:rdf="http://www.w3.org/1999/02/22-rdf-syntax-ns#"
   xmlns:svg="http://www.w3.org/2000/svg"
   xmlns="http://www.w3.org/2000/svg"
   xmlns:sodipodi="http://sodipodi.sourceforge.net/DTD/sodipodi-0.dtd"
   xmlns:inkscape="http://www.inkscape.org/namespaces/inkscape"
   width="24"
   height="24"
   id="svg27665"
   version="1.1"
   inkscape:version="0.48.4 r9939"
   sodipodi:docname="10B4_steam.0.svg">
  <defs
     id="defs27667" />
  <sodipodi:namedview
     id="base"
     pagecolor="#ffffff"
     bordercolor="#666666"
     borderopacity="1.0"
     inkscape:pageopacity="0.0"
     inkscape:pageshadow="2"
     inkscape:zoom="31.999999"
     inkscape:cx="5.7279028"
     inkscape:cy="10.005262"
     inkscape:document-units="px"
     inkscape:current-layer="layer1"
     showgrid="true"
     inkscape:window-width="1301"
     inkscape:window-height="744"
     inkscape:window-x="65"
     inkscape:window-y="24"
     inkscape:window-maximized="1"
     inkscape:snap-bbox="true"
     inkscape:bbox-paths="true"
     inkscape:bbox-nodes="true"
     inkscape:snap-bbox-edge-midpoints="true"
     inkscape:snap-bbox-midpoints="true"
     inkscape:object-paths="true"
     inkscape:snap-intersection-paths="true"
     inkscape:object-nodes="true"
     inkscape:snap-smooth-nodes="true"
     inkscape:snap-midpoints="true"
     inkscape:snap-object-midpoints="true"
     inkscape:snap-center="true"
     inkscape:snap-global="true"
     showguides="false"
     inkscape:guide-bbox="true"
     fit-margin-top="0"
     fit-margin-left="0"
     fit-margin-right="0"
     fit-margin-bottom="0"
     inkscape:showpageshadow="false">
    <sodipodi:guide
       orientation="1,0"
       position="-3201.6232,-603.37577"
       id="guide4181" />
    <inkscape:grid
       type="xygrid"
       id="grid3296"
       empspacing="5"
       visible="true"
       enabled="true"
       snapvisiblegridlinesonly="true"
       originx="-1855px"
       originy="-1853px" />
    <sodipodi:guide
       orientation="1,0"
       position="-1343,-1343"
       id="guide3432" />
    <sodipodi:guide
       orientation="1,0"
       position="-1855,-1343"
       id="guide4416" />
    <sodipodi:guide
       orientation="0,1"
       position="-1855,-1343"
       id="guide3391" />
    <sodipodi:guide
       orientation="0,1"
       position="-1565,-1358"
       id="guide3393" />
    <sodipodi:guide
       orientation="0,1"
       position="-1530,-1840"
       id="guide3395" />
    <sodipodi:guide
       orientation="1,0"
       position="-1358,-1600"
       id="guide3397" />
    <sodipodi:guide
       orientation="1,0"
       position="-1840,-1600"
       id="guide3399" />
    <sodipodi:guide
       orientation="1,0"
       position="-1830,-1600"
       id="guide3401" />
    <sodipodi:guide
       orientation="1,0"
       position="-1368,-1584"
       id="guide3403" />
    <sodipodi:guide
       orientation="0,1"
       position="-1570,-1368"
       id="guide3405" />
    <sodipodi:guide
       orientation="0,1"
       position="-1600,-1830"
       id="guide3407" />
    <sodipodi:guide
       orientation="1,0"
       position="-395,-385.99995"
       id="guide3628" />
    <sodipodi:guide
       orientation="1,0"
       position="-347,-382.99995"
       id="guide3630" />
    <sodipodi:guide
       orientation="0,1"
       position="-379,-346.99995"
       id="guide3632" />
    <sodipodi:guide
       orientation="0,1"
       position="-377,-394.99997"
       id="guide3634" />
    <sodipodi:guide
       orientation="0,1"
       position="-396,-349.99995"
       id="guide3636" />
    <sodipodi:guide
       orientation="1,0"
       position="-350,-344.99995"
       id="guide3638" />
    <sodipodi:guide
       orientation="0,1"
       position="-400,-391.99997"
       id="guide3640" />
    <sodipodi:guide
       orientation="1,0"
       position="-392,-344.99995"
       id="guide3642" />
  </sodipodi:namedview>
  <metadata
     id="metadata27670">
    <rdf:RDF>
      <cc:Work
         rdf:about="">
        <dc:format>image/svg+xml</dc:format>
        <dc:type
           rdf:resource="http://purl.org/dc/dcmitype/StillImage" />
        <dc:title />
      </cc:Work>
    </rdf:RDF>
  </metadata>
  <g
     inkscape:label="Camada 1"
     inkscape:groupmode="layer"
     id="layer1"
     transform="translate(1683.7081,-518.68635)">
    <path
       style="color:#000000;fill:#e53935;fill-opacity:1;fill-rule:nonzero;stroke:none;stroke-width:1.33333290000000004;marker:none;visibility:visible;display:inline;overflow:visible;enable-background:accumulate"
       d="m -1666.7081,522.68635 c -2.2091,0 -4,1.79086 -4,4 l -4.8438,6.03125 c -0.054,-0.003 -0.1012,-0.0312 -0.1562,-0.0312 -0.7407,0 -1.4142,0.27384 -1.9375,0.71875 l -9.5625,-5.5 a 1.0001,1.0001 0 0 0 -0.6563,-0.15625 1.0001,1.0001 0 0 0 -0.3437,1.875 l 9.5625,5.53125 c -0.032,0.17623 -0.062,0.3457 -0.062,0.53125 0,1.65685 1.3431,3 3,3 1.6569,0 3,-1.34315 3,-3 0,-0.055 -0.028,-0.10194 -0.031,-0.15625 l 6.0313,-4.84375 c 2.2091,0 4,-1.79086 4,-4 0,-2.20914 -1.7909,-4 -4,-4 z m 0,1 c 1.6569,0 3,1.34315 3,3 0,1.65685 -1.3431,3 -3,3 -1.6569,0 -3,-1.34315 -3,-3 0,-1.65685 1.3431,-3 3,-3 z m 0,1 c -1.1046,0 -2,0.89543 -2,2 0,1.10457 0.8954,2 2,2 1.1046,0 2,-0.89543 2,-2 0,-1.10457 -0.8954,-2 -2,-2 z m -9,9 c 1.1046,0 2,0.89543 2,2 0,1.10457 -0.8954,2 -2,2 -1.1046,0 -2,-0.89543 -2,-2 l 1.5,0.875 a 1.0077822,1.0077822 0 1 0 1,-1.75 l -1.5,-0.84375 c 0.2945,-0.17076 0.635,-0.28125 1,-0.28125 z"
       id="path3141"
       inkscape:connector-curvature="0" />
  </g>
</svg>
