<?xml version="1.0" encoding="UTF-8" standalone="no"?>
<!-- Created with Inkscape (http://www.inkscape.org/) -->

<svg
   xmlns:dc="http://purl.org/dc/elements/1.1/"
   xmlns:cc="http://creativecommons.org/ns#"
   xmlns:rdf="http://www.w3.org/1999/02/22-rdf-syntax-ns#"
   xmlns:svg="http://www.w3.org/2000/svg"
   xmlns="http://www.w3.org/2000/svg"
   xmlns:xlink="http://www.w3.org/1999/xlink"
   xmlns:sodipodi="http://sodipodi.sourceforge.net/DTD/sodipodi-0.dtd"
   xmlns:inkscape="http://www.inkscape.org/namespaces/inkscape"
   width="24"
   height="24"
   id="svg13094"
   version="1.1"
   inkscape:version="0.48.3.1 r9886"
   sodipodi:docname="utilities-terminal-root.svg">
  <sodipodi:namedview
     id="base"
     pagecolor="#ffffff"
     bordercolor="#666666"
     borderopacity="1.0"
     inkscape:pageopacity="0.0"
     inkscape:pageshadow="2"
     inkscape:zoom="20.48"
     inkscape:cx="13.095419"
     inkscape:cy="10.008539"
     inkscape:document-units="px"
     inkscape:current-layer="layer1"
     showgrid="true"
     inkscape:snap-bbox="true"
     inkscape:bbox-paths="true"
     inkscape:bbox-nodes="true"
     inkscape:snap-bbox-edge-midpoints="true"
     inkscape:snap-bbox-midpoints="true"
     inkscape:object-paths="true"
     inkscape:snap-intersection-paths="true"
     inkscape:object-nodes="true"
     inkscape:snap-smooth-nodes="true"
     inkscape:snap-midpoints="true"
     inkscape:snap-object-midpoints="true"
     inkscape:snap-center="true"
     showguides="true"
     inkscape:guide-bbox="true"
     inkscape:window-width="1920"
     inkscape:window-height="1033"
     inkscape:window-x="-10"
     inkscape:window-y="25"
     inkscape:window-maximized="1"
     inkscape:snap-global="true"
     fit-margin-top="0"
     fit-margin-left="0"
     fit-margin-right="0"
     fit-margin-bottom="0"
     showborder="true"
     inkscape:showpageshadow="false">
    <sodipodi:guide
       orientation="1,0"
       position="521.71982,537.11325"
       id="guide7209" />
    <sodipodi:guide
       orientation="0,1"
       position="601.71982,617.11325"
       id="guide7211" />
    <sodipodi:guide
       orientation="0,1"
       position="80.000089,1058.8326"
       id="guide7213" />
    <sodipodi:guide
       orientation="1,0"
       position="80.000089,1058.8325"
       id="guide7215" />
    <inkscape:grid
       type="xygrid"
       id="grid3131"
       empspacing="5"
       visible="true"
       enabled="true"
       snapvisiblegridlinesonly="true"
       originx="0.0002329375px"
       originy="10.999838px" />
  </sodipodi:namedview>
  <defs
     id="defs13096">
    <linearGradient
       id="linearGradient4192-0">
      <stop
         id="stop4194-8"
         offset="0"
         style="stop-color:#ff760b;stop-opacity:1" />
      <stop
         style="stop-color:#cf5d24;stop-opacity:1"
         offset="0.40902501"
         id="stop4196-7" />
      <stop
         id="stop4198-1"
         offset="0.58842754"
         style="stop-color:#eb6e27;stop-opacity:1" />
      <stop
         id="stop4200-2"
         offset="1"
         style="stop-color:#fdac3f;stop-opacity:1" />
    </linearGradient>
    <linearGradient
       y2="-36.114166"
       x2="-3283.8335"
       y1="417.07828"
       x1="-3022.1826"
       gradientTransform="matrix(0.78126698,0,0,0.78126698,-723.49331,71.224053)"
       gradientUnits="userSpaceOnUse"
       id="linearGradient3094"
       xlink:href="#linearGradient4192-0"
       inkscape:collect="always" />
  </defs>
  <metadata
     id="metadata13099">
    <rdf:RDF>
      <cc:Work
         rdf:about="">
        <dc:format>image/svg+xml</dc:format>
        <dc:type
           rdf:resource="http://purl.org/dc/dcmitype/StillImage" />
        <dc:title />
      </cc:Work>
    </rdf:RDF>
  </metadata>
  <g
     transform="translate(9398.6162,-5027.9922)"
     id="layer1"
     inkscape:groupmode="layer"
     inkscape:label="Camada 1">
    <path
       id="path3012"
       d="m -9395.6162,5031.9922 0,2 18,0 0,-2 -18,0 z m 0,3 0,10 18,0 0,-10 -18,0 z m 4,2 1,0 0,1 1,0 0,-1 1,0 0,1 2,0 0,1 -2,0 0,2 2,0 0,1 -2,0 0,1 -1,0 0,-1 -1,0 0,1 -1,0 0,-1 -2,0 0,-1 2,0 0,-2 -2,0 0,-1 2,0 0,-1 z m 1,2 0,2 1,0 0,-2 -1,0 z m -5,7 0,2 18,0 0,-2 -18,0 z"
       style="color:#000000;fill:#c17564;fill-opacity:1;fill-rule:nonzero;stroke:none;stroke-width:1;marker:none;visibility:visible;display:inline;overflow:visible;enable-background:accumulate"
       inkscape:connector-curvature="0" />
    <path
       style="color:#000000;fill:#404957;fill-opacity:0.230837;fill-rule:nonzero;stroke:none;stroke-width:1;marker:none;visibility:visible;display:inline;overflow:visible;enable-background:accumulate"
       d="m -9395.6162,5031.9922 0,2 1,0 0,-1 17,0 0,-1 -18,0 z m 0,3 0,10 1,0 0,-9 17,0 0,-1 -17,0 -1,0 z m 3,4 0,1 1,0 0,-1 -1,0 z m 2,0 0,1 0,1 1,0 0,-1 0,-1 -1,0 z m 2,0 0,1 0,1 1,0 0,-1 2,0 0,-1 -1,0 -1,0 -1,0 z m -4,3 0,1 1,0 0,-1 -1,0 z m 2,0 0,1 0,1 1,0 0,-1 0,-1 -1,0 z m 2,0 0,1 0,1 1,0 0,-1 2,0 0,-1 -1,0 -1,0 -1,0 z m -7,4 0,2 1,0 0,-1 17,0 0,-1 -17,0 -1,0 z"
       id="path3069"
       inkscape:connector-curvature="0" />
  </g>
</svg>
