<?xml version="1.0" encoding="UTF-8" standalone="no"?>
<!-- Created with Inkscape (http://www.inkscape.org/) -->

<svg
   xmlns:dc="http://purl.org/dc/elements/1.1/"
   xmlns:cc="http://creativecommons.org/ns#"
   xmlns:rdf="http://www.w3.org/1999/02/22-rdf-syntax-ns#"
   xmlns:svg="http://www.w3.org/2000/svg"
   xmlns="http://www.w3.org/2000/svg"
   xmlns:sodipodi="http://sodipodi.sourceforge.net/DTD/sodipodi-0.dtd"
   xmlns:inkscape="http://www.inkscape.org/namespaces/inkscape"
   width="24"
   height="24"
   id="svg27665"
   version="1.1"
   inkscape:version="0.48.4 r9939"
   sodipodi:docname="xnoise.svg">
  <defs
     id="defs27667" />
  <sodipodi:namedview
     id="base"
     pagecolor="#ffffff"
     bordercolor="#666666"
     borderopacity="1.0"
     inkscape:pageopacity="0.0"
     inkscape:pageshadow="2"
     inkscape:zoom="32"
     inkscape:cx="5.080162"
     inkscape:cy="10.638309"
     inkscape:document-units="px"
     inkscape:current-layer="layer1"
     showgrid="true"
     inkscape:window-width="1301"
     inkscape:window-height="744"
     inkscape:window-x="65"
     inkscape:window-y="24"
     inkscape:window-maximized="1"
     inkscape:snap-bbox="true"
     inkscape:bbox-paths="true"
     inkscape:bbox-nodes="true"
     inkscape:snap-bbox-edge-midpoints="true"
     inkscape:snap-bbox-midpoints="true"
     inkscape:object-paths="true"
     inkscape:snap-intersection-paths="true"
     inkscape:object-nodes="true"
     inkscape:snap-smooth-nodes="true"
     inkscape:snap-midpoints="true"
     inkscape:snap-object-midpoints="true"
     inkscape:snap-center="true"
     inkscape:snap-global="true"
     showguides="false"
     inkscape:guide-bbox="true"
     fit-margin-top="0"
     fit-margin-left="0"
     fit-margin-right="0"
     fit-margin-bottom="0"
     inkscape:showpageshadow="false">
    <inkscape:grid
       type="xygrid"
       id="grid3469"
       empspacing="5"
       visible="true"
       enabled="true"
       snapvisiblegridlinesonly="true"
       originx="-8.8526588e-06px"
       originy="726px" />
    <sodipodi:guide
       orientation="1,0"
       position="10.99999,26.000041"
       id="guide3782" />
    <sodipodi:guide
       orientation="0,1"
       position="18.99999,37.000044"
       id="guide3784" />
  </sodipodi:namedview>
  <metadata
     id="metadata27670">
    <rdf:RDF>
      <cc:Work
         rdf:about="">
        <dc:format>image/svg+xml</dc:format>
        <dc:type
           rdf:resource="http://purl.org/dc/dcmitype/StillImage" />
        <dc:title />
      </cc:Work>
    </rdf:RDF>
  </metadata>
  <g
     inkscape:label="Camada 1"
     inkscape:groupmode="layer"
     id="layer1"
     transform="translate(1356.2084,-1759.6914)">
    <path
       style="font-size:medium;font-style:normal;font-variant:normal;font-weight:normal;font-stretch:normal;text-indent:0;text-align:start;text-decoration:none;line-height:normal;letter-spacing:normal;word-spacing:normal;text-transform:none;direction:ltr;block-progression:tb;writing-mode:lr-tb;text-anchor:start;baseline-shift:baseline;color:#000000;fill:#aa00ff;fill-opacity:1;fill-rule:nonzero;stroke:none;stroke-width:77.51100159000000644;marker:none;visibility:visible;display:inline;overflow:visible;enable-background:accumulate;font-family:Sans;-inkscape-font-specification:Sans"
       d="m -1353.2084,1764.6914 0,3 2.3437,0 c -0.082,0 0.2601,0.072 0.5625,0.25 0.2864,0.1691 0.5658,0.4009 0.625,0.4688 l 0.031,0.031 1.8125,2.6563 c 0.01,0.013 0.022,0.018 0.031,0.031 0.1425,0.2087 0.2953,0.3864 0.4688,0.5625 -0.1735,0.1761 -0.3263,0.3538 -0.4688,0.5625 -0.01,0.013 -0.021,0.018 -0.031,0.031 l -1.8125,2.6562 -0.031,0.031 c -0.059,0.068 -0.3386,0.2996 -0.625,0.4687 -0.3024,0.178 -0.6445,0.25 -0.5625,0.25 l -2.3437,0 0,3 2.3437,0 c 0.8702,0 1.5035,-0.3077 2.0938,-0.6562 0.5902,-0.3485 1.1134,-0.753 1.5312,-1.3125 l 0,-0.031 0.031,0 1.875,-2.7187 0,-0.031 c 0.1828,-0.2747 0.2187,-0.2195 0.2187,-0.2187 0,0 0.077,-0.031 0.4063,-0.031 l 0.5,0 0.5,0 c 0.3295,0 0.4081,0.032 0.4062,0.031 0,-8e-4 0.036,-0.056 0.2188,0.2187 l 0,0.031 1.875,2.7187 0.031,0 0,0.031 c 0.4178,0.5595 0.9411,0.964 1.5313,1.3125 0.5903,0.3485 1.2235,0.6562 2.0937,0.6562 l 2.3438,0 0,-3 -2.3438,0 c 0.082,0 -0.2601,-0.072 -0.5625,-0.25 -0.2864,-0.1691 -0.5657,-0.4009 -0.625,-0.4687 l -0.031,-0.031 -1.8125,-2.6562 c -0.01,-0.013 -0.022,-0.018 -0.031,-0.031 -0.1424,-0.2087 -0.2952,-0.3864 -0.4687,-0.5625 0.1735,-0.1761 0.3263,-0.3538 0.4687,-0.5625 0.01,-0.013 0.021,-0.018 0.031,-0.031 l 1.8125,-2.6563 0.031,-0.031 c 0.059,-0.068 0.3386,-0.2997 0.625,-0.4688 0.3024,-0.178 0.6446,-0.25 0.5625,-0.25 l 2.3438,0 0,-3 -2.3438,0 c -0.8702,0 -1.5034,0.3077 -2.0937,0.6563 -0.5902,0.3484 -1.1135,0.7529 -1.5313,1.3125 l 0,0.031 -0.031,0 -1.875,2.7188 0,0.031 c -0.1828,0.2747 -0.2188,0.2196 -0.2188,0.2188 0,-10e-4 -0.077,0.031 -0.4062,0.031 l -0.5,0 -0.5,0 c -0.3295,0 -0.4082,-0.032 -0.4063,-0.031 0,8e-4 -0.036,0.056 -0.2187,-0.2188 l 0,-0.031 -1.875,-2.7188 -0.031,0 0,-0.031 c -0.4178,-0.5596 -0.941,-0.9641 -1.5312,-1.3125 -0.5903,-0.3486 -1.2236,-0.6563 -2.0938,-0.6563 l -2.3437,0 z"
       id="path3888"
       inkscape:connector-curvature="0" />
  </g>
</svg>
