<?xml version="1.0" encoding="UTF-8" standalone="no"?>
<!-- Created with Inkscape (http://www.inkscape.org/) -->
<svg id="svg3198" xmlns="http://www.w3.org/2000/svg" height="48" width="48" version="1.0">
 <g id="layer1">
  <path id="path3178" style="opacity:.6;fill-rule:evenodd;fill:#eae3d0" d="m24 3c-1.911-0.0559-3.28 1.8678-3 3.6695 0.01 4.8785-0.021 9.7575 0.016 14.636 0.132 2.418 3.475 3.626 5.101 1.811 1.335-1.343 0.755-3.329 0.883-5.018-0.01-4.134 0.021-8.27-0.016-12.404-0.13-1.4868-1.489-2.7204-2.984-2.695zm-17.419 14.026c-2.7133 5.914-2.0893 13.202 1.6468 18.546 4.3163 6.484 12.888 9.774 20.416 7.673 1.619-0.406 3.669-1.301 4.794-1.964 4.261-2.484 7.524-6.653 8.781-11.437 0.161-0.405 0.713-3.026 0.656-4.344 0.098-2.822-0.407-5.688-1.594-8.25-0.068-0.509-2.13-3.907-2.031-3.625-2.517-3.355-8.123-8.4493-11.156-2.875-0.728 1.827 0.528 3.752 1.797 4.9 1.546 1.022 2.977 2.599 3.484 3.662 1.333 2.154 1.755 4.822 1.375 7.31-0.133 1.083-1.012 3.706-2.198 4.998-1.215 1.75-3.813 3.291-5.268 3.702-5.005 1.706-11.016-0.773-13.222-5.603-1.431-2.702-1.495-6.023-0.405-8.858 0.426-1.238 1.864-3.46 3.335-4.553 1.321-0.823 2.435-2.067 2.861-3.61 0.605-2.453-1.843-4.7892-4.259-4.448-4.214 1.0805-6.8577 5.111-9.0131 8.776z"/>
  <path id="path2404" style="fill-rule:evenodd;fill:#3a3935" d="m24 4c-1.108 0-2 0.892-2 2v15c0 1.108 0.892 2 2 2s2-0.892 2-2v-15c0-1.108-0.892-2-2-2zm-9.094 5.3125c-0.194 0.0723-0.362 0.1756-0.531 0.2813v-0.0313c-1.083 0.6745-2.073 1.4775-2.969 2.3435-0.763 0.738-1.4468 1.524-2.0622 2.375-0.2521 0.349-0.4927 0.698-0.7188 1.063-0.1342 0.214-0.2493 0.435-0.375 0.656-0.1398 0.248-0.2783 0.496-0.4062 0.75-0.0598 0.118-0.1302 0.224-0.1876 0.344-0.2163 0.454-0.4159 0.935-0.5937 1.406-0.0082 0.022-0.0231 0.041-0.0313 0.062-0.0035 0.01 0.0035 0.022 0 0.032-0.1266 0.341-0.2377 0.683-0.3437 1.031-0.1858 0.611-0.3505 1.228-0.4687 1.844-0.0338 0.175-0.0652 0.354-0.0938 0.531-0.0268 0.166-0.0404 0.334-0.0625 0.5-0.0501 0.378-0.0989 0.743-0.125 1.125-0.0305 0.441-0.0334 0.874-0.0313 1.313 0.0022 0.419 0.0313 0.834 0.0626 1.25 0.0154 0.206 0.0085 0.418 0.0312 0.624 0.0371 0.337 0.1004 0.668 0.1562 1 0.0139 0.083 0.0163 0.168 0.0313 0.25 0.0677 0.372 0.1594 0.729 0.25 1.094 0.0858 0.347 0.1737 0.687 0.2813 1.032 0.0882 0.282 0.1792 0.565 0.2812 0.843 0.0115 0.032 0.0196 0.063 0.0312 0.094 0.0669 0.179 0.1469 0.355 0.2188 0.531 0.1066 0.261 0.2251 0.526 0.3438 0.782 0.1477 0.318 0.3045 0.631 0.4687 0.937 0.1823 0.339 0.3586 0.673 0.5625 1 0.0275 0.044 0.0659 0.081 0.0938 0.125 0.2178 0.343 0.4464 0.672 0.6874 1 0.251 0.342 0.5089 0.679 0.7818 1 0.052 0.061 0.103 0.127 0.156 0.188 0.038 0.043 0.086 0.081 0.125 0.124 0.232 0.261 0.473 0.505 0.719 0.75 0.245 0.246 0.489 0.487 0.75 0.719 0.104 0.093 0.205 0.191 0.312 0.281 0.341 0.29 0.697 0.579 1.062 0.844 0.115 0.084 0.228 0.17 0.344 0.25 0.345 0.239 0.698 0.472 1.063 0.688 0.153 0.091 0.312 0.164 0.469 0.25 0.366 0.202 0.74 0.384 1.124 0.562 0.256 0.119 0.521 0.237 0.782 0.344 0.176 0.072 0.352 0.152 0.531 0.219 0.031 0.011 0.062 0.02 0.094 0.031 0.318 0.117 0.644 0.214 0.969 0.312 0.334 0.102 0.663 0.2 1 0.282 0.546 0.132 1.076 0.264 1.624 0.344 0.124 0.017 0.252 0.015 0.376 0.031 0.477 0.059 0.961 0.104 1.437 0.125 0.515 0.022 1.02 0.022 1.531 0 0.477-0.021 0.96-0.066 1.438-0.125 0.103-0.013 0.209-0.017 0.312-0.031 0.083-0.012 0.168-0.019 0.25-0.032 0.488-0.076 0.983-0.195 1.469-0.312 0.334-0.081 0.667-0.18 1-0.282 0.317-0.096 0.626-0.198 0.937-0.312 0.308-0.113 0.605-0.246 0.907-0.375 0.155-0.066 0.316-0.117 0.469-0.187 0.468-0.216 0.933-0.437 1.374-0.688 0.045-0.025 0.081-0.068 0.126-0.094 0.388-0.225 0.758-0.467 1.124-0.718 0.193-0.132 0.377-0.268 0.563-0.407 0.09-0.067 0.192-0.119 0.281-0.187 0.345-0.267 0.678-0.555 1-0.844 0.115-0.103 0.231-0.206 0.344-0.312 0.086-0.082 0.166-0.168 0.25-0.25 0.274-0.269 0.555-0.526 0.812-0.813 0.159-0.177 0.286-0.378 0.438-0.563 0.226-0.273 0.445-0.554 0.656-0.843 0.039-0.053 0.087-0.103 0.125-0.157 0.053-0.073 0.105-0.144 0.157-0.218 0.238-0.345 0.471-0.698 0.687-1.063 0.031-0.052 0.063-0.103 0.094-0.156 0.195-0.338 0.389-0.681 0.562-1.031 0.02-0.041 0.043-0.084 0.063-0.125 0.249-0.514 0.456-1.059 0.656-1.594 0.168-0.45 0.306-0.913 0.438-1.375 0.015-0.054 0.047-0.102 0.062-0.156 0.006-0.023 0.025-0.04 0.031-0.063 0.082-0.301 0.153-0.6 0.219-0.906 0.076-0.354 0.133-0.707 0.188-1.063 0.009-0.062 0.022-0.125 0.031-0.187 0.041-0.288 0.067-0.585 0.093-0.875 0.027-0.29 0.05-0.586 0.063-0.875 0.002-0.052-0.002-0.104 0-0.156 0.015-0.428 0.016-0.856 0-1.281-0.004-0.105 0.006-0.209 0-0.313-0.003-0.062-0.027-0.125-0.031-0.187-0.026-0.403-0.072-0.79-0.125-1.188-0.018-0.136-0.01-0.271-0.031-0.406-0.088-0.559-0.202-1.131-0.344-1.688-0.008-0.032-0.023-0.061-0.032-0.094-0.117-0.451-0.251-0.895-0.406-1.343-0.003-0.009 0.003-0.023 0-0.031-0.044-0.127-0.078-0.25-0.125-0.376-0.116-0.311-0.275-0.605-0.406-0.906-0.017-0.038-0.014-0.086-0.031-0.125-0.01-0.021-0.022-0.041-0.032-0.062-0.125-0.278-0.268-0.544-0.406-0.813-0.178-0.349-0.361-0.693-0.562-1.031-0.265-0.445-0.541-0.891-0.844-1.313-0.009-0.011-0.023-0.019-0.031-0.031-0.014-0.018-0.018-0.044-0.031-0.062-0.296-0.406-0.64-0.775-0.969-1.157-0.348-0.401-0.71-0.784-1.094-1.156-0.37-0.358-0.753-0.704-1.156-1.031-0.572-0.464-1.146-0.9171-1.781-1.3125 0 0-0.032 0.031-0.032 0.0313-0.161-0.1008-0.317-0.211-0.5-0.2813-0.007-0.0044-0.023 0.0044-0.031 0-0.086-0.0492-0.164-0.1084-0.25-0.1563l-0.031 0.0938c-1.471-0.384-3.021 0.389-3.563 1.844-0.485 1.301 0.041 2.702 1.125 3.468l-0.031 0.063c0.214 0.129 0.419 0.264 0.625 0.406 0.131 0.092 0.248 0.185 0.375 0.281 0.081 0.062 0.17 0.125 0.25 0.188 0.214 0.171 0.425 0.347 0.625 0.531 0.055 0.05 0.102 0.106 0.156 0.157 0.19 0.181 0.386 0.338 0.563 0.531 0.102 0.11 0.183 0.23 0.281 0.343 0.056 0.067 0.133 0.121 0.188 0.188 0.174 0.212 0.339 0.462 0.5 0.688 0.008 0.011 0.022 0.019 0.031 0.031 0.193 0.272 0.36 0.552 0.531 0.843 0.113 0.194 0.241 0.393 0.344 0.594 0.091 0.178 0.168 0.349 0.25 0.532 0.037 0.082 0.058 0.166 0.094 0.25 0.112 0.267 0.218 0.537 0.312 0.812s0.176 0.562 0.25 0.844c0.102 0.392 0.189 0.762 0.25 1.156s0.103 0.795 0.125 1.188c0.022 0.392 0.017 0.798 0 1.187-0.009 0.202-0.012 0.391-0.031 0.594-0.018 0.188-0.036 0.375-0.063 0.562-0.003 0.021 0.003 0.042 0 0.063-0.05 0.342-0.139 0.665-0.219 1-0.033 0.143-0.054 0.294-0.093 0.437-0.029 0.104-0.063 0.21-0.094 0.313-0.061 0.201-0.115 0.393-0.187 0.594-0.047 0.127-0.106 0.248-0.157 0.374-0.106 0.265-0.221 0.529-0.343 0.782-0.027 0.054-0.067 0.102-0.094 0.156-0.159 0.315-0.317 0.642-0.5 0.938-0.139 0.223-0.285 0.441-0.438 0.656-0.039 0.054-0.085 0.102-0.125 0.156-0.127 0.173-0.269 0.334-0.406 0.5-0.111 0.134-0.227 0.278-0.344 0.406-0.132 0.147-0.266 0.297-0.406 0.438-0.14 0.14-0.291 0.274-0.437 0.406-0.145 0.131-0.286 0.251-0.438 0.375-0.207 0.169-0.408 0.345-0.625 0.5-0.08 0.057-0.169 0.101-0.25 0.156-0.237 0.161-0.471 0.326-0.719 0.469-0.067 0.039-0.15 0.056-0.218 0.094-0.268 0.147-0.535 0.31-0.813 0.437-0.124 0.057-0.249 0.104-0.375 0.157-0.206 0.085-0.414 0.144-0.625 0.218-0.022 0.008-0.041 0.024-0.063 0.032-0.3 0.104-0.597 0.201-0.906 0.281-0.339 0.088-0.659 0.161-1 0.219-0.071 0.012-0.147 0.02-0.218 0.031-0.197 0.029-0.397 0.043-0.594 0.062-0.574 0.059-1.135 0.089-1.719 0.063-0.042-0.002-0.083 0.002-0.125 0-0.134-0.008-0.272-0.02-0.406-0.032-0.263-0.023-0.522-0.053-0.782-0.093-0.32-0.05-0.649-0.111-0.968-0.188-0.073-0.017-0.147-0.043-0.219-0.062-0.073-0.019-0.146-0.042-0.219-0.063-0.314-0.088-0.632-0.199-0.937-0.312-0.022-0.009-0.041-0.023-0.063-0.032-0.342-0.129-0.677-0.249-1-0.406-0.054-0.026-0.102-0.066-0.156-0.094-0.315-0.159-0.642-0.316-0.938-0.5-0.024-0.015-0.038-0.047-0.062-0.062-0.325-0.205-0.638-0.424-0.938-0.656-0.188-0.146-0.384-0.282-0.562-0.438-0.072-0.062-0.148-0.123-0.219-0.187-0.13-0.119-0.251-0.251-0.375-0.375s-0.256-0.245-0.375-0.375c-0.225-0.247-0.422-0.518-0.625-0.781-0.232-0.3-0.451-0.613-0.656-0.938-0.013-0.02-0.019-0.042-0.031-0.062-0.206-0.331-0.388-0.677-0.563-1.032-0.051-0.103-0.108-0.207-0.156-0.312-0.08-0.175-0.147-0.353-0.219-0.532-0.038-0.095-0.089-0.184-0.125-0.281-0.015-0.041-0.016-0.084-0.031-0.125-0.041-0.114-0.088-0.228-0.125-0.344-0.08-0.245-0.186-0.499-0.25-0.75-0.069-0.267-0.106-0.539-0.156-0.812-0.048-0.259-0.095-0.522-0.125-0.781-0.023-0.2-0.019-0.395-0.031-0.594-0.015-0.217-0.03-0.438-0.032-0.656-0.003-0.34 0.006-0.696 0.032-1.031 0.025-0.336 0.071-0.67 0.124-1 0.061-0.373 0.124-0.73 0.219-1.094 0.017-0.062 0.045-0.126 0.063-0.188 0.079-0.284 0.181-0.567 0.281-0.844 0.018-0.049 0.013-0.106 0.031-0.156 0.049-0.13 0.104-0.247 0.156-0.375 0.049-0.116 0.105-0.229 0.157-0.343 0.116-0.259 0.242-0.504 0.375-0.75 0.118-0.22 0.243-0.444 0.375-0.657 0.114-0.183 0.251-0.354 0.375-0.531 0.116-0.165 0.22-0.342 0.344-0.5 0.086-0.112 0.158-0.234 0.25-0.344 0.047-0.056 0.107-0.101 0.156-0.156 0.169-0.193 0.351-0.382 0.531-0.562 0.232-0.233 0.47-0.445 0.719-0.657 0.158-0.134 0.304-0.28 0.468-0.406 0.041-0.032 0.084-0.063 0.126-0.094 0.186-0.139 0.368-0.278 0.562-0.406 0.05-0.034 0.105-0.061 0.156-0.094 0.084-0.053 0.166-0.105 0.25-0.156 1.265-1.044 1.248-2.037 1.125-3.531-0.54-1.4501-2.096-2.2189-3.562-1.844-0.042-0.1758-0.208 0.0415-0.313 0.0625z"/>
 </g>
</svg>
