<svg width="48" xmlns="http://www.w3.org/2000/svg" viewBox="0 0 48 48" height="48">
 <path d="m8 1c-1.0286 0-2 0.9714-2 2v42c0 0.97143 1.0286 2 2 2h32c0.97143 0 2-1.0286 2-2v-31l-13-13z" fill="#c19553"/>
 <path d="m29 12 0.062 0.062 0.157-0.062h-0.219zm2 2 11 11v-11h-11z" fill-opacity=".196"/>
 <path fill="#fff" d="m29 1 13 13h-11c-0.97143 0-2-1.0286-2-2v-11z" fill-opacity=".392"/>
 <path d="m6 35v10c0 0.97143 1.0286 2 2 2h32c0.97143 0 2-1.0286 2-2v-10z" fill-opacity=".196"/>
 <g fill="#fff">
  <path d="m18 1v4h4v-4h-4zm0 4h-4v4h4v-4zm0 4v4h4v-4h-4zm0 4h-4v4h4v-4zm0 4v4h4v-4h-4zm-4 6v8h8v-8h-4-4z"/>
  <g transform="matrix(1.0011 0 0 .88456 -5.988 6.1581)">
   <path d="m25.552 36.267c-0.40134 0.61601-0.77001 1.1947-1.106 1.736-0.336 0.54134-0.64867 1.0593-0.938 1.554-0.28934 0.48534-0.56467 0.95667-0.826 1.414-0.252 0.448-0.49467 0.89134-0.728 1.33h3.724v1.428h-5.712v-0.994c0.20533-0.40133 0.42466-0.82133 0.658-1.26 0.23333-0.448 0.49466-0.924 0.784-1.428 0.28933-0.504 0.602-1.05 0.938-1.638 0.34533-0.58799 0.72333-1.2273 1.134-1.918h-3.332v-1.428h5.404v1.204"/>
   <path d="m28.45 39.389c-0.000002 0.42 0.014 0.81667 0.042 1.19 0.03733 0.364 0.10266 0.68134 0.196 0.952 0.10266 0.27067 0.24266 0.48534 0.42 0.644 0.17733 0.15867 0.41533 0.238 0.714 0.238 0.28933 0.000001 0.52266-0.07933 0.7-0.238 0.18666-0.15866 0.32666-0.37333 0.42-0.644 0.10266-0.28 0.168-0.602 0.196-0.966 0.03733-0.364 0.056-0.756 0.056-1.176-0.000005-0.42-0.01867-0.812-0.056-1.176-0.02801-0.37333-0.09334-0.69533-0.196-0.966-0.09334-0.27066-0.22867-0.48533-0.406-0.644-0.17734-0.15866-0.41534-0.23799-0.714-0.238-0.29867 0.000008-0.53667 0.07934-0.714 0.238-0.17734 0.15867-0.31734 0.37801-0.42 0.658-0.09334 0.27067-0.15867 0.58801-0.196 0.952-0.028 0.364-0.042 0.756-0.042 1.176m-1.75 0c-0.000001-1.4933 0.27533-2.618 0.826-3.374 0.55066-0.76532 1.316-1.148 2.296-1.148 1.0173 0.000009 1.792 0.38268 2.324 1.148 0.53199 0.75601 0.79799 1.8807 0.798 3.374-0.000007 1.4933-0.27067 2.6227-0.812 3.388-0.54134 0.756-1.3067 1.134-2.296 1.134-1.0173 0-1.7967-0.378-2.338-1.134-0.532-0.76533-0.798-1.8947-0.798-3.388"/>
   <path d="m35.45 39.389c-0.000002 0.42 0.014 0.81667 0.042 1.19 0.03733 0.364 0.10266 0.68134 0.196 0.952 0.10266 0.27067 0.24266 0.48534 0.42 0.644 0.17733 0.15867 0.41533 0.238 0.714 0.238 0.28933 0.000001 0.52266-0.07933 0.7-0.238 0.18666-0.15866 0.32666-0.37333 0.42-0.644 0.10266-0.28 0.168-0.602 0.196-0.966 0.03733-0.364 0.05599-0.756 0.056-1.176-0.000005-0.42-0.01867-0.812-0.056-1.176-0.02801-0.37333-0.09334-0.69533-0.196-0.966-0.09334-0.27066-0.22867-0.48533-0.406-0.644-0.17734-0.15866-0.41534-0.23799-0.714-0.238-0.29867 0.000008-0.53667 0.07934-0.714 0.238-0.17734 0.15867-0.31734 0.37801-0.42 0.658-0.09334 0.27067-0.15867 0.58801-0.196 0.952-0.028 0.364-0.042 0.756-0.042 1.176m-1.75 0c-0.000001-1.4933 0.27533-2.618 0.826-3.374 0.55066-0.76532 1.316-1.148 2.296-1.148 1.0173 0.000009 1.792 0.38268 2.324 1.148 0.53199 0.75601 0.79799 1.8807 0.798 3.374-0.000007 1.4933-0.27067 2.6227-0.812 3.388-0.54134 0.756-1.3067 1.134-2.296 1.134-1.0173 0-1.7967-0.378-2.338-1.134-0.532-0.76533-0.798-1.8947-0.798-3.388"/>
  </g>
 </g>
</svg>
