<svg width="48" xmlns="http://www.w3.org/2000/svg" viewBox="0 0 48 48" height="48">
 <path d="m8 1c-1.0286 0-2 0.9714-2 2v11 31c0 0.971 1.0286 2 2 2h32c0.971 0 2-1.029 2-2v-31-11c0-1.0286-0.971-2-2-2h-11-10-11z" fill="#b8c400"/>
 <path d="m6 35v10c0 0.97143 1.0286 2 2 2h32c0.97143 0 2-1.0286 2-2v-10z" fill-opacity=".196"/>
 <g fill="#fff">
  <g transform="translate(0 -2)">
   <path d="m25 34v-12h3v12z"/>
   <path d="m20 34v-16h3v16z"/>
   <path d="m15 34v-9h3v9z"/>
   <path d="m30 34v-4h3v4z"/>
  </g>
  <g transform="scale(1.0583 .94492)">
   <path d="m14.867 43.39c-0.000002 0.39318 0.0131 0.7645 0.03932 1.114 0.03495 0.34075 0.09611 0.63781 0.18348 0.89119 0.09611 0.25338 0.22716 0.45433 0.39317 0.60286 0.166 0.14853 0.3888 0.2228 0.66839 0.2228 0.27085 0.000001 0.48928-0.07426 0.65529-0.2228 0.17474-0.14853 0.3058-0.34948 0.39317-0.60286 0.09611-0.26211 0.15726-0.56354 0.18348-0.9043 0.03494-0.34074 0.05242-0.7077 0.05242-1.1009-0.000005-0.39317-0.01748-0.76013-0.05242-1.1009-0.02622-0.34948-0.08738-0.65091-0.18348-0.9043-0.08737-0.25337-0.21406-0.45432-0.38007-0.60286-0.16601-0.14852-0.38881-0.22279-0.66839-0.2228-0.27959 0.000007-0.50239 0.07427-0.66839 0.2228-0.16601 0.14854-0.29706 0.35386-0.39317 0.61597-0.08737 0.25338-0.14853 0.55045-0.18348 0.89119-0.02621 0.34075-0.03932 0.70771-0.03932 1.1009m-1.6382 0c0-1.3979 0.25775-2.4508 0.77324-3.1585 0.51549-0.71644 1.2319-1.0747 2.1493-1.0747 0.95235 0.000008 1.6775 0.35823 2.1756 1.0747 0.49801 0.70772 0.74702 1.7605 0.74703 3.1585-0.000006 1.3979-0.25338 2.4551-0.76013 3.1716-0.50676 0.70771-1.2232 1.0616-2.1493 1.0616-0.95235 0-1.6819-0.35386-2.1887-1.0616-0.49802-0.71644-0.74703-1.7736-0.74703-3.1716"/>
   <path d="m25.653 39.34v1.3368h-2.1362v6.7757h-1.6251v-6.7757h-2.1362v-1.3368h5.8976"/>
   <path d="m29.86 47.623c-1.1446 0-2.0183-0.36696-2.6211-1.1009-0.60286-0.73392-0.9043-1.778-0.9043-3.1323-0.000001-0.67276 0.09174-1.2712 0.27522-1.7955 0.18348-0.52422 0.43686-0.96545 0.76013-1.3237 0.33201-0.36695 0.72081-0.64217 1.1664-0.82566 0.45433-0.19221 0.94798-0.28832 1.4809-0.28833 0.28832 0.000008 0.54607 0.02622 0.77324 0.07863 0.2359 0.04369 0.44122 0.09612 0.61597 0.15727 0.17474 0.06117 0.3189 0.1267 0.43249 0.19659 0.12231 0.0699 0.21405 0.12233 0.27522 0.15727l-0.41938 1.2844c-0.20096-0.13105-0.4456-0.24026-0.73392-0.32764-0.27959-0.0961-0.60287-0.14416-0.96982-0.14416-0.25338 0.000007-0.50239 0.04806-0.74703 0.14416-0.23591 0.08738-0.44997 0.24028-0.64218 0.4587-0.18348 0.2097-0.33638 0.49366-0.4587 0.85187-0.11358 0.35823-0.17038 0.80382-0.17038 1.3368-0.000002 0.92614 0.15727 1.6382 0.47181 2.1362 0.32327 0.48928 0.8475 0.73392 1.5727 0.73392 0.41938 0.000001 0.7645-0.04805 1.0354-0.14416 0.27958-0.09611 0.50238-0.19222 0.66839-0.28833l0.40628 1.2713c-0.22717 0.13979-0.53734 0.27085-0.93051 0.39317-0.38444 0.11358-0.83003 0.17038-1.3368 0.17038"/>
  </g>
 </g>
</svg>
