<?xml version="1.0" encoding="UTF-8" standalone="no"?>
<svg
   xmlns:dc="http://purl.org/dc/elements/1.1/"
   xmlns:cc="http://creativecommons.org/ns#"
   xmlns:rdf="http://www.w3.org/1999/02/22-rdf-syntax-ns#"
   xmlns:svg="http://www.w3.org/2000/svg"
   xmlns="http://www.w3.org/2000/svg"
   xmlns:sodipodi="http://sodipodi.sourceforge.net/DTD/sodipodi-0.dtd"
   xmlns:inkscape="http://www.inkscape.org/namespaces/inkscape"
   width="48"
   viewBox="0 0 48 48"
   height="48"
   id="svg2"
   version="1.1"
   inkscape:version="0.48.5 r10040"
   sodipodi:docname="application-x-deb.svg">
  <metadata
     id="metadata24">
    <rdf:RDF>
      <cc:Work
         rdf:about="">
        <dc:format>image/svg+xml</dc:format>
        <dc:type
           rdf:resource="http://purl.org/dc/dcmitype/StillImage" />
      </cc:Work>
    </rdf:RDF>
  </metadata>
  <defs
     id="defs22" />
  <sodipodi:namedview
     pagecolor="#ffffff"
     bordercolor="#666666"
     borderopacity="1"
     objecttolerance="10"
     gridtolerance="10"
     guidetolerance="10"
     inkscape:pageopacity="0"
     inkscape:pageshadow="2"
     inkscape:window-width="640"
     inkscape:window-height="480"
     id="namedview20"
     showgrid="false"
     inkscape:zoom="4.9166667"
     inkscape:cx="24"
     inkscape:cy="24"
     inkscape:window-x="15"
     inkscape:window-y="39"
     inkscape:window-maximized="0"
     inkscape:current-layer="svg2" />
  <path
     d="m 7.3481387,5.1864407 c -1.0807965,0 -2.161698,1.0809016 -2.161698,2.161698 V 40.915354 c 0,1.020825 1.0809015,2.101695 2.1016946,2.101695 H 40.91525 c 1.020824,0 2.101694,-1.080902 2.101694,-2.101695 V 7.2882404 c 0,-1.020793 -1.081321,-2.1016946 -2.101694,-2.1016946 z"
     id="path4"
     inkscape:connector-curvature="0"
     style="fill:#c19553" />
  <g
     id="g6"
     transform="matrix(1.0508473,0,0,1.0508473,-1.1186432,-1.1186432)"
     style="fill:#ffffff">
    <path
       d="M 8.0571,6 C 7.0286,6 6,7.0286 6,8.0571 V 18 H 42 V 8 C 42,7.0286 40.971,6 40,6 z"
       id="path8"
       inkscape:connector-curvature="0"
       style="fill-opacity:0.19599998" />
    <path
       d="m 21,10 v 16 h 6 V 10 z"
       id="path10"
       inkscape:connector-curvature="0"
       style="fill-opacity:0.39200003" />
  </g>
  <g
     transform="matrix(1.1122168,0,0,0.99289309,-1.1186432,-1.1186432)"
     id="g12"
     style="fill:#ffffff">
    <path
       d="m 14.871,38.776 c 0.04451,0.0089 0.09348,0.01336 0.1469,0.01336 0.05342,10e-7 0.10238,10e-7 0.1469,0 0.37393,10e-7 0.68554,-0.07122 0.93484,-0.21368 0.25819,-0.14245 0.46296,-0.33832 0.61432,-0.58761 0.16025,-0.24929 0.27154,-0.54309 0.33387,-0.88142 0.07122,-0.34722 0.10683,-0.72561 0.10684,-1.1352 -4e-6,-0.35612 -0.02671,-0.70335 -0.08013,-1.0417 -0.05342,-0.33832 -0.14691,-0.63657 -0.28045,-0.89477 -0.13355,-0.25819 -0.31607,-0.46296 -0.54755,-0.61432 -0.23149,-0.16025 -0.52974,-0.24038 -0.89477,-0.24039 -0.07123,7e-6 -0.15136,0.0045 -0.24039,0.01336 -0.08903,7e-6 -0.16916,0.0089 -0.24039,0.02671 v 5.5556 m 3.953,-2.8045 c -6e-6,0.76568 -0.09794,1.4201 -0.2938,1.9632 -0.18697,0.53419 -0.44962,0.97045 -0.78793,1.3088 -0.33833,0.33832 -0.74342,0.58761 -1.2153,0.74787 -0.46297,0.15135 -0.9749,0.22703 -1.5358,0.22703 -0.29381,0 -0.58316,-0.01781 -0.86806,-0.05342 -0.276,-0.02671 -0.57426,-0.07568 -0.89477,-0.1469 v -8.0663 c 0.37393,-0.08012 0.72561,-0.13354 1.055,-0.16026 0.32942,-0.0267 0.63658,-0.04006 0.92148,-0.04007 0.54309,9e-6 1.0372,0.08014 1.4824,0.24039 0.45406,0.16027 0.8369,0.41401 1.1485,0.76122 0.31161,0.33833 0.55199,0.77458 0.72116,1.3088 0.17806,0.52529 0.26709,1.1619 0.2671,1.9097"
       id="path14"
       inkscape:connector-curvature="0" />
    <path
       d="m 20.026,40.111 v -8.2666 h 5.008 v 1.3622 h -3.3654 v 1.8563 h 2.9247 v 1.3622 h -2.9247 v 2.3237 h 3.6592 v 1.3622 h -5.3019"
       id="path16"
       inkscape:connector-curvature="0" />
    <path
       d="m 32.125,37.614 c -6e-6,0.49858 -0.08459,0.91703 -0.25374,1.2554 -0.16917,0.32942 -0.40065,0.59651 -0.69445,0.80129 -0.28491,0.19587 -0.62768,0.33832 -1.0283,0.42735 -0.39174,0.08013 -0.81465,0.12019 -1.2687,0.12019 -0.36503,0 -0.74342,-0.02226 -1.1352,-0.06677 -0.39174,-0.03561 -0.77903,-0.09348 -1.1619,-0.17361 v -8.0262 c 0.31161,-0.05341 0.65438,-0.09793 1.0283,-0.13355 0.37393,-0.04451 0.74341,-0.06677 1.1084,-0.06677 0.62322,9e-6 1.1307,0.06678 1.5224,0.20032 0.39174,0.12465 0.6989,0.29381 0.92148,0.50748 0.22257,0.20478 0.37393,0.43626 0.45406,0.69445 0.08012,0.2582 0.12019,0.51639 0.12019,0.77458 -6e-6,0.39175 -0.09794,0.73897 -0.29381,1.0417 -0.18697,0.30271 -0.44071,0.5431 -0.76122,0.72116 0.5609,0.20478 0.93928,0.48078 1.1352,0.828 0.20477,0.34723 0.30715,0.71226 0.30716,1.0951 m -3.8996,-1.1218 v 2.2436 c 0.11574,0.01781 0.24038,0.03116 0.37394,0.04006 0.14245,0.0089 0.28045,0.01336 0.414,0.01336 0.18696,10e-7 0.36948,-0.01335 0.54755,-0.04007 0.17806,-0.03561 0.33386,-0.09348 0.46742,-0.17361 0.14245,-0.08903 0.25819,-0.20922 0.34722,-0.36058 0.08903,-0.16026 0.13354,-0.36058 0.13355,-0.60097 -5e-6,-0.40064 -0.1291,-0.68554 -0.38729,-0.85471 -0.24929,-0.17806 -0.58762,-0.26709 -1.015,-0.2671 h -0.88142 m 0.64103,-1.3622 c 0.41845,5e-6 0.73451,-0.08903 0.94819,-0.2671 0.21367,-0.18696 0.32051,-0.4407 0.32052,-0.76122 -5e-6,-0.19586 -0.03117,-0.35167 -0.09348,-0.46742 -0.06233,-0.12464 -0.14691,-0.21812 -0.25374,-0.28045 -0.10684,-0.07122 -0.23149,-0.11573 -0.37393,-0.13355 -0.14246,-0.0267 -0.28936,-0.04006 -0.44071,-0.04006 -0.12465,7e-6 -0.25374,0.0045 -0.38729,0.01336 -0.13355,0.0089 -0.25374,0.02226 -0.36058,0.04006 v 1.8964 h 0.64103"
       id="path18"
       inkscape:connector-curvature="0" />
  </g>
</svg>
