<svg width="48" xmlns="http://www.w3.org/2000/svg" viewBox="0 0 48 48" height="48">
 <path d="m8 1c-1.0286 0-2 0.9714-2 2v42c0 0.97143 1.0286 2 2 2h32c0.97143 0 2-1.0286 2-2v-31l-13-13z" fill="#c19553"/>
 <path d="m29 12 0.062 0.062 0.157-0.062h-0.219zm2 2 11 11v-11h-11z" fill-opacity=".196"/>
 <path fill="#fff" d="m29 1 13 13h-11c-0.97143 0-2-1.0286-2-2v-11z" fill-opacity=".392"/>
 <path d="m6 35v10c0 0.97143 1.0286 2 2 2h32c0.97143 0 2-1.0286 2-2v-10z" fill-opacity=".196"/>
 <g fill="#fff">
  <path d="m18 1v4h4v-4h-4zm0 4h-4v4h4v-4zm0 4v4h4v-4h-4zm0 4h-4v4h4v-4zm0 4v4h4v-4h-4zm-4 6v8h8v-8h-4-4z"/>
  <g transform="scale(.99582 1.0042)">
   <path d="m17.265 42.362c-0.000006 0.46912-0.07959 0.86284-0.23875 1.1812-0.15917 0.30995-0.37697 0.56126-0.65341 0.75393-0.26807 0.1843-0.59058 0.31833-0.96755 0.4021-0.36859 0.07539-0.7665 0.11309-1.1937 0.11309-0.34346 0-0.69948-0.02094-1.0681-0.06283-0.36859-0.03351-0.73299-0.08796-1.0932-0.16335v-7.5519c0.2932-0.05025 0.61571-0.09214 0.96755-0.12566 0.35183-0.04188 0.69948-0.06282 1.0429-0.06283 0.58639 0.000008 1.0639 0.06284 1.4325 0.18848 0.36858 0.11729 0.65759 0.27645 0.86702 0.47749 0.20942 0.19268 0.35183 0.41048 0.42723 0.65341 0.07539 0.24294 0.11308 0.48588 0.11309 0.7288-0.000005 0.3686-0.09215 0.6953-0.27644 0.98011-0.17592 0.28482-0.41467 0.511-0.71624 0.67854 0.52775 0.19268 0.88377 0.45236 1.0681 0.77906 0.19267 0.32671 0.289 0.67017 0.28901 1.0304m-3.6691-1.0555v2.111c0.1089 0.01675 0.22618 0.02932 0.35184 0.0377 0.13403 0.0084 0.26387 0.01257 0.38953 0.01257 0.17592 0.000001 0.34764-0.01256 0.51519-0.0377 0.16754-0.03351 0.31414-0.08796 0.43979-0.16335 0.13403-0.08377 0.24293-0.19686 0.3267-0.33927 0.08377-0.15078 0.12565-0.33927 0.12566-0.56545-0.000004-0.37696-0.12147-0.64503-0.3644-0.8042-0.23456-0.16754-0.55289-0.25131-0.95498-0.25131h-0.82933m0.60315-1.2817c0.39372 0.000004 0.6911-0.08377 0.89215-0.25131 0.20104-0.17591 0.30157-0.41466 0.30157-0.71624-0.000004-0.18429-0.02932-0.33089-0.08796-0.4398-0.05864-0.11727-0.13822-0.20523-0.23875-0.26388-0.10053-0.06701-0.21781-0.1089-0.35184-0.12566-0.13404-0.02512-0.27226-0.03769-0.41466-0.0377-0.11728 0.000007-0.23875 0.0042-0.3644 0.01257-0.12566 0.0084-0.23875 0.02095-0.33927 0.0377v1.7843h0.60315"/>
   <path d="m23.246 38.014c-0.36022 0.55289-0.69111 1.0723-0.99268 1.5581-0.30158 0.48587-0.58221 0.9508-0.84189 1.3948-0.25969 0.43561-0.50681 0.85865-0.74137 1.2691-0.22618 0.4021-0.44398 0.80001-0.65341 1.1937h3.3424v1.2817h-5.1267v-0.89216c0.18429-0.36021 0.38116-0.73718 0.59058-1.1309 0.20942-0.4021 0.44398-0.82932 0.70367-1.2817 0.25969-0.45236 0.54032-0.94241 0.84189-1.4702 0.30995-0.52775 0.64922-1.1016 1.0178-1.7215h-2.9906v-1.2817h4.8503v1.0806"/>
   <path d="m24.616 44.711v-1.2817h1.6964v-5.2147h-1.6964v-1.2817h4.9383v1.2817h-1.6838v5.2147h1.6838v1.2817h-4.9383"/>
   <path d="m33.035 36.845c0.98849 0.000008 1.755 0.20524 2.2995 0.61571 0.5445 0.4021 0.81676 1.0639 0.81676 1.9854-0.000006 0.92986-0.27645 1.6042-0.82933 2.0231-0.54451 0.41048-1.3194 0.61572-2.3246 0.61571h-0.55288v2.6262h-1.5456v-7.6776c0.15079-0.0335 0.31833-0.06282 0.50262-0.08796 0.19267-0.02512 0.38534-0.04188 0.57802-0.05026 0.19267-0.01675 0.38115-0.02931 0.56545-0.0377 0.18429-0.0084 0.34764-0.01256 0.49006-0.01257m0.17592 1.3445c-0.09215 0.000007-0.222 0.0042-0.38953 0.01257-0.15917 0.000007-0.28482 0.0084-0.37697 0.02513v2.5131h0.62828c0.49424 0.000004 0.86702-0.09633 1.1183-0.28901 0.25131-0.20104 0.37696-0.54031 0.37697-1.0178-0.000005-0.45235-0.12566-0.77068-0.37697-0.95498-0.24294-0.19266-0.56964-0.289-0.98011-0.28901"/>
  </g>
 </g>
</svg>
