<svg width="48" xmlns="http://www.w3.org/2000/svg" viewBox="0 0 48 48" height="48">
 <path d="m8 1c-1.0286 0-2 0.9714-2 2v42c0 0.97143 1.0286 2 2 2h32c0.97143 0 2-1.0286 2-2v-31l-13-13z" fill="#3468ce"/>
 <path d="m29 12 0.062 0.062 0.157-0.062h-0.219zm2 2 11 11v-11h-11z" fill-opacity=".196"/>
 <path fill="#fff" d="m29 1 13 13h-11c-0.97143 0-2-1.0286-2-2v-11z" fill-opacity=".392"/>
 <g fill="#fff">
  <g transform="translate(-.5 1)">
   <rect rx=".579" ry=".601" height="7" width="8" y="17" x="16"/>
  </g>
  <g stroke-linejoin="round" transform="translate(-.5 1)" stroke-dashoffset=".774" stroke="#fff" stroke-linecap="round">
   <path d="m26.5 17.5h5"/>
   <path d="m26.5 20.5h5"/>
   <path d="m26.5 23.5h5"/>
   <path d="m16 26.5h16"/>
   <path d="m16 29.5h16"/>
   <path d="m16 32.5h16"/>
  </g>
 </g>
</svg>
