<svg width="48" xmlns="http://www.w3.org/2000/svg" viewBox="0 0 48 48" height="48">
 <path d="m8 1c-1.0286 0-2 0.9714-2 2v11 31c0 0.971 1.0286 2 2 2h32c0.971 0 2-1.029 2-2v-31-11c0-1.0286-0.971-2-2-2h-11-10-11z" fill="#3468ce"/>
 <g fill="#fff">
  <g transform="translate(-.5 -1)">
   <rect rx=".579" ry=".601" height="7" width="8" y="17" x="16"/>
  </g>
  <g stroke-linejoin="round" transform="translate(-.5 -1)" stroke-dashoffset=".774" stroke="#fff" stroke-linecap="round">
   <path d="m26.5 17.5h5"/>
   <path d="m26.5 20.5h5"/>
   <path d="m26.5 23.5h5"/>
   <path d="m16 26.5h16"/>
   <path d="m16 29.5h16"/>
   <path d="m16 32.5h16"/>
  </g>
 </g>
 <path d="m6 35v10c0 0.97143 1.0286 2 2 2h32c0.97143 0 2-1.0286 2-2v-10z" fill-opacity=".196"/>
 <g transform="scale(1.0561 .94689)" fill="#fff">
  <path d="m14.891 43.3c-0.000002 0.39236 0.01308 0.76292 0.03923 1.1117 0.03487 0.34004 0.09591 0.63649 0.1831 0.88934 0.09591 0.25285 0.22669 0.45339 0.39236 0.60161 0.16566 0.14822 0.38799 0.22234 0.66701 0.22234 0.27029 0.000001 0.48826-0.07411 0.65393-0.22234 0.17438-0.14822 0.30516-0.34876 0.39236-0.60161 0.0959-0.26157 0.15694-0.56237 0.1831-0.90242 0.03487-0.34004 0.05231-0.70624 0.05232-1.0986-0.000005-0.39235-0.01744-0.75855-0.05232-1.0986-0.02616-0.34876-0.08719-0.64956-0.1831-0.90242-0.0872-0.25284-0.21362-0.45338-0.37928-0.60161-0.16566-0.14822-0.388-0.22233-0.66701-0.22234-0.27901 0.000007-0.50135 0.07412-0.66701 0.22234-0.16566 0.14823-0.29645 0.35313-0.39236 0.61469-0.08719 0.25286-0.14823 0.5493-0.1831 0.88934-0.02616 0.34005-0.03924 0.70625-0.03923 1.0986m-1.6348 0c0-1.395 0.25721-2.4457 0.77164-3.1519 0.51442-0.71495 1.2294-1.0724 2.1449-1.0724 0.95037 0.000008 1.674 0.35749 2.171 1.0724 0.49698 0.70625 0.74547 1.7569 0.74548 3.1519-0.000006 1.395-0.25286 2.45-0.75856 3.165-0.50571 0.70624-1.2207 1.0594-2.1449 1.0594-0.95038 0-1.6784-0.35312-2.1841-1.0594-0.49698-0.71496-0.74548-1.77-0.74548-3.165"/>
  <path d="m25.655 39.259v1.334h-2.1318v6.7616h-1.6217v-6.7616h-2.1318v-1.334h5.8853"/>
  <path d="m32.194 39.259v1.334h-2.1318v6.7616h-1.6217v-6.7616h-2.1318v-1.334h5.8853"/>
 </g>
</svg>
