<svg width="48" xmlns="http://www.w3.org/2000/svg" viewBox="0 0 48 48" height="48">
 <path d="m8 1c-1.0286 0-2 0.9714-2 2v42c0 0.97143 1.0286 2 2 2h32c0.97143 0 2-1.0286 2-2v-31l-13-13z" fill="#dcdcdc"/>
 <path d="m29 12 0.062 0.062 0.157-0.062h-0.219zm2 2 11 11v-11h-11z" fill-opacity=".196"/>
 <path fill="#fff" d="m29 1 13 13h-11c-0.97143 0-2-1.0286-2-2v-11z" fill-opacity=".392"/>
 <path d="m23.325 14.107c-2.0044 0.64066-0.2463 3.6239-3.1146 5.0852-3.2781 1.67-4.9078-2.5444-6.8766 0.46426-1.9688 3.0086 2.7173 2.542 2.5852 6.0831s-4.7693 2.789-3.0292 5.9137c1.7402 3.1247 3.6725-0.97619 6.8185 0.89486 3.1461 1.8711 0.1385 5.3333 3.8474 5.4494 3.709 0.11608 0.9553-3.5182 4.2333-5.1883 3.2781-1.67 4.9077 2.5444 6.8766-0.46426 1.9688-3.0086-2.7173-2.542-2.5852-6.0831s4.7693-2.789 3.0292-5.9137c-1.7402-3.1247-3.6725 0.97619-6.8186-0.89486-3.146-1.8711-0.1384-5.3333-3.8473-5.4494-0.4636-0.01445-0.8323 0.01158-1.1187 0.10311zm0.038 9.0158c1.6544-0.33783 3.2806 0.67675 3.6322 2.2661 0.3517 1.5894-0.7044 3.1517-2.3588 3.4895-1.6544 0.33783-3.2806-0.67675-3.6323-2.2661-0.3516-1.5894 0.7045-3.1517 2.3589-3.4895z" fill="#888"/>
</svg>
