<svg width="48" xmlns="http://www.w3.org/2000/svg" viewBox="0 0 48 48" height="48">
 <path d="m8 1c-1.0286 0-2 0.9714-2 2v42c0 0.97143 1.0286 2 2 2h32c0.97143 0 2-1.0286 2-2v-31l-13-13z" fill="#dcdcdc"/>
 <path d="m29 12 0.062 0.062 0.157-0.062h-0.219zm2 2 11 11v-11h-11z" fill-opacity=".196"/>
 <path fill="#fff" d="m29 1 13 13h-11c-0.97143 0-2-1.0286-2-2v-11z" fill-opacity=".392"/>
 <g transform="matrix(.03651 0 0 .03557 21.092 -23.037)" fill="#888">
  <path d="m56.159 1617.7v-135.36h-128.29l22.333-38.682h41.054l-59.5-103.06h-130.16l28.365 16.376-37.908 65.659 101.8 176.32 9.684 16.773 2.4043 4.1644z"/>
  <path d="m290.23 1300.7-117.23 67.68 64.145 111.1h-44.666l-20.527-35.554-59.5 103.06 65.078 112.72-0.00006-32.753h75.816l101.8-176.32 9.684-16.773 2.4043-4.1644z"/>
  <path d="m-101.71 1228.6 117.23 67.68 64.145-111.1 22.333 38.682-20.527 35.554h119l65.078-112.72-28.365 16.377-37.908-65.659h-203.6-19.368-4.8086z"/>
 </g>
</svg>
