<svg width="48" xmlns="http://www.w3.org/2000/svg" viewBox="0 0 48 48" height="48">
 <path d="m8 1c-1.0286 0-2 0.9714-2 2v42c0 0.97143 1.0286 2 2 2h32c0.97143 0 2-1.0286 2-2v-31l-13-13z" fill="#39a34f"/>
 <path d="m29 12 0.062 0.062 0.157-0.062h-0.219zm2 2 11 11v-11h-11z" fill-opacity=".196"/>
 <path fill="#fff" d="m29 1 13 13h-11c-0.97143 0-2-1.0286-2-2v-11z" fill-opacity=".392"/>
 <path d="m6 35v10c0 0.97143 1.0286 2 2 2h32c0.97143 0 2-1.0286 2-2v-10z" fill-opacity=".196"/>
 <g fill="#fff">
  <path d="m17.035 16c-0.56324 0.054-1.0453 0.64805-1.0353 1.2812v8.5625 0.03125 0.53125 0.03125 4.3125c0.0061 0.663 0.53759 1.2595 1.1294 1.25h13.772c0.58251-0.01 1.0919-0.5974 1.098-1.25v-13.469c0.009-0.663-0.505-1.274-1.097-1.281h-13.772-0.09412zm0.97253 2h11.984v8.5938c-0.08675-0.10419-0.12902-0.14037-0.2196-0.25-0.89178-1.0689-1.9114-2.3394-3.1372-3.875-0.24524 0.243-0.54277 0.53615-0.94116 0.90625-0.40452 0.3701-0.88528 0.8154-1.4431 1.3125-0.07048 0.0774-0.35438-0.2177-0.87842-0.875-0.53638-0.6601-1.272-1.6677-2.2588-3.0625-1.3235 1.3722-2.2782 2.3544-3.1058 3.1875v-5.9375z"/>
  <g transform="scale(1.0702 .93438)">
   <path d="m15.334 39.691c1.0426 0.000008 1.8511 0.21648 2.4254 0.64943 0.57432 0.42412 0.86148 1.1221 0.86148 2.0941-0.000007 0.98077-0.29159 1.692-0.87474 2.1338-0.57433 0.43296-1.3916 0.64943-2.4519 0.64943h-0.58316v2.77h-1.6302v-8.098c0.15904-0.03533 0.33576-0.06626 0.53014-0.09278 0.20322-0.0265 0.40644-0.04417 0.60967-0.05301 0.20322-0.01766 0.40202-0.03092 0.59641-0.03976 0.19438-0.0088 0.36668-0.01325 0.51689-0.01325m0.18555 1.4181c-0.0972 0.000007-0.23415 0.0044-0.41086 0.01325-0.16788 0.000007-0.30042 0.0088-0.39761 0.02651v2.6507h0.66268c0.5213 0.000004 0.9145-0.10161 1.1796-0.30483 0.26507-0.21205 0.3976-0.5699 0.39761-1.0735-0.000005-0.47712-0.13254-0.81288-0.39761-1.0073-0.25624-0.20322-0.60083-0.30483-1.0338-0.30483"/>
   <path d="m23.697 47.988c-0.3711-0.91008-0.77755-1.8157-1.2193-2.717-0.43295-0.91008-0.90125-1.8202-1.4049-2.7302v5.4472h-1.4712v-8.204h1.3121c0.2474 0.38878 0.4948 0.8129 0.7422 1.2723 0.2474 0.45063 0.48596 0.90125 0.7157 1.3519 0.23856 0.45063 0.45504 0.888 0.64943 1.3121 0.20322 0.42412 0.37551 0.79522 0.51689 1.1133v-5.0496h1.4712v8.204h-1.3121"/>
   <path d="m29.754 41.017c-0.38878 0.000007-0.7157 0.07069-0.98077 0.21206-0.26508 0.14138-0.48597 0.34018-0.66268 0.59641-0.16788 0.24741-0.29158 0.54782-0.3711 0.90125-0.07069 0.3446-0.10603 0.72895-0.10603 1.1531-0.000002 0.98077 0.15462 1.7053 0.46388 2.1736 0.30925 0.45946 0.76429 0.68919 1.3651 0.68919 0.09719 0.000002 0.20322-0.0044 0.31809-0.01325 0.11486-0.0088 0.22089-0.02209 0.31809-0.03976v-2.9953h1.6302v4.0954c-0.19439 0.07069-0.49922 0.15021-0.9145 0.23856-0.40645 0.08836-0.90125 0.13254-1.4844 0.13254-0.51248-0.000001-0.97635-0.08836-1.3916-0.26507-0.40645-0.18555-0.75546-0.45504-1.047-0.80847-0.29158-0.36226-0.51689-0.80847-0.67593-1.3386-0.15904-0.53898-0.23856-1.1619-0.23856-1.8688 0-0.69802 0.09277-1.3121 0.27833-1.8423 0.18555-0.53897 0.43737-0.9896 0.75546-1.3519 0.31808-0.36226 0.6936-0.63175 1.1266-0.80847 0.43295-0.18554 0.89682-0.27832 1.3916-0.27832 0.31808 0.000008 0.60083 0.02651 0.84823 0.07952 0.25623 0.04419 0.47712 0.0972 0.66268 0.15904 0.18554 0.06186 0.33575 0.12813 0.45062 0.1988 0.1237 0.07069 0.21647 0.12371 0.27833 0.15904l-0.42412 1.2989c-0.19439-0.12369-0.43296-0.23414-0.7157-0.33134-0.28275-0.09719-0.57433-0.14578-0.87474-0.14579"/>
  </g>
 </g>
</svg>
