<svg width="48" xmlns="http://www.w3.org/2000/svg" viewBox="0 0 48 48" height="48">
 <path d="m8 1c-1.0286 0-2 0.9714-2 2v11 31c0 0.971 1.0286 2 2 2h32c0.971 0 2-1.029 2-2v-31-11c0-1.0286-0.971-2-2-2h-11-10-11z" fill="#7099c4"/>
 <path d="m6 35v10c0 0.97143 1.0286 2 2 2h32c0.97143 0 2-1.0286 2-2v-10z" fill-opacity=".196"/>
 <g transform="matrix(.81817 0 0 .81817 4.3638 4.3638)" fill="#fff">
  <path d="m15 19v2h18v-2z"/>
  <path d="m14 23v2h20v-2z"/>
  <path d="m15 27v2h18v-2z"/>
  <path d="m23 14v20h2v-20z"/>
 </g>
 <g stroke="#fff" fill="none">
  <g stroke-width="2" transform="matrix(.81817 0 0 .81817 4.3638 4.3639)">
   <path d="m20.442 33c-2-6-2-12 0-18"/>
   <path d="m27.47 33c2-5 2-12 0-18"/>
  </g>
  <g transform="matrix(.81817 0 0 .81817 4.3638 4.3639)">
   <path stroke-width="1.821" stroke-linecap="round" d="m33.057 27.317c0 5.028-4.076 9.104-9.104 9.104s-9.104-4.076-9.104-9.104 4.076-9.104 9.104-9.104 9.104 4.076 9.104 9.104z" transform="matrix(1.0984 0 0 1.0984 -2.3107 -6.0056)"/>
  </g>
 </g>
 <g transform="matrix(1.0004 0 0 .88456 -1.0281 11.375)" fill="#fff">
  <path d="m16.772 33.491c-0.000002 0.42 0.014 0.81667 0.042 1.19 0.03733 0.364 0.10266 0.68134 0.196 0.952 0.10266 0.27067 0.24266 0.48534 0.42 0.644 0.17733 0.15867 0.41533 0.238 0.714 0.238 0.28933 0.000002 0.52266-0.07933 0.7-0.238 0.18666-0.15866 0.32666-0.37333 0.42-0.644 0.10266-0.28 0.168-0.602 0.196-0.966 0.03733-0.364 0.05599-0.756 0.056-1.176-0.000005-0.42-0.01867-0.812-0.056-1.176-0.02801-0.37333-0.09334-0.69533-0.196-0.966-0.09334-0.27066-0.22867-0.48533-0.406-0.644-0.17734-0.15866-0.41534-0.23799-0.714-0.238-0.29867 0.000008-0.53667 0.07934-0.714 0.238-0.17734 0.15867-0.31734 0.37801-0.42 0.658-0.09334 0.27067-0.15867 0.58801-0.196 0.952-0.028 0.364-0.042 0.756-0.042 1.176m-1.75 0c-0.000001-1.4933 0.27533-2.618 0.826-3.374 0.55066-0.76532 1.316-1.148 2.296-1.148 1.0173 0.000009 1.792 0.38268 2.324 1.148 0.53199 0.75601 0.79799 1.8807 0.798 3.374-0.000007 1.4933-0.27067 2.6227-0.812 3.388-0.54134 0.756-1.3067 1.134-2.296 1.134-1.0173 0-1.7967-0.378-2.338-1.134-0.532-0.76533-0.798-1.8947-0.798-3.388"/>
  <path d="m28.294 29.165v1.428h-2.282v7.238h-1.736v-7.238h-2.282v-1.428h6.3"/>
  <path d="m35.014 29.165v8.666h-1.722v-3.822h-2.296v3.822h-1.722v-8.666h1.722v3.416h2.296v-3.416h1.722"/>
 </g>
</svg>
