<svg width="48" xmlns="http://www.w3.org/2000/svg" viewBox="0 0 48 48" height="48">
 <path d="m8 1c-1.0286 0-2 0.9714-2 2v42c0 0.97143 1.0286 2 2 2h32c0.97143 0 2-1.0286 2-2v-31l-13-13z" fill="#3866a0"/>
 <path d="m29 12 0.062 0.062 0.157-0.062h-0.219zm2 2 11 11v-11h-11z" fill-opacity=".196"/>
 <path fill="#fff" d="m29 1 13 13h-11c-0.97143 0-2-1.0286-2-2v-11z" fill-opacity=".392"/>
 <g transform="translate(1 -1)" fill="#fff">
  <path d="m15 18.027v4.973c0 1 0 2 1 2s1-1 1-2v-3h3c1 0 2 0 2-1s-1-1-2-1c-2 0.01247-2.9999 0.02713-4.9999 0.02713z"/>
  <path d="m31 18.027v4.973c0 1 0 2-1 2s-1-1-1-2v-3h-3c-1 0-2 0-2-1s1-1 2-1c2 0.01247 2.9999 0.02713 4.9999 0.02713z"/>
  <path d="m30.973 34h-4.973c-1 0-2 0-2-1s1-1 2-1h3v-3c0-1 0-2 1-2s1 1 1 2c-0.01247 2-0.02713 2.9999-0.02713 4.9999z"/>
  <path d="m15.027 34h4.973c1 0 2 0 2-1s-1-1-2-1h-3v-3c0-1 0-2-1-2s-1 1-1 2c0.01247 2 0.02713 2.9999 0.02713 4.9999z"/>
 </g>
 <path d="m6 35v10c0 0.97143 1.0286 2 2 2h32c0.97143 0 2-1.0286 2-2v-10z" fill-opacity=".196"/>
 <g transform="scale(1.0554 .94754)" fill="#fff">
  <path d="m14.899 43.27c-0.000002 0.39209 0.01307 0.76239 0.03921 1.1109 0.03485 0.33981 0.09584 0.63605 0.18297 0.88873 0.09584 0.25268 0.22654 0.45308 0.39208 0.6012s0.38773 0.22218 0.66655 0.22218c0.2701 0.000001 0.48792-0.07406 0.65348-0.22218 0.17426-0.14812 0.30495-0.34852 0.39209-0.6012 0.09584-0.26139 0.15683-0.56199 0.18297-0.9018 0.03485-0.3398 0.05227-0.70575 0.05228-1.0978-0.000004-0.39208-0.01743-0.75803-0.05228-1.0978-0.02614-0.34852-0.08713-0.64911-0.18297-0.9018-0.08713-0.25267-0.21347-0.45307-0.37902-0.6012-0.16555-0.14812-0.38773-0.22218-0.66655-0.22218-0.27882 0.000007-0.501 0.07407-0.66655 0.22218-0.16555 0.14813-0.29624 0.35288-0.39208 0.61427-0.08713 0.25268-0.14812 0.54893-0.18297 0.88873-0.02614 0.33981-0.03921 0.70576-0.03921 1.0978m-1.6337 0c0-1.3941 0.25703-2.444 0.7711-3.1498 0.51407-0.71446 1.2285-1.0717 2.1434-1.0717 0.94971 0.000008 1.6729 0.35724 2.1695 1.0717 0.49664 0.70576 0.74496 1.7557 0.74496 3.1498-0.000007 1.3941-0.25268 2.4484-0.75803 3.1628-0.50536 0.70576-1.2198 1.0586-2.1434 1.0586-0.94972 0-1.6773-0.35288-2.1826-1.0586-0.49664-0.71446-0.74496-1.7687-0.74496-3.1628"/>
  <path d="m21.761 46.015c0.04356 0.0087 0.09148 0.01307 0.14376 0.01307 0.05228 0.000002 0.1002 0.000002 0.14376 0 0.36594 0.000002 0.6709-0.0697 0.91487-0.20911 0.25267-0.13941 0.45307-0.33109 0.6012-0.57506 0.15683-0.24396 0.26574-0.53149 0.32674-0.86259 0.0697-0.3398 0.10455-0.71011 0.10456-1.1109-0.000005-0.34852-0.02614-0.68832-0.07842-1.0194-0.05228-0.33109-0.14377-0.62298-0.27446-0.87566-0.1307-0.25267-0.30932-0.45307-0.53585-0.6012-0.22654-0.15683-0.51843-0.23524-0.87566-0.23525-0.06971 0.000006-0.14812 0.0044-0.23525 0.01307-0.08713 0.000007-0.16555 0.0087-0.23525 0.02614v5.4369m3.8686-2.7446c-0.000006 0.74932-0.09585 1.3897-0.28753 1.9212-0.18298 0.52278-0.44001 0.94972-0.7711 1.2808-0.3311 0.3311-0.72754 0.57506-1.1893 0.73189-0.45308 0.14812-0.95408 0.22218-1.503 0.22218-0.28753 0-0.5707-0.01743-0.84952-0.05228-0.2701-0.02614-0.56199-0.07406-0.87566-0.14376v-7.894c0.36594-0.07841 0.71011-0.13069 1.0325-0.15684 0.32238-0.02613 0.62298-0.0392 0.9018-0.03921 0.53149 0.000008 1.0151 0.07843 1.4507 0.23525 0.44436 0.15684 0.81902 0.40516 1.124 0.74496 0.30495 0.3311 0.5402 0.75804 0.70576 1.2808 0.17425 0.51407 0.26138 1.1371 0.26139 1.8689"/>
  <path d="m28.086 39.231c0.06099 0.18298 0.13505 0.41823 0.22218 0.70576 0.09584 0.28754 0.19604 0.59685 0.3006 0.92794 0.10455 0.3311 0.20911 0.66655 0.31367 1.0064 0.10455 0.33981 0.20475 0.65348 0.3006 0.94101 0.10455-0.32238 0.21346-0.65347 0.32674-0.99328 0.11326-0.34852 0.22218-0.67961 0.32674-0.99328 0.10455-0.32238 0.2004-0.62297 0.28753-0.9018 0.08713-0.27881 0.16554-0.5097 0.23525-0.69268h1.3331c0.06099 0.70576 0.11762 1.3941 0.1699 2.065 0.06098 0.67091 0.10891 1.3375 0.14376 1.9996 0.04356 0.65348 0.07841 1.3157 0.10456 1.9866 0.02613 0.66219 0.04791 1.3418 0.06535 2.0388h-1.4769l0.07842-6.2864-0.99328 3.4242h-1.1763l-0.95408-3.4242 0.06535 6.2864h-1.4769c0.02614-0.66219 0.05228-1.3505 0.07842-2.065 0.03485-0.71446 0.0697-1.4246 0.10456-2.1303 0.03485-0.70575 0.07406-1.3897 0.11763-2.0519 0.05228-0.66218 0.10891-1.2764 0.1699-1.8428h1.3331"/>
 </g>
</svg>
