<svg width="48" xmlns="http://www.w3.org/2000/svg" viewBox="0 0 48 48" height="48">
 <path d="m8 1c-1.0286 0-2 0.9714-2 2v42c0 0.97143 1.0286 2 2 2h32c0.97143 0 2-1.0286 2-2v-31l-13-13z" fill="#e01818"/>
 <path d="m29 12 0.062 0.062 0.157-0.062h-0.219zm2 2 11 11v-11h-11z" fill-opacity=".196"/>
 <g fill="#fff">
  <path d="m29 1 13 13h-11c-0.97143 0-2-1.0286-2-2v-11z" fill-opacity=".392"/>
  <g transform="matrix(.12121 0 0 .12 8.4848 10.64)">
   <path d="m124.12 44.798s5.7017 53.08-34.57 123.16c-40.272 70.082-52.081 60.677-56.32 58.249-4.2391-2.4265-9.6895-10.315 8.1755-26.091s24.829-15.473 24.829-15.473-16.351 10.011-22.71 19.72c-6.3587 9.708-11.506 15.776-9.9923 18.506 1.514 2.7299 19.768-11.197 27.338-23.029 12.023-18.791 34.736-53.728 45.334-87.1s17.916-67.946 17.916-67.946z"/>
   <path d="m223.39 167.66s-0.90837 2.4272-11.506 1.517c-10.598-0.91018-51.778-13.956-73.883-40.654-22.104-26.698-23.921-63.407-25.435-82.52s6.8558-13.79 8.067-11.362c1.8968 1.6028 2.8337 6.8115 2.8337 6.8115s-0.67983-7.8249-4.0106-11.162c-3.3308-3.3374-6.2845-3.4001-9.6153 2.3656-3.3308 5.7645-4.8448 21.844-2.1195 37.316 2.7252 15.473 13.929 50.969 27.857 67.351 13.929 16.383 41.786 30.642 62.376 34.889 20.59 4.2469 25.435-4.5509 25.435-4.5509z"/>
   <path d="m89.251 174.63s39.969-13.045 77.819-16.686c37.85-3.6401 50.87 0.30463 54.201 3.034 3.3308 2.7306 3.3308 5.7645 3.3308 5.7645s4.2335-4.2189 1.4511-8.5467c-2.371-4.4645-5.9931-8.1394-35.97-7.2293-29.977 0.91018-32.097 2.1238-59.651 7.2809-27.555 5.1577-41.18 16.383-41.18 16.383z"/>
  </g>
 </g>
</svg>
