<svg width="48" xmlns="http://www.w3.org/2000/svg" viewBox="0 0 48 48" height="48">
 <path d="m8 1c-1.0286 0-2 0.9714-2 2v42c0 0.97143 1.0286 2 2 2h32c0.97143 0 2-1.0286 2-2v-31l-13-13z" fill="#00853e"/>
 <path d="m29 12 0.062 0.062 0.157-0.062h-0.219zm2 2 11 11v-11h-11z" fill-opacity=".196"/>
 <path fill="#fff" d="m29 1 13 13h-11c-0.97143 0-2-1.0286-2-2v-11z" fill-opacity=".392"/>
 <path d="m28.298 32.897h-3.3174c-1.0116 0-1.9973 0.01586-2.9582-0.35565-0.78626-0.30395-1.5273-0.76694-2.1122-1.3791-1.9394-2.0298-2.1946-5.2535-0.4401-7.4889 1.0734-1.3676 2.726-2.2424 4.4751-2.2424 0.47801 0 1.4784-0.07481 1.6788 0.48657 0.10282 0.28793-0.11474 0.61802-0.411 0.67001-0.28071 0.04928-0.60108-0.09529-0.88748-0.09877-0.84106-0.01012-1.5945 0.10372-2.3666 0.4534-2.8442 1.2883-3.5544 5.462-1.2255 7.5819 0.59908 0.54536 1.2833 0.96161 2.0707 1.1696 0.69928 0.1847 1.4181 0.14563 2.1342 0.14563h2.9794 1.3312c0.18042 0 0.44222 0.04826 0.61279-0.01271 0.13054-0.04669 0.24283-0.18816 0.33808-0.28348 0.23428-0.23448 0.58698-0.49309 0.71842-0.8039h-5.4093c-0.65156 0-1.3408 0.06334-1.9862-0.03026-0.76263-0.11059-1.4449-0.46679-2.0071-0.98883-0.29188-0.27102-0.52568-0.61488-0.70284-0.96954-1.0735-2.1493 0.30779-4.7131 2.6465-5.1277 0.4041-0.07166 0.84588-0.05243 1.2467 0.02936 0.3971 0.08111 0.89125 0.22227 1.2036 0.49345 0.22154 0.19234 0.2489 0.51073 0.05445 0.7315-0.28383 0.32206-0.56768 0.1259-0.87758-0.01013-0.2429-0.10665-0.49677-0.18204-0.7607-0.21449-1.1252-0.13833-2.2158 0.49323-2.6535 1.5383-0.54975 1.3127 0.14486 2.89 1.4913 3.3564 0.65042 0.2253 1.3926 0.13421 2.0708 0.13421h3.7401 1.9017c0.22067 0 0.59569 0.07301 0.79905-0.01271 0.08168-0.03443 0.12278-0.14792 0.16405-0.21995l0.33802-0.65582c0.39702-0.91111 0.66727-1.8446 0.77316-2.8348 0.44207-4.134-2.0791-8.0717-5.9834-9.4629-3.0552-1.0887-6.6061-0.34038-9.0015 1.8295-1.1151 1.0101-1.9179 2.2738-2.4421 3.6774-0.69813 1.8693-0.69877 4.1622 0.0079 6.0292 0.16098 0.4252 0.32858 0.8518 0.55344 1.2482 0.0594 0.10485 0.13748 0.34374 0.25746 0.38877 0.25809 0.09686 0.04151-0.47166 0.01991-0.55801-0.17748-0.70742-0.23511-1.4101-0.23511-2.1367 0-3.0985 2.0914-5.9403 4.9022-7.1203 0.84323-0.35396 1.8095-0.58015 2.7258-0.58015 0.12966 0 0.27706-0.01924 0.40148 0.0234 0.29091 0.0999 0.4652 0.43386 0.32041 0.717-0.19537 0.38208-0.58537 0.28778-0.93319 0.32092-0.74952 0.07144-1.4791 0.22016-2.1764 0.5131-2.0101 0.84449-3.5751 2.6691-4.0314 4.8144-0.64702 3.0417 0.80282 6.2266 3.6088 7.6313 1.1803 0.59084 2.4769 0.77618 3.7823 0.68458 0.91974-0.06458 1.8286-0.28249 2.6836-0.62818 0.26668-0.10778 0.69795-0.23129 0.88747-0.45263z" fill="#fff"/>
</svg>
