<svg width="48" xmlns="http://www.w3.org/2000/svg" viewBox="0 0 48 48" height="48">
 <path d="m8 1c-1.0286 0-2 0.9714-2 2v11 31c0 0.971 1.0286 2 2 2h32c0.971 0 2-1.029 2-2v-31-11c0-1.0286-0.971-2-2-2h-11-10-11z" fill="#eeaf02"/>
 <path d="m15 32v-15h18v15h-10v-8h5v3h-2v2h4v-9h-12v12z" fill="#fff"/>
 <path d="m6 35v10c0 0.97143 1.0286 2 2 2h32c0.97143 0 2-1.0286 2-2v-10z" fill-opacity=".196"/>
 <g transform="scale(1.0601 .94328)" fill="#fff">
  <path d="m14.847 43.465c-0.000002 0.39386 0.01313 0.76583 0.03939 1.1159 0.03501 0.34134 0.09627 0.63892 0.1838 0.89274 0.09627 0.25382 0.22756 0.45512 0.39386 0.60391 0.16629 0.14879 0.38948 0.22319 0.66955 0.22318 0.27132 0.000001 0.49013-0.07439 0.65643-0.22318 0.17504-0.14879 0.30633-0.35009 0.39386-0.60391 0.09627-0.26257 0.15754-0.56452 0.1838-0.90587 0.035-0.34134 0.05251-0.70894 0.05251-1.1028-0.000005-0.39385-0.01751-0.76145-0.05251-1.1028-0.02626-0.35009-0.08753-0.65204-0.1838-0.90587-0.08753-0.25381-0.21444-0.45512-0.38073-0.60391-0.1663-0.14878-0.38948-0.22318-0.66955-0.22318-0.28008 0.000007-0.50326 0.0744-0.66955 0.22318-0.1663 0.1488-0.29758 0.35448-0.39386 0.61704-0.08753 0.25382-0.14879 0.5514-0.1838 0.89274-0.02626 0.34135-0.03939 0.70894-0.03939 1.1028m-1.6411 0c0-1.4004 0.25819-2.455 0.77458-3.164 0.51639-0.71768 1.2341-1.0765 2.1531-1.0765 0.954 0.000008 1.6804 0.35885 2.1793 1.0765 0.49888 0.70895 0.74832 1.7636 0.74832 3.164-0.000006 1.4004-0.25382 2.4594-0.76145 3.1771-0.50764 0.70894-1.2253 1.0634-2.1531 1.0634-0.95401 0-1.6848-0.35447-2.1925-1.0634-0.49888-0.71769-0.74832-1.7767-0.74832-3.1771"/>
  <path d="m25.652 39.408v1.3391h-2.1399v6.7874h-1.6279v-6.7874h-2.1399v-1.3391h5.9078"/>
  <path d="m30.076 40.629c-0.38511 0.000007-0.70894 0.07003-0.97151 0.21006-0.26257 0.14004-0.48138 0.33697-0.65642 0.59078-0.1663 0.24507-0.28883 0.54265-0.3676 0.89274-0.07002 0.34135-0.10503 0.72207-0.10503 1.1422-0.000002 0.97151 0.15316 1.6892 0.4595 2.1531 0.30633 0.45512 0.75707 0.68268 1.3522 0.68268 0.09627 0.000001 0.2013-0.0044 0.31508-0.01313 0.11378-0.0088 0.2188-0.02188 0.31508-0.03939v-2.967h1.6148v4.0567c-0.19256 0.07002-0.49451 0.14879-0.90587 0.23631-0.40261 0.08752-0.89274 0.13128-1.4704 0.13128-0.50764 0-0.96714-0.08752-1.3785-0.26257-0.40261-0.1838-0.74833-0.45074-1.0372-0.80084-0.28883-0.35884-0.51201-0.80084-0.66955-1.326-0.15754-0.53389-0.23631-1.1509-0.23631-1.8511 0-0.69143 0.0919-1.2997 0.2757-1.8249 0.1838-0.53389 0.43324-0.98026 0.74832-1.3391s0.68706-0.62578 1.1159-0.80084c0.42886-0.18379 0.88836-0.27569 1.3785-0.2757 0.31508 0.000008 0.59515 0.02626 0.84022 0.07877 0.25381 0.04377 0.47262 0.09628 0.65643 0.15754 0.18379 0.06127 0.33258 0.12692 0.44637 0.19693 0.12253 0.07003 0.21443 0.12254 0.2757 0.15754l-0.42011 1.2866c-0.19256-0.12253-0.42887-0.23193-0.70894-0.32821-0.28008-0.09627-0.56891-0.14441-0.86648-0.14441"/>
 </g>
</svg>
