<svg width="48" xmlns="http://www.w3.org/2000/svg" viewBox="0 0 48 48" height="48">
 <path d="m8 1c-1.0286 0-2 0.9714-2 2v42c0 0.97143 1.0286 2 2 2h32c0.97143 0 2-1.0286 2-2v-31l-13-13z" fill="#39a34f"/>
 <path d="m29 12 0.062 0.062 0.157-0.062h-0.219zm2 2 11 11v-11h-11z" fill-opacity=".196"/>
 <path fill="#fff" d="m29 1 13 13h-11c-0.97143 0-2-1.0286-2-2v-11z" fill-opacity=".392"/>
 <path d="m6 35v10c0 0.97143 1.0286 2 2 2h32c0.97143 0 2-1.0286 2-2v-10z" fill-opacity=".196"/>
 <g fill="#fff">
  <path d="m17.035 16c-0.56324 0.054-1.0453 0.64805-1.0353 1.2812v8.5625 0.03125 0.53125 0.03125 4.3125c0.0061 0.663 0.53759 1.2595 1.1294 1.25h13.772c0.58251-0.01 1.0919-0.5974 1.098-1.25v-13.469c0.009-0.663-0.505-1.274-1.097-1.281h-13.772-0.09412zm0.97253 2h11.984v8.5938c-0.08675-0.10419-0.12902-0.14037-0.2196-0.25-0.89178-1.0689-1.9114-2.3394-3.1372-3.875-0.24524 0.243-0.54277 0.53615-0.94116 0.90625-0.40452 0.3701-0.88528 0.8154-1.4431 1.3125-0.07048 0.0774-0.35438-0.2177-0.87842-0.875-0.53638-0.6601-1.272-1.6677-2.2588-3.0625-1.3235 1.3722-2.2782 2.3544-3.1058 3.1875v-5.9375z"/>
  <g transform="scale(1.0668 .93736)">
   <path d="m15.369 39.565c1.0393 0.000008 1.8452 0.2158 2.4177 0.64736 0.57249 0.42278 0.85874 1.1186 0.85875 2.0874-0.000006 0.97766-0.29066 1.6867-0.87196 2.1271-0.5725 0.43158-1.3872 0.64737-2.4441 0.64736h-0.58131v2.7612h-1.625v-8.0722c0.15854-0.03522 0.33469-0.06605 0.52846-0.09248 0.20258-0.02642 0.40515-0.04403 0.60773-0.05285 0.20258-0.01761 0.40075-0.03082 0.59452-0.03964 0.19377-0.0088 0.36552-0.0132 0.51525-0.01321m0.18496 1.4136c-0.09689 0.000007-0.23341 0.0044-0.40956 0.01321-0.16735 0.000007-0.29946 0.0088-0.39635 0.02642v2.6423h0.66058c0.51965 0.000004 0.91159-0.10128 1.1758-0.30386 0.26422-0.21138 0.39634-0.56809 0.39634-1.0701-0.000005-0.47561-0.13212-0.8103-0.39634-1.0041-0.25543-0.20257-0.59893-0.30386-1.0305-0.30386"/>
   <path d="m22.08 46.647c0.27303 0.000001 0.49763-0.02642 0.67379-0.07927 0.18496-0.06165 0.33028-0.14092 0.43598-0.23781 0.10569-0.10569 0.17615-0.22019 0.21138-0.3435 0.04403-0.13211 0.06605-0.26423 0.06606-0.39634-0.000005-0.16734-0.04845-0.31707-0.14533-0.44919-0.09689-0.13211-0.2202-0.24661-0.36992-0.3435-0.14974-0.10569-0.31708-0.19817-0.50204-0.27744-0.18496-0.08807-0.36992-0.16734-0.55488-0.23781-0.24662-0.08807-0.50204-0.18936-0.76627-0.30386s-0.50644-0.25982-0.72663-0.43598c-0.21139-0.17615-0.38754-0.39194-0.52846-0.64736-0.14092-0.26422-0.21138-0.59011-0.21138-0.97765-0.000001-0.76626 0.24661-1.3652 0.73984-1.7968 0.50204-0.43157 1.189-0.64736 2.061-0.64736 0.50203 0.000009 0.93801 0.05726 1.3079 0.17175 0.37872 0.11451 0.6958 0.24222 0.95123 0.38313l-0.47561 1.2551c-0.2202-0.1233-0.46681-0.22899-0.73984-0.31708-0.26423-0.08807-0.5725-0.13211-0.92481-0.13212-0.86316 0.000007-1.2947 0.31268-1.2947 0.93802-0.000002 0.15854 0.04404 0.29947 0.13212 0.42277 0.08807 0.1145 0.19817 0.2202 0.33029 0.31708 0.14092 0.08808 0.29505 0.16735 0.4624 0.23781 0.17615 0.07047 0.3479 0.13652 0.51525 0.19817 0.25542 0.09689 0.51965 0.20698 0.79269 0.33029 0.28184 0.1145 0.53726 0.27304 0.76627 0.47561 0.2378 0.19377 0.43157 0.44039 0.58131 0.73984 0.14972 0.29066 0.22459 0.66058 0.2246 1.1098-0.000006 0.76627-0.25102 1.3608-0.75306 1.7836-0.49323 0.41396-1.2463 0.62094-2.2592 0.62094-0.67819 0-1.2199-0.07046-1.625-0.21138-0.40515-0.14973-0.70902-0.28625-0.9116-0.40956l0.47562-1.3212c0.23781 0.14092 0.51965 0.27304 0.84554 0.39634 0.33469 0.12331 0.73984 0.18496 1.2155 0.18496"/>
   <path d="m27.96 46.514c0.04404 0.0088 0.09248 0.01321 0.14533 0.01321 0.05284 0.000001 0.10129 0.000001 0.14533 0 0.36992 0.000001 0.67819-0.07046 0.92481-0.21138 0.25542-0.14092 0.458-0.33469 0.60773-0.58131 0.15853-0.24661 0.26863-0.53726 0.33029-0.87196 0.07046-0.3435 0.10569-0.71782 0.10569-1.123-0.000004-0.3523-0.02643-0.6958-0.07927-1.0305-0.05285-0.33469-0.14533-0.62974-0.27744-0.88517-0.13212-0.25542-0.31268-0.45799-0.54167-0.60773-0.229-0.15853-0.52406-0.2378-0.88517-0.23781-0.07046 0.000007-0.14973 0.0044-0.23781 0.01321-0.08808 0.000007-0.16735 0.0088-0.23781 0.02642v5.496m3.9106-2.7744c-0.000007 0.75746-0.09689 1.4048-0.29065 1.9421-0.18497 0.52846-0.44479 0.96004-0.77948 1.2947-0.3347 0.33469-0.73544 0.58131-1.2022 0.73984-0.458 0.14973-0.96444 0.2246-1.5193 0.2246-0.29066 0-0.5769-0.01762-0.85875-0.05285-0.27304-0.02642-0.5681-0.07487-0.88517-0.14533v-7.9798c0.36992-0.07926 0.71782-0.13211 1.0437-0.15854 0.32588-0.02641 0.62975-0.03963 0.9116-0.03963 0.53726 0.000008 1.0261 0.07928 1.4665 0.23781 0.44919 0.15855 0.82792 0.40956 1.1362 0.75306 0.30826 0.3347 0.54607 0.76628 0.71342 1.2947 0.17615 0.51966 0.26422 1.1494 0.26423 1.8892"/>
  </g>
 </g>
</svg>
