<svg width="48" xmlns="http://www.w3.org/2000/svg" viewBox="0 0 48 48" height="48">
 <path d="m8 1c-1.0286 0-2 0.9714-2 2v42c0 0.97143 1.0286 2 2 2h32c0.97143 0 2-1.0286 2-2v-31l-13-13z" fill="#c19553"/>
 <path d="m29 12 0.062 0.062 0.157-0.062h-0.219zm2 2 11 11v-11h-11z" fill-opacity=".196"/>
 <path fill="#fff" d="m29 1 13 13h-11c-0.97143 0-2-1.0286-2-2v-11z" fill-opacity=".392"/>
 <path d="m6 35v10c0 0.97143 1.0286 2 2 2h32c0.97143 0 2-1.0286 2-2v-10z" fill-opacity=".196"/>
 <g fill="#fff">
  <path d="m18 1v4h4v-4h-4zm0 4h-4v4h4v-4zm0 4v4h4v-4h-4zm0 4h-4v4h4v-4zm0 4v4h4v-4h-4zm-4 6v8h8v-8h-4-4z"/>
  <g transform="scale(1.0476 .95456)">
   <path d="m18.706 40.006c-0.38379 0.58908-0.73634 1.1424-1.0576 1.6601-0.32131 0.51767-0.62031 1.013-0.89699 1.4861-0.27669 0.46412-0.53998 0.91484-0.78989 1.3522-0.24099 0.42842-0.47304 0.85237-0.69617 1.2719h3.5612v1.3656h-5.4623v-0.95054c0.19636-0.38379 0.4061-0.78542 0.62923-1.2049 0.22313-0.42841 0.47304-0.8836 0.74972-1.3656 0.27668-0.48196 0.57568-1.0041 0.89699-1.5664 0.33023-0.56229 0.6917-1.1737 1.0844-1.8341h-3.1863v-1.3656h5.1677v1.1514"/>
   <path d="m20.165 47.142v-1.3656h1.8074v-5.556h-1.8074v-1.3656h5.2615v1.3656h-1.794v5.556h1.794v1.3656h-5.2615"/>
   <path d="m29.135 38.761c1.0532 0.000009 1.8698 0.21868 2.45 0.65601 0.58014 0.42842 0.87021 1.1335 0.87021 2.1153-0.000006 0.99071-0.29454 1.7092-0.8836 2.1555-0.58015 0.43734-1.4057 0.65601-2.4768 0.65601h-0.58907v2.7981h-1.6467v-8.18c0.16066-0.03569 0.33916-0.06693 0.53552-0.09372 0.20528-0.02677 0.41056-0.04462 0.61584-0.05355 0.20528-0.01784 0.4061-0.03123 0.60246-0.04016 0.19635-0.0089 0.3704-0.01338 0.52213-0.01339m0.18743 1.4325c-0.09818 0.000007-0.23652 0.0045-0.41502 0.01339-0.16958 0.000007-0.30346 0.0089-0.40164 0.02678v2.6776h0.6694c0.52659 0.000004 0.92376-0.10264 1.1915-0.30792 0.26775-0.2142 0.40163-0.57568 0.40164-1.0844-0.000005-0.48196-0.13388-0.82112-0.40164-1.0175-0.25884-0.20528-0.60692-0.30792-1.0443-0.30792"/>
  </g>
 </g>
</svg>
