<svg width="48" xmlns="http://www.w3.org/2000/svg" viewBox="0 0 48 48" height="48">
 <path d="m8 1c-1.0286 0-2 0.9714-2 2v42c0 0.97143 1.0286 2 2 2h32c0.97143 0 2-1.0286 2-2v-31l-13-13z" fill="#c19553"/>
 <path d="m29 12 0.062 0.062 0.157-0.062h-0.219zm2 2 11 11v-11h-11z" fill-opacity=".196"/>
 <path fill="#fff" d="m29 1 13 13h-11c-0.97143 0-2-1.0286-2-2v-11z" fill-opacity=".392"/>
 <path d="m6 35v10c0 0.97143 1.0286 2 2 2h32c0.97143 0 2-1.0286 2-2v-10z" fill-opacity=".196"/>
 <g fill="#fff">
  <path d="m18 1v4h4v-4h-4zm0 4h-4v4h4v-4zm0 4v4h4v-4h-4zm0 4h-4v4h4v-4zm0 4v4h4v-4h-4zm-4 6v8h8v-8h-4-4z"/>
  <g transform="scale(1.0443 .95757)">
   <path d="m15.541 38.64c0.47155 0.000009 0.89862 0.05339 1.2812 0.16015 0.38258 0.10678 0.71178 0.27137 0.98759 0.4938 0.27581 0.22244 0.48489 0.50715 0.62726 0.85414 0.15125 0.3381 0.22687 0.73848 0.22688 1.2011-0.000006 0.48046-0.09788 0.91642-0.29361 1.3079-0.19574 0.39148-0.5205 0.68954-0.97425 0.89417 0.15125 0.23133 0.3114 0.48935 0.48045 0.77406 0.16904 0.27582 0.33364 0.56942 0.4938 0.88083 0.16014 0.30251 0.3114 0.60946 0.45376 0.92086 0.15125 0.30251 0.28026 0.59167 0.38703 0.86748h-1.7216c-0.204-0.535-0.444-1.046-0.72-1.536-0.267-0.498-0.556-1.001-0.867-1.508h-0.85414v3.0429h-1.6415v-8.141c0.16015-0.03558 0.33365-0.06672 0.52049-0.09342 0.19574-0.03558 0.39148-0.05782 0.58722-0.06673 0.19574-0.01779 0.38258-0.03113 0.56053-0.04004 0.17794-0.0089 0.33364-0.01334 0.4671-0.01335m1.4547 2.6959c-0.000004-0.43596-0.13346-0.75626-0.40038-0.9609-0.26692-0.20463-0.61836-0.30695-1.0543-0.30696-0.06228 0.000007-0.13791 0.0045-0.22688 0.01335-0.08898 0.000007-0.17795 0.0089-0.26692 0.02669v2.4823h0.36034c0.56052 0.000004 0.96535-0.10676 1.2145-0.3203 0.24912-0.22243 0.37368-0.53383 0.37368-0.93421"/>
   <path d="m24.149 46.994-0.38703-1.9085h-2.2021l-0.37368 1.9085h-1.7083c0.39148-1.6282 0.7874-3.1096 1.1878-4.4442 0.40037-1.3435 0.7874-2.6158 1.1611-3.8169h1.7883c0.39147 1.21 0.7785 2.4957 1.1611 3.857 0.39147 1.3524 0.7696 2.8204 1.1344 4.4041h-1.7617m-1.468-6.6596c-0.08897 0.31141-0.1735 0.60947-0.25357 0.89417-0.07118 0.27582-0.14236 0.55163-0.21353 0.82744-0.06228 0.26692-0.12456 0.53829-0.18684 0.8141-0.05339 0.27582-0.10677 0.56053-0.16015 0.85414h1.6148c-0.05339-0.29361-0.10677-0.57832-0.16015-0.85414-0.05339-0.27581-0.11567-0.54718-0.18684-0.8141-0.06228-0.27581-0.13346-0.55162-0.21353-0.82744-0.07118-0.28471-0.15126-0.58276-0.24023-0.89417"/>
   <path d="m28.887 38.64c0.47155 0.000009 0.89862 0.05339 1.2812 0.16015 0.38258 0.10678 0.71178 0.27137 0.98759 0.4938 0.27581 0.22244 0.48489 0.50715 0.62726 0.85414 0.15125 0.3381 0.22687 0.73848 0.22688 1.2011-0.000006 0.48046-0.09788 0.91642-0.29361 1.3079-0.19574 0.39148-0.52049 0.68954-0.97425 0.89417 0.15125 0.23133 0.3114 0.48935 0.48045 0.77406 0.16904 0.27582 0.33364 0.56942 0.4938 0.88083 0.16014 0.30251 0.3114 0.60946 0.45376 0.92086 0.15125 0.30251 0.28026 0.59167 0.38703 0.86748h-1.7216c-0.204-0.535-0.444-1.046-0.72-1.536-0.267-0.498-0.556-1.001-0.868-1.508h-0.85414v3.0429h-1.6415v-8.141c0.16015-0.03558 0.33365-0.06672 0.52049-0.09342 0.19574-0.03558 0.39148-0.05782 0.58722-0.06673 0.19574-0.01779 0.38258-0.03113 0.56053-0.04004 0.17794-0.0089 0.33364-0.01334 0.4671-0.01335m1.4547 2.6959c-0.000004-0.43596-0.13346-0.75626-0.40038-0.9609-0.26692-0.20463-0.61836-0.30695-1.0543-0.30696-0.06228 0.000007-0.13791 0.0045-0.22688 0.01335-0.08897 0.000007-0.17795 0.0089-0.26692 0.02669v2.4823h0.36034c0.56052 0.000004 0.96535-0.10676 1.2145-0.3203 0.24912-0.22243 0.37368-0.53383 0.37368-0.93421"/>
  </g>
 </g>
</svg>
