<svg width="48" xmlns="http://www.w3.org/2000/svg" viewBox="0 0 48 48" height="48">
 <path d="m8 1c-1.0286 0-2 0.9714-2 2v42c0 0.97143 1.0286 2 2 2h32c0.97143 0 2-1.0286 2-2v-31l-13-13z" fill="#c19553"/>
 <path d="m29 12 0.062 0.062 0.157-0.062h-0.219zm2 2 11 11v-11h-11z" fill-opacity=".196"/>
 <path fill="#fff" d="m29 1 13 13h-11c-0.97143 0-2-1.0286-2-2v-11z" fill-opacity=".392"/>
 <path d="m6 35v10c0 0.97143 1.0286 2 2 2h32c0.97143 0 2-1.0286 2-2v-10z" fill-opacity=".196"/>
 <g fill="#fff">
  <path d="m18 1v4h4v-4h-4zm0 4h-4v4h4v-4zm0 4v4h4v-4h-4zm0 4h-4v4h4v-4zm0 4v4h4v-4h-4zm-4 6v8h8v-8h-4-4z"/>
  <g transform="scale(1.0941 .91403)">
   <path d="m16.712 49.233c0.02828-0.60329 0.12726-1.2396 0.29693-1.9089 0.16967-0.6787 0.37234-1.348 0.60801-2.0078 0.24508-0.65985 0.50902-1.282 0.79182-1.8664 0.28279-0.59386 0.55144-1.1029 0.80596-1.5271h-3.6763v-1.4422h5.7124v1.315c-0.25452 0.29223-0.5326 0.70228-0.83424 1.2302-0.30165 0.52789-0.58916 1.1265-0.86252 1.7957-0.26394 0.66928-0.49961 1.3857-0.70698 2.1492-0.19796 0.75412-0.3205 1.5082-0.36763 2.2623h-1.7675"/>
   <path d="m28.208 41.696c-0.40534 0.62215-0.77769 1.2066-1.117 1.7533-0.33936 0.54674-0.65514 1.0699-0.94736 1.5695-0.29222 0.49018-0.5703 0.96622-0.83424 1.4281-0.25452 0.45247-0.4996 0.90023-0.73526 1.3433h3.7612v1.4422h-5.769v-1.0039c0.20738-0.40534 0.4289-0.82952 0.66456-1.2726 0.23566-0.45247 0.4996-0.93322 0.79182-1.4422 0.29222-0.50902 0.608-1.0605 0.94736-1.6543 0.34878-0.59386 0.73055-1.2396 1.1453-1.9371h-3.3652v-1.4422h5.4579v1.216"/>
  </g>
 </g>
</svg>
