<svg width="48" xmlns="http://www.w3.org/2000/svg" viewBox="0 0 48 48" height="48">
 <path d="m8 1c-1.0286 0-2 0.9714-2 2v42c0 0.97143 1.0286 2 2 2h32c0.97143 0 2-1.0286 2-2v-31l-13-13z" fill="#dcdcdc"/>
 <path d="m29 12 0.062 0.062 0.157-0.062h-0.219zm2 2 11 11v-11h-11z" fill-opacity=".196"/>
 <path fill="#fff" d="m29 1 13 13h-11c-0.97143 0-2-1.0286-2-2v-11z" fill-opacity=".392"/>
 <g fill="#888">
  <path d="m14 19v1h20v-1z"/>
  <path d="m14 21v1h20v-1z"/>
  <path d="m14 23v1h20v-1z"/>
  <path d="m14 25v1h20v-1z"/>
  <path d="m14 27v1h20v-1z"/>
  <path d="m14 29v1h20v-1z"/>
  <path d="m14 31v1h20v-1z"/>
  <path d="m14 33v1h20v-1z"/>
  <path d="m14 35v1h20v-1z"/>
 </g>
</svg>
