<svg width="48" xmlns="http://www.w3.org/2000/svg" viewBox="0 0 48 48" height="48">
 <path d="m8 1c-1.0286 0-2 0.9714-2 2v42c0 0.97143 1.0286 2 2 2h32c0.97143 0 2-1.0286 2-2v-31l-13-13z" fill="#c19553"/>
 <path d="m29 12 0.062 0.062 0.157-0.062h-0.219zm2 2 11 11v-11h-11z" fill-opacity=".196"/>
 <path fill="#fff" d="m29 1 13 13h-11c-0.97143 0-2-1.0286-2-2v-11z" fill-opacity=".392"/>
 <path d="m6 35v10c0 0.97143 1.0286 2 2 2h32c0.97143 0 2-1.0286 2-2v-10z" fill-opacity=".196"/>
 <g fill="#fff">
  <path d="m18 1v4h4v-4h-4zm0 4h-4v4h4v-4zm0 4v4h4v-4h-4zm0 4h-4v4h4v-4zm0 4v4h4v-4h-4zm-4 6v8h8v-8h-4-4z"/>
  <g transform="scale(1.0097 .99041)">
   <path d="m16.749 45.273h-4.864v-7.7399h1.5505v6.4645h3.3135v1.2754"/>
   <path d="m22.813 38.609c-0.35845 0.55018-0.68772 1.067-0.9878 1.5505-0.3001 0.48349-0.57935 0.94613-0.83776 1.3879-0.25842 0.43347-0.50432 0.85443-0.73773 1.2629-0.22507 0.40012-0.4418 0.79608-0.6502 1.1879h3.326v1.2754h-5.1016v-0.88777c0.18339-0.35844 0.37928-0.73356 0.58768-1.1253 0.2084-0.40012 0.4418-0.82525 0.70022-1.2754 0.25841-0.45014 0.53766-0.93778 0.83776-1.4629 0.30842-0.52516 0.64603-1.0962 1.0128-1.713h-2.9759v-1.2754h4.8265v1.0753"/>
   <path d="m25.402 41.397c-0.000002 0.37512 0.0125 0.72939 0.03751 1.0628 0.03334 0.3251 0.09169 0.60852 0.17505 0.85026 0.09169 0.24174 0.21673 0.43347 0.37512 0.57518 0.15838 0.14171 0.37094 0.21257 0.6377 0.21256 0.25841 0.000001 0.46681-0.07085 0.62519-0.21256 0.16671-0.14171 0.29175-0.33343 0.37512-0.57518 0.09169-0.25007 0.15004-0.53766 0.17505-0.86276 0.03334-0.3251 0.05001-0.6752 0.05002-1.0503-0.000004-0.37511-0.01668-0.72522-0.05002-1.0503-0.02501-0.33343-0.08336-0.62102-0.17505-0.86276-0.08336-0.24174-0.20423-0.43346-0.36261-0.57518-0.15838-0.1417-0.37095-0.21256-0.6377-0.21256-0.26675 0.000006-0.47932 0.07086-0.6377 0.21256-0.15838 0.14172-0.28342 0.33761-0.37512 0.58768-0.08336 0.24175-0.14171 0.52517-0.17505 0.85026-0.02501 0.3251-0.03751 0.67521-0.03751 1.0503m-1.563 0c0-1.3337 0.24591-2.3382 0.73773-3.0134 0.49182-0.68354 1.1754-1.0253 2.0506-1.0253 0.90861 0.000008 1.6005 0.34178 2.0756 1.0253 0.47514 0.67521 0.71271 1.6797 0.71272 3.0134-0.000006 1.3337-0.24175 2.3424-0.72522 3.0259-0.48349 0.67521-1.167 1.0128-2.0506 1.0128-0.90861-0.000001-1.6047-0.3376-2.0881-1.0128-0.47515-0.68354-0.71272-1.6922-0.71272-3.0259"/>
   <path d="m32.554 37.446c0.98363 0.000008 1.7464 0.20424 2.2882 0.61269 0.54183 0.40013 0.81274 1.0587 0.81275 1.9756-0.000006 0.92529-0.27509 1.5963-0.82525 2.0131-0.54184 0.40846-1.3129 0.61269-2.3132 0.61269h-0.55017v2.6133h-1.538v-7.6398c0.15005-0.03334 0.31676-0.06251 0.50015-0.08753 0.19172-0.025 0.38345-0.04167 0.57518-0.05002 0.19172-0.01666 0.37928-0.02917 0.56267-0.03751 0.18339-0.0083 0.34594-0.0125 0.48765-0.0125m0.17505 1.3379c-0.0917 0.000007-0.2209 0.0042-0.38762 0.0125-0.15838 0.000007-0.28342 0.0083-0.37512 0.02501v2.5008h0.62519c0.49181 0.000004 0.86276-0.09586 1.1128-0.28759 0.25007-0.20006 0.37511-0.53766 0.37512-1.0128-0.000005-0.45013-0.12504-0.7669-0.37512-0.95029-0.24174-0.19172-0.56684-0.28758-0.9753-0.28759"/>
  </g>
 </g>
</svg>
