<svg width="48" xmlns="http://www.w3.org/2000/svg" viewBox="0 0 48 48" height="48">
 <path d="m8 1c-1.0286 0-2 0.9714-2 2v42c0 0.97143 1.0286 2 2 2h32c0.97143 0 2-1.0286 2-2v-31l-13-13z" fill="#dcdcdc"/>
 <path d="m29 12 0.062 0.062 0.157-0.062h-0.219zm2 2 11 11v-11h-11z" fill-opacity=".196"/>
 <path fill="#fff" d="m29 1 13 13h-11c-0.97143 0-2-1.0286-2-2v-11z" fill-opacity=".392"/>
 <g transform="matrix(.90733 0 0 .9976 .54641 1.4646)" fill="#555">
  <path d="m30.42 13.568-1.4888 16.304c-0.0771 0.76126-0.11565 1.2623-0.11563 1.5032-0.000014 0.38545 0.07226 0.67935 0.21681 0.88171 0.18307 0.27945 0.4288 0.48663 0.73717 0.62153 0.31798 0.13491 0.84797 0.20236 1.59 0.20236l-0.159 0.53481h-7.7186l0.159-0.53481h0.33245c0.62634 0.000001 1.1371-0.13491 1.5322-0.40472 0.27944-0.18309 0.49625-0.48663 0.65044-0.91062 0.10599-0.29872 0.20717-1.0022 0.30354-2.1103l0.23127-2.4861h-5.6083l-1.9947 2.7029c-0.4529 0.60708-0.73717 1.0455-0.8528 1.3153-0.11564 0.26018-0.17345 0.5059-0.17345 0.73717-0.000003 0.30836 0.12527 0.57335 0.37581 0.79498s0.66489 0.34208 1.2431 0.36136l-0.159 0.53481h-5.7962l0.159-0.53481c0.71308-0.02891 1.3394-0.26499 1.8791-0.70826 0.54926-0.4529 1.3635-1.4117 2.4428-2.8764l11.708-15.929h0.5059m-2.8619 4.8133-5.6805 7.733h4.9289l0.75162-7.733"/>
 </g>
</svg>
