<svg width="48" xmlns="http://www.w3.org/2000/svg" viewBox="0 0 48 48" height="48">
 <path d="m8 1c-1.0286 0-2 0.9714-2 2v42c0 0.97143 1.0286 2 2 2h32c0.97143 0 2-1.0286 2-2v-31l-13-13z" fill="#c19553"/>
 <path d="m29 12 0.062 0.062 0.157-0.062h-0.219zm2 2 11 11v-11h-11z" fill-opacity=".196"/>
 <path fill="#fff" d="m29 1 13 13h-11c-0.97143 0-2-1.0286-2-2v-11z" fill-opacity=".392"/>
 <path d="m6 35v10c0 0.97143 1.0286 2 2 2h32c0.97143 0 2-1.0286 2-2v-10z" fill-opacity=".196"/>
 <g fill="#fff">
  <path d="m18 1v4h4v-4h-4zm0 4h-4v4h4v-4zm0 4v4h4v-4h-4zm0 4h-4v4h4v-4zm0 4v4h4v-4h-4zm-4 6v8h8v-8h-4-4z"/>
  <g transform="scale(.99717 1.0028)">
   <path d="m14.405 43.601c0.25521 0.000001 0.46514-0.0247 0.62979-0.07409 0.17288-0.05763 0.30872-0.13172 0.40751-0.22228 0.09879-0.09879 0.16465-0.20581 0.19758-0.32107 0.04116-0.12349 0.06174-0.24698 0.06174-0.37047-0.000004-0.15642-0.04528-0.29637-0.13584-0.41986s-0.20582-0.23051-0.34577-0.32107c-0.13996-0.09879-0.29638-0.18523-0.46926-0.25933-0.17289-0.08232-0.34577-0.15642-0.51865-0.22228-0.23052-0.08232-0.46926-0.177-0.71624-0.28402s-0.47338-0.24286-0.67919-0.40751c-0.19758-0.16465-0.36224-0.36635-0.49396-0.6051-0.13172-0.24697-0.19758-0.55158-0.19758-0.91382-0.000001-0.71623 0.23051-1.276 0.69154-1.6795 0.46926-0.40339 1.1114-0.60509 1.9264-0.6051 0.46925 0.000008 0.87677 0.05352 1.2225 0.16054 0.354 0.10703 0.65037 0.2264 0.88912 0.35812l-0.44456 1.1731c-0.20582-0.11525-0.43633-0.21404-0.69154-0.29637-0.24698-0.08232-0.53512-0.12348-0.86442-0.12349-0.8068 0.000007-1.2102 0.29226-1.2102 0.87677-0.000002 0.14819 0.04116 0.27991 0.12349 0.39516 0.08232 0.10703 0.18523 0.20582 0.30872 0.29637 0.13172 0.08233 0.27579 0.15642 0.43221 0.22228 0.16465 0.06587 0.32518 0.12761 0.48161 0.18523 0.23874 0.09056 0.48572 0.19347 0.74093 0.30872 0.26344 0.10703 0.50218 0.25522 0.71624 0.44456 0.22228 0.18112 0.40339 0.41163 0.54335 0.69154 0.13995 0.27168 0.20993 0.61745 0.20993 1.0373-0.000006 0.71624-0.23464 1.2719-0.70389 1.6671-0.46103 0.38693-1.1649 0.5804-2.1117 0.5804-0.63391 0-1.1402-0.06586-1.5189-0.19758-0.3787-0.13995-0.66272-0.26756-0.85207-0.38282l0.44456-1.2349c0.22228 0.13172 0.48572 0.25521 0.79033 0.37047 0.31284 0.11526 0.69154 0.17289 1.1361 0.17288"/>
   <path d="m18.381 44.712v-1.2596h1.6671v-5.1248h-1.6671v-1.2596h4.8531v1.2596h-1.6548v5.1248h1.6548v1.2596h-4.8531"/>
   <path d="m29.755 37.068v1.2596h-2.0129v6.3844h-1.5313v-6.3844h-2.0129v-1.2596h5.557"/>
   <path d="m34.46 44.712c-0.15642-0.41986-0.34989-0.885-0.5804-1.3954-0.22228-0.51042-0.45691-1.0208-0.70389-1.5313-0.23875 0.48573-0.47749 0.99203-0.71624 1.5189-0.23875 0.51866-0.44456 0.98791-0.61744 1.4078h-1.6424c0.08233-0.22228 0.2017-0.48984 0.35812-0.80268 0.16465-0.31284 0.34165-0.65037 0.531-1.0126 0.19758-0.36223 0.4034-0.7327 0.61744-1.1114 0.21405-0.38693 0.41986-0.7574 0.61744-1.1114l-2.0005-3.6059h1.6424l1.2102 2.4451 1.2719-2.4451h1.5313l-1.9511 3.5688c0.22228 0.35401 0.44044 0.72447 0.65449 1.1114 0.21404 0.38694 0.41162 0.76564 0.59275 1.1361 0.18934 0.36224 0.354 0.70389 0.49396 1.025 0.13995 0.31284 0.25109 0.5804 0.33342 0.80268h-1.6424"/>
  </g>
 </g>
</svg>
