<svg width="48" xmlns="http://www.w3.org/2000/svg" viewBox="0 0 48 48" height="48">
 <path d="m8 1c-1.0286 0-2 0.9714-2 2v42c0 0.97143 1.0286 2 2 2h32c0.97143 0 2-1.0286 2-2v-31l-13-13z" fill="#6c7daa"/>
 <path d="m29 12 0.062 0.062 0.157-0.062h-0.219zm2 2 11 11v-11h-11z" fill-opacity=".196"/>
 <path fill="#fff" d="m29 1 13 13h-11c-0.97143 0-2-1.0286-2-2v-11z" fill-opacity=".392"/>
 <path d="m27.333 18h2.2222c3.3333 0 3.3333 3.4285 3.3333 3.4285v3.3929c0 1.1429-2.2222 3.4642-2.2222 3.4642v1.1429l3.334 2.286v2.286h-6.1111-6.1111v-2.2857l4.4444-2.2857v-1.1429s-2.2296-2.3214-2.2222-3.4642v-3.3929s0-3.429 3.333-3.429zm-7.7778 2.2857h2.2222v4.5357c0.001 1.142 2.223 3.464 2.223 3.464l-4.4444 2.2857v2.2857l-5.556-0.035v-1.1429l4.4444-2.2501v-1.1428s-2.2295-2.3215-2.2222-3.4642v-1.1072c0-3.4286 3.3333-3.4286 3.3333-3.4286z" fill="#fff"/>
</svg>
