<svg width="48" xmlns="http://www.w3.org/2000/svg" viewBox="0 0 48 48" height="48">
 <path d="m8 1c-1.0286 0-2 0.9714-2 2v42c0 0.97143 1.0286 2 2 2h32c0.97143 0 2-1.0286 2-2v-31l-13-13z" fill="#39a34f"/>
 <path d="m29 12 0.062 0.062 0.157-0.062h-0.219zm2 2 11 11v-11h-11z" fill-opacity=".196"/>
 <path fill="#fff" d="m29 1 13 13h-11c-0.97143 0-2-1.0286-2-2v-11z" fill-opacity=".392"/>
 <path d="m6 35v10c0 0.97143 1.0286 2 2 2h32c0.97143 0 2-1.0286 2-2v-10z" fill-opacity=".196"/>
 <g fill="#fff">
  <path d="m17.035 16c-0.56324 0.054-1.0453 0.64805-1.0353 1.2812v8.5625 0.03125 0.53125 0.03125 4.3125c0.0061 0.663 0.53759 1.2595 1.1294 1.25h13.772c0.58251-0.01 1.0919-0.5974 1.098-1.25v-13.469c0.009-0.663-0.505-1.274-1.097-1.281h-13.772-0.09412zm0.97253 2h11.984v8.5938c-0.08675-0.10419-0.12902-0.14037-0.2196-0.25-0.89178-1.0689-1.9114-2.3394-3.1372-3.875-0.24524 0.243-0.54277 0.53615-0.94116 0.90625-0.40452 0.3701-0.88528 0.8154-1.4431 1.3125-0.07048 0.0774-0.35438-0.2177-0.87842-0.875-0.53638-0.6601-1.272-1.6677-2.2588-3.0625-1.3235 1.3722-2.2782 2.3544-3.1058 3.1875v-5.9375z"/>
  <g transform="scale(1.0683 .93603)">
   <path d="m16.875 41.011c-0.38809 0.000007-0.71443 0.07057-0.97903 0.21168-0.26461 0.14113-0.48511 0.33958-0.66151 0.59536-0.16758 0.24697-0.29107 0.54685-0.37044 0.89965-0.07056 0.34399-0.10584 0.72766-0.10584 1.151-0.000002 0.97904 0.15435 1.7023 0.46306 2.1697 0.3087 0.45865 0.76294 0.68797 1.3627 0.68797 0.09702 0.000002 0.20286-0.0044 0.31752-0.01323 0.11466-0.0088 0.2205-0.02205 0.31752-0.03969v-2.99h1.6273v4.0881c-0.19405 0.07056-0.49834 0.14994-0.91288 0.23814-0.40573 0.0882-0.89966 0.1323-1.4818 0.1323-0.51157 0-0.97462-0.0882-1.3892-0.2646-0.40573-0.18522-0.75412-0.45424-1.0452-0.80704-0.29106-0.36162-0.51598-0.80704-0.67474-1.3362-0.15876-0.53802-0.23814-1.1598-0.23814-1.8655 0-0.69678 0.09261-1.3098 0.27783-1.839 0.18522-0.53802 0.43659-0.98785 0.75412-1.3495 0.31752-0.36162 0.69238-0.63063 1.1246-0.80704 0.43218-0.18521 0.89524-0.27782 1.3892-0.27783 0.31752 0.000009 0.59976 0.02647 0.84673 0.07938 0.25578 0.04411 0.47628 0.09703 0.66151 0.15876 0.18522 0.06175 0.33516 0.1279 0.44983 0.19845 0.12348 0.07057 0.21609 0.12349 0.27783 0.15876l-0.42337 1.2966c-0.19405-0.12348-0.43219-0.23373-0.71443-0.33075-0.28225-0.09701-0.57331-0.14552-0.87319-0.14553"/>
   <path d="m20.077 47.971v-1.3495h1.7861v-5.4905h-1.7861v-1.3495h5.1995v1.3495h-1.7728v5.4905h1.7728v1.3495h-5.1995"/>
   <path d="m26.811 47.971v-8.1895h5.0142v1.3495h-3.3869v1.9845h2.9636v1.3495h-2.9636v3.506h-1.6273"/>
  </g>
 </g>
</svg>
