<svg width="48" xmlns="http://www.w3.org/2000/svg" viewBox="0 0 48 48" height="48">
 <path d="m8 1c-1.0286 0-2 0.9714-2 2v42c0 0.97143 1.0286 2 2 2h32c0.97143 0 2-1.0286 2-2v-31l-13-13z" fill="#dcdcdc"/>
 <path d="m29 12 0.062 0.062 0.157-0.062h-0.219zm2 2 11 11v-11h-11z" fill-opacity=".196"/>
 <path fill="#fff" d="m29 1 13 13h-11c-0.97143 0-2-1.0286-2-2v-11z" fill-opacity=".392"/>
 <g transform="scale(.90794 1.1014)" fill="#555">
  <path d="m15.441 28.89-0.36683-1.8089h-2.0871l-0.35418 1.8089h-1.6191c0.37105-1.5432 0.74631-2.9473 1.1258-4.2122 0.37948-1.2734 0.74631-2.4793 1.1005-3.6177h1.695c0.37104 1.1469 0.73787 2.3654 1.1005 3.6557 0.37104 1.2818 0.72944 2.6732 1.0752 4.1743h-1.6697m-1.3914-6.312c-0.08433 0.29516-0.16444 0.57766-0.24034 0.8475-0.06747 0.26142-0.13493 0.52284-0.20239 0.78426-0.05903 0.25299-0.11806 0.51019-0.17709 0.77161-0.0506 0.26142-0.1012 0.53127-0.15179 0.80956h1.5306c-0.0506-0.27828-0.1012-0.54813-0.15179-0.80956-0.0506-0.26142-0.10963-0.51862-0.17709-0.77161-0.05903-0.26141-0.1265-0.52283-0.20239-0.78426-0.06747-0.26985-0.14336-0.55235-0.22769-0.8475"/>
  <path d="m20.159 27.752c0.26142 0.000001 0.47645-0.0253 0.64512-0.0759 0.17709-0.05903 0.31623-0.13492 0.41743-0.22769 0.10119-0.10119 0.16865-0.21082 0.20239-0.32888 0.04216-0.12649 0.06324-0.25298 0.06325-0.37948-0.000004-0.16022-0.04639-0.30358-0.13914-0.43008-0.09277-0.12649-0.21083-0.23612-0.35418-0.32888-0.14336-0.10119-0.30359-0.18974-0.48067-0.26564-0.17709-0.08432-0.35418-0.16022-0.53127-0.22769-0.23612-0.08432-0.48068-0.1813-0.73366-0.29093-0.25299-0.10962-0.48489-0.24877-0.69571-0.41743-0.20239-0.16865-0.37105-0.37526-0.50597-0.61982-0.13493-0.25298-0.20239-0.565-0.20239-0.93605-0.000001-0.73365 0.23612-1.3071 0.70836-1.7203 0.48067-0.4132 1.1384-0.61981 1.9733-0.61982 0.48067 0.000008 0.8981 0.05482 1.2523 0.16444 0.36261 0.10964 0.66619 0.23191 0.91075 0.36683l-0.45538 1.2017c-0.21083-0.11805-0.44695-0.21925-0.70836-0.30358-0.25299-0.08432-0.54814-0.12649-0.88545-0.12649-0.82642 0.000007-1.2396 0.29937-1.2396 0.8981-0.000002 0.1518 0.04216 0.28672 0.12649 0.40478 0.08433 0.10963 0.18974 0.21083 0.31623 0.30358 0.13492 0.08433 0.2825 0.16023 0.44273 0.22769 0.16865 0.06747 0.3331 0.13072 0.49332 0.18974 0.24455 0.09277 0.49754 0.19818 0.75896 0.31623 0.26985 0.10963 0.5144 0.26142 0.73366 0.45538 0.22768 0.18553 0.41321 0.42165 0.55657 0.70836 0.14335 0.27829 0.21503 0.63247 0.21504 1.0625-0.000005 0.73366-0.24034 1.3029-0.72101 1.7077-0.47225 0.39634-1.1933 0.59452-2.163 0.59452-0.64933-0.000001-1.168-0.06746-1.5559-0.20239-0.38791-0.14336-0.67885-0.27407-0.8728-0.39213l0.45538-1.2649c0.22769 0.13493 0.49754 0.26142 0.80956 0.37948 0.32045 0.11806 0.70836 0.17709 1.1637 0.17709"/>
  <path d="m27.294 29.054c-1.1047-0.000001-1.948-0.35418-2.5299-1.0625-0.58187-0.70836-0.8728-1.7161-0.8728-3.0232 0-0.64933 0.08854-1.227 0.26564-1.733 0.17709-0.50597 0.42164-0.93183 0.73366-1.2776 0.32045-0.35417 0.69571-0.61981 1.1258-0.79691 0.43851-0.18552 0.91496-0.27828 1.4294-0.27828 0.27828 0.000008 0.52705 0.02531 0.74631 0.0759 0.22768 0.04217 0.42586 0.09277 0.59452 0.15179 0.16865 0.05904 0.30779 0.12228 0.41743 0.18974 0.11806 0.06747 0.2066 0.11807 0.26564 0.15179l-0.40478 1.2396c-0.19396-0.12649-0.43008-0.2319-0.70836-0.31623-0.26986-0.09276-0.58187-0.13914-0.93605-0.13914-0.24456 0.000007-0.48489 0.04639-0.72101 0.13914-0.22769 0.08434-0.4343 0.23191-0.61982 0.44273-0.17709 0.2024-0.32467 0.47646-0.44273 0.82221-0.10963 0.34575-0.16444 0.77583-0.16444 1.2902-0.000002 0.89389 0.15179 1.5812 0.45538 2.0618 0.31201 0.47224 0.81799 0.70836 1.5179 0.70836 0.40477 0.000002 0.73787-0.04638 0.9993-0.13914 0.26985-0.09276 0.48488-0.18552 0.64512-0.27828l0.39213 1.227c-0.21926 0.13493-0.51863 0.26142-0.8981 0.37948-0.37105 0.10963-0.80113 0.16444-1.2902 0.16444"/>
  <path d="m30.557 28.89v-1.2902h1.7077v-5.2495h-1.7077v-1.2902h4.9712v1.2902h-1.695v5.2495h1.695v1.2902h-4.9712"/>
  <path d="m36.882 28.89v-1.2902h1.7077v-5.2495h-1.7077v-1.2902h4.9712v1.2902h-1.695v5.2495h1.695v1.2902h-4.9712"/>
 </g>
</svg>
