<svg width="48" xmlns="http://www.w3.org/2000/svg" viewBox="0 0 48 48" height="48">
 <path d="m8 1c-1.0286 0-2 0.9714-2 2v42c0 0.97143 1.0286 2 2 2h32c0.97143 0 2-1.0286 2-2v-31l-13-13z" fill="#3468ce"/>
 <path d="m29 12 0.062 0.062 0.157-0.062h-0.219zm2 2 11 11v-11h-11z" fill-opacity=".196"/>
 <path fill="#fff" d="m29 1 13 13h-11c-0.97143 0-2-1.0286-2-2v-11z" fill-opacity=".392"/>
 <g fill="#fff">
  <g transform="translate(-.5 -1)">
   <rect rx=".579" ry=".601" height="7" width="8" y="17" x="16"/>
  </g>
  <g stroke-linejoin="round" transform="translate(-.5 -1)" stroke-dashoffset=".774" stroke="#fff" stroke-linecap="round">
   <path d="m26.5 17.5h5"/>
   <path d="m26.5 20.5h5"/>
   <path d="m26.5 23.5h5"/>
   <path d="m16 26.5h16"/>
   <path d="m16 29.5h16"/>
   <path d="m16 32.5h16"/>
  </g>
 </g>
 <path d="m6 35v10c0 0.97143 1.0286 2 2 2h32c0.97143 0 2-1.0286 2-2v-10z" fill-opacity=".196"/>
 <g transform="matrix(.98658 0 0 .88456 -6.6397 7.4174)" fill="#fff">
  <path d="m22.67 37.965c-0.000002 0.42 0.014 0.81667 0.042 1.19 0.03733 0.364 0.10266 0.68134 0.196 0.952 0.10266 0.27067 0.24266 0.48534 0.42 0.644 0.17733 0.15867 0.41533 0.238 0.714 0.238 0.28933 0.000002 0.52266-0.07933 0.7-0.238 0.18666-0.15866 0.32666-0.37333 0.42-0.644 0.10266-0.28 0.168-0.602 0.196-0.966 0.03733-0.364 0.05599-0.756 0.056-1.176-0.000005-0.42-0.01867-0.812-0.056-1.176-0.02801-0.37333-0.09334-0.69533-0.196-0.966-0.09334-0.27066-0.22867-0.48533-0.406-0.644-0.17734-0.15866-0.41534-0.23799-0.714-0.238-0.29867 0.000008-0.53667 0.07934-0.714 0.238-0.17734 0.15867-0.31734 0.37801-0.42 0.658-0.09334 0.27067-0.15867 0.58801-0.196 0.952-0.028 0.364-0.042 0.756-0.042 1.176m-1.75 0c-0.000001-1.4933 0.27533-2.618 0.826-3.374 0.55066-0.76532 1.316-1.148 2.296-1.148 1.0173 0.000009 1.792 0.38268 2.324 1.148 0.53199 0.75601 0.79799 1.8807 0.798 3.374-0.000007 1.4933-0.27067 2.6227-0.812 3.388-0.54134 0.756-1.3067 1.134-2.296 1.134-1.0173 0-1.7967-0.378-2.338-1.134-0.532-0.76533-0.798-1.8947-0.798-3.388"/>
  <path d="m30.02 40.905c0.04666 0.0093 0.098 0.014 0.154 0.014 0.056 0.000002 0.10733 0.000002 0.154 0 0.392 0.000002 0.71866-0.07466 0.98-0.224 0.27066-0.14933 0.48533-0.35466 0.644-0.616 0.168-0.26133 0.28466-0.56933 0.35-0.924 0.07466-0.364 0.112-0.76066 0.112-1.19-0.000005-0.37333-0.02801-0.73733-0.084-1.092-0.056-0.35466-0.154-0.66733-0.294-0.938-0.14-0.27066-0.33134-0.48533-0.574-0.644-0.24267-0.16799-0.55534-0.25199-0.938-0.252-0.07467 0.000007-0.15867 0.0047-0.252 0.014-0.09334 0.000007-0.17734 0.0093-0.252 0.028v5.824m4.144-2.94c-0.000007 0.80267-0.10267 1.4887-0.308 2.058-0.19601 0.56-0.47134 1.0173-0.826 1.372-0.35467 0.35467-0.77934 0.616-1.274 0.784-0.48534 0.15867-1.022 0.238-1.61 0.238-0.308 0-0.61134-0.01867-0.91-0.056-0.28934-0.028-0.602-0.07933-0.938-0.154v-8.456c0.392-0.08399 0.76066-0.13999 1.106-0.168 0.34533-0.02799 0.66733-0.04199 0.966-0.042 0.56933 0.000009 1.0873 0.08401 1.554 0.252 0.476 0.16801 0.87733 0.43401 1.204 0.798 0.32666 0.35467 0.57866 0.81201 0.756 1.372 0.18666 0.55067 0.27999 1.218 0.28 2.002"/>
  <path d="m41.192 33.639v1.428h-2.282v7.238h-1.736v-7.238h-2.282v-1.428h6.3"/>
 </g>
</svg>
