<svg width="48" xmlns="http://www.w3.org/2000/svg" viewBox="0 0 48 48" height="48">
 <path d="m8 1c-1.0286 0-2 0.9714-2 2v42c0 0.97143 1.0286 2 2 2h32c0.97143 0 2-1.0286 2-2v-31l-13-13z" fill="#a4373a"/>
 <path d="m29 12 0.062 0.062 0.157-0.062h-0.219zm2 2 11 11v-11h-11z" fill-opacity=".196"/>
 <path fill="#fff" d="m29 1 13 13h-11c-0.97143 0-2-1.0286-2-2v-11z" fill-opacity=".392"/>
 <g transform="matrix(.16031 0 0 .16031 3.48 33.619)" fill="#fff">
  <path d="m128-109.9c-27.561 0-49.903 6.9817-49.903 15.595v12.476c0 8.6127 22.341 15.595 49.903 15.595 27.56 0 49.903-6.9819 49.903-15.595v-12.476c0-8.6129-22.342-15.595-49.903-15.595z"/>
  <path d="m127.84-60c-22.344 0-41.18-4.5893-47.539-10.916-1.4844 1.477-2.2066 3.0485-2.2066 4.6784v12.476c0 8.6129 22.341 15.595 49.903 15.595 27.56 0 49.903-6.9817 49.903-15.595v-12.476c0-1.6298-0.88031-3.2014-2.3647-4.6784-6.3585 6.3269-25.351 10.916-47.695 10.916z"/>
  <path d="m127.84-31.93c-22.344 0-41.18-4.5895-47.539-10.916-1.4844 1.4768-2.2066 3.0485-2.2066 4.6784v12.476c0 8.6127 22.341 15.595 49.903 15.595 27.56 0 49.903-6.9819 49.903-15.595v-12.476c0-1.6298-0.88031-3.2016-2.3647-4.6784-6.3585 6.3267-25.351 10.916-47.695 10.916z"/>
 </g>
 <path d="m6 35v10c0 0.97143 1.0286 2 2 2h32c0.97143 0 2-1.0286 2-2v-10z" fill-opacity=".196"/>
 <g transform="scale(1.0583 .94492)" fill="#fff">
  <path d="m14.867 43.39c-0.000002 0.39318 0.0131 0.7645 0.03932 1.114 0.03495 0.34075 0.09611 0.63781 0.18348 0.89119 0.09611 0.25338 0.22716 0.45433 0.39317 0.60286 0.166 0.14853 0.3888 0.2228 0.66839 0.2228 0.27085 0.000001 0.48928-0.07426 0.65529-0.2228 0.17474-0.14853 0.3058-0.34948 0.39317-0.60286 0.0961-0.26211 0.15726-0.56354 0.18348-0.9043 0.03494-0.34075 0.05242-0.70771 0.05242-1.1009-0.000005-0.39317-0.01748-0.76013-0.05242-1.1009-0.02622-0.34948-0.08738-0.65091-0.18348-0.9043-0.08738-0.25337-0.21406-0.45432-0.38007-0.60286-0.16601-0.14852-0.38881-0.22279-0.66839-0.2228-0.27959 0.000007-0.50239 0.07427-0.66839 0.2228-0.16601 0.14854-0.29707 0.35386-0.39317 0.61597-0.08737 0.25338-0.14853 0.55045-0.18348 0.89119-0.02621 0.34075-0.03932 0.70771-0.03932 1.1009m-1.6382 0c-0.000001-1.3979 0.25774-2.4508 0.77324-3.1585 0.51549-0.71644 1.2319-1.0747 2.1493-1.0747 0.95234 0.000009 1.6775 0.35823 2.1756 1.0747 0.49801 0.70772 0.74702 1.7605 0.74703 3.1585-0.000007 1.3979-0.25338 2.4551-0.76013 3.1716-0.50676 0.70771-1.2232 1.0616-2.1493 1.0616-0.95235-0.000001-1.6819-0.35386-2.1887-1.0616-0.49802-0.71644-0.74703-1.7736-0.74703-3.1716"/>
  <path d="m21.748 46.142c0.04368 0.0087 0.09174 0.01311 0.14416 0.01311 0.05242 0.000002 0.10047 0.000002 0.14416 0 0.36696 0.000002 0.67276-0.0699 0.9174-0.20969 0.25337-0.13979 0.45433-0.33201 0.60286-0.57665 0.15726-0.24464 0.26648-0.53296 0.32764-0.86498 0.06989-0.34075 0.10484-0.71207 0.10485-1.114-0.000005-0.34948-0.02622-0.69023-0.07863-1.0222-0.05243-0.33201-0.14417-0.6247-0.27522-0.87808-0.13106-0.25337-0.31017-0.45433-0.53734-0.60286-0.22717-0.15726-0.51986-0.2359-0.87808-0.2359-0.0699 0.000007-0.14853 0.0044-0.2359 0.01311-0.08737 0.000007-0.16601 0.0087-0.2359 0.02621v5.452m3.8793-2.7522c-0.000007 0.7514-0.09611 1.3936-0.28833 1.9265-0.18349 0.52423-0.44123 0.95235-0.77324 1.2844-0.33202 0.33201-0.72956 0.57665-1.1926 0.73392-0.45434 0.14853-0.95672 0.2228-1.5072 0.2228-0.28833 0-0.57228-0.01747-0.85187-0.05242-0.27085-0.02621-0.56355-0.07427-0.87808-0.14416v-7.9159c0.36696-0.07863 0.71208-0.13105 1.0354-0.15727 0.32327-0.0262 0.6247-0.03931 0.9043-0.03932 0.53296 0.000009 1.0179 0.07864 1.4547 0.2359 0.44559 0.15728 0.82129 0.40628 1.1271 0.74703 0.3058 0.33202 0.5417 0.76014 0.70771 1.2844 0.17474 0.5155 0.26211 1.1402 0.26212 1.8741"/>
  <path d="m32.127 45.002c-0.000006 0.48928-0.08301 0.89993-0.24901 1.2319-0.16601 0.32328-0.39318 0.58539-0.6815 0.78634-0.27959 0.19222-0.61597 0.33201-1.0091 0.41938-0.38444 0.07864-0.79945 0.11795-1.245 0.11795-0.35822 0-0.72955-0.02184-1.114-0.06553-0.38444-0.03495-0.7645-0.09174-1.1402-0.17037v-7.8765c0.3058-0.05241 0.64218-0.0961 1.0091-0.13106 0.36696-0.04368 0.72955-0.06552 1.0878-0.06553 0.6116 0.000009 1.1096 0.06554 1.4941 0.19659 0.38443 0.12233 0.68586 0.28833 0.9043 0.49802 0.21842 0.20096 0.36695 0.42813 0.44559 0.6815 0.07863 0.25338 0.11795 0.50676 0.11795 0.76013-0.000006 0.38444-0.09612 0.72519-0.28833 1.0222-0.18349 0.29707-0.43249 0.53297-0.74703 0.70771 0.55044 0.20096 0.92176 0.47181 1.114 0.81256 0.20095 0.34075 0.30143 0.69898 0.30143 1.0747m-3.8269-1.1009v2.2018c0.11358 0.01748 0.2359 0.03058 0.36696 0.03932 0.13979 0.0087 0.27522 0.01311 0.40628 0.01311 0.18348 0.000002 0.36259-0.0131 0.53733-0.03932 0.17474-0.03495 0.32764-0.09174 0.4587-0.17037 0.13979-0.08737 0.25337-0.20532 0.34075-0.35386 0.08737-0.15727 0.13105-0.35385 0.13106-0.58976-0.000005-0.39317-0.12669-0.67276-0.38007-0.83877-0.24464-0.17474-0.57666-0.26211-0.99604-0.26212h-0.86498m0.62908-1.3368c0.41064 0.000005 0.72081-0.08737 0.93051-0.26211 0.20969-0.18348 0.31453-0.43248 0.31454-0.74703-0.000005-0.19221-0.03058-0.34511-0.09174-0.4587-0.06116-0.12231-0.14417-0.21405-0.24901-0.27522-0.10485-0.06989-0.22717-0.11358-0.36696-0.13106-0.1398-0.0262-0.28396-0.03931-0.43249-0.03932-0.12232 0.000007-0.24901 0.0044-0.38007 0.01311-0.13106 0.0087-0.24901 0.02185-0.35385 0.03932v1.861h0.62908"/>
 </g>
</svg>
