<svg width="48" xmlns="http://www.w3.org/2000/svg" viewBox="0 0 48 48" height="48">
 <path d="m8 1c-1.0286 0-2 0.9714-2 2v11 31c0 0.971 1.0286 2 2 2h32c0.971 0 2-1.029 2-2v-31-11c0-1.0286-0.971-2-2-2h-11-10-11z" fill="#d24726"/>
 <g fill="#fff">
  <path d="m12 16h7v5h-7z"/>
  <path d="m12 24h7v5h-7z"/>
  <g transform="matrix(3.2707 0 0 3.189 2.3077 3.4)">
   <path d="m8.3256 3.9511v1.9756h1.9756c0-1.0911-0.88449-1.9756-1.9756-1.9756z"/>
   <path d="m8.0433 4.2333c-1.0911 0-1.9756 0.88449-1.9756 1.9756s0.88449 1.9756 1.9756 1.9756 1.9756-0.88449 1.9756-1.9756h-1.9756v-1.9756z"/>
  </g>
 </g>
 <path d="m6 35v10c0 0.97143 1.0286 2 2 2h32c0.97143 0 2-1.0286 2-2v-10z" fill-opacity=".196"/>
 <g transform="scale(1.0572 .94591)" fill="#fff">
  <path d="m14.879 43.345c-0.000002 0.39277 0.01309 0.76371 0.03928 1.1128 0.03491 0.3404 0.09601 0.63715 0.18329 0.89026 0.09601 0.25312 0.22693 0.45386 0.39276 0.60224s0.3884 0.22257 0.6677 0.22257c0.27057 0.000001 0.48877-0.07419 0.65461-0.22257 0.17456-0.14838 0.30548-0.34912 0.39276-0.60224 0.096-0.26184 0.1571-0.56296 0.18329-0.90336 0.03491-0.34039 0.05236-0.70697 0.05237-1.0997-0.000005-0.39276-0.01746-0.75934-0.05237-1.0997-0.02619-0.34912-0.08728-0.65024-0.18329-0.90336-0.08729-0.25311-0.21384-0.45385-0.37967-0.60224-0.16584-0.14837-0.3884-0.22256-0.6677-0.22257-0.2793 0.000007-0.50187 0.0742-0.6677 0.22257-0.16584 0.14838-0.29676 0.35349-0.39276 0.61533-0.08728 0.25312-0.14838 0.54987-0.18329 0.89026-0.02619 0.3404-0.03928 0.70698-0.03928 1.0997m-1.6365 0c0-1.3965 0.25748-2.4482 0.77244-3.1552 0.51496-0.71569 1.2307-1.0735 2.1471-1.0736 0.95136 0.000008 1.6758 0.35786 2.1733 1.0736 0.4975 0.70698 0.74624 1.7587 0.74625 3.1552-0.000006 1.3965-0.25312 2.4526-0.75934 3.1683-0.50623 0.70697-1.2219 1.0605-2.1471 1.0605-0.95136 0-1.6802-0.35349-2.1864-1.0605-0.4975-0.7157-0.74625-1.7718-0.74625-3.1683"/>
  <path d="m25.654 39.299v1.3354h-2.134v6.7686h-1.6234v-6.7686h-2.134v-1.3354h5.8915"/>
  <path d="m28.914 39.208c1.0299 0.000008 1.8285 0.21385 2.3959 0.64151 0.56732 0.41896 0.85098 1.1085 0.85099 2.0686-0.000006 0.96882-0.28803 1.6714-0.86408 2.1078-0.56733 0.42768-1.3747 0.64152-2.422 0.64151h-0.57605v2.7363h-1.6103v-7.9993c0.1571-0.03491 0.33167-0.06545 0.52368-0.09164 0.20074-0.02618 0.40149-0.04363 0.60224-0.05237 0.20074-0.01745 0.39713-0.03054 0.58914-0.03928 0.19202-0.0087 0.36221-0.01308 0.51059-0.01309m0.18329 1.4009c-0.09601 0.000007-0.2313 0.0044-0.40586 0.01309-0.16584 0.000007-0.29676 0.0087-0.39276 0.02618v2.6184h0.6546c0.51495 0.000005 0.90335-0.10037 1.1652-0.30112 0.26184-0.20947 0.39276-0.56296 0.39276-1.0605-0.000005-0.47131-0.13093-0.80298-0.39276-0.995-0.25312-0.20074-0.59351-0.30111-1.0212-0.30112"/>
 </g>
</svg>
