<svg width="48" xmlns="http://www.w3.org/2000/svg" viewBox="0 0 48 48" height="48">
 <path d="m8 1c-1.0286 0-2 0.9714-2 2v42c0 0.97143 1.0286 2 2 2h32c0.97143 0 2-1.0286 2-2v-31l-13-13z" fill="#39a34f"/>
 <path d="m29 12 0.062 0.062 0.157-0.062h-0.219zm2 2 11 11v-11h-11z" fill-opacity=".196"/>
 <path fill="#fff" d="m29 1 13 13h-11c-0.97143 0-2-1.0286-2-2v-11z" fill-opacity=".392"/>
 <path d="m6 35v10c0 0.97143 1.0286 2 2 2h32c0.97143 0 2-1.0286 2-2v-10z" fill-opacity=".196"/>
 <g fill="#fff">
  <path d="m17.035 16c-0.56324 0.054-1.0453 0.64805-1.0353 1.2812v8.5625 0.03125 0.53125 0.03125 4.3125c0.0061 0.663 0.53759 1.2595 1.1294 1.25h13.772c0.58251-0.01 1.0919-0.5974 1.098-1.25v-13.469c0.009-0.663-0.505-1.274-1.097-1.281h-13.772-0.09412zm0.97253 2h11.984v8.5938c-0.08675-0.10419-0.12902-0.14037-0.2196-0.25-0.89178-1.0689-1.9114-2.3394-3.1372-3.875-0.24524 0.243-0.54277 0.53615-0.94116 0.90625-0.40452 0.3701-0.88528 0.8154-1.4431 1.3125-0.07048 0.0774-0.35438-0.2177-0.87842-0.875-0.53638-0.6601-1.272-1.6677-2.2588-3.0625-1.3235 1.3722-2.2782 2.3544-3.1058 3.1875v-5.9375z"/>
  <g transform="scale(1.0496 .95275)">
   <path d="m19.188 39.017v1.3258h-2.1187v6.72h-1.6118v-6.72h-2.1187v-1.3258h5.8491"/>
   <path d="m23.568 40.226c-0.38128 0.000007-0.7019 0.06933-0.96185 0.20797-0.25996 0.13865-0.4766 0.33362-0.6499 0.58491-0.16464 0.24264-0.28596 0.53726-0.36394 0.88386-0.06932 0.33795-0.10399 0.7149-0.10398 1.1308-0.000002 0.96186 0.15164 1.6724 0.45493 2.1317 0.30328 0.4506 0.74955 0.6759 1.3388 0.6759 0.09531 0.000001 0.1993-0.0043 0.31195-0.013 0.11264-0.0087 0.21663-0.02166 0.31195-0.03899v-2.9376h1.5988v4.0164c-0.19064 0.06932-0.4896 0.14731-0.89686 0.23396-0.39861 0.08665-0.88387 0.12998-1.4558 0.12998-0.50259-0.000001-0.95752-0.08665-1.3648-0.25996-0.39861-0.18197-0.74089-0.44626-1.0268-0.79288-0.28596-0.35528-0.50692-0.79288-0.6629-1.3128-0.15598-0.52858-0.23396-1.1395-0.23396-1.8327-0.000001-0.68456 0.09098-1.2868 0.27296-1.8067 0.18197-0.52858 0.42893-0.97051 0.74089-1.3258 0.31195-0.35527 0.68023-0.61956 1.1048-0.79288 0.4246-0.18196 0.87953-0.27295 1.3648-0.27296 0.31195 0.000008 0.58924 0.026 0.83187 0.07799 0.25129 0.04333 0.46792 0.09533 0.6499 0.15598 0.18197 0.06067 0.32928 0.12566 0.44193 0.19497 0.12131 0.06933 0.21229 0.12132 0.27296 0.15598l-0.41594 1.2738c-0.19064-0.12131-0.42461-0.22962-0.70189-0.32495-0.2773-0.09531-0.56325-0.14297-0.85787-0.14298"/>
   <path d="m30.678 47.063-0.37694-1.8587h-2.1447l-0.36394 1.8587h-1.6637c0.38127-1.5858 0.76688-3.0285 1.1568-4.3283 0.38994-1.3085 0.76688-2.5476 1.1308-3.7174h1.7417c0.38127 1.1785 0.75821 2.4306 1.1308 3.7564 0.38127 1.3171 0.74954 2.7469 1.1048 4.2893h-1.7157m-1.4298-6.486c-0.08666 0.30329-0.16898 0.59358-0.24696 0.87087-0.06933 0.26863-0.13865 0.53726-0.20797 0.80588-0.06066 0.25996-0.12132 0.52426-0.18197 0.79288-0.05199 0.26863-0.10399 0.54592-0.15598 0.83187h1.5728c-0.052-0.28595-0.10399-0.56324-0.15598-0.83187-0.052-0.26862-0.11265-0.53291-0.18197-0.79288-0.06066-0.26862-0.12998-0.53725-0.20797-0.80588-0.06933-0.27728-0.14731-0.56757-0.23396-0.87087"/>
  </g>
 </g>
</svg>
