<svg width="48" xmlns="http://www.w3.org/2000/svg" viewBox="0 0 48 48" height="48">
 <path d="m8 1c-1.0286 0-2 0.9714-2 2v42c0 0.97143 1.0286 2 2 2h32c0.97143 0 2-1.0286 2-2v-31l-13-13z" fill="#5a68a5"/>
 <path fill="#fff" d="m29 1 13 13h-11c-0.97143 0-2-1.0286-2-2v-11z" fill-opacity=".392"/>
 <path d="m29 12 0.062 0.062 0.157-0.062h-0.219zm2 2 11 11v-11h-11z" fill-opacity=".196"/>
 <g transform="translate(0 3)">
  <path fill-rule="evenodd" fill="#fff" d="m37.627 26.949c0 5.5603-6.693 10.068-14.949 10.068-8.2562 0-14.949-4.5075-14.949-10.068 0-5.5603 6.693-10.068 14.949-10.068 8.2562 0 14.949 4.5075 14.949 10.068z" transform="matrix(.80272 0 0 .79461 5.7959 2.5859)"/>
 </g>
 <g transform="matrix(.8 0 0 .71429 4.8 7.7143)" fill="#5a68a5">
  <path d="m19.79 22.851c0.63964 0.000008 1.1435 0.2461 1.5115 0.73828 0.37239 0.48764 0.55859 1.1712 0.5586 2.0508-0.000007 0.87045-0.15116 1.709-0.45345 2.5156-0.29793 0.80209-0.70756 1.4401-1.2289 1.9141-0.52136 0.4694-1.0953 0.7041-1.7218 0.7041-0.36364 0-0.67689-0.08431-0.93976-0.25293s-0.50603-0.45573-0.72946-0.86133h-0.05257c-0.05257 0.72461-0.14677 1.3968-0.28258 2.0166l-0.473 2.323h-1.9781l2.2475-11.006h1.5115l-0.11172 1.1621h0.05915c0.6046-0.87044 1.299-1.3057 2.0832-1.3057m-0.79518 1.668c-0.29792 0.000007-0.58708 0.15495-0.86747 0.46484-0.27602 0.30534-0.49946 0.7155-0.67032 1.2305-0.16649 0.51042-0.24973 1.0755-0.24973 1.6953-0.000003 0.36459 0.08105 0.65625 0.24315 0.875s0.38554 0.32813 0.67032 0.32812c0.29353 0.000002 0.57393-0.15722 0.84118-0.47168 0.26725-0.31445 0.48192-0.74511 0.64403-1.292 0.16648-0.55143 0.24972-1.0937 0.24973-1.627-0.000005-0.80208-0.28697-1.2031-0.8609-1.2031"/>
  <path d="m26.885 30.637h-1.9781l0.90033-4.4639c0.07009-0.30989 0.10514-0.58105 0.10515-0.81348-0.000006-0.56054-0.23659-0.84081-0.70975-0.84082-0.40307 0.000007-0.7689 0.25977-1.0975 0.7793-0.32859 0.51954-0.58708 1.2441-0.77547 2.1738l-0.64403 3.165h-1.9781l2.169-10.637h1.9781c-0.17087 0.82488-0.3023 1.4583-0.3943 1.9004-0.09201 0.44207-0.2804 1.1462-0.56517 2.1123h0.05257c0.27163-0.3509 0.57393-0.63118 0.9069-0.84082 0.33296-0.21418 0.71851-0.32128 1.1566-0.32129 0.60459 0.000008 1.0712 0.19141 1.3998 0.57422 0.33296 0.37826 0.49944 0.92058 0.49945 1.627-0.000007 0.33269-0.05039 0.74284-0.15115 1.2305l-0.87404 4.3545"/>
  <path d="m31.93 22.851c0.63964 0.000008 1.1435 0.2461 1.5115 0.73828 0.37239 0.48764 0.55859 1.1712 0.5586 2.0508-0.000007 0.87045-0.15116 1.709-0.45345 2.5156-0.29792 0.80209-0.70756 1.4401-1.2289 1.9141-0.52136 0.4694-1.0953 0.7041-1.7218 0.7041-0.36364 0-0.67689-0.08431-0.93976-0.25293-0.263-0.169-0.506-0.456-0.729-0.862h-0.05257c-0.05257 0.72461-0.14677 1.3968-0.28258 2.0166l-0.473 2.324h-1.9781l2.2475-11.006h1.5115l-0.11172 1.1621h0.05914c0.6046-0.87044 1.299-1.3057 2.0832-1.3057m-0.79518 1.668c-0.29792 0.000007-0.58708 0.15495-0.86747 0.46484-0.27602 0.30534-0.49946 0.7155-0.67032 1.2305-0.16649 0.51042-0.24973 1.0755-0.24973 1.6953-0.000003 0.36459 0.08105 0.65625 0.24316 0.875 0.1621 0.21875 0.38554 0.32813 0.67032 0.32812 0.29353 0.000002 0.57393-0.15722 0.84118-0.47168 0.26725-0.31445 0.48192-0.74511 0.64403-1.292 0.16648-0.55143 0.24972-1.0937 0.24973-1.627-0.000005-0.80208-0.28697-1.2031-0.8609-1.2031"/>
 </g>
</svg>
