<svg width="48" xmlns="http://www.w3.org/2000/svg" viewBox="0 0 48 48" height="48">
 <path d="m8 1c-1.0286 0-2 0.9714-2 2v11 31c0 0.971 1.0286 2 2 2h32c0.971 0 2-1.029 2-2v-31-11c0-1.0286-0.971-2-2-2h-11-10-11z" fill="#795a8b"/>
 <path d="m6 35v10c0 0.97143 1.0286 2 2 2h32c0.97143 0 2-1.0286 2-2v-10z" fill-opacity=".196"/>
 <g fill="#fff">
  <path d="m18 16.5v10h-3l3 5h2v-13h13v-2zm5.783 3.267-2.045 2.133 3.579 3.733-3.579 3.734 2.045 2.133 3.58-3.733 3.579 3.733 2.046-2.133-3.58-3.734 3.58-3.733-2.046-2.133-3.579 3.733z"/>
  <g transform="scale(1.0683 .93603)">
   <path d="m14.758 43.802c-0.000002 0.39691 0.01323 0.77176 0.03969 1.1246 0.03528 0.34399 0.09702 0.64387 0.18522 0.89965 0.09702 0.25578 0.22932 0.45865 0.3969 0.60859s0.39249 0.22491 0.67474 0.22491c0.27342 0.000002 0.49392-0.07497 0.66151-0.22491 0.1764-0.14994 0.3087-0.3528 0.3969-0.60859 0.09702-0.2646 0.15876-0.5689 0.18522-0.91288 0.03528-0.34398 0.05292-0.71443 0.05292-1.1113-0.000004-0.3969-0.01764-0.76734-0.05292-1.1113-0.02646-0.3528-0.08821-0.65709-0.18522-0.91288-0.0882-0.25578-0.2161-0.45864-0.38368-0.60859-0.16759-0.14994-0.3925-0.22491-0.67474-0.22491-0.28225 0.000007-0.50716 0.07498-0.67474 0.22491-0.16758 0.14995-0.29989 0.35722-0.3969 0.62182-0.0882 0.25579-0.14994 0.55567-0.18522 0.89965-0.02646 0.34399-0.03969 0.71443-0.03969 1.1113m-1.6538 0c0-1.4112 0.26019-2.474 0.78058-3.1885 0.52039-0.72324 1.2436-1.0849 2.1697-1.0849 0.96139 0.000008 1.6935 0.36163 2.1962 1.0849 0.50274 0.71444 0.75411 1.7773 0.75412 3.1885-0.000006 1.4112-0.25579 2.4785-0.76735 3.2017-0.51157 0.71443-1.2348 1.0716-2.1697 1.0716-0.9614 0-1.6979-0.35722-2.2094-1.0716-0.50275-0.72325-0.75412-1.7905-0.75412-3.2017"/>
   <path d="m25.647 39.714v1.3495h-2.1565v6.84h-1.6405v-6.84h-2.1565v-1.3495h5.9536"/>
   <path d="m26.811 47.903v-8.1895h5.0142v1.3495h-3.3869v1.9845h2.9636v1.3495h-2.9636v3.506h-1.6273"/>
  </g>
 </g>
</svg>
