<svg width="48" xmlns="http://www.w3.org/2000/svg" viewBox="0 0 48 48" height="48">
 <path d="m8 1c-1.0286 0-2 0.9714-2 2v42c0 0.97143 1.0286 2 2 2h32c0.97143 0 2-1.0286 2-2v-31l-13-13z" fill="#e76f00"/>
 <path d="m29 12 0.062 0.062 0.157-0.062h-0.219zm2 2 11 11v-11h-11z" fill-opacity=".196"/>
 <path fill="#fff" d="m29 1 13 13h-11c-0.97143 0-2-1.0286-2-2v-11z" fill-opacity=".392"/>
 <g fill="#fff" transform="matrix(.09491 0 0 .09 -30.318 4.2146)" fill-rule="evenodd">
  <path d="m546.05 274.51s-7.6429 4.4446 5.4392 5.9486c15.849 1.808 23.949 1.5487 41.414-1.7568 0 0 4.5918 2.8791 11.005 5.3728-39.153 16.78-88.61-0.97193-57.858-9.5646"/>
  <path d="m541.27 252.61s-8.5723 6.3453 4.5196 7.6994c16.93 1.7466 30.3 1.8894 53.435-2.5654 0 0 3.1999 3.2441 8.2316 5.0182-47.338 13.842-100.06 1.0916-66.186-10.152"/>
  <path d="m581.6 215.47c9.6472 11.107-2.5347 21.102-2.5347 21.102s24.496-12.645 13.246-28.48c-10.507-14.767-18.564-22.104 25.055-47.402 0 0-68.469 17.1-35.767 54.781"/>
  <path d="m633.38 290.7s5.6559 4.6602-6.229 8.2655c-22.599 6.8461-94.061 8.9134-113.91 0.27277-7.1362-3.1045 6.2462-7.4127 10.456-8.3167 4.3902-0.95199 6.899-0.77464 6.899-0.77464-7.9362-5.5906-51.296 10.978-22.025 15.722 79.828 12.946 145.52-5.8294 124.81-15.169"/>
  <path d="m549.73 229.92s-36.35 8.6336-12.872 11.769c9.913 1.3272 29.674 1.0269 48.081-0.51535 15.043-1.269 30.149-3.967 30.149-3.967s-5.3044 2.2716-9.1421 4.892c-36.913 9.708-108.22 5.1917-87.693-4.7384 17.361-8.3922 31.477-7.4402 31.477-7.4402"/>
  <path d="m614.93 266.37c37.524-19.498 20.174-38.236 8.0645-35.712-2.9681 0.61777-4.2915 1.1531-4.2915 1.1531s1.1019-1.7261 3.2064-2.4732c23.957-8.4223 42.381 24.841-7.7335 38.015 0 0.00054 0.58057-0.51858 0.75416-0.98271"/>
  <path d="m592.31 119.84s20.781 20.788-19.71 52.754c-32.47 25.642-7.4041 40.263-0.0135 56.967-18.953-17.1-32.862-32.154-23.531-46.164 13.696-20.566 51.639-30.537 43.254-63.557"/>
  <path d="m553.41 319.21c36.018 2.3056 91.328-1.2792 92.637-18.322 0 0-2.518 6.4607-29.767 11.592-30.742 5.7852-68.658 5.1098-91.146 1.4021 0.00054-0.00054 4.6037 3.8101 28.276 5.3281"/>
 </g>
 <path d="m6 35v10c0 0.97143 1.0286 2 2 2h32c0.97143 0 2-1.0286 2-2v-10z" fill-opacity=".196"/>
 <g transform="matrix(.98726 0 0 .89425 -6.4597 8.4608)" fill="#fff">
  <path d="m26.268 37.78c-0.000006 0.42-0.05601 0.81667-0.168 1.19-0.10267 0.37334-0.28 0.7-0.532 0.98-0.24267 0.28-0.56 0.504-0.952 0.672-0.392 0.15867-0.868 0.238-1.428 0.238-0.588 0-1.078-0.07467-1.47-0.224s-0.72333-0.33133-0.994-0.546l0.658-1.372c0.23333 0.14934 0.49 0.294 0.77 0.434 0.28933 0.14 0.58333 0.21 0.882 0.21 0.448 0.000001 0.80733-0.11666 1.078-0.35 0.28-0.24266 0.42-0.686 0.42-1.33v-4.242h-2.898v-1.428h4.634v5.768"/>
  <path d="m32.162 40.678-0.406-2.002h-2.31l-0.392 2.002h-1.792c0.41067-1.708 0.826-3.262 1.246-4.662 0.42-1.4093 0.826-2.744 1.218-4.004h1.876c0.41066 1.2693 0.81666 2.618 1.218 4.046 0.41066 1.4187 0.80733 2.9587 1.19 4.62h-1.848m-1.54-6.986c-0.09334 0.32667-0.182 0.63934-0.266 0.938-0.07467 0.28934-0.14934 0.57867-0.224 0.868-0.06534 0.28-0.13067 0.56467-0.196 0.854-0.056 0.28934-0.112 0.588-0.168 0.896h1.694c-0.056-0.308-0.112-0.60666-0.168-0.896-0.056-0.28933-0.12134-0.574-0.196-0.854-0.06534-0.28933-0.14-0.57866-0.224-0.868-0.07467-0.29866-0.15867-0.61133-0.252-0.938"/>
  <path d="m37.132 31.914c0.49466 0.000009 0.94266 0.05601 1.344 0.168 0.40133 0.11201 0.74666 0.28468 1.036 0.518 0.28933 0.23334 0.50866 0.53201 0.658 0.896 0.15866 0.35467 0.23799 0.77467 0.238 1.26-0.000006 0.504-0.10267 0.96134-0.308 1.372-0.20534 0.41067-0.546 0.72334-1.022 0.938 0.15866 0.24267 0.32666 0.51334 0.504 0.812 0.17733 0.28934 0.35 0.59734 0.518 0.924 0.16799 0.31734 0.32666 0.63934 0.476 0.966 0.15866 0.31733 0.29399 0.62067 0.406 0.91h-1.806c-0.21467-0.56-0.46667-1.0967-0.756-1.61-0.28-0.52266-0.58334-1.05-0.91-1.582h-0.896v3.192h-1.722v-8.54c0.168-0.03733 0.35-0.06999 0.546-0.098 0.20533-0.03732 0.41066-0.06066 0.616-0.07 0.20533-0.01866 0.40133-0.03266 0.588-0.042 0.18666-0.0093 0.35-0.01399 0.49-0.014m1.526 2.828c-0.000004-0.45733-0.14-0.79333-0.42-1.008-0.28-0.21466-0.64867-0.32199-1.106-0.322-0.06534 0.000007-0.14467 0.0047-0.238 0.014-0.09334 0.000007-0.18667 0.0093-0.28 0.028v2.604h0.378c0.588 0.000005 1.0127-0.112 1.274-0.336 0.26133-0.23333 0.392-0.55999 0.392-0.98"/>
 </g>
</svg>
