<svg width="48" xmlns="http://www.w3.org/2000/svg" viewBox="0 0 48 48" height="48">
 <path d="m8 1c-1.0286 0-2 0.9714-2 2v42c0 0.97143 1.0286 2 2 2h32c0.97143 0 2-1.0286 2-2v-31l-13-13z" fill="#a4373a"/>
 <path d="m29 12 0.062 0.062 0.157-0.062h-0.219zm2 2 11 11v-11h-11z" fill-opacity=".196"/>
 <path fill="#fff" d="m29 1 13 13h-11c-0.97143 0-2-1.0286-2-2v-11z" fill-opacity=".392"/>
 <g transform="matrix(.16031 0 0 .16031 3.48 35.619)" fill="#fff">
  <path d="m128-109.9c-27.561 0-49.903 6.9817-49.903 15.595v12.476c0 8.6127 22.341 15.595 49.903 15.595 27.56 0 49.903-6.9819 49.903-15.595v-12.476c0-8.6129-22.342-15.595-49.903-15.595z"/>
  <path d="m127.84-60c-22.344 0-41.18-4.5893-47.539-10.916-1.4844 1.477-2.2066 3.0485-2.2066 4.6784v12.476c0 8.6129 22.341 15.595 49.903 15.595 27.56 0 49.903-6.9817 49.903-15.595v-12.476c0-1.6298-0.88031-3.2014-2.3647-4.6784-6.3585 6.3269-25.351 10.916-47.695 10.916z"/>
  <path d="m127.84-31.93c-22.344 0-41.18-4.5895-47.539-10.916-1.4844 1.4768-2.2066 3.0485-2.2066 4.6784v12.476c0 8.6127 22.341 15.595 49.903 15.595 27.56 0 49.903-6.9819 49.903-15.595v-12.476c0-1.6298-0.88031-3.2016-2.3647-4.6784-6.3585 6.3267-25.351 10.916-47.695 10.916z"/>
 </g>
</svg>
