<svg width="48" xmlns="http://www.w3.org/2000/svg" viewBox="0 0 48 48" height="48">
 <path d="m8 1c-1.0286 0-2 0.9714-2 2v11 31c0 0.971 1.0286 2 2 2h32c0.971 0 2-1.029 2-2v-31-11c0-1.0286-0.971-2-2-2h-11-10-11z" fill="#eeaf02"/>
 <path d="m15 32v-15h18v15h-10v-8h5v3h-2v2h4v-9h-12v12z" fill="#fff"/>
 <path d="m6 35v10c0 0.97143 1.0286 2 2 2h32c0.97143 0 2-1.0286 2-2v-10z" fill-opacity=".196"/>
 <g transform="matrix(1.0664 0 0 .93769 .00005 -.00014)" fill="#fff">
  <path d="m14.778 43.725c-0.000002 0.39621 0.01321 0.7704 0.03962 1.1226 0.03522 0.34338 0.09685 0.64274 0.1849 0.89807 0.09685 0.25534 0.22892 0.45784 0.3962 0.60752s0.3918 0.22452 0.67355 0.22452c0.27294 0.000001 0.49305-0.07484 0.66034-0.22452 0.17609-0.14968 0.30816-0.35218 0.39621-0.60752 0.09685-0.26414 0.15848-0.56789 0.1849-0.91127 0.03521-0.34338 0.05282-0.71317 0.05283-1.1094-0.000004-0.3962-0.01761-0.76599-0.05283-1.1094-0.02642-0.35218-0.08805-0.65593-0.1849-0.91127-0.08805-0.25533-0.21572-0.45783-0.383-0.60752-0.16729-0.14967-0.39181-0.22451-0.67355-0.22452-0.28175 0.000007-0.50627 0.07485-0.67355 0.22452-0.16729 0.14968-0.29936 0.35659-0.3962 0.62072-0.08805 0.25534-0.14968 0.55469-0.1849 0.89807-0.02642 0.34338-0.03962 0.71318-0.03962 1.1094m-1.6509 0c0-1.4087 0.25974-2.4697 0.7792-3.1829 0.51947-0.72197 1.2414-1.083 2.1659-1.083 0.95969 0.000008 1.6905 0.361 2.1923 1.083 0.50186 0.71318 0.75278 1.7741 0.75279 3.1829-0.000006 1.4087-0.25534 2.4741-0.766 3.1961-0.51067 0.71317-1.2326 1.0698-2.1659 1.0698-0.9597 0-1.6949-0.35658-2.2055-1.0698-0.50186-0.72197-0.75279-1.7873-0.75279-3.1961"/>
  <path d="m25.648 39.644v1.3471h-2.1527v6.8279h-1.6376v-6.8279h-2.1527v-1.3471h5.9431"/>
  <path d="m26.691 47.819v-1.3471h1.7829v-5.4808h-1.7829v-1.3471h5.1903v1.3471h-1.7697v5.4808h1.7697v1.3471h-5.1903"/>
 </g>
</svg>
