<svg width="48" xmlns="http://www.w3.org/2000/svg" viewBox="0 0 48 48" height="48">
 <path d="m8 1c-1.0286 0-2 0.9714-2 2v42c0 0.97143 1.0286 2 2 2h32c0.97143 0 2-1.0286 2-2v-31l-13-13z" fill="#d24726"/>
 <path d="m29 12 0.062 0.062 0.157-0.062h-0.219zm2 2 11 11v-11h-11z" fill-opacity=".196"/>
 <path fill="#fff" d="m29 1 13 13h-11c-0.97143 0-2-1.0286-2-2v-11z" fill-opacity=".392"/>
 <g fill="#fff">
  <path d="m12 16h7v5h-7z"/>
  <path d="m12 24h7v5h-7z"/>
  <g transform="matrix(3.2707 0 0 3.189 2.3077 3.4)">
   <path d="m8.3256 3.9511v1.9756h1.9756c0-1.0911-0.88449-1.9756-1.9756-1.9756z"/>
   <path d="m8.0433 4.2333c-1.0911 0-1.9756 0.88449-1.9756 1.9756s0.88449 1.9756 1.9756 1.9756 1.9756-0.88449 1.9756-1.9756h-1.9756v-1.9756z"/>
  </g>
 </g>
 <path d="m6 35v10c0 0.97143 1.0286 2 2 2h32c0.97143 0 2-1.0286 2-2v-10z" fill-opacity=".196"/>
 <g transform="matrix(1.0557 0 0 .94721 -12.537 .42074)" fill="#fff">
  <path d="m26.941 38.801c0.06101 0.18304 0.1351 0.41838 0.22226 0.706 0.09587 0.28764 0.19611 0.59705 0.3007 0.92826 0.10459 0.33122 0.20918 0.66678 0.31378 1.0067 0.10459 0.33993 0.20482 0.65371 0.3007 0.94133 0.10459-0.32249 0.21354-0.6537 0.32685-0.99363 0.1133-0.34864 0.22226-0.67984 0.32685-0.99363 0.10459-0.32249 0.20046-0.62319 0.28763-0.90211 0.08716-0.2789 0.1656-0.50988 0.23533-0.69292h1.3336c0.06101 0.706 0.11766 1.3946 0.16996 2.0657 0.06101 0.67114 0.10894 1.3379 0.14381 2.0003 0.04357 0.6537 0.07844 1.3161 0.10459 1.9873 0.02614 0.66242 0.04793 1.3423 0.06537 2.0395h-1.4774l0.07844-6.2886-0.99363 3.4254h-1.1767l-0.9544-3.4254 0.06537 6.2886h-1.4774c0.02615-0.66242 0.0523-1.351 0.07844-2.0657 0.03486-0.71471 0.06973-1.4251 0.10459-2.1311 0.03486-0.70599 0.07409-1.3902 0.11767-2.0526 0.0523-0.66241 0.10895-1.2769 0.16996-1.8434h1.3336"/>
  <path d="m35.452 40.017c-0.38351 0.000007-0.706 0.06974-0.96748 0.20918-0.26148 0.13946-0.47938 0.33557-0.6537 0.58833-0.16561 0.24406-0.28763 0.5404-0.36607 0.88903-0.06973 0.33993-0.10459 0.71908-0.10459 1.1374-0.000002 0.96748 0.15253 1.6822 0.45759 2.1441 0.30506 0.45324 0.75393 0.67985 1.3466 0.67985 0.09587 0.000001 0.20046-0.0044 0.31378-0.01307 0.1133-0.0087 0.2179-0.02179 0.31378-0.03922v-2.9547h1.6081v4.0399c-0.19176 0.06973-0.49246 0.14817-0.90211 0.23533-0.40094 0.08716-0.88904 0.13074-1.4643 0.13074-0.50553-0.000001-0.96312-0.08716-1.3728-0.26148-0.40094-0.18304-0.74522-0.44888-1.0328-0.79752-0.28763-0.35736-0.50989-0.79751-0.66678-1.3205-0.15689-0.53168-0.23533-1.1462-0.23533-1.8434 0-0.68856 0.09152-1.2943 0.27456-1.8173 0.18304-0.53167 0.43144-0.97619 0.74522-1.3336 0.31378-0.35735 0.6842-0.62319 1.1113-0.79752 0.42708-0.18303 0.88467-0.27455 1.3728-0.27456 0.31377 0.000008 0.59268 0.02616 0.83674 0.07844 0.25276 0.04359 0.47066 0.09588 0.6537 0.15689 0.18303 0.06102 0.3312 0.12639 0.44452 0.19611 0.12202 0.06974 0.21354 0.12203 0.27456 0.15689l-0.41837 1.2813c-0.19176-0.12202-0.42709-0.23097-0.706-0.32685-0.27892-0.09587-0.56654-0.14381-0.86289-0.14382"/>
  <path d="m40.838 38.709c1.0285 0.000008 1.826 0.21355 2.3925 0.64063 0.56654 0.41838 0.84981 1.1069 0.84981 2.0657-0.000006 0.96748-0.28763 1.6691-0.86289 2.1049-0.56655 0.42709-1.3728 0.64063-2.4187 0.64063h-0.57526v2.7325h-1.6081v-7.9882c0.15689-0.03486 0.33121-0.06536 0.52296-0.09152 0.20047-0.02614 0.40094-0.04357 0.60141-0.0523 0.20047-0.01742 0.39658-0.0305 0.58833-0.03922 0.19175-0.0087 0.36171-0.01307 0.50989-0.01307m0.18304 1.3989c-0.09588 0.000006-0.23098 0.0044-0.4053 0.01307-0.16561 0.000006-0.29635 0.0087-0.39222 0.02615v2.6148h0.6537c0.51424 0.000004 0.9021-0.10023 1.1636-0.3007 0.26148-0.20918 0.39222-0.56218 0.39222-1.059-0.000004-0.47066-0.13074-0.80187-0.39222-0.99363-0.25277-0.20046-0.59269-0.3007-1.0198-0.3007"/>
 </g>
</svg>
