<svg width="48" xmlns="http://www.w3.org/2000/svg" viewBox="0 0 48 48" height="48">
 <path d="m8 1c-1.0286 0-2 0.9714-2 2v42c0 0.97143 1.0286 2 2 2h32c0.97143 0 2-1.0286 2-2v-31l-13-13z" fill="#dcdcdc"/>
 <path d="m29 12 0.062 0.062 0.157-0.062h-0.219zm2 2 11 11v-11h-11z" fill-opacity=".196"/>
 <path fill="#fff" d="m29 1 13 13h-11c-0.97143 0-2-1.0286-2-2v-11z" fill-opacity=".392"/>
 <g transform="translate(0 2)">
  <path d="m24 14c-5.5228 0-10 4.4772-10 10s4.4772 10 10 10 10-4.4772 10-10-4.4772-10-10-10zm0 2c4.4183 0 8 3.5817 8 8s-3.5817 8-8 8-8-3.5817-8-8 3.5817-8 8-8z" fill="#888"/>
 </g>
 <g transform="matrix(1.3132 0 0 1.168 -8.4411 3.8095)" fill="#888">
  <path d="m24.825 15.626c-0.79753 0.000008-1.415 0.30079-1.8525 0.90234-0.4375 0.59701-0.65625 1.431-0.65625 2.502-0.000003 2.2285 0.83626 3.3428 2.5088 3.3428 0.70182 0.000002 1.5518-0.17545 2.5498-0.52637v1.7773c-0.82032 0.3418-1.7363 0.5127-2.748 0.5127-1.4538 0-2.5658-0.43978-3.3359-1.3193-0.77018-0.88411-1.1553-2.151-1.1553-3.8008 0-1.0391 0.18913-1.9482 0.56738-2.7275 0.37825-0.78384 0.92057-1.3831 1.627-1.7979 0.71093-0.41926 1.5426-0.6289 2.4951-0.62891 0.9707 0.00001 1.946 0.23471 2.9258 0.7041l-0.68359 1.7227c-0.3737-0.17773-0.74968-0.33267-1.1279-0.46484-0.37826-0.13215-0.74968-0.19823-1.1143-0.19824"/>
 </g>
</svg>
