<svg width="48" xmlns="http://www.w3.org/2000/svg" viewBox="0 0 48 48" height="48">
 <path d="m8 1c-1.0286 0-2 0.9714-2 2v42c0 0.97143 1.0286 2 2 2h32c0.97143 0 2-1.0286 2-2v-31l-13-13z" fill="#376a94"/>
 <path d="m29 12 0.062 0.062 0.157-0.062h-0.219zm2 2 11 11v-11h-11z" fill-opacity=".196"/>
 <path fill="#fff" d="m29 1 13 13h-11c-0.97143 0-2-1.0286-2-2v-11z" fill-opacity=".392"/>
 <g transform="translate(.5)" fill="#fff">
  <path d="m23.716 15c-0.81144 0.0037-1.601 0.0679-2.2829 0.1875-2.0086 0.35176-2.4392 0.45468-2.4392 1.8125v3h5.0035v1h-5.0035-2.0014c-1.3795 0-2.2803 0.84265-2.6581 2.4062-0.43581 1.7923-0.45514 2.9099 0 4.7812 0.337 1.393 1.278 2.813 2.657 2.813h1.0007v-3c0-1.553 1.3924-3 3.0021-3h5.0035c1.32 0 2.002-0.686 2.002-2v-5c0-1.275-0.526-2.6-1.814-2.812-0.815-0.135-1.659-0.192-2.47-0.188zm-1.72 2c0.55267 0 1.0007 0.44772 1.0007 1s-0.44803 1-1.0007 1-1.0007-0.44772-1.0007-1 0.44803-1 1.0007-1z"/>
  <path d="m23.284 36c0.81143-0.0037 1.601-0.0679 2.2829-0.1875 2.0086-0.35176 2.4392-0.45468 2.4392-1.8125v-3h-5.0035v-1h5.0035 2.0014c1.3795 0 2.2803-0.84265 2.6581-2.4062 0.43581-1.7923 0.45514-2.9099 0-4.7812-0.3374-1.393-1.2786-2.8125-2.6581-2.8125h-1.0007v3c0 1.553-1.3924 3-3.0021 3h-5.0035c-1.3197 0-2.0014 0.68615-2.0014 2v5c0 1.2752 0.52567 2.5997 1.8138 2.8125 0.81539 0.13455 1.6591 0.19124 2.4705 0.1875zm1.72-2c-0.55267 0-1.0007-0.44772-1.0007-1s0.44803-1 1.0007-1 1.0007 0.44772 1.0007 1-0.44803 1-1.0007 1z"/>
 </g>
</svg>
