<svg width="48" xmlns="http://www.w3.org/2000/svg" viewBox="0 0 48 48" height="48">
 <path d="m8 1c-1.0286 0-2 0.9714-2 2v42c0 0.97143 1.0286 2 2 2h32c0.97143 0 2-1.0286 2-2v-31l-13-13z" fill="#2d2d2d"/>
 <path d="m29 12 0.062 0.062 0.157-0.062h-0.219zm2 2 11 11v-11h-11z" fill-opacity=".196"/>
 <path fill="#fff" d="m29 1 13 13h-11c-0.97143 0-2-1.0286-2-2v-11z" fill-opacity=".392"/>
 <g transform="matrix(1.0041 0 0 1.233 -15.476 -.20943)" fill="#dcdcdc">
  <path d="m27.364 22.77c0-0.78096 0.13817-1.5499 0.41452-2.3069 0.27634-0.76895 0.67284-1.4538 1.1895-2.0546 0.52866-0.60074 1.1715-1.0873 1.9284-1.4598 0.75694-0.37245 1.622-0.55868 2.5952-0.5587 1.1414 0.000013 2.1266 0.25833 2.9557 0.77496 0.84104 0.51665 1.4598 1.1895 1.8563 2.0185l-1.9104 1.3156c-0.14419-0.36044-0.33042-0.66081-0.55869-0.90112-0.22829-0.2523-0.48061-0.45055-0.75694-0.59474-0.26434-0.14417-0.54068-0.2463-0.82903-0.30638-0.28837-0.07208-0.56471-0.10812-0.82903-0.10813-0.58874 0.00001-1.1054 0.12617-1.5499 0.37847-0.44456 0.25232-0.81702 0.58273-1.1174 0.99123-0.28836 0.3965-0.51064 0.85307-0.66683 1.3697-0.14418 0.50464-0.21627 1.0093-0.21627 1.5139-0.000003 0.56471 0.0841 1.1114 0.25231 1.64 0.18022 0.51665 0.42653 0.97321 0.73892 1.3697 0.3244 0.3965 0.70888 0.71489 1.1534 0.95519 0.44455 0.2403 0.93115 0.36045 1.4598 0.36045 0.27634 0.000002 0.55869-0.03604 0.84705-0.10814 0.28835-0.07209 0.56469-0.18623 0.82903-0.34242 0.27634-0.15619 0.52865-0.35444 0.75694-0.59474 0.22828-0.25231 0.41451-0.55268 0.5587-0.90112l2.0365 1.1715c-0.19225 0.4806-0.4746 0.90713-0.84705 1.2796-0.36046 0.36045-0.77497 0.66683-1.2435 0.91914-0.46859 0.25231-0.9612 0.44455-1.4778 0.57672-0.51665 0.13216-1.0273 0.19825-1.5319 0.19825-0.88911 0-1.7061-0.19224-2.451-0.57672-0.734-0.386-1.37-0.885-1.911-1.497-0.529-0.625-0.943-1.328-1.244-2.109-0.288-0.793-0.432-1.598-0.432-2.415"/>
  <path d="m45.619 21.887v1.9464h-1.8563v2.0365h-2.1627v-2.0365h-1.8743v-1.9464h1.8743v-2.0365h2.1627v2.0365h1.8563"/>
  <path d="m53.257 21.887v1.9464h-1.8563v2.0365h-2.1627v-2.0365h-1.8743v-1.9464h1.8743v-2.0365h2.1627v2.0365h1.8563"/>
 </g>
</svg>
