<svg width="48" xmlns="http://www.w3.org/2000/svg" viewBox="0 0 48 48" height="48">
 <path d="m8 1c-1.0286 0-2 0.9714-2 2v42c0 0.97143 1.0286 2 2 2h32c0.97143 0 2-1.0286 2-2v-31l-13-13z" fill="#d24726"/>
 <path d="m29 12 0.062 0.062 0.157-0.062h-0.219zm2 2 11 11v-11h-11z" fill-opacity=".196"/>
 <path fill="#fff" d="m29 1 13 13h-11c-0.97143 0-2-1.0286-2-2v-11z" fill-opacity=".392"/>
 <g fill="#fff">
  <path d="m12 16h7v5h-7z"/>
  <path d="m12 24h7v5h-7z"/>
  <g transform="matrix(3.2707 0 0 3.189 2.3077 3.4)">
   <path d="m8.3256 3.9511v1.9756h1.9756c0-1.0911-0.88449-1.9756-1.9756-1.9756z"/>
   <path d="m8.0433 4.2333c-1.0911 0-1.9756 0.88449-1.9756 1.9756s0.88449 1.9756 1.9756 1.9756 1.9756-0.88449 1.9756-1.9756h-1.9756v-1.9756z"/>
  </g>
 </g>
 <path d="m6 35v10c0 0.97143 1.0286 2 2 2h32c0.97143 0 2-1.0286 2-2v-10z" fill-opacity=".196"/>
 <g transform="scale(1.0718 .93305)" fill="#fff">
  <path d="m14.695 46.729c0.04424 0.0088 0.0929 0.01327 0.146 0.01327 0.05309 0.000001 0.10175 0.000001 0.146 0 0.37163 0.000001 0.68132-0.07079 0.92907-0.21236 0.2566-0.14157 0.46011-0.33623 0.61053-0.58399 0.15926-0.24775 0.26987-0.53974 0.33181-0.87598 0.07078-0.34508 0.10618-0.72113 0.10618-1.1282-0.000004-0.35393-0.02655-0.69901-0.07963-1.0353-0.05309-0.33623-0.146-0.63265-0.27872-0.88925-0.13273-0.25659-0.31412-0.4601-0.54417-0.61053-0.23006-0.15926-0.52648-0.2389-0.88925-0.2389-0.07079 0.000007-0.15042 0.0044-0.2389 0.01327-0.08849 0.000007-0.16812 0.0089-0.2389 0.02655v5.5213m3.929-2.787c-0.000006 0.76096-0.09734 1.4113-0.29199 1.951-0.18582 0.5309-0.44684 0.96447-0.78307 1.3007-0.33624 0.33624-0.73884 0.58399-1.2078 0.74326-0.46012 0.15042-0.96889 0.22563-1.5263 0.22563-0.292-0.000001-0.57957-0.0177-0.86271-0.05309-0.2743-0.02654-0.57072-0.07521-0.88925-0.146v-8.0166c0.37163-0.07963 0.72114-0.13272 1.0485-0.15927 0.32738-0.02654 0.63265-0.03981 0.9158-0.03982 0.53974 0.000009 1.0308 0.07964 1.4732 0.2389 0.45126 0.15928 0.83174 0.41145 1.1414 0.75653 0.30968 0.33624 0.54859 0.76981 0.71671 1.3007 0.17696 0.52206 0.26544 1.1547 0.26545 1.898"/>
  <path d="m21.955 39.748c1.0441 0.000009 1.8537 0.21679 2.4289 0.65035 0.57513 0.42473 0.8627 1.1237 0.86271 2.097-0.000006 0.98217-0.292 1.6945-0.87598 2.1369-0.57514 0.43357-1.3936 0.65035-2.4554 0.65035h-0.58399v2.7739h-1.6325v-8.1095c0.15927-0.03539 0.33623-0.06635 0.5309-0.09291 0.20351-0.02654 0.40702-0.04423 0.61053-0.05309 0.20351-0.01769 0.4026-0.03096 0.59726-0.03982 0.19466-0.0088 0.3672-0.01326 0.51763-0.01327m0.18581 1.4202c-0.09733 0.000007-0.23448 0.0044-0.41145 0.01327-0.16812 0.000007-0.30084 0.0089-0.39817 0.02655v2.6545h0.66362c0.52205 0.000004 0.9158-0.10175 1.1812-0.30527 0.26544-0.21236 0.39817-0.57071 0.39817-1.0751-0.000005-0.4778-0.13273-0.81404-0.39817-1.0087-0.2566-0.2035-0.60169-0.30526-1.0353-0.30527"/>
  <path d="m28.698 46.862c0.27429 0.000001 0.49992-0.02654 0.6769-0.07963 0.18581-0.06194 0.33181-0.14157 0.43799-0.2389 0.10618-0.10618 0.17696-0.22121 0.21236-0.34508 0.04424-0.13272 0.06636-0.26545 0.06636-0.39817-0.000005-0.16812-0.04867-0.31854-0.146-0.45126-0.09734-0.13272-0.22121-0.24775-0.37163-0.34508-0.15042-0.10618-0.31854-0.19908-0.50435-0.27872-0.18582-0.08848-0.37163-0.16811-0.55744-0.2389-0.24776-0.08848-0.50436-0.19023-0.7698-0.30527-0.26545-0.11502-0.50878-0.26102-0.72998-0.43799-0.21236-0.17696-0.38933-0.39374-0.5309-0.65035-0.14157-0.26544-0.21236-0.59283-0.21236-0.98216-0.000001-0.7698 0.24775-1.3715 0.74326-1.8051 0.50435-0.43356 1.1945-0.65034 2.0705-0.65035 0.50435 0.000008 0.94234 0.05752 1.314 0.17254 0.38047 0.11504 0.69901 0.24334 0.95562 0.3849l-0.47781 1.2609c-0.22121-0.12387-0.46896-0.23005-0.74326-0.31854-0.26545-0.08848-0.57514-0.13272-0.92907-0.13272-0.86714 0.000007-1.3007 0.31412-1.3007 0.94234-0.000002 0.15928 0.04424 0.30085 0.13272 0.42472 0.08848 0.11503 0.19908 0.22121 0.33181 0.31854 0.14157 0.08849 0.29642 0.16812 0.46454 0.2389 0.17696 0.07079 0.3495 0.13715 0.51763 0.19909 0.2566 0.09734 0.52204 0.20794 0.79635 0.33181 0.28314 0.11503 0.53974 0.2743 0.7698 0.47781 0.2389 0.19467 0.43356 0.44242 0.58399 0.74326 0.15042 0.292 0.22563 0.66362 0.22563 1.1149-0.000006 0.7698-0.25218 1.3671-0.75653 1.7918-0.49551 0.41587-1.252 0.6238-2.2696 0.6238-0.68132 0-1.2255-0.07079-1.6325-0.21236-0.40702-0.15042-0.71229-0.28757-0.9158-0.41145l0.47781-1.3272c0.2389 0.14157 0.52205 0.2743 0.84944 0.39817 0.33623 0.12388 0.74326 0.18582 1.2211 0.18582"/>
 </g>
</svg>
