<svg width="48" xmlns="http://www.w3.org/2000/svg" viewBox="0 0 48 48" height="48">
 <path d="m8 1c-1.0286 0-2 0.9714-2 2v42c0 0.97143 1.0286 2 2 2h32c0.97143 0 2-1.0286 2-2v-31l-13-13z" fill="#207245"/>
 <path d="m29 12 0.062 0.062 0.157-0.062h-0.219zm2 2 11 11v-11h-11z" fill-opacity=".196"/>
 <path fill="#fff" d="m29 1 13 13h-11c-0.97143 0-2-1.0286-2-2v-11z" fill-opacity=".392"/>
 <path d="m6 35v10c0 0.97143 1.0286 2 2 2h32c0.97143 0 2-1.0286 2-2v-10z" fill-opacity=".196"/>
 <g fill="#fff">
  <g transform="matrix(-.19998 0 0 .22916 49.203 38.165)">
   <path d="m76.027-87.999c0 30.716-0.0039 34.461-0.0039 61.094h100.01c0-30.716-0.004-34.461-0.004-61.094h-100zm10 8.7276h45v17.455h-45zm55 0h25v17.455h-25zm-55 26.183h45v17.455h-45zm55 0h25v17.455h-25z"/>
  </g>
  <g transform="scale(1.0557 .94721)">
   <path d="m17.771 47.338c-0.16561-0.44452-0.37044-0.93697-0.61448-1.4774-0.23534-0.54039-0.48374-1.0808-0.74522-1.6212-0.25277 0.51425-0.50553 1.0503-0.75829 1.6081-0.25277 0.54911-0.47067 1.0459-0.6537 1.4904h-1.7388c0.08716-0.23533 0.21354-0.5186 0.37915-0.84981 0.17432-0.33121 0.36171-0.68856 0.56218-1.0721 0.20918-0.3835 0.42708-0.77572 0.6537-1.1767 0.22661-0.40965 0.44451-0.80187 0.6537-1.1767l-2.118-3.8176h1.7388l1.2813 2.5887 1.3466-2.5887h1.6212l-2.0657 3.7784c0.23533 0.37479 0.4663 0.76701 0.69292 1.1767 0.22661 0.40966 0.4358 0.81059 0.62755 1.2028 0.20046 0.38351 0.37478 0.74522 0.52296 1.0851 0.14817 0.33121 0.26583 0.61448 0.353 0.84981h-1.7388"/>
   <path d="m25.668 47.338h-5.0858v-8.0928h1.6212v6.7593h3.4646v1.3335"/>
   <path d="m29.224 46.161c0.27019 0.000001 0.49245-0.02615 0.66678-0.07844 0.18303-0.06101 0.32685-0.13946 0.43144-0.23533 0.10459-0.10459 0.17432-0.2179 0.20918-0.33992 0.04358-0.13074 0.06537-0.26148 0.06537-0.39222-0.000004-0.1656-0.04794-0.31377-0.14381-0.44452-0.09588-0.13074-0.2179-0.24405-0.36607-0.33992-0.14818-0.10459-0.31378-0.19611-0.49681-0.27455-0.18304-0.08716-0.36608-0.1656-0.54911-0.23533-0.24405-0.08716-0.49682-0.18739-0.75829-0.3007-0.26148-0.1133-0.50117-0.25712-0.71907-0.43144-0.20919-0.17432-0.38351-0.38786-0.52296-0.64063-0.13946-0.26148-0.20918-0.58397-0.20918-0.96748-0.000001-0.75829 0.24405-1.351 0.73214-1.7781 0.49681-0.42708 1.1767-0.64062 2.0395-0.64063 0.49681 0.000008 0.92825 0.05666 1.2943 0.16996 0.37478 0.11332 0.68856 0.2397 0.94133 0.37915l-0.47066 1.242c-0.2179-0.12202-0.46195-0.22661-0.73214-0.31378-0.26148-0.08715-0.56654-0.13073-0.91518-0.13074-0.85417 0.000007-1.2813 0.30942-1.2813 0.92826-0.000002 0.15689 0.04358 0.29635 0.13074 0.41837 0.08716 0.11331 0.19611 0.2179 0.32685 0.31378 0.13945 0.08717 0.29198 0.16561 0.45759 0.23533 0.17432 0.06973 0.34428 0.1351 0.50989 0.19611 0.25276 0.09588 0.51424 0.20483 0.78444 0.32685 0.27891 0.11331 0.53167 0.2702 0.75829 0.47066 0.23533 0.19176 0.42708 0.4358 0.57526 0.73214 0.14817 0.28763 0.22225 0.6537 0.22226 1.0982-0.000006 0.7583-0.24841 1.3466-0.74522 1.765-0.4881 0.40965-1.2333 0.61448-2.2357 0.61448-0.67114 0-1.2072-0.06973-1.6081-0.20918-0.40094-0.14817-0.70164-0.28327-0.90211-0.40529l0.47066-1.3074c0.23533 0.13946 0.51424 0.2702 0.83674 0.39222 0.33121 0.12202 0.73214 0.18304 1.2028 0.18304"/>
  </g>
 </g>
</svg>
