<svg width="48" xmlns="http://www.w3.org/2000/svg" viewBox="0 0 48 48" height="48">
 <path d="m8 1c-1.0286 0-2 0.9714-2 2v11 31c0 0.971 1.0286 2 2 2h32c0.971 0 2-1.029 2-2v-31-11c0-1.0286-0.971-2-2-2h-11-10-11z" fill="#d24726"/>
 <g fill="#fff">
  <path d="m12 16h7v5h-7z"/>
  <path d="m12 24h7v5h-7z"/>
  <g transform="matrix(3.2707 0 0 3.189 2.3077 3.4)">
   <path d="m8.3256 3.9511v1.9756h1.9756c0-1.0911-0.88449-1.9756-1.9756-1.9756z"/>
   <path d="m8.0433 4.2333c-1.0911 0-1.9756 0.88449-1.9756 1.9756s0.88449 1.9756 1.9756 1.9756 1.9756-0.88449 1.9756-1.9756h-1.9756v-1.9756z"/>
  </g>
 </g>
 <path d="m6 35v10c0 0.97143 1.0286 2 2 2h32c0.97143 0 2-1.0286 2-2v-10z" fill-opacity=".196"/>
 <g transform="scale(1.0561 .94685)" fill="#fff">
  <path d="m14.895 46.087c0.04442 0.0089 0.09328 0.01333 0.14659 0.01333 0.0533 0.000001 0.10217 0.000001 0.14659 0 0.37314 0.000001 0.68409-0.07107 0.93286-0.21322 0.25764-0.14215 0.46198-0.3376 0.61302-0.58637 0.15992-0.24876 0.27097-0.54194 0.33316-0.87955 0.07107-0.34649 0.10661-0.72407 0.10661-1.1328-0.000005-0.35537-0.02666-0.70186-0.07996-1.0395-0.05331-0.3376-0.1466-0.63523-0.27986-0.89288-0.13327-0.25764-0.3154-0.46198-0.54639-0.61302-0.231-0.15991-0.52862-0.23987-0.89288-0.23988-0.07108 0.000007-0.15104 0.0044-0.23988 0.01333-0.08885 0.000007-0.1688 0.0089-0.23988 0.02665v5.5439m3.9447-2.7986c-0.000006 0.76406-0.09773 1.4171-0.29318 1.959-0.18658 0.53306-0.44867 0.9684-0.78627 1.306-0.33761 0.33761-0.74185 0.58637-1.2127 0.74629-0.46199 0.15103-0.97284 0.22655-1.5326 0.22655-0.29319 0-0.58193-0.01777-0.86623-0.05331-0.27542-0.02665-0.57304-0.07552-0.89288-0.14659v-8.0492c0.37314-0.07995 0.72408-0.13326 1.0528-0.15992 0.32872-0.02665 0.63523-0.03997 0.91953-0.03998 0.54194 0.000008 1.035 0.07997 1.4792 0.23988 0.4531 0.15993 0.83513 0.41313 1.1461 0.75961 0.31095 0.33761 0.55083 0.77295 0.71964 1.306 0.17768 0.52418 0.26652 1.1594 0.26653 1.9057"/>
  <path d="m22.185 39.077c1.0484 0.000008 1.8613 0.21768 2.4388 0.653 0.57748 0.42646 0.86622 1.1283 0.86623 2.1056-0.000006 0.98617-0.29319 1.7014-0.87955 2.1456-0.57749 0.43534-1.3993 0.653-2.4654 0.653h-0.58637v2.7853h-1.6392v-8.1425c0.15992-0.03553 0.3376-0.06663 0.53306-0.09329 0.20434-0.02664 0.40868-0.04441 0.61302-0.05331 0.20434-0.01776 0.40424-0.03109 0.5997-0.03998 0.19545-0.0089 0.3687-0.01332 0.51974-0.01333m0.18657 1.4259c-0.09773 0.000007-0.23544 0.0044-0.41312 0.01333-0.16881 0.000007-0.30207 0.0089-0.3998 0.02665v2.6653h0.66633c0.52418 0.000004 0.91953-0.10217 1.1861-0.30651 0.26653-0.21322 0.39979-0.57304 0.3998-1.0795-0.000005-0.47975-0.13327-0.81736-0.3998-1.0128-0.257-0.204-0.603-0.306-1.039-0.306"/>
  <path d="m32.193 39.17v1.3593h-2.1722v6.8898h-1.6525v-6.8898h-2.1722v-1.3593h5.997"/>
 </g>
</svg>
