<svg width="48" xmlns="http://www.w3.org/2000/svg" viewBox="0 0 48 48" height="48">
 <path d="m8 1c-1.0286 0-2 0.9714-2 2v11 31c0 0.971 1.0286 2 2 2h32c0.971 0 2-1.029 2-2v-31-11c0-1.0286-0.971-2-2-2h-11-10-11z" fill="#207245"/>
 <path d="m6 35v10c0 0.97143 1.0286 2 2 2h32c0.97143 0 2-1.0286 2-2v-10z" fill-opacity=".196"/>
 <g fill="#fff">
  <g transform="matrix(-.19998 0 0 .22916 49.203 38.165)">
   <path d="m76.031-92.361c0 30.716-0.0039 34.461-0.0039 61.094h100.01c0-30.716-0.004-34.461-0.004-61.094h-100zm10 8.7276h45v17.455h-45zm55 0h25v17.455h-25zm-55 26.183h45v17.455h-45zm55 0h25v17.455h-25z"/>
  </g>
  <g transform="scale(1.0281 .97265)">
   <path d="m18.201 46.266c-0.168-0.452-0.376-0.953-0.624-1.502-0.239-0.549-0.492-1.098-0.758-1.648-0.2569 0.52265-0.51379 1.0674-0.77068 1.6344-0.2569 0.55808-0.47835 1.063-0.66438 1.5148h-1.7672c0.08858-0.23918 0.21703-0.52707 0.38534-0.86369 0.17717-0.33662 0.36762-0.69981 0.57136-1.0896 0.2126-0.38977 0.43406-0.78839 0.66438-1.1959 0.23032-0.41634 0.45177-0.81496 0.66438-1.1959l-2.1526-3.88h1.7672l1.3022 2.6309 1.3686-2.6309h1.6477l-2.0994 3.8401c0.23917 0.38091 0.47392 0.77954 0.70424 1.1959 0.23031 0.41634 0.44291 0.82383 0.6378 1.2225 0.20374 0.38977 0.3809 0.75739 0.5315 1.1029 0.15059 0.33662 0.27017 0.62451 0.35876 0.86369h-1.7672"/>
   <path d="m26.227 46.266h-5.1688v-8.225h1.6477v6.8697h3.5212v1.3553"/>
   <path d="m33.07 38.041v1.3553h-2.1659v6.8697h-1.6477v-6.8697h-2.1659v-1.3553h5.9794"/>
  </g>
 </g>
</svg>
