<svg width="48" xmlns="http://www.w3.org/2000/svg" viewBox="0 0 48 48" height="48">
 <path d="m8 1c-1.0286 0-2 0.9714-2 2v42c0 0.97143 1.0286 2 2 2h32c0.97143 0 2-1.0286 2-2v-31l-13-13z" fill="#207245"/>
 <path d="m29 12 0.062 0.062 0.157-0.062h-0.219zm2 2 11 11v-11h-11z" fill-opacity=".196"/>
 <path fill="#fff" d="m29 1 13 13h-11c-0.97143 0-2-1.0286-2-2v-11z" fill-opacity=".392"/>
 <path d="m6 35v10c0 0.97143 1.0286 2 2 2h32c0.97143 0 2-1.0286 2-2v-10z" fill-opacity=".196"/>
 <g fill="#fff">
  <g transform="matrix(-.19998 0 0 .22916 49.203 38.165)">
   <path d="m76.027-87.999c0 30.716-0.0039 34.461-0.0039 61.094h100.01c0-30.716-0.004-34.461-0.004-61.094h-100zm10 8.7276h45v17.455h-45zm55 0h25v17.455h-25zm-55 26.183h45v17.455h-45zm55 0h25v17.455h-25z"/>
  </g>
  <g transform="scale(1.1651 .8583)">
   <path d="m13.733 52.429v-9.3208h5.6467v1.5359h-3.7946v2.093h3.2977v1.5359h-3.2977v2.6201h4.1258v1.5359h-5.978"/>
   <path d="m27.465 43.109v1.5359h-2.4544v7.7849h-1.8672v-7.7849h-2.4544v-1.5359h6.776"/>
  </g>
 </g>
</svg>
