<svg width="48" xmlns="http://www.w3.org/2000/svg" viewBox="0 0 48 48" height="48">
 <path d="m8 1c-1.0286 0-2 0.9714-2 2v11 31c0 0.971 1.0286 2 2 2h32c0.971 0 2-1.029 2-2v-31-11c0-1.0286-0.971-2-2-2h-11-10-11z" fill="#3468ce"/>
 <g fill="#fff">
  <g transform="translate(-.5 -1)">
   <rect rx=".579" ry=".601" height="7" width="8" y="17" x="16"/>
  </g>
  <g stroke-linejoin="round" transform="translate(-.5 -1)" stroke-dashoffset=".774" stroke="#fff" stroke-linecap="round">
   <path d="m26.5 17.5h5"/>
   <path d="m26.5 20.5h5"/>
   <path d="m26.5 23.5h5"/>
   <path d="m16 26.5h16"/>
   <path d="m16 29.5h16"/>
   <path d="m16 32.5h16"/>
  </g>
 </g>
 <path d="m6 35v10c0 0.97143 1.0286 2 2 2h32c0.97143 0 2-1.0286 2-2v-10z" fill-opacity=".196"/>
 <g transform="scale(1.0661 .93802)" fill="#fff">
  <path d="m14.756 46.482c0.04401 0.0088 0.09241 0.0132 0.14522 0.0132 0.05281 0.000002 0.10121 0.000002 0.14522 0 0.36966 0.000002 0.67771-0.07041 0.92416-0.21124 0.25524-0.14082 0.45767-0.33445 0.6073-0.5809 0.15842-0.24644 0.26844-0.53689 0.33006-0.87135 0.07041-0.34325 0.10561-0.71732 0.10562-1.1222-0.000005-0.35206-0.02641-0.69531-0.07921-1.0298-0.05281-0.33445-0.14523-0.6293-0.27725-0.88455-0.13203-0.25524-0.31246-0.45767-0.54129-0.6073-0.22884-0.15842-0.52369-0.23763-0.88455-0.23764-0.07041 0.000007-0.14963 0.0044-0.23764 0.0132-0.08802 0.000007-0.16723 0.0088-0.23764 0.0264v5.4921m3.9079-2.7725c-0.000006 0.75693-0.09682 1.4038-0.29045 1.9407-0.18484 0.52809-0.44448 0.95936-0.77893 1.2938-0.33446 0.33446-0.73493 0.5809-1.2014 0.73932-0.45768 0.14963-0.96376 0.22444-1.5183 0.22444-0.29045 0-0.5765-0.0176-0.85814-0.05281-0.27285-0.0264-0.5677-0.07481-0.88455-0.14522v-7.9741c0.36966-0.07921 0.71732-0.13201 1.043-0.15843 0.32565-0.0264 0.6293-0.0396 0.91095-0.03961 0.53689 0.000008 1.0254 0.07922 1.4654 0.23764 0.44887 0.15843 0.82733 0.40928 1.1354 0.75253 0.30805 0.33446 0.54569 0.76574 0.71292 1.2938 0.17602 0.51929 0.26404 1.1486 0.26404 1.8879"/>
  <path d="m21.027 43.709c-0.000002 0.39607 0.0132 0.77013 0.03961 1.1222 0.0352 0.34326 0.09681 0.64251 0.18483 0.89775 0.09681 0.25524 0.22884 0.45768 0.39607 0.6073 0.16722 0.14963 0.39166 0.22444 0.67331 0.22444 0.27284 0.000001 0.49288-0.07481 0.66011-0.22444 0.17603-0.14962 0.30805-0.35206 0.39607-0.6073 0.09681-0.26404 0.15842-0.56769 0.18483-0.91095 0.0352-0.34326 0.0528-0.71292 0.05281-1.109-0.000004-0.39606-0.01761-0.76572-0.05281-1.109-0.02641-0.35205-0.08802-0.6557-0.18483-0.91095-0.08802-0.25524-0.21564-0.45767-0.38286-0.6073-0.16723-0.14962-0.39167-0.22443-0.67331-0.22444-0.28165 0.000007-0.50609 0.07482-0.67331 0.22444-0.16723 0.14963-0.29925 0.35647-0.39607 0.6205-0.08802 0.25525-0.14963 0.5545-0.18483 0.89775-0.02641 0.34326-0.03961 0.71292-0.03961 1.109m-1.6503 0c-0.000001-1.4082 0.25964-2.4688 0.77893-3.1817 0.51928-0.72171 1.241-1.0826 2.1652-1.0826 0.95936 0.000008 1.6899 0.36087 2.1916 1.0826 0.50168 0.71293 0.75252 1.7735 0.75253 3.1817-0.000006 1.4082-0.25525 2.4732-0.76573 3.1949-0.51049 0.71292-1.2322 1.0694-2.1652 1.0694-0.95936 0-1.6943-0.35646-2.2048-1.0694-0.50168-0.72172-0.75253-1.7867-0.75253-3.1949"/>
  <path d="m31.893 39.63v1.3466h-2.152v6.8255h-1.6371v-6.8255h-2.152v-1.3466h5.941"/>
 </g>
</svg>
