<svg width="48" xmlns="http://www.w3.org/2000/svg" viewBox="0 0 48 48" height="48">
 <path d="m8 1c-1.0286 0-2 0.9714-2 2v42c0 0.97143 1.0286 2 2 2h32c0.97143 0 2-1.0286 2-2v-31l-13-13z" fill="#3468ce"/>
 <path d="m29 12 0.062 0.062 0.157-0.062h-0.219zm2 2 11 11v-11h-11z" fill-opacity=".196"/>
 <g fill="#fff">
  <path d="m29 1 13 13h-11c-0.97143 0-2-1.0286-2-2v-11z" fill-opacity=".392"/>
  <g transform="translate(-.5 -1)">
   <rect rx=".579" ry=".601" height="7" width="8" y="17" x="16"/>
  </g>
  <g stroke-linejoin="round" transform="translate(-.5 -1)" stroke-dashoffset=".774" stroke="#fff" stroke-linecap="round">
   <path d="m26.5 17.5h5"/>
   <path d="m26.5 20.5h5"/>
   <path d="m26.5 23.5h5"/>
   <path d="m16 26.5h16"/>
   <path d="m16 29.5h16"/>
   <path d="m16 32.5h16"/>
  </g>
 </g>
 <path d="m6 35v10c0 0.97143 1.0286 2 2 2h32c0.97143 0 2-1.0286 2-2v-10z" fill-opacity=".196"/>
 <g transform="scale(1.0683 .93603)" fill="#fff">
  <path d="m14.732 46.58c0.0441 0.0088 0.09261 0.01323 0.14553 0.01323 0.05292 0.000001 0.10143 0.000001 0.14553 0 0.37044 0.000001 0.67914-0.07056 0.92611-0.21168 0.25578-0.14112 0.45864-0.33516 0.60859-0.58213 0.15876-0.24696 0.26901-0.53802 0.33075-0.87319 0.07056-0.34398 0.10584-0.71884 0.10584-1.1246-0.000004-0.3528-0.02646-0.69678-0.07938-1.032-0.05293-0.33516-0.14554-0.63063-0.27783-0.88642-0.13231-0.25578-0.31312-0.45864-0.54244-0.60859-0.22933-0.15876-0.5248-0.23814-0.88642-0.23814-0.07056 0.000006-0.14994 0.0044-0.23814 0.01323-0.0882 0.000007-0.16758 0.0088-0.23814 0.02646v5.5038m3.9161-2.7783c-0.000006 0.75853-0.09703 1.4068-0.29106 1.9448-0.18523 0.52921-0.44542 0.96139-0.78058 1.2966-0.33517 0.33516-0.73648 0.58213-1.2039 0.74089-0.45865 0.14994-0.9658 0.22491-1.5215 0.22491-0.29107 0-0.57772-0.01764-0.85996-0.05292-0.27342-0.02646-0.5689-0.07497-0.88642-0.14553v-7.991c0.37044-0.07937 0.71884-0.13229 1.0452-0.15876 0.32634-0.02645 0.63064-0.03968 0.91288-0.03969 0.53802 0.000008 1.0275 0.07939 1.4685 0.23814 0.44982 0.15877 0.82909 0.41014 1.1378 0.75412 0.3087 0.33517 0.54684 0.76736 0.71443 1.2966 0.1764 0.52039 0.2646 1.151 0.2646 1.8919"/>
  <path d="m21.016 43.802c-0.000002 0.39691 0.01323 0.77176 0.03969 1.1246 0.03528 0.34399 0.09702 0.64387 0.18522 0.89965 0.09702 0.25578 0.22932 0.45865 0.3969 0.60859s0.39249 0.22491 0.67474 0.22491c0.27342 0.000001 0.49392-0.07497 0.66151-0.22491 0.1764-0.14994 0.3087-0.3528 0.3969-0.60859 0.09702-0.2646 0.15876-0.5689 0.18522-0.91288 0.03528-0.34398 0.05292-0.71443 0.05292-1.1113-0.000004-0.3969-0.01764-0.76735-0.05292-1.1113-0.02647-0.3528-0.08821-0.65709-0.18522-0.91288-0.0882-0.25578-0.2161-0.45864-0.38368-0.60859-0.16759-0.14994-0.3925-0.22491-0.67474-0.22491-0.28225 0.000007-0.50716 0.07498-0.67474 0.22491-0.16758 0.14995-0.29989 0.35722-0.3969 0.62182-0.0882 0.25579-0.14994 0.55567-0.18522 0.89965-0.02646 0.34399-0.03969 0.71443-0.03969 1.1113m-1.6538 0c0-1.4112 0.26019-2.474 0.78058-3.1885 0.52038-0.72324 1.2436-1.0849 2.1697-1.0849 0.96139 0.000008 1.6935 0.36163 2.1962 1.0849 0.50274 0.71444 0.75411 1.7773 0.75412 3.1885-0.000006 1.4112-0.25579 2.4785-0.76735 3.2017-0.51157 0.71443-1.2348 1.0716-2.1697 1.0716-0.9614 0-1.6979-0.35721-2.2094-1.0716-0.50275-0.72325-0.75412-1.7905-0.75412-3.2017"/>
  <path d="m29.536 48.075c-1.1554 0-2.0374-0.37044-2.646-1.1113-0.60859-0.74089-0.91288-1.7949-0.91288-3.162 0-0.67914 0.09261-1.2833 0.27783-1.8125s0.441-0.97462 0.76735-1.3362c0.33516-0.37044 0.72766-0.64827 1.1775-0.8335 0.45864-0.19404 0.95698-0.29106 1.495-0.29106 0.29106 0.000008 0.55125 0.02647 0.78058 0.07938 0.23814 0.04411 0.44541 0.09703 0.62182 0.15876 0.1764 0.06175 0.32193 0.1279 0.4366 0.19845 0.12348 0.07057 0.21609 0.12349 0.27783 0.15876l-0.42336 1.2966c-0.20287-0.1323-0.44983-0.24255-0.74089-0.33076-0.28225-0.09701-0.60859-0.14552-0.97903-0.14553-0.25579 0.000007-0.50716 0.04852-0.75412 0.14553-0.23815 0.08821-0.45424 0.24256-0.64828 0.46306-0.18522 0.21169-0.33958 0.49834-0.46306 0.85996-0.11466 0.36163-0.17199 0.81146-0.17199 1.3495-0.000002 0.93494 0.15876 1.6538 0.47629 2.1565 0.32634 0.49393 0.85555 0.74089 1.5876 0.74089 0.42336 0.000001 0.77176-0.04851 1.0452-0.14553 0.28224-0.09702 0.50715-0.19404 0.67474-0.29106l0.41014 1.2833c-0.22933 0.14112-0.54244 0.27342-0.93934 0.3969-0.38809 0.11466-0.83792 0.17199-1.3495 0.17199"/>
 </g>
</svg>
