<?xml version="1.0" encoding="UTF-8" standalone="no"?>
<!-- Created with Inkscape (http://www.inkscape.org/) -->
<svg id="svg7384" xmlns:rdf="http://www.w3.org/1999/02/22-rdf-syntax-ns#" xmlns="http://www.w3.org/2000/svg" height="16" width="16" version="1.1" xmlns:cc="http://creativecommons.org/ns#" xmlns:dc="http://purl.org/dc/elements/1.1/">
 <metadata id="metadata90">
  <rdf:RDF>
   <cc:Work rdf:about="">
    <dc:format>image/svg+xml</dc:format>
    <dc:type rdf:resource="http://purl.org/dc/dcmitype/StillImage"/>
    <dc:title>Gnome Symbolic Icon Theme</dc:title>
   </cc:Work>
  </rdf:RDF>
 </metadata>
 <title id="title9167">Gnome Symbolic Icon Theme</title>
 <g id="layer14" transform="translate(-461 -321)">
  <path id="path35681" style="block-progression:tb;text-indent:0;color:#000000;text-transform:none;fill:#bebebe" d="m463.81 322a1.0001 1.0001 0 0 0 -0.8125 1v13a1.0001 1.0001 0 0 0 1 1h10a1.0001 1.0001 0 0 0 1 -1v-9.4375a1.0001 1.0001 0 0 0 -0.28125 -0.71875l-3.5625-3.5625a1.0001 1.0001 0 0 0 -0.71875 -0.28125h-6.4375a1.0001 1.0001 0 0 0 -0.0937 0 1.0001 1.0001 0 0 0 -0.0937 0zm1.1875 2h5v3h3v8h-8v-11z"/>
  <path id="path35302-7" style="block-progression:tb;text-indent:0;color:#000000;text-transform:none;fill:#bebebe" d="m469.56 331.34c-0.46643-0.0643-1.0458-0.1297-1.5312 0.25-0.40319 0.3154-0.7654 0.72703-1.0938 1.0312-0.32835 0.30422-0.65996 0.4375-0.59375 0.4375h-2.3438v1h2.3438c0.58207 0 0.88604-0.38153 1.25-0.71875s0.75079-0.69367 1.0625-0.9375c0.10629-0.0831 0.40859-0.14514 0.78125-0.0937 0.37266 0.0514 0.69959 0.1875 1.0938 0.1875 0.14648 0 0.20407 0.0328 0.3125 0.125s0.24045 0.24389 0.375 0.4375 0.28193 0.42119 0.5 0.625 0.56155 0.375 0.9375 0.375h0.84375v-1h-0.84375c-0.0991 0-0.15147-0.002-0.25-0.0937-0.0985-0.0921-0.23537-0.26783-0.375-0.46875s-0.29184-0.42134-0.53125-0.625-0.57764-0.375-0.96875-0.375c-0.0328 0-0.50232-0.0919-0.96875-0.15625z"/>
  <path id="path35306-9" style="block-progression:tb;text-indent:0;color:#000000;text-transform:none;fill:#bebebe" d="m467.42 326.86c-0.86024 0-1.5563 0.72246-1.5563 1.5827s0.69608 1.5563 1.5563 1.5563c0.86024 0 1.5827-0.69608 1.5827-1.5563 0-0.86023-0.72246-1.5827-1.5827-1.5827zm0 1.0024c0.3198 0 0.58032 0.26053 0.58032 0.58032 0 0.3198-0.26052 0.55395-0.58032 0.55395s-0.55394-0.23415-0.55394-0.55395c0-0.31979 0.23414-0.58032 0.55394-0.58032z"/>
 </g>
</svg>
