<?xml version="1.0" encoding="UTF-8" standalone="no"?>
<!-- Created with Inkscape (http://www.inkscape.org/) -->
<svg id="svg7384" xmlns:rdf="http://www.w3.org/1999/02/22-rdf-syntax-ns#" xmlns="http://www.w3.org/2000/svg" height="16.012" width="16" version="1.1" xmlns:cc="http://creativecommons.org/ns#" xmlns:dc="http://purl.org/dc/elements/1.1/">
 <metadata id="metadata90">
  <rdf:RDF>
   <cc:Work rdf:about="">
    <dc:format>image/svg+xml</dc:format>
    <dc:type rdf:resource="http://purl.org/dc/dcmitype/StillImage"/>
    <dc:title>Gnome Symbolic Icon Theme</dc:title>
   </cc:Work>
  </rdf:RDF>
 </metadata>
 <title id="title9167">Gnome Symbolic Icon Theme</title>
 <g id="layer12" transform="translate(-383 -807)">
  <path id="path27474" style="color:#bebebe;fill-rule:evenodd;fill:#bebebe" d="m385.94 808c-0.6325 0.0455-1.0277 0.72053-0.9375 1.3125 0.003 4.25 0.0213 8.5002 0.0312 12.75 0.057 0.62486 0.69233 1.0265 1.2812 0.9375 3.253-0.003 6.4972-0.0214 9.75-0.0312 0.62425-0.0569 1.0264-0.69174 0.9375-1.2812-0.004-3.256-0.0162-6.5256-0.0312-9.7812-0.0941-0.59835-0.66512-0.91374-1.0312-1.3438-0.80258-0.78917-1.5546-1.6058-2.375-2.375-0.49046-0.30313-1.1108-0.1456-1.6562-0.1875h-5.9688zm5.0625 3h1c0.30945 0 0.55232 0.0902 0.75 0.28125l3.66 3.72-3.66 3.72c-0.2 0.19-0.44 0.28-0.75 0.28h-1v-1c0-0.25689 0.12983-0.52846 0.3125-0.71875l1.28-1.28h-3.125c-0.93955 0-1.4688 0.65905-1.4688 1.5 0 0.42921 0.16539 0.82274 0.4375 1.0938l-1.1562 1.625c-0.80398-0.63477-1.3125-1.6184-1.3125-2.7188 0-1.9205 1.5782-3.5 3.5-3.5h3.125l-1.2812-1.2812c-0.18267-0.1903-0.3125-0.46186-0.3125-0.71875v-1z"/>
 </g>
</svg>
