<?xml version="1.0" encoding="UTF-8" standalone="no"?>
<!-- Created with Inkscape (http://www.inkscape.org/) -->
<svg id="svg3378" xmlns="http://www.w3.org/2000/svg" height="22" width="22" version="1.0">
 <g id="layer1">
  <path id="path3374" style="opacity:.6;fill-rule:evenodd;fill:#eae3d0" d="m5 3c-1.6475 0-3 1.3525-3 3v13c0 1.648 1.3525 3 3 3h14c1.648 0 3-1.352 3-3v-13c0-1.6475-1.352-3-3-3h-14zm6 7.25v0.75c0.003 0.551 0.449 0.997 1 1h7v2.938h-7c-0.551 0.002-0.997 0.448-1 1v0.75l-3.5625-3.219 3.5625-3.219z" transform="translate(-1,-1)"/>
  <path id="rect2396" style="fill-rule:evenodd;fill:#3a3935" d="m4 3c-1.108 0-2 0.892-2 2v13c0 1.108 0.892 2 2 2h14c1.108 0 2-0.892 2-2v-13c0-1.108-0.892-2-2-2h-14zm-0.5 1h15c0.277 0 0.5 0.223 0.5 0.5s-0.223 0.5-0.5 0.5h-15c-0.277 0-0.5-0.223-0.5-0.5s0.223-0.5 0.5-0.5zm7.5 2.9688v3.0312h8v4.938h-8v3.031l-6.0938-5.5 6.0938-5.5002z"/>
 </g>
</svg>
