<?xml version="1.0" encoding="UTF-8" standalone="no"?>
<!-- Created with Inkscape (http://www.inkscape.org/) -->
<svg id="svg3883" xmlns:rdf="http://www.w3.org/1999/02/22-rdf-syntax-ns#" xmlns="http://www.w3.org/2000/svg" height="22" width="22" version="1.1" xmlns:cc="http://creativecommons.org/ns#" xmlns:dc="http://purl.org/dc/elements/1.1/">
 <metadata id="metadata3888">
  <rdf:RDF>
   <cc:Work rdf:about="">
    <dc:format>image/svg+xml</dc:format>
    <dc:type rdf:resource="http://purl.org/dc/dcmitype/StillImage"/>
    <dc:title/>
   </cc:Work>
  </rdf:RDF>
 </metadata>
 <path id="path3683-6-6" d="m10.918 18.854-9.068-9.0384s2.8978-3.2944 9.132-3.2944c6.2036 0 9.168 3.3 9.168 3.3z" style="opacity:.3;stroke-linejoin:round;stroke:#000;stroke-linecap:round;fill:none"/>
 <path id="path3683-6" d="m10.918 17.854-9.068-9.0379s2.8978-3.2944 9.132-3.2944c6.2036 0 9.168 3.3 9.168 3.3z" style="stroke-linejoin:round;stroke:#dfdbd2;stroke-linecap:round;fill:none"/>
 <path id="path3868" d="m10.969 6.2812c-2.9839 0-5.1262 0.79512-6.5312 1.5625-1.0022 0.5473-1.1762 0.8107-1.4378 1.0625l7.9062 7.875 8.094-7.906c-0.273-0.2552-0.458-0.4861-1.469-1.0312-1.426-0.7692-3.594-1.5626-6.562-1.5626z" style="opacity:.3;stroke-linejoin:round;stroke-width:.5;stroke:#dfdbd2;stroke-linecap:round;fill:none"/>
</svg>
