<?xml version="1.0" encoding="UTF-8" standalone="no"?>
<!-- Created with Inkscape (http://www.inkscape.org/) -->
<svg id="svg3294" xmlns:rdf="http://www.w3.org/1999/02/22-rdf-syntax-ns#" xmlns="http://www.w3.org/2000/svg" height="22" width="20" version="1.0" xmlns:cc="http://creativecommons.org/ns#" xmlns:dc="http://purl.org/dc/elements/1.1/">
 <metadata id="metadata15">
  <rdf:RDF>
   <cc:Work rdf:about="">
    <dc:format>image/svg+xml</dc:format>
    <dc:type rdf:resource="http://purl.org/dc/dcmitype/StillImage"/>
    <dc:title/>
   </cc:Work>
  </rdf:RDF>
 </metadata>
 <path id="path3445-6" style="opacity:.3;stroke:#000;stroke-linecap:round;stroke-width:1px;fill:none" d="m7.5026 10.935s0.49738-1 2.4974-1 2.4974 1.0419 2.4974 1.0419m-6.497-1.5346s0.98176-1.55 4-1.5079c3.0182 0.04214 4 1.5079 4 1.5079m-4.5654 3.0576s-0.02094-0.56544 0.56544-0.56544c0.57652 0 0.48168 0.56544 0.48168 0.56544"/>
 <path id="rect2722-3" style="opacity:.3" d="m3 4c-0.554 0-1 0.4894-1 1.0938v9.8125c0 0.605 0.446 1.094 1 1.094h14c0.554 0 1-0.48939 1-1.0938v-9.8125c0-0.6041-0.446-1.0935-1-1.0935h-14zm1 2h12v8h-12v-8zm3 11v1h-2v2h10v-2h-2v-1h-6z"/>
 <path id="rect2722" style="fill:#dfdbd2" d="m3 3c-0.554 0-1 0.4894-1 1.0938v9.8125c0 0.605 0.446 1.094 1 1.094h14c0.554 0 1-0.48939 1-1.0938v-9.8125c0-0.6041-0.446-1.0935-1-1.0935h-14zm1 2h12v8h-12v-8zm3 11v1h-2v2h10v-2h-2v-1h-6z"/>
 <path id="path3445" style="stroke:#dfdbd2;stroke-linecap:round;stroke-width:1px;fill:none" d="m7.5026 10s0.49738-1 2.4974-1 2.4974 1.0419 2.4974 1.0419m-6.497-1.5341s0.98176-1.55 4-1.5079c3.0182 0.04214 4 1.5079 4 1.5079m-4.5654 3.0571s-0.021-0.565 0.5654-0.565c0.57652 0 0.48168 0.56544 0.48168 0.56544"/>
</svg>
