<?xml version="1.0" encoding="UTF-8" standalone="no"?>
<!-- Created with Inkscape (http://www.inkscape.org/) -->
<svg id="svg2467" xmlns:rdf="http://www.w3.org/1999/02/22-rdf-syntax-ns#" xmlns="http://www.w3.org/2000/svg" height="22" width="22" version="1.0" xmlns:cc="http://creativecommons.org/ns#" xmlns:dc="http://purl.org/dc/elements/1.1/">
 <metadata id="metadata8">
  <rdf:RDF>
   <cc:Work rdf:about="">
    <dc:format>image/svg+xml</dc:format>
    <dc:type rdf:resource="http://purl.org/dc/dcmitype/StillImage"/>
    <dc:title/>
   </cc:Work>
  </rdf:RDF>
 </metadata>
 <path id="rect3193-52" d="m12.497 5c-1.6895 1e-7 -3.1368 1.0625-3.9063 2.5938-0.4328-0.3605-0.9861-0.5938-1.5933-0.5938-1.38 1e-7 -2.5 1.12-2.5 2.5 0 0.30993 0.05301 0.60104 0.15625 0.875-1.5695 0.70128-2.6562 2.289-2.6562 4.125 0 2.493 2.007 4.5 4.5 4.5h9c2.493 0 4.5-2.007 4.5-4.5 0-1.9747-1.2687-3.641-3.0312-4.25 0.0039-0.08543 0.03125-0.1635 0.03125-0.25 0-2.76-2.016-5-4.5-5zm-1.5 4c1.4826-2e-7 2.4128 0.55829 3 1.25v-1.25h1v2 1h-1-2v-1h1.3125c-0.43535-0.55672-1.1425-1-2.3125-1-3-2e-7 -3 3-3 3h-1s0-4 4-4zm3 4h1s0 4-4 4c-1.4826 0-2.4128-0.55829-3-1.25v1.25h-1v-2-1h1 2v1h-1.3125c0.43535 0.55672 1.1425 1 2.3125 1 3 0 3-3 3-3z" style="opacity:.3;fill-rule:evenodd"/>
 <path id="rect3193" d="m12.497 3.987c-1.6895 1e-7 -3.1368 1.0625-3.9063 2.5938-0.43327-0.36041-0.98655-0.59375-1.5938-0.59375-1.38 1e-7 -2.5 1.12-2.5 2.5 0 0.30993 0.05301 0.60104 0.15625 0.875-1.5695 0.70128-2.6562 2.289-2.6562 4.125 0 2.493 2.007 4.5 4.5 4.5h9c2.493 0 4.5-2.007 4.5-4.5 0-1.9747-1.2687-3.641-3.0312-4.25 0.0039-0.085426 0.03125-0.1635 0.03125-0.25 0-2.76-2.016-5-4.5-5zm-1.5 4c1.4826-2e-7 2.4128 0.55829 3 1.25v-1.25h1v2 1h-1-2v-1h1.3125c-0.43535-0.55672-1.1425-1-2.3125-1-3.0006 0-3.0006 3-3.0006 3h-1s0-4 4-4zm3 4h1s0 4-4 4c-1.4826 0-2.4128-0.55829-3-1.25v1.25h-1v-2-1h1 2v1h-1.3125c0.43535 0.55672 1.1425 1 2.3125 1 3 0 3-3 3-3z" style="fill-rule:evenodd;fill:#dfdbd2"/>
</svg>
