<?xml version="1.0" encoding="UTF-8" standalone="no"?>
<!-- Created with Inkscape (http://www.inkscape.org/) -->
<svg id="svg3215" xmlns:rdf="http://www.w3.org/1999/02/22-rdf-syntax-ns#" xmlns="http://www.w3.org/2000/svg" height="22" width="22" version="1.0" xmlns:cc="http://creativecommons.org/ns#" xmlns:dc="http://purl.org/dc/elements/1.1/">
 <metadata id="metadata8">
  <rdf:RDF>
   <cc:Work rdf:about="">
    <dc:format>image/svg+xml</dc:format>
    <dc:type rdf:resource="http://purl.org/dc/dcmitype/StillImage"/>
    <dc:title/>
   </cc:Work>
  </rdf:RDF>
 </metadata>
 <path id="rect3193-5" style="opacity:.3;fill-rule:evenodd" d="m12.497 5c-1.6895 1e-7 -3.1368 1.0625-3.9063 2.5938-0.43327-0.36041-0.98655-0.59375-1.5938-0.59375-1.38 1e-7 -2.5 1.12-2.5 2.5 0 0.30993 0.05301 0.60104 0.15625 0.875-1.5695 0.70128-2.6562 2.289-2.6562 4.125 0 2.493 2.007 4.5 4.5 4.5h9c2.493 0 4.5-2.007 4.5-4.5 0-1.9747-1.2687-3.641-3.0312-4.25 0.0039-0.08543 0.03125-0.1635 0.03125-0.25 0-2.76-2.016-5-4.5-5z"/>
 <path id="rect3193" style="fill-rule:evenodd;fill:#dfdbd2" d="m12.497 4c-1.689 0-3.1364 1.0625-3.9059 2.5938-0.4332-0.3605-0.9865-0.5938-1.5937-0.5938-1.38 0-2.5 1.12-2.5 2.5 0 0.3099 0.053 0.601 0.1562 0.875-1.5695 0.701-2.6562 2.289-2.6562 4.125 0 2.493 2.007 4.5 4.5 4.5h8.9996c2.493 0 4.5-2.007 4.5-4.5 0-1.975-1.268-3.641-3.031-4.25 0.004-0.0854 0.031-0.1635 0.031-0.25 0-2.76-2.016-5-4.5-5z"/>
</svg>
