<?xml version="1.0" encoding="UTF-8" standalone="no"?>
<!-- Created with Inkscape (http://www.inkscape.org/) -->
<svg id="svg3211" xmlns:rdf="http://www.w3.org/1999/02/22-rdf-syntax-ns#" xmlns="http://www.w3.org/2000/svg" height="16" width="16" version="1.0" xmlns:cc="http://creativecommons.org/ns#" xmlns:dc="http://purl.org/dc/elements/1.1/">
 <metadata id="metadata14">
  <rdf:RDF>
   <cc:Work rdf:about="">
    <dc:format>image/svg+xml</dc:format>
    <dc:type rdf:resource="http://purl.org/dc/dcmitype/StillImage"/>
    <dc:title/>
   </cc:Work>
  </rdf:RDF>
 </metadata>
 <path id="path3224" style="opacity:.3;fill-rule:evenodd" d="m8 2v2c-3.312 0-6 2.688-6 6s2.688 6 6 6 6-2.688 6-6h-2c0 2.208-1.792 4-4 4s-4-1.792-4-4 1.792-4 4-4v2l5-3-5-3z"/>
 <path id="path4199" style="fill:#df382c;fill-rule:evenodd" d="m8 1v2c-3.312 0-6 2.688-6 6s2.688 6 6 6 6-2.688 6-6h-2c0 2.208-1.792 4-4 4s-4-1.792-4-4 1.792-4 4-4v2l5-3-5-3z"/>
</svg>
