<?xml version="1.0" encoding="UTF-8" standalone="no"?>
<!-- Created with Inkscape (http://www.inkscape.org/) -->
<svg id="svg3215" xmlns:rdf="http://www.w3.org/1999/02/22-rdf-syntax-ns#" xmlns="http://www.w3.org/2000/svg" height="22" width="22" version="1.0" xmlns:cc="http://creativecommons.org/ns#" xmlns:dc="http://purl.org/dc/elements/1.1/">
 <metadata id="metadata12">
  <rdf:RDF>
   <cc:Work rdf:about="">
    <dc:format>image/svg+xml</dc:format>
    <dc:type rdf:resource="http://purl.org/dc/dcmitype/StillImage"/>
    <dc:title/>
   </cc:Work>
  </rdf:RDF>
 </metadata>
 <path id="rect2406-8" style="opacity:.3;fill-rule:evenodd;fill:#fff" d="m7.5 4c-0.831 0-1.5 0.669-1.5 1.5v13c0 0.831 0.669 1.5 1.5 1.5h8c0.831 0 1.5-0.669 1.5-1.5v-13c0-0.831-0.669-1.5-1.5-1.5h-8zm4 2c1.933 0 3.5 1.5671 3.5 3.5 0 1.933-1.567 3.5-3.5 3.5-1.9334 0-3.5005-1.567-3.5-3.5-0.0005-1.9329 1.5666-3.5 3.5-3.5zm0 2c-0.828 0-1.5 0.6716-1.5 1.5 0 0.828 0.672 1.5 1.5 1.5s1.5-0.672 1.5-1.5c0-0.8284-0.672-1.5-1.5-1.5zm-2.5 8c0.55243 0 1.0002 0.44778 1 1 0.000202 0.55222-0.44757 1-1 1s-1.0002-0.44778-1-1c-0.0002019-0.55222 0.44757-1 1-1zm5 0c0.55243 0 1.0002 0.44778 1 1 0.000202 0.55222-0.44757 1-1 1s-1.0002-0.44778-1-1c-0.000202-0.55222 0.44757-1 1-1z"/>
 <path id="rect2406" style="fill-rule:evenodd;fill:#3c3c3c" d="m7.5 3c-0.831 0-1.5 0.669-1.5 1.5v13c0 0.831 0.669 1.5 1.5 1.5h8c0.831 0 1.5-0.669 1.5-1.5v-13c0-0.831-0.669-1.5-1.5-1.5h-8zm4 2c1.933 0 3.5 1.5671 3.5 3.5 0 1.933-1.567 3.5-3.5 3.5-1.9334 0-3.5005-1.567-3.5-3.5-0.0005-1.9329 1.5666-3.5 3.5-3.5zm0 2c-0.828 0-1.5 0.6716-1.5 1.5s0.672 1.5 1.5 1.5 1.5-0.6716 1.5-1.5-0.672-1.5-1.5-1.5zm-2.5 8c0.55243 0 1.0002 0.44778 1 1 0.000202 0.55222-0.44757 1-1 1s-1.0002-0.44778-1-1c-0.0002019-0.55222 0.44757-1 1-1zm5 0c0.55243 0 1.0002 0.44778 1 1 0.000202 0.55222-0.44757 1-1 1s-1.0002-0.44778-1-1c-0.000202-0.55222 0.44757-1 1-1z"/>
 <path id="path3201" style="opacity:.3;stroke-width:.5;stroke:#fff;stroke-linecap:round;fill:none" d="m14.75 8.5c0 1.7949-1.4551 3.25-3.25 3.25s-3.25-1.4551-3.25-3.25 1.4551-3.25 3.25-3.25 3.25 1.4551 3.25 3.25z"/>
</svg>
