<?xml version="1.0" encoding="UTF-8" standalone="no"?>
<!-- Created with Inkscape (http://www.inkscape.org/) -->
<svg id="svg7384" xmlns:rdf="http://www.w3.org/1999/02/22-rdf-syntax-ns#" xmlns="http://www.w3.org/2000/svg" height="16" width="16" version="1.1" xmlns:cc="http://creativecommons.org/ns#" xmlns:dc="http://purl.org/dc/elements/1.1/">
 <metadata id="metadata90">
  <rdf:RDF>
   <cc:Work rdf:about="">
    <dc:format>image/svg+xml</dc:format>
    <dc:type rdf:resource="http://purl.org/dc/dcmitype/StillImage"/>
    <dc:title>Gnome Symbolic Icon Theme</dc:title>
   </cc:Work>
  </rdf:RDF>
 </metadata>
 <title id="title9167">Gnome Symbolic Icon Theme</title>
 <g id="layer13" transform="translate(-462,-176)">
  <g id="g14176" transform="translate(234 -820)">
   <path id="rect3861" style="fill:#bebebe" d="m228.53 996c-0.28913 0-0.53125 0.24212-0.53125 0.53125v10.938c0 0.2985 0.23264 0.5312 0.53125 0.5312h5.4688v2h-5.5312c-0.26299 0-0.46875 0.2057-0.46875 0.4688v1.0624c0 0.263 0.20576 0.4688 0.46875 0.4688h13.062c0.26299 0 0.46875-0.2058 0.46875-0.4688v-1.0624c0-0.263-0.20575-0.4688-0.46875-0.4688h-5.5312v-2h5.4688c0.2986 0 0.53125-0.2326 0.53125-0.5312v-5.9376c0-0.2891-0.24212-0.5312-0.53125-0.5312h-10.469v4.5c0 0.277-0.223 0.5-0.5 0.5s-0.5-0.223-0.5-0.5v-5c0-0.277 0.223-0.5 0.5-0.5h2.9688 6.5312v-1.4062c0-0.32713-0.26666-0.59375-0.59375-0.59375h-6.375v-1.4688c-0.01-0.39-0.25-0.63-0.54-0.63z"/>
  </g>
 </g>
</svg>
