<?xml version="1.0" encoding="UTF-8" standalone="no"?>
<!-- Created with Inkscape (http://www.inkscape.org/) -->

<svg
   xmlns:dc="http://purl.org/dc/elements/1.1/"
   xmlns:cc="http://creativecommons.org/ns#"
   xmlns:rdf="http://www.w3.org/1999/02/22-rdf-syntax-ns#"
   xmlns:svg="http://www.w3.org/2000/svg"
   xmlns="http://www.w3.org/2000/svg"
   xmlns:xlink="http://www.w3.org/1999/xlink"
   xmlns:sodipodi="http://sodipodi.sourceforge.net/DTD/sodipodi-0.dtd"
   xmlns:inkscape="http://www.inkscape.org/namespaces/inkscape"
   width="48"
   height="48"
   id="svg2"
   version="1.1"
   inkscape:version="0.48.4 r9939"
   sodipodi:docname="input-keyboard (copy).svg">
  <defs
     id="defs4">
    <linearGradient
       id="linearGradient3774">
      <stop
         style="stop-color:#42a5f5;stop-opacity:1;"
         offset="0"
         id="stop3776" />
      <stop
         style="stop-color:#42b0f5;stop-opacity:1;"
         offset="1"
         id="stop3778" />
    </linearGradient>
    <linearGradient
       inkscape:collect="always"
       xlink:href="#linearGradient3774"
       id="linearGradient3780"
       x1="24"
       y1="1050.3622"
       x2="24"
       y2="1006.3622"
       gradientUnits="userSpaceOnUse" />
  </defs>
  <sodipodi:namedview
     id="base"
     pagecolor="#ffffff"
     bordercolor="#666666"
     borderopacity="1.0"
     inkscape:pageopacity="0.0"
     inkscape:pageshadow="2"
     inkscape:zoom="11.583333"
     inkscape:cx="24.039412"
     inkscape:cy="27.330989"
     inkscape:document-units="px"
     inkscape:current-layer="layer1"
     showgrid="true"
     inkscape:snap-bbox="true"
     inkscape:window-width="1301"
     inkscape:window-height="744"
     inkscape:window-x="65"
     inkscape:window-y="24"
     inkscape:window-maximized="1">
    <inkscape:grid
       type="xygrid"
       id="grid2985"
       empspacing="6"
       visible="true"
       enabled="true"
       snapvisiblegridlinesonly="true" />
  </sodipodi:namedview>
  <metadata
     id="metadata7">
    <rdf:RDF>
      <cc:Work
         rdf:about="">
        <dc:format>image/svg+xml</dc:format>
        <dc:type
           rdf:resource="http://purl.org/dc/dcmitype/StillImage" />
        <dc:title />
      </cc:Work>
    </rdf:RDF>
  </metadata>
  <g
     inkscape:label="Layer 1"
     inkscape:groupmode="layer"
     id="layer1"
     transform="translate(0,-1004.3622)">
    <path
       id="path3788"
       d="m 24,1051.1116 c -21.2715315,0 -23.66257505,-0.089 -23.9375,-15.4063 0.328125,14.4033 2.9375,14.4063 23.9375,14.4063 21,0 23.609375,0 23.9375,-14.4063 -0.274925,15.3174 -2.665968,15.4063 -23.9375,15.4063 z"
       style="opacity:0.20000000000000001;fill:#000000;fill-opacity:1;stroke:none"
       inkscape:connector-curvature="0" />
    <path
       style="fill:url(#linearGradient3780);fill-opacity:1;stroke:none"
       d="m 24,1006.3622 c -24,0 -24,0 -24,22 0,22 0,22 24,22 24,0 24,0 24,-22 0,-22 0,-22 -24,-22 z"
       id="path3757"
       inkscape:connector-curvature="0"
       sodipodi:nodetypes="zzzzz" />
    <path
       style="fill:#ffffff;fill-opacity:1;stroke:none;opacity:0.2"
       d="M 24 2 C 2.7284685 2 0.33742495 2.0888436 0.0625 17.40625 C 0.390625 3.0029297 3 3 24 3 C 45 3 47.609375 3.0029297 47.9375 17.40625 C 47.662575 2.0888436 45.271532 2 24 2 z "
       transform="translate(0,1004.3622)"
       id="path3770" />
    <g
       id="g3813"
       transform="translate(-47.998,993.3622)" />
    <path
       id="path3793"
       d="m 15.59375,1012.3622 c -1.506428,0 -2.839888,0.3363 -4,1 -1.154349,0.658 -2.027134,1.5529 -2.65625,2.7188 -0.6233479,1.1601 -0.9375009,2.4806 -0.9375,3.9062 -9e-7,2.0547 0.588892,3.6582 1.8125,4.8125 1.229374,1.1543 2.962987,1.7187 5.15625,1.7188 1.506412,-10e-5 2.858589,-0.2561 4.09375,-0.7813 l 0,-1.6562 c -0.709934,0.2597 -1.423251,0.4552 -2.15625,0.5937 -0.733019,0.1328 -1.419455,0.1875 -2.03125,0.1875 -1.61609,0 -2.833289,-0.4328 -3.6875,-1.2812 -0.848447,-0.8543 -1.2812528,-2.0633 -1.28125,-3.6563 -2.8e-6,-1.1832 0.23153,-2.2246 0.6875,-3.125 0.461734,-0.9062 1.108758,-1.6147 1.96875,-2.0937 0.859981,-0.4791 1.896603,-0.7188 3.0625,-0.7188 0.90038,0 1.676611,0.1873 2.375,0.5625 0.704139,0.3752 1.269532,0.9406 1.65625,1.6563 0.386693,0.7099 0.562487,1.5082 0.5625,2.4375 -1.3e-5,0.8715 -0.09319,1.5824 -0.3125,2.125 -0.219338,0.5367 -0.505622,0.8125 -0.875,0.8125 -0.438663,0 -0.687511,-0.3853 -0.6875,-1.1875 l 0.21875,-4.25 c -0.386717,-0.1328 -0.899751,-0.2514 -1.5,-0.3438 -0.594497,-0.098 -1.12864,-0.125 -1.625,-0.125 -1.246701,0 -2.257844,0.3492 -3.03125,1.0938 -0.773416,0.7445 -1.156254,1.7196 -1.15625,2.9375 -4e-6,1.0677 0.286279,1.9136 0.875,2.5312 0.588711,0.6118 1.415898,0.9375 2.4375,0.9375 0.96387,0 1.751644,-0.3804 2.375,-1.125 l 0.125,0 c 0.144283,0.3348 0.389751,0.6047 0.71875,0.8125 0.328978,0.202 0.697881,0.3125 1.125,0.3125 0.640649,0 1.202662,-0.2013 1.6875,-0.5937 0.484811,-0.3925 0.859486,-0.9382 1.125,-1.625 0.265485,-0.6927 0.406235,-1.4502 0.40625,-2.2813 -1.5e-5,-1.2525 -0.269972,-2.3544 -0.8125,-3.3125 -0.542556,-0.9581 -1.314004,-1.6993 -2.3125,-2.2187 -0.99852,-0.5195 -2.136479,-0.7813 -3.40625,-0.7813 z m -0.0625,4.875 c 0.369382,0 0.705633,0.03 1,0.094 l -0.09375,1.9062 c -0.05773,0.8254 -0.228738,1.4431 -0.5,1.8125 -0.27128,0.3636 -0.668053,0.5313 -1.1875,0.5313 -0.992744,0 -1.500006,-0.5947 -1.5,-1.8125 -6e-6,-0.7792 0.195494,-1.3936 0.59375,-1.8438 0.404014,-0.4502 0.966026,-0.6875 1.6875,-0.6875 z m -0.34375,13.5625 c -0.600264,0 -1.140179,0.035 -1.625,0.1563 -0.484828,0.1154 -0.93396,0.2806 -1.34375,0.5 -0.409795,0.2193 -0.939155,0.594 -1.5625,1.125 l 1.46875,1.75 c 0.502138,-0.4156 0.975759,-0.7437 1.4375,-0.9688 0.461734,-0.2251 0.946899,-0.3437 1.4375,-0.3437 0.467505,0 0.847951,0.1268 1.125,0.375 0.282808,0.2481 0.406243,0.617 0.40625,1.125 -7e-6,0.3405 -0.06053,0.6825 -0.1875,1 -0.126984,0.3174 -0.33642,0.656 -0.625,1.0312 -0.288592,0.3694 -0.902963,1.0361 -1.84375,2 l -3.15625,3.2188 0,1.8437 8.84375,0 0,-2.25 -5.53125,0 0,-0.125 1.625,-1.5312 c 1.085078,-0.9928 1.854135,-1.7445 2.28125,-2.2813 0.432871,-0.5368 0.735481,-1.0546 0.9375,-1.5625 0.207773,-0.5137 0.312491,-1.0733 0.3125,-1.6562 -9e-6,-0.6696 -0.165249,-1.2618 -0.5,-1.7813 -0.334769,-0.5194 -0.800226,-0.9302 -1.40625,-1.2187 -0.606038,-0.2886 -1.303029,-0.4063 -2.09375,-0.4063 z"
       style="font-size:17.73075104000000124px;font-style:normal;font-weight:normal;text-align:center;line-height:103.99999619000000450%;letter-spacing:0px;word-spacing:0px;text-anchor:middle;fill:#000000;fill-opacity:1;stroke:none;font-family:Sans;opacity:0.1"
       inkscape:connector-curvature="0" />
    <path
       style="font-size:17.73075104000000124px;font-style:normal;font-weight:normal;text-align:center;line-height:103.99999619000000450%;letter-spacing:0px;word-spacing:0px;text-anchor:middle;fill:#ffffff;fill-opacity:1;stroke:none;font-family:Sans"
       d="M 14.46875 7 C 12.962322 7.0000128 11.628862 7.3362637 10.46875 8 C 9.3144009 8.6579883 8.441616 9.552871 7.8125 10.71875 C 7.1891521 11.878875 6.8749991 13.19939 6.875 14.625 C 6.8749991 16.679739 7.463892 18.283156 8.6875 19.4375 C 9.9168743 20.591845 11.650487 21.156249 13.84375 21.15625 C 15.350162 21.156249 16.702339 20.900226 17.9375 20.375 L 17.9375 18.71875 C 17.227566 18.978479 16.514249 19.173979 15.78125 19.3125 C 15.048231 19.44525 14.361795 19.5 13.75 19.5 C 12.13391 19.5 10.916711 19.067195 10.0625 18.21875 C 9.2140526 17.364537 8.7812472 16.155501 8.78125 14.5625 C 8.7812472 13.379302 9.0127804 12.337897 9.46875 11.4375 C 9.9304844 10.531348 10.577508 9.8228135 11.4375 9.34375 C 12.297481 8.8647075 13.334103 8.6250112 14.5 8.625 C 15.40038 8.6250112 16.176611 8.8123486 16.875 9.1875 C 17.579139 9.5626726 18.144532 10.128065 18.53125 10.84375 C 18.917943 11.553681 19.093737 12.352009 19.09375 13.28125 C 19.093737 14.152787 19.000563 14.863712 18.78125 15.40625 C 18.561912 15.943025 18.275628 16.218754 17.90625 16.21875 C 17.467587 16.218754 17.218739 15.833524 17.21875 15.03125 L 17.4375 10.78125 C 17.050783 10.648509 16.537749 10.529857 15.9375 10.4375 C 15.343003 10.33939 14.80886 10.31251 14.3125 10.3125 C 13.065799 10.31251 12.054656 10.661706 11.28125 11.40625 C 10.507834 12.150811 10.124996 13.125922 10.125 14.34375 C 10.124996 15.411524 10.411279 16.257429 11 16.875 C 11.588711 17.486806 12.415898 17.812502 13.4375 17.8125 C 14.40137 17.812502 15.189144 17.432055 15.8125 16.6875 L 15.9375 16.6875 C 16.081783 17.022263 16.327251 17.29222 16.65625 17.5 C 16.985228 17.702013 17.354131 17.812502 17.78125 17.8125 C 18.421899 17.812502 18.983912 17.61123 19.46875 17.21875 C 19.953561 16.826275 20.328236 16.280589 20.59375 15.59375 C 20.859235 14.901147 20.999985 14.143635 21 13.3125 C 20.999985 12.060043 20.730028 10.958116 20.1875 10 C 19.644944 9.0419038 18.873496 8.3007171 17.875 7.78125 C 16.87648 7.261807 15.738521 7.0000128 14.46875 7 z M 14.40625 11.875 C 14.775632 11.875008 15.111883 11.905269 15.40625 11.96875 L 15.3125 13.875 C 15.254773 14.700362 15.083762 15.318114 14.8125 15.6875 C 14.54122 16.051123 14.144447 16.218754 13.625 16.21875 C 12.632256 16.218754 12.124994 15.624089 12.125 14.40625 C 12.124994 13.627073 12.320494 13.012702 12.71875 12.5625 C 13.122764 12.112313 13.684776 11.875008 14.40625 11.875 z M 14.0625 25.4375 C 13.462236 25.437513 12.922321 25.472556 12.4375 25.59375 C 11.952672 25.709197 11.50354 25.874437 11.09375 26.09375 C 10.683955 26.313088 10.154595 26.687763 9.53125 27.21875 L 11 28.96875 C 11.502138 28.553195 11.975759 28.225107 12.4375 28 C 12.899234 27.774913 13.384399 27.656261 13.875 27.65625 C 14.342505 27.656261 14.722951 27.783076 15 28.03125 C 15.282808 28.279444 15.406243 28.648347 15.40625 29.15625 C 15.406243 29.496791 15.345722 29.838813 15.21875 30.15625 C 15.091766 30.473703 14.88233 30.812345 14.59375 31.1875 C 14.305158 31.556897 13.690787 32.223627 12.75 33.1875 L 9.59375 36.40625 L 9.59375 38.25 L 18.4375 38.25 L 18.4375 36 L 12.90625 36 L 12.90625 35.875 L 14.53125 34.34375 C 15.616328 33.351018 16.385385 32.599276 16.8125 32.0625 C 17.245371 31.525736 17.547981 31.007919 17.75 30.5 C 17.957773 29.986324 18.062491 29.426703 18.0625 28.84375 C 18.062491 28.17424 17.897251 27.581966 17.5625 27.0625 C 17.227731 26.543056 16.762274 26.132349 16.15625 25.84375 C 15.550212 25.555176 14.853221 25.437513 14.0625 25.4375 z "
       transform="translate(0,1004.3622)"
       id="text3786" />
    <path
       sodipodi:nodetypes="cccccc"
       inkscape:connector-curvature="0"
       id="path3784"
       d="m 28,1022.3294 13.517757,11.9018 -5.793325,5.9508 0,-21.8198 5.793325,5.951 L 28,1036.2147"
       style="fill:none;stroke:#000000;stroke-width:1.99999988000000006;stroke-linecap:butt;stroke-linejoin:round;stroke-miterlimit:4;stroke-opacity:1;stroke-dasharray:none;opacity:0.1" />
    <path
       style="fill:none;stroke:#212121;stroke-width:1.99999988000000006;stroke-linecap:butt;stroke-linejoin:round;stroke-miterlimit:4;stroke-opacity:1;stroke-dasharray:none"
       d="m 26.785146,1021.3294 13.517757,11.9018 -5.793325,5.9508 0,-21.8198 5.793325,5.951 -13.517757,11.9015"
       id="path3785"
       inkscape:connector-curvature="0"
       sodipodi:nodetypes="cccccc" />
  </g>
</svg>
