<?xml version="1.0" encoding="UTF-8" standalone="no"?>
<!-- Created with Inkscape (http://www.inkscape.org/) -->

<svg
   xmlns:dc="http://purl.org/dc/elements/1.1/"
   xmlns:cc="http://creativecommons.org/ns#"
   xmlns:rdf="http://www.w3.org/1999/02/22-rdf-syntax-ns#"
   xmlns:svg="http://www.w3.org/2000/svg"
   xmlns="http://www.w3.org/2000/svg"
   xmlns:sodipodi="http://sodipodi.sourceforge.net/DTD/sodipodi-0.dtd"
   xmlns:inkscape="http://www.inkscape.org/namespaces/inkscape"
   width="48"
   height="48"
   id="svg2"
   version="1.1"
   inkscape:version="0.48.4 r9939"
   sodipodi:docname="computer.svg">
  <defs
     id="defs4" />
  <sodipodi:namedview
     id="base"
     pagecolor="#ffffff"
     bordercolor="#666666"
     borderopacity="1.0"
     inkscape:pageopacity="0.0"
     inkscape:pageshadow="2"
     inkscape:zoom="11.583333"
     inkscape:cx="15.288768"
     inkscape:cy="22.984546"
     inkscape:document-units="px"
     inkscape:current-layer="layer1"
     showgrid="true"
     inkscape:snap-bbox="true"
     inkscape:window-width="1301"
     inkscape:window-height="744"
     inkscape:window-x="65"
     inkscape:window-y="24"
     inkscape:window-maximized="1"
     inkscape:object-nodes="true"
     inkscape:object-paths="true"
     inkscape:snap-nodes="true"
     inkscape:snap-global="true">
    <inkscape:grid
       type="xygrid"
       id="grid3003"
       empspacing="6"
       visible="true"
       enabled="true"
       snapvisiblegridlinesonly="true" />
  </sodipodi:namedview>
  <metadata
     id="metadata7">
    <rdf:RDF>
      <cc:Work
         rdf:about="">
        <dc:format>image/svg+xml</dc:format>
        <dc:type
           rdf:resource="http://purl.org/dc/dcmitype/StillImage" />
        <dc:title />
      </cc:Work>
    </rdf:RDF>
  </metadata>
  <g
     inkscape:label="Layer 1"
     inkscape:groupmode="layer"
     id="layer1"
     transform="translate(0,-1004.3622)">
    <rect
       y="1008.3622"
       x="3"
       height="39.999966"
       width="12"
       id="rect2995"
       style="fill:#424242;fill-opacity:1;stroke:none" />
    <g
       id="g3813"
       transform="translate(-47.998,993.3622)" />
    <path
       style="fill:#212121;fill-opacity:1;stroke:none"
       d="m 15,1008.3622 0,2 0,38 30,0 0,-40 z"
       id="rect2993"
       inkscape:connector-curvature="0"
       sodipodi:nodetypes="cccccc" />
    <rect
       style="fill:#000000;fill-opacity:1;stroke:none"
       id="rect2997"
       width="1"
       height="21"
       x="6"
       y="1013.3622" />
    <rect
       style="fill:#000000;fill-opacity:1;stroke:none"
       id="rect2999"
       width="7"
       height="1"
       x="7"
       y="1037.3622" />
    <rect
       y="1040.3622"
       x="4"
       height="1"
       width="10"
       id="rect3001"
       style="fill:#000000;fill-opacity:1;stroke:none" />
    <rect
       style="fill:#000000;fill-opacity:1;stroke:none"
       id="rect3003"
       width="2"
       height="1"
       x="4"
       y="1043.3622" />
    <rect
       y="1043.3622"
       x="7"
       height="1"
       width="3"
       id="rect3005"
       style="fill:#000000;fill-opacity:1;stroke:none" />
    <rect
       style="fill:#000000;fill-opacity:1;stroke:none"
       id="rect3007"
       width="3"
       height="1"
       x="11"
       y="1043.3622" />
    <rect
       y="1037.3622"
       x="-7"
       height="1"
       width="1"
       id="rect3011"
       style="fill:#2196f3;fill-opacity:1;stroke:none"
       transform="scale(-1,1)" />
    <rect
       transform="scale(-1,1)"
       style="fill:#1976d2;fill-opacity:1;stroke:none"
       id="rect3013"
       width="1"
       height="1"
       x="-6"
       y="1037.3622" />
    <rect
       y="1037.3622"
       x="-5"
       height="1"
       width="1"
       id="rect3015"
       style="fill:#0d47a1;fill-opacity:1;stroke:none"
       transform="scale(-1,1)" />
    <rect
       style="fill:#000000;fill-opacity:1;stroke:none"
       id="rect3017"
       width="1"
       height="3"
       x="8"
       y="1013.3622" />
    <path
       sodipodi:type="arc"
       style="fill:#000000;fill-opacity:1;stroke:none"
       id="path3019"
       sodipodi:cx="11"
       sodipodi:cy="24"
       sodipodi:rx="2"
       sodipodi:ry="2"
       d="m 13,24 c 0,1.104569 -0.895431,2 -2,2 -1.1045695,0 -2,-0.895431 -2,-2 0,-1.104569 0.8954305,-2 2,-2 1.104569,0 2,0.895431 2,2 z"
       transform="translate(1,1008.3622)" />
    <path
       transform="matrix(0.5,0,0,0.5,6.5,1020.3622)"
       d="m 13,24 c 0,1.104569 -0.895431,2 -2,2 -1.1045695,0 -2,-0.895431 -2,-2 0,-1.104569 0.8954305,-2 2,-2 1.104569,0 2,0.895431 2,2 z"
       sodipodi:ry="2"
       sodipodi:rx="2"
       sodipodi:cy="24"
       sodipodi:cx="11"
       id="path3021"
       style="fill:#0d47a1;fill-opacity:1;stroke:none"
       sodipodi:type="arc" />
    <rect
       y="1013.3622"
       x="5"
       height="21"
       width="1"
       id="rect3023"
       style="fill:#212121;fill-opacity:1;stroke:none" />
    <rect
       style="fill:#0277bd;fill-opacity:1;stroke:none"
       id="rect3029"
       width="1"
       height="1.0000174"
       x="4"
       y="1045.3622" />
    <rect
       y="1046.3622"
       x="5"
       height="0.9999826"
       width="1"
       id="rect3031"
       style="fill:#03a9f4;fill-opacity:1;stroke:none" />
    <rect
       style="fill:#ef6c00;fill-opacity:1;stroke:none"
       id="rect3033"
       width="1"
       height="1.0000174"
       x="5"
       y="1045.3622" />
    <rect
       y="1046.3622"
       x="4"
       height="1.0000174"
       width="1"
       id="rect3035"
       style="fill:#039be5;fill-opacity:1;stroke:none" />
    <path
       style="fill:#000000;fill-opacity:1;stroke:none;opacity:0.1"
       d="M 2 3 L 2 4 L 2 45 L 3 45 L 45 45 L 46 45 L 46 44 L 46 4 L 46 3 L 3 3 L 2 3 z M 3 4 L 45 4 L 45 44 L 3 44 L 3 4 z "
       transform="translate(0,1004.3622)"
       id="rect3004" />
  </g>
</svg>
