<?xml version="1.0" encoding="UTF-8" standalone="no"?>
<!-- Created with Inkscape (http://www.inkscape.org/) -->

<svg
   xmlns:dc="http://purl.org/dc/elements/1.1/"
   xmlns:cc="http://creativecommons.org/ns#"
   xmlns:rdf="http://www.w3.org/1999/02/22-rdf-syntax-ns#"
   xmlns:svg="http://www.w3.org/2000/svg"
   xmlns="http://www.w3.org/2000/svg"
   xmlns:xlink="http://www.w3.org/1999/xlink"
   xmlns:sodipodi="http://sodipodi.sourceforge.net/DTD/sodipodi-0.dtd"
   xmlns:inkscape="http://www.inkscape.org/namespaces/inkscape"
   width="48"
   height="48"
   id="svg2"
   version="1.1"
   inkscape:version="0.48.4 r9939"
   sodipodi:docname="display.svg">
  <defs
     id="defs4">
    <linearGradient
       id="linearGradient3775">
      <stop
         style="stop-color:#e0e0e0;stop-opacity:1;"
         offset="0"
         id="stop3777" />
      <stop
         style="stop-color:#f7f7f7;stop-opacity:1;"
         offset="1"
         id="stop3779" />
    </linearGradient>
    <linearGradient
       inkscape:collect="always"
       xlink:href="#linearGradient3775"
       id="linearGradient3781"
       x1="24"
       y1="1050.3622"
       x2="24"
       y2="1006.3622"
       gradientUnits="userSpaceOnUse" />
  </defs>
  <sodipodi:namedview
     id="base"
     pagecolor="#ffffff"
     bordercolor="#666666"
     borderopacity="1.0"
     inkscape:pageopacity="0.0"
     inkscape:pageshadow="2"
     inkscape:zoom="8.1906533"
     inkscape:cx="0.36782753"
     inkscape:cy="18.912393"
     inkscape:document-units="px"
     inkscape:current-layer="layer1"
     showgrid="true"
     inkscape:snap-bbox="true"
     inkscape:window-width="1301"
     inkscape:window-height="744"
     inkscape:window-x="65"
     inkscape:window-y="24"
     inkscape:window-maximized="1"
     inkscape:object-nodes="true"
     inkscape:object-paths="true"
     inkscape:snap-nodes="true"
     inkscape:snap-global="true">
    <inkscape:grid
       type="xygrid"
       id="grid3003"
       empspacing="6"
       visible="true"
       enabled="true"
       snapvisiblegridlinesonly="true" />
  </sodipodi:namedview>
  <metadata
     id="metadata7">
    <rdf:RDF>
      <cc:Work
         rdf:about="">
        <dc:format>image/svg+xml</dc:format>
        <dc:type
           rdf:resource="http://purl.org/dc/dcmitype/StillImage" />
        <dc:title />
      </cc:Work>
    </rdf:RDF>
  </metadata>
  <g
     inkscape:label="Layer 1"
     inkscape:groupmode="layer"
     id="layer1"
     transform="translate(0,-1004.3622)">
    <path
       id="path3788"
       d="m 24,1051.1116 c -21.2715315,0 -23.66257505,-0.089 -23.9375,-15.4063 0.328125,14.4033 2.9375,14.4063 23.9375,14.4063 21,0 23.609375,0 23.9375,-14.4063 -0.274925,15.3174 -2.665968,15.4063 -23.9375,15.4063 z"
       style="opacity:0.20000000000000001;fill:#ffffff;fill-opacity:1;stroke:none"
       inkscape:connector-curvature="0" />
    <path
       sodipodi:nodetypes="zzzzz"
       inkscape:connector-curvature="0"
       id="path3014"
       d="m 24,1006.3622 c -24,0 -24,0 -24,22 0,22 0,22 24,22 24,0 24,0 24,-22 0,-22 0,-22 -24,-22 z"
       style="opacity:1;fill:url(#linearGradient3781);fill-opacity:1;stroke:none" />
    <path
       style="fill:#000000;fill-opacity:1;stroke:none;opacity:0.20000000000000001"
       d="M 24 2 C 2.7284685 2 0.33742495 2.0888436 0.0625 17.40625 C 0.390625 3.0029297 3 3 24 3 C 45 3 47.609375 3.0029297 47.9375 17.40625 C 47.662575 2.0888436 45.271532 2 24 2 z "
       transform="translate(0,1004.3622)"
       id="path3770" />
    <g
       id="g3813"
       transform="translate(-47.998,993.3622)" />
    <path
       style="fill:#000000;fill-opacity:1;stroke:none;opacity:0.20000000000000001"
       d="M 24 2 C 7.2632607 2 2.2444532 2.0779723 0.71875 9.5625 C 2.3300781 2.491725 7.5 2.46875 24 2.46875 C 40.5 2.46875 45.669922 2.491725 47.28125 9.5625 C 45.755547 2.0779723 40.73674 2 24 2 z M 47.28125 9.5625 C 47.354492 9.8838989 47.409424 10.211219 47.46875 10.5625 C 47.415075 10.208513 47.347564 9.8878107 47.28125 9.5625 z M 0.71875 9.5625 C 0.65243619 9.8878107 0.58492494 10.208513 0.53125 10.5625 C 0.59057617 10.211219 0.64550781 9.8838989 0.71875 9.5625 z "
       transform="translate(0,1004.3622)"
       id="path3007" />
    <path
       style="fill:#212121;fill-opacity:1;stroke:none"
       d="m 6,1013.3622 0,28 36,0 0,-28 -36,0 z m 2,2 32,0 0,22 -32,0 0,-22 z"
       id="rect3783"
       inkscape:connector-curvature="0" />
    <rect
       style="fill:#4db6ac;fill-opacity:1;stroke:none"
       id="rect3788"
       width="32"
       height="22"
       x="8"
       y="1015.3622" />
    <path
       style="fill:#212121;fill-opacity:0.67741939;stroke:none"
       d="m 11.5,1032.3622 -2.5,4 30,0 -2.5,-4 z"
       id="rect3820"
       inkscape:connector-curvature="0"
       sodipodi:nodetypes="ccccc" />
    <rect
       style="fill:#ff5252;fill-opacity:1;stroke:none"
       id="rect3823"
       width="4"
       height="4"
       x="13"
       y="1030.3622" />
    <rect
       y="1030.3622"
       x="19"
       height="4"
       width="4"
       id="rect3825"
       style="fill:#ffb74d;fill-opacity:1;stroke:none" />
    <rect
       style="fill:#b2ff59;fill-opacity:1;stroke:none"
       id="rect3827"
       width="4"
       height="4"
       x="25"
       y="1030.3622" />
    <rect
       y="1030.3622"
       x="31"
       height="4"
       width="4"
       id="rect3829"
       style="fill:#80d8ff;fill-opacity:1;stroke:none" />
    <rect
       style="fill:#212121;fill-opacity:1;stroke:none"
       id="rect3790"
       width="40"
       height="2"
       x="4"
       y="1043.3622" />
    <path
       style="fill:#828282;fill-opacity:1;stroke:none"
       d="m 6,37 -2,2 40,0 -2,-2 z"
       transform="translate(0,1004.3622)"
       id="rect3798"
       inkscape:connector-curvature="0"
       sodipodi:nodetypes="ccccc" />
  </g>
</svg>
