<?xml version="1.0" encoding="UTF-8" standalone="no"?>
<!-- Created with Inkscape (http://www.inkscape.org/) -->

<svg
   xmlns:dc="http://purl.org/dc/elements/1.1/"
   xmlns:cc="http://creativecommons.org/ns#"
   xmlns:rdf="http://www.w3.org/1999/02/22-rdf-syntax-ns#"
   xmlns:svg="http://www.w3.org/2000/svg"
   xmlns="http://www.w3.org/2000/svg"
   xmlns:xlink="http://www.w3.org/1999/xlink"
   xmlns:sodipodi="http://sodipodi.sourceforge.net/DTD/sodipodi-0.dtd"
   xmlns:inkscape="http://www.inkscape.org/namespaces/inkscape"
   width="48"
   height="48"
   id="svg2"
   version="1.1"
   inkscape:version="0.48.4 r9939"
   sodipodi:docname="drive-harddisk-system.svg">
  <defs
     id="defs4">
    <linearGradient
       gradientTransform="matrix(1.1428571,0,0,1.1428571,-6.8571429,949.50504)"
       y2="36"
       x2="36"
       y1="48"
       x1="48"
       spreadMethod="repeat"
       gradientUnits="userSpaceOnUse"
       id="linearGradient3835"
       xlink:href="#linearGradient3825"
       inkscape:collect="always" />
    <linearGradient
       gradientTransform="matrix(1.1428571,0,0,1.1428571,-6.8571429,949.50504)"
       spreadMethod="repeat"
       gradientUnits="userSpaceOnUse"
       y2="36"
       x2="60"
       y1="48"
       x1="48"
       id="linearGradient3831"
       xlink:href="#linearGradient3825"
       inkscape:collect="always" />
    <linearGradient
       id="linearGradient3825">
      <stop
         id="stop3827"
         offset="0"
         style="stop-color:#080e2b;stop-opacity:1;" />
      <stop
         id="stop3829"
         offset="1"
         style="stop-color:#003b6e;stop-opacity:1;" />
    </linearGradient>
    <linearGradient
       inkscape:collect="always"
       xlink:href="#linearGradient3825"
       id="linearGradient3066"
       gradientUnits="userSpaceOnUse"
       gradientTransform="matrix(1.1428571,0,0,1.1428571,-135.95089,976.50506)"
       spreadMethod="repeat"
       x1="48"
       y1="48"
       x2="36"
       y2="36" />
    <linearGradient
       inkscape:collect="always"
       xlink:href="#linearGradient3825"
       id="linearGradient3069"
       gradientUnits="userSpaceOnUse"
       gradientTransform="matrix(1.1428571,0,0,1.1428571,-135.95089,976.50506)"
       spreadMethod="repeat"
       x1="48"
       y1="48"
       x2="60"
       y2="36" />
  </defs>
  <sodipodi:namedview
     id="base"
     pagecolor="#ffffff"
     bordercolor="#666666"
     borderopacity="1.0"
     inkscape:pageopacity="0.0"
     inkscape:pageshadow="2"
     inkscape:zoom="11.583333"
     inkscape:cx="14.468284"
     inkscape:cy="24.409259"
     inkscape:document-units="px"
     inkscape:current-layer="layer1"
     showgrid="true"
     inkscape:snap-bbox="true"
     inkscape:window-width="1301"
     inkscape:window-height="744"
     inkscape:window-x="65"
     inkscape:window-y="24"
     inkscape:window-maximized="1"
     inkscape:object-nodes="true"
     inkscape:object-paths="true"
     inkscape:snap-nodes="false"
     inkscape:snap-global="true">
    <inkscape:grid
       type="xygrid"
       id="grid3003"
       empspacing="6"
       visible="true"
       enabled="true"
       snapvisiblegridlinesonly="true" />
  </sodipodi:namedview>
  <metadata
     id="metadata7">
    <rdf:RDF>
      <cc:Work
         rdf:about="">
        <dc:format>image/svg+xml</dc:format>
        <dc:type
           rdf:resource="http://purl.org/dc/dcmitype/StillImage" />
        <dc:title />
      </cc:Work>
    </rdf:RDF>
  </metadata>
  <g
     inkscape:label="Layer 1"
     inkscape:groupmode="layer"
     id="layer1"
     transform="translate(0,-1004.3622)">
    <path
       style="fill:#000000;fill-opacity:1;stroke:none"
       d="m 3,6 0,36 1,1 40,0 1,-1 L 45,6 44,5 4,5 z m 1,0 40,0 0,29 0,7 -40,0 0,-7 z"
       transform="translate(0,1004.3622)"
       id="rect3008"
       inkscape:connector-curvature="0"
       sodipodi:nodetypes="cccccccccccccccc" />
    <g
       id="g3813"
       transform="translate(-47.998,993.3622)" />
    <rect
       y="4"
       x="-1039.3622"
       height="40.00005"
       width="28.999966"
       id="rect3087"
       style="fill:#cfd8dc;fill-opacity:1;stroke:none"
       transform="matrix(0,-1,1,0,0,0)" />
    <rect
       transform="matrix(0,-1,1,0,0,0)"
       style="fill:#616161;fill-opacity:1;stroke:none"
       id="rect3089"
       width="6.9999628"
       height="40.00005"
       x="-1046.3622"
       y="4" />
    <rect
       style="fill:#212121;fill-opacity:1;stroke:none"
       id="rect3091"
       width="26"
       height="3.9999826"
       x="15"
       y="1042.3622" />
    <rect
       y="1042.3622"
       x="27"
       height="1.9999826"
       width="13"
       id="rect3885"
       style="fill:#000000;fill-opacity:1;stroke:none" />
    <rect
       y="1042.3622"
       x="16"
       height="1.9999826"
       width="9"
       id="rect3887"
       style="fill:#000000;fill-opacity:1;stroke:none" />
    <rect
       style="fill:#f9a825;fill-opacity:1;stroke:none"
       id="rect3865"
       width="1"
       height="1.9999826"
       x="19"
       y="1042.3622" />
    <rect
       style="fill:#f9a825;fill-opacity:1;stroke:none"
       id="rect3867"
       width="1"
       height="1.9999826"
       x="21"
       y="1042.3622" />
    <rect
       style="fill:#f9a825;fill-opacity:1;stroke:none"
       id="rect3869"
       width="1"
       height="1.9999826"
       x="23"
       y="1042.3622" />
    <rect
       style="fill:#f9a825;fill-opacity:1;stroke:none"
       id="rect3871"
       width="1"
       height="1.9999826"
       x="17"
       y="1042.3622" />
    <rect
       y="1042.3622"
       x="30"
       height="1.9999826"
       width="1"
       id="rect3873"
       style="fill:#f9a825;fill-opacity:1;stroke:none" />
    <rect
       y="1042.3622"
       x="32"
       height="1.9999826"
       width="1"
       id="rect3875"
       style="fill:#f9a825;fill-opacity:1;stroke:none" />
    <rect
       y="1042.3622"
       x="28"
       height="1.9999826"
       width="1"
       id="rect3877"
       style="fill:#f9a825;fill-opacity:1;stroke:none" />
    <rect
       style="fill:#f9a825;fill-opacity:1;stroke:none"
       id="rect3879"
       width="1"
       height="1.9999826"
       x="36"
       y="1042.3622" />
    <rect
       style="fill:#f9a825;fill-opacity:1;stroke:none"
       id="rect3881"
       width="1"
       height="1.9999826"
       x="38"
       y="1042.3622" />
    <rect
       style="fill:#f9a825;fill-opacity:1;stroke:none"
       id="rect3883"
       width="1"
       height="1.9999826"
       x="34"
       y="1042.3622" />
    <rect
       style="fill:#424242;fill-opacity:1;stroke:none"
       id="rect3861"
       width="13"
       height="1.0000174"
       x="27"
       y="-1045.3622"
       transform="scale(1,-1)" />
    <rect
       style="fill:#424242;fill-opacity:1;stroke:none"
       id="rect3863"
       width="9"
       height="1.0000174"
       x="16"
       y="-1045.3622"
       transform="scale(1,-1)" />
    <path
       sodipodi:type="arc"
       style="fill:#37474f;fill-opacity:1;stroke:none"
       id="path3901"
       sodipodi:cx="7"
       sodipodi:cy="9"
       sodipodi:rx="1"
       sodipodi:ry="1"
       d="M 8,9 C 8,9.5522847 7.5522847,10 7,10 6.4477153,10 6,9.5522847 6,9 6,8.4477153 6.4477153,8 7,8 7.5522847,8 8,8.4477153 8,9 z"
       transform="matrix(1.5,0,0,1.5,-3,1000.3622)" />
    <path
       transform="matrix(1.5,0,0,1.5,30,1000.3622)"
       d="M 8,9 C 8,9.5522847 7.5522847,10 7,10 6.4477153,10 6,9.5522847 6,9 6,8.4477153 6.4477153,8 7,8 7.5522847,8 8,8.4477153 8,9 z"
       sodipodi:ry="1"
       sodipodi:rx="1"
       sodipodi:cy="9"
       sodipodi:cx="7"
       id="path3903"
       style="fill:#37474f;fill-opacity:1;stroke:none"
       sodipodi:type="arc" />
    <path
       transform="matrix(1.5,0,0,1.5,-3,1022.3622)"
       d="M 8,9 C 8,9.5522847 7.5522847,10 7,10 6.4477153,10 6,9.5522847 6,9 6,8.4477153 6.4477153,8 7,8 7.5522847,8 8,8.4477153 8,9 z"
       sodipodi:ry="1"
       sodipodi:rx="1"
       sodipodi:cy="9"
       sodipodi:cx="7"
       id="path3905"
       style="fill:#37474f;fill-opacity:1;stroke:none"
       sodipodi:type="arc" />
    <path
       sodipodi:type="arc"
       style="fill:#37474f;fill-opacity:1;stroke:none"
       id="path3907"
       sodipodi:cx="7"
       sodipodi:cy="9"
       sodipodi:rx="1"
       sodipodi:ry="1"
       d="M 8,9 C 8,9.5522847 7.5522847,10 7,10 6.4477153,10 6,9.5522847 6,9 6,8.4477153 6.4477153,8 7,8 7.5522847,8 8,8.4477153 8,9 z"
       transform="matrix(1.5,0,0,1.5,30,1022.3622)" />
    <path
       style="fill:#78909c;fill-opacity:1;fill-rule:evenodd;stroke:none"
       d="m 24.325694,1013.3627 c 3.188554,-0.049 3.018443,3.246 2.998833,5.015 -0.01604,1.471 1.029457,2.3374 1.812629,3.4577 0.986553,1.3058 2.029896,3.2192 1.359471,5.1601 -0.07483,-0.025 -0.153149,-0.043 -0.226579,-0.053 0.05186,-0.2356 0.0092,-0.4915 -0.133281,-0.6862 -0.115571,-0.1581 -0.28046,-0.2677 -0.479813,-0.3828 -0.04959,-1.2881 -0.554765,-2.5356 -1.052924,-3.141 -0.572514,-0.726 -1.446635,-1.0094 -0.932972,-0.5147 0.442749,0.4049 1.38789,1.8426 0.892987,3.1938 -0.135665,-0.022 -0.269782,-0.014 -0.399845,0 l -0.02665,0 c -0.205016,-1.1115 -0.671167,-2.0473 -0.906314,-2.4811 -0.439654,-0.811 -1.099931,-2.4441 -1.399456,-3.6029 0.05569,-0.074 0.08983,-0.1572 0.119953,-0.2375 0.06402,-0.1706 0.05692,-0.3647 -0.02666,-0.5279 -0.04947,-0.097 -0.124195,-0.1878 -0.226578,-0.264 0.111348,-0.2375 0.172317,-0.5208 0.173266,-0.805 -0.0043,-0.7811 -0.521971,-1.4835 -1.07958,-1.4649 -0.538145,0.011 -1.025693,0.685 -1.039596,1.4385 -0.0038,0 -0.0095,4e-4 -0.01332,0 -0.06391,-0.01 -0.126973,0 -0.186595,0 -0.148627,-0.01 -0.27727,0.01 -0.399844,0.04 6.39e-4,-0.045 0.0026,-0.086 0,-0.1319 -0.03716,-0.6404 -0.3852,-1.1399 -0.773033,-1.1218 -0.387832,0.019 -0.676916,0.5474 -0.639752,1.1878 0.0195,0.3359 0.129889,0.6234 0.279892,0.8313 -0.07189,0.05 -0.122736,0.081 -0.226579,0.1584 -0.211667,0.1577 -0.301503,0.414 -0.226579,0.6599 0.05619,0.1845 0.196797,0.3511 0.413173,0.5147 -0.07944,1.4428 -1.029218,3.2584 -1.492753,4.3023 -0.317415,0.7501 -0.520254,1.5496 -0.546454,2.3359 -0.831459,-1.1084 -0.220528,-2.5259 0.106626,-3.1409 0.398753,-0.7361 0.418507,-0.8833 0.293219,-0.7655 -0.01,0.016 -0.02963,0.023 -0.03998,0.04 -0.688253,1.1202 -2.033274,3.4577 -0.02665,4.6982 2.064954,1.2582 2.184005,2.5205 1.092908,2.4943 -0.286387,-0.3577 -0.562675,-0.7062 -0.693064,-0.9766 -0.250663,-0.5346 -0.50431,-1.0207 -0.78636,-1.3989 -0.28205,-0.3783 -0.599593,-0.6525 -0.999612,-0.7127 -0.103742,-0.016 -0.19718,-0.011 -0.279891,0 -0.212175,0.026 -0.379057,0.1258 -0.519798,0.2508 -0.245938,-1.5771 0.720957,-3.3783 1.666019,-4.6982 0.01131,-0.017 0.02848,-0.036 0.03998,-0.053 0.102783,-0.1546 0.201869,-0.3042 0.319875,-0.4487 0.965015,-1.1449 1.216743,-1.9379 1.29283,-3.0091 0.05178,-1.2211 -0.862422,-4.8691 2.612318,-5.1468 0.109981,-0.01 0.203691,-0.012 0.306548,-0.013 z m 0.439828,3.4577 c 0.02913,-0.01 0.06395,-0.01 0.0933,0 0.23477,0.036 0.380077,0.3692 0.319876,0.7523 -0.02669,0.1699 -0.106799,0.3093 -0.186594,0.4223 -0.152703,-0.052 -0.267889,-0.095 -0.386516,-0.1716 -0.102403,-0.065 -0.209716,-0.1119 -0.306548,-0.1583 -0.0033,-0.069 0.0017,-0.1372 0.01332,-0.2112 0.05268,-0.3352 0.249286,-0.5989 0.453157,-0.6335 z m -2.399067,0.1716 c 0.185908,-0.028 0.365501,0.185 0.413173,0.4883 0.0093,0.059 0.01558,0.1292 0.01333,0.1848 -0.216287,0.1262 -0.358651,0.2793 -0.453157,0.3695 -0.109079,-0.082 -0.195479,-0.2376 -0.226578,-0.4355 -0.04768,-0.3034 0.06733,-0.5783 0.253234,-0.6071 z m 1.186205,0.6731 c 0.05204,0 0.104003,0.01 0.159938,0.013 0.223743,0.034 0.486937,0.1122 0.786361,0.3035 0.248218,0.1605 0.432027,0.1848 0.86633,0.3695 l 0.01333,0 c 0.205366,0.084 0.316565,0.1798 0.373188,0.2903 0.05662,0.1107 0.06156,0.241 0.01333,0.3696 -0.09648,0.257 -0.421165,0.5349 -0.86633,0.673 -0.227079,0.073 -0.415683,0.2292 -0.639752,0.3564 -0.224069,0.1271 -0.484345,0.2306 -0.826345,0.2111 -0.290699,-0.017 -0.455432,-0.1115 -0.613095,-0.2375 -0.157663,-0.1261 -0.297449,-0.3005 -0.506469,-0.4223 -0.325469,-0.1825 -0.492803,-0.3782 -0.546455,-0.5543 -0.05366,-0.1761 -0.0095,-0.3193 0.14661,-0.4355 0.183492,-0.1367 0.301556,-0.2287 0.386516,-0.2903 0.08496,-0.062 0.128326,-0.089 0.159938,-0.1188 0.139617,-0.1314 0.355094,-0.3641 0.679735,-0.4751 0.121741,-0.042 0.257045,-0.056 0.413173,-0.053 z m 1.865941,1.0558 c -0.126282,0.01 -0.255721,0.065 -0.399843,0.1451 -0.144123,0.08 -0.30602,0.1776 -0.479814,0.2771 -0.347587,0.1993 -0.742093,0.396 -1.132893,0.396 -0.39166,0 -0.709057,-0.1831 -0.946299,-0.3696 -0.118621,-0.093 -0.213938,-0.1903 -0.293219,-0.2639 -0.03964,-0.037 -0.07319,-0.054 -0.106625,-0.079 -0.03344,-0.026 -0.06671,-0.066 -0.133283,-0.066 -0.0044,-3e-4 -0.0089,-3e-4 -0.01332,0 -0.0095,0.01 -0.01849,0.01 -0.02665,0.013 -0.0095,0.01 -0.01848,0.01 -0.02665,0.013 -0.0048,0.01 -0.0093,0.01 -0.01333,0.013 -0.0011,0.01 -0.0011,0.018 0,0.026 -0.0072,0.012 -0.01176,0.026 -0.01332,0.04 -2.89e-4,0.01 -2.89e-4,0.01 0,0.013 0.0031,0.01 0.0076,0.018 0.01332,0.026 -0.0011,0.01 -0.0011,0.018 0,0.026 0.004,0.01 0.0085,0.01 0.01333,0.013 0.01221,0.01 0.02593,0.011 0.03998,0.013 0.0044,4e-4 0.0089,4e-4 0.01333,0 0.0038,0 0.0068,0.01 0.01333,0.013 0.02202,0.017 0.06805,0.057 0.106625,0.092 0.07717,0.072 0.165316,0.1634 0.29322,0.264 0.255805,0.201 0.626004,0.4091 1.079579,0.4091 0.454436,0 0.882749,-0.2047 1.239519,-0.4091 0.178385,-0.1023 0.343548,-0.2016 0.479814,-0.2772 0.136265,-0.076 0.235285,-0.1289 0.293219,-0.1319 0.0088,0 0.01783,0 0.02665,0 0.0095,-0.01 0.01848,-0.01 0.02665,-0.013 0.0044,3e-4 0.0089,3e-4 0.01333,0 0.0058,-0.01 0.01021,-0.017 0.01333,-0.026 0.0058,-0.01 0.01021,-0.017 0.01333,-0.026 0.0011,-0.01 0.0011,-0.018 0,-0.026 2.88e-4,-0.01 2.88e-4,-0.01 0,-0.013 2.88e-4,-0.01 2.88e-4,-0.01 0,-0.013 2.88e-4,-0.01 2.88e-4,-0.01 0,-0.013 -0.004,-0.01 -0.0085,-0.01 -0.01333,-0.013 2.88e-4,-0.01 2.88e-4,-0.01 0,-0.013 -0.004,-0.01 -0.0085,-0.01 -0.01333,-0.013 -0.004,-0.01 -0.0085,-0.01 -0.01333,-0.013 -0.01221,-0.01 -0.02592,-0.011 -0.03998,-0.013 -0.0044,-4e-4 -0.0089,-4e-4 -0.01333,0 z m 2.905538,6.9945 c 0.221175,0.01 0.477384,0.075 0.759704,0.198 0.809396,0.3641 1.048874,0.6766 0.813017,1.1349 -0.199641,0.3459 -1.024231,0.8953 -1.572721,0.7522 -0.559667,-0.1402 -0.802662,-0.9254 -0.693064,-1.5176 0.06358,-0.4168 0.324436,-0.5794 0.693064,-0.5675 z m -9.702894,0.871 c 0.03791,-0.01 0.07773,0 0.119953,0 0.04222,0 0.08858,-0.01 0.133282,0 0.715168,0.1077 1.193167,0.9935 1.692674,2.0588 0.368433,0.7641 1.671459,1.8371 1.58605,2.6922 -0.100507,1.3145 -1.597505,1.5609 -3.078802,0.7919 -1.507655,-0.793 -3.701452,0.1487 -2.905537,-2.006 0.159409,-0.4902 -0.245988,-1.2108 0.01331,-1.6892 0.303417,-0.5813 0.956014,-0.4572 1.346144,-0.8447 0.336568,-0.3529 0.561841,-0.9366 1.092907,-1.003 z m 8.676626,0.1452 c 0.01417,0.2069 0.05291,0.4018 0.133281,0.5939 0.144984,0.3465 0.425324,0.6648 0.826346,0.7654 0.33682,0.088 0.661659,0.01 0.959626,-0.132 0.05907,-0.028 0.130592,-0.061 0.186594,-0.092 0.339341,-0.1836 0.60341,-0.4024 0.759705,-0.6731 0.0046,-0.01 0.009,-0.01 0.01333,-0.013 0.0018,-0.01 -0.0017,-0.01 0,-0.013 0.01817,-0.037 0.03943,-0.079 0.05331,-0.1188 0.183273,0.019 0.372645,0.087 0.546454,0.2376 0.425516,0.3585 0.31613,1.2053 0.666407,1.5969 1.65554,1.8262 -0.800107,1.545 -1.905925,2.877 -1.054352,1.2455 -2.601605,1.4023 -3.198757,0.2111 -0.407186,-0.768 0.361298,-2.173 0.413174,-3.0089 0.05177,-1.0156 0.112346,-1.8169 0.546453,-2.2304 z m -0.906315,3.3125 c -0.04212,0.1425 -0.08101,0.2772 -0.119953,0.4223 -0.123309,0.4595 -0.218902,0.9135 -0.119953,1.3066 -0.834938,0.05 -1.553289,-0.2052 -2.132504,-0.1584 -0.85546,0.046 -1.393619,0.2549 -1.87927,0.2507 0.06763,-0.1506 0.11873,-0.3244 0.133282,-0.5146 0.03538,-0.3543 -0.130312,-0.705 -0.35986,-1.0558 1.478071,1.0364 3.226705,0.6499 4.478258,-0.2508 z"
       id="rect2995"
       inkscape:connector-curvature="0"
       sodipodi:nodetypes="cccccccccccccccccccccccccsccscccccccccsccccccccccccccccccccccccccccccccscccccccccccccscccccccccccccccccccsccccccccccccccccccccccccccsccccccccccccccccccccccccccccccccc" />
  </g>
</svg>
