<?xml version="1.0" encoding="UTF-8" standalone="no"?>
<!-- Created with Inkscape (http://www.inkscape.org/) -->

<svg
   xmlns:dc="http://purl.org/dc/elements/1.1/"
   xmlns:cc="http://creativecommons.org/ns#"
   xmlns:rdf="http://www.w3.org/1999/02/22-rdf-syntax-ns#"
   xmlns:svg="http://www.w3.org/2000/svg"
   xmlns="http://www.w3.org/2000/svg"
   xmlns:sodipodi="http://sodipodi.sourceforge.net/DTD/sodipodi-0.dtd"
   xmlns:inkscape="http://www.inkscape.org/namespaces/inkscape"
   width="48"
   height="48"
   id="svg2"
   version="1.1"
   inkscape:version="0.48.4 r9939"
   sodipodi:docname="drive-cdrom.svg">
  <defs
     id="defs4" />
  <sodipodi:namedview
     id="base"
     pagecolor="#ffffff"
     bordercolor="#666666"
     borderopacity="1.0"
     inkscape:pageopacity="0.0"
     inkscape:pageshadow="2"
     inkscape:zoom="8"
     inkscape:cx="46.098293"
     inkscape:cy="16.123128"
     inkscape:document-units="px"
     inkscape:current-layer="layer1"
     showgrid="true"
     inkscape:snap-bbox="true"
     inkscape:window-width="1301"
     inkscape:window-height="744"
     inkscape:window-x="65"
     inkscape:window-y="24"
     inkscape:window-maximized="1"
     inkscape:object-nodes="true"
     inkscape:object-paths="true"
     inkscape:snap-nodes="true"
     inkscape:snap-global="true">
    <inkscape:grid
       type="xygrid"
       id="grid3003"
       empspacing="6"
       visible="true"
       enabled="true"
       snapvisiblegridlinesonly="true" />
  </sodipodi:namedview>
  <metadata
     id="metadata7">
    <rdf:RDF>
      <cc:Work
         rdf:about="">
        <dc:format>image/svg+xml</dc:format>
        <dc:type
           rdf:resource="http://purl.org/dc/dcmitype/StillImage" />
        <dc:title />
      </cc:Work>
    </rdf:RDF>
  </metadata>
  <g
     inkscape:label="Layer 1"
     inkscape:groupmode="layer"
     id="layer1"
     transform="translate(0,-1004.3622)">
    <path
       style="fill:#000000;fill-opacity:1;stroke:none"
       d="m 3,6 0,36 1,1 40,0 1,-1 L 45,6 44,5 4,5 z m 1,0 40,0 0,29 0,7 -40,0 0,-7 z"
       transform="translate(0,1004.3622)"
       id="rect3008"
       inkscape:connector-curvature="0"
       sodipodi:nodetypes="cccccccccccccccc" />
    <g
       id="g3813"
       transform="translate(-47.998,993.3622)" />
    <g
       id="g3834"
       transform="translate(-49.676,1003.5882)" />
    <path
       style="fill:#78909c;fill-opacity:1;fill-rule:evenodd;stroke:none"
       d="m 4,1010.3622 0,25.2 0,10.8 12.8,0 27.2,0 0,-36 z m 20,3.6 c 7.952898,0 14.4,6.4471 14.4,14.4 0,7.9529 -6.447102,14.4 -14.4,14.4 -1.242642,0 -2.449734,-0.1541 -3.6,-0.45 l 0,-3.15 3.6,-3.6 3.6,0 7.2,-7.2 0,-3.6 -3.6,-3.6 -3.6,0 -3.6,-3.6 -3.6,3.6 -3.6,0 -3.6,3.6 0,3.6 -3.225,3.225 c -0.237228,-1.0369 -0.375,-2.1163 -0.375,-3.225 0,-7.9529 6.447102,-14.4 14.4,-14.4 z m 0,10.8 c 1.988226,0 3.6,1.6118 3.6,3.6 0,1.9882 -1.611774,3.6 -3.6,3.6 l -8.2125,8.2125 c -1.40274,-0.9774 -2.62263,-2.1973 -3.6,-3.6 l 8.2125,-8.2125 c 0,-1.9882 1.611774,-3.6 3.6,-3.6 z"
       id="rect2999"
       inkscape:connector-curvature="0"
       sodipodi:nodetypes="cccccccsssccccccccccccccssssccccs" />
    <path
       id="path3795"
       d="m 4,1010.3622 0,36 40,0 0,-36 z m 20,3.6 c 7.952898,0 14.4,6.4471 14.4,14.4 0,7.9529 -6.447102,14.4 -14.4,14.4 -7.952898,0 -14.4,-6.4471 -14.4,-14.4 0,-7.9529 6.447102,-14.4 14.4,-14.4 z"
       style="fill:#cfd8dc;fill-opacity:1;fill-rule:evenodd;stroke:none"
       inkscape:connector-curvature="0"
       sodipodi:nodetypes="cccccsssss" />
    <path
       style="fill:#263238;fill-opacity:1;fill-rule:evenodd;stroke:none"
       d="m 4,1039.3622 0,7 40,0 0,-4 -6,0 -3.2,-3.4 -1.29375,0 c -2.537076,2.2346 -5.859642,3.6 -9.50625,3.6 -3.42251,0 -6.559582,-1.2027 -9.029719,-3.198 z"
       id="rect3003"
       inkscape:connector-curvature="0"
       sodipodi:nodetypes="cccccccscc" />
    <path
       transform="matrix(0.9,0,0,0.9,-19.2,985.1622)"
       d="m 54,48 c 0,3.313708 -2.686292,6 -6,6 -3.313708,0 -6,-2.686292 -6,-6 0,-3.313708 2.686292,-6 6,-6 3.313708,0 6,2.686292 6,6 z"
       sodipodi:ry="6"
       sodipodi:rx="6"
       sodipodi:cy="48"
       sodipodi:cx="48"
       id="path3793"
       style="fill:#455964;fill-opacity:1;fill-rule:evenodd;stroke:none"
       sodipodi:type="arc" />
    <path
       sodipodi:type="arc"
       style="fill:#212121;fill-opacity:1;fill-rule:evenodd;stroke:none"
       id="path3008"
       sodipodi:cx="48"
       sodipodi:cy="48"
       sodipodi:rx="6"
       sodipodi:ry="6"
       d="m 54,48 c 0,3.313708 -2.686292,6 -6,6 -3.313708,0 -6,-2.686292 -6,-6 0,-3.313708 2.686292,-6 6,-6 3.313708,0 6,2.686292 6,6 z"
       transform="matrix(0.6,0,0,0.6,-4.8,999.5622)" />
    <path
       sodipodi:type="arc"
       style="fill:#455964;fill-opacity:1;fill-rule:evenodd;stroke:none"
       id="path3798"
       sodipodi:cx="39"
       sodipodi:cy="57"
       sodipodi:rx="3"
       sodipodi:ry="3"
       d="m 42,57 c 0,1.656854 -1.343146,3 -3,3 -1.656854,0 -3,-1.343146 -3,-3 0,-1.656854 1.343146,-3 3,-3 1.656854,0 3,1.343146 3,3 z"
       transform="matrix(0.6,0,0,0.6,-4.8,999.5622)" />
    <rect
       style="fill:#455964;fill-opacity:1;fill-rule:evenodd;stroke:none"
       id="rect3800"
       width="3.5999999"
       height="1.2"
       x="30"
       y="1027.1622" />
    <path
       sodipodi:type="arc"
       style="fill:#455964;fill-opacity:1;fill-rule:evenodd;stroke:none"
       id="path3802"
       sodipodi:cx="37.5"
       sodipodi:cy="39.5"
       sodipodi:rx="1.5"
       sodipodi:ry="1.5"
       d="M 39,39.5 C 39,40.328427 38.328427,41 37.5,41 36.671573,41 36,40.328427 36,39.5 36,38.671573 36.671573,38 37.5,38 c 0.828427,0 1.5,0.671573 1.5,1.5 z"
       transform="matrix(0.6,0,0,0.6,-4.8,999.5622)" />
    <path
       sodipodi:type="arc"
       style="fill:#455964;fill-opacity:1;fill-rule:evenodd;stroke:none"
       id="path3804"
       sodipodi:cx="48.5"
       sodipodi:cy="34.5"
       sodipodi:rx="1.5"
       sodipodi:ry="1.5"
       d="M 50,34.5 C 50,35.328427 49.328427,36 48.5,36 47.671573,36 47,35.328427 47,34.5 47,33.671573 47.671573,33 48.5,33 c 0.828427,0 1.5,0.671573 1.5,1.5 z"
       transform="matrix(0.6,0,0,0.6,-4.8,999.5622)" />
    <path
       sodipodi:type="arc"
       style="fill:#455964;fill-opacity:1;fill-rule:evenodd;stroke:none"
       id="path3806"
       sodipodi:cx="60.5"
       sodipodi:cy="41.5"
       sodipodi:rx="1.5"
       sodipodi:ry="1.5"
       d="M 62,41.5 C 62,42.328427 61.328427,43 60.5,43 59.671573,43 59,42.328427 59,41.5 59,40.671573 59.671573,40 60.5,40 c 0.828427,0 1.5,0.671573 1.5,1.5 z"
       transform="matrix(0.6,0,0,0.6,-4.8,999.5622)" />
  </g>
</svg>
