<?xml version="1.0" encoding="UTF-8" standalone="no"?>
<!-- Created with Inkscape (http://www.inkscape.org/) -->

<svg
   xmlns:dc="http://purl.org/dc/elements/1.1/"
   xmlns:cc="http://creativecommons.org/ns#"
   xmlns:rdf="http://www.w3.org/1999/02/22-rdf-syntax-ns#"
   xmlns:svg="http://www.w3.org/2000/svg"
   xmlns="http://www.w3.org/2000/svg"
   xmlns:sodipodi="http://sodipodi.sourceforge.net/DTD/sodipodi-0.dtd"
   xmlns:inkscape="http://www.inkscape.org/namespaces/inkscape"
   width="48"
   height="48"
   id="svg2"
   version="1.1"
   inkscape:version="0.48.4 r9939"
   sodipodi:docname="input-gaming.svg">
  <defs
     id="defs4">
    <clipPath
       id="clipPath-182097568">
      <g
         id="g3011"
         transform="translate(0,-1004.3622)">
        <path
           id="path3013"
           fill="#1890d0"
           transform="matrix(15.333333,0,0,11.5,414.99999,878.8622)"
           d="m -24 13 c 0 1.105 -0.672 2 -1.5 2 -0.828 0 -1.5 -0.895 -1.5 -2 0 -1.105 0.672 -2 1.5 -2 0.828 0 1.5 0.895 1.5 2 z" />
      </g>
    </clipPath>
  </defs>
  <sodipodi:namedview
     id="base"
     pagecolor="#ffffff"
     bordercolor="#666666"
     borderopacity="1.0"
     inkscape:pageopacity="0.0"
     inkscape:pageshadow="2"
     inkscape:zoom="11.583333"
     inkscape:cx="7.9081929"
     inkscape:cy="17.463369"
     inkscape:document-units="px"
     inkscape:current-layer="layer1"
     showgrid="true"
     inkscape:snap-bbox="true"
     inkscape:window-width="1301"
     inkscape:window-height="744"
     inkscape:window-x="65"
     inkscape:window-y="24"
     inkscape:window-maximized="1"
     inkscape:object-nodes="false"
     inkscape:snap-nodes="true"
     showguides="true"
     inkscape:guide-bbox="true">
    <inkscape:grid
       type="xygrid"
       id="grid3005"
       empspacing="6"
       visible="true"
       enabled="true"
       snapvisiblegridlinesonly="true" />
    <sodipodi:guide
       orientation="0,1"
       position="18,42"
       id="guide2989" />
    <sodipodi:guide
       orientation="0,1"
       position="17,6"
       id="guide2991" />
    <sodipodi:guide
       orientation="1,0"
       position="3,38"
       id="guide2993" />
    <sodipodi:guide
       orientation="1,0"
       position="45,33"
       id="guide2995" />
  </sodipodi:namedview>
  <metadata
     id="metadata7">
    <rdf:RDF>
      <cc:Work
         rdf:about="">
        <dc:format>image/svg+xml</dc:format>
        <dc:type
           rdf:resource="http://purl.org/dc/dcmitype/StillImage" />
        <dc:title />
      </cc:Work>
    </rdf:RDF>
  </metadata>
  <g
     inkscape:label="Layer 1"
     inkscape:groupmode="layer"
     id="layer1"
     transform="translate(0,-1004.3622)">
    <g
       style="fill:#000000;fill-opacity:1;opacity:0.1"
       transform="matrix(1.3845409,0,0,1.3845409,-8.5392084,995.08577)"
       id="g3106">
      <g
         style="fill:#000000;fill-opacity:1"
         id="g3108"
         clip-path="url(#clipPath-182097568)">
        <!-- color: #44549c -->
        <g
           style="fill:#000000;fill-opacity:1"
           id="g3110">
          <path
             sodipodi:nodetypes="ccccccssccccccccccsccccccccccccccccccccccccccccccccccc"
             id="path3112"
             d="m 20.602,16 c -0.367,0 -0.723,0.055 -1.063,0.125 -1.137,0.168 -2.512,0.563 -3.934,1.504 -3.535,2.324 -5.324023,16.424526 -3.157239,20.035832 0.547,1.01 5.778088,-6.50035 6.755239,-10.794832 0.195,-0.289 0.387,-0.586 0.559,-0.906 0.27,0.043 0.551,0.051 0.84,0.051 l 7.156,0 c 0.18,0 0.328,-0.008 0.508,-0.023 0.164,0.301 0.348,0.598 0.535,0.875 0.981026,4.297482 6.208115,11.805832 6.759115,10.797832 C 37.726898,34.775787 35.942,19.957 32.399,17.626 31.383,16.958 30.403,16.563 29.504,16.325 29.426,16.305 29.356,16.294 29.277,16.274 28.793,16.126 28.289,15.997 27.754,15.997 m 1.801,2.406 c 0.098,-0.016 0.211,-0.012 0.305,0 0.133,0.016 0.258,0.055 0.383,0.125 0.48,0.281 0.633,0.902 0.352,1.379 -0.281,0.477 -0.883,0.652 -1.367,0.371 -0.488,-0.273 -0.66,-0.895 -0.379,-1.375 0.156,-0.27 0.418,-0.449 0.707,-0.5 m -11.555,-0.402 1,0 0,3 3,0 0,1 -3,0 0,3 -1,0 0,-3 -3,0 0,-1 3,0 m 14.207,-1.246 c 0.133,0.016 0.262,0.055 0.379,0.125 0.488,0.277 0.66,0.898 0.383,1.379 -0.277,0.477 -0.914,0.652 -1.395,0.371 -0.484,-0.277 -0.637,-0.898 -0.355,-1.375 0.211,-0.363 0.598,-0.551 0.988,-0.5 m -4,0.949 c 0.098,-0.016 0.203,-0.016 0.305,0 0.129,0.016 0.258,0.055 0.379,0.125 0.484,0.281 0.637,0.898 0.352,1.379 -0.27,0.477 -0.883,0.652 -1.359,0.371 -0.484,-0.277 -0.66,-0.898 -0.387,-1.375 0.156,-0.27 0.418,-0.449 0.719,-0.5 m 2.383,1.352 c 0.094,-0.02 0.18,-0.016 0.273,0 0.137,0.012 0.266,0.051 0.387,0.121 0.477,0.277 0.648,0.898 0.379,1.375 -0.277,0.48 -0.91,0.652 -1.398,0.375 -0.48,-0.277 -0.637,-0.898 -0.352,-1.375 0.148,-0.27 0.422,-0.453 0.707,-0.5"
             inkscape:connector-curvature="0"
             style="fill:#000000;fill-opacity:1;fill-rule:nonzero;stroke:none" />
        </g>
      </g>
    </g>
    <g
       id="g3027"
       transform="translate(48.002,1003.3622)" />
    <g
       id="g3041"
       transform="matrix(1.3845409,0,0,1.3845409,-9.2344337,994.2137)"
       style="fill:#00838f;fill-opacity:1">
      <g
         clip-path="url(#clipPath-182097568)"
         id="g3043"
         style="fill:#00838f;fill-opacity:1">
        <!-- color: #44549c -->
        <g
           id="g3045"
           style="fill:#00838f;fill-opacity:1">
          <path
             style="fill:#00838f;fill-opacity:1;fill-rule:nonzero;stroke:none"
             inkscape:connector-curvature="0"
             d="m 20.602,16 c -0.367,0 -0.723,0.055 -1.063,0.125 -1.137,0.168 -2.512,0.563 -3.934,1.504 -3.535,2.324 -5.324023,16.424526 -3.157239,20.035832 0.547,1.01 5.778088,-6.50035 6.755239,-10.794832 0.195,-0.289 0.387,-0.586 0.559,-0.906 0.27,0.043 0.551,0.051 0.84,0.051 l 7.156,0 c 0.18,0 0.328,-0.008 0.508,-0.023 0.164,0.301 0.348,0.598 0.535,0.875 0.981026,4.297482 6.208115,11.805832 6.759115,10.797832 C 37.726898,34.775787 35.942,19.957 32.399,17.626 31.383,16.958 30.403,16.563 29.504,16.325 29.426,16.305 29.356,16.294 29.277,16.274 28.793,16.126 28.289,15.997 27.754,15.997 m 1.801,2.406 c 0.098,-0.016 0.211,-0.012 0.305,0 0.133,0.016 0.258,0.055 0.383,0.125 0.48,0.281 0.633,0.902 0.352,1.379 -0.281,0.477 -0.883,0.652 -1.367,0.371 -0.488,-0.273 -0.66,-0.895 -0.379,-1.375 0.156,-0.27 0.418,-0.449 0.707,-0.5 m -11.555,-0.402 1,0 0,3 3,0 0,1 -3,0 0,3 -1,0 0,-3 -3,0 0,-1 3,0 m 14.207,-1.246 c 0.133,0.016 0.262,0.055 0.379,0.125 0.488,0.277 0.66,0.898 0.383,1.379 -0.277,0.477 -0.914,0.652 -1.395,0.371 -0.484,-0.277 -0.637,-0.898 -0.355,-1.375 0.211,-0.363 0.598,-0.551 0.988,-0.5 m -4,0.949 c 0.098,-0.016 0.203,-0.016 0.305,0 0.129,0.016 0.258,0.055 0.379,0.125 0.484,0.281 0.637,0.898 0.352,1.379 -0.27,0.477 -0.883,0.652 -1.359,0.371 -0.484,-0.277 -0.66,-0.898 -0.387,-1.375 0.156,-0.27 0.418,-0.449 0.719,-0.5 m 2.383,1.352 c 0.094,-0.02 0.18,-0.016 0.273,0 0.137,0.012 0.266,0.051 0.387,0.121 0.477,0.277 0.648,0.898 0.379,1.375 -0.277,0.48 -0.91,0.652 -1.398,0.375 -0.48,-0.277 -0.637,-0.898 -0.352,-1.375 0.148,-0.27 0.422,-0.453 0.707,-0.5"
             id="path3047"
             sodipodi:nodetypes="ccccccssccccccccccsccccccccccccccccccccccccccccccccccc" />
        </g>
      </g>
    </g>
  </g>
</svg>
