<?xml version="1.0" encoding="UTF-8" standalone="no"?>
<!-- Created with Inkscape (http://www.inkscape.org/) -->

<svg
   xmlns:dc="http://purl.org/dc/elements/1.1/"
   xmlns:cc="http://creativecommons.org/ns#"
   xmlns:rdf="http://www.w3.org/1999/02/22-rdf-syntax-ns#"
   xmlns:svg="http://www.w3.org/2000/svg"
   xmlns="http://www.w3.org/2000/svg"
   xmlns:sodipodi="http://sodipodi.sourceforge.net/DTD/sodipodi-0.dtd"
   xmlns:inkscape="http://www.inkscape.org/namespaces/inkscape"
   width="48"
   height="48"
   id="svg2"
   version="1.1"
   inkscape:version="0.48.4 r9939"
   sodipodi:docname="media-optical-cdr.svg">
  <defs
     id="defs4" />
  <sodipodi:namedview
     id="base"
     pagecolor="#ffffff"
     bordercolor="#666666"
     borderopacity="1.0"
     inkscape:pageopacity="0.0"
     inkscape:pageshadow="2"
     inkscape:zoom="8.1906533"
     inkscape:cx="-1.3114323"
     inkscape:cy="30.308186"
     inkscape:document-units="px"
     inkscape:current-layer="layer1"
     showgrid="true"
     inkscape:snap-bbox="true"
     inkscape:window-width="1301"
     inkscape:window-height="744"
     inkscape:window-x="65"
     inkscape:window-y="24"
     inkscape:window-maximized="1"
     inkscape:snap-nodes="false">
    <inkscape:grid
       type="xygrid"
       id="grid2985"
       empspacing="6"
       visible="true"
       enabled="true"
       snapvisiblegridlinesonly="true" />
  </sodipodi:namedview>
  <metadata
     id="metadata7">
    <rdf:RDF>
      <cc:Work
         rdf:about="">
        <dc:format>image/svg+xml</dc:format>
        <dc:type
           rdf:resource="http://purl.org/dc/dcmitype/StillImage" />
        <dc:title />
      </cc:Work>
    </rdf:RDF>
  </metadata>
  <g
     inkscape:label="Layer 1"
     inkscape:groupmode="layer"
     id="layer1"
     transform="translate(0,-1004.3622)">
    <path
       inkscape:connector-curvature="0"
       id="path2990"
       d="m 25,1007.3622 c -12.150265,0 -22,9.8497 -22,22 0,12.1503 9.849735,22 22,22 12.150265,0 22,-9.8497 22,-22 0,-12.1503 -9.849735,-22 -22,-22 z m 0,18.8571 c 1.735752,0 3.142857,1.4071 3.142857,3.1429 0,1.7358 -1.407105,3.1429 -3.142857,3.1429 -1.735752,0 -3.142857,-1.4071 -3.142857,-3.1429 0,-1.7358 1.407105,-3.1429 3.142857,-3.1429 z"
       style="fill:#000000;fill-opacity:1;stroke:none;opacity:0.1" />
    <path
       style="fill:#9f4fb6;fill-opacity:1;stroke:none"
       d="m 24,1006.3622 c -12.150265,0 -22,9.8497 -22,22 0,12.1503 9.849735,22 22,22 12.150265,0 22,-9.8497 22,-22 0,-12.1503 -9.849735,-22 -22,-22 z m 0,18.8571 c 1.735752,0 3.142857,1.4071 3.142857,3.1429 0,1.7358 -1.407105,3.1429 -3.142857,3.1429 -1.735752,0 -3.142857,-1.4071 -3.142857,-3.1429 0,-1.7358 1.407105,-3.1429 3.142857,-3.1429 z"
       id="path3001"
       inkscape:connector-curvature="0" />
    <path
       sodipodi:type="inkscape:offset"
       inkscape:radius="-1.8215868"
       inkscape:original="M 24 3 C 12.40202 3 3 12.40202 3 24 C 3 35.59798 12.40202 45 24 45 C 35.59798 45 45 35.59798 45 24 C 45 12.40202 35.59798 3 24 3 z M 24 21 C 25.656854 21 27 22.343146 27 24 C 27 25.656854 25.656854 27 24 27 C 22.343146 27 21 25.656854 21 24 C 21 22.343146 22.343146 21 24 21 z "
       style="fill:#263238;fill-opacity:1;stroke:none"
       id="path3776"
       d="M 24,4.8125 C 13.386479,4.8125 4.8125,13.386479 4.8125,24 4.8125,34.613521 13.386479,43.1875 24,43.1875 34.613521,43.1875 43.1875,34.613521 43.1875,24 43.1875,13.386479 34.613521,4.8125 24,4.8125 z m 0,14.375 c 2.641313,0 4.8125,2.171187 4.8125,4.8125 0,2.641313 -2.171187,4.8125 -4.8125,4.8125 -2.641313,0 -4.8125,-2.171187 -4.8125,-4.8125 0,-2.641313 2.171187,-4.8125 4.8125,-4.8125 z"
       transform="matrix(1.047619,0,0,1.047619,-1.1428571,1003.2193)" />
    <rect
       style="fill:#607d8b;fill-opacity:1;stroke:none"
       id="rect3814"
       width="19.904762"
       height="1.0476191"
       x="14"
       y="1035.3622" />
    <rect
       style="fill:#607d8b;fill-opacity:1;stroke:none"
       id="rect3816"
       width="19.904762"
       height="1.0476191"
       x="14"
       y="1038.3622" />
    <rect
       style="fill:#607d8b;fill-opacity:1;stroke:none"
       id="rect3818"
       width="19.904762"
       height="1.0476191"
       x="14"
       y="1041.3622" />
    <path
       style="font-size:7.66531991999999995px;font-style:normal;font-weight:normal;text-align:center;line-height:100%;letter-spacing:0px;word-spacing:0px;text-anchor:middle;fill:#ffb300;fill-opacity:1;stroke:none;font-family:Sans"
       d="M 15.9375 10 C 15.038161 10.000006 14.306866 10.272808 13.78125 10.8125 C 13.255632 11.34962 13 12.075545 13 13 C 13 13.921879 13.255632 14.647803 13.78125 15.1875 C 14.306866 15.724616 15.038161 16 15.9375 16 C 16.238883 16 16.503971 15.978554 16.78125 15.90625 C 17.058521 15.833946 17.33817 15.704526 17.59375 15.5625 L 17.59375 14.375 C 17.335759 14.563508 17.094499 14.693453 16.84375 14.78125 C 16.592993 14.869049 16.308522 14.906251 16.03125 14.90625 C 15.534562 14.906251 15.159506 14.747113 14.875 14.40625 C 14.590489 14.06539 14.437498 13.596511 14.4375 13 C 14.437498 12.400913 14.590489 11.934616 14.875 11.59375 C 15.159506 11.252893 15.534562 11.093755 16.03125 11.09375 C 16.308522 11.093755 16.592993 11.130957 16.84375 11.21875 C 17.094499 11.306552 17.335759 11.436497 17.59375 11.625 L 17.59375 10.4375 C 17.33817 10.29548 17.058521 10.16606 16.78125 10.09375 C 16.503971 10.021452 16.238883 10.000006 15.9375 10 z M 18.75 10.09375 L 18.75 15.875 L 20.21875 15.875 C 21.028874 15.875 21.626183 15.81145 22.03125 15.6875 C 22.436309 15.560968 22.804414 15.362046 23.09375 15.0625 C 23.346909 14.80169 23.533279 14.497113 23.65625 14.15625 C 23.77921 13.812808 23.843744 13.436409 23.84375 13 C 23.843744 12.568761 23.77921 12.184616 23.65625 11.84375 C 23.533279 11.502892 23.346909 11.198316 23.09375 10.9375 C 22.806825 10.63796 22.465148 10.405205 22.0625 10.28125 C 21.662255 10.154724 21.038518 10.093756 20.21875 10.09375 L 18.75 10.09375 z M 28.125 10.09375 L 28.125 15.875 L 29.53125 15.875 L 29.53125 13.6875 L 29.90625 13.6875 C 30.13289 13.687502 30.333726 13.737878 30.46875 13.84375 C 30.606179 13.949626 30.711137 14.148286 30.84375 14.4375 L 31.53125 15.875 L 33 15.875 L 32.25 14.25 C 32.095686 13.916887 31.933144 13.662686 31.78125 13.5 C 31.631758 13.334736 31.471722 13.233984 31.28125 13.1875 C 31.628443 13.0713 31.891308 12.90157 32.0625 12.65625 C 32.236094 12.410936 32.312495 12.069682 32.3125 11.6875 C 32.312495 11.134895 32.145226 10.755652 31.8125 10.5 C 31.482177 10.244359 30.961268 10.093756 30.25 10.09375 L 28.125 10.09375 z M 29.53125 11.1875 L 30.09375 11.1875 C 30.385489 11.187505 30.59337 11.230134 30.71875 11.34375 C 30.846534 11.457375 30.906247 11.642861 30.90625 11.90625 C 30.906247 12.172229 30.846534 12.383801 30.71875 12.5 C 30.59337 12.616206 30.385489 12.656253 30.09375 12.65625 L 29.53125 12.65625 L 29.53125 11.1875 z M 20.15625 11.21875 L 20.65625 11.21875 C 21.227675 11.218755 21.638521 11.387959 21.9375 11.6875 C 22.236471 11.987049 22.406246 12.426736 22.40625 13 C 22.406246 13.575852 22.238882 14.010374 21.9375 14.3125 C 21.638521 14.614629 21.225264 14.750001 20.65625 14.75 L 20.15625 14.75 L 20.15625 11.21875 z M 24.75 13.03125 L 24.75 14.15625 L 27.03125 14.15625 L 27.03125 13.03125 L 24.75 13.03125 z "
       transform="translate(0,1004.3622)"
       id="text2990" />
  </g>
</svg>
