<?xml version="1.0" encoding="UTF-8" standalone="no"?>
<!-- Created with Inkscape (http://www.inkscape.org/) -->
<svg id="svg3172" xmlns:rdf="http://www.w3.org/1999/02/22-rdf-syntax-ns#" xmlns="http://www.w3.org/2000/svg" height="24" width="24" version="1.0" xmlns:cc="http://creativecommons.org/ns#" xmlns:dc="http://purl.org/dc/elements/1.1/">
 <metadata id="metadata10">
  <rdf:RDF>
   <cc:Work rdf:about="">
    <dc:format>image/svg+xml</dc:format>
    <dc:type rdf:resource="http://purl.org/dc/dcmitype/StillImage"/>
    <dc:title/>
   </cc:Work>
  </rdf:RDF>
 </metadata>
 <path id="path2396-7" style="opacity:.3" d="m12 6c-3.864 0-7 3.136-7 7s3.136 7 7 7 7-3.136 7-7-3.136-7-7-7zm3 2 2 2-5.5 7.5-4-3.5 2-2 2 2 3.5-6z"/>
 <path id="path2396" style="fill:#dfdbd2" d="m12 4.9992c-3.864 0-7 3.136-7 7s3.136 7 7 7 7-3.136 7-7-3.136-7-7-7zm3 2 2 2-5.5 7.5-4-3.5 2-2 2 2 3.5-6z"/>
 <path id="path3170" style="opacity:.3;stroke:#fff;stroke-width:.5;fill:none" d="m7.8544 12.999 1.6456-1.645l2.0545 2.0545 3.5-6 1.6183 1.6183-5.2001 7.1183-3.6183-3.1456z"/>
</svg>
