<?xml version="1.0" encoding="UTF-8" standalone="no"?>
<!-- Created with Inkscape (http://www.inkscape.org/) -->

<svg
   xmlns:dc="http://purl.org/dc/elements/1.1/"
   xmlns:cc="http://creativecommons.org/ns#"
   xmlns:rdf="http://www.w3.org/1999/02/22-rdf-syntax-ns#"
   xmlns:svg="http://www.w3.org/2000/svg"
   xmlns="http://www.w3.org/2000/svg"
   xmlns:sodipodi="http://sodipodi.sourceforge.net/DTD/sodipodi-0.dtd"
   xmlns:inkscape="http://www.inkscape.org/namespaces/inkscape"
   version="1.1"
   width="24"
   height="24"
   id="svg3814"
   inkscape:version="0.48.0 r9654"
   sodipodi:docname="audio-volume-low-panel.svg">
  <sodipodi:namedview
     pagecolor="#ffffff"
     bordercolor="#666666"
     borderopacity="1"
     objecttolerance="10"
     gridtolerance="10"
     guidetolerance="10"
     inkscape:pageopacity="0"
     inkscape:pageshadow="2"
     inkscape:window-width="1280"
     inkscape:window-height="753"
     id="namedview16"
     showgrid="false"
     inkscape:zoom="13.227273"
     inkscape:cx="11"
     inkscape:cy="11.793814"
     inkscape:window-x="0"
     inkscape:window-y="24"
     inkscape:window-maximized="1"
     inkscape:current-layer="svg3814" />
  <defs
     id="defs3816" />
  <metadata
     id="metadata3819">
    <rdf:RDF>
      <cc:Work
         rdf:about="">
        <dc:format>image/svg+xml</dc:format>
        <dc:type
           rdf:resource="http://purl.org/dc/dcmitype/StillImage" />
        <dc:title></dc:title>
      </cc:Work>
    </rdf:RDF>
  </metadata>
  <g
     transform="translate(0.98942057,7)"
     id="layer1">
    <path
       d="m 7.0129338,1 c -0.3052235,0 -0.5665273,0.1279595 -0.75,0.34375 L 4.0129338,4 c 0,0 -2,0 -2,0 -0.552,0 -1,0.448 -1,1 -0.00627,0.996071 0.00222,2.014549 0,3 0,0.552 0.4480001,1 1,1 l 2,0 2.15625,2.46875 C 6.3405422,11.773669 6.6384882,12 7.0129338,12 c 0.552,0 1.0000004,-0.448 1,-1 l 0,-9 c 0,-0.552 -0.4480003,-1 -1,-1 z"
       id="rect3180-0"
       style="opacity:0.3;fill:#ffffff;fill-opacity:1;fill-rule:evenodd;stroke:none;stroke-width:1.69999993;marker:none;visibility:visible;display:inline;overflow:visible;enable-background:accumulate"
       inkscape:connector-curvature="0" />
    <path
       d="m 10.862934,3.221859 c 0,0 0.983474,0.794985 1.008541,3.230647 0.02476,2.405297 -1.008541,3.325635 -1.008541,3.325635"
       id="path3209-4"
       style="opacity:0.3;fill:none;stroke:#ffffff;stroke-width:1.70000005;stroke-linecap:round;stroke-linejoin:miter;stroke-miterlimit:4;stroke-opacity:1;stroke-dasharray:none;stroke-dashoffset:0;marker:none;visibility:visible;display:inline;overflow:visible;enable-background:accumulate"
       inkscape:connector-curvature="0" />
    <g
       id="g3766"
       style="opacity:0.4">
      <path
         d="m 16.867369,-1.15 c 0,0 2.613537,2.422712 2.613537,7.634915 0,5.18658 -2.617972,7.665085 -2.617972,7.665085"
         id="path2996"
         style="opacity:0.3;fill:none;stroke:#ffffff;stroke-width:1.70000005;stroke-linecap:round;stroke-linejoin:miter;stroke-miterlimit:4;stroke-opacity:1;stroke-dasharray:none;stroke-dashoffset:0;marker:none;visibility:visible;display:inline;overflow:visible;enable-background:accumulate"
         inkscape:connector-curvature="0" />
      <path
         d="m 16.867369,-2.15 c 0,0 2.613537,2.422712 2.613537,7.634915 0,5.18658 -2.617972,7.665085 -2.617972,7.665085"
         id="path2990"
         style="fill:none;stroke:#3c3c3c;stroke-width:1.70000005;stroke-linecap:round;stroke-linejoin:miter;stroke-miterlimit:4;stroke-opacity:1;stroke-dasharray:none;stroke-dashoffset:0;marker:none;visibility:visible;display:inline;overflow:visible;enable-background:accumulate"
         inkscape:connector-curvature="0" />
    </g>
    <g
       id="g3789"
       style="opacity:0.4">
      <path
         d="m 13.892573,1.095476 c 0,0 1.845351,1.744801 1.779696,5.404524 -0.0662,3.690079 -1.809335,5.404524 -1.809335,5.404524"
         id="path2994"
         style="opacity:0.3;fill:none;stroke:#ffffff;stroke-width:1.70000005;stroke-linecap:round;stroke-linejoin:miter;stroke-miterlimit:4;stroke-opacity:1;stroke-dasharray:none;stroke-dashoffset:0;marker:none;visibility:visible;display:inline;overflow:visible;enable-background:accumulate"
         inkscape:connector-curvature="0" />
      <path
         d="m 13.892573,0.095476 c 0,0 1.845351,1.744801 1.779696,5.404524 -0.0662,3.690079 -1.809335,5.404524 -1.809335,5.404524"
         id="path2988"
         style="fill:none;stroke:#3c3c3c;stroke-width:1.70000005;stroke-linecap:round;stroke-linejoin:miter;stroke-miterlimit:4;stroke-opacity:1;stroke-dasharray:none;stroke-dashoffset:0;marker:none;visibility:visible;display:inline;overflow:visible;enable-background:accumulate"
         inkscape:connector-curvature="0" />
    </g>
    <path
       d="m 10.862934,2.221859 c 0,0 0.983474,0.794985 1.008541,3.230647 0.02476,2.405297 -1.008541,3.325635 -1.008541,3.325635"
       id="path3209"
       style="fill:none;stroke:#3c3c3c;stroke-width:1.70000005;stroke-linecap:round;stroke-linejoin:miter;stroke-miterlimit:4;stroke-opacity:1;stroke-dasharray:none;stroke-dashoffset:0;marker:none;visibility:visible;display:inline;overflow:visible;enable-background:accumulate"
       inkscape:connector-curvature="0" />
    <path
       d="m 7.0129338,0 c -0.3052235,0 -0.5665273,0.1279595 -0.75,0.34375 L 4.0129338,3 c 0,0 -2,0 -2,0 -0.552,0 -1,0.448 -1,1 -0.00627,0.996071 0.00222,2.014549 0,3 0,0.552 0.4480001,1 1,1 l 2,0 2.15625,2.46875 C 6.3405422,10.773669 6.6384882,11 7.0129338,11 c 0.552,0 1.0000004,-0.448 1,-1 l 0,-9 c 0,-0.552 -0.4480003,-1 -1,-1 z"
       id="rect3180"
       style="fill:#3c3c3c;fill-opacity:1;fill-rule:evenodd;stroke:none;stroke-width:1.69999993;marker:none;visibility:visible;display:inline;overflow:visible;enable-background:accumulate"
       inkscape:connector-curvature="0" />
  </g>
</svg>
