<?xml version="1.0" encoding="UTF-8" standalone="no"?>
<!-- Generator: Adobe Illustrator 15.0.0, SVG Export Plug-In . SVG Version: 6.00 Build 0)  -->
<!DOCTYPE svg  PUBLIC '-//W3C//DTD SVG 1.1//EN'  'http://www.w3.org/Graphics/SVG/1.1/DTD/svg11.dtd'>
<svg id="Layer_1" xmlns="http://www.w3.org/2000/svg" xml:space="preserve" height="22px" viewBox="0 0 22 22" width="22px" version="1.1" y="0px" x="0px" enable-background="new 0 0 22 22">
		<path d="m16.323 16.496c-1.8-0.896-2.621-2.444-2.621-3.179 0-0.49 0.326-1.248 0.642-1.616 0.309-0.361 0.766-0.54 0.983-0.941 0.352-0.655 0.541-1.963 0.43-2.538-0.078-0.41-0.43-0.451-0.43-0.818 0-0.328 0.077-0.859 0.077-1.76 0-1.27-0.485-1.948-1.139-2.538-0.59-0.533-1.769-1.106-3.263-1.106-0.316 0-0.659 0.029-0.942 0.083-0.648 0.122-1.086 0.428-1.308 0.667l-0.009-0.005-0.051 0.066c-0.001 0.002-0.005 0.005-0.007 0.008-0.276 0.041-0.721 0.105-1.101 0.409-0.512 0.409-0.983 1.146-0.983 2.416 0 0.9 0.078 1.432 0.078 1.76 0 0.368-0.354 0.409-0.432 0.818-0.111 0.575 0.079 1.883 0.432 2.538 0.217 0.401 0.675 0.58 0.982 0.941 0.315 0.368 0.642 1.126 0.642 1.616 0 0.734-0.828 2.282-2.627 3.179-2.465 1.229-3.676 1.793-3.676 3.504h18c0-1.711-1.212-2.275-3.677-3.504zm-7.315-14.277l-0.177-0.148c-0.094 0.113-0.159 0.24-0.19 0.368-0.12-0.042-0.256-0.062-0.412-0.062v0.231c0.185 0 0.332 0.033 0.45 0.1l0.064 0.037 0.107-0.137c0-0.129 0.056-0.267 0.158-0.389z" fill="#363636"/>
</svg>
