<?xml version="1.0" encoding="UTF-8" standalone="no"?>
<!-- Created with Inkscape (http://www.inkscape.org/) -->
<svg id="svg3225" xmlns:rdf="http://www.w3.org/1999/02/22-rdf-syntax-ns#" xmlns="http://www.w3.org/2000/svg" height="24" width="24" version="1.0" xmlns:cc="http://creativecommons.org/ns#" xmlns:dc="http://purl.org/dc/elements/1.1/">
 <metadata id="metadata8">
  <rdf:RDF>
   <cc:Work rdf:about="">
    <dc:format>image/svg+xml</dc:format>
    <dc:type rdf:resource="http://purl.org/dc/dcmitype/StillImage"/>
   </cc:Work>
  </rdf:RDF>
 </metadata>
 <g id="layer1">
  <path id="path3219" style="opacity:.6;fill-rule:evenodd;fill:#eae3d0" d="m10.812 2c-0.476 0.0932-0.8184 0.5141-0.812 1v2h-5.7812c-1.7167 0-3.2188 1.2946-3.2188 3v8c0 1.705 1.5021 3 3.2188 3h15.562c1.717 0 3.219-1.295 3.219-3v-8c0-1.7054-1.502-3-3.219-3h-1.781v-1c-0.003-0.5511-0.449-0.9971-1-1h-2c-0.003-0.5511-0.449-0.9971-1-1h-3c-0.062-0.0058-0.125-0.0058-0.188 0zm-6.687 6c0 0.0245-0.0362 0 0.0938 0-0.0269 0.0659-0.0765 0.1177-0.0938 0.1875v-0.1875zm15.656 0c0.13 0 0.094 0.0245 0.094 0v0.1875c-0.017-0.0698-0.067-0.1216-0.094-0.1875zm-15.656 1.8125c0.0613 0.2475 0.1121 0.5025 0.2812 0.6875-0.1691 0.185-0.2199 0.44-0.2812 0.688v-1.3755zm15.75 0v1.3755c-0.061-0.248-0.112-0.503-0.281-0.688 0.169-0.185 0.22-0.44 0.281-0.6875zm-15.75 2.9995c0.1619 0.655 0.6781 1.188 1.375 1.188h0.7188c-0.0702 0.172-0.2188 0.306-0.2188 0.5v1c0 0.194 0.1486 0.328 0.2188 0.5h-2c-0.13 0-0.0938-0.024-0.0938 0v-3.188zm15.75 0v3.188c0-0.024 0.036 0-0.094 0h-2c0.07-0.172 0.219-0.306 0.219-0.5v-1c0-0.194-0.149-0.328-0.219-0.5h0.719c0.697 0 1.213-0.533 1.375-1.188z"/>
  <path id="rect2396" style="fill-rule:evenodd;fill:#3a3935" d="m11 3v3h-6.7812c-1.2312 0-2.2188 0.892-2.2188 2v8c0 1.108 0.9876 2 2.2188 2h15.562c1.231 0 2.219-0.892 2.219-2v-8c0-1.108-0.988-2-2.219-2h-7.781v-2h1v1h4v-1h-3v-1h-3zm-6.7812 4h15.562c0.616 0 1.094 0.446 1.094 1v8c0 0.554-0.478 1-1.094 1h-15.562c-0.6158 0-1.094-0.446-1.094-1v-8c0-0.554 0.4782-1 1.0938-1zm1.2812 1c-0.277 0-0.5 0.223-0.5 0.5v1c0 0.277 0.223 0.5 0.5 0.5h1c0.277 0 0.5-0.223 0.5-0.5v-1c0-0.277-0.223-0.5-0.5-0.5h-1zm3 0c-0.277 0-0.5 0.223-0.5 0.5v1c0 0.277 0.223 0.5 0.5 0.5h1c0.277 0 0.5-0.223 0.5-0.5v-1c0-0.277-0.223-0.5-0.5-0.5h-1zm3 0c-0.277 0-0.5 0.223-0.5 0.5v1c0 0.277 0.223 0.5 0.5 0.5h1c0.277 0 0.5-0.223 0.5-0.5v-1c0-0.277-0.223-0.5-0.5-0.5h-1zm3 0c-0.277 0-0.5 0.223-0.5 0.5v1c0 0.277 0.223 0.5 0.5 0.5h1c0.277 0 0.5-0.223 0.5-0.5v-1c0-0.277-0.223-0.5-0.5-0.5h-1zm3 0c-0.277 0-0.5 0.223-0.5 0.5v1c0 0.277 0.223 0.5 0.5 0.5h1c0.277 0 0.5-0.223 0.5-0.5v-1c0-0.277-0.223-0.5-0.5-0.5h-1zm-12 3c-0.277 0-0.5 0.223-0.5 0.5v1c0 0.277 0.223 0.5 0.5 0.5h1c0.277 0 0.5-0.223 0.5-0.5v-1c0-0.277-0.223-0.5-0.5-0.5h-1zm3 0c-0.277 0-0.5 0.223-0.5 0.5v1c0 0.277 0.223 0.5 0.5 0.5h1c0.277 0 0.5-0.223 0.5-0.5v-1c0-0.277-0.223-0.5-0.5-0.5h-1zm3 0c-0.277 0-0.5 0.223-0.5 0.5v1c0 0.277 0.223 0.5 0.5 0.5h1c0.277 0 0.5-0.223 0.5-0.5v-1c0-0.277-0.223-0.5-0.5-0.5h-1zm3 0c-0.277 0-0.5 0.223-0.5 0.5v1c0 0.277 0.223 0.5 0.5 0.5h1c0.277 0 0.5-0.223 0.5-0.5v-1c0-0.277-0.223-0.5-0.5-0.5h-1zm3 0c-0.277 0-0.5 0.223-0.5 0.5v1c0 0.277 0.223 0.5 0.5 0.5h1c0.277 0 0.5-0.223 0.5-0.5v-1c0-0.277-0.223-0.5-0.5-0.5h-1zm-10 3c-0.277 0-0.5 0.223-0.5 0.5v1c0 0.277 0.223 0.5 0.5 0.5h9c0.277 0 0.5-0.223 0.5-0.5v-1c0-0.277-0.223-0.5-0.5-0.5h-9z"/>
 </g>
</svg>
