<?xml version="1.0" encoding="UTF-8" standalone="no"?>
<!-- Created with Inkscape (http://www.inkscape.org/) -->

<svg
   xmlns:dc="http://purl.org/dc/elements/1.1/"
   xmlns:cc="http://creativecommons.org/ns#"
   xmlns:rdf="http://www.w3.org/1999/02/22-rdf-syntax-ns#"
   xmlns:svg="http://www.w3.org/2000/svg"
   xmlns="http://www.w3.org/2000/svg"
   xmlns:sodipodi="http://sodipodi.sourceforge.net/DTD/sodipodi-0.dtd"
   xmlns:inkscape="http://www.inkscape.org/namespaces/inkscape"
   version="1.1"
   width="20"
   height="20"
   id="svg13094"
   inkscape:version="0.48.3.1 r9886"
   sodipodi:docname="folder-remote.svg"
   inkscape:export-filename="folder.png"
   inkscape:export-xdpi="90"
   inkscape:export-ydpi="90">
  <sodipodi:namedview
     pagecolor="#ffffff"
     bordercolor="#666666"
     borderopacity="1"
     objecttolerance="10"
     gridtolerance="10"
     guidetolerance="10"
     inkscape:pageopacity="0"
     inkscape:pageshadow="2"
     inkscape:window-width="1920"
     inkscape:window-height="1033"
     id="namedview6"
     showgrid="true"
     inkscape:snap-bbox="true"
     inkscape:bbox-paths="true"
     inkscape:bbox-nodes="true"
     inkscape:snap-bbox-edge-midpoints="true"
     inkscape:snap-bbox-midpoints="true"
     inkscape:object-paths="true"
     inkscape:snap-intersection-paths="true"
     inkscape:object-nodes="true"
     inkscape:snap-smooth-nodes="true"
     inkscape:snap-midpoints="true"
     inkscape:snap-object-midpoints="true"
     inkscape:snap-center="true"
     inkscape:zoom="29.5"
     inkscape:cx="17.048593"
     inkscape:cy="9.8312495"
     inkscape:window-x="-10"
     inkscape:window-y="25"
     inkscape:window-maximized="1"
     inkscape:current-layer="svg13094"
     inkscape:snap-global="false">
    <inkscape:grid
       type="xygrid"
       id="grid2983"
       empspacing="5"
       visible="true"
       enabled="true"
       snapvisiblegridlinesonly="true" />
  </sodipodi:namedview>
  <defs
     id="defs7" />
  <metadata
     id="metadata13099">
    <rdf:RDF>
      <cc:Work
         rdf:about="">
        <dc:format>image/svg+xml</dc:format>
        <dc:type
           rdf:resource="http://purl.org/dc/dcmitype/StillImage" />
        <dc:title />
      </cc:Work>
    </rdf:RDF>
  </metadata>
  <path
     id="path3321"
     d="m 9.999998,0.9999991 c -4.9705612,0 -8.9999983,4.0294376 -8.9999983,8.9999999 0,4.970563 4.0294372,9.000002 8.9999983,9.000002 C 14.970561,19.000001 19,14.970562 19,9.999999 19,5.0294367 14.970561,0.9999991 9.999998,0.9999991 z m 0.124264,2.2036042 c 0.237984,0.0936 0.475895,0.1972694 0.713875,0.2908377 0.03529,0.169038 -0.161506,0.4281721 -0.211519,0.6345555 -0.207918,0.3840559 -0.06282,0.2247803 0.18508,0.2115185 0.289612,0.133274 -0.132221,0.4197529 -0.2644,0.343718 C 10.375277,4.4190387 10.354431,4.4188489 9.992069,4.604914 9.660437,4.7758369 9.209765,4.7592065 9.066673,5.160149 8.967693,5.3806326 8.663322,5.598346 8.617197,5.239468 8.557785,5.0334364 8.249624,4.7809714 8.537877,4.6313525 8.762059,4.4691226 8.626096,4.1493065 8.379241,4.076117 8.241966,3.9356211 7.8033189,3.8293334 8.141281,3.6530799 8.006518,3.6458121 7.6173572,3.8290167 7.427406,3.891038 7.041521,3.8622808 7.6536962,3.9819175 7.7975649,3.9703575 7.9275844,4.1404948 8.028544,4.3872252 8.299921,4.4198341 8.035459,4.8667607 7.7186281,4.4353646 7.4009671,4.2611954 7.1628912,4.1110563 6.9410939,4.2616516 6.7928516,4.472714 6.8508584,4.42428 6.9328903,4.3982811 7.00437,4.3933946 c 0.1201933,-0.00821 0.2352365,0.06023 0.2643989,0.1850783 0.041737,0.318018 -0.3617228,0.079768 -0.5023563,-0.05288 -0.00491,0.0055 -0.021871,-0.0059 -0.02644,0 -0.03045,0.052059 -0.061662,0.1055486 -0.079319,0.1586388 C 6.4529599,4.8997508 6.2593097,4.6916776 6.4755746,4.446274 6.6761357,4.2956141 6.7820007,4.1238703 6.7135313,3.8645983 6.7998825,3.6126999 6.9102291,4.330533 7.00437,3.8117187 7.2657552,3.7817821 7.4664084,3.5293674 7.7446838,3.5208807 7.9886135,3.5144167 8.079825,3.2362249 8.352799,3.2829222 8.806396,3.3457762 8.069272,3.6964794 8.511438,3.5208807 9.035944,3.3482214 9.574893,3.2469704 10.124262,3.2036033 z M 13.2706,4.3669547 c 0.191974,0.07489 0.375327,0.1600185 0.581676,0.1850793 0.272476,-0.00668 0.530344,0.1291057 0.158638,0.2379574 -0.43423,-0.081028 -0.113917,0.1429255 0.05288,0.3172776 C 14.272286,5.13244 14.387345,4.475697 14.592589,4.8693108 15.77458,5.9618561 16.644254,7.413037 16.866412,9.02036 16.612078,9.531409 16.421005,8.697008 16.02034,8.914602 15.834892,8.823932 15.639567,8.407829 15.703062,8.861722 c -0.01482,0.220457 0.308485,0.306699 0.396597,0.475917 0.199738,-0.440287 0.422066,0.05236 0.370156,0.343716 -0.10624,0.257449 -0.37981,0.403523 -0.608115,0.555236 -0.330186,0.236649 -0.512966,0.498453 0.07932,0.317278 0.0215,0.35705 -0.216332,0.645113 -0.317278,0.978273 -0.250368,0.214242 -0.385362,0.517058 -0.502357,0.819634 -0.01819,0.382345 -0.06875,0.789539 0.05288,1.163351 -0.06743,0.242919 -0.414469,0.289844 -0.581675,0.475918 -0.402971,0.137009 0.313935,0.349475 0,0.502356 -0.3236,0.119053 -0.087,0.387179 -0.290838,0.555236 -0.182931,0.138786 -0.295218,0.482993 -0.555235,0.449477 -0.26633,-0.07764 -0.393986,0.264952 -0.660995,0.185078 0.01198,-0.402924 -0.08457,-0.818594 -0.237959,-1.189791 -0.191666,-0.410187 -0.233085,-0.908149 -0.02644,-1.321991 0.06211,-0.214886 -0.257001,-0.415441 -0.158639,-0.660995 0.108281,-0.263632 -0.15552,-0.387241 -0.211519,-0.581676 0.102832,-0.233523 0.143638,-0.480545 -0.105758,-0.634555 -0.258899,0.11315 -0.430093,-0.170059 -0.608115,-0.02644 -0.222972,0.329925 -0.339334,-0.182725 -0.528796,0.105758 -0.337998,0.333302 -0.7081,-0.499308 -0.925396,-0.766753 -0.04953,-0.212024 -0.310402,-0.450207 -0.07931,-0.634555 0.283015,-0.196923 -0.146347,-0.352122 0.07931,-0.581676 0.154129,-0.545348 0.593933,-0.903832 0.951834,-1.32199 0.417187,-0.113314 0.876869,-0.290515 1.295552,-0.105759 0.169439,0.143951 0.33507,0.397675 0.502355,0.475917 0.108485,-0.227063 0.378656,-0.231984 0.581677,-0.132199 0.211469,0.06799 0.507448,0.169356 0.687434,0 0.222343,-0.140177 0.35961,-0.354115 0.02643,-0.423038 -0.446041,0.180231 -0.557167,-0.564831 -0.872514,-0.423037 -0.01612,0.304725 -0.06198,0.505 -0.264398,0.158639 -0.03988,-0.230898 -0.121769,-0.475881 -0.370157,-0.555236 -0.17452,0.04854 0.38054,0.303223 0.105759,0.502357 C 12.64243,7.857953 12.793607,7.554452 12.768228,7.407528 12.52626,7.377158 12.444725,6.9715314 12.186553,7.11669 11.927581,7.11139 11.920085,7.364685 11.684196,7.433968 11.642976,7.697465 11.460337,7.864708 11.208282,7.936324 11.053591,7.723773 10.818653,7.799895 10.917444,7.460407 c -0.08781,-0.272598 0.232524,-0.399202 0.449475,-0.423036 0.338934,0.05799 -0.01878,-0.3542255 -0.105759,-0.4230375 0.239679,-0.015974 0.466743,-0.096148 0.581676,-0.3172769 -0.01355,-0.3553443 0.525967,-0.1068152 0.370157,-0.3701582 0.07588,-0.3319993 0.144456,-0.04837 0.264398,0.05288 0.250574,0.142868 0.434637,-7.141e-4 0.608116,-0.1850786 0.02769,-0.1863994 0.467808,-0.4516013 0.343718,-0.449476 -0.428764,0.2146127 -0.266708,-0.3235149 -0.132199,-0.5287961 -0.216876,-0.019274 -0.373388,0.2276844 -0.475918,0.3965971 0.06019,0.1655514 0.02779,0.530188 -0.132199,0.581675 C 12.468168,5.7522227 12.369205,5.3319338 12.160133,5.6096263 11.967676,5.855162 11.958227,5.2773349 12.001492,5.1865884 12.163626,5.0319329 12.520895,4.9929873 12.450971,4.7106719 12.684926,4.5061342 12.97435,4.4278 13.2706,4.3669547 z M 5.8938972,4.5255933 c 0.01583,-0.00127 0.011058,-2.96e-5 0.02644,0 0.2307049,4.594e-4 0.4215817,0.1471492 0.3172802,0.3965971 -0.191491,0.3425753 -0.6547038,0.4698773 -0.9518349,0.687435 0.00161,0.2917398 0.2807341,0.334156 0.5023565,0.4230369 0.1794234,0.115446 0.1140752,0.6092198 0.264399,0.1586389 C 6.120385,5.9413329 6.4832631,5.9934392 6.3962545,5.6889457 6.5304089,5.5301334 6.5986405,5.1048442 6.8457331,5.3716672 7.1589877,5.4295132 6.8049441,5.8640948 7.1894497,5.6096254 7.4850408,5.5516694 7.2667297,6.0759686 7.5067265,6.0591021 7.8099592,6.1386161 7.5433785,6.4359105 7.850443,6.5085789 7.6929464,6.8692517 7.6164055,6.7114057 7.5860466,6.4028197 7.35943,6.4899813 7.1452278,6.5676501 6.8986108,6.5350187 6.732084,6.6263289 6.2430211,6.7921947 6.6870923,6.7465372 6.9121556,6.7559878 7.3183091,6.6629451 7.00437,6.9580565 6.9042566,7.249185 6.4664421,7.006782 6.3698154,7.301774 6.2999384,7.584001 5.8888276,7.472284 5.8410202,7.75125 5.7924472,8.017684 5.5678947,8.179151 5.3651027,8.332926 5.0992621,8.466937 5.2429821,8.806663 5.1800232,9.046801 5.0296522,8.878594 4.9157986,8.636642 4.6512278,8.650204 4.4407475,8.618334 4.3769586,8.852099 4.0959902,8.808842 3.8860318,8.950641 3.6666407,9.081028 3.6993956,9.364078 c -0.046026,0.235489 0.05909,0.505281 0.3172777,0.502356 0.2115676,-0.138462 0.6251276,-0.616538 0.475914,0 -0.3136911,0.565511 0.438323,0.02278 0.2643998,0.502356 -0.059141,0.346568 0.4312532,0.677921 0.6081156,0.370158 0.188358,-0.124374 0.3757041,-0.464051 0.5816767,-0.185079 0.1819025,0.217602 0.4371232,0.180272 0.6874324,0.132199 0.1943069,0.01809 0.1796182,0.37328 0.290838,0.528796 0.2633717,0.01995 0.4628091,0.121558 0.5287986,0.396597 0.3331058,0.351434 0.8745936,0.479902 1.2955476,0.740315 -0.02931,0.230886 0.0027,0.490776 -0.18508,0.660995 -0.249593,0.208461 -0.108535,0.515569 -0.105758,0.793195 -0.116901,0.190054 -0.103293,0.524393 -0.396594,0.502356 -0.2294529,-0.0079 -0.4438596,0.30879 -0.2908381,0.502357 -0.1048173,0.209708 -0.1503174,0.462807 -0.2908385,0.634555 -0.3027405,7.27e-4 -0.3219573,0.260676 -0.5023563,0.423037 -0.047651,0.562855 -0.6885528,0.06498 -1.0047128,-0.158639 0.017886,-0.23725 0.089715,-0.498926 0.1321974,-0.740314 C 5.9869814,14.754289 5.9288773,14.526955 5.9732183,14.281883 6.0566666,13.979164 5.8159129,13.746769 5.6030593,13.568007 5.2994728,13.378449 5.1851132,13.050316 5.0213861,12.748373 4.8288171,12.542407 4.8817416,12.298807 4.9685065,12.060938 4.8651044,11.85095 5.1322801,11.723912 5.1535859,11.505702 5.2112628,11.332789 5.4374107,10.997079 5.1007063,11.029786 4.8684278,11.10979 4.6814877,10.845473 4.519033,10.712508 4.3735608,10.396803 3.9853229,10.466649 3.7258379,10.315911 3.4204171,10.155391 3.1339882,9.964117 3.0384021,9.602036 3.2193866,8.057611 3.8714354,6.5845115 4.9420692,5.4509866 5.1596692,4.9710571 5.7950504,5.0121331 5.8938972,4.5255933 z M 11.234739,5.107269 c 0.169636,0.0094 0.178889,0.2562556 0.264397,0.3965972 0.143504,0.2413392 0.38474,0.3712555 0.02643,0.5552359 -0.345151,0.1612304 -0.341641,-0.041035 -0.2644,-0.3172776 0.08615,-0.2521469 -0.150645,-0.3717479 -0.105759,-0.6081157 0.03175,-0.0093 0.05509,-0.027785 0.07931,-0.02644 z m -0.396598,0.3965972 c 0.01517,3.308e-4 0.03505,-0.00541 0.05288,0 0.0415,0.1749435 0.208665,0.3057499 -0.05288,0.3701573 -0.167081,0.1474757 -0.227588,-0.3751212 0,-0.3701573 z m 3.648695,3.2520958 c -0.153985,0.08249 -0.01543,0.21696 0,0.343718 0.14806,0.381245 0.457927,0.674074 0.528796,1.110472 -0.09677,0.332255 0.622471,0.569508 0.317276,0.237958 C 15.187805,10.271334 15.499347,10.036588 15.17427,9.892874 14.95542,9.509992 14.828998,9.059547 14.486836,8.755962 z"
     style="color:#000000;fill:#434a55;fill-opacity:0.6745119;fill-rule:nonzero;stroke:none;marker:none;visibility:visible;display:inline;overflow:visible;enable-background:accumulate"
     inkscape:connector-curvature="0"
     sodipodi:nodetypes="sssssccccccccccccccccccccccccccccccccccccccccccccccccccccccccccccccccccccccccccccccccccccccccccccccccccccccccccccccccccccccccccccccccccccccccccccccccsccscccccc" />
</svg>
