<?xml version="1.0" encoding="UTF-8" standalone="no"?>
<!-- Created with Inkscape (http://www.inkscape.org/) -->
<svg id="svg3215" xmlns:rdf="http://www.w3.org/1999/02/22-rdf-syntax-ns#" xmlns="http://www.w3.org/2000/svg" height="24" width="24" version="1.0" xmlns:cc="http://creativecommons.org/ns#" xmlns:dc="http://purl.org/dc/elements/1.1/">
 <metadata id="metadata10">
  <rdf:RDF>
   <cc:Work rdf:about="">
    <dc:format>image/svg+xml</dc:format>
    <dc:type rdf:resource="http://purl.org/dc/dcmitype/StillImage"/>
    <dc:title/>
   </cc:Work>
  </rdf:RDF>
 </metadata>
 <path id="rect2406-4" style="opacity:.3;stroke:#000;stroke-linecap:round;fill:none" d="m11.5 5.5h2c2.216 0 4 1.338 4 3v9c0 1.662-1.784 3-4 3h-2c-2.216 0-4-1.338-4-3v-9c0-1.662 1.784-3 4-3zm1.0419 0.000001v4"/>
 <g id="g3195" style="opacity:.3;stroke:#df382c">
  <path id="path3193" style="stroke-width:2;stroke:#df382c;stroke-linecap:round;fill:none" d="m12.5 5.3333v3.3333"/>
  <rect id="rect3236" style="stroke-width:0.5;stroke:#df382c;stroke-linecap:round;fill:none" transform="rotate(-90)" rx="2.3" ry="3.3001" height="8.5" width="13.5" y="8.25" x="-18.75"/>
 </g>
 <path id="rect2406" style="stroke:#df382c;stroke-linecap:round;fill:none" d="m11.5 4.5h2c2.216 0 4 1.338 4 3v9c0 1.662-1.784 3-4 3h-2c-2.216 0-4-1.338-4-3v-9c0-1.662 1.784-3 4-3zm1.0419 0.000001v4"/>
</svg>
