<?xml version="1.0" encoding="UTF-8" standalone="no"?>
<!-- Created with Inkscape (http://www.inkscape.org/) -->

<svg
   xmlns:dc="http://purl.org/dc/elements/1.1/"
   xmlns:cc="http://creativecommons.org/ns#"
   xmlns:rdf="http://www.w3.org/1999/02/22-rdf-syntax-ns#"
   xmlns:svg="http://www.w3.org/2000/svg"
   xmlns="http://www.w3.org/2000/svg"
   xmlns:sodipodi="http://sodipodi.sourceforge.net/DTD/sodipodi-0.dtd"
   xmlns:inkscape="http://www.inkscape.org/namespaces/inkscape"
   version="1.1"
   width="22"
   height="22"
   id="svg13094"
   inkscape:version="0.48.4 r9939"
   sodipodi:docname="gnome-fs-ftp.svg"
   inkscape:export-filename="folder.png"
   inkscape:export-xdpi="90"
   inkscape:export-ydpi="90">
  <sodipodi:namedview
     pagecolor="#ffffff"
     bordercolor="#666666"
     borderopacity="1"
     objecttolerance="10"
     gridtolerance="10"
     guidetolerance="10"
     inkscape:pageopacity="0"
     inkscape:pageshadow="2"
     inkscape:window-width="1301"
     inkscape:window-height="744"
     id="namedview6"
     showgrid="true"
     inkscape:snap-bbox="true"
     inkscape:bbox-paths="true"
     inkscape:bbox-nodes="true"
     inkscape:snap-bbox-edge-midpoints="true"
     inkscape:snap-bbox-midpoints="true"
     inkscape:object-paths="true"
     inkscape:snap-intersection-paths="true"
     inkscape:object-nodes="true"
     inkscape:snap-smooth-nodes="true"
     inkscape:snap-midpoints="true"
     inkscape:snap-object-midpoints="true"
     inkscape:snap-center="true"
     inkscape:zoom="29.5"
     inkscape:cx="5.1841866"
     inkscape:cy="12.543114"
     inkscape:window-x="65"
     inkscape:window-y="24"
     inkscape:window-maximized="1"
     inkscape:current-layer="svg13094"
     inkscape:snap-global="false">
    <inkscape:grid
       type="xygrid"
       id="grid2983"
       empspacing="5"
       visible="true"
       enabled="true"
       snapvisiblegridlinesonly="true" />
  </sodipodi:namedview>
  <defs
     id="defs7" />
  <metadata
     id="metadata13099">
    <rdf:RDF>
      <cc:Work
         rdf:about="">
        <dc:format>image/svg+xml</dc:format>
        <dc:type
           rdf:resource="http://purl.org/dc/dcmitype/StillImage" />
        <dc:title />
      </cc:Work>
    </rdf:RDF>
  </metadata>
  <path
     id="path3321"
     d="m 10.999998,1.9999991 c -4.9705612,0 -8.9999983,4.0294376 -8.9999983,8.9999999 0,4.970563 4.0294372,9.000002 8.9999983,9.000002 C 15.970561,20.000001 20,15.970562 20,10.999999 20,6.0294367 15.970561,1.9999991 10.999998,1.9999991 z m 0.124264,2.2036042 c 0.237984,0.0936 0.475895,0.1972694 0.713875,0.2908377 0.03529,0.169038 -0.161506,0.4281721 -0.211519,0.6345555 -0.207918,0.3840559 -0.06282,0.2247803 0.18508,0.2115185 0.289612,0.133274 -0.132221,0.4197529 -0.2644,0.343718 C 11.375277,5.4190387 11.354431,5.4188489 10.992069,5.604914 10.660437,5.7758369 10.209765,5.7592065 10.066673,6.160149 9.967693,6.3806326 9.663322,6.598346 9.617197,6.239468 9.557785,6.0334364 9.249624,5.7809714 9.537877,5.6313525 9.762059,5.4691226 9.626096,5.1493065 9.379241,5.076117 9.241966,4.9356211 8.8033189,4.8293334 9.141281,4.6530799 9.006518,4.6458121 8.6173572,4.8290167 8.427406,4.891038 8.041521,4.8622808 8.6536962,4.9819175 8.7975649,4.9703575 8.9275844,5.1404948 9.028544,5.3872252 9.299921,5.4198341 9.035459,5.8667607 8.7186281,5.4353646 8.4009671,5.2611954 8.1628912,5.1110563 7.9410939,5.2616516 7.7928516,5.472714 7.8508584,5.42428 7.9328903,5.3982811 8.00437,5.3933946 c 0.1201933,-0.00821 0.2352365,0.06023 0.2643989,0.1850783 0.041737,0.318018 -0.3617228,0.079768 -0.5023563,-0.05288 -0.00491,0.0055 -0.021871,-0.0059 -0.02644,0 -0.03045,0.052059 -0.061662,0.1055486 -0.079319,0.1586388 C 7.4529599,5.8997508 7.2593097,5.6916776 7.4755746,5.446274 7.6761357,5.2956141 7.7820007,5.1238703 7.7135313,4.8645983 7.7998825,4.6126999 7.9102291,5.330533 8.00437,4.8117187 8.2657552,4.7817821 8.4664084,4.5293674 8.7446838,4.5208807 8.9886135,4.5144167 9.079825,4.2362249 9.352799,4.2829222 9.806396,4.3457762 9.069272,4.6964794 9.511438,4.5208807 10.035944,4.3482214 10.574893,4.2469704 11.124262,4.2036033 z M 14.2706,5.3669547 c 0.191974,0.07489 0.375327,0.1600185 0.581676,0.1850793 0.272476,-0.00668 0.530344,0.1291057 0.158638,0.2379574 -0.43423,-0.081028 -0.113917,0.1429255 0.05288,0.3172776 0.208492,0.025171 0.323551,-0.631572 0.528795,-0.2379582 1.181991,1.0925453 2.051665,2.5437262 2.273823,4.1510492 -0.254334,0.511049 -0.445407,-0.323352 -0.846072,-0.105758 -0.185448,-0.09067 -0.380773,-0.506773 -0.317278,-0.05288 -0.01482,0.220457 0.308485,0.306699 0.396597,0.475917 0.199738,-0.440287 0.422066,0.05236 0.370156,0.343716 -0.10624,0.257449 -0.37981,0.403523 -0.608115,0.555236 -0.330186,0.236649 -0.512966,0.498453 0.07932,0.317278 0.0215,0.35705 -0.216332,0.645113 -0.317278,0.978273 -0.250368,0.214242 -0.385362,0.517058 -0.502357,0.819634 -0.01819,0.382345 -0.06875,0.789539 0.05288,1.163351 -0.06743,0.242919 -0.414469,0.289844 -0.581675,0.475918 -0.402971,0.137009 0.313935,0.349475 0,0.502356 -0.3236,0.119053 -0.087,0.387179 -0.290838,0.555236 -0.182931,0.138786 -0.295218,0.482993 -0.555235,0.449477 -0.26633,-0.07764 -0.393986,0.264952 -0.660995,0.185078 0.01198,-0.402924 -0.08457,-0.818594 -0.237959,-1.189791 -0.191666,-0.410187 -0.233085,-0.908149 -0.02644,-1.321991 0.06211,-0.214886 -0.257001,-0.415441 -0.158639,-0.660995 0.108281,-0.263632 -0.15552,-0.387241 -0.211519,-0.581676 0.102832,-0.233523 0.143638,-0.480545 -0.105758,-0.634555 -0.258899,0.11315 -0.430093,-0.170059 -0.608115,-0.02644 -0.222972,0.329925 -0.339334,-0.182725 -0.528796,0.105758 -0.337998,0.333302 -0.7081,-0.499308 -0.925396,-0.766753 -0.04953,-0.212024 -0.310402,-0.450207 -0.07931,-0.634555 0.283015,-0.196923 -0.146347,-0.352122 0.07931,-0.581676 0.154129,-0.545348 0.593933,-0.903832 0.951834,-1.32199 0.417187,-0.113314 0.876869,-0.290515 1.295552,-0.105759 0.169439,0.143951 0.33507,0.397675 0.502355,0.475917 0.108485,-0.227063 0.378656,-0.231984 0.581677,-0.132199 0.211469,0.06799 0.507448,0.169356 0.687434,0 0.222343,-0.140177 0.35961,-0.354115 0.02643,-0.423038 -0.446041,0.180231 -0.557167,-0.564831 -0.872514,-0.423037 -0.01612,0.304725 -0.06198,0.505 -0.264398,0.158639 -0.03988,-0.230898 -0.121769,-0.475881 -0.370157,-0.555236 -0.17452,0.04854 0.38054,0.303223 0.105759,0.502357 C 13.64243,8.857953 13.793607,8.554452 13.768228,8.407528 13.52626,8.377158 13.444725,7.9715314 13.186553,8.11669 12.927581,8.11139 12.920085,8.364685 12.684196,8.433968 12.642976,8.697465 12.460337,8.864708 12.208282,8.936324 12.053591,8.723773 11.818653,8.799895 11.917444,8.460407 c -0.08781,-0.272598 0.232524,-0.399202 0.449475,-0.423036 0.338934,0.05799 -0.01878,-0.3542255 -0.105759,-0.4230375 0.239679,-0.015974 0.466743,-0.096148 0.581676,-0.3172769 -0.01355,-0.3553443 0.525967,-0.1068152 0.370157,-0.3701582 0.07588,-0.3319993 0.144456,-0.04837 0.264398,0.05288 0.250574,0.142868 0.434637,-7.141e-4 0.608116,-0.1850786 0.02769,-0.1863994 0.467808,-0.4516013 0.343718,-0.449476 -0.428764,0.2146127 -0.266708,-0.3235149 -0.132199,-0.5287961 -0.216876,-0.019274 -0.373388,0.2276844 -0.475918,0.3965971 0.06019,0.1655514 0.02779,0.530188 -0.132199,0.581675 C 13.468168,6.7522227 13.369205,6.3319338 13.160133,6.6096263 12.967676,6.855162 12.958227,6.2773349 13.001492,6.1865884 13.163626,6.0319329 13.520895,5.9929873 13.450971,5.7106719 13.684926,5.5061342 13.97435,5.4278 14.2706,5.3669547 z M 6.8938972,5.5255933 c 0.01583,-0.00127 0.011058,-2.96e-5 0.02644,0 0.2307049,4.594e-4 0.4215817,0.1471492 0.3172802,0.3965971 -0.191491,0.3425753 -0.6547038,0.4698773 -0.9518349,0.687435 0.00161,0.2917398 0.2807341,0.334156 0.5023565,0.4230369 0.1794234,0.115446 0.1140752,0.6092198 0.264399,0.1586389 C 7.120385,6.9413329 7.4832631,6.9934392 7.3962545,6.6889457 7.5304089,6.5301334 7.5986405,6.1048442 7.8457331,6.3716672 8.1589877,6.4295132 7.8049441,6.8640948 8.1894497,6.6096254 8.4850408,6.5516694 8.2667297,7.0759686 8.5067265,7.0591021 8.8099592,7.1386161 8.5433785,7.4359105 8.850443,7.5085789 8.6929464,7.8692517 8.6164055,7.7114057 8.5860466,7.4028197 8.35943,7.4899813 8.1452278,7.5676501 7.8986108,7.5350187 7.732084,7.6263289 7.2430211,7.7921947 7.6870923,7.7465372 7.9121556,7.7559878 8.3183091,7.6629451 8.00437,7.9580565 7.9042566,8.249185 7.4664421,8.006782 7.3698154,8.301774 7.2999384,8.584001 6.8888276,8.472284 6.8410202,8.75125 6.7924472,9.017684 6.5678947,9.179151 6.3651027,9.332926 6.0992621,9.466937 6.2429821,9.806663 6.1800232,10.046801 6.0296522,9.878594 5.9157986,9.636642 5.6512278,9.650204 5.4407475,9.618334 5.3769586,9.852099 5.0959902,9.808842 4.8860318,9.950641 4.6666407,10.081028 4.6993956,10.364078 c -0.046026,0.235489 0.05909,0.505281 0.3172777,0.502356 0.2115676,-0.138462 0.6251276,-0.616538 0.475914,0 -0.3136911,0.565511 0.438323,0.02278 0.2643998,0.502356 -0.059141,0.346568 0.4312532,0.677921 0.6081156,0.370158 0.188358,-0.124374 0.3757041,-0.464051 0.5816767,-0.185079 0.1819025,0.217602 0.4371232,0.180272 0.6874324,0.132199 0.1943069,0.01809 0.1796182,0.37328 0.290838,0.528796 0.2633717,0.01995 0.4628091,0.121558 0.5287986,0.396597 0.3331058,0.351434 0.8745936,0.479902 1.2955476,0.740315 -0.02931,0.230886 0.0027,0.490776 -0.18508,0.660995 -0.249593,0.208461 -0.108535,0.515569 -0.105758,0.793195 -0.116901,0.190054 -0.103293,0.524393 -0.396594,0.502356 -0.2294529,-0.0079 -0.4438596,0.30879 -0.2908381,0.502357 -0.1048173,0.209708 -0.1503174,0.462807 -0.2908385,0.634555 -0.3027405,7.27e-4 -0.3219573,0.260676 -0.5023563,0.423037 -0.047651,0.562855 -0.6885528,0.06498 -1.0047128,-0.158639 0.017886,-0.23725 0.089715,-0.498926 0.1321974,-0.740314 C 6.9869814,15.754289 6.9288773,15.526955 6.9732183,15.281883 7.0566666,14.979164 6.8159129,14.746769 6.6030593,14.568007 6.2994728,14.378449 6.1851132,14.050316 6.0213861,13.748373 5.8288171,13.542407 5.8817416,13.298807 5.9685065,13.060938 5.8651044,12.85095 6.1322801,12.723912 6.1535859,12.505702 6.2112628,12.332789 6.4374107,11.997079 6.1007063,12.029786 5.8684278,12.10979 5.6814877,11.845473 5.519033,11.712508 5.3735608,11.396803 4.9853229,11.466649 4.7258379,11.315911 4.4204171,11.155391 4.1339882,10.964117 4.0384021,10.602036 4.2193866,9.057611 4.8714354,7.5845115 5.9420692,6.4509866 6.1596692,5.9710571 6.7950504,6.0121331 6.8938972,5.5255933 z M 12.234739,6.107269 c 0.169636,0.0094 0.178889,0.2562556 0.264397,0.3965972 0.143504,0.2413392 0.38474,0.3712555 0.02643,0.5552359 -0.345151,0.1612304 -0.341641,-0.041035 -0.2644,-0.3172776 0.08615,-0.2521469 -0.150645,-0.3717479 -0.105759,-0.6081157 0.03175,-0.0093 0.05509,-0.027785 0.07931,-0.02644 z m -0.396598,0.3965972 c 0.01517,3.308e-4 0.03505,-0.00541 0.05288,0 0.0415,0.1749435 0.208665,0.3057499 -0.05288,0.3701573 -0.167081,0.1474757 -0.227588,-0.3751212 0,-0.3701573 z m 3.648695,3.2520958 c -0.153985,0.08249 -0.01543,0.21696 0,0.343718 0.14806,0.381245 0.457927,0.674074 0.528796,1.110472 -0.09677,0.332255 0.622471,0.569508 0.317276,0.237958 -0.145103,-0.176776 0.166439,-0.411522 -0.158638,-0.555236 -0.21885,-0.382882 -0.345272,-0.833327 -0.687434,-1.136912 z"
     style="color:#000000;fill:#bdbdbd;fill-opacity:1;fill-rule:nonzero;stroke:none;marker:none;visibility:visible;display:inline;overflow:visible;enable-background:accumulate"
     inkscape:connector-curvature="0"
     sodipodi:nodetypes="sssssccccccccccccccccccccccccccccccccccccccccccccccccccccccccccccccccccccccccccccccccccccccccccccccccccccccccccccccccccccccccccccccccccccccccccccccccsccscccccc" />
</svg>
