<?xml version="1.0" encoding="UTF-8" standalone="no"?>
<!-- Created with Inkscape (http://www.inkscape.org/) -->

<svg
   xmlns:dc="http://purl.org/dc/elements/1.1/"
   xmlns:cc="http://creativecommons.org/ns#"
   xmlns:rdf="http://www.w3.org/1999/02/22-rdf-syntax-ns#"
   xmlns:svg="http://www.w3.org/2000/svg"
   xmlns="http://www.w3.org/2000/svg"
   xmlns:sodipodi="http://sodipodi.sourceforge.net/DTD/sodipodi-0.dtd"
   xmlns:inkscape="http://www.inkscape.org/namespaces/inkscape"
   width="48"
   height="48"
   id="svg2"
   version="1.1"
   inkscape:version="0.48.4 r9939"
   sodipodi:docname="applications-electronics.svg">
  <defs
     id="defs4" />
  <sodipodi:namedview
     id="base"
     pagecolor="#ffffff"
     bordercolor="#666666"
     borderopacity="1.0"
     inkscape:pageopacity="0.0"
     inkscape:pageshadow="2"
     inkscape:zoom="11.583333"
     inkscape:cx="23.608488"
     inkscape:cy="22.242079"
     inkscape:document-units="px"
     inkscape:current-layer="layer1"
     showgrid="true"
     inkscape:snap-bbox="true"
     inkscape:window-width="1301"
     inkscape:window-height="744"
     inkscape:window-x="65"
     inkscape:window-y="24"
     inkscape:window-maximized="1"
     inkscape:object-nodes="false"
     inkscape:snap-nodes="true"
     showguides="true"
     inkscape:guide-bbox="true">
    <inkscape:grid
       type="xygrid"
       id="grid3005"
       empspacing="6"
       visible="true"
       enabled="true"
       snapvisiblegridlinesonly="true" />
    <sodipodi:guide
       orientation="0,1"
       position="18,42"
       id="guide2989" />
    <sodipodi:guide
       orientation="0,1"
       position="17,6"
       id="guide2991" />
    <sodipodi:guide
       orientation="1,0"
       position="3,38"
       id="guide2993" />
    <sodipodi:guide
       orientation="1,0"
       position="45,33"
       id="guide2995" />
  </sodipodi:namedview>
  <metadata
     id="metadata7">
    <rdf:RDF>
      <cc:Work
         rdf:about="">
        <dc:format>image/svg+xml</dc:format>
        <dc:type
           rdf:resource="http://purl.org/dc/dcmitype/StillImage" />
        <dc:title />
      </cc:Work>
    </rdf:RDF>
  </metadata>
  <g
     inkscape:label="Layer 1"
     inkscape:groupmode="layer"
     id="layer1"
     transform="translate(0,-1004.3622)">
    <rect
       style="fill:#00897b;stroke:none;stroke-width:2;stroke-linecap:round;stroke-linejoin:round;stroke-miterlimit:4;stroke-opacity:1;stroke-dasharray:none;stroke-dashoffset:0"
       id="rect3828"
       width="42"
       height="36"
       x="3"
       y="6"
       transform="translate(0,1004.3622)" />
    <path
       style="font-size:medium;font-style:normal;font-variant:normal;font-weight:normal;font-stretch:normal;text-indent:0;text-align:start;text-decoration:none;line-height:normal;letter-spacing:normal;word-spacing:normal;text-transform:none;direction:ltr;block-progression:tb;writing-mode:lr-tb;text-anchor:start;baseline-shift:baseline;color:#000000;fill:#ffb74d;fill-opacity:1;stroke:none;stroke-width:2;marker:none;visibility:visible;display:inline;overflow:visible;enable-background:accumulate;font-family:Sans;-inkscape-font-specification:Sans"
       d="m 23,1010.3622 0,2 0,0.4063 0.28125,0.2812 2,2 0.3125,0.3125 0.40625,0 2,0 0.40625,0 0.3125,-0.3125 1.6875,-1.6875 5.59375,0 0.40625,0 0.3125,-0.3125 1,-1 0.28125,-0.2812 0,-0.4063 0,-1 -2,0 0,0.5625 -0.4375,0.4375 -5.5625,0 -0.40625,0 -0.3125,0.2813 -1.71875,1.7187 -1.125,0 -1.4375,-1.4375 0,-1.5625 -2,0 z m 17,0 0,6.5625 -1.4375,1.4375 -1.71875,0 c -0.447066,-1.7198 -1.990552,-3 -3.84375,-3 -1.853198,0 -3.396684,1.2802 -3.84375,3 l -5.15625,0 0,-2 0,-0.4375 -0.28125,-0.2812 -4,-4 -0.3125,-0.2813 -0.40625,0 -16,0 0,2 15.59375,0 3.40625,3.4063 0,2.5937 0,1 1,0 6.15625,0 c 0.447066,1.7198 1.990552,3 3.84375,3 1.853198,0 3.396684,-1.2802 3.84375,-3 l 2.15625,0 0.40625,0 0.3125,-0.3125 2,-2 0.28125,-0.2812 0,-0.4063 0,-7 -2,0 z m -25,5 c -1.853198,0 -3.396684,1.2802 -3.84375,3 l -1.15625,0 -0.40625,0 -0.3125,0.2813 -3.71875,3.7187 -2.5625,0 0,2 3,0 0.40625,0 0.3125,-0.3125 3.6875,-3.6875 0.75,0 c 0.447066,1.7198 1.990552,3 3.84375,3 2.197294,0 4,-1.8027 4,-4 0,-2.1973 -1.802706,-4 -4,-4 z m 0,2 c 1.116414,0 2,0.8836 2,2 0,1.1164 -0.883586,2 -2,2 -1.116414,0 -2,-0.8836 -2,-2 0,-1.1164 0.883586,-2 2,-2 z m 18,0 c 1.116414,0 2,0.8836 2,2 0,1.1164 -0.883586,2 -2,2 -1.116414,0 -2,-0.8836 -2,-2 0,-1.1164 0.883586,-2 2,-2 z m 5.59375,4 -0.3125,0.2813 -2.71875,2.7187 -24.5625,0 -0.40625,0 -0.3125,0.2813 -1.71875,1.7187 -5.5625,0 0,2 6,0 0.40625,0 0.3125,-0.3125 1.6875,-1.6875 24.59375,0 0.40625,0 0.3125,-0.3125 2.6875,-2.6875 5.59375,0 0,-2 -6,0 -0.40625,0 z m -21.59375,6 c -1.853198,0 -3.396684,1.2802 -3.84375,3 l -10.15625,0 0,2 10.15625,0 c 0.447066,1.7198 1.990552,3 3.84375,3 1.853198,0 3.396684,-1.2802 3.84375,-3 l 1.75,0 1.40625,1.4063 0,12.5937 2,0 0,-13 0,-0.4375 -0.28125,-0.2812 -2,-2 -0.3125,-0.2813 -0.40625,0 -2.15625,0 c -0.447066,-1.7198 -1.990552,-3 -3.84375,-3 z m 14,0 c -2.197294,0 -4,1.8027 -4,4 0,2.1973 1.802706,4 4,4 1.853198,0 3.396684,-1.2802 3.84375,-3 l 5.15625,0 0.40625,0 0.3125,-0.3125 2.6875,-2.6875 1.59375,0 0,-2 -2,0 -0.40625,0 -0.3125,0.2813 -2.71875,2.7187 -4.71875,0 c -0.447066,-1.7198 -1.990552,-3 -3.84375,-3 z m -14,2 c 1.116414,0 2,0.8836 2,2 0,1.1164 -0.883586,2 -2,2 -1.116414,0 -2,-0.8836 -2,-2 0,-1.1164 0.883586,-2 2,-2 z m 14,0 c 1.116414,0 2,0.8836 2,2 0,1.1164 -0.883586,2 -2,2 -1.116414,0 -2,-0.8836 -2,-2 0,-1.1164 0.883586,-2 2,-2 z m 12.59375,2 -0.3125,0.2813 -2.71875,2.7187 -3.5625,0 -0.40625,0 -0.3125,0.2813 -1.96875,1.9687 c -0.411571,-0.1444 -0.853705,-0.25 -1.3125,-0.25 -2.197294,0 -4,1.8027 -4,4 0,2.1973 1.802706,4 4,4 1.853198,0 3.396684,-1.2802 3.84375,-3 l 2.75,0 2.6875,2.6875 0.3125,0.3125 0.40625,0 2,0 0,-2 -1.5625,0 -2.71875,-2.7187 -0.3125,-0.2813 -0.40625,0 -3.15625,0 c -0.157436,-0.6056 -0.444067,-1.1335 -0.84375,-1.5937 l 1.40625,-1.4063 3.59375,0 0.40625,0 0.3125,-0.3125 2.6875,-2.6875 0.59375,0 0,-2 -1,0 -0.40625,0 z m -40.59375,5 0,2 2.59375,0 2.6875,2.6875 0.3125,0.3125 0.40625,0 2.15625,0 c 0.364056,1.4005 1.443243,2.4797 2.84375,2.8438 l 0,2.1562 2,0 0,-2.1562 c 1.719842,-0.4471 3,-1.9906 3,-3.8438 0,-2.1973 -1.802706,-4 -4,-4 -1.853198,0 -3.396684,1.2802 -3.84375,3 l -1.71875,0 -2.71875,-2.7187 -0.3125,-0.2813 -0.40625,0 -3,0 z m 12,2 c 1.116414,0 2,0.8836 2,2 0,1.1164 -0.883586,2 -2,2 -1.116414,0 -2,-0.8836 -2,-2 0,-1.1164 0.883586,-2 2,-2 z m 18,0 c 1.116414,0 2,0.8836 2,2 0,1.1164 -0.883586,2 -2,2 -1.116414,0 -2,-0.8836 -2,-2 0,-1.1164 0.883586,-2 2,-2 z"
       id="path2996"
       inkscape:connector-curvature="0" />
    <path
       sodipodi:type="arc"
       style="fill:#212121;fill-opacity:1;stroke:none"
       id="path3921"
       sodipodi:cx="15"
       sodipodi:cy="15"
       sodipodi:rx="2"
       sodipodi:ry="2"
       d="m 17,15 a 2,2 0 1 1 -4,0 2,2 0 1 1 4,0 z"
       transform="translate(0,1004.3622)" />
    <path
       sodipodi:type="arc"
       style="fill:#212121;fill-opacity:1;stroke:none"
       id="path3923"
       sodipodi:cx="33"
       sodipodi:cy="15"
       sodipodi:rx="2"
       sodipodi:ry="2"
       d="m 35,15 a 2,2 0 1 1 -4,0 2,2 0 1 1 4,0 z"
       transform="translate(0,1004.3622)" />
    <path
       sodipodi:type="arc"
       style="fill:#212121;fill-opacity:1;stroke:none"
       id="path3925"
       sodipodi:cx="17"
       sodipodi:cy="27"
       sodipodi:rx="2"
       sodipodi:ry="2"
       d="m 19,27 a 2,2 0 1 1 -4,0 2,2 0 1 1 4,0 z"
       transform="translate(0,1004.3622)" />
    <path
       sodipodi:type="arc"
       style="fill:#212121;fill-opacity:1;stroke:none"
       id="path3927"
       sodipodi:cx="31"
       sodipodi:cy="27"
       sodipodi:rx="2"
       sodipodi:ry="2"
       d="m 33,27 a 2,2 0 1 1 -4,0 2,2 0 1 1 4,0 z"
       transform="translate(0,1004.3622)" />
    <path
       sodipodi:type="arc"
       style="fill:#212121;fill-opacity:1;stroke:none"
       id="path3929"
       sodipodi:cx="33"
       sodipodi:cy="36"
       sodipodi:rx="2"
       sodipodi:ry="2"
       d="m 35,36 a 2,2 0 1 1 -4,0 2,2 0 1 1 4,0 z"
       transform="translate(0,1004.3622)" />
    <path
       sodipodi:type="arc"
       style="fill:#212121;fill-opacity:1;stroke:none"
       id="path3931"
       sodipodi:cx="15"
       sodipodi:cy="36"
       sodipodi:rx="2"
       sodipodi:ry="2"
       d="m 17,36 a 2,2 0 1 1 -4,0 2,2 0 1 1 4,0 z"
       transform="translate(0,1004.3622)" />
    <path
       style="fill:#000000;stroke:none;fill-opacity:1;opacity:0.1"
       d="M 45 7 L 45 42 L 4 42 L 4 43 L 45 43 L 46 43 L 46 42 L 46 7 L 45 7 z "
       transform="translate(0,1004.3622)"
       id="rect3933" />
  </g>
</svg>
