<?xml version="1.0" encoding="UTF-8" standalone="no"?>
<!-- Created with Inkscape (http://www.inkscape.org/) -->

<svg
   xmlns:dc="http://purl.org/dc/elements/1.1/"
   xmlns:cc="http://creativecommons.org/ns#"
   xmlns:rdf="http://www.w3.org/1999/02/22-rdf-syntax-ns#"
   xmlns:svg="http://www.w3.org/2000/svg"
   xmlns="http://www.w3.org/2000/svg"
   xmlns:sodipodi="http://sodipodi.sourceforge.net/DTD/sodipodi-0.dtd"
   xmlns:inkscape="http://www.inkscape.org/namespaces/inkscape"
   width="48"
   height="48"
   id="svg2"
   version="1.1"
   inkscape:version="0.48.4 r9939"
   sodipodi:docname="applications-python.svg">
  <defs
     id="defs4" />
  <sodipodi:namedview
     id="base"
     pagecolor="#ffffff"
     bordercolor="#666666"
     borderopacity="1.0"
     inkscape:pageopacity="0.0"
     inkscape:pageshadow="2"
     inkscape:zoom="8.1906533"
     inkscape:cx="2.8297367"
     inkscape:cy="22.483782"
     inkscape:document-units="px"
     inkscape:current-layer="layer1"
     showgrid="true"
     inkscape:snap-bbox="true"
     inkscape:window-width="1301"
     inkscape:window-height="744"
     inkscape:window-x="65"
     inkscape:window-y="24"
     inkscape:window-maximized="1"
     inkscape:object-nodes="false"
     inkscape:snap-nodes="false"
     showguides="true"
     inkscape:guide-bbox="true">
    <inkscape:grid
       type="xygrid"
       id="grid3005"
       empspacing="6"
       visible="true"
       enabled="true"
       snapvisiblegridlinesonly="true" />
    <sodipodi:guide
       orientation="0,1"
       position="18,42"
       id="guide2989" />
    <sodipodi:guide
       orientation="0,1"
       position="17,6"
       id="guide2991" />
    <sodipodi:guide
       orientation="1,0"
       position="3,38"
       id="guide2993" />
    <sodipodi:guide
       orientation="1,0"
       position="45,33"
       id="guide2995" />
  </sodipodi:namedview>
  <metadata
     id="metadata7">
    <rdf:RDF>
      <cc:Work
         rdf:about="">
        <dc:format>image/svg+xml</dc:format>
        <dc:type
           rdf:resource="http://purl.org/dc/dcmitype/StillImage" />
        <dc:title />
      </cc:Work>
    </rdf:RDF>
  </metadata>
  <g
     inkscape:label="Layer 1"
     inkscape:groupmode="layer"
     id="layer1"
     transform="translate(0,-1004.3622)">
    <path
       style="opacity:0.1;fill:#000000;fill-opacity:1;stroke:none"
       d="M 31.4375 8.40625 C 31.900378 9.0591648 32.1875 9.8366625 32.1875 10.6875 L 32.1875 18.65625 C 32.1875 20.99405 30.309528 22.9375 27.9375 22.9375 L 20.21875 23.3125 C 17.325571 23.3125 14.34375 25.8615 14.34375 28.625 L 14.09375 31.9375 L 11.15625 31.9375 C 10.226468 31.9375 9.4320736 31.692666 8.78125 31.25 C 9.575133 32.289806 10.673188 32.9375 12.15625 32.9375 L 15.09375 32.9375 L 15.34375 29.625 C 15.34375 26.8615 18.325571 24.3125 21.21875 24.3125 L 28.9375 23.9375 C 30.988984 23.9375 32.645386 22.467737 33.0625 20.5625 C 33.06551 20.541777 33.090958 20.520869 33.09375 20.5 C 33.128716 20.238684 33.15625 19.971015 33.15625 19.6875 L 33.1875 19.53125 L 33.1875 11.6875 C 33.1875 10.330359 32.489325 9.1941797 31.4375 8.40625 z M 19.3125 8.4375 C 18.454458 8.4375 17.75 9.13205 17.75 9.96875 C 17.75 10.629342 18.198442 11.198455 18.8125 11.40625 C 18.770441 11.270516 18.75 11.118068 18.75 10.96875 C 18.75 10.13205 19.454458 9.4375 20.3125 9.4375 C 20.465684 9.4375 20.611151 9.458586 20.75 9.5 C 20.556864 8.8912545 20.000046 8.4375 19.3125 8.4375 z M 16.15625 13.34375 L 16.15625 14.34375 L 23.6875 14.34375 L 23.6875 13.34375 L 16.15625 13.34375 z M 40.21875 17.46875 C 40.723182 18.175647 41.088143 19.05002 41.34375 20.0625 C 42.194809 23.4268 42.232638 25.97115 41.34375 28.59375 C 40.483238 31.14115 39.568127 32.6875 37.09375 32.6875 L 33.5 32.6875 L 32.84375 32.6875 L 24.34375 32.6875 L 24.34375 34.03125 L 25.34375 34.03125 L 25.34375 33.6875 L 33.84375 33.6875 L 34.5 33.6875 L 38.09375 33.6875 C 40.568127 33.6875 41.483238 32.14115 42.34375 29.59375 C 43.232638 26.97115 43.194809 24.4268 42.34375 21.0625 C 41.943138 19.475648 41.306706 18.180072 40.21875 17.46875 z M 32.84375 35.03125 L 32.84375 37.09375 C 32.84375 39.50985 30.705913 40.7647 28.5625 41.375 C 25.337928 42.2951 22.757527 42.1542 20.0625 41.375 C 19.08547 41.092387 18.17765 40.654304 17.4375 40.09375 C 18.200415 41.203073 19.573789 41.94438 21.0625 42.375 C 23.757527 43.1542 26.337928 43.2951 29.5625 42.375 C 31.705913 41.7647 33.84375 40.50985 33.84375 38.09375 L 33.84375 35.03125 L 32.84375 35.03125 z M 28.6875 35.65625 C 27.808072 35.65625 27.09375 36.3707 27.09375 37.25 C 27.09375 37.955553 27.55484 38.541563 28.1875 38.75 C 28.1344 38.591039 28.09375 38.427147 28.09375 38.25 C 28.09375 37.3707 28.808072 36.65625 29.6875 36.65625 C 29.864624 36.65625 30.028547 36.696892 30.1875 36.75 C 29.976343 36.114759 29.392959 35.65625 28.6875 35.65625 z "
       transform="translate(0,1004.3622)"
       id="path3107" />
    <path
       inkscape:connector-curvature="0"
       style="fill:#ffa000;fill-opacity:1;stroke:none"
       d="m 33.903147,1020.2245 -0.7567,3.8364 c 0,2.8824 -1.849649,4.6496 -4.683361,4.6496 l -8.385058,0.5211 c -2.329394,0 -4.253883,1.9595 -4.253883,4.2534 l 0,7.9855 c 0,2.2689 2.003292,3.6024 4.253883,4.2534 2.695027,0.7792 5.262742,0.9201 8.487314,0 2.143413,-0.6103 4.274335,-1.8373 4.274335,-4.2534 l 0,-3.0857 -8.507766,0 0,-1.3344 8.507766,0 0.654443,0 3.59944,0 c 2.474377,0 3.393371,-1.5392 4.253883,-4.0866 0.888888,-2.6226 0.851059,-5.1633 0,-8.5276 -0.611501,-2.4222 -1.776352,-4.2117 -4.253883,-4.2117 l -3.190413,0 z m -5.215097,19.7865 c 0.882583,0 1.595207,0.7261 1.595207,1.6054 0,0.8827 -0.712624,1.5847 -1.595207,1.5847 -0.879428,0 -1.595206,-0.702 -1.595206,-1.5847 0,-0.8793 0.715778,-1.6054 1.595206,-1.6054 z"
       id="path2732" />
    <path
       inkscape:connector-curvature="0"
       style="fill:#1565c0;fill-opacity:1;stroke:none"
       d="m 23.493405,1010.3625 c -1.458435,0 -2.864774,0.1205 -4.090272,0.3337 -3.610163,0.6259 -4.253883,1.9415 -4.253883,4.3576 l 0.02045,2.6479 8.507766,0 0,1.3344 -8.507766,0 -0.654444,0 -2.556419,0 c -2.4794167,0 -4.6791786,1.7421 -5.3582576,4.5244 -0.7833053,3.189 -0.8180484,5.1561 0,8.486 0.6064335,2.4786 2.0607851,4.2533 4.5402026,4.2533 l 2.944996,0 0.245416,-3.3151 c 0,-2.7635 2.996813,-5.296 5.889992,-5.296 l 7.710162,-0.396 c 2.372028,0 4.253883,-1.9365 4.253883,-4.2743 l 0,-7.9646 c 0,-2.2689 -1.938711,-3.9789 -4.253883,-4.3576 -1.465548,-0.2394 -2.979508,-0.3404 -4.437945,-0.3337 z m -4.172077,2.4394 c 0.854979,0 1.5134,0.6855 1.5134,1.5222 0,0.8334 -0.658421,1.5219 -1.5134,1.5219 -0.858042,0 -1.574755,-0.6885 -1.574755,-1.5219 0,-0.8367 0.716713,-1.5222 1.574755,-1.5222 z"
       id="path2730" />
  </g>
</svg>
