<?xml version="1.0" encoding="UTF-8" standalone="no"?>
<!-- Created with Inkscape (http://www.inkscape.org/) -->

<svg
   xmlns:dc="http://purl.org/dc/elements/1.1/"
   xmlns:cc="http://creativecommons.org/ns#"
   xmlns:rdf="http://www.w3.org/1999/02/22-rdf-syntax-ns#"
   xmlns:svg="http://www.w3.org/2000/svg"
   xmlns="http://www.w3.org/2000/svg"
   xmlns:sodipodi="http://sodipodi.sourceforge.net/DTD/sodipodi-0.dtd"
   xmlns:inkscape="http://www.inkscape.org/namespaces/inkscape"
   width="48"
   height="48"
   id="svg2"
   version="1.1"
   inkscape:version="0.48.4 r9939"
   sodipodi:docname="applications-fonts.svg">
  <defs
     id="defs4" />
  <sodipodi:namedview
     id="base"
     pagecolor="#ffffff"
     bordercolor="#666666"
     borderopacity="1.0"
     inkscape:pageopacity="0.0"
     inkscape:pageshadow="2"
     inkscape:zoom="8.1906533"
     inkscape:cx="5.2708437"
     inkscape:cy="28.561142"
     inkscape:document-units="px"
     inkscape:current-layer="layer1"
     showgrid="true"
     inkscape:snap-bbox="true"
     inkscape:window-width="1301"
     inkscape:window-height="744"
     inkscape:window-x="65"
     inkscape:window-y="24"
     inkscape:window-maximized="1"
     inkscape:object-nodes="false"
     inkscape:snap-nodes="false"
     showguides="true"
     inkscape:guide-bbox="true">
    <inkscape:grid
       type="xygrid"
       id="grid3005"
       empspacing="6"
       visible="true"
       enabled="true"
       snapvisiblegridlinesonly="true" />
    <sodipodi:guide
       orientation="0,1"
       position="18,42"
       id="guide2989" />
    <sodipodi:guide
       orientation="0,1"
       position="17,6"
       id="guide2991" />
    <sodipodi:guide
       orientation="1,0"
       position="3,38"
       id="guide2993" />
    <sodipodi:guide
       orientation="1,0"
       position="45,33"
       id="guide2995" />
  </sodipodi:namedview>
  <metadata
     id="metadata7">
    <rdf:RDF>
      <cc:Work
         rdf:about="">
        <dc:format>image/svg+xml</dc:format>
        <dc:type
           rdf:resource="http://purl.org/dc/dcmitype/StillImage" />
        <dc:title />
      </cc:Work>
    </rdf:RDF>
  </metadata>
  <g
     inkscape:label="Layer 1"
     inkscape:groupmode="layer"
     id="layer1"
     transform="translate(0,-1004.3622)">
    <g
       id="g3010"
       transform="translate(1,1)"
       style="fill:#000000;fill-opacity:1;opacity:0.1">
      <path
         style="font-size:38.22209549000000095px;font-style:normal;font-weight:normal;text-align:center;line-height:100%;letter-spacing:0px;word-spacing:0px;text-anchor:middle;fill:#000000;fill-opacity:1;stroke:none;font-family:Sans"
         d="M 13.6875,1014.3622 3,1042.9738 l 3.1875,0 3.34375,-9.0625 10.84375,0 3.34375,9.0625 3.28125,0 -10.65625,-28.6116 z m 1.28125,3.625 c 0.431896,1.6241 0.874009,2.9931 1.28125,4.1105 l 3.125,8.8359 -8.75,0 3.1875,-8.8359 c 0.505938,-1.4942 0.884753,-2.8632 1.15625,-4.1105 z"
         id="path3012"
         inkscape:connector-curvature="0"
         sodipodi:nodetypes="ccccccccccccccc" />
      <path
         inkscape:connector-curvature="0"
         id="path3014"
         d="m 37.875,1021.2562 c -1.197013,0 -2.396755,0.1607 -3.59375,0.4855 -1.184669,0.3248 -2.281696,0.7877 -3.28125,1.3593 l 0.9375,2.4599 c 2.134854,-1.0914 4.059378,-1.6183 5.75,-1.6183 1.505497,0 2.602524,0.392 3.28125,1.1975 0.691039,0.7926 1.031235,2.0137 1.03125,3.6897 l 0,1.327 -3.4375,0.1295 c -6.552671,0.2079 -9.843752,2.4833 -9.84375,6.7969 -2e-6,2.0139 0.583446,3.5369 1.71875,4.6283 1.147637,1.0914 2.707285,1.6507 4.71875,1.6507 1.505499,0 2.78168,-0.2443 3.78125,-0.7121 1.011886,-0.4807 2.019337,-1.3804 3.03125,-2.7187 l 0.15625,0 0.59375,3.0424 2.28125,0 0,-14.5647 c -1.8e-5,-2.4946 -0.577695,-4.3071 -1.75,-5.4375 -1.159997,-1.1304 -2.956327,-1.7154 -5.375,-1.7154 z m 4.0625,11.1986 0,1.942 c -1.5e-5,1.9879 -0.557983,3.524 -1.65625,4.6283 -1.085953,1.1044 -2.587274,1.6831 -4.5,1.6831 -1.209351,0 -2.165044,-0.328 -2.84375,-0.9386 -0.666378,-0.6107 -1.000005,-1.4847 -1,-2.6541 -5e-6,-1.4941 0.551394,-2.5997 1.625,-3.3013 1.085933,-0.7146 2.837874,-1.1066 5.28125,-1.1975 z"
         style="font-size:38.22209549000000095px;font-style:normal;font-weight:normal;text-align:center;line-height:100%;letter-spacing:0px;word-spacing:0px;text-anchor:middle;fill:#000000;fill-opacity:1;stroke:none;font-family:Sans"
         sodipodi:nodetypes="scccscsccscscccccscscscscsccc" />
    </g>
    <g
       id="g3006">
      <path
         sodipodi:nodetypes="ccccccccccccccc"
         inkscape:connector-curvature="0"
         id="text2999"
         d="M 13.6875,1014.3622 3,1042.9738 l 3.1875,0 3.34375,-9.0625 10.84375,0 3.34375,9.0625 3.28125,0 -10.65625,-28.6116 z m 1.28125,3.625 c 0.431896,1.6241 0.874009,2.9931 1.28125,4.1105 l 3.125,8.8359 -8.75,0 3.1875,-8.8359 c 0.505938,-1.4942 0.884753,-2.8632 1.15625,-4.1105 z"
         style="font-size:38.22209549000000095px;font-style:normal;font-weight:normal;text-align:center;line-height:100%;letter-spacing:0px;word-spacing:0px;text-anchor:middle;fill:#1565c0;fill-opacity:1;stroke:none;font-family:Sans" />
      <path
         sodipodi:nodetypes="scccscsccscscccccscscscscsccc"
         style="font-size:38.22209549000000095px;font-style:normal;font-weight:normal;text-align:center;line-height:100%;letter-spacing:0px;word-spacing:0px;text-anchor:middle;fill:#e65100;fill-opacity:1;stroke:none;font-family:Sans"
         d="m 37.875,1021.2562 c -1.197013,0 -2.396755,0.1607 -3.59375,0.4855 -1.184669,0.3248 -2.281696,0.7877 -3.28125,1.3593 l 0.9375,2.4599 c 2.134854,-1.0914 4.059378,-1.6183 5.75,-1.6183 1.505497,0 2.602524,0.392 3.28125,1.1975 0.691039,0.7926 1.031235,2.0137 1.03125,3.6897 l 0,1.327 -3.4375,0.1295 c -6.552671,0.2079 -9.843752,2.4833 -9.84375,6.7969 -2e-6,2.0139 0.583446,3.5369 1.71875,4.6283 1.147637,1.0914 2.707285,1.6507 4.71875,1.6507 1.505499,0 2.78168,-0.2443 3.78125,-0.7121 1.011886,-0.4807 2.019337,-1.3804 3.03125,-2.7187 l 0.15625,0 0.59375,3.0424 2.28125,0 0,-14.5647 c -1.8e-5,-2.4946 -0.577695,-4.3071 -1.75,-5.4375 -1.159997,-1.1304 -2.956327,-1.7154 -5.375,-1.7154 z m 4.0625,11.1986 0,1.942 c -1.5e-5,1.9879 -0.557983,3.524 -1.65625,4.6283 -1.085953,1.1044 -2.587274,1.6831 -4.5,1.6831 -1.209351,0 -2.165044,-0.328 -2.84375,-0.9386 -0.666378,-0.6107 -1.000005,-1.4847 -1,-2.6541 -5e-6,-1.4941 0.551394,-2.5997 1.625,-3.3013 1.085933,-0.7146 2.837874,-1.1066 5.28125,-1.1975 z"
         id="path3004"
         inkscape:connector-curvature="0" />
    </g>
  </g>
</svg>
