<?xml version="1.0" encoding="UTF-8" standalone="no"?>
<!-- Created with Inkscape (http://www.inkscape.org/) -->

<svg
   xmlns:dc="http://purl.org/dc/elements/1.1/"
   xmlns:cc="http://creativecommons.org/ns#"
   xmlns:rdf="http://www.w3.org/1999/02/22-rdf-syntax-ns#"
   xmlns:svg="http://www.w3.org/2000/svg"
   xmlns="http://www.w3.org/2000/svg"
   xmlns:xlink="http://www.w3.org/1999/xlink"
   xmlns:sodipodi="http://sodipodi.sourceforge.net/DTD/sodipodi-0.dtd"
   xmlns:inkscape="http://www.inkscape.org/namespaces/inkscape"
   width="48"
   height="48"
   id="svg2"
   version="1.1"
   inkscape:version="0.48.4 r9939"
   sodipodi:docname="preferences-desktop (copy).svg">
  <defs
     id="defs4">
    <linearGradient
       id="linearGradient3763">
      <stop
         style="stop-color:#e0e0e0;stop-opacity:1;"
         offset="0"
         id="stop3765" />
      <stop
         style="stop-color:#f3f3f3;stop-opacity:1;"
         offset="1"
         id="stop3767" />
    </linearGradient>
    <linearGradient
       inkscape:collect="always"
       xlink:href="#linearGradient3763"
       id="linearGradient3769"
       x1="24"
       y1="1050.3622"
       x2="24"
       y2="1006.3622"
       gradientUnits="userSpaceOnUse" />
    <clipPath
       clipPathUnits="userSpaceOnUse"
       id="clipPath3821">
      <path
         sodipodi:nodetypes="zzzzz"
         inkscape:connector-curvature="0"
         id="path3823"
         d="m -36,1006.3622 c -24,0 -24,0 -24,22 0,22 0,22 24,22 24,0 24,0 24,-22 0,-22 0,-22 -24,-22 z"
         style="fill:url(#linearGradient3825);fill-opacity:1;stroke:none" />
    </clipPath>
    <linearGradient
       inkscape:collect="always"
       xlink:href="#linearGradient3763"
       id="linearGradient3825"
       gradientUnits="userSpaceOnUse"
       gradientTransform="translate(-60,0)"
       x1="24"
       y1="1050.3622"
       x2="24"
       y2="1006.3622" />
  </defs>
  <sodipodi:namedview
     id="base"
     pagecolor="#ffffff"
     bordercolor="#666666"
     borderopacity="1.0"
     inkscape:pageopacity="0.0"
     inkscape:pageshadow="2"
     inkscape:zoom="5.7916665"
     inkscape:cx="1.6402895"
     inkscape:cy="22.368215"
     inkscape:document-units="px"
     inkscape:current-layer="layer1"
     showgrid="true"
     inkscape:snap-bbox="true"
     inkscape:window-width="1301"
     inkscape:window-height="744"
     inkscape:window-x="65"
     inkscape:window-y="24"
     inkscape:window-maximized="1"
     inkscape:object-nodes="true"
     showguides="true"
     inkscape:guide-bbox="true"
     inkscape:snap-nodes="false"
     inkscape:snap-global="true">
    <inkscape:grid
       type="xygrid"
       id="grid3003"
       empspacing="6"
       visible="true"
       enabled="true"
       snapvisiblegridlinesonly="true" />
  </sodipodi:namedview>
  <metadata
     id="metadata7">
    <rdf:RDF>
      <cc:Work
         rdf:about="">
        <dc:format>image/svg+xml</dc:format>
        <dc:type
           rdf:resource="http://purl.org/dc/dcmitype/StillImage" />
        <dc:title />
      </cc:Work>
    </rdf:RDF>
  </metadata>
  <g
     inkscape:label="Layer 1"
     inkscape:groupmode="layer"
     id="layer1"
     transform="translate(0,-1004.3622)">
    <path
       id="path3788"
       d="m 24,1051.1116 c -21.2715315,0 -23.66257505,-0.089 -23.9375,-15.4063 0.328125,14.4033 2.9375,14.4063 23.9375,14.4063 21,0 23.609375,0 23.9375,-14.4063 -0.274925,15.3174 -2.665968,15.4063 -23.9375,15.4063 z"
       style="opacity:0.20000000000000001;fill:#ffffff;fill-opacity:1;stroke:none"
       inkscape:connector-curvature="0" />
    <path
       style="fill:url(#linearGradient3769);fill-opacity:1;stroke:none"
       d="m 24,1006.3622 c -24,0 -24,0 -24,22 0,22 0,22 24,22 24,0 24,0 24,-22 0,-22 0,-22 -24,-22 z"
       id="path3757"
       inkscape:connector-curvature="0"
       sodipodi:nodetypes="zzzzz" />
    <path
       style="fill:#000000;fill-opacity:1;stroke:none;opacity:0.20000000000000001"
       d="M 24 2 C 2.7284685 2 0.33742495 2.0888436 0.0625 17.40625 C 0.390625 3.0029297 3 3 24 3 C 45 3 47.609375 3.0029297 47.9375 17.40625 C 47.662575 2.0888436 45.271532 2 24 2 z "
       transform="translate(0,1004.3622)"
       id="path3770" />
    <g
       id="g3813"
       transform="translate(-47.998,993.3622)" />
    <g
       id="g3038"
       transform="translate(-50.335,1008.7072)" />
    <g
       id="g3041"
       transform="translate(-51.97,1003.7612)" />
    <g
       id="g3814"
       clip-path="url(#clipPath3821)"
       transform="translate(60,0)">
      <g
         transform="translate(-65,2)"
         id="g3829">
        <path
           style="fill:#1e88e5;fill-opacity:1;stroke:none"
           d="m 25.134926,1010.7341 -0.05605,4.2407 c -0.827418,0.2939 -1.610285,0.6569 -2.334334,1.1097 l -3.319728,-2.5839 -1.533488,1.308 2.094932,3.6745 c -0.567764,0.6647 -1.057447,1.3831 -1.468681,2.1545 l -4.185937,-0.6071 -0.657088,1.9055 3.618442,2.1457 c -0.156887,0.8394 -0.208698,1.7008 -0.17985,2.5784 l -3.926817,1.602 0.371961,1.9651 4.240659,0.056 c 0.293878,0.8274 0.656919,1.6103 1.109751,2.3343 l -2.583927,3.3197 1.308019,1.5335 3.674491,-2.0949 c 0.664719,0.5678 1.38306,1.0575 2.154484,1.4687 l -0.607089,4.1859 1.905449,0.6571 2.145726,-3.6184 c 0.839459,0.1569 1.70085,0.2087 2.578433,0.1798 l 1.60201,3.9268 1.965107,-0.3719 0.05605,-4.2407 c 0.827418,-0.2939 1.610285,-0.6569 2.334334,-1.1097 l 3.319728,2.5839 1.533488,-1.308 -2.094932,-3.6745 c 0.567764,-0.6647 1.057447,-1.3831 1.468681,-2.1545 l 4.185937,0.6071 0.657088,-1.9055 -3.618442,-2.1457 c 0.156887,-0.8394 0.208698,-1.7008 0.17985,-2.5784 L 45,1024.2758 l -0.371961,-1.9651 -4.240659,-0.056 c -0.293878,-0.8274 -0.656919,-1.6103 -1.109751,-2.3343 l 2.583927,-3.3197 -1.308019,-1.5335 -3.674491,2.0949 c -0.664719,-0.5678 -1.38306,-1.0575 -2.154484,-1.4687 l 0.607089,-4.1859 -1.905449,-0.6571 -2.145726,3.6184 c -0.839459,-0.1569 -1.70085,-0.2087 -2.578433,-0.1798 l -1.60201,-3.9268 -1.965107,0.3719 z m 1.313486,6.9393 0.947337,5.0049 c -0.929224,0.4368 -1.649174,1.1707 -2.019723,2.0998 l -5.019133,-0.6403 c 0.735976,-3.0083 3.011507,-5.515 6.091519,-6.4644 z m 1.965106,-0.372 c 3.213923,-0.2419 6.248159,1.2598 8.032688,3.791 l -4.437944,2.4303 c -0.684464,-0.7294 -1.622811,-1.1494 -2.647406,-1.2164 l -0.947338,-5.0049 z m 0.307685,7.0025 c 1.085299,-0.2054 2.13164,0.5078 2.337068,1.5931 0.205428,1.0853 -0.507847,2.1317 -1.593146,2.3371 -1.085299,0.2054 -2.13164,-0.5078 -2.337068,-1.5931 -0.205428,-1.0853 0.507847,-2.1317 1.593146,-2.3371 z m -8.623881,1.8232 5.05565,0.6651 c 0.0097,0.073 -0.0039,0.1474 0.01,0.2207 0.17826,0.9418 0.680747,1.7462 1.361202,2.3186 l -2.155599,4.5744 c -2.072224,-1.2824 -3.629421,-3.3799 -4.11837,-5.9631 -0.115554,-0.6105 -0.161695,-1.2178 -0.152861,-1.8157 z m 17.317505,-3.2779 c 0.226758,0.5533 0.405765,1.1355 0.521318,1.746 0.488949,2.5831 -0.193963,5.1046 -1.654131,7.0557 l -3.678313,-3.4702 c 0.424211,-0.7814 0.597937,-1.7139 0.419677,-2.6556 -0.01387,-0.073 -0.05375,-0.1376 -0.07139,-0.2091 l 4.462837,-2.4668 z m -9.073174,7.3468 c 0.479203,0.091 0.987079,0.099 1.495432,0 0.508354,-0.096 0.978131,-0.2894 1.390819,-0.5495 l 3.678312,3.4702 c -1.15033,0.9789 -2.548975,1.6911 -4.139229,1.9921 -1.590254,0.301 -3.152441,0.1492 -4.580933,-0.3415 l 2.155599,-4.5745 z"
           id="path2996"
           inkscape:connector-curvature="0" />
        <path
           style="fill:#0d47a1;fill-opacity:1;stroke:none"
           d="m 35.4375,25 -0.375,0.0625 0.65625,0.65625 z M 31.34375,26.6875 30.5,27.375 l 1.125,1.96875 c -0.132619,0.155265 -0.227093,0.333814 -0.34375,0.5 0.89383,-0.265516 1.699578,-0.706345 2.4375,-1.21875 l -0.59375,-0.5625 -0.03125,0 z m 8.6875,1.65625 c -0.249018,0.421193 -0.517541,0.829432 -0.8125,1.21875 0.462388,0.319448 0.890956,0.691294 1.21875,1.15625 L 39.84375,31.03125 40.375,32 40.9375,31.6875 c 0.121171,0.2956 0.219503,0.57995 0.28125,0.90625 0.261276,1.3803 -0.09474,2.73865 -0.875,3.78125 L 39.1875,35.28125 38.78125,35.625 38.3125,35.25 37.125,34.34375 c -0.124155,0.09065 -0.276405,0.188278 -0.4375,0.21875 -0.579942,0.1098 -1.140227,-0.295 -1.25,-0.875 -0.04076,-0.215318 0.0141,-0.406102 0.09375,-0.59375 l -0.1875,-0.15625 c -0.479964,0.2688 -0.986403,0.51395 -1.5,0.71875 l 0,0.0625 0.5625,0.0625 c 0.0052,0.039 -0.0074,0.086 0,0.125 0.09525,0.5033 0.355141,0.91285 0.71875,1.21875 l -1.15625,2.46875 c -0.05643,-0.03493 -0.101286,-0.08784 -0.15625,-0.125 l -0.03125,0.59375 -0.59375,0.09375 -1.96875,0.375 -0.59375,0.125 -0.21875,-0.5625 L 30.3125,37.875 29.6875,38.65625 30.375,39.5 32.34375,38.375 c 0.355201,0.3034 0.74403,0.56155 1.15625,0.78125 l -0.34375,2.21875 1.03125,0.375 1.15625,-1.9375 c 0.448575,0.084 0.906053,0.10935 1.375,0.09375 L 37.5625,42 38.625,41.8125 38.65625,39.53125 c 0.442141,-0.1571 0.863096,-0.35175 1.25,-0.59375 l 1.75,1.375 L 42.5,39.625 41.375,37.65625 C 41.678392,37.30105 41.936502,36.9123 42.15625,36.5 L 44.375,36.84375 44.75,35.8125 42.8125,34.65625 c 0.08384,-0.4486 0.10916,-0.9061 0.09375,-1.375 L 45,32.4375 44.8125,31.375 42.53125,31.34375 c -0.157037,-0.4421 -0.351775,-0.8631 -0.59375,-1.25 L 42.96875,28.75 40.9375,28.46875 40.65625,28.625 C 40.547456,28.53207 40.426661,28.460095 40.3125,28.375 z M 28,34.5625 l 0.1875,1.0625 1.21875,0.03125 -0.4375,-1.0625 c -0.312362,-0.0013 -0.631542,-0.005 -0.9375,-0.03125 -0.01043,-8.93e-4 -0.02083,9.19e-4 -0.03125,0 z m 9.65625,0.75 1.9375,1.84375 c -0.614692,0.5231 -1.33773,0.9016 -2.1875,1.0625 -0.84977,0.1608 -1.705419,0.0751 -2.46875,-0.1875 l 1.15625,-2.4375 c 0.256068,0.049 0.540856,0.053 0.8125,0 0.271645,-0.051 0.529476,-0.14235 0.75,-0.28125 z"
           transform="translate(0,1004.3622)"
           id="path3813"
           inkscape:connector-curvature="0"
           sodipodi:nodetypes="ccccccccccccccccccccccccccccccccccccccccccccccccccccccccccccccccccccccccccccccccccc" />
        <path
           inkscape:connector-curvature="0"
           style="fill:#2a1b6b;fill-opacity:1;stroke:none"
           d="M 6.0625,25 4.625,25.28125 4.59375,28.34375 C 3.9955602,28.55625 3.4297081,28.7977 2.90625,29.125 L 0.5,27.28125 l -1.09375,0.9375 1.5,2.65625 c -0.4104703,0.4805 -0.7651945,1.0049 -1.0625,1.5625 L -3.1875,32 l -0.46875,1.375 2.625,1.53125 c -0.1134229,0.6068 -0.1458558,1.2406 -0.125,1.875 L -4,37.9375 l 0.28125,1.4375 3.0625,0.03125 c 0.2124619,0.5982 0.4538707,1.1641 0.78125,1.6875 L -1.71875,43.5 l 0.9375,1.09375 2.65625,-1.5 c 0.480565,0.4106 1.0047916,0.7653 1.5625,1.0625 L 3,47.1875 l 1.375,0.46875 1.53125,-2.625 c 0.6068949,0.1135 1.2405423,0.1459 1.875,0.125 L 8.9375,48 l 1.4375,-0.28125 0.03125,-3.0625 c 0.59819,-0.2125 1.164042,-0.45385 1.6875,-0.78125 l 2.40625,1.84375 1.09375,-0.9375 -1.5,-2.65625 c 0.410471,-0.4805 0.765194,-1.0048 1.0625,-1.5625 L 18.1875,41 l 0.46875,-1.375 -2.625,-1.53125 c 0.113422,-0.6068 0.145856,-1.2406 0.125,-1.875 L 19,35.0625 18.71875,33.625 l -0.5,0 L 18,33.75 l -0.53125,0.3125 -0.40625,-0.46875 -1.40625,0 c -0.212462,-0.5982 -0.45387,-1.1641 -0.78125,-1.6875 L 16.71875,29.5 l -0.9375,-1.09375 -2.65625,1.5 c -0.480564,-0.4105 -1.004791,-0.7652 -1.5625,-1.0625 L 12,25.8125 l -1.375,-0.46875 -1.53125,2.625 c -0.6068948,-0.1134 -1.2405423,-0.1459 -1.875,-0.125 L 6.0625,25 z m 1.8125,5 c 1.9941008,0.115708 3.808625,1.14875 4.9375,2.75 L 9.59375,34.5 C 9.0989095,33.9727 8.4282407,33.6734 7.6875,33.625 L 7,30.03125 C 7.290442,30.0094 7.5901285,29.98347 7.875,30 z m -2.28125,0.28125 0.6875,3.625 C 5.6094586,34.22205 5.0803919,34.7657 4.8125,35.4375 l -3.625,-0.46875 c 0.532081,-2.1749 2.1795258,-4.0012 4.40625,-4.6875 z m 7.9375,3.75 c 0.163937,0.3999 0.29146,0.8086 0.375,1.25 0.353491,1.8675 -0.163107,3.7145 -1.21875,5.125 L 10.03125,37.875 c 0.306687,-0.5649 0.441375,-1.22545 0.3125,-1.90625 -0.01003,-0.053 -0.04975,-0.10505 -0.0625,-0.15625 l 3.25,-1.78125 z m -6,1.03125 c 0.6724611,0.01 1.2450482,0.469637 1.375,1.15625 0.1485163,0.7846 -0.3403726,1.539 -1.125,1.6875 -0.7846273,0.1485 -1.5389838,-0.3403 -1.6875,-1.125 -0.1485161,-0.7845 0.3403727,-1.539 1.125,-1.6875 0.098078,-0.01855 0.2164341,-0.03268 0.3125,-0.03125 z M 1,36.40625 4.65625,36.875 c 0.00701,0.053 -0.01005,0.10325 0,0.15625 0.1288749,0.6808 0.5080585,1.2737 1,1.6875 l -1.5625,3.3125 c -1.4981342,-0.9271 -2.6465096,-2.4449 -3,-4.3125 C 1.010209,37.27735 0.9936134,36.83855 1,36.40625 z m 8.03125,2.53125 2.65625,2.5 c -0.831643,0.7077 -1.8190605,1.25115 -2.96875,1.46875 -1.1496895,0.2176 -2.279758,0.1048 -3.3125,-0.25 l 1.5625,-3.3125 c 0.3464437,0.065 0.6949813,0.072 1.0625,0 0.3675197,-0.07 0.7016431,-0.21815 1,-0.40625 z"
           transform="translate(0,1004.3622)"
           id="path3815" />
      </g>
      <path
         inkscape:connector-curvature="0"
         id="path3846"
         d="m -36.90625,1013.3622 -0.5625,0.094 1.15625,2.8437 c 0.198501,-0.01 0.39576,-10e-5 0.59375,0 l -1.1875,-2.9375 z m 7.15625,0.7813 -0.53125,3.5625 c 0.365343,0.1947 0.72061,0.4263 1.0625,0.6562 l 0.5625,-3.8437 -1.09375,-0.375 z m 6.3125,3.9375 -0.09375,0.062 0.40625,0.4687 -2.59375,3.3125 c 0.452832,0.724 0.799872,1.5164 1.09375,2.3438 l 0.59375,0 c -0.20441,-0.4682 -0.420184,-0.9164 -0.6875,-1.3438 l 2.59375,-3.3125 -1.3125,-1.5312 z m -13.15625,1.2187 0.96875,5 c 0.290738,0.019 0.573316,0.081 0.84375,0.1563 l -0.8125,-4.1563 c 2.410442,-0.1814 4.712275,0.6176 6.46875,2.0938 -1.820982,-2.1021 -4.563317,-3.3125 -7.46875,-3.0938 z m -1.96875,0.375 c -3.080012,0.9494 -5.357774,3.4605 -6.09375,6.4688 l 1.25,0.1562 c 0.841641,-2.3838 2.678128,-4.3575 5.09375,-5.3437 l -0.25,-1.2813 z m -11.625,4.9063 -0.125,0.3437 2.5625,1.5313 c 0.01761,-0.1238 0.0084,-0.2528 0.03125,-0.375 l -2.46875,-1.5 z m 22.59375,0.2812 -4.46875,2.4688 c 0.01764,0.072 0.07988,0.1145 0.09375,0.1875 0.17826,0.9417 -0.01329,1.8748 -0.4375,2.6562 l 1.03125,0.9688 c 0.410878,-0.7741 0.581823,-1.6975 0.40625,-2.625 -0.01387,-0.073 -0.07611,-0.116 -0.09375,-0.1875 l 3.90625,-2.1563 c -0.113469,-0.4519 -0.263144,-0.8871 -0.4375,-1.3125 z m 7.40625,0.4375 0.1875,0.9688 -3.9375,1.5937 c 0.02885,0.8776 6.37e-4,1.7544 -0.15625,2.5938 l 1.03125,0.625 c 0.103307,-0.7258 0.149646,-1.469 0.125,-2.2188 l 3.9375,-1.5937 -0.375,-1.9688 -0.8125,0 z m -15.6875,0.9688 c -0.132879,0 -0.270588,0.01 -0.40625,0.031 -1.085299,0.2054 -1.799178,1.2585 -1.59375,2.3438 0.126593,0.6688 0.576702,1.2102 1.15625,1.4687 -0.06897,-0.1477 -0.12458,-0.3014 -0.15625,-0.4687 -0.205428,-1.0853 0.508451,-2.1384 1.59375,-2.3438 0.135662,-0.026 0.273371,-0.033 0.40625,-0.031 0.288346,0 0.560109,0.069 0.8125,0.1875 -0.313406,-0.7126 -1.031174,-1.176 -1.8125,-1.1875 z m -9.03125,1.8437 c -0.0088,0.5979 0.0407,1.2333 0.15625,1.8438 0.385168,2.0349 1.463974,3.7356 2.90625,5 -0.930774,-1.1156 -1.615704,-2.465 -1.90625,-4 -0.115554,-0.6105 -0.165084,-1.2459 -0.15625,-1.8438 l 4.25,0.5625 c -0.07905,-0.2079 -0.14482,-0.4308 -0.1875,-0.6562 -0.0139,-0.073 0.0097,-0.1458 0,-0.2188 l -5.0625,-0.6875 z m 11.125,3.5313 c -0.412688,0.2601 -0.866646,0.4665 -1.375,0.5625 -0.508353,0.099 -1.020797,0.091 -1.5,0 l -2.15625,4.5625 c 0.424756,0.1459 0.865287,0.2604 1.3125,0.3437 l 1.84375,-3.9062 c 0.479203,0.091 0.991647,0.099 1.5,0 0.17722,-0.034 0.335445,-0.098 0.5,-0.1563 0.307468,-0.1082 0.606182,-0.2368 0.875,-0.4062 l 2.65625,2.5 c 0.01111,-0.01 0.02018,-0.022 0.03125,-0.031 l -3.6875,-3.4687 z m -16.84375,0.5937 0.1875,1 3.65625,0.031 c -0.14186,-0.325 -0.285854,-0.6611 -0.40625,-1 l -3.4375,-0.031 z m -7.3125,0.125 -0.5625,0.094 0.71875,1.75 c 0.200912,-0.01 0.393825,0 0.59375,0 l -0.75,-1.8438 z m 29.375,0 -0.375,0.062 0.625,0.5938 -0.25,-0.6563 z m -24.53125,0.4375 -0.34375,2.4063 c 0.36437,0.1942 0.698303,0.4447 1.03125,0.6875 l 0.40625,-2.7188 -1.09375,-0.375 z m 32.46875,0.1563 -0.53125,1.5625 -4.1875,-0.625 c -0.411234,0.7714 -0.900986,1.4915 -1.46875,2.1562 l 2.09375,3.6875 -1.53125,1.3125 -3.3125,-2.5937 c -0.724049,0.4528 -1.516332,0.7998 -2.34375,1.0937 l -0.03125,4.25 -1.4375,0.2813 0.3125,0.6875 1.25,-0.25 0.59375,-0.094 0.03125,-0.5937 c 0.05496,0.037 0.09982,0.09 0.15625,0.125 l 0.09375,-0.2188 0.03125,-3.1875 c 0.118502,-0.042 0.226787,-0.1118 0.34375,-0.1562 -0.01019,-0.041 -0.02331,-0.083 -0.03125,-0.125 -0.0074,-0.039 0.0052,-0.086 0,-0.125 l -0.5625,-0.062 0,-0.062 c 0.513597,-0.2048 1.020036,-0.45 1.5,-0.7188 l 0.1875,0.1563 c -0.07169,0.1688 -0.11386,0.3416 -0.09375,0.5312 0.346376,-0.1643 0.677739,-0.3297 1,-0.5312 l 3.3125,2.5937 1.4375,-1.2187 c 0.01245,-0.061 0.02112,-0.1263 0.03125,-0.1875 l -2.03125,-3.5938 c 0.196101,-0.2296 0.353783,-0.4761 0.53125,-0.7187 -0.162842,-0.1394 -0.323596,-0.2844 -0.5,-0.4063 0.294959,-0.3893 0.563482,-0.7976 0.8125,-1.2187 l 0.28125,0.031 c 0.102436,0.076 0.212844,0.1389 0.3125,0.2188 0.01097,-0.02 0.02039,-0.042 0.03125,-0.062 l 0.125,0.031 0.15625,-0.094 2.03125,0.2812 -0.09375,0.125 1.96875,0.2813 0.65625,-1.9063 -1.125,-0.6562 z m -10.75,2.0937 c -0.463413,0.3155 -0.947097,0.6123 -1.46875,0.8438 l 0.375,0.6562 c 0.624494,-0.2645 1.211141,-0.5809 1.75,-0.9687 l -0.15625,-0.1563 -0.03125,0 -0.46875,-0.375 z m -16.84375,0.7188 -0.09375,0.062 0.03125,0.031 -1.84375,2.4063 c 0.32738,0.5234 0.568788,1.0893 0.78125,1.6875 l 0.59375,0 c -0.112311,-0.2367 -0.236089,-0.4655 -0.375,-0.6875 l 0.75,-0.9688 -0.3125,-0.375 1.09375,-1.4062 -0.625,-0.75 z m 25.59375,0.125 -0.4375,0.5625 c 0.241975,0.3869 0.436713,0.8079 0.59375,1.25 l 0.5625,0 c -0.0477,-0.086 -0.104291,-0.167 -0.15625,-0.25 l 1.03125,-1.3438 -1.59375,-0.2187 z m -34.5,0.4687 c -0.284872,-0.017 -0.584558,0.01 -0.875,0.031 l 0.6875,3.5937 c 0.300514,0.02 0.573364,0.087 0.84375,0.1875 L -57,1037.3935 c 0.290442,-0.022 0.590128,-0.048 0.875,-0.031 1.355605,0.079 2.625614,0.5894 3.65625,1.4063 -1.136684,-1.3984 -2.813341,-2.2994 -4.65625,-2.4063 z m -2.28125,0.2813 c -2.226724,0.6863 -3.874169,2.5126 -4.40625,4.6875 l 1.25,0.1562 c 0.613282,-1.5654 1.829605,-2.8536 3.40625,-3.5625 l -0.25,-1.2812 z m 34.65625,0.2187 c -0.01385,0.018 -0.01729,0.044 -0.03125,0.062 0.07348,0.051 0.147251,0.1027 0.21875,0.1563 -0.05614,-0.08 -0.125783,-0.1444 -0.1875,-0.2188 z m -18.9375,0.5 -3.59375,2.0313 0.5,0.5937 0.5,0 0.0625,0.375 3.53125,-2 c 0.349911,0.2989 0.713737,0.5569 1.09375,0.8125 l 0.0625,-0.3437 c -0.771424,-0.4112 -1.491531,-0.901 -2.15625,-1.4688 z m 19.71875,0.9375 -0.1875,0.094 0.40625,0.7187 c -0.008,-0.051 -0.02155,-0.105 -0.03125,-0.1562 -0.044,-0.2326 -0.111307,-0.4471 -0.1875,-0.6563 z m 3.96875,0.4375 0,0.062 -2.09375,0.8438 c 0.01541,0.4689 -0.0099,0.9264 -0.09375,1.375 l 1.0625,0.625 c 0.03858,-0.3295 0.04244,-0.6596 0.03125,-1 l 2.09375,-0.8433 -0.1875,-1.0625 -0.8125,0 z m -18.09375,1.3438 -2.15625,3.5937 -0.8125,-0.2812 -0.09375,0.625 1.90625,0.6562 2.15625,-3.5937 c 0.04035,0.01 0.08462,-0.01 0.125,0 L -37,1040.9247 c 0.01042,9e-4 0.02082,-9e-4 0.03125,0 0.305958,0.031 0.625138,0.031 0.9375,0.031 l 0.125,0.2812 c 0.258888,0.016 0.518269,-4e-4 0.78125,0 l -0.40625,-1 c -0.877583,0.029 -1.723041,7e-4 -2.5625,-0.1562 z m 9.4375,0.2187 c -0.191986,0.1075 -0.394529,0.2136 -0.59375,0.3125 0.184965,0.1837 0.422687,0.2983 0.6875,0.3125 -0.0043,-0.1651 0.03003,-0.3187 0.09375,-0.4687 l -0.1875,-0.1563 z m -38.875,0.094 -0.125,0.3437 1.5625,0.9063 c 0.01647,-0.1239 0.03972,-0.2532 0.0625,-0.375 l -1.5,-0.875 z m 16.0625,0 -3.25,1.7812 c 0.01275,0.051 0.05247,0.1033 0.0625,0.1563 0.128875,0.6808 -0.0058,1.3413 -0.3125,1.9062 l 1,0.9688 c 0.296928,-0.5593 0.439431,-1.2045 0.3125,-1.875 -0.01003,-0.053 -0.04975,-0.1051 -0.0625,-0.1563 l 2.625,-1.4375 c -0.0054,-0.031 0.0059,-0.062 0,-0.094 -0.08354,-0.4414 -0.211063,-0.8501 -0.375,-1.25 z m 5.6875,0.5937 -0.21875,0.125 -0.0625,0.031 0.0625,0.2812 -2.84375,1.1563 c 0.02086,0.6344 -0.01158,1.2682 -0.125,1.875 l 1.0625,0.625 c 0.06553,-0.4928 0.07917,-0.9931 0.0625,-1.5 l 2.84375,-1.1563 -0.28125,-1.4375 -0.5,0 z m -11.6875,0.4375 c -0.09607,0 -0.214422,0.012 -0.3125,0.031 -0.196157,0.037 -0.377399,0.1148 -0.53125,0.2187 -0.07693,0.052 -0.154403,0.1223 -0.21875,0.1875 -0.321735,0.3263 -0.467823,0.7909 -0.375,1.2813 0.105199,0.5558 0.522662,0.9561 1.03125,1.0937 -0.0082,-0.032 -0.02506,-0.061 -0.03125,-0.094 -0.148516,-0.7845 0.340373,-1.539 1.125,-1.6875 0.09808,-0.019 0.216434,-0.033 0.3125,-0.031 0.122853,0 0.229653,0.032 0.34375,0.062 -0.163959,-0.6315 -0.704139,-1.053 -1.34375,-1.0625 z m 30.3125,0.4375 c -0.05388,0.024 -0.09931,0.052 -0.15625,0.062 -0.16915,0.032 -0.344885,0.016 -0.5,-0.031 -0.08959,0.028 -0.187395,0.045 -0.28125,0.062 -0.271644,0.053 -0.556432,0.049 -0.8125,0 l -0.15625,0.3437 c 0.06048,0.065 0.119323,0.1301 0.1875,0.1875 l -0.9375,1.9688 c 0.355327,0.1021 0.71375,0.168 1.09375,0.1875 l 0.8125,-1.6875 c 0.256068,0.049 0.540856,0.053 0.8125,0 0.271645,-0.051 0.529476,-0.1424 0.75,-0.2813 l 0.90625,0.875 c 0.01132,-0.01 0.02001,-0.022 0.03125,-0.031 l -1.75,-1.6563 z m -8.46875,0.062 0.03125,0.094 -0.40625,0 0.1875,0.9687 1.21875,0.031 -0.4375,-1.0625 c -0.197956,0 -0.395418,-0.023 -0.59375,-0.031 z m 15.25,0.5938 -0.25,0.6875 -2.21875,-0.3438 c -0.219748,0.4123 -0.477858,0.8011 -0.78125,1.1563 l 1.125,1.9687 -0.84375,0.6875 -1.75,-1.375 c -0.386904,0.242 -0.807859,0.4367 -1.25,0.5938 l -0.03125,2.2812 -0.5,0.094 0.4375,1.0937 1.0625,-0.1875 0.03125,-2.2812 c 0.442141,-0.1571 0.863096,-0.3518 1.25,-0.5938 l 1.75,1.375 0.84375,-0.6875 -1.125,-1.9687 c 0.303392,-0.3552 0.561502,-0.744 0.78125,-1.1563 l 2.21875,0.3438 0.375,-1.0313 -1.125,-0.6562 z m -43.625,0.25 c -0.0064,0.4323 0.01021,0.8711 0.09375,1.3125 0.296458,1.5662 1.160444,2.8803 2.3125,3.8125 -0.64022,-0.7949 -1.110063,-1.743 -1.3125,-2.8125 -0.08354,-0.4414 -0.100137,-0.8802 -0.09375,-1.3125 l 2.9375,0.375 c -0.119553,-0.2348 -0.230621,-0.4826 -0.28125,-0.75 -0.01005,-0.053 0.007,-0.1033 0,-0.1563 L -64,1042.7685 z m 31.34375,1.9687 -0.34375,0.1875 0.09375,0.25 0.65625,-0.125 c -0.135957,-0.098 -0.278514,-0.2034 -0.40625,-0.3125 z m -23.3125,0.5625 c -0.298357,0.1881 -0.63248,0.3363 -1,0.4063 -0.367519,0.072 -0.716056,0.065 -1.0625,0 l -1.5625,3.3125 c 0.430771,0.1479 0.884751,0.2551 1.34375,0.3125 l 1.21875,-2.625 c 0.346444,0.065 0.694981,0.072 1.0625,0 0.36752,-0.07 0.701643,-0.2182 1,-0.4063 l 1.625,1.5313 c 0.01109,-0.01 0.02021,-0.022 0.03125,-0.031 l -2.65625,-2.5 z m 22.3125,0 -0.15625,0.094 -0.5,0.625 0.6875,0.8437 1.96875,-1.125 c 0.03999,0.034 0.08418,0.061 0.125,0.094 l 0,-0.1875 -1.25,0.25 -0.59375,0.125 -0.21875,-0.5625 -0.0625,-0.1563 z m -34.25,0.4375 0.1875,1 2.46875,0.031 c -0.152378,-0.3211 -0.283938,-0.6557 -0.40625,-1 l -2.25,-0.031 z m 38.25,0.4375 -1.0625,1.7813 -0.125,0.7812 1.03125,0.375 1.15625,-1.9375 c 0.254872,0.048 0.520159,0.081 0.78125,0.094 l -0.40625,-1 c -0.468947,0.015 -0.926425,-0.01 -1.375,-0.094 z m -16.8125,0.1563 -0.34375,1.0312 -3.03125,-0.4375 c -0.297306,0.5577 -0.652029,1.082 -1.0625,1.5625 l 1.5,2.6563 -1.09375,0.9375 -2.40625,-1.8438 c -0.523458,0.3274 -1.08931,0.5688 -1.6875,0.7813 l -0.03125,3.0625 -0.875,0.1875 0.4375,1.0937 1.4375,-0.2812 0.03125,-3.0625 c 0.59819,-0.2125 1.164042,-0.4539 1.6875,-0.7813 l 2.40625,1.8438 1.09375,-0.9375 -1.5,-2.6563 c 0.410471,-0.4805 0.765194,-1.0048 1.0625,-1.5625 l 3.03125,0.4375 0.46875,-1.375 -1.125,-0.6562 z m -16.65625,3.125 -2.5625,1.4375 0.90625,1.0625 2.65625,-1.5 c 0.166596,0.1423 0.354584,0.2461 0.53125,0.375 l 0.03125,-0.3125 c -0.557708,-0.2972 -1.081935,-0.6519 -1.5625,-1.0625 z m 4.03125,1.9375 -1.53125,2.625 -0.28125,-0.094 -0.09375,0.625 1.375,0.4688 1.53125,-2.625 c 0.414712,0.078 0.849832,0.1143 1.28125,0.125 l -0.40625,-1 c -0.634458,0.021 -1.268105,-0.011 -1.875,-0.125 z"
         style="opacity:0.1;fill:#000000;fill-opacity:1;stroke:none" />
    </g>
  </g>
</svg>
