<?xml version="1.0" encoding="UTF-8" standalone="no"?>
<!-- Created with Inkscape (http://www.inkscape.org/) -->

<svg
   xmlns:dc="http://purl.org/dc/elements/1.1/"
   xmlns:cc="http://creativecommons.org/ns#"
   xmlns:rdf="http://www.w3.org/1999/02/22-rdf-syntax-ns#"
   xmlns:svg="http://www.w3.org/2000/svg"
   xmlns="http://www.w3.org/2000/svg"
   xmlns:sodipodi="http://sodipodi.sourceforge.net/DTD/sodipodi-0.dtd"
   xmlns:inkscape="http://www.inkscape.org/namespaces/inkscape"
   width="48"
   height="48"
   id="svg2"
   version="1.1"
   inkscape:version="0.48.4 r9939"
   sodipodi:docname="package_development.svg">
  <defs
     id="defs4" />
  <sodipodi:namedview
     id="base"
     pagecolor="#ffffff"
     bordercolor="#666666"
     borderopacity="1.0"
     inkscape:pageopacity="0.0"
     inkscape:pageshadow="2"
     inkscape:zoom="11.583333"
     inkscape:cx="22.75954"
     inkscape:cy="19.926408"
     inkscape:document-units="px"
     inkscape:current-layer="layer1"
     showgrid="true"
     inkscape:snap-bbox="true"
     inkscape:window-width="1301"
     inkscape:window-height="744"
     inkscape:window-x="65"
     inkscape:window-y="24"
     inkscape:window-maximized="1"
     inkscape:object-nodes="false"
     inkscape:snap-nodes="false"
     showguides="true"
     inkscape:guide-bbox="true">
    <inkscape:grid
       type="xygrid"
       id="grid3005"
       empspacing="6"
       visible="true"
       enabled="true"
       snapvisiblegridlinesonly="true" />
    <sodipodi:guide
       orientation="0,1"
       position="18,42"
       id="guide2989" />
    <sodipodi:guide
       orientation="0,1"
       position="17,6"
       id="guide2991" />
    <sodipodi:guide
       orientation="1,0"
       position="3,38"
       id="guide2993" />
    <sodipodi:guide
       orientation="1,0"
       position="45,33"
       id="guide2995" />
  </sodipodi:namedview>
  <metadata
     id="metadata7">
    <rdf:RDF>
      <cc:Work
         rdf:about="">
        <dc:format>image/svg+xml</dc:format>
        <dc:type
           rdf:resource="http://purl.org/dc/dcmitype/StillImage" />
        <dc:title />
      </cc:Work>
    </rdf:RDF>
  </metadata>
  <g
     inkscape:label="Layer 1"
     inkscape:groupmode="layer"
     id="layer1"
     transform="translate(0,-1004.3622)">
    <path
       id="path3768"
       d="m 22.937676,1015.3623 c -0.282848,0 -0.560074,0.01 -0.75,0.031 -1.085885,0.1222 -1.889998,0.3 -3.03125,0.6875 -0.226542,0.077 -0.635445,0.2175 -0.9375,0.3125 -0.773136,0.2418 -2.04825,0.663 -2.34375,0.7812 -0.137008,0.055 -0.394791,0.1873 -0.59375,0.2813 -0.304079,0.1426 -0.411829,0.2059 -0.5625,0.375 -0.09858,0.1106 -0.21066,0.3 -0.28125,0.4375 -0.07059,0.1375 -0.16997,0.25 -0.1875,0.25 -0.01752,1e-4 -0.128867,0.1374 -0.28125,0.2812 -0.152383,0.1438 -0.35255,0.3283 -0.4375,0.4063 -0.325759,0.2975 -0.847461,0.9123 -1.15625,1.4062 -0.337417,0.5397 -0.72456,1.4981 -0.90625,2.1875 -0.07357,0.2791 -0.09434,0.3018 -0.21875,0.3438 -0.291847,0.1002 -0.403564,0.3891 -0.53125,1.3125 -0.0782,0.5653 -0.153978,0.9037 -0.1875,0.9687 -0.01577,0.03 -0.106326,-0.046 -0.28125,-0.2187 -0.605249,-0.5968 -1.265987,-0.903 -2.0625,-1 -0.3461801,-0.042 -1.1047149,0.011 -1.5937503,0.125 -0.4953822,0.1155 -1.1445315,0.3353 -1.375,0.4687 -0.3462546,0.2004 -0.6460632,0.5304 -0.8125,0.875 -0.2409256,0.4988 -0.40182,1.3564 -0.40625,2.25 -0.00221,0.4438 0.01573,0.5496 0.09375,0.875 0.1217546,0.5079 0.2913437,0.9424 0.5625,1.4375 0.4384945,0.8005 0.9213032,1.5373 1.375,2.0625 0.3902557,0.4518 1.1794428,1.0053 1.8125,1.2813 0.4072013,0.1776 1.4619013,0.5228 2.0000003,0.6562 0.514283,0.1274 1.302769,0.366 2.28125,0.6875 0.821673,0.2699 1.149805,0.358 1.6875,0.375 0.361049,0.011 0.383845,0.01 0.59375,0.125 0.28558,0.1583 0.544703,0.2188 0.8125,0.2188 0.164725,0 0.24687,0.016 0.28125,0.062 0.02467,0.033 0.152032,0.1991 0.3125,0.3437 0.248454,0.2238 0.30248,0.2848 0.375,0.4688 0.11643,0.2953 0.307443,0.4955 0.625,0.7187 0.28913,0.2032 0.889599,0.5196 1.3125,0.6875 0.689787,0.2741 2.91909,0.8426 5.4375,1.375 1.032891,0.2183 1.054202,0.2225 1.25,0.375 0.22051,0.1717 0.551296,0.3158 1.03125,0.4375 0.699048,0.1771 1.245799,0.4068 1.78125,0.75 0.13085,0.084 0.36559,0.1993 0.53125,0.2813 0.295814,0.1476 1.522417,0.5795 2.0625,0.7187 0.579227,0.1493 1.147727,0.2925 1.3125,0.3125 0.09439,0.012 0.320655,0.05 0.5,0.094 0.20282,0.049 0.38335,0.074 0.46875,0.062 0.1864,-0.024 0.459495,-0.1812 0.59375,-0.3125 l 0.09375,-0.094 0,-0.4062 0,-0.4063 0.1875,-0.1875 0.1875,-0.1875 0,-0.3125 0,-0.3125 0.71875,-0.5 c 0.47071,-0.3182 0.75184,-0.5 0.8125,-0.5 0.05109,0 0.33257,0.046 0.625,0.094 0.633334,0.1023 0.701497,0.1017 0.8125,0 l 6.59375,1.4687 0,3.5 0.28125,0.1875 2.40625,-2.6562 0.25,-3.4688 -0.40625,-0.5 -8.34375,-1.6562 c -0.0124,-0.1132 -0.04689,-0.8465 -0.09375,-1.8438 -0.07771,-1.6534 -0.1034,-1.9392 -0.15625,-2.0625 -0.0494,-0.1151 -0.140754,-0.217 -0.4375,-0.4375 -0.204397,-0.1518 -0.38115,-0.2812 -0.40625,-0.2812 -0.03403,0 -0.05096,0.042 -0.03125,0.125 0.01454,0.061 0.03005,0.2209 0.03125,0.3437 0.0014,0.1508 0.02366,0.2263 0.0625,0.2813 0.06167,0.087 0.04558,0.1585 -0.03125,0.1875 -0.05832,0.022 -0.09185,-0.086 -0.1875,-0.625 -0.166768,-0.9393 -0.2134,-1.1718 -0.3125,-1.5313 -0.05769,-0.2095 -0.09972,-0.4362 -0.125,-0.5312 -0.09084,-0.3392 -0.493132,-1.5435 -0.59375,-1.8125 -0.191445,-0.5124 -0.165827,-0.525 -0.28125,-0.5 -0.147266,0.032 -0.134765,-0.034 0.0625,-0.25 0.226831,-0.2482 0.28885,-0.4431 0.28125,-0.8438 -0.0051,-0.2715 -0.0574,-0.5433 -0.46875,-2.1875 -0.310994,-1.2432 -0.50815,-1.907 -0.5625,-2 -0.04498,-0.077 -0.242816,-0.2677 -0.4375,-0.4375 -1.038948,-0.9067 -2.002024,-1.9339 -2.8125,-2.9375 -0.569561,-0.7054 -0.700453,-0.8178 -0.9375,-0.9375 -0.270476,-0.1368 -0.418392,-0.1309 -1.03125,0.094 -0.254858,0.094 -0.5153,0.1745 -0.5625,0.1875 0.0087,-0.01 -0.01164,-0.024 0,-0.031 0.05193,-0.034 0.09375,-0.063 0.09375,-0.094 0,-0.1082 -0.649003,-0.6562 -0.78125,-0.6562 -0.02032,0 -0.07489,-0.034 -0.125,-0.062 -0.05011,-0.029 -0.261396,-0.1045 -0.46875,-0.1875 -0.39004,-0.1572 -0.495254,-0.25 -0.3125,-0.25 0.05822,0 0.125,-0.012 0.125,-0.031 0,-0.1144 -0.240975,-0.466 -0.4375,-0.6563 -0.385438,-0.3728 -0.690224,-0.4808 -2.03125,-0.625 -0.273737,-0.029 -0.603302,-0.076 -0.71875,-0.094 -0.133515,-0.021 -0.404652,-0.031 -0.6875,-0.031 z m -16.4687503,9.3125 c 0.061204,-0.013 0.1353731,-0.01 0.25,0 0.7272025,0.057 1.5863763,0.3762 2.1875003,0.7813 0.528861,0.3563 1.381776,1.1508 1.65625,1.5625 0.187722,0.2817 0.230705,0.4252 0.3125,0.875 0.25232,1.3877 0.759959,3.0238 1.03125,3.3125 0.04064,0.043 0.252742,0.1894 0.4375,0.3125 0.220578,0.1468 0.33385,0.2635 0.34375,0.3125 0.0083,0.042 0.02014,0.1224 0.03125,0.1875 0.01111,0.066 0.06746,0.2019 0.125,0.3125 0.11031,0.2124 0.109239,0.3125 0,0.3125 -0.161608,0 -1.17,0.3925 -1.125,0.4375 0.0067,0.01 0.110146,-0.036 0.25,-0.094 0.273015,-0.1135 0.837632,-0.2812 0.96875,-0.2812 0.098,0 0.141347,0.05 0.375,0.4375 0.183725,0.3047 0.1956,0.3076 0.1875,0.5625 -0.0091,0.2861 -0.08365,0.4439 -0.1875,0.5 -0.120823,0.065 -0.233638,0.046 -1.53125,-0.2813 -0.662312,-0.1671 -0.72237,-0.1967 -0.6875,-0.375 0.02545,-0.1301 0.087,-0.1983 0.25,-0.2812 0.07388,-0.038 0.1335,-0.052 0.125,-0.062 -0.0085,-0.01 -0.129281,0 -0.25,0.031 -0.773764,0.1822 -1.55528,0.038 -2.5,-0.4375 -0.635754,-0.3204 -1.1257276,-0.649 -1.7812503,-1.2187 -0.7107084,-0.6175 -1.4268399,-1.7367 -1.6875,-2.6563 -0.3144604,-1.1096 -0.3586554,-1.8924 -0.09375,-2.6875 0.2471681,-0.7417 0.611808,-1.2119 1.09375,-1.4688 0.1022526,-0.054 0.1575461,-0.081 0.21875,-0.094 z m 8.5312503,10.625 c 0.0053,0.01 0.0262,-0.01 0.03125,0 0.02022,0.038 0.04075,0.094 0.03125,0.094 -0.0094,0 -0.0423,-0.056 -0.0625,-0.094 z m 18.59375,3.125 c 0.0928,-10e-5 0.220304,0.038 0.3125,0.062 0.07551,0.02 0.314771,0.049 0.5625,0.094 0.691994,0.1271 0.695352,0.1093 0.21875,0.4687 -0.225129,0.1696 -0.614103,0.4394 -0.84375,0.5938 -0.229647,0.1541 -0.42727,0.2812 -0.4375,0.2812 -0.04499,0 -0.10155,-0.8036 -0.09375,-1.1562 0.0056,-0.2522 0.0042,-0.2963 0.0625,-0.2813 0.03524,0.01 0.0625,0.021 0.0625,0 0,-0.025 0.06345,-0.062 0.15625,-0.062 z"
       style="opacity:0.1;fill:#000000;fill-opacity:1"
       inkscape:connector-curvature="0" />
    <path
       inkscape:connector-curvature="0"
       id="path3879"
       d="m 42.289792,1043.3408 c -0.02511,-0.017 -0.0455,-0.3167 -0.06004,-0.8834 -0.01211,-0.4718 -0.03191,-1.1594 -0.04399,-1.5279 -0.02057,-0.6272 -0.01727,-0.684 0.05197,-0.8925 0.09823,-0.2956 0.06886,-0.4236 -0.100944,-0.4396 -0.104266,-0.011 -1.729661,-0.3617 -3.515996,-0.761 -0.755601,-0.1689 -1.607607,-0.3476 -2.322784,-0.4872 l -0.537909,-0.1054 -0.102389,0.073 c -0.135215,0.096 -0.273678,0.094 -0.971553,-0.016 l -0.57084,-0.091 -0.716327,0.4792 -0.716328,0.479 0,0.3358 0,0.3356 -0.202127,0.1809 -0.202128,0.1807 0.01817,0.3555 c 0.01344,0.2629 0.0058,0.3821 -0.02953,0.4583 -0.08461,0.1827 -0.527683,0.4291 -0.771572,0.4291 -0.05352,0 -0.227081,-0.031 -0.385666,-0.067 -0.158585,-0.037 -0.394735,-0.084 -0.524777,-0.1044 -0.4512,-0.072 -1.613123,-0.3742 -2.313071,-0.6023 -0.713718,-0.2326 -1.168272,-0.4355 -1.645981,-0.7349 -0.548528,-0.3438 -1.110974,-0.576 -1.785296,-0.7372 -0.417613,-0.1002 -0.669121,-0.2091 -1.030903,-0.4482 -0.213787,-0.1412 -0.256096,-0.154 -1.012572,-0.3078 -1.350524,-0.2746 -3.877643,-0.8699 -4.668128,-1.0998 -0.854989,-0.2485 -1.015299,-0.3094 -1.644509,-0.6237 -0.755173,-0.3774 -1.076275,-0.6602 -1.271875,-1.1205 -0.08324,-0.1958 -0.122935,-0.2439 -0.305859,-0.3703 -0.115611,-0.08 -0.28291,-0.2121 -0.371774,-0.2937 -0.09488,-0.088 -0.1949,-0.1485 -0.242318,-0.1485 -0.153024,0 -0.660637,-0.146 -0.865376,-0.2489 -0.176451,-0.089 -0.263029,-0.1075 -0.617841,-0.1336 -0.518296,-0.038 -0.843446,-0.1002 -1.236421,-0.2355 -0.598255,-0.206 -2.2023158,-0.6909 -2.6773088,-0.8094 -0.5840622,-0.1456 -1.6414851,-0.4915 -2.0507486,-0.6708 -0.3071243,-0.1344 -0.7998503,-0.438 -1.2434369,-0.766 -0.5104475,-0.3775 -1.1925418,-1.282 -1.8553952,-2.4602 -0.5708802,-1.0147 -0.8032024,-1.8961 -0.7345247,-2.7864 0.1747976,-2.266 0.6308048,-2.8536 2.5786139,-3.3224 0.3372821,-0.081 0.6083161,-0.1238 1.0493941,-0.1648 0.9754092,-0.091 1.9271287,0.2728 2.7073047,1.0342 0.2402033,0.2344 0.2244157,0.2453 0.2867276,-0.1968 0.160827,-1.1414 0.2442894,-1.477 0.4267159,-1.7162 0.05076,-0.066 0.141567,-0.1417 0.201795,-0.167 0.102717,-0.043 0.119885,-0.078 0.276903,-0.5574 0.09206,-0.2812 0.197096,-0.5732 0.233396,-0.6487 0.03631,-0.076 0.106032,-0.2377 0.154957,-0.3604 0.174166,-0.4368 0.271254,-0.6104 0.727632,-1.3007 0.282433,-0.4273 0.891205,-1.1016 1.311334,-1.4526 0.312935,-0.2614 0.386877,-0.3428 0.478532,-0.5271 0.05962,-0.1199 0.203447,-0.3217 0.319613,-0.4486 0.183312,-0.2001 0.26108,-0.2543 0.588778,-0.4102 0.515003,-0.245 1.397199,-0.5697 2.505687,-0.9223 0.396447,-0.1261 0.79032,-0.2525 0.875273,-0.2807 0.73096,-0.2431 1.720374,-0.5431 1.972347,-0.598 1.044242,-0.2277 2.332966,-0.3315 2.963764,-0.2387 0.126347,0.019 0.515472,0.066 0.864724,0.1057 1.282427,0.1454 1.54292,0.2301 1.940376,0.6302 0.236388,0.2379 0.462337,0.5953 0.462337,0.7315 0,0.097 0.08266,0.1563 0.411355,0.2975 0.425051,0.1827 0.72421,0.3714 0.986565,0.6224 0.127561,0.122 0.24343,0.2219 0.257488,0.2219 0.01406,0 0.190479,-0.062 0.392046,-0.1377 0.507945,-0.1908 0.665964,-0.2052 0.934287,-0.084 0.243814,0.1094 0.455412,0.3194 0.968461,0.9609 0.70752,0.8847 1.759129,1.9775 2.765466,2.8737 0.2483,0.2211 0.485684,0.4574 0.52752,0.5251 0.04871,0.079 0.243705,0.7859 0.542151,1.966 l 0.466081,1.8427 0.0018,0.4291 0.0018,0.4291 -0.132956,0.2623 -0.132956,0.2624 0.08583,0.1839 c 0.269661,0.5776 0.881461,2.643 1.089598,3.6783 0.03283,0.1632 0.05577,0.2053 0.126941,0.2323 0.14428,0.055 0.796004,0.5461 0.892722,0.673 0.117818,0.1544 0.131264,0.2963 0.231203,2.4406 0.04337,0.9304 0.08812,1.701 0.09946,1.7123 0.01134,0.012 0.20258,0.057 0.424982,0.1023 0.563773,0.1137 0.725736,0.1473 0.893497,0.1851 0.258264,0.058 0.465728,0.1002 0.746557,0.1516 0.151028,0.027 0.351825,0.066 0.446218,0.088 0.0944,0.02 0.24113,0.052 0.326082,0.068 0.08496,0.017 0.231691,0.049 0.326083,0.069 0.376275,0.082 0.519223,0.1067 0.615407,0.1057 0.0553,-5e-4 0.11708,0.013 0.137298,0.028 0.02021,0.016 0.09854,0.038 0.174056,0.049 0.07551,0.011 0.222251,0.036 0.326082,0.057 0.103833,0.02 0.242845,0.045 0.308921,0.056 0.06607,0.011 0.151026,0.031 0.188784,0.048 0.03776,0.016 0.130433,0.038 0.205946,0.049 0.07551,0.011 0.222251,0.037 0.326083,0.058 0.103834,0.021 0.2274,0.038 0.274596,0.038 0.0472,-5e-4 0.104699,0.015 0.127789,0.034 0.02308,0.019 0.100312,0.035 0.171623,0.035 0.0713,-10e-5 0.14509,0.012 0.163968,0.027 0.01888,0.015 0.09611,0.036 0.171623,0.046 0.07551,0.01 0.218389,0.036 0.317501,0.056 0.09911,0.02 0.257433,0.052 0.351826,0.071 0.0944,0.019 0.24499,0.046 0.334663,0.062 0.08967,0.015 0.212475,0.054 0.27289,0.085 0.06042,0.032 0.181981,0.058 0.270143,0.058 0.165548,0 0.375267,0.1012 0.553119,0.2666 0.08081,0.075 0.08282,0.089 0.06168,0.4119 -0.02494,0.3812 -0.03612,0.4331 -0.08645,0.402 -0.05697,-0.035 -0.136399,0.053 -0.137091,0.151 -3.44e-4,0.05 -0.0095,0.1715 -0.02032,0.271 -0.01083,0.099 -0.008,0.2078 0.0063,0.2403 0.01429,0.033 0.02371,0.071 0.02094,0.083 -0.0027,0.014 0.01883,0.016 0.04801,0 0.02918,-0.012 0.04511,-0.041 0.03541,-0.066 -0.0097,-0.025 -0.0028,-0.055 0.01519,-0.066 0.04747,-0.03 0.04033,-0.1451 -0.01012,-0.1635 -0.03291,-0.012 -0.03376,-0.03 -0.0037,-0.082 0.02362,-0.04 0.02748,-0.087 0.0097,-0.1196 -0.02884,-0.052 0.04615,-0.2032 0.08201,-0.1659 0.0091,0.011 0.0021,0.5578 -0.01541,1.2186 -0.03361,1.2685 -0.06462,1.528 -0.21125,1.7677 -0.04043,0.066 -0.235888,0.3097 -0.434353,0.5415 -0.305524,0.3569 -0.382003,0.427 -0.498898,0.458 -0.212232,0.056 -0.226,0.069 -0.315013,0.2914 -0.0648,0.162 -0.15999,0.2896 -0.42907,0.5753 -0.190189,0.2019 -0.389592,0.3899 -0.443118,0.4175 -0.104815,0.054 -0.23202,0.064 -0.29322,0.024 z m -0.01346,-3.9313 c 0,-0.088 -0.05824,-0.1613 -0.127001,-0.1613 -0.05364,0 -0.05795,0.082 -0.0091,0.1738 0.04948,0.093 0.13609,0.084 0.13609,-0.013 z m 2.574334,-0.438 c 0,-0.018 -0.02317,-0.033 -0.05149,-0.033 -0.05308,0 -0.06819,0.04 -0.02954,0.079 0.02743,0.027 0.08102,0 0.08103,-0.046 z m -2.642984,-0.4479 c 0,-0.05 -0.02482,-0.065 -0.102969,-0.065 -0.116909,0 -0.126169,0.02 -0.04826,0.1065 0.0656,0.073 0.151233,0.049 0.151233,-0.041 z m -1.922533,-0.3563 c 0.05674,-0.069 0.0192,-0.1549 -0.06721,-0.1549 -0.05016,0 -0.06973,0.022 -0.06973,0.08 0,0.1294 0.06302,0.1638 0.136934,0.075 z m 3.545834,-0.4724 c 0.169862,-0.079 0.08334,-0.2928 -0.149515,-0.3697 -0.162073,-0.054 -0.190744,-0.086 -0.133882,-0.1552 0.03327,-0.04 0.031,-0.05 -0.0114,-0.05 -0.09559,0 -0.161469,0.041 -0.161469,0.1001 0,0.056 -0.154296,0.1356 -0.339576,0.1746 -0.04517,0.011 -0.09924,0.045 -0.120135,0.078 -0.05426,0.087 0.02535,0.1284 0.236601,0.1226 0.121293,0 0.206854,0.017 0.291759,0.069 0.13669,0.083 0.253966,0.093 0.387619,0.03 z m -31.416938,-4.5222 c 0.05811,-0.058 0.06865,-0.1144 0.06865,-0.3667 l 0,-0.298 -0.194326,-0.3212 c -0.10688,-0.1766 -0.208317,-0.3298 -0.225415,-0.3404 -0.04806,-0.029 -0.46332,0.056 -0.727653,0.1506 -0.130789,0.046 -0.427503,0.1746 -0.659365,0.2842 -0.342176,0.1617 -0.425634,0.2154 -0.443152,0.2852 -0.04748,0.1892 -0.02628,0.2046 0.447935,0.3239 1.518669,0.3824 1.61728,0.3984 1.733326,0.2824 z m -2.128117,-0.9455 c 0.103834,-0.031 0.371652,-0.14 0.595156,-0.242 0.223505,-0.1023 0.544009,-0.2276 0.712233,-0.2788 0.168223,-0.052 0.305862,-0.1109 0.305862,-0.1325 0,-0.022 -0.03844,-0.1263 -0.08542,-0.2325 -0.04698,-0.1063 -0.0954,-0.2556 -0.107598,-0.3318 -0.02494,-0.1561 -0.14385,-0.2689 -0.519982,-0.4936 -0.268606,-0.1605 -0.344244,-0.2711 -0.555746,-0.8131 -0.284101,-0.7281 -0.576864,-1.8131 -0.7560211,-2.8019 -0.1096492,-0.605 -0.2722508,-0.8619 -0.9841339,-1.5543 -0.6479759,-0.6303 -1.0745001,-0.9302 -1.6993946,-1.1951 -0.3484954,-0.1477 -0.8809318,-0.2891 -1.3194759,-0.3505 -0.2700279,-0.038 -0.284258,-0.036 -0.4718812,0.053 -0.5475343,0.2591 -1.0674467,1.0702 -1.2425195,1.9385 -0.077135,0.3825 -0.053715,1.1056 0.052323,1.615 0.2080008,0.9992 0.5609281,1.7276 1.2804889,2.6429 0.3011222,0.3831 1.0573986,1.0315 1.621099,1.3899 0.6079143,0.3866 1.3898534,0.7146 1.9619284,0.8231 0.3313349,0.063 0.9430469,0.045 1.2130849,-0.036 z m 12.041259,-13.8586 c 0.01333,-0.068 -0.123158,-0.1159 -0.177029,-0.061 -0.0298,0.03 -0.023,0.052 0.02781,0.09 0.07888,0.058 0.134465,0.047 0.149219,-0.029 z"
       style="fill:#a4a4a4"
       sodipodi:nodetypes="cccccscccccccccccccsccccccccccccsccccccssccccccccscccccccccccsccscccccccccccccccscccccccccccccssccccsscccsccccccccscccccscccccccccsccccscccsccccsscccccsscccccccscccccccccccsccccccccccsccccccccc" />
    <path
       style="fill:#989898"
       d="m 22,1014.4247 c -0.282848,10e-5 -0.560074,0.01 -0.75,0.031 -1.085885,0.1222 -1.889998,0.2999 -3.03125,0.6875 -0.226542,0.077 -0.635445,0.2174 -0.9375,0.3125 -0.773136,0.2418 -2.04825,0.663 -2.34375,0.7812 -0.137008,0.055 -0.394791,0.1872 -0.59375,0.2813 -0.304079,0.1426 -0.411829,0.2059 -0.5625,0.375 -0.09858,0.1105 -0.21066,0.2999 -0.28125,0.4375 -0.07059,0.1375 -0.16997,0.25 -0.1875,0.25 -0.01752,0 -0.128867,0.1374 -0.28125,0.2812 -0.152383,0.1438 -0.35255,0.3283 -0.4375,0.4063 -0.325759,0.2975 -0.847461,0.9123 -1.15625,1.4062 -0.337417,0.5397 -0.72456,1.4981 -0.90625,2.1875 -0.07357,0.2791 -0.09434,0.3017 -0.21875,0.3438 -0.291847,0.1001 -0.403564,0.3891 -0.53125,1.3125 -0.0782,0.5653 -0.153978,0.9037 -0.1875,0.9687 -0.015766,0.03 -0.1063258,-0.046 -0.28125,-0.2187 -0.6052486,-0.5969 -1.2659871,-0.9031 -2.0625,-1 -0.3461798,-0.042 -1.1047146,0.011 -1.59375,0.125 -0.4953822,0.1155 -1.1445315,0.3353 -1.375,0.4687 -0.3462546,0.2004 -0.6460632,0.5304 -0.8125,0.875 -0.2409256,0.4988 -0.40182,1.3564 -0.40625,2.25 -0.00221,0.4438 0.01573,0.5496 0.09375,0.875 0.1217546,0.5079 0.2913437,0.9424 0.5625,1.4375 0.4384945,0.8005 0.9213032,1.5373 1.375,2.0625 0.3902557,0.4518 1.1794428,1.0053 1.8125,1.2813 0.407201,0.1776 1.4619011,0.5228 2,0.6562 0.5142836,0.1274 1.302769,0.366 2.28125,0.6875 0.821673,0.2699 1.149805,0.358 1.6875,0.375 0.361049,0.011 0.383845,0.01 0.59375,0.125 0.28558,0.1583 0.544703,0.2188 0.8125,0.2188 0.164725,0 0.24687,0.017 0.28125,0.062 0.02467,0.033 0.152032,0.1991 0.3125,0.3437 0.248454,0.2238 0.30248,0.2848 0.375,0.4688 0.11643,0.2954 0.307443,0.4955 0.625,0.7187 0.28913,0.2032 0.889599,0.5196 1.3125,0.6875 0.689787,0.2741 2.91909,0.8426 5.4375,1.375 1.032891,0.2183 1.054202,0.2225 1.25,0.375 0.22051,0.1717 0.551296,0.3158 1.03125,0.4375 0.699048,0.1771 1.245799,0.4068 1.78125,0.75 0.13085,0.084 0.36559,0.1993 0.53125,0.2813 0.295814,0.1476 1.522417,0.5795 2.0625,0.7187 0.579227,0.1493 1.147727,0.2925 1.3125,0.3125 0.09439,0.012 0.320655,0.05 0.5,0.094 0.20282,0.049 0.38335,0.075 0.46875,0.062 0.1864,-0.024 0.459495,-0.1812 0.59375,-0.3125 l 0.09375,-0.094 0,-0.4062 0,-0.4063 0.1875,-0.1875 0.1875,-0.1875 0,-0.3125 0,-0.3125 0.71875,-0.5 c 0.47071,-0.3182 0.75184,-0.5 0.8125,-0.5 0.05109,0 0.33257,0.046 0.625,0.094 0.633334,0.1023 0.701497,0.1017 0.8125,0 l 6.59375,1.4687 0,3.5 0.28125,0.1875 2.40625,-2.6562 0.25,-3.4688 -0.40625,-0.5 -8.34375,-1.6562 c -0.0124,-0.1132 -0.04689,-0.8465 -0.09375,-1.8438 -0.07771,-1.6534 -0.1034,-1.9392 -0.15625,-2.0625 -0.0494,-0.1151 -0.140754,-0.217 -0.4375,-0.4375 -0.204397,-0.1518 -0.38115,-0.2811 -0.40625,-0.2812 -0.03403,0 -0.05096,0.042 -0.03125,0.125 0.01454,0.061 0.03005,0.2209 0.03125,0.3437 0.0014,0.1508 0.02366,0.2263 0.0625,0.2813 0.06167,0.087 0.04558,0.1585 -0.03125,0.1875 -0.05832,0.022 -0.09185,-0.086 -0.1875,-0.625 -0.166768,-0.9393 -0.2134,-1.1718 -0.3125,-1.5313 -0.05769,-0.2095 -0.09972,-0.4362 -0.125,-0.5312 -0.09084,-0.3391 -0.493132,-1.5435 -0.59375,-1.8125 -0.191445,-0.5124 -0.165827,-0.525 -0.28125,-0.5 -0.147266,0.032 -0.134765,-0.034 0.0625,-0.25 0.226831,-0.2482 0.28885,-0.4431 0.28125,-0.8438 -0.0051,-0.2715 -0.0574,-0.5433 -0.46875,-2.1875 -0.310994,-1.2432 -0.50815,-1.907 -0.5625,-2 -0.04498,-0.077 -0.242816,-0.2677 -0.4375,-0.4375 -1.038948,-0.9067 -2.002024,-1.9339 -2.8125,-2.9375 -0.569561,-0.7054 -0.700453,-0.8178 -0.9375,-0.9375 -0.270476,-0.1368 -0.418392,-0.1309 -1.03125,0.094 -0.254858,0.094 -0.5153,0.1744 -0.5625,0.1875 0.0087,-0.01 -0.01164,-0.024 0,-0.031 0.05193,-0.034 0.09375,-0.063 0.09375,-0.094 0,-0.1082 -0.649003,-0.6563 -0.78125,-0.6563 -0.02032,0 -0.07489,-0.034 -0.125,-0.062 -0.05011,-0.029 -0.261396,-0.1045 -0.46875,-0.1875 -0.39004,-0.1572 -0.495254,-0.25 -0.3125,-0.25 0.05822,0 0.125,-0.012 0.125,-0.031 0,-0.1145 -0.240975,-0.466 -0.4375,-0.6563 -0.385438,-0.3728 -0.690224,-0.4808 -2.03125,-0.625 -0.273737,-0.029 -0.603302,-0.076 -0.71875,-0.094 -0.133515,-0.021 -0.404652,-0.031 -0.6875,-0.031 z m -16.46875,9.3125 c 0.061204,-0.013 0.1353731,-0.01 0.25,0 0.7272025,0.057 1.5863765,0.3762 2.1875,0.7813 0.5288617,0.3563 1.3817764,1.1508 1.65625,1.5625 0.1877223,0.2817 0.230705,0.4252 0.3125,0.875 0.25232,1.3878 0.759959,3.0238 1.03125,3.3125 0.04064,0.043 0.252742,0.1895 0.4375,0.3125 0.220578,0.1468 0.33385,0.2635 0.34375,0.3125 0.0083,0.042 0.02014,0.1225 0.03125,0.1875 0.01111,0.066 0.06746,0.2019 0.125,0.3125 0.11031,0.2124 0.109239,0.3125 0,0.3125 -0.161608,0 -1.17,0.3925 -1.125,0.4375 0.0067,0.01 0.110146,-0.036 0.25,-0.094 0.273015,-0.1135 0.837632,-0.2812 0.96875,-0.2812 0.098,0 0.141347,0.05 0.375,0.4375 0.183725,0.3047 0.1956,0.3077 0.1875,0.5625 -0.0091,0.2861 -0.08365,0.444 -0.1875,0.5 -0.120823,0.065 -0.233638,0.046 -1.53125,-0.2813 -0.662312,-0.1671 -0.72237,-0.1967 -0.6875,-0.375 0.02545,-0.1301 0.087,-0.1982 0.25,-0.2812 0.07388,-0.038 0.1335,-0.051 0.125,-0.062 -0.0085,-0.01 -0.129281,0 -0.25,0.031 -0.7737635,0.1822 -1.5552801,0.038 -2.5,-0.4375 -0.6357535,-0.3204 -1.1257273,-0.649 -1.78125,-1.2187 -0.7107084,-0.6175 -1.4268399,-1.7367 -1.6875,-2.6563 -0.3144604,-1.1096 -0.3586554,-1.8924 -0.09375,-2.6875 0.2471681,-0.7417 0.611808,-1.2119 1.09375,-1.4687 0.1022526,-0.054 0.1575461,-0.081 0.21875,-0.094 z m 8.53125,10.625 c 0.0053,0.01 0.0262,-0.01 0.03125,0 0.02022,0.038 0.04075,0.094 0.03125,0.094 -0.0094,0 -0.0423,-0.056 -0.0625,-0.094 z m 18.59375,3.125 c 0.0928,-10e-5 0.220304,0.038 0.3125,0.062 0.07551,0.02 0.314771,0.049 0.5625,0.094 0.691994,0.1271 0.695352,0.1093 0.21875,0.4687 -0.225129,0.1696 -0.614103,0.4395 -0.84375,0.5938 -0.229647,0.1542 -0.42727,0.2812 -0.4375,0.2812 -0.04499,0 -0.10155,-0.8036 -0.09375,-1.1562 0.0056,-0.2522 0.0042,-0.2963 0.0625,-0.2813 0.03524,0.01 0.0625,0.021 0.0625,0 0,-0.025 0.06345,-0.062 0.15625,-0.062 z"
       id="path3877"
       inkscape:connector-curvature="0" />
    <path
       inkscape:connector-curvature="0"
       id="path3875"
       d="m 31.08656,1041.324 c -0.179345,-0.044 -0.403312,-0.09 -0.497705,-0.1023 -0.164773,-0.02 -0.725102,-0.148 -1.304329,-0.2973 -0.540083,-0.1392 -1.755934,-0.5566 -2.051748,-0.7042 -0.16566,-0.082 -0.408258,-0.2189 -0.539108,-0.3029 -0.535451,-0.3432 -1.098739,-0.5807 -1.797787,-0.7578 -0.479954,-0.1217 -0.79695,-0.2545 -1.01746,-0.4262 -0.195798,-0.1525 -0.22415,-0.1611 -1.257041,-0.3794 -2.51841,-0.5324 -4.757379,-1.0952 -5.447166,-1.3693 -0.421275,-0.1673 -1.014865,-0.4765 -1.301122,-0.6777 -0.319647,-0.2247 -0.471125,-0.4021 -0.595877,-0.698 -0.07883,-0.1871 -0.151507,-0.2785 -0.453782,-0.5707 -0.351845,-0.3401 -0.362916,-0.3475 -0.493635,-0.33 -0.174205,0.023 -0.529598,-0.073 -0.83453,-0.2247 -0.223378,-0.1116 -0.266816,-0.1209 -0.61784,-0.1319 -0.53581,-0.017 -0.861505,-0.085 -1.681898,-0.355 -0.978481,-0.3215 -1.768294,-0.5591 -2.282578,-0.6865 -0.538099,-0.1334 -1.60078,-0.4828 -2.007981,-0.6604 -0.633057,-0.276 -1.41112,-0.8293 -1.801376,-1.2811 -0.453697,-0.5252 -0.94652,-1.2574 -1.385014,-2.0579 -0.271156,-0.4951 -0.443107,-0.9338 -0.564862,-1.4417 -0.07802,-0.3254 -0.09018,-0.4486 -0.08796,-0.8924 0.0044,-0.8936 0.155251,-1.7494 0.396177,-2.2482 0.166437,-0.3446 0.467657,-0.6648 0.813912,-0.8652 0.230468,-0.1334 0.880906,-0.3564 1.376288,-0.4719 0.489036,-0.1138 1.262252,-0.1803 1.608432,-0.138 0.796513,0.097 1.456783,0.4239 2.062031,1.0207 0.174925,0.1724 0.262413,0.2376 0.27818,0.2071 0.03352,-0.065 0.09091,-0.3886 0.169105,-0.954 0.07246,-0.524 0.141425,-0.8332 0.225301,-1.0099 0.07576,-0.1597 0.215202,-0.2948 0.327273,-0.3173 0.130668,-0.026 0.264399,-0.1527 0.290249,-0.2746 0.01135,-0.054 0.03514,-0.1244 0.05287,-0.1574 0.01774,-0.033 0.04508,-0.088 0.06077,-0.1201 0.01568,-0.033 0.05308,-0.1095 0.0831,-0.1697 0.03002,-0.06 0.04701,-0.1387 0.03775,-0.1741 -0.0093,-0.036 0.0074,-0.084 0.03703,-0.109 0.02963,-0.024 0.05387,-0.088 0.05387,-0.1393 0,-0.055 0.0281,-0.1142 0.06751,-0.1417 0.03713,-0.026 0.07438,-0.088 0.08279,-0.1374 0.02016,-0.1191 0.117301,-0.3045 0.159512,-0.3045 0.01839,0 0.03344,-0.029 0.03344,-0.066 0,-0.037 0.01545,-0.076 0.03432,-0.087 0.01887,-0.012 0.03432,-0.05 0.03432,-0.083 0,-0.035 0.02317,-0.081 0.05149,-0.1055 0.02832,-0.023 0.05149,-0.067 0.05149,-0.099 0,-0.031 0.0315,-0.076 0.06999,-0.1002 0.03849,-0.024 0.0611,-0.058 0.05024,-0.076 -0.01086,-0.018 0.01527,-0.067 0.05806,-0.1097 0.04279,-0.043 0.083,-0.1167 0.08936,-0.1641 0.0063,-0.048 0.06319,-0.1288 0.126313,-0.1809 0.06312,-0.052 0.14842,-0.164 0.189556,-0.249 0.04113,-0.085 0.08718,-0.1545 0.102336,-0.1545 0.01514,0 0.03676,-0.037 0.04802,-0.081 0.01126,-0.045 0.05997,-0.1075 0.108227,-0.1391 0.04826,-0.032 0.102832,-0.097 0.121265,-0.1456 0.02853,-0.075 0.04861,-0.085 0.135089,-0.067 0.08103,0.016 0.109593,0.01 0.141215,-0.054 0.04935,-0.092 0.0947,-0.1488 0.193399,-0.2413 0.04247,-0.04 0.07723,-0.1013 0.07723,-0.1377 0,-0.036 0.09011,-0.1759 0.200248,-0.3113 0.110137,-0.1353 0.257589,-0.3558 0.32767,-0.4899 0.07008,-0.1341 0.207196,-0.3334 0.3047,-0.4427 0.148454,-0.1666 0.236096,-0.2265 0.539024,-0.3686 0.198958,-0.094 0.473841,-0.2144 0.610849,-0.2693 0.295499,-0.1182 1.552095,-0.5415 2.32523,-0.7833 0.302056,-0.095 0.734544,-0.2348 0.961086,-0.3116 1.141252,-0.3875 1.917505,-0.5651 3.00339,-0.6873 0.379853,-0.043 1.187803,-0.043 1.454832,-8e-4 0.115448,0.018 0.433872,0.058 0.70761,0.087 0.870903,0.094 1.369541,0.186 1.604858,0.2969 0.28982,0.1368 0.644304,0.4899 0.778231,0.7752 0.05529,0.1178 0.09264,0.222 0.083,0.2316 0.476162,0.2256 0.586889,0.3129 1.274213,0.8911 0.225456,0.1799 0.331275,0.2852 0.306306,0.3047 -0.0074,0.011 -0.05209,0.038 -0.09929,0.071 l -0.08581,0.06 0.08581,-0.024 c 0.0472,-0.014 0.294332,-0.1012 0.54919,-0.1941 0.612858,-0.2247 0.778384,-0.2413 1.04886,-0.1044 0.237047,0.1197 0.360783,0.2462 0.930344,0.9517 0.810476,1.0036 1.780837,2.006 2.819785,2.9126 0.194684,0.1699 0.390775,0.3718 0.435759,0.4487 0.05435,0.093 0.238787,0.7672 0.549781,2.0104 0.41135,1.6443 0.4687,1.9081 0.473839,2.1796 0.0076,0.4007 -0.06197,0.6066 -0.2888,0.8547 -0.195545,0.214 -0.213411,0.2762 -0.07037,0.2447 0.09099,-0.02 0.101018,-0.012 0.133719,0.1089 0.01944,0.072 0.0848,0.2617 0.145246,0.4221 0.06044,0.1605 0.130811,0.3613 0.156378,0.4462 0.02557,0.085 0.08422,0.2704 0.130345,0.4119 0.109572,0.3364 0.210654,0.6918 0.263591,0.9268 0.02339,0.1033 0.06184,0.2274 0.08546,0.2745 0.02362,0.048 0.06154,0.1786 0.08428,0.2918 0.02275,0.1133 0.06955,0.3218 0.104013,0.4635 0.03447,0.1415 0.09601,0.4504 0.136768,0.6864 0.04076,0.236 0.09155,0.4745 0.112875,0.5301 0.02132,0.056 0.03544,0.1406 0.03138,0.1889 -0.0082,0.098 0.05526,0.2764 0.09821,0.2764 0.01524,0 0.05212,-0.024 0.08196,-0.055 0.05291,-0.053 0.048,-0.084 -0.02896,-0.1827 -0.02066,-0.026 -0.03848,-0.1501 -0.03961,-0.2746 -0.0012,-0.1245 -0.01393,-0.2766 -0.02847,-0.338 -0.01971,-0.083 -0.01483,-0.1114 0.0192,-0.1114 0.0251,10e-5 0.212866,0.1244 0.417263,0.2762 0.296746,0.2205 0.384098,0.3052 0.433502,0.4204 0.05285,0.1232 0.07513,0.4265 0.152829,2.0797 0.05002,1.0645 0.08286,1.9436 0.07296,1.9535 -0.02144,0.021 -0.29159,-0.06 -0.353297,-0.1067 -0.02376,-0.018 -0.100017,-0.023 -0.169452,-0.013 -0.07202,0.012 -0.145618,0 -0.171331,-0.017 -0.07329,-0.061 -0.127767,0.012 -0.369208,0.4922 -0.252442,0.5022 -0.599267,1.0497 -0.809703,1.278 -0.07921,0.086 -0.135683,0.179 -0.129666,0.2134 0.008,0.046 -0.01927,0.067 -0.109479,0.084 -0.06607,0.013 -0.242859,0.08 -0.392856,0.1514 -0.237543,0.1121 -0.265215,0.1342 -0.214528,0.1713 0.032,0.023 0.0582,0.058 0.0582,0.078 0,0.019 0.02538,0.045 0.0564,0.057 0.03102,0.012 0.05019,0.027 0.04261,0.036 -0.01546,0.016 -0.624882,-0.093 -0.836989,-0.1491 -0.184076,-0.049 -0.463381,-0.049 -0.463381,4e-4 0,0.021 -0.02989,0.031 -0.06643,0.021 -0.03654,-0.011 -0.07293,2e-4 -0.08087,0.022 -0.03115,0.084 0.08229,1.3414 0.124907,1.384 0.02481,0.025 0.776967,-0.4839 1.282416,-0.8673 l 0.419079,-0.3179 0.421871,0.099 c 0.617862,0.146 1.059519,0.264 1.08553,0.29 0.04276,0.043 -0.167954,0.1887 -0.27268,0.1887 -0.05659,0 -0.342159,-0.039 -0.634589,-0.085 -0.29243,-0.047 -0.573492,-0.085 -0.624583,-0.083 -0.06066,0 -0.342997,0.171 -0.813707,0.4891 l -0.720814,0.4872 0.01187,0.3265 0.01187,0.3266 -0.192072,0.1787 -0.192072,0.1788 0,0.4088 0,0.4088 -0.110658,0.1082 c -0.134255,0.1313 -0.406594,0.2634 -0.592994,0.2879 -0.0854,0.012 -0.26056,-0.013 -0.46338,-0.062 z m 4.989305,-6.5331 c -0.01221,-0.1168 -0.03014,-0.2044 -0.03984,-0.1947 -0.02319,0.023 -0.01088,0.3612 0.01465,0.4026 0.03933,0.063 0.04698,5e-4 0.02519,-0.2079 z m -11.274068,-0.1738 c 0.09499,-0.06 -0.07696,-1.2915 -0.309542,-2.2167 -0.459489,-1.8279 -1.182782,-3.5416 -2.249356,-5.3295 -1.36876,-2.2945 -3.074963,-4.1132 -4.736368,-5.0487 -0.36008,-0.2028 -0.451756,-0.2136 -1.059356,-0.1256 -1.957503,0.2836 -3.173058,1.5675 -3.450899,3.6451 -0.05461,0.4084 -0.02581,1.4973 0.05067,1.916 0.402757,2.2052 1.567393,4.0786 3.218464,5.1772 0.760926,0.5063 1.49932,0.7802 2.648877,0.9826 0.417664,0.074 1.655257,0.2904 2.750207,0.482 1.094952,0.1916 2.230233,0.3919 2.522849,0.4453 0.292616,0.054 0.539753,0.098 0.549191,0.1002 0.0095,0 0.0388,-0.011 0.06526,-0.027 z m -10.874554,-5.1441 c 17.381838,17.9261 8.690919,8.9631 0,0 z m 22.104662,4.505 c -0.02032,-0.2019 -0.03695,-0.3876 -0.03695,-0.4126 0,-0.025 -0.01406,-0.045 -0.03123,-0.045 -0.04203,0 -0.0054,0.753 0.04092,0.8409 0.05942,0.1127 0.06676,0.01 0.02726,-0.3827 z m -23.647017,-0.7012 c 0.09676,-0.052 0.16646,-0.2379 0.16646,-0.4446 0,-0.096 0.0158,-0.2046 0.03511,-0.2406 0.04845,-0.091 -0.01649,-0.2296 -0.259888,-0.5563 -0.165617,-0.2224 -0.214097,-0.266 -0.295185,-0.266 -0.145742,0 -0.699217,0.1528 -0.987165,0.2725 -0.139854,0.058 -0.259789,0.1001 -0.26652,0.094 -0.045,-0.045 0.964565,-0.4345 1.126173,-0.4345 0.116069,0 0.111207,-0.1013 -0.01713,-0.3577 -0.06867,-0.1371 -0.124856,-0.2981 -0.124856,-0.3577 0,-0.1343 -0.06248,-0.1984 -0.422686,-0.4336 -0.154531,-0.1012 -0.314889,-0.2196 -0.356351,-0.264 -0.273281,-0.2923 -0.786008,-1.9327 -1.038939,-3.3238 -0.08179,-0.4499 -0.132685,-0.588 -0.320408,-0.8696 -0.274473,-0.4117 -1.125608,-1.2256 -1.654469,-1.5819 -0.601124,-0.4051 -1.473312,-0.7084 -2.200515,-0.7652 -0.229253,-0.018 -0.257189,-0.012 -0.461695,0.097 -0.481941,0.2569 -0.828537,0.7316 -1.075705,1.4733 -0.264905,0.7951 -0.245276,1.5495 0.06918,2.659 0.26066,0.9196 0.973707,2.0479 1.684416,2.6654 0.655523,0.5696 1.146508,0.9079 1.782261,1.2282 0.94472,0.4759 1.741577,0.6121 2.51534,0.4299 0.120719,-0.028 0.226476,-0.044 0.235017,-0.036 0.0085,0.011 -0.04493,0.046 -0.118813,0.084 -0.162998,0.083 -0.209194,0.1355 -0.234647,0.2657 -0.03487,0.1783 0.02713,0.2123 0.689443,0.3795 1.297611,0.3275 1.410752,0.3484 1.531574,0.2837 z m 23.575221,-0.2632 c -4.08e-4,-0.074 -0.0079,-0.083 -0.0338,-0.043 -0.0434,0.067 -0.0434,0.1373 0,0.1373 0.01888,0 0.03409,-0.042 0.0338,-0.095 z m -0.0338,-0.3012 c 0,-0.066 -0.01545,-0.1201 -0.03432,-0.1201 -0.03818,0 -0.04561,0.1023 -0.01349,0.186 0.0327,0.085 0.04781,0.064 0.04781,-0.065 z"
       style="fill:#f57c00"
       sodipodi:nodetypes="cccccccccccccccccccccccccccccccccccccsccsscscscsccccsccccccscscccccccccccccccccccccccccccccccccsccscccccccsccccccccccssccscccccccscccccccccccccccccccssccccscscccccccssccccsccsccscsccccccccccccccccccccsccsscss" />
    <path
       inkscape:connector-curvature="0"
       id="path3873"
       d="m 31.08656,1041.324 c -0.179345,-0.044 -0.403312,-0.09 -0.497705,-0.1023 -0.164773,-0.02 -0.725102,-0.148 -1.304329,-0.2973 -0.540083,-0.1392 -1.755934,-0.5566 -2.051748,-0.7042 -0.16566,-0.082 -0.408258,-0.2189 -0.539108,-0.3029 -0.535451,-0.3432 -1.098739,-0.5807 -1.797787,-0.7578 -0.479954,-0.1217 -0.79695,-0.2545 -1.01746,-0.4262 -0.195798,-0.1525 -0.22415,-0.1611 -1.257041,-0.3794 -2.51841,-0.5324 -4.757379,-1.0952 -5.447166,-1.3693 -0.421275,-0.1673 -1.014865,-0.4765 -1.301122,-0.6777 -0.319413,-0.2245 -0.470904,-0.4018 -0.596223,-0.698 -0.05182,-0.1226 -0.120703,-0.2536 -0.153079,-0.2914 -0.03237,-0.038 -0.0699,-0.1073 -0.0834,-0.1545 -0.04309,-0.1508 -0.330618,-0.6622 -0.494329,-0.8794 -0.0871,-0.1155 -0.314764,-0.378 -0.505926,-0.5834 -0.574088,-0.617 -0.952728,-1.0934 -1.474086,-1.855 -0.211144,-0.3084 -0.461914,-0.5917 -0.645011,-0.729 -0.09622,-0.072 -0.15915,-0.1493 -0.171355,-0.2104 -0.01511,-0.076 -0.09234,-0.1451 -0.356859,-0.3212 -0.185662,-0.1236 -0.370822,-0.26 -0.411468,-0.3033 -0.271289,-0.2888 -0.785132,-1.934 -1.037452,-3.3218 -0.08179,-0.4499 -0.132685,-0.588 -0.320408,-0.8697 -0.274473,-0.4116 -1.125608,-1.2255 -1.65447,-1.5818 -0.601123,-0.4051 -1.473311,-0.7084 -2.200514,-0.7652 -0.229253,-0.018 -0.257189,-0.012 -0.461695,0.097 -0.481942,0.2569 -0.828537,0.7316 -1.075705,1.4733 -0.264905,0.7951 -0.245276,1.5495 0.06918,2.659 0.26066,0.9196 0.973707,2.0479 1.684416,2.6654 0.655522,0.5696 1.146508,0.9079 1.782261,1.2282 0.94472,0.4759 1.741577,0.6121 2.51534,0.4299 0.120719,-0.028 0.226476,-0.044 0.235017,-0.036 0.0085,0.01 -0.04493,0.046 -0.118813,0.084 -0.162998,0.083 -0.209194,0.1355 -0.234647,0.2656 -0.03666,0.1875 0.01204,0.2103 0.947498,0.4426 1.025586,0.2548 1.164214,0.2792 1.267337,0.2241 0.09401,-0.051 0.172298,-0.2319 0.173727,-0.4028 l 0.0011,-0.1298 0.0832,0.095 c 0.08522,0.097 0.09233,0.1246 0.149454,0.5845 0.03261,0.2625 0.210967,0.7152 0.336355,0.8538 0.04639,0.052 0.04494,0.059 -0.01414,0.078 -0.08924,0.028 -0.758352,-0.034 -1.054739,-0.097 -0.132149,-0.029 -0.471961,-0.1301 -0.755138,-0.2258 -0.745039,-0.2516 -1.889563,-0.5972 -2.385551,-0.7204 -0.53915,-0.1339 -1.601632,-0.4835 -2.007981,-0.6606 -0.633058,-0.276 -1.41112,-0.8294 -1.801376,-1.2811 -0.453697,-0.5252 -0.94652,-1.2575 -1.385014,-2.0579 -0.271157,-0.4951 -0.443107,-0.9338 -0.564862,-1.4417 -0.07802,-0.3254 -0.09018,-0.4487 -0.08796,-0.8924 0.0044,-0.8936 0.155251,-1.7494 0.396177,-2.2482 0.166436,-0.3446 0.467657,-0.6649 0.813911,-0.8652 0.230469,-0.1334 0.880907,-0.3564 1.376289,-0.4719 0.489035,-0.1139 1.262252,-0.1803 1.608432,-0.138 0.795976,0.097 1.456808,0.424 2.060929,1.0196 0.139743,0.1378 0.260453,0.2441 0.268245,0.2364 0.02688,-0.026 0.105943,-0.4165 0.129658,-0.639 0.03962,-0.3717 0.152223,-1.0021 0.21154,-1.1842 0.07223,-0.2219 0.209719,-0.416 0.330599,-0.4669 0.08384,-0.035 0.106094,-0.031 0.179083,0.038 0.05601,0.053 0.14003,0.083 0.256164,0.095 0.303379,0.03 0.36032,-0.034 0.838914,-0.9206 0.225644,-0.4184 0.493251,-0.7857 0.875565,-1.2017 0.288477,-0.3139 0.440299,-0.5392 0.530885,-0.7874 0.05337,-0.1463 0.32704,-1.3104 0.403473,-1.7162 0.04724,-0.2509 0.232202,-0.5963 0.450242,-0.841 0.148454,-0.1666 0.236096,-0.2265 0.539024,-0.3685 0.198958,-0.094 0.473841,-0.2145 0.610849,-0.2693 0.295499,-0.1182 1.552095,-0.5416 2.32523,-0.7834 0.302056,-0.095 0.734544,-0.2347 0.961086,-0.3116 1.141252,-0.3875 1.917505,-0.5651 3.00339,-0.6873 0.379853,-0.043 1.187803,-0.043 1.454832,-7e-4 0.115448,0.018 0.433872,0.058 0.70761,0.086 1.361551,0.1465 1.657083,0.237 2.051075,0.6282 0.220835,0.2192 0.465837,0.6248 0.410749,0.6799 -0.01198,0.012 -0.165331,-0.019 -0.340785,-0.069 -0.175453,-0.05 -0.36771,-0.091 -0.427238,-0.09 -0.135228,4e-4 -0.605549,0.1634 -1.538723,0.5333 -0.398637,0.158 -1.010194,0.3941 -1.359017,0.5247 -0.862286,0.3228 -0.97989,0.3879 -1.14586,0.6348 -0.230233,0.3425 -0.354863,0.7454 -0.384962,1.2446 -0.03499,0.5804 0.03472,0.6936 0.864077,1.4037 0.151028,0.1294 0.552624,0.5146 0.892436,0.8562 1.258022,1.2645 2.519486,2.8842 3.41081,4.3796 0.738996,1.2397 0.703396,1.1752 1.220855,2.2138 0.698649,1.4025 1.260819,2.848 1.71529,4.4108 0.229901,0.7905 0.271104,0.9012 0.390197,1.0492 0.05982,0.074 0.364889,0.3357 0.677937,0.5812 1.113197,0.8727 1.303027,1.0331 1.375342,1.162 0.07823,0.1394 0.07686,0.1258 0.168857,1.6869 0.02781,0.4719 0.067,1.1353 0.0871,1.4741 0.03362,0.5668 0.07906,0.8724 0.176366,1.1861 0.114843,0.3701 0.161436,0.4122 0.466561,0.4206 0.248381,0.011 0.31609,-0.038 0.316739,-0.2104 8.27e-4,-0.2197 0.03042,-0.2564 0.405212,-0.5019 0.201642,-0.132 0.586518,-0.4048 0.855283,-0.606 l 0.488663,-0.3658 0.738973,0.1803 c 0.406434,0.099 0.750315,0.1917 0.764179,0.2056 0.04459,0.044 -0.162463,0.191 -0.270302,0.191 -0.05659,0 -0.342159,-0.039 -0.634588,-0.085 -0.29243,-0.047 -0.573492,-0.085 -0.624584,-0.083 -0.06066,0 -0.342997,0.1709 -0.813707,0.4891 l -0.720813,0.4871 0.01187,0.3266 0.01187,0.3266 -0.192072,0.1787 -0.192072,0.1787 0,0.4088 0,0.4089 -0.110659,0.1081 c -0.134255,0.1313 -0.406593,0.2635 -0.592993,0.2879 -0.0854,0.012 -0.26056,-0.013 -0.46338,-0.062 z m -5.817457,-6.3345 c 0.01274,-0.058 0.01577,-0.1129 0.0067,-0.1218 -0.0091,-0.011 -0.0022,-0.08 0.01518,-0.157 0.02205,-0.098 0.01603,-0.2401 -0.01996,-0.4703 -0.02834,-0.1814 -0.09161,-0.5845 -0.140596,-0.8961 -0.564363,-3.5891 -2.79765,-7.7841 -5.493812,-10.3197 -0.491081,-0.4619 -0.783004,-0.6998 -1.315531,-1.0722 -0.320699,-0.2244 -1.032608,-0.6482 -1.173746,-0.6988 -0.08755,-0.032 -0.792299,0.036 -1.138514,0.1085 -0.865109,0.1818 -1.56018,0.5431 -2.119376,1.1013 -0.964062,0.9626 -1.392063,2.3158 -1.297335,4.1019 0.07228,1.3628 0.595529,2.9116 1.403062,4.1532 0.789085,1.2132 1.822694,2.14 3.016293,2.7043 0.669186,0.3165 1.044945,0.4153 2.781073,0.7313 2.346074,0.427 2.33069,0.4243 2.609866,0.4624 0.141588,0.019 0.79032,0.1333 1.441627,0.2533 0.651307,0.1201 1.233166,0.2197 1.293021,0.2216 0.09467,0 0.111841,-0.011 0.131984,-0.1022 z m 8.048551,2.6418 c -0.103834,-0.021 -0.207301,-0.051 -0.229932,-0.065 -0.07355,-0.047 -0.593856,-0.074 -0.593856,-0.03 0,0.096 -0.10338,0.028 -0.136947,-0.09 -0.04958,-0.1738 -0.133319,-0.9767 -0.107105,-1.027 0.0275,-0.053 0.253803,-0.2229 0.655947,-0.493 0.179344,-0.1205 0.432038,-0.3046 0.56154,-0.4092 0.61385,-0.4961 0.74838,-0.5966 1.061883,-0.7936 0.18494,-0.1163 0.362569,-0.2136 0.39473,-0.216 0.0489,0 0.06015,0.034 0.06867,0.2288 0.008,0.1845 0.02246,0.2372 0.06865,0.2511 0.03215,0.01 0.104804,0.038 0.161435,0.063 0.05664,0.025 0.130004,0.055 0.163041,0.065 0.0972,0.032 0.07141,0.133 -0.133474,0.5258 -0.282911,0.5424 -0.568549,0.9965 -0.765776,1.2175 -0.09537,0.1068 -0.17339,0.2186 -0.17339,0.2482 0,0.062 -0.07166,0.081 -0.362099,0.098 -0.155561,0.01 -0.226025,0.031 -0.280948,0.085 -0.06611,0.066 -0.270902,0.1457 -0.37608,0.1463 -0.06478,3e-4 -0.09279,0.074 -0.04075,0.1065 0.02601,0.017 0.0782,0.031 0.115953,0.032 0.03776,0 0.114987,0.023 0.171621,0.05 0.12809,0.059 0.04748,0.061 -0.223108,0.01 z m 1.948628,-2.4177 c 0.02059,-0.062 -0.05035,-0.048 -0.0743,0.014 -0.01283,0.034 -0.0052,0.05 0.01993,0.041 0.02243,-0.011 0.0469,-0.032 0.05437,-0.055 z m 0.911921,0.022 c -0.06703,-0.033 -0.07613,-0.071 -0.09426,-0.401 -0.01104,-0.2008 -0.04314,-0.674 -0.07135,-1.0517 -0.09178,-1.2287 -0.120605,-1.6877 -0.120989,-1.9271 -7.56e-4,-0.4696 -0.0577,-0.578 -0.485118,-0.9236 -0.09687,-0.078 -0.129868,-0.134 -0.146285,-0.247 -0.01537,-0.1057 -0.0093,-0.1458 0.02211,-0.1458 0.02382,1e-4 0.210544,0.1244 0.414941,0.2763 0.296668,0.2203 0.384119,0.3051 0.433546,0.4203 0.0525,0.1224 0.07311,0.3894 0.13554,1.7576 0.0405,0.8872 0.08317,1.7638 0.09481,1.9478 0.01985,0.3135 0.01706,0.3346 -0.04379,0.3324 -0.03574,0 -0.09836,-0.018 -0.139169,-0.038 z m -25.196126,-3.2058 c 0.298298,-0.1531 0.838607,-0.3346 0.911997,-0.3063 0.05002,0.019 0.05049,0.025 0.004,0.052 -0.02891,0.016 -0.155574,0.054 -0.281462,0.082 -0.125888,0.03 -0.363951,0.1075 -0.52903,0.1741 -0.165078,0.066 -0.308725,0.1202 -0.319215,0.1193 -0.01044,-9e-4 0.08567,-0.056 0.213687,-0.1211 z m 19.743518,-3.5429 c -0.229179,-0.1437 -0.660006,-0.7551 -0.754685,-1.0711 -0.01414,-0.047 -0.07046,-0.1473 -0.125143,-0.2223 -0.05468,-0.075 -0.116033,-0.1987 -0.136328,-0.2746 -0.03803,-0.1424 -0.335672,-0.7582 -0.439935,-0.9104 -0.03234,-0.047 -0.07938,-0.1399 -0.104529,-0.2059 -0.02516,-0.066 -0.09498,-0.2051 -0.15516,-0.309 -0.06018,-0.1044 -0.168223,-0.2969 -0.240086,-0.429 -0.07186,-0.1321 -0.179611,-0.3175 -0.239441,-0.4119 -0.05983,-0.094 -0.182865,-0.3029 -0.273411,-0.4634 -0.09055,-0.1604 -0.194922,-0.3249 -0.231945,-0.3655 -0.03702,-0.041 -0.13174,-0.1821 -0.210482,-0.3146 -0.07874,-0.1324 -0.203737,-0.3309 -0.277767,-0.4411 -0.07403,-0.1101 -0.196494,-0.293 -0.27214,-0.4062 -0.07565,-0.1133 -0.196566,-0.2713 -0.268711,-0.3511 -0.07215,-0.08 -0.131173,-0.1594 -0.131173,-0.1768 0,-0.065 -0.847383,-1.1425 -1.267621,-1.6118 -0.124021,-0.1384 -0.292934,-0.3315 -0.375362,-0.429 -0.08243,-0.097 -0.329565,-0.3684 -0.549192,-0.6019 -0.552371,-0.5874 -0.625337,-0.6973 -0.647713,-0.976 l -0.01797,-0.2239 0.137976,-0.071 c 0.196779,-0.1001 0.794444,-0.3346 0.926291,-0.3631 0.06129,-0.014 0.306331,-0.1012 0.544552,-0.1945 0.293149,-0.1152 0.521594,-0.1814 0.706865,-0.2046 0.150555,-0.019 0.415225,-0.085 0.588155,-0.1475 0.172932,-0.062 0.46888,-0.1631 0.657665,-0.2242 0.188784,-0.061 0.466812,-0.156 0.61784,-0.2107 0.353559,-0.1282 0.514006,-0.1286 0.765256,0 0.228708,0.1154 0.355771,0.246 0.922189,0.9475 0.810476,1.0037 1.780837,2.0061 2.819785,2.9127 0.194684,0.1699 0.390775,0.3718 0.435759,0.4487 0.05435,0.093 0.238787,0.7672 0.549781,2.0104 0.41135,1.6443 0.4687,1.9081 0.473839,2.1796 0.0076,0.4026 -0.06171,0.6062 -0.292405,0.8587 -0.104013,0.1137 -0.164699,0.2084 -0.153069,0.2387 0.0106,0.027 0.0042,0.059 -0.01408,0.071 -0.01834,0.012 -0.05574,0.074 -0.08312,0.1397 -0.09258,0.2215 -0.396382,0.5267 -0.75581,0.7592 -0.188784,0.1221 -0.381859,0.2485 -0.429055,0.2809 -0.274465,0.1885 -1.387721,0.7991 -1.482925,0.8132 -0.07552,0.012 -0.147599,0 -0.216699,-0.047 z"
       style="fill:#212121"
       sodipodi:nodetypes="cccccccccsccccccccsccccccccccccccccccccccccccccccccccccscccccsccccccccccccscccssccccccccscccscccccsccccccccccccccccccccccccsccscccccccsccccccccccscsccccccccccccccsscccccccccccccccccccccccccccccccccsccccccccccccccccccccccccccc" />
  </g>
</svg>
