<?xml version="1.0" encoding="UTF-8" standalone="no"?>
<!-- Created with Inkscape (http://www.inkscape.org/) -->

<svg
   xmlns:dc="http://purl.org/dc/elements/1.1/"
   xmlns:cc="http://creativecommons.org/ns#"
   xmlns:rdf="http://www.w3.org/1999/02/22-rdf-syntax-ns#"
   xmlns:svg="http://www.w3.org/2000/svg"
   xmlns="http://www.w3.org/2000/svg"
   xmlns:sodipodi="http://sodipodi.sourceforge.net/DTD/sodipodi-0.dtd"
   xmlns:inkscape="http://www.inkscape.org/namespaces/inkscape"
   width="48"
   height="48"
   id="svg2"
   version="1.1"
   inkscape:version="0.48.4 r9939"
   sodipodi:docname="applications-development-web.svg">
  <defs
     id="defs4">
    <clipPath
       id="clipPath-314453158">
      <g
         id="g3046"
         transform="translate(0,-1004.3622)">
        <path
           id="path3048"
           fill="#1890d0"
           transform="matrix(15.333333,0,0,11.5,414.99999,878.8622)"
           d="m -24 13 c 0 1.105 -0.672 2 -1.5 2 -0.828 0 -1.5 -0.895 -1.5 -2 0 -1.105 0.672 -2 1.5 -2 0.828 0 1.5 0.895 1.5 2 z" />
      </g>
    </clipPath>
    <clipPath
       clipPathUnits="userSpaceOnUse"
       id="clipPath3930">
      <path
         transform="matrix(0.85714286,0,0,1,3.4285714,1004.3622)"
         d="M 45,24 A 21,18 0 1 1 3,24 21,18 0 1 1 45,24 z"
         sodipodi:ry="18"
         sodipodi:rx="21"
         sodipodi:cy="24"
         sodipodi:cx="24"
         id="path3932"
         style="fill:#2979ff;fill-opacity:1;stroke:none"
         sodipodi:type="arc" />
    </clipPath>
  </defs>
  <sodipodi:namedview
     id="base"
     pagecolor="#ffffff"
     bordercolor="#666666"
     borderopacity="1.0"
     inkscape:pageopacity="0.0"
     inkscape:pageshadow="2"
     inkscape:zoom="11.583333"
     inkscape:cx="-12.60606"
     inkscape:cy="21.825645"
     inkscape:document-units="px"
     inkscape:current-layer="layer1"
     showgrid="true"
     inkscape:snap-bbox="true"
     inkscape:window-width="1301"
     inkscape:window-height="744"
     inkscape:window-x="65"
     inkscape:window-y="24"
     inkscape:window-maximized="1"
     inkscape:object-nodes="false"
     inkscape:snap-nodes="true"
     showguides="true"
     inkscape:guide-bbox="true">
    <inkscape:grid
       type="xygrid"
       id="grid3005"
       empspacing="6"
       visible="true"
       enabled="true"
       snapvisiblegridlinesonly="true" />
    <sodipodi:guide
       orientation="0,1"
       position="18,42"
       id="guide2989" />
    <sodipodi:guide
       orientation="0,1"
       position="17,6"
       id="guide2991" />
    <sodipodi:guide
       orientation="1,0"
       position="3,38"
       id="guide2993" />
    <sodipodi:guide
       orientation="1,0"
       position="45,33"
       id="guide2995" />
  </sodipodi:namedview>
  <metadata
     id="metadata7">
    <rdf:RDF>
      <cc:Work
         rdf:about="">
        <dc:format>image/svg+xml</dc:format>
        <dc:type
           rdf:resource="http://purl.org/dc/dcmitype/StillImage" />
        <dc:title />
      </cc:Work>
    </rdf:RDF>
  </metadata>
  <g
     inkscape:label="Layer 1"
     inkscape:groupmode="layer"
     id="layer1"
     transform="translate(0,-1004.3622)">
    <path
       transform="matrix(0.85714286,0,0,1,4.4285714,1005.3622)"
       d="M 45,24 C 45,33.941125 35.59798,42 24,42 12.40202,42 3,33.941125 3,24 3,14.058875 12.40202,6 24,6 35.59798,6 45,14.058875 45,24 z"
       sodipodi:ry="18"
       sodipodi:rx="21"
       sodipodi:cy="24"
       sodipodi:cx="24"
       id="path3934"
       style="fill:#000000;fill-opacity:1;stroke:none;opacity:0.1"
       sodipodi:type="arc" />
    <path
       sodipodi:type="arc"
       style="fill:#ffa000;fill-opacity:1;stroke:none"
       id="path3029"
       sodipodi:cx="24"
       sodipodi:cy="24"
       sodipodi:rx="21"
       sodipodi:ry="18"
       d="M 45,24 C 45,33.941125 35.59798,42 24,42 12.40202,42 3,33.941125 3,24 3,14.058875 12.40202,6 24,6 35.59798,6 45,14.058875 45,24 z"
       transform="matrix(0.85714286,0,0,1,3.4285714,1004.3622)" />
    <g
       id="g3062"
       transform="translate(-47.998,1004.3622)" />
    <path
       style="opacity:0.1;fill:#000000;fill-opacity:1;fill-rule:nonzero;stroke:none"
       inkscape:connector-curvature="0"
       d="m 18.739132,1012.0713 -0.657392,0.1956 -0.758348,0.052 -0.468,0.3396 -0.608087,-0.024 0.04931,0.3914 0.880435,-0.024 0.317739,0.8562 0.122087,0.468 -0.489131,0.2692 -0.195652,0.3639 0.14713,0.8319 0.586957,0.098 0.562696,-0.5384 0.48913,-0.5134 0.758348,-0.1956 0.954,-0.4649 0.562696,-0.6848 0.806869,-0.9814 0.562696,-0.1471 -0.02426,-0.2168 -0.880435,0 -2.714869,-0.074 m -1.736609,0.049 -0.636261,0.027 -1.100348,0.2935 -0.636261,0.1957 -0.734087,-0.2935 -0.09783,0.4406 0.877305,0.5134 c 0,0 1.602,-0.8836 1.690434,-0.8836 m 17.116435,-0.1189 -0.14713,0.2473 0.904696,0.1158 0.0493,-0.2113 m -7.752522,0 c -0.04304,0.016 -1.198174,0.018 -1.198174,0.018 l -0.293478,0.077 0.391304,0.468 0.415566,-0.3913 0.269217,0.1714 0.391304,-0.1957 c 0,0 0.07043,-0.1651 0.02426,-0.1471 m 4.402174,0.3639 -0.363913,0.049 -0.320869,0.1957 -0.363913,0.2723 -0.219914,0.3913 0.342783,0.3428 0.293478,0.024 0.122087,-0.1988 -0.293478,-0.245 0.171391,-0.1471 0.02426,-0.119 0.367044,-0.2449 c 0,0 0.476608,0.01 0.510261,0 0.03678,-0.01 0.149478,-0.1495 0.149478,-0.1495 l -0.122087,-0.1745 m -20.543479,0.1471 -0.07357,0.2473 0.367044,0.1221 0.415565,-0.1957 m 24.163044,-0.098 -1.666174,0.074 -0.440609,0.2935 -0.486,0.2934 -0.415565,0.3428 0.0493,0.1471 -0.219913,0.024 0,0 -3.197739,0.5322 -2.800174,2.106 -0.293478,0.2199 -0.02426,0 -0.198783,-0.073 c 0,0 -0.118956,0.01 -0.171391,0.052 -0.0493,0.04 -0.0947,0.08 -0.244957,0.095 -0.149478,0.016 -0.440608,0 -0.464869,0 l -0.171392,0 0.02426,-0.1776 0.122087,-0.1957 -0.219913,-0.1745 c 0,0 -0.14713,0.18 -0.149478,0.2199 -0.0063,0.043 0.09783,0.2199 0.09783,0.2199 0,0 -0.0493,0.1409 -0.07357,0.1714 -0.02426,0.03 -0.247305,0.098 -0.247305,0.098 l -0.339652,-0.1714 c 0,0 -0.140869,-0.03 -0.122087,0.049 0.018,0.08 0.174522,0.1526 0.174522,0.22 0,0.064 -0.09783,0.2167 -0.09783,0.2167 l -0.118957,0.1472 -0.198782,0.1987 -0.269218,0.071 c 0,0 -0.192521,0.055 -0.247304,0.073 -0.0493,0.018 -0.195652,0.052 -0.195652,0.052 l -0.198783,0.024 -0.118956,0.1745 0.216782,0.1495 0.147131,0.2418 c 0,0 0.09783,0.1745 0.122087,0.1745 0.02426,0 0.07357,0.1714 0.07357,0.1714 l -0.14713,0.1957 -0.0767,0 -0.513391,0.098 -0.0947,-0.2199 -0.342783,0.3427 -0.14713,0.5627 0,0.468 0.586956,0.3178 0.468,-0.1714 0.46487,-0.8343 0.415565,-0.5102 0.758348,-0.1221 0.171391,-0.1471 0.856174,1.0025 0.09783,0.3428 0.247305,-0.1221 -0.0767,-0.2935 0.149478,0 -0.09469,-0.1988 -0.834261,-0.7826 0.07357,-0.1471 0.269217,-0.024 0.586957,0.587 0.296609,0.3451 0,0.5384 0.14713,0.098 0.293478,0.2934 0.216783,-0.073 -0.118957,-0.443 0.07357,-0.2692 0.14713,-0.1714 0.342783,0.1221 0.122087,0.049 -0.02426,-0.3913 0.195652,-0.3671 0.122087,-0.5384 0.440609,0.074 0.07356,0.2449 0.171391,0.1221 0.195652,-0.1714 -0.122087,-0.2692 0.513392,0 -0.171392,0.2935 0.342783,0.2935 0.293478,0.1471 0.171392,0.3428 -0.391305,0.095 -0.562695,-0.1221 -0.489131,0 -0.464869,0.2473 -0.09783,0.1471 -0.339653,0.074 0.147131,0.367 0.269217,0.3178 0.486,-0.1714 0.122087,0.2168 0.219913,-0.1714 0.293478,0.049 0.02426,0.3208 -0.09783,0.6081 -0.269217,-0.024 -0.317739,-0.049 -0.147131,0.3639 -1.076087,-0.1957 -0.195652,-0.2473 -0.244956,0.2199 -0.269218,0.3671 -0.684782,-0.3913 -0.684783,-0.4125 0,-0.7364 -0.442957,0.024 -0.02426,0.2449 -1.076087,-0.049 -0.339653,0.3146 -0.660521,0.024 -0.442957,0.3913 -0.269217,0.7583 -0.684783,0.5408 -0.48913,0.6605 -0.02426,1.2718 -0.147131,0.3913 -0.05165,0.468 0.296609,0.5103 0.171391,0.4891 0.586957,0.709 0.34513,0.2935 0.339652,0.074 0.07357,-0.2935 1.223217,0 0.317739,-0.1471 0.391304,0.049 0.122087,0.2449 0.415566,0.024 0.269217,0.1956 0,0.4156 -0.09783,0.3428 -0.0947,0.2692 0.241826,0.443 0.32087,0.367 0.14713,0.9297 0.02426,0.6081 -0.219913,0.5134 -0.02426,0.4891 0.171392,0.9047 0.14713,0.1472 0.219913,0.8561 0.02426,0.3671 0.440609,0.5869 0.05165,0.4649 0.07043,0.5385 0.269217,-0.2693 0.684783,-0.07 0.418695,0 0.755218,-1.1739 0.05165,-0.4649 0.513391,-0.5134 0.02113,-0.5869 0.272347,-0.5901 0.636261,-0.6081 0,-0.6848 -0.14713,-0.6362 -0.09783,-0.8805 0.468,-0.7341 0.834261,-1.0275 0.311478,-0.3178 0.122087,-0.4155 0.195652,-0.3671 0.05165,-0.5408 -0.468,0 -0.216782,0.2199 -0.440609,-0.122 -0.269217,-0.4406 -0.219913,-0.4407 -0.513392,-0.3913 -0.122087,-0.6362 -0.219913,-0.3702 -0.241826,-0.4649 -0.320869,-0.5627 -0.07043,-0.367 0.339652,-0.049 0.198783,0.4156 0.391304,0.734 0.293478,0.5385 0.317739,0.5869 0.342783,0.5659 0.46487,0.468 0.415565,-0.3913 0.473478,-0.1221 0.339652,-0.4156 0.46487,-0.2692 0.269217,-0.4649 0.02739,-0.3913 -0.219913,-0.2473 -0.293478,-0.3428 -0.198782,0.1221 -0.118957,0.1988 -0.32087,-0.1471 -0.09783,-0.245 -0.216782,-0.3209 -0.342783,-0.3177 0,-0.6363 0.219913,0.4156 0.269218,0.4187 0.464869,0.2692 0.32087,-0.073 0.195652,0.2199 1.393826,-0.027 -0.02426,0.027 0.440609,0.3913 0.320869,0.4406 0.0947,0.2168 0.219913,0 0.07357,-0.2419 0.07043,0.3639 0.122087,0.6606 0.269217,0.6362 0.147131,0.5385 0.219913,0.5134 0.171391,0.2167 0.244957,-0.1471 0.07043,-0.2449 0.09783,-0.6081 -0.02426,-0.5385 0.195652,-0.2473 c 0,0 0.208174,-0.2809 0.244957,-0.2935 0.03991,-0.01 0.48913,-0.5102 0.48913,-0.5102 l 0.219913,-0.2724 0.244957,-0.1471 0.299739,-0.1714 0.113478,0 0.05165,0.2692 0.122087,0.3178 0.391304,0.5102 0,0.1957 0.07043,0.2199 0.269218,-0.1221 -0.02426,-0.2935 0.247304,0.052 0.0493,0.2692 -0.02113,0.4156 0.07357,0.2934 0.216783,0.052 0.07357,-0.2473 0.269217,0.1714 0.04931,0.2473 0.244956,0.367 0.244957,0.2693 0.171391,0.1494 0.415565,-0.367 0.171392,-0.3451 -0.07044,-0.3913 -0.07356,-0.5134 -0.46487,-0.4406 -0.07357,-0.443 0.198782,-0.3115 c 0,0 0.122087,-0.2504 0.241827,-0.1221 0.118956,0.1315 0.177652,0.1472 0.122087,0.2935 -0.05165,0.144 -0.147131,0.468 -0.147131,0.468 l 0.293478,0.1221 0.122087,-0.4156 -0.122087,-0.2966 0.296609,-0.1221 0.538435,-0.2692 0.339652,-0.4155 0.269217,-0.6332 -0.02426,-0.468 -0.269218,-0.6081 -0.538435,-0.6386 -0.342782,-0.3146 -0.171392,-0.4891 0.31774,-0.077 c 0,0 0.18313,-0.3115 0.342782,-0.1471 0.15887,0.1714 0.391305,0.4155 0.391305,0.4155 0,0 0.277826,0.4406 0.317739,0.4892 0.03991,0.049 0.32713,0.3146 0.367043,0.367 0.03991,0.049 0.219913,0.245 0.219913,0.245 l 0.293478,-0.4125 0.07043,-0.077 0,-0.1471 -0.415565,-0.2473 -0.363913,-0.3397 0.269217,-0.59 0.440609,-0.2168 0.07043,-0.1988 0,-1.1497 -0.216783,-0.4406 -0.244956,-0.3428 c 0,0 -0.253565,-0.037 -0.317739,-0.024 -0.0673,0.013 -0.611218,-0.3913 -0.611218,-0.3913 l 0.05165,-0.3913 0.198783,-0.3428 0.929739,-0.119 0.216783,0.024 0,-0.245 -1.345305,-1.7608 -1.292869,-0.1472 -1.005652,-0.2473 c 0,0 -0.30287,0.2325 -0.46487,0.2473 -0.15887,0.013 -0.709043,0.098 -0.709043,0.098 l -0.562696,-0.3452 -1.173913,-0.098 -0.05165,-0.024 -1.005653,-0.049 -0.604956,-0.3427 m -9.183131,3.8308 2.800174,-2.1154 -0.954,0.5134 -0.244956,-0.1745 -0.118957,-0.1956 0.04931,-0.1988 0.540782,0.027 0.244957,-0.098 -0.489131,-0.2449 -0.684782,-0.2473 -0.684783,-0.1221 -0.734087,0.1495 -0.758348,0.6112 -0.342782,0.3428 -0.510261,0.5627 -0.201913,0.024 -0.07043,0.2692 0.0947,0.2693 c 0,0 0.107217,0.122 0.122086,0.122 0.01565,0 0.198783,-0.098 0.198783,-0.098 0,0 0.018,-0.091 0.122087,-0.1221 0.100957,-0.03 0.195652,-0.049 0.195652,-0.049 l 0.147131,0.2935 0.174521,0.245 0.07357,0.1956 c 0,0 0.284087,-0.1745 0.293478,-0.1956 0.0094,-0.024 0.02426,-0.3209 0.02426,-0.3209 l 0.216782,-0.1471 c 0,0 0.05791,-0.1041 0.05165,-0.1221 -0.0063,-0.016 -0.149479,-0.1714 -0.149479,-0.1714 l -0.118956,-0.049 0.0493,-0.2473 c 0,0 0.0947,-0.04 0.0947,-0.074 0,-0.031 0.149478,-0.1471 0.149478,-0.1471 l 0.174522,-0.2168 0.122087,-0.1471 0.171391,-0.1221 0.195652,0.1471 0,0.098 -0.171391,0.1957 -0.05165,0.1956 0,0.2693 0.149478,0.122 0.269217,-0.024 0.244957,-0.049 0.216783,0.1221 -0.04931,0.1714 c 0,0 -0.152609,0.1471 -0.201913,0.1714 -0.04304,0.024 -0.317739,-0.049 -0.385043,-0.024 -0.07357,0.024 -0.247305,0.2473 -0.247305,0.2473 0,0 -0.02113,0.1956 0,0.245 0.0063,0.018 -0.0031,0.055 -0.01252,0.1009 m 2.790782,-2.0974 3.20087,-0.5439 -0.02426,-0.1221 -0.244957,-0.3428 -0.513391,-0.049 c 0,0 0.122087,0.5197 0.122087,0.587 0,0.064 -0.339652,0.021 -0.339652,0.021 l -0.586957,0.027 c 0,0 -0.849913,0.1957 -0.95713,0.1957 -0.100957,0 -0.596348,0.205 -0.633131,0.2199 l -0.02113,0 m -19.6043481,-1.4275 -0.3913044,0.443 0.342,0.1714 0.4429566,-0.1988 0.024261,0.4891 0.367043,0.2473 0.391305,-0.3701 0.538435,0.098 0.219913,-0.5103 -0.880435,-0.077 m 1.393826,-0.2168 0.342783,0.8562 -0.415566,0.049 -0.317739,0.3913 -0.712174,-0.2168 -0.63313,0.245 -0.6112176,-0.1471 -0.7090435,-0.443 -0.9782609,0.024 -0.8593043,0.367 -0.5626957,-0.2692 -0.3396522,-0.024 0,10.6388 0.6605218,0.3671 0.3913043,-0.052 0.5626957,0.2692 0.8561739,0.468 0.122087,0.5659 0.6847826,0.6573 0.3913043,-0.2934 0.3177396,0.2473 -0.04931,-0.5659 -0.6112172,0.1495 -0.1956522,-0.709 -0.073565,-0.3209 -0.5407826,-0.486 0,-0.3428 0.4155652,-0.4429 -0.2692174,-0.3146 -0.4406087,0.07 -0.6605217,0.6605 -0.5384348,-0.07 c 0,0 -0.2449565,-0.4156 -0.2934783,-0.5134 -0.049304,-0.098 0.1471305,-0.4406 0.1471305,-0.4406 l -0.049304,-1.0057 0.5626957,-0.3913 0.4406087,-0.1495 0.6362609,0 0.8773043,-0.1956 0.3208696,0.4156 -0.051652,0.4891 0.3670438,0.3177 0.05165,-0.3451 c 0,0 -0.02426,-0.5627 -0.07357,-0.709 -0.04931,-0.1472 0.440608,-0.4892 0.440608,-0.4892 l 0.391305,-0.4797 0.464869,-0.569 0.219913,-0.4406 0.736435,-0.3882 0.486,-0.5407 c 0,0 0.734087,-0.1159 0.880435,-0.1988 0.149478,-0.071 0.05165,-0.3397 -0.09783,-0.587 -0.149478,-0.2449 0.07357,-0.4891 0.07357,-0.4891 l 0.562696,-0.3397 0.486,0.095 0.05165,0.5901 c 0,0 0.458609,0.4406 0.608087,0.3639 0.149478,-0.07 0.219913,-0.3177 0.219913,-0.3177 l -0.244957,-0.6363 0.147131,-0.6331 -0.660522,0.095 0,-1.0761 -0.195652,0.1988 -0.513391,0.024 -0.07357,-0.5385 -0.339652,-0.4155 c 0,0 -0.336522,0.1956 -0.660522,0.3177 -0.324,0.1221 -0.244956,0.367 -0.244956,0.367 l -0.02426,0.6606 -0.538435,0.4406 -0.342782,0.5134 c 0,0 -0.216783,-0.1472 -0.216783,-0.245 0,-0.098 -0.05165,-0.367 -0.05165,-0.367 l -0.562696,-0.4406 c 0,0 -0.440608,-0.3178 -0.464869,-0.4156 -0.02426,-0.098 0.269217,-0.5384 0.269217,-0.5384 0,0 0.63313,-0.3913 0.782609,-0.5134 0.149478,-0.1221 0.950869,0.2692 1.048695,0.1987 0.100957,-0.073 0.489131,-0.6847 0.489131,-0.6847 l 0.342782,-0.468 -0.342782,0.3913 -0.586957,-0.5627 0.09783,-0.5627 -0.806869,-0.1221 m 1.962782,0.027 -0.198782,0.4891 0.122087,0.2692 0.442956,-0.052 0.195653,0.367 -0.391305,0.4156 -0.440609,0.049 0.391305,0.1745 0.415565,0.3639 0.412435,0.098 0.149478,-0.5627 0.02426,-0.3428 0.48913,0.073 c 0,0 -0.149478,0.245 -0.0767,0.245 0.07983,0 0.370174,-0.3177 0.370174,-0.3177 l -0.834261,-0.8593 c 0,0 -0.342783,-0.2693 -0.440609,-0.1957 -0.104087,0.07 -0.370174,0.049 -0.370174,0.049 l -0.269217,-0.2692 m 6.801652,1.4001 -0.09783,0.3208 c 0.351391,0.2724 0.48913,0.2693 0.48913,0.2693 l 0.412435,-0.098 0.272348,-0.2692 -0.174522,-0.2199 -0.901565,0 m 2.173304,1.3938 -0.195652,0.1714 c -0.0493,0.2387 -0.118956,0.486 -0.118956,0.486 l 0.370174,0.1745 0.0493,0.2168 -0.198783,0.1988 -0.171391,0.2935 0.122087,0.1221 0.440609,-0.074 0.391304,-0.1714 -0.216782,-0.2935 -0.07357,-0.5134 -0.269217,-0.2934 m -0.730957,0.6081 -0.219913,0.367 0.293479,0.1221 0.122087,-0.2199 m -12.279914,0.5901 0.513392,0.2167 0.342782,0.443 0.216783,0.3397 c 0,0 -0.192522,0.6605 -0.244957,0.7826 -0.05165,0.122 -0.201913,-0.245 -0.201913,-0.245 l -0.115826,-0.6363 -0.415565,0.1746 -0.317739,0.7552 0.07043,-0.6331 0.09783,-0.443 -0.5133916,-0.1957 0.4429566,-0.4155 0.122087,-0.1472 m 20.647565,0.5901 c 0.104087,-0.034 0.293479,0.1221 0.293479,0.1221 l -0.198783,0.1714 0.07357,0.245 0.219913,0.5869 0.216783,0.3671 0.296609,0.4648 -0.32087,0.1495 -0.415565,-0.2692 -0.171391,-0.5134 c 0,0 -0.235566,-0.3177 -0.345131,-0.367 -0.104087,-0.052 -0.195652,-0.2199 -0.195652,-0.2199 l 0.09783,-0.4156 c 0,0 0.336522,-0.281 0.442957,-0.3178 m -6.181044,0.9267 -0.293478,0.5627 0.216782,0.2199 0.198783,-0.1746 0.02426,-0.2418 m -1.127739,0.2199 0,0.1472 0.122087,-0.024 m 1.565217,0.245 -0.14713,0.049 0.244956,0.4155 0.219913,-0.1714 m -16.0677393,2.9841 -0.2449565,0.1221 0.4124348,0.2199 0.47113,0.095 0.269218,0.3671 0.317739,-0.1957 -0.05165,-0.2199 -0.538435,-0.3913 -0.6362609,0 m 1.3179129,2.4245 -0.636261,0.3451 -0.07357,0.706 -0.14713,0.7826 -0.440609,0.5869 0.02113,0.8773 0.3701736,0.9047 0.391305,1.1004 1.027565,1.0275 0.0493,0.587 0.07043,2.6444 0.367044,1.4917 c 0,0 0.226173,0.8624 0.171391,0.9321 -0.05165,0.067 0.296609,0.7059 0.296609,0.7059 l 0.684782,1.0761 0.954,0.4155 -0.391304,-0.468 -0.198783,-0.5384 0.198783,-0.5627 -0.513391,-0.2692 c 0,0 0.342782,-0.2231 0.391304,-0.2935 0.05165,-0.07 -0.07357,-0.367 -0.07357,-0.367 l -0.147131,-0.3671 0.391305,-0.5102 0.611217,-0.1495 0.0947,-0.468 -0.363913,-0.1714 0.14713,-0.3913 0.586957,-0.071 0.513391,-1.2506 0.367043,-0.8561 0.755218,-0.3671 c 0,0 0.244956,-0.7278 0.244956,-0.8342 0,-0.101 0.07357,-1.1982 0.07357,-1.1982 l 0.586957,-0.8038 0.0767,-0.5384 -0.442957,-0.2692 -0.363913,-0.443 -0.660522,0.052 -1.054956,-0.6112 -0.216783,-0.5134 c 0,0 -0.370174,-0.6331 -0.442956,-0.6331 -0.07043,0 -0.513392,0.024 -0.513392,0.024 l -0.412434,-0.4156 -0.272348,-0.5133 -1.051826,-0.22 -0.339653,-0.1713 -0.684782,0 m 28.513566,0.3881 c 0.08843,0.101 0.638608,1.7366 0.712173,1.7366 0.0673,0 0.486,0.052 0.486,0.052 l -0.219913,-0.6605 m -3.787826,-1.0761 -0.244956,0.3177 0.122087,0.468 0.269217,-0.2935 -0.05165,-0.3701 m 6.236609,0.4406 -1.149652,0.6362 c 0,0.071 -0.562696,0.5385 -0.562696,0.5385 l 0.14713,0.4891 0.317739,0.3639 0.219914,0.5408 1.467391,-0.9571 -0.442957,-1.6146 m -3.589043,0.3452 -0.342783,0.049 1.565218,2.3478 0.415565,0.4649 1.024435,0.052 0.63626,0.1988 -0.684782,-0.4891 -0.978261,-0.2724 -0.244957,-0.9015 -0.538434,-0.443 -0.856174,-1.0025 m -8.214261,3.8089 0,0.3452 c -0.01565,0.049 -0.317739,0.2935 -0.317739,0.2935 l -0.367044,0.1713 -0.269217,0.22 0.195652,0.2692 0.122087,0.1221 -0.317739,0.2692 0,0.4406 0.122087,0.4649 0.269217,0.073 0.317739,-0.4891 0.198783,-0.3177 -0.05165,-0.3914 0.293478,-0.4648 0.09783,-0.2199 0,-0.4406 -0.07043,-0.3428 m 12.347218,0.5627 c -0.0031,0 -0.02426,0.024 -0.02426,0.024 l -0.391304,0.8069 c 0,0 -0.862435,0.1283 -0.883566,0.1988 -0.01565,0.067 -0.440608,0.2935 -0.440608,0.2935 -0.08843,0 -0.367044,0.5134 -0.367044,0.5134 l -0.05165,1.6145 -0.09783,0.5869 0.247304,0.3178 1.195044,-0.4156 0.391304,-0.4406 0.415565,0 0,-3.4975 m -28.586348,6.8447 -0.171391,0.119 -0.07357,0.024 0.391305,0.1957 -0.149478,-0.3397 m -0.660522,0.144 -0.171392,0.3913 0.339653,-0.073 -0.171392,-0.3178 m 1.177044,3.2283 -0.367044,0.5627 -0.684782,0.3177 0.391304,0.4892 -0.590087,0.2934 -1.932261,-0.098 -0.586956,-0.5869 -0.513392,-0.098 0.513392,1.0761 -0.904696,-0.1714 -3.1061739,0.098 -0.6605218,0.8562 -0.954,-0.098 -0.094696,0.1988 0,3.2008 35.4365224,0 2.127913,-1.3906 0,-1.4917 -0.09783,-0.9321 -0.755217,-0.1714 -0.954,0.1221 -0.687913,0.6081 -1.152783,0.468 0.48913,-0.5901 1.051826,-0.6081 1.687305,-0.3913 0.195652,-0.6848 -0.782609,0 c 0,0 -1.048695,-0.5227 -1.048695,-0.6605 0,-0.1377 -1.173913,-0.098 -1.173913,-0.098 l -1.345305,0.1471 -1.296,-0.07 -2.592782,0.098 -2.397131,0.486 c 0,0 -1.155913,0.6206 -1.296,0.5901 -0.14087,-0.034 0.48913,-0.8069 0.48913,-0.8069 l -1.125391,0.074 -0.709043,-0.587 -0.709044,0.4829 c 0,0 -0.950869,0.077 -1.195043,0.077 -0.247305,0 -0.565826,0.4406 -0.565826,0.4406 l -1.932261,-0.07 -3.326087,0.1471 -0.877305,0.7552 -0.216782,0.027 -2.522348,-0.1745 -1.736609,0.1745 -0.608087,-0.2966 0.02426,-0.049 c 0,0 -0.513391,-1.033 -0.513391,-1.1739 0,-0.1378 -0.391305,-0.486 -0.391305,-0.486 m 0.262957,2.4949 1.051826,0.3428 -1.29287,0 -0.513391,-0.2692 m 0.758348,-0.074"
       id="path3915"
       clip-path="url(#clipPath3930)" />
    <g
       id="g3076"
       transform="matrix(0.78260871,0,0,0.78260871,5.217392,1009.5796)"
       style="fill:#ffecb3">
      <g
         clip-path="url(#clipPath-314453158)"
         id="g3078"
         style="fill:#ffecb3">
        <!-- color: #20a0db -->
        <g
           id="g3080"
           style="fill:#ffecb3">
          <path
             style="fill:#ffecb3;fill-opacity:1;fill-rule:nonzero;stroke:none"
             inkscape:connector-curvature="0"
             d="m 16,1.906 -0.84,0.25 -0.969,0.066 -0.598,0.434 -0.777,-0.031 0.063,0.5 1.125,-0.031 0.406,1.094 0.156,0.598 -0.625,0.344 -0.25,0.465 0.188,1.063 0.75,0.125 0.719,-0.688 0.625,-0.656 0.969,-0.25 1.219,-0.594 0.719,-0.875 1.031,-1.254 0.719,-0.188 -0.031,-0.277 -1.125,0 -3.469,-0.094 M 13.786,1.97 12.973,2.005 11.567,2.38 10.754,2.63 9.816,2.255 9.691,2.818 10.812,3.474 c 0,0 2.047,-1.129 2.16,-1.129 m 21.871,-0.152 -0.188,0.316 1.156,0.148 0.063,-0.27 m -9.906,0 C 25.913,2.407 24.437,2.41 24.437,2.41 l -0.375,0.098 0.5,0.598 0.531,-0.5 0.344,0.219 0.5,-0.25 c 0,0 0.09,-0.211 0.031,-0.188 m 5.625,0.465 -0.465,0.063 -0.41,0.25 -0.465,0.348 -0.281,0.5 0.438,0.438 0.375,0.031 0.156,-0.254 -0.375,-0.313 0.219,-0.188 0.031,-0.152 0.469,-0.313 c 0,0 0.609,0.008 0.652,0 0.047,-0.012 0.191,-0.191 0.191,-0.191 L 31.972,2.848 M 5.722,3.036 5.628,3.352 6.097,3.508 6.628,3.258 m 30.875,-0.125 -2.129,0.094 -0.563,0.375 -0.621,0.375 -0.531,0.438 0.063,0.188 -0.281,0.031 0,0.004 -4.086,0.68 -3.578,2.691 -0.375,0.281 -0.031,0 -0.254,-0.094 c 0,0 -0.152,0.008 -0.219,0.066 -0.063,0.051 -0.121,0.102 -0.313,0.121 -0.191,0.02 -0.563,0 -0.594,0 l -0.219,0 0.031,-0.227 0.156,-0.25 -0.281,-0.223 c 0,0 -0.188,0.23 -0.191,0.281 -0.008,0.055 0.125,0.281 0.125,0.281 0,0 -0.063,0.18 -0.094,0.219 -0.031,0.039 -0.316,0.125 -0.316,0.125 L 22.768,8.37 c 0,0 -0.18,-0.039 -0.156,0.063 0.023,0.102 0.223,0.195 0.223,0.281 0,0.082 -0.125,0.277 -0.125,0.277 l -0.152,0.188 -0.254,0.254 -0.344,0.09 c 0,0 -0.246,0.07 -0.316,0.094 -0.063,0.023 -0.25,0.066 -0.25,0.066 l -0.254,0.031 -0.152,0.223 0.277,0.191 0.188,0.309 c 0,0 0.125,0.223 0.156,0.223 0.031,0 0.094,0.219 0.094,0.219 l -0.188,0.25 -0.098,0 -0.656,0.125 -0.121,-0.281 -0.438,0.438 -0.188,0.719 0,0.598 0.75,0.406 0.598,-0.219 0.594,-1.066 0.531,-0.652 0.969,-0.156 0.219,-0.188 1.094,1.281 0.125,0.438 0.316,-0.156 -0.098,-0.375 0.191,0 -0.121,-0.254 -1.066,-1 0.094,-0.188 0.344,-0.031 0.75,0.75 0.379,0.441 0,0.688 0.188,0.125 0.375,0.375 0.277,-0.094 -0.152,-0.566 0.094,-0.344 0.188,-0.219 0.438,0.156 0.156,0.063 -0.031,-0.5 0.25,-0.469 0.156,-0.688 0.563,0.094 0.094,0.313 0.219,0.156 0.25,-0.219 -0.156,-0.344 0.656,0 -0.219,0.375 0.438,0.375 0.375,0.188 0.219,0.438 -0.5,0.121 -0.719,-0.156 -0.625,0 -0.594,0.316 -0.125,0.188 -0.434,0.094 0.188,0.469 0.344,0.406 0.621,-0.219 0.156,0.277 0.281,-0.219 0.375,0.063 0.031,0.41 -0.125,0.777 -0.344,-0.031 -0.406,-0.063 -0.188,0.465 -1.375,-0.25 -0.25,-0.316 -0.313,0.281 -0.344,0.469 -0.875,-0.5 -0.875,-0.527 0,-0.941 -0.566,0.031 -0.031,0.313 -1.375,-0.063 -0.434,0.402 -0.844,0.031 -0.566,0.5 -0.344,0.969 -0.875,0.691 -0.625,0.844 -0.031,1.625 -0.188,0.5 -0.066,0.598 0.379,0.652 0.219,0.625 0.75,0.906 0.441,0.375 0.434,0.094 0.094,-0.375 1.563,0 0.406,-0.188 0.5,0.063 0.156,0.313 0.531,0.031 0.344,0.25 0,0.531 -0.125,0.438 -0.121,0.344 0.309,0.566 0.41,0.469 0.188,1.188 0.031,0.777 -0.281,0.656 -0.031,0.625 0.219,1.156 0.188,0.188 0.281,1.094 0.031,0.469 0.563,0.75 0.066,0.594 0.09,0.688 0.344,-0.344 0.875,-0.09 0.535,0 0.965,-1.5 0.066,-0.594 0.656,-0.656 0.027,-0.75 0.348,-0.754 0.813,-0.777 0,-0.875 -0.188,-0.813 -0.125,-1.125 0.598,-0.938 1.066,-1.313 0.398,-0.406 0.156,-0.531 0.25,-0.469 0.066,-0.691 -0.598,0 -0.277,0.281 -0.563,-0.156 -0.344,-0.563 -0.281,-0.563 -0.656,-0.5 -0.156,-0.813 -0.281,-0.473 -0.309,-0.594 -0.41,-0.719 -0.09,-0.469 0.434,-0.063 0.254,0.531 0.5,0.938 0.375,0.688 0.406,0.75 0.438,0.723 0.594,0.598 0.531,-0.5 0.605,-0.156 0.434,-0.531 0.594,-0.344 0.344,-0.594 0.035,-0.5 -0.281,-0.316 -0.375,-0.438 -0.254,0.156 -0.152,0.254 -0.41,-0.188 -0.125,-0.313 -0.277,-0.41 -0.438,-0.406 0,-0.813 0.281,0.531 0.344,0.535 0.594,0.344 0.41,-0.094 0.25,0.281 1.781,-0.035 -0.031,0.035 0.563,0.5 0.41,0.563 0.121,0.277 0.281,0 0.094,-0.309 0.09,0.465 0.156,0.844 0.344,0.813 0.188,0.688 0.281,0.656 0.219,0.277 0.313,-0.188 0.09,-0.313 0.125,-0.777 -0.031,-0.688 0.25,-0.316 c 0,0 0.266,-0.359 0.313,-0.375 0.051,-0.012 0.625,-0.652 0.625,-0.652 l 0.281,-0.348 0.313,-0.188 0.383,-0.219 0.145,0 0.066,0.344 0.156,0.406 0.5,0.652 0,0.25 0.09,0.281 0.344,-0.156 -0.031,-0.375 0.316,0.066 0.063,0.344 -0.027,0.531 0.094,0.375 0.277,0.066 0.094,-0.316 0.344,0.219 0.063,0.316 0.313,0.469 0.313,0.344 0.219,0.191 0.531,-0.469 0.219,-0.441 -0.09,-0.5 -0.094,-0.656 -0.594,-0.563 -0.094,-0.566 0.254,-0.398 c 0,0 0.156,-0.32 0.309,-0.156 0.152,0.168 0.227,0.188 0.156,0.375 -0.066,0.184 -0.188,0.598 -0.188,0.598 l 0.375,0.156 0.156,-0.531 -0.156,-0.379 0.379,-0.156 0.688,-0.344 0.434,-0.531 0.344,-0.809 -0.031,-0.598 -0.344,-0.777 -0.688,-0.816 -0.438,-0.402 -0.219,-0.625 0.406,-0.098 c 0,0 0.234,-0.398 0.438,-0.188 0.203,0.219 0.5,0.531 0.5,0.531 0,0 0.355,0.563 0.406,0.625 0.051,0.063 0.418,0.402 0.469,0.469 0.051,0.063 0.281,0.313 0.281,0.313 l 0.375,-0.527 0.09,-0.098 0,-0.188 -0.531,-0.316 -0.465,-0.434 0.344,-0.754 0.563,-0.277 0.09,-0.254 0,-1.469 -0.277,-0.563 -0.313,-0.438 c 0,0 -0.324,-0.047 -0.406,-0.031 -0.086,0.016 -0.781,-0.5 -0.781,-0.5 l 0.066,-0.5 0.254,-0.438 1.188,-0.152 0.277,0.031 0,-0.313 L 46.313,4.274 44.661,4.086 43.376,3.77 c 0,0 -0.387,0.297 -0.594,0.316 -0.203,0.016 -0.906,0.125 -0.906,0.125 L 41.157,3.77 39.657,3.645 39.591,3.614 38.306,3.551 37.533,3.113 M 25.799,8.008 29.377,5.305 28.158,5.961 27.845,5.738 27.693,5.488 27.756,5.234 28.447,5.269 28.76,5.144 28.135,4.831 27.26,4.515 26.385,4.359 25.447,4.55 24.478,5.331 24.04,5.769 23.388,6.488 23.13,6.519 23.04,6.863 23.161,7.207 c 0,0 0.137,0.156 0.156,0.156 0.02,0 0.254,-0.125 0.254,-0.125 0,0 0.023,-0.117 0.156,-0.156 0.129,-0.039 0.25,-0.063 0.25,-0.063 l 0.188,0.375 0.223,0.313 0.094,0.25 c 0,0 0.363,-0.223 0.375,-0.25 0.012,-0.031 0.031,-0.41 0.031,-0.41 l 0.277,-0.188 c 0,0 0.074,-0.133 0.066,-0.156 C 25.223,6.933 25.04,6.734 25.04,6.734 L 24.888,6.671 24.951,6.355 c 0,0 0.121,-0.051 0.121,-0.094 0,-0.039 0.191,-0.188 0.191,-0.188 l 0.223,-0.277 0.156,-0.188 0.219,-0.156 0.25,0.188 0,0.125 -0.219,0.25 -0.066,0.25 0,0.344 0.191,0.156 0.344,-0.031 0.313,-0.063 0.277,0.156 -0.063,0.219 c 0,0 -0.195,0.188 -0.258,0.219 -0.055,0.031 -0.406,-0.063 -0.492,-0.031 -0.094,0.031 -0.316,0.316 -0.316,0.316 0,0 -0.027,0.25 0,0.313 0.008,0.023 -0.004,0.07 -0.016,0.129 M 29.372,5.312 33.462,4.617 33.431,4.461 33.118,4.023 32.462,3.96 c 0,0 0.156,0.664 0.156,0.75 0,0.082 -0.434,0.027 -0.434,0.027 l -0.75,0.035 c 0,0 -1.086,0.25 -1.223,0.25 -0.129,0 -0.762,0.262 -0.809,0.281 L 29.375,5.307 M 4.325,3.483 3.825,4.049 4.262,4.268 4.828,4.014 4.859,4.639 5.328,4.955 5.828,4.482 6.516,4.607 6.797,3.955 5.672,3.857 M 7.453,3.58 7.891,4.674 7.36,4.737 6.954,5.237 6.044,4.96 5.235,5.273 4.454,5.085 3.548,4.519 2.298,4.55 1.2,5.019 0.481,4.675 0.047,4.644 l 0,13.594 0.844,0.469 0.5,-0.066 0.719,0.344 1.094,0.598 0.156,0.723 0.875,0.84 0.5,-0.375 0.406,0.316 -0.063,-0.723 -0.781,0.191 -0.25,-0.906 -0.094,-0.41 -0.691,-0.621 0,-0.438 0.531,-0.566 -0.344,-0.402 -0.563,0.09 -0.844,0.844 -0.688,-0.09 c 0,0 -0.313,-0.531 -0.375,-0.656 -0.063,-0.125 0.188,-0.563 0.188,-0.563 l -0.063,-1.285 0.719,-0.5 0.563,-0.191 0.813,0 1.121,-0.25 0.41,0.531 -0.066,0.625 0.469,0.406 0.066,-0.441 c 0,0 -0.031,-0.719 -0.094,-0.906 -0.063,-0.188 0.563,-0.625 0.563,-0.625 l 0.5,-0.613 0.594,-0.727 0.281,-0.563 0.941,-0.496 0.621,-0.691 c 0,0 0.938,-0.148 1.125,-0.254 0.191,-0.09 0.066,-0.434 -0.125,-0.75 C 9.414,9.794 9.699,9.482 9.699,9.482 l 0.719,-0.434 0.621,0.121 0.066,0.754 c 0,0 0.586,0.563 0.777,0.465 0.191,-0.09 0.281,-0.406 0.281,-0.406 L 11.85,9.169 12.038,8.36 11.194,8.481 11.194,7.106 10.944,7.36 10.288,7.391 10.194,6.703 9.76,6.172 c 0,0 -0.43,0.25 -0.844,0.406 C 8.502,6.734 8.603,7.047 8.603,7.047 L 8.572,7.891 7.884,8.454 7.446,9.11 c 0,0 -0.277,-0.188 -0.277,-0.313 0,-0.125 -0.066,-0.469 -0.066,-0.469 L 6.384,7.765 c 0,0 -0.563,-0.406 -0.594,-0.531 -0.031,-0.125 0.344,-0.688 0.344,-0.688 0,0 0.809,-0.5 1,-0.656 C 7.325,5.734 8.349,6.234 8.474,6.144 8.603,6.05 9.099,5.269 9.099,5.269 L 9.537,4.671 9.099,5.171 8.349,4.452 8.474,3.733 7.443,3.577 m 2.508,0.035 -0.254,0.625 0.156,0.344 0.566,-0.066 0.25,0.469 -0.5,0.531 -0.563,0.063 0.5,0.223 0.531,0.465 0.527,0.125 0.191,-0.719 0.031,-0.438 0.625,0.094 c 0,0 -0.191,0.313 -0.098,0.313 0.102,0 0.473,-0.406 0.473,-0.406 L 11.32,4.137 c 0,0 -0.438,-0.344 -0.563,-0.25 -0.133,0.09 -0.473,0.063 -0.473,0.063 L 9.94,3.606 m 8.691,1.789 -0.125,0.41 c 0.449,0.348 0.625,0.344 0.625,0.344 l 0.527,-0.125 0.348,-0.344 -0.223,-0.281 -1.152,0 m 2.777,1.781 -0.25,0.219 C 21.095,7.704 21.006,8.02 21.006,8.02 l 0.473,0.223 0.063,0.277 -0.254,0.254 -0.219,0.375 0.156,0.156 0.563,-0.094 0.5,-0.219 L 22.011,8.617 21.917,7.961 21.573,7.586 m -0.934,0.777 -0.281,0.469 0.375,0.156 0.156,-0.281 m -15.691,0.754 0.656,0.277 0.438,0.566 0.277,0.434 c 0,0 -0.246,0.844 -0.313,1 C 6.19,11.894 5.998,11.425 5.998,11.425 L 5.85,10.612 5.319,10.835 4.913,11.8 5.003,10.991 5.128,10.425 4.472,10.175 5.038,9.644 5.194,9.456 m 26.383,0.754 c 0.133,-0.043 0.375,0.156 0.375,0.156 l -0.254,0.219 0.094,0.313 0.281,0.75 0.277,0.469 0.379,0.594 -0.41,0.191 -0.531,-0.344 -0.219,-0.656 c 0,0 -0.301,-0.406 -0.441,-0.469 -0.133,-0.066 -0.25,-0.281 -0.25,-0.281 l 0.125,-0.531 c 0,0 0.43,-0.359 0.566,-0.406 m -7.898,1.184 -0.375,0.719 0.277,0.281 0.254,-0.223 0.031,-0.309 m -1.441,0.281 0,0.188 0.156,-0.031 m 2,0.313 -0.188,0.063 0.313,0.531 0.281,-0.219 m -20.531,3.813 -0.313,0.156 0.527,0.281 0.602,0.121 0.344,0.469 0.406,-0.25 -0.066,-0.281 -0.688,-0.5 -0.813,0 m 1.684,3.098 -0.813,0.441 -0.094,0.902 -0.188,1 -0.563,0.75 0.027,1.121 0.473,1.156 0.5,1.406 1.313,1.313 0.063,0.75 0.09,3.379 0.469,1.906 c 0,0 0.289,1.102 0.219,1.191 -0.066,0.086 0.379,0.902 0.379,0.902 L 8.881,37.492 10.1,38.023 9.6,37.425 9.346,36.737 9.6,36.018 8.944,35.674 c 0,0 0.438,-0.285 0.5,-0.375 C 9.51,35.209 9.35,34.83 9.35,34.83 l -0.188,-0.469 0.5,-0.652 0.781,-0.191 0.121,-0.598 -0.465,-0.219 0.188,-0.5 0.75,-0.09 0.656,-1.598 0.469,-1.094 0.965,-0.469 c 0,0 0.313,-0.93 0.313,-1.066 0,-0.129 0.094,-1.531 0.094,-1.531 l 0.75,-1.027 0.098,-0.688 -0.566,-0.344 -0.465,-0.566 -0.844,0.066 -1.348,-0.781 -0.277,-0.656 c 0,0 -0.473,-0.809 -0.566,-0.809 -0.09,0 -0.656,0.031 -0.656,0.031 L 9.133,21.048 8.785,20.392 7.441,20.111 7.007,19.892 l -0.875,0 m 36.434,0.496 c 0.113,0.129 0.816,2.219 0.91,2.219 0.086,0 0.621,0.066 0.621,0.066 l -0.281,-0.844 m -4.84,-1.375 -0.313,0.406 0.156,0.598 0.344,-0.375 -0.066,-0.473 m 7.969,0.563 -1.469,0.813 c 0,0.09 -0.719,0.688 -0.719,0.688 l 0.188,0.625 0.406,0.465 0.281,0.691 1.875,-1.223 -0.566,-2.063 m -4.586,0.441 -0.438,0.063 2,3 0.531,0.594 1.309,0.066 0.813,0.254 -0.875,-0.625 -1.25,-0.348 -0.313,-1.152 -0.688,-0.566 -1.094,-1.281 m -10.496,4.867 0,0.441 c -0.02,0.063 -0.406,0.375 -0.406,0.375 l -0.469,0.219 -0.344,0.281 0.25,0.344 0.156,0.156 -0.406,0.344 0,0.563 0.156,0.594 0.344,0.094 0.406,-0.625 0.254,-0.406 -0.066,-0.5 0.375,-0.594 0.125,-0.281 0,-0.563 -0.09,-0.438 m 15.777,0.719 c -0.004,0 -0.031,0.031 -0.031,0.031 l -0.5,1.031 c 0,0 -1.102,0.164 -1.129,0.254 -0.02,0.086 -0.563,0.375 -0.563,0.375 -0.113,0 -0.469,0.656 -0.469,0.656 l -0.066,2.063 -0.125,0.75 0.316,0.406 1.527,-0.531 0.5,-0.563 0.531,0 0,-4.469 m -36.527,8.746 -0.219,0.152 -0.094,0.031 0.5,0.25 -0.191,-0.434 m -0.844,0.184 -0.219,0.5 0.434,-0.094 -0.219,-0.406 m 1.504,4.125 -0.469,0.719 -0.875,0.406 0.5,0.625 -0.754,0.375 -2.469,-0.125 -0.75,-0.75 -0.656,-0.125 0.656,1.375 -1.156,-0.219 -3.969,0.125 -0.844,1.094 -1.219,-0.125 -0.121,0.254 0,4.09 45.28,0 2.719,-1.777 0,-1.906 -0.125,-1.191 -0.965,-0.219 -1.219,0.156 -0.879,0.777 -1.473,0.598 0.625,-0.754 1.344,-0.777 2.156,-0.5 0.25,-0.875 -1,0 c 0,0 -1.34,-0.668 -1.34,-0.844 0,-0.176 -1.5,-0.125 -1.5,-0.125 l -1.719,0.188 -1.656,-0.09 -3.313,0.125 -3.063,0.621 c 0,0 -1.477,0.793 -1.656,0.754 -0.18,-0.043 0.625,-1.031 0.625,-1.031 l -1.438,0.094 -0.906,-0.75 -0.906,0.617 c 0,0 -1.215,0.098 -1.527,0.098 -0.316,0 -0.723,0.563 -0.723,0.563 l -2.469,-0.09 -4.25,0.188 -1.121,0.965 -0.277,0.035 -3.223,-0.223 -2.219,0.223 -0.777,-0.379 0.031,-0.063 c 0,0 -0.656,-1.32 -0.656,-1.5 0,-0.176 -0.5,-0.621 -0.5,-0.621 m 0.336,3.188 1.344,0.438 -1.652,0 -0.656,-0.344 m 0.969,-0.094"
             id="path3082" />
        </g>
      </g>
    </g>
  </g>
</svg>
