<?xml version="1.0" encoding="UTF-8" standalone="no"?>
<!-- Created with Inkscape (http://www.inkscape.org/) -->

<svg
   xmlns:dc="http://purl.org/dc/elements/1.1/"
   xmlns:cc="http://creativecommons.org/ns#"
   xmlns:rdf="http://www.w3.org/1999/02/22-rdf-syntax-ns#"
   xmlns:svg="http://www.w3.org/2000/svg"
   xmlns="http://www.w3.org/2000/svg"
   xmlns:sodipodi="http://sodipodi.sourceforge.net/DTD/sodipodi-0.dtd"
   xmlns:inkscape="http://www.inkscape.org/namespaces/inkscape"
   width="48"
   height="48"
   id="svg2"
   version="1.1"
   inkscape:version="0.48.4 r9939"
   sodipodi:docname="application-community.svg">
  <defs
     id="defs4" />
  <sodipodi:namedview
     id="base"
     pagecolor="#ffffff"
     bordercolor="#666666"
     borderopacity="1.0"
     inkscape:pageopacity="0.0"
     inkscape:pageshadow="2"
     inkscape:zoom="8.1906533"
     inkscape:cx="-1.1456104"
     inkscape:cy="20.969798"
     inkscape:document-units="px"
     inkscape:current-layer="layer1"
     showgrid="true"
     inkscape:snap-bbox="true"
     inkscape:window-width="1301"
     inkscape:window-height="744"
     inkscape:window-x="65"
     inkscape:window-y="24"
     inkscape:window-maximized="1"
     inkscape:object-nodes="false"
     inkscape:snap-nodes="true"
     showguides="true"
     inkscape:guide-bbox="true">
    <inkscape:grid
       type="xygrid"
       id="grid3005"
       empspacing="6"
       visible="true"
       enabled="true"
       snapvisiblegridlinesonly="true" />
    <sodipodi:guide
       orientation="0,1"
       position="18,42"
       id="guide2989" />
    <sodipodi:guide
       orientation="0,1"
       position="17,6"
       id="guide2991" />
    <sodipodi:guide
       orientation="1,0"
       position="3,38"
       id="guide2993" />
    <sodipodi:guide
       orientation="1,0"
       position="45,33"
       id="guide2995" />
  </sodipodi:namedview>
  <metadata
     id="metadata7">
    <rdf:RDF>
      <cc:Work
         rdf:about="">
        <dc:format>image/svg+xml</dc:format>
        <dc:type
           rdf:resource="http://purl.org/dc/dcmitype/StillImage" />
        <dc:title />
      </cc:Work>
    </rdf:RDF>
  </metadata>
  <g
     inkscape:label="Layer 1"
     inkscape:groupmode="layer"
     id="layer1"
     transform="translate(0,-1004.3622)">
    <g
       id="g3036"
       style="opacity:0.2;fill:#000000;fill-opacity:1"
       transform="translate(1,1)">
      <path
         style="fill:#000000;fill-opacity:1;stroke:none"
         d="m 24,6 0,6 c 6.627417,0 12,5.372583 12,12 l 6,0 C 42,14.058875 33.941126,6 24,6 z"
         id="path3028"
         transform="translate(0,1004.3622)"
         inkscape:connector-curvature="0"
         inkscape:transform-center-x="-9"
         inkscape:transform-center-y="-9" />
      <path
         inkscape:transform-center-y="-9"
         inkscape:transform-center-x="9"
         inkscape:connector-curvature="0"
         id="path3030"
         d="m 6,1028.3622 6,0 c 0,-6.6274 5.372583,-12 12,-12 l 0,-6 c -9.941125,0 -18,8.0589 -18,18 z"
         style="fill:#000000;fill-opacity:1;stroke:none" />
      <path
         style="fill:#000000;fill-opacity:1;stroke:none"
         d="m 24,1046.3622 0,-6 c -6.6274,0 -12,-5.3726 -12,-12 l -6,0 c 0,9.9411 8.0589,18 18,18 z"
         id="path3032"
         inkscape:connector-curvature="0"
         inkscape:transform-center-x="9"
         inkscape:transform-center-y="9" />
      <path
         inkscape:transform-center-y="9"
         inkscape:transform-center-x="-9"
         inkscape:connector-curvature="0"
         id="path3034"
         d="m 42,1028.3622 -6,0 c 0,6.6274 -5.3726,12 -12,12 l 0,6 c 9.9411,0 18,-8.0589 18,-18 z"
         style="fill:#000000;fill-opacity:1;stroke:none" />
    </g>
    <path
       style="fill:#ff7043;fill-opacity:1;stroke:none"
       d="m 24,6 0,6 c 6.627417,0 12,5.372583 12,12 l 6,0 C 42,14.058875 33.941126,6 24,6 z"
       id="path2997"
       transform="translate(0,1004.3622)"
       inkscape:connector-curvature="0"
       inkscape:transform-center-x="-9"
       inkscape:transform-center-y="-9" />
    <path
       inkscape:transform-center-y="-9"
       inkscape:transform-center-x="9"
       inkscape:connector-curvature="0"
       id="path3022"
       d="m 6,1028.3622 6,0 c 0,-6.6274 5.372583,-12 12,-12 l 0,-6 c -9.941125,0 -18,8.0589 -18,18 z"
       style="fill:#ffd600;fill-opacity:1;stroke:none" />
    <path
       style="fill:#ffff00;fill-opacity:1;stroke:none"
       d="m 24,1046.3622 0,-6 c -6.6274,0 -12,-5.3726 -12,-12 l -6,0 c 0,9.9411 8.0589,18 18,18 z"
       id="path3024"
       inkscape:connector-curvature="0"
       inkscape:transform-center-x="9"
       inkscape:transform-center-y="9" />
    <path
       inkscape:transform-center-y="9"
       inkscape:transform-center-x="-9"
       inkscape:connector-curvature="0"
       id="path3026"
       d="m 42,1028.3622 -6,0 c 0,6.6274 -5.3726,12 -12,12 l 0,6 c 9.9411,0 18,-8.0589 18,-18 z"
       style="fill:#ffab40;fill-opacity:1;stroke:none" />
  </g>
</svg>
