<?xml version="1.0" encoding="UTF-8" standalone="no"?>
<!-- Created with Inkscape (http://www.inkscape.org/) -->

<svg
   xmlns:dc="http://purl.org/dc/elements/1.1/"
   xmlns:cc="http://creativecommons.org/ns#"
   xmlns:rdf="http://www.w3.org/1999/02/22-rdf-syntax-ns#"
   xmlns:svg="http://www.w3.org/2000/svg"
   xmlns="http://www.w3.org/2000/svg"
   xmlns:sodipodi="http://sodipodi.sourceforge.net/DTD/sodipodi-0.dtd"
   xmlns:inkscape="http://www.inkscape.org/namespaces/inkscape"
   width="48"
   height="48"
   id="svg2"
   version="1.1"
   inkscape:version="0.48.4 r9939"
   sodipodi:docname="package_office.svg">
  <defs
     id="defs4" />
  <sodipodi:namedview
     id="base"
     pagecolor="#ffffff"
     bordercolor="#666666"
     borderopacity="1.0"
     inkscape:pageopacity="0.0"
     inkscape:pageshadow="2"
     inkscape:zoom="8.1906533"
     inkscape:cx="42.635366"
     inkscape:cy="18.761828"
     inkscape:document-units="px"
     inkscape:current-layer="layer1"
     showgrid="true"
     inkscape:snap-bbox="true"
     inkscape:window-width="1301"
     inkscape:window-height="744"
     inkscape:window-x="65"
     inkscape:window-y="24"
     inkscape:window-maximized="1"
     inkscape:object-nodes="false"
     inkscape:snap-nodes="true"
     showguides="true"
     inkscape:guide-bbox="true">
    <inkscape:grid
       type="xygrid"
       id="grid3005"
       empspacing="6"
       visible="true"
       enabled="true"
       snapvisiblegridlinesonly="true" />
    <sodipodi:guide
       orientation="0,1"
       position="18,42"
       id="guide2989" />
    <sodipodi:guide
       orientation="0,1"
       position="17,6"
       id="guide2991" />
    <sodipodi:guide
       orientation="1,0"
       position="3,38"
       id="guide2993" />
    <sodipodi:guide
       orientation="1,0"
       position="45,33"
       id="guide2995" />
  </sodipodi:namedview>
  <metadata
     id="metadata7">
    <rdf:RDF>
      <cc:Work
         rdf:about="">
        <dc:format>image/svg+xml</dc:format>
        <dc:type
           rdf:resource="http://purl.org/dc/dcmitype/StillImage" />
        <dc:title />
      </cc:Work>
    </rdf:RDF>
  </metadata>
  <g
     inkscape:label="Layer 1"
     inkscape:groupmode="layer"
     id="layer1"
     transform="translate(0,-1004.3622)">
    <path
       style="fill:#000000;fill-opacity:1;stroke:none;opacity:0.1"
       d="m 21,1011.3622 0,36 8,0 0,-36 -8,0 z m 9,1 0,35 2,0 0,-1 7,0 0,1 2,0 1,0 1,0 3,0 0,-2 -3,0 0,-21 -2,0 0,-12 -2,0 0,1 -7,0 0,-1 -2,0 z m -21,5 0,7 -2,0 0,21 -3,0 0,2 3,0 1,0 1,0 2,0 0,-1 7,0 0,1 2,0 0,-30 -2,0 0,1 -7,0 0,-1 -2,0 z"
       id="rect3811"
       inkscape:connector-curvature="0" />
    <g
       id="g3062"
       transform="translate(-47.998,1004.3622)" />
    <rect
       style="fill:#ffb300;fill-opacity:1;stroke:none"
       id="rect3002"
       width="2"
       height="30"
       x="8"
       y="1016.3622"
       ry="0" />
    <rect
       ry="0"
       y="1016.3622"
       x="17"
       height="30"
       width="2"
       id="rect3772"
       style="fill:#ffb300;fill-opacity:1;stroke:none" />
    <rect
       style="fill:#e0e0e0;fill-opacity:1;stroke:none"
       id="rect3774"
       width="7"
       height="28"
       x="10"
       y="1017.3622" />
    <rect
       y="1017.3622"
       x="11"
       height="28"
       width="1"
       id="rect3776"
       style="fill:#3f3f3f;fill-opacity:1;stroke:none" />
    <rect
       style="fill:#3f3f3f;fill-opacity:1;stroke:none"
       id="rect3778"
       width="1"
       height="28"
       x="13"
       y="1017.3622" />
    <rect
       y="1017.3622"
       x="15"
       height="28"
       width="1"
       id="rect3780"
       style="fill:#3f3f3f;fill-opacity:1;stroke:none" />
    <rect
       ry="0"
       y="1011.3622"
       x="29"
       height="34.999981"
       width="2"
       id="rect3782"
       style="fill:#009407;fill-opacity:1;stroke:none" />
    <rect
       style="fill:#009407;fill-opacity:1;stroke:none"
       id="rect3784"
       width="2"
       height="34.999981"
       x="38"
       y="1011.3622"
       ry="0" />
    <rect
       y="1012.3622"
       x="31"
       height="32.999981"
       width="7"
       id="rect3786"
       style="fill:#e0e0e0;fill-opacity:1;stroke:none" />
    <rect
       style="fill:#3f3f3f;fill-opacity:1;stroke:none"
       id="rect3788"
       width="1"
       height="32.999981"
       x="32"
       y="1012.3622" />
    <rect
       y="1012.3622"
       x="34"
       height="32.999981"
       width="1"
       id="rect3790"
       style="fill:#3f3f3f;fill-opacity:1;stroke:none" />
    <rect
       style="fill:#3f3f3f;fill-opacity:1;stroke:none"
       id="rect3792"
       width="1"
       height="32.999981"
       x="36"
       y="1012.3622" />
    <rect
       style="fill:#00b0ff;fill-opacity:1;stroke:none"
       id="rect3794"
       width="8"
       height="36"
       x="20"
       y="1010.3622" />
    <rect
       style="fill:#ffffff;fill-opacity:1;stroke:none"
       id="rect3796"
       width="6"
       height="1"
       x="21"
       y="1015.3622" />
    <rect
       style="fill:#ffffff;fill-opacity:1;stroke:none"
       id="rect3798"
       width="6"
       height="1"
       x="21"
       y="1018.3622" />
    <rect
       y="1036.3622"
       x="21"
       height="1"
       width="6"
       id="rect3800"
       style="fill:#ffffff;fill-opacity:1;stroke:none" />
    <rect
       y="1039.3622"
       x="21"
       height="1"
       width="6"
       id="rect3802"
       style="fill:#ffffff;fill-opacity:1;stroke:none" />
    <path
       style="fill:#212121;fill-opacity:1;stroke:none"
       d="M 6 19 L 6 40 L 3 40 L 3 42 L 6 42 L 7 42 L 8 42 L 8 19 L 6 19 z "
       transform="translate(0,1004.3622)"
       id="rect3804" />
    <path
       id="path3809"
       d="m 42,1023.3622 0,21 3,0 0,2 -3,0 -1,0 -1,0 0,-23 2,0 z"
       style="fill:#212121;fill-opacity:1;stroke:none"
       inkscape:connector-curvature="0" />
    <path
       style="opacity:0.3;fill:#000000;fill-opacity:1;stroke:none"
       d="m 29,13 0,29 2,0 0,-1 7,0 0,1 2,0 0,-18 -2,-2 0,2 -7,-7 0,-2 z"
       transform="translate(0,1004.3622)"
       id="rect3850"
       inkscape:connector-curvature="0"
       sodipodi:nodetypes="ccccccccccccc" />
  </g>
</svg>
