<?xml version="1.0" encoding="UTF-8" standalone="no"?>
<!-- Created with Inkscape (http://www.inkscape.org/) -->

<svg
   xmlns:dc="http://purl.org/dc/elements/1.1/"
   xmlns:cc="http://creativecommons.org/ns#"
   xmlns:rdf="http://www.w3.org/1999/02/22-rdf-syntax-ns#"
   xmlns:svg="http://www.w3.org/2000/svg"
   xmlns="http://www.w3.org/2000/svg"
   xmlns:xlink="http://www.w3.org/1999/xlink"
   xmlns:sodipodi="http://sodipodi.sourceforge.net/DTD/sodipodi-0.dtd"
   xmlns:inkscape="http://www.inkscape.org/namespaces/inkscape"
   width="48"
   height="48"
   id="svg2"
   version="1.1"
   inkscape:version="0.48.4 r9939"
   sodipodi:docname="applications-utilities.svg">
  <defs
     id="defs4">
    <linearGradient
       id="linearGradient3838">
      <stop
         style="stop-color:#ffa000;stop-opacity:1;"
         offset="0"
         id="stop3840" />
      <stop
         style="stop-color:#ffc000;stop-opacity:1;"
         offset="1"
         id="stop3842" />
    </linearGradient>
    <linearGradient
       inkscape:collect="always"
       xlink:href="#linearGradient3838"
       id="linearGradient3844"
       x1="24"
       y1="42"
       x2="24"
       y2="6"
       gradientUnits="userSpaceOnUse" />
  </defs>
  <sodipodi:namedview
     id="base"
     pagecolor="#ffffff"
     bordercolor="#666666"
     borderopacity="1.0"
     inkscape:pageopacity="0.0"
     inkscape:pageshadow="2"
     inkscape:zoom="11.583333"
     inkscape:cx="30.162954"
     inkscape:cy="23.379646"
     inkscape:document-units="px"
     inkscape:current-layer="layer1"
     showgrid="true"
     inkscape:snap-bbox="true"
     inkscape:window-width="1301"
     inkscape:window-height="744"
     inkscape:window-x="65"
     inkscape:window-y="24"
     inkscape:window-maximized="1"
     inkscape:object-nodes="false"
     inkscape:snap-nodes="false"
     showguides="true"
     inkscape:guide-bbox="true">
    <inkscape:grid
       type="xygrid"
       id="grid3005"
       empspacing="6"
       visible="true"
       enabled="true"
       snapvisiblegridlinesonly="true" />
    <sodipodi:guide
       orientation="0,1"
       position="18,42"
       id="guide2989" />
    <sodipodi:guide
       orientation="0,1"
       position="17,6"
       id="guide2991" />
    <sodipodi:guide
       orientation="1,0"
       position="3,38"
       id="guide2993" />
    <sodipodi:guide
       orientation="1,0"
       position="45,33"
       id="guide2995" />
  </sodipodi:namedview>
  <metadata
     id="metadata7">
    <rdf:RDF>
      <cc:Work
         rdf:about="">
        <dc:format>image/svg+xml</dc:format>
        <dc:type
           rdf:resource="http://purl.org/dc/dcmitype/StillImage" />
        <dc:title />
      </cc:Work>
    </rdf:RDF>
  </metadata>
  <g
     inkscape:label="Layer 1"
     inkscape:groupmode="layer"
     id="layer1"
     transform="translate(0,-1004.3622)">
    <path
       id="path3846"
       d="m 24.66259,1011.3644 a 2.0002,2.0002 0 0 0 -1.78125,2.0312 l 0,12.5313 -10.84375,-6.2813 a 2.0002,2.0002 0 0 0 -1.15625,-0.2812 2.0002,2.0002 0 0 0 -0.84375,3.75 l 10.84375,6.2812 -10.84375,6.25 a 2.0020348,2.0020348 0 1 0 2,3.4688 l 10.84375,-6.2813 0,12.5625 a 2.0002,2.0002 0 1 0 4,0 l 0,-12.5625 10.84375,6.2813 a 2.0020348,2.0020348 0 1 0 2,-3.4688 l -10.84375,-6.2812 10.84375,-6.25 a 2.0002,2.0002 0 0 0 -1.09375,-3.75 2.0002,2.0002 0 0 0 -0.90625,0.2812 l -10.84375,6.2813 0,-12.5313 a 2.0002,2.0002 0 0 0 -2.03125,-2.0312 2.0002,2.0002 0 0 0 -0.1875,0 z"
       style="font-size:medium;font-style:normal;font-variant:normal;font-weight:normal;font-stretch:normal;text-indent:0;text-align:start;text-decoration:none;line-height:normal;letter-spacing:normal;word-spacing:normal;text-transform:none;direction:ltr;block-progression:tb;writing-mode:lr-tb;text-anchor:start;baseline-shift:baseline;color:#000000;fill:#000000;fill-opacity:1;stroke:none;stroke-width:4;marker:none;visibility:visible;display:inline;overflow:visible;enable-background:accumulate;font-family:Sans;-inkscape-font-specification:Sans;opacity:0.1"
       inkscape:connector-curvature="0" />
    <path
       style="font-size:medium;font-style:normal;font-variant:normal;font-weight:normal;font-stretch:normal;text-indent:0;text-align:start;text-decoration:none;line-height:normal;letter-spacing:normal;word-spacing:normal;text-transform:none;direction:ltr;block-progression:tb;writing-mode:lr-tb;text-anchor:start;baseline-shift:baseline;color:#000000;fill:url(#linearGradient3844);fill-opacity:1;stroke:none;stroke-width:4;marker:none;visibility:visible;display:inline;overflow:visible;enable-background:accumulate;font-family:Sans;-inkscape-font-specification:Sans"
       d="M 23.78125 5.96875 A 2.0002 2.0002 0 0 0 22 8 L 22 20.53125 L 11.15625 14.25 A 2.0002 2.0002 0 0 0 10 13.96875 A 2.0002 2.0002 0 0 0 9.15625 17.71875 L 20 24 L 9.15625 30.25 A 2.0020348 2.0020348 0 1 0 11.15625 33.71875 L 22 27.4375 L 22 40 A 2.0002 2.0002 0 1 0 26 40 L 26 27.4375 L 36.84375 33.71875 A 2.0020348 2.0020348 0 1 0 38.84375 30.25 L 28 23.96875 L 38.84375 17.71875 A 2.0002 2.0002 0 0 0 37.75 13.96875 A 2.0002 2.0002 0 0 0 36.84375 14.25 L 26 20.53125 L 26 8 A 2.0002 2.0002 0 0 0 23.96875 5.96875 A 2.0002 2.0002 0 0 0 23.78125 5.96875 z "
       transform="translate(0,1004.3622)"
       id="path3819" />
  </g>
</svg>
