<?xml version="1.0" encoding="UTF-8" standalone="no"?>
<!-- Created with Inkscape (http://www.inkscape.org/) -->

<svg
   xmlns:dc="http://purl.org/dc/elements/1.1/"
   xmlns:cc="http://creativecommons.org/ns#"
   xmlns:rdf="http://www.w3.org/1999/02/22-rdf-syntax-ns#"
   xmlns:svg="http://www.w3.org/2000/svg"
   xmlns="http://www.w3.org/2000/svg"
   xmlns:xlink="http://www.w3.org/1999/xlink"
   xmlns:sodipodi="http://sodipodi.sourceforge.net/DTD/sodipodi-0.dtd"
   xmlns:inkscape="http://www.inkscape.org/namespaces/inkscape"
   width="48"
   height="48"
   id="svg2"
   version="1.1"
   inkscape:version="0.48.4 r9939"
   sodipodi:docname="stock_internet.svg">
  <defs
     id="defs4">
    <linearGradient
       id="linearGradient3779">
      <stop
         style="stop-color:#000000;stop-opacity:1;"
         offset="0"
         id="stop3781" />
      <stop
         style="stop-color:#ffffff;stop-opacity:1;"
         offset="1"
         id="stop3783" />
    </linearGradient>
    <linearGradient
       inkscape:collect="always"
       xlink:href="#linearGradient3779"
       id="linearGradient3795"
       gradientUnits="userSpaceOnUse"
       gradientTransform="translate(-20,0)"
       spreadMethod="repeat"
       x1="24"
       y1="1028.3622"
       x2="45"
       y2="1007.3622" />
    <linearGradient
       inkscape:collect="always"
       xlink:href="#linearGradient3779"
       id="linearGradient3797"
       gradientUnits="userSpaceOnUse"
       gradientTransform="translate(-20,0)"
       spreadMethod="repeat"
       x1="44"
       y1="1048.3622"
       x2="15"
       y2="1019.3622" />
    <clipPath
       clipPathUnits="userSpaceOnUse"
       id="clipPath3065">
      <path
         sodipodi:nodetypes="zzzzz"
         inkscape:connector-curvature="0"
         id="path3067"
         d="m 24.577059,3.7909219 c -23.5680565,0 -23.5680565,0 -23.5680565,21.6040521 0,21.604051 0,21.604051 23.5680565,21.604051 23.568056,0 23.568056,0 23.568056,-21.604051 0,-21.6040521 0,-21.6040521 -23.568056,-21.6040521 z"
         style="fill:#673ab7;fill-opacity:1;stroke:none" />
    </clipPath>
    <clipPath
       clipPathUnits="userSpaceOnUse"
       id="clipPath3839">
      <path
         sodipodi:nodetypes="zzzzz"
         inkscape:connector-curvature="0"
         id="path3841"
         d="m 23.595052,2.8879707 c -23.56805676,0 -23.56805676,0 -23.56805676,21.6040513 0,21.604052 0,21.604052 23.56805676,21.604052 23.568056,0 23.568056,0 23.568056,-21.604052 0,-21.6040513 0,-21.6040513 -23.568056,-21.6040513 z"
         style="fill:#673ab7;fill-opacity:1;stroke:none" />
    </clipPath>
  </defs>
  <sodipodi:namedview
     id="base"
     pagecolor="#ffffff"
     bordercolor="#666666"
     borderopacity="1.0"
     inkscape:pageopacity="0.0"
     inkscape:pageshadow="2"
     inkscape:zoom="8.1906536"
     inkscape:cx="36.297705"
     inkscape:cy="20.157775"
     inkscape:document-units="px"
     inkscape:current-layer="layer1"
     showgrid="true"
     inkscape:snap-bbox="true"
     inkscape:window-width="1301"
     inkscape:window-height="744"
     inkscape:window-x="65"
     inkscape:window-y="24"
     inkscape:window-maximized="1"
     inkscape:snap-global="true">
    <inkscape:grid
       type="xygrid"
       id="grid2985"
       empspacing="6"
       visible="true"
       enabled="true"
       snapvisiblegridlinesonly="true" />
  </sodipodi:namedview>
  <metadata
     id="metadata7">
    <rdf:RDF>
      <cc:Work
         rdf:about="">
        <dc:format>image/svg+xml</dc:format>
        <dc:type
           rdf:resource="http://purl.org/dc/dcmitype/StillImage" />
        <dc:title />
      </cc:Work>
    </rdf:RDF>
  </metadata>
  <g
     inkscape:label="Layer 1"
     inkscape:groupmode="layer"
     id="layer1"
     transform="translate(0,-1004.3622)">
    <path
       id="path3788"
       d="m 24,1051.1116 c -21.2715315,0 -23.66257505,-0.089 -23.9375,-15.4063 0.328125,14.4033 2.9375,14.4063 23.9375,14.4063 21,0 23.609375,0 23.9375,-14.4063 -0.274925,15.3174 -2.665968,15.4063 -23.9375,15.4063 z"
       style="opacity:0.20000000000000001;fill:#ffffff;fill-opacity:1;stroke:none"
       inkscape:connector-curvature="0" />
    <path
       style="fill:#673ab7;fill-opacity:1;stroke:none"
       d="m 24,1006.3622 c -24,0 -24,0 -24,22 0,22 0,22 24,22 24,0 24,0 24,-22 0,-22 0,-22 -24,-22 z"
       id="path3757"
       inkscape:connector-curvature="0"
       sodipodi:nodetypes="zzzzz" />
    <g
       id="g3032"
       transform="translate(48,1007.3622)" />
    <g
       id="g3062"
       transform="translate(-102.998,1004.3622)" />
    <g
       transform="matrix(1.0183275,0,0,1.0183275,-0.02749,1003.4213)"
       style="opacity:0.1;fill:#000000;fill-opacity:1"
       id="g3061"
       clip-path="url(#clipPath3839)">
      <path
         id="path3063"
         d="m 16,1.906 -0.84,0.25 -0.969,0.066 -0.598,0.434 -0.777,-0.031 0.063,0.5 1.125,-0.031 0.406,1.094 0.156,0.598 -0.625,0.344 -0.25,0.465 0.188,1.063 0.75,0.125 0.719,-0.688 0.625,-0.656 0.969,-0.25 1.219,-0.594 0.719,-0.875 1.031,-1.254 0.719,-0.188 -0.031,-0.277 -1.125,0 -3.469,-0.094 M 13.786,1.97 12.973,2.005 11.567,2.38 10.754,2.63 9.816,2.255 9.691,2.818 10.812,3.474 c 0,0 2.047,-1.129 2.16,-1.129 m 21.871,-0.152 -0.188,0.316 1.156,0.148 0.063,-0.27 m -9.906,0 C 25.913,2.407 24.437,2.41 24.437,2.41 l -0.375,0.098 0.5,0.598 0.531,-0.5 0.344,0.219 0.5,-0.25 c 0,0 0.09,-0.211 0.031,-0.188 m 5.625,0.465 -0.465,0.063 -0.41,0.25 -0.465,0.348 -0.281,0.5 0.438,0.438 0.375,0.031 0.156,-0.254 -0.375,-0.313 0.219,-0.188 0.031,-0.152 0.469,-0.313 c 0,0 0.609,0.008 0.652,0 0.047,-0.012 0.191,-0.191 0.191,-0.191 L 31.972,2.848 M 5.722,3.036 5.628,3.352 6.097,3.508 6.628,3.258 m 30.875,-0.125 -2.129,0.094 -0.563,0.375 -0.621,0.375 -0.531,0.438 0.063,0.188 -0.281,0.031 0,0.004 -4.086,0.68 -3.578,2.691 -0.375,0.281 -0.031,0 -0.254,-0.094 c 0,0 -0.152,0.008 -0.219,0.066 -0.063,0.051 -0.121,0.102 -0.313,0.121 -0.191,0.02 -0.563,0 -0.594,0 l -0.219,0 0.031,-0.227 0.156,-0.25 -0.281,-0.223 c 0,0 -0.188,0.23 -0.191,0.281 -0.008,0.055 0.125,0.281 0.125,0.281 0,0 -0.063,0.18 -0.094,0.219 -0.031,0.039 -0.316,0.125 -0.316,0.125 L 22.768,8.37 c 0,0 -0.18,-0.039 -0.156,0.063 0.023,0.102 0.223,0.195 0.223,0.281 0,0.082 -0.125,0.277 -0.125,0.277 l -0.152,0.188 -0.254,0.254 -0.344,0.09 c 0,0 -0.246,0.07 -0.316,0.094 -0.063,0.023 -0.25,0.066 -0.25,0.066 l -0.254,0.031 -0.152,0.223 0.277,0.191 0.188,0.309 c 0,0 0.125,0.223 0.156,0.223 0.031,0 0.094,0.219 0.094,0.219 l -0.188,0.25 -0.098,0 -0.656,0.125 -0.121,-0.281 -0.438,0.438 -0.188,0.719 0,0.598 0.75,0.406 0.598,-0.219 0.594,-1.066 0.531,-0.652 0.969,-0.156 0.219,-0.188 1.094,1.281 0.125,0.438 0.316,-0.156 -0.098,-0.375 0.191,0 -0.121,-0.254 -1.066,-1 0.094,-0.188 0.344,-0.031 0.75,0.75 0.379,0.441 0,0.688 0.188,0.125 0.375,0.375 0.277,-0.094 -0.152,-0.566 0.094,-0.344 0.188,-0.219 0.438,0.156 0.156,0.063 -0.031,-0.5 0.25,-0.469 0.156,-0.688 0.563,0.094 0.094,0.313 0.219,0.156 0.25,-0.219 -0.156,-0.344 0.656,0 -0.219,0.375 0.438,0.375 0.375,0.188 0.219,0.438 -0.5,0.121 -0.719,-0.156 -0.625,0 -0.594,0.316 -0.125,0.188 -0.434,0.094 0.188,0.469 0.344,0.406 0.621,-0.219 0.156,0.277 0.281,-0.219 0.375,0.063 0.031,0.41 -0.125,0.777 -0.344,-0.031 -0.406,-0.063 -0.188,0.465 -1.375,-0.25 -0.25,-0.316 -0.313,0.281 -0.344,0.469 -0.875,-0.5 -0.875,-0.527 0,-0.941 -0.566,0.031 -0.031,0.313 -1.375,-0.063 -0.434,0.402 -0.844,0.031 -0.566,0.5 -0.344,0.969 -0.875,0.691 -0.625,0.844 -0.031,1.625 -0.188,0.5 -0.066,0.598 0.379,0.652 0.219,0.625 0.75,0.906 0.441,0.375 0.434,0.094 0.094,-0.375 1.563,0 0.406,-0.188 0.5,0.063 0.156,0.313 0.531,0.031 0.344,0.25 0,0.531 -0.125,0.438 -0.121,0.344 0.309,0.566 0.41,0.469 0.188,1.188 0.031,0.777 -0.281,0.656 -0.031,0.625 0.219,1.156 0.188,0.188 0.281,1.094 0.031,0.469 0.563,0.75 0.066,0.594 0.09,0.688 0.344,-0.344 0.875,-0.09 0.535,0 0.965,-1.5 0.066,-0.594 0.656,-0.656 0.027,-0.75 0.348,-0.754 0.813,-0.777 0,-0.875 -0.188,-0.813 -0.125,-1.125 0.598,-0.938 1.066,-1.313 0.398,-0.406 0.156,-0.531 0.25,-0.469 0.066,-0.691 -0.598,0 -0.277,0.281 -0.563,-0.156 -0.344,-0.563 -0.281,-0.563 -0.656,-0.5 -0.156,-0.813 -0.281,-0.473 -0.309,-0.594 -0.41,-0.719 -0.09,-0.469 0.434,-0.063 0.254,0.531 0.5,0.938 0.375,0.688 0.406,0.75 0.438,0.723 0.594,0.598 0.531,-0.5 0.605,-0.156 0.434,-0.531 0.594,-0.344 0.344,-0.594 0.035,-0.5 -0.281,-0.316 -0.375,-0.438 -0.254,0.156 -0.152,0.254 -0.41,-0.188 -0.125,-0.313 -0.277,-0.41 -0.438,-0.406 0,-0.813 0.281,0.531 0.344,0.535 0.594,0.344 0.41,-0.094 0.25,0.281 1.781,-0.035 -0.031,0.035 0.563,0.5 0.41,0.563 0.121,0.277 0.281,0 0.094,-0.309 0.09,0.465 0.156,0.844 0.344,0.813 0.188,0.688 0.281,0.656 0.219,0.277 0.313,-0.188 0.09,-0.313 0.125,-0.777 -0.031,-0.688 0.25,-0.316 c 0,0 0.266,-0.359 0.313,-0.375 0.051,-0.012 0.625,-0.652 0.625,-0.652 l 0.281,-0.348 0.313,-0.188 0.383,-0.219 0.145,0 0.066,0.344 0.156,0.406 0.5,0.652 0,0.25 0.09,0.281 0.344,-0.156 -0.031,-0.375 0.316,0.066 0.063,0.344 -0.027,0.531 0.094,0.375 0.277,0.066 0.094,-0.316 0.344,0.219 0.063,0.316 0.313,0.469 0.313,0.344 0.219,0.191 0.531,-0.469 0.219,-0.441 -0.09,-0.5 -0.094,-0.656 -0.594,-0.563 -0.094,-0.566 0.254,-0.398 c 0,0 0.156,-0.32 0.309,-0.156 0.152,0.168 0.227,0.188 0.156,0.375 -0.066,0.184 -0.188,0.598 -0.188,0.598 l 0.375,0.156 0.156,-0.531 -0.156,-0.379 0.379,-0.156 0.688,-0.344 0.434,-0.531 0.344,-0.809 -0.031,-0.598 -0.344,-0.777 -0.688,-0.816 -0.438,-0.402 -0.219,-0.625 0.406,-0.098 c 0,0 0.234,-0.398 0.438,-0.188 0.203,0.219 0.5,0.531 0.5,0.531 0,0 0.355,0.563 0.406,0.625 0.051,0.063 0.418,0.402 0.469,0.469 0.051,0.063 0.281,0.313 0.281,0.313 l 0.375,-0.527 0.09,-0.098 0,-0.188 -0.531,-0.316 -0.465,-0.434 0.344,-0.754 0.563,-0.277 0.09,-0.254 0,-1.469 -0.277,-0.563 -0.313,-0.438 c 0,0 -0.324,-0.047 -0.406,-0.031 -0.086,0.016 -0.781,-0.5 -0.781,-0.5 l 0.066,-0.5 0.254,-0.438 1.188,-0.152 0.277,0.031 0,-0.313 L 46.313,4.274 44.661,4.086 43.376,3.77 c 0,0 -0.387,0.297 -0.594,0.316 -0.203,0.016 -0.906,0.125 -0.906,0.125 L 41.157,3.77 39.657,3.645 39.591,3.614 38.306,3.551 37.533,3.113 M 25.799,8.008 29.377,5.305 28.158,5.961 27.845,5.738 27.693,5.488 27.756,5.234 28.447,5.269 28.76,5.144 28.135,4.831 27.26,4.515 26.385,4.359 25.447,4.55 24.478,5.331 24.04,5.769 23.388,6.488 23.13,6.519 23.04,6.863 23.161,7.207 c 0,0 0.137,0.156 0.156,0.156 0.02,0 0.254,-0.125 0.254,-0.125 0,0 0.023,-0.117 0.156,-0.156 0.129,-0.039 0.25,-0.063 0.25,-0.063 l 0.188,0.375 0.223,0.313 0.094,0.25 c 0,0 0.363,-0.223 0.375,-0.25 0.012,-0.031 0.031,-0.41 0.031,-0.41 l 0.277,-0.188 c 0,0 0.074,-0.133 0.066,-0.156 C 25.223,6.933 25.04,6.734 25.04,6.734 L 24.888,6.671 24.951,6.355 c 0,0 0.121,-0.051 0.121,-0.094 0,-0.039 0.191,-0.188 0.191,-0.188 l 0.223,-0.277 0.156,-0.188 0.219,-0.156 0.25,0.188 0,0.125 -0.219,0.25 -0.066,0.25 0,0.344 0.191,0.156 0.344,-0.031 0.313,-0.063 0.277,0.156 -0.063,0.219 c 0,0 -0.195,0.188 -0.258,0.219 -0.055,0.031 -0.406,-0.063 -0.492,-0.031 -0.094,0.031 -0.316,0.316 -0.316,0.316 0,0 -0.027,0.25 0,0.313 0.008,0.023 -0.004,0.07 -0.016,0.129 M 29.372,5.312 33.462,4.617 33.431,4.461 33.118,4.023 32.462,3.96 c 0,0 0.156,0.664 0.156,0.75 0,0.082 -0.434,0.027 -0.434,0.027 l -0.75,0.035 c 0,0 -1.086,0.25 -1.223,0.25 -0.129,0 -0.762,0.262 -0.809,0.281 L 29.375,5.307 M 4.325,3.483 3.825,4.049 4.262,4.268 4.828,4.014 4.859,4.639 5.328,4.955 5.828,4.482 6.516,4.607 6.797,3.955 5.672,3.857 M 7.453,3.58 7.891,4.674 7.36,4.737 6.954,5.237 6.044,4.96 5.235,5.273 4.454,5.085 3.548,4.519 2.298,4.55 1.2,5.019 0.481,4.675 0.047,4.644 l 0,13.594 0.844,0.469 0.5,-0.066 0.719,0.344 1.094,0.598 0.156,0.723 0.875,0.84 0.5,-0.375 0.406,0.316 -0.063,-0.723 -0.781,0.191 -0.25,-0.906 -0.094,-0.41 -0.691,-0.621 0,-0.438 0.531,-0.566 -0.344,-0.402 -0.563,0.09 -0.844,0.844 -0.688,-0.09 c 0,0 -0.313,-0.531 -0.375,-0.656 -0.063,-0.125 0.188,-0.563 0.188,-0.563 l -0.063,-1.285 0.719,-0.5 0.563,-0.191 0.813,0 1.121,-0.25 0.41,0.531 -0.066,0.625 0.469,0.406 0.066,-0.441 c 0,0 -0.031,-0.719 -0.094,-0.906 -0.063,-0.188 0.563,-0.625 0.563,-0.625 l 0.5,-0.613 0.594,-0.727 0.281,-0.563 0.941,-0.496 0.621,-0.691 c 0,0 0.938,-0.148 1.125,-0.254 0.191,-0.09 0.066,-0.434 -0.125,-0.75 C 9.414,9.794 9.699,9.482 9.699,9.482 l 0.719,-0.434 0.621,0.121 0.066,0.754 c 0,0 0.586,0.563 0.777,0.465 0.191,-0.09 0.281,-0.406 0.281,-0.406 L 11.85,9.169 12.038,8.36 11.194,8.481 11.194,7.106 10.944,7.36 10.288,7.391 10.194,6.703 9.76,6.172 c 0,0 -0.43,0.25 -0.844,0.406 C 8.502,6.734 8.603,7.047 8.603,7.047 L 8.572,7.891 7.884,8.454 7.446,9.11 c 0,0 -0.277,-0.188 -0.277,-0.313 0,-0.125 -0.066,-0.469 -0.066,-0.469 L 6.384,7.765 c 0,0 -0.563,-0.406 -0.594,-0.531 -0.031,-0.125 0.344,-0.688 0.344,-0.688 0,0 0.809,-0.5 1,-0.656 C 7.325,5.734 8.349,6.234 8.474,6.144 8.603,6.05 9.099,5.269 9.099,5.269 L 9.537,4.671 9.099,5.171 8.349,4.452 8.474,3.733 7.443,3.577 m 2.508,0.035 -0.254,0.625 0.156,0.344 0.566,-0.066 0.25,0.469 -0.5,0.531 -0.563,0.063 0.5,0.223 0.531,0.465 0.527,0.125 0.191,-0.719 0.031,-0.438 0.625,0.094 c 0,0 -0.191,0.313 -0.098,0.313 0.102,0 0.473,-0.406 0.473,-0.406 L 11.32,4.137 c 0,0 -0.438,-0.344 -0.563,-0.25 -0.133,0.09 -0.473,0.063 -0.473,0.063 L 9.94,3.606 m 8.691,1.789 -0.125,0.41 c 0.449,0.348 0.625,0.344 0.625,0.344 l 0.527,-0.125 0.348,-0.344 -0.223,-0.281 -1.152,0 m 2.777,1.781 -0.25,0.219 C 21.095,7.704 21.006,8.02 21.006,8.02 l 0.473,0.223 0.063,0.277 -0.254,0.254 -0.219,0.375 0.156,0.156 0.563,-0.094 0.5,-0.219 L 22.011,8.617 21.917,7.961 21.573,7.586 m -0.934,0.777 -0.281,0.469 0.375,0.156 0.156,-0.281 m -15.691,0.754 0.656,0.277 0.438,0.566 0.277,0.434 c 0,0 -0.246,0.844 -0.313,1 C 6.19,11.894 5.998,11.425 5.998,11.425 L 5.85,10.612 5.319,10.835 4.913,11.8 5.003,10.991 5.128,10.425 4.472,10.175 5.038,9.644 5.194,9.456 m 26.383,0.754 c 0.133,-0.043 0.375,0.156 0.375,0.156 l -0.254,0.219 0.094,0.313 0.281,0.75 0.277,0.469 0.379,0.594 -0.41,0.191 -0.531,-0.344 -0.219,-0.656 c 0,0 -0.301,-0.406 -0.441,-0.469 -0.133,-0.066 -0.25,-0.281 -0.25,-0.281 l 0.125,-0.531 c 0,0 0.43,-0.359 0.566,-0.406 m -7.898,1.184 -0.375,0.719 0.277,0.281 0.254,-0.223 0.031,-0.309 m -1.441,0.281 0,0.188 0.156,-0.031 m 2,0.313 -0.188,0.063 0.313,0.531 0.281,-0.219 m -20.531,3.813 -0.313,0.156 0.527,0.281 0.602,0.121 0.344,0.469 0.406,-0.25 -0.066,-0.281 -0.688,-0.5 -0.813,0 m 1.684,3.098 -0.813,0.441 -0.094,0.902 -0.188,1 -0.563,0.75 0.027,1.121 0.473,1.156 0.5,1.406 1.313,1.313 0.063,0.75 0.09,3.379 0.469,1.906 c 0,0 0.289,1.102 0.219,1.191 -0.066,0.086 0.379,0.902 0.379,0.902 L 8.881,37.492 10.1,38.023 9.6,37.425 9.346,36.737 9.6,36.018 8.944,35.674 c 0,0 0.438,-0.285 0.5,-0.375 C 9.51,35.209 9.35,34.83 9.35,34.83 l -0.188,-0.469 0.5,-0.652 0.781,-0.191 0.121,-0.598 -0.465,-0.219 0.188,-0.5 0.75,-0.09 0.656,-1.598 0.469,-1.094 0.965,-0.469 c 0,0 0.313,-0.93 0.313,-1.066 0,-0.129 0.094,-1.531 0.094,-1.531 l 0.75,-1.027 0.098,-0.688 -0.566,-0.344 -0.465,-0.566 -0.844,0.066 -1.348,-0.781 -0.277,-0.656 c 0,0 -0.473,-0.809 -0.566,-0.809 -0.09,0 -0.656,0.031 -0.656,0.031 L 9.133,21.048 8.785,20.392 7.441,20.111 7.007,19.892 l -0.875,0 m 36.434,0.496 c 0.113,0.129 0.816,2.219 0.91,2.219 0.086,0 0.621,0.066 0.621,0.066 l -0.281,-0.844 m -4.84,-1.375 -0.313,0.406 0.156,0.598 0.344,-0.375 -0.066,-0.473 m 7.969,0.563 -1.469,0.813 c 0,0.09 -0.719,0.688 -0.719,0.688 l 0.188,0.625 0.406,0.465 0.281,0.691 1.875,-1.223 -0.566,-2.063 m -4.586,0.441 -0.438,0.063 2,3 0.531,0.594 1.309,0.066 0.813,0.254 -0.875,-0.625 -1.25,-0.348 -0.313,-1.152 -0.688,-0.566 -1.094,-1.281 m -10.496,4.867 0,0.441 c -0.02,0.063 -0.406,0.375 -0.406,0.375 l -0.469,0.219 -0.344,0.281 0.25,0.344 0.156,0.156 -0.406,0.344 0,0.563 0.156,0.594 0.344,0.094 0.406,-0.625 0.254,-0.406 -0.066,-0.5 0.375,-0.594 0.125,-0.281 0,-0.563 -0.09,-0.438 m 15.777,0.719 c -0.004,0 -0.031,0.031 -0.031,0.031 l -0.5,1.031 c 0,0 -1.102,0.164 -1.129,0.254 -0.02,0.086 -0.563,0.375 -0.563,0.375 -0.113,0 -0.469,0.656 -0.469,0.656 l -0.066,2.063 -0.125,0.75 0.316,0.406 1.527,-0.531 0.5,-0.563 0.531,0 0,-4.469 m -36.527,8.746 -0.219,0.152 -0.094,0.031 0.5,0.25 -0.191,-0.434 m -0.844,0.184 -0.219,0.5 0.434,-0.094 -0.219,-0.406 m 1.504,4.125 -0.469,0.719 -0.875,0.406 0.5,0.625 -0.754,0.375 -2.469,-0.125 -0.75,-0.75 -0.656,-0.125 0.656,1.375 -1.156,-0.219 -3.969,0.125 -0.844,1.094 -1.219,-0.125 -0.121,0.254 0,4.09 45.28,0 2.719,-1.777 0,-1.906 -0.125,-1.191 -0.965,-0.219 -1.219,0.156 -0.879,0.777 -1.473,0.598 0.625,-0.754 1.344,-0.777 2.156,-0.5 0.25,-0.875 -1,0 c 0,0 -1.34,-0.668 -1.34,-0.844 0,-0.176 -1.5,-0.125 -1.5,-0.125 l -1.719,0.188 -1.656,-0.09 -3.313,0.125 -3.063,0.621 c 0,0 -1.477,0.793 -1.656,0.754 -0.18,-0.043 0.625,-1.031 0.625,-1.031 l -1.438,0.094 -0.906,-0.75 -0.906,0.617 c 0,0 -1.215,0.098 -1.527,0.098 -0.316,0 -0.723,0.563 -0.723,0.563 l -2.469,-0.09 -4.25,0.188 -1.121,0.965 -0.277,0.035 -3.223,-0.223 -2.219,0.223 -0.777,-0.379 0.031,-0.063 c 0,0 -0.656,-1.32 -0.656,-1.5 0,-0.176 -0.5,-0.621 -0.5,-0.621 m 0.336,3.188 1.344,0.438 -1.652,0 -0.656,-0.344 m 0.969,-0.094"
         inkscape:connector-curvature="0"
         style="fill:#000000;fill-opacity:1;fill-rule:nonzero;stroke:none" />
    </g>
    <g
       id="g3080"
       style="fill:#d1c4e9"
       transform="matrix(1.0183275,0,0,1.0183275,-1.027495,1002.5018)"
       clip-path="url(#clipPath3065)">
      <path
         style="fill:#d1c4e9;fill-opacity:1;fill-rule:nonzero;stroke:none"
         inkscape:connector-curvature="0"
         d="m 16,1.906 -0.84,0.25 -0.969,0.066 -0.598,0.434 -0.777,-0.031 0.063,0.5 1.125,-0.031 0.406,1.094 0.156,0.598 -0.625,0.344 -0.25,0.465 0.188,1.063 0.75,0.125 0.719,-0.688 0.625,-0.656 0.969,-0.25 1.219,-0.594 0.719,-0.875 1.031,-1.254 0.719,-0.188 -0.031,-0.277 -1.125,0 -3.469,-0.094 M 13.786,1.97 12.973,2.005 11.567,2.38 10.754,2.63 9.816,2.255 9.691,2.818 10.812,3.474 c 0,0 2.047,-1.129 2.16,-1.129 m 21.871,-0.152 -0.188,0.316 1.156,0.148 0.063,-0.27 m -9.906,0 C 25.913,2.407 24.437,2.41 24.437,2.41 l -0.375,0.098 0.5,0.598 0.531,-0.5 0.344,0.219 0.5,-0.25 c 0,0 0.09,-0.211 0.031,-0.188 m 5.625,0.465 -0.465,0.063 -0.41,0.25 -0.465,0.348 -0.281,0.5 0.438,0.438 0.375,0.031 0.156,-0.254 -0.375,-0.313 0.219,-0.188 0.031,-0.152 0.469,-0.313 c 0,0 0.609,0.008 0.652,0 0.047,-0.012 0.191,-0.191 0.191,-0.191 L 31.972,2.848 M 5.722,3.036 5.628,3.352 6.097,3.508 6.628,3.258 m 30.875,-0.125 -2.129,0.094 -0.563,0.375 -0.621,0.375 -0.531,0.438 0.063,0.188 -0.281,0.031 0,0.004 -4.086,0.68 -3.578,2.691 -0.375,0.281 -0.031,0 -0.254,-0.094 c 0,0 -0.152,0.008 -0.219,0.066 -0.063,0.051 -0.121,0.102 -0.313,0.121 -0.191,0.02 -0.563,0 -0.594,0 l -0.219,0 0.031,-0.227 0.156,-0.25 -0.281,-0.223 c 0,0 -0.188,0.23 -0.191,0.281 -0.008,0.055 0.125,0.281 0.125,0.281 0,0 -0.063,0.18 -0.094,0.219 -0.031,0.039 -0.316,0.125 -0.316,0.125 L 22.768,8.37 c 0,0 -0.18,-0.039 -0.156,0.063 0.023,0.102 0.223,0.195 0.223,0.281 0,0.082 -0.125,0.277 -0.125,0.277 l -0.152,0.188 -0.254,0.254 -0.344,0.09 c 0,0 -0.246,0.07 -0.316,0.094 -0.063,0.023 -0.25,0.066 -0.25,0.066 l -0.254,0.031 -0.152,0.223 0.277,0.191 0.188,0.309 c 0,0 0.125,0.223 0.156,0.223 0.031,0 0.094,0.219 0.094,0.219 l -0.188,0.25 -0.098,0 -0.656,0.125 -0.121,-0.281 -0.438,0.438 -0.188,0.719 0,0.598 0.75,0.406 0.598,-0.219 0.594,-1.066 0.531,-0.652 0.969,-0.156 0.219,-0.188 1.094,1.281 0.125,0.438 0.316,-0.156 -0.098,-0.375 0.191,0 -0.121,-0.254 -1.066,-1 0.094,-0.188 0.344,-0.031 0.75,0.75 0.379,0.441 0,0.688 0.188,0.125 0.375,0.375 0.277,-0.094 -0.152,-0.566 0.094,-0.344 0.188,-0.219 0.438,0.156 0.156,0.063 -0.031,-0.5 0.25,-0.469 0.156,-0.688 0.563,0.094 0.094,0.313 0.219,0.156 0.25,-0.219 -0.156,-0.344 0.656,0 -0.219,0.375 0.438,0.375 0.375,0.188 0.219,0.438 -0.5,0.121 -0.719,-0.156 -0.625,0 -0.594,0.316 -0.125,0.188 -0.434,0.094 0.188,0.469 0.344,0.406 0.621,-0.219 0.156,0.277 0.281,-0.219 0.375,0.063 0.031,0.41 -0.125,0.777 -0.344,-0.031 -0.406,-0.063 -0.188,0.465 -1.375,-0.25 -0.25,-0.316 -0.313,0.281 -0.344,0.469 -0.875,-0.5 -0.875,-0.527 0,-0.941 -0.566,0.031 -0.031,0.313 -1.375,-0.063 -0.434,0.402 -0.844,0.031 -0.566,0.5 -0.344,0.969 -0.875,0.691 -0.625,0.844 -0.031,1.625 -0.188,0.5 -0.066,0.598 0.379,0.652 0.219,0.625 0.75,0.906 0.441,0.375 0.434,0.094 0.094,-0.375 1.563,0 0.406,-0.188 0.5,0.063 0.156,0.313 0.531,0.031 0.344,0.25 0,0.531 -0.125,0.438 -0.121,0.344 0.309,0.566 0.41,0.469 0.188,1.188 0.031,0.777 -0.281,0.656 -0.031,0.625 0.219,1.156 0.188,0.188 0.281,1.094 0.031,0.469 0.563,0.75 0.066,0.594 0.09,0.688 0.344,-0.344 0.875,-0.09 0.535,0 0.965,-1.5 0.066,-0.594 0.656,-0.656 0.027,-0.75 0.348,-0.754 0.813,-0.777 0,-0.875 -0.188,-0.813 -0.125,-1.125 0.598,-0.938 1.066,-1.313 0.398,-0.406 0.156,-0.531 0.25,-0.469 0.066,-0.691 -0.598,0 -0.277,0.281 -0.563,-0.156 -0.344,-0.563 -0.281,-0.563 -0.656,-0.5 -0.156,-0.813 -0.281,-0.473 -0.309,-0.594 -0.41,-0.719 -0.09,-0.469 0.434,-0.063 0.254,0.531 0.5,0.938 0.375,0.688 0.406,0.75 0.438,0.723 0.594,0.598 0.531,-0.5 0.605,-0.156 0.434,-0.531 0.594,-0.344 0.344,-0.594 0.035,-0.5 -0.281,-0.316 -0.375,-0.438 -0.254,0.156 -0.152,0.254 -0.41,-0.188 -0.125,-0.313 -0.277,-0.41 -0.438,-0.406 0,-0.813 0.281,0.531 0.344,0.535 0.594,0.344 0.41,-0.094 0.25,0.281 1.781,-0.035 -0.031,0.035 0.563,0.5 0.41,0.563 0.121,0.277 0.281,0 0.094,-0.309 0.09,0.465 0.156,0.844 0.344,0.813 0.188,0.688 0.281,0.656 0.219,0.277 0.313,-0.188 0.09,-0.313 0.125,-0.777 -0.031,-0.688 0.25,-0.316 c 0,0 0.266,-0.359 0.313,-0.375 0.051,-0.012 0.625,-0.652 0.625,-0.652 l 0.281,-0.348 0.313,-0.188 0.383,-0.219 0.145,0 0.066,0.344 0.156,0.406 0.5,0.652 0,0.25 0.09,0.281 0.344,-0.156 -0.031,-0.375 0.316,0.066 0.063,0.344 -0.027,0.531 0.094,0.375 0.277,0.066 0.094,-0.316 0.344,0.219 0.063,0.316 0.313,0.469 0.313,0.344 0.219,0.191 0.531,-0.469 0.219,-0.441 -0.09,-0.5 -0.094,-0.656 -0.594,-0.563 -0.094,-0.566 0.254,-0.398 c 0,0 0.156,-0.32 0.309,-0.156 0.152,0.168 0.227,0.188 0.156,0.375 -0.066,0.184 -0.188,0.598 -0.188,0.598 l 0.375,0.156 0.156,-0.531 -0.156,-0.379 0.379,-0.156 0.688,-0.344 0.434,-0.531 0.344,-0.809 -0.031,-0.598 -0.344,-0.777 -0.688,-0.816 -0.438,-0.402 -0.219,-0.625 0.406,-0.098 c 0,0 0.234,-0.398 0.438,-0.188 0.203,0.219 0.5,0.531 0.5,0.531 0,0 0.355,0.563 0.406,0.625 0.051,0.063 0.418,0.402 0.469,0.469 0.051,0.063 0.281,0.313 0.281,0.313 l 0.375,-0.527 0.09,-0.098 0,-0.188 -0.531,-0.316 -0.465,-0.434 0.344,-0.754 0.563,-0.277 0.09,-0.254 0,-1.469 -0.277,-0.563 -0.313,-0.438 c 0,0 -0.324,-0.047 -0.406,-0.031 -0.086,0.016 -0.781,-0.5 -0.781,-0.5 l 0.066,-0.5 0.254,-0.438 1.188,-0.152 0.277,0.031 0,-0.313 L 46.313,4.274 44.661,4.086 43.376,3.77 c 0,0 -0.387,0.297 -0.594,0.316 -0.203,0.016 -0.906,0.125 -0.906,0.125 L 41.157,3.77 39.657,3.645 39.591,3.614 38.306,3.551 37.533,3.113 M 25.799,8.008 29.377,5.305 28.158,5.961 27.845,5.738 27.693,5.488 27.756,5.234 28.447,5.269 28.76,5.144 28.135,4.831 27.26,4.515 26.385,4.359 25.447,4.55 24.478,5.331 24.04,5.769 23.388,6.488 23.13,6.519 23.04,6.863 23.161,7.207 c 0,0 0.137,0.156 0.156,0.156 0.02,0 0.254,-0.125 0.254,-0.125 0,0 0.023,-0.117 0.156,-0.156 0.129,-0.039 0.25,-0.063 0.25,-0.063 l 0.188,0.375 0.223,0.313 0.094,0.25 c 0,0 0.363,-0.223 0.375,-0.25 0.012,-0.031 0.031,-0.41 0.031,-0.41 l 0.277,-0.188 c 0,0 0.074,-0.133 0.066,-0.156 C 25.223,6.933 25.04,6.734 25.04,6.734 L 24.888,6.671 24.951,6.355 c 0,0 0.121,-0.051 0.121,-0.094 0,-0.039 0.191,-0.188 0.191,-0.188 l 0.223,-0.277 0.156,-0.188 0.219,-0.156 0.25,0.188 0,0.125 -0.219,0.25 -0.066,0.25 0,0.344 0.191,0.156 0.344,-0.031 0.313,-0.063 0.277,0.156 -0.063,0.219 c 0,0 -0.195,0.188 -0.258,0.219 -0.055,0.031 -0.406,-0.063 -0.492,-0.031 -0.094,0.031 -0.316,0.316 -0.316,0.316 0,0 -0.027,0.25 0,0.313 0.008,0.023 -0.004,0.07 -0.016,0.129 M 29.372,5.312 33.462,4.617 33.431,4.461 33.118,4.023 32.462,3.96 c 0,0 0.156,0.664 0.156,0.75 0,0.082 -0.434,0.027 -0.434,0.027 l -0.75,0.035 c 0,0 -1.086,0.25 -1.223,0.25 -0.129,0 -0.762,0.262 -0.809,0.281 L 29.375,5.307 M 4.325,3.483 3.825,4.049 4.262,4.268 4.828,4.014 4.859,4.639 5.328,4.955 5.828,4.482 6.516,4.607 6.797,3.955 5.672,3.857 M 7.453,3.58 7.891,4.674 7.36,4.737 6.954,5.237 6.044,4.96 5.235,5.273 4.454,5.085 3.548,4.519 2.298,4.55 1.2,5.019 0.481,4.675 0.047,4.644 l 0,13.594 0.844,0.469 0.5,-0.066 0.719,0.344 1.094,0.598 0.156,0.723 0.875,0.84 0.5,-0.375 0.406,0.316 -0.063,-0.723 -0.781,0.191 -0.25,-0.906 -0.094,-0.41 -0.691,-0.621 0,-0.438 0.531,-0.566 -0.344,-0.402 -0.563,0.09 -0.844,0.844 -0.688,-0.09 c 0,0 -0.313,-0.531 -0.375,-0.656 -0.063,-0.125 0.188,-0.563 0.188,-0.563 l -0.063,-1.285 0.719,-0.5 0.563,-0.191 0.813,0 1.121,-0.25 0.41,0.531 -0.066,0.625 0.469,0.406 0.066,-0.441 c 0,0 -0.031,-0.719 -0.094,-0.906 -0.063,-0.188 0.563,-0.625 0.563,-0.625 l 0.5,-0.613 0.594,-0.727 0.281,-0.563 0.941,-0.496 0.621,-0.691 c 0,0 0.938,-0.148 1.125,-0.254 0.191,-0.09 0.066,-0.434 -0.125,-0.75 C 9.414,9.794 9.699,9.482 9.699,9.482 l 0.719,-0.434 0.621,0.121 0.066,0.754 c 0,0 0.586,0.563 0.777,0.465 0.191,-0.09 0.281,-0.406 0.281,-0.406 L 11.85,9.169 12.038,8.36 11.194,8.481 11.194,7.106 10.944,7.36 10.288,7.391 10.194,6.703 9.76,6.172 c 0,0 -0.43,0.25 -0.844,0.406 C 8.502,6.734 8.603,7.047 8.603,7.047 L 8.572,7.891 7.884,8.454 7.446,9.11 c 0,0 -0.277,-0.188 -0.277,-0.313 0,-0.125 -0.066,-0.469 -0.066,-0.469 L 6.384,7.765 c 0,0 -0.563,-0.406 -0.594,-0.531 -0.031,-0.125 0.344,-0.688 0.344,-0.688 0,0 0.809,-0.5 1,-0.656 C 7.325,5.734 8.349,6.234 8.474,6.144 8.603,6.05 9.099,5.269 9.099,5.269 L 9.537,4.671 9.099,5.171 8.349,4.452 8.474,3.733 7.443,3.577 m 2.508,0.035 -0.254,0.625 0.156,0.344 0.566,-0.066 0.25,0.469 -0.5,0.531 -0.563,0.063 0.5,0.223 0.531,0.465 0.527,0.125 0.191,-0.719 0.031,-0.438 0.625,0.094 c 0,0 -0.191,0.313 -0.098,0.313 0.102,0 0.473,-0.406 0.473,-0.406 L 11.32,4.137 c 0,0 -0.438,-0.344 -0.563,-0.25 -0.133,0.09 -0.473,0.063 -0.473,0.063 L 9.94,3.606 m 8.691,1.789 -0.125,0.41 c 0.449,0.348 0.625,0.344 0.625,0.344 l 0.527,-0.125 0.348,-0.344 -0.223,-0.281 -1.152,0 m 2.777,1.781 -0.25,0.219 C 21.095,7.704 21.006,8.02 21.006,8.02 l 0.473,0.223 0.063,0.277 -0.254,0.254 -0.219,0.375 0.156,0.156 0.563,-0.094 0.5,-0.219 L 22.011,8.617 21.917,7.961 21.573,7.586 m -0.934,0.777 -0.281,0.469 0.375,0.156 0.156,-0.281 m -15.691,0.754 0.656,0.277 0.438,0.566 0.277,0.434 c 0,0 -0.246,0.844 -0.313,1 C 6.19,11.894 5.998,11.425 5.998,11.425 L 5.85,10.612 5.319,10.835 4.913,11.8 5.003,10.991 5.128,10.425 4.472,10.175 5.038,9.644 5.194,9.456 m 26.383,0.754 c 0.133,-0.043 0.375,0.156 0.375,0.156 l -0.254,0.219 0.094,0.313 0.281,0.75 0.277,0.469 0.379,0.594 -0.41,0.191 -0.531,-0.344 -0.219,-0.656 c 0,0 -0.301,-0.406 -0.441,-0.469 -0.133,-0.066 -0.25,-0.281 -0.25,-0.281 l 0.125,-0.531 c 0,0 0.43,-0.359 0.566,-0.406 m -7.898,1.184 -0.375,0.719 0.277,0.281 0.254,-0.223 0.031,-0.309 m -1.441,0.281 0,0.188 0.156,-0.031 m 2,0.313 -0.188,0.063 0.313,0.531 0.281,-0.219 m -20.531,3.813 -0.313,0.156 0.527,0.281 0.602,0.121 0.344,0.469 0.406,-0.25 -0.066,-0.281 -0.688,-0.5 -0.813,0 m 1.684,3.098 -0.813,0.441 -0.094,0.902 -0.188,1 -0.563,0.75 0.027,1.121 0.473,1.156 0.5,1.406 1.313,1.313 0.063,0.75 0.09,3.379 0.469,1.906 c 0,0 0.289,1.102 0.219,1.191 -0.066,0.086 0.379,0.902 0.379,0.902 L 8.881,37.492 10.1,38.023 9.6,37.425 9.346,36.737 9.6,36.018 8.944,35.674 c 0,0 0.438,-0.285 0.5,-0.375 C 9.51,35.209 9.35,34.83 9.35,34.83 l -0.188,-0.469 0.5,-0.652 0.781,-0.191 0.121,-0.598 -0.465,-0.219 0.188,-0.5 0.75,-0.09 0.656,-1.598 0.469,-1.094 0.965,-0.469 c 0,0 0.313,-0.93 0.313,-1.066 0,-0.129 0.094,-1.531 0.094,-1.531 l 0.75,-1.027 0.098,-0.688 -0.566,-0.344 -0.465,-0.566 -0.844,0.066 -1.348,-0.781 -0.277,-0.656 c 0,0 -0.473,-0.809 -0.566,-0.809 -0.09,0 -0.656,0.031 -0.656,0.031 L 9.133,21.048 8.785,20.392 7.441,20.111 7.007,19.892 l -0.875,0 m 36.434,0.496 c 0.113,0.129 0.816,2.219 0.91,2.219 0.086,0 0.621,0.066 0.621,0.066 l -0.281,-0.844 m -4.84,-1.375 -0.313,0.406 0.156,0.598 0.344,-0.375 -0.066,-0.473 m 7.969,0.563 -1.469,0.813 c 0,0.09 -0.719,0.688 -0.719,0.688 l 0.188,0.625 0.406,0.465 0.281,0.691 1.875,-1.223 -0.566,-2.063 m -4.586,0.441 -0.438,0.063 2,3 0.531,0.594 1.309,0.066 0.813,0.254 -0.875,-0.625 -1.25,-0.348 -0.313,-1.152 -0.688,-0.566 -1.094,-1.281 m -10.496,4.867 0,0.441 c -0.02,0.063 -0.406,0.375 -0.406,0.375 l -0.469,0.219 -0.344,0.281 0.25,0.344 0.156,0.156 -0.406,0.344 0,0.563 0.156,0.594 0.344,0.094 0.406,-0.625 0.254,-0.406 -0.066,-0.5 0.375,-0.594 0.125,-0.281 0,-0.563 -0.09,-0.438 m 15.777,0.719 c -0.004,0 -0.031,0.031 -0.031,0.031 l -0.5,1.031 c 0,0 -1.102,0.164 -1.129,0.254 -0.02,0.086 -0.563,0.375 -0.563,0.375 -0.113,0 -0.469,0.656 -0.469,0.656 l -0.066,2.063 -0.125,0.75 0.316,0.406 1.527,-0.531 0.5,-0.563 0.531,0 0,-4.469 m -36.527,8.746 -0.219,0.152 -0.094,0.031 0.5,0.25 -0.191,-0.434 m -0.844,0.184 -0.219,0.5 0.434,-0.094 -0.219,-0.406 m 1.504,4.125 -0.469,0.719 -0.875,0.406 0.5,0.625 -0.754,0.375 -2.469,-0.125 -0.75,-0.75 -0.656,-0.125 0.656,1.375 -1.156,-0.219 -3.969,0.125 -0.844,1.094 -1.219,-0.125 -0.121,0.254 0,4.09 45.28,0 2.719,-1.777 0,-1.906 -0.125,-1.191 -0.965,-0.219 -1.219,0.156 -0.879,0.777 -1.473,0.598 0.625,-0.754 1.344,-0.777 2.156,-0.5 0.25,-0.875 -1,0 c 0,0 -1.34,-0.668 -1.34,-0.844 0,-0.176 -1.5,-0.125 -1.5,-0.125 l -1.719,0.188 -1.656,-0.09 -3.313,0.125 -3.063,0.621 c 0,0 -1.477,0.793 -1.656,0.754 -0.18,-0.043 0.625,-1.031 0.625,-1.031 l -1.438,0.094 -0.906,-0.75 -0.906,0.617 c 0,0 -1.215,0.098 -1.527,0.098 -0.316,0 -0.723,0.563 -0.723,0.563 l -2.469,-0.09 -4.25,0.188 -1.121,0.965 -0.277,0.035 -3.223,-0.223 -2.219,0.223 -0.777,-0.379 0.031,-0.063 c 0,0 -0.656,-1.32 -0.656,-1.5 0,-0.176 -0.5,-0.621 -0.5,-0.621 m 0.336,3.188 1.344,0.438 -1.652,0 -0.656,-0.344 m 0.969,-0.094"
         id="path3082" />
    </g>
    <path
       style="fill:#000000;fill-opacity:1;stroke:none;opacity:0.20000000000000001"
       d="M 24 2 C 2.7284685 2 0.33742495 2.0888436 0.0625 17.40625 C 0.390625 3.0029297 3 3 24 3 C 45 3 47.609375 3.0029297 47.9375 17.40625 C 47.662575 2.0888436 45.271532 2 24 2 z "
       transform="translate(0,1004.3622)"
       id="path3770" />
    <path
       style="fill:#000000;fill-opacity:1;stroke:none;opacity:0.20000000000000001"
       d="M 24 2 C 7.2405624 2 2.2369698 2.0788791 0.71875 9.59375 C 2.3300781 2.5289866 7.5 2.53125 24 2.53125 C 40.5 2.53125 45.669922 2.5289866 47.28125 9.59375 C 45.76303 2.0788791 40.759438 2 24 2 z M 47.28125 9.59375 C 47.354492 9.9148756 47.409424 10.242768 47.46875 10.59375 C 47.41561 10.240351 47.346891 9.9186608 47.28125 9.59375 z M 0.71875 9.59375 C 0.65310868 9.9186608 0.58439008 10.240351 0.53125 10.59375 C 0.59057617 10.242768 0.64550781 9.9148756 0.71875 9.59375 z "
       transform="translate(0,1004.3622)"
       id="path3012" />
  </g>
</svg>
