<?xml version="1.0" encoding="UTF-8" standalone="no"?>
<!-- Created with Inkscape (http://www.inkscape.org/) -->

<svg
   xmlns:dc="http://purl.org/dc/elements/1.1/"
   xmlns:cc="http://creativecommons.org/ns#"
   xmlns:rdf="http://www.w3.org/1999/02/22-rdf-syntax-ns#"
   xmlns:svg="http://www.w3.org/2000/svg"
   xmlns="http://www.w3.org/2000/svg"
   xmlns:sodipodi="http://sodipodi.sourceforge.net/DTD/sodipodi-0.dtd"
   xmlns:inkscape="http://www.inkscape.org/namespaces/inkscape"
   width="22"
   height="22"
   id="svg27665"
   version="1.1"
   inkscape:version="0.48.4 r9939"
   sodipodi:docname="gwibber-stream-public.svg">
  <defs
     id="defs27667" />
  <sodipodi:namedview
     id="base"
     pagecolor="#ffffff"
     bordercolor="#666666"
     borderopacity="1.0"
     inkscape:pageopacity="0.0"
     inkscape:pageshadow="2"
     inkscape:zoom="7.919596"
     inkscape:cx="28.027246"
     inkscape:cy="1.779968"
     inkscape:document-units="px"
     inkscape:current-layer="layer1"
     showgrid="true"
     inkscape:window-width="1301"
     inkscape:window-height="744"
     inkscape:window-x="65"
     inkscape:window-y="24"
     inkscape:window-maximized="1"
     inkscape:snap-bbox="true"
     inkscape:bbox-paths="true"
     inkscape:bbox-nodes="true"
     inkscape:snap-bbox-edge-midpoints="true"
     inkscape:snap-bbox-midpoints="true"
     inkscape:object-paths="true"
     inkscape:snap-intersection-paths="true"
     inkscape:object-nodes="true"
     inkscape:snap-smooth-nodes="true"
     inkscape:snap-midpoints="true"
     inkscape:snap-object-midpoints="true"
     inkscape:snap-center="true"
     inkscape:snap-global="true"
     showguides="false"
     inkscape:guide-bbox="true"
     fit-margin-top="0"
     fit-margin-left="0"
     fit-margin-right="0"
     fit-margin-bottom="0"
     inkscape:showpageshadow="false">
    <sodipodi:guide
       orientation="0,1"
       position="-1494.2276,523.03618"
       id="guide4179" />
    <sodipodi:guide
       orientation="1,0"
       position="-1492.0847,520.17904"
       id="guide4181" />
    <inkscape:grid
       type="xygrid"
       id="grid4279"
       empspacing="5"
       visible="true"
       enabled="true"
       snapvisiblegridlinesonly="true"
       originx="6.6056504e-05px"
       originy="592.00001px" />
  </sodipodi:namedview>
  <metadata
     id="metadata27670">
    <rdf:RDF>
      <cc:Work
         rdf:about="">
        <dc:format>image/svg+xml</dc:format>
        <dc:type
           rdf:resource="http://purl.org/dc/dcmitype/StillImage" />
        <dc:title />
      </cc:Work>
    </rdf:RDF>
  </metadata>
  <g
     inkscape:label="Camada 1"
     inkscape:groupmode="layer"
     id="layer1"
     transform="translate(3393.2465,-1644.2411)">
    <path
       style="fill:#212121;fill-opacity:1;stroke:none"
       d="m -3380.2464,1645.2411 c -2.7615,0 -5,2.2386 -5,5 0,2.7614 2.2385,5 5,5 2.7614,0 5,-2.2386 5,-5 0,-2.7614 -2.2386,-5 -5,-5 z m -5,11 -3,3 0,5 16,0 0,-5 -3,-3 -10,0 z"
       id="path2986"
       inkscape:connector-curvature="0" />
    <path
       style="fill:#212121;fill-opacity:1;stroke:none"
       d="M 8.875 1 C 6.1729164 1.0681903 4 3.281579 4 6 C 4 8.1297298 5.3427142 9.9356113 7.21875 10.65625 L 7.375 10.5 L 8 10.5 L 8.34375 10.5 C 7.21145 9.3285 6.5 7.7459 6.5 6 C 6.5 3.99075 7.4286378 2.1952158 8.875 1 z M 12.59375 2.5625 C 10.839363 2.761152 9.5 4.1874421 9.5 6 C 9.5 7.8130911 10.838602 9.2707854 12.59375 9.46875 C 13.462862 8.5692168 14 7.3495777 14 6 C 14 4.6589102 13.453209 3.4604324 12.59375 2.5625 z M 4 12 L 1 15 L 1 20 L 3.5 20 L 3.5 15 L 3.5 14.375 L 3.9375 13.9375 L 5.875 12 L 4 12 z M 8.625 13.5 L 6.5 15.625 L 6.5 18.5 L 17 18.5 L 17 15 L 15.5 13.5 L 8.625 13.5 z "
       transform="translate(-3393.2465,1644.2411)"
       id="path2988" />
  </g>
</svg>
