<?xml version="1.0" encoding="UTF-8" standalone="no"?>
<!-- Created with Inkscape (http://www.inkscape.org/) -->
<svg id="svg3330" xmlns:rdf="http://www.w3.org/1999/02/22-rdf-syntax-ns#" xmlns="http://www.w3.org/2000/svg" height="22" width="22" version="1.1" xmlns:cc="http://creativecommons.org/ns#" xmlns:dc="http://purl.org/dc/elements/1.1/">
 <metadata id="metadata3335">
  <rdf:RDF>
   <cc:Work rdf:about="">
    <dc:format>image/svg+xml</dc:format>
    <dc:type rdf:resource="http://purl.org/dc/dcmitype/StillImage"/>
    <dc:title/>
   </cc:Work>
  </rdf:RDF>
 </metadata>
 <g id="layer1" transform="translate(0,6)">
  <path id="path3122-6" style="opacity:.3;color:#ffffff;fill:#fff" d="m7-4c-1.662 0-3 1.338-3 3v8c0 1.662 1.338 3 3 3s3-1.338 3-3v-8c0-1.662-1.338-3-3-3zm-6 7v1h1v3c0 2.4238 1.7175 4.4415 4 4.9062v2.094h-1v1h4v-1h-1v-2.094c2.283-0.464 4-2.4822 4-4.906v-3h1v-1h-1-1v4c0 2.216-1.784 4-4 4s-4-1.784-4-4v-4h-1-1z"/>
  <path id="path3122" style="color:#ffffff;fill:#3c3c3c" transform="translate(0,-6)" d="m7 1c-1.662 0-3 1.338-3 3v8c0 1.662 1.338 3 3 3s3-1.338 3-3v-8c0-1.662-1.338-3-3-3zm-6 7v1h1v3c0 2.4238 1.7175 4.4415 4 4.9062v2.094h-1v1h4v-1h-1v-2.094c2.283-0.464 4-2.482 4-4.906v-3h1v-1h-1-1v4c0 2.216-1.784 4-4 4s-4-1.784-4-4v-4h-1-1z"/>
  <path id="path3209-4" d="m17.12 0.095476s-1.8454 1.7448-1.7797 5.4045c0.0662 3.6901 1.8093 5.4045 1.8093 5.4045m3-8.6827s-0.98347 0.79498-1.0085 3.2306c-0.02476 2.4053 1.0085 3.3256 1.0085 3.3256" style="opacity:.3;stroke-width:1.7;stroke:#fff;stroke-linecap:round;fill:none"/>
  <path id="path3209" d="m17.12-0.90452s-1.8454 1.7448-1.7797 5.4045c0.0662 3.6901 1.8093 5.4045 1.8093 5.4045m3-8.6827s-0.98347 0.79498-1.0085 3.2306c-0.02476 2.4053 1.0085 3.3256 1.0085 3.3256" style="stroke-width:1.7;stroke:#3c3c3c;stroke-linecap:round;fill:none"/>
 </g>
</svg>
