<?xml version="1.0" encoding="UTF-8" standalone="no"?>
<!-- Created with Inkscape (http://www.inkscape.org/) -->
<svg id="svg7384" xmlns:rdf="http://www.w3.org/1999/02/22-rdf-syntax-ns#" xmlns="http://www.w3.org/2000/svg" height="16" width="16" version="1.1" xmlns:cc="http://creativecommons.org/ns#" xmlns:dc="http://purl.org/dc/elements/1.1/">
 <metadata id="metadata90">
  <rdf:RDF>
   <cc:Work rdf:about="">
    <dc:format>image/svg+xml</dc:format>
    <dc:type rdf:resource="http://purl.org/dc/dcmitype/StillImage"/>
    <dc:title>Gnome Symbolic Icon Theme</dc:title>
   </cc:Work>
  </rdf:RDF>
 </metadata>
 <title id="title9167">Gnome Symbolic Icon Theme</title>
 <g id="layer10" transform="translate(-201,-567)">
  <path id="rect27159" style="block-progression:tb;text-indent:0;color:#bebebe;text-transform:none;fill:#bebebe" d="m204.19 567c-1.2 0-2.19 0.99-2.19 2.19v11.625c0 1.1999 0.9859 2.1875 2.1875 2.1875h9.625c1.2016 0 2.1875-0.98758 2.1875-2.1875v-11.625c-0.01-1.21-1-2.2-2.2-2.2h-9.625zm0 2h9.625c0.1238 0 0.1875 0.0566 0.1875 0.1875v11.625c0 0.1309-0.0637 0.1875-0.1875 0.1875h-9.625c-0.14-0.01-0.2-0.07-0.2-0.2v-11.625c0-0.12 0.06-0.18 0.19-0.18z"/>
  <rect id="rect27165" style="color:#000000;enable-background:new;fill:#bebebe" rx="0" ry="0" height="7" width="6" y="571" x="206"/>
  <path id="path27167" style="block-progression:tb;text-indent:0;color:#000000;enable-background:new;text-transform:none;fill:#bebebe" d="m205.06 572v1h0.5 6.9375 0.5v-1h-0.5-6.9375-0.5z"/>
  <path id="path27169" style="block-progression:tb;text-indent:0;color:#000000;enable-background:new;text-transform:none;fill:#bebebe" d="m205.06 574v1h0.5 6.9375 0.5v-1h-0.5-6.9375-0.5z"/>
  <path id="path27171" style="block-progression:tb;text-indent:0;color:#000000;enable-background:new;text-transform:none;fill:#bebebe" d="m205.06 576v1h0.5 6.9375 0.5v-1h-0.5-6.9375-0.5z"/>
  <path id="path27175" style="block-progression:tb;text-indent:0;color:#000000;enable-background:new;text-transform:none;fill:#bebebe" d="m207 570v0.5 8 0.5h1v-0.5-8-0.5h-1z"/>
  <path id="path27177" style="block-progression:tb;text-indent:0;color:#000000;enable-background:new;text-transform:none;fill:#bebebe" d="m209 570v0.5 8 0.5h1v-0.5-8-0.5h-1z"/>
  <path id="path27179" style="block-progression:tb;text-indent:0;color:#000000;enable-background:new;text-transform:none;fill:#bebebe" d="m211 570v0.5 8 0.5h1v-0.5-8-0.5h-1z"/>
 </g>
</svg>
