<?xml version="1.0" encoding="UTF-8" standalone="no"?>
<!-- Created with Inkscape (http://www.inkscape.org/) -->
<svg id="svg7384" xmlns:rdf="http://www.w3.org/1999/02/22-rdf-syntax-ns#" xmlns="http://www.w3.org/2000/svg" height="16" width="16" version="1.1" xmlns:cc="http://creativecommons.org/ns#" xmlns:dc="http://purl.org/dc/elements/1.1/">
 <metadata id="metadata90">
  <rdf:RDF>
   <cc:Work rdf:about="">
    <dc:format>image/svg+xml</dc:format>
    <dc:type rdf:resource="http://purl.org/dc/dcmitype/StillImage"/>
    <dc:title>Gnome Symbolic Icon Theme</dc:title>
   </cc:Work>
  </rdf:RDF>
 </metadata>
 <title id="title9167">Gnome Symbolic Icon Theme</title>
 <g id="layer10" transform="translate(-101 -487)">
  <path id="rect2860" style="block-progression:tb;text-indent:0;color:#bebebe;text-transform:none;fill:#bebebe" d="m103.97 488c-1.0753 0-1.9688 0.89341-1.9688 1.9688v9.0312 0.4375l0.3125 0.28125 1.6875 1.6875v-11.406h10v10h-2v2h2.0312c1.0753 0 1.9688-0.89341 1.9688-1.9688v-10.062c0-1.0753-0.89341-1.9688-1.9688-1.9688z"/>
  <path id="rect2880" style="color:#bebebe;fill:#bebebe" d="m106 496c-0.554 0-1 0.446-1 1v4c0 0.554 0.446 1 1 1h4c0.554 0 1-0.446 1-1v-4c0-0.554-0.446-1-1-1h-4zm0 1h2v4h-2v-4z"/>
 </g>
</svg>
