<?xml version="1.0" encoding="UTF-8" standalone="no"?>
<!-- Created with Inkscape (http://www.inkscape.org/) -->
<svg id="svg7384" xmlns:rdf="http://www.w3.org/1999/02/22-rdf-syntax-ns#" xmlns="http://www.w3.org/2000/svg" height="16" width="16" version="1.1" xmlns:cc="http://creativecommons.org/ns#" xmlns:dc="http://purl.org/dc/elements/1.1/">
 <metadata id="metadata90">
  <rdf:RDF>
   <cc:Work rdf:about="">
    <dc:format>image/svg+xml</dc:format>
    <dc:type rdf:resource="http://purl.org/dc/dcmitype/StillImage"/>
    <dc:title>Gnome Symbolic Icon Theme</dc:title>
   </cc:Work>
  </rdf:RDF>
 </metadata>
 <title id="title9167">Gnome Symbolic Icon Theme</title>
 <g id="layer10" transform="translate(-61,-447)">
  <path id="rect6806" style="block-progression:tb;text-indent:0;color:#bebebe;text-transform:none;fill:#bebebe" d="m64.5 452c-0.27614 0-0.5 0.22386-0.5 0.5v2.9688c0 1.9684 1.258 3.6246 3 4.25v1.2812h-2c-0.56475 0-1 0.49007-1 1v1h0.84375 2.1562 5 0.0937 0.90625v-1c-0.00006-0.58435-0.47642-0.99995-1-1h-2v-1.2812c1.742-0.62545 3-2.2816 3-4.25v-2.9688c0-0.27614-0.22386-0.5-0.5-0.5s-0.5 0.22386-0.5 0.5c0 0.069 0.006 0.12768 0.0312 0.1875v2.7812c0 1.9642-1.579 3.5312-3.5312 3.5312-1.9523 0-3.5-1.5671-3.5-3.5312v-2.9688c0-0.27614-0.22386-0.5-0.5-0.5zm4-4.01c1.385 0 2.5 1.115 2.5 2.5v5.01c0 1.385-1.115 2.5-2.5 2.5s-2.5-1.115-2.5-2.5v-5.0129c0-1.385 1.115-2.5 2.5-2.5z"/>
 </g>
</svg>
