<?xml version="1.0" encoding="UTF-8" standalone="no"?>
<!-- Created with Inkscape (http://www.inkscape.org/) -->
<svg id="svg7384" xmlns:rdf="http://www.w3.org/1999/02/22-rdf-syntax-ns#" xmlns="http://www.w3.org/2000/svg" height="16" width="16" version="1.1" xmlns:cc="http://creativecommons.org/ns#" xmlns:dc="http://purl.org/dc/elements/1.1/">
 <metadata id="metadata90">
  <rdf:RDF>
   <cc:Work rdf:about="">
    <dc:format>image/svg+xml</dc:format>
    <dc:type rdf:resource="http://purl.org/dc/dcmitype/StillImage"/>
    <dc:title>Gnome Symbolic Icon Theme</dc:title>
   </cc:Work>
  </rdf:RDF>
 </metadata>
 <title id="title9167">Gnome Symbolic Icon Theme</title>
 <g id="layer10" transform="translate(-181 -467)">
  <path id="rect3057" style="color:#000000;fill:#bebebe" d="m192.5 468c1.933 0 3.5 1.567 3.5 3.5 0 1.1194-0.526 2.1093-1.3438 2.75 0.20995 0.18305 0.34375 0.4483 0.34375 0.75-0.002 2 0 3.0521 0 6 0 0.554-0.446 1-1 1h-9c-0.554 0-1-0.446-1-1v-2.1562l-2.5625 1.9062c-0.0194 0.013-0.0404 0.0236-0.0625 0.0312-0.0309 0.005-0.0628 0.005-0.0937 0-0.0207 0.002-0.0418 0.002-0.0625 0-0.0221-0.008-0.0431-0.0182-0.0625-0.0312-0.0221-0.008-0.0431-0.0181-0.0625-0.0312-0.0112-0.01-0.0217-0.02-0.0312-0.0312-0.0112-0.01-0.0217-0.02-0.0312-0.0312-0.0131-0.0194-0.0236-0.0404-0.0312-0.0625-0.002-0.0207-0.002-0.0418 0-0.0625v-6.0625c-0.002-0.0207-0.002-0.0418 0-0.0625 0.008-0.0221 0.0181-0.0431 0.0312-0.0625 0.01-0.0112 0.02-0.0217 0.0312-0.0312 0.01-0.0112 0.02-0.0217 0.0312-0.0312 0.01-0.0112 0.02-0.0217 0.0312-0.0312 0.01-0.0112 0.02-0.0217 0.0312-0.0312 0.0194-0.013 0.0404-0.0236 0.0625-0.0312 0.0309-0.005 0.0628-0.005 0.0937 0 0.0104-0.0006 0.0208-0.0006 0.0312 0 0.0112 0.01 0.0217 0.02 0.0312 0.0312 0.0221 0.008 0.0431 0.0181 0.0625 0.0312l2.5625 1.9062v-1.1562c0-0.3017 0.1338-0.56695 0.34375-0.75-0.81775-0.64068-1.3438-1.6306-1.3438-2.75 0-1.933 1.567-3.5 3.5-3.5 1.2836 0 2.3908 0.68846 3 1.7188 0.60915-1.0303 1.7164-1.7188 3-1.7188zm0 2c-0.82843 0-1.5 0.67157-1.5 1.5s0.67157 1.5 1.5 1.5 1.5-0.67157 1.5-1.5-0.67157-1.5-1.5-1.5zm-6 0c-0.82843 0-1.5 0.67157-1.5 1.5s0.67157 1.5 1.5 1.5 1.5-0.67157 1.5-1.5-0.67157-1.5-1.5-1.5zm3 3.2812c-0.15809 0.26739-0.34144 0.50321-0.5625 0.71875h1.125c-0.22106-0.21554-0.40441-0.45136-0.5625-0.71875z"/>
 </g>
</svg>
