<?xml version="1.0" encoding="UTF-8" standalone="no"?>
<!-- Created with Inkscape (http://www.inkscape.org/) -->
<svg id="svg7384" xmlns:rdf="http://www.w3.org/1999/02/22-rdf-syntax-ns#" xmlns="http://www.w3.org/2000/svg" height="16.009" width="16" version="1.1" xmlns:cc="http://creativecommons.org/ns#" xmlns:dc="http://purl.org/dc/elements/1.1/">
 <metadata id="metadata90">
  <rdf:RDF>
   <cc:Work rdf:about="">
    <dc:format>image/svg+xml</dc:format>
    <dc:type rdf:resource="http://purl.org/dc/dcmitype/StillImage"/>
    <dc:title>Gnome Symbolic Icon Theme</dc:title>
   </cc:Work>
  </rdf:RDF>
 </metadata>
 <title id="title9167">Gnome Symbolic Icon Theme</title>
 <g id="layer10" transform="translate(-341 -446.99)">
  <path id="rect7357" style="fill:#bebebe" d="m345.68 450.99c-0.93151-0.003-1.6852 0.76529-1.6897 1.7265 0.018 0.74437 0.0221 1.5069 0.015 2.269l2.9214 0.0153 0.0189-4.0038-1.2657-0.006zm2.4073 0.0117-0.0189 4.0038 2.9215 0.0153c0.015-0.7651 0.03-1.5328 0.0366-2.2687 0.003-0.96119-0.74166-1.7388-1.6732-1.7435l-1.266-0.006zm-4.0864 5.0809c-0.0113 0.83161-0.037 1.5005-0.0375 2.266-0.009 2.0111 1.5518 3.6381 3.5009 3.648 1.949 0.01 3.5258-1.6012 3.5354-3.6123-0.0353-0.83655-0.046-1.5084-0.0375-2.3016z"/>
  <path id="path7413" style="block-progression:tb;text-indent:0;color:#000000;text-transform:none;fill:#bebebe" d="m349.06 447c-0.4543 0.0495-0.88397 0.2214-1.25 0.5-0.48804 0.37146-0.8125 0.95486-0.8125 1.6875-0.004 0.26416 0.23582 0.50712 0.5 0.50712s0.50374-0.24296 0.5-0.50712c0-0.4491 0.17164-0.70389 0.4375-0.90625s0.66376-0.30023 1.0625-0.28125c0.39874 0.019 0.78428 0.15409 1.0625 0.40625s0.46875 0.5845 0.46875 1.125c0 2.1653 1.4638 3.5091 3 3.4688 0.85672-0.0225 1.6882-0.47696 2.25-1.3125l-0.5625-1c-0.37537 0.9157-1.0678 1.2954-1.7188 1.3125-0.96046 0.0252-1.9688-0.72975-1.9688-2.4688 0-0.79197-0.33682-1.4439-0.8125-1.875-0.47568-0.43112-1.081-0.62738-1.6875-0.65625-0.15162-0.007-0.31732-0.0165-0.46875 0zm6.9375 1.9687c-0.00033 0.0104-0.00033 0.0208 0 0.0312 0 0.0455 0.00089 0.0807 0 0.125l0.78125 1.375c0.0114-0.0408 0.0208-0.0833 0.0312-0.125zm0 0.375c-0.006 0.10599-0.0201 0.21386-0.0312 0.3125l0.71875 1.2188c0.0234-0.0625 0.0415-0.12233 0.0625-0.1875zm-0.0625 0.5c-0.0138 0.0899-0.0444 0.16659-0.0625 0.25l0.65625 1.125c0.0293-0.0609 0.0669-0.12359 0.0937-0.1875zm-0.0937 0.4375c-0.0237 0.0889-0.0653 0.16899-0.0937 0.25l0.59375 1.0312c0.0401-0.0651 0.088-0.1182 0.125-0.1875z"/>
 </g>
</svg>
