<?xml version="1.0" encoding="UTF-8" standalone="no"?>
<!-- Created with Inkscape (http://www.inkscape.org/) -->
<svg id="svg7384" xmlns:rdf="http://www.w3.org/1999/02/22-rdf-syntax-ns#" xmlns="http://www.w3.org/2000/svg" height="16" width="16" version="1.1" xmlns:cc="http://creativecommons.org/ns#" xmlns:dc="http://purl.org/dc/elements/1.1/">
 <metadata id="metadata90">
  <rdf:RDF>
   <cc:Work rdf:about="">
    <dc:format>image/svg+xml</dc:format>
    <dc:type rdf:resource="http://purl.org/dc/dcmitype/StillImage"/>
    <dc:title>Gnome Symbolic Icon Theme</dc:title>
   </cc:Work>
  </rdf:RDF>
 </metadata>
 <title id="title9167">Gnome Symbolic Icon Theme</title>
 <g id="layer10" transform="translate(-241,-567)">
  <path id="rect27244" style="block-progression:tb;text-indent:0;color:#bebebe;text-transform:none;fill:#bebebe" d="m245.19 567c-1.2 0-2.19 0.99-2.19 2.19v11.625c0 1.1999 0.9859 2.1875 2.1875 2.1875h7.625c1.2016 0 2.1875-0.98758 2.1875-2.1875v-11.625c-0.01-1.21-1-2.2-2.2-2.2h-7.625zm0 2h7.625c0.1238 0 0.1875 0.0566 0.1875 0.1875v11.625c0 0.1309-0.0637 0.1875-0.1875 0.1875h-7.625c-0.14-0.01-0.2-0.07-0.2-0.2v-11.625c0-0.12 0.06-0.18 0.19-0.18z"/>
  <path id="path10747-1" style="block-progression:tb;text-indent:0;color:#bebebe;text-transform:none;fill:#bebebe" d="m249.78 572c-0.17789 0.0489-0.3419 0.14729-0.46875 0.28125l-3.0312 3c-0.2353 0.23073-0.34458 0.58284-0.28125 0.90625v0.8125h0.8125 0.1875 1.4707l-1.1875 1.2736c-0.21461 0.21931-0.32135 0.53954-0.28125 0.84375-0.001 0.0312-0.001 0.0625 0 0.0937v0.78125h0.84375 0.15625c0.26386 0.004 0.52791-0.099 0.71875-0.28125l3-2.9923c0.18369-0.18977 0.28735-0.45465 0.28125-0.7187 0.003-0.0416 0.003-0.0834 0-0.125v-0.875h-0.84375-0.15625-1.5644l1.3125-1.2812c0.21461-0.21931 0.32135-0.53954 0.28125-0.84375 0.001-0.0312 0.001-0.0625 0-0.0937v-0.7813h-0.84375-0.0937c-0.0208-0.00063-0.0417-0.00063-0.0625 0-0.0829-0.0103-0.16709-0.0103-0.25 0z"/>
 </g>
</svg>
