<?xml version="1.0" encoding="UTF-8" standalone="no"?>
<!-- Created with Inkscape (http://www.inkscape.org/) -->
<svg id="svg7384" xmlns:rdf="http://www.w3.org/1999/02/22-rdf-syntax-ns#" xmlns="http://www.w3.org/2000/svg" height="16" width="16" version="1.1" xmlns:cc="http://creativecommons.org/ns#" xmlns:dc="http://purl.org/dc/elements/1.1/">
 <metadata id="metadata90">
  <rdf:RDF>
   <cc:Work rdf:about="">
    <dc:format>image/svg+xml</dc:format>
    <dc:type rdf:resource="http://purl.org/dc/dcmitype/StillImage"/>
    <dc:title>Gnome Symbolic Icon Theme</dc:title>
   </cc:Work>
  </rdf:RDF>
 </metadata>
 <title id="title9167">Gnome Symbolic Icon Theme</title>
 <g id="layer9" transform="translate(-201 -317)">
  <path id="path5938" style="fill:#bebebe" d="m29 209a1 1 0 1 1 -2 0 1 1 0 1 1 2 0z" transform="matrix(2 0 0 2 148 -93.005)"/>
  <path id="path5940" style="fill:#bebebe" d="m29 209a1 1 0 1 1 -2 0 1 1 0 1 1 2 0z" transform="matrix(2 0 0 2 153 -93)"/>
  <path id="path5942" style="fill:#bebebe" d="m29 209a1 1 0 1 1 -2 0 1 1 0 1 1 2 0z" transform="matrix(2 0 0 2 158 -93)"/>
 </g>
</svg>
