<?xml version="1.0" encoding="UTF-8" standalone="no"?>
<!-- Created with Inkscape (http://www.inkscape.org/) -->
<svg id="svg7384" xmlns:rdf="http://www.w3.org/1999/02/22-rdf-syntax-ns#" xmlns="http://www.w3.org/2000/svg" height="16" width="16" version="1.1" xmlns:cc="http://creativecommons.org/ns#" xmlns:dc="http://purl.org/dc/elements/1.1/">
 <metadata id="metadata90">
  <rdf:RDF>
   <cc:Work rdf:about="">
    <dc:format>image/svg+xml</dc:format>
    <dc:type rdf:resource="http://purl.org/dc/dcmitype/StillImage"/>
    <dc:title>Gnome Symbolic Icon Theme</dc:title>
   </cc:Work>
  </rdf:RDF>
 </metadata>
 <title id="title9167">Gnome Symbolic Icon Theme</title>
 <g id="layer9" transform="translate(-261 -177)">
  <path id="path6131" style="opacity:.35;color:#bebebe;fill:#bebebe" d="m264 178c-1.108 0-2 0.892-2 2v3h2c0-0.554 0.446-1 1-1h1v-1c0-0.554 0.446-1 1-1h4c0.554 0 0.96747 0.44696 1 1v1h1c0.554 0 1 0.446 1 1h2v-3c0-1.108-0.892-2-2-2zm-2 10v2c0 1.108 0.892 2 2 2h10c1.108 0 2-0.892 2-2v-2h-2v1c0 0.554-0.446 1-1 1h-4.9532-1.0468-2c-0.554 0-1-0.446-1-1v-1z"/>
  <path id="path4955-1-15" style="fill:#bebebe" d="m29 209a1 1 0 1 1 -2 0 1 1 0 1 1 2 0z" transform="matrix(1.5 0 0 1.5 222.5 -128)"/>
  <path id="path4957-2-8" style="fill:#bebebe" d="m29 209a1 1 0 1 1 -2 0 1 1 0 1 1 2 0z" transform="matrix(1.5 0 0 1.5 226.5 -128)"/>
  <path id="path4959-4-0" style="fill:#bebebe" d="m29 209a1 1 0 1 1 -2 0 1 1 0 1 1 2 0z" transform="matrix(1.5 0 0 1.5 230.5 -128)"/>
  <rect id="rect6161" style="opacity:.15;color:#bebebe;fill:#bebebe" height="1" width="6" y="189" x="266"/>
 </g>
</svg>
