<?xml version="1.0" encoding="UTF-8" standalone="no"?>
<!-- Created with Inkscape (http://www.inkscape.org/) -->
<svg id="svg7384" xmlns:rdf="http://www.w3.org/1999/02/22-rdf-syntax-ns#" xmlns="http://www.w3.org/2000/svg" xmlns:osb="http://www.openswatchbook.org/uri/2009/osb" height="16.001" width="16" version="1.1" xmlns:cc="http://creativecommons.org/ns#" xmlns:dc="http://purl.org/dc/elements/1.1/">
 <metadata id="metadata90">
  <rdf:RDF>
   <cc:Work rdf:about="">
    <dc:format>image/svg+xml</dc:format>
    <dc:type rdf:resource="http://purl.org/dc/dcmitype/StillImage"/>
    <dc:title>Gnome Symbolic Icon Theme</dc:title>
   </cc:Work>
  </rdf:RDF>
 </metadata>
 <title id="title9167">Gnome Symbolic Icon Theme</title>
 <g id="layer9" transform="translate(-101 -397)">
  <path id="path11920" style="fill:#bebebe" d="m107.71 397c-0.31595 0.0265-0.52774 0.33667-0.4375 0.64062l0.42578 1.543c-0.42482 0.10963-0.83882 0.26266-1.2383 0.45703l-1.0215-1.7656c-0.0919-0.16463-0.26863-0.26356-0.45703-0.25586-0.38079 0.0138-0.60682 0.43144-0.41015 0.75781l1.0176 1.7578c-0.3383 0.21721-0.66636 0.45108-0.97656 0.70312l-1.2539-1.2539c-0.0945-0.0967-0.22418-0.1509-0.35938-0.15039-0.44709 0.002-0.6672 0.54472-0.34766 0.85743l1.2207 1.2207c-0.28147 0.26634-0.54674 0.52461-0.79297 0.79297l-0.7207-0.72071c-0.0945-0.0967-0.22418-0.1509-0.35938-0.15039-0.44709 0.002-0.6672 0.54472-0.34766 0.85743l0.76368 0.76367c-0.89 1.08-1.41 1.95-1.41 1.95s0.8718 1.4503 2.2754 2.9238l1.1074-1.1074c-0.9-0.93-1.39-1.81-1.39-1.81s2.134-4 6-4c0.37919 0 0.73655 0.0478 1.082 0.11719l1.4668-1.4668c-0.2562-0.12492-0.51595-0.24003-0.78321-0.33203l0.57032-1.6465c0.1182-0.32287-0.11717-0.66594-0.46094-0.67188-0.21868-0.003-0.41409 0.136-0.48242 0.34375l-0.59766 1.7207c-0.27-0.04-0.53-0.06-0.8-0.06-0.10545 0-0.20804 0.0187-0.3125 0.0254l-0.45508-1.6504c-0.0563-0.21805-0.25139-0.37157-0.47656-0.375-0.0169-0.00086-0.0339-0.00086-0.0508 0zm8.2852 4.4336c-0.12976 0.004-0.25303 0.0575-0.34375 0.15039l-0.7207 0.72071c-0.0612-0.0667-0.13019-0.13193-0.19336-0.19727l-1.0976 1.0957c0.8841 0.92646 1.3652 1.7969 1.3652 1.7969s-2.134 4-6 4c-0.36779 0-0.71469-0.0458-1.0508-0.11133l-1.4785 1.4785c0.79576 0.38497 1.6444 0.63281 2.5293 0.63281 4.4183 0 8-6 8-6s-0.52469-0.86941-1.4102-1.9453l0.76368-0.76367c0.32529-0.31801 0.0914-0.86992-0.36329-0.85743zm-7 0.57c-1.6568 0-3 1.3432-3 3 0 0.0621 0.0139 0.12046 0.0176 0.18164l1.8438-1.8438c0.0659-0.23651 0.24478-0.41384 0.47656-0.47656l0.84375-0.84375c-0.06-0.01-0.12-0.02-0.18-0.02zm2.9844 2.8535-3.1328 3.1309c0.0502 0.002 0.0976 0.0156 0.14844 0.0156 1.6568 0 3-1.3432 3-3 0-0.0501-0.0132-0.0969-0.0156-0.14648z"/>
  <path id="path16981" style="color-rendering:auto;text-decoration-color:#000000;color:#000000;shape-rendering:auto;solid-color:#000000;text-decoration-line:none;fill:#bebebe;mix-blend-mode:normal;block-progression:tb;text-indent:0;image-rendering:auto;white-space:normal;text-decoration-style:solid;isolation:auto;paint-order:normal;text-transform:none" d="m115.02 398.03v0.004a1.0001 1.0001 0 0 0 -0.0605 -0.002 1.0001 1.0001 0 0 0 -0.6875 0.30273l-11.95 11.96a1.0001 1.0001 0 0 0 -0.28711 0.92187v0.79297h0.88672a1.0001 1.0001 0 0 0 0.81445 -0.30078l11.955-11.953a1.0001 1.0001 0 0 0 0.30273 -0.71875v-1h-0.96875z"/>
 </g>
</svg>
