<?xml version="1.0" encoding="UTF-8" standalone="no"?>
<!-- Created with Inkscape (http://www.inkscape.org/) -->
<svg id="svg7384" xmlns:rdf="http://www.w3.org/1999/02/22-rdf-syntax-ns#" xmlns="http://www.w3.org/2000/svg" height="16" width="16" version="1.1" xmlns:cc="http://creativecommons.org/ns#" xmlns:dc="http://purl.org/dc/elements/1.1/">
 <metadata id="metadata90">
  <rdf:RDF>
   <cc:Work rdf:about="">
    <dc:format>image/svg+xml</dc:format>
    <dc:type rdf:resource="http://purl.org/dc/dcmitype/StillImage"/>
    <dc:title>Gnome Symbolic Icon Theme</dc:title>
   </cc:Work>
  </rdf:RDF>
 </metadata>
 <title id="title9167">Gnome Symbolic Icon Theme</title>
 <g id="layer12" transform="translate(-120,-538)">
  <g id="g27035" transform="translate(79,-222)">
   <path id="path27041" style="color:#000000;fill:#bebebe" transform="translate(-79,222)" d="m126 540-6 6 6 6h9.0353c0.53-0.02 0.96-0.49 0.96-1v-10c0-0.53079-0.34561-1-1.0089-1h-8.99zm1 3h1c0.0104-0.00012 0.0208-0.00046 0.0313 0 0.25495 0.0112 0.50987 0.12858 0.6875 0.3125l1.2812 1.2812 1.3125-1.2812c0.27-0.23 0.45-0.3 0.69-0.31h1v1c0 0.28647-0.0343 0.55065-0.25 0.75l-1.2812 1.2812 1.25 1.25c0.19 0.19 0.28 0.45 0.28 0.72v1h-1c-0.2653-0.00001-0.53059-0.0931-0.71875-0.28125l-1.28-1.28-1.2812 1.2812c-0.19 0.19-0.45 0.28-0.72 0.28h-1v-1c0-0.26529 0.0931-0.53058 0.28125-0.71875l1.2812-1.25-1.2812-1.2812c-0.21-0.19-0.3-0.47-0.28-0.75v-1z"/>
  </g>
 </g>
</svg>
