<?xml version="1.0" encoding="UTF-8" standalone="no"?>
<!-- Created with Inkscape (http://www.inkscape.org/) -->
<svg id="svg3239" xmlns:rdf="http://www.w3.org/1999/02/22-rdf-syntax-ns#" xmlns="http://www.w3.org/2000/svg" height="24" width="24" version="1.0" xmlns:cc="http://creativecommons.org/ns#" xmlns:dc="http://purl.org/dc/elements/1.1/">
 <metadata id="metadata13">
  <rdf:RDF>
   <cc:Work rdf:about="">
    <dc:format>image/svg+xml</dc:format>
    <dc:type rdf:resource="http://purl.org/dc/dcmitype/StillImage"/>
    <dc:title/>
   </cc:Work>
  </rdf:RDF>
 </metadata>
 <path id="path3235" d="m6 6c-1.108 0-2 0.892-2 2v10c0 1.108 0.892 2 2 2h12c1.108 0 2-0.892 2-2v-10c0-1.108-0.892-2-2-2h-12zm6.5625 2c0.13425 0.023366 0.21875 0.11347 0.21875 0.34375v1.4688c0.29992 0.077419 0.64526 0.22389 0.90625 0.375l1.063-0.9692c0.33598-0.41907 0.58588-0.12279 0.90625 0.25 0.30016 0.34927 0.4506 0.45558 0.125 0.78125l-0.9375 1.0625c0.15847 0.26282 0.29527 0.63367 0.375 0.9375h1.4062c0.46047 0 0.375 0.28944 0.375 0.75 0 0.46057 0.02297 0.78125-0.4375 0.78125h-1.3438c-0.07988 0.30582-0.21604 0.64262-0.375 0.90625l1 1.0625c0.37128 0.32567 0.06958 0.5289-0.25 0.875-0.32584 0.35288-0.57162 0.52705-0.90625 0.15625l-1-0.9375c-0.26099 0.15111-0.60633 0.26633-0.90625 0.34375l0.031 1.437c0 0.461-0.352 0.375-0.812 0.375-0.46047 0-0.75 0.05432-0.75-0.40625l0.03125-1.4062c-0.29992-0.07742-0.67651-0.19264-0.9375-0.34375l-1 0.96875c-0.3256 0.32567-0.52411 0.07949-0.875-0.21875-0.3489-0.29654-0.61531-0.53094-0.25-0.90625l0.9375-1c-0.1587-0.263-0.2955-0.603-0.3753-0.907h-1.4062c-0.46047 0-0.34375-0.32068-0.34375-0.78125 0-0.46056-0.14797-0.75 0.3125-0.75h1.4375c0.079884-0.30583 0.21604-0.67387 0.375-0.9375l-0.9375-1.0312c-0.27091-0.26572-0.16645-0.41113 0.25-0.8125 0.18428-0.17761 0.28754-0.3125 0.5-0.3125s0.24345-0.037836 0.40625 0.125l0.96875 0.90625c0.261-0.151 0.606-0.2971 0.906-0.3745v-1.4375c0-0.46057 0.28953-0.34375 0.75-0.34375 0.23024 0 0.42825-0.054616 0.5625-0.03125zm-0.562 3.469c-0.84703 0-1.5312 0.68404-1.5312 1.5312 0 0.84721 0.68422 1.5312 1.5312 1.5312 0.84703 0 1.5312-0.68404 1.5312-1.5312 0-0.84721-0.68422-1.5312-1.5312-1.5312z" style="opacity:.3"/>
 <path id="rect2386" d="m6 5c-1.108 0-2 0.892-2 2v10c0 1.108 0.892 2 2 2h12c1.108 0 2-0.892 2-2v-10c0-1.108-0.892-2-2-2h-12zm6.5625 2c0.13425 0.023366 0.21875 0.11347 0.21875 0.34375v1.4688c0.29992 0.077419 0.64526 0.22389 0.90625 0.375l1.063-0.9688c0.33598-0.41907 0.58588-0.12279 0.90625 0.25 0.30016 0.34927 0.4506 0.45558 0.125 0.78125l-0.9375 1.0625c0.15847 0.26282 0.29527 0.63367 0.375 0.9375h1.4062c0.46047 0 0.375 0.28944 0.375 0.75 0 0.46057 0.02297 0.78125-0.4375 0.78125h-1.3438c-0.07988 0.30582-0.21604 0.64262-0.375 0.90625l1 1.0625c0.37128 0.32567 0.06958 0.5289-0.25 0.875-0.32584 0.35288-0.57162 0.52705-0.90625 0.15625l-1-0.9375c-0.26099 0.15111-0.60633 0.26633-0.90625 0.34375l0.031 1.437c0 0.461-0.352 0.375-0.812 0.375-0.46047 0-0.75 0.05432-0.75-0.40625l0.03125-1.4062c-0.29992-0.07742-0.67651-0.19264-0.9375-0.34375l-1 0.96875c-0.3256 0.32567-0.52411 0.07949-0.875-0.21875-0.3489-0.29654-0.61531-0.53094-0.25-0.90625l0.9375-1c-0.1587-0.263-0.2955-0.603-0.3753-0.907h-1.4062c-0.46047 0-0.34375-0.32068-0.34375-0.78125 0-0.46056-0.14797-0.75 0.3125-0.75h1.4375c0.079884-0.30583 0.21604-0.67387 0.375-0.9375l-0.9375-1.0308c-0.27091-0.26572-0.16645-0.41113 0.25-0.8125 0.18428-0.17761 0.28754-0.3125 0.5-0.3125s0.24345-0.037836 0.40625 0.125l0.969 0.9063c0.261-0.1511 0.606-0.2976 0.906-0.375v-1.4375c0-0.46057 0.28953-0.34375 0.75-0.34375 0.23024 0 0.42825-0.054616 0.5625-0.03125zm-0.562 3.469c-0.84703 0-1.5312 0.68404-1.5312 1.5312 0 0.84721 0.68422 1.5312 1.5312 1.5312 0.84703 0 1.5312-0.68404 1.5312-1.5312 0-0.84721-0.68422-1.5312-1.5312-1.5312z" style="fill:#dfdbd2"/>
</svg>
